<?xml version="1.0" encoding="UTF-8"?>
<svg id="Layer_2" data-name="Layer 2" xmlns="http://www.w3.org/2000/svg" viewBox="0 0 984.99 829.76">
  <defs>
    <style>
      .cls-1 {
        fill: #bfbfbf;
        stroke: #000;
        stroke-linecap: round;
        stroke-width: 2.5px;
      }
    </style>
  </defs>
  <g id="Layer_2-2" data-name="Layer 2">
    <g>
      <g>
        <g>
          <path class="cls-1" d="M1.25,312.48c35.43-10.39,57.06-.91,95.95-12.32l1.46,4.98c-38.89,11.41-60.52,1.93-95.95,12.32"/>
          <path class="cls-1" d="M7.28,333.02c37.69-11.06,52.04-31.09,86.39-41.16l1.46,4.98c-34.34,10.07-48.69,30.11-86.39,41.17"/>
          <path class="cls-1" d="M189.88,257.15c-35.43,10.39-48.51,30.06-87.4,41.46l1.46,4.98c38.88-11.41,51.97-31.07,87.4-41.46"/>
          <path class="cls-1" d="M195.9,277.69c-37.69,11.06-60.59,1.95-94.93,12.03l1.46,4.98c34.34-10.07,57.24-.96,94.94-12.02"/>
          <polygon class="cls-1" points="68.62 283.42 86.24 295.26 137.83 309.15 118.23 298.04 68.62 283.42"/>
          <polygon class="cls-1" points="77.08 325.23 88.98 305.49 125.86 267.68 115.22 286.83 77.08 325.23"/>
          <polygon class="cls-1" points="102.28 306.11 107.27 304.75 102.45 286.8 97.46 288.16 102.28 306.11"/>
          <polygon class="cls-1" points="107.21 304.6 112.27 303.52 108.73 285.27 103.67 286.34 107.21 304.6"/>
          <polygon class="cls-1" points="97.55 288.3 92.49 289.38 96.03 307.63 101.08 306.56 97.55 288.3"/>
        </g>
        <g>
          <path class="cls-1" d="M189.89,257.14c35.43-10.39,57.06-.91,95.95-12.32l1.46,4.98c-38.89,11.41-60.52,1.93-95.95,12.32"/>
          <path class="cls-1" d="M195.92,277.68c37.69-11.06,52.04-31.09,86.39-41.16l1.46,4.98c-34.34,10.07-48.69,30.11-86.39,41.17"/>
          <path class="cls-1" d="M378.52,201.81c-35.43,10.39-48.51,30.06-87.4,41.47l1.46,4.98c38.88-11.41,51.97-31.06,87.4-41.46"/>
          <path class="cls-1" d="M384.55,222.35c-37.69,11.06-60.59,1.95-94.93,12.03l1.46,4.98c34.34-10.07,57.24-.96,94.94-12.02"/>
          <polygon class="cls-1" points="257.26 228.08 274.88 239.92 326.47 253.81 306.87 242.7 257.26 228.08"/>
          <polygon class="cls-1" points="265.73 269.89 277.62 250.15 314.5 212.34 303.86 231.49 265.73 269.89"/>
          <polygon class="cls-1" points="290.92 250.77 295.91 249.41 291.09 231.47 286.1 232.83 290.92 250.77"/>
          <polygon class="cls-1" points="295.86 249.27 300.91 248.19 297.37 229.94 292.32 231.01 295.86 249.27"/>
          <polygon class="cls-1" points="286.19 232.96 281.13 234.04 284.67 252.3 289.73 251.22 286.19 232.96"/>
        </g>
        <g>
          <path class="cls-1" d="M378.53,201.81c35.43-10.39,57.06-.91,95.95-12.32l1.46,4.98c-38.89,11.41-60.52,1.93-95.95,12.32"/>
          <path class="cls-1" d="M384.56,222.35c37.69-11.06,52.04-31.09,86.39-41.16l1.46,4.98c-34.34,10.07-48.69,30.11-86.39,41.17"/>
          <path class="cls-1" d="M567.16,146.48c-35.43,10.39-48.51,30.06-87.4,41.46l1.46,4.98c38.88-11.41,51.97-31.07,87.4-41.46"/>
          <path class="cls-1" d="M573.19,167.02c-37.69,11.06-60.59,1.95-94.93,12.03l1.46,4.98c34.34-10.07,57.24-.96,94.94-12.02"/>
          <polygon class="cls-1" points="445.9 172.75 463.52 184.59 515.11 198.48 495.51 187.37 445.9 172.75"/>
          <polygon class="cls-1" points="454.37 214.56 466.26 194.82 503.14 157.01 492.5 176.16 454.37 214.56"/>
          <polygon class="cls-1" points="479.56 195.44 484.55 194.08 479.73 176.13 474.74 177.49 479.56 195.44"/>
          <polygon class="cls-1" points="484.5 193.93 489.55 192.85 486.01 174.6 480.96 175.67 484.5 193.93"/>
          <polygon class="cls-1" points="474.83 177.63 469.77 178.71 473.31 196.96 478.37 195.89 474.83 177.63"/>
        </g>
        <g>
          <path class="cls-1" d="M667.7,326.15c-26.1,23.59-49.07,23.88-77.72,49.77l-3.48-3.85c28.65-25.89,51.61-26.18,77.72-49.77"/>
          <path class="cls-1" d="M653.35,310.27c-27.77,25.09-31.31,48.76-56.61,71.62l-3.48-3.85c25.3-22.87,28.84-46.53,56.61-71.63"/>
          <path class="cls-1" d="M528.74,451.73c26.1-23.59,28.71-46.41,57.35-72.3l-3.48-3.85c-28.65,25.89-31.26,48.71-57.36,72.3"/>
          <path class="cls-1" d="M514.38,435.85c27.77-25.09,51.67-26.23,76.97-49.1l-3.48-3.85c-25.3,22.87-49.21,24-76.97,49.09"/>
          <polygon class="cls-1" points="622.2 379.29 601.66 375.86 550.76 384.33 572.69 386.31 622.2 379.29"/>
          <polygon class="cls-1" points="596.28 345.43 594.74 367.84 579.56 416.47 580.28 395.09 596.28 345.43"/>
          <polygon class="cls-1" points="582.93 372.67 579.21 375.9 591.37 389.95 595.09 386.72 582.93 372.67"/>
          <polygon class="cls-1" points="579.32 376 575.42 379.01 586.6 393.85 590.51 390.85 579.32 376"/>
          <polygon class="cls-1" points="594.95 386.64 598.85 383.63 587.67 368.78 583.77 371.78 594.95 386.64"/>
        </g>
        <g>
          <path class="cls-1" d="M528.73,451.74c-26.1,23.59-49.07,23.88-77.72,49.77l-3.48-3.85c28.65-25.89,51.61-26.18,77.72-49.77"/>
          <path class="cls-1" d="M514.37,435.86c-27.77,25.09-31.31,48.76-56.61,71.62l-3.48-3.85c25.3-22.86,28.84-46.53,56.61-71.63"/>
          <path class="cls-1" d="M389.76,577.32c26.1-23.59,28.71-46.41,57.35-72.3l-3.48-3.85c-28.65,25.89-31.26,48.71-57.36,72.3"/>
          <path class="cls-1" d="M375.41,561.44c27.77-25.09,51.67-26.23,76.97-49.1l-3.48-3.85c-25.3,22.87-49.21,24-76.97,49.09"/>
          <polygon class="cls-1" points="483.23 504.88 462.69 501.45 411.79 509.92 433.72 511.9 483.23 504.88"/>
          <polygon class="cls-1" points="457.31 471.02 455.76 493.43 440.59 542.06 441.3 520.68 457.31 471.02"/>
          <polygon class="cls-1" points="443.96 498.26 440.24 501.49 452.39 515.54 456.12 512.31 443.96 498.26"/>
          <polygon class="cls-1" points="440.35 501.6 436.45 504.6 447.62 519.45 451.53 516.45 440.35 501.6"/>
          <polygon class="cls-1" points="455.98 512.23 459.88 509.22 448.7 494.37 444.79 497.37 455.98 512.23"/>
        </g>
        <g>
          <path class="cls-1" d="M389.75,577.33c-26.1,23.59-49.07,23.88-77.72,49.77l-3.48-3.85c28.65-25.89,51.61-26.18,77.72-49.77"/>
          <path class="cls-1" d="M375.4,561.45c-27.77,25.09-31.31,48.76-56.61,71.62l-3.48-3.85c25.3-22.86,28.84-46.53,56.61-71.63"/>
          <path class="cls-1" d="M250.79,702.92c26.1-23.59,28.71-46.41,57.35-72.3l-3.48-3.85c-28.65,25.89-31.26,48.71-57.36,72.3"/>
          <path class="cls-1" d="M236.44,687.03c27.77-25.09,51.67-26.23,76.97-49.1l-3.48-3.85c-25.3,22.86-49.21,24-76.97,49.09"/>
          <polygon class="cls-1" points="344.25 630.48 323.72 627.04 272.81 635.51 294.74 637.49 344.25 630.48"/>
          <polygon class="cls-1" points="318.33 596.62 316.79 619.03 301.61 667.65 302.33 646.27 318.33 596.62"/>
          <polygon class="cls-1" points="304.99 623.85 301.26 627.08 313.42 641.13 317.14 637.9 304.99 623.85"/>
          <polygon class="cls-1" points="301.38 627.19 297.47 630.19 308.65 645.04 312.56 642.04 301.38 627.19"/>
          <polygon class="cls-1" points="317 637.82 320.91 634.81 309.73 619.96 305.82 622.96 317 637.82"/>
        </g>
        <g>
          <path class="cls-1" d="M250.78,702.92c-26.1,23.59-49.07,23.88-77.72,49.76l-3.48-3.85c28.65-25.89,51.61-26.18,77.72-49.77"/>
          <path class="cls-1" d="M236.43,687.04c-27.77,25.09-31.31,48.76-56.61,71.62l-3.48-3.85c25.3-22.87,28.84-46.53,56.61-71.63"/>
          <path class="cls-1" d="M111.82,828.51c26.1-23.59,28.71-46.41,57.35-72.3l-3.48-3.85c-28.65,25.89-31.26,48.71-57.36,72.3"/>
          <path class="cls-1" d="M97.46,812.62c27.77-25.09,51.67-26.23,76.97-49.1l-3.48-3.85c-25.3,22.86-49.21,24-76.97,49.09"/>
          <polygon class="cls-1" points="205.28 756.07 184.74 752.63 133.84 761.1 155.77 763.08 205.28 756.07"/>
          <polygon class="cls-1" points="179.36 722.21 177.82 744.62 162.64 793.24 163.36 771.86 179.36 722.21"/>
          <polygon class="cls-1" points="166.01 749.44 162.29 752.67 174.45 766.72 178.17 763.49 166.01 749.44"/>
          <polygon class="cls-1" points="162.4 752.78 158.5 755.78 169.68 770.63 173.58 767.63 162.4 752.78"/>
          <polygon class="cls-1" points="178.03 763.41 181.93 760.4 170.75 745.55 166.85 748.56 178.03 763.41"/>
        </g>
        <g>
          <path class="cls-1" d="M649.78,306.33c4.13-3.71,8.23-7.4,12.32-11.07,4.11-3.64,8.2-7.25,12.27-10.85,4.09-3.56,8.15-7.09,12.19-10.61,4.06-3.47,8.09-6.93,12.1-10.36,4.02-3.39,8.01-6.76,11.98-10.11,3.97-3.3,7.92-6.58,11.84-9.84,3.92-3.21,7.81-6.41,11.67-9.57,3.86-3.12,7.69-6.22,11.49-9.29,3.79-3.03,7.55-6.03,11.28-9.01,3.72-2.93,7.4-5.84,11.05-8.71,3.64-2.83,7.24-5.64,10.8-8.41,3.55-2.73,7.06-5.43,10.52-8.1,3.45-2.63,6.86-5.22,10.23-7.78,3.35-2.52,6.65-5.01,9.91-7.46,3.24-2.41,6.43-4.79,9.56-7.12,3.12-2.3,6.19-4.56,9.2-6.78,3-2.19,5.94-4.33,8.82-6.43,2.87-2.07,5.67-4.1,8.41-6.07,5.44-3.88,10.62-7.56,15.5-11.04,4.84-3.39,9.39-6.57,13.61-9.52,4.18-2.88,8.04-5.53,11.53-7.93,3.46-2.34,6.57-4.44,9.28-6.28,2.69-1.79,4.98-3.32,6.85-4.56,3.69-2.42,5.69-3.72,5.69-3.72-2.93,2.03-5.89,4.08-8.89,6.16-3.03,2.15-6.09,4.32-9.17,6.51-3.12,2.26-6.26,4.53-9.43,6.83-3.19,2.35-6.41,4.72-9.64,7.11-3.26,2.44-6.53,4.89-9.83,7.36-3.31,2.51-6.64,5.04-9.98,7.58-3.35,2.58-6.72,5.17-10.09,7.76-3.38,2.63-6.77,5.27-10.17,7.91-3.4,2.67-6.81,5.35-10.21,8.02-3.41,2.7-6.82,5.41-10.22,8.11-6.82,5.47-13.61,10.92-20.33,16.32-6.73,5.48-13.4,10.91-19.95,16.25-6.56,5.4-13,10.72-19.29,15.91-6.29,5.24-12.42,10.35-18.36,15.29-5.93,4.99-11.66,9.8-17.15,14.41-5.48,4.64-10.72,9.08-15.66,13.27-4.94,4.21-9.58,8.17-13.89,11.85-17.19,14.81-28.98,24.96-32.33,27.85"/>
          <path class="cls-1" d="M574.65,172c2.31-.7,4.78-1.44,7.38-2.23,2.6-.81,5.35-1.67,8.23-2.57,2.86-.92,5.86-1.87,8.97-2.87,3.1-1.01,6.32-2.06,9.65-3.15,6.62-2.21,13.67-4.55,21.06-7.02,7.34-2.5,15.02-5.11,22.94-7.81,7.88-2.72,16-5.53,24.27-8.39,8.24-2.88,16.62-5.81,25.05-8.76,16.79-5.94,33.79-11.96,50.25-17.78,16.38-5.87,32.21-11.54,46.76-16.75,14.49-5.24,27.69-10.01,38.86-14.04,22.25-8.1,36.38-13.24,36.38-13.24l-11.83-1.26c-6.81,2.55-13.8,5.17-20.92,7.84-7.19,2.64-14.51,5.33-21.93,8.06-7.47,2.7-15.03,5.44-22.64,8.19-7.65,2.73-15.35,5.48-23.05,8.23-7.74,2.73-15.48,5.46-23.17,8.17-7.72,2.7-15.4,5.38-22.99,8.03-15.25,5.26-30.12,10.39-44.26,15.27-14.2,4.83-27.65,9.41-39.98,13.6-12.37,4.16-23.61,7.93-33.32,11.2-9.75,3.24-17.98,5.98-24.29,8.08-6.33,2.07-10.74,3.52-12.86,4.21"/>
          <path class="cls-1" d="M667.7,326.15c4.77-4.25,9.57-8.53,14.38-12.82,4.83-4.27,9.67-8.54,14.51-12.81,9.7-8.49,19.4-16.98,28.95-25.34,19.14-16.67,37.73-32.88,54.76-47.71,4.25-3.73,8.4-7.38,12.43-10.93,4.02-3.57,7.94-7.04,11.72-10.39,3.77-3.38,7.41-6.65,10.91-9.8,3.47-3.17,6.81-6.22,9.99-9.13,1.58-1.47,3.12-2.9,4.62-4.3,1.49-1.4,2.94-2.77,4.35-4.11,1.4-1.34,2.75-2.64,4.07-3.91,1.3-1.27,2.56-2.5,3.78-3.7,1.19-1.2,2.35-2.36,3.47-3.49,1.09-1.12,2.13-2.21,3.15-3.26.49-.52.98-1.04,1.45-1.55.46-.5.92-1,1.37-1.49.43-.48.86-.96,1.28-1.43.4-.46.8-.92,1.19-1.37l3.16-7.35c-2.52,2.32-5.46,5.02-8.77,8.06-3.33,3.01-7.03,6.36-11.03,9.98-8.04,7.19-17.3,15.47-27.27,24.38-10,8.87-20.72,18.36-31.63,28.03-10.93,9.64-22.06,19.45-32.87,28.98-43.32,37.98-81.54,71.5-81.54,71.5"/>
          <path class="cls-1" d="M567.16,146.47s5.28-1.67,14.65-4.63c9.4-2.93,22.91-7.14,39.31-12.24,8.22-2.53,17.16-5.27,26.68-8.2,9.54-2.9,19.65-5.97,30.19-9.17,10.56-3.16,21.54-6.45,32.81-9.83,11.28-3.32,22.85-6.73,34.55-10.17,11.72-3.38,23.56-6.8,35.4-10.21,5.92-1.68,11.85-3.35,17.75-5.02,5.9-1.65,11.78-3.29,17.63-4.92,5.84-1.6,11.65-3.19,17.4-4.77,5.75-1.54,11.44-3.07,17.06-4.58,5.61-1.47,11.16-2.93,16.61-4.36,5.44-1.39,10.8-2.76,16.05-4.1,5.23-1.29,10.37-2.56,15.38-3.79,2.5-.6,4.97-1.19,7.41-1.77,2.43-.57,4.83-1.13,7.2-1.68,2.36-.54,4.68-1.07,6.97-1.59,2.28-.5,4.53-1,6.74-1.49,2.2-.47,4.36-.93,6.49-1.38,2.11-.43,4.18-.86,6.22-1.27,2.02-.39,4-.78,5.94-1.16,1.92-.35,3.8-.7,5.65-1.04,1.82-.31,3.6-.62,5.35-.92,1.71-.27,3.38-.53,5.03-.79.8-.12,1.6-.23,2.39-.34.78-.1,1.54-.21,2.3-.31.75-.09,1.49-.18,2.22-.27.72-.08,1.43-.16,2.13-.24.69-.07,1.37-.14,2.04-.2.66-.06,1.3-.11,1.95-.17l.94-.07.23-.02h.06s-.01.02-.01.03l-.06.09-.26.37c-.35.5-.71.99-1.05,1.48l-29.94,29.54c.95-1.09,1.89-2.17,2.83-3.26l1.35-1.6,1.31-1.58,1.27-1.57,1.23-1.55,1.19-1.53,1.15-1.52,1.11-1.5,1.07-1.48,1.03-1.47,1-1.45.96-1.43c.31-.47.61-.94.92-1.42.29-.47.59-.93.89-1.4.28-.46.56-.92.85-1.39.01-.02-.03,0-.05,0h-.06s-.13.02-.13.02l-.26.03-.52.06-1.05.13c-.71.09-1.42.18-2.13.27-1.45.2-2.92.4-4.4.61-1.52.23-3.05.46-4.6.7-1.58.26-3.17.52-4.78.79-1.64.29-3.29.58-4.96.87-1.7.32-3.41.63-5.14.96-1.75.34-3.52.69-5.31,1.04-1.81.37-3.63.74-5.47,1.12-1.86.39-3.74.79-5.64,1.19-1.91.42-3.84.84-5.79,1.27-1.96.44-3.94.89-5.94,1.34-2.01.46-4.04.93-6.08,1.41-4.12.99-8.31,1.99-12.58,3.02-4.29,1.07-8.66,2.16-13.1,3.27-4.45,1.15-8.98,2.32-13.57,3.5-4.6,1.22-9.27,2.46-14,3.72-4.74,1.29-9.54,2.59-14.4,3.91-4.86,1.35-9.78,2.71-14.74,4.09-4.97,1.4-9.99,2.82-15.05,4.25-5.06,1.45-10.17,2.92-15.32,4.4-10.28,3.01-20.72,6.06-31.27,9.15-10.53,3.14-21.15,6.31-31.83,9.5-10.66,3.23-21.37,6.47-32.06,9.71-42.7,13.1-85.24,26.15-123.86,37.99"/>
          <polygon class="cls-1" points="956.32 103.95 925.38 105.27 805.57 157.74 842.88 151.45 956.32 103.95"/>
          <polygon class="cls-1" points="968.47 28.02 979.73 31.13 982.55 31.9 982.64 31.93 982.68 31.94 982.7 31.94 982.71 31.95 982.7 31.97 982.41 32.27 981.83 32.89 980.68 34.12 978.38 36.59 969.16 46.44 932.32 85.86 767.46 248.98 835.27 172.73 920.64 89.87 963.33 48.45 974 38.09 976.67 35.5 977 35.18 977.08 35.1 977.06 35.08 977.01 35.04 976.81 34.87 976.41 34.55 974.82 33.24 968.47 28.02"/>
          <polygon class="cls-1" points="897.3 106.3 881.89 117.71 869.73 151.75 885.12 140.34 897.3 106.3"/>
          <polygon class="cls-1" points="881.86 117.95 866.68 128.81 850.62 165.68 865.79 154.83 881.86 117.95"/>
          <polygon class="cls-1" points="885.08 140.16 900.25 129.31 916.32 92.43 901.14 103.28 885.08 140.16"/>
          <path class="cls-1" d="M957.55,76.28l13.67-26.51,6.84-13.25.85-1.66.43-.83.11-.21.03-.05h0s0-.02,0-.02h-.04s-.18.03-.18.03l-.72.11-5.73.85-11.47,1.7-208.6,49.75,83.4-14.11,108.46-24.62,13.56-3.08,3.39-.77.42-.1.1-.02v.04s-.02.08-.02.08l-.04.31-.08.61-.34,2.44-1.35,9.77-2.7,19.54Z"/>
          <polygon class="cls-1" points="975.07 1.05 943.45 31.31 828.54 105.99 855.75 77.7 975.07 1.05"/>
          <polygon class="cls-1" points="891.8 46.56 873.53 53.6 904.95 62.59 923.22 55.55 891.8 46.56"/>
          <polygon class="cls-1" points="873.88 53.64 855.17 60.52 881.86 71.3 900.56 64.42 873.88 53.64"/>
          <polygon class="cls-1" points="922.76 55.55 941.48 48.67 914.77 37.9 896.06 44.78 922.76 55.55"/>
        </g>
      </g>
      <g>
        <g>
          <path class="cls-1" d="M276.42,368.39c-26.26,22.93-49.11,22.72-77.93,47.89l-3.41-3.91c28.82-25.17,51.67-24.96,77.93-47.89"/>
          <path class="cls-1" d="M262.34,352.26c-27.93,24.39-31.75,47.88-57.2,70.11l-3.41-3.91c25.45-22.23,29.27-45.72,57.2-70.11"/>
          <path class="cls-1" d="M136.63,490.46c26.26-22.93,29.13-45.6,57.95-70.77l-3.41-3.91c-28.82,25.17-31.7,47.83-57.96,70.76"/>
          <path class="cls-1" d="M122.55,474.34c27.93-24.39,51.72-25.01,77.17-47.24l-3.41-3.91c-25.45,22.23-49.25,22.84-77.18,47.23"/>
          <polygon class="cls-1" points="230.5 420.33 210.12 416.47 159.37 423.81 181.16 426.25 230.5 420.33"/>
          <polygon class="cls-1" points="205.14 386.06 203.33 408.34 187.63 456.43 188.6 435.16 205.14 386.06"/>
          <rect class="cls-1" x="193.17" y="412.29" width="4.88" height="18.58" transform="translate(-225.08 224.05) rotate(-39.96)"/>
          <polygon class="cls-1" points="187.89 416.14 183.97 419.04 194.91 434.07 198.83 431.16 187.89 416.14"/>
          <polygon class="cls-1" points="203.3 427.06 207.22 424.15 196.29 409.12 192.37 412.03 203.3 427.06"/>
        </g>
        <g>
          <path class="cls-1" d="M136.62,490.47c-26.26,22.93-49.11,22.72-77.93,47.89l-3.41-3.91c28.82-25.17,51.67-24.96,77.93-47.89"/>
          <path class="cls-1" d="M122.54,474.35c-27.93,24.39-31.75,47.88-57.2,70.11l-3.41-3.91c25.45-22.23,29.27-45.72,57.2-70.11"/>
          <path class="cls-1" d="M119.42,513.77c-17.08,3.46-29.06,9.75-41.45,16.14-6.2,3.19-12.49,6.4-19.59,9.29-3.55,1.44-7.29,2.81-11.32,4.05-.5.15-1.01.3-1.53.46l-.19.06-.1.03s-.07.02-.01,0c.07-.01.14-.02.21-.03.56-.06,1.3.1,1.83.47.54.37.89.86,1.07,1.42.18.55.19,1.22-.05,1.84-.12.31-.29.58-.49.8-.08.1-.2.21-.28.27l.07-.07.29-.29.58-.58c.39-.38.79-.77,1.19-1.16,1.61-1.55,3.31-3.12,5.11-4.69l-3.41-3.91c-1.8,1.57-3.5,3.14-5.11,4.69-.4.39-.8.78-1.19,1.16l-.58.58-.29.29-.07.07c-.08.08-.18.18-.27.28-.17.21-.32.47-.42.75-.39,1.16.08,2.3,1.02,2.89.47.3,1.08.41,1.58.34l.19-.03.07-.02.1-.03.19-.06c.51-.15,1.02-.31,1.53-.46,4.03-1.24,7.78-2.6,11.32-4.05,7.09-2.89,13.39-6.1,19.59-9.29,12.39-6.38,24.36-12.68,41.45-16.13"/>
          <path class="cls-1" d="M123.67,534.75c-18.17,3.68-32.5,2.71-46.43,1.65-6.96-.53-13.83-1.07-21.02-1.07-3.6,0-7.27.14-11.09.49-.48.05-.96.09-1.44.14h-.05s-.02,0-.02,0c-.06.01.19-.04.27-.06.49-.09.99-.14,1.49-.16,1.08-.05,2.2.07,3.33.39,2.26.62,4.23,2,5.54,3.66,1.33,1.66,2.14,3.62,2.35,5.83.22,2.19-.34,4.69-1.55,6.65-.28.47-.64.96-.97,1.35-.33.39-.68.76-1.07,1.1-.14.12-.03.03-.06.05h.02s.04-.04.04-.04l.07-.05.3-.22.59-.44c.39-.3.79-.6,1.18-.91,1.58-1.23,3.16-2.54,4.75-3.93l-3.41-3.91c-1.59,1.39-3.18,2.69-4.75,3.93-.4.31-.79.61-1.18.91l-.59.45-.3.22s-.14.11-.11.07c.39-.35.74-.76,1.06-1.29.63-1.03.92-2.35.8-3.49-.11-1.16-.54-2.17-1.24-3.04-.69-.86-1.72-1.58-2.9-1.89-.59-.16-1.17-.22-1.74-.19-.26,0-.52.04-.77.09-.04,0-.17.04-.14.03h.02s.05,0,.05,0c.48-.05.96-.09,1.44-.14,3.81-.35,7.49-.49,11.09-.49,7.19,0,14.05.55,21.02,1.07,13.93,1.06,28.26,2.03,46.43-1.65"/>
          <path class="cls-1" d="M90.7,542.41l-20.39-3.87-25.37,3.67-1.59.23-.79.11-.2.03h-.05c-.05.04-.17.14-.25.2-.18.15-.34.3-.51.49-.67.72-1.18,1.78-1.32,2.84-.28,2.13.54,4.21,2.46,5.57.96.67,2.2,1.04,3.33,1.06.27,0,.54,0,.81-.04.05,0,.17-.02.17-.02h.02s.05.03.05.03l.19.07,1.49.59,5.96,2.34,11.93,4.69-17.72-12.92-2.86-1.21-.36-.15c-.06-.07.09-.16.22-.2.3-.07.65.05.87.37.26.3.21,1-.05,1.38l.77-.09,6.17-.74,12.33-1.48,24.67-2.96Z"/>
          <path class="cls-1" d="M65.34,508.14l-1.82,22.28-7.85,24.05-.49,1.5-.25.75-.06.19-.02.05s-.04.04.03-.02l.17-.14.34-.3c.45-.41.85-.83,1.26-1.32,1.68-1.97,2.91-4.79,3.16-7.53.28-2.77-.25-5.4-1.37-7.7-1.12-2.29-2.9-4.39-5.37-5.91-2.44-1.54-5.52-2.28-8.18-2.16-.64.02-1.28.08-1.91.19-.23.04-.13.02-.14.02l.02-.02.04-.03.15-.13,1.17-1.06,4.68-4.25,9.36-8.5-11.38,18-2.42,2.15-.3.27c-.2.06.41-.05.72-.06.36-.02.72-.02,1.14,0,.78.06,1.61.24,2.38.55,1.57.62,2.83,1.7,3.63,2.91.81,1.22,1.26,2.59,1.31,4.08.06,1.48-.39,3.1-1.22,4.35-.2.31-.42.6-.67.86-.22.24-.45.47-.7.68l-.19.15s0-.01,0-.01l.02-.05.03-.1.26-.77,2.07-6.14,4.13-12.28,8.27-24.55Z"/>
          <polygon class="cls-1" points="51.72 534.97 47.98 538.11 59.9 552.36 63.64 549.23 51.72 534.97"/>
          <polygon class="cls-1" points="48.09 538.22 44.17 541.13 55.1 556.15 59.03 553.25 48.09 538.22"/>
          <polygon class="cls-1" points="63.5 549.14 67.42 546.23 56.48 531.2 52.56 534.11 63.5 549.14"/>
        </g>
        <g>
          <path class="cls-1" d="M119.43,513.77c34.17-6.92,53.92,4.58,91.42-3.01l1.03,5.08c-37.5,7.59-57.25-3.9-91.42,3.01"/>
          <path class="cls-1" d="M123.68,534.75c36.35-7.36,51.3-25.87,84.42-32.57l1.03,5.08c-33.12,6.7-48.07,25.22-84.42,32.58"/>
          <path class="cls-1" d="M301.34,476.96c-34.17,6.92-47.9,25.19-85.39,32.78l1.03,5.08c37.5-7.59,51.23-25.86,85.39-32.77"/>
          <path class="cls-1" d="M305.58,497.94c-36.35,7.36-57.32-3.89-90.44,2.82l1.03,5.08c33.12-6.7,54.09,4.55,90.44-2.81"/>
          <polygon class="cls-1" points="185.05 491.39 200.85 504.84 248.57 523.6 230.85 510.68 185.05 491.39"/>
          <polygon class="cls-1" points="190.11 533.73 202.72 515.27 240.18 481.26 228.8 499.26 190.11 533.73"/>
          <rect class="cls-1" x="213.54" y="498.29" width="4.88" height="18.58" transform="translate(-87 46.61) rotate(-10.27)"/>
          <polygon class="cls-1" points="219.99 516.14 224.84 515.55 222.78 497.09 217.93 497.66 219.99 516.14"/>
          <polygon class="cls-1" points="212.01 499.02 207.16 499.6 209.22 518.07 214.07 517.49 212.01 499.02"/>
        </g>
      </g>
      <g>
        <path class="cls-1" d="M2.6,156.62c41.48-8.76,64.94,1.8,110.46-7.81l1.07,5.08c-45.52,9.62-68.98-.94-110.46,7.82"/>
        <path class="cls-1" d="M7.03,177.56c44.12-9.32,62.79-28.78,103-37.27l1.07,5.08c-40.2,8.49-58.87,27.96-102.99,37.28"/>
        <path class="cls-1" d="M223.42,109.97c-41.48,8.76-58.66,27.92-104.18,37.53l1.07,5.08c45.52-9.62,62.7-28.76,104.18-37.53"/>
        <path class="cls-1" d="M227.85,130.91c-44.12,9.32-69.07-.92-109.27,7.57l1.07,5.08c40.21-8.49,65.15,1.76,109.27-7.56"/>
        <polygon class="cls-1" points="82.57 130.61 101.19 143.35 158.16 159.78 137.2 147.67 82.57 130.61"/>
        <polygon class="cls-1" points="87.26 173.05 103.1 153.77 149.45 117.51 135.11 136.26 87.26 173.05"/>
        <polygon class="cls-1" points="118.13 155.03 123.96 153.9 120.6 135.62 114.77 136.75 118.13 155.03"/>
        <polygon class="cls-1" points="123.92 153.75 129.79 152.9 127.92 134.38 122.05 135.22 123.92 153.75"/>
        <polygon class="cls-1" points="114.86 136.89 108.98 137.74 110.85 156.27 116.72 155.42 114.86 136.89"/>
      </g>
    </g>
  </g>
</svg>