<?xml version="1.0" encoding="UTF-8"?>
<svg id="Layer_2" data-name="Layer 2" xmlns="http://www.w3.org/2000/svg" viewBox="0 0 728.7 1016.24">
  <defs>
    <style>
      .cls-1 {
        fill: #bfbfbf;
        stroke: #000;
        stroke-linecap: round;
        stroke-width: 2.5px;
      }
    </style>
  </defs>
  <g id="Layer_2-2" data-name="Layer 2">
    <g>
      <g>
        <path class="cls-1" d="M1.25,979.95c16.12,0,28.13,3.8,40.53,7.59,6.2,1.9,12.5,3.8,19.46,5.22,6.54,1.42,14.08,2.37,22.65,2.37l1.38,5.19c-9.09,0-17.09-.95-24.03-2.37-6.96-1.42-13.26-3.32-19.46-5.22-12.4-3.79-24.41-7.59-40.53-7.59"/>
        <path class="cls-1" d="M1.25,1001.36c17.15,0,29.96-3.79,42.39-7.59,3.11-.95,6.19-1.9,9.31-2.79,1.56-.44,3.13-.88,4.72-1.28,1.55-.38,3.11-.76,4.7-1.15,5.8-1.42,11.59-2.37,18.34-2.37l1.33,5.19c-7.2,0-13.41.95-19.6,2.37-6.41,1.42-12.61,3.32-18.8,5.22-12.43,3.8-25.24,7.59-42.39,7.59"/>
        <path class="cls-1" d="M130.77,957.27c0,3.19.24,6.35.65,9.56.21,1.6.46,3.22.75,4.85.33,1.63.57,3.3.44,4.89-.2,3.2-1.51,5.99-3.2,7.71-.42.44-.87.79-1.33,1.1-.46.28-.92.52-1.39.74-.95.47-1.9.94-2.86,1.42-3.91,1.9-8.34,3.8-14.05,5.22-5.69,1.42-12.68,2.37-21.25,2.37l1.67,5.19c9.1.01,16.52-.98,22.64-2.37,6.12-1.42,10.93-3.32,15.2-5.22,1.05-.47,2.09-.94,3.14-1.42.51-.22,1.02-.47,1.52-.75.5-.32.99-.68,1.46-1.13,1.87-1.78,3.33-4.71,3.6-8.09.09-.84.06-1.71,0-2.58-.09-.87-.24-1.74-.39-2.61-.29-1.73-.54-3.45-.75-5.16-.42-3.42-.65-6.8-.65-10.23"/>
        <path class="cls-1" d="M151.92,971.5c-.1,4.37-.42,8.29-.85,11.84-.21,1.78-.46,3.46-.71,5.08-.21,1.62-.92,3.16-1.96,4.46-.25.33-.57.62-.85.93-.33.27-.63.57-.99.81-.69.5-1.43.95-2.33,1.21-1.72.58-3.66.77-5.62.57-1.96-.2-3.92-.79-5.84-1.22-1.9-.48-3.78-.95-5.65-1.42-7.41-1.9-14.31-3.79-20.93-5.22-6.64-1.42-12.99-2.37-19.73-2.37l1.72,5.19c7.2,0,13.96.95,20.99,2.37,3.51.71,7.07,1.54,10.73,2.43,3.64.86,7.5,1.93,11.2,2.65,1.87.39,3.76.76,5.65,1.1,1.89.31,3.8.75,5.71.79,3.81.09,7.47-1.55,9.71-4.23,1.11-1.33,1.9-2.9,2.2-4.53.34-1.63.67-3.31.97-5.13.6-3.59,1.1-7.59,1.35-12.09"/>
        <path class="cls-1" d="M63.78,971.03c2.94,5.44,6.62,10.88,11.04,16.32,6.63,4.64,14.33,9.28,23.07,13.92,8.73,4.65,18.6,9.29,28.81,12.97-8.33-4.63-16.27-9.85-23.43-15.23-17.21-9.32-30.38-18.66-39.49-27.99Z"/>
        <path class="cls-1" d="M61.71,1013.53c5.8-5.2,10.72-10.39,14.75-15.59,11.89-8.63,19.81-17.27,23.77-25.9.05,5.13-.7,10.25-2.25,15.38-7.98,8.7-20.07,17.41-36.28,26.11Z"/>
        <polygon class="cls-1" points="88.73 1002.27 93.49 1002.37 87.31 983.8 83.5 983.7 88.73 1002.27"/>
        <path class="cls-1" d="M93.43,1002.22l4.87.39c-1.94-6.17-3.99-12.34-6.14-18.51l-3.93-.4c1.84,6.17,3.57,12.34,5.2,18.52Z"/>
        <path class="cls-1" d="M83.58,983.85l-3.87-.39c1.13,6.17,2.15,12.34,3.06,18.51l4.81.39c-1.23-6.17-2.56-12.34-4.01-18.52Z"/>
      </g>
      <g>
        <path class="cls-1" d="M130.77,957.26c0-6.38.95-11.38,2.37-16.17,1.42-4.77,3.32-9.32,5.22-14.38,1.9-5.08,3.8-10.56,5.22-17.26,1.42-6.96,2.37-14.58,2.37-23.43h5.19c0,8.85-.95,16.47-2.37,23.43-1.42,6.98-3.32,12.92-5.22,18.34-1.9,5.43-3.8,10.34-5.22,15.5-1.42,5.18-2.37,10.6-2.37,17.45"/>
        <path class="cls-1" d="M151.92,971.49c.22-8.74-.67-17.08-2.11-24.63-1.42-7.56-3.32-14.35-5.22-20.62-.93-3.03-1.85-6.04-2.79-9.08-.44-1.47-.87-2.93-1.28-4.37-.2-.72-.39-1.44-.59-2.17-.18-.8-.37-1.61-.55-2.42-1.42-6.52-2.37-13.44-2.37-21.25h5.19c0,7.81.95,14.73,2.37,21.25.19.81.37,1.62.56,2.43.2.77.4,1.54.59,2.31.41,1.54.84,3.09,1.28,4.65.93,3.23,1.86,6.42,2.79,9.64,1.9,6.63,3.8,13.79,5.22,21.77,1.45,7.96,2.23,16.71,1.69,25.71"/>
        <path class="cls-1" d="M130.77,797.8c0,32.24,15.19,48.04,15.19,83.43h5.19c0-35.39-15.18-51.18-15.18-83.43"/>
        <path class="cls-1" d="M152.18,797.8c0,34.3-15.18,51.25-15.18,82.5h5.19c0-31.25,15.19-48.2,15.19-82.5"/>
        <polygon class="cls-1" points="121.85 905.86 138.17 894.01 166.02 854.19 149.84 867.89 121.85 905.86"/>
        <polygon class="cls-1" points="164.35 909.05 148.76 894.22 122.86 854.03 138.24 867.65 164.35 909.05"/>
        <polygon class="cls-1" points="153.09 883.23 153.19 878.72 134.62 878.35 134.52 882.87 153.09 883.23"/>
        <polygon class="cls-1" points="153.04 878.73 153.43 874.23 134.92 872.71 134.52 877.21 153.04 878.73"/>
        <polygon class="cls-1" points="134.67 882.82 134.29 887.33 152.8 888.85 153.19 884.35 134.67 882.82"/>
      </g>
      <g>
        <path class="cls-1" d="M130.77,797.79c0-32.24,15.19-48.04,15.19-83.43h5.19c0,35.39-15.18,51.18-15.18,83.43"/>
        <path class="cls-1" d="M152.18,797.79c0-34.3-15.18-51.25-15.18-82.5h5.19c0,31.25,15.19,48.2,15.19,82.5"/>
        <path class="cls-1" d="M130.77,626.13c0,32.24,15.19,48.04,15.19,83.43h5.19c0-35.39-15.18-51.18-15.18-83.43"/>
        <path class="cls-1" d="M152.18,626.13c0,34.3-15.18,51.25-15.18,82.5h5.19c0-31.25,15.19-48.2,15.19-82.5"/>
        <polygon class="cls-1" points="121.85 734.19 138.17 722.34 166.02 682.53 149.84 696.22 121.85 734.19"/>
        <polygon class="cls-1" points="164.35 737.38 148.76 722.56 122.86 682.36 138.24 695.98 164.35 737.38"/>
        <polygon class="cls-1" points="153.09 711.57 153.19 707.05 134.62 706.68 134.52 711.2 153.09 711.57"/>
        <polygon class="cls-1" points="153.04 707.06 153.43 702.56 134.92 701.04 134.52 705.54 153.04 707.06"/>
        <polygon class="cls-1" points="134.67 711.15 134.29 715.66 152.8 717.18 153.19 712.68 134.67 711.15"/>
      </g>
      <g>
        <path class="cls-1" d="M130.77,626.12c0-32.24,15.19-48.04,15.19-83.43h5.19c0,35.39-15.18,51.18-15.18,83.43"/>
        <path class="cls-1" d="M152.18,626.12c0-34.3-15.18-51.25-15.18-82.5h5.19c0,31.25,15.19,48.2,15.19,82.5"/>
        <path class="cls-1" d="M130.77,454.46c0,32.24,15.19,48.04,15.19,83.43h5.19c0-35.39-15.18-51.18-15.18-83.43"/>
        <path class="cls-1" d="M152.18,454.46c0,34.3-15.18,51.25-15.18,82.5h5.19c0-31.25,15.19-48.2,15.19-82.5"/>
        <polygon class="cls-1" points="121.85 562.53 138.17 550.67 166.02 510.86 149.84 524.55 121.85 562.53"/>
        <polygon class="cls-1" points="164.35 565.71 148.76 550.89 122.86 510.69 138.24 524.31 164.35 565.71"/>
        <polygon class="cls-1" points="153.09 539.9 153.19 535.38 134.62 535.01 134.52 539.53 153.09 539.9"/>
        <polygon class="cls-1" points="153.04 535.39 153.43 530.89 134.92 529.37 134.52 533.87 153.04 535.39"/>
        <polygon class="cls-1" points="134.67 539.49 134.29 543.99 152.8 545.51 153.19 541.01 134.67 539.49"/>
      </g>
      <g>
        <path class="cls-1" d="M130.77,454.45c0-32.24,15.19-48.04,15.19-83.43h5.19c0,35.39-15.18,51.18-15.18,83.43"/>
        <path class="cls-1" d="M152.18,454.45c0-34.3-15.18-51.25-15.18-82.5h5.19c0,31.25,15.19,48.2,15.19,82.5"/>
        <path class="cls-1" d="M130.77,280.27c0,4.87.24,9.45.65,13.76l.08.8.08.69c.06.44.12.88.18,1.32.12.87.26,1.74.41,2.59.29,1.71.62,3.38.97,5.02,1.42,6.57,3.32,12.67,5.22,18.87,3.8,12.4,7.59,25.2,7.59,42.89h5.19c0-17.69-3.8-30.49-7.59-42.89-1.9-6.2-3.8-12.3-5.22-18.87-.36-1.64-.68-3.31-.97-5.02-.14-.85-.28-1.72-.4-2.59-.13-.9-.24-1.69-.34-2.77-.42-4.09-.65-8.45-.65-13.08"/>
        <path class="cls-1" d="M152.18,283.25c0,4.12-.24,7.96-.65,11.65-.42,3.8-1.01,7.4-1.72,10.85-1.42,6.9-3.32,13.21-5.22,19.43-3.8,12.43-7.59,24.48-7.59,40.11h5.19c0-15.63,3.8-27.68,7.59-40.11,1.9-6.22,3.8-12.53,5.22-19.43.71-3.45,1.31-7.05,1.72-10.85.42-3.47.65-7.07.65-10.94"/>
        <polygon class="cls-1" points="121.85 390.86 138.17 379.01 166.02 339.19 149.84 352.88 121.85 390.86"/>
        <polygon class="cls-1" points="164.35 394.04 148.76 379.22 122.86 339.02 138.24 352.65 164.35 394.04"/>
        <polygon class="cls-1" points="153.09 368.23 153.19 363.71 134.62 363.34 134.52 367.86 153.09 368.23"/>
        <polygon class="cls-1" points="153.04 363.72 153.43 359.22 134.92 357.7 134.52 362.2 153.04 363.72"/>
        <polygon class="cls-1" points="134.67 367.82 134.29 372.32 152.8 373.84 153.19 369.34 134.67 367.82"/>
      </g>
      <g>
        <path class="cls-1" d="M130.77,280.26c-.03-4.87.28-9.38.93-13.5.31-2.06.71-4.02,1.15-5.9.22-.94.43-1.85.73-2.76.31-.9.72-1.78,1.2-2.62.97-1.68,2.28-3.18,3.8-4.4,1.51-1.24,3.03-2.43,4.57-3.58,3.09-2.29,6.25-4.41,9.43-6.43,3.09-1.96,6.2-3.94,9.41-5.97,3.08-1.99,6.19-4.1,9.02-6.07,5.8-4.11,11.7-9.02,17.75-15.48l3.79,3.55c-6.05,6.46-11.95,11.37-17.75,15.48-5.75,4.06-11.66,7.59-17.78,11.35-3.05,1.88-6.13,3.84-9.16,5.97-1.52,1.06-3.02,2.17-4.51,3.32-1.51,1.13-2.79,2.54-3.73,4.14-.46.8-.85,1.64-1.13,2.5-.28.86-.46,1.74-.65,2.64-.39,1.8-.74,3.67-1.02,5.64-.58,3.92-.87,8.21-.85,12.84"/>
        <path class="cls-1" d="M152.18,283.24c0-4.13-.24-8.03-.65-11.84-.21-1.9-.46-3.78-.75-5.65-.34-1.86-.32-3.73.09-5.41.19-.84.48-1.63.83-2.36.36-.72.76-1.4,1.14-2.1.76-1.39,1.49-2.79,2.2-4.2,1.42-2.82,2.78-5.69,4.21-8.61,1.43-2.92,2.92-5.89,4.54-8.93.81-1.52,1.66-3.05,2.55-4.6.8-1.45,1.61-2.88,2.46-4.31,3.42-5.73,7.45-11.43,12.79-17.14l3.79,3.55c-5.34,5.7-9.38,11.4-12.79,17.14-.86,1.43-1.67,2.87-2.46,4.31-.83,1.48-1.61,2.94-2.36,4.4-1.5,2.9-2.86,5.74-4.16,8.52-1.26,2.69-2.54,5.4-3.85,8.19-.65,1.34-1.3,2.67-1.98,4-.33.67-.7,1.31-1.03,2-.32.69-.57,1.44-.74,2.23-.36,1.58-.36,3.35-.02,5.1.29,1.76.54,3.53.75,5.32.42,3.58.65,7.25.65,11.12"/>
        <path class="cls-1" d="M237.97,138.76c-22.04,23.54-21.75,45.45-45.93,71.28l3.79,3.55c24.19-25.83,23.9-47.74,45.94-71.27"/>
        <path class="cls-1" d="M253.6,153.39c-23.44,25.04-46.11,27.04-67.47,49.85l3.79,3.55c21.36-22.81,44.03-24.81,67.48-49.84"/>
        <polygon class="cls-1" points="157.6 211.55 177.61 214.05 225.16 204.02 203.99 202.96 157.6 211.55"/>
        <polygon class="cls-1" points="186.45 242.92 185.2 221.44 193.76 174.4 195.68 194.86 186.45 242.92"/>
        <polygon class="cls-1" points="195.87 216.38 199.03 213.16 185.72 200.19 182.57 203.42 195.87 216.38"/>
        <polygon class="cls-1" points="198.91 213.06 202.27 210.04 189.8 196.28 186.44 199.29 198.91 213.06"/>
        <polygon class="cls-1" points="182.71 203.49 179.35 206.52 191.82 220.28 195.18 217.26 182.71 203.49"/>
      </g>
      <g>
        <path class="cls-1" d="M237.98,138.75c22.04-23.54,43.92-24.69,68.11-50.52l3.79,3.55c-24.19,25.83-46.06,26.99-68.1,50.52"/>
        <path class="cls-1" d="M253.61,153.39c23.44-25.04,23.95-47.79,45.31-70.6l3.79,3.55c-21.36,22.81-21.86,45.57-45.3,70.61"/>
        <path class="cls-1" d="M366.95,6.59c-5.93,4.6-11.26,9.93-15.94,15.69-4.7,5.84-8.71,12.12-12.36,18.47-4.44,7.76-8.46,15.23-12.98,22.49-2.26,3.63-4.66,7.21-7.33,10.79-1.34,1.79-2.74,3.58-4.25,5.37-.75.89-1.54,1.81-2.31,2.69-.77.88-1.57,1.76-2.4,2.64l3.79,3.55c3.35-3.58,6.05-6.88,8.58-10.3,2.5-3.39,4.74-6.8,6.85-10.27,4.22-6.93,7.97-14.11,12.13-21.57,3.42-6.12,7.17-12.27,11.59-18.07,4.39-5.75,9.44-11.15,15.1-15.95"/>
        <path class="cls-1" d="M368.89,30.26c-4.82,5.15-9.23,8.84-13.59,11.9-4.36,3.05-8.65,5.49-13.08,7.87-5.94,3.24-12.12,6.46-18.66,10.86-3.27,2.19-6.62,4.67-10.03,7.53-1.71,1.43-3.43,2.96-5.15,4.6-.86.82-1.73,1.66-2.6,2.53-.8.8-1.54,1.56-2.31,2.39l3.79,3.55c.77-.82,1.52-1.6,2.3-2.38.82-.82,1.65-1.62,2.47-2.39,1.64-1.54,3.28-2.98,4.91-4.33,3.25-2.69,6.45-5,9.57-7.04,6.24-4.07,12.14-7,17.79-9.92,4.21-2.17,8.29-4.34,12.4-7.13,4.12-2.8,8.26-6.2,12.78-11.03"/>
        <path class="cls-1" d="M274.93,86.24l20.01,2.5,11.89-2.51,5.94-1.25c1.99-.42,3.96-.83,5.87-1.17,7.65-1.38,14.57-1.98,20.77-1.81-5.48-2.04-11.53-3.46-18.16-4.27-3.67.5-7.53,1.22-11.53,2.07l-11.6,2.15-23.19,4.29Z"/>
        <path class="cls-1" d="M303.78,117.61l-1.25-21.48,2.14-11.76,1.07-5.88.27-1.47c.08-.49.17-.97.31-1.52l.8-3.22c2.21-8.68,5.11-18.09,8.68-28.22-1.21,8.79-1.88,17.01-2,24.64-1.21,4.47-2.29,8.81-3.1,12.86l-2.31,12.02-4.62,24.03Z"/>
        <polygon class="cls-1" points="313.21 91.07 316.36 87.84 303.06 74.88 299.9 78.11 313.21 91.07"/>
        <path class="cls-1" d="M316.24,87.75l3.26-2.91c-4.03-4.72-7.99-9.52-11.88-14.39l-3.85,3.53,12.48,13.77Z"/>
        <polygon class="cls-1" points="300.04 78.18 296.68 81.21 309.16 94.97 312.52 91.95 300.04 78.18"/>
      </g>
      <g>
        <path class="cls-1" d="M366.96,6.58c1.65-1.28,3.19-2.42,4.75-3.46,1.58-1,3.47-1.65,5.46-1.81,1.98-.17,4.02.06,5.9.7,1.88.64,3.6,1.65,5.01,2.94,1.39,1.3,2.5,2.85,3.69,4.31,1.16,1.47,2.32,3.04,3.44,4.59,1.13,1.57,2.22,3.12,3.31,4.74,1.09,1.63,2.16,3.27,3.21,4.92,4.24,6.65,8.25,13.59,12.59,20.57,4.34,7.01,9.02,13.87,15.04,20.72l-2.94,4.52c-5.67-6.47-10.07-12.94-14.11-19.72-4.03-6.76-7.75-13.69-11.71-20.39-1.98-3.34-4.01-6.64-6.13-9.82-1.06-1.59-2.16-3.18-3.26-4.71-1.13-1.52-2.19-3.11-3.52-4.46-1.35-1.33-3-2.38-4.81-3.03-1.81-.66-3.77-.88-5.68-.69-1.92.18-3.74.88-5.25,1.94-1.5,1.1-2.97,2.31-4.55,3.64"/>
        <path class="cls-1" d="M368.9,30.25c1.42-1.49,2.74-3.07,4.12-4.59,1.4-1.51,3.18-2.56,4.98-3.23,1.81-.64,3.67-.86,5.37-.72,1.69.17,3.2.69,4.4,1.45.59.38,1.17.76,1.75,1.14.58.37,1.16.72,1.73,1.15,1.14.82,2.29,1.58,3.43,2.3,2.29,1.43,4.61,2.74,6.99,4,4.76,2.56,9.82,5.08,15.21,8.88,5.36,3.81,11.01,8.93,16.87,15.59l-2.9,4.56c-5.55-6.33-10.94-11.09-16.03-14.67-2.55-1.79-5.02-3.31-7.41-4.69-2.39-1.36-4.68-2.71-6.96-3.83-4.55-2.31-8.85-4.37-13.26-7.2-1.13-.68-2.55-1.15-4.14-1.28-1.59-.11-3.34.12-5.04.74-1.69.65-3.36,1.65-4.67,3.08-1.29,1.43-2.53,2.92-3.86,4.32"/>
        <path class="cls-1" d="M499.46,121.81c-10.62-12.13-21.39-18.66-32.42-25.49-5.51-3.42-11.09-6.9-16.75-11.2-2.78-2.09-5.82-4.66-8.75-7.38-2.95-2.74-5.9-5.75-8.91-9.19l-3.13,4.3c11.18,12.77,22.63,20.09,33.63,26.88,11.03,6.83,21.79,13.37,32.41,25.5"/>
        <path class="cls-1" d="M483.35,135.91c-11.3-12.9-16.88-25.04-22.22-36.9-2.67-5.93-5.27-11.78-8.5-17.62-.41-.74-.8-1.45-1.25-2.21-.5-.8-1-1.6-1.5-2.42-1.03-1.62-2.13-3.25-3.29-4.9-2.33-3.29-4.94-6.63-7.86-9.97l-3.16,4.26c2.77,3.17,5.24,6.34,7.43,9.47,1.1,1.57,2.12,3.12,3.09,4.67.47.78.94,1.54,1.41,2.31.42.74.83,1.47,1.25,2.2,3.22,5.84,5.83,11.7,8.49,17.63,5.33,11.85,10.92,24,22.21,36.9"/>
        <path class="cls-1" d="M425.89,24.35c.61,4.68,1.04,9.35,1.37,13.85.33,4.5.53,8.86.61,13.09,2.56,9.97,4.42,19.14,5.58,27.51,1.28,8.5,1.21,15.47,2.33,23.8l1.57-10.48c.64-3.36,1.22-6.79,1.62-10.43-.84-8.05-2.35-16.85-4.53-26.42-1.09-4.78-2.34-9.76-3.77-14.93-.71-2.58-1.46-5.21-2.26-7.89-.79-2.69-1.63-5.41-2.53-8.1Z"/>
        <path class="cls-1" d="M406.46,66.57c4.72-2.5,10.03-4.33,15.91-5.5,6.6.98,13.85,2.71,21.76,5.19,3.95,1.24,8.07,2.66,12.35,4.27l3.24,1.24c1.03.35,1.93.57,2.91.86l5.75,1.65-10.27-.06c-.82.03-1.81-.12-2.72-.18l-2.74-.21c-1.81-.12-3.58-.2-5.33-.25-16.33-5.44-29.95-7.78-40.85-7.02Z"/>
        <polygon class="cls-1" points="427.07 73.03 429.84 76.34 441.67 61.65 438.27 57.62 427.07 73.03"/>
        <path class="cls-1" d="M429.93,76.21l2.57,3.52c4.36-4.39,8.79-8.69,13.29-12.92l-3.19-4.24c-4.3,4.46-8.52,9.01-12.67,13.63Z"/>
        <path class="cls-1" d="M438.21,57.79l-3.23-4.28c-3.83,5-7.58,10.08-11.26,15.24l2.61,3.57c3.89-4.92,7.86-9.77,11.89-14.53Z"/>
      </g>
      <g>
        <path class="cls-1" d="M499.46,121.82c21.24,24.26,20.22,46.15,43.53,72.77l-3.9,3.42c-23.31-26.62-22.29-48.51-43.53-72.77"/>
        <path class="cls-1" d="M483.36,135.92c22.6,25.81,45.18,28.56,65.77,52.07l-3.9,3.42c-20.59-23.51-43.18-26.26-65.78-52.07"/>
        <path class="cls-1" d="M615.48,256.6c-.39-.87-.85-1.69-1.37-2.44-.52-.75-1.1-1.45-1.66-2.15-1.12-1.4-2.28-2.75-3.45-4.03-2.35-2.57-4.8-4.9-7.27-7.01-2.56-2.19-5.09-4.21-7.59-6.1-1.25-.94-2.49-1.85-3.72-2.74-1.21-.86-2.53-1.82-3.56-2.45-4.39-2.8-8.82-5.45-13.29-8.33-8.94-5.77-18.05-12.46-27.4-23.14l-3.9,3.42c9.35,10.68,18.46,17.37,27.4,23.14,4.47,2.88,8.9,5.54,13.29,8.34,1.06.66,2.29,1.52,3.46,2.33,1.18.83,2.37,1.68,3.57,2.57,2.4,1.77,4.83,3.67,7.28,5.74,2.37,1.98,4.73,4.18,7.02,6.6,1.15,1.21,2.28,2.47,3.38,3.79.55.66,1.12,1.32,1.63,2.03.51.71.97,1.49,1.34,2.31"/>
        <path class="cls-1" d="M595.33,264.4c-.33-.69-.73-1.34-1.17-1.94-.45-.59-.93-1.14-1.38-1.71-.9-1.13-1.76-2.24-2.57-3.35-1.62-2.21-3.08-4.4-4.4-6.55-3-4.84-5.54-9.76-7.92-14.71-2.34-4.9-4.43-9.73-6.65-14.53-4.43-9.59-9.36-19.04-17.74-28.61l-3.9,3.42c8.38,9.57,13.31,19.02,17.74,28.61,2.22,4.8,4.31,9.63,6.64,14.53,1.21,2.5,2.28,4.79,3.5,7.13,1.2,2.33,2.46,4.63,3.85,6.93,1.22,2.04,2.56,4.1,4.07,6.18.76,1.04,1.55,2.09,2.4,3.15.42.53.87,1.05,1.29,1.61.42.56.79,1.17,1.1,1.82"/>
        <polygon class="cls-1" points="548.07 163.79 543.59 183.45 548.87 231.75 552.02 210.8 548.07 163.79"/>
        <polygon class="cls-1" points="513.99 189.39 535.49 190.27 581.45 203.45 560.91 203.33 513.99 189.39"/>
        <polygon class="cls-1" points="539.47 201.39 542.36 204.86 556.58 192.9 553.68 189.43 539.47 201.39"/>
        <polygon class="cls-1" points="542.48 204.75 545.15 208.39 560.08 197.34 557.41 193.69 542.48 204.75"/>
        <polygon class="cls-1" points="553.6 189.57 550.92 185.93 535.99 196.98 538.66 200.62 553.6 189.57"/>
      </g>
      <g>
        <path class="cls-1" d="M615.49,256.61c1.01,2.2,1.36,4.55,1.37,6.78.08,2.25.07,4.45-.03,6.63-.18,4.34-.75,8.52-1.48,12.49-.71,3.97-1.54,7.74-2.43,11.36-.23.9-.45,1.8-.68,2.69l-.69,2.33c-.47,1.55-.94,3.09-1.42,4.64-3.8,12.4-7.59,25.2-7.59,42.89h-5.19c0-17.69,3.8-30.49,7.59-42.89.47-1.55.94-3.09,1.42-4.64l.69-2.32c.23-.85.45-1.7.68-2.55.89-3.44,1.72-7.02,2.43-10.79.72-3.78,1.3-7.75,1.55-11.9.13-2.08.18-4.19.16-6.34-.01-1.08-.02-2.16-.23-3.26-.19-1.09-.53-2.18-1-3.23"/>
        <path class="cls-1" d="M595.33,264.41c.44.93.75,1.91.92,2.89.18.98.17,1.96.24,2.91.11,1.91.27,3.75.48,5.55.42,3.59,1.01,6.99,1.72,10.32.71,3.33,1.54,6.58,2.43,9.85.89,3.24,1.84,6.36,2.79,9.47,3.8,12.43,7.59,24.48,7.59,40.11h-5.19c0-15.63-3.8-27.68-7.59-40.11-.95-3.1-1.9-6.27-2.79-9.43-.89-3.08-1.72-6.13-2.43-9.26-.71-3.12-1.31-6.31-1.72-9.67-.21-1.68-.37-3.41-.48-5.2-.06-.89-.06-1.81-.23-2.73-.16-.92-.45-1.84-.87-2.71"/>
        <path class="cls-1" d="M617.73,434.65c0-32.24-15.19-48.04-15.19-83.43h-5.19c0,35.39,15.18,51.18,15.18,83.43"/>
        <path class="cls-1" d="M596.32,434.65c0-34.3,15.18-51.25,15.18-82.5h-5.19c0,31.25-15.19,48.2-15.19,82.5"/>
        <polygon class="cls-1" points="626.65 326.59 610.33 338.44 582.48 378.26 598.65 364.57 626.65 326.59"/>
        <polygon class="cls-1" points="584.15 323.41 599.74 338.23 625.64 378.42 610.26 364.8 584.15 323.41"/>
        <polygon class="cls-1" points="595.4 349.22 595.3 353.73 613.88 354.1 613.98 349.59 595.4 349.22"/>
        <polygon class="cls-1" points="595.46 353.72 595.07 358.22 613.58 359.75 613.97 355.24 595.46 353.72"/>
        <polygon class="cls-1" points="613.82 349.63 614.21 345.13 595.7 343.61 595.31 348.11 613.82 349.63"/>
      </g>
      <g>
        <path class="cls-1" d="M617.73,434.67c0,32.24-15.19,48.04-15.19,83.43h-5.19c0-35.39,15.18-51.18,15.18-83.43"/>
        <path class="cls-1" d="M596.32,434.67c0,34.3,15.18,51.25,15.18,82.5h-5.19c0-31.25-15.19-48.2-15.19-82.5"/>
        <path class="cls-1" d="M617.73,606.32c0-32.24-15.19-48.04-15.19-83.43h-5.19c0,35.39,15.18,51.18,15.18,83.43"/>
        <path class="cls-1" d="M596.32,606.32c0-34.3,15.18-51.25,15.18-82.5h-5.19c0,31.25-15.19,48.2-15.19,82.5"/>
        <polygon class="cls-1" points="626.65 498.26 610.33 510.11 582.48 549.93 598.65 536.23 626.65 498.26"/>
        <polygon class="cls-1" points="584.15 495.08 599.74 509.9 625.64 550.09 610.26 536.47 584.15 495.08"/>
        <polygon class="cls-1" points="595.4 520.89 595.3 525.4 613.88 525.77 613.98 521.26 595.4 520.89"/>
        <polygon class="cls-1" points="595.46 525.39 595.07 529.89 613.58 531.41 613.97 526.91 595.46 525.39"/>
        <polygon class="cls-1" points="613.82 521.3 614.21 516.8 595.7 515.27 595.31 519.78 613.82 521.3"/>
      </g>
      <g>
        <path class="cls-1" d="M617.73,606.33c0,32.24-15.19,48.04-15.19,83.43h-5.19c0-35.39,15.18-51.18,15.18-83.43"/>
        <path class="cls-1" d="M596.32,606.33c0,34.3,15.18,51.25,15.18,82.5h-5.19c0-31.25-15.19-48.2-15.19-82.5"/>
        <path class="cls-1" d="M617.73,777.99c0-32.24-15.19-48.04-15.19-83.43h-5.19c0,35.39,15.18,51.18,15.18,83.43"/>
        <path class="cls-1" d="M596.32,777.99c0-34.3,15.18-51.25,15.18-82.5h-5.19c0,31.25-15.19,48.2-15.19,82.5"/>
        <polygon class="cls-1" points="626.65 669.93 610.33 681.78 582.48 721.6 598.65 707.9 626.65 669.93"/>
        <polygon class="cls-1" points="584.15 666.74 599.74 681.57 625.64 721.76 610.26 708.14 584.15 666.74"/>
        <polygon class="cls-1" points="595.4 692.56 595.3 697.07 613.88 697.44 613.98 692.92 595.4 692.56"/>
        <polygon class="cls-1" points="595.46 697.06 595.07 701.56 613.58 703.08 613.97 698.58 595.46 697.06"/>
        <polygon class="cls-1" points="613.82 692.97 614.21 688.46 595.7 686.94 595.31 691.44 613.82 692.97"/>
      </g>
      <g>
        <path class="cls-1" d="M617.73,778c0,32.24-15.19,48.04-15.19,83.43h-5.19c0-35.39,15.18-51.18,15.18-83.43"/>
        <path class="cls-1" d="M596.32,778c0,34.3,15.18,51.25,15.18,82.5h-5.19c0-31.25-15.19-48.2-15.19-82.5"/>
        <path class="cls-1" d="M617.73,941.57c0-12.72-3.8-21.01-7.59-32.44-3.8-12.4-7.59-25.2-7.59-42.89h-5.19c0,17.69,3.8,30.49,7.59,42.89.47,1.6.95,2.97,1.42,4.4.46,1.39.91,2.78,1.37,4.18.89,2.75,1.72,5.46,2.43,8.2,1.42,5.5,2.37,11.13,2.37,17.99"/>
        <path class="cls-1" d="M596.32,951.13c0-8.91.95-17.04,2.37-24.27.71-3.62,1.54-7.02,2.43-10.25.89-3.24,1.84-6.2,2.79-9.35,3.8-12.43,7.59-24.48,7.59-40.11h-5.19c0,15.63-3.8,27.68-7.59,40.11-1.9,6.13-3.8,12.92-5.22,20.55-1.42,7.63-2.38,16.21-2.37,25.63"/>
        <polygon class="cls-1" points="626.65 841.6 610.33 853.45 582.48 893.26 598.65 879.57 626.65 841.6"/>
        <polygon class="cls-1" points="584.15 838.41 599.74 853.23 625.64 893.43 610.26 879.81 584.15 838.41"/>
        <polygon class="cls-1" points="595.4 864.22 595.3 868.74 613.88 869.11 613.98 864.59 595.4 864.22"/>
        <polygon class="cls-1" points="595.46 868.73 595.07 873.23 613.58 874.75 613.97 870.25 595.46 868.73"/>
        <polygon class="cls-1" points="613.82 864.64 614.21 860.13 595.7 858.61 595.31 863.11 613.82 864.64"/>
      </g>
      <g>
        <path class="cls-1" d="M617.73,941.58c0,6.38-.95,12.44-2.37,18.82-.71,3.19-1.54,6.44-2.43,9.81-.46,1.72-.92,3.42-1.37,5.12-.47,1.73-.99,3.52-1.09,5.27-.27,3.51.76,6.79,2.62,8.88.92,1.07,2.05,1.75,3.23,2.14,1.19.41,2.45.79,3.79,1.15,5.37,1.42,12.15,2.37,20.71,2.37l-2.81,5.14c-9.04-.09-16.17-1.13-22.13-2.33-1.45-.36-2.81-.74-4.1-1.15-1.28-.38-2.51-1.09-3.52-2.19-2.03-2.17-3.2-5.6-2.98-9.29.07-1.84.6-3.72,1.06-5.54.46-1.79.91-3.59,1.37-5.4.89-3.55,1.72-6.99,2.43-10.37,1.42-6.77,2.37-13.25,2.37-20.11"/>
        <path class="cls-1" d="M596.32,951.14c.01,8.91,1.14,16.07,2.46,22.08.35,1.5.64,2.97,1.05,4.31.41,1.34.84,2.61,1.28,3.83.44,1.21.9,2.37,1.37,3.48.46,1.11,1.28,2.18,2.38,3.07,2.18,1.8,5.52,2.9,9.11,2.72,1.79-.05,3.62-.54,5.4-.95,1.78-.41,3.54-.79,5.28-1.15,6.96-1.42,13.52-2.37,20.26-2.37l-2.89,5.19c-7.2,0-14.18.95-21.53,2.37-1.83.36-3.69.74-5.57,1.15-1.87.4-3.8.9-5.68.92-3.74.1-7.38-.98-9.29-3.28-1.02-1.08-1.75-2.33-2.14-3.59-.4-1.28-.81-2.56-1.22-3.87-.83-2.65-1.69-5.45-2.48-8.55-1.59-6.19-2.96-13.65-3-23.06"/>
        <path class="cls-1" d="M727.45,979.95c-16.11,0-28.15,3.8-40.51,7.59-5.45,1.9-11.43,3.8-18.29,5.22-6.85,1.42-14.61,2.37-23.18,2.37l-2.55,5.18c9.08.02,17.3-.94,24.56-2.36,7.28-1.42,13.63-3.32,19.45-5.22,12.38-3.79,24.41-7.59,40.52-7.59"/>
        <path class="cls-1" d="M727.45,1001.36c-8.57,0-16.07-.95-22.97-2.37-3.45-.71-6.75-1.54-9.97-2.43-1.61-.44-3.2-.9-4.77-1.37-1.58-.47-3.15-.94-4.59-1.42-5.87-1.9-11.22-3.79-16.68-5.22-5.48-1.42-11.06-2.37-17.8-2.37l-2.5,5.19c7.2,0,13.19.95,19.06,2.37,5.85,1.42,11.56,3.32,17.8,5.22,12.47,3.8,25.26,7.59,42.42,7.59"/>
        <path class="cls-1" d="M640.31,971.03c-1.48,5.44-2.22,10.88-2.23,16.32,5.72,9.28,15.67,18.56,29.83,27.85-4.47-5.39-8.1-10.78-10.88-16.17-9.63-9.33-15.2-18.66-16.72-27.99Z"/>
        <path class="cls-1" d="M605.88,1010.82c8.58-3.61,17.16-7.98,25.23-12.88,18.91-8.63,33.86-17.27,44.84-25.9-4.12,5.13-9.04,10.25-14.76,15.38-3.76,2.18-7.78,4.35-12.06,6.53-4.27,2.16-8.84,4.39-13.56,6.46-9.46,4.16-19.65,7.78-29.68,10.42Z"/>
        <polygon class="cls-1" points="639.87 1002.23 644.54 1002.36 653.46 983.8 649.73 983.7 639.87 1002.23"/>
        <path class="cls-1" d="M644.6,1002.21l4.55.4c3.08-6.17,6.05-12.34,8.91-18.51l-3.61-.4c-3.18,6.17-6.47,12.35-9.85,18.51Z"/>
        <path class="cls-1" d="M649.68,983.85l-3.55-.39c-1.95,3.09-3.92,6.17-5.92,9.26l-3.02,4.63-2.99,4.5,4.46.45c1.86-3.02,3.73-6.1,5.57-9.2,1.84-3.09,3.66-6.17,5.45-9.26Z"/>
      </g>
    </g>
  </g>
</svg>