<?xml version="1.0" encoding="UTF-8"?>
<svg id="Layer_2" data-name="Layer 2" xmlns="http://www.w3.org/2000/svg" viewBox="0 0 682.89 1015.75">
  <defs>
    <style>
      .cls-1 {
        fill: #bfbfbf;
        stroke: #000;
        stroke-linecap: round;
        stroke-width: 2.5px;
      }
    </style>
  </defs>
  <g id="Layer_2-2" data-name="Layer 2">
    <g>
      <g>
        <g>
          <path class="cls-1" d="M661.9,274.52c-22.34-24.74-22.01-47.04-46.53-74.2l3.85-3.48c24.52,27.16,24.2,49.45,46.54,74.19"/>
          <path class="cls-1" d="M677.78,260.17c-23.77-26.32-46.78-29.16-68.44-53.14l3.85-3.48c21.66,23.98,44.67,26.81,68.44,53.13"/>
          <path class="cls-1" d="M542.95,142.79c22.34,24.74,44.56,26.69,69.08,53.84l3.85-3.48c-24.52-27.15-46.73-29.1-69.07-53.85"/>
          <path class="cls-1" d="M558.84,128.45c23.77,26.32,24.24,49.5,45.9,73.49l3.85-3.48c-21.66-23.98-22.13-47.17-45.9-73.49"/>
          <polygon class="cls-1" points="611.21 231.7 615.11 211.67 608.19 162.45 605.67 183.8 611.21 231.7"/>
          <polygon class="cls-1" points="644.96 205.66 623.12 204.74 576.04 191.25 596.9 191.39 644.96 205.66"/>
          <rect class="cls-1" x="600.88" y="195.38" width="18.58" height="4.67" transform="translate(19.32 447.29) rotate(-40.85)"/>
          <rect class="cls-1" x="597.46" y="191.4" width="18.58" height="4.67" transform="translate(6.74 407.45) rotate(-37.31)"/>
          <polygon class="cls-1" points="604.76 205.42 607.6 209.14 622.39 197.9 619.56 194.18 604.76 205.42"/>
        </g>
        <g>
          <path class="cls-1" d="M542.94,142.79c-5.59-6.19-9.75-12.22-13.25-18.21-1.75-3-3.33-5.98-4.83-8.98-.74-1.51-1.48-3-2.21-4.49-.6-1.37-1.2-2.74-1.81-4.11-2.43-5.53-5.22-11.45-8.97-17.73-3.73-6.26-8.44-12.89-14.38-19.46l1.91-5.62c6.3,6.98,11.32,13.95,15.34,20.53,4.03,6.59,7.08,12.8,9.77,18.61.66,1.44,1.32,2.87,1.98,4.31.73,1.49,1.47,2.99,2.21,4.49,1.5,2.99,3.08,5.98,4.83,8.98,3.49,5.99,7.66,12.03,13.25,18.21"/>
          <path class="cls-1" d="M558.83,128.44c-5.94-6.58-11.84-11.69-17.67-16.03-2.92-2.17-5.82-4.15-8.71-6.02-2.92-1.91-5.71-3.58-8.41-5.16-5.42-3.17-10.47-5.93-15.26-9.12-4.81-3.2-9.35-6.81-14.02-11.98l1.95-5.58c4.99,5.53,9.81,9.45,14.89,12.95,5.07,3.48,10.37,6.53,16.04,9.97,2.82,1.71,5.8,3.59,8.67,5.44,2.89,1.87,5.79,3.85,8.71,6.02,5.84,4.34,11.73,9.45,17.68,16.03"/>
          <path class="cls-1" d="M444.57,48.71c.67-1.35,1.3-2.75,1.9-4.19.3-.74.6-1.47.89-2.19.14-.38.29-.75.43-1.12.13-.38.29-.76.53-1.07.48-.62,1.2-.95,1.82-.94.65-.01,1.02.39,1.44.65.83.55,1.65,1.04,2.45,1.48,3.22,1.75,6.32,2.72,9.67,3.86,3.34,1.13,6.93,2.44,11,4.72,4.06,2.27,8.62,5.52,13.71,10.34,1.81,1.69,3.8,3.73,5.85,6l1.71-5.84c-2.18-2.42-4.29-4.58-6.21-6.39-2.7-2.57-5.26-4.73-7.68-6.58-2.42-1.87-4.7-3.4-6.86-4.67-4.32-2.55-8.14-4.12-11.72-5.51-3.58-1.4-6.92-2.63-10.39-4.65-.87-.51-1.75-1.06-2.64-1.69-.45-.29-.85-.74-1.55-.74-.66-.02-1.44.32-1.96.98-.27.32-.43.73-.58,1.13-.15.39-.31.79-.47,1.19-.32.77-.63,1.55-.96,2.33-.65,1.54-1.33,3.03-2.05,4.48"/>
          <path class="cls-1" d="M438.2,15.72c.94-1.78,1.85-3.43,2.75-5,.45-.78.89-1.54,1.33-2.3.22-.37.42-.75.67-1.1.25-.34.61-.62,1.03-.77.84-.32,1.89-.15,2.62.48.69.66,1.24,1.47,1.86,2.2,1.2,1.5,2.37,3.02,3.52,4.55,1.15,1.54,2.27,3.09,3.37,4.66.27.4.55.79.82,1.18.27.44.55.88.82,1.31.54.89,1.08,1.76,1.61,2.64,2.12,3.51,4.13,7,6.06,10.41,3.86,6.84,7.37,13.4,10.84,19.47,3.48,6.08,6.9,11.67,10.76,16.76,1.38,1.84,2.9,3.69,4.52,5.49l1.68-5.88c-1.73-1.92-3.36-3.89-4.84-5.84-4.13-5.39-7.8-11.26-11.52-17.6-3.7-6.28-7.46-13.41-11.53-19.68-4.06-6.42-8.39-12.62-13.12-18.48-1.17-1.46-2.37-2.89-3.6-4.31-.63-.69-1.2-1.45-1.9-2.08-.75-.59-1.83-.74-2.7-.44-.44.15-.82.41-1.08.73-.25.33-.47.69-.7,1.04-.46.72-.93,1.44-1.41,2.18-.95,1.49-1.92,3.06-2.92,4.78"/>
          <path class="cls-1" d="M498.12,106.45c.97-7.05,1.43-14.66,1.37-22.83-2.18-9.86-5.21-20.66-9.09-32.4-3.33-10.1-7.36-20.64-12.02-30.75,1.61,5.2,3.07,10.36,4.38,15.56,1.31,5.23,2.47,10.39,3.46,15.5.84,2.65,1.64,5.27,2.4,7.84,5.32,18.08,8.48,33.78,9.49,47.09Z"/>
          <path class="cls-1" d="M523.05,70.65c-6.89.12-13.17.92-18.84,2.4-7-.82-13.2-.76-18.61.18-4.65.81-8.71,2.26-12.18,4.37,2.8-4.55,6.15-8.49,10.06-11.81,1.24-.18,2.52-.32,3.84-.42,9.7-.69,21.61,1.07,35.74,5.28Z"/>
          <polygon class="cls-1" points="498.1 59.81 494.86 56.07 488.87 77.16 491.46 80.17 498.1 59.81"/>
          <path class="cls-1" d="M494.81,56.25l-3.16-4.08c-2.07,6.92-4.06,13.92-5.98,21l2.5,3.36c2.14-6.84,4.35-13.6,6.63-20.28Z"/>
          <path class="cls-1" d="M491.48,79.97l2.47,3.31c2.63-6.3,5.33-12.51,8.11-18.64l-3.12-4.04c-2.56,6.37-5.05,12.83-7.46,19.37Z"/>
        </g>
        <g>
          <path class="cls-1" d="M444.57,48.72c-2.92,5.92-5.79,9.6-8.86,12.62-3.07,3-6.32,5.32-9.82,8.11-3.49,2.78-7.22,6.05-11.1,10.71-3.88,4.64-7.92,10.71-11.84,18.66l-3.89-3.84c4.15-8.43,8.41-14.92,12.47-19.95,4.07-5.05,7.97-8.66,11.63-11.79,3.66-3.14,7.08-5.79,10.33-9.15,3.25-3.38,6.32-7.45,9.45-13.81"/>
          <path class="cls-1" d="M438.19,15.73c-4.1,7.73-7.49,15.66-10.15,23.75-.66,2.03-1.3,4.02-1.87,6.1-.57,2.08-1.1,4.13-1.61,6.17-1.01,4.07-1.91,8.04-2.76,11.9-1.69,7.72-3.14,14.95-4.89,21.72-1.76,6.79-3.81,13.1-6.89,19.35l-3.86-3.89c3.29-6.68,5.53-13.37,7.46-20.52,1.93-7.12,3.53-14.72,5.41-22.74,1.87-8,4.1-16.23,7.06-24.25,2.95-8.02,6.63-15.77,11.01-23.17"/>
          <path class="cls-1" d="M376.68,186.48c7.37-14.95,9.45-27.77,11.71-40.95,1.13-6.59,2.31-13.27,4.21-20.36,1.71-6.69,4.31-14.11,8.22-22.05l-4.02-3.58c-4.15,8.43-6.96,16.27-8.86,23.34-1.9,7.08-3.08,13.77-4.21,20.36-2.26,13.18-4.35,26-11.72,40.95"/>
          <path class="cls-1" d="M357.48,177.02c7.84-15.91,17.1-26.11,26.18-35.96,2.27-2.46,4.53-4.9,6.76-7.41,1.11-1.25,2.22-2.52,3.31-3.81,1.05-1.27,2.1-2.54,3.17-3.84,3.93-4.75,7.43-9.7,10.51-15.95l-4.04-3.53c-3.29,6.68-6.98,12.01-11.08,17.12-.53.65-1.06,1.3-1.58,1.95-.55.66-1.09,1.31-1.63,1.96-1.09,1.29-2.2,2.56-3.31,3.81-2.23,2.5-4.49,4.94-6.76,7.41-9.09,9.85-18.35,20.06-26.19,35.96"/>
          <path class="cls-1" d="M427.29,103.97c-4.76-2.64-9.86-4.6-15.3-5.88-5.95,1.57-12.38,4.12-19.29,7.65-3.46,1.76-7.03,3.77-10.73,6.03-1.85,1.13-3.73,2.32-5.64,3.56l-1.44.95c-.46.28-.9.52-1.36.78l-2.7,1.54,5.19-1.39c1.78-.56,3.59-1.18,5.34-1.69,3.52-1.05,6.95-1.91,10.28-2.57,13.73-6.75,25.61-9.74,35.63-8.98Z"/>
          <path class="cls-1" d="M401.54,60.07c.61,10.51,1.63,20.2,3.05,29.08,0,9.78.44,18.63,1.34,26.57.45,3.97,1.01,7.71,1.69,11.22.34,1.75.71,3.45,1.1,5.09l.3,1.23.15,1.52.3,3.05-1.89-4.86-.24-.6-.28-.51-.56-1.04c-.37-.7-.74-1.4-1.1-2.12-1.44-2.88-2.79-5.94-4.04-9.19-1.82-15.99-1.76-35.8.18-59.43Z"/>
          <polygon class="cls-1" points="396.26 96.25 394.02 100.57 408.52 113.18 410.32 109.75 396.26 96.25"/>
          <path class="cls-1" d="M394.15,100.66l-2.47,4.13c4.76,4.29,9.57,8.49,14.43,12.58l2.04-3.25c-4.72-4.39-9.39-8.88-14.01-13.46Z"/>
          <path class="cls-1" d="M410.18,109.67l2.01-3.21c-4.39-5.05-8.73-10.2-13.03-15.44l-2.44,4.08c4.44,4.96,8.93,9.81,13.46,14.57Z"/>
        </g>
        <g>
          <path class="cls-1" d="M376.68,186.5c-14.74,29.9-35.58,37.84-51.75,70.66l-4.65-2.29c16.17-32.82,37.01-40.76,51.74-70.66"/>
          <path class="cls-1" d="M357.47,177.03c-15.68,31.81-9.81,54.24-24.09,83.23l-4.65-2.29c14.28-28.99,8.41-51.42,24.08-83.23"/>
          <path class="cls-1" d="M298.23,345.7c14.74-29.9,8.33-51.27,24.5-84.09l-4.65-2.29c-16.17,32.82-9.77,54.18-24.51,84.08"/>
          <path class="cls-1" d="M279.02,336.23c15.68-31.81,37.04-40.82,51.32-69.81l-4.65-2.29c-14.28,28.99-35.65,37.99-51.33,69.8"/>
          <polygon class="cls-1" points="355.62 249.42 335.56 253.19 292.38 277.81 313.15 272.26 355.62 249.42"/>
          <polygon class="cls-1" points="318.95 227.68 326.16 248.32 331.02 297.04 323.45 277.61 318.95 227.68"/>
          <rect class="cls-1" x="322.08" y="253.65" width="4.67" height="18.58" transform="translate(-58.5 429.56) rotate(-62.54)"/>
          <rect class="cls-1" x="319.66" y="258.3" width="4.67" height="18.58" transform="translate(-73.22 405.78) rotate(-59)"/>
          <polygon class="cls-1" points="333.58 265.12 335.99 261.11 320.08 251.52 317.67 255.52 333.58 265.12"/>
        </g>
        <g>
          <path class="cls-1" d="M298.22,345.71c-14.74,29.9-35.58,37.84-51.75,70.66l-4.65-2.29c16.17-32.82,37.01-40.76,51.74-70.66"/>
          <path class="cls-1" d="M279.02,336.25c-15.68,31.81-9.81,54.24-24.09,83.23l-4.65-2.29c14.28-28.99,8.41-51.42,24.08-83.23"/>
          <path class="cls-1" d="M219.77,504.91c14.74-29.9,8.33-51.27,24.5-84.09l-4.65-2.29c-16.17,32.82-9.77,54.18-24.51,84.08"/>
          <path class="cls-1" d="M200.57,495.45c15.68-31.81,37.04-40.82,51.32-69.81l-4.65-2.29c-14.28,28.99-35.65,37.99-51.33,69.8"/>
          <polygon class="cls-1" points="277.16 408.63 257.1 412.41 213.93 437.03 234.69 431.48 277.16 408.63"/>
          <polygon class="cls-1" points="240.49 386.89 247.7 407.53 252.57 456.26 245 436.83 240.49 386.89"/>
          <rect class="cls-1" x="243.63" y="412.86" width="4.67" height="18.58" transform="translate(-242.05 445.73) rotate(-62.54)"/>
          <rect class="cls-1" x="241.2" y="417.52" width="4.67" height="18.58" transform="translate(-247.74 415.75) rotate(-59)"/>
          <polygon class="cls-1" points="255.13 424.33 257.53 420.32 241.62 410.73 239.21 414.73 255.13 424.33"/>
        </g>
        <g>
          <path class="cls-1" d="M219.77,504.92c-14.74,29.9-35.58,37.84-51.75,70.66l-4.65-2.29c16.17-32.82,37.01-40.76,51.74-70.66"/>
          <path class="cls-1" d="M200.56,495.46c-15.68,31.81-9.81,54.24-24.09,83.23l-4.65-2.29c14.28-28.99,8.41-51.42,24.08-83.23"/>
          <path class="cls-1" d="M157.76,659.51c0-3.2-.14-6.24-.39-9.16-.07-.73-.14-1.45-.21-2.17-.04-.36-.08-.71-.12-1.07-.04-.36-.09-.59-.13-.89-.18-1.13-.38-2.24-.61-3.35-.9-4.43-2.15-8.76-3.53-13.29.39-3.28.73-6.68,1.2-10.27.24-1.79.5-3.63.82-5.53.17-.97.31-1.87.54-2.93.23-1.05.47-2.1.7-3.17,1.98-8.52,4.81-17.54,9.8-27.65l-4.65-2.29c-4.98,10.11-7.82,19.13-9.8,27.65-2.01,8.6-2.81,15.98-3.8,22.98,2.76,9.85,4.99,17.65,4.99,31.13"/>
          <path class="cls-1" d="M136.35,659.51c0-6.43.5-12.19,1.31-17.8.81-5.51,1.95-10.43,3.21-14.89,2.98-3.52,5.93-6.73,8.77-9.77,2.86-3.07,5.51-5.76,8.37-9.17,5.59-6.57,10.86-13.79,15.42-23.04l-4.65-2.29c-4.56,9.25-9.84,16.46-15.42,23.03-2.81,3.32-5.61,6.31-8.57,9.59-2.95,3.25-6.01,6.68-9.1,10.43-2.54,9.33-4.53,21.51-4.53,33.9"/>
          <polygon class="cls-1" points="198.7 567.84 178.65 571.62 135.47 596.24 156.24 590.69 198.7 567.84"/>
          <polygon class="cls-1" points="162.04 546.1 169.25 566.74 174.11 615.47 166.54 596.04 162.04 546.1"/>
          <rect class="cls-1" x="165.17" y="572.08" width="4.67" height="18.58" transform="translate(-425.6 461.91) rotate(-62.54)"/>
          <rect class="cls-1" x="162.74" y="576.73" width="4.67" height="18.58" transform="translate(-422.26 425.71) rotate(-59)"/>
          <polygon class="cls-1" points="176.67 583.54 179.07 579.54 163.16 569.94 160.76 573.95 176.67 583.54"/>
        </g>
        <g>
          <path class="cls-1" d="M157.76,659.52c0,33.34-15.19,49.67-15.19,86.26h-5.19c0-36.59,15.18-52.92,15.18-86.26"/>
          <path class="cls-1" d="M136.35,659.52c0,35.46,15.18,52.99,15.18,85.3h-5.19c0-32.31-15.19-49.84-15.19-85.3"/>
          <path class="cls-1" d="M157.76,837.01c0-33.34-15.19-49.67-15.19-86.26h-5.19c0,36.59,15.18,52.92,15.18,86.26"/>
          <path class="cls-1" d="M136.35,837.01c0-35.46,15.18-52.99,15.18-85.3h-5.19c0,32.31-15.19,49.84-15.19,85.3"/>
          <polygon class="cls-1" points="166.68 725.27 150.36 737.53 122.51 778.7 138.69 764.54 166.68 725.27"/>
          <polygon class="cls-1" points="124.18 721.98 139.77 737.31 165.67 778.87 150.29 764.78 124.18 721.98"/>
          <rect class="cls-1" x="142.34" y="741.91" width="4.67" height="18.58" transform="translate(-609.45 879.75) rotate(-88.77)"/>
          <rect class="cls-1" x="142.22" y="747.15" width="4.67" height="18.58" transform="translate(-621.29 837.64) rotate(-85.23)"/>
          <polygon class="cls-1" points="153.85 749.1 154.24 744.44 135.73 742.87 135.34 747.52 153.85 749.1"/>
        </g>
        <g>
          <path class="cls-1" d="M157.76,837.02c0,33.34-15.19,49.67-15.19,86.26h-5.19c0-36.59,15.18-52.92,15.18-86.26"/>
          <path class="cls-1" d="M136.35,837.02c0,35.46,15.18,52.99,15.18,85.3h-5.19c0-32.31-15.19-49.84-15.19-85.3"/>
          <path class="cls-1" d="M157.76,1014.5c0-33.34-15.19-49.67-15.19-86.26h-5.19c0,36.59,15.18,52.92,15.18,86.26"/>
          <path class="cls-1" d="M136.35,1014.5c0-35.46,15.18-52.99,15.18-85.3h-5.19c0,32.31-15.19,49.84-15.19,85.3"/>
          <polygon class="cls-1" points="166.68 902.77 150.36 915.02 122.51 956.19 138.69 942.03 166.68 902.77"/>
          <polygon class="cls-1" points="124.18 899.48 139.77 914.8 165.67 956.36 150.29 942.28 124.18 899.48"/>
          <rect class="cls-1" x="142.34" y="919.4" width="4.67" height="18.58" transform="translate(-786.9 1053.43) rotate(-88.77)"/>
          <rect class="cls-1" x="142.22" y="924.65" width="4.67" height="18.58" transform="translate(-798.17 1000.39) rotate(-85.23)"/>
          <polygon class="cls-1" points="153.85 926.59 154.24 921.93 135.73 920.36 135.34 925.02 153.85 926.59"/>
        </g>
      </g>
      <g>
        <g>
          <path class="cls-1" d="M325.94,650.36c0,32.92-15.19,49.05-15.19,85.18h-5.19c0-36.13,15.18-52.26,15.18-85.18"/>
          <path class="cls-1" d="M304.53,650.36c0,35.02,15.18,52.33,15.18,84.23h-5.19c0-31.91-15.19-49.21-15.19-84.23"/>
          <path class="cls-1" d="M325.94,825.62c0-32.92-15.19-49.05-15.19-85.18h-5.19c0,36.13,15.18,52.26,15.18,85.18"/>
          <path class="cls-1" d="M304.53,825.62c0-35.02,15.18-52.33,15.18-84.23h-5.19c0,31.91-15.19,49.21-15.19,84.23"/>
          <polygon class="cls-1" points="334.86 715.28 318.54 727.39 290.7 768.04 306.87 754.06 334.86 715.28"/>
          <polygon class="cls-1" points="292.36 712.03 307.95 727.17 333.85 768.21 318.47 754.3 292.36 712.03"/>
          <polygon class="cls-1" points="303.62 738.39 303.52 743 322.09 743.37 322.19 738.76 303.62 738.39"/>
          <rect class="cls-1" x="310.43" y="736.77" width="4.61" height="18.58" transform="translate(-456.99 994.92) rotate(-85.17)"/>
          <rect class="cls-1" x="310.67" y="726.44" width="4.61" height="18.58" transform="translate(-446.34 986.14) rotate(-85.21)"/>
        </g>
        <g>
          <path class="cls-1" d="M325.94,825.63c0,32.92-15.19,49.05-15.19,85.18h-5.19c0-36.13,15.18-52.26,15.18-85.18"/>
          <path class="cls-1" d="M304.53,825.63c0,35.02,15.18,52.33,15.18,84.23h-5.19c0-31.91-15.19-49.21-15.19-84.23"/>
          <path class="cls-1" d="M325.94,1000.89c0-32.92-15.19-49.05-15.19-85.18h-5.19c0,36.13,15.18,52.26,15.18,85.18"/>
          <path class="cls-1" d="M304.53,1000.89c0-35.02,15.18-52.33,15.18-84.23h-5.19c0,31.91-15.19,49.21-15.19,84.23"/>
          <polygon class="cls-1" points="334.86 890.56 318.54 902.66 290.7 943.31 306.87 929.33 334.86 890.56"/>
          <polygon class="cls-1" points="292.36 887.31 307.95 902.44 333.85 943.48 318.47 929.57 292.36 887.31"/>
          <polygon class="cls-1" points="303.62 913.66 303.52 918.27 322.09 918.64 322.19 914.04 303.62 913.66"/>
          <rect class="cls-1" x="310.43" y="912.04" width="4.61" height="18.58" transform="translate(-631.64 1155.44) rotate(-85.17)"/>
          <rect class="cls-1" x="310.67" y="901.71" width="4.61" height="18.58" transform="translate(-620.99 1146.77) rotate(-85.21)"/>
        </g>
      </g>
      <g>
        <g>
          <path class="cls-1" d="M36.29,650.36c0,34.2-15.19,50.95-15.19,88.48h-5.19c0-37.53,15.18-54.29,15.18-88.48"/>
          <path class="cls-1" d="M14.88,650.36c0,36.38,15.18,54.36,15.18,87.51h-5.19c0-33.15-15.19-51.13-15.19-87.51"/>
          <path class="cls-1" d="M36.29,832.42c0-34.2-15.19-50.95-15.19-88.48h-5.19c0,37.53,15.18,54.29,15.18,88.48"/>
          <path class="cls-1" d="M14.88,832.42c0-36.38,15.18-54.36,15.18-87.51h-5.19c0,33.15-15.19,51.13-15.19,87.51"/>
          <polygon class="cls-1" points="45.21 717.81 28.89 730.38 1.04 772.61 17.22 758.08 45.21 717.81"/>
          <polygon class="cls-1" points="2.71 714.43 18.3 730.15 44.2 772.78 28.82 758.34 2.71 714.43"/>
          <rect class="cls-1" x="20.81" y="735.11" width="4.79" height="18.58" transform="translate(-721.51 752.05) rotate(-88.8)"/>
          <polygon class="cls-1" points="14.02 746.59 13.63 751.36 32.14 752.97 32.54 748.2 14.02 746.59"/>
          <polygon class="cls-1" points="32.39 742.24 32.77 737.47 14.26 735.85 13.87 740.63 32.39 742.24"/>
        </g>
        <g>
          <path class="cls-1" d="M36.29,832.43c0,34.2-15.19,50.95-15.19,88.48h-5.19c0-37.53,15.18-54.29,15.18-88.48"/>
          <path class="cls-1" d="M14.88,832.43c0,36.38,15.18,54.36,15.18,87.51h-5.19c0-33.15-15.19-51.13-15.19-87.51"/>
          <path class="cls-1" d="M36.29,1014.5c0-34.2-15.19-50.95-15.19-88.48h-5.19c0,37.53,15.18,54.29,15.18,88.48"/>
          <path class="cls-1" d="M14.88,1014.5c0-36.38,15.18-54.36,15.18-87.51h-5.19c0,33.15-15.19,51.13-15.19,87.51"/>
          <polygon class="cls-1" points="45.21 899.88 28.89 912.45 1.04 954.68 17.22 940.16 45.21 899.88"/>
          <polygon class="cls-1" points="2.71 896.51 18.3 912.23 44.2 954.86 28.82 940.41 2.71 896.51"/>
          <rect class="cls-1" x="20.81" y="917.18" width="4.79" height="18.58" transform="translate(-903.55 930.34) rotate(-88.8)"/>
          <polygon class="cls-1" points="14.02 928.66 13.63 933.44 32.14 935.05 32.54 930.28 14.02 928.66"/>
          <polygon class="cls-1" points="32.39 924.32 32.77 919.54 14.26 917.93 13.87 922.7 32.39 924.32"/>
        </g>
      </g>
    </g>
  </g>
</svg>