<?xml version="1.0" encoding="UTF-8"?>
<svg id="Layer_2" data-name="Layer 2" xmlns="http://www.w3.org/2000/svg" viewBox="0 0 555.52 954.4">
  <defs>
    <style>
      .cls-1 {
        fill: #bfbfbf;
        stroke: #000;
        stroke-linecap: round;
        stroke-width: 2.5px;
      }
    </style>
  </defs>
  <g id="Layer_2-2" data-name="Layer 2">
    <g>
      <g>
        <g>
          <path class="cls-1" d="M25.5,227.4c0-17.37,15.19-25.87,15.19-44.93h5.19c0,19.06-15.18,27.57-15.18,44.93"/>
          <path class="cls-1" d="M46.91,227.4c0-18.47-15.18-27.6-15.18-44.44h5.19c0,16.83,15.19,25.96,15.19,44.44"/>
          <path class="cls-1" d="M25.5,134.94c0,17.37,15.19,25.87,15.19,44.93h5.19c0-19.06-15.18-27.57-15.18-44.93"/>
          <path class="cls-1" d="M46.91,134.94c0,18.47-15.18,27.6-15.18,44.44h5.19c0-16.83,15.19-25.96,15.19-44.44"/>
          <polygon class="cls-1" points="16.58 193.14 32.9 186.76 60.74 165.32 44.57 172.69 16.58 193.14"/>
          <polygon class="cls-1" points="59.08 194.86 43.49 186.88 17.58 165.23 32.97 172.56 59.08 194.86"/>
          <polygon class="cls-1" points="47.82 180.96 47.92 178.53 29.34 178.33 29.24 180.76 47.82 180.96"/>
          <polygon class="cls-1" points="47.77 178.53 48.15 176.11 29.65 175.29 29.25 177.71 47.77 178.53"/>
          <polygon class="cls-1" points="29.4 180.74 29.02 183.16 47.53 183.98 47.92 181.56 29.4 180.74"/>
        </g>
        <g>
          <path class="cls-1" d="M131.1,29.33c27.19,0,40.5,15.19,70.34,15.19v5.19c-29.84,0-43.15-15.18-70.34-15.18"/>
          <path class="cls-1" d="M131.1,50.74c28.92,0,43.21-15.18,69.56-15.18v5.19c-26.35,0-40.64,15.19-69.56,15.19"/>
          <path class="cls-1" d="M275.83,29.33c-27.19,0-40.51,15.19-70.34,15.19v5.19c29.84,0,43.15-15.18,70.34-15.18"/>
          <path class="cls-1" d="M275.83,50.74c-28.92,0-43.21-15.18-69.56-15.18v5.19c26.35,0,40.64,15.19,69.56,15.19"/>
          <polygon class="cls-1" points="184.72 20.41 194.71 36.73 228.28 64.58 216.73 48.41 184.72 20.41"/>
          <polygon class="cls-1" points="182.03 62.91 194.53 47.32 228.42 21.42 216.93 36.8 182.03 62.91"/>
          <polygon class="cls-1" points="203.8 51.66 207.6 51.76 207.91 33.18 204.11 33.08 203.8 51.66"/>
          <polygon class="cls-1" points="207.59 51.6 211.39 51.99 212.67 33.48 208.88 33.09 207.59 51.6"/>
          <polygon class="cls-1" points="204.14 33.24 200.35 32.85 199.06 51.37 202.86 51.75 204.14 33.24"/>
        </g>
        <g>
          <path class="cls-1" d="M275.84,29.33c27.19,0,40.5,15.19,70.34,15.19v5.19c-29.84,0-43.15-15.18-70.34-15.18"/>
          <path class="cls-1" d="M275.84,50.74c28.92,0,43.21-15.18,69.56-15.18v5.19c-26.35,0-40.64,15.19-69.56,15.19"/>
          <path class="cls-1" d="M420.57,29.33c-27.19,0-40.51,15.19-70.34,15.19v5.19c29.84,0,43.15-15.18,70.34-15.18"/>
          <path class="cls-1" d="M420.57,50.74c-28.92,0-43.21-15.18-69.56-15.18v5.19c26.35,0,40.64,15.19,69.56,15.19"/>
          <polygon class="cls-1" points="329.46 20.41 339.45 36.73 373.02 64.58 361.48 48.41 329.46 20.41"/>
          <polygon class="cls-1" points="326.77 62.91 339.27 47.32 373.16 21.42 361.68 36.8 326.77 62.91"/>
          <polygon class="cls-1" points="348.54 51.66 352.34 51.76 352.66 33.18 348.85 33.08 348.54 51.66"/>
          <polygon class="cls-1" points="352.34 51.6 356.13 51.99 357.41 33.48 353.62 33.09 352.34 51.6"/>
          <polygon class="cls-1" points="348.88 33.24 345.09 32.85 343.81 51.37 347.6 51.75 348.88 33.24"/>
        </g>
        <g>
          <path class="cls-1" d="M526.18,134.94c0,25.82-15.19,38.46-15.19,66.79h-5.19c0-28.33,15.18-40.98,15.18-66.79"/>
          <path class="cls-1" d="M504.77,134.94c0,27.46,15.18,41.03,15.18,66.06h-5.19c0-25.02-15.19-38.59-15.19-66.06"/>
          <path class="cls-1" d="M526.18,272.37c0-25.82-15.19-38.46-15.19-66.8h-5.19c0,28.33,15.18,40.98,15.18,66.8"/>
          <path class="cls-1" d="M504.77,272.37c0-27.46,15.18-41.03,15.18-66.06h-5.19c0,25.02-15.19,38.59-15.19,66.06"/>
          <polygon class="cls-1" points="535.1 185.85 518.78 195.34 490.94 227.22 507.11 216.26 535.1 185.85"/>
          <polygon class="cls-1" points="492.6 183.3 508.19 195.17 534.1 227.35 518.71 216.45 492.6 183.3"/>
          <polygon class="cls-1" points="503.86 203.97 503.76 207.58 522.34 207.88 522.44 204.26 503.86 203.97"/>
          <polygon class="cls-1" points="503.91 207.58 503.53 211.18 522.03 212.4 522.43 208.79 503.91 207.58"/>
          <polygon class="cls-1" points="522.28 204.3 522.66 200.69 504.15 199.48 503.76 203.08 522.28 204.3"/>
        </g>
        <g>
          <path class="cls-1" d="M526.18,272.38c0,25.82-15.19,38.46-15.19,66.8h-5.19c0-28.33,15.18-40.98,15.18-66.8"/>
          <path class="cls-1" d="M504.77,272.38c0,27.46,15.18,41.03,15.18,66.06h-5.19c0-25.02-15.19-38.59-15.19-66.06"/>
          <path class="cls-1" d="M526.18,409.82c0-25.82-15.19-38.46-15.19-66.8h-5.19c0,28.33,15.18,40.98,15.18,66.8"/>
          <path class="cls-1" d="M504.77,409.82c0-27.46,15.18-41.03,15.18-66.06h-5.19c0,25.02-15.19,38.59-15.19,66.06"/>
          <polygon class="cls-1" points="535.1 323.3 518.78 332.79 490.94 364.67 507.11 353.7 535.1 323.3"/>
          <polygon class="cls-1" points="492.6 320.75 508.19 332.62 534.1 364.8 518.71 353.89 492.6 320.75"/>
          <polygon class="cls-1" points="503.86 341.42 503.76 345.03 522.34 345.33 522.44 341.71 503.86 341.42"/>
          <polygon class="cls-1" points="503.91 345.02 503.53 348.63 522.03 349.84 522.43 346.24 503.91 345.02"/>
          <polygon class="cls-1" points="522.28 341.75 522.66 338.14 504.15 336.92 503.76 340.53 522.28 341.75"/>
        </g>
        <g>
          <path class="cls-1" d="M420.58,515.43c-35.4,0-52.74-15.19-91.6-15.19v-5.19c38.85,0,56.2,15.18,91.6,15.18"/>
          <path class="cls-1" d="M420.58,494.02c-37.66,0-56.27,15.18-90.59,15.18v-5.19c34.32,0,52.92-15.19,90.59-15.19"/>
          <path class="cls-1" d="M232.11,515.43c35.4,0,52.75-15.19,91.6-15.19v-5.19c-38.85,0-56.2,15.18-91.6,15.18"/>
          <path class="cls-1" d="M232.11,494.02c37.66,0,56.27,15.18,90.59,15.18v-5.19c-34.32,0-52.93-15.19-90.59-15.19"/>
          <polygon class="cls-1" points="350.76 524.35 337.75 508.03 294.03 480.18 309.07 496.36 350.76 524.35"/>
          <polygon class="cls-1" points="354.26 481.85 337.98 497.44 293.85 523.34 308.81 507.96 354.26 481.85"/>
          <polygon class="cls-1" points="325.92 493.11 320.96 493.01 320.55 511.58 325.51 511.68 325.92 493.11"/>
          <polygon class="cls-1" points="320.97 493.16 316.03 492.77 314.36 511.28 319.3 511.68 320.97 493.16"/>
          <polygon class="cls-1" points="325.46 511.53 330.41 511.91 332.08 493.4 327.14 493.01 325.46 511.53"/>
        </g>
        <g>
          <path class="cls-1" d="M232.1,515.43c-35.4,0-52.74-15.19-91.6-15.19v-5.19c38.85,0,56.2,15.18,91.6,15.18"/>
          <path class="cls-1" d="M232.1,494.02c-37.66,0-56.27,15.18-90.59,15.18v-5.19c34.32,0,52.93-15.19,90.59-15.19"/>
          <path class="cls-1" d="M43.63,515.43c35.4,0,52.75-15.19,91.6-15.19v-5.19c-38.85,0-56.2,15.18-91.6,15.18"/>
          <path class="cls-1" d="M43.63,494.02c37.66,0,56.27,15.18,90.59,15.18v-5.19c-34.32,0-52.92-15.19-90.59-15.19"/>
          <polygon class="cls-1" points="162.28 524.35 149.26 508.03 105.55 480.18 120.58 496.36 162.28 524.35"/>
          <polygon class="cls-1" points="165.77 481.85 149.5 497.44 105.36 523.34 120.32 507.96 165.77 481.85"/>
          <polygon class="cls-1" points="137.43 493.11 132.47 493.01 132.07 511.58 137.03 511.68 137.43 493.11"/>
          <polygon class="cls-1" points="132.48 493.16 127.54 492.77 125.87 511.28 130.81 511.68 132.48 493.16"/>
          <polygon class="cls-1" points="136.98 511.53 141.92 511.91 143.59 493.4 138.65 493.01 136.98 511.53"/>
        </g>
        <g>
          <path class="cls-1" d="M131.1,56.05c-.63,0-1.27,0-1.9,0-.63-.01-1.26-.03-1.89-.04-.63-.02-1.25-.05-1.88-.07-.62-.04-1.25-.07-1.87-.11-.62-.05-1.24-.09-1.85-.14-.62-.06-1.23-.11-1.84-.17-.61-.07-1.22-.13-1.83-.2-.61-.08-1.21-.15-1.81-.23-.6-.08-1.2-.17-1.8-.25-.6-.09-1.19-.19-1.78-.28-.59-.1-1.18-.2-1.77-.3-.59-.11-1.17-.22-1.75-.33-.58-.12-1.16-.23-1.73-.35-.57-.12-1.15-.25-1.71-.37-.57-.13-1.13-.26-1.7-.39-.56-.14-1.12-.28-1.68-.41-.55-.14-1.11-.29-1.66-.43-.55-.15-1.09-.3-1.64-.45-.54-.16-1.08-.31-1.62-.46-.53-.16-1.07-.32-1.59-.48-.53-.17-1.05-.33-1.57-.49-.52-.17-1.04-.34-1.55-.51-1.02-.35-2.03-.7-3.03-1.04-.99-.37-1.96-.73-2.93-1.08-.96-.38-1.9-.75-2.82-1.11-.92-.38-1.82-.76-2.71-1.13-.88-.39-1.75-.77-2.6-1.14-.84-.39-1.67-.77-2.48-1.14-.8-.39-1.59-.76-2.36-1.13-.76-.38-1.5-.75-2.23-1.11-.72-.37-1.42-.74-2.09-1.09-.67-.36-1.32-.71-1.96-1.05-.63-.35-1.23-.69-1.81-1.01-.58-.33-1.13-.65-1.66-.96-.53-.31-1.03-.61-1.51-.89-.47-.29-.93-.56-1.35-.82-.42-.26-.82-.51-1.19-.74-.73-.47-1.35-.88-1.86-1.21-.5-.34-.89-.6-1.15-.78-.26-.18-.39-.27-.39-.27.4.23.81.47,1.21.7.41.23.82.46,1.24.69.42.22.84.44,1.27.67.43.22.86.43,1.29.65.44.21.87.42,1.31.64.44.21.89.41,1.33.62.45.2.9.4,1.35.6l1.37.59,1.39.57,1.41.56,1.42.54,1.43.53c.96.33,1.93.67,2.9,1.01.98.32,1.96.63,2.94.95l2.96.89,2.98.84c1,.26,1.99.52,2.98.79.99.25,1.99.49,2.97.73.99.23,1.97.46,2.95.68.98.21,1.96.43,2.92.64.97.2,1.93.4,2.88.59.95.18,1.9.37,2.83.55.93.17,1.86.34,2.77.5.91.16,1.81.31,2.69.46.88.14,1.75.28,2.61.42.85.13,1.69.26,2.51.38,1.64.23,3.21.45,4.69.66,1.48.19,2.88.36,4.17.52,1.3.15,2.49.28,3.57.4,1.08.11,2.04.21,2.87.29,1.67.16,2.81.27,3.31.32"/>
          <path class="cls-1" d="M52.1,134.94c0-.28-.01-.56-.02-.86-.01-.29-.03-.6-.04-.91-.02-.31-.04-.63-.06-.96-.03-.33-.06-.66-.08-1.01-.07-.69-.15-1.41-.23-2.15-.1-.75-.2-1.52-.3-2.32-.12-.8-.24-1.62-.37-2.47-.14-.84-.29-1.71-.43-2.6-.16-.89-.32-1.79-.49-2.72-.18-.92-.36-1.86-.54-2.82-.19-.95-.39-1.92-.59-2.9-.21-.98-.42-1.97-.63-2.96-.44-1.99-.9-4.02-1.35-6.06-.48-2.04-.96-4.08-1.44-6.12-.5-2.03-.99-4.06-1.48-6.05-.5-1.99-1-3.94-1.48-5.84-.49-1.9-.97-3.73-1.43-5.5-.95-3.52-1.81-6.72-2.54-9.43-1.51-5.4-2.47-8.83-2.47-8.83l-4.54,2.52c.27.83.55,1.67.83,2.51.27.85.54,1.71.81,2.58.26.87.52,1.75.79,2.64.26.89.51,1.79.77,2.69.25.91.5,1.82.75,2.73.24.92.49,1.84.73,2.76.47,1.85.94,3.72,1.41,5.59.44,1.87.88,3.75,1.32,5.61.41,1.87.83,3.73,1.23,5.56.39,1.84.77,3.66,1.14,5.44.36,1.79.71,3.54,1.05,5.25.33,1.71.64,3.38.95,4.99.29,1.61.58,3.17.85,4.66.26,1.49.51,2.91.74,4.25.22,1.34.43,2.61.63,3.78.37,2.35.67,4.33.91,5.85.11.76.2,1.41.27,1.93.07.52.12.92.15,1.17"/>
          <path class="cls-1" d="M131.1,29.34c-.73-.02-1.46-.04-2.2-.06l-2.21-.08c-1.47-.07-2.95-.15-4.42-.22-1.47-.09-2.95-.19-4.42-.28-1.47-.11-2.93-.22-4.38-.33-2.9-.24-5.76-.47-8.54-.7-1.39-.11-2.76-.22-4.1-.33-1.35-.1-2.67-.2-3.96-.29-1.29-.08-2.56-.16-3.78-.23-.61-.03-1.22-.06-1.82-.09-.6-.02-1.19-.04-1.76-.06-.58-.01-1.15-.03-1.71-.04-.56,0-1.11,0-1.65,0-.54,0-1.07.01-1.58.02-.52.02-1.02.04-1.51.06-.49.03-.97.06-1.44.09-.47.04-.92.09-1.37.13-.22.03-.44.05-.65.08-.21.03-.43.06-.63.09-.21.03-.41.07-.61.1-.2.04-.4.08-.59.11-.19.04-.38.08-.57.12-.19.05-.37.09-.55.14-.18.05-.36.1-.53.15-.17.05-.34.11-.51.16-.16.06-.32.12-.48.17-.16.06-.31.13-.46.19-.15.07-.29.13-.44.2-.14.07-.28.14-.41.21l-1.66,3.33c.39-.02.81-.04,1.27-.06.45-.01.94-.02,1.45-.04.51,0,1.06-.01,1.62-.02.57,0,1.16,0,1.78,0,1.23.02,2.56.04,3.96.06,1.4.04,2.87.08,4.4.13,1.53.06,3.11.12,4.73.18,1.62.07,3.27.15,4.93.23,3.33.18,6.72.36,10.02.54,3.29.2,6.49.4,9.43.58,2.94.19,5.63.37,7.9.52,4.55.32,7.45.52,7.45.52"/>
          <path class="cls-1" d="M25.49,134.94s-.11-1.27-.32-3.52c-.09-1.13-.2-2.5-.32-4.08-.11-1.58-.23-3.37-.36-5.34-.11-1.97-.23-4.1-.36-6.38-.05-1.14-.11-2.31-.16-3.52-.05-1.2-.09-2.44-.14-3.7-.04-1.26-.08-2.54-.11-3.85-.03-1.31-.05-2.63-.08-3.98-.01-1.34-.03-2.71-.04-4.08,0-1.37,0-2.76,0-4.15.02-1.39.04-2.8.05-4.2.04-1.41.07-2.81.11-4.22.06-1.41.12-2.81.18-4.22.08-1.4.16-2.8.25-4.18.05-.69.1-1.38.15-2.07.06-.69.11-1.37.17-2.05.06-.68.13-1.36.19-2.03.07-.67.14-1.34.21-2.01.08-.66.16-1.32.23-1.98.09-.65.17-1.3.26-1.95.09-.64.19-1.28.28-1.91.1-.63.2-1.25.31-1.87.11-.62.22-1.23.33-1.83.12-.6.24-1.2.36-1.79.13-.59.26-1.17.38-1.74.14-.57.28-1.13.41-1.69.15-.55.3-1.1.44-1.63.16-.53.31-1.06.47-1.57.17-.51.34-1.02.5-1.51.09-.25.17-.49.26-.73.09-.24.18-.48.27-.72.09-.23.19-.47.28-.7.1-.23.19-.46.28-.68.1-.22.2-.44.29-.66.1-.22.2-.43.3-.64.1-.21.21-.42.31-.63.11-.2.21-.41.32-.61.11-.2.22-.39.33-.59.11-.19.22-.38.33-.57.12-.18.23-.37.34-.55.12-.18.24-.35.35-.53.12-.17.24-.34.36-.5l.37-.48.38-.46.39-.44.4-.42.41-.39,9.61-1.84-.49.25-.48.27-.47.28-.47.3-.46.31-.45.32-.44.34-.43.35-.42.37-.41.38-.4.39-.39.41-.38.42-.37.43-.36.45-.36.46-.35.47-.34.48-.33.5-.32.51-.31.52-.31.53-.3.54-.29.56-.28.57-.28.58c-.17.39-.35.79-.53,1.19-.16.41-.33.82-.5,1.23-.15.42-.31.84-.47,1.27-.15.43-.29.87-.44,1.31-.14.45-.27.9-.41,1.35-.13.46-.26.92-.39,1.39-.12.47-.24.95-.36,1.43-.11.48-.22.97-.34,1.46-.1.49-.21.99-.31,1.49-.09.5-.19,1.01-.29,1.53-.09.51-.17,1.03-.26,1.56-.08.52-.16,1.05-.24,1.59-.07.53-.15,1.07-.22,1.62-.07.54-.13,1.09-.2,1.64-.06.55-.12,1.11-.18,1.67-.05.56-.1,1.12-.16,1.69-.05.57-.09,1.14-.14,1.72-.04.58-.08,1.16-.12,1.74-.03.58-.07,1.17-.1,1.76-.05,1.18-.1,2.37-.15,3.58-.03,1.2-.06,2.42-.09,3.64-.01,1.22-.02,2.46-.04,3.7,0,1.24,0,2.49.01,3.75.02,1.26.04,2.52.06,3.78.03,1.27.07,2.54.1,3.81.1,2.55.19,5.1.29,7.66.13,2.55.25,5.1.38,7.64.14,2.53.28,5.05.42,7.54.27,4.97.54,9.83.79,14.44"/>
          <polygon class="cls-1" points="48.08 .68 53.53 20.45 81.9 61.85 74.6 41.49 48.08 .68"/>
          <polygon class="cls-1" points="24.79 39.27 49.38 30.19 102.35 19.7 79.15 30.81 24.79 39.27"/>
          <rect class="cls-1" x="54.98" y="28.52" width="18.58" height="4.74" transform="translate(10.65 77.9) rotate(-66.91)"/>
          <polygon class="cls-1" points="62.86 40.21 67.09 42.34 75.47 25.75 71.23 23.63 62.86 40.21"/>
          <polygon class="cls-1" points="65.71 21.57 61.48 19.46 53.1 36.04 57.34 38.17 65.71 21.57"/>
          <polygon class="cls-1" points="43.63 20.38 30.86 41.38 19.88 90.35 29.82 71.14 43.63 20.38"/>
          <polygon class="cls-1" points=".77 36.09 20.9 44.98 60.22 74.99 40.73 67.2 .77 36.09"/>
          <rect class="cls-1" x="21.25" y="53.99" width="18.58" height="4.74" transform="translate(-17.33 13.72) rotate(-19.86)"/>
          <polygon class="cls-1" points="22.75 61.67 24.09 66.22 41.94 61.06 40.6 56.52 22.75 61.67"/>
          <polygon class="cls-1" points="38.34 51.07 37.01 46.53 19.15 51.69 20.49 56.24 38.34 51.07"/>
        </g>
        <g>
          <path class="cls-1" d="M499.46,134.94c0-.64,0-1.27,0-1.9.01-.63.03-1.26.04-1.89.02-.63.05-1.25.07-1.88.04-.62.07-1.25.11-1.87.05-.62.09-1.24.14-1.85.06-.62.11-1.23.17-1.84.07-.61.13-1.22.2-1.83.08-.61.15-1.21.23-1.81.08-.6.17-1.2.25-1.8.09-.6.19-1.19.28-1.78.1-.59.2-1.18.3-1.77.11-.59.22-1.17.33-1.75.12-.58.23-1.16.35-1.73.12-.57.25-1.15.37-1.71.13-.57.26-1.13.39-1.7.14-.56.28-1.12.41-1.68.14-.55.29-1.11.43-1.66.15-.55.3-1.09.45-1.64.16-.54.31-1.08.46-1.62.16-.53.32-1.07.48-1.59.17-.53.33-1.05.49-1.57.17-.52.34-1.04.51-1.55.35-1.02.7-2.03,1.04-3.03.37-.99.73-1.96,1.08-2.93.38-.96.75-1.9,1.11-2.82.38-.92.76-1.82,1.13-2.71.39-.88.77-1.75,1.14-2.6.39-.84.77-1.67,1.14-2.48.39-.8.76-1.59,1.13-2.36.38-.76.75-1.5,1.11-2.23.37-.72.74-1.42,1.09-2.09.36-.67.71-1.32,1.05-1.96.35-.63.68-1.23,1.01-1.81.33-.58.65-1.13.96-1.66.31-.53.61-1.03.89-1.51.29-.47.56-.93.82-1.35.26-.42.51-.82.74-1.19.47-.73.88-1.35,1.21-1.86.34-.5.6-.89.78-1.15.18-.26.27-.39.27-.39-.23.4-.47.81-.7,1.21-.23.41-.46.82-.69,1.24-.22.42-.44.84-.67,1.26-.22.43-.43.86-.65,1.29-.21.44-.42.87-.64,1.31-.21.44-.41.89-.62,1.33-.2.45-.4.9-.6,1.35l-.59,1.37-.57,1.39-.56,1.41-.54,1.42-.53,1.43c-.33.96-.67,1.93-1.01,2.9-.32.98-.63,1.96-.95,2.94l-.89,2.96-.84,2.98c-.26,1-.52,1.99-.79,2.98-.25.99-.49,1.99-.73,2.97-.23.99-.46,1.97-.68,2.95-.21.98-.43,1.96-.64,2.92-.2.97-.4,1.93-.59,2.88-.18.95-.37,1.9-.55,2.83-.17.93-.34,1.86-.5,2.77-.16.91-.31,1.81-.46,2.69-.14.88-.28,1.75-.42,2.61-.13.85-.26,1.69-.38,2.51-.23,1.64-.45,3.21-.66,4.69-.19,1.48-.36,2.88-.52,4.17-.15,1.3-.28,2.49-.4,3.57-.11,1.08-.21,2.04-.3,2.87-.16,1.67-.27,2.81-.32,3.31"/>
          <path class="cls-1" d="M420.57,55.94c.28,0,.56-.01.86-.02.29-.01.6-.03.91-.04.31-.02.63-.04.96-.06.33-.03.66-.06,1.01-.08.69-.07,1.41-.15,2.15-.23.75-.1,1.52-.2,2.32-.3.8-.12,1.62-.24,2.47-.37.84-.14,1.71-.29,2.6-.43.89-.16,1.79-.32,2.72-.49.92-.18,1.86-.36,2.82-.54.95-.19,1.92-.39,2.9-.59.98-.21,1.97-.42,2.97-.63,1.99-.44,4.02-.9,6.06-1.35,2.03-.48,4.08-.96,6.12-1.44,2.03-.5,4.06-.99,6.05-1.48,1.99-.5,3.94-1,5.84-1.48,1.9-.49,3.74-.97,5.5-1.43,3.52-.95,6.72-1.81,9.43-2.54,5.4-1.51,8.83-2.47,8.83-2.47l-2.51-4.54c-.83.27-1.67.55-2.51.83-.85.27-1.71.54-2.58.81-.87.26-1.75.52-2.64.79-.89.26-1.79.51-2.69.77-.91.25-1.82.5-2.73.75-.92.24-1.84.49-2.76.73-1.85.47-3.72.94-5.59,1.41-1.87.44-3.75.88-5.61,1.32-1.87.41-3.73.83-5.56,1.23-1.84.39-3.66.77-5.44,1.14-1.79.36-3.54.71-5.25,1.05-1.71.33-3.38.64-4.99.95-1.61.29-3.17.58-4.66.85-1.49.26-2.91.51-4.25.74-1.34.22-2.61.43-3.78.63-2.35.37-4.33.67-5.85.91-.76.11-1.41.2-1.93.27-.52.07-.92.12-1.17.15"/>
          <path class="cls-1" d="M526.18,134.94c.02-.73.04-1.46.05-2.2l.08-2.21c.07-1.47.15-2.95.22-4.43.09-1.47.19-2.95.28-4.42.11-1.47.22-2.93.33-4.38.24-2.9.47-5.76.7-8.54.11-1.39.22-2.76.33-4.1.1-1.35.2-2.67.29-3.96.08-1.29.16-2.56.23-3.78.03-.61.06-1.22.09-1.82.02-.6.04-1.19.06-1.76.01-.58.03-1.15.04-1.71,0-.56,0-1.11,0-1.65,0-.54-.01-1.06-.02-1.58-.02-.52-.04-1.02-.05-1.51-.03-.49-.06-.97-.09-1.44-.04-.47-.09-.92-.13-1.37-.03-.22-.05-.44-.08-.65-.03-.21-.06-.43-.09-.63-.03-.21-.07-.41-.1-.61-.04-.2-.08-.4-.11-.59-.04-.19-.08-.38-.12-.57-.05-.19-.09-.37-.14-.55-.05-.18-.1-.35-.15-.53-.05-.17-.11-.34-.16-.51-.06-.16-.12-.32-.17-.48-.06-.16-.13-.31-.19-.46-.07-.15-.13-.29-.2-.44-.07-.14-.14-.28-.21-.41l-3.33-1.66c.02.39.04.81.06,1.27.01.45.02.94.04,1.45,0,.51.01,1.06.02,1.62,0,.57,0,1.16,0,1.78-.02,1.23-.04,2.56-.06,3.96-.04,1.4-.08,2.87-.13,4.4-.06,1.53-.12,3.11-.18,4.73-.07,1.62-.15,3.27-.23,4.94-.18,3.33-.36,6.72-.54,10.02-.2,3.29-.4,6.49-.57,9.43-.19,2.94-.37,5.63-.52,7.9-.32,4.55-.53,7.46-.53,7.46"/>
          <path class="cls-1" d="M420.57,29.33s1.27-.11,3.52-.32c1.13-.09,2.5-.2,4.08-.32,1.58-.11,3.37-.23,5.34-.36,1.97-.11,4.1-.23,6.38-.36,1.14-.05,2.31-.11,3.52-.16,1.2-.05,2.44-.09,3.7-.14,1.26-.04,2.54-.08,3.85-.11,1.31-.03,2.63-.05,3.98-.08,1.34-.01,2.71-.03,4.08-.04,1.37,0,2.76,0,4.15,0,1.39.02,2.8.04,4.2.05,1.41.04,2.81.07,4.22.11,1.41.06,2.81.12,4.22.18,1.4.08,2.8.16,4.18.25.69.05,1.38.1,2.07.15.69.06,1.37.11,2.05.17.68.06,1.36.13,2.03.19.67.07,1.34.14,2.01.21.66.08,1.32.16,1.98.23.65.09,1.3.17,1.95.26.64.09,1.28.19,1.91.28.63.1,1.25.21,1.87.31.62.11,1.23.22,1.83.33.6.12,1.2.24,1.79.36.59.13,1.17.26,1.74.38.57.14,1.13.28,1.69.41.55.15,1.1.3,1.63.44.53.16,1.06.31,1.57.47.51.17,1.02.34,1.51.5.25.09.49.17.73.26.24.09.48.18.72.27.23.09.47.19.7.28.23.1.46.19.68.28.22.1.44.2.66.29.22.1.43.2.64.3.21.1.42.21.63.31.2.11.41.21.61.32.2.11.39.22.59.33.19.11.38.22.57.33.18.12.37.23.55.34.18.12.35.24.53.35.17.12.34.24.5.36l.48.37.46.38.44.39.42.4.39.41,1.84,9.61-.25-.49-.27-.48-.28-.47-.3-.47-.31-.46-.32-.45-.34-.44-.35-.43-.37-.42-.38-.41-.39-.4-.41-.39-.42-.38-.43-.37-.45-.36-.46-.36-.47-.35-.48-.34-.5-.33-.51-.32-.52-.31-.53-.31-.54-.3-.56-.29-.57-.28-.58-.28c-.39-.17-.79-.35-1.19-.53-.41-.16-.82-.33-1.23-.5-.42-.16-.84-.31-1.27-.47-.43-.15-.87-.29-1.31-.44-.45-.14-.9-.27-1.35-.41-.46-.13-.92-.26-1.39-.39-.47-.12-.95-.24-1.43-.36-.48-.11-.97-.22-1.46-.34-.49-.1-.99-.21-1.49-.31-.5-.09-1.01-.19-1.53-.29-.51-.09-1.03-.17-1.56-.26-.52-.08-1.05-.16-1.59-.24-.53-.07-1.07-.15-1.62-.22-.54-.07-1.09-.13-1.64-.2-.55-.06-1.11-.12-1.67-.18-.56-.05-1.13-.1-1.69-.16-.57-.05-1.14-.09-1.72-.14-.58-.04-1.16-.08-1.74-.12-.58-.03-1.17-.07-1.76-.1-1.18-.05-2.37-.1-3.58-.15-1.2-.03-2.42-.06-3.64-.09-1.22-.01-2.46-.02-3.7-.04-1.24,0-2.49,0-3.75.01-1.26.02-2.52.04-3.78.06-1.27.03-2.54.07-3.81.1-2.55.1-5.1.19-7.66.29-2.55.13-5.11.25-7.64.38-2.53.14-5.05.28-7.54.42-4.97.27-9.83.54-14.44.79"/>
          <polygon class="cls-1" points="554.84 51.92 535.07 57.37 493.67 85.73 514.03 78.44 554.84 51.92"/>
          <polygon class="cls-1" points="516.24 28.63 525.33 53.22 535.82 106.18 524.71 82.99 516.24 28.63"/>
          <rect class="cls-1" x="522.25" y="58.82" width="4.74" height="18.58" transform="translate(256.25 524.01) rotate(-66.91)"/>
          <polygon class="cls-1" points="515.3 66.69 513.18 70.93 529.77 79.31 531.89 75.07 515.3 66.69"/>
          <polygon class="cls-1" points="533.94 69.55 536.06 65.32 519.48 56.94 517.35 61.18 533.94 69.55"/>
          <polygon class="cls-1" points="535.13 47.47 514.14 34.7 465.17 23.72 484.38 33.66 535.13 47.47"/>
          <polygon class="cls-1" points="519.43 4.61 510.54 24.74 480.53 64.06 488.32 44.57 519.43 4.61"/>
          <rect class="cls-1" x="496.78" y="25.09" width="4.74" height="18.58" transform="translate(17.99 171.56) rotate(-19.85)"/>
          <polygon class="cls-1" points="493.84 26.59 489.29 27.92 494.46 45.78 499 44.44 493.84 26.59"/>
          <polygon class="cls-1" points="504.44 42.18 508.99 40.84 503.83 22.99 499.28 24.33 504.44 42.18"/>
        </g>
        <g>
          <path class="cls-1" d="M420.58,488.71c.64,0,1.27,0,1.9,0,.63.01,1.26.03,1.89.04.63.02,1.25.05,1.88.07.62.04,1.25.07,1.87.11.62.05,1.24.09,1.85.14.62.06,1.23.11,1.84.17.61.07,1.22.13,1.83.2.61.08,1.21.15,1.81.23.6.08,1.2.17,1.8.25.6.09,1.19.19,1.78.28.59.1,1.18.2,1.77.3.59.11,1.17.22,1.75.33.58.12,1.16.23,1.73.35.57.12,1.15.25,1.71.37.57.13,1.13.26,1.7.39.56.14,1.12.28,1.68.41.55.14,1.11.29,1.66.43.55.15,1.09.3,1.64.45.54.16,1.08.31,1.62.46.53.16,1.07.32,1.59.48.53.17,1.05.33,1.57.49.52.17,1.04.34,1.55.51,1.02.35,2.03.7,3.03,1.04.99.37,1.96.73,2.93,1.08.96.38,1.9.75,2.82,1.11.92.38,1.82.76,2.71,1.13.88.39,1.75.77,2.6,1.14.84.39,1.67.77,2.48,1.14.8.39,1.59.76,2.36,1.13.76.38,1.5.75,2.23,1.11.72.37,1.42.74,2.09,1.09.67.36,1.32.71,1.96,1.05.63.35,1.23.69,1.81,1.01.58.33,1.13.65,1.66.96.53.31,1.03.61,1.51.89.47.29.93.56,1.35.82.42.26.82.51,1.19.74.73.47,1.35.88,1.86,1.21.5.34.89.6,1.15.78.26.18.39.27.39.27-.4-.23-.81-.47-1.21-.7-.41-.23-.82-.46-1.24-.69-.42-.22-.84-.44-1.26-.67-.43-.22-.86-.43-1.29-.65-.44-.21-.87-.42-1.31-.64-.44-.21-.89-.41-1.33-.62-.45-.2-.9-.4-1.35-.6l-1.37-.59-1.39-.57-1.41-.56-1.42-.54-1.43-.53c-.96-.33-1.93-.67-2.9-1.01-.98-.32-1.96-.63-2.94-.95l-2.96-.89-2.98-.84c-1-.26-1.99-.52-2.98-.79-.99-.25-1.99-.49-2.97-.73-.99-.23-1.97-.46-2.95-.68-.98-.21-1.96-.43-2.92-.64-.97-.2-1.93-.4-2.88-.59-.95-.18-1.9-.37-2.83-.55-.93-.17-1.86-.34-2.77-.5-.91-.16-1.81-.31-2.69-.46-.88-.14-1.75-.28-2.61-.42-.85-.13-1.69-.26-2.51-.38-1.64-.23-3.21-.45-4.69-.66-1.48-.19-2.88-.36-4.17-.52-1.3-.15-2.49-.28-3.57-.4-1.08-.11-2.04-.21-2.87-.3-1.67-.16-2.81-.27-3.31-.32"/>
          <path class="cls-1" d="M499.58,409.82c0,.28.01.56.02.86.01.29.03.6.04.91.02.31.04.63.06.96.03.33.06.66.08,1.01.07.69.15,1.41.23,2.15.1.75.2,1.52.3,2.32.12.8.24,1.62.37,2.47.14.84.29,1.71.43,2.6.16.89.32,1.79.49,2.72.18.92.36,1.86.54,2.82.19.95.39,1.92.59,2.9.21.98.42,1.97.63,2.97.44,1.99.9,4.02,1.35,6.06.48,2.04.96,4.08,1.44,6.12.5,2.03.99,4.06,1.48,6.05.5,1.99,1,3.94,1.48,5.84.49,1.9.97,3.73,1.43,5.5.95,3.52,1.81,6.72,2.54,9.43,1.51,5.4,2.47,8.83,2.47,8.83l4.54-2.52c-.27-.83-.55-1.67-.83-2.51-.27-.85-.54-1.71-.81-2.58-.26-.87-.52-1.75-.79-2.64-.26-.89-.51-1.79-.77-2.69-.25-.91-.5-1.82-.75-2.73-.24-.92-.49-1.84-.73-2.76-.47-1.85-.94-3.72-1.41-5.59-.44-1.87-.88-3.75-1.32-5.61-.41-1.87-.83-3.73-1.23-5.56-.39-1.84-.77-3.66-1.14-5.44-.36-1.79-.71-3.54-1.05-5.25-.33-1.71-.64-3.38-.95-4.99-.29-1.61-.58-3.17-.85-4.66-.26-1.49-.51-2.91-.74-4.25-.22-1.34-.43-2.61-.63-3.78-.37-2.35-.67-4.33-.91-5.85-.11-.76-.2-1.41-.27-1.93-.07-.52-.12-.92-.15-1.17"/>
          <path class="cls-1" d="M420.58,515.43c.73.02,1.46.04,2.2.06l2.21.08c1.47.07,2.95.15,4.43.22,1.47.09,2.95.19,4.42.28,1.47.11,2.93.22,4.38.33,2.9.24,5.76.47,8.54.7,1.39.11,2.76.22,4.1.33,1.35.1,2.67.2,3.96.29,1.29.08,2.56.16,3.78.23.61.03,1.22.06,1.82.09.6.02,1.19.04,1.76.06.58.01,1.15.02,1.71.04.56,0,1.11,0,1.65,0,.54,0,1.07-.01,1.58-.02.52-.02,1.02-.04,1.51-.06.49-.03.97-.06,1.44-.09.47-.04.92-.09,1.37-.13.22-.03.44-.05.65-.08.21-.03.43-.06.63-.09.21-.03.41-.07.61-.1.2-.04.4-.08.59-.11.19-.04.38-.08.57-.12.19-.05.37-.09.55-.14.18-.05.36-.1.53-.15.17-.05.34-.11.51-.16.16-.06.32-.12.48-.17.16-.06.31-.13.46-.19.15-.07.29-.13.44-.2.14-.07.28-.14.41-.21l1.66-3.33c-.39.02-.81.04-1.27.06-.45.01-.94.02-1.45.04-.51,0-1.06.01-1.62.02-.57,0-1.16,0-1.78,0-1.23-.02-2.56-.04-3.96-.06-1.4-.04-2.87-.09-4.4-.13-1.53-.06-3.11-.12-4.73-.18-1.62-.07-3.27-.15-4.93-.23-3.33-.18-6.72-.36-10.02-.54-3.29-.2-6.49-.4-9.43-.58-2.94-.19-5.63-.37-7.9-.52-4.55-.32-7.45-.52-7.45-.52"/>
          <path class="cls-1" d="M526.19,409.82s.11,1.27.32,3.52c.09,1.13.2,2.5.32,4.08.11,1.58.23,3.37.36,5.34.11,1.97.23,4.1.36,6.38.05,1.14.11,2.31.16,3.52.05,1.2.09,2.44.14,3.7.04,1.26.07,2.54.11,3.85.03,1.31.05,2.63.08,3.98.01,1.34.03,2.71.04,4.08,0,1.37,0,2.76,0,4.15-.02,1.39-.04,2.8-.05,4.2-.04,1.41-.07,2.81-.11,4.22-.06,1.41-.12,2.81-.18,4.22-.08,1.4-.16,2.8-.25,4.18-.05.69-.1,1.38-.15,2.07-.06.69-.11,1.37-.17,2.05-.06.68-.13,1.36-.19,2.03-.07.67-.14,1.34-.21,2.01-.08.66-.16,1.32-.23,1.98-.09.65-.17,1.3-.26,1.95-.09.64-.19,1.28-.28,1.91-.1.63-.2,1.25-.31,1.87-.11.62-.22,1.23-.33,1.83-.12.6-.24,1.2-.36,1.79-.13.59-.26,1.17-.38,1.74-.14.57-.28,1.13-.41,1.69-.15.55-.3,1.1-.44,1.63-.16.53-.31,1.06-.47,1.57-.17.51-.34,1.02-.5,1.51-.09.25-.17.49-.26.73-.09.24-.18.48-.27.72-.09.23-.19.47-.28.7-.1.23-.19.46-.28.68-.1.22-.2.44-.29.66-.1.22-.2.43-.3.64-.1.21-.21.42-.31.63-.11.2-.21.41-.32.61-.11.2-.22.39-.33.59-.11.19-.22.38-.33.57-.12.18-.23.37-.34.55-.12.18-.24.35-.35.53-.12.17-.24.34-.36.5l-.37.48-.38.46-.39.44-.4.42-.41.39-9.61,1.84.49-.25.48-.27.47-.28.47-.3.46-.31.45-.32.44-.34.43-.35.42-.37.41-.38.4-.39.39-.41.38-.42.37-.43.36-.45.36-.46.35-.47.34-.48.33-.5.32-.51.31-.52.31-.53.3-.54.29-.56.28-.57.28-.58c.17-.39.35-.79.53-1.19.16-.41.33-.82.5-1.23.15-.42.31-.84.47-1.27.15-.43.29-.87.44-1.31.14-.45.27-.9.41-1.35.13-.46.26-.92.39-1.39.12-.47.24-.95.36-1.43.11-.48.22-.97.34-1.46.1-.49.21-.99.31-1.49.09-.5.19-1.01.29-1.53.09-.51.17-1.03.26-1.56.08-.52.16-1.05.24-1.59.07-.53.15-1.07.22-1.62.07-.54.13-1.09.2-1.64.06-.55.12-1.11.18-1.67.05-.56.1-1.13.16-1.69.05-.57.09-1.14.14-1.72.04-.58.08-1.16.12-1.74.03-.58.07-1.17.1-1.76.05-1.18.1-2.37.15-3.58.03-1.2.06-2.42.09-3.64.01-1.22.02-2.46.04-3.7,0-1.24,0-2.49-.01-3.75-.02-1.26-.04-2.52-.06-3.78-.03-1.27-.07-2.54-.1-3.81-.1-2.55-.19-5.1-.29-7.66-.13-2.55-.25-5.1-.38-7.64-.14-2.53-.28-5.05-.42-7.54-.27-4.97-.54-9.83-.79-14.44"/>
          <polygon class="cls-1" points="503.6 544.08 498.15 524.32 469.78 482.92 477.08 503.27 503.6 544.08"/>
          <polygon class="cls-1" points="526.89 505.49 502.3 514.57 449.33 525.06 472.53 513.95 526.89 505.49"/>
          <rect class="cls-1" x="478.12" y="511.5" width="18.58" height="4.74" transform="translate(-176.44 760.73) rotate(-66.91)"/>
          <polygon class="cls-1" points="488.82 504.55 484.59 502.43 476.21 519.02 480.45 521.13 488.82 504.55"/>
          <polygon class="cls-1" points="485.97 523.19 490.2 525.31 498.58 508.72 494.34 506.59 485.97 523.19"/>
          <polygon class="cls-1" points="508.05 524.38 520.82 503.38 531.8 454.42 521.86 473.62 508.05 524.38"/>
          <polygon class="cls-1" points="550.91 508.67 530.78 499.79 491.46 469.77 510.95 477.56 550.91 508.67"/>
          <rect class="cls-1" x="511.85" y="486.03" width="18.58" height="4.74" transform="translate(-134.91 206.06) rotate(-19.86)"/>
          <polygon class="cls-1" points="528.93 483.09 527.59 478.54 509.74 483.7 511.08 488.25 528.93 483.09"/>
          <polygon class="cls-1" points="513.34 493.69 514.67 498.24 532.53 493.07 531.19 488.53 513.34 493.69"/>
        </g>
      </g>
      <g>
        <g>
          <path class="cls-1" d="M50.19,934.44c20.9-21.12,41.93-20.79,64.86-43.97l3.69,3.65c-22.93,23.18-43.96,22.85-64.86,43.98"/>
          <path class="cls-1" d="M65.41,949.49c22.23-22.47,22.42-44.25,42.67-64.73l3.69,3.65c-20.25,20.48-20.44,42.26-42.67,64.73"/>
          <path class="cls-1" d="M161.43,821.98c-20.9,21.12-20.33,42.15-43.27,65.34l3.69,3.65c22.93-23.18,22.38-44.21,43.27-65.33"/>
          <path class="cls-1" d="M176.65,837.03c-22.23,22.47-44.01,22.9-64.26,43.38l3.69,3.65c20.25-20.48,42.04-20.9,64.26-43.37"/>
          <polygon class="cls-1" points="85.06 886.5 104.34 890.21 149.94 883.71 129.57 881.31 85.06 886.5"/>
          <polygon class="cls-1" points="113.21 918.48 111.73 897.8 119.36 853.25 121.47 872.99 113.21 918.48"/>
          <polygon class="cls-1" points="121.93 893.65 124.93 890.76 111.96 877.46 108.97 880.34 121.93 893.65"/>
          <polygon class="cls-1" points="124.81 890.66 128.01 887.98 115.83 873.97 112.64 876.64 124.81 890.66"/>
          <polygon class="cls-1" points="109.11 880.43 105.91 883.1 118.09 897.12 121.28 894.45 109.11 880.43"/>
        </g>
        <g>
          <path class="cls-1" d="M161.44,821.97c20.9-21.12,41.93-20.79,64.86-43.97l3.69,3.65c-22.93,23.18-43.96,22.85-64.86,43.98"/>
          <path class="cls-1" d="M176.66,837.03c22.23-22.47,22.42-44.25,42.67-64.73l3.69,3.65c-20.25,20.48-20.44,42.26-42.67,64.73"/>
          <path class="cls-1" d="M272.68,709.51c-20.9,21.12-20.33,42.15-43.27,65.34l3.69,3.65c22.93-23.18,22.38-44.21,43.27-65.33"/>
          <path class="cls-1" d="M287.9,724.57c-22.23,22.47-44,22.9-64.26,43.38l3.69,3.65c20.25-20.48,42.04-20.9,64.26-43.37"/>
          <polygon class="cls-1" points="196.31 774.04 215.59 777.75 261.19 771.25 240.82 768.84 196.31 774.04"/>
          <polygon class="cls-1" points="224.46 806.01 222.98 785.33 230.61 740.79 232.72 760.53 224.46 806.01"/>
          <polygon class="cls-1" points="233.18 781.18 236.18 778.3 223.21 764.99 220.22 767.88 233.18 781.18"/>
          <polygon class="cls-1" points="236.06 778.19 239.26 775.52 227.08 761.5 223.89 764.18 236.06 778.19"/>
          <polygon class="cls-1" points="220.36 767.96 217.16 770.64 229.34 784.65 232.53 781.98 220.36 767.96"/>
        </g>
        <g>
          <path class="cls-1" d="M272.69,709.51c20.9-21.12,41.93-20.79,64.86-43.97l3.69,3.65c-22.93,23.18-43.96,22.85-64.86,43.98"/>
          <path class="cls-1" d="M287.91,724.56c22.23-22.47,22.42-44.25,42.67-64.73l3.69,3.65c-20.25,20.48-20.44,42.26-42.67,64.73"/>
          <path class="cls-1" d="M383.93,597.05c-20.9,21.12-20.33,42.15-43.27,65.34l3.69,3.65c22.93-23.18,22.38-44.21,43.27-65.33"/>
          <path class="cls-1" d="M399.15,612.1c-22.23,22.47-44.01,22.9-64.26,43.38l3.69,3.65c20.25-20.48,42.04-20.9,64.26-43.37"/>
          <polygon class="cls-1" points="307.56 661.57 326.84 665.28 372.44 658.78 352.07 656.38 307.56 661.57"/>
          <polygon class="cls-1" points="335.71 693.54 334.23 672.87 341.86 628.32 343.97 648.06 335.71 693.54"/>
          <polygon class="cls-1" points="344.43 668.72 347.43 665.83 334.46 652.52 331.47 655.41 344.43 668.72"/>
          <polygon class="cls-1" points="347.31 665.73 350.51 663.05 338.33 649.04 335.14 651.71 347.31 665.73"/>
          <polygon class="cls-1" points="331.61 655.49 328.41 658.17 340.59 672.19 343.78 669.51 331.61 655.49"/>
        </g>
        <g>
          <path class="cls-1" d="M383.94,597.04c20.9-21.12,41.93-20.79,64.86-43.97l3.69,3.65c-22.93,23.18-43.96,22.85-64.86,43.98"/>
          <path class="cls-1" d="M399.16,612.09c22.23-22.47,22.42-44.25,42.67-64.73l3.69,3.65c-20.25,20.48-20.44,42.26-42.67,64.73"/>
          <path class="cls-1" d="M495.18,484.58c-20.9,21.12-20.33,42.15-43.27,65.34l3.69,3.65c22.93-23.18,22.38-44.21,43.27-65.33"/>
          <path class="cls-1" d="M510.4,499.64c-22.23,22.47-44.01,22.9-64.26,43.38l3.69,3.65c20.25-20.48,42.04-20.9,64.26-43.37"/>
          <polygon class="cls-1" points="418.81 549.1 438.09 552.82 483.69 546.31 463.32 543.91 418.81 549.1"/>
          <polygon class="cls-1" points="446.96 581.08 445.48 560.4 453.11 515.85 455.22 535.6 446.96 581.08"/>
          <polygon class="cls-1" points="455.68 556.25 458.68 553.36 445.71 540.06 442.72 542.95 455.68 556.25"/>
          <polygon class="cls-1" points="458.56 553.26 461.76 550.59 449.58 536.57 446.39 539.24 458.56 553.26"/>
          <polygon class="cls-1" points="442.86 543.03 439.66 545.71 451.84 559.72 455.03 557.05 442.86 543.03"/>
        </g>
      </g>
      <g>
        <g>
          <path class="cls-1" d="M341.81,273.23c-.03,9.71-3.03,18.09-7.3,24.56-4.31,6.51-9.82,11.25-15.67,14.84-5.88,3.58-12.14,6.06-18.8,7.89-6.68,1.81-13.77,3-21.96,3.38l-.23-5.18c7.36-.34,13.73-1.31,19.82-2.82,6.07-1.53,11.85-3.63,17.34-6.78,5.46-3.15,10.64-7.41,14.71-13.34,4.03-5.9,6.86-13.59,6.9-22.55"/>
          <path class="cls-1" d="M320.4,273.23c-.06,6.99-.63,13.13-1.74,19.14-1.13,5.96-2.78,11.83-5.61,17.37-2.81,5.53-6.73,10.83-12.28,15.11-5.51,4.25-12.77,7.44-21.3,7.96l-.31-5.18c7.8-.47,14.4-3.47,19.36-7.45,4.99-4.01,8.43-8.96,10.83-14.07,2.42-5.12,3.71-10.49,4.58-15.86.83-5.41,1.22-10.83,1.28-17.01"/>
          <path class="cls-1" d="M209.87,273.24c.04,9.71,3.04,18.09,7.31,24.56,4.31,6.51,9.82,11.25,15.67,14.84,5.88,3.58,12.14,6.05,18.8,7.88,6.68,1.8,13.78,3,21.96,3.38l.22-5.18c-7.36-.34-13.72-1.31-19.82-2.81-6.07-1.53-11.85-3.62-17.34-6.77-5.46-3.15-10.64-7.41-14.71-13.34-4.02-5.9-6.87-13.59-6.9-22.55"/>
          <path class="cls-1" d="M231.28,273.24c.06,6.99.64,13.13,1.74,19.14,1.14,5.96,2.78,11.83,5.61,17.37,2.81,5.53,6.73,10.83,12.28,15.1,5.51,4.25,12.77,7.44,21.31,7.95l.31-5.18c-7.8-.46-14.41-3.46-19.36-7.44-4.99-4-8.44-8.96-10.84-14.07-2.42-5.12-3.72-10.49-4.58-15.85-.83-5.41-1.22-10.83-1.28-17.01"/>
          <path class="cls-1" d="M305.5,341.99c-3.58-1.46-6.95-3.16-10.03-4.98-1.57-.98-3.06-2-4.49-3.04-.71-.52-1.41-1.05-2.09-1.58-.68-.52-1.34-1.07-1.99-1.67-7.86-3.17-14.26-8.07-18.79-13.57-4.54-5.52-7.18-11.7-7.98-17.59-.33,3.06-.21,5.99.14,9.19.08.81.21,1.58.37,2.34.15.77.32,1.55.51,2.33.19.79.4,1.58.62,2.38.23.81.48,1.61.76,2.36,3.87,6.09,9.64,11.52,16.93,15.78,7.28,4.25,16.19,7.18,26.04,8.04Z"/>
          <path class="cls-1" d="M290.34,302.14c-.08,1.47-.22,3-.46,4.55-.27,1.47-.62,2.98-1.05,4.52-.22.76-.44,1.58-.72,2.31-.27.74-.57,1.48-.88,2.23-.63,1.48-1.33,3.07-2.15,4.53-4.94,5.42-11.67,9.92-19.76,12.9-8.09,2.97-17.57,4.27-27.56,3.28,3.91-.53,7.75-1.59,11.28-2.76,1.75-.54,3.52-1.34,5.17-2.07,1.67-.77,3.24-1.5,4.78-2.41,2.1-.58,4.1-1.16,6.01-1.85,1.93-.79,3.77-1.62,5.5-2.46,1.75-.99,3.39-2,4.94-3.01,1.54-1.08,2.99-2.31,4.33-3.44,5.35-4.84,8.9-10.61,10.58-16.33Z"/>
          <path class="cls-1" d="M275.53,316.85l-3.6-.28c-.65,6.16-1.33,12.32-2.06,18.48,1.7.14,3.4.26,5.11.36.22-6.19.41-12.37.55-18.56Z"/>
          <path class="cls-1" d="M271.93,316.73c-.6-.06-1.18-.26-1.76-.41l-1.74-.46c-1.45,6.02-3.06,12.01-4.85,17.97,1.65.4,3.31.79,4.99,1.17,1.29-6.04,2.4-12.12,3.35-18.26Z"/>
          <path class="cls-1" d="M274.94,335.25c.85.13,1.7.13,2.55.16l2.57.07c.16-6.19.16-12.37-.02-18.53l-3.62-.21c-.32,6.21-.82,12.38-1.48,18.51Z"/>
        </g>
        <g>
          <path class="cls-1" d="M209.87,273.23c.03-9.71,3.03-18.09,7.3-24.56,4.31-6.51,9.82-11.25,15.67-14.84,5.88-3.58,12.14-6.06,18.8-7.89,6.68-1.81,13.78-3,21.96-3.38l.23,5.18c-7.36.34-13.73,1.31-19.82,2.81-6.07,1.53-11.85,3.63-17.34,6.78-5.46,3.15-10.64,7.41-14.71,13.34-4.03,5.9-6.86,13.59-6.9,22.55"/>
          <path class="cls-1" d="M231.28,273.23c.06-6.99.63-13.13,1.74-19.14,1.13-5.96,2.78-11.83,5.61-17.37,2.81-5.53,6.73-10.83,12.28-15.11,5.51-4.25,12.77-7.44,21.3-7.95l.31,5.18c-7.8.47-14.4,3.47-19.36,7.45-4.99,4.01-8.43,8.96-10.83,14.07-2.42,5.12-3.71,10.5-4.58,15.86-.83,5.41-1.22,10.83-1.28,17.02"/>
          <path class="cls-1" d="M341.81,273.21c-.04-9.71-3.04-18.09-7.31-24.56-4.31-6.51-9.82-11.25-15.67-14.84-5.88-3.58-12.14-6.05-18.8-7.88-6.68-1.8-13.78-3-21.96-3.38l-.22,5.18c7.36.34,13.72,1.31,19.82,2.81,6.07,1.53,11.85,3.62,17.34,6.77,5.46,3.15,10.64,7.41,14.71,13.34,4.02,5.9,6.87,13.59,6.9,22.55"/>
          <path class="cls-1" d="M320.4,273.22c-.06-6.99-.64-13.13-1.74-19.14-1.14-5.96-2.78-11.83-5.61-17.37-2.81-5.53-6.73-10.83-12.28-15.11-5.51-4.25-12.77-7.44-21.31-7.95l-.31,5.18c7.8.46,14.41,3.46,19.36,7.44,4.99,4.01,8.44,8.96,10.84,14.07,2.42,5.12,3.72,10.49,4.58,15.85.83,5.41,1.22,10.83,1.28,17.01"/>
          <path class="cls-1" d="M246.18,204.47c3.58,1.46,6.95,3.16,10.03,4.98,1.57.98,3.06,2,4.49,3.04.71.52,1.41,1.05,2.09,1.58.68.52,1.34,1.07,1.99,1.67,7.86,3.17,14.26,8.07,18.79,13.57,4.54,5.52,7.18,11.7,7.98,17.59.33-3.06.21-5.99-.14-9.19-.09-.81-.21-1.58-.37-2.34-.15-.77-.32-1.55-.51-2.33-.19-.79-.4-1.58-.62-2.38-.23-.81-.48-1.61-.76-2.36-3.87-6.09-9.64-11.52-16.93-15.78-7.28-4.25-16.19-7.18-26.04-8.04Z"/>
          <path class="cls-1" d="M261.34,244.31c.08-1.47.22-3,.46-4.55.27-1.47.62-2.98,1.05-4.52.22-.76.44-1.58.72-2.31.27-.74.57-1.48.88-2.23.63-1.48,1.33-3.07,2.15-4.53,4.94-5.42,11.67-9.92,19.76-12.9,8.09-2.97,17.57-4.27,27.56-3.28-3.91.53-7.75,1.59-11.28,2.76-1.75.54-3.52,1.34-5.17,2.07-1.67.77-3.24,1.5-4.78,2.41-2.1.58-4.1,1.16-6.01,1.85-1.93.79-3.77,1.62-5.5,2.46-1.75.99-3.39,2-4.94,3.01-1.54,1.08-2.99,2.31-4.33,3.44-5.35,4.84-8.9,10.61-10.58,16.33Z"/>
          <path class="cls-1" d="M276.15,229.6l3.6.28c.65-6.16,1.33-12.32,2.06-18.48-1.7-.14-3.4-.26-5.11-.36-.22,6.19-.41,12.37-.55,18.56Z"/>
          <path class="cls-1" d="M279.75,229.73c.6.06,1.18.27,1.76.41l1.74.46c1.45-6.02,3.06-12.01,4.85-17.97-1.65-.4-3.31-.79-4.99-1.17-1.29,6.04-2.4,12.12-3.35,18.26Z"/>
          <path class="cls-1" d="M276.74,211.2c-.85-.13-1.7-.13-2.55-.16l-2.57-.07c-.16,6.19-.16,12.37.02,18.53l3.62.21c.32-6.21.82-12.38,1.48-18.51Z"/>
        </g>
      </g>
    </g>
  </g>
</svg>