<?xml version="1.0" encoding="UTF-8"?>
<svg id="Layer_2" data-name="Layer 2" xmlns="http://www.w3.org/2000/svg" viewBox="0 0 198.89 205.42">
  <defs>
    <style>
      .cls-1 {
        fill: #bfbfbf;
        stroke: #000;
        stroke-linecap: round;
        stroke-width: 2.5px;
      }
    </style>
  </defs>
  <g id="Layer_2-2" data-name="Layer 2">
    <g>
      <g>
        <path class="cls-1" d="M197.64,102.19c-.08,9.39-2.24,17.53-5.61,24.36-3.35,6.86-7.72,12.48-12.53,17.45-4.85,4.96-10.18,9.25-15.9,13.56-5.79,4.26-11.99,8.53-19.35,13.11l-2.73-4.41c6.89-4.29,12.73-8.24,18.22-12.17,5.43-3.97,10.53-7.94,15.19-12.55,4.62-4.62,8.85-9.88,12.08-16.34,3.26-6.43,5.35-14.12,5.43-23.01"/>
        <path class="cls-1" d="M176.23,102.19c-.04,3.89-.07,7.53-.16,11.03-.14,3.49-.21,6.87-.46,10.16-.39,6.59-1.07,12.94-2.5,19.28-1.44,6.31-3.59,12.66-7.28,18.7-3.67,6.01-8.8,11.84-16.03,16.4l-2.78-4.38c6.81-4.29,11.61-9.83,15-15.54,3.41-5.73,5.33-11.77,6.57-17.74,1.24-5.99,1.75-11.97,2.02-18.14.19-3.07.2-6.23.31-9.48.03-3.23.07-6.64.11-10.27"/>
        <path class="cls-1" d="M54.14,185.03c8.15,4.75,16.36,6.77,23.93,7.35,7.61.55,14.67-.48,21.36-2.18,6.7-1.73,13.1-4.11,19.69-6.95,3.29-1.45,6.65-2.96,10.13-4.65,3.47-1.71,7.09-3.51,10.92-5.57l-2.47-4.56c-3.58,1.93-6.96,3.62-10.2,5.24-3.25,1.61-6.38,3.05-9.45,4.45-6.16,2.74-12.16,5.1-18.47,6.84-6.3,1.7-12.98,2.79-20.18,2.34-7.16-.47-14.95-2.33-22.65-6.82"/>
        <path class="cls-1" d="M64.86,166.5c1.66,1,3.33,1.87,4.91,2.81,1.62.85,3.16,1.77,4.72,2.56,3.07,1.69,6.07,3.21,9.02,4.69,5.92,2.9,11.76,5.51,17.95,7.46,6.18,1.95,12.74,3.19,19.83,3.05.88-.02,1.78-.05,2.68-.1.89-.08,1.8-.18,2.71-.29,1.84-.18,3.66-.6,5.54-1.01,3.71-.96,7.55-2.27,11.31-4.3l-2.41-4.59c-3.54,1.91-7.17,3.12-10.66,4.01-1.78.36-3.49.75-5.23.9-.86.09-1.71.18-2.56.25-.85.04-1.69.05-2.53.07-6.68.05-12.85-1.23-18.65-3.19-5.81-1.95-11.24-4.51-16.74-7.31-2.74-1.43-5.52-2.88-8.36-4.48-1.44-.75-2.87-1.62-4.37-2.41-1.46-.88-3.01-1.69-4.56-2.63"/>
        <path class="cls-1" d="M176.62,175.43c-7.43-.24-14.51-1.23-21.2-3-8.48.66-16.63-.13-23.98-1.97-7.36-1.85-13.98-4.91-19.54-8.67,4.2,4.8,9.23,9.12,15.02,12.82,3.57,1.27,7.3,2.21,11.24,2.96,3.9.66,8.01,1.13,12.2,1.2,8.39.19,17.32-.83,26.27-3.34Z"/>
        <path class="cls-1" d="M147.95,143.92c1.32,6.26,1.77,13,1.21,19.97-2.39,7.32-6.16,14.57-11.24,21.51-5.08,6.92-11.55,13.36-19.21,19.01,4.85-5.95,8.77-12.32,11.74-18.74,5.65-6.49,9.88-13.58,12.78-20.68,2.91-7.09,4.39-14.31,4.73-21.07Z"/>
        <path class="cls-1" d="M138.34,165.88c-1.17.67-2.39,1.24-3.6,1.82l7.95,16.8c1.51-.74,3.05-1.45,4.52-2.29l-8.87-16.33Z"/>
        <path class="cls-1" d="M134.81,167.83c-1.24.53-2.54.91-3.8,1.35,2.05,5.85,3.98,11.73,5.8,17.64,1.61-.5,3.17-1.11,4.77-1.68-2.15-5.8-4.41-11.6-6.77-17.32Z"/>
        <path class="cls-1" d="M147.08,182.1c1.53-.72,3.05-1.45,4.52-2.28-2.85-5.5-5.79-10.95-8.83-16.33-1.22.6-2.38,1.28-3.63,1.81,2.74,5.54,5.39,11.14,7.94,16.8Z"/>
      </g>
      <g>
        <path class="cls-1" d="M54.13,185.03c-2.06-1.14-3.92-2.47-5.71-3.76-1.73-1.37-3.41-2.71-4.89-4.18-3.04-2.86-5.52-5.97-7.68-9.09-4.24-6.33-6.92-12.91-8.83-19.56-1.91-6.66-2.96-13.44-3.82-20.55-.13-.88-.21-1.79-.29-2.7-.09-.9-.19-1.81-.29-2.74-.12-1.86-.35-3.72-.45-5.66-.31-3.85-.5-7.9-.62-12.23l5.19-.15c.12,4.06.28,7.85.54,11.45.07,1.82.28,3.56.37,5.31.08.87.16,1.73.24,2.57.07.85.13,1.7.24,2.54.72,6.69,1.59,13.11,3.3,19.43,1.7,6.31,4.15,12.59,8.09,18.63,2.02,2.97,4.33,5.94,7.2,8.66,1.39,1.41,2.98,2.67,4.61,3.98,1.69,1.22,3.45,2.49,5.39,3.56"/>
        <path class="cls-1" d="M64.85,166.5c-3.36-1.95-6.5-3.8-9.46-5.66-.76-.45-1.5-.9-2.21-1.37-.73-.46-1.46-.91-2.17-1.36-1.39-.95-2.85-1.8-4.19-2.75-5.49-3.66-10.69-7.38-15.45-11.79-4.76-4.39-9.16-9.44-12.58-15.65-3.36-6.2-5.82-13.58-6.15-22.1l5.18-.21c.31,8.03,2.69,14.98,5.93,20.78,3.31,5.81,7.54,10.5,12.1,14.55,4.57,4.07,9.53,7.47,14.72,10.81,1.27.87,2.65,1.64,3.95,2.51.67.41,1.35.82,2.04,1.24.67.44,1.36.85,2.07,1.26,2.78,1.72,5.71,3.42,8.83,5.23"/>
        <path class="cls-1" d="M54.12,19.37c-2.06,1.14-3.91,2.47-5.71,3.76-1.73,1.37-3.41,2.71-4.89,4.19-3.04,2.86-5.52,5.97-7.68,9.09-4.24,6.33-6.92,12.91-8.82,19.56-1.91,6.66-2.95,13.44-3.81,20.56-.13.88-.21,1.79-.29,2.7-.09.9-.19,1.81-.29,2.74-.12,1.86-.35,3.72-.45,5.66-.31,3.85-.5,7.9-.62,12.23l5.19.15c.12-4.06.28-7.85.54-11.45.07-1.82.28-3.56.37-5.31.08-.87.16-1.73.24-2.57.07-.85.13-1.7.24-2.54.72-6.69,1.59-13.11,3.3-19.43,1.7-6.31,4.14-12.59,8.09-18.63,2.01-2.97,4.33-5.94,7.2-8.66,1.39-1.41,2.98-2.67,4.61-3.98,1.69-1.22,3.44-2.49,5.39-3.56"/>
        <path class="cls-1" d="M64.84,37.89c-3.36,1.95-6.5,3.8-9.46,5.66-.76.45-1.5.9-2.21,1.38-.73.46-1.46.91-2.17,1.36-1.39.95-2.85,1.8-4.19,2.75-5.49,3.66-10.69,7.39-15.45,11.79-4.76,4.39-9.16,9.44-12.58,15.65-3.36,6.2-5.82,13.58-6.15,22.1l5.18.21c.31-8.03,2.69-14.98,5.92-20.78,3.3-5.81,7.54-10.5,12.1-14.55,4.57-4.07,9.53-7.47,14.72-10.82,1.27-.87,2.65-1.64,3.95-2.51.67-.41,1.35-.82,2.04-1.24.67-.44,1.36-.85,2.07-1.26,2.77-1.72,5.71-3.42,8.83-5.23"/>
        <path class="cls-1" d="M1.21,130.21l1.47-2.33c.51-.77,1.03-1.53,1.56-2.28,1.05-1.5,2.1-2.95,3.21-4.35,2.25-2.82,4.52-5.45,6.99-7.91,7.38-15.36,18.86-26.54,30.97-32.37-6.22,1.25-12.49,3.45-18.61,6.62-5.69,4.92-10.92,11.05-15.32,18.2-4.42,7.16-7.94,15.39-10.26,24.43Z"/>
        <path class="cls-1" d="M42.84,121.15c-6.08-1.97-12.13-4.96-17.88-8.94-5.08-5.75-9.59-12.63-13-20.48-3.41-7.84-5.89-16.68-6.89-26.14,2.77,7.19,6.3,13.75,10.37,19.53,2.87,8.13,6.81,15.33,11.52,21.4,4.74,6.07,10.13,10.99,15.88,14.62Z"/>
        <path class="cls-1" d="M28.64,101.85c.08-1.35.1-2.69.23-4.03l-18.51-1.51c-.19,1.68-.19,3.36-.29,5.04l18.57.5Z"/>
        <path class="cls-1" d="M28.72,97.81c.25-1.33.41-2.66.74-3.97-6.07-1.15-12.13-2.41-18.18-3.78l-.51,2.47c-.16.83-.27,1.66-.41,2.49,6.11,1.04,12.23,1.97,18.36,2.79Z"/>
        <path class="cls-1" d="M10.23,101.3c-.17,1.67-.2,3.36-.3,5.04,6.17.29,12.38.47,18.58.54,0-1.35.17-2.7.24-4.05-6.19-.4-12.36-.91-18.51-1.54Z"/>
      </g>
      <g>
        <path class="cls-1" d="M54.13,19.36c8.15-4.75,16.36-6.77,23.93-7.35,7.61-.55,14.67.48,21.36,2.17,6.7,1.73,13.1,4.11,19.69,6.94,6.59,2.88,13.39,6.12,21.05,10.21l-2.46,4.57c-3.58-1.93-6.96-3.62-10.2-5.24-3.25-1.61-6.38-3.05-9.45-4.45-6.16-2.74-12.16-5.1-18.47-6.83-6.3-1.7-12.98-2.78-20.18-2.34-7.16.47-14.95,2.33-22.65,6.83"/>
        <path class="cls-1" d="M64.85,37.89c1.66-1,3.33-1.87,4.91-2.81,1.62-.84,3.16-1.77,4.72-2.56,3.07-1.69,6.07-3.21,9.02-4.69,5.92-2.9,11.76-5.51,17.95-7.46,6.18-1.95,12.74-3.19,19.83-3.06.88.02,1.78.05,2.68.1.89.08,1.8.18,2.71.29,1.84.18,3.66.6,5.54,1.01,3.71.96,7.55,2.27,11.31,4.29l-2.41,4.59c-3.54-1.91-7.17-3.12-10.66-4.01-1.78-.36-3.49-.75-5.23-.9-.86-.09-1.71-.18-2.56-.25-.85-.04-1.69-.05-2.53-.07-6.68-.04-12.85,1.23-18.65,3.19-5.81,1.95-11.24,4.51-16.73,7.31-2.74,1.43-5.52,2.88-8.36,4.48-1.44.75-2.87,1.63-4.37,2.41-1.46.88-3.01,1.69-4.56,2.63"/>
        <path class="cls-1" d="M197.64,102.18c-.08-9.39-2.24-17.53-5.61-24.36-3.35-6.86-7.72-12.48-12.53-17.45-4.86-4.96-10.18-9.25-15.91-13.55-5.79-4.26-11.99-8.53-19.36-13.11l-2.73,4.41c6.89,4.29,12.73,8.24,18.23,12.17,5.43,3.97,10.53,7.94,15.2,12.55,4.63,4.62,8.85,9.88,12.09,16.34,3.26,6.43,5.35,14.12,5.43,23.01"/>
        <path class="cls-1" d="M176.23,102.18c-.04-3.89-.08-7.53-.16-11.03-.15-3.49-.21-6.87-.46-10.16-.39-6.59-1.08-12.94-2.51-19.28-1.44-6.31-3.59-12.66-7.28-18.7-3.67-6.01-8.8-11.83-16.03-16.39l-2.78,4.38c6.81,4.29,11.61,9.83,15,15.54,3.41,5.73,5.33,11.77,6.58,17.74,1.24,5.99,1.75,11.97,2.03,18.14.19,3.07.2,6.23.31,9.48.03,3.23.07,6.64.11,10.27"/>
        <path class="cls-1" d="M128.06.89c3.53,6.56,6.21,13.23,8.04,19.88,4.8,7.06,8.18,14.48,10.25,21.77,2.04,7.34,2.75,14.57,2.3,21.28,2.01-6.02,3.24-12.56,3.56-19.43-2.74-14.82-10.77-30.38-24.14-43.51Z"/>
        <path class="cls-1" d="M115.14,41.52c4.75-4.3,10.36-8.07,16.68-11.05,7.52-1.55,15.71-1.92,24.25-.99,8.5.98,17.32,3.29,26.04,7.09-7.61-1.17-15.04-1.39-22.08-.75-4.2-.84-8.42-1.22-12.45-1.39-4.1-.06-8.01.07-11.84.64-7.59,1-14.58,3.33-20.59,6.45Z"/>
        <path class="cls-1" d="M138.94,38.85c1.17.67,2.26,1.47,3.38,2.21l10.59-15.27c-1.41-.92-2.78-1.92-4.23-2.77l-9.74,15.83Z"/>
        <path class="cls-1" d="M142.39,40.93c1.06.83,2.05,1.75,3.07,2.62,4.05-4.69,8.16-9.28,12.38-13.82-1.22-1.16-2.54-2.2-3.83-3.29-3.96,4.75-7.84,9.58-11.63,14.49Z"/>
        <path class="cls-1" d="M148.64,23.18c-1.39-.94-2.78-1.93-4.23-2.79-3.35,5.22-6.6,10.48-9.75,15.8,1.14.74,2.29,1.43,3.38,2.24,3.44-5.14,6.97-10.23,10.61-15.26Z"/>
      </g>
    </g>
  </g>
</svg>