<?xml version="1.0" encoding="UTF-8"?>
<svg id="Layer_2" data-name="Layer 2" xmlns="http://www.w3.org/2000/svg" viewBox="0 0 965.08 822.14">
  <defs>
    <style>
      .cls-1 {
        fill: #bfbfbf;
        stroke: #000;
        stroke-linecap: round;
        stroke-width: 2.5px;
      }
    </style>
  </defs>
  <g id="Layer_2-2" data-name="Layer 2">
    <g>
      <g>
        <path class="cls-1" d="M37.54,35.19c2.41,5.83,3,9.72,2.85,13.08-.15,3.35-1.05,6.15-1.75,9.42-.7,3.26-1.21,7-.69,11.99.52,4.97,2.07,11.21,5.31,19.04l-6.6-2.37c-3.44-8.31-5.02-14.89-5.84-20.31-.68-5.36-.31-9.44.25-13.04.56-3.61,1.32-6.74,1.32-10.45,0-3.72-.74-7.99-3.34-14.26"/>
        <path class="cls-1" d="M5.4,9.02c2.97,7.72,6.38,15.14,10.36,22.45.51.92,1.01,1.83,1.51,2.73.51.91,1,1.8,1.67,2.79,1.24,1.93,2.5,3.84,3.76,5.73,2.52,3.77,5.06,7.42,7.55,10.96,4.99,7.09,9.78,13.7,13.92,19.98,4.15,6.3,7.64,12.26,10.19,18.42l-6.62-2.42c-2.73-6.58-6.38-12.92-10.67-19.57-2.15-3.32-4.45-6.71-6.86-10.21-1.23-1.78-2.46-3.55-3.69-5.32-1.3-1.83-2.41-3.56-3.54-5.32-4.51-7.03-8.74-14.18-12.39-21.43-1.82-3.61-3.51-7.26-5.05-10.96-1.54-3.66-2.93-7.36-4.22-11.15"/>
        <path class="cls-1" d="M89.67,161.1c-3.3-7.97-5.94-11.88-9.45-16.63-3.44-4.58-7.33-9.02-11.42-13.93-4.08-4.9-8.37-10.28-12.48-16.5-4.11-6.2-8.06-13.26-11.3-21.08l-6.49-2.11c3.44,8.31,7.56,15.78,11.82,22.35,4.27,6.59,8.69,12.31,12.91,17.55,4.23,5.25,8.26,10.02,11.84,14.96,3.64,5.06,6.53,9.58,9.76,17.38"/>
        <path class="cls-1" d="M69.88,169.29c-1.62-3.92-2.91-7.65-4.03-11.44-1.09-3.73-1.92-7.26-2.53-10.61-1.23-6.7-1.63-12.62-1.83-18.06-.2-5.45-.21-10.42-.76-15.48-.56-5.07-1.66-10.21-4.21-16.37l-6.47-2.06c2.73,6.58,3.98,12.1,4.69,17.52.7,5.41.84,10.71,1.18,16.5.34,5.78.87,12.04,2.26,19.11.69,3.53,1.59,7.27,2.77,11.2.29.98.61,1.98.94,2.99.32.96.65,1.93.98,2.92.66,1.89,1.39,3.81,2.2,5.77"/>
        <path class="cls-1" d="M68.73,87.21c-6.35-1.12-12.42-1.56-18.22-1.33-7.72,5.63-13.83,15.12-18.35,28.48,4.05-4.32,8.41-7.87,13.1-10.64,6.29-9.2,14.11-14.7,23.47-16.5Z"/>
        <path class="cls-1" d="M11.33,56.43c4.08,4.15,8.2,8.18,12.44,12.12,4.26,3.96,8.54,7.76,12.84,11.41,16.35,16.91,31.19,30.2,44.53,39.86-7.02-3.54-14.33-7.82-21.95-12.82-7.48-6.69-15.35-14.33-23.61-22.9-8.26-8.57-16.62-18-24.25-27.67Z"/>
        <polygon class="cls-1" points="35.3 88.13 36.97 92.42 60.11 99.77 58.81 96.36 35.3 88.13"/>
        <path class="cls-1" d="M37.16,92.47l1.31,4.18c7.73,2.55,15.42,4.99,23.07,7.34l-.94-3.31c-7.77-2.64-15.58-5.38-23.44-8.21Z"/>
        <path class="cls-1" d="M58.63,96.33l-.93-3.27c-8.04-3.29-16.13-6.68-24.23-10.16l1.28,4.12c8,3.2,15.97,6.3,23.89,9.3Z"/>
      </g>
      <g>
        <path class="cls-1" d="M89.67,161.11c12.2,29.47,4.14,49.72,17.53,82.07l-4.79,1.98c-13.39-32.35-5.34-52.59-17.54-82.06"/>
        <path class="cls-1" d="M69.89,169.3c12.98,31.35,33.42,41.04,45.24,69.61l-4.79,1.98c-11.83-28.57-32.27-38.25-45.25-69.61"/>
        <path class="cls-1" d="M154.62,318.02c-12.2-29.47-32.21-38.1-45.6-70.45l-4.79,1.98c13.39,32.35,33.39,40.98,45.59,70.45"/>
        <path class="cls-1" d="M134.84,326.21c-12.98-31.35-5.37-52.65-17.19-81.22l-4.79,1.98c11.83,28.57,4.21,49.87,17.19,81.23"/>
        <polygon class="cls-1" points="121.98 215.83 111.38 232.91 100.72 279.95 110.48 261.25 121.98 215.83"/>
        <polygon class="cls-1" points="81.5 229.17 101.52 236.76 140.66 263.6 121.29 257.03 81.5 229.17"/>
        <polygon class="cls-1" points="101.67 248.46 103.28 252.63 120.59 245.86 118.97 241.7 101.67 248.46"/>
        <polygon class="cls-1" points="103.42 252.56 104.77 256.82 122.45 251.14 121.11 246.87 103.42 252.56"/>
        <polygon class="cls-1" points="118.84 241.8 117.5 237.53 99.82 243.22 101.16 247.48 118.84 241.8"/>
      </g>
      <g>
        <path class="cls-1" d="M154.63,318.03c12.2,29.47,4.14,49.72,17.53,82.07l-4.79,1.98c-13.39-32.35-5.34-52.59-17.54-82.07"/>
        <path class="cls-1" d="M134.85,326.22c12.98,31.35,33.42,41.04,45.24,69.61l-4.79,1.98c-11.83-28.57-32.27-38.25-45.25-69.61"/>
        <path class="cls-1" d="M219.58,474.94c-12.2-29.47-32.21-38.1-45.6-70.45l-4.79,1.98c13.39,32.35,33.39,40.98,45.59,70.45"/>
        <path class="cls-1" d="M199.8,483.13c-12.98-31.35-5.37-52.65-17.19-81.22l-4.79,1.98c11.83,28.57,4.21,49.87,17.19,81.23"/>
        <polygon class="cls-1" points="186.93 372.75 176.34 389.83 165.67 436.87 175.44 418.17 186.93 372.75"/>
        <polygon class="cls-1" points="146.46 386.1 166.47 393.68 205.61 420.52 186.25 413.95 146.46 386.1"/>
        <polygon class="cls-1" points="166.63 405.38 168.24 409.55 185.55 402.78 183.93 398.62 166.63 405.38"/>
        <polygon class="cls-1" points="168.38 409.48 169.73 413.74 187.4 408.06 186.07 403.79 168.38 409.48"/>
        <polygon class="cls-1" points="183.8 398.72 182.45 394.45 164.77 400.14 166.12 404.41 183.8 398.72"/>
      </g>
      <g>
        <path class="cls-1" d="M219.58,474.95c12.2,29.47,4.14,49.72,17.53,82.07l-4.79,1.98c-13.39-32.35-5.34-52.59-17.54-82.06"/>
        <path class="cls-1" d="M199.8,483.14c12.98,31.35,33.42,41.04,45.24,69.61l-4.79,1.98c-11.83-28.57-32.27-38.25-45.25-69.61"/>
        <path class="cls-1" d="M284.54,631.86c-12.2-29.47-32.21-38.1-45.6-70.45l-4.79,1.98c13.39,32.35,33.39,40.98,45.59,70.45"/>
        <path class="cls-1" d="M264.76,640.05c-12.98-31.35-5.37-52.65-17.19-81.22l-4.79,1.98c11.83,28.57,4.21,49.87,17.19,81.23"/>
        <polygon class="cls-1" points="251.89 529.67 241.29 546.75 230.63 593.79 240.39 575.09 251.89 529.67"/>
        <polygon class="cls-1" points="211.42 543.02 231.43 550.6 270.57 577.44 251.21 570.87 211.42 543.02"/>
        <polygon class="cls-1" points="231.58 562.31 233.2 566.47 250.5 559.7 248.89 555.54 231.58 562.31"/>
        <polygon class="cls-1" points="233.34 566.4 234.68 570.67 252.36 564.98 251.02 560.71 233.34 566.4"/>
        <polygon class="cls-1" points="248.76 555.64 247.41 551.37 229.73 557.06 231.07 561.33 248.76 555.64"/>
      </g>
      <g>
        <path class="cls-1" d="M284.54,631.87c6.1,14.74,7.14,27.17,8.32,39.96.59,6.39,1.22,12.88,2.54,19.79.33,1.73.7,3.48,1.13,5.27.22.87.43,1.75.66,2.65.23.87.47,1.76.73,2.65,1.03,3.58,2.33,7.34,3.95,11.25l-4.42,2.89c-1.72-4.15-3.11-8.14-4.23-11.93-1.13-3.81-1.94-7.33-2.61-10.79-1.32-6.91-1.95-13.39-2.54-19.79-1.19-12.79-2.22-25.22-8.32-39.95"/>
        <path class="cls-1" d="M264.76,640.06c6.49,15.68,14.84,25.94,23.05,35.85,4.11,4.96,8.17,9.83,11.96,15.24.95,1.35,1.87,2.74,2.78,4.17.41.65.83,1.3,1.25,1.95.4.64.79,1.29,1.18,1.94,1.54,2.63,2.95,5.41,4.22,8.5l-4.44,2.84c-1.36-3.3-2.86-6.28-4.47-9.1-.81-1.42-1.63-2.75-2.53-4.15-.91-1.43-1.83-2.82-2.78-4.17-3.78-5.42-7.85-10.28-11.96-15.24-8.21-9.91-16.57-20.17-23.06-35.85"/>
        <path class="cls-1" d="M341.28,768.93c-2.63-6.35-5.46-10.23-8.6-13.56-3.14-3.3-6.59-6.01-10.25-9.49-3.05-2.87-6.24-6.29-9.44-10.84-3.2-4.54-6.41-10.24-9.36-17.37l-4.31,3.15c3.13,7.57,6.5,13.65,9.84,18.54,3.35,4.9,6.67,8.63,9.84,11.82,3.81,3.85,7.41,6.91,10.71,10.6,3.31,3.71,6.3,8.01,9.13,14.83"/>
        <path class="cls-1" d="M331.6,799.34c-3.59-7.99-6.33-16.27-8.24-24.53-.98-4.11-1.71-8.31-2.37-12.33-.65-4.03-1.2-7.95-1.7-11.74-.93-7-1.72-13.57-2.85-19.78-1.14-6.22-2.62-12.08-5.06-17.99l-4.29,3.2c2.62,6.32,4.24,12.54,5.52,19.1,1.27,6.55,2.19,13.43,3.26,20.76,1.15,7.94,2.52,16.35,4.74,24.7,2.2,8.3,5.26,16.58,9.18,24.33"/>
        <path class="cls-1" d="M316.85,686.59l-2.65,4.27c-.94,1.29-1.94,2.44-2.87,3.73-1.89,2.53-3.72,5.24-5.48,8.11-3.82,15.04-6.04,33.94-6.67,56.7,1.79-9.78,3.89-18.79,6.31-27.03,1.19-9.33,2.76-17.73,4.71-25.21.98-3.74,2.05-7.25,3.22-10.52,1.12-3.39,2.61-5.9,3.42-10.03Z"/>
        <path class="cls-1" d="M276.37,699.94l5,1.9c1.68.66,3.31,1.2,5.04,1.98,3.41,1.43,6.73,2.67,9.97,3.7,12.72,8.16,23.95,12.7,33.67,13.62-4.87,1.65-10.03,2.57-15.5,2.76-5.65-2.28-11.7-5.5-18.13-9.67-3.22-2.08-6.53-4.4-9.94-6.95l-2.58-1.96-1.3-1.01-1.25-.88-4.97-3.48Z"/>
        <polygon class="cls-1" points="296.89 720.08 298.6 724.47 313.96 713 312.61 709.48 296.89 720.08"/>
        <path class="cls-1" d="M298.73,724.36l1.47,4.57c5.14-3.71,10.25-7.51,15.31-11.41l-1.11-3.71c-5.18,3.62-10.41,7.13-15.67,10.55Z"/>
        <path class="cls-1" d="M312.5,709.61l-1.1-3.66c-5.45,2.96-10.94,5.83-16.48,8.6l1.45,4.52c5.42-3.06,10.79-6.21,16.12-9.46Z"/>
      </g>
      <g>
        <path class="cls-1" d="M341.28,768.94c1.21,2.92,2.23,6.01,3.14,9.3.46,1.64.88,3.34,1.29,5.08.34,1.77,1.19,3.39,2.28,4.53,1.09,1.15,2.38,1.82,3.47,2.02,1.12.21,1.84-.14,2.67-.29,1.69-.35,3.36-.69,5.04-1.03,3.49-.76,7.34-1.88,11.92-4.37,4.56-2.48,9.87-6.35,15.92-12.28l.8,6.45c-6.44,6.21-12.04,10.24-16.9,13.27-4.87,2.78-8.99,4.16-12.74,5.17-1.81.47-3.61.94-5.43,1.42-.9.21-1.67.64-2.89.46-1.18-.17-2.57-.84-3.75-2.03-1.18-1.18-2.11-2.87-2.48-4.74-.45-1.83-.91-3.62-1.41-5.36-.99-3.48-2.1-6.78-3.4-9.92"/>
        <path class="cls-1" d="M331.6,799.35c1.73,3.87,3.41,7.17,5.03,10.17.83,1.49,1.56,2.91,2.41,4.22.93,1.28,2.56,2.06,4.32,2.06.88,0,1.78-.2,2.63-.57.85-.37,1.65-.87,2.38-1.76,1.37-1.74,2.57-3.64,3.82-5.45,2.46-3.65,4.8-7.28,7.06-10.82,4.52-7.08,8.66-13.8,12.8-19.84,4.15-6.06,8.27-11.42,13.03-16.09l.77,6.51c-5.09,4.99-9.5,10.64-13.93,16.97-2.21,3.16-4.41,6.48-6.66,9.93-1.14,1.76-2.28,3.52-3.41,5.27l-.87,1.34-.44.67-.43.6-1.74,2.41c-2.33,3.2-4.7,6.34-7.16,9.4-1.25,1.51-2.43,3.08-3.78,4.48-1.42,1.32-3.3,2.05-5.12,2.04-1.81,0-3.52-.77-4.5-1.98-.9-1.25-1.69-2.59-2.58-4.03-1.76-2.89-3.55-6.02-5.45-9.82"/>
        <path class="cls-1" d="M437.15,701.53c-2.85,2.79-5.35,5.57-7.59,8.35-1.12,1.39-2.18,2.78-3.19,4.17-.5.7-.98,1.4-1.47,2.08-.47.69-.98,1.43-1.29,1.98-2.82,4.75-5.28,9.83-8.12,15.26-2.83,5.43-6.02,11.21-10.1,17.2-4.07,5.98-9.04,12.18-15.09,18.11l1.01,6.27c6.42-6.28,11.72-12.8,16.08-19.06,4.37-6.28,7.83-12.32,10.92-18,3.09-5.69,5.82-11.01,8.91-16.03.36-.6.85-1.32,1.33-2.01.48-.69.97-1.38,1.47-2.08,1.01-1.39,2.06-2.78,3.19-4.17,2.24-2.78,4.74-5.56,7.59-8.35"/>
        <path class="cls-1" d="M452.13,716.82c-6.07,5.94-12,10.43-17.91,14.22-5.9,3.79-11.45,6.56-16.62,8.97-5.18,2.42-9.98,4.47-14.62,7.02-4.64,2.56-9.1,5.59-13.86,10.26l1.05,6.24c5.09-4.99,9.84-8.31,14.75-11.13,4.91-2.81,9.97-5.12,15.41-7.79,5.43-2.66,11.24-5.69,17.43-9.77.76-.51,1.53-1.03,2.31-1.55.73-.5,1.47-1.01,2.21-1.52,1.48-1.04,2.96-2.15,4.45-3.32,2.98-2.34,5.99-4.95,9.02-7.92"/>
        <path class="cls-1" d="M373.6,751.3c1.9,5.75,4.32,11,7.27,15.73,9.07,4.11,21.13,5.29,36.17,3.54-6.08-1.59-11.56-3.77-16.45-6.52-11.86-1.45-20.85-5.69-26.99-12.75Z"/>
        <path class="cls-1" d="M370.81,810.54c4.15-9.55,7.82-19.5,10.87-29.48,8.69-20.6,14.57-38.45,17.65-53.55-.13,7.31-.83,15.17-2.09,23.58-2.96,8.97-6.64,18.75-11.07,29.06-4.43,10.29-9.63,20.63-15.35,30.39Z"/>
        <polygon class="cls-1" points="390.2 778.75 393.57 775.62 389.81 753.3 387.12 755.79 390.2 778.75"/>
        <path class="cls-1" d="M393.53,775.44l3.43-2.82c-1.17-7.49-2.41-14.91-3.73-22.25l-2.76,2.15c1.1,7.56,2.12,15.2,3.07,22.92Z"/>
        <path class="cls-1" d="M387.17,755.96l-2.72,2.13.83,12.14.71,12.15,3.39-2.71c-.66-7.92-1.4-15.88-2.22-23.71Z"/>
      </g>
      <g>
        <path class="cls-1" d="M437.16,701.52c22.79-22.32,44.58-22.41,69.58-46.91l3.63,3.71c-25.01,24.5-46.79,24.59-69.58,46.92"/>
        <path class="cls-1" d="M452.14,716.81c24.24-23.75,25.59-46.33,47.68-67.96l3.63,3.71c-22.09,21.64-23.44,44.22-47.68,67.97"/>
        <path class="cls-1" d="M558.47,582.67c-22.79,22.32-23.32,44.11-48.33,68.61l3.63,3.71c25.01-24.5,25.55-46.28,48.33-68.6"/>
        <path class="cls-1" d="M573.45,597.97c-24.24,23.75-46.84,24.64-68.93,46.28l3.63,3.71c22.09-21.64,44.69-22.52,68.93-46.27"/>
        <polygon class="cls-1" points="475.86 651.12 495.65 654.57 543.28 646.9 522.28 644.82 475.86 651.12"/>
        <polygon class="cls-1" points="503.35 683.68 502.91 662.28 513.19 615.95 514.33 636.37 503.35 683.68"/>
        <polygon class="cls-1" points="513.71 657.77 516.97 654.72 504.24 641.19 500.97 644.25 513.71 657.77"/>
        <polygon class="cls-1" points="516.86 654.61 520.31 651.77 508.43 637.5 504.98 640.33 516.86 654.61"/>
        <polygon class="cls-1" points="501.11 644.33 497.66 647.17 509.54 661.45 513 658.61 501.11 644.33"/>
      </g>
      <g>
        <path class="cls-1" d="M558.48,582.67c22.79-22.32,44.58-22.41,69.58-46.91l3.63,3.71c-25.01,24.5-46.79,24.59-69.58,46.92"/>
        <path class="cls-1" d="M573.46,597.96c24.24-23.75,25.59-46.33,47.68-67.96l3.63,3.71c-22.09,21.64-23.44,44.22-47.68,67.97"/>
        <path class="cls-1" d="M679.78,463.82c-22.79,22.32-23.32,44.11-48.33,68.61l3.63,3.71c25.01-24.5,25.55-46.28,48.33-68.6"/>
        <path class="cls-1" d="M694.76,479.11c-24.24,23.75-46.84,24.64-68.93,46.28l3.63,3.71c22.09-21.64,44.69-22.52,68.93-46.27"/>
        <polygon class="cls-1" points="597.17 532.27 616.97 535.72 664.6 528.04 643.6 525.97 597.17 532.27"/>
        <polygon class="cls-1" points="624.67 564.83 624.23 543.43 634.51 497.1 635.65 517.52 624.67 564.83"/>
        <polygon class="cls-1" points="635.03 538.92 638.29 535.86 625.55 522.34 622.29 525.39 635.03 538.92"/>
        <polygon class="cls-1" points="638.17 535.76 641.63 532.92 629.75 518.65 626.29 521.48 638.17 535.76"/>
        <polygon class="cls-1" points="622.43 525.48 618.98 528.32 630.86 542.6 634.31 539.76 622.43 525.48"/>
      </g>
      <g>
        <path class="cls-1" d="M679.79,463.81c22.79-22.32,44.58-22.41,69.58-46.91l3.63,3.71c-25.01,24.5-46.79,24.59-69.58,46.92"/>
        <path class="cls-1" d="M694.77,479.11c24.24-23.75,25.59-46.33,47.68-67.96l3.63,3.71c-22.09,21.64-23.44,44.22-47.68,67.97"/>
        <path class="cls-1" d="M801.1,344.97c-22.79,22.32-23.32,44.11-48.33,68.61l3.63,3.71c25.01-24.5,25.55-46.28,48.33-68.6"/>
        <path class="cls-1" d="M816.08,360.26c-24.24,23.75-46.84,24.64-68.93,46.28l3.63,3.71c22.09-21.64,44.69-22.52,68.93-46.27"/>
        <polygon class="cls-1" points="718.49 413.41 738.28 416.87 785.91 409.19 764.91 407.12 718.49 413.41"/>
        <polygon class="cls-1" points="745.98 445.98 745.54 424.58 755.82 378.25 756.96 398.66 745.98 445.98"/>
        <polygon class="cls-1" points="756.34 420.07 759.61 417.01 746.87 403.49 743.61 406.54 756.34 420.07"/>
        <polygon class="cls-1" points="759.49 416.91 762.94 414.07 751.06 399.79 747.61 402.63 759.49 416.91"/>
        <polygon class="cls-1" points="743.74 406.62 740.29 409.46 752.17 423.74 755.63 420.9 743.74 406.62"/>
      </g>
      <g>
        <path class="cls-1" d="M801.11,344.96c11.39-11.16,22.54-16.76,33.96-22.64,2.86-1.47,5.73-2.95,8.63-4.55,1.39-.77,2.79-1.55,4.23-2.35,1.39-.79,2.79-1.62,4.22-2.52,5.7-3.59,11.76-8.2,17.81-14.13l4.94,2.43c-6.42,6.29-12.8,11.22-18.79,15.09-1.5.97-2.98,1.88-4.43,2.73-1.45.85-2.88,1.65-4.34,2.46-2.9,1.59-5.77,3.08-8.63,4.55-11.42,5.88-22.56,11.48-33.96,22.64"/>
        <path class="cls-1" d="M816.09,360.25c12.12-11.87,18.52-23.46,24.65-34.77,1.53-2.83,3.05-5.64,4.63-8.44,1.47-2.68,2.83-5.18,4.35-7.66,3.01-4.95,6.38-9.57,11.15-14.24l4.9,2.46c-5.09,4.99-8.75,9.9-12.04,15.11-1.64,2.61-3.17,5.27-4.73,8.04-1.58,2.8-3.1,5.61-4.63,8.44-6.13,11.32-12.53,22.9-24.65,34.78"/>
        <path class="cls-1" d="M904.94,243.24c-4.66,4.56-7.07,8.35-8.77,12.12-1.69,3.76-2.65,7.49-4.07,11.63-1.31,3.85-3.03,8.06-5.96,12.81-2.91,4.74-7.05,10.03-12.9,15.76l5.14,2.23c6.21-6.08,10.66-11.68,13.85-16.7,3.21-5.03,5.19-9.49,6.75-13.59,1.69-4.4,2.92-8.39,4.89-12.43,1.99-4.05,4.7-8.13,9.71-13.04"/>
        <path class="cls-1" d="M939.36,238.47c-5.78,5.97-12.16,11.39-18.9,16.22-3.34,2.41-6.83,4.68-10.26,6.82-3.43,2.14-6.81,4.15-10.11,6.08-6.82,3.98-13.26,7.58-19.14,11.29-5.89,3.72-11.19,7.55-16.02,12.28l5.18,2.19c5.17-5.06,10.77-9.18,16.93-13.17,6.15-3.98,12.86-7.83,19.94-12.07,6.84-4.09,14.01-8.59,20.67-13.67,1.67-1.27,3.34-2.58,4.96-3.92,1.6-1.33,3.17-2.71,4.72-4.12,3.12-2.84,6-5.77,8.77-8.86"/>
        <path class="cls-1" d="M837.32,296.99c6.24,1.51,12.99,2.5,20.27,2.99,16.47-3.14,35.92-9.2,58.36-18.19-10.38,2.62-20.15,4.65-29.34,6.1-19.29,5.84-35.72,8.87-49.29,9.1Z"/>
        <path class="cls-1" d="M868.32,326.12c.13-7.4-.37-14.19-1.48-20.37,1.81-13.86.81-24.97-2.98-33.34,3.95,3.31,7.34,7.17,10.16,11.58,1.01,11.19-.89,25.24-5.69,42.13Z"/>
        <polygon class="cls-1" points="878.82 300.08 882.26 296.84 863.7 289.02 860.93 291.59 878.82 300.08"/>
        <path class="cls-1" d="M882.1,296.79l3.74-3.12c-6.08-2.68-12.24-5.28-18.48-7.81l-3.08,2.46c6.01,2.75,11.95,5.57,17.82,8.47Z"/>
        <path class="cls-1" d="M861.11,291.64l-3.03,2.43c5.51,3.24,10.95,6.56,16.3,9.94l3.7-3.08c-5.58-3.17-11.24-6.27-16.97-9.29Z"/>
      </g>
      <g>
        <path class="cls-1" d="M904.94,243.23c4.51-4.42,10.07-8.54,16.5-12.85,3.21-2.15,6.63-4.34,10.21-6.6,1.83-1.15,3.65-2.3,5.47-3.44.92-.59,1.75-1.28,2.48-2.02.7-.75,1.29-1.55,1.75-2.36.88-1.61,1.23-3.24,1.1-4.46-.05-.63-.24-1.09-.47-1.47-.24-.36-.52-.6-.8-.9-1.15-1.15-2.6-2.29-4.49-3.41-3.77-2.23-9.39-4.36-17.69-6.08l7.16-3.3c4.27.96,7.91,1.97,11.18,2.98,1.63.51,3.16,1.01,4.6,1.51.71.25,1.42.5,2.11.74.34.12.68.25,1.02.37.34.12.67.24.91.4,2.09,1.16,3.73,2.34,5.07,3.53.33.31.66.56.94.93.27.39.51.88.59,1.54.2,1.27-.11,2.99-.98,4.7-.46.85-1.05,1.7-1.77,2.49-.74.78-1.6,1.51-2.55,2.13-1.88,1.21-3.76,2.42-5.66,3.64-3.71,2.39-7.26,4.71-10.61,6.99-6.71,4.58-12.56,8.99-17.41,13.74"/>
        <path class="cls-1" d="M939.37,238.46c5.88-6.07,9.76-11.11,12.99-15.54.4-.55.79-1.1,1.18-1.64l.57-.8c.23-.27.25-.5.37-.74.4-.96.72-1.88.98-2.75.13-.44.24-.87.34-1.29.11-.41.16-.87.03-1.42-.23-1.09-1.09-2.44-2.55-3.52-1.42-1.1-3.42-1.96-5.65-2.22-1.11-.15-2.27-.11-3.4-.12-1.12,0-2.25,0-3.37,0-4.46-.01-8.74-.05-12.82-.16-8.17-.23-15.48-.77-22.01-2.12l8-3.65c6.98,1.44,14.69,2.06,23.23,2.37,4.27.15,8.73.23,13.37.28,1.17.01,2.34.02,3.51.03,1.18.01,2.38-.02,3.53.15.58.06,1.13.2,1.69.33.27.07.53.17.79.25.21.1.4.22.58.35.76.48,1.39,1.09,1.87,1.75,1,1.31,1.38,2.87,1.16,4.14-.1.64-.37,1.19-.69,1.66-.31.49-.62.99-.93,1.49-1.24,2-2.54,4.11-3.99,6.35-1.46,2.25-3.05,4.62-5.03,7.28-1.98,2.65-4.19,5.45-7.03,8.61"/>
        <path class="cls-1" d="M827.95,196.36c6.18,1.28,12.17,1.54,18.53,1.4,6.34-.14,13.04-.7,20.23-1.15,7.19-.46,14.88-.81,22.95-.59,8.06.21,16.54.99,24.83,2.7l7.03-3.41c-8.52-1.92-17.12-2.97-25.54-3.29-8.48-.3-16.53-.02-24.07.36-7.55.38-14.6.86-21.32.93-6.74.06-13.13-.29-19.77-1.66"/>
        <path class="cls-1" d="M839.82,176.95c8.63,1.78,15.58,4.19,21.17,6.79,5.61,2.61,9.9,5.44,13.68,8.15,3.79,2.72,7.07,5.33,10.94,7.59,3.89,2.26,8.34,4.14,14.87,5.49l7.62-3.72c-6.98-1.44-11.83-3.41-16.09-5.75-4.24-2.33-7.87-5.02-12.02-7.81-4.13-2.79-8.78-5.69-14.79-8.39-5.99-2.69-13.36-5.18-22.49-7.07"/>
        <path class="cls-1" d="M895.34,219.39c6.88-4.13,13.05-8.42,18.51-12.84.94-2.18,1.62-4.4,2.05-6.69.21-1.14.36-2.29.45-3.46.05-.31-.05-.54-.09-.81l-.16-.79-.31-1.62c-.43-2.2-.8-4.58-1.37-7.08l-.87-3.87c-.33-1.32-.78-2.64-1.21-4-.65,2.71-1.39,5.31-2.35,7.86-.92,2.53-1.89,4.94-2.92,7.23l.1.83c.01.28-.01.59-.03.88-.03.59-.08,1.17-.14,1.76-.13,1.17-.31,2.32-.56,3.46-.5,2.28-1.24,4.51-2.22,6.69-1.97,4.36-4.93,8.51-8.86,12.46Z"/>
        <path class="cls-1" d="M962.3,196.13c-4.92.29-9.96.69-15.13,1.22-2.6.26-5.23.55-7.88.87l-3.99.51-2.01.27-1.01.14c-.36.06-.62.07-1.07.17-26.97,3.25-50.1,7.29-69.38,12.12,9.13-3.35,19.03-6.54,29.7-9.57,5.83-1.02,11.9-1.99,18.22-2.9,3.16-.46,6.39-.9,9.67-1.33l2.48-.32,2.23-.2,4.43-.33c11.73-.82,23.16-.97,33.73-.65Z"/>
        <polygon class="cls-1" points="925.79 194.65 921.58 193.55 895.4 206.36 898.91 207.19 925.79 194.65"/>
        <polygon class="cls-1" points="921.4 193.64 917.52 192.36 911.56 195.22 904.74 198.53 891.24 205.19 894.33 206.24 908.3 199.67 915.35 196.4 921.4 193.64"/>
        <polygon class="cls-1" points="899.11 207.07 902.17 208.09 917.17 201.74 924.73 198.58 930.82 196.09 926.97 194.85 920.99 197.41 913.66 200.62 899.11 207.07"/>
      </g>
      <g>
        <path class="cls-1" d="M827.94,196.36c-6.18-1.28-11.11-3.26-15.89-5.71-2.38-1.22-4.72-2.55-7.1-3.95-2.81-1.54-5.57-3.05-8.36-4.57-11.25-6.2-22.88-12.48-40.02-16.02l1.05-5.08c17.14,3.54,28.77,9.82,40.02,16.02,2.79,1.54,5.65,3.1,8.39,4.58,2.56,1.44,5.08,2.8,7.65,4.06,5.16,2.52,10.5,4.59,17.14,5.96"/>
        <path class="cls-1" d="M839.81,176.95c-8.63-1.78-16.63-2.46-23.8-2.49-3.6-.02-6.97.13-10.24.37-3.3.23-6.52.53-9.73.84-12.81,1.23-25.26,2.54-40.4-.59l1.05-5.08c15.14,3.13,27.58,1.82,40.4.59,3.2-.31,6.43-.61,9.73-.84,3.33-.22,6.98-.32,10.75-.26,7.57.11,16,.88,25.12,2.76"/>
        <path class="cls-1" d="M668.01,163.33c31.24,6.45,49.62-5.26,83.9,1.82l1.05-5.08c-34.28-7.08-52.66,4.63-83.9-1.82"/>
        <path class="cls-1" d="M672.34,142.37c33.23,6.86,46.58,25.12,76.87,31.37l1.05-5.08c-30.28-6.25-43.63-24.52-76.86-31.38"/>
        <polygon class="cls-1" points="770.9 193.69 762.72 175.34 729.78 140.1 739.77 158.68 770.9 193.69"/>
        <polygon class="cls-1" points="782.58 152.71 765.07 165.01 720.89 182.33 737.2 169.99 782.58 152.71"/>
        <polygon class="cls-1" points="755.3 158.56 750.94 157.56 746.83 175.68 751.18 176.68 755.3 158.56"/>
        <polygon class="cls-1" points="750.92 157.72 746.64 156.44 741.42 174.26 745.7 175.55 750.92 157.72"/>
        <polygon class="cls-1" points="751.17 176.52 755.46 177.8 760.68 159.97 756.4 158.69 751.17 176.52"/>
      </g>
      <g>
        <path class="cls-1" d="M668,163.33c-31.24-6.45-43.47-24.49-77.76-31.57l1.05-5.08c34.29,7.08,46.52,25.11,77.76,31.56"/>
        <path class="cls-1" d="M672.33,142.36c-33.23-6.86-52.72,4.61-83.01-1.64l1.05-5.08c30.28,6.25,49.77-5.23,83.01,1.63"/>
        <path class="cls-1" d="M501.68,128.99c31.24,6.45,49.62-5.26,83.9,1.82l1.05-5.08c-34.28-7.08-52.66,4.63-83.9-1.82"/>
        <path class="cls-1" d="M506.01,108.02c33.23,6.86,46.58,25.12,76.87,31.37l1.05-5.08c-30.28-6.25-43.63-24.52-76.86-31.38"/>
        <polygon class="cls-1" points="604.58 159.34 596.4 140.99 563.45 105.75 573.45 124.33 604.58 159.34"/>
        <polygon class="cls-1" points="616.26 118.36 598.74 130.66 554.56 147.99 570.87 135.65 616.26 118.36"/>
        <polygon class="cls-1" points="588.97 124.22 584.62 123.22 580.51 141.34 584.86 142.34 588.97 124.22"/>
        <polygon class="cls-1" points="584.6 123.37 580.32 122.09 575.1 139.91 579.38 141.2 584.6 123.37"/>
        <polygon class="cls-1" points="584.85 142.18 589.13 143.45 594.35 125.63 590.07 124.35 584.85 142.18"/>
      </g>
      <g>
        <path class="cls-1" d="M501.67,128.99c-31.24-6.45-43.47-24.48-77.76-31.56l1.05-5.08c34.29,7.08,46.52,25.11,77.76,31.56"/>
        <path class="cls-1" d="M506,108.02c-33.23-6.86-52.72,4.61-83.01-1.64l1.05-5.08c30.28,6.25,49.77-5.23,83.01,1.63"/>
        <path class="cls-1" d="M335.36,94.64c31.24,6.45,49.62-5.26,83.9,1.82l1.05-5.08c-34.28-7.08-52.66,4.63-83.9-1.82"/>
        <path class="cls-1" d="M339.69,73.68c33.23,6.86,46.58,25.12,76.87,31.37l1.05-5.08c-30.28-6.25-43.63-24.52-76.86-31.38"/>
        <polygon class="cls-1" points="438.25 125 430.07 106.64 397.13 71.41 407.12 89.99 438.25 125"/>
        <polygon class="cls-1" points="449.93 84.01 432.42 96.32 388.24 113.64 404.55 101.3 449.93 84.01"/>
        <polygon class="cls-1" points="422.65 89.87 418.29 88.87 414.18 106.99 418.53 107.99 422.65 89.87"/>
        <polygon class="cls-1" points="418.27 89.03 413.99 87.75 408.77 105.57 413.05 106.85 418.27 89.03"/>
        <polygon class="cls-1" points="418.52 107.83 422.81 109.11 428.03 91.28 423.75 90 418.52 107.83"/>
      </g>
      <g>
        <path class="cls-1" d="M335.35,94.64c-31.24-6.45-43.47-24.49-77.76-31.57l1.05-5.08c34.29,7.08,46.52,25.11,77.76,31.56"/>
        <path class="cls-1" d="M339.68,73.67c-33.23-6.86-52.72,4.61-83.01-1.64l1.05-5.08c30.28,6.25,49.77-5.23,83.01,1.63"/>
        <path class="cls-1" d="M169.03,60.3c31.24,6.45,49.62-5.26,83.9,1.82l1.05-5.08c-34.28-7.08-52.66,4.63-83.9-1.82"/>
        <path class="cls-1" d="M173.36,39.33c33.23,6.86,46.58,25.12,76.87,31.37l1.05-5.08c-30.28-6.25-43.63-24.52-76.86-31.38"/>
        <polygon class="cls-1" points="271.93 90.65 263.75 72.3 230.8 37.06 240.8 55.64 271.93 90.65"/>
        <polygon class="cls-1" points="283.61 49.67 266.1 61.97 221.91 79.3 238.22 66.96 283.61 49.67"/>
        <polygon class="cls-1" points="256.32 55.53 251.97 54.53 247.86 72.64 252.21 73.65 256.32 55.53"/>
        <polygon class="cls-1" points="251.95 54.68 247.67 53.4 242.45 71.22 246.73 72.51 251.95 54.68"/>
        <polygon class="cls-1" points="252.2 73.48 256.48 74.76 261.7 56.94 257.42 55.66 252.2 73.48"/>
      </g>
      <g>
        <path class="cls-1" d="M169.02,60.29c-.98-.2-1.93-.41-2.87-.64-.46-.11-.93-.23-1.38-.34-.37-.1-.73-.2-1.09-.3-1.44-.41-2.83-.87-4.2-1.36-2.73-.99-5.34-2.13-7.95-3.4-5.2-2.53-10.36-5.53-16.03-8.64-5.66-3.11-11.82-6.32-18.75-9.2-6.91-2.88-14.63-5.44-22.92-7.16l-3.49-6.02c8.81,1.82,16.96,4.47,24.27,7.43,7.33,2.97,13.85,6.25,19.87,9.43,6.02,3.18,11.54,6.26,17.12,8.86,2.79,1.3,5.6,2.49,8.54,3.52,1.47.52,2.97.99,4.52,1.42.39.1.78.21,1.17.32.46.11.92.23,1.39.34.94.22,1.9.44,2.87.64"/>
        <path class="cls-1" d="M173.35,39.33c-4.09-.84-8.26-1.46-12.09-1.83-3.85-.37-7.45-.51-10.83-.48-6.76.06-12.57.79-17.88,1.64-5.32.84-10.12,1.78-15.14,2.2-5.03.41-10.25.31-16.78-1.04l-3.44-6.01c6.98,1.44,12.59,1.63,18,1.29,5.39-.34,10.55-1.21,16.22-1.98,5.66-.77,11.84-1.43,18.99-1.41,3.57.01,7.38.19,11.45.61,4.03.41,8.55,1.1,12.54,1.92"/>
        <path class="cls-1" d="M37.54,35.18c-.33-.75.2-1.7.94-1.81.36-.07.7.06,1.04.08.33.04.66.09.99.13,1.28.15,2.45.23,3.52.24,2.15.02,3.93-.22,5.54-.61,3.2-.79,5.71-2.21,8.72-3.53,3-1.32,6.5-2.53,11.44-2.97,4.92-.44,11.3-.09,19.6,1.62l-3.76-6.07c-8.79-1.79-15.5-2.1-20.95-1.91-5.34.35-9.2,1.49-12.56,2.73-3.37,1.24-6.23,2.59-9.81,3.3-1.79.36-3.78.55-6.13.49-1.18-.03-2.45-.13-3.84-.3-.35-.05-.71-.1-1.07-.15-.36-.03-.73-.17-1.12-.1-.8.12-1.38,1.14-1.02,1.94"/>
        <path class="cls-1" d="M5.39,9.01c-.19-.48-.11-1.06.2-1.5.3-.44.82-.72,1.33-.73,1.02.11,2.02.38,3.03.57,2.01.43,4,.88,5.99,1.37,3.97.98,7.94,2.09,11.88,3.33,1,.32,1.98.64,2.96.96.98.33,1.94.64,3.06,1.1,2.15.86,4.28,1.74,6.38,2.63,4.21,1.78,8.31,3.59,12.3,5.39,7.97,3.58,15.44,7.06,22.45,9.96,7.02,2.9,13.57,5.22,20.1,6.57l-3.82-6.09c-6.98-1.44-13.92-3.84-21.32-6.83-3.69-1.49-7.49-3.12-11.41-4.84-2-.88-3.98-1.76-5.97-2.63-.99-.43-2.07-.94-3.01-1.3l-2.9-1.15c-7.73-3.05-15.55-5.81-23.29-7.99-3.88-1.09-7.79-2.04-11.65-2.86-1.94-.41-3.88-.78-5.83-1.11-.98-.15-1.95-.37-2.95-.44-.51.03-1.02.33-1.34.78-.32.44-.42,1.02-.26,1.49"/>
        <path class="cls-1" d="M123.34,59.97c-5.11-6.61-10.94-13.37-17.48-20.28-4.53-3.51-9.36-7.07-14.5-10.7-3.45-2.44-7.05-4.92-10.74-7.38-3.69-2.45-7.47-4.87-11.35-7.26-3.84-2.35-7.73-4.64-11.7-6.88-3.98-2.25-7.85-4.32-11.84-6.37,4.73,3.11,9.37,6.3,14.04,9.67,4.66,3.36,9.23,6.82,13.7,10.36,2.02,1.31,4.08,2.73,6.07,4.09l5.86,4.1c3.83,2.71,7.5,5.39,11.01,8.04,10.37,7.82,19.34,15.36,26.92,22.61Z"/>
        <path class="cls-1" d="M107.68,13.34c-3.46,4.59-6.06,9.36-7.81,14.31-2.17,1.97-4.06,3.99-5.65,6.08-4.23,5.53-6.44,11.47-6.61,17.84-2.18-5.68-3.58-11.21-4.22-16.58,1.54-3.02,3.65-5.93,6.33-8.72,4.44-4.63,10.43-8.94,17.97-12.93Z"/>
        <polygon class="cls-1" points="86.18 20.39 86.17 20.39 81.55 19.36 95.24 41.13 98.97 42 86.82 21.47 86.18 20.39"/>
        <path class="cls-1" d="M81.67,19.55c-1.62-.46-3.23-.91-4.83-1.33l6.67,10.74,6.9,10.87,3.97,1.22c-4.34-7.19-8.62-14.41-12.71-21.5Z"/>
        <path class="cls-1" d="M98.83,41.81l.34.1,3.57,1.1c-3.66-7.06-7.21-14.09-10.66-21.11l-4.82-1.39c2.79,5.25,5.63,10.51,8.53,15.78l3.05,5.52Z"/>
      </g>
    </g>
  </g>
</svg>