<?xml version="1.0" encoding="UTF-8"?>
<svg id="Layer_2" data-name="Layer 2" xmlns="http://www.w3.org/2000/svg" viewBox="0 0 660.97 180.76">
  <defs>
    <style>
      .cls-1 {
        fill: #bfbfbf;
        stroke: #000;
        stroke-linecap: round;
        stroke-width: 2.5px;
      }
    </style>
  </defs>
  <g id="Layer_2-2" data-name="Layer 2">
    <g>
      <g>
        <g>
          <path class="cls-1" d="M1.25,77.21c30.92,0,46.07,15.19,80,15.19v5.19c-33.93,0-49.08-15.18-80-15.18"/>
          <path class="cls-1" d="M1.25,98.62c32.89,0,49.15-15.18,79.12-15.18v5.19c-29.97,0-46.22,15.19-79.12,15.19"/>
          <path class="cls-1" d="M165.86,77.21c-30.92,0-46.07,15.19-80,15.19v5.19c33.93,0,49.08-15.18,80-15.18"/>
          <path class="cls-1" d="M165.86,98.62c-32.89,0-49.15-15.18-79.12-15.18v5.19c29.97,0,46.22,15.19,79.12,15.19"/>
          <polygon class="cls-1" points="62.23 68.29 73.6 84.61 111.78 112.45 98.65 96.28 62.23 68.29"/>
          <polygon class="cls-1" points="59.18 110.79 73.39 95.19 111.94 69.29 98.88 84.67 59.18 110.79"/>
          <polygon class="cls-1" points="83.93 99.53 88.26 99.63 88.61 81.05 84.29 80.95 83.93 99.53"/>
          <polygon class="cls-1" points="88.25 99.47 92.57 99.86 94.03 81.35 89.71 80.96 88.25 99.47"/>
          <polygon class="cls-1" points="84.33 81.11 80.01 80.72 78.55 99.24 82.87 99.63 84.33 81.11"/>
        </g>
        <g>
          <path class="cls-1" d="M165.87,77.21c30.92,0,46.07,15.19,80,15.19v5.19c-33.93,0-49.08-15.18-80-15.18"/>
          <path class="cls-1" d="M165.87,98.62c32.89,0,49.15-15.18,79.12-15.18v5.19c-29.97,0-46.22,15.19-79.12,15.19"/>
          <path class="cls-1" d="M330.48,77.21c-30.92,0-46.07,15.19-80,15.19v5.19c33.93,0,49.08-15.18,80-15.18"/>
          <path class="cls-1" d="M330.48,98.62c-32.89,0-49.15-15.18-79.12-15.18v5.19c29.97,0,46.22,15.19,79.12,15.19"/>
          <polygon class="cls-1" points="226.85 68.29 238.22 84.61 276.4 112.45 263.27 96.28 226.85 68.29"/>
          <polygon class="cls-1" points="223.8 110.79 238.01 95.19 276.56 69.29 263.5 84.67 223.8 110.79"/>
          <polygon class="cls-1" points="248.55 99.53 252.88 99.63 253.24 81.05 248.91 80.95 248.55 99.53"/>
          <polygon class="cls-1" points="252.87 99.47 257.19 99.86 258.65 81.35 254.33 80.96 252.87 99.47"/>
          <polygon class="cls-1" points="248.95 81.11 244.63 80.72 243.17 99.24 247.49 99.63 248.95 81.11"/>
        </g>
        <g>
          <path class="cls-1" d="M330.49,77.21c30.92,0,46.07,15.19,80,15.19v5.19c-33.93,0-49.08-15.18-80-15.18"/>
          <path class="cls-1" d="M330.49,98.62c32.89,0,49.15-15.18,79.12-15.18v5.19c-29.97,0-46.22,15.19-79.12,15.19"/>
          <path class="cls-1" d="M495.1,77.21c-30.92,0-46.07,15.19-80,15.19v5.19c33.93,0,49.08-15.18,80-15.18"/>
          <path class="cls-1" d="M495.1,98.62c-32.89,0-49.15-15.18-79.12-15.18v5.19c29.97,0,46.22,15.19,79.12,15.19"/>
          <polygon class="cls-1" points="391.47 68.29 402.84 84.61 441.02 112.45 427.89 96.28 391.47 68.29"/>
          <polygon class="cls-1" points="388.42 110.79 402.63 95.19 441.18 69.29 428.12 84.67 388.42 110.79"/>
          <polygon class="cls-1" points="413.17 99.53 417.5 99.63 417.86 81.05 413.53 80.95 413.17 99.53"/>
          <polygon class="cls-1" points="417.49 99.47 421.81 99.86 423.27 81.35 418.95 80.96 417.49 99.47"/>
          <polygon class="cls-1" points="413.57 81.11 409.25 80.72 407.79 99.24 412.11 99.63 413.57 81.11"/>
        </g>
        <g>
          <path class="cls-1" d="M495.11,77.21c30.92,0,46.07,15.19,80,15.19v5.19c-33.93,0-49.08-15.18-80-15.18"/>
          <path class="cls-1" d="M495.11,98.62c32.89,0,49.15-15.18,79.12-15.18v5.19c-29.97,0-46.22,15.19-79.12,15.19"/>
          <path class="cls-1" d="M659.72,77.21c-30.92,0-46.07,15.19-80,15.19v5.19c33.93,0,49.08-15.18,80-15.18"/>
          <path class="cls-1" d="M659.72,98.62c-32.89,0-49.15-15.18-79.12-15.18v5.19c29.97,0,46.22,15.19,79.12,15.19"/>
          <polygon class="cls-1" points="556.09 68.29 567.46 84.61 605.64 112.45 592.51 96.28 556.09 68.29"/>
          <polygon class="cls-1" points="553.04 110.79 567.25 95.19 605.8 69.29 592.74 84.67 553.04 110.79"/>
          <polygon class="cls-1" points="577.79 99.53 582.12 99.63 582.48 81.05 578.15 80.95 577.79 99.53"/>
          <polygon class="cls-1" points="582.11 99.47 586.43 99.86 587.89 81.35 583.57 80.96 582.11 99.47"/>
          <polygon class="cls-1" points="578.19 81.11 573.87 80.72 572.41 99.24 576.73 99.63 578.19 81.11"/>
        </g>
      </g>
      <g>
        <g>
          <path class="cls-1" d="M1.25,9.91c30.92,0,46.07,15.19,80,15.19v5.19C47.32,30.29,32.17,15.11,1.25,15.11"/>
          <path class="cls-1" d="M1.25,31.32c32.89,0,49.15-15.18,79.12-15.18v5.19c-29.97,0-46.22,15.19-79.12,15.19"/>
          <path class="cls-1" d="M165.86,9.91c-30.92,0-46.07,15.19-80,15.19v5.19c33.93,0,49.08-15.18,80-15.18"/>
          <path class="cls-1" d="M165.86,31.32c-32.89,0-49.15-15.18-79.12-15.18v5.19c29.97,0,46.22,15.19,79.12,15.19"/>
          <polygon class="cls-1" points="62.23 .99 73.6 17.31 111.78 45.16 98.65 28.98 62.23 .99"/>
          <polygon class="cls-1" points="59.18 43.49 73.39 27.9 111.94 2 98.88 17.38 59.18 43.49"/>
          <polygon class="cls-1" points="83.93 32.24 88.26 32.34 88.61 13.76 84.29 13.66 83.93 32.24"/>
          <polygon class="cls-1" points="88.25 32.18 92.57 32.57 94.03 14.06 89.71 13.66 88.25 32.18"/>
          <polygon class="cls-1" points="84.33 13.82 80.01 13.43 78.55 31.94 82.87 32.33 84.33 13.82"/>
        </g>
        <g>
          <path class="cls-1" d="M165.87,9.91c30.92,0,46.07,15.19,80,15.19v5.19c-33.93,0-49.08-15.18-80-15.18"/>
          <path class="cls-1" d="M165.87,31.32c32.89,0,49.15-15.18,79.12-15.18v5.19c-29.97,0-46.22,15.19-79.12,15.19"/>
          <path class="cls-1" d="M330.48,9.91c-30.92,0-46.07,15.19-80,15.19v5.19c33.93,0,49.08-15.18,80-15.18"/>
          <path class="cls-1" d="M330.48,31.32c-32.89,0-49.15-15.18-79.12-15.18v5.19c29.97,0,46.22,15.19,79.12,15.19"/>
          <polygon class="cls-1" points="226.85 .99 238.22 17.31 276.4 45.16 263.27 28.98 226.85 .99"/>
          <polygon class="cls-1" points="223.8 43.49 238.01 27.9 276.56 2 263.5 17.38 223.8 43.49"/>
          <polygon class="cls-1" points="248.55 32.24 252.88 32.34 253.24 13.76 248.91 13.66 248.55 32.24"/>
          <polygon class="cls-1" points="252.87 32.18 257.19 32.57 258.65 14.06 254.33 13.66 252.87 32.18"/>
          <polygon class="cls-1" points="248.95 13.82 244.63 13.43 243.17 31.94 247.49 32.33 248.95 13.82"/>
        </g>
        <g>
          <path class="cls-1" d="M330.49,9.91c30.92,0,46.07,15.19,80,15.19v5.19c-33.93,0-49.08-15.18-80-15.18"/>
          <path class="cls-1" d="M330.49,31.32c32.89,0,49.15-15.18,79.12-15.18v5.19c-29.97,0-46.22,15.19-79.12,15.19"/>
          <path class="cls-1" d="M495.1,9.91c-30.92,0-46.07,15.19-80,15.19v5.19c33.93,0,49.08-15.18,80-15.18"/>
          <path class="cls-1" d="M495.1,31.32c-32.89,0-49.15-15.18-79.12-15.18v5.19c29.97,0,46.22,15.19,79.12,15.19"/>
          <polygon class="cls-1" points="391.47 .99 402.84 17.31 441.02 45.16 427.89 28.98 391.47 .99"/>
          <polygon class="cls-1" points="388.42 43.49 402.63 27.9 441.18 2 428.12 17.38 388.42 43.49"/>
          <polygon class="cls-1" points="413.17 32.24 417.5 32.34 417.86 13.76 413.53 13.66 413.17 32.24"/>
          <polygon class="cls-1" points="417.49 32.18 421.81 32.57 423.27 14.06 418.95 13.66 417.49 32.18"/>
          <polygon class="cls-1" points="413.57 13.82 409.25 13.43 407.79 31.94 412.11 32.33 413.57 13.82"/>
        </g>
        <g>
          <path class="cls-1" d="M495.11,9.91c30.92,0,46.07,15.19,80,15.19v5.19c-33.93,0-49.08-15.18-80-15.18"/>
          <path class="cls-1" d="M495.11,31.32c32.89,0,49.15-15.18,79.12-15.18v5.19c-29.97,0-46.22,15.19-79.12,15.19"/>
          <path class="cls-1" d="M659.72,9.91c-30.92,0-46.07,15.19-80,15.19v5.19c33.93,0,49.08-15.18,80-15.18"/>
          <path class="cls-1" d="M659.72,31.32c-32.89,0-49.15-15.18-79.12-15.18v5.19c29.97,0,46.22,15.19,79.12,15.19"/>
          <polygon class="cls-1" points="556.09 .99 567.46 17.31 605.64 45.16 592.51 28.98 556.09 .99"/>
          <polygon class="cls-1" points="553.04 43.49 567.25 27.9 605.8 2 592.74 17.38 553.04 43.49"/>
          <polygon class="cls-1" points="577.79 32.24 582.12 32.34 582.48 13.76 578.15 13.66 577.79 32.24"/>
          <polygon class="cls-1" points="582.11 32.18 586.43 32.57 587.89 14.06 583.57 13.66 582.11 32.18"/>
          <polygon class="cls-1" points="578.19 13.82 573.87 13.43 572.41 31.94 576.73 32.33 578.19 13.82"/>
        </g>
      </g>
      <g>
        <g>
          <path class="cls-1" d="M1.25,144.5c30.92,0,46.07,15.19,80,15.19v5.19c-33.93,0-49.08-15.18-80-15.18"/>
          <path class="cls-1" d="M1.25,165.91c32.89,0,49.15-15.18,79.12-15.18v5.19c-29.97,0-46.22,15.19-79.12,15.19"/>
          <path class="cls-1" d="M165.86,144.5c-30.92,0-46.07,15.19-80,15.19v5.19c33.93,0,49.08-15.18,80-15.18"/>
          <path class="cls-1" d="M165.86,165.91c-32.89,0-49.15-15.18-79.12-15.18v5.19c29.97,0,46.22,15.19,79.12,15.19"/>
          <polygon class="cls-1" points="62.23 135.58 73.6 151.9 111.78 179.75 98.65 163.57 62.23 135.58"/>
          <polygon class="cls-1" points="59.18 178.08 73.39 162.49 111.94 136.59 98.88 151.97 59.18 178.08"/>
          <polygon class="cls-1" points="83.93 166.83 88.26 166.93 88.61 148.35 84.29 148.25 83.93 166.83"/>
          <polygon class="cls-1" points="88.25 166.77 92.57 167.16 94.03 148.65 89.71 148.25 88.25 166.77"/>
          <polygon class="cls-1" points="84.33 148.4 80.01 148.02 78.55 166.53 82.87 166.92 84.33 148.4"/>
        </g>
        <g>
          <path class="cls-1" d="M165.87,144.5c30.92,0,46.07,15.19,80,15.19v5.19c-33.93,0-49.08-15.18-80-15.18"/>
          <path class="cls-1" d="M165.87,165.91c32.89,0,49.15-15.18,79.12-15.18v5.19c-29.97,0-46.22,15.19-79.12,15.19"/>
          <path class="cls-1" d="M330.48,144.5c-30.92,0-46.07,15.19-80,15.19v5.19c33.93,0,49.08-15.18,80-15.18"/>
          <path class="cls-1" d="M330.48,165.91c-32.89,0-49.15-15.18-79.12-15.18v5.19c29.97,0,46.22,15.19,79.12,15.19"/>
          <polygon class="cls-1" points="226.85 135.58 238.22 151.9 276.4 179.75 263.27 163.57 226.85 135.58"/>
          <polygon class="cls-1" points="223.8 178.08 238.01 162.49 276.56 136.59 263.5 151.97 223.8 178.08"/>
          <polygon class="cls-1" points="248.55 166.83 252.88 166.93 253.24 148.35 248.91 148.25 248.55 166.83"/>
          <polygon class="cls-1" points="252.87 166.77 257.19 167.16 258.65 148.65 254.33 148.25 252.87 166.77"/>
          <polygon class="cls-1" points="248.95 148.4 244.63 148.02 243.17 166.53 247.49 166.92 248.95 148.4"/>
        </g>
        <g>
          <path class="cls-1" d="M330.49,144.5c30.92,0,46.07,15.19,80,15.19v5.19c-33.93,0-49.08-15.18-80-15.18"/>
          <path class="cls-1" d="M330.49,165.91c32.89,0,49.15-15.18,79.12-15.18v5.19c-29.97,0-46.22,15.19-79.12,15.19"/>
          <path class="cls-1" d="M495.1,144.5c-30.92,0-46.07,15.19-80,15.19v5.19c33.93,0,49.08-15.18,80-15.18"/>
          <path class="cls-1" d="M495.1,165.91c-32.89,0-49.15-15.18-79.12-15.18v5.19c29.97,0,46.22,15.19,79.12,15.19"/>
          <polygon class="cls-1" points="391.47 135.58 402.84 151.9 441.02 179.75 427.89 163.57 391.47 135.58"/>
          <polygon class="cls-1" points="388.42 178.08 402.63 162.49 441.18 136.59 428.12 151.97 388.42 178.08"/>
          <polygon class="cls-1" points="413.17 166.83 417.5 166.93 417.86 148.35 413.53 148.25 413.17 166.83"/>
          <polygon class="cls-1" points="417.49 166.77 421.81 167.16 423.27 148.65 418.95 148.25 417.49 166.77"/>
          <polygon class="cls-1" points="413.57 148.4 409.25 148.02 407.79 166.53 412.11 166.92 413.57 148.4"/>
        </g>
        <g>
          <path class="cls-1" d="M495.11,144.5c30.92,0,46.07,15.19,80,15.19v5.19c-33.93,0-49.08-15.18-80-15.18"/>
          <path class="cls-1" d="M495.11,165.91c32.89,0,49.15-15.18,79.12-15.18v5.19c-29.97,0-46.22,15.19-79.12,15.19"/>
          <path class="cls-1" d="M659.72,144.5c-30.92,0-46.07,15.19-80,15.19v5.19c33.93,0,49.08-15.18,80-15.18"/>
          <path class="cls-1" d="M659.72,165.91c-32.89,0-49.15-15.18-79.12-15.18v5.19c29.97,0,46.22,15.19,79.12,15.19"/>
          <polygon class="cls-1" points="556.09 135.58 567.46 151.9 605.64 179.75 592.51 163.57 556.09 135.58"/>
          <polygon class="cls-1" points="553.04 178.08 567.25 162.49 605.8 136.59 592.74 151.97 553.04 178.08"/>
          <polygon class="cls-1" points="577.79 166.83 582.12 166.93 582.48 148.35 578.15 148.25 577.79 166.83"/>
          <polygon class="cls-1" points="582.11 166.77 586.43 167.16 587.89 148.65 583.57 148.25 582.11 166.77"/>
          <polygon class="cls-1" points="578.19 148.4 573.87 148.02 572.41 166.53 576.73 166.92 578.19 148.4"/>
        </g>
      </g>
    </g>
  </g>
</svg>