<?xml version="1.0" encoding="UTF-8"?>
<svg id="Layer_2" data-name="Layer 2" xmlns="http://www.w3.org/2000/svg" viewBox="0 0 996.7 1012.29">
  <defs>
    <style>
      .cls-1 {
        fill: #bfbfbf;
        stroke: #000;
        stroke-linecap: round;
        stroke-width: 2.5px;
      }
    </style>
  </defs>
  <g id="Layer_2-2" data-name="Layer 2">
    <g>
      <g>
        <g>
          <path class="cls-1" d="M1.25,998.87c15.66-30.44,36.84-38.4,54.03-71.81l4.61,2.37c-17.19,33.41-38.36,41.38-54.03,71.82"/>
          <path class="cls-1" d="M20.29,1008.66c16.66-32.38,11.4-55.33,26.58-84.84l4.61,2.37c-15.18,29.51-9.91,52.46-26.57,84.84"/>
          <path class="cls-1" d="M84.64,836.81c-15.66,30.44-9.83,52.3-27.02,85.71l4.61,2.37c17.19-33.41,11.37-55.27,27.03-85.71"/>
          <path class="cls-1" d="M103.68,846.6c-16.66,32.38-38.4,41.44-53.58,70.95l4.61,2.37c15.18-29.51,36.92-38.56,53.58-70.94"/>
          <polygon class="cls-1" points="24.21 934.75 44.48 931.03 88.58 906.18 67.55 911.71 24.21 934.75"/>
          <polygon class="cls-1" points="60.45 957.2 53.79 936.07 50.29 886.27 57.35 906.17 60.45 957.2"/>
          <rect class="cls-1" x="53.56" y="911.86" width="4.79" height="18.58" transform="translate(-780.79 531.91) rotate(-61.58)"/>
          <polygon class="cls-1" points="65.12 923.4 67.66 919.33 51.94 909.43 49.4 913.5 65.12 923.4"/>
          <polygon class="cls-1" points="46.81 918.87 44.28 922.94 60 932.85 62.53 928.78 46.81 918.87"/>
        </g>
        <g>
          <path class="cls-1" d="M84.64,836.8c15.66-30.44,36.84-38.4,54.03-71.81l4.61,2.37c-17.19,33.41-38.36,41.38-54.03,71.82"/>
          <path class="cls-1" d="M103.68,846.59c16.66-32.38,11.4-55.33,26.58-84.84l4.61,2.37c-15.18,29.51-9.91,52.46-26.57,84.84"/>
          <path class="cls-1" d="M168.03,674.74c-15.66,30.44-9.83,52.3-27.02,85.71l4.61,2.37c17.19-33.41,11.37-55.27,27.03-85.71"/>
          <path class="cls-1" d="M187.07,684.53c-16.66,32.38-38.4,41.44-53.58,70.95l4.61,2.37c15.18-29.51,36.92-38.56,53.58-70.94"/>
          <polygon class="cls-1" points="107.6 772.68 127.87 768.96 171.98 744.11 150.94 749.63 107.6 772.68"/>
          <polygon class="cls-1" points="143.85 795.13 137.19 774 133.68 724.2 140.74 744.1 143.85 795.13"/>
          <rect class="cls-1" x="136.95" y="749.79" width="4.79" height="18.58" transform="translate(-594.55 520.32) rotate(-61.58)"/>
          <polygon class="cls-1" points="148.52 761.33 151.05 757.26 135.33 747.36 132.79 751.42 148.52 761.33"/>
          <polygon class="cls-1" points="130.2 756.79 127.67 760.87 143.39 770.77 145.93 766.7 130.2 756.79"/>
        </g>
        <g>
          <path class="cls-1" d="M168.04,674.73c15.66-30.44,36.84-38.4,54.03-71.81l4.61,2.37c-17.19,33.41-38.36,41.38-54.03,71.82"/>
          <path class="cls-1" d="M187.08,684.52c16.66-32.38,11.4-55.33,26.58-84.84l4.61,2.37c-15.18,29.51-9.91,52.46-26.57,84.84"/>
          <path class="cls-1" d="M251.43,512.66c-15.66,30.44-9.83,52.3-27.02,85.71l4.61,2.37c17.19-33.41,11.37-55.27,27.03-85.71"/>
          <path class="cls-1" d="M270.46,522.46c-16.66,32.38-38.39,41.44-53.58,70.95l4.61,2.37c15.18-29.51,36.92-38.56,53.58-70.94"/>
          <polygon class="cls-1" points="191 610.61 211.27 606.88 255.37 582.03 234.34 587.56 191 610.61"/>
          <polygon class="cls-1" points="227.24 633.06 220.58 611.93 217.08 562.13 224.14 582.03 227.24 633.06"/>
          <rect class="cls-1" x="220.35" y="587.72" width="4.8" height="18.58" transform="translate(-408.32 508.74) rotate(-61.58)"/>
          <polygon class="cls-1" points="231.91 599.26 234.45 595.19 218.73 585.28 216.19 589.35 231.91 599.26"/>
          <polygon class="cls-1" points="213.6 594.72 211.07 598.8 226.79 608.7 229.32 604.63 213.6 594.72"/>
        </g>
        <g>
          <path class="cls-1" d="M251.43,512.65c15.66-30.44,36.84-38.4,54.03-71.81l4.61,2.37c-17.19,33.41-38.36,41.38-54.03,71.82"/>
          <path class="cls-1" d="M270.47,522.45c16.66-32.38,11.4-55.33,26.58-84.84l4.61,2.37c-15.18,29.51-9.91,52.46-26.57,84.84"/>
          <path class="cls-1" d="M334.82,350.59c-15.66,30.44-9.83,52.3-27.02,85.71l4.61,2.37c17.19-33.41,11.37-55.27,27.03-85.71"/>
          <path class="cls-1" d="M353.86,360.39c-16.66,32.38-38.4,41.44-53.58,70.95l4.61,2.37c15.18-29.51,36.92-38.56,53.58-70.94"/>
          <polygon class="cls-1" points="274.39 448.53 294.66 444.81 338.77 419.96 317.73 425.49 274.39 448.53"/>
          <polygon class="cls-1" points="310.64 470.98 303.98 449.86 300.47 400.06 307.53 419.96 310.64 470.98"/>
          <rect class="cls-1" x="303.74" y="425.64" width="4.8" height="18.58" transform="translate(-222.08 497.15) rotate(-61.58)"/>
          <polygon class="cls-1" points="315.31 437.19 317.84 433.12 302.12 423.21 299.58 427.28 315.31 437.19"/>
          <polygon class="cls-1" points="296.99 432.65 294.46 436.72 310.18 446.63 312.71 442.56 296.99 432.65"/>
        </g>
        <g>
          <path class="cls-1" d="M334.83,350.58c15.66-30.44,36.84-38.4,54.03-71.81l4.61,2.37c-17.19,33.41-38.36,41.38-54.03,71.82"/>
          <path class="cls-1" d="M353.86,360.38c16.66-32.38,11.4-55.33,26.58-84.84l4.61,2.37c-15.18,29.51-9.91,52.46-26.57,84.84"/>
          <path class="cls-1" d="M418.22,188.52c-15.66,30.44-9.83,52.3-27.02,85.71l4.61,2.37c17.19-33.41,11.37-55.27,27.03-85.71"/>
          <path class="cls-1" d="M437.25,198.32c-16.66,32.38-38.4,41.44-53.58,70.95l4.61,2.37c15.18-29.51,36.92-38.56,53.58-70.94"/>
          <polygon class="cls-1" points="357.79 286.46 378.06 282.74 422.16 257.89 401.13 263.42 357.79 286.46"/>
          <polygon class="cls-1" points="394.03 308.91 387.37 287.79 383.87 237.99 390.92 257.88 394.03 308.91"/>
          <rect class="cls-1" x="387.14" y="263.57" width="4.79" height="18.58" transform="translate(-35.85 485.56) rotate(-61.58)"/>
          <polygon class="cls-1" points="398.7 275.11 401.23 271.04 385.52 261.14 382.98 265.21 398.7 275.11"/>
          <polygon class="cls-1" points="380.38 270.58 377.85 274.65 393.58 284.56 396.11 280.49 380.38 270.58"/>
        </g>
        <g>
          <path class="cls-1" d="M607.31,191.11c14.58,30.36,8.03,51.81,24.03,85.13l-4.68,2.25c-16-33.32-9.46-54.76-24.04-85.12"/>
          <path class="cls-1" d="M588.02,200.38c15.51,32.3,36.86,41.68,50.99,71.11l-4.68,2.25c-14.13-29.43-35.49-38.81-51-71.11"/>
          <path class="cls-1" d="M684.94,352.74c-14.58-30.36-35.41-38.66-51.42-71.98l-4.68,2.25c16,33.32,36.83,41.62,51.41,71.98"/>
          <path class="cls-1" d="M665.64,362.01c-15.51-32.3-9.49-54.83-23.62-84.26l-4.68,2.25c14.13,29.43,8.11,51.96,23.62,84.26"/>
          <polygon class="cls-1" points="644.11 247.13 634.76 265.35 627.66 314.9 636.05 295 644.11 247.13"/>
          <polygon class="cls-1" points="604.36 262.53 625.12 269.73 666.64 296.37 646.62 290.2 604.36 262.53"/>
          <rect class="cls-1" x="626.32" y="277.9" width="18.58" height="4.72" transform="translate(-59 288.04) rotate(-24.44)"/>
          <polygon class="cls-1" points="628.27 286.18 629.95 290.58 647.32 284 645.65 279.59 628.27 286.18"/>
          <polygon class="cls-1" points="642.97 274.37 641.28 269.97 623.91 276.55 625.59 280.95 642.97 274.37"/>
        </g>
        <g>
          <path class="cls-1" d="M684.94,352.75c14.58,30.36,8.03,51.81,24.03,85.13l-4.68,2.25c-16-33.32-9.46-54.76-24.04-85.12"/>
          <path class="cls-1" d="M665.64,362.02c15.51,32.3,36.86,41.68,50.99,71.11l-4.68,2.25c-14.13-29.43-35.49-38.81-51-71.11"/>
          <path class="cls-1" d="M762.56,514.38c-14.58-30.36-35.41-38.66-51.42-71.98l-4.68,2.25c16,33.32,36.83,41.62,51.41,71.98"/>
          <path class="cls-1" d="M743.27,523.65c-15.51-32.3-9.49-54.83-23.62-84.26l-4.68,2.25c14.13,29.43,8.11,51.96,23.62,84.26"/>
          <polygon class="cls-1" points="721.74 408.77 712.39 426.99 705.29 476.54 713.68 456.64 721.74 408.77"/>
          <polygon class="cls-1" points="681.99 424.17 702.75 431.37 744.27 458.01 724.25 451.84 681.99 424.17"/>
          <rect class="cls-1" x="703.95" y="439.54" width="18.58" height="4.72" transform="translate(-118.92 334.67) rotate(-24.44)"/>
          <polygon class="cls-1" points="705.9 447.82 707.58 452.22 724.95 445.64 723.27 441.23 705.9 447.82"/>
          <polygon class="cls-1" points="720.6 436.01 718.91 431.61 701.53 438.19 703.22 442.59 720.6 436.01"/>
        </g>
        <g>
          <path class="cls-1" d="M762.57,514.39c14.58,30.36,8.03,51.81,24.03,85.13l-4.68,2.25c-16-33.32-9.46-54.76-24.04-85.12"/>
          <path class="cls-1" d="M743.27,523.66c15.51,32.3,36.86,41.68,50.99,71.11l-4.68,2.25c-14.13-29.43-35.49-38.81-51-71.11"/>
          <path class="cls-1" d="M840.19,676.02c-14.58-30.36-35.41-38.66-51.42-71.98l-4.68,2.25c16,33.32,36.83,41.62,51.41,71.98"/>
          <path class="cls-1" d="M820.89,685.29c-15.51-32.3-9.49-54.83-23.62-84.26l-4.68,2.25c14.13,29.43,8.11,51.96,23.62,84.26"/>
          <polygon class="cls-1" points="799.37 570.41 790.02 588.63 782.92 638.18 791.31 618.28 799.37 570.41"/>
          <polygon class="cls-1" points="759.62 585.81 780.37 593.02 821.9 619.65 801.87 613.48 759.62 585.81"/>
          <rect class="cls-1" x="781.58" y="601.18" width="18.58" height="4.72" transform="translate(-178.83 381.25) rotate(-24.44)"/>
          <polygon class="cls-1" points="783.52 609.46 785.21 613.87 802.58 607.29 800.9 602.88 783.52 609.46"/>
          <polygon class="cls-1" points="798.23 597.65 796.54 593.25 779.16 599.83 780.85 604.24 798.23 597.65"/>
        </g>
        <g>
          <path class="cls-1" d="M840.2,676.03c14.58,30.36,8.03,51.81,24.03,85.13l-4.68,2.25c-16-33.32-9.46-54.76-24.04-85.12"/>
          <path class="cls-1" d="M820.9,685.3c15.51,32.3,36.86,41.68,50.99,71.11l-4.68,2.25c-14.13-29.43-35.49-38.81-51-71.11"/>
          <path class="cls-1" d="M917.82,837.66c-14.58-30.36-35.41-38.66-51.42-71.98l-4.68,2.25c16,33.32,36.83,41.62,51.41,71.98"/>
          <path class="cls-1" d="M898.52,846.93c-15.51-32.3-9.49-54.83-23.62-84.26l-4.68,2.25c14.13,29.43,8.11,51.96,23.62,84.26"/>
          <polygon class="cls-1" points="877 732.05 867.64 750.27 860.55 799.82 868.93 779.92 877 732.05"/>
          <polygon class="cls-1" points="837.25 747.45 858 754.66 899.53 781.29 879.5 775.12 837.25 747.45"/>
          <rect class="cls-1" x="859.21" y="762.82" width="18.58" height="4.72" transform="translate(-238.76 427.87) rotate(-24.44)"/>
          <polygon class="cls-1" points="861.15 771.1 862.84 775.51 880.21 768.93 878.53 764.52 861.15 771.1"/>
          <polygon class="cls-1" points="875.85 759.3 874.17 754.89 856.79 761.47 858.47 765.88 875.85 759.3"/>
        </g>
        <g>
          <path class="cls-1" d="M917.83,837.67c14.58,30.36,8.03,51.81,24.03,85.13l-4.68,2.25c-16-33.32-9.46-54.76-24.04-85.12"/>
          <path class="cls-1" d="M898.53,846.94c15.51,32.3,36.86,41.68,50.99,71.11l-4.68,2.25c-14.13-29.43-35.49-38.81-51-71.11"/>
          <path class="cls-1" d="M995.45,999.3c-14.58-30.36-35.41-38.66-51.42-71.98l-4.68,2.25c16,33.32,36.83,41.62,51.41,71.98"/>
          <path class="cls-1" d="M976.15,1008.57c-15.51-32.3-9.49-54.83-23.62-84.26l-4.68,2.25c14.13,29.43,8.11,51.96,23.62,84.26"/>
          <polygon class="cls-1" points="954.62 893.69 945.27 911.92 938.17 961.46 946.56 941.57 954.62 893.69"/>
          <polygon class="cls-1" points="914.87 909.09 935.63 916.3 977.15 942.93 957.13 936.77 914.87 909.09"/>
          <rect class="cls-1" x="936.83" y="924.47" width="18.58" height="4.72" transform="translate(-298.68 474.47) rotate(-24.44)"/>
          <polygon class="cls-1" points="938.78 932.74 940.46 937.15 957.84 930.57 956.16 926.16 938.78 932.74"/>
          <polygon class="cls-1" points="953.48 920.94 951.79 916.53 934.42 923.11 936.1 927.52 953.48 920.94"/>
        </g>
        <g>
          <path class="cls-1" d="M583.23,202.68c-.55-1.15-1.1-2.3-1.65-3.44-.54-1.15-1.07-2.3-1.61-3.44-.52-1.15-1.05-2.29-1.57-3.44-.51-1.15-1.02-2.29-1.53-3.43-.5-1.14-.99-2.28-1.49-3.42-.49-1.14-.97-2.28-1.45-3.41-.47-1.14-.94-2.27-1.41-3.4-.46-1.13-.92-2.26-1.37-3.38-.45-1.13-.89-2.25-1.34-3.37-.43-1.12-.87-2.24-1.3-3.35-.42-1.12-.84-2.23-1.26-3.33-.41-1.11-.82-2.21-1.23-3.31-.79-2.2-1.57-4.39-2.35-6.56-.74-2.17-1.48-4.33-2.21-6.46-.7-2.14-1.39-4.25-2.08-6.35-.65-2.1-1.3-4.17-1.94-6.23-.61-2.05-1.22-4.08-1.82-6.09-.57-2-1.14-3.98-1.69-5.94-.53-1.95-1.06-3.88-1.57-5.77-.49-1.89-.98-3.76-1.46-5.6-.46-1.83-.9-3.64-1.35-5.41-.42-1.77-.83-3.5-1.24-5.21-.39-1.7-.76-3.36-1.13-4.99-.35-1.62-.7-3.21-1.03-4.76-.32-1.55-.63-3.05-.94-4.52-.29-1.46-.57-2.89-.84-4.27-.26-1.38-.51-2.71-.75-4-.23-1.28-.45-2.53-.67-3.72-.2-1.19-.4-2.33-.59-3.43-.18-1.09-.35-2.13-.51-3.12-.3-1.97-.56-3.73-.8-5.27-.21-1.53-.39-2.83-.53-3.89-.25-2.1-.39-3.24-.39-3.24.14.83.28,1.66.42,2.5.15.84.31,1.69.46,2.54.17.86.33,1.72.5,2.58.18.87.36,1.74.53,2.62.19.88.38,1.77.57,2.65.2.89.4,1.79.6,2.69.43,1.81.86,3.62,1.3,5.46.47,1.84.94,3.69,1.42,5.56.51,1.87,1.01,3.75,1.52,5.63.54,1.89,1.08,3.79,1.62,5.69.57,1.91,1.13,3.82,1.7,5.73l1.77,5.76c.61,1.92,1.22,3.84,1.83,5.76.63,1.92,1.26,3.83,1.89,5.74.64,1.91,1.29,3.81,1.92,5.7.65,1.89,1.31,3.78,1.95,5.65.66,1.87,1.32,3.73,1.97,5.57.66,1.84,1.32,3.67,1.98,5.48.66,1.81,1.32,3.6,1.97,5.37,1.33,3.53,2.63,6.98,3.88,10.31,1.29,3.33,2.54,6.55,3.73,9.63,1.22,3.07,2.39,6.01,3.49,8.78,1.12,2.77,2.18,5.37,3.16,7.79,2,4.82,3.69,8.88,4.98,11.98,1.3,3.09,2.2,5.21,2.6,6.14"/>
          <path class="cls-1" d="M441.87,200.69c.25-.5.5-1.01.77-1.54.26-.53.53-1.08.8-1.65.53-1.14,1.09-2.33,1.68-3.59.57-1.26,1.16-2.58,1.78-3.95.6-1.38,1.22-2.81,1.86-4.29.63-1.48,1.28-3.01,1.94-4.58.65-1.58,1.32-3.19,2.01-4.85,1.34-3.32,2.73-6.79,4.17-10.37,1.4-3.58,2.85-7.28,4.32-11.04,1.44-3.76,2.9-7.6,4.38-11.45,1.45-3.86,2.9-7.74,4.35-11.6,1.43-3.86,2.85-7.71,4.25-11.49,2.75-7.57,5.4-14.88,7.84-21.6,2.39-6.72,4.58-12.84,6.42-18.02,3.63-10.35,5.93-16.92,5.93-16.92l-6.35,2.42c-.52,1.6-1.05,3.23-1.58,4.87-.55,1.64-1.1,3.31-1.66,4.98-1.15,3.36-2.33,6.78-3.52,10.24-1.23,3.47-2.48,6.97-3.73,10.5-1.29,3.53-2.59,7.08-3.89,10.63-1.33,3.55-2.66,7.1-3.99,10.64-1.35,3.53-2.69,7.04-4.02,10.51-1.35,3.47-2.68,6.89-3.99,10.25-1.33,3.36-2.63,6.66-3.9,9.87-2.59,6.42-5.03,12.5-7.28,18.07-2.29,5.56-4.37,10.62-6.17,14.99-1.83,4.36-3.38,8.05-4.57,10.88-1.22,2.82-2.07,4.78-2.47,5.73"/>
          <path class="cls-1" d="M607.31,191.11c-1.23-2.67-2.47-5.35-3.71-8.04-1.22-2.7-2.44-5.41-3.66-8.12-1.2-2.71-2.4-5.43-3.59-8.13-1.18-2.71-2.35-5.4-3.52-8.08-4.64-10.72-9.14-21.13-13.26-30.67-1.05-2.38-2.08-4.7-3.09-6.96-1.02-2.25-2.02-4.44-2.98-6.56-.49-1.05-.98-2.09-1.45-3.11-.48-1.01-.96-2.01-1.42-2.99-.47-.97-.94-1.92-1.4-2.86-.47-.93-.92-1.83-1.37-2.72-.46-.88-.9-1.74-1.34-2.58-.45-.83-.88-1.64-1.31-2.42-.44-.78-.86-1.53-1.28-2.26-.43-.72-.84-1.42-1.24-2.1-.21-.33-.41-.66-.61-.98-.2-.32-.4-.63-.6-.94-.2-.3-.4-.6-.59-.89-.2-.29-.39-.57-.59-.85-.2-.27-.39-.54-.58-.8-.19-.26-.38-.51-.57-.75-.19-.24-.38-.47-.56-.7-.19-.22-.37-.44-.55-.65l-4.45-1.57c.36.7.74,1.46,1.16,2.27.41.82.84,1.69,1.3,2.62.9,1.86,1.89,3.92,2.97,6.16,1.06,2.24,2.19,4.66,3.39,7.21,1.18,2.56,2.43,5.25,3.72,8.04,2.54,5.6,5.27,11.59,8.04,17.69,2.74,6.12,5.53,12.34,8.24,18.39,5.36,12.12,10.4,23.53,14.1,31.9,3.67,8.39,6.02,13.74,6.02,13.74"/>
          <path class="cls-1" d="M418.22,188.52s1.06-2.32,2.95-6.43c.96-2.05,2.12-4.55,3.46-7.43,1.36-2.88,2.9-6.13,4.59-9.71,1.71-3.56,3.57-7.44,5.55-11.57,2.01-4.12,4.15-8.48,6.37-13.03,2.26-4.53,4.62-9.25,7.03-14.09,1.22-2.41,2.47-4.85,3.72-7.31,1.27-2.46,2.54-4.93,3.83-7.43,1.3-2.48,2.6-4.98,3.91-7.49,1.33-2.5,2.66-5,3.98-7.5,1.35-2.49,2.69-4.98,4.04-7.46,1.36-2.47,2.72-4.93,4.07-7.37,1.37-2.43,2.73-4.84,4.08-7.23,1.37-2.37,2.73-4.72,4.07-7.04,1.37-2.3,2.72-4.56,4.05-6.79.68-1.11,1.35-2.2,2.01-3.29.67-1.08,1.34-2.15,2-3.21.67-1.05,1.33-2.09,1.98-3.12.66-1.02,1.32-2.03,1.96-3.03.65-.99,1.3-1.97,1.94-2.93.65-.95,1.29-1.9,1.92-2.83.64-.92,1.27-1.82,1.89-2.72.63-.88,1.25-1.75,1.86-2.6.62-.84,1.23-1.66,1.83-2.48.61-.79,1.21-1.58,1.8-2.35.6-.75,1.19-1.49,1.77-2.21.59-.7,1.16-1.39,1.73-2.07.29-.33.57-.65.85-.98.28-.32.56-.63.84-.94.28-.3.56-.6.83-.9.28-.29.55-.58.82-.86.27-.28.54-.55.81-.82.27-.26.53-.52.8-.78.26-.25.53-.49.78-.74.26-.23.52-.46.77-.69.26-.22.51-.44.76-.65.25-.2.5-.41.75-.61l.37-.29.09-.07.02-.02s.02,0,.02.01l.04.03.18.14c.24.19.47.38.71.57l10.02,16.62-.66-.79-.66-.76-.67-.74-.67-.72-.68-.69-.68-.67-.69-.65-.69-.62-.69-.6-.7-.58-.7-.55-.71-.53-.71-.51-.72-.49-.72-.47-.72-.45s-.02.01-.02.01l-.02.02-.05.04-.09.08-.19.17-.37.35-.75.71-.75.74-.76.76c-.5.53-1.01,1.06-1.52,1.6-.51.56-1.02,1.13-1.54,1.7-.51.59-1.03,1.19-1.55,1.79-.52.62-1.04,1.25-1.56,1.88-.52.65-1.05,1.31-1.58,1.97-.52.68-1.05,1.37-1.59,2.06-.53.71-1.06,1.42-1.6,2.15-.53.74-1.07,1.48-1.61,2.23-.54.76-1.08,1.53-1.62,2.31-.54.79-1.08,1.58-1.63,2.38-.54.81-1.09,1.63-1.64,2.46-.55.84-1.1,1.68-1.65,2.53-.55.86-1.1,1.72-1.66,2.6-.55.88-1.11,1.77-1.67,2.66-.55.9-1.11,1.81-1.67,2.73-.56.92-1.12,1.85-1.68,2.79-1.11,1.89-2.24,3.81-3.38,5.75-1.12,1.96-2.25,3.95-3.4,5.96-1.13,2.03-2.27,4.08-3.42,6.15-1.13,2.09-2.27,4.2-3.43,6.32-1.14,2.14-2.28,4.3-3.43,6.47-1.14,2.18-2.28,4.39-3.44,6.6-1.14,2.22-2.28,4.46-3.44,6.71-2.26,4.51-4.55,9.07-6.85,13.65-2.26,4.6-4.52,9.21-6.79,13.83-8.91,18.51-17.78,36.95-25.83,53.69"/>
          <polygon class="cls-1" points="560.87 28.22 547.8 46.65 535.17 115.99 547.17 93.96 560.87 28.22"/>
          <polygon class="cls-1" points="505.61 17.14 513.17 15.89 515.05 15.58 515.11 15.57 515.14 15.56 515.16 15.56 515.16 15.56 515.17 15.57 515.29 15.73 515.52 16.04 515.98 16.68 516.91 17.95 520.6 23.03 535.4 43.35 590.97 134.82 560.76 97.59 533.29 50.15 519.55 26.43 516.11 20.5 515.25 19.02 515.15 18.83 515.12 18.79 515.09 18.78 515.04 18.77 514.82 18.73 514.38 18.66 512.63 18.35 505.61 17.14"/>
          <polygon class="cls-1" points="535.8 63.39 537.92 72.11 559.67 77.9 557.55 69.19 535.8 63.39"/>
          <polygon class="cls-1" points="538.1 72.12 539.88 80.72 562.12 88.72 560.34 80.12 538.1 72.12"/>
          <polygon class="cls-1" points="557.39 69.23 555.61 60.63 533.37 52.62 535.14 61.23 557.39 69.23"/>
          <path class="cls-1" d="M539.24,28.68l-15.02-7.03-7.51-3.51-.94-.44-.47-.22-.12-.05h-.03s0-.02,0-.02h0s-.02.02-.02.02l-.06.06-.24.25-1.92,1.98-3.83,3.96-54.81,82.53,26.5-29.79,29.49-42.22,3.69-5.28.92-1.32.12-.16.03-.04h.03s.06,0,.06,0h.23s.45.04.45.04l1.81.1,7.22.38,14.44.77Z"/>
          <polygon class="cls-1" points="487.18 .45 496.91 25.55 504.25 97.21 494.09 74.36 487.18 .45"/>
          <polygon class="cls-1" points="485.67 47.61 482.99 56.33 504.34 53.03 507.01 44.31 485.67 47.61"/>
          <polygon class="cls-1" points="483.18 56.25 480.19 65 500.81 63.94 503.8 55.2 483.18 56.25"/>
          <polygon class="cls-1" points="506.8 44.44 509.8 35.69 489.17 36.76 486.18 45.5 506.8 44.44"/>
        </g>
      </g>
      <g>
        <g>
          <path class="cls-1" d="M350.93,372.32c22.14,23.8,21.86,45.8,46.16,71.93l-3.8,3.53c-24.3-26.12-24.03-48.12-46.16-71.92"/>
          <path class="cls-1" d="M335.26,386.9c23.55,25.32,46.3,27.49,67.76,50.56l-3.8,3.53c-21.46-23.07-44.22-25.24-67.77-50.56"/>
          <path class="cls-1" d="M468.48,498.7c-.28-.29-.55-.58-.82-.87-.32-.32-.63-.64-.94-.96-.69-.7-1.38-1.38-2.07-2.04-1.38-1.32-2.77-2.57-4.15-3.75-2.77-2.36-5.54-4.47-8.31-6.41-5.55-3.88-11.13-7.09-16.78-10.38-11.3-6.57-22.86-13.43-35.01-26.49l-3.8,3.53c12.15,13.06,23.71,19.92,35.01,26.49,5.65,3.29,11.23,6.5,16.78,10.38,2.78,1.94,5.54,4.05,8.31,6.41,1.38,1.18,2.77,2.43,4.15,3.75.69.66,1.38,1.34,2.07,2.04.32.33.64.66.97.99.29.31.59.62.89.94"/>
          <path class="cls-1" d="M453.17,513.68c-1.55-1.67-2.91-3.21-4.21-4.78-1.3-1.56-2.53-3.12-3.68-4.67-2.31-3.09-4.35-6.15-6.19-9.18-3.7-6.06-6.64-12.01-9.52-17.89-5.76-11.76-11.25-23.24-21.98-34.78l-3.8,3.53c10.73,11.54,16.22,23.02,21.98,34.78,2.88,5.88,5.82,11.83,9.52,17.9,1.85,3.03,3.88,6.09,6.19,9.18,1.15,1.55,2.38,3.1,3.68,4.67,1.31,1.58,2.63,3.08,4.3,4.88"/>
          <polygon class="cls-1" points="401.13 413.19 397.31 433.05 404.26 481.41 406.7 460.29 401.13 413.19"/>
          <polygon class="cls-1" points="367.82 439.79 389.41 440.11 435.98 452.14 415.36 452.56 367.82 439.79"/>
          <polygon class="cls-1" points="393.78 451.17 396.81 454.57 410.67 442.2 407.64 438.79 393.78 451.17"/>
          <polygon class="cls-1" points="396.92 454.46 399.72 458.05 414.32 446.57 411.52 442.97 396.92 454.46"/>
          <polygon class="cls-1" points="407.55 438.93 404.74 435.35 390.14 446.83 392.95 450.42 407.55 438.93"/>
        </g>
        <g>
          <path class="cls-1" d="M468.48,498.71c4.38,4.71,7.57,9.53,10.5,14.77,2.92,5.23,5.56,10.85,8.55,16.86,2.99,6,6.33,12.39,10.48,18.93,4.13,6.53,9.09,13.26,14.97,19.58l-.28,6.53c-6.21-6.39-11.52-13.06-15.95-19.85-4.43-6.85-8.03-13.51-11.27-19.78-3.25-6.28-6.14-12.17-9.32-17.69-3.2-5.53-6.68-10.66-11.38-15.72"/>
          <path class="cls-1" d="M453.18,513.69c6.12,6.58,12.09,11.6,17.63,15.47,5.55,3.88,10.69,6.62,15.47,8.97,4.79,2.36,9.21,4.33,13.53,6.89,4.33,2.57,8.54,5.7,13.16,10.67l-.35,7.24c-4.95-5.32-9.43-8.75-14.03-11.6-4.58-2.84-9.26-5.08-14.3-7.71-5.03-2.62-10.43-5.64-16.27-9.82-5.82-4.17-12.1-9.52-18.57-16.48"/>
          <path class="cls-1" d="M560.7,507.43c-4.11,4.95-7.15,10.1-9.98,15.74-2.82,5.62-5.4,11.71-8.31,18.19-2.91,6.48-6.15,13.36-10.12,20.37-1.98,3.5-4.14,7.03-6.5,10.53-.61.85-1.12,1.82-1.95,2.46-.81.65-1.82,1-2.82.97-1-.01-1.97-.44-2.69-1.15-.71-.72-1.43-1.47-2.17-2.26l-.1,6.58c.77.78,1.53,1.55,2.28,2.31.76.73,1.77,1.19,2.83,1.22,1.05.06,2.12-.26,2.97-.88.87-.62,1.42-1.56,2.07-2.39,2.51-3.41,4.83-6.8,6.96-10.34,4.23-7.33,7.72-14.5,10.86-21.26,3.15-6.77,5.97-13.14,9.03-19.06,3.08-5.94,6.39-11.42,10.8-16.74"/>
          <path class="cls-1" d="M573.85,525.1c-5.74,6.91-11.28,12.11-16.4,16.05-5.13,3.95-9.84,6.66-14.22,8.96-4.38,2.31-8.43,4.21-12.4,6.77-1.99,1.28-3.96,2.73-5.97,4.5-.51.44-.97.95-1.67,1.25-.68.29-1.49.39-2.3.26-.81-.13-1.61-.5-2.24-1.08-.61-.6-1.15-1.27-1.74-1.88l-.08,7.53c.63.65,1.2,1.37,1.86,2.01.68.61,1.53,1,2.4,1.14.87.14,1.73.02,2.46-.3.74-.32,1.24-.88,1.78-1.36,2.15-1.94,4.25-3.54,6.36-4.97,4.21-2.88,8.51-4.98,13.1-7.7,4.58-2.67,9.59-5.51,14.97-9.79,5.38-4.25,11.21-9.8,17.28-17.11"/>
          <path class="cls-1" d="M505.03,524.9c.7,8.74,1.91,18.03,3.62,27.85,1.71,5.25,3.61,10.7,5.69,16.34,1.04,2.82,2.12,5.69,3.25,8.61.29.79.56,1.31.86,1.92.29.6.64,1.13,1.01,1.63.75.98,1.62,1.75,2.49,2.29.87.54,1.75.86,2.49.98.76.14,1.3.05,1.91.06,1.2-.01,2.46,0,3.75.04,1.3.04,2.62.14,4,.23,1.39.08,2.83.18,4.31.3-4.46-2.75-8.27-5.34-11.62-7.39l-.83.02c-.28-.05-.56-.22-.83-.33-.54-.23-1.23-.62-1.98-1.2-1.51-1.15-3.25-3.17-4.4-5.84-2.1-5.56-3.92-11.03-5.63-16.27-3.39-10.49-6.08-20.23-8.07-29.23Z"/>
          <path class="cls-1" d="M493.48,573.7c5.26-2.29,9.79-4.73,13.72-6.95,2.57-.41,4.96-1.01,7.18-1.78,1.11-.39,2.18-.82,3.21-1.3.52-.25.99-.45,1.63-.89.63-.43,1.35-1.07,2.04-1.9.69-.84,1.36-1.87,1.9-3.07.55-1.19.9-2.58,1.3-3.88.78-2.63,1.52-5.21,2.22-7.75,1.4-5.07,2.64-9.94,3.72-14.63-1.02,9.26-2.56,19.15-4.61,29.65l-1.33,4.16c-.43,1.42-1.06,2.69-1.78,3.77-1.45,2.16-3.25,3.34-4.37,3.71-1.13.39-2.29.73-3.51,1.02l-.92.21c-.31,0-.61-.05-.93-.07-.62-.05-1.25-.09-1.89-.12-5.12-.28-10.91-.02-17.59-.18Z"/>
          <polygon class="cls-1" points="514.61 579.46 517.82 582.76 517.97 571.19 518.08 557.68 515.49 554.75 515.05 567.91 514.61 579.46"/>
          <path class="cls-1" d="M517.82,582.59c.52.6,1.06,1.21,1.77,1.59.7.4,1.48.63,2.26.68l.25-4.69.14-6.94c.08-4.62.13-9.28.15-13.93-1.2.26-2.62-.13-3.62-1.11l-.45,13.2-.25,6.53-.07,1.32-.07,1.11-.14,2.23Z"/>
          <polygon class="cls-1" points="515.51 555 512.95 551.68 511.81 564.04 511.2 570.18 510.91 572.77 510.62 575.16 513.81 578.78 514.24 574.03 514.69 567.71 515.51 555"/>
        </g>
        <g>
          <path class="cls-1" d="M560.7,507.42c2.06-2.48,4.13-4.61,6.27-6.53,1.07-.96,2.15-1.88,3.26-2.75.56-.43,1.12-.86,1.67-1.29l.85-.63.43-.31.5-.39c5.32-4.19,10.71-7.71,16.17-11.31,10.91-7.2,22.06-14.7,33.45-28.43l3.99,3.31c-11.39,13.73-22.55,21.23-33.45,28.43-5.45,3.6-10.84,7.12-16.16,11.31-4.92,3.7-9.33,7.53-13.77,12.88"/>
          <path class="cls-1" d="M573.86,525.09c5.73-6.91,10.13-13.69,13.47-19.95,3.35-6.26,5.95-12.37,8.49-18.41,5.08-12.07,9.92-23.84,19.98-35.97l3.99,3.31c-10.06,12.12-14.89,23.9-19.97,35.97-2.54,6.03-5.14,12.14-8.49,18.41-.8,1.52-1.8,3.23-2.84,4.94-1.04,1.71-2.15,3.44-3.34,5.2-2.38,3.52-5.06,7.13-8.09,10.78"/>
          <path class="cls-1" d="M668.39,377.62c-20.75,25.02-19.23,46.97-42.01,74.42l3.99,3.31c22.78-27.45,21.26-49.4,42.02-74.42"/>
          <path class="cls-1" d="M684.87,391.29c-22.08,26.61-44.67,30.07-64.79,54.32l3.99,3.31c20.12-24.25,42.72-27.7,64.8-54.31"/>
          <polygon class="cls-1" points="591.97 455.77 612.16 457 659.22 443.88 637.95 444.18 591.97 455.77"/>
          <polygon class="cls-1" points="622.62 485.38 620.17 463.92 626.11 416.2 629.18 436.59 622.62 485.38"/>
          <polygon class="cls-1" points="630.58 458.16 633.56 454.73 619.5 442.58 616.52 446.02 630.58 458.16"/>
          <polygon class="cls-1" points="633.43 454.63 636.63 451.39 623.37 438.39 620.16 441.63 633.43 454.63"/>
          <polygon class="cls-1" points="616.67 446.08 613.47 449.33 626.74 462.33 629.94 459.09 616.67 446.08"/>
        </g>
      </g>
      <g>
        <path class="cls-1" d="M65.69,705.4c21.18,32.39,18.84,56.57,42.09,92.12l-4.34,2.84c-23.24-35.55-20.91-59.72-42.09-92.12"/>
        <path class="cls-1" d="M47.77,717.11c22.53,34.46,46.37,43.18,66.9,74.57l-4.34,2.84c-20.53-31.4-44.37-40.11-66.9-74.57"/>
        <path class="cls-1" d="M178.44,877.84c-21.18-32.39-44.27-39.95-67.51-75.5l-4.34,2.84c23.24,35.55,46.32,43.11,67.5,75.5"/>
        <path class="cls-1" d="M160.52,889.56c-22.53-34.46-20.96-59.79-41.49-91.19l-4.34,2.84c20.53,31.4,18.95,56.74,41.48,91.19"/>
        <polygon class="cls-1" points="114.92 764.4 109.05 785.24 111.89 840.48 116.44 817.87 114.92 764.4"/>
        <polygon class="cls-1" points="77.26 784.46 100.05 790.82 148.13 817.02 126.3 811.76 77.26 784.46"/>
        <polygon class="cls-1" points="103.63 804.23 106.52 808.82 122.31 799.03 119.43 794.44 103.63 804.23"/>
        <polygon class="cls-1" points="106.64 808.73 109.27 813.46 125.76 804.86 123.14 800.12 106.64 808.73"/>
        <polygon class="cls-1" points="119.32 794.56 116.69 789.83 100.19 798.43 102.82 803.17 119.32 794.56"/>
      </g>
      <g>
        <g>
          <path class="cls-1" d="M563.57,340.56c-.03,9.16-2.92,17.05-7.01,23.12-4.14,6.1-9.41,10.49-14.97,13.76-5.6,3.27-11.51,5.47-17.74,7.08-6.26,1.59-12.84,2.62-20.42,2.98l-.23-5.18c6.75-.32,12.61-1.12,18.28-2.41,5.65-1.31,11.09-3.13,16.28-5.97,5.17-2.84,10.12-6.74,14.01-12.26,3.85-5.48,6.58-12.7,6.61-21.11"/>
          <path class="cls-1" d="M542.16,340.56c-.06,6.4-.5,12.04-1.41,17.61-.94,5.53-2.34,11.03-4.87,16.27-2.51,5.22-6.09,10.28-11.23,14.36-5.11,4.06-11.9,7.11-19.9,7.59l-.31-5.18c7.27-.43,13.41-3.3,17.96-7.08,4.59-3.81,7.69-8.52,9.79-13.32,2.12-4.82,3.16-9.83,3.83-14.76.64-4.97.9-9.89.95-15.49"/>
          <path class="cls-1" d="M439.13,340.57c.03,9.16,2.92,17.05,7.02,23.11,4.14,6.09,9.41,10.48,14.98,13.75,5.6,3.27,11.51,5.47,17.75,7.08,6.26,1.59,12.84,2.62,20.42,2.97l.22-5.18c-6.75-.31-12.61-1.12-18.28-2.41-5.65-1.31-11.09-3.13-16.29-5.97-5.17-2.84-10.12-6.74-14.01-12.25-3.85-5.48-6.58-12.7-6.61-21.11"/>
          <path class="cls-1" d="M460.54,340.57c.06,6.4.5,12.04,1.41,17.61.94,5.53,2.34,11.03,4.87,16.27,2.51,5.22,6.09,10.28,11.24,14.36,5.11,4.06,11.9,7.11,19.91,7.59l.31-5.18c-7.27-.43-13.41-3.29-17.96-7.08-4.59-3.81-7.69-8.52-9.79-13.32-2.12-4.82-3.16-9.83-3.83-14.76-.64-4.97-.9-9.89-.96-15.49"/>
          <path class="cls-1" d="M529.52,405.88c-3.45-1.51-6.7-3.26-9.65-5.12-3-2.03-5.72-4.07-8.17-6.38-7.42-3.26-13.35-8.15-17.43-13.58-4.1-5.44-6.3-11.46-6.71-17.11-.46,2.97-.49,5.84-.27,8.97.1,1.58.36,3.02.65,4.59.31,1.52.67,3.18,1.17,4.67,3.45,5.96,8.79,11.35,15.64,15.63,6.85,4.27,15.33,7.31,24.78,8.33Z"/>
          <path class="cls-1" d="M514.17,366.13c0,1.43-.07,2.93-.23,4.44-.19,1.44-.46,2.92-.81,4.43-.18.75-.36,1.55-.6,2.27-.23.73-.48,1.46-.76,2.2-.55,1.46-1.17,3.03-1.91,4.47-4.49,5.32-10.75,9.83-18.4,12.89-7.64,3.05-16.69,4.51-26.28,3.76,3.78-.62,7.48-1.74,10.86-2.97,1.68-.58,3.37-1.4,4.95-2.16,1.6-.8,3.1-1.56,4.56-2.49,1.99-.61,3.87-1.22,5.67-1.94,1.82-.81,3.54-1.65,5.15-2.51,1.63-.99,3.16-2.01,4.58-3.03,1.43-1.09,2.75-2.3,3.97-3.43,4.88-4.8,7.97-10.44,9.22-15.94Z"/>
          <path class="cls-1" d="M501.06,380.44l-3.29-.27c-.64,6.16-1.32,12.32-2.04,18.48,1.6.13,3.2.25,4.8.35.22-6.19.39-12.37.52-18.56Z"/>
          <path class="cls-1" d="M497.77,380.33c-1.08-.19-2.14-.57-3.19-.83-1.41,6.03-2.99,12.02-4.74,17.98,1.55.39,3.11.76,4.68,1.12,1.25-6.04,2.33-12.13,3.25-18.27Z"/>
          <path class="cls-1" d="M500.5,398.84c.8.12,1.6.13,2.4.16l2.41.07c.13-6.19.09-12.36-.12-18.52l-3.31-.22c-.29,6.21-.75,12.37-1.38,18.51Z"/>
        </g>
        <g>
          <path class="cls-1" d="M439.13,340.56c.03-9.16,2.92-17.05,7.01-23.12,4.14-6.1,9.41-10.49,14.97-13.76,5.6-3.27,11.51-5.47,17.74-7.08,6.26-1.59,12.84-2.62,20.42-2.98l.23,5.18c-6.75.32-12.61,1.12-18.28,2.41-5.65,1.31-11.09,3.13-16.28,5.97-5.17,2.84-10.12,6.74-14.01,12.26-3.85,5.48-6.58,12.7-6.61,21.11"/>
          <path class="cls-1" d="M460.54,340.56c.06-6.4.5-12.04,1.41-17.61.94-5.53,2.34-11.03,4.87-16.27,2.51-5.22,6.09-10.28,11.23-14.36,5.11-4.06,11.9-7.11,19.9-7.59l.31,5.18c-7.27.43-13.41,3.3-17.96,7.08-4.59,3.81-7.69,8.52-9.79,13.32-2.12,4.82-3.16,9.83-3.83,14.76-.64,4.97-.9,9.89-.95,15.49"/>
          <path class="cls-1" d="M563.57,340.55c-.03-9.16-2.92-17.05-7.02-23.11-4.14-6.09-9.41-10.48-14.98-13.76-5.6-3.27-11.51-5.47-17.75-7.08-6.26-1.59-12.84-2.62-20.42-2.97l-.22,5.18c6.75.31,12.61,1.12,18.28,2.41,5.65,1.31,11.09,3.13,16.29,5.97,5.17,2.84,10.12,6.74,14.01,12.25,3.85,5.48,6.58,12.7,6.61,21.11"/>
          <path class="cls-1" d="M542.16,340.55c-.06-6.4-.5-12.04-1.41-17.61-.94-5.53-2.34-11.03-4.87-16.27-2.51-5.22-6.09-10.28-11.24-14.36-5.11-4.06-11.9-7.11-19.91-7.59l-.31,5.18c7.27.43,13.41,3.29,17.96,7.08,4.59,3.81,7.69,8.52,9.79,13.32,2.12,4.82,3.16,9.83,3.83,14.76.64,4.97.9,9.89.96,15.49"/>
          <path class="cls-1" d="M473.17,275.24c3.45,1.51,6.7,3.26,9.65,5.12,3,2.03,5.72,4.07,8.17,6.38,7.42,3.26,13.35,8.15,17.43,13.58,4.1,5.44,6.3,11.46,6.71,17.11.46-2.97.49-5.84.27-8.97-.1-1.58-.36-3.02-.65-4.59-.31-1.52-.67-3.18-1.17-4.67-3.45-5.96-8.79-11.35-15.64-15.63-6.85-4.27-15.33-7.31-24.78-8.33Z"/>
          <path class="cls-1" d="M488.52,314.99c0-1.43.07-2.93.23-4.44.19-1.44.46-2.92.81-4.43.18-.75.36-1.55.6-2.27.23-.73.48-1.46.76-2.2.55-1.46,1.17-3.03,1.91-4.47,4.49-5.32,10.75-9.83,18.4-12.89,7.64-3.05,16.69-4.51,26.28-3.76-3.78.62-7.48,1.74-10.86,2.97-1.68.58-3.37,1.4-4.95,2.16-1.6.8-3.1,1.56-4.56,2.49-1.99.61-3.87,1.22-5.67,1.94-1.82.81-3.54,1.65-5.15,2.51-1.63.99-3.16,2.01-4.58,3.03-1.43,1.09-2.75,2.3-3.97,3.43-4.88,4.8-7.97,10.44-9.22,15.94Z"/>
          <path class="cls-1" d="M501.63,300.68l3.29.27c.64-6.16,1.32-12.32,2.04-18.48-1.6-.13-3.2-.25-4.8-.35-.22,6.19-.39,12.37-.52,18.56Z"/>
          <path class="cls-1" d="M504.92,300.79c1.08.19,2.14.57,3.19.83,1.41-6.02,2.99-12.02,4.74-17.98-1.55-.39-3.11-.76-4.68-1.12-1.25,6.04-2.33,12.13-3.25,18.27Z"/>
          <path class="cls-1" d="M502.2,282.28c-.8-.12-1.6-.13-2.4-.16l-2.41-.07c-.13,6.19-.09,12.36.12,18.52l3.31.22c.29-6.21.75-12.37,1.38-18.51Z"/>
        </g>
      </g>
    </g>
  </g>
</svg>