<?xml version="1.0" encoding="UTF-8"?>
<svg id="Layer_2" data-name="Layer 2" xmlns="http://www.w3.org/2000/svg" viewBox="0 0 46.18 669.1">
  <defs>
    <style>
      .cls-1 {
        fill: #bfbfbf;
        stroke: #000;
        stroke-linecap: round;
        stroke-width: 2.5px;
      }
    </style>
  </defs>
  <g id="Layer_2-2" data-name="Layer 2">
    <g>
      <g>
        <path class="cls-1" d="M36.26,1.25c0,31.3-15.19,46.63-15.19,80.99h-5.19c0-34.35,15.18-49.69,15.18-80.99"/>
        <path class="cls-1" d="M14.85,1.25c0,33.3,15.18,49.75,15.18,80.09h-5.19c0-30.34-15.19-46.8-15.19-80.09"/>
        <path class="cls-1" d="M36.26,167.89c0-31.3-15.19-46.64-15.19-80.99h-5.19c0,34.35,15.18,49.69,15.18,80.99"/>
        <path class="cls-1" d="M14.85,167.89c0-33.3,15.18-49.75,15.18-80.09h-5.19c0,30.34-15.19,46.8-15.19,80.09"/>
        <polygon class="cls-1" points="45.18 62.99 28.86 74.49 1.01 113.14 17.19 99.85 45.18 62.99"/>
        <polygon class="cls-1" points="2.68 59.9 18.27 74.28 44.17 113.31 28.79 100.08 2.68 59.9"/>
        <polygon class="cls-1" points="13.94 84.95 13.84 89.34 32.41 89.69 32.51 85.31 13.94 84.95"/>
        <polygon class="cls-1" points="13.99 89.33 13.6 93.7 32.11 95.17 32.51 90.8 13.99 89.33"/>
        <polygon class="cls-1" points="32.36 85.35 32.74 80.98 14.23 79.5 13.84 83.87 32.36 85.35"/>
      </g>
      <g>
        <path class="cls-1" d="M36.26,167.9c0,31.3-15.19,46.63-15.19,80.99h-5.19c0-34.35,15.18-49.69,15.18-80.99"/>
        <path class="cls-1" d="M14.85,167.9c0,33.3,15.18,49.75,15.18,80.09h-5.19c0-30.34-15.19-46.8-15.19-80.09"/>
        <path class="cls-1" d="M36.26,334.55c0-31.3-15.19-46.64-15.19-80.99h-5.19c0,34.35,15.18,49.69,15.18,80.99"/>
        <path class="cls-1" d="M14.85,334.55c0-33.3,15.18-49.75,15.18-80.09h-5.19c0,30.34-15.19,46.8-15.19,80.09"/>
        <polygon class="cls-1" points="45.18 229.64 28.86 241.14 1.01 279.8 17.19 266.5 45.18 229.64"/>
        <polygon class="cls-1" points="2.68 226.55 18.27 240.94 44.17 279.96 28.79 266.73 2.68 226.55"/>
        <polygon class="cls-1" points="13.94 251.61 13.84 255.99 32.41 256.35 32.51 251.96 13.94 251.61"/>
        <polygon class="cls-1" points="13.99 255.98 13.6 260.35 32.11 261.83 32.51 257.46 13.99 255.98"/>
        <polygon class="cls-1" points="32.36 252.01 32.74 247.63 14.23 246.16 13.84 250.53 32.36 252.01"/>
      </g>
      <g>
        <path class="cls-1" d="M36.26,334.56c0,31.3-15.19,46.63-15.19,80.99h-5.19c0-34.35,15.18-49.69,15.18-80.99"/>
        <path class="cls-1" d="M14.85,334.56c0,33.3,15.18,49.75,15.18,80.09h-5.19c0-30.34-15.19-46.8-15.19-80.09"/>
        <path class="cls-1" d="M36.26,501.2c0-31.3-15.19-46.64-15.19-80.99h-5.19c0,34.35,15.18,49.69,15.18,80.99"/>
        <path class="cls-1" d="M14.85,501.2c0-33.3,15.18-49.75,15.18-80.09h-5.19c0,30.34-15.19,46.8-15.19,80.09"/>
        <polygon class="cls-1" points="45.18 396.29 28.86 407.8 1.01 446.45 17.19 433.16 45.18 396.29"/>
        <polygon class="cls-1" points="2.68 393.2 18.27 407.59 44.17 446.61 28.79 433.39 2.68 393.2"/>
        <polygon class="cls-1" points="13.94 418.26 13.84 422.64 32.41 423 32.51 418.62 13.94 418.26"/>
        <polygon class="cls-1" points="13.99 422.63 13.6 427 32.11 428.48 32.51 424.11 13.99 422.63"/>
        <polygon class="cls-1" points="32.36 418.66 32.74 414.29 14.23 412.81 13.84 417.18 32.36 418.66"/>
      </g>
      <g>
        <path class="cls-1" d="M36.26,501.21c0,31.3-15.19,46.63-15.19,80.99h-5.19c0-34.35,15.18-49.69,15.18-80.99"/>
        <path class="cls-1" d="M14.85,501.21c0,33.3,15.18,49.75,15.18,80.09h-5.19c0-30.34-15.19-46.8-15.19-80.09"/>
        <path class="cls-1" d="M36.26,667.85c0-31.3-15.19-46.64-15.19-80.99h-5.19c0,34.35,15.18,49.69,15.18,80.99"/>
        <path class="cls-1" d="M14.85,667.85c0-33.3,15.18-49.75,15.18-80.09h-5.19c0,30.34-15.19,46.8-15.19,80.09"/>
        <polygon class="cls-1" points="45.18 562.95 28.86 574.45 1.01 613.11 17.19 599.81 45.18 562.95"/>
        <polygon class="cls-1" points="2.68 559.86 18.27 574.25 44.17 613.27 28.79 600.04 2.68 559.86"/>
        <polygon class="cls-1" points="13.94 584.91 13.84 589.3 32.41 589.66 32.51 585.27 13.94 584.91"/>
        <polygon class="cls-1" points="13.99 589.29 13.6 593.66 32.11 595.13 32.51 590.76 13.99 589.29"/>
        <polygon class="cls-1" points="32.36 585.31 32.74 580.94 14.23 579.47 13.84 583.84 32.36 585.31"/>
      </g>
    </g>
  </g>
</svg>