<?xml version="1.0" encoding="UTF-8"?>
<svg id="Layer_2" data-name="Layer 2" xmlns="http://www.w3.org/2000/svg" viewBox="0 0 848.74 691.83">
  <defs>
    <style>
      .cls-1 {
        fill: #bfbfbf;
        stroke: #000;
        stroke-linecap: round;
        stroke-width: 2.5px;
      }
    </style>
  </defs>
  <g id="Layer_2-2" data-name="Layer 2">
    <g>
      <g>
        <g>
          <g>
            <path class="cls-1" d="M23.74,10.58c17.38,27.49,13.06,49.08,32.14,79.25l-4.39,2.77c-19.08-30.18-14.76-51.76-32.15-79.25"/>
            <path class="cls-1" d="M5.64,22.02c18.49,29.25,40.46,35.59,57.31,62.24l-4.39,2.77C41.72,60.38,19.74,54.05,1.25,24.8"/>
            <path class="cls-1" d="M116.28,156.95c-17.38-27.49-38.74-32.85-57.82-63.02l-4.39,2.77c19.08,30.17,40.43,35.53,57.81,63.02"/>
            <path class="cls-1" d="M98.19,168.39c-18.49-29.25-14.8-51.81-31.65-78.46l-4.39,2.77c16.85,26.65,13.15,49.22,31.64,78.47"/>
            <polygon class="cls-1" points="65.56 60.04 58.16 78.87 56.09 127.7 62.38 107.38 65.56 60.04"/>
            <polygon class="cls-1" points="27.92 80.04 49.09 84.34 92.66 104.78 72.31 101.38 27.92 80.04"/>
            <polygon class="cls-1" points="51.35 96.03 53.7 99.93 69.6 90.32 67.25 86.42 51.35 96.03"/>
            <polygon class="cls-1" points="53.83 99.84 55.93 103.89 72.39 95.29 70.3 91.24 53.83 99.84"/>
            <polygon class="cls-1" points="67.15 86.54 65.04 82.49 48.58 91.09 50.67 95.13 67.15 86.54"/>
          </g>
          <g>
            <path class="cls-1" d="M116.29,156.96c17.38,27.49,13.06,49.08,32.14,79.25l-4.39,2.77c-19.08-30.18-14.76-51.76-32.15-79.25"/>
            <path class="cls-1" d="M98.2,168.4c18.49,29.25,40.46,35.59,57.31,62.24l-4.39,2.77c-16.85-26.65-38.83-32.99-57.32-62.23"/>
            <path class="cls-1" d="M208.84,303.33c-17.38-27.49-38.74-32.85-57.82-63.02l-4.39,2.77c19.08,30.17,40.43,35.53,57.81,63.02"/>
            <path class="cls-1" d="M190.74,314.77c-18.49-29.25-14.8-51.81-31.65-78.46l-4.39,2.77c16.85,26.65,13.15,49.22,31.64,78.47"/>
            <polygon class="cls-1" points="158.12 206.42 150.71 225.25 148.64 274.08 154.93 253.76 158.12 206.42"/>
            <polygon class="cls-1" points="120.48 226.42 141.65 230.72 185.21 251.16 164.87 247.76 120.48 226.42"/>
            <polygon class="cls-1" points="143.91 242.41 146.26 246.31 162.16 236.7 159.81 232.8 143.91 242.41"/>
            <polygon class="cls-1" points="146.38 246.22 148.48 250.27 164.95 241.67 162.85 237.63 146.38 246.22"/>
            <polygon class="cls-1" points="159.7 232.92 157.6 228.87 141.13 237.47 143.23 241.51 159.7 232.92"/>
          </g>
          <g>
            <path class="cls-1" d="M208.85,303.34c17.38,27.49,13.06,49.08,32.14,79.25l-4.39,2.77c-19.08-30.18-14.76-51.76-32.15-79.25"/>
            <path class="cls-1" d="M190.75,314.78c18.49,29.25,40.46,35.59,57.31,62.24l-4.39,2.77c-16.85-26.65-38.83-32.99-57.32-62.23"/>
            <path class="cls-1" d="M301.39,449.71c-17.38-27.49-38.74-32.85-57.82-63.02l-4.39,2.77c19.08,30.17,40.43,35.53,57.81,63.02"/>
            <path class="cls-1" d="M283.3,461.15c-18.49-29.25-14.8-51.81-31.65-78.46l-4.39,2.77c16.85,26.65,13.15,49.22,31.64,78.47"/>
            <polygon class="cls-1" points="250.67 352.8 243.27 371.63 241.2 420.46 247.48 400.14 250.67 352.8"/>
            <polygon class="cls-1" points="213.03 372.8 234.2 377.1 277.77 397.54 257.42 394.14 213.03 372.8"/>
            <polygon class="cls-1" points="236.46 388.79 238.81 392.7 254.71 383.08 252.36 379.18 236.46 388.79"/>
            <polygon class="cls-1" points="238.94 392.6 241.04 396.65 257.5 388.06 255.41 384.01 238.94 392.6"/>
            <polygon class="cls-1" points="252.25 379.3 250.15 375.25 233.68 383.85 235.78 387.9 252.25 379.3"/>
          </g>
          <g>
            <path class="cls-1" d="M301.4,449.72c17.38,27.49,13.06,49.08,32.14,79.25l-4.39,2.77c-19.08-30.18-14.76-51.76-32.15-79.25"/>
            <path class="cls-1" d="M283.3,461.16c18.49,29.25,40.46,35.59,57.31,62.24l-4.39,2.77c-16.85-26.65-38.83-32.99-57.32-62.23"/>
            <path class="cls-1" d="M389.21,588.6c-3.44-5.44-7.03-9.34-10.96-12.9-3.92-3.54-8.17-6.7-12.7-10.31-.58-.47-1.11-.86-1.74-1.41-.62-.54-1.24-1.08-1.86-1.62-1.24-1.09-2.49-2.2-3.73-3.33-2.49-2.27-4.98-4.65-7.46-7.24-4.96-5.17-9.87-11.17-14.64-18.71l-4.39,2.77c4.77,7.54,9.68,13.54,14.64,18.71,2.48,2.59,4.97,4.97,7.45,7.24,1.24,1.14,2.49,2.24,3.73,3.33,1.24,1.09,2.49,2.18,3.66,3.13,4.72,3.92,9.17,7.4,13.3,11.27,4.14,3.89,7.96,8.15,11.66,14"/>
            <path class="cls-1" d="M376.71,608.9c-4.8-7.6-8.41-15.07-11.13-22.04-2.73-6.98-4.59-13.48-6.17-19.53-3.49-12.63-6.78-24.93-15.21-38.26l-4.38,2.77c8.43,13.33,11.71,25.63,15.21,38.26,1.78,6.36,3.84,13.18,6.79,20.52,2.94,7.32,6.78,15.17,11.86,23.2"/>
            <polygon class="cls-1" points="343.23 499.18 335.82 518.01 333.75 566.84 340.04 546.52 343.23 499.18"/>
            <polygon class="cls-1" points="305.59 519.18 326.76 523.49 370.32 543.92 349.98 540.52 305.59 519.18"/>
            <polygon class="cls-1" points="329.02 535.17 331.37 539.08 347.27 529.46 344.92 525.56 329.02 535.17"/>
            <polygon class="cls-1" points="331.49 538.99 333.59 543.03 350.06 534.44 347.96 530.39 331.49 538.99"/>
            <polygon class="cls-1" points="344.81 525.68 342.71 521.63 326.24 530.23 328.34 534.28 344.81 525.68"/>
          </g>
          <g>
            <path class="cls-1" d="M389.22,588.61c4.15,6.56,6.92,13.54,9.55,21.3,3.05,9.01,5.91,19.09,9.8,29.75,3.86,10.61,8.8,21.89,15.26,32.11l-.3,7.64c-6.79-10.29-12.22-20.74-16.32-32.2-4.18-11.12-7.3-21.61-10.65-31.07-2.87-8.15-5.91-15.55-10.37-22.6"/>
            <path class="cls-1" d="M376.72,608.91c5.45,8.62,10.76,14.74,15.6,19.12,6.21,5.69,11.72,8.68,16.78,12.02,5.1,3.38,9.72,7.04,14.91,15.26l-.39,9.09c-5.55-8.78-10.47-12.91-15.86-16.75-1.34-.95-2.71-1.87-4.1-2.82-1.39-.96-2.8-2.03-4.26-3.07-2.92-2.12-6.03-4.44-9.29-7.5-5.08-4.76-10.66-11.31-16.42-20.42"/>
            <path class="cls-1" d="M462.9,600.37c-3.43,5.45-6,11.32-8.4,17.82-2.4,6.49-4.61,13.58-7.11,21.12-2.49,7.53-5.26,15.5-8.62,23.52-1.68,4-3.5,8.02-5.48,11.95-.5.96-1,1.94-1.52,2.93-.26.48-.52.96-.78,1.45l-.4.72c-.14.23-.39.39-.64.43-.25.04-.51-.03-.68-.19-.16-.17-.28-.38-.42-.57-.27-.4-.55-.8-.83-1.21-.56-.83-1.12-1.7-1.7-2.61l-.17,7.68c.61.91,1.2,1.79,1.79,2.67.29.43.58.85.87,1.27.15.2.27.43.44.61.18.18.45.26.72.23.26-.03.52-.17.67-.4l.42-.69c.28-.46.55-.92.82-1.38.54-.94,1.08-1.86,1.6-2.77,2.09-3.72,4.05-7.37,5.86-11.28,3.58-8.37,6.55-16.66,9.24-24.5,2.69-7.85,5.11-15.25,7.71-22.07,2.62-6.83,5.41-13.06,9.09-18.92"/>
            <path class="cls-1" d="M473.15,624.3c-2.39,3.8-4.74,7.1-7.02,9.91-2.28,2.82-4.49,5.16-6.59,7.2-4.2,4.17-8.09,6.67-11.67,8.83-3.59,2.15-6.9,3.84-10.16,6.36-1.63,1.26-3.26,2.73-4.92,4.6-.42.47-.83.96-1.26,1.48-.21.27-.42.53-.64.8-.23.25-.36.64-.78.71-.4.09-.83-.22-.99-.64-.22-.38-.44-.76-.66-1.14-.44-.75-.89-1.49-1.35-2.21l-.18,9.43c.49.77.97,1.55,1.44,2.36.24.41.47.81.7,1.21.17.44.63.77,1.06.67.44-.08.58-.5.83-.77.23-.29.45-.58.68-.87.45-.57.9-1.1,1.34-1.61,1.78-2.05,3.51-3.69,5.25-5.11,1.74-1.42,3.48-2.63,5.26-3.8,1.78-1.2,3.63-2.16,5.47-3.76,1.91-1.47,3.84-2.96,5.83-4.48,1.02-.8,2.06-1.62,3.13-2.51,1.07-.9,2.17-1.87,3.29-2.9,1.12-1.02,2.27-2.16,3.44-3.4,1.17-1.24,2.37-2.55,3.57-4.06,2.42-2.95,4.89-6.47,7.42-10.48"/>
            <path class="cls-1" d="M418.11,617.62c.43,10.86,1.25,22.34,2.48,34.46,1.29,6.39,2.73,13,4.31,19.84l2.48,10.43c.21.99.44,1.49.66,2.17l.67,1.94.34.96c.11.32.22.65.41.89.36.51.88.72,1.16.69,1.85-.4,3.77-.6,5.79-.59,2.03,0,4.22.12,6.5.45-3.36-3.01-6.32-5.49-8.93-7.36l-.66.09c-.05.03-.11-.03-.17-.08l-.17-.14-.33-.29c-.44-.39-.87-.8-1.3-1.22l-.63-.64c-.17-.19-.56-.5-.94-1.12-.41-.58-.61-1.51-.8-2.36l-.59-2.57c-1.55-6.82-2.96-13.42-4.24-19.8-2.55-12.77-4.56-24.68-6.03-35.72Z"/>
            <path class="cls-1" d="M408.54,676.64c2.06-1.26,3.92-2.6,5.7-3.73,1.78-1.18,3.42-2.13,4.98-3.18,2.06-.78,3.99-1.76,5.79-2.96.9-.6,1.76-1.25,2.59-1.96.42-.35.82-.72,1.22-1.1l.64-.62c.3-.3.75-.86.98-1.64,3.04-12.89,5.51-24.96,7.46-36.17-1.03,11.27-2.49,23.22-4.37,35.85l-2.38,9.92c-.21.84-.41,1.69-.64,2.52-.26.82-.76,1.39-1.1,1.65-.31.24-.47.35-.71.52l-.67.46c-.91.6-1.85,1.14-2.83,1.63l-.74.36c-.24-.02-.49-.13-.73-.18-.49-.13-.99-.26-1.49-.37-4.04-.9-8.51-1.04-13.7-1Z"/>
            <polygon class="cls-1" points="424.99 683.82 427.5 687.6 427.62 682.62 427.78 674.18 428.08 657.27 426.05 653.87 425.49 670.37 424.99 683.82"/>
            <path class="cls-1" d="M427.49,687.43l1.25,2.03c.23.32.36.72.7.95.33.23.79.22,1.09,0l.12-2.46.09-2.56.14-8.91.21-17.72-.51.62c-.14.23-.45.36-.77.26-.34-.08-.56-.42-.7-.76l-.51-.99-.53,16.49-.3,8.19-.04.94-.03.55-.07,1.11-.14,2.23Z"/>
            <polygon class="cls-1" points="426.06 654.18 424.05 650.29 422.95 665.87 422.37 673.6 422.23 675.26 422.11 676.47 421.88 678.91 424.37 683.02 424.75 678.1 425.21 670.16 426.06 654.18"/>
          </g>
          <g>
            <path class="cls-1" d="M462.91,600.36c3.43-5.45,6.91-9.2,10.67-12.52,3.76-3.31,7.79-6.16,12.11-9.45,4.31-3.29,8.89-7.01,13.62-11.85,4.94-5.19,9.84-11.19,14.59-18.75l4.39,2.76c-9.43,14.99-19.87,24.48-28.82,31.58-4.51,3.61-8.74,6.77-12.71,10.41-3.98,3.65-7.68,7.76-11.36,13.62"/>
            <path class="cls-1" d="M473.16,624.29c4.79-7.61,8.47-15.26,11.33-22.47,2.87-7.23,4.92-14.06,6.69-20.44.85-3.09,1.69-6.16,2.54-9.27.42-1.5.84-2.97,1.27-4.43.22-.72.44-1.44.66-2.17l.35-1.09.42-1.19c2.3-6.33,5.21-12.74,9.4-19.41l4.39,2.76c-4.2,6.67-7.11,13.09-9.4,19.41-.59,1.61-1.05,3.06-1.55,4.62-.49,1.54-.95,3.09-1.42,4.67-.95,3.27-1.89,6.49-2.83,9.74-1.97,6.69-4.22,13.84-7.3,21.43-3.08,7.57-7,15.59-12.06,23.64"/>
            <path class="cls-1" d="M548.42,464.36c-17.31,27.54-12.94,49.11-31.94,79.33l4.39,2.76c19-30.22,14.63-51.79,31.95-79.33"/>
            <path class="cls-1" d="M566.54,475.76c-18.42,29.29-40.37,35.69-57.15,62.38l4.39,2.76c16.78-26.69,38.74-33.08,57.16-62.38"/>
            <polygon class="cls-1" points="482.84 551.91 503.02 550.47 547.98 531.29 526.93 534.37 482.84 551.91"/>
            <polygon class="cls-1" points="517.11 577.25 511.87 556.29 511.53 508.17 517.23 527.99 517.11 577.25"/>
            <polygon class="cls-1" points="521.44 549.21 523.95 545.41 508.42 535.2 505.91 539.01 521.44 549.21"/>
            <polygon class="cls-1" points="523.81 545.33 526.56 541.7 511.71 530.55 508.96 534.18 523.81 545.33"/>
            <polygon class="cls-1" points="506.07 539.05 503.32 542.69 518.18 553.85 520.93 550.21 506.07 539.05"/>
          </g>
          <g>
            <path class="cls-1" d="M548.43,464.35c17.31-27.54,38.65-32.94,57.66-63.17l4.39,2.76c-19,30.22-40.34,35.63-57.65,63.17"/>
            <path class="cls-1" d="M566.55,475.75c18.42-29.29,14.67-51.85,31.45-78.54l4.39,2.76c-16.78,26.69-13.03,49.25-31.45,78.55"/>
            <path class="cls-1" d="M640.6,317.75c-17.31,27.54-12.94,49.11-31.94,79.33l4.39,2.76c19-30.22,14.63-51.79,31.95-79.33"/>
            <path class="cls-1" d="M658.73,329.14c-18.42,29.29-40.37,35.69-57.15,62.38l4.39,2.76c16.78-26.69,38.74-33.08,57.16-62.38"/>
            <polygon class="cls-1" points="575.02 405.29 595.2 403.86 640.16 384.67 619.11 387.76 575.02 405.29"/>
            <polygon class="cls-1" points="609.29 430.63 604.05 409.67 603.71 361.56 609.42 381.38 609.29 430.63"/>
            <polygon class="cls-1" points="613.63 402.6 616.13 398.79 600.61 388.59 598.1 392.39 613.63 402.6"/>
            <polygon class="cls-1" points="616 398.72 618.74 395.08 603.89 383.93 601.14 387.56 616 398.72"/>
            <polygon class="cls-1" points="598.25 392.44 595.51 396.08 610.36 407.23 613.11 403.6 598.25 392.44"/>
          </g>
          <g>
            <path class="cls-1" d="M640.61,317.74c17.31-27.54,38.65-32.94,57.66-63.17l4.39,2.76c-19,30.22-40.34,35.63-57.65,63.17"/>
            <path class="cls-1" d="M658.73,329.13c18.42-29.29,14.67-51.85,31.45-78.54l4.39,2.76c-16.78,26.69-13.03,49.25-31.45,78.55"/>
            <path class="cls-1" d="M732.79,171.13c-17.31,27.54-12.94,49.11-31.94,79.33l4.39,2.76c19-30.22,14.63-51.79,31.95-79.33"/>
            <path class="cls-1" d="M750.91,182.53c-18.42,29.29-40.37,35.69-57.15,62.38l4.39,2.76c16.78-26.69,38.74-33.08,57.16-62.38"/>
            <polygon class="cls-1" points="667.21 258.68 687.39 257.24 732.34 238.06 711.3 241.14 667.21 258.68"/>
            <polygon class="cls-1" points="701.48 284.02 696.24 263.06 695.89 214.94 701.6 234.76 701.48 284.02"/>
            <polygon class="cls-1" points="705.81 255.98 708.32 252.18 692.79 241.97 690.28 245.78 705.81 255.98"/>
            <polygon class="cls-1" points="708.18 252.1 710.93 248.47 696.07 237.32 693.32 240.95 708.18 252.1"/>
            <polygon class="cls-1" points="690.44 245.82 687.69 249.46 702.55 260.62 705.29 256.98 690.44 245.82"/>
          </g>
          <g>
            <path class="cls-1" d="M732.79,171.12c17.31-27.54,38.65-32.94,57.66-63.17l4.39,2.76c-19,30.22-40.34,35.63-57.65,63.17"/>
            <path class="cls-1" d="M750.92,182.52c18.42-29.29,14.67-51.85,31.45-78.54l4.39,2.76c-16.78,26.69-13.03,49.25-31.45,78.55"/>
            <path class="cls-1" d="M824.97,24.52c-17.31,27.54-12.94,49.11-31.94,79.33l4.39,2.76c19-30.22,14.63-51.79,31.95-79.33"/>
            <path class="cls-1" d="M843.09,35.91c-18.42,29.29-40.37,35.69-57.15,62.38l4.39,2.76c16.78-26.69,38.74-33.08,57.16-62.38"/>
            <polygon class="cls-1" points="759.39 112.06 779.57 110.63 824.53 91.44 803.48 94.53 759.39 112.06"/>
            <polygon class="cls-1" points="793.66 137.4 788.42 116.44 788.08 68.33 793.78 88.15 793.66 137.4"/>
            <polygon class="cls-1" points="797.99 109.37 800.5 105.56 784.97 95.36 782.46 99.16 797.99 109.37"/>
            <polygon class="cls-1" points="800.36 105.49 803.11 101.85 788.26 90.7 785.51 94.33 800.36 105.49"/>
            <polygon class="cls-1" points="782.62 99.21 779.87 102.85 794.73 114 797.48 110.37 782.62 99.21"/>
          </g>
        </g>
        <g>
          <g>
            <path class="cls-1" d="M240.71,1.25c9.44,30.89-.47,50.46,9.89,84.36l-4.96,1.52c-10.36-33.9-.46-53.47-9.9-84.35"/>
            <path class="cls-1" d="M220.24,7.51c10.04,32.86,29.52,44.66,38.66,74.6l-4.96,1.52c-9.15-29.94-28.63-41.74-38.67-74.6"/>
            <path class="cls-1" d="M290.95,165.69c-9.44-30.89-28.59-41.58-38.94-75.48l-4.96,1.52c10.36,33.9,29.5,44.6,38.94,75.48"/>
            <path class="cls-1" d="M270.48,171.94c-10.04-32.86-.48-53.53-9.63-83.47l-4.96,1.52c9.15,29.94-.42,50.61,9.62,83.47"/>
            <polygon class="cls-1" points="267.85 59.56 255.71 75.68 240.74 121.96 252.2 104.12 267.85 59.56"/>
            <polygon class="cls-1" points="226.28 68.93 245.53 78.57 282.06 109.51 263.36 100.96 226.28 68.93"/>
            <polygon class="cls-1" points="244.6 90.37 245.82 94.72 263.7 89.65 262.47 85.29 244.6 90.37"/>
            <polygon class="cls-1" points="245.97 94.67 246.91 99.09 265.06 95.14 264.12 90.72 245.97 94.67"/>
            <polygon class="cls-1" points="262.33 85.38 261.38 80.95 243.23 84.91 244.18 89.33 262.33 85.38"/>
          </g>
          <g>
            <path class="cls-1" d="M290.95,165.7c9.44,30.89-.47,50.46,9.89,84.36l-4.96,1.52c-10.36-33.9-.46-53.47-9.9-84.35"/>
            <path class="cls-1" d="M270.48,171.96c10.04,32.86,29.52,44.66,38.66,74.6l-4.96,1.52c-9.15-29.94-28.63-41.74-38.67-74.6"/>
            <path class="cls-1" d="M341.19,330.14c-9.44-30.89-28.59-41.58-38.94-75.48l-4.96,1.52c10.36,33.9,29.5,44.6,38.94,75.48"/>
            <path class="cls-1" d="M320.72,336.4c-10.04-32.86-.48-53.53-9.63-83.47l-4.96,1.52c9.15,29.94-.42,50.61,9.62,83.47"/>
            <polygon class="cls-1" points="318.1 224.01 305.96 240.14 290.98 286.41 302.44 268.57 318.1 224.01"/>
            <polygon class="cls-1" points="276.52 233.38 295.77 243.02 332.3 273.96 313.61 265.41 276.52 233.38"/>
            <polygon class="cls-1" points="294.84 254.82 296.06 259.17 313.94 254.1 312.71 249.75 294.84 254.82"/>
            <polygon class="cls-1" points="296.21 259.12 297.16 263.54 315.3 259.59 314.36 255.17 296.21 259.12"/>
            <polygon class="cls-1" points="312.58 249.83 311.63 245.41 293.48 249.36 294.42 253.78 312.58 249.83"/>
          </g>
          <g>
            <path class="cls-1" d="M341.2,330.15c4.72,15.44,4.6,28.06,4.6,41.05,0,6.5.03,13.08.7,20.17.17,1.77.38,3.57.64,5.41.25,1.8.52,3.57.88,5.43.7,3.71,1.65,7.63,2.9,11.73l-4.66,2.51c-2.66-8.72-4.07-16.58-4.72-23.57-.68-7.08-.71-13.67-.71-20.17,0-12.99.11-25.6-4.6-41.05"/>
            <path class="cls-1" d="M320.72,336.41c5.02,16.43,12.4,27.59,19.67,38.39,3.63,5.4,7.24,10.71,10.51,16.54.81,1.44,1.63,2.99,2.37,4.44.71,1.34,1.39,2.7,2.03,4.09,1.29,2.79,2.43,5.73,3.42,8.97l-4.67,2.46c-1.06-3.45-2.27-6.6-3.61-9.6-.67-1.5-1.38-2.95-2.12-4.39-.76-1.49-1.56-3.01-2.38-4.46-3.27-5.83-6.88-11.14-10.51-16.54-7.27-10.8-14.65-21.96-19.67-38.39"/>
            <path class="cls-1" d="M385.02,473.6c-1.87-6.11-4.09-10.13-6.63-13.57-2.54-3.43-5.38-6.25-8.38-9.57-3-3.31-6.14-7.12-9.2-12.26-3.05-5.12-6.03-11.61-8.53-19.81l-4.57,2.79c2.66,8.71,5.77,15.62,8.94,21.14,3.18,5.54,6.44,9.7,9.54,13.37,3.11,3.67,6.06,6.84,8.71,10.65,2.65,3.82,5,8.24,7,14.81"/>
            <path class="cls-1" d="M372.13,504.66c-2.61-8.54-4.29-17.3-5.36-25.67-1.08-8.39-1.55-16.43-1.86-23.95-.32-7.54-.48-14.58-1.03-21.25-.55-6.69-1.49-12.99-3.46-19.44l-4.56,2.84c2.11,6.9,3.16,13.59,3.83,20.65.66,7.04.93,14.43,1.36,22.32.42,7.88,1,16.28,2.2,25.06,1.19,8.77,3,17.96,5.76,26.98"/>
            <path class="cls-1" d="M368.34,388.46l-1.52,2.02-.76,1.01c-.27.3-.54.55-.81.83-1.08,1.11-2.16,2.26-3.21,3.45-2.11,2.39-4.18,4.95-6.18,7.69-5.17,14.84-9.11,33.73-11.8,56.67,2.67-9.72,5.58-18.63,8.74-26.74,2.03-9.32,4.36-17.66,6.99-25.04,1.31-3.69,2.7-7.13,4.16-10.34.73-1.6,1.48-3.14,2.25-4.62.38-.74.77-1.47,1.16-2.18.34-.87.66-1.84.99-2.76Z"/>
            <path class="cls-1" d="M326.76,397.83c6.35,3.01,13.03,7.07,19.24,9.63,11.9,9.41,22.64,15.02,32.22,16.82-4.99,1.22-10.21,1.69-15.66,1.38-5.41-2.82-11.13-6.63-17.14-11.42-3.01-2.4-6.09-5.04-9.25-7.93-1.57-1.43-3.19-2.99-4.78-4.48l-4.64-4Z"/>
            <polygon class="cls-1" points="345.37 420.21 346.67 424.8 362.98 414.61 361.96 410.93 345.37 420.21"/>
            <path class="cls-1" d="M346.8,424.7l1.05,4.75c5.45-3.28,10.87-6.65,16.26-10.13l-.76-3.85c-5.48,3.18-10.99,6.26-16.54,9.23Z"/>
            <path class="cls-1" d="M361.83,411.05l-.76-3.79c-5.69,2.5-11.41,4.89-17.16,7.18l1.03,4.7c5.66-2.59,11.29-5.29,16.89-8.09Z"/>
          </g>
          <g>
            <path class="cls-1" d="M385.03,473.61c1.64,5.38,2.67,11.26,3.46,17.77.78,6.49,1.32,13.59,1.91,21.13.74,9.6,1.56,19.94,2.94,30.34,1.38,10.37,3.33,20.84,6.14,30.04l-1.52,11.12c-3.01-9.41-5.23-19.53-6.74-30.36-1.52-10.83-2.46-21.56-3.32-31.55-.68-7.85-1.31-15.26-2.2-22.08-.89-6.84-2.03-13.08-3.8-18.86"/>
            <path class="cls-1" d="M372.13,504.67c2.17,7.1,4.5,12.47,6.82,16.5,2.32,4.04,4.65,6.76,6.88,8.82,3.15,2.94,6.12,4.57,8.84,7.18,2.72,2.64,5.17,6.23,7.47,13.76l-1.69,12.21c-2.46-8.05-5.05-12.09-7.9-15.15-1.42-1.52-2.91-2.78-4.45-4.09-1.54-1.31-3.13-2.7-4.77-4.33-2.33-2.36-4.74-5.39-7.17-9.76-2.42-4.37-4.86-10.1-7.16-17.61"/>
            <path class="cls-1" d="M424.86,604c-1.87-6.11-3.54-8.35-5.27-9.11-1.72-.75-3.48,0-5.38.24-1.91.26-3.96.02-6.21-2.44-2.24-2.45-4.66-7.14-7.17-15.35l-1.43,11.21c1.34,4.17,2.63,7.62,3.87,10.58.62,1.48,1.22,2.82,1.81,4.07.29.61.58,1.21.87,1.8.14.29.29.57.43.85l.21.42c.07.13.15.2.22.29,2.36,2.86,4.53,3.46,6.54,3.56,2.02.11,3.88-.29,5.71.84,1.84,1.14,3.64,3.78,5.64,10.35"/>
            <path class="cls-1" d="M424.32,667.87c-2.55-7.9-4.76-15.9-6.73-24.33-.24-1.07-.49-2.13-.73-3.17-.12-.54-.24-1.07-.35-1.6l-.09-.4-.08-.53-.16-1.06c-.42-2.88-.84-5.7-1.25-8.49-.8-5.67-1.54-11.34-2.25-16.89-1.41-11.11-2.66-21.71-4.03-31.06-1.37-9.36-2.85-17.44-4.82-23.9l-1.58,12.59c2.11,6.9,3.71,15.38,5.19,25.11.74,4.86,1.45,10.03,2.17,15.41.36,2.76.72,5.5,1.08,8.23l.27,2.1.14,1.05.15.83.62,3.29c1.66,8.76,3.43,17.24,5.49,25.31,2.03,8.06,4.29,15.64,6.9,23.07"/>
            <path class="cls-1" d="M403.26,502.76c-1.32,14.3-2.43,29.3-3.32,45.01.04,8.07.16,16.4.35,24.98l.35,13.06c.02,1.19.1,1.99.15,2.94l.18,2.75.39,5.46c.53,7.22,1.2,14.37,1.89,21.22.7,6.87,1.47,13.54,2.32,20.02-.88-12.49-1.51-25.6-1.9-39.33l-.19-2.66-.12-3.29-.2-6.65-.32-13.02c-.18-8.56-.28-16.87-.3-24.95-.05-16.15.19-31.32.72-45.53Z"/>
            <path class="cls-1" d="M386.11,587.64c1.87-2.7,3.65-5.38,5.32-8.03,1.68-2.71,3.24-5.29,4.74-7.94,6.94-6.82,12.73-17.44,17.35-31.86-2.04,10.86-4.32,20.96-6.83,30.29-1.46,2.68-2.99,5.11-4.6,7.3-.8,1.09-1.63,2.13-2.47,3.1l-.63.72c-.2.13-.39.19-.59.3l-1.2.58c-3.26,1.56-6.93,3.71-11.1,5.55Z"/>
            <polygon class="cls-1" points="398.33 590.24 399.71 594.62 405.02 552.23 403.95 548.38 398.33 590.24"/>
            <polygon class="cls-1" points="399.74 594.33 401.05 599.21 402.12 591.27 403.53 580.05 406.32 557.51 405.33 552.92 402.4 575.01 400.92 586 399.74 594.33"/>
            <polygon class="cls-1" points="403.91 548.78 402.93 544.26 399.69 565.33 398.05 575.81 396.66 584.44 397.96 589.38 399.24 581.01 400.81 570.31 403.91 548.78"/>
          </g>
          <g>
            <path class="cls-1" d="M424.86,604.01c.47,1.53.92,3.21,1.36,5.03.06.22.09.47.2.67.11.21.28.36.47.45.38.18.75.03.82-.2.21-.43.43-.81.64-1.15.84-1.35,1.67-2.01,2.49-2.28,1.65-.52,3.31.53,5.13,1.08,1.81.57,3.78.63,5.94-1.6,2.16-2.22,4.54-6.77,7.03-14.98l1.16,11.46c-1.32,4.16-2.59,7.62-3.8,10.61-.6,1.5-1.19,2.88-1.76,4.16-.29.63-.57,1.25-.85,1.86-.14.3-.28.59-.41.88l-.21.43c-.07.14-.14.19-.21.28-2.29,2.63-4.36,2.93-6.28,2.72-1.92-.2-3.69-.9-5.45,0-.88.45-1.76,1.31-2.67,2.86-.23.39-.46.82-.69,1.3-.07.26-.47.44-.88.25-.2-.09-.38-.25-.5-.47-.12-.22-.15-.48-.21-.71-.47-1.93-.96-3.72-1.46-5.36"/>
            <path class="cls-1" d="M424.32,667.88c.64,1.98,1.26,3.83,1.85,5.58.12.47.72.71,1.2.49.53-.2.58-.82.74-1.28.29-1.01.57-2,.85-2.98,1.12-3.98,2.17-8,3.16-12.09.25-1.04.49-2.07.73-3.09.12-.52.24-1.04.36-1.56l.09-.39.09-.54.17-1.08c.44-2.95.87-5.84,1.3-8.7.84-5.82,1.62-11.64,2.36-17.35,1.49-11.42,2.82-22.33,4.24-31.91,1.43-9.59,2.94-17.83,4.9-24.29l1.34,13.43c-2.1,6.9-3.73,15.54-5.27,25.51-.77,4.98-1.51,10.28-2.26,15.81-.38,2.83-.76,5.65-1.14,8.46l-.29,2.16-.15,1.08-.16.8-.64,3.19c-1.72,8.5-3.52,16.68-5.56,24.49-1.02,3.91-2.09,7.73-3.24,11.5-.29.93-.58,1.86-.87,2.82-.16.44-.21,1.03-.75,1.21-.48.21-1.1-.02-1.22-.46-.61-1.64-1.25-3.38-1.9-5.24"/>
            <path class="cls-1" d="M465.33,484.82c-1.86,6.11-2.97,13.05-3.85,20.85-.88,7.79-1.52,16.43-2.31,25.57-.79,9.13-1.73,18.75-3.13,28.26-1.39,9.49-3.26,18.88-5.75,27.09l1.25,11.38c2.66-8.35,4.76-17.22,6.34-26.69,1.52-9.9,2.57-19.88,3.47-29.36.9-9.49,1.65-18.47,2.64-26.64,1-8.18,2.23-15.51,4.23-22.08"/>
            <path class="cls-1" d="M477.22,519.34c-2.6,8.54-5.36,14.4-8.08,18.41-2.71,4.05-5.37,6.26-7.88,7.98-2.51,1.73-4.86,2.96-7.05,5.27-2.2,2.33-4.22,5.73-6.18,12.19l1.46,13.05c2.1-6.9,4.24-10.69,6.55-13.39,1.15-1.34,2.34-2.4,3.57-3.39,1.23-1,2.51-1.85,3.78-3.07,2.56-2.31,5.38-4.63,8.23-8.99,2.84-4.34,5.73-10.68,8.48-19.69"/>
            <path class="cls-1" d="M438.64,542c1.86,12.6,3.93,24.49,6.22,35.67,1.39,3.4,2.86,6.54,4.41,9.43.77,1.45,1.57,2.83,2.38,4.15.21.42.38.4.57.56l.55.37,1.13.79c1.54,1.07,3.15,2.38,4.9,3.65l5.58,4.18c-3.41-6.25-6.46-12.19-9.16-17.82l-.57-.48c-.2-.23-.41-.62-.61-.92-.41-.65-.82-1.32-1.22-2-.8-1.36-1.59-2.79-2.36-4.28-1.54-2.97-3-6.19-4.38-9.64-2.78-6.91-5.26-14.8-7.44-23.65Z"/>
            <path class="cls-1" d="M444.57,644.37c.54-5.97,1.1-12.22,1.54-18.57l.64-9.66.29-4.92.13-2.48.06-1.25.03-.63.02-.32v-.44c1.88-35.86,2.59-67.92,2.16-96.18.96,14.48,1.68,29.73,2.18,45.74-.18,8.08-.43,16.4-.76,24.97l-.55,13.04-.16,3.32-.23,2.69-.49,5.25c-1.32,13.9-2.99,27.11-4.87,39.44Z"/>
            <polygon class="cls-1" points="451.3 603.27 452.72 599.24 447.84 555.63 446.71 559 451.3 603.27"/>
            <polygon class="cls-1" points="452.68 598.98 454.16 595.49 453.22 586.7 451.93 575.04 449.31 551.84 448.09 554.48 450.58 578.15 451.8 590.04 452.68 598.98"/>
            <polygon class="cls-1" points="446.77 559.36 445.57 561.98 447.74 586.67 448.81 599.07 449.53 607.97 450.98 604.47 450.22 595.78 449.08 583.6 446.77 559.36"/>
          </g>
          <g>
            <path class="cls-1" d="M465.34,484.81c1.86-6.11,4.03-9.98,6.49-13.2,2.46-3.2,5.21-5.72,8.11-8.73,2.9-3.01,5.95-6.51,8.93-11.42,2.98-4.9,5.89-11.23,8.39-19.44l4.32,3.62c-2.65,8.71-5.69,15.48-8.79,20.77-3.1,5.31-6.26,9.17-9.26,12.53-3.01,3.37-5.86,6.24-8.43,9.81-2.58,3.59-4.87,7.86-6.86,14.43"/>
            <path class="cls-1" d="M477.22,519.33c2.59-8.54,4.31-17.46,5.44-26.07,1.13-8.63,1.68-16.97,2.08-24.8.4-7.85.65-15.19,1.26-22.1.61-6.92,1.58-13.37,3.55-19.83l4.31,3.68c-2.1,6.9-3.19,13.75-3.91,21.04-.72,7.27-1.08,14.97-1.58,23.17-.5,8.19-1.16,16.89-2.42,25.91-1.25,9-3.09,18.35-5.84,27.38"/>
            <path class="cls-1" d="M508.04,344.23c-4.69,15.45-4.56,28.07-4.54,41.06,0,3.25,0,6.52-.08,9.86-.02.8-.03,1.6-.05,2.42-.02.79-.05,1.59-.07,2.39-.06,1.61-.17,3.27-.31,4.98-.58,6.81-1.9,14.42-4.39,22.63l4.4,3.35c2.65-8.71,4.1-16.75,4.8-23.96.36-3.62.51-6.99.59-10.29.09-3.34.09-6.62.08-9.86-.02-12.99-.15-25.6,4.54-41.06"/>
            <path class="cls-1" d="M528.53,350.46c-4.99,16.44-12.36,27.61-19.61,38.43-1.79,2.69-3.57,5.36-5.36,8.06-1.68,2.49-3.29,4.93-4.8,7.43-3.01,5.01-5.57,10.19-7.54,16.65l4.42,3.3c2.1-6.9,4.78-12.48,7.9-17.85,1.56-2.68,3.22-5.31,4.96-7.97,1.75-2.71,3.56-5.41,5.38-8.1,7.25-10.81,14.62-21.99,19.61-38.42"/>
            <path class="cls-1" d="M473.18,428.32c4.97,2.36,10.15,4.02,15.55,4.97,10.88-3.87,22.98-11.79,36.32-23.76-6.65,3.35-13.06,5.89-19.22,7.62-12.06,7.6-22.94,11.33-32.65,11.17Z"/>
            <path class="cls-1" d="M504.68,470.82c-2.24-10.51-4.73-20.18-7.48-29-3.06-19.63-7.28-35.45-12.65-47.47,3.89,4.84,7.54,10.44,10.97,16.81,4.25,15.94,7.31,35.83,9.16,59.66Z"/>
            <polygon class="cls-1" points="504.05 434.19 505.51 429.72 489.67 417.94 488.49 421.49 504.05 434.19"/>
            <path class="cls-1" d="M505.37,429.63l1.71-4.3c-5.23-4.02-10.48-7.94-15.77-11.76l-1.44,3.39c5.2,4.12,10.37,8.34,15.5,12.67Z"/>
            <path class="cls-1" d="M488.63,421.56l-1.42,3.34c4.99,4.8,9.95,9.71,14.88,14.71l1.69-4.24c-5.02-4.71-10.07-9.31-15.16-13.81Z"/>
          </g>
          <g>
            <path class="cls-1" d="M508.05,344.22c9.39-30.9,28.52-41.62,38.82-75.54l4.96,1.51c-10.3,33.92-29.43,44.64-38.82,75.54"/>
            <path class="cls-1" d="M528.53,350.45c9.99-32.87.4-53.53,9.5-83.49l4.96,1.51c-9.1,29.95.5,50.61-9.49,83.49"/>
            <path class="cls-1" d="M558.03,179.71c-9.39,30.9.54,50.46-9.76,84.37l4.96,1.51c10.3-33.91.38-53.47,9.77-84.37"/>
            <path class="cls-1" d="M578.51,185.93c-9.99,32.87-29.45,44.71-38.55,74.66l4.96,1.51c9.1-29.95,28.57-41.78,38.55-74.66"/>
            <polygon class="cls-1" points="518.03 280.68 537.1 274.07 575.33 244 555.87 252.42 518.03 280.68"/>
            <polygon class="cls-1" points="557.77 296.09 547.16 277.35 534.09 231.3 544.84 248.82 557.77 296.09"/>
            <polygon class="cls-1" points="554.51 268.08 555.92 263.78 538.26 258.03 536.85 262.32 554.51 268.08"/>
            <polygon class="cls-1" points="555.77 263.74 557.45 259.54 540.19 252.7 538.5 256.9 555.77 263.74"/>
            <polygon class="cls-1" points="537.01 262.33 535.33 266.53 552.6 273.37 554.28 269.17 537.01 262.33"/>
          </g>
          <g>
            <path class="cls-1" d="M558.03,179.69c9.39-30.9,28.52-41.63,38.82-75.54l4.96,1.51c-10.3,33.92-29.43,44.64-38.82,75.54"/>
            <path class="cls-1" d="M578.52,185.92c9.99-32.87.4-53.53,9.5-83.49l4.96,1.51c-9.1,29.95.5,50.61-9.49,83.49"/>
            <path class="cls-1" d="M608.01,15.18c-9.39,30.9.54,50.46-9.76,84.37l4.96,1.51c10.3-33.91.38-53.47,9.77-84.37"/>
            <path class="cls-1" d="M628.5,21.4c-9.99,32.87-29.45,44.71-38.55,74.66l4.96,1.51c9.1-29.95,28.57-41.78,38.55-74.66"/>
            <polygon class="cls-1" points="568.01 116.15 587.08 109.54 625.32 79.47 605.86 87.89 568.01 116.15"/>
            <polygon class="cls-1" points="607.75 131.56 597.15 112.82 584.07 66.77 594.82 84.29 607.75 131.56"/>
            <polygon class="cls-1" points="604.5 103.55 605.91 99.25 588.24 93.5 586.83 97.79 604.5 103.55"/>
            <polygon class="cls-1" points="605.76 99.21 607.44 95.01 590.17 88.17 588.48 92.37 605.76 99.21"/>
            <polygon class="cls-1" points="586.99 97.8 585.31 102 602.58 108.84 604.27 104.64 586.99 97.8"/>
          </g>
        </g>
      </g>
      <g>
        <g>
          <path class="cls-1" d="M442.49,6.54c0,31.3-15.19,46.63-15.19,80.99h-5.19c0-34.35,15.18-49.69,15.18-80.99"/>
          <path class="cls-1" d="M421.08,6.54c0,33.3,15.18,49.75,15.18,80.09h-5.19c0-30.34-15.19-46.8-15.19-80.09"/>
          <path class="cls-1" d="M442.49,173.19c0-31.3-15.19-46.64-15.19-80.99h-5.19c0,34.35,15.18,49.69,15.18,80.99"/>
          <path class="cls-1" d="M421.08,173.19c0-33.3,15.18-49.75,15.18-80.09h-5.19c0,30.34-15.19,46.8-15.19,80.09"/>
          <polygon class="cls-1" points="451.41 68.28 435.09 79.78 407.24 118.44 423.41 105.14 451.41 68.28"/>
          <polygon class="cls-1" points="408.91 65.19 424.5 79.58 450.4 118.6 435.02 105.37 408.91 65.19"/>
          <polygon class="cls-1" points="420.16 90.25 420.06 94.63 438.64 94.99 438.74 90.6 420.16 90.25"/>
          <polygon class="cls-1" points="420.22 94.62 419.83 98.99 438.34 100.47 438.73 96.1 420.22 94.62"/>
          <polygon class="cls-1" points="438.58 90.65 438.97 86.27 420.45 84.8 420.07 89.17 438.58 90.65"/>
        </g>
        <g>
          <path class="cls-1" d="M442.49,173.2c0,31.3-15.19,46.63-15.19,80.99h-5.19c0-34.35,15.18-49.69,15.18-80.99"/>
          <path class="cls-1" d="M421.08,173.2c0,33.3,15.18,49.75,15.18,80.09h-5.19c0-30.34-15.19-46.8-15.19-80.09"/>
          <path class="cls-1" d="M442.49,339.84c0-31.3-15.19-46.64-15.19-80.99h-5.19c0,34.35,15.18,49.69,15.18,80.99"/>
          <path class="cls-1" d="M421.08,339.84c0-33.3,15.18-49.75,15.18-80.09h-5.19c0,30.34-15.19,46.79-15.19,80.09"/>
          <polygon class="cls-1" points="451.41 234.93 435.09 246.44 407.24 285.09 423.41 271.8 451.41 234.93"/>
          <polygon class="cls-1" points="408.91 231.84 424.5 246.23 450.4 285.25 435.02 272.03 408.91 231.84"/>
          <polygon class="cls-1" points="420.16 256.9 420.06 261.28 438.64 261.64 438.74 257.26 420.16 256.9"/>
          <polygon class="cls-1" points="420.22 261.27 419.83 265.64 438.34 267.12 438.73 262.75 420.22 261.27"/>
          <polygon class="cls-1" points="438.58 257.3 438.97 252.93 420.45 251.45 420.07 255.82 438.58 257.3"/>
        </g>
        <g>
          <path class="cls-1" d="M442.49,339.85c0,31.3-15.19,46.63-15.19,80.99h-5.19c0-34.35,15.18-49.69,15.18-80.99"/>
          <path class="cls-1" d="M421.08,339.85c0,33.3,15.18,49.75,15.18,80.09h-5.19c0-30.34-15.19-46.79-15.19-80.09"/>
          <path class="cls-1" d="M442.49,506.49c0-31.3-15.19-46.64-15.19-80.99h-5.19c0,34.35,15.18,49.69,15.18,80.99"/>
          <path class="cls-1" d="M421.08,506.49c0-33.3,15.18-49.75,15.18-80.09h-5.19c0,30.34-15.19,46.8-15.19,80.09"/>
          <polygon class="cls-1" points="451.41 401.59 435.09 413.09 407.24 451.75 423.41 438.45 451.41 401.59"/>
          <polygon class="cls-1" points="408.91 398.5 424.5 412.88 450.4 451.91 435.02 438.68 408.91 398.5"/>
          <polygon class="cls-1" points="420.16 423.55 420.06 427.94 438.64 428.3 438.74 423.91 420.16 423.55"/>
          <polygon class="cls-1" points="420.22 427.93 419.83 432.3 438.34 433.77 438.73 429.4 420.22 427.93"/>
          <polygon class="cls-1" points="438.58 423.95 438.97 419.58 420.45 418.11 420.07 422.47 438.58 423.95"/>
        </g>
        <g>
          <path class="cls-1" d="M442.49,506.5c0,31.3-15.19,46.63-15.19,80.99h-5.19c0-34.35,15.18-49.69,15.18-80.99"/>
          <path class="cls-1" d="M421.08,506.5c0,33.3,15.18,49.75,15.18,80.09h-5.19c0-30.34-15.19-46.8-15.19-80.09"/>
          <path class="cls-1" d="M442.49,673.15c0-31.3-15.19-46.64-15.19-80.99h-5.19c0,34.35,15.18,49.69,15.18,80.99"/>
          <path class="cls-1" d="M421.08,673.15c0-33.3,15.18-49.75,15.18-80.09h-5.19c0,30.34-15.19,46.79-15.19,80.09"/>
          <polygon class="cls-1" points="451.41 568.24 435.09 579.75 407.24 618.4 423.41 605.11 451.41 568.24"/>
          <polygon class="cls-1" points="408.91 565.15 424.5 579.54 450.4 618.56 435.02 605.34 408.91 565.15"/>
          <polygon class="cls-1" points="420.16 590.21 420.06 594.59 438.64 594.95 438.74 590.57 420.16 590.21"/>
          <polygon class="cls-1" points="420.22 594.58 419.83 598.95 438.34 600.43 438.73 596.06 420.22 594.58"/>
          <polygon class="cls-1" points="438.58 590.61 438.97 586.24 420.45 584.76 420.07 589.13 438.58 590.61"/>
        </g>
      </g>
    </g>
  </g>
</svg>