<?xml version="1.0" encoding="UTF-8"?>
<svg id="Layer_2" data-name="Layer 2" xmlns="http://www.w3.org/2000/svg" viewBox="0 0 996.75 1000.97">
  <defs>
    <style>
      .cls-1 {
        fill: #bfbfbf;
        stroke: #000;
        stroke-linecap: round;
        stroke-width: 2.5px;
      }
    </style>
  </defs>
  <g id="Layer_2-2" data-name="Layer 2">
    <g>
      <g>
        <g>
          <path class="cls-1" d="M976.8,508.42c-23.14-22.86-23.8-44.86-49.19-69.94l3.65-3.69c25.39,25.09,26.06,47.08,49.19,69.94"/>
          <path class="cls-1" d="M991.85,493.19c-24.61-24.32-47.44-25.53-69.87-47.69l3.65-3.69c22.43,22.16,45.26,23.37,69.88,47.68"/>
          <path class="cls-1" d="M853.63,386.74c23.14,22.86,45.15,23.25,70.54,48.34l3.65-3.69c-25.39-25.08-47.4-25.48-70.53-48.34"/>
          <path class="cls-1" d="M868.67,371.51c24.61,24.32,26.11,47.13,48.53,69.29l3.65-3.69c-22.43-22.16-23.91-44.98-48.53-69.29"/>
          <polygon class="cls-1" points="924.9 469.69 927.86 449.68 918.86 401.64 917.32 422.86 924.9 469.69"/>
          <polygon class="cls-1" points="957.05 441.71 935.46 442.3 888.41 432.23 909 430.94 957.05 441.71"/>
          <polygon class="cls-1" points="930.62 431.42 927.45 428.15 914.13 441.1 917.3 444.38 930.62 431.42"/>
          <polygon class="cls-1" points="927.35 428.27 924.39 424.8 910.29 436.89 913.24 440.36 927.35 428.27"/>
          <polygon class="cls-1" points="917.38 444.23 920.34 447.7 934.44 435.61 931.48 432.14 917.38 444.23"/>
        </g>
        <g>
          <path class="cls-1" d="M853.62,386.73c-23.14-22.86-23.8-44.86-49.19-69.94l3.65-3.69c25.39,25.09,26.06,47.08,49.19,69.94"/>
          <path class="cls-1" d="M868.66,371.5c-24.61-24.32-47.44-25.53-69.87-47.69l3.65-3.69c22.43,22.16,45.26,23.37,69.88,47.68"/>
          <path class="cls-1" d="M730.45,265.04c23.14,22.86,45.15,23.25,70.54,48.34l3.65-3.69c-25.39-25.08-47.4-25.48-70.53-48.34"/>
          <path class="cls-1" d="M745.49,249.81c24.61,24.32,26.11,47.13,48.53,69.29l3.65-3.69c-22.43-22.16-23.91-44.98-48.53-69.29"/>
          <polygon class="cls-1" points="801.72 348 804.68 327.98 795.68 279.95 794.14 301.16 801.72 348"/>
          <polygon class="cls-1" points="833.87 320.02 812.28 320.6 765.23 310.53 785.82 309.25 833.87 320.02"/>
          <polygon class="cls-1" points="807.44 309.73 804.27 306.45 790.95 319.41 794.12 322.68 807.44 309.73"/>
          <polygon class="cls-1" points="804.17 306.57 801.21 303.11 787.11 315.19 790.06 318.67 804.17 306.57"/>
          <polygon class="cls-1" points="794.2 322.54 797.16 326.01 811.26 313.91 808.3 310.45 794.2 322.54"/>
        </g>
        <g>
          <path class="cls-1" d="M730.44,265.03c-23.14-22.86-23.8-44.86-49.19-69.94l3.65-3.69c25.39,25.09,26.06,47.08,49.19,69.94"/>
          <path class="cls-1" d="M745.48,249.81c-24.61-24.32-47.44-25.53-69.87-47.69l3.65-3.69c22.43,22.16,45.26,23.37,69.88,47.68"/>
          <path class="cls-1" d="M607.26,143.35c23.14,22.86,45.15,23.25,70.54,48.34l3.65-3.69c-25.39-25.08-47.4-25.48-70.53-48.34"/>
          <path class="cls-1" d="M622.31,128.12c24.61,24.32,26.11,47.13,48.53,69.29l3.65-3.69c-22.43-22.16-23.91-44.98-48.53-69.29"/>
          <polygon class="cls-1" points="678.54 226.3 681.5 206.29 672.5 158.25 670.96 179.47 678.54 226.3"/>
          <polygon class="cls-1" points="710.69 198.32 689.1 198.91 642.05 188.84 662.64 187.55 710.69 198.32"/>
          <polygon class="cls-1" points="684.26 188.03 681.09 184.76 667.77 197.71 670.94 200.99 684.26 188.03"/>
          <polygon class="cls-1" points="680.99 184.88 678.03 181.41 663.93 193.5 666.88 196.97 680.99 184.88"/>
          <polygon class="cls-1" points="671.02 200.84 673.98 204.31 688.08 192.22 685.12 188.75 671.02 200.84"/>
        </g>
        <g>
          <path class="cls-1" d="M607.26,143.34c-23.14-22.86-23.8-44.86-49.19-69.94l3.65-3.69c25.39,25.09,26.06,47.08,49.19,69.94"/>
          <path class="cls-1" d="M622.3,128.11c-24.61-24.32-47.44-25.53-69.87-47.69l3.65-3.69c22.43,22.16,45.26,23.37,69.88,47.68"/>
          <path class="cls-1" d="M494.88,34.41c1.65.49,3.14,1.22,4.41,2.08,1.25.89,2.33,1.82,3.48,2.59,2.26,1.58,4.49,2.83,6.74,3.94,4.5,2.21,9.14,3.85,14.24,6.05,8.82,3.77,19.11,9.31,30.86,20.92l3.65-3.69c-1.49-1.47-2.92-2.82-4.42-4.16-1.49-1.33-2.96-2.59-4.41-3.76-2.9-2.36-5.72-4.4-8.43-6.2-5.43-3.59-10.45-6.16-15.11-8.29-5.39-2.48-10.3-4.4-15.1-6.9-2.4-1.26-4.78-2.66-7.2-4.4-.61-.43-1.22-.89-1.83-1.37-.31-.24-.61-.49-.93-.74-.32-.24-.65-.48-.98-.73-1.36-.94-2.96-1.72-4.74-2.25"/>
          <path class="cls-1" d="M495.83,7.01c2.18.62,4.14,1.71,5.77,3.12.81.72,1.56,1.49,2.28,2.28.73.78,1.44,1.57,2.15,2.36,2.81,3.16,5.39,6.4,7.76,9.68,2.38,3.26,4.52,6.63,6.52,9.88,2,3.26,3.84,6.45,5.6,9.54,3.38,5.95,6.41,11.54,9.73,16.74,1.66,2.6,3.39,5.12,5.29,7.56.95,1.22,1.95,2.42,3,3.62.27.3.53.59.8.89.31.33.62.66.94,1,.65.68,1.32,1.36,2,2.04l3.65-3.69c-2.83-2.8-4.97-5.23-7.03-7.83-2.05-2.59-3.92-5.24-5.71-7.98-3.58-5.48-6.88-11.32-10.51-17.52-3.77-6.46-7.96-13.27-13.05-19.81-2.54-3.29-5.3-6.47-8.27-9.56-.74-.77-1.5-1.53-2.27-2.29-.76-.77-1.56-1.52-2.4-2.21-1.72-1.36-3.77-2.42-6.04-3.02"/>
          <path class="cls-1" d="M555.35,104.61l2.97-20.01-2.25-12.01-1.12-6c-.38-2-.73-3.99-1.18-6.06-1.76-8.26-4.28-17.27-7.55-27.03,1.11,8.67,1.61,16.75,1.5,24.22.41,2.04.77,4.04,1.09,6l.44,2.9c.13.95.26,1.89.43,2.88l1.89,11.71,3.79,23.42Z"/>
          <path class="cls-1" d="M587.51,76.63l-21.59.58-11.76-2.52-5.88-1.26-2.94-.63c-.96-.19-1.81-.27-2.7-.4-7.04-.89-13.38-1.08-19-.56,4.95-2.31,10.48-4.06,16.58-5.24,1.77.22,3.59.49,5.46.81,1.87.32,3.76.65,5.79,1.14l12.01,2.69,24.03,5.38Z"/>
          <polygon class="cls-1" points="561.08 66.34 557.91 63.07 544.59 76.02 547.76 79.29 561.08 66.34"/>
          <path class="cls-1" d="M557.8,63.18l-3.04-3.54c-4.61,4.12-9.15,8.31-13.61,12.58l1.22,1.48,1.32,1.58,14.1-12.09Z"/>
          <polygon class="cls-1" points="547.84 79.15 550.8 82.62 564.9 70.52 561.94 67.06 547.84 79.15"/>
        </g>
        <g>
          <path class="cls-1" d="M494.87,34.41c-3.1-.92-6.29-.88-8.94-.21-2.74.61-4.59,2.12-6.65,3.1-4.07,2.08-8.2,3.55-12.69,5.39-4.49,1.83-9.35,4.04-14.69,7.4-5.32,3.35-11.15,7.87-17.23,14.01l-3.5-3.84c6.46-6.51,12.6-11.36,18.22-15,5.63-3.66,10.76-6.13,15.51-8.23,4.76-2.1,9.14-3.83,13.49-6.19,2.2-1.12,4.17-2.79,7.12-3.49,2.85-.75,6.27-.82,9.61.17"/>
          <path class="cls-1" d="M495.82,7.01c-4.28-1.21-8.72-.41-12.16,1.77-1.74,1.07-3.2,2.52-4.48,4.1-1.28,1.58-2.51,3.17-3.69,4.77-2.37,3.17-4.53,6.56-6.54,9.85-2.01,3.29-3.87,6.52-5.65,9.66-3.55,6.28-6.74,12.18-10.15,17.65-3.43,5.48-7.08,10.51-11.87,15.34l-3.46-3.88c5.12-5.16,9.06-10.49,12.76-16.24,3.7-5.74,7.13-11.93,10.95-18.44,3.82-6.47,8.09-13.11,13.14-19.42,1.26-1.57,2.56-3.12,3.91-4.66,1.35-1.54,2.88-2.93,4.71-3.98,3.61-2.12,8.23-2.9,12.7-1.73"/>
          <path class="cls-1" d="M382.9,137.87c22.9-23.09,23.33-45.1,48.46-70.45l-3.68-3.65c-25.13,25.35-25.57,47.35-48.47,70.44"/>
          <path class="cls-1" d="M367.69,122.8c24.36-24.57,47.18-26.02,69.37-48.41l-3.68-3.65c-22.2,22.39-45.02,23.83-69.38,48.4"/>
          <path class="cls-1" d="M460.66,72.12c-4.73-2.96-9.99-5.38-15.76-7.28-3.48.22-7.15.62-11.01,1.22-1.92.28-3.93.66-5.93,1.04l-6.01,1.11-24.03,4.46,21.21,1.58,11.71-1.87c1.93-.29,3.94-.66,5.82-.9,1.82-.18,3.6-.32,5.34-.41,6.94-.37,13.16-.02,18.66,1.06Z"/>
          <path class="cls-1" d="M441.5,31.07c-1.6,8.99-2.57,17.35-2.91,25.08-2.22,8.37-3.19,15.48-5.06,23.5l-5.08,23.51-1.25-20.59,2.71-12.01c.92-4.02,1.73-7.92,2.85-12.14,2.18-8.38,5.1-17.5,8.74-27.36Z"/>
          <polygon class="cls-1" points="427.77 60.9 424.44 64.12 437.37 77.47 440.5 74.45 427.77 60.9"/>
          <polygon class="cls-1" points="424.56 64.22 421.09 67.18 433.15 81.3 436.63 78.35 424.56 64.22"/>
          <path class="cls-1" d="M440.37,74.36l2.93-2.41c-3.8-4.94-7.52-9.95-11.16-15.04l-3.61,3.09c3.87,4.87,7.81,9.65,11.83,14.36Z"/>
        </g>
        <g>
          <path class="cls-1" d="M382.89,137.88c-22.9,23.09-44.9,23.71-70.03,49.06l-3.68-3.65c25.13-25.35,47.13-25.97,70.03-49.07"/>
          <path class="cls-1" d="M367.69,122.81c-24.36,24.57-25.62,47.4-47.81,69.78l-3.68-3.65c22.2-22.39,23.45-45.22,47.81-69.79"/>
          <path class="cls-1" d="M260.98,260.83c22.9-23.09,23.33-45.1,48.46-70.45l-3.68-3.65c-25.13,25.35-25.57,47.35-48.47,70.44"/>
          <path class="cls-1" d="M245.77,245.76c24.36-24.57,47.18-26.02,69.37-48.41l-3.68-3.65c-22.2,22.39-45.02,23.83-69.38,48.4"/>
          <polygon class="cls-1" points="344.06 189.71 324.05 186.71 276 195.62 297.21 197.2 344.06 189.71"/>
          <polygon class="cls-1" points="316.14 157.51 316.69 179.1 306.53 226.13 305.28 205.54 316.14 157.51"/>
          <polygon class="cls-1" points="305.8 183.92 302.52 187.08 315.45 200.43 318.73 197.26 305.8 183.92"/>
          <polygon class="cls-1" points="302.64 187.18 299.17 190.13 311.23 204.26 314.71 201.31 302.64 187.18"/>
          <polygon class="cls-1" points="318.59 197.18 322.06 194.23 309.99 180.1 306.52 183.05 318.59 197.18"/>
        </g>
        <g>
          <path class="cls-1" d="M260.97,260.84c-22.9,23.09-44.9,23.71-70.03,49.06l-3.68-3.65c25.13-25.35,47.13-25.97,70.03-49.07"/>
          <path class="cls-1" d="M245.77,245.76c-24.36,24.57-25.62,47.4-47.81,69.78l-3.68-3.65c22.2-22.39,23.45-45.22,47.81-69.79"/>
          <path class="cls-1" d="M139.06,383.79c22.9-23.09,23.33-45.1,48.46-70.45l-3.68-3.65c-25.13,25.35-25.57,47.35-48.47,70.44"/>
          <path class="cls-1" d="M123.86,368.72c24.36-24.57,47.18-26.02,69.37-48.41l-3.68-3.65c-22.2,22.39-45.02,23.83-69.38,48.4"/>
          <polygon class="cls-1" points="222.14 312.67 202.13 309.67 154.08 318.58 175.29 320.16 222.14 312.67"/>
          <polygon class="cls-1" points="194.22 280.46 194.77 302.06 184.61 349.09 183.36 328.5 194.22 280.46"/>
          <polygon class="cls-1" points="183.88 306.88 180.6 310.04 193.53 323.38 196.81 320.22 183.88 306.88"/>
          <polygon class="cls-1" points="180.72 310.14 177.25 313.09 189.31 327.21 192.79 324.27 180.72 310.14"/>
          <polygon class="cls-1" points="196.67 320.14 200.14 317.19 188.08 303.06 184.6 306.01 196.67 320.14"/>
        </g>
        <g>
          <path class="cls-1" d="M139.05,383.8c-22.9,23.09-44.9,23.71-70.03,49.06l-3.68-3.65c25.13-25.35,47.13-25.97,70.03-49.07"/>
          <path class="cls-1" d="M123.85,368.72c-24.36,24.57-25.62,47.4-47.81,69.78l-3.68-3.65c22.2-22.39,23.45-45.22,47.81-69.79"/>
          <path class="cls-1" d="M33.76,496.74c-.3-3.95.65-7.63,2.2-10.29,1.63-2.6,2.96-5.08,4.1-7.65,2.29-5.12,4.06-10.49,6.95-16.54,1.81-3.81,4.07-7.89,7.09-12.24,3.01-4.35,6.79-8.96,11.51-13.72l-3.68-3.65c-5,5.04-9.04,9.92-12.29,14.51-3.26,4.59-5.73,8.89-7.76,12.91-3.22,6.38-5.3,12.07-7.92,17.52-1.3,2.74-2.81,5.38-4.61,8.17-1.73,2.85-2.78,6.8-2.46,11.05"/>
          <path class="cls-1" d="M6.49,497c-.38-5.25,1.81-10.13,5.37-13.37,3.61-3.21,7.39-6.07,11.18-8.71,7.78-5.23,15.33-9.43,22.28-13.37,4.86-2.75,9.44-5.39,13.76-8.3,4.32-2.91,8.37-6.09,12.31-10.06l-3.72-3.62c-4.21,4.24-8.5,7.66-13.06,10.81-4.55,3.14-9.35,6-14.42,8.97-7.27,4.24-15.14,8.78-22.68,14.44-3.75,2.83-7.48,5.87-10.99,9.27-3.46,3.42-5.6,8.51-5.23,13.99"/>
          <path class="cls-1" d="M100.22,435.63l-20.01-3-12.01,2.23-6,1.11c-2.02.39-4.08.82-6.19,1.3-8.45,1.93-17.64,4.61-27.59,8.05,8.88-1.3,17.17-2,24.86-2.1,4.18-.9,8.18-1.62,12-2.16l2.83-.37c.93-.11,1.84-.2,2.84-.38l5.86-.94,23.42-3.75Z"/>
          <path class="cls-1" d="M72.3,403.42l.54,21.59-2.54,11.76c-.97,4.04-1.4,7.54-1.79,11.01-.74,6.87-.77,13.03-.09,18.49-2.5-4.76-4.44-10.08-5.81-15.98.37-3.46.92-7.11,1.65-10.94.36-1.91.79-3.88,1.25-5.9l1.36-6,5.43-24.02Z"/>
          <polygon class="cls-1" points="61.96 429.84 58.6 433.08 71.94 446.02 74.89 443.18 61.96 429.84"/>
          <path class="cls-1" d="M58.72,433.18l-3.65,3.13c4.35,4.38,8.77,8.68,13.27,12.9l2.98-2.44c-4.28-4.45-8.48-8.98-12.61-13.58Z"/>
          <polygon class="cls-1" points="74.75 443.1 78.22 440.15 66.16 426.02 62.68 428.97 74.75 443.1"/>
        </g>
        <g>
          <path class="cls-1" d="M33.76,496.75c.27,3.21,1.31,6.11,2.76,8.27,1.47,2.15,2.69,4.21,3.74,6.31,2.11,4.18,3.63,8.45,5.51,13.08,1.88,4.63,4.13,9.63,7.49,15.11,1.68,2.73,3.64,5.58,5.94,8.52,1.15,1.47,2.38,2.96,3.71,4.47.66.76,1.35,1.52,2.06,2.28.72.77,1.49,1.58,2.26,2.37l-3.71,3.63c-1.55-1.58-3.05-3.19-4.47-4.8-1.41-1.6-2.73-3.18-3.96-4.73-2.46-3.11-4.57-6.11-6.4-8.99-3.66-5.77-6.17-11.04-8.31-15.94-2.15-4.9-3.92-9.43-6.31-13.89-1.19-2.24-2.56-4.44-4.17-6.75-1.6-2.32-2.73-5.43-3.03-8.88"/>
          <path class="cls-1" d="M6.49,497.01c.33,4.46,2.52,8.37,5.59,11.12,3.07,2.78,6.22,5.35,9.41,7.71,3.16,2.38,6.47,4.53,9.68,6.53,3.21,2,6.35,3.86,9.41,5.62,6.12,3.53,11.86,6.68,17.2,10.09,2.67,1.71,5.24,3.49,7.74,5.44,1.25.98,2.47,2,3.69,3.08,1.23,1.1,2.33,2.14,3.79,3.63l-3.71,3.63c-1.42-1.45-2.65-2.62-3.95-3.79-1.29-1.16-2.59-2.26-3.92-3.31-2.64-2.1-5.35-4.02-8.16-5.87-5.61-3.69-11.62-7.1-17.99-10.9-6.36-3.79-12.98-8.02-19.31-13.09-3.16-2.53-6.26-5.26-9.24-8.2-2.98-2.91-5.11-7-5.43-11.65"/>
          <path class="cls-1" d="M140.38,610.09c-22.76-23.23-44.76-23.98-69.75-49.47l-3.71,3.63c24.98,25.49,46.98,26.25,69.74,49.47"/>
          <path class="cls-1" d="M125.09,625.08c-24.22-24.71-25.34-47.55-47.41-70.06l-3.71,3.63c22.07,22.52,23.18,45.36,47.4,70.07"/>
          <path class="cls-1" d="M74.15,529.77c-2.7,5.02-4.88,10.56-6.55,16.64.15,1.81.35,3.67.59,5.58l1.02,6.02,2.06,12.04,4.11,24.09,1.88-21.19-3.41-23.48c-.12-.96-.32-2-.39-2.89l-.1-2.61c-.05-1.71-.05-3.38,0-5.01.08-3.25.35-6.31.79-9.19Z"/>
          <path class="cls-1" d="M35.34,550.89c8.66,1.41,16.7,2.19,24.12,2.33l46.87,10.82-20.6.95-23.94-5.77c-8.07-2.02-16.91-4.82-26.45-8.33Z"/>
          <polygon class="cls-1" points="64.12 564.17 67.23 567.49 80.76 554.76 77.64 551.43 64.12 564.17"/>
          <polygon class="cls-1" points="67.34 567.38 70.24 570.89 84.53 559.03 81.64 555.51 67.34 567.38"/>
          <polygon class="cls-1" points="77.56 551.57 74.66 548.06 60.36 559.92 63.26 563.44 77.56 551.57"/>
        </g>
        <g>
          <path class="cls-1" d="M140.39,610.1c22.76,23.23,23.07,45.24,48.05,70.73l-3.71,3.63c-24.98-25.49-25.29-47.5-48.06-70.72"/>
          <path class="cls-1" d="M125.1,625.09c24.22,24.71,47.02,26.29,69.09,48.81l-3.71,3.63c-22.07-22.52-44.88-24.09-69.1-48.8"/>
          <path class="cls-1" d="M261.58,733.76c-22.76-23.23-44.76-23.98-69.75-49.47l-3.71,3.63c24.98,25.49,46.98,26.25,69.74,49.47"/>
          <path class="cls-1" d="M246.29,748.75c-24.22-24.71-25.34-47.55-47.41-70.06l-3.71,3.63c22.07,22.51,23.18,45.36,47.4,70.07"/>
          <polygon class="cls-1" points="191.66 649.67 188.37 669.63 196.59 717.8 198.47 696.62 191.66 649.67"/>
          <polygon class="cls-1" points="159.05 677.12 180.65 676.89 227.53 687.71 206.93 688.67 159.05 677.12"/>
          <polygon class="cls-1" points="185.32 687.84 188.43 691.16 201.96 678.43 198.84 675.1 185.32 687.84"/>
          <polygon class="cls-1" points="188.54 691.05 191.44 694.56 205.73 682.7 202.83 679.18 188.54 691.05"/>
          <polygon class="cls-1" points="198.76 675.24 195.86 671.73 181.56 683.59 184.46 687.11 198.76 675.24"/>
        </g>
        <g>
          <path class="cls-1" d="M261.59,733.77c22.76,23.23,23.07,45.24,48.05,70.73l-3.71,3.63c-24.98-25.49-25.29-47.5-48.06-70.72"/>
          <path class="cls-1" d="M246.3,748.75c24.22,24.71,47.02,26.29,69.09,48.81l-3.71,3.63c-22.07-22.52-44.88-24.09-69.1-48.8"/>
          <path class="cls-1" d="M382.78,857.43c-22.76-23.23-44.76-23.98-69.75-49.47l-3.71,3.63c24.98,25.49,46.98,26.25,69.74,49.47"/>
          <path class="cls-1" d="M367.49,872.41c-24.22-24.71-25.34-47.55-47.41-70.06l-3.71,3.63c22.07,22.52,23.18,45.36,47.4,70.07"/>
          <polygon class="cls-1" points="312.85 773.34 309.57 793.3 317.79 841.47 319.67 820.29 312.85 773.34"/>
          <polygon class="cls-1" points="280.25 800.79 301.85 800.56 348.73 811.38 328.13 812.34 280.25 800.79"/>
          <polygon class="cls-1" points="306.52 811.51 309.63 814.83 323.16 802.09 320.04 798.77 306.52 811.51"/>
          <polygon class="cls-1" points="309.74 814.71 312.64 818.23 326.93 806.37 324.03 802.85 309.74 814.71"/>
          <polygon class="cls-1" points="319.96 798.91 317.06 795.4 302.76 807.26 305.66 810.77 319.96 798.91"/>
        </g>
        <g>
          <path class="cls-1" d="M382.79,857.44c22.76,23.23,23.07,45.24,48.05,70.73l-3.71,3.63c-24.98-25.49-25.29-47.5-48.06-70.72"/>
          <path class="cls-1" d="M367.5,872.42c24.22,24.71,47.02,26.29,69.09,48.81l-3.71,3.63c-22.07-22.52-44.88-24.09-69.1-48.8"/>
          <path class="cls-1" d="M503.98,981.1c-22.76-23.23-44.76-23.98-69.75-49.47l-3.71,3.63c24.98,25.49,46.98,26.25,69.74,49.47"/>
          <path class="cls-1" d="M488.69,996.08c-24.22-24.71-25.34-47.55-47.41-70.06l-3.71,3.63c22.07,22.52,23.18,45.36,47.4,70.07"/>
          <polygon class="cls-1" points="434.05 897 430.77 916.97 438.99 965.14 440.87 943.96 434.05 897"/>
          <polygon class="cls-1" points="401.45 924.46 423.05 924.22 469.93 935.05 449.33 936 401.45 924.46"/>
          <polygon class="cls-1" points="427.71 935.18 430.83 938.5 444.36 925.76 441.24 922.44 427.71 935.18"/>
          <polygon class="cls-1" points="430.94 938.38 433.84 941.9 448.13 930.04 445.23 926.52 430.94 938.38"/>
          <polygon class="cls-1" points="441.16 922.58 438.26 919.07 423.96 930.93 426.86 934.44 441.16 922.58"/>
        </g>
      </g>
      <g>
        <g>
          <path class="cls-1" d="M566.71,762.07c20.58-24.83,42.36-27.31,64.95-54.57l3.99,3.31c-22.59,27.26-44.36,29.74-64.95,54.57"/>
          <path class="cls-1" d="M583.2,775.73c21.9-26.42,21.03-49.16,40.98-73.23l3.99,3.31c-19.95,24.07-19.08,46.82-40.97,73.24"/>
          <path class="cls-1" d="M676.3,629.85c-20.58,24.83-18.97,46.69-41.56,73.95l3.99,3.31c22.59-27.26,20.99-49.11,41.57-73.95"/>
          <path class="cls-1" d="M692.78,643.51c-21.9,26.42-44.4,29.79-64.36,53.86l3.99,3.31c19.95-24.07,42.47-27.44,64.36-53.86"/>
          <polygon class="cls-1" points="600.44 707.39 620.57 708.68 667.43 695.78 646.24 696 600.44 707.39"/>
          <polygon class="cls-1" points="631.13 736.96 628.59 715.6 634.31 668.11 637.45 688.42 631.13 736.96"/>
          <polygon class="cls-1" points="638.94 709.9 641.9 706.49 627.84 694.35 624.88 697.76 638.94 709.9"/>
          <polygon class="cls-1" points="641.78 706.39 644.95 703.18 631.67 690.19 628.49 693.41 641.78 706.39"/>
          <polygon class="cls-1" points="625.02 697.83 621.85 701.05 635.14 714.04 638.31 710.82 625.02 697.83"/>
        </g>
        <g>
          <path class="cls-1" d="M676.3,629.84c10.29-12.42,20.88-19.24,31.72-26.37,5.42-3.56,10.9-7.21,16.44-11.66.69-.56,1.38-1.13,2.08-1.71.66-.56,1.33-1.13,2.01-1.71,1.34-1.16,2.69-2.4,4.05-3.71,2.72-2.63,5.48-5.58,8.21-8.88l4.77,2.38c-11.76,14.19-22.7,21.44-33.56,28.6-10.84,7.13-21.43,13.96-31.72,26.38"/>
          <path class="cls-1" d="M692.79,643.5c10.95-13.21,16.21-25.5,21.22-37.5,2.51-6,4.95-11.92,8.02-17.85.82-1.54,1.46-2.83,2.18-4.15.72-1.32,1.47-2.63,2.28-3.93,1.61-2.6,3.43-5.16,5.59-7.76l4.73,2.42c-2.3,2.78-4.26,5.51-6.01,8.27-.87,1.38-1.69,2.77-2.48,4.16-.78,1.4-1.51,2.79-2.3,4.3-3.07,5.93-5.51,11.86-8.02,17.86-5.01,12-10.27,24.29-21.22,37.5"/>
          <path class="cls-1" d="M742.53,513.15c2.23,1.87,4.55,3.56,6.99,5.16,2.5,1.54,4.7,3.49,6.46,5.66,3.51,4.32,5.32,9.41,5.01,13.62l-.06.79-.14.75c-.08.51-.21.99-.34,1.48-.25.98-.53,1.98-.83,3.01-.6,2.05-1.32,4.21-2.24,6.49-1.83,4.55-4.47,9.63-8.4,15.27-1.46,2.12-3.23,4.45-5.21,6.84l4.95,2.16c2.11-2.54,3.99-5.01,5.55-7.26,4.18-5.98,7.09-11.35,9.15-16.18,1.03-2.42,1.86-4.71,2.58-6.89.36-1.09.68-2.16.99-3.21.16-.52.31-1.04.42-1.58l.18-.8.09-.85c.48-4.5-1.3-9.96-4.95-14.61-1.83-2.33-4.14-4.43-6.79-6.1-2.6-1.73-5.08-3.55-7.47-5.56"/>
          <path class="cls-1" d="M766.69,505.88c2.97,2.62,5.56,5.15,7.85,7.56,2.27,2.42,3.73,5.39,4.14,8.53.27,1.55.19,3.15.02,4.71-.16.78-.23,1.56-.57,2.33l-.43,1.15-.54,1.12c-1.46,2.97-3.72,5.65-6.44,7.83-5.6,4.26-11.13,8.01-16.18,11.79-5.07,3.77-9.73,7.5-13.97,11.71-1.63,1.61-3.26,3.38-4.84,5.28l4.98,2.12c1.68-2.03,3.41-3.92,5.14-5.65,4.48-4.51,9.37-8.51,14.66-12.55,5.22-4.04,11.2-8.05,16.35-12.58,2.55-2.32,4.54-5.13,5.74-8.23.65-1.54.99-3.15,1.26-4.78.16-1.62.24-3.3-.03-4.92-.4-3.28-1.83-6.4-4.03-8.98-2.22-2.55-4.78-5.25-7.74-8.06"/>
          <path class="cls-1" d="M709.92,575.3c5.95,1.34,12.38,2.12,19.27,2.32,8.45-2.23,17.71-5.43,27.78-9.61,8.31-3.44,17.01-7.63,25.38-12.52-4.36,1.67-8.82,3.18-13.18,4.5-4.43,1.33-8.79,2.48-13.09,3.45-2.03.8-4.04,1.56-6.01,2.29-15.42,5.64-28.81,8.83-40.16,9.56Z"/>
          <path class="cls-1" d="M740.72,604.74c-.52-3.45-.59-7.43-1-11.01-.38-3.62-.89-7.07-1.55-10.34.62-8.16.47-15.4-.43-21.72-.75-5.21-2.01-9.8-3.79-13.77,3.87,3.36,7.23,7.34,10.09,11.93.16,1.31.28,2.65.38,4.04.38,5.61.24,11.86-.43,18.73-.33,3.44-.79,7.03-1.38,10.78-.3,1.87-.62,3.79-.99,5.74-.17.96-.4,2-.54,2.92l-.35,2.7Z"/>
          <polygon class="cls-1" points="749.24 576.82 752.36 573.21 734.5 565.65 731.99 568.52 749.24 576.82"/>
          <path class="cls-1" d="M752.2,573.16l3.4-3.49c-5.86-2.6-11.79-5.11-17.78-7.55l-2.8,2.76c5.8,2.68,11.53,5.44,17.19,8.28Z"/>
          <path class="cls-1" d="M732.16,568.56l-2.76,2.72c5.34,3.22,10.62,6.53,15.82,9.92l3.36-3.45c-5.41-3.15-10.88-6.21-16.43-9.2Z"/>
        </g>
        <g>
          <path class="cls-1" d="M742.53,513.14c-4.89-4.1-8.12-8.06-10.89-12.25-2.76-4.18-5.05-8.58-7.73-13.31-1.34-2.36-2.77-4.81-4.39-7.33-.81-1.26-1.67-2.54-2.58-3.84-.46-.65-.92-1.3-1.42-1.97-.53-.69-1.07-1.38-1.62-2.09-4.42-5.57-9.65-11.2-16.42-16.89l3.34-3.97c6.78,5.69,12.01,11.32,16.42,16.89,4.45,5.6,7.81,10.9,10.77,15.86,2.97,4.97,5.53,9.6,8.59,14.03,3.07,4.44,6.62,8.66,11.88,13.07"/>
          <path class="cls-1" d="M766.68,505.87c-6.55-5.79-13.45-10.48-20.14-14.22-6.69-3.76-13.08-6.65-19.08-9.21-2.91-1.23-5.79-2.45-8.71-3.68-1.41-.6-2.79-1.2-4.16-1.82-.66-.29-1.42-.67-2.15-1.03-.73-.38-1.47-.76-2.22-1.14-5.91-3.11-11.82-6.83-17.81-11.86l3.34-3.97c5.99,5.03,11.9,8.75,17.81,11.86,1.47.77,2.98,1.53,4.41,2.2,1.44.67,2.89,1.34,4.37,2,3.06,1.35,6.09,2.69,9.14,4.03,6.27,2.79,12.96,5.92,19.96,9.95,7,4,14.09,9.07,20.63,15.26"/>
          <path class="cls-1" d="M620.11,410.33c24.7,20.75,46.57,19.28,73.68,42.05l3.34-3.97c-27.11-22.77-48.97-21.31-73.67-42.05"/>
          <path class="cls-1" d="M633.88,393.94c26.28,22.07,29.5,44.6,53.44,64.71l3.34-3.97c-23.94-20.11-27.16-42.64-53.43-64.71"/>
          <polygon class="cls-1" points="697.16 486.69 698.58 466.56 685.98 419.62 686.07 440.82 697.16 486.69"/>
          <polygon class="cls-1" points="726.93 456.19 705.55 458.59 658.1 452.57 678.43 449.55 726.93 456.19"/>
          <polygon class="cls-1" points="699.92 448.2 696.52 445.22 684.29 459.21 687.69 462.19 699.92 448.2"/>
          <polygon class="cls-1" points="696.43 445.35 693.23 442.15 680.17 455.35 683.36 458.55 696.43 445.35"/>
          <polygon class="cls-1" points="687.76 462.04 690.96 465.24 704.03 452.04 700.83 448.85 687.76 462.04"/>
        </g>
        <g>
          <path class="cls-1" d="M620.11,410.32c-24.7-20.75-27.03-42.54-54.14-65.31l3.34-3.97c27.11,22.77,29.44,44.56,54.14,65.3"/>
          <path class="cls-1" d="M633.87,393.93c-26.28-22.07-49.02-21.35-72.96-41.46l3.34-3.97c23.94,20.11,46.69,19.38,72.97,41.45"/>
          <path class="cls-1" d="M500.52,309.99c1.25.86,2.31,1.8,3.43,2.57,1.1.79,2.17,1.5,3.23,2.15,2.12,1.29,4.18,2.32,6.25,3.21,4.13,1.77,8.29,2.99,12.77,4.42,9.98,3.17,21.71,7.51,36.08,19.58l3.34-3.97c-1.79-1.5-3.55-2.9-5.29-4.2-1.74-1.3-3.53-2.57-5.24-3.7-3.44-2.29-6.75-4.22-9.91-5.86-6.32-3.28-12.03-5.4-17.32-7.23-4.75-1.65-9.17-3.09-13.59-5.11-2.21-1.01-4.42-2.16-6.69-3.59-1.14-.71-2.29-1.49-3.47-2.35-1.2-.84-2.34-1.86-3.68-2.78"/>
          <path class="cls-1" d="M500.15,282.72c.82.52,1.58,1.12,2.31,1.73.74.62,1.47,1.24,2.19,1.84,1.44,1.24,2.82,2.49,4.18,3.77,2.7,2.55,5.23,5.19,7.59,7.86,4.73,5.35,8.74,10.9,12.34,16.11,4.47,6.46,8.31,12.54,12.34,18.11,2.02,2.79,4.1,5.46,6.38,8.02.57.64,1.15,1.27,1.75,1.9.3.31.6.62.91.94l.47.47.55.53c1.47,1.41,3.02,2.8,4.67,4.19l3.34-3.97c-1.65-1.39-3.2-2.78-4.67-4.19-1.44-1.39-2.65-2.66-3.9-4.03-2.45-2.71-4.69-5.51-6.88-8.44-4.36-5.84-8.5-12.18-13.28-18.9-3.86-5.44-8.17-11.07-13.2-16.42-1.25-1.33-2.55-2.65-3.9-3.96-1.34-1.28-2.72-2.55-4.15-3.81-1.43-1.26-2.88-2.45-4.39-3.65-.75-.58-1.52-1.17-2.29-1.77-.77-.59-1.56-1.15-2.41-1.65"/>
          <path class="cls-1" d="M565.65,376.24l1.42-20.12-6.3-23.47c-2.2-7.91-5.29-16.57-9.15-25.87,1.61,8.39,2.58,16.25,2.9,23.56l11.13,45.91Z"/>
          <path class="cls-1" d="M595.43,345.74l-21.38,2.4-23.72-3.01c-1.03-.16-1.88-.17-2.76-.2l-2.58-.06c-1.7-.02-3.35,0-4.95.07-3.21.12-6.23.41-9.05.85,4.88-2.6,10.37-4.68,16.47-6.25,1.81.1,3.66.24,5.57.42,1.97.23,4.03.54,6.04.81l12.13,1.66,24.25,3.32Z"/>
          <polygon class="cls-1" points="568.41 337.75 565.02 334.77 552.79 348.76 556.18 351.74 568.41 337.75"/>
          <path class="cls-1" d="M564.93,334.9l-3.2-3.19c-4.34,4.41-8.75,8.76-13.01,13.25l3.13,3.15,13.07-13.2Z"/>
          <polygon class="cls-1" points="556.25 351.59 559.45 354.79 572.52 341.59 569.33 338.39 556.25 351.59"/>
        </g>
        <g>
          <path class="cls-1" d="M500.52,309.99c-2.69-1.76-5.92-2.46-8.75-2.29-1.42.08-2.75.38-3.91.83-1.18.44-2.11,1.08-3.06,1.66-3.8,2.31-7.69,3.99-11.92,6.07-4.22,2.07-8.77,4.54-13.72,8.22-4.94,3.66-10.29,8.56-15.8,15.12l-3.58-3.8c5.85-6.96,11.49-12.21,16.69-16.19,5.22-4,10.01-6.75,14.46-9.11,4.46-2.36,8.59-4.32,12.64-6.93,1.01-.65,2.01-1.38,3.27-1.88,1.24-.51,2.67-.85,4.19-.96,3.03-.23,6.51.5,9.4,2.39"/>
          <path class="cls-1" d="M500.14,282.71c-3.71-2.28-8.21-2.44-11.86-.84-1.83.78-3.47,1.97-4.81,3.43-1.34,1.47-2.35,3.23-3.42,4.89-1.05,1.7-2.07,3.34-3.01,5.11-.95,1.76-1.86,3.51-2.73,5.25-1.75,3.47-3.36,6.86-4.9,10.16-3.07,6.6-5.8,12.8-8.78,18.57-2.99,5.78-6.23,11.1-10.56,16.27l-3.55-3.84c4.63-5.52,8.13-11.16,11.37-17.23,3.24-6.04,6.18-12.58,9.51-19.39,3.33-6.76,7.1-13.68,11.6-20.24,1.15-1.64,2.23-3.34,3.64-4.78,1.42-1.43,3.14-2.6,5.05-3.37,3.81-1.59,8.5-1.47,12.37.7"/>
          <path class="cls-1" d="M398.44,416.7c10.37-12.35,15.19-23.99,20.26-35.94,2.54-5.97,5.14-12.02,8.52-18.27,1.69-3.12,3.59-6.3,5.76-9.54,1.09-1.62,2.25-3.26,3.5-4.91,1.24-1.65,2.49-3.24,3.88-4.89l-3.77-3.58c-1.45,1.73-2.84,3.48-4.09,5.13-1.25,1.66-2.41,3.29-3.5,4.91-2.18,3.24-4.07,6.41-5.77,9.54-3.39,6.25-5.99,12.29-8.53,18.26-5.07,11.94-9.9,23.58-20.27,35.93"/>
          <path class="cls-1" d="M382.04,402.93c11.03-13.14,22.18-20.51,33.09-27.59,5.45-3.54,10.84-7.01,16.13-11.09,2.64-2.04,5.26-4.23,7.84-6.66,1.29-1.22,2.58-2.49,3.85-3.84.58-.63,1.17-1.26,1.77-1.91.55-.61,1.1-1.24,1.64-1.88l-3.8-3.54c-.58.69-1.16,1.36-1.75,2.02-.3.32-.59.65-.88.97-.32.34-.63.68-.95,1.01-1.28,1.35-2.56,2.62-3.85,3.84-2.58,2.43-5.2,4.62-7.84,6.66-5.29,4.08-10.68,7.55-16.13,11.09-10.91,7.08-22.06,14.45-33.09,27.59"/>
          <path class="cls-1" d="M468.83,346.76c-4.72-2.84-9.92-5.11-15.59-6.82-3.34.37-6.85.94-10.53,1.71-1.84.39-3.72.82-5.65,1.31-1.92.48-3.91,1.05-5.86,1.57l-23.47,6.3,21.2-.09,5.73-1.39c1.9-.45,3.86-.97,5.67-1.3,3.66-.73,7.15-1.26,10.48-1.59,6.66-.67,12.67-.57,18.02.3Z"/>
          <path class="cls-1" d="M448.08,305.39c-1.03,9.31-1.49,17.94-1.39,25.9-.79,4.3-1.42,8.41-1.89,12.32-.24,1.96-.43,3.87-.59,5.73-.17,1.88-.2,3.59-.51,5.65l-3.01,23.72-3.01-20.33c1.22-8.22,1.85-15.73,3.54-24.52,1.63-8.71,3.92-18.2,6.87-28.48Z"/>
          <polygon class="cls-1" points="436.54 336.62 433.42 340.18 447.06 352.83 449.56 350.01 436.54 336.62"/>
          <path class="cls-1" d="M433.54,340.28l-3.28,3.3,13.19,13.07,1.6-1.6.78-.77.68-.66c-4.39-4.37-8.71-8.82-12.97-13.35Z"/>
          <path class="cls-1" d="M449.42,349.92l2.69-2.6c-3.93-4.91-7.8-9.91-11.59-14.98l-3.3,3.32c4,4.84,8.06,9.59,12.2,14.26Z"/>
        </g>
        <g>
          <path class="cls-1" d="M398.43,416.71c-20.75,24.7-42.54,27.03-65.31,54.14l-3.97-3.34c22.77-27.11,44.56-29.44,65.3-54.14"/>
          <path class="cls-1" d="M382.04,402.94c-22.07,26.28-21.35,49.02-41.46,72.96l-3.97-3.34c20.11-23.94,19.38-46.69,41.45-72.97"/>
          <path class="cls-1" d="M287.99,548.2c20.75-24.7,19.28-46.57,42.05-73.68l-3.97-3.34c-22.77,27.11-21.31,48.97-42.05,73.67"/>
          <path class="cls-1" d="M271.59,534.43c22.07-26.28,44.6-29.5,64.71-53.44l-3.97-3.34c-20.11,23.94-42.64,27.16-64.71,53.43"/>
          <polygon class="cls-1" points="364.35 471.16 344.22 469.74 297.28 482.33 318.48 482.25 364.35 471.16"/>
          <polygon class="cls-1" points="333.85 441.39 336.25 462.77 330.22 510.22 327.21 489.89 333.85 441.39"/>
          <polygon class="cls-1" points="325.86 468.4 322.88 471.79 336.87 484.02 339.85 480.63 325.86 468.4"/>
          <polygon class="cls-1" points="323 471.89 319.81 475.08 333.01 488.15 336.2 484.96 323 471.89"/>
          <polygon class="cls-1" points="339.7 480.56 342.89 477.36 329.7 464.29 326.5 467.49 339.7 480.56"/>
        </g>
      </g>
      <g>
        <g>
          <path class="cls-1" d="M574.07,562.29c-.04,10.48-3.2,19.52-7.71,26.57-4.56,7.09-10.39,12.32-16.64,16.34-6.28,4.01-13.01,6.87-20.26,9.01-7.27,2.11-15.07,3.52-24.11,3.94l-.23-5.18c8.2-.38,15.28-1.57,21.96-3.38,6.66-1.83,12.92-4.31,18.8-7.9,5.85-3.59,11.36-8.34,15.68-14.84,4.27-6.48,7.26-14.84,7.3-24.57"/>
          <path class="cls-1" d="M552.67,562.29c-.07,7.81-.82,14.66-2.19,21.26-.19.83-.38,1.64-.56,2.45-.19.82-.34,1.66-.61,2.43-.5,1.57-.91,3.21-1.46,4.78-.61,1.58-1.2,3.14-1.8,4.68-.74,1.52-1.48,3.04-2.21,4.54-3.23,5.95-7.63,11.6-13.73,16.15-6.07,4.52-13.97,7.91-23.25,8.46l-.31-5.18c8.55-.51,15.79-3.7,21.3-7.95,5.55-4.28,9.47-9.58,12.29-15.11.64-1.4,1.27-2.8,1.92-4.21.5-1.43,1.01-2.87,1.52-4.32.46-1.44.79-2.95,1.22-4.39.23-.71.35-1.48.49-2.22.15-.74.3-1.48.46-2.23,1.1-6.01,1.67-12.14,1.74-19.14"/>
          <path class="cls-1" d="M431.72,562.31c.04,10.48,3.2,19.52,7.71,26.57,4.56,7.09,10.39,12.32,16.64,16.34,6.28,4.01,13.02,6.87,20.27,9,7.27,2.11,15.07,3.52,24.11,3.94l.22-5.18c-8.2-.38-15.28-1.57-21.96-3.37-6.66-1.83-12.92-4.31-18.81-7.89-5.85-3.59-11.37-8.33-15.68-14.84-4.27-6.48-7.27-14.84-7.31-24.57"/>
          <path class="cls-1" d="M453.13,562.3c.07,7.81.83,14.66,2.2,21.26.19.83.38,1.64.57,2.45.18.82.34,1.66.61,2.43.5,1.57.91,3.21,1.47,4.78.61,1.58,1.21,3.14,1.8,4.68.74,1.52,1.48,3.04,2.21,4.54,3.23,5.95,7.63,11.6,13.74,16.15,6.07,4.52,13.97,7.9,23.25,8.46l.31-5.18c-8.55-.51-15.79-3.7-21.31-7.95-5.55-4.28-9.47-9.58-12.29-15.11-.64-1.4-1.27-2.8-1.92-4.21-.5-1.43-1.01-2.87-1.53-4.32-.47-1.44-.79-2.95-1.22-4.39-.23-.71-.35-1.47-.49-2.22-.15-.74-.3-1.48-.46-2.23-1.1-6-1.67-12.14-1.74-19.14"/>
          <path class="cls-1" d="M534.61,635.84c-3.75-1.39-7.3-3.03-10.56-4.78-1.66-.96-3.25-1.95-4.76-2.97-.76-.51-1.5-1.02-2.22-1.54-.72-.51-1.43-1.05-2.13-1.64-8.48-3.05-15.53-7.94-20.68-13.56-5.17-5.62-8.4-12.03-9.75-18.25-.15,3.18.17,6.19.72,9.49.13.84.31,1.62.52,2.4.2.79.42,1.59.66,2.39.24.81.5,1.62.78,2.44.28.83.58,1.65.92,2.41,4.44,6.26,10.83,11.76,18.71,15.98,7.88,4.21,17.39,7.01,27.8,7.63Z"/>
          <path class="cls-1" d="M519.74,595.86c-.18,1.52-.43,3.11-.78,4.7-.38,1.51-.84,3.06-1.38,4.64-.27.78-.55,1.62-.88,2.37-.33.75-.68,1.51-1.05,2.28-.75,1.51-1.56,3.13-2.49,4.62-5.57,5.55-12.94,10.04-21.67,12.92-8.72,2.86-18.81,3.93-29.35,2.62,4.09-.41,8.13-1.39,11.85-2.46,1.84-.49,3.72-1.26,5.47-1.95,1.77-.74,3.44-1.42,5.09-2.31,2.26-.54,4.42-1.07,6.49-1.73,2.1-.77,4.09-1.57,5.99-2.39,1.91-.98,3.72-1.98,5.43-2.99,1.71-1.08,3.31-2.32,4.82-3.46,6.01-4.9,10.2-10.85,12.46-16.86Z"/>
          <path class="cls-1" d="M502.55,611.13l-4.03-.3c-.66,6.16-1.36,12.32-2.1,18.48,1.84.14,3.69.27,5.54.38.24-6.19.43-12.37.58-18.56Z"/>
          <path class="cls-1" d="M498.52,610.98c-.67-.06-1.32-.28-1.97-.43l-1.95-.49c-1.49,6.01-3.16,12-4.99,17.94,1.79.42,3.59.84,5.41,1.23,1.33-6.03,2.5-12.1,3.5-18.25Z"/>
          <path class="cls-1" d="M501.92,629.52c.92.14,1.84.13,2.77.16l2.78.05c.21-6.19.25-12.37.13-18.54l-4.05-.19c-.19,3.1-.41,6.2-.69,9.29-.27,3.07-.58,6.15-.94,9.22Z"/>
        </g>
        <g>
          <path class="cls-1" d="M431.72,562.29c.04-10.48,3.2-19.52,7.71-26.57,4.56-7.09,10.39-12.32,16.64-16.34,6.28-4.01,13.01-6.87,20.26-9.01,7.27-2.11,15.07-3.52,24.11-3.94l.23,5.18c-8.2.38-15.28,1.57-21.96,3.38-6.66,1.83-12.92,4.31-18.8,7.9-5.85,3.59-11.36,8.34-15.68,14.84-4.27,6.48-7.26,14.84-7.3,24.57"/>
          <path class="cls-1" d="M453.13,562.29c.07-7.81.82-14.66,2.19-21.26.19-.83.38-1.64.57-2.45.19-.82.33-1.66.61-2.43.5-1.57.91-3.21,1.46-4.78.61-1.58,1.2-3.14,1.8-4.68.74-1.52,1.48-3.04,2.21-4.54,3.23-5.95,7.63-11.6,13.73-16.15,6.07-4.52,13.97-7.91,23.25-8.46l.31,5.18c-8.55.51-15.79,3.7-21.3,7.95-5.55,4.28-9.47,9.58-12.29,15.11-.64,1.4-1.27,2.8-1.92,4.21-.5,1.43-1.01,2.87-1.52,4.32-.46,1.44-.79,2.95-1.22,4.39-.23.71-.35,1.48-.49,2.22-.15.74-.3,1.48-.46,2.23-1.1,6.01-1.67,12.14-1.74,19.14"/>
          <path class="cls-1" d="M574.07,562.28c-.04-10.48-3.2-19.52-7.71-26.57-4.56-7.09-10.39-12.32-16.64-16.34-6.28-4.01-13.02-6.87-20.27-9-7.27-2.11-15.07-3.52-24.11-3.94l-.22,5.18c8.2.38,15.28,1.57,21.96,3.37,6.66,1.83,12.92,4.31,18.81,7.89,5.85,3.59,11.37,8.33,15.68,14.84,4.27,6.48,7.27,14.84,7.31,24.57"/>
          <path class="cls-1" d="M552.66,562.28c-.07-7.81-.83-14.66-2.2-21.26-.19-.83-.38-1.64-.56-2.45-.18-.82-.34-1.66-.61-2.43-.5-1.57-.91-3.21-1.47-4.78-.61-1.58-1.21-3.14-1.8-4.68-.74-1.52-1.48-3.04-2.21-4.54-3.23-5.95-7.63-11.6-13.74-16.15-6.07-4.52-13.97-7.9-23.25-8.46l-.31,5.18c8.55.51,15.79,3.7,21.31,7.95,5.55,4.28,9.47,9.58,12.29,15.11.64,1.4,1.27,2.8,1.92,4.21.5,1.43,1.01,2.87,1.53,4.32.47,1.44.79,2.95,1.22,4.39.23.71.35,1.47.5,2.22.15.74.3,1.48.46,2.23,1.1,6,1.67,12.14,1.74,19.14"/>
          <path class="cls-1" d="M471.18,488.74c3.75,1.39,7.3,3.03,10.56,4.78,1.66.96,3.25,1.95,4.76,2.97.76.51,1.5,1.02,2.22,1.54.72.51,1.43,1.05,2.13,1.64,8.48,3.05,15.53,7.94,20.68,13.56,5.17,5.62,8.4,12.03,9.75,18.25.15-3.18-.17-6.19-.72-9.49-.13-.84-.31-1.62-.52-2.4-.2-.79-.42-1.59-.66-2.39-.24-.81-.5-1.62-.78-2.44-.28-.83-.58-1.65-.92-2.41-4.44-6.26-10.83-11.76-18.71-15.98-7.88-4.21-17.39-7.01-27.8-7.63Z"/>
          <path class="cls-1" d="M486.06,528.72c.18-1.52.43-3.11.78-4.7.38-1.51.84-3.06,1.38-4.64.27-.78.55-1.62.88-2.37.33-.75.68-1.51,1.05-2.28.75-1.51,1.56-3.13,2.5-4.62,5.57-5.55,12.94-10.04,21.67-12.92,8.72-2.86,18.81-3.93,29.34-2.62-4.09.41-8.13,1.39-11.85,2.46-1.84.49-3.72,1.26-5.47,1.95-1.77.74-3.44,1.42-5.09,2.31-2.26.54-4.42,1.07-6.49,1.73-2.1.77-4.09,1.57-5.99,2.39-1.91.98-3.72,1.98-5.43,2.99-1.71,1.08-3.31,2.32-4.82,3.46-6.01,4.9-10.2,10.85-12.46,16.86Z"/>
          <path class="cls-1" d="M503.24,513.46l4.03.3c.66-6.16,1.36-12.32,2.1-18.48-1.84-.14-3.69-.27-5.54-.38-.24,6.19-.43,12.37-.58,18.56Z"/>
          <path class="cls-1" d="M507.27,513.6c.67.06,1.32.28,1.97.43l1.95.49c1.49-6.01,3.16-12,4.99-17.94-1.79-.42-3.59-.84-5.41-1.23-1.33,6.03-2.5,12.1-3.5,18.25Z"/>
          <path class="cls-1" d="M503.88,495.06c-.92-.14-1.84-.13-2.77-.16l-2.78-.05c-.21,6.19-.25,12.37-.13,18.54l4.05.19c.19-3.1.41-6.2.69-9.29.27-3.07.58-6.15.94-9.22Z"/>
        </g>
      </g>
    </g>
  </g>
</svg>