<?xml version="1.0" encoding="UTF-8"?>
<svg id="Layer_2" data-name="Layer 2" xmlns="http://www.w3.org/2000/svg" viewBox="0 0 348.33 746.26">
  <defs>
    <style>
      .cls-1 {
        fill: #bfbfbf;
        stroke: #000;
        stroke-linecap: round;
        stroke-width: 2.5px;
      }
    </style>
  </defs>
  <g id="Layer_2-2" data-name="Layer 2">
    <g>
      <g>
        <g>
          <path class="cls-1" d="M338.45,9.3c0,28.38-15.19,42.28-15.19,73.42h-5.19c0-31.14,15.18-45.04,15.18-73.42"/>
          <path class="cls-1" d="M317.04,9.3c0,30.19,15.18,45.1,15.18,72.61h-5.19c0-27.51-15.19-42.42-15.19-72.61"/>
          <path class="cls-1" d="M338.45,160.37c0-28.38-15.19-42.28-15.19-73.42h-5.19c0,31.14,15.18,45.04,15.18,73.42"/>
          <path class="cls-1" d="M317.04,160.37c0-30.19,15.18-45.1,15.18-72.61h-5.19c0,27.51-15.19,42.42-15.19,72.61"/>
          <polygon class="cls-1" points="347.37 65.27 331.05 75.7 303.2 110.74 319.37 98.69 347.37 65.27"/>
          <polygon class="cls-1" points="304.87 62.47 320.46 75.51 346.36 110.88 330.98 98.9 304.87 62.47"/>
          <polygon class="cls-1" points="316.12 85.18 316.02 89.16 334.6 89.48 334.7 85.51 316.12 85.18"/>
          <polygon class="cls-1" points="316.18 89.15 315.79 93.11 334.3 94.45 334.69 90.49 316.18 89.15"/>
          <polygon class="cls-1" points="334.54 85.54 334.93 81.58 316.42 80.24 316.03 84.2 334.54 85.54"/>
        </g>
        <g>
          <path class="cls-1" d="M338.45,160.38c0,28.38-15.19,42.28-15.19,73.42h-5.19c0-31.14,15.18-45.04,15.18-73.42"/>
          <path class="cls-1" d="M317.04,160.38c0,30.19,15.18,45.1,15.18,72.61h-5.19c0-27.51-15.19-42.42-15.19-72.61"/>
          <path class="cls-1" d="M338.45,311.45c0-28.38-15.19-42.28-15.19-73.42h-5.19c0,31.14,15.18,45.04,15.18,73.42"/>
          <path class="cls-1" d="M317.04,311.45c0-30.19,15.18-45.1,15.18-72.61h-5.19c0,27.51-15.19,42.42-15.19,72.61"/>
          <polygon class="cls-1" points="347.37 216.35 331.05 226.78 303.2 261.82 319.37 249.77 347.37 216.35"/>
          <polygon class="cls-1" points="304.87 213.54 320.46 226.59 346.36 261.96 330.98 249.97 304.87 213.54"/>
          <polygon class="cls-1" points="316.12 236.26 316.02 240.23 334.6 240.56 334.7 236.58 316.12 236.26"/>
          <polygon class="cls-1" points="316.18 240.23 315.79 244.19 334.3 245.53 334.69 241.56 316.18 240.23"/>
          <polygon class="cls-1" points="334.54 236.62 334.93 232.66 316.42 231.32 316.03 235.28 334.54 236.62"/>
        </g>
      </g>
      <g>
        <g>
          <path class="cls-1" d="M36.29,18.09c0,34.13-15.19,50.85-15.19,88.32h-5.19c0-37.46,15.18-54.18,15.18-88.32"/>
          <path class="cls-1" d="M14.88,18.09c0,36.31,15.18,54.26,15.18,87.34h-5.19c0-33.09-15.19-51.03-15.19-87.34"/>
          <path class="cls-1" d="M36.29,199.81c0-34.13-15.19-50.86-15.19-88.32h-5.19c0,37.46,15.18,54.18,15.18,88.32"/>
          <path class="cls-1" d="M14.88,199.81c0-36.31,15.18-54.26,15.18-87.34h-5.19c0,33.09-15.19,51.03-15.19,87.34"/>
          <polygon class="cls-1" points="45.21 85.41 28.89 97.96 1.04 140.11 17.22 125.61 45.21 85.41"/>
          <polygon class="cls-1" points="2.71 82.04 18.3 97.73 44.2 140.28 28.82 125.86 2.71 82.04"/>
          <rect class="cls-1" x="20.81" y="102.66" width="4.78" height="18.58" transform="translate(-89.21 132.81) rotate(-88.8)"/>
          <polygon class="cls-1" points="14.02 114.13 13.63 118.9 32.14 120.51 32.54 115.74 14.02 114.13"/>
          <polygon class="cls-1" points="32.39 109.8 32.77 105.03 14.26 103.42 13.87 108.19 32.39 109.8"/>
        </g>
        <g>
          <path class="cls-1" d="M36.29,199.82c0,34.13-15.19,50.85-15.19,88.32h-5.19c0-37.46,15.18-54.18,15.18-88.32"/>
          <path class="cls-1" d="M14.88,199.82c0,36.31,15.18,54.26,15.18,87.34h-5.19c0-33.09-15.19-51.03-15.19-87.34"/>
          <path class="cls-1" d="M36.29,381.54c0-34.13-15.19-50.86-15.19-88.32h-5.19c0,37.46,15.18,54.18,15.18,88.32"/>
          <path class="cls-1" d="M14.88,381.54c0-36.31,15.18-54.26,15.18-87.34h-5.19c0,33.09-15.19,51.03-15.19,87.34"/>
          <polygon class="cls-1" points="45.21 267.14 28.89 279.69 1.04 321.84 17.22 307.35 45.21 267.14"/>
          <polygon class="cls-1" points="2.71 263.77 18.3 279.47 44.2 322.02 28.82 307.6 2.71 263.77"/>
          <rect class="cls-1" x="20.81" y="284.39" width="4.78" height="18.58" transform="translate(-270.9 310.75) rotate(-88.8)"/>
          <polygon class="cls-1" points="14.02 295.87 13.63 300.63 32.14 302.24 32.54 297.48 14.02 295.87"/>
          <polygon class="cls-1" points="32.39 291.54 32.77 286.77 14.26 285.16 13.87 289.92 32.39 291.54"/>
        </g>
        <g>
          <path class="cls-1" d="M36.29,381.56c0,34.13-15.19,50.85-15.19,88.32h-5.19c0-37.46,15.18-54.18,15.18-88.32"/>
          <path class="cls-1" d="M14.88,381.56c0,36.31,15.18,54.26,15.18,87.34h-5.19c0-33.09-15.19-51.03-15.19-87.34"/>
          <path class="cls-1" d="M36.29,563.28c0-34.13-15.19-50.86-15.19-88.32h-5.19c0,37.46,15.18,54.18,15.18,88.32"/>
          <path class="cls-1" d="M14.88,563.28c0-36.31,15.18-54.26,15.18-87.34h-5.19c0,33.09-15.19,51.03-15.19,87.34"/>
          <polygon class="cls-1" points="45.21 448.88 28.89 461.43 1.04 503.58 17.22 489.08 45.21 448.88"/>
          <polygon class="cls-1" points="2.71 445.51 18.3 461.2 44.2 503.75 28.82 489.33 2.71 445.51"/>
          <rect class="cls-1" x="20.81" y="466.13" width="4.78" height="18.58" transform="translate(-452.6 488.69) rotate(-88.8)"/>
          <polygon class="cls-1" points="14.02 477.6 13.63 482.37 32.14 483.98 32.54 479.21 14.02 477.6"/>
          <polygon class="cls-1" points="32.39 473.27 32.77 468.5 14.26 466.89 13.87 471.66 32.39 473.27"/>
        </g>
        <g>
          <path class="cls-1" d="M36.29,563.29c0,34.13-15.19,50.85-15.19,88.32h-5.19c0-37.46,15.18-54.18,15.18-88.32"/>
          <path class="cls-1" d="M14.88,563.29c0,36.31,15.18,54.26,15.18,87.34h-5.19c0-33.09-15.19-51.03-15.19-87.34"/>
          <path class="cls-1" d="M36.29,745.01c0-34.13-15.19-50.86-15.19-88.32h-5.19c0,37.46,15.18,54.18,15.18,88.32"/>
          <path class="cls-1" d="M14.88,745.01c0-36.31,15.18-54.26,15.18-87.34h-5.19c0,33.09-15.19,51.03-15.19,87.34"/>
          <polygon class="cls-1" points="45.21 630.61 28.89 643.16 1.04 685.31 17.22 670.82 45.21 630.61"/>
          <polygon class="cls-1" points="2.71 627.24 18.3 642.93 44.2 685.49 28.82 671.07 2.71 627.24"/>
          <rect class="cls-1" x="20.81" y="647.86" width="4.78" height="18.58" transform="translate(-634.29 666.63) rotate(-88.8)"/>
          <polygon class="cls-1" points="14.02 659.34 13.63 664.1 32.14 665.71 32.54 660.95 14.02 659.34"/>
          <polygon class="cls-1" points="32.39 655.01 32.77 650.24 14.26 648.63 13.87 653.39 32.39 655.01"/>
        </g>
      </g>
      <g>
        <g>
          <path class="cls-1" d="M320.33,36.2c-26.86,0-40.01-15.19-69.49-15.19v-5.19c29.48,0,42.63,15.18,69.49,15.18"/>
          <path class="cls-1" d="M320.33,14.8c-28.57,0-42.69,15.18-68.72,15.18v-5.19c26.03,0,40.15-15.19,68.72-15.19"/>
          <path class="cls-1" d="M177.35,36.2c26.86,0,40.01-15.19,69.49-15.19v-5.19c-29.47,0-42.63,15.18-69.49,15.18"/>
          <path class="cls-1" d="M177.35,14.8c28.57,0,42.69,15.18,68.72,15.18v-5.19c-26.03,0-40.15-15.19-68.72-15.19"/>
          <polygon class="cls-1" points="267.36 45.12 257.49 28.8 224.32 .96 235.73 17.13 267.36 45.12"/>
          <polygon class="cls-1" points="270.01 2.62 257.67 18.22 224.19 44.12 235.53 28.74 270.01 2.62"/>
          <polygon class="cls-1" points="248.51 13.88 244.75 13.78 244.45 32.36 248.21 32.46 248.51 13.88"/>
          <polygon class="cls-1" points="244.76 13.94 241.01 13.55 239.74 32.06 243.49 32.45 244.76 13.94"/>
          <polygon class="cls-1" points="248.17 32.3 251.92 32.69 253.19 14.17 249.44 13.78 248.17 32.3"/>
        </g>
        <g>
          <path class="cls-1" d="M177.34,36.2c-26.86,0-40.01-15.19-69.49-15.19v-5.19c29.48,0,42.63,15.18,69.49,15.18"/>
          <path class="cls-1" d="M177.34,14.8c-28.57,0-42.69,15.18-68.72,15.18v-5.19c26.03,0,40.15-15.19,68.72-15.19"/>
          <path class="cls-1" d="M34.36,36.2c26.86,0,40.01-15.19,69.49-15.19v-5.19c-29.47,0-42.63,15.18-69.49,15.18"/>
          <path class="cls-1" d="M34.36,14.8c28.57,0,42.69,15.18,68.72,15.18v-5.19c-26.03,0-40.15-15.19-68.72-15.19"/>
          <polygon class="cls-1" points="124.37 45.12 114.5 28.8 81.33 .96 92.74 17.13 124.37 45.12"/>
          <polygon class="cls-1" points="127.02 2.62 114.68 18.22 81.2 44.12 92.54 28.74 127.02 2.62"/>
          <polygon class="cls-1" points="105.52 13.88 101.76 13.78 101.46 32.36 105.22 32.46 105.52 13.88"/>
          <polygon class="cls-1" points="101.77 13.94 98.02 13.55 96.75 32.06 100.5 32.45 101.77 13.94"/>
          <polygon class="cls-1" points="105.18 32.3 108.93 32.69 110.2 14.17 106.45 13.78 105.18 32.3"/>
        </g>
      </g>
    </g>
  </g>
</svg>