<?xml version="1.0" encoding="UTF-8"?>
<svg id="Layer_2" data-name="Layer 2" xmlns="http://www.w3.org/2000/svg" viewBox="0 0 495.12 1040.31">
  <defs>
    <style>
      .cls-1 {
        fill: #bfbfbf;
        stroke: #000;
        stroke-linecap: round;
        stroke-width: 2.5px;
      }
    </style>
  </defs>
  <g id="Layer_2-2" data-name="Layer 2">
    <g>
      <g>
        <g>
          <path class="cls-1" d="M493.87,32.68c-28.09,14.04-48.64,7.34-79.47,22.75l-2.32-4.64c30.83-15.41,51.38-8.72,79.47-22.76"/>
          <path class="cls-1" d="M484.29,13.53c-29.88,14.94-37.86,35.9-65.09,49.52l-2.32-4.64c27.23-13.61,35.2-34.58,65.08-49.52"/>
          <path class="cls-1" d="M344.33,107.45c28.09-14.04,35.06-34.51,65.89-49.92l-2.32-4.64c-30.83,15.41-37.8,35.87-65.89,49.92"/>
          <path class="cls-1" d="M334.75,88.3c29.88-14.94,51.44-8.75,78.66-22.36l-2.32-4.64c-27.23,13.61-48.79,7.41-78.67,22.35"/>
          <polygon class="cls-1" points="442.46 68.36 424.83 58.92 377.69 51.36 396.86 59.86 442.46 68.36"/>
          <polygon class="cls-1" points="426.22 28.96 420.28 49.36 396.85 90.03 401.84 70.34 426.22 28.96"/>
          <polygon class="cls-1" points="408.77 50.27 404.79 52.14 412.78 68.92 416.76 67.04 408.77 50.27"/>
          <polygon class="cls-1" points="404.87 52.28 400.78 53.89 407.73 71.11 411.83 69.5 404.87 52.28"/>
          <polygon class="cls-1" points="416.65 66.92 420.75 65.3 413.79 48.08 409.7 49.7 416.65 66.92"/>
        </g>
        <g>
          <path class="cls-1" d="M344.32,107.45c-28.09,14.04-48.64,7.34-79.47,22.75l-2.32-4.64c30.83-15.41,51.38-8.72,79.47-22.76"/>
          <path class="cls-1" d="M334.74,88.31c-29.88,14.94-37.86,35.9-65.09,49.52l-2.32-4.64c27.23-13.61,35.2-34.58,65.08-49.52"/>
          <path class="cls-1" d="M230.5,181.62c-.41-7.84-1.71-14.63-3.46-20.95l-.17-.59s-.01-.06-.02-.07v.04s-.04.07-.04.07l-.07.14c-.1.18-.19.35-.31.51-.24.32-.49.59-.78.8-.58.42-1.23.6-1.82.58-.3-.02-.57-.07-.83-.19-.13-.06-.24-.12-.35-.19l-.04-.03s-.03-.02.03-.06l.21-.2.43-.41c1.14-1.1,2.27-2.19,3.41-3.29,9.11-8.8,18.56-17.77,33.97-25.48l-2.32-4.64c-15.41,7.71-24.86,16.68-33.97,25.47-1.14,1.1-2.27,2.19-3.41,3.29l-.43.41c-.15.14-.31.29-.29.35-.06.16-.1.32-.13.48-.05.32-.07.61-.03.9.07.56.33,1.03.66,1.33.17.15.34.25.53.32.1.03.18.05.28.07h.07s.03.01.03.01c0-.01.02,0,.04.07l.17.59c1.75,6.31,3.06,13.11,3.46,20.95"/>
          <path class="cls-1" d="M209.12,182.73c-.42-8.36.11-15.62,1.23-22.52.71-3.69,3.35-6.3,6.02-7.18.33-.12.68-.2,1-.28l1.06-.18c.8-.14,1.59-.28,2.38-.41,1.58-.26,3.15-.52,4.72-.78,12.53-2.02,24.72-3.88,38.34-10.68l-2.32-4.64c-13.61,6.81-25.81,8.66-38.34,10.68-1.56.26-3.13.51-4.72.77-.79.14-1.58.27-2.38.41-.35.04-.91.22-1.4.36-.49.18-1,.36-1.48.6-1.96.91-3.79,2.38-5.23,4.3-1.44,1.92-2.48,4.33-2.84,6.98l-.11.98-.1.64c-.06.43-.12.86-.18,1.29-.11.87-.22,1.74-.32,2.63-.2,1.77-.36,3.59-.47,5.45-.22,3.72-.26,7.64-.04,11.81"/>
          <polygon class="cls-1" points="292.9 143.13 275.28 133.7 228.14 126.13 247.3 134.64 292.9 143.13"/>
          <polygon class="cls-1" points="276.67 103.73 270.73 124.13 247.3 164.81 252.29 145.12 276.67 103.73"/>
          <polygon class="cls-1" points="259.22 125.04 255.24 126.92 263.23 143.7 267.2 141.82 259.22 125.04"/>
          <polygon class="cls-1" points="255.32 127.06 251.22 128.67 258.18 145.89 262.27 144.28 255.32 127.06"/>
          <polygon class="cls-1" points="267.1 141.7 271.19 140.08 264.24 122.86 260.14 124.47 267.1 141.7"/>
        </g>
        <g>
          <path class="cls-1" d="M230.5,181.63c1.63,31.36-12.74,47.51-10.95,81.94l-5.18.27c-1.79-34.42,12.57-50.57,10.95-81.94"/>
          <path class="cls-1" d="M209.12,182.74c1.73,33.36,17.75,49.06,19.33,79.46l-5.18.27c-1.58-30.4-17.6-46.1-19.34-79.46"/>
          <path class="cls-1" d="M239.17,348.6c-1.63-31.36-17.59-45.94-19.38-80.36l-5.18.27c1.79,34.42,17.75,49,19.38,80.36"/>
          <path class="cls-1" d="M217.8,349.71c-1.73-33.36,12.57-50.64,10.99-81.04l-5.18.27c1.58,30.4-12.73,47.67-11,81.04"/>
          <polygon class="cls-1" points="242.62 243.03 226.92 255.4 201.13 295.58 216.59 281.42 242.62 243.03"/>
          <polygon class="cls-1" points="200.02 242.13 216.34 255.74 244.24 293.5 228.19 281.05 200.02 242.13"/>
          <polygon class="cls-1" points="212.56 266.66 212.69 271.05 231.26 270.45 231.13 266.05 212.56 266.66"/>
          <polygon class="cls-1" points="212.85 271.04 212.69 275.44 231.25 275.95 231.41 271.56 212.85 271.04"/>
          <polygon class="cls-1" points="230.98 266.1 231.14 261.7 212.57 261.18 212.41 265.58 230.98 266.1"/>
        </g>
        <g>
          <path class="cls-1" d="M239.18,348.61c1.63,31.36-12.74,47.51-10.95,81.94l-5.18.27c-1.79-34.42,12.57-50.57,10.95-81.94"/>
          <path class="cls-1" d="M217.8,349.72c1.73,33.36,17.75,49.06,19.33,79.46l-5.18.27c-1.58-30.4-17.6-46.1-19.34-79.46"/>
          <path class="cls-1" d="M247.85,515.58c-1.63-31.36-17.59-45.94-19.38-80.36l-5.18.27c1.79,34.42,17.75,49,19.38,80.36"/>
          <path class="cls-1" d="M226.47,516.69c-1.73-33.36,12.57-50.64,10.99-81.04l-5.18.27c1.58,30.4-12.73,47.67-11,81.04"/>
          <polygon class="cls-1" points="251.3 410.01 235.6 422.38 209.8 462.56 225.26 448.4 251.3 410.01"/>
          <polygon class="cls-1" points="208.69 409.12 225.01 422.72 252.91 460.48 236.86 448.03 208.69 409.12"/>
          <polygon class="cls-1" points="221.24 433.64 221.37 438.04 239.94 437.43 239.81 433.03 221.24 433.64"/>
          <polygon class="cls-1" points="221.52 438.02 221.36 442.42 239.92 442.94 240.09 438.54 221.52 438.02"/>
          <polygon class="cls-1" points="239.65 433.08 239.81 428.68 221.25 428.16 221.09 432.56 239.65 433.08"/>
        </g>
        <g>
          <path class="cls-1" d="M247.85,515.59c1.63,31.36-12.74,47.51-10.95,81.94l-5.18.27c-1.79-34.42,12.57-50.57,10.95-81.94"/>
          <path class="cls-1" d="M226.47,516.71c1.73,33.36,17.75,49.06,19.33,79.46l-5.18.27c-1.58-30.4-17.6-46.1-19.34-79.46"/>
          <path class="cls-1" d="M256.52,682.56c-1.63-31.36-17.59-45.94-19.38-80.36l-5.18.27c1.79,34.42,17.75,49,19.38,80.36"/>
          <path class="cls-1" d="M235.14,683.67c-1.73-33.36,12.57-50.64,10.99-81.04l-5.18.27c1.58,30.4-12.73,47.67-11,81.04"/>
          <polygon class="cls-1" points="259.97 576.99 244.27 589.36 218.47 629.54 233.94 615.38 259.97 576.99"/>
          <polygon class="cls-1" points="217.37 576.1 233.69 589.7 261.58 627.46 245.54 615.01 217.37 576.1"/>
          <polygon class="cls-1" points="229.91 600.62 230.04 605.02 248.61 604.41 248.48 600.01 229.91 600.62"/>
          <polygon class="cls-1" points="230.2 605 230.04 609.4 248.6 609.92 248.76 605.52 230.2 605"/>
          <polygon class="cls-1" points="248.33 600.06 248.49 595.66 229.92 595.15 229.76 599.54 248.33 600.06"/>
        </g>
        <g>
          <path class="cls-1" d="M256.52,682.58c1.63,31.36-12.74,47.51-10.95,81.94l-5.18.27c-1.79-34.42,12.57-50.57,10.95-81.94"/>
          <path class="cls-1" d="M235.14,683.69c1.73,33.36,17.75,49.06,19.33,79.46l-5.18.27c-1.58-30.4-17.6-46.1-19.34-79.46"/>
          <path class="cls-1" d="M265.2,849.54c-1.63-31.36-17.59-45.94-19.38-80.36l-5.18.27c1.79,34.42,17.75,49,19.38,80.36"/>
          <path class="cls-1" d="M243.82,850.66c-1.73-33.36,12.57-50.64,10.99-81.04l-5.18.27c1.58,30.4-12.73,47.67-11,81.04"/>
          <polygon class="cls-1" points="268.65 743.97 252.95 756.34 227.15 796.52 242.61 782.36 268.65 743.97"/>
          <polygon class="cls-1" points="226.04 743.08 242.36 756.69 270.26 794.44 254.21 781.99 226.04 743.08"/>
          <polygon class="cls-1" points="238.59 767.6 238.72 772 257.29 771.39 257.16 767 238.59 767.6"/>
          <polygon class="cls-1" points="238.87 771.98 238.71 776.38 257.27 776.9 257.44 772.5 238.87 771.98"/>
          <polygon class="cls-1" points="257 767.05 257.16 762.65 238.6 762.13 238.44 766.52 257 767.05"/>
        </g>
        <g>
          <path class="cls-1" d="M203.87,950.97c-35.97,16.55-59.94,10.85-99.42,29.01l-2.17-4.71c39.48-18.16,63.44-12.47,99.42-29.02"/>
          <path class="cls-1" d="M194.92,931.52c-38.27,17.6-50.83,40.09-85.7,56.13l-2.17-4.71c34.87-16.04,47.43-38.54,85.7-56.14"/>
          <path class="cls-1" d="M12.37,1039.06c35.97-16.55,47.25-38.45,86.72-56.61l-2.17-4.71c-39.48,18.16-50.76,40.06-86.73,56.6"/>
          <path class="cls-1" d="M3.42,1019.61c38.27-17.6,63.52-12.51,98.39-28.55l-2.17-4.71c-34.87,16.04-60.12,10.94-98.39,28.54"/>
          <polygon class="cls-1" points="136.65 991.71 116.61 982.97 60.55 978.1 82.59 985.77 136.65 991.71"/>
          <polygon class="cls-1" points="122.44 951.47 112.42 973.24 78.41 1017.4 87.18 996.43 122.44 951.47"/>
          <polygon class="cls-1" points="98.35 974.94 93.27 977.16 100.62 994.23 105.7 992 98.35 974.94"/>
          <polygon class="cls-1" points="93.35 977.3 88.17 979.26 94.2 996.85 99.39 994.9 93.35 977.3"/>
          <polygon class="cls-1" points="105.59 991.88 110.78 989.92 104.74 972.32 99.55 974.28 105.59 991.88"/>
        </g>
        <g>
          <path class="cls-1" d="M192.7,926.7l1.17-.54,1.18-.5,1.19-.47,1.19-.43,1.2-.4,1.2-.37,1.21-.34,1.21-.31,1.21-.28,1.21-.25,1.22-.22,1.22-.2,1.21-.17,1.21-.15,1.21-.12c.4-.03.81-.07,1.21-.1.4-.03.8-.05,1.2-.08.4-.02.8-.04,1.2-.06.4-.01.79-.02,1.19-.04.4,0,.79-.01,1.18-.02.39,0,.78,0,1.17,0,.39,0,.78.01,1.17.02.39.01.77.03,1.16.04.38.02.77.04,1.15.05.38.02.76.05,1.13.07.38.03.75.06,1.12.08.75.07,1.48.14,2.2.21.73.09,1.44.17,2.14.26.7.1,1.4.2,2.08.3.68.11,1.35.22,2,.33.66.12,1.3.24,1.92.36.63.13,1.24.26,1.84.38.6.14,1.18.27,1.74.4.57.14,1.11.27,1.64.4.53.14,1.04.27,1.54.4.49.14.97.27,1.42.4.45.13.89.26,1.3.38.41.13.81.25,1.17.36.37.12.72.23,1.04.34.65.22,1.2.41,1.65.57.9.34,1.39.52,1.39.52-.34-.1-.69-.2-1.04-.29-.35-.09-.7-.18-1.05-.27-.35-.08-.7-.17-1.06-.25-.35-.08-.71-.15-1.07-.23l-1.07-.21-1.08-.18-1.09-.16-1.09-.14-1.09-.13-1.1-.11-1.1-.09-1.1-.07-1.1-.05-1.1-.04-1.1-.02h-1.1s-2.2.02-2.2.02l-2.18.08c-.72.04-1.44.09-2.16.13-.72.06-1.43.12-2.14.17-.71.07-1.41.14-2.1.21-.69.08-1.38.17-2.07.25-.68.09-1.35.19-2.02.28-.66.1-1.32.21-1.97.31-.65.11-1.28.22-1.91.33-.63.12-1.24.23-1.85.34-.6.12-1.2.24-1.78.36-.58.12-1.15.25-1.71.36-.55.13-1.1.25-1.62.37-.53.12-1.04.25-1.54.37-.99.25-1.92.49-2.79.71-.86.23-1.65.45-2.37.64-.71.2-1.34.39-1.89.55-1.09.33-1.84.55-2.18.65"/>
          <path class="cls-1" d="M238.63,850.93c.02.19.03.38.05.58.02.2.05.4.07.61.03.21.06.43.1.65.04.22.08.45.12.68.05.23.09.47.14.71.05.24.11.49.16.74.12.5.25,1.02.38,1.55.15.53.3,1.09.46,1.65.17.56.35,1.15.52,1.74.19.59.39,1.2.59,1.81.21.62.42,1.24.64,1.88.23.64.46,1.28.69,1.93.24.65.48,1.31.73,1.97.51,1.33,1.04,2.67,1.56,4.03.55,1.35,1.1,2.71,1.65,4.07.57,1.35,1.14,2.69,1.69,4.02.57,1.32,1.14,2.62,1.68,3.88.56,1.26,1.1,2.48,1.62,3.65,1.07,2.33,2.04,4.46,2.86,6.25,1.7,3.58,2.78,5.85,2.78,5.85l4.44-1.94c-.3-.55-.6-1.1-.91-1.66-.3-.56-.6-1.13-.9-1.71-.29-.58-.59-1.16-.88-1.75-.29-.59-.57-1.18-.86-1.78-.28-.6-.56-1.2-.85-1.81-.28-.61-.55-1.22-.83-1.83l-.81-1.85-.79-1.86c-.51-1.25-1.01-2.49-1.52-3.73-.48-1.24-.96-2.48-1.43-3.7-.45-1.23-.9-2.44-1.33-3.62-.42-1.19-.83-2.36-1.23-3.5-.39-1.14-.76-2.25-1.12-3.33-.35-1.08-.69-2.12-1.01-3.11-.31-1-.61-1.94-.89-2.84-.27-.9-.53-1.74-.76-2.53-.23-.78-.44-1.51-.63-2.16-.18-.66-.35-1.24-.49-1.75-.14-.51-.25-.94-.34-1.29-.08-.35-.15-.62-.19-.79"/>
          <path class="cls-1" d="M203.87,950.97l1.38-.57,1.39-.55,1.4-.54,1.41-.52c.95-.33,1.89-.66,2.84-.99.95-.32,1.9-.63,2.83-.94,1.89-.61,3.74-1.2,5.55-1.79.9-.29,1.79-.58,2.67-.86.87-.29,1.72-.58,2.56-.86.83-.29,1.64-.58,2.43-.86.39-.15.78-.29,1.16-.44.38-.15.75-.3,1.11-.44.36-.15.72-.3,1.07-.45.35-.16.68-.31,1.02-.46.33-.16.65-.31.97-.47.31-.16.61-.32.91-.48.15-.08.29-.16.43-.24.14-.08.28-.17.42-.25.14-.08.27-.17.4-.25.13-.09.26-.17.39-.25.12-.09.25-.17.37-.26.12-.09.24-.18.35-.26.11-.09.23-.18.34-.27l.32-.27.3-.28.28-.28.26-.28.24-.29c.08-.1.15-.2.22-.29.07-.1.14-.2.2-.3.06-.1.12-.21.18-.31.06-.11.11-.21.16-.31l-.37-3.5c-.23.13-.49.27-.76.42-.28.14-.57.29-.88.45-.31.15-.65.31-.99.47-.35.16-.72.33-1.1.5-.77.33-1.59.69-2.47,1.06-.88.36-1.81.74-2.77,1.13-.97.38-1.97.77-2.99,1.17-1.03.39-2.08.79-3.13,1.19-2.13.78-4.29,1.58-6.4,2.35-2.11.75-4.16,1.48-6.05,2.15-1.89.66-3.62,1.26-5.09,1.77-2.94,1-4.81,1.64-4.81,1.64"/>
          <path class="cls-1" d="M265.2,849.55s.16.85.44,2.37c.13.76.28,1.68.46,2.74.16,1.06.35,2.27.55,3.59.09.66.19,1.35.29,2.07.09.72.19,1.46.29,2.23.09.77.19,1.56.28,2.37.09.81.18,1.65.27,2.5.08.85.16,1.72.25,2.6.07.88.15,1.78.22,2.69.06.91.12,1.83.19,2.76.05.93.09,1.87.14,2.81.03.94.06,1.89.09,2.85l.04,2.86c0,.96-.02,1.91-.03,2.86l-.04,1.43-.06,1.42c-.03.47-.05.94-.08,1.41-.03.47-.07.93-.1,1.4-.04.46-.08.93-.12,1.39-.05.46-.09.92-.14,1.37-.06.45-.11.9-.17,1.35-.06.45-.13.89-.19,1.33-.07.44-.14.88-.21,1.31-.08.43-.16.86-.24,1.28-.09.42-.18.84-.27,1.26-.1.41-.2.82-.29,1.23-.11.4-.22.8-.32,1.2-.12.39-.24.78-.35,1.16-.13.38-.26.76-.38,1.13l-.2.55-.21.54-.22.53-.23.52-.23.51-.24.5-.25.49-.26.48-.27.46-.28.45-.29.44-.3.43-.3.41-.31.4-.32.39-.33.37-.34.36-.35.35-.36.33-.37.32-.19.15-.05.04h-.01s0,0,0,.02v.03s-.02.12-.02.12l-.09.47-5.15,4.39.2-.37.19-.38.18-.39.16-.4.15-.41.14-.42.13-.43.12-.44.1-.45.09-.46.08-.47.07-.48.06-.49.05-.5.04-.51.03-.52.33-.34.32-.35.31-.35.3-.36.3-.37.29-.38.28-.38.27-.39.26-.4.25-.41.25-.41.24-.42.23-.43.22-.43c.14-.29.28-.59.42-.89.13-.3.26-.6.39-.91.12-.31.24-.62.37-.94.11-.32.22-.64.34-.96.1-.32.21-.65.31-.98.09-.33.19-.67.28-1.01.08-.34.17-.68.26-1.03.08-.35.15-.7.23-1.05.07-.35.14-.71.21-1.07.06-.36.12-.72.18-1.09.05-.37.11-.73.16-1.11.05-.37.09-.75.14-1.12.04-.38.08-.76.12-1.14.03-.38.06-.77.1-1.15.03-.39.05-.78.08-1.17.02-.39.04-.79.06-1.18.01-.4.03-.8.04-1.2,0-.4.02-.8.02-1.21,0-.4,0-.81,0-1.22-.01-.82-.02-1.64-.04-2.47-.03-.83-.06-1.67-.09-2.51-.05-.84-.1-1.69-.15-2.54-.06-.85-.13-1.7-.19-2.56-.08-.86-.15-1.71-.23-2.57l-.27-2.58-.29-2.59c-.22-1.72-.43-3.44-.65-5.15-.23-1.71-.46-3.41-.69-5.08-.23-1.68-.46-3.33-.68-4.96-.21-1.63-.42-3.23-.62-4.78"/>
          <polygon class="cls-1" points="266.98 953.48 255.36 937.07 220.59 907.5 233.59 923.92 266.98 953.48"/>
          <polygon class="cls-1" points="269.27 914.29 263.21 916.14 261.69 916.61 261.65 916.62 261.62 916.63 261.61 916.63 261.61 916.63 261.6 916.64 261.56 916.7 261.47 916.82 261.29 917.05 260.94 917.53 259.52 919.43 253.85 927.04 225.6 951.58 235.25 934.91 250.22 923.37 257.71 917.6 259.58 916.15 260.05 915.79 260.1 915.75 260.12 915.74 260.15 915.73 260.2 915.72 260.41 915.69 260.83 915.62 262.52 915.36 269.27 914.29"/>
          <polygon class="cls-1" points="244.78 922.05 241.32 921.6 243.98 939.19 247.44 939.65 244.78 922.05"/>
          <polygon class="cls-1" points="241.36 921.75 237.86 921.03 239.63 938.47 243.13 939.19 241.36 921.75"/>
          <polygon class="cls-1" points="247.38 939.5 250.88 940.22 249.11 922.78 245.61 922.05 247.38 939.5"/>
          <polygon class="cls-1" points="261.49 934.32 261.03 922.98 260.8 917.3 260.77 916.59 260.76 916.24 260.75 916.15 260.75 916.13 260.75 916.12 260.75 916.12 260.76 916.11 260.78 916.08 260.88 915.96 261.63 915.03 263.13 913.17 272.37 879.45 263.13 892.97 257.12 910.51 256.37 912.71 256.19 913.25 256.16 913.32 256.16 913.34 256.16 913.36 256.17 913.41 256.22 913.61 256.32 914 256.72 915.56 258.31 921.82 261.49 934.32"/>
          <polygon class="cls-1" points="293.37 915.2 272.95 910.23 232.63 891.94 252.36 896.21 293.37 915.2"/>
          <polygon class="cls-1" points="272.42 901.89 270.65 898.96 253.43 904.14 255.2 907.07 272.42 901.89"/>
          <polygon class="cls-1" points="270.52 899.01 269.02 896 251.38 900.43 252.87 903.43 270.52 899.01"/>
          <polygon class="cls-1" points="255.32 907 256.81 910.01 274.46 905.59 272.97 902.58 255.32 907"/>
        </g>
      </g>
      <g>
        <path class="cls-1" d="M313.99,1.25c28.58,18.44,34.34,40.23,65.71,60.47l-2.81,4.36c-31.36-20.23-37.13-42.02-65.71-60.46"/>
        <path class="cls-1" d="M302.39,19.24c30.4,19.61,53.65,16.55,81.35,34.42l-2.81,4.36c-27.7-17.87-50.96-14.8-81.36-34.41"/>
        <path class="cls-1" d="M466.13,99.4c-28.58-18.44-50.81-14.71-82.17-34.94l-2.81,4.36c31.36,20.23,53.59,16.51,82.17,34.95"/>
        <path class="cls-1" d="M454.52,117.39c-30.4-19.61-37.19-42.06-64.89-59.93l-2.81,4.36c27.7,17.87,34.49,40.32,64.89,59.94"/>
        <polygon class="cls-1" points="375.19 30.12 376.85 50.61 397.04 96.77 393.67 75.35 375.19 30.12"/>
        <polygon class="cls-1" points="349.33 64.01 370.92 59.38 420.58 60.6 400.17 65.74 349.33 64.01"/>
        <rect class="cls-1" x="376.19" y="60.56" width="18.58" height="4.76" transform="translate(117.59 347.18) rotate(-55.97)"/>
        <polygon class="cls-1" points="382.33 71.84 386.11 74.74 397.49 60.06 393.72 57.15 382.33 71.84"/>
        <polygon class="cls-1" points="388.66 54.07 384.88 51.17 373.49 65.85 377.27 68.75 388.66 54.07"/>
      </g>
    </g>
  </g>
</svg>