<?xml version="1.0" encoding="UTF-8"?>
<svg id="Layer_2" data-name="Layer 2" xmlns="http://www.w3.org/2000/svg" viewBox="0 0 543.54 46.23">
  <defs>
    <style>
      .cls-1 {
        fill: #bfbfbf;
        stroke: #000;
        stroke-linecap: round;
        stroke-width: 2.5px;
      }
    </style>
  </defs>
  <g id="Layer_2-2" data-name="Layer 2">
    <g>
      <g>
        <path class="cls-1" d="M1.25,9.94c33.87,0,50.47,15.19,87.65,15.19v5.19C51.72,30.32,35.12,15.14,1.25,15.14"/>
        <path class="cls-1" d="M1.25,31.35c36.04,0,53.84-15.18,86.68-15.18v5.19c-32.83,0-50.64,15.19-86.68,15.19"/>
        <path class="cls-1" d="M181.59,9.94c-33.87,0-50.47,15.19-87.65,15.19v5.19c37.18,0,53.77-15.18,87.65-15.18"/>
        <path class="cls-1" d="M181.59,31.35c-36.04,0-53.84-15.18-86.68-15.18v5.19c32.83,0,50.64,15.19,86.68,15.19"/>
        <polygon class="cls-1" points="68.06 1.02 80.51 17.34 122.34 45.19 107.96 29.02 68.06 1.02"/>
        <polygon class="cls-1" points="64.72 43.52 80.29 27.93 122.52 2.03 108.2 17.41 64.72 43.52"/>
        <rect class="cls-1" x="85.11" y="20.66" width="18.58" height="4.74" transform="translate(69.38 116.92) rotate(-88.79)"/>
        <polygon class="cls-1" points="96.57 32.21 101.29 32.6 102.89 14.09 98.16 13.7 96.57 32.21"/>
        <polygon class="cls-1" points="92.27 13.85 87.53 13.46 85.94 31.98 90.66 32.36 92.27 13.85"/>
      </g>
      <g>
        <path class="cls-1" d="M181.6,9.94c33.87,0,50.47,15.19,87.65,15.19v5.19c-37.18,0-53.77-15.18-87.65-15.18"/>
        <path class="cls-1" d="M181.6,31.35c36.04,0,53.84-15.18,86.68-15.18v5.19c-32.83,0-50.64,15.19-86.68,15.19"/>
        <path class="cls-1" d="M361.94,9.94c-33.87,0-50.47,15.19-87.65,15.19v5.19c37.18,0,53.77-15.18,87.65-15.18"/>
        <path class="cls-1" d="M361.94,31.35c-36.04,0-53.84-15.18-86.68-15.18v5.19c32.83,0,50.64,15.19,86.68,15.19"/>
        <polygon class="cls-1" points="248.41 1.02 260.86 17.34 302.69 45.19 288.31 29.02 248.41 1.02"/>
        <polygon class="cls-1" points="245.07 43.52 260.64 27.93 302.87 2.03 288.56 17.41 245.07 43.52"/>
        <rect class="cls-1" x="265.46" y="20.66" width="18.58" height="4.74" transform="translate(245.94 297.23) rotate(-88.79)"/>
        <polygon class="cls-1" points="276.92 32.21 281.65 32.6 283.24 14.09 278.52 13.7 276.92 32.21"/>
        <polygon class="cls-1" points="272.62 13.85 267.89 13.46 266.29 31.98 271.02 32.36 272.62 13.85"/>
      </g>
      <g>
        <path class="cls-1" d="M361.95,9.94c33.87,0,50.47,15.19,87.65,15.19v5.19c-37.18,0-53.77-15.18-87.65-15.18"/>
        <path class="cls-1" d="M361.95,31.35c36.04,0,53.84-15.18,86.68-15.18v5.19c-32.83,0-50.64,15.19-86.68,15.19"/>
        <path class="cls-1" d="M542.29,9.94c-33.87,0-50.47,15.19-87.65,15.19v5.19c37.18,0,53.77-15.18,87.65-15.18"/>
        <path class="cls-1" d="M542.29,31.35c-36.04,0-53.84-15.18-86.68-15.18v5.19c32.83,0,50.64,15.19,86.68,15.19"/>
        <polygon class="cls-1" points="428.76 1.02 441.21 17.34 483.05 45.19 468.66 29.02 428.76 1.02"/>
        <polygon class="cls-1" points="425.42 43.52 440.99 27.93 483.22 2.03 468.91 17.41 425.42 43.52"/>
        <rect class="cls-1" x="445.81" y="20.66" width="18.58" height="4.74" transform="translate(422.49 477.55) rotate(-88.79)"/>
        <polygon class="cls-1" points="457.27 32.21 462 32.6 463.6 14.09 458.87 13.7 457.27 32.21"/>
        <polygon class="cls-1" points="452.97 13.85 448.24 13.46 446.64 31.98 451.37 32.36 452.97 13.85"/>
      </g>
    </g>
  </g>
</svg>