<?xml version="1.0" encoding="UTF-8"?>
<svg id="Layer_2" data-name="Layer 2" xmlns="http://www.w3.org/2000/svg" viewBox="0 0 508.93 821.09">
  <defs>
    <style>
      .cls-1 {
        fill: #bfbfbf;
        stroke: #000;
        stroke-linecap: round;
        stroke-width: 2.5px;
      }
    </style>
  </defs>
  <g id="Layer_2-2" data-name="Layer 2">
    <g>
      <g>
        <g>
          <path class="cls-1" d="M14.53,1.25c30.88,13.59,39.88,34.14,73.77,49.05l-2.09,4.75C52.33,40.14,43.31,19.59,12.44,6.01"/>
          <path class="cls-1" d="M5.91,20.85c32.85,14.45,55.19,7.7,85.12,20.87l-2.09,4.75c-29.93-13.17-52.28-6.41-85.12-20.86"/>
          <path class="cls-1" d="M178.91,73.58c-30.88-13.59-52.12-6.34-86-21.25l-2.09,4.75c33.89,14.91,55.13,7.67,86,21.26"/>
          <path class="cls-1" d="M170.29,93.17c-32.85-14.45-42.96-35.49-72.89-48.66l-2.09,4.75c29.93,13.17,40.04,34.21,72.89,48.66"/>
          <polygon class="cls-1" points="79.02 19.88 83.8 39.81 110.71 82.08 104.11 61.5 79.02 19.88"/>
          <polygon class="cls-1" points="58.86 57.44 79.33 49.41 128.25 42.64 109.01 50.98 58.86 57.44"/>
          <rect class="cls-1" x="84.87" y="48.22" width="18.58" height="4.72" transform="translate(8.57 114.61) rotate(-65.04)"/>
          <polygon class="cls-1" points="92.44 59.86 96.6 62.11 105.51 45.81 101.36 43.55 92.44 59.86"/>
          <polygon class="cls-1" points="95.92 41.33 91.76 39.07 82.85 55.38 87 57.63 95.92 41.33"/>
        </g>
        <g>
          <path class="cls-1" d="M178.92,73.58c30.88,13.59,39.88,34.14,73.77,49.05l-2.09,4.75c-33.89-14.91-42.9-35.46-73.77-49.05"/>
          <path class="cls-1" d="M170.3,93.18c32.85,14.45,55.19,7.7,85.12,20.87l-2.09,4.75c-29.93-13.17-52.28-6.41-85.12-20.86"/>
          <path class="cls-1" d="M343.3,145.91c-30.88-13.59-52.12-6.34-86-21.25l-2.09,4.75c33.89,14.91,55.13,7.67,86,21.26"/>
          <path class="cls-1" d="M334.67,165.5c-32.85-14.45-42.96-35.49-72.89-48.66l-2.09,4.75c29.93,13.17,40.04,34.21,72.89,48.66"/>
          <polygon class="cls-1" points="243.41 92.21 248.18 112.14 275.1 154.41 268.5 133.83 243.41 92.21"/>
          <polygon class="cls-1" points="223.24 129.77 243.72 121.74 292.64 114.97 273.4 123.31 223.24 129.77"/>
          <rect class="cls-1" x="249.26" y="120.55" width="18.58" height="4.72" transform="translate(38 305.44) rotate(-65.04)"/>
          <polygon class="cls-1" points="256.83 132.19 260.98 134.44 269.89 118.14 265.74 115.88 256.83 132.19"/>
          <polygon class="cls-1" points="260.31 113.66 256.15 111.41 247.24 127.71 251.39 129.96 260.31 113.66"/>
        </g>
        <g>
          <path class="cls-1" d="M343.31,145.91c30.88,13.59,39.88,34.14,73.77,49.05l-2.09,4.75c-33.89-14.91-42.9-35.46-73.77-49.05"/>
          <path class="cls-1" d="M334.69,165.51c32.85,14.45,55.19,7.7,85.12,20.87l-2.09,4.75c-29.93-13.17-52.28-6.41-85.12-20.86"/>
          <path class="cls-1" d="M507.68,218.24c-30.88-13.59-52.12-6.34-86.01-21.25l-2.09,4.75c33.89,14.91,55.13,7.67,86,21.26"/>
          <path class="cls-1" d="M499.06,237.83c-32.85-14.45-42.96-35.49-72.89-48.66l-2.09,4.75c29.93,13.17,40.04,34.21,72.89,48.66"/>
          <polygon class="cls-1" points="407.8 164.54 412.57 184.47 439.49 226.74 432.89 206.16 407.8 164.54"/>
          <polygon class="cls-1" points="387.63 202.1 408.1 194.07 457.03 187.3 437.79 195.64 387.63 202.1"/>
          <rect class="cls-1" x="413.65" y="192.88" width="18.58" height="4.72" transform="translate(67.44 496.28) rotate(-65.04)"/>
          <polygon class="cls-1" points="421.22 204.52 425.37 206.77 434.28 190.47 430.13 188.21 421.22 204.52"/>
          <polygon class="cls-1" points="424.69 185.99 420.54 183.74 411.63 200.04 415.78 202.29 424.69 185.99"/>
        </g>
      </g>
      <g>
        <g>
          <path class="cls-1" d="M7.23,423.84c30.88,0,46,15.19,79.89,15.19v5.19c-33.89,0-49.01-15.18-79.89-15.18"/>
          <path class="cls-1" d="M7.23,445.25c32.85,0,49.08-15.18,79.01-15.18v5.19c-29.93,0-46.16,15.19-79.01,15.19"/>
          <path class="cls-1" d="M171.61,423.84c-30.88,0-46,15.19-79.89,15.19v5.19c33.89,0,49.01-15.18,79.89-15.18"/>
          <path class="cls-1" d="M171.61,445.25c-32.85,0-49.08-15.18-79.01-15.18v5.19c29.93,0,46.16,15.19,79.01,15.19"/>
          <polygon class="cls-1" points="68.13 414.92 79.48 431.24 117.61 459.08 104.5 442.91 68.13 414.92"/>
          <polygon class="cls-1" points="65.08 457.42 79.28 441.83 117.77 415.93 104.72 431.31 65.08 457.42"/>
          <polygon class="cls-1" points="89.8 446.16 94.12 446.26 94.48 427.69 90.15 427.59 89.8 446.16"/>
          <polygon class="cls-1" points="94.11 446.11 98.42 446.49 99.88 427.99 95.57 427.59 94.11 446.11"/>
          <polygon class="cls-1" points="90.19 427.74 85.88 427.36 84.43 445.87 88.74 446.26 90.19 427.74"/>
        </g>
        <g>
          <path class="cls-1" d="M171.62,423.84c30.88,0,46,15.19,79.89,15.19v5.19c-33.89,0-49.01-15.18-79.89-15.18"/>
          <path class="cls-1" d="M171.62,445.25c32.85,0,49.08-15.18,79.01-15.18v5.19c-29.93,0-46.16,15.19-79.01,15.19"/>
          <path class="cls-1" d="M336,423.84c-30.88,0-46,15.19-79.89,15.19v5.19c33.89,0,49.01-15.18,79.89-15.18"/>
          <path class="cls-1" d="M336,445.25c-32.85,0-49.08-15.18-79.01-15.18v5.19c29.93,0,46.16,15.19,79.01,15.19"/>
          <polygon class="cls-1" points="232.52 414.92 243.87 431.24 282 459.08 268.88 442.91 232.52 414.92"/>
          <polygon class="cls-1" points="229.47 457.42 243.66 441.83 282.16 415.93 269.11 431.31 229.47 457.42"/>
          <polygon class="cls-1" points="254.19 446.16 258.51 446.26 258.86 427.69 254.54 427.59 254.19 446.16"/>
          <polygon class="cls-1" points="258.5 446.11 262.81 446.49 264.27 427.99 259.96 427.59 258.5 446.11"/>
          <polygon class="cls-1" points="254.58 427.74 250.27 427.36 248.81 445.87 253.12 446.26 254.58 427.74"/>
        </g>
        <g>
          <path class="cls-1" d="M336.01,423.84c30.88,0,46,15.19,79.89,15.19v5.19c-33.89,0-49.01-15.18-79.89-15.18"/>
          <path class="cls-1" d="M336.01,445.25c32.85,0,49.08-15.18,79.01-15.18v5.19c-29.93,0-46.16,15.19-79.01,15.19"/>
          <path class="cls-1" d="M500.39,423.84c-30.88,0-46,15.19-79.89,15.19v5.19c33.89,0,49.01-15.18,79.89-15.18"/>
          <path class="cls-1" d="M500.39,445.25c-32.85,0-49.08-15.18-79.01-15.18v5.19c29.93,0,46.16,15.19,79.01,15.19"/>
          <polygon class="cls-1" points="396.91 414.92 408.26 431.24 446.39 459.08 433.27 442.91 396.91 414.92"/>
          <polygon class="cls-1" points="393.86 457.42 408.05 441.83 446.54 415.93 433.5 431.31 393.86 457.42"/>
          <polygon class="cls-1" points="418.58 446.16 422.9 446.26 423.25 427.69 418.93 427.59 418.58 446.16"/>
          <polygon class="cls-1" points="422.89 446.11 427.2 446.49 428.66 427.99 424.35 427.59 422.89 446.11"/>
          <polygon class="cls-1" points="418.97 427.74 414.66 427.36 413.2 445.87 417.51 446.26 418.97 427.74"/>
        </g>
      </g>
      <g>
        <g>
          <path class="cls-1" d="M1.25,794.73c30.88-10.81,51.02-1.76,84.91-13.63l1.71,4.9c-33.89,11.86-54.03,2.83-84.9,13.63"/>
          <path class="cls-1" d="M8.32,814.94c32.85-11.5,44.06-31.51,73.99-41.98l1.71,4.9c-29.93,10.47-41.14,30.49-73.99,41.99"/>
          <path class="cls-1" d="M165.63,737.2c-30.88,10.81-40.99,30.44-74.87,42.3l1.71,4.9c33.89-11.86,44-31.48,74.87-42.29"/>
          <path class="cls-1" d="M172.7,757.4c-32.85,11.5-54.09,2.85-84.02,13.32l1.71,4.9c29.93-10.47,51.18-1.82,84.02-13.32"/>
          <polygon class="cls-1" points="59.2 765 75.94 776.43 123.27 789.37 104.81 778.69 59.2 765"/>
          <polygon class="cls-1" points="70.19 806.18 79.23 786.49 109.17 748.57 101.2 767.66 70.19 806.18"/>
          <polygon class="cls-1" points="91.19 786.9 95.55 785.48 89.76 767.83 85.41 769.24 91.19 786.9"/>
          <polygon class="cls-1" points="95.49 785.34 99.92 784.2 95.27 766.22 90.83 767.35 95.49 785.34"/>
          <rect class="cls-1" x="83.32" y="769.65" width="4.58" height="18.58" transform="translate(-191.87 46.08) rotate(-14.47)"/>
        </g>
        <g>
          <path class="cls-1" d="M165.64,737.19c30.88-10.81,51.02-1.76,84.91-13.63l1.71,4.9c-33.89,11.86-54.03,2.83-84.9,13.63"/>
          <path class="cls-1" d="M172.71,757.4c32.85-11.5,44.06-31.51,73.99-41.98l1.71,4.9c-29.93,10.47-41.14,30.49-73.99,41.99"/>
          <path class="cls-1" d="M330.02,679.66c-30.88,10.81-40.99,30.44-74.87,42.3l1.71,4.9c33.89-11.86,44-31.48,74.87-42.29"/>
          <path class="cls-1" d="M337.09,699.87c-32.85,11.5-54.09,2.85-84.02,13.32l1.71,4.9c29.93-10.47,51.18-1.82,84.02-13.32"/>
          <polygon class="cls-1" points="223.59 707.46 240.33 718.89 287.66 731.83 269.2 721.15 223.59 707.46"/>
          <polygon class="cls-1" points="234.58 748.64 243.62 728.96 273.56 691.04 265.59 710.12 234.58 748.64"/>
          <polygon class="cls-1" points="255.58 729.37 259.93 727.95 254.15 710.29 249.79 711.71 255.58 729.37"/>
          <polygon class="cls-1" points="259.87 727.8 264.31 726.66 259.65 708.68 255.21 709.82 259.87 727.8"/>
          <rect class="cls-1" x="247.7" y="712.12" width="4.58" height="18.58" transform="translate(-172.3 85.33) rotate(-14.47)"/>
        </g>
        <g>
          <path class="cls-1" d="M330.03,679.66c30.88-10.81,51.02-1.76,84.91-13.63l1.71,4.9c-33.89,11.86-54.03,2.83-84.9,13.63"/>
          <path class="cls-1" d="M337.1,699.86c32.85-11.5,44.06-31.51,73.99-41.98l1.71,4.9c-29.93,10.47-41.14,30.49-73.99,41.99"/>
          <path class="cls-1" d="M494.4,622.12c-30.88,10.81-40.99,30.44-74.87,42.3l1.71,4.9c33.89-11.86,44-31.48,74.87-42.29"/>
          <path class="cls-1" d="M501.48,642.33c-32.85,11.5-54.09,2.85-84.02,13.32l1.71,4.9c29.93-10.47,51.18-1.82,84.02-13.32"/>
          <polygon class="cls-1" points="387.98 649.92 404.72 661.36 452.04 674.29 433.59 663.62 387.98 649.92"/>
          <polygon class="cls-1" points="398.97 691.1 408.01 671.42 437.94 633.5 429.98 652.59 398.97 691.1"/>
          <polygon class="cls-1" points="419.97 671.83 424.32 670.41 418.54 652.75 414.18 654.17 419.97 671.83"/>
          <polygon class="cls-1" points="424.26 670.27 428.7 669.12 424.04 651.15 419.6 652.28 424.26 670.27"/>
          <rect class="cls-1" x="412.09" y="654.58" width="4.58" height="18.58" transform="translate(-152.72 124.58) rotate(-14.47)"/>
        </g>
      </g>
    </g>
  </g>
</svg>