<?xml version="1.0" encoding="UTF-8"?>
<svg id="Layer_2" data-name="Layer 2" xmlns="http://www.w3.org/2000/svg" viewBox="0 0 190.69 168.92">
  <defs>
    <style>
      .cls-1 {
        fill: #bfbfbf;
        stroke: #000;
        stroke-linecap: round;
        stroke-width: 2.5px;
      }
    </style>
  </defs>
  <g id="Layer_2-2" data-name="Layer 2">
    <g>
      <path class="cls-1" d="M1.25,147.46c32.1-27.46,57.7-29.38,92.93-59.52l3.37,3.94c-35.23,30.14-60.82,32.06-92.92,59.52"/>
      <path class="cls-1" d="M15.17,163.72c34.15-29.22,41.15-55.19,72.27-81.81l3.37,3.94c-31.11,26.62-38.11,52.6-72.26,81.81"/>
      <path class="cls-1" d="M172.14,1.25c-32.1,27.46-37.95,52.46-73.18,82.6l3.37,3.94c35.23-30.14,41.09-55.13,73.19-82.59"/>
      <path class="cls-1" d="M186.06,17.52c-34.15,29.22-60.89,32.12-92.01,58.74l3.37,3.94c31.11-26.62,57.86-29.52,92.01-58.73"/>
      <polygon class="cls-1" points="58.76 86.51 81.17 88.82 138.91 76.07 114.76 75.44 58.76 86.51"/>
      <polygon class="cls-1" points="83.22 121.52 87.84 97.05 111.02 43.13 107.46 66.42 83.22 121.52"/>
      <polygon class="cls-1" points="101.6 90.98 106.16 87.21 94.45 72.78 89.89 76.55 101.6 90.98"/>
      <polygon class="cls-1" points="106.05 87.1 110.78 83.56 100.26 68.2 95.53 71.74 106.05 87.1"/>
      <polygon class="cls-1" points="90.04 76.63 85.3 80.18 95.82 95.54 100.56 92 90.04 76.63"/>
    </g>
  </g>
</svg>