<?xml version="1.0" encoding="UTF-8"?>
<svg id="Layer_2" data-name="Layer 2" xmlns="http://www.w3.org/2000/svg" viewBox="0 0 883.68 879.94">
  <defs>
    <style>
      .cls-1 {
        fill: #bfbfbf;
        stroke: #000;
        stroke-linecap: round;
        stroke-width: 2.5px;
      }
    </style>
  </defs>
  <g id="Layer_2-2" data-name="Layer 2">
    <g>
      <g>
        <g>
          <path class="cls-1" d="M48.99,240.84c18.56-25.36,39.91-28.82,60.28-56.66l4.19,3.06c-20.37,27.84-41.71,31.3-60.27,56.66"/>
          <path class="cls-1" d="M66.26,253.48c19.74-26.98,17.25-49.28,35.24-73.87l4.19,3.06c-17.99,24.59-15.49,46.89-35.23,73.87"/>
          <path class="cls-1" d="M147.79,105.8c-18.56,25.36-15.39,46.76-35.76,74.6l4.19,3.06c20.37-27.84,17.21-49.23,35.77-74.59"/>
          <path class="cls-1" d="M165.07,118.44c-19.74,26.98-41.75,31.35-59.74,55.94l4.19,3.06c17.99-24.59,40-28.95,59.75-55.93"/>
          <polygon class="cls-1" points="78.39 185.54 98.38 185.86 143.77 170.98 122.84 172.2 78.39 185.54"/>
          <polygon class="cls-1" points="110.86 213.14 106.81 192.28 109.04 145.36 113.61 165.16 110.86 213.14"/>
          <polygon class="cls-1" points="116.63 186.19 119.31 182.7 104.53 171.44 101.85 174.93 116.63 186.19"/>
          <polygon class="cls-1" points="119.18 182.62 122.08 179.3 108.02 167.18 105.11 170.49 119.18 182.62"/>
          <polygon class="cls-1" points="102 174.99 99.1 178.31 113.16 190.43 116.07 187.12 102 174.99"/>
        </g>
        <g>
          <path class="cls-1" d="M305.68,91.52c22.19,21.05,22.62,42.38,46.98,65.48l-3.57,3.76c-24.36-23.1-24.79-44.42-46.98-65.47"/>
          <path class="cls-1" d="M290.95,107.06c23.61,22.39,45.72,22.44,67.24,42.84l-3.57,3.76c-21.51-20.4-43.63-20.44-67.24-42.83"/>
          <path class="cls-1" d="M423.84,203.57c-22.19-21.05-43.52-20.34-67.88-43.44l-3.57,3.76c24.36,23.1,45.68,22.39,67.87,43.44"/>
          <path class="cls-1" d="M409.11,219.11c-23.61-22.39-24.83-44.47-46.35-64.87l-3.57,3.76c21.51,20.4,22.73,42.49,46.34,64.88"/>
          <polygon class="cls-1" points="355.6 126.56 352.52 146.14 360.77 192.34 362.47 171.66 355.6 126.56"/>
          <polygon class="cls-1" points="324.16 155.32 345.09 153.68 390.58 161.13 370.62 163.4 324.16 155.32"/>
          <polygon class="cls-1" points="349.67 164 352.71 167.02 365.75 153.78 362.71 150.76 349.67 164"/>
          <polygon class="cls-1" points="352.81 166.9 355.64 170.12 369.43 157.69 366.6 154.46 352.81 166.9"/>
          <polygon class="cls-1" points="362.63 150.91 359.8 147.69 346.01 160.13 348.84 163.35 362.63 150.91"/>
        </g>
        <g>
          <path class="cls-1" d="M423.85,203.58c22.19,21.05,22.62,42.38,46.98,65.48l-3.57,3.76c-24.36-23.1-24.79-44.42-46.98-65.47"/>
          <path class="cls-1" d="M409.12,219.11c23.61,22.39,45.72,22.44,67.24,42.84l-3.57,3.76c-21.51-20.4-43.63-20.44-67.24-42.83"/>
          <path class="cls-1" d="M542.01,315.63c-22.19-21.05-43.52-20.34-67.88-43.44l-3.57,3.76c24.36,23.1,45.68,22.39,67.87,43.44"/>
          <path class="cls-1" d="M527.28,331.16c-23.61-22.39-24.83-44.47-46.35-64.87l-3.57,3.76c21.51,20.4,22.73,42.49,46.34,64.88"/>
          <polygon class="cls-1" points="473.76 238.62 470.69 258.2 478.94 304.39 480.64 283.72 473.76 238.62"/>
          <polygon class="cls-1" points="442.33 267.38 463.26 265.74 508.75 273.18 488.79 275.45 442.33 267.38"/>
          <polygon class="cls-1" points="467.84 276.06 470.88 279.08 483.92 265.84 480.88 262.82 467.84 276.06"/>
          <polygon class="cls-1" points="470.98 278.96 473.81 282.18 487.59 269.74 484.77 266.52 470.98 278.96"/>
          <polygon class="cls-1" points="480.8 262.96 477.96 259.74 464.18 272.18 467.01 275.4 480.8 262.96"/>
        </g>
        <g>
          <path class="cls-1" d="M542.02,315.64c22.19,21.05,22.62,42.38,46.98,65.48l-3.57,3.76c-24.36-23.1-24.79-44.42-46.98-65.47"/>
          <path class="cls-1" d="M527.29,331.17c23.61,22.39,45.72,22.44,67.24,42.84l-3.57,3.76c-21.51-20.4-43.63-20.44-67.24-42.83"/>
          <path class="cls-1" d="M660.18,427.68c-22.19-21.05-43.52-20.34-67.88-43.44l-3.57,3.76c24.36,23.1,45.68,22.39,67.87,43.44"/>
          <path class="cls-1" d="M645.45,443.22c-23.61-22.39-24.83-44.47-46.35-64.87l-3.57,3.76c21.51,20.4,22.73,42.48,46.34,64.87"/>
          <polygon class="cls-1" points="591.93 350.67 588.86 370.25 597.11 416.45 598.81 395.77 591.93 350.67"/>
          <polygon class="cls-1" points="560.5 379.43 581.43 377.8 626.92 385.24 606.96 387.51 560.5 379.43"/>
          <polygon class="cls-1" points="586.01 388.12 589.05 391.14 602.08 377.9 599.04 374.88 586.01 388.12"/>
          <polygon class="cls-1" points="589.15 391.02 591.98 394.24 605.76 381.8 602.94 378.57 589.15 391.02"/>
          <polygon class="cls-1" points="598.97 375.02 596.13 371.8 582.35 384.24 585.18 387.46 598.97 375.02"/>
        </g>
        <g>
          <path class="cls-1" d="M578.14,609.5c-31.35-2.8-45.36-19.29-79.76-22.36l.46-5.17c34.41,3.07,48.41,19.56,79.76,22.35"/>
          <path class="cls-1" d="M580.05,588.18c-33.35-2.97-51.18,10.68-81.56,7.97l.46-5.17c30.39,2.71,48.22-10.95,81.56-7.98"/>
          <path class="cls-1" d="M427.59,596.08c6.2.55,10.91.02,15.34-1.01,4.42-1.04,8.53-2.57,13.15-4.07,4.61-1.49,9.73-2.94,15.88-3.83,6.17-.88,13.27-1.2,21.74-.44l.46-5.17c-4.3-.38-8.51-.52-12.32-.44-3.83.07-7.37.35-10.65.78-6.56.84-12.04,2.26-17.01,3.72-4.98,1.46-9.45,2.97-14.24,3.97-4.81,1-9.93,1.5-16.59.9"/>
          <path class="cls-1" d="M410.18,573.03c8.66.77,16.93,2.46,24.49,4.57,7.58,2.1,14.48,4.63,20.87,7.1,6.4,2.48,12.29,4.91,18.12,6.85,2.92.97,5.83,1.83,8.82,2.51,1.5.34,3.01.64,4.57.89.78.12,1.56.24,2.36.34.4.05.8.09,1.2.14.46.04.93.09,1.4.14l.46-5.17c-.47-.05-.94-.09-1.41-.14-.43-.05-.86-.1-1.29-.15-.85-.1-1.69-.22-2.52-.35-1.66-.26-3.28-.57-4.88-.92-3.19-.7-6.3-1.57-9.41-2.57-6.21-1.98-12.45-4.45-19.21-6.96-6.75-2.51-14.02-5.06-21.99-7.2-7.96-2.14-16.66-3.87-25.82-4.69"/>
          <path class="cls-1" d="M515.52,612.87l-10.07-17.28-9.06-7.8c-3.05-2.6-5.95-5.19-9.23-7.81-6.53-5.24-14.08-10.57-22.66-16,6.31,5.98,11.8,11.88,16.47,17.71,3.19,2.63,6.13,5.23,8.83,7.81,1.29,1.29,2.77,2.59,4.2,3.89l4.3,3.9,17.22,15.59Z"/>
          <path class="cls-1" d="M522.39,570.82l-15.8,14.24-10.35,5.58-5.17,2.79c-1.59.94-3.04,1.9-4.47,2.85-5.69,3.83-10.42,7.74-14.18,11.74,2.14-4.96,5.05-9.84,8.74-14.66,2.87-1.93,5.98-3.84,9.35-5.72,3.46-1.88,7.07-3.74,10.6-5.61l21.28-11.21Z"/>
          <polygon class="cls-1" points="496.3 579.79 491.91 579.3 490 597.78 494.29 598.26 496.3 579.79"/>
          <path class="cls-1" d="M491.9,579.45l-4.57-.8c-.74,6.13-1.38,12.26-1.92,18.41l3.65.72c.84-6.12,1.79-12.23,2.84-18.34Z"/>
          <polygon class="cls-1" points="494.26 598.1 498.6 598.88 501.73 580.57 497.39 579.79 494.26 598.1"/>
        </g>
        <g>
          <path class="cls-1" d="M427.58,596.07c-6.2-.55-12.45-2.06-19.2-4.09-6.73-2.03-13.94-4.58-21.64-7.17-7.7-2.59-15.9-5.23-24.37-7.41-8.45-2.18-17.2-3.92-25.53-4.66l-9.03-6.01c8.84.79,18.03,2.56,26.88,4.78,8.87,2.22,17.44,4.89,25.49,7.51,8.06,2.62,15.62,5.2,22.73,7.27,7.13,2.06,13.78,3.61,20.45,4.21"/>
          <path class="cls-1" d="M410.17,573.03c-8.66-.77-15.39-.42-20.64.54-5.27.96-9.08,2.52-12.39,4.13-3.31,1.61-6.12,3.26-9.64,4.38-3.53,1.11-7.76,1.69-14.31,1.1l-8.98-6.01c7,.62,11.63.08,15.54-1,3.89-1.08,7.05-2.71,10.72-4.29,3.66-1.58,7.84-3.11,13.5-4.04,5.65-.93,12.8-1.24,21.96-.42"/>
          <path class="cls-1" d="M295.24,584.27c1.35.12,2.54.18,3.46.18,4.62.04,6.73-.9,8.04-2.27,1.29-1.37,1.76-3.17,2.83-4.88,1.06-1.7,2.72-3.31,6.17-4.3,3.44-1,8.7-1.38,16.57-.68l-9.31-6.04c-8.36-.75-14.03-.4-17.86.56-3.84.96-5.85,2.53-7.25,4.2-1.41,1.67-2.22,3.44-3.86,4.78-1.66,1.34-4.14,2.25-9.18,2.17-1.01,0-2.3-.08-3.75-.21"/>
          <path class="cls-1" d="M237.06,557.62c1.74.15,3.54.34,5.22.55,8.78,1.13,18.56,3.12,28.39,5.49,9.85,2.36,19.78,5.09,29.19,7.74,9.42,2.64,18.33,5.2,26.35,7.22,8.04,2.03,15.18,3.52,21.4,4.07l-9.36-6.04c-6.65-.59-14.17-2.12-22.57-4.18-8.38-2.06-17.63-4.64-27.39-7.32-9.75-2.67-20.03-5.44-30.25-7.83-10.21-2.4-20.39-4.42-29.61-5.6-1.73-.21-3.59-.39-5.39-.53"/>
          <path class="cls-1" d="M392.11,601.87c-10.92-6.44-22.56-12.94-34.92-19.5-26.65-11.7-57.42-23.76-92.29-36.19,16.6,6.89,32.37,13.71,47.33,20.46,30.56,12.09,57.19,23.84,79.87,35.23Z"/>
          <path class="cls-1" d="M331.16,553.76c2.06,5.4,4.98,10.88,8.76,16.43,1.23,8.78,6.32,17.9,15.26,27.36-7.64-5.83-14.51-11.59-20.6-17.28-5.14-9.2-6.28-18.04-3.41-26.52Z"/>
          <polygon class="cls-1" points="321.56 564.21 316.78 563.68 350.32 585.32 354.17 585.77 321.56 564.21"/>
          <path class="cls-1" d="M317.07,563.86l-5.31-.86c11.03,7.18,22.16,14.36,33.39,21.56l4.4.79c-10.93-7.17-21.76-14.33-32.49-21.49Z"/>
          <path class="cls-1" d="M353.86,585.58l4.33.77c-10.24-7.11-20.38-14.21-30.41-21.3l-5.26-.86c10.34,7.12,20.78,14.25,31.33,21.38Z"/>
        </g>
        <g>
          <path class="cls-1" d="M295.23,584.27c-6.2-.55-14.26-2.23-23.73-4.5-9.45-2.27-20.27-5.14-31.6-8.06-11.32-2.92-23.15-5.88-34.33-8.3-11.17-2.43-21.73-4.32-30.06-5.06l-16.21-5.91c4.23.34,8.75.86,13.53,1.57,2.39.35,4.85.75,7.36,1.18,1.29.23,2.56.46,3.81.68.65.12,1.29.24,1.94.36l.97.19,1.07.22c11.59,2.46,23.77,5.45,35.45,8.4,11.69,2.95,22.86,5.85,32.69,8.15,9.84,2.31,18.31,4.01,24.98,4.61"/>
          <path class="cls-1" d="M237.05,557.62c-16.79-1.27-19.58,1.96-18.61,5.93.31,1.93,1.12,3.91.32,5.27-.82,1.36-3.23,2.09-9.79,1.51l-18.87-6.89c7,.62,9.82-.08,11.01-1.4.59-.66.76-1.48.8-2.37.1-.86-.29-1.95.41-2.62.91-1.55,1.83-3.25,4.52-4.5,1.3-.64,3.28-1.09,5.85-1.37,1.3-.13,2.77-.22,4.44-.23,1.67-.02,3.72.1,5.9.26"/>
          <path class="cls-1" d="M162.9,572.47c6.2.55,7.29-.3,6.29-1.82-1.02-1.52-4.14-3.71-6.77-5.85-2.63-2.14-4.76-4.24-4.04-5.6.7-1.37,4.29-2,12.62-1.26l-16.29-5.88c-4.23-.34-7.6-.45-10.36-.42-1.38.01-2.61.06-3.72.14-.55.04-1.08.08-1.58.13l-.73.08-.35.04c-.11.02-.1.07-.15.11-1.13,1.33.63,3.39,2.91,5.5,2.26,2.11,5.03,4.26,5.67,5.74.62,1.48-.87,2.3-7.54,1.71"/>
          <path class="cls-1" d="M73.49,545.09c8.06.63,16.76,1.7,26.13,3.14,1.19.19,2.37.37,3.54.56.6.1,1.2.19,1.79.29l.45.08.63.13,1.26.27c3.46.74,6.86,1.48,10.22,2.2,6.87,1.51,13.81,3.08,20.62,4.64,13.64,3.12,26.77,6.2,38.03,8.63,11.28,2.43,20.67,4.22,27.22,4.81l-19.26-6.93c-7-.62-16.79-2.45-28.45-4.92-5.82-1.23-12.1-2.63-18.68-4.11-3.37-.76-6.72-1.52-10.07-2.27l-2.57-.58-1.28-.29-.94-.17c-1.24-.23-2.49-.46-3.74-.69-9.96-1.83-19.68-3.5-28.68-4.8-9.03-1.31-17.37-2.22-25-2.67"/>
          <path class="cls-1" d="M276.79,591.59c-21.3-7.36-43.32-14.79-66.06-22.28-11.09-3.32-22.44-6.66-34.04-10.02l-17.6-5.06-1.11-.32-.49-.13-.41-.11-1.64-.43-3.28-.84-6.51-1.66c-17.3-4.36-33.76-8.34-49.46-11.91,15.63,4.11,31.89,8.54,48.78,13.29l3.18.81,4.38,1.24,8.93,2.55,17.58,5.08c11.6,3.38,22.95,6.73,34.06,10.06,22.21,6.67,43.44,13.24,63.69,19.73Z"/>
          <path class="cls-1" d="M147.05,540.96c4.55,2.57,8.98,5.05,13.34,7.43l6.47,3.51,3.16,1.71,1.56.84.77.42.39.21.2.11.32.15c17.7,10.25,39.26,20.84,64.68,31.77-17.43-6.7-34.08-13.33-49.95-19.9-5.44-2.67-10.62-5.32-15.56-7.94-2.47-1.31-4.87-2.62-7.22-3.92l-1.75-.98c-.34-.24-.52-.42-.79-.63l-1.52-1.26c-4.09-3.42-9.01-7.25-14.1-11.52Z"/>
          <polygon class="cls-1" points="151.9 550.5 147.4 550.11 210.63 572.87 214.67 573.33 151.9 550.5"/>
          <polygon class="cls-1" points="147.78 550.25 142.62 549.62 153.31 553.52 170.47 559.69 204.9 572.05 210.06 572.91 176.07 560.59 159.14 554.43 147.78 550.25"/>
          <polygon class="cls-1" points="214.07 573.12 219.13 573.96 186.19 561.72 157.91 551.15 152.71 550.49 164.01 554.71 180.66 560.84 214.07 573.12"/>
        </g>
        <g>
          <path class="cls-1" d="M162.89,572.47c-6.2-.55-16.07-2.39-28.26-4.9-12.17-2.51-26.61-5.71-41.57-8.95-14.94-3.24-30.39-6.52-44.29-9.19-6.95-1.33-13.51-2.51-19.38-3.46-.36-.06-.75-.13-1.07-.03-.33.09-.57.28-.69.48-.13.2-.11.39-.02.47.09.08.19.14.29.21.41.29.91.6,1.48.93,1.16.67,2.66,1.45,4.55,2.35l-18.02-4.81c-1.84-.9-3.61-1.77-5.33-2.61-.82-.41-1.63-.81-2.42-1.21l-.58-.3c-.19-.11-.31-.33-.28-.57.02-.23.16-.47.39-.59.22-.14.5-.1.75-.07,2.12.23,4.18.46,6.18.67,1.05.12,2.08.24,3.1.36.52.06,1.04.13,1.55.19l.78.1c.09,0,.38.07.58.1l.67.13c14.3,2.7,30.11,6.02,45.4,9.29,15.31,3.27,30.1,6.49,42.64,9.04,12.56,2.55,22.83,4.42,29.5,5.01"/>
          <path class="cls-1" d="M73.47,545.09c-8.06-.63-13.56-.71-18.12-.68-.56,0-1.12.01-1.67.02l-.81.02h-.19s.07.09.07.09l.14.17c.41.45.97.93,1.66,1.44,1.37,1.02,3.21,2.13,5.18,3.26,3.93,2.26,8.36,4.56,10.27,6.16.95.8,1.27,1.41.54,1.78-.11.1-.11.62.29,1.05.19.22.48.37.77.47l.86.34c1.05.43,2.12.86,3.2,1.29,2.01.83,3.77,1.61,5.26,2.31l-27.66-7.41c-1.59-.76-3.45-1.58-5.56-2.45-1.13-.46-2.24-.91-3.34-1.36l-.89-.35c-.3-.11-.6-.27-.8-.5-.41-.45-.39-1.01-.25-1.11.94-.36.81-.95.04-1.73-.77-.78-2.18-1.74-3.84-2.78-.88-.54-1.76-1.08-2.63-1.61l-.68-.41c-.1-.07-.25-.15-.32-.2h.34s1.36-.07,1.36-.07c3.59-.17,6.88-.47,11.07-.64,4.19-.15,9.32-.22,16.96.23"/>
          <path class="cls-1" d="M176.44,601.33c-5.62-2.67-14.8-5.99-26.18-9.82-11.37-3.83-24.92-8.17-38.92-12.73-14-4.55-28.45-9.32-41.4-13.9-12.93-4.57-24.37-8.96-31.92-12.55l-18-4.77c3.79,1.83,7.6,3.61,11.48,5.36,2.02.89,3.97,1.76,5.88,2.6,1.01.44,2,.87,2.99,1.29.51.22,1.01.43,1.51.64l.76.32c.09.04.36.13.55.2l.62.22c13.3,4.75,28.09,9.68,42.4,14.38,14.33,4.71,28.19,9.2,39.9,13.19,11.72,4,21.26,7.48,27.31,10.36"/>
          <path class="cls-1" d="M89.56,581.73c-7.26-3.55-11.78-6.24-15.3-8.53-.43-.28-.85-.56-1.27-.84l-.6-.41-.14-.1.08-.05.17-.09c.46-.23,1.08-.41,1.8-.56,1.45-.29,3.35-.44,5.35-.54,4.01-.2,8.48-.17,10.55-.76,2.06-.6,1.73-1.8-4.21-4.63l-27.31-7.24c6.35,3.02,7.03,4.4,5.31,5.15-.86.38-2.34.6-4.06.77-.91.08-1.81.15-2.71.23l-.7.06c-.11.01-.25.01-.33.03l.24.18.94.7c2.46,1.86,4.62,3.71,7.76,5.95,3.16,2.24,7.28,4.87,14.08,8.36"/>
          <path class="cls-1" d="M161.46,581.3l-48.06-12.48-12.18-3.13c-2.03-.52-4.09-1.06-6.1-1.44-2.01-.4-3.95-.7-5.79-1-1.84-.3-3.57-.61-5.23-1.02l-4.98-1.23-9.91-2.45c-9.97-2.17-19.71-4.23-29.21-6.18l-14.08-2.84-.87-.17-.22-.04s0,.01,0,.01v.03s.05.13.05.13c.02.08.05.17.06.25.03.17.05.33.06.49.03,1.29-.91,2.37-2.82,3.25,4.43.18,8.08.2,10.95.05.03-.07.05-.14.07-.21h0s0-.02,0-.02l.11.02.43.08.87.17,1.74.34,7,1.39,14.26,2.9c9.62,1.99,19.45,4.08,29.52,6.29,10.07,2.19,20.34,4.52,30.86,6.91,1.33.24,2.91.29,4.7.5,1.8.19,3.72.73,5.57,1.18l11.16,2.75,22.04,5.48Z"/>
          <path class="cls-1" d="M3.57,536.87c.8.71,1.4,1.35,1.81,1.92.2.31.36.51.46.86.03.17.14.56.45.94.3.4.83.75,1.43.94l1.76.64.89.32.44.16.25.09.76.23c58.46,18.24,113.42,34.81,164.89,49.72-28.45-7.85-57.6-16.03-87.45-24.55l-42.23-12.85-21.62-6.67-5.46-1.69-.3-.09-.13-.05-.25-.1-.51-.19-1.01-.39-3.98-1.54-7.69-3.02-3.71-1.48c-.65-.2-1.07-.81-1.1-1.25-.03-.22.02-.39.08-.45.06-.05.12-.06.18-.09.92-.39,1.6-.86,2.06-1.41Z"/>
          <polygon class="cls-1" points="16.15 546.16 19.81 547.98 99.96 569.22 97.16 567.78 16.15 546.16"/>
          <polygon class="cls-1" points="19.98 548.03 23.29 549.75 29.54 551.44 53.91 557.91 102.56 570.8 101.3 569.76 52.21 556.67 27.62 550.1 19.98 548.03"/>
          <polygon class="cls-1" points="96.36 567.58 95.09 566.55 45.07 553.01 20.01 546.22 14.35 544.67 11.76 543.94 15.11 545.68 21.89 547.55 46.75 554.24 96.36 567.58"/>
        </g>
        <g>
          <path class="cls-1" d="M176.45,601.33c5.62,2.67,6.38,4.09,5.14,5.07-1.26.98-4.54,1.52-7.37,2.28-2.84.75-5.22,1.72-4.9,3.45.3,1.72,3.33,4.21,10.88,7.8l-16.71-2.79c-3.84-1.87-6.74-3.49-9.01-4.93-1.14-.72-2.11-1.39-2.96-2.02-.43-.32-.82-.62-1.18-.92l-.53-.44-.25-.21c-.08-.07-.06-.12-.1-.19-.68-1.9,1.36-3.03,3.87-3.94,2.5-.91,5.46-1.61,6.37-2.75.9-1.15-.23-2.74-6.28-5.61"/>
          <path class="cls-1" d="M89.57,581.73c7.26,3.55,15.59,7.13,24.77,10.67,1.17.45,2.33.89,3.48,1.33.59.22,1.18.44,1.77.67l.45.17.59.2,1.18.39c3.24,1.06,6.42,2.1,9.57,3.13,6.44,2.08,12.95,4.12,19.36,6.12,12.82,3.99,25.17,7.77,35.72,11.21,10.56,3.45,19.3,6.55,25.24,9.38l-18.69-3.14c-6.35-3.02-15.45-6.3-26.36-9.9-5.45-1.8-11.34-3.68-17.51-5.63-3.16-1-6.31-1.99-9.45-2.98l-2.41-.76-1.21-.38-.94-.33c-1.25-.44-2.5-.88-3.76-1.31-9.99-3.51-19.7-7.04-28.53-10.57-8.83-3.51-16.83-7.11-23.62-10.58"/>
          <path class="cls-1" d="M296.44,658.39c-5.62-2.67-13.16-5.21-22.08-7.87-8.9-2.66-19.17-5.44-29.89-8.43-10.71-2.99-21.88-6.2-32.36-9.61-10.46-3.4-20.26-7.01-27.81-10.6l-16.65-2.71c7.66,3.74,16.9,7.38,27.29,10.89,10.84,3.58,22.34,6.95,33.38,10.09,11.04,3.15,21.63,6.08,30.87,8.9,9.26,2.83,17.16,5.53,23.21,8.41"/>
          <path class="cls-1" d="M238.56,654.57c-7.85-3.73-12.09-6.8-14.04-9.3-1.98-2.52-1.71-4.49-.97-6.24.73-1.76,1.91-3.29,1.52-5.05-.41-1.77-2.37-3.75-8.31-6.58l-18.34-2.98c12.66,6,9.45,8.75,9.02,12.65-.08.97-.15,1.98.02,3.07.22,1.1.78,2.3,1.84,3.63,2.27,2.67,6.93,5.93,15.22,9.87"/>
          <path class="cls-1" d="M254.74,628.68c-18.23-2.64-35.8-4.98-52.73-7-5.96-.26-11.68-.42-17.17-.46-2.75-.02-5.43-.01-8.06.02-.75,0-1.05.06-1.54.1l-1.35.14-2.74.28c-3.68.39-7.6.78-11.52,1.27-3.92.49-7.95,1.03-12.07,1.63,12.12.06,23.91.29,35.39.7l1.46-.12c.56-.03,1.28-.03,1.91-.05l3.98-.05c2.68-.02,5.41,0,8.2.03,5.58.07,11.38.25,17.41.53,12.05.57,25,1.56,38.84,2.97Z"/>
          <path class="cls-1" d="M109.86,601.22c8.5,2.28,17.16,4.55,25.98,6.81l13.36,3.39,13.73,3.4c43.52,11.14,83.55,20.61,120.08,28.42-19.58-3.63-39.86-7.6-60.84-11.9-10.09-2.39-20.4-4.88-30.94-7.48l-15.98-3.98-4.05-1.02-3.41-.92-6.71-1.84c-17.86-4.94-34.9-9.88-51.22-14.87Z"/>
          <polygon class="cls-1" points="160.53 617.44 164.1 619.32 226.61 629.44 223.63 627.92 160.53 617.44"/>
          <polygon class="cls-1" points="164.53 619.38 167.27 621.12 229.73 631.26 227.78 629.9 164.53 619.38"/>
          <polygon class="cls-1" points="223.11 627.84 221.18 626.49 156.54 615.19 159.32 616.92 223.11 627.84"/>
        </g>
        <g>
          <path class="cls-1" d="M296.45,658.39c5.62,2.67,8.02,4.87,9.24,7.02,1.2,2.15,1.2,4.25,1.66,6.57.45,2.31,1.35,4.85,4.13,7.75,2.77,2.89,7.43,6.16,14.98,9.75l-9.66,1.15c-8.01-3.81-13.08-7.27-16.21-10.33-3.15-3.07-4.38-5.76-5.16-8.23-.78-2.47-1.1-4.73-2.65-7.04-1.56-2.32-4.33-4.69-10.38-7.56"/>
          <path class="cls-1" d="M238.57,654.58c7.86,3.73,17.22,7.14,26.87,10.15,9.67,3.02,19.66,5.67,29.19,8.1,9.53,2.43,18.61,4.64,26.69,6.91,8.1,2.28,15.2,4.6,21.14,7.42l-9.71,1.13c-6.35-3.02-13.81-5.51-22.25-7.95-8.43-2.43-17.82-4.8-27.69-7.38-9.85-2.58-20.17-5.39-30.21-8.58-10.02-3.19-19.77-6.77-28.08-10.72"/>
          <path class="cls-1" d="M416.44,715.44c-5.62-2.67-11.52-4.42-17.97-5.92-6.44-1.49-13.42-2.7-20.86-4.14-7.43-1.43-15.32-3.08-23.33-5.31-8-2.23-16.16-5.06-23.71-8.65l-9.41,1.27c8.01,3.81,16.57,6.83,24.93,9.23,8.38,2.41,16.6,4.21,24.35,5.8,7.76,1.59,15.06,2.96,21.84,4.61,6.8,1.66,13.06,3.58,19.1,6.46"/>
          <path class="cls-1" d="M395.59,729.23c-7.86-3.74-13.73-7.58-18.15-11.26-4.44-3.69-7.45-7.22-10-10.53-2.56-3.32-4.65-6.41-7.5-9.35-2.87-2.94-6.47-5.7-12.42-8.53l-9.37,1.29c6.35,3.02,10.32,5.96,13.53,9.06,3.19,3.09,5.61,6.34,8.49,9.82,2.87,3.47,6.21,7.16,11.01,11.02,4.78,3.85,11.05,7.88,19.35,11.83"/>
          <path class="cls-1" d="M359.3,678.4c-8.82,1.83-16.98,3.97-24.5,6.42-7.77,6.58-11.82,14.94-12.14,25.06,3.5-4.3,7.75-8.26,12.74-11.85,4.4-8.24,12.36-14.79,23.9-19.63Z"/>
          <path class="cls-1" d="M268.33,682.2c16.01,1.86,31.25,3.35,45.71,4.47,28.59,4.03,53.68,6.41,75.28,7.11-10.71.58-22.12.84-34.24.75-25.29-2.39-54.2-6.5-86.75-12.33Z"/>
          <polygon class="cls-1" points="315.76 692.29 319.75 694.3 353.26 689.66 350.11 688.05 315.76 692.29"/>
          <path class="cls-1" d="M320.02,694.26l3.48,2.08c11.23-1.49,22.36-3.03,33.4-4.61l-2.63-1.69c-11.32,1.45-22.74,2.86-34.25,4.22Z"/>
          <path class="cls-1" d="M349.86,688.11l-2.6-1.66c-11.95,1.15-23.99,2.26-36.13,3.32l3.43,2.06c11.86-1.19,23.63-2.43,35.3-3.72Z"/>
        </g>
        <g>
          <path class="cls-1" d="M416.44,715.44c5.62,2.67,9.67,5.65,13.35,8.97,3.67,3.32,6.95,6.98,10.69,10.86,1.87,1.94,3.85,3.93,6.01,5.95.55.5,1.1,1.01,1.66,1.52.57.51,1.13,1.01,1.8,1.55,1.29,1.07,2.63,2.13,4.01,3.18,5.53,4.2,11.84,8.26,19.64,11.96l-2.23,4.69c-7.8-3.71-14.11-7.76-19.64-11.96-5.6-4.24-10.15-8.5-14.19-12.53-4.07-4.03-7.67-7.85-11.68-11.33-4.03-3.49-8.44-6.64-14.48-9.51"/>
          <path class="cls-1" d="M395.6,729.24c7.86,3.73,15.58,6.35,22.77,8.2,7.21,1.85,13.92,2.94,20.16,3.81,3.03.41,6.03.81,9.07,1.23.73.1,1.46.21,2.19.31.78.14,1.57.28,2.36.43,1.57.3,3.16.62,4.74.98,6.36,1.45,12.87,3.49,19.75,6.77l-2.23,4.69c-6.89-3.27-13.4-5.32-19.75-6.77-6.43-1.48-12.35-2.2-18.97-3.24-6.57-1.02-13.61-2.26-21.18-4.29-7.56-2.02-15.67-4.82-23.97-8.77"/>
          <path class="cls-1" d="M557.91,782.71c-28.42-13.51-48.87-6.42-80.07-21.25l-2.23,4.69c31.19,14.83,51.64,7.74,80.06,21.26"/>
          <path class="cls-1" d="M548.72,802.04c-30.24-14.38-38.66-35.19-66.21-48.29l-2.23,4.69c27.55,13.1,35.97,33.92,66.21,48.3"/>
          <polygon class="cls-1" points="466.48 729.35 469.91 749.06 493.06 790.9 487.93 770.55 466.48 729.35"/>
          <polygon class="cls-1" points="445.42 766.4 465.18 758.53 511.74 751.99 493.12 760.17 445.42 766.4"/>
          <polygon class="cls-1" points="473.01 767.06 476.94 769.04 485.25 752.42 481.31 750.43 473.01 767.06"/>
          <polygon class="cls-1" points="477 768.89 480.8 771.13 490.09 755.05 486.29 752.81 477 768.89"/>
          <polygon class="cls-1" points="481.28 750.59 477.48 748.36 468.18 764.44 471.99 766.68 481.28 750.59"/>
        </g>
        <g>
          <path class="cls-1" d="M557.92,782.71c28.42,13.52,35.83,33.85,67.02,48.68l-2.23,4.69c-31.2-14.83-38.6-35.16-67.03-48.68"/>
          <path class="cls-1" d="M548.73,802.05c30.24,14.38,51.7,7.77,79.25,20.87l-2.23,4.69c-27.55-13.1-49.02-6.49-79.25-20.87"/>
          <path class="cls-1" d="M709.24,854.66c-28.42-13.52-48.87-6.42-80.07-21.25l-2.23,4.69c31.19,14.83,51.64,7.74,80.06,21.26"/>
          <path class="cls-1" d="M700.05,874c-30.24-14.38-38.66-35.19-66.21-48.29l-2.23,4.69c27.55,13.1,35.97,33.92,66.21,48.3"/>
          <polygon class="cls-1" points="617.81 801.31 621.25 821.02 644.39 862.86 639.27 842.51 617.81 801.31"/>
          <polygon class="cls-1" points="596.75 838.36 616.51 830.49 663.07 823.95 644.46 832.13 596.75 838.36"/>
          <polygon class="cls-1" points="624.34 839.01 628.28 840.99 636.58 824.37 632.64 822.39 624.34 839.01"/>
          <polygon class="cls-1" points="628.34 840.85 632.14 843.09 641.43 827.01 637.63 824.77 628.34 840.85"/>
          <polygon class="cls-1" points="632.61 822.55 628.81 820.31 619.52 836.4 623.32 838.63 632.61 822.55"/>
        </g>
        <g>
          <path class="cls-1" d="M287.3,110.91l-1.56-1.49-1.53-1.5-1.5-1.52-1.47-1.54-1.43-1.55-1.4-1.56-1.37-1.57-1.34-1.58-1.31-1.59c-.43-.53-.85-1.07-1.28-1.6-.42-.54-.83-1.07-1.25-1.6-.41-.54-.81-1.07-1.22-1.61-.4-.54-.79-1.07-1.19-1.61-.39-.54-.77-1.08-1.16-1.61-.38-.54-.75-1.08-1.13-1.61-.37-.54-.73-1.08-1.1-1.61-.36-.54-.71-1.07-1.07-1.61-.35-.54-.7-1.07-1.04-1.6-.34-.54-.68-1.07-1.01-1.6-.33-.53-.66-1.06-.98-1.59-.32-.53-.64-1.06-.96-1.59-.31-.53-.62-1.06-.93-1.58-.6-1.05-1.19-2.1-1.78-3.12-.56-1.04-1.12-2.06-1.67-3.07-.53-1.02-1.05-2.02-1.56-3.01-.49-1-.98-1.98-1.46-2.94-.46-.97-.92-1.92-1.36-2.86-.43-.94-.85-1.86-1.26-2.77-.4-.91-.79-1.8-1.16-2.66-.37-.87-.72-1.72-1.07-2.55-.33-.83-.66-1.64-.98-2.43-.31-.79-.6-1.55-.89-2.29-.28-.74-.54-1.46-.8-2.15-.25-.69-.49-1.36-.71-1.99-.22-.64-.43-1.25-.63-1.83-.19-.58-.38-1.13-.55-1.65-.17-.52-.32-1.01-.47-1.46-.28-.91-.51-1.69-.7-2.33-.18-.64-.32-1.13-.41-1.46-.09-.33-.13-.5-.13-.5.17.48.34.97.52,1.46.18.49.37.97.55,1.47.19.49.39.98.58,1.47.2.49.41.98.61,1.48.21.49.43.99.64,1.49.22.5.45.99.67,1.49.23.5.47,1,.7,1.5.24.5.48,1,.73,1.5l.75,1.5.78,1.5.8,1.5.82,1.5c.56,1,1.13,2,1.7,3,.59.99,1.18,1.99,1.77,2.98l1.83,2.96,1.88,2.94c.64.97,1.28,1.94,1.92,2.9.65.96,1.3,1.91,1.94,2.86.66.94,1.31,1.88,1.96,2.8.66.92,1.32,1.84,1.97,2.75.66.9,1.32,1.8,1.97,2.68.66.88,1.31,1.75,1.96,2.61.65.85,1.3,1.7,1.93,2.53.64.83,1.28,1.64,1.9,2.44,1.27,1.59,2.49,3.12,3.67,4.58,1.19,1.45,2.34,2.83,3.41,4.14,1.09,1.29,2.12,2.51,3.08,3.64.97,1.12,1.86,2.15,2.66,3.08.81.92,1.54,1.75,2.17,2.46,1.26,1.42,2.13,2.39,2.51,2.82"/>
          <path class="cls-1" d="M169.26,121.51c.18-.26.37-.52.56-.8.19-.28.38-.57.58-.86.19-.3.39-.6.59-.92.2-.32.4-.64.61-.98.4-.67.82-1.38,1.26-2.11.42-.74.86-1.51,1.31-2.31.44-.8.89-1.63,1.36-2.48.45-.86.92-1.74,1.4-2.64.47-.91.94-1.84,1.43-2.78.48-.95.96-1.92,1.45-2.9.96-1.98,1.95-4.02,2.95-6.09.98-2.09,1.97-4.21,2.98-6.35.98-2.15,1.96-4.31,2.94-6.46.96-2.16,1.92-4.31,2.86-6.42.93-2.12,1.84-4.2,2.72-6.23.87-2.03,1.72-4,2.53-5.88,1.6-3.78,3.05-7.23,4.28-10.14,2.41-5.85,3.93-9.56,3.93-9.56l-5.35-.37c-.34.92-.68,1.85-1.02,2.79-.36.94-.72,1.89-1.08,2.84-.37.95-.75,1.92-1.13,2.89-.39.97-.79,1.94-1.18,2.92-.41.98-.81,1.96-1.22,2.95-.42.98-.84,1.97-1.26,2.97-.87,1.98-1.74,3.96-2.61,5.95-.9,1.98-1.8,3.96-2.7,5.92-.92,1.96-1.83,3.9-2.73,5.83-.92,1.92-1.83,3.81-2.73,5.66-.91,1.85-1.81,3.66-2.68,5.43-.89,1.76-1.75,3.48-2.58,5.13-.85,1.65-1.66,3.25-2.44,4.77-1.59,3.03-3.03,5.79-4.28,8.17-1.28,2.37-2.36,4.37-3.19,5.9-.42.76-.78,1.41-1.07,1.93-.3.52-.52.91-.66,1.16"/>
          <path class="cls-1" d="M305.68,91.53l-1.77-1.76-1.77-1.78c-1.16-1.2-2.33-2.41-3.5-3.62-1.15-1.22-2.3-2.44-3.45-3.66-1.13-1.23-2.26-2.45-3.39-3.66-2.23-2.44-4.42-4.84-6.56-7.18-2.14-2.33-4.23-4.59-6.22-6.75-1.01-1.07-2-2.11-2.96-3.12-.49-.5-.97-1-1.44-1.48-.48-.48-.95-.96-1.41-1.42-.47-.46-.93-.92-1.38-1.36-.46-.44-.91-.87-1.35-1.29-.45-.42-.89-.82-1.32-1.22-.44-.39-.87-.77-1.29-1.14-.43-.36-.84-.72-1.25-1.06-.42-.33-.82-.66-1.22-.98-.2-.15-.4-.3-.59-.45-.2-.15-.39-.29-.59-.43-.19-.14-.39-.27-.58-.41-.19-.13-.38-.26-.57-.38-.19-.12-.37-.24-.56-.36-.19-.11-.37-.22-.55-.33-.18-.1-.36-.21-.54-.31-.18-.09-.35-.19-.53-.28-.18-.08-.35-.17-.52-.25-.17-.08-.34-.15-.51-.22-.17-.07-.33-.13-.5-.19-.16-.06-.33-.11-.49-.17l-3.67,1.12c.34.29.7.61,1.09.95.38.35.79.72,1.22,1.11.43.4.88.82,1.35,1.26.47.44.95.91,1.46,1.39,1,.98,2.08,2.03,3.22,3.14,1.13,1.12,2.31,2.31,3.54,3.54,1.22,1.24,2.48,2.52,3.77,3.83,1.28,1.32,2.59,2.66,3.91,4.02,2.62,2.73,5.29,5.52,7.89,8.22,5.14,5.45,9.98,10.58,13.54,14.35,3.53,3.79,5.78,6.21,5.78,6.21"/>
          <path class="cls-1" d="M147.79,105.8s.76-1.23,2.1-3.41c.68-1.08,1.52-2.4,2.47-3.93.97-1.51,2.08-3.23,3.29-5.11,1.23-1.87,2.57-3.9,3.99-6.06,1.45-2.15,2.99-4.42,4.6-6.79.81-1.18,1.65-2.38,2.49-3.6.85-1.21,1.72-2.45,2.6-3.7.89-1.24,1.79-2.5,2.7-3.77.92-1.26,1.85-2.53,2.79-3.81.95-1.27,1.9-2.54,2.86-3.82.97-1.27,1.95-2.54,2.92-3.8.99-1.26,1.98-2.51,2.97-3.76,1.01-1.24,2.01-2.47,3-3.69,1.02-1.21,2.03-2.4,3.03-3.59.51-.59,1.01-1.17,1.52-1.75.51-.57,1.01-1.15,1.52-1.71.51-.56,1.01-1.12,1.52-1.67.51-.55,1.01-1.09,1.51-1.63.51-.53,1.01-1.06,1.51-1.59.51-.52,1.01-1.03,1.5-1.54.5-.5,1-.99,1.5-1.48.5-.48,1-.96,1.49-1.43.5-.46.99-.92,1.48-1.37.49-.44.98-.88,1.46-1.3.49-.42.97-.83,1.45-1.24.49-.39.96-.78,1.43-1.17.48-.37.95-.73,1.42-1.09.24-.17.47-.35.7-.52.23-.17.47-.33.7-.5.23-.16.46-.32.69-.48.23-.15.46-.31.69-.46.23-.15.46-.29.68-.43.23-.14.45-.28.67-.41.23-.13.45-.26.67-.39.22-.12.44-.25.66-.37.22-.12.44-.23.66-.35.22-.11.44-.22.65-.32.22-.1.43-.2.64-.3.21-.09.43-.18.64-.27.21-.08.42-.17.63-.25.21-.08.42-.15.62-.22.21-.07.41-.13.61-.2.2-.06.41-.12.61-.17l.3-.08.07-.02h.02s0,0,.02,0h.04s.15,0,.15,0c.2.01.4.02.6.03l9.18,6.18-.58-.2-.58-.19-.58-.17-.59-.15-.59-.13-.59-.11-.59-.1-.6-.08-.6-.06-.6-.04-.6-.03h-.6s-.6,0-.6,0l-.61.02-.61.04-.61.05-.6.23-.6.24-.6.26-.6.28-.6.29-.6.31-.61.32-.61.34-.61.35-.61.37c-.4.26-.81.52-1.22.78-.41.27-.81.55-1.23.83-.41.29-.82.59-1.23.89-.41.31-.82.63-1.24.94-.41.33-.82.66-1.24,1-.41.34-.83.69-1.24,1.05-.41.36-.83.73-1.25,1.09-.41.38-.83.76-1.25,1.14-.41.39-.83.79-1.25,1.19-.41.41-.83.82-1.26,1.23-.42.42-.83.84-1.26,1.27-.42.43-.84.87-1.26,1.31-.42.45-.84.9-1.26,1.35-.42.46-.84.92-1.26,1.39-.42.47-.84.95-1.26,1.43-.42.48-.84.97-1.26,1.46-.42.49-.84.99-1.26,1.49-.83,1.01-1.67,2.04-2.53,3.08-.83,1.05-1.67,2.11-2.52,3.19-.83,1.09-1.67,2.18-2.52,3.29-.83,1.12-1.67,2.24-2.51,3.37-.83,1.14-1.66,2.29-2.5,3.44-.83,1.16-1.66,2.33-2.49,3.5-.82,1.18-1.65,2.36-2.48,3.55-1.63,2.39-3.27,4.79-4.9,7.19-1.61,2.42-3.22,4.83-4.82,7.23-1.59,2.41-3.16,4.8-4.72,7.16-3.12,4.72-6.16,9.33-9.05,13.71"/>
          <polygon class="cls-1" points="256.97 5.84 247.86 24.44 242.76 76.66 250.75 56.19 256.97 5.84"/>
          <polygon class="cls-1" points="211.4 17.68 217.88 19.22 219.5 19.61 219.61 19.64 219.71 19.69 219.92 19.78 220.33 19.98 221.16 20.38 224.47 21.95 237.73 28.27 288.61 62.06 261.85 51.99 236.53 33.82 223.87 24.73 220.71 22.46 219.92 21.89 219.82 21.82 219.79 21.8 219.77 21.79 219.72 21.76 219.53 21.67 219.14 21.48 217.59 20.72 211.4 17.68"/>
          <polygon class="cls-1" points="239.49 41.4 241.8 46.16 259.57 39.44 257.25 34.69 239.49 41.4"/>
          <polygon class="cls-1" points="241.94 46.08 243.98 50.93 262.3 45.44 260.26 40.59 241.94 46.08"/>
          <polygon class="cls-1" points="257.13 34.79 255.09 29.94 236.77 35.42 238.8 40.28 257.13 34.79"/>
          <polygon class="cls-1" points="239.74 16.66 227.26 19.29 221.01 20.6 220.23 20.77 219.84 20.85 219.75 20.87 219.72 20.87 219.71 20.87 219.71 20.88 219.7 20.88 219.65 20.91 219.46 21 217.93 21.73 214.89 23.19 173.18 61.6 194.08 49.86 216.68 30.67 219.5 28.27 220.21 27.67 220.3 27.6 220.32 27.58 220.34 27.57 220.39 27.54 220.57 27.44 220.93 27.24 222.38 26.42 228.16 23.17 239.74 16.66"/>
          <polygon class="cls-1" points="194.15 .57 204.44 20.61 216.03 71.34 205.53 52.69 194.15 .57"/>
          <polygon class="cls-1" points="196.26 31.95 194.56 36.99 212.9 41.52 214.59 36.48 196.26 31.95"/>
          <polygon class="cls-1" points="194.72 37.01 192.75 41.97 210.62 47.78 212.59 42.82 194.72 37.01"/>
          <polygon class="cls-1" points="214.42 36.5 216.39 31.54 198.52 25.73 196.55 30.69 214.42 36.5"/>
        </g>
        <g>
          <path class="cls-1" d="M580.52,582.89c1.82.16,3.63.33,5.43.49,1.81.17,3.61.35,5.4.52,1.79.18,3.58.37,5.37.55,1.78.19,3.56.39,5.33.58,3.54.42,7.05.83,10.55,1.25,3.48.45,6.94.9,10.38,1.35,3.42.48,6.82.97,10.2,1.44,3.36.51,6.69,1.02,10.01,1.53,3.29.54,6.56,1.07,9.8,1.6,3.22.56,6.41,1.11,9.58,1.66,3.14.58,6.26,1.15,9.35,1.72,3.06.59,6.1,1.18,9.1,1.76,2.98.6,5.93,1.2,8.84,1.79,2.89.61,5.75,1.22,8.57,1.81,2.8.62,5.56,1.22,8.28,1.82,2.7.62,5.36,1.23,7.98,1.83,2.6.62,5.15,1.22,7.67,1.82,2.49.61,4.94,1.21,7.34,1.8,2.38.6,4.71,1.19,7,1.77,2.27.59,4.48,1.17,6.64,1.73,2.15.57,4.24,1.13,6.28,1.68,2.02.55,3.99,1.09,5.9,1.62,1.89.53,3.73,1.05,5.5,1.55,1.76.51,3.46,1,5.09,1.47,3.23.96,6.21,1.85,8.91,2.65,2.66.82,5.04,1.56,7.12,2.2,2.05.66,3.8,1.22,5.22,1.68,2.79.93,4.3,1.44,4.3,1.44-1.13-.33-2.27-.67-3.41-1.01-1.16-.33-2.32-.66-3.49-1-1.18-.33-2.37-.66-3.56-.99-1.2-.32-2.42-.65-3.63-.98-2.47-.64-4.95-1.28-7.46-1.92-2.55-.62-5.11-1.25-7.7-1.88-2.62-.61-5.25-1.22-7.9-1.84-2.68-.59-5.37-1.19-8.07-1.79-2.73-.58-5.47-1.16-8.21-1.74-2.77-.56-5.54-1.13-8.32-1.7-2.8-.55-5.6-1.1-8.4-1.65-2.82-.53-5.63-1.06-8.44-1.59-2.83-.52-5.65-1.03-8.46-1.54-2.82-.5-5.64-1-8.44-1.49-2.81-.48-5.61-.96-8.39-1.44-2.79-.46-5.56-.92-8.31-1.38-5.52-.88-10.95-1.74-16.24-2.59-5.32-.81-10.51-1.59-15.54-2.35-5.04-.73-9.91-1.43-14.57-2.11-4.68-.65-9.14-1.27-13.36-1.85-4.23-.56-8.21-1.09-11.89-1.59-7.39-.94-13.63-1.73-18.37-2.34-4.75-.58-8.01-.99-9.45-1.16"/>
          <path class="cls-1" d="M641.88,446.99c1.17,1.08,2.41,2.23,3.72,3.44,1.33,1.2,2.74,2.46,4.21,3.79,1.48,1.31,3.03,2.67,4.65,4.09,1.62,1.4,3.3,2.86,5.04,4.37,1.75,1.49,3.55,3.03,5.4,4.61,1.86,1.57,3.77,3.18,5.72,4.83,3.92,3.26,8.02,6.67,12.25,10.19,4.24,3.48,8.61,7.06,13.06,10.71,4.46,3.62,8.99,7.3,13.56,11,4.57,3.68,9.17,7.37,13.75,11.06,4.58,3.66,9.14,7.3,13.63,10.88,8.98,7.11,17.66,13.98,25.63,20.3,7.98,6.26,15.25,11.97,21.4,16.8,12.3,9.58,20.11,15.67,20.11,15.67l-2.12-8.27c-1.91-1.44-3.85-2.9-5.81-4.37-1.96-1.49-3.94-3-5.94-4.52-4-3.08-8.06-6.22-12.18-9.4-4.12-3.23-8.28-6.5-12.48-9.78-4.19-3.33-8.4-6.68-12.61-10.03-4.21-3.38-8.42-6.77-12.6-10.13-4.18-3.39-8.34-6.77-12.44-10.1-4.1-3.36-8.15-6.67-12.13-9.93-3.97-3.28-7.87-6.49-11.67-9.62-7.58-6.31-14.76-12.29-21.34-17.76-6.56-5.53-12.53-10.54-17.68-14.88-5.15-4.38-9.49-8.07-12.82-10.9-3.32-2.86-5.63-4.85-6.74-5.81"/>
          <path class="cls-1" d="M578.14,609.5c4.18.42,8.38.84,12.59,1.26,4.21.45,8.43.9,12.64,1.35,8.42.96,16.83,1.91,25.12,2.85,16.56,1.94,32.66,3.82,47.39,5.55,3.69.41,7.3.81,10.81,1.19,3.51.36,6.93.72,10.24,1.06,3.31.31,6.51.61,9.59.9,1.54.13,3.05.26,4.53.38,1.48.11,2.92.22,4.34.33,1.41.09,2.79.19,4.14.28,1.34.08,2.65.15,3.93.22,1.27.05,2.5.11,3.71.16,1.19.03,2.35.06,3.48.1,1.11,0,2.19.02,3.24.03.52,0,1.03,0,1.53-.01.5-.01.98-.02,1.46-.03.47-.02.94-.03,1.4-.05.45-.02.9-.05,1.33-.07.43-.03.85-.06,1.26-.09.41-.04.8-.07,1.2-.11l5.05-2.9c-1.12-.08-2.33-.17-3.64-.26-1.3-.1-2.69-.22-4.16-.33-2.94-.26-6.2-.55-9.73-.86-3.53-.33-7.32-.7-11.33-1.08-4-.4-8.22-.82-12.59-1.25-8.73-.91-18.09-1.88-27.61-2.88-9.52-1.03-19.21-2.08-28.62-3.09-18.81-2.1-36.51-4.07-49.52-5.52-12.99-1.48-21.28-2.42-21.28-2.42"/>
          <path class="cls-1" d="M660.18,427.68s2.72,2.42,7.54,6.71c4.81,4.33,11.71,10.55,20.09,18.11,4.17,3.81,8.71,7.95,13.55,12.35,4.81,4.43,9.92,9.14,15.24,14.04,5.3,4.94,10.81,10.07,16.46,15.34,5.62,5.31,11.37,10.75,17.19,16.25,2.89,2.77,5.8,5.55,8.72,8.35,2.9,2.81,5.82,5.62,8.73,8.43,2.89,2.82,5.79,5.65,8.67,8.46,2.86,2.83,5.72,5.65,8.55,8.45,2.81,2.82,5.61,5.61,8.38,8.39,2.74,2.79,5.46,5.55,8.14,8.28,2.65,2.74,5.27,5.45,7.84,8.12,2.54,2.68,5.04,5.32,7.49,7.91,1.21,1.3,2.41,2.59,3.59,3.86,1.17,1.28,2.33,2.54,3.48,3.79,1.13,1.25,2.25,2.49,3.36,3.72,1.09,1.23,2.17,2.44,3.23,3.63,1.05,1.2,2.08,2.38,3.1,3.55,1,1.17,1.99,2.32,2.96,3.45.95,1.13,1.89,2.25,2.81,3.35.9,1.1,1.78,2.18,2.65,3.25.84,1.06,1.67,2.11,2.49,3.13.79,1.02,1.56,2.03,2.32,3.01.73.98,1.44,1.94,2.14,2.89.34.47.67.94,1,1.4.32.46.64.91.95,1.36.3.45.61.89.9,1.33.29.44.57.87.85,1.29.27.42.54.84.8,1.26.25.41.5.82.75,1.22.24.4.47.79.7,1.19.22.39.43.77.65,1.15l.3.56.07.14.02.03s-.02,0-.03.01l-.07.02-.3.08c-.4.1-.8.19-1.2.29l-27.65-.62,1.44-.12,1.41-.14,1.38-.16,1.36-.18,1.33-.19,1.31-.21,1.28-.23,1.25-.24,1.23-.26,1.2-.27,1.18-.29,1.16-.31,1.13-.32,1.11-.34,1.08-.35,1.06-.37s0-.02-.01-.03l-.02-.04-.05-.07-.09-.15-.19-.3-.38-.6c-.26-.4-.52-.8-.78-1.2-.54-.81-1.09-1.63-1.65-2.46-.58-.84-1.17-1.68-1.77-2.53-.62-.86-1.25-1.73-1.89-2.6-.66-.88-1.33-1.77-2-2.67-.7-.9-1.4-1.81-2.11-2.73-.73-.92-1.48-1.85-2.22-2.8-.77-.94-1.55-1.9-2.33-2.86-.8-.96-1.61-1.93-2.43-2.92-.84-.98-1.68-1.97-2.53-2.97-.87-1-1.74-2.01-2.63-3.03-.9-1.02-1.81-2.04-2.72-3.08-.93-1.03-1.87-2.08-2.81-3.13-.96-1.05-1.93-2.11-2.9-3.18-1.98-2.13-4-4.29-6.05-6.5-2.09-2.19-4.21-4.41-6.36-6.67-2.18-2.24-4.4-4.51-6.65-6.82-2.27-2.29-4.58-4.61-6.91-6.96-2.35-2.33-4.73-4.69-7.14-7.08-2.43-2.37-4.88-4.76-7.35-7.18-2.49-2.4-5-4.83-7.53-7.27-2.54-2.43-5.11-4.88-7.69-7.34-2.59-2.45-5.2-4.92-7.82-7.4-5.27-4.93-10.59-9.9-15.94-14.9-5.37-4.96-10.77-9.95-16.17-14.93-21.66-19.79-43.25-39.5-62.84-57.39"/>
          <polygon class="cls-1" points="813.16 659.23 799.32 638.15 721.83 589.67 740.89 611.81 813.16 659.23"/>
          <polygon class="cls-1" points="860.09 616.29 860.6 625.24 860.72 627.47 860.73 627.54 860.73 627.58 860.73 627.6 860.73 627.6 860.71 627.6 860.44 627.62 859.88 627.64 858.77 627.68 856.54 627.77 847.65 628.11 812.07 629.5 659.56 626.43 726.92 621.29 805.07 624.01 844.15 625.37 853.92 625.71 856.37 625.79 856.67 625.8 856.75 625.8 856.76 625.78 856.77 625.72 856.85 625.5 857.01 625.06 857.62 623.31 860.09 616.29"/>
          <polygon class="cls-1" points="786.84 618.9 774.52 615.93 752.17 631.1 764.49 634.07 786.84 618.9"/>
          <polygon class="cls-1" points="774.39 616.08 762.45 612.88 737.01 627.27 748.94 630.46 774.39 616.08"/>
          <polygon class="cls-1" points="764.56 633.91 776.49 637.11 801.94 622.72 790 619.52 764.56 633.91"/>
          <path class="cls-1" d="M827.65,640.74l19.2-8.83,9.6-4.41,1.2-.55.6-.28.15-.07.04-.02h0s0,0,0-.01l-.02-.02-.07-.1-.27-.4-2.19-3.17-4.37-6.35-94.52-104.76,33.2,45.17,48.16,55.18,6.02,6.9,1.5,1.72.19.22.05.05-.02.02-.04.05-.17.18-.34.37-1.38,1.47-5.5,5.88-11.01,11.76Z"/>
          <polygon class="cls-1" points="883.26 605.15 850.89 602.19 761.26 571.39 790.91 572.65 883.26 605.15"/>
          <polygon class="cls-1" points="825.15 577.93 814.74 570.27 815.89 595.43 826.29 603.08 825.15 577.93"/>
          <polygon class="cls-1" points="814.8 570.52 804.4 562.5 802.88 585.66 813.27 593.67 814.8 570.52"/>
          <polygon class="cls-1" points="826.17 602.79 836.57 610.81 838.09 587.65 827.69 579.63 826.17 602.79"/>
        </g>
      </g>
      <g>
        <g>
          <path class="cls-1" d="M338.11,328.24c-.04,10.18-3.13,18.95-7.55,25.77-4.46,6.86-10.16,11.9-16.25,15.74-6.12,3.84-12.66,6.55-19.68,8.56-7.04,1.99-14.56,3.32-23.25,3.72l-.23-5.18c7.86-.37,14.66-1.47,21.11-3.15,6.42-1.71,12.49-4.04,18.22-7.45,5.69-3.42,11.07-7.97,15.29-14.24,4.17-6.25,7.1-14.34,7.14-23.76"/>
          <path class="cls-1" d="M316.7,328.24c-.07,7.48-.75,14.05-2.01,20.41-.18.8-.35,1.58-.52,2.36-.17.79-.31,1.6-.56,2.35-.47,1.52-.85,3.1-1.37,4.62-.57,1.53-1.13,3.04-1.69,4.54-.7,1.48-1.4,2.95-2.09,4.41-3.06,5.78-7.27,11.29-13.15,15.73-5.85,4.41-13.49,7.72-22.47,8.26l-.31-5.18c8.25-.49,15.24-3.61,20.53-7.75,5.32-4.17,9.06-9.34,11.71-14.7.6-1.35,1.19-2.71,1.8-4.08.47-1.38.94-2.77,1.42-4.18.43-1.39.73-2.85,1.12-4.23.22-.68.31-1.42.45-2.14.14-.71.28-1.42.42-2.14.99-5.77,1.49-11.62,1.56-18.29"/>
          <path class="cls-1" d="M199.91,328.26c.04,10.18,3.14,18.95,7.55,25.77,4.46,6.86,10.17,11.9,16.26,15.74,6.12,3.84,12.67,6.54,19.68,8.56,7.04,1.98,14.56,3.31,23.25,3.71l.22-5.18c-7.86-.36-14.66-1.46-21.11-3.15-6.42-1.71-12.49-4.04-18.22-7.45-5.7-3.41-11.08-7.96-15.29-14.24-4.17-6.24-7.11-14.34-7.14-23.76"/>
          <path class="cls-1" d="M221.32,328.25c.07,7.48.75,14.05,2.01,20.41.18.8.35,1.58.52,2.36.17.79.31,1.6.56,2.35.47,1.52.85,3.1,1.37,4.62.57,1.53,1.13,3.04,1.69,4.54.7,1.48,1.4,2.95,2.09,4.41,3.06,5.78,7.27,11.29,13.16,15.73,5.85,4.41,13.49,7.72,22.48,8.25l.31-5.18c-8.25-.49-15.24-3.61-20.53-7.75-5.32-4.17-9.06-9.33-11.71-14.7-.6-1.35-1.19-2.71-1.8-4.08-.47-1.38-.94-2.77-1.42-4.18-.43-1.39-.73-2.85-1.12-4.23-.22-.68-.32-1.42-.45-2.14-.14-.71-.28-1.42-.42-2.14-.99-5.77-1.49-11.61-1.56-18.29"/>
          <path class="cls-1" d="M299.9,399.88c-3.68-1.42-7.16-3.08-10.35-4.86-1.62-.97-3.17-1.97-4.65-3-.74-.51-1.46-1.03-2.17-1.56-.7-.51-1.39-1.06-2.07-1.65-8.24-3.09-15.02-7.99-19.93-13.56-4.92-5.58-7.91-11.9-9.04-17.98-.22,3.13.02,6.11.49,9.37.11.83.27,1.6.46,2.38.18.78.38,1.57.6,2.37.22.8.46,1.6.72,2.42.26.82.54,1.64.86,2.39,4.21,6.19,10.36,11.66,18,15.9,7.64,4.23,16.91,7.08,27.1,7.79Z"/>
          <path class="cls-1" d="M284.92,359.96c-.14,1.5-.35,3.07-.65,4.64-.34,1.49-.75,3.03-1.25,4.59-.25.77-.51,1.61-.82,2.35-.31.75-.63,1.5-.98,2.26-.7,1.5-1.47,3.11-2.36,4.58-5.32,5.49-12.43,10-20.91,12.91-8.47,2.9-18.32,4.06-28.63,2.88,4.02-.46,7.98-1.47,11.62-2.58,1.8-.51,3.64-1.29,5.35-2,1.73-.75,3.36-1.46,4.97-2.35,2.2-.56,4.29-1.11,6.3-1.78,2.03-.78,3.96-1.59,5.79-2.41,1.84-.98,3.59-1.99,5.23-3,1.64-1.08,3.18-2.32,4.62-3.46,5.75-4.87,9.68-10.75,11.71-16.65Z"/>
          <path class="cls-1" d="M268.68,375l-3.85-.3c-.65,6.16-1.35,12.32-2.08,18.48,1.79.14,3.58.27,5.37.38.23-6.19.42-12.37.57-18.56Z"/>
          <path class="cls-1" d="M264.82,374.86c-.64-.06-1.26-.27-1.89-.42l-1.86-.48c-1.47,6.02-3.12,12-4.93,17.95,1.73.42,3.48.82,5.24,1.21,1.31-6.03,2.46-12.11,3.44-18.25Z"/>
          <path class="cls-1" d="M268.06,393.4c.89.13,1.78.13,2.68.16l2.7.06c.19-6.19.22-12.37.07-18.53l-3.88-.19c-.18,3.1-.4,6.2-.66,9.29-.26,3.07-.57,6.15-.91,9.22Z"/>
        </g>
        <g>
          <path class="cls-1" d="M199.91,328.24c.04-10.18,3.13-18.95,7.55-25.77,4.46-6.86,10.16-11.9,16.25-15.74,6.12-3.84,12.66-6.55,19.68-8.56,7.04-1.99,14.56-3.32,23.25-3.72l.23,5.18c-7.86.37-14.66,1.47-21.11,3.15-6.42,1.71-12.49,4.04-18.22,7.45-5.69,3.42-11.07,7.97-15.29,14.24-4.17,6.24-7.1,14.34-7.14,23.76"/>
          <path class="cls-1" d="M221.32,328.24c.07-7.48.75-14.05,2.01-20.41.18-.8.35-1.58.52-2.36.17-.79.31-1.6.56-2.35.47-1.52.85-3.1,1.37-4.62.57-1.53,1.13-3.04,1.69-4.54.7-1.48,1.4-2.95,2.09-4.41,3.06-5.78,7.27-11.29,13.15-15.73,5.85-4.41,13.49-7.72,22.47-8.26l.31,5.18c-8.25.49-15.24,3.61-20.53,7.75-5.32,4.17-9.06,9.34-11.71,14.7-.6,1.35-1.19,2.71-1.8,4.08-.47,1.38-.94,2.77-1.42,4.18-.43,1.39-.73,2.85-1.12,4.23-.22.68-.31,1.42-.45,2.14-.14.71-.28,1.42-.42,2.14-.99,5.77-1.49,11.62-1.56,18.29"/>
          <path class="cls-1" d="M338.11,328.23c-.04-10.18-3.14-18.95-7.55-25.77-4.46-6.86-10.17-11.9-16.26-15.74-6.12-3.84-12.67-6.54-19.68-8.55-7.04-1.98-14.56-3.31-23.25-3.71l-.22,5.18c7.86.37,14.66,1.46,21.11,3.15,6.42,1.71,12.49,4.04,18.22,7.45,5.7,3.41,11.08,7.96,15.29,14.24,4.17,6.25,7.11,14.34,7.14,23.76"/>
          <path class="cls-1" d="M316.7,328.23c-.07-7.48-.75-14.05-2.01-20.41-.18-.8-.35-1.58-.52-2.36-.17-.79-.31-1.6-.56-2.35-.47-1.52-.85-3.11-1.37-4.62-.57-1.53-1.13-3.04-1.69-4.54-.7-1.48-1.4-2.95-2.09-4.41-3.06-5.78-7.27-11.29-13.16-15.73-5.85-4.41-13.49-7.72-22.48-8.25l-.31,5.18c8.25.49,15.24,3.61,20.53,7.75,5.32,4.17,9.06,9.33,11.71,14.7.6,1.35,1.19,2.71,1.8,4.08.47,1.38.94,2.77,1.42,4.18.43,1.39.73,2.85,1.12,4.23.22.68.32,1.42.45,2.14.14.71.28,1.42.42,2.14.99,5.77,1.49,11.62,1.56,18.29"/>
          <path class="cls-1" d="M238.11,256.61c3.68,1.41,7.16,3.08,10.35,4.86,1.62.97,3.17,1.97,4.65,3,.74.51,1.46,1.03,2.17,1.56.7.51,1.39,1.06,2.07,1.65,8.24,3.09,15.02,7.99,19.93,13.56,4.92,5.58,7.91,11.9,9.04,17.98.22-3.13-.02-6.11-.49-9.37-.11-.83-.27-1.6-.46-2.38-.18-.78-.38-1.57-.6-2.37s-.46-1.6-.72-2.42c-.26-.82-.54-1.64-.86-2.39-4.21-6.19-10.36-11.67-18-15.9-7.64-4.23-16.91-7.08-27.1-7.79Z"/>
          <path class="cls-1" d="M253.1,296.53c.14-1.5.35-3.07.65-4.64.34-1.49.75-3.03,1.25-4.59.25-.77.51-1.61.82-2.35.31-.75.63-1.5.98-2.26.7-1.5,1.47-3.11,2.36-4.58,5.32-5.49,12.43-10,20.91-12.91,8.47-2.9,18.32-4.06,28.63-2.88-4.02.46-7.98,1.47-11.62,2.58-1.8.51-3.64,1.29-5.35,2-1.73.75-3.36,1.46-4.97,2.35-2.2.56-4.29,1.11-6.3,1.78-2.03.78-3.96,1.59-5.79,2.42-1.84.98-3.59,1.99-5.23,3-1.64,1.08-3.18,2.32-4.62,3.46-5.75,4.87-9.68,10.75-11.71,16.65Z"/>
          <path class="cls-1" d="M269.34,281.49l3.85.3c.65-6.16,1.35-12.32,2.08-18.48-1.79-.14-3.58-.27-5.37-.38-.23,6.19-.42,12.37-.57,18.56Z"/>
          <path class="cls-1" d="M273.2,281.63c.64.06,1.26.27,1.89.42l1.86.48c1.47-6.02,3.12-12,4.93-17.95-1.73-.42-3.48-.82-5.24-1.21-1.31,6.03-2.46,12.11-3.44,18.25Z"/>
          <path class="cls-1" d="M269.96,263.09c-.89-.13-1.78-.13-2.68-.16l-2.7-.06c-.19,6.19-.22,12.37-.07,18.53l3.88.19c.18-3.1.4-6.2.66-9.29.26-3.07.57-6.15.91-9.22Z"/>
        </g>
      </g>
    </g>
  </g>
</svg>