<?xml version="1.0" encoding="UTF-8"?>
<svg id="Layer_2" data-name="Layer 2" xmlns="http://www.w3.org/2000/svg" viewBox="0 0 603.94 869.65">
  <defs>
    <style>
      .cls-1 {
        fill: #bfbfbf;
        stroke: #000;
        stroke-linecap: round;
        stroke-width: 2.5px;
      }
    </style>
  </defs>
  <g id="Layer_2-2" data-name="Layer 2">
    <g>
      <g>
        <path class="cls-1" d="M299.82,22.37c-27.21,20.85-49.78,19.02-79.65,41.9l-3.16-4.12c29.87-22.89,52.43-21.05,79.64-41.91"/>
        <path class="cls-1" d="M286.8,5.37c-28.95,22.19-34.02,45.2-60.4,65.41l-3.16-4.12c26.38-20.21,31.44-43.23,60.39-65.42"/>
        <path class="cls-1" d="M154.95,133.39c27.21-20.85,31.31-43.13,61.17-66.01l-3.16-4.12c-29.86,22.89-33.96,45.15-61.17,66.01"/>
        <path class="cls-1" d="M141.93,116.4c28.95-22.19,52.49-21.1,78.86-41.31l-3.16-4.12c-26.38,20.21-49.92,19.12-78.87,41.31"/>
        <polygon class="cls-1" points="251.58 70.58 231.65 65.29 181.1 68.94 202.5 72.92 251.58 70.58"/>
        <polygon class="cls-1" points="228.41 34.79 225.39 56.75 207.22 103.3 209.36 82.29 228.41 34.79"/>
        <rect class="cls-1" x="214.63" y="60.04" width="4.8" height="18.58" transform="translate(1.04 141.84) rotate(-36.27)"/>
        <polygon class="cls-1" points="209.71 63.37 205.67 65.98 215.65 81.65 219.68 79.05 209.71 63.37"/>
        <polygon class="cls-1" points="224.33 75.3 228.37 72.69 218.39 57.02 214.35 59.62 224.33 75.3"/>
      </g>
      <g>
        <path class="cls-1" d="M154.94,133.4c-27.21,20.85-49.78,19.02-79.65,41.9l-3.16-4.12c29.87-22.89,52.43-21.05,79.64-41.91"/>
        <path class="cls-1" d="M141.92,116.41c-28.95,22.19-34.02,45.2-60.4,65.41l-3.16-4.12c26.38-20.21,31.44-43.23,60.39-65.42"/>
        <path class="cls-1" d="M36.8,236.3c-.88-1.46-1.8-2.87-2.77-4.27-.47-.7-1-1.38-1.46-2.09-.43-.73-.61-1.57-.54-2.33.07-.77.39-1.44.83-1.92.43-.49.85-.98,1.25-1.47.8-.98,1.55-1.96,2.25-2.95,2.82-3.95,5.04-8.05,7.7-12.48,2.65-4.42,5.74-9.18,10.07-14.29,4.31-5.1,9.89-10.57,17.12-16.11l-3.18-4.1c-7.67,5.88-13.63,11.64-18.29,17.01-4.68,5.38-8.08,10.38-11.05,15.04-2.97,4.67-5.5,9-8.65,13.2-.79,1.05-1.62,2.1-2.51,3.14-.44.52-.9,1.05-1.38,1.57-.49.51-.84,1.23-.92,2.05-.09.82.09,1.71.55,2.5.49.76,1.05,1.49,1.55,2.24,1.03,1.5,2.01,3.02,2.96,4.58"/>
        <path class="cls-1" d="M10.78,233.62c-1.13-2.01-2.15-3.94-3.1-5.8-.23-.46-.46-.92-.69-1.38-.23-.45-.45-.91-.54-1.42-.2-1.01,0-2.11.55-3.02.27-.46.63-.87,1.04-1.21.42-.33.88-.61,1.33-.91.89-.59,1.79-1.17,2.69-1.73,1.8-1.13,3.61-2.2,5.43-3.23,3.59-2.07,7.38-3.88,11.02-5.55,3.65-1.67,7.2-3.21,10.66-4.65,6.91-2.9,13.37-5.47,19.45-8.33,6.09-2.87,11.77-6.03,17.46-10.39l-3.23-4.06c-6.08,4.66-12.11,8.08-18.53,11.21-6.4,3.12-13.19,5.91-20.38,9.06-7.18,3.15-14.61,6.74-21.78,11.19-1.81,1.11-3.56,2.27-5.33,3.48-.88.61-1.76,1.23-2.63,1.86-.43.32-.88.62-1.29.98-.4.36-.75.79-1.02,1.27-.54.96-.76,2.1-.59,3.15.07.53.27,1,.48,1.47.21.47.42.95.63,1.43.87,1.94,1.81,3.94,2.87,6.03"/>
        <path class="cls-1" d="M106.7,181.61l-19.93-5.29-12.64.91-6.31.45c-2.13.17-4.32.39-6.56.64-8.97,1.03-18.83,2.74-29.58,5.13,9.32-.35,17.92-.15,25.82.59,4.43-.46,8.65-.75,12.65-.88,2.02-.08,3.91-.06,5.88-.1l6.13-.29,24.54-1.17Z"/>
        <path class="cls-1" d="M83.53,145.82l-3.03,21.96c-2.93,7.68-6.47,15.84-8.13,22.54-1.87,6.87-2.9,13.1-3.09,18.68-1.8-5.08-2.92-10.68-3.37-16.8.94-3.46,2.09-7.09,3.47-10.88,1.35-3.78,3.06-7.83,4.62-11.76l9.53-23.75Z"/>
        <polygon class="cls-1" points="68.59 171.45 64.6 174.38 76.17 188.92 79.58 186.43 68.59 171.45"/>
        <path class="cls-1" d="M64.7,174.5l-4.24,2.76c3.75,4.9,7.59,9.73,11.52,14.49l3.45-2.15c-3.67-4.97-7.24-10-10.72-15.11Z"/>
        <polygon class="cls-1" points="79.45 186.33 83.48 183.73 73.51 168.05 69.47 170.65 79.45 186.33"/>
      </g>
      <g>
        <path class="cls-1" d="M36.8,236.31c3.5,5.81,5.4,10.83,6.78,15.88,1.37,5.04,2.2,10.1,3.31,15.64,1.11,5.52,2.5,11.52,4.85,18.2.56,1.63,1.29,3.47,2.04,5.28.76,1.82,1.57,3.66,2.46,5.54,1.77,3.75,3.82,7.63,6.25,11.66l-4.45,2.67c-4.85-8.06-8.21-15.5-10.8-22.57-2.58-7.05-4.17-13.39-5.48-19.25-1.31-5.87-2.34-11.26-3.93-16.66-1.59-5.41-3.73-10.81-7.49-17.05"/>
        <path class="cls-1" d="M10.78,233.63c4.51,8.04,9.67,15.2,15.06,21.39,5.38,6.2,10.77,11.47,15.86,16.26,5.1,4.8,9.91,9.11,14.31,13.68.27.27.56.59.86.93l.89,1c.58.68,1.17,1.36,1.77,2.05,1.17,1.39,2.33,2.83,3.47,4.32,2.29,3,4.51,6.23,6.65,9.79l-4.45,2.67c-4.27-7.11-8.9-12.96-13.66-18.12-4.62-4.92-9.63-9.57-14.93-14.7-5.28-5.12-10.91-10.73-16.47-17.31-5.53-6.57-10.63-14.14-14.86-22.53"/>
        <path class="cls-1" d="M123.84,381.08c-17.67-29.38-39.34-35.95-58.73-68.2l-4.45,2.67c19.39,32.25,41.05,38.82,58.72,68.2"/>
        <path class="cls-1" d="M105.5,392.11c-18.79-31.26-15.07-54.52-32.19-83.01l-4.45,2.67c17.12,28.48,13.39,51.75,32.19,83.01"/>
        <polygon class="cls-1" points="72.28 278.01 64.79 297.22 62.74 347.85 69.1 327.04 72.28 278.01"/>
        <path class="cls-1" d="M33.98,296.79c1.97.75,3.71,1.12,5.5,1.59l5.37,1.37,10.74,2.74,44.22,23.28-20.65-4.49-22.53-12.13-11.26-6.07-5.63-3.03-2.82-1.52-1.41-.77-1.53-.97Z"/>
        <rect class="cls-1" x="57.87" y="309.79" width="18.58" height="4.8" transform="translate(-146.37 74.75) rotate(-29.82)"/>
        <polygon class="cls-1" points="60.42 318.8 62.55 323.11 79.25 314.95 77.12 310.65 60.42 318.8"/>
        <polygon class="cls-1" points="73.91 305.61 71.78 301.31 55.08 309.46 57.21 313.76 73.91 305.61"/>
      </g>
      <g>
        <path class="cls-1" d="M123.85,381.09c17.67,29.38,13.3,51.6,32.69,83.85l-4.45,2.67c-19.39-32.25-15.03-54.46-32.7-83.85"/>
        <path class="cls-1" d="M105.5,392.12c18.79,31.26,41.09,38.88,58.21,67.36l-4.45,2.67c-17.12-28.48-39.43-36.1-58.22-67.36"/>
        <path class="cls-1" d="M212.53,528.58c-3.5-5.81-7.11-9.99-11.06-13.79-3.94-3.79-8.19-7.18-12.73-11.04-1.13-.96-2.28-1.96-3.45-2.99-.59-.53-1.16-1.02-1.77-1.6-.63-.61-1.26-1.22-1.89-1.84-2.53-2.48-5.06-5.07-7.57-7.87-5.03-5.61-10.02-12.07-14.87-20.13l-4.45,2.67c4.85,8.06,9.84,14.52,14.87,20.13,5,5.56,10.22,10.56,14.91,14.67,4.74,4.2,9.19,7.92,13.34,12.07,4.16,4.16,8.01,8.72,11.77,14.97"/>
        <path class="cls-1" d="M200.53,550.17c-4.88-8.12-8.57-16.1-11.39-23.54-2.82-7.45-4.78-14.39-6.45-20.85-.41-1.59-.81-3.18-1.21-4.76-.43-1.62-.9-3.29-1.37-4.94-.95-3.3-1.97-6.61-3.14-9.95-2.35-6.67-5.33-13.47-9.61-20.59l-4.45,2.67c8.57,14.26,11.88,27.13,15.5,40.51,1.87,6.79,4.03,14.07,7.08,21.9,3.04,7.81,6.97,16.2,12.13,24.78"/>
        <polygon class="cls-1" points="166.34 434.44 158.85 453.65 156.8 504.28 163.16 483.47 166.34 434.44"/>
        <polygon class="cls-1" points="128.17 453.44 149.65 458.91 193.88 482.2 173.23 477.71 128.17 453.44"/>
        <rect class="cls-1" x="151.92" y="466.23" width="18.58" height="4.8" transform="translate(-211.71 142.24) rotate(-29.82)"/>
        <polygon class="cls-1" points="154.48 475.24 156.61 479.54 173.31 471.39 171.18 467.08 154.48 475.24"/>
        <polygon class="cls-1" points="167.97 462.05 165.84 457.74 149.14 465.9 151.27 470.2 167.97 462.05"/>
      </g>
      <g>
        <path class="cls-1" d="M212.54,528.59c3.5,5.81,6.05,11.91,8.4,18.58,2.34,6.66,4.47,13.88,6.88,21.57,2.4,7.68,5.09,15.84,8.42,24.13,3.31,8.27,7.28,16.71,11.97,24.51l-.2,9.74c-4.98-8.28-9.19-17.13-12.73-25.78-3.55-8.67-6.44-17.16-9.05-25.18-2.61-8.03-4.94-15.57-7.49-22.59-2.57-7.03-5.35-13.5-9.11-19.75"/>
        <path class="cls-1" d="M200.54,550.18c4.88,8.12,9.64,14.19,14.05,18.76,4.42,4.59,8.5,7.69,12.3,10.32,3.8,2.64,7.32,4.8,10.75,7.75,3.44,2.96,6.79,6.69,10.48,12.83l-.23,9.69c-3.95-6.56-7.52-10.66-11.17-13.98-3.64-3.3-7.36-5.79-11.36-8.76-4-2.96-8.29-6.41-12.93-11.37-4.63-4.94-9.63-11.41-14.79-20"/>
        <path class="cls-1" d="M287.12,652.62c-3.99-6.64-6.83-8.95-9.51-9.97-3.37-1.32-6.54-.67-10.73-2.8-2.09-1.06-4.43-2.8-7.1-5.7-2.67-2.9-5.68-6.96-9.03-12.53l-.04,10c3.55,5.91,6.75,10.28,9.59,13.46,2.84,3.19,5.34,5.19,7.58,6.5,4.49,2.64,7.93,2.45,11.61,4.27,2.92,1.43,6.01,4.16,10.31,11.3"/>
        <path class="cls-1" d="M298,711.78c-2.57-4.13-5.11-8.77-7.57-13.67-2.46-4.91-4.86-10.19-7.15-15.53-6.32-14.75-11.83-29.97-16.9-43.41-5.11-13.5-9.73-25.14-15.12-34.1v10.05c5.75,9.58,10.69,21.74,16.09,35.74,5.37,13.94,11.17,29.64,17.82,44.93,1.2,2.73,2.42,5.43,3.67,8.09,1.25,2.65,2.53,5.3,3.79,7.71,1.27,2.45,2.57,4.82,3.88,7.1,1.3,2.26,2.66,4.53,3.96,6.5"/>
        <path class="cls-1" d="M241.61,559.64c.61,11.58,1.63,23.83,3.05,36.75,5.56,27.27,13.44,58.38,23.64,93.35-3.86-16.88-7.26-33-10.19-48.34-7.72-30.94-13.21-58.19-16.49-81.75Z"/>
        <path class="cls-1" d="M232.67,627.23c4.13-3.21,7.78-7.23,10.95-12.04,8.1-3.28,14.03-10.17,17.79-20.68-.92,8.43-2.27,16.13-4.06,23.1-5.97,6.96-14.2,10.17-24.68,9.63Z"/>
        <polygon class="cls-1" points="249.54 633.45 252.13 637.96 252.16 601.95 250.09 598.32 249.54 633.45"/>
        <path class="cls-1" d="M252.13,637.64l2.6,5.07c.07-11.85.08-23.81.04-35.86l-2.08-4.23c-.13,11.77-.31,23.44-.56,35.01Z"/>
        <path class="cls-1" d="M250.11,598.65l-2.05-4.16c-.52,11.12-1.09,22.14-1.73,33.06l2.57,5.02c.46-11.21.86-22.52,1.21-33.92Z"/>
      </g>
      <g>
        <path class="cls-1" d="M287.12,652.63c3.5,5.81,7.07,13.6,10.95,22.82,3.87,9.21,8.04,19.82,12.49,30.91,4.44,11.08,9.18,22.63,14.03,33.46,4.84,10.82,9.83,20.95,14.52,28.76l4.26,15.08c-2.41-3.93-4.79-8.05-7.14-12.37-1.17-2.16-2.34-4.37-3.51-6.64-.59-1.16-1.17-2.3-1.74-3.43-.29-.58-.58-1.16-.87-1.74l-.43-.88-.47-1.02c-5.08-11.21-10.01-23.1-14.66-34.51-4.65-11.42-9.02-22.36-13.1-31.92-4.1-9.57-7.9-17.74-11.66-23.99"/>
        <path class="cls-1" d="M298,711.79c4.79,7.69,8.49,11.97,11.51,14.69.38.34.75.66,1.11.96.36.3.72.62,1.02.69.63.25,1.21.38,1.75.43,1.09.09,2.04-.18,2.92-.56,1.76-.75,3.23-1.99,5.14-1.58,1.91.42,4.24,2.45,7.93,8.59l5.35,18.97c-3.95-6.56-6.5-8.97-8.62-9.73-1.06-.38-2-.34-2.93-.15-.46.09-.92.22-1.39.35l-.35.1c-.06.01-.12.04-.18.04l-.22-.12-.88-.47c-2.34-1.21-4.8-2.25-7.89-4.73-3.05-2.42-6.89-6.58-11.81-14.06"/>
        <path class="cls-1" d="M361.87,776.53c-.68-.53-1-1.26-1.4-1.82-.38-.58-.73-1.08-1.06-1.51-.65-.87-1.2-1.47-1.68-1.85-.94-.76-1.56-.64-2,0-.88,1.3-1.05,4.7-1.51,7.63-.45,2.94-1.19,5.4-3.04,5.07-1.85-.31-4.83-3.43-9.53-11.24l4.33,15.11c2.41,3.93,4.54,7.15,6.43,9.89.95,1.37,1.85,2.63,2.7,3.79.42.57.84,1.13,1.25,1.68.2.27.4.53.6.8l.3.39c.1.12.14.08.21.12,2.08.71,3.03-1.41,3.68-4.01.66-2.59,1.03-5.65,2.12-6.6.55-.47,1.28-.4,2.34.55.53.48,1.14,1.18,1.86,2.15.36.49.74,1.04,1.15,1.67.43.61.77,1.4,1.51,1.97"/>
        <path class="cls-1" d="M391.81,862.73c-.9-.69-1.34-1.74-1.94-2.65-.57-.95-1.14-1.89-1.7-2.82-1.15-1.95-2.26-3.84-3.34-5.68-2.21-3.81-4.39-7.69-6.56-11.67-.55-1.01-1.09-2.01-1.62-3-.27-.51-.54-1.01-.81-1.51l-.2-.39-.28-.61-.56-1.22c-1.51-3.35-2.99-6.64-4.45-9.89-2.96-6.65-5.91-13.39-8.78-20.02-5.75-13.25-11.22-26.03-16.12-36.93-4.91-10.92-9.23-19.95-12.92-26.1l5.57,19.33c3.95,6.56,8.5,15.97,13.61,27.25,2.56,5.63,5.25,11.72,8.05,18.11,1.43,3.27,2.85,6.52,4.28,9.77l1.09,2.5.54,1.24.4.79,1.6,3.14c4.26,8.34,8.49,16.34,12.71,23.88,2.11,3.78,4.24,7.45,6.39,11.04,1.05,1.73,2.13,3.51,3.25,5.34.54.87,1.09,1.75,1.65,2.64.58.85,1,1.84,1.89,2.47"/>
        <path class="cls-1" d="M306.6,667.73c6.46,21.3,13.33,43.28,20.6,65.93,3.89,10.97,7.92,22.17,12.09,33.62l6.37,17.35.41,1.1.1.27.07.17.14.34.57,1.37,1.14,2.72,2.28,5.37c6.07,14.2,11.9,27.37,17.55,39.55-4.95-11.87-10.06-24.54-15.34-38.01l-1.1-2.6c-.07-.15-.23-.57-.36-.94l-.41-1.11-.82-2.21-3.25-8.8-6.34-17.34c-4.16-11.45-8.18-22.66-12.06-33.64-7.76-21.97-14.97-43.01-21.63-63.14Z"/>
        <path class="cls-1" d="M338.18,791.6c-.09-3.68-.18-7.19-.31-10.55l-.16-4.88-.07-2.33-.03-1.14v-.56s-.02-.28-.02-.28c0-.05,0-.08,0-.15l-.06-.33c-1.18-18.72-4.53-41.05-10.06-67,4.6,17.59,8.76,34.46,12.48,50.6.85,5.63,1.55,11.03,2.12,16.19.28,2.58.53,5.1.74,7.57l.15,1.84c.01.1,0,.11-.01.12l-.03.05-.07.1-.13.2c-.18.27-.35.54-.53.84-.7,1.18-1.38,2.58-2.03,4.21-.33.82-.65,1.69-.96,2.62l-1.02,2.88Z"/>
        <polygon class="cls-1" points="345.94 789.83 348.45 793.94 330.88 732.87 328.7 729.06 345.94 789.83"/>
        <polygon class="cls-1" points="348.36 793.64 351.01 798.26 348.73 790.09 343.78 772.87 333.8 738.32 331.3 733.39 341.02 767.52 345.84 784.53 348.36 793.64"/>
        <polygon class="cls-1" points="328.89 729.67 326.42 724.82 335.56 757.98 340.09 774.5 342.74 784.39 345.39 789.05 342.94 780 338.28 763.26 328.89 729.67"/>
      </g>
      <g>
        <path class="cls-1" d="M361.88,776.54c1.37,1.08,3.51,1.03,4.77.35.64-.34,1.04-.81,1.17-1.23.12-.42.09-.75.18-1.04.25-1.15.82-1.39,1.58-1.1,1.52.59,3.83,3.29,6.06,5.44,2.23,2.17,4.39,3.79,5.64,2.49,1.25-1.28,1.6-5.5.29-14.51l6.15,14.57c.62,4.57,1.03,8.4,1.32,11.76.14,1.68.25,3.24.34,4.7.04.72.08,1.43.12,2.13.02.34.03.68.05,1.02l.02.5c0,.16-.06.14-.09.22-1.19,1.73-3.28.51-5.46-1.27-2.17-1.76-4.43-4.08-5.89-4.25-.73-.08-1.26.37-1.48,1.74-.08.35-.04.74-.15,1.21-.13.47-.55,1.01-1.23,1.39-1.34.77-3.63.84-5.11-.31"/>
        <path class="cls-1" d="M391.82,862.73c.9.67,2.08.88,3.16.67,1.09-.21,2.07-.86,2.72-1.74.65-.89.89-2.03.73-3.11-.17-1.09-.33-2.17-.5-3.24-.69-4.32-1.43-8.65-2.25-13.04-.21-1.11-.42-2.21-.62-3.31-.11-.56-.21-1.11-.32-1.66l-.08-.42-.17-.65-.34-1.31c-.96-3.59-1.9-7.11-2.83-10.59-1.93-7.11-3.93-14.28-5.91-21.32-3.96-14.08-7.84-27.61-10.97-39.29-3.13-11.69-5.52-21.51-6.54-28.61l7.99,18.97c1.1,7.58,3.54,17.83,6.74,29.94,1.6,6.05,3.38,12.54,5.26,19.34.97,3.48,1.93,6.94,2.89,10.4l.74,2.66.37,1.32.18.85c.24,1.13.48,2.26.72,3.39,1.9,9,3.64,17.7,5.09,26.1.73,4.2,1.39,8.34,1.98,12.45.15,1.03.3,2.05.43,3.08.14,1.02-.13,2.12-.8,2.98-.66.86-1.67,1.5-2.76,1.73-1.09.23-2.27.05-3.16-.56"/>
        <path class="cls-1" d="M347.52,637.95c.97,6.71,3.15,15.1,6,24.83,2.85,9.71,6.37,20.75,9.96,32.33,3.6,11.57,7.27,23.68,10.39,35.28,3.12,11.58,5.68,22.66,6.99,31.68l6.19,14.49c-.62-4.57-1.38-9.24-2.28-14.05-.45-2.4-.93-4.84-1.45-7.31-.27-1.26-.54-2.5-.8-3.73-.14-.63-.28-1.26-.42-1.88l-.21-.94-.28-1.1c-3.18-12.03-6.91-24.53-10.56-36.49-3.65-11.96-7.22-23.38-10.13-33.5-2.91-10.14-5.15-18.96-6.19-26.18"/>
        <path class="cls-1" d="M376.65,692.3c1.17,9.01,1.02,14.56.48,18.67-.07.51-.14,1-.23,1.47l-.13.69c-.03.26-.14.33-.22.49-.33.55-.7.98-1.1,1.32-.8.68-1.72.98-2.65,1.15-1.87.35-3.81.15-5.05,1.54-1.24,1.4-1.77,4.35-.74,11.45l7.93,18.56c-1.1-7.58-.63-10.97.55-12.77.59-.9,1.36-1.38,2.2-1.74.42-.18.87-.33,1.32-.48l.34-.11c.06-.02.12-.03.17-.06l.08-.24.35-.96c.96-2.55,2.12-4.88,2.88-8.83.74-3.97,1.13-9.25.18-18.24"/>
        <path class="cls-1" d="M346.55,693.46c8.15,18.26,16.18,35.75,24.1,52.46,3.16,5.62,6.28,10.96,9.36,16.03,1.54,2.53,3.07,4.99,4.59,7.39l.28.45.07.11s.02.01.03.02l.06.03.24.13.49.27,1.02.59c2.8,1.65,6.1,4.15,9.94,7.34l-12.65-17.93-.55-.39s-.13-.17-.23-.31l-.29-.44-.57-.89-2.29-3.62c-1.53-2.45-3.08-4.96-4.63-7.54-3.11-5.16-6.25-10.59-9.43-16.29-6.37-11.39-12.89-23.85-19.56-37.37Z"/>
        <path class="cls-1" d="M398.99,825.02c-1.76-6.12-3.62-12.43-5.58-18.93l-3.01-9.89-1.56-5.05-.8-2.55-.4-1.28-.2-.64-.11-.34-.21-.58c-15.45-46.41-30.3-88.64-44.54-126.7,8.09,20.08,16.3,40.99,24.64,62.75,3.74,10.64,7.52,21.55,11.34,32.73l5.76,16.98,1.45,4.31c.07.21.1.31.13.42l.1.35.2.69.4,1.38,1.55,5.48c4.08,14.51,7.69,28.13,10.84,40.86Z"/>
        <polygon class="cls-1" points="388.78 782.03 388.27 777.62 363.13 718.83 363.56 722.45 388.78 782.03"/>
        <polygon class="cls-1" points="388.15 777.35 387.88 773.48 377.01 747.93 362.87 714.91 362.84 717.49 377.06 751.02 388.15 777.35"/>
        <polygon class="cls-1" points="363.79 722.97 363.77 725.53 378.15 760.18 385.35 777.56 389.29 787.23 388.99 783.32 385.26 774.27 378.1 757.13 363.79 722.97"/>
      </g>
      <g>
        <path class="cls-1" d="M347.52,637.94c-.97-6.71-.52-10.19.58-12.56,1.1-2.35,2.84-3.57,4.5-5.34,1.66-1.75,3.25-4.05,4.07-8.29.83-4.22.89-10.4-.42-19.41l6.43,8.2c1.39,9.56,1.39,16.22.63,20.87-.76,4.67-2.29,7.37-3.89,9.51-1.61,2.15-3.29,3.76-4.33,6.52-1.03,2.78-1.43,6.7-.38,13.91"/>
        <path class="cls-1" d="M376.65,692.29c-1.14-8.93-3.41-19.1-6.33-29.61-2.94-10.56-6.44-21.32-9.82-31.45-3.39-10.16-6.7-19.77-9.41-28.51-2.71-8.76-4.81-16.62-5.83-23.71l6.44,8.26c1.1,7.58,3.26,15.87,6.03,25.04,2.77,9.15,6.13,19.14,9.58,29.69,1.72,5.27,3.47,10.68,5.16,16.16,1.68,5.45,3.27,10.9,4.72,16.32,1.4,5.3,2.62,10.5,3.63,15.53.51,2.54.94,4.95,1.3,7.29.36,2.35.66,4.64.9,6.87"/>
        <path class="cls-1" d="M326.75,494.71c.97,6.71,2.86,13.14,5.29,19.93,2.42,6.77,5.37,13.89,8.4,21.55,3.03,7.65,6.13,15.84,8.83,24.5,2.69,8.64,4.97,17.76,6.28,26.78l6.39,7.9c-1.39-9.56-3.74-19.17-6.49-28.24-2.76-9.09-5.92-17.68-9-25.71-3.08-8.05-6.09-15.54-8.57-22.72-2.48-7.2-4.44-14.06-5.48-21.28"/>
        <path class="cls-1" d="M349.99,505.84c1.36,9.38,1.51,17,.97,23.19-.54,6.21-1.76,11.03-3.06,15.28-1.3,4.27-2.68,7.99-3.49,12.31-.81,4.34-1.06,9.25-.03,16.34l6.38,7.85c-1.1-7.58-.92-12.93-.16-17.67.75-4.73,2.08-8.83,3.32-13.48,1.24-4.65,2.41-9.85,2.88-16.5.48-6.62.26-14.71-1.17-24.62"/>
        <path class="cls-1" d="M328.45,568.64c6.52,7.03,12.92,13.28,19.21,18.76,9.86,3.31,19.07,2.18,27.64-3.4-5.55-.72-11.23-2.32-17.04-4.81-9.32.75-19.26-2.77-29.81-10.54Z"/>
        <path class="cls-1" d="M383.18,649.92c-7.54-15.77-14.94-30.62-22.21-44.54-12.87-28.58-25.13-52.99-36.79-73.22,6.56,9.49,13.23,19.82,20.03,30.99,12.36,24.59,25.35,53.51,38.97,86.77Z"/>
        <polygon class="cls-1" points="364.65 600.54 364.05 595.71 341.21 567.65 341.66 571.47 364.65 600.54"/>
        <path class="cls-1" d="M363.86,595.49l-.25-4.4c-7.6-9.44-15.19-18.77-22.76-27.98l.09,3.4c7.62,9.55,15.26,19.21,22.91,28.99Z"/>
        <path class="cls-1" d="M341.85,571.67l.1,3.35c7.73,10.3,15.47,20.71,23.24,31.23l-.24-4.34c-7.71-10.19-15.41-20.28-23.1-30.24Z"/>
      </g>
      <g>
        <path class="cls-1" d="M326.75,494.7c-.97-6.71-.8-12.15-.13-17.46.67-5.29,1.84-10.43,2.94-16.12.55-2.84,1.08-5.81,1.52-8.97.22-1.58.42-3.21.59-4.89.16-1.77.27-3.64.36-5.52.35-7.53.12-15.69-1.23-25l5.13-.74c1.35,9.31,1.57,17.47,1.23,25-.33,7.62-1.29,14.23-2.33,20.29-1.04,6.07-2.15,11.59-2.76,17.3-.61,5.72-.72,11.6.33,18.81"/>
        <path class="cls-1" d="M349.99,505.83c-1.36-9.38-3.57-17.98-6.12-25.65-2.55-7.69-5.45-14.48-8.28-20.71-1.38-3.01-2.74-6.01-4.13-9.03-.33-.73-.65-1.46-.98-2.19l-.48-1.1-.49-1.21c-.65-1.61-1.27-3.25-1.87-4.91-2.4-6.66-4.4-13.8-5.59-22.02l5.13-.74c1.19,8.22,3.19,15.37,5.59,22.02,1.2,3.34,2.51,6.54,3.85,9.61,1.41,3.22,2.81,6.41,4.21,9.62,2.88,6.62,5.84,13.8,8.45,21.92,2.61,8.1,4.89,17.18,6.33,27.09"/>
        <path class="cls-1" d="M301.75,322.29c.74,5.12,1.68,9.92,2.75,14.42.54,2.25,1.11,4.42,1.7,6.53l.23.79.21.67c.14.43.29.86.43,1.29.3.86.59,1.7.88,2.54,2.41,6.71,5.22,12.86,8.05,19.11,5.65,12.51,11.36,25.43,14.06,44.04l5.13-.74c-2.7-18.62-8.41-31.54-14.06-44.05-2.82-6.25-5.63-12.4-8.04-19.11-.29-.84-.59-1.69-.88-2.54-.29-.88-.56-1.65-.86-2.71-.58-2-1.14-4.06-1.66-6.2-1.04-4.27-1.94-8.84-2.65-13.71"/>
        <path class="cls-1" d="M323.58,323.7c2.47,17.04.73,31.47-1.14,45.01-1.86,13.63-3.78,26.85-1.39,43.3l5.13-.74c-2.38-16.44-.47-29.67,1.4-43.3.93-6.81,1.85-13.73,2.2-21.19.09-1.87.14-3.77.15-5.71.03-1.84.02-3.61-.04-5.46-.11-3.68-.43-7.49-1.02-11.56"/>
        <polygon class="cls-1" points="309.96 441.08 324.3 426.26 345.78 380.37 331.87 397.1 309.96 441.08"/>
        <polygon class="cls-1" points="352.5 438.33 334.81 424.97 303.05 386.39 320.35 398.52 352.5 438.33"/>
        <rect class="cls-1" x="318.62" y="409.14" width="18.58" height="4.8" transform="translate(-48.07 43.4) rotate(-7.06)"/>
        <polygon class="cls-1" points="336.68 408.05 336.38 403.26 317.83 404.31 318.13 409.11 336.68 408.05"/>
        <polygon class="cls-1" points="319.13 414.99 319.44 419.79 337.99 418.73 337.69 413.94 319.13 414.99"/>
      </g>
      <g>
        <path class="cls-1" d="M301.75,322.28c-.65-4.51-1.08-8.75-1.32-12.65-.47-8.08.37-14.91,1.52-20.91.31-1.47.61-2.93.92-4.37.32-1.39.64-2.78.96-4.16.18-.68.26-1.35.59-2.04.32-.69.82-1.37,1.45-1.94.64-.58,1.42-1.01,2.26-1.31.83-.32,1.66-.63,2.5-.95,6.69-2.52,13.66-4.87,20.78-7.52,7.15-2.65,14.4-5.61,22-9.72l3.22,4.16c-7.18,3.85-13.98,6.66-20.88,9.04-6.89,2.37-13.77,4.4-20.48,6.63-.84.28-1.67.56-2.51.84-.84.26-1.63.66-2.26,1.2-.63.54-1.1,1.18-1.4,1.85-.3.67-.35,1.32-.49,1.98-.51,2.64-1.04,5.36-1.53,8.25-.95,5.77-1.67,12.28-1.25,19.95.21,3.7.6,7.73,1.23,12.02"/>
        <path class="cls-1" d="M323.58,323.69c-.52-3.6-1.18-7.02-1.95-10.25-1.66-7.21-3.97-14.05-6.39-20.9-1.16-3.41-2.37-6.8-3.44-10.18-.43-1.71.03-3.45.93-4.47.92-.98,1.84-1.97,2.76-2.95,3.71-3.97,7.6-8.24,12.64-12.51,5.03-4.25,11.29-8.37,18.72-12.39l3.27,4.13c-7.06,3.81-12.92,7.77-17.71,11.78-4.8,4.02-8.59,7.99-12.3,11.66-.95.91-1.76,1.87-2.6,2.81-.82.99-1.14,2.7-.6,4.38,1.29,3.34,2.62,6.61,3.84,9.87,2.46,6.52,4.64,12.94,6.26,19.72.73,3.03,1.37,6.24,1.85,9.62"/>
        <path class="cls-1" d="M429.29,198.7c-15.1,8.11-24.55,17.5-34.38,27.09-4.91,4.79-9.91,9.64-15.76,14.39-5.86,4.76-12.44,9.38-21.1,14.03l2.95,4.3c7.98-4.29,14.78-9.02,20.61-13.76,5.85-4.76,10.85-9.6,15.76-14.39,9.82-9.58,19.28-18.97,34.38-27.08"/>
        <path class="cls-1" d="M439.42,217.56c-16.06,8.63-29.86,11.73-43.3,14.65-6.72,1.46-13.35,2.86-20.13,4.89-3.39,1.01-6.82,2.18-10.31,3.59-.87.35-1.75.72-2.63,1.1-.48.21-.96.43-1.44.65-.5.23-1,.47-1.51.7-2.02.96-4.07,1.99-6.15,3.11l2.9,4.33c1.97-1.06,3.92-2.04,5.83-2.94.94-.44,1.94-.9,2.82-1.28.88-.38,1.76-.75,2.63-1.1,3.5-1.41,6.92-2.57,10.31-3.59,6.78-2.03,13.41-3.43,20.13-4.89,13.44-2.91,27.24-6.01,43.3-14.64"/>
        <path class="cls-1" d="M314.38,250.63c9.02.86,17.85,2.48,25.81,4.34,10.25-.24,19.51.05,27.79.88,2.03.23,4.14.41,6.25.59l6.31.56,12.62,1.12-20.48-7.36c-7.94-1.03-16.67-1.64-26.44-1.68-4.87-.03-9.98.07-15.33.29-5.34.23-10.97.56-16.52,1.25Z"/>
        <path class="cls-1" d="M347.06,280.99c-.69-5.53-.56-11.5.4-17.91,3.23-6.63,7.39-13.77,12.48-21.4l.96-1.44c.16-.24.34-.49.48-.72l.4-.67,1.59-2.69,3.17-5.38,6.35-10.76-5.48,20.4c-1.12,1.84-2.16,3.63-3.34,5.5-1.23,1.9-2.4,3.76-3.51,5.59-2.22,3.66-4.2,7.2-5.94,10.6-3.48,6.81-5.99,13.1-7.54,18.87Z"/>
        <polygon class="cls-1" points="360.32 261.09 364.4 259.01 354.74 243.12 349.76 245.68 360.32 261.09"/>
        <path class="cls-1" d="M364.31,258.89l4.21-1.82c-2.59-5.61-5.09-11.27-7.48-16.99l-5.1,2.29c2.69,5.56,5.48,11.07,8.37,16.52Z"/>
        <path class="cls-1" d="M349.9,245.78l-5.15,2.33c3.36,5.2,6.82,10.35,10.37,15.44l4.26-1.85c-3.26-5.25-6.43-10.56-9.49-15.92Z"/>
      </g>
      <g>
        <path class="cls-1" d="M429.3,198.7c30.2-16.22,52.18-10.79,85.33-28.6l2.46,4.57c-33.15,17.81-55.13,12.38-85.33,28.6"/>
        <path class="cls-1" d="M439.44,217.55c32.13-17.26,40.82-39.16,70.1-54.89l2.46,4.57c-29.28,15.73-37.97,37.63-70.1,54.89"/>
        <path class="cls-1" d="M590.1,112.32c-30.2,16.22-37.81,37.55-70.96,55.36l2.45,4.57c33.15-17.81,40.76-39.13,70.96-55.35"/>
        <path class="cls-1" d="M600.23,131.18c-32.13,17.26-55.19,12.41-84.47,28.14l2.46,4.57c29.28-15.73,52.34-10.87,84.47-28.13"/>
        <polygon class="cls-1" points="484.65 158.84 503.48 167.25 553.95 171.75 533.47 164.39 484.65 158.84"/>
        <polygon class="cls-1" points="501.78 197.88 508.29 176.69 533.68 133.65 528.2 154.05 501.78 197.88"/>
        <rect class="cls-1" x="516.15" y="156.32" width="4.8" height="18.58" transform="translate(-18.59 253.94) rotate(-27.05)"/>
        <polygon class="cls-1" points="524.83 172.66 529.23 170.74 521.89 153.67 517.49 155.58 524.83 172.66"/>
        <polygon class="cls-1" points="512.3 158.54 507.9 160.47 515.24 177.54 519.64 175.62 512.3 158.54"/>
      </g>
    </g>
  </g>
</svg>