<?xml version="1.0" encoding="UTF-8"?>
<svg id="Layer_2" data-name="Layer 2" xmlns="http://www.w3.org/2000/svg" viewBox="0 0 279.55 678.69">
  <defs>
    <style>
      .cls-1 {
        fill: #bfbfbf;
        stroke: #000;
        stroke-linecap: round;
        stroke-width: 2.5px;
      }
    </style>
  </defs>
  <g id="Layer_2-2" data-name="Layer 2">
    <g>
      <g>
        <path class="cls-1" d="M27.35,1.25c6.11,30.88-5.79,48.96.92,82.85l-5.09,1.01c-6.71-33.89,5.19-51.97-.92-82.85"/>
        <path class="cls-1" d="M6.35,5.41c6.5,32.85,24.61,46.14,30.53,76.08l-5.09,1.01C25.86,52.55,7.75,39.27,1.25,6.42"/>
        <path class="cls-1" d="M59.89,165.66c-6.11-30.88-24.01-43.06-30.71-76.96l-5.09,1.01c6.71,33.89,24.59,46.08,30.71,76.96"/>
        <path class="cls-1" d="M38.89,169.82c-6.5-32.85,5.18-52.03-.75-81.97l-5.09,1.01c5.92,29.94-5.76,49.12.74,81.97"/>
        <polygon class="cls-1" points="48.15 60.43 34.39 74.95 14.62 118.49 27.89 102.23 48.15 60.43"/>
        <polygon class="cls-1" points="5.86 65.63 23.96 76.8 56.99 110.27 39.32 100.21 5.86 65.63"/>
        <polygon class="cls-1" points="21.79 88.17 22.55 92.51 40.84 89.26 40.09 84.91 21.79 88.17"/>
        <polygon class="cls-1" points="22.7 92.47 23.17 96.86 41.62 94.72 41.15 90.33 22.7 92.47"/>
        <polygon class="cls-1" points="39.94 84.99 39.47 80.6 21.02 82.73 21.49 87.12 39.94 84.99"/>
      </g>
      <g>
        <path class="cls-1" d="M59.89,165.67c3.06,15.44,1.61,27.68.23,40.3-.69,6.31-1.35,12.71-1.43,19.65-.04,3.46.08,7.11.39,10.85.3,3.65.83,7.54,1.64,11.63l-4.94,1.75c-.86-4.35-1.43-8.47-1.78-12.34-.33-3.82-.44-7.41-.4-10.89.08-6.94.74-13.35,1.43-19.65,1.37-12.62,2.82-24.86-.24-40.3"/>
        <path class="cls-1" d="M38.89,169.83c3.25,16.43,9.4,27.96,15.48,39.13,3.04,5.59,6.06,11.08,8.69,17.05.66,1.49,1.29,3.01,1.9,4.57.3.78.6,1.57.88,2.37.27.76.53,1.53.81,2.3.99,2.86,1.82,5.83,2.46,9.06l-4.95,1.7c-.68-3.45-1.56-6.64-2.58-9.69-.28-.8-.55-1.58-.82-2.36-.29-.8-.58-1.59-.88-2.37-.6-1.56-1.24-3.08-1.9-4.57-2.63-5.97-5.66-11.46-8.7-17.05-6.08-11.17-12.23-22.7-15.49-39.13"/>
        <path class="cls-1" d="M88.45,309.99c-1.21-6.11-3-10.27-5.17-13.92-2.17-3.64-4.72-6.74-7.37-10.33-2.65-3.59-5.39-7.67-7.9-13.02-2.51-5.33-4.78-11.95-6.41-20.16l-4.89,2.02c1.72,8.71,4.09,15.76,6.67,21.49,2.59,5.74,5.4,10.19,8.12,14.13,2.72,3.95,5.33,7.4,7.58,11.41,2.25,4.02,4.12,8.59,5.42,15.15"/>
        <path class="cls-1" d="M72.15,337.9c-1.69-8.54-2.43-17.16-2.59-25.32-.17-8.18.23-15.94.73-23.18.5-7.26,1.09-14.02,1.27-20.48.17-6.48-.08-12.64-1.36-19.09l-4.88,2.08c1.37,6.9,1.69,13.45,1.6,20.3-.1,6.83-.63,13.94-1.06,21.55-.43,7.6-.76,15.72-.51,24.29.24,8.56,1.07,17.61,2.85,26.63"/>
        <path class="cls-1" d="M80.7,224.85l-6.88,7.26-.86.91c-.29.28-.59.52-.88.78l-1.76,1.59c-1.17,1.08-2.34,2.21-3.49,3.38-6.79,13.48-12.79,31-17.98,52.57,3.73-8.93,7.62-17.05,11.67-24.36,3.05-8.63,6.29-16.29,9.72-22.98,3.39-6.89,7.23-11.55,10.48-19.15Z"/>
        <path class="cls-1" d="M38.4,230.05l9.05,5.58c3.01,1.81,6.07,3.9,9.05,5.58,10.91,10.67,21.08,17.55,30.48,20.63-5.13.47-10.42.18-15.85-.88-5.12-3.46-10.44-7.9-15.95-13.34-2.76-2.72-5.56-5.68-8.41-8.89-2.81-2.97-5.58-5.79-8.37-8.69Z"/>
        <polygon class="cls-1" points="54.48 253.32 55.28 257.9 72.74 250.44 72.12 246.78 54.48 253.32"/>
        <path class="cls-1" d="M55.43,257.82l.53,4.7c5.82-2.37,11.62-4.84,17.4-7.41l-.35-3.79c-5.84,2.27-11.7,4.44-17.59,6.51Z"/>
        <path class="cls-1" d="M71.98,246.87l-.35-3.74c-5.98,1.59-11.97,3.08-17.99,4.46l.52,4.64c5.96-1.69,11.9-3.48,17.81-5.37Z"/>
      </g>
      <g>
        <path class="cls-1" d="M88.45,310c1.21,6.11,1.55,12.74,1.56,20.11,0,7.35-.34,15.4-.58,23.95-.25,8.54-.39,17.57-.05,26.63.34,9.04,1.17,18.14,2.79,26.34l-3.01,11.5c-1.72-8.71-2.64-18.23-3.06-27.67-.42-9.45-.34-18.85-.17-27.74.17-8.9.45-17.3.37-25.02-.08-7.74-.51-14.77-1.81-21.34"/>
        <path class="cls-1" d="M72.15,337.91c1.69,8.54,3.87,14.68,6.21,19.14,2.34,4.47,4.83,7.28,7.22,9.58,2.39,2.31,4.68,4.12,6.68,6.87,2,2.77,3.69,6.45,4.97,12.91l-3.02,11.45c-1.37-6.9-3.14-10.98-5.21-14.11-2.07-3.12-4.43-5.27-6.89-7.94-2.46-2.65-5.02-5.82-7.44-10.68-2.41-4.85-4.68-11.42-6.46-20.44"/>
        <path class="cls-1" d="M114.26,440.37c-1.43-7.21-3.18-9.24-5.2-9.86-2.02-.59-4.3.28-6.66-.45-1.63-.47-3.29-1.7-4.88-4.55-1.59-2.84-3.13-7.31-4.46-14.03l-2.96,11.77c1.41,7.13,3.02,11.96,4.68,15.14,1.66,3.19,3.38,4.73,5.07,5.49,2.44,1.16,4.8.7,6.91,1.72,2.11,1.05,3.95,3.54,5.49,11.29"/>
        <path class="cls-1" d="M106.13,506.76c-1.96-9.13-3.22-20.34-3.94-32.46-.36-6.11-.57-12.51-.74-18.74-.17-6.25-.27-12.43-.37-18.39-.16-9.11-.3-17.68-.68-25.32-.38-7.65-.98-14.35-2.08-19.95l-2.95,11.83c1.18,5.98,1.85,13.03,2.29,21.01.44,7.97.65,16.85.86,26.27.14,6.16.29,12.52.51,18.86.23,6.31.54,12.57.97,18.64.43,6.1,1,11.79,1.73,17.2.73,5.36,1.64,10.47,2.69,14.83"/>
        <path class="cls-1" d="M103.58,340.45c-2.88,13.49-5.61,27.7-8.21,42.6-3.34,30.92-5.88,65.89-7.62,104.91,1.72-19.06,3.61-37.31,5.65-54.76,2.62-34.8,6.02-65.72,10.18-92.75Z"/>
        <path class="cls-1" d="M76.36,421.86c4.38-4.64,8.59-10.13,12.64-16.46,7.7-5.55,14.65-14.9,20.85-28.05-3.23,10.11-6.6,19.45-10.13,28.03-7,9.44-14.79,14.94-23.35,16.49Z"/>
        <polygon class="cls-1" points="88.59 425.66 89.43 430.42 99.98 388.04 99.32 384.2 88.59 425.66"/>
        <path class="cls-1" d="M89.51,430.05l.68,5.43c3.53-13.96,7.03-28.03,10.51-42.2l-.49-4.54c-3.55,13.87-7.11,27.64-10.7,41.31Z"/>
        <path class="cls-1" d="M99.24,384.59l-.49-4.46c-3.68,13.19-7.38,26.28-11.1,39.26l.67,5.37c3.66-13.29,7.3-26.68,10.92-40.17Z"/>
      </g>
      <g>
        <path class="cls-1" d="M114.26,440.37c1.21,6.11,1.91,14.53,2.44,24.57.53,10.02.9,21.64,1.36,33.76.46,12.11,1.02,24.71,1.89,36.45.87,11.72,2.05,22.6,3.68,30.8l-.84,16.5c-.86-4.14-1.64-8.48-2.33-13.02-.35-2.27-.68-4.58-.99-6.95-.15-1.21-.3-2.4-.45-3.58-.07-.61-.14-1.21-.22-1.82l-.11-.91-.09-1.1c-.95-12.13-1.58-25.09-2.11-37.54-.53-12.47-.97-24.43-1.57-34.82-.61-10.41-1.39-19.23-2.69-25.8"/>
        <path class="cls-1" d="M106.13,506.77c1.72,8.04,3.52,12.59,5.2,15.58.21.37.42.72.63,1.05l.31.48.08.11.08.04.17.07c.45.16.89.2,1.33.13.88-.12,1.75-.63,2.59-1.26,1.69-1.25,3.27-3.01,4.74-2.94,1.47.09,2.81,1.99,4.09,8.45l-1.09,21.2c-1.37-6.9-2.79-9.19-4.33-9.65-.77-.22-1.57.02-2.39.43-.41.21-.83.45-1.26.7l-.32.19c-.05.03-.11.07-.16.09l-.14-.14-.58-.55c-1.56-1.44-3.25-2.66-5.03-5.36-1.78-2.71-3.72-7.08-5.59-14.84"/>
        <path class="cls-1" d="M140.06,570.74c-1.21-6.11-2.29-6.7-3.41-5-1.11,1.72-2.25,5.75-3.48,9.29-1.23,3.55-2.56,6.6-4.02,6.6-1.45.02-3.02-3.03-4.64-11.23l-.79,16.55c.85,4.13,1.67,7.53,2.44,10.43.39,1.45.77,2.78,1.14,4,.18.6.37,1.19.55,1.77.09.28.18.56.27.84l.13.41c.04.12.09.06.14.1,1.53.39,2.93-2.29,4.23-5.49,1.3-3.18,2.51-6.87,3.7-8.21,1.19-1.32,2.35-.33,3.65,6.24"/>
        <path class="cls-1" d="M139.73,666c-1.65-7.9-3.08-15.89-4.36-24.32-.16-1.07-.32-2.13-.47-3.18-.08-.54-.16-1.07-.23-1.6l-.06-.41-.05-.66-.11-1.32c-.28-3.63-.55-7.19-.81-10.71-.52-7.21-1-14.52-1.46-21.72-.91-14.39-1.73-28.28-2.62-40.09-.89-11.83-1.85-21.55-3.13-28.01l-1.02,21.58c1.37,6.9,2.4,17.02,3.36,29.22.48,6.09.94,12.7,1.4,19.62.23,3.55.47,7.08.7,10.61l.18,2.71.09,1.35.1.83.42,3.31c1.11,8.8,2.27,17.29,3.58,25.32,1.31,8.05,2.76,15.62,4.44,23.05"/>
        <path class="cls-1" d="M126.06,454.06c-.85,23.72-1.56,48.15-2.13,73.28.03,12.09.11,24.44.23,37.04l.23,19.09.02,1.21v.3s.01.18.01.18l.02.36.08,1.43.16,2.84.33,5.61c.9,14.83,1.93,28.74,3.09,41.71-.68-12.6-1.25-25.94-1.71-40.03l-.16-2.72-.08-4.67-.13-9.68-.21-19.08c-.12-12.6-.18-24.96-.2-37.07-.04-24.23.11-47.49.46-69.77Z"/>
        <path class="cls-1" d="M116.32,589.97l2.71-10.6,1.26-4.9.61-2.35.3-1.15.15-.57.07-.28.04-.15.05-.38c4.49-21.78,8.23-47.36,11.22-76.73-1.32,19.74-2.79,38.72-4.41,56.94-.94,6.45-1.93,12.65-2.97,18.61-.52,2.98-1.05,5.89-1.6,8.75l-.41,2.13c-.02.12-.03.12-.05.13l-.04.05-.08.1-.16.19-.67.83c-1.81,2.31-3.81,5.44-6,9.4Z"/>
        <polygon class="cls-1" points="123.14 588.89 124.01 593.22 127.21 525.65 126.52 521.62 123.14 588.89"/>
        <polygon class="cls-1" points="124.03 592.91 124.87 597.76 125.34 589.25 126.25 570.02 128.05 531.45 127.41 526.17 125.52 564.3 124.57 583.31 124.03 592.91"/>
        <polygon class="cls-1" points="126.49 522.3 125.86 517.11 123.77 554.22 122.71 572.71 122.06 583.15 122.91 588.07 123.48 578.58 124.49 559.86 126.49 522.3"/>
      </g>
      <g>
        <path class="cls-1" d="M140.06,570.75c.3,1.53.6,3.31.88,5.33l.11.77c.03.26.19.49.37.59.18.11.37.09.43.01.05-.08.07-.16.11-.23.14-.29.28-.51.41-.67.55-.63,1.08-.27,1.62.7,1.07,1.94,2.15,6.28,3.33,10.12,1.18,3.85,2.45,7.21,3.86,7.44,1.4.25,2.94-2.65,4.56-10.86l.67,16.68c-.85,4.14-1.66,7.56-2.42,10.53-.38,1.48-.75,2.84-1.12,4.12-.18.62-.36,1.24-.54,1.84-.09.29-.18.59-.26.88l-.13.43c-.04.13-.09.05-.14.08-1.48.17-2.83-2.82-4.07-6.32-1.25-3.49-2.4-7.47-3.54-9.04-.57-.78-1.14-.95-1.73-.11-.15.21-.3.48-.44.82-.04.08-.07.18-.12.27-.06.09-.27.12-.46,0-.2-.1-.37-.34-.4-.62l-.11-.81c-.31-2.12-.62-4.01-.95-5.66"/>
        <path class="cls-1" d="M139.73,666.01c.41,1.92.81,3.78,1.2,5.58.06.21.06.47.28.59.2.12.5.08.68-.1.18-.19.17-.47.23-.71l.14-.74c.19-1.01.37-2,.55-2.97.72-3.97,1.4-7.99,2.05-12.1.16-1.04.32-2.07.48-3.09.08-.52.16-1.04.23-1.56l.06-.4.06-.67.11-1.34c.28-3.7.56-7.33.84-10.92.52-7.54,1.02-14.88,1.52-22.17.96-14.7,1.82-28.89,2.74-40.93.92-12.06,1.9-21.93,3.17-28.39l.88,22.41c-1.36,6.9-2.41,17.18-3.41,29.6-.5,6.21-.98,12.95-1.46,20.02-.25,3.63-.49,7.23-.73,10.83l-.19,2.77-.09,1.37-.1.8-.42,3.2c-1.12,8.51-2.29,16.69-3.61,24.51-.66,3.91-1.35,7.73-2.09,11.49-.18.92-.37,1.86-.56,2.81l-.14.7c-.06.23-.05.49-.23.67-.18.17-.48.21-.69.1-.23-.11-.23-.36-.28-.55-.39-1.69-.8-3.43-1.22-5.23"/>
        <path class="cls-1" d="M166.33,451.48c-1.2,6.11-1.92,14.68-2.49,24.95-.57,10.25-.98,22.18-1.49,34.6-.51,12.41-1.11,25.32-2.02,37.29-.9,11.95-2.1,22.98-3.72,31.19l.72,16.64c.85-4.14,1.62-8.43,2.32-12.9.35-2.24.68-4.52,1-6.85.16-1.19.31-2.36.46-3.52.07-.6.15-1.19.22-1.78l.11-.9.09-1.12c.98-12.36,1.66-25.62,2.24-38.38.58-12.77,1.06-25.04,1.7-35.66.64-10.64,1.44-19.61,2.73-26.18"/>
        <path class="cls-1" d="M173.79,520.49c-1.72,8.05-3.43,12.59-5.05,15.76-.2.39-.4.76-.6,1.12l-.3.51-.07.12-.08.03-.16.04c-.43.1-.87.06-1.29-.07-.85-.27-1.69-.93-2.5-1.71-1.63-1.56-3.16-3.62-4.58-3.77-1.42-.14-2.74,1.62-4.01,8.07l.95,22.03c1.36-6.9,2.75-9.04,4.24-9.28.75-.11,1.52.27,2.32.82.4.28.8.6,1.22.92l.31.25c.05.04.1.09.16.11l.14-.16.55-.64c1.48-1.66,3.08-3.08,4.81-5.96.86-1.44,1.75-3.23,2.65-5.61.9-2.38,1.82-5.35,2.76-9.27"/>
        <path class="cls-1" d="M149.03,493.18c1.21,22.01,2.56,43.32,4.06,63.92.91,7.41,1.86,14.57,2.87,21.48.5,3.45,1.02,6.84,1.55,10.17l.1.62.02.16s.01.02.02.03l.04.05.16.22.31.46.64.99c1.69,2.78,3.59,6.4,5.7,10.85l-4.72-21.06-.31-.6s-.06-.24-.09-.44l-.1-.62-.2-1.24-.79-5.03-1.53-10.33c-1-7.01-1.95-14.26-2.85-21.76-1.81-14.99-3.42-30.95-4.84-47.88Z"/>
        <path class="cls-1" d="M152.55,642.81c.41-6.05.79-12.29,1.15-18.72l.51-9.8.24-5.01.12-2.53.06-1.27.03-.64v-.34s.02-.65.02-.65c1.2-50.8,1.65-97.79,1.35-140.99.63,23.35,1.11,47.47,1.44,72.35-.11,11.84-.27,23.93-.48,36.26l-.35,18.69-.1,4.73c0,.23-.01.33-.02.44l-.02.34-.05.68-.09,1.35-.37,5.35c-1.01,14.16-2.15,27.41-3.42,39.75Z"/>
        <polygon class="cls-1" points="157.09 601.57 157.98 597.63 155.01 528.92 154.28 532.12 157.09 601.57"/>
        <polygon class="cls-1" points="157.97 597.34 158.88 593.96 158.51 584.54 157.67 564.87 155.96 525.65 155.17 527.61 156.79 567.29 157.97 597.34"/>
        <polygon class="cls-1" points="154.31 532.75 153.53 534.69 154.96 575.4 155.98 606.19 156.89 602.76 155.82 573.01 154.31 532.75"/>
      </g>
      <g>
        <path class="cls-1" d="M166.33,451.47c1.2-6.11,2.61-8.34,4.21-9.08,1.6-.73,3.38.04,5.26.31,1.88.28,3.86.07,5.79-2.38,1.93-2.43,3.82-7.12,5.43-15.32l2.81,12.6c-1.71,8.71-3.69,13.83-5.7,16.65-2.01,2.84-4.06,3.42-6.01,3.49-1.95.08-3.8-.34-5.47.77-1.67,1.12-3.16,3.75-4.45,10.32"/>
        <path class="cls-1" d="M173.79,520.48c1.72-8.05,2.93-17.53,3.74-27.97.1-1.33.19-2.64.29-3.94.09-1.32.18-2.65.24-4.09.12-2.88.25-5.71.37-8.5.21-5.68.36-11.36.49-16.93.26-11.13.41-21.76.81-31.12.4-9.38,1.02-17.48,2.29-23.93l2.8,12.66c-1.36,6.9-2.06,15.39-2.53,25.14-.23,4.87-.41,10.05-.56,15.44-.16,5.57-.32,11.08-.48,16.63-.37,11.19-.91,22.3-1.86,32.61-.48,5.18-1.04,10.05-1.73,14.61-.69,4.57-1.49,8.83-2.42,12.72"/>
        <path class="cls-1" d="M191.99,321.07c-1.2,6.11-1.57,12.9-1.61,20.49-.04,7.58.25,15.93.44,24.78.19,8.84.29,18.18-.09,27.47-.37,9.27-1.23,18.52-2.84,26.73l2.86,12.33c1.71-8.71,2.65-18.39,3.1-28.05.46-9.68.43-19.38.3-28.57-.12-9.2-.34-17.9-.23-25.85.12-7.96.56-15.15,1.86-21.72"/>
        <path class="cls-1" d="M207.64,352.4c-1.68,8.54-3.83,14.53-6.11,18.76-2.29,4.25-4.71,6.75-7.04,8.75-2.33,2.01-4.56,3.52-6.51,6.04-1.95,2.54-3.61,6.07-4.88,12.53l2.87,12.28c1.36-6.9,3.1-10.83,5.12-13.74,2.02-2.89,4.32-4.75,6.72-7.11,2.4-2.35,4.9-5.21,7.26-9.85,2.36-4.62,4.59-11.04,6.37-20.07"/>
        <path class="cls-1" d="M171.39,379.55c3.23,11.78,6.59,22.86,10.09,33.23,7.06,12.21,14.91,20.36,23.56,24.47-4.32-5.99-8.47-12.79-12.47-20.4-7.83-8.56-14.89-20.99-21.19-37.31Z"/>
        <path class="cls-1" d="M191.84,495.51l-1.11-14.36-1.19-14.15c-.81-9.33-1.67-18.45-2.56-27.36-2-34.57-4.74-65.33-8.23-92.3,2.53,13.71,4.9,28.19,7.13,43.44,1.38,15.5,2.57,31.99,3.57,49.47.5,8.74.95,17.72,1.35,26.95l.57,14.03c.17,4.72.35,9.6.47,14.29Z"/>
        <polygon class="cls-1" points="191.43 439.53 192.38 435.23 182.09 391.29 181.33 394.67 191.43 439.53"/>
        <polygon class="cls-1" points="192.29 434.87 193.4 431.25 183.15 387.45 182.22 390.15 192.29 434.87"/>
        <polygon class="cls-1" points="181.42 395.01 180.5 397.68 190.16 444.44 191.26 440.87 181.42 395.01"/>
      </g>
      <g>
        <path class="cls-1" d="M191.99,321.07c1.2-6.11,2.96-10.12,5.08-13.55,2.12-3.41,4.61-6.21,7.19-9.5,2.58-3.29,5.26-7.07,7.72-12.19,2.46-5.1,4.7-11.58,6.31-19.78l4.73,2.85c-1.71,8.71-4.04,15.61-6.57,21.11-2.54,5.52-5.29,9.66-7.94,13.3-2.65,3.65-5.21,6.8-7.4,10.58-2.2,3.8-4.03,8.21-5.33,14.78"/>
        <path class="cls-1" d="M207.65,352.39c1.68-8.54,2.44-17.31,2.64-25.7.2-8.41-.14-16.47-.59-24.02-.45-7.56-.99-14.62-1.12-21.31-.13-6.7.14-13.02,1.42-19.47l4.72,2.9c-1.36,6.9-1.71,13.61-1.65,20.68.06,7.06.54,14.47.92,22.39.38,7.91.66,16.32.38,25.13-.28,8.79-1.12,17.99-2.9,27.01"/>
        <path class="cls-1" d="M219.83,179.63c-3.04,15.44-1.58,27.68-.19,40.3,1.34,12.85,2.82,24.99-.46,41.67l4.78,2.58c1.71-8.71,2.3-16.61,2.23-23.6-.09-6.93-.76-13.34-1.45-19.65-1.39-12.61-2.84-24.85.19-40.3"/>
        <path class="cls-1" d="M240.83,183.76c-3.23,16.43-9.37,27.97-15.44,39.15-1.52,2.79-3.03,5.57-4.49,8.38-.71,1.39-1.42,2.79-2.13,4.2-.67,1.29-1.32,2.59-1.94,3.89-2.48,5.21-4.49,10.53-5.76,16.99l4.79,2.53c1.36-6.9,3.45-12.61,6-18.2.64-1.39,1.3-2.78,1.99-4.16.69-1.39,1.41-2.85,2.14-4.25,1.46-2.82,2.97-5.59,4.49-8.38,6.07-11.18,12.21-22.72,15.44-39.15"/>
        <path class="cls-1" d="M193.75,265.92c5.24,1.56,10.62,2.41,16.13,2.55,10.49-5.24,21.78-14.54,33.87-27.87-6.31,4.15-12.46,7.48-18.45,10.01-11.28,8.98-21.79,14.09-31.54,15.31Z"/>
        <path class="cls-1" d="M229.95,302.1c-3.38-9.74-6.93-18.63-10.64-26.68-5.19-18.34-11.13-32.87-17.81-43.61,4.42,4.08,8.69,8.92,12.82,14.53,5.99,14.64,11.2,33.23,15.64,55.76Z"/>
        <polygon class="cls-1" points="225.35 267.16 226.34 262.67 209.18 253.65 208.38 257.22 225.35 267.16"/>
        <path class="cls-1" d="M226.19,262.61l1.25-4.35c-5.68-3.1-11.37-6.11-17.09-9.01l-1.08,3.44c5.66,3.2,11.3,6.51,16.92,9.91Z"/>
        <path class="cls-1" d="M208.53,257.27l-1.06,3.4c5.52,3.88,11.03,7.87,16.51,11.96l1.24-4.3c-5.54-3.79-11.11-7.48-16.69-11.06Z"/>
      </g>
      <g>
        <path class="cls-1" d="M219.83,179.62c6.08-30.89,23.96-43.09,30.63-76.99l5.09,1c-6.67,33.9-24.55,46.1-30.62,76.99"/>
        <path class="cls-1" d="M240.84,183.75c6.47-32.86-5.23-52.03.66-81.97l5.09,1c-5.89,29.94,5.81,49.11-.65,81.97"/>
        <path class="cls-1" d="M252.2,15.17c-6.08,30.89,5.84,48.96-.83,82.86l5.09,1c6.67-33.9-5.25-51.96.83-82.85"/>
        <path class="cls-1" d="M273.2,19.3c-6.47,32.86-24.56,46.17-30.45,76.11l5.09,1c5.89-29.94,23.99-43.25,30.46-76.11"/>
        <polygon class="cls-1" points="223.07 116.97 241.32 108.77 276.15 76 257.69 86 223.07 116.97"/>
        <polygon class="cls-1" points="264.17 128.23 251.66 111.02 233.83 67.51 246.35 83.53 264.17 128.23"/>
        <polygon class="cls-1" points="257.99 101.33 258.94 97.02 240.78 93.08 239.83 97.39 257.99 101.33"/>
        <polygon class="cls-1" points="258.79 97 260.01 92.76 242.14 87.73 240.91 91.97 258.79 97"/>
        <polygon class="cls-1" points="239.99 97.37 238.77 101.61 256.65 106.65 257.88 102.41 239.99 97.37"/>
      </g>
    </g>
  </g>
</svg>