<?xml version="1.0" encoding="UTF-8"?>
<svg id="Layer_2" data-name="Layer 2" xmlns="http://www.w3.org/2000/svg" viewBox="0 0 596.63 1068.55">
  <defs>
    <style>
      .cls-1 {
        fill: #bfbfbf;
        stroke: #000;
        stroke-linecap: round;
        stroke-width: 2.5px;
      }
    </style>
  </defs>
  <g id="Layer_2-2" data-name="Layer 2">
    <g>
      <g>
        <g>
          <path class="cls-1" d="M9.16,1.25c44.53,13.87,61.82,35.17,110.69,50.39l-1.54,4.95C69.44,41.37,52.14,20.08,7.62,6.21"/>
          <path class="cls-1" d="M2.8,21.69c47.37,14.76,75.29,7.55,118.45,21l-1.54,4.95C76.54,34.2,48.62,41.41,1.25,26.65"/>
          <path class="cls-1" d="M246.22,75.09c-44.53-13.87-70.86-6.17-119.73-21.39l-1.54,4.95c48.87,15.22,75.2,7.52,119.72,21.39"/>
          <path class="cls-1" d="M239.85,95.53c-47.37-14.76-66.26-36.54-109.42-49.99l-1.54,4.95c43.16,13.44,62.05,35.24,109.42,49.99"/>
          <polygon class="cls-1" points="99.64 20.09 111.15 40.77 157.85 84.48 143.75 63.15 99.64 20.09"/>
          <polygon class="cls-1" points="82.6 59.3 107.7 50.79 170.92 43.35 147.53 52.17 82.6 59.3"/>
          <polygon class="cls-1" points="121.59 59.65 127.8 61.69 133.83 44.11 127.63 42.08 121.59 59.65"/>
          <polygon class="cls-1" points="127.83 61.54 133.93 63.85 141.54 46.83 135.44 44.52 127.83 61.54"/>
          <polygon class="cls-1" points="127.64 42.24 121.54 39.94 113.93 56.96 120.03 59.27 127.64 42.24"/>
        </g>
        <g>
          <path class="cls-1" d="M315.67,144.59c10.51,33.82,1.15,54.9,12.68,92.02l-4.95,1.54c-11.53-37.12-2.18-58.19-12.69-92.02"/>
          <path class="cls-1" d="M295.23,150.94c11.18,35.98,31.2,49.26,41.38,82.04l-4.95,1.54c-10.18-32.79-30.21-46.06-41.39-82.04"/>
          <path class="cls-1" d="M371.61,324.66c-10.51-33.82-30.16-45.89-41.69-83.01l-4.95,1.54c11.53,37.12,31.18,49.19,41.68,83.01"/>
          <path class="cls-1" d="M351.17,331.01c-11.18-35.98-2.2-58.26-12.39-91.05l-4.95,1.54c10.18,32.79,1.2,55.07,12.38,91.05"/>
          <polygon class="cls-1" points="344.91 208.65 333.19 225.93 319.57 275.96 330.56 256.79 344.91 208.65"/>
          <polygon class="cls-1" points="303.29 217.92 323.01 228.85 360.84 263.33 341.72 253.6 303.29 217.92"/>
          <polygon class="cls-1" points="322.45 241.66 323.83 246.43 341.69 241.3 340.31 236.54 322.45 241.66"/>
          <polygon class="cls-1" points="323.97 246.37 325.07 251.21 343.24 247.31 342.15 242.47 323.97 246.37"/>
          <polygon class="cls-1" points="340.18 236.63 339.08 231.79 320.9 235.69 322 240.52 340.18 236.63"/>
        </g>
        <g>
          <path class="cls-1" d="M371.61,324.67c10.51,33.82,1.15,54.9,12.68,92.02l-4.95,1.54c-11.53-37.12-2.18-58.19-12.69-92.02"/>
          <path class="cls-1" d="M351.17,331.02c11.18,35.98,31.2,49.26,41.38,82.04l-4.95,1.54c-10.19-32.79-30.21-46.06-41.39-82.04"/>
          <path class="cls-1" d="M427.55,504.74c-10.51-33.82-30.16-45.89-41.69-83.01l-4.95,1.54c11.53,37.12,31.18,49.19,41.68,83.01"/>
          <path class="cls-1" d="M407.11,511.09c-11.18-35.98-2.2-58.26-12.39-91.05l-4.95,1.54c10.18,32.79,1.2,55.07,12.38,91.05"/>
          <polygon class="cls-1" points="400.86 388.73 389.13 406.01 375.52 456.04 386.5 436.87 400.86 388.73"/>
          <polygon class="cls-1" points="359.23 398 378.95 408.93 416.79 443.41 397.66 433.68 359.23 398"/>
          <polygon class="cls-1" points="378.39 421.74 379.77 426.51 397.63 421.38 396.25 416.62 378.39 421.74"/>
          <polygon class="cls-1" points="379.91 426.45 381.01 431.29 399.18 427.39 398.09 422.55 379.91 426.45"/>
          <polygon class="cls-1" points="396.12 416.71 395.02 411.87 376.84 415.77 377.94 420.6 396.12 416.71"/>
        </g>
        <g>
          <path class="cls-1" d="M427.56,504.75c10.51,33.82,1.15,54.9,12.68,92.02l-4.95,1.54c-11.53-37.12-2.18-58.19-12.69-92.02"/>
          <path class="cls-1" d="M407.11,511.1c11.18,35.98,31.2,49.26,41.38,82.04l-4.95,1.54c-10.19-32.79-30.21-46.06-41.39-82.04"/>
          <path class="cls-1" d="M483.5,684.82c-10.51-33.82-30.16-45.89-41.69-83.01l-4.95,1.54c11.53,37.12,31.18,49.19,41.68,83.01"/>
          <path class="cls-1" d="M463.05,691.17c-11.18-35.98-2.2-58.26-12.39-91.05l-4.95,1.54c10.18,32.79,1.2,55.07,12.38,91.05"/>
          <polygon class="cls-1" points="456.8 568.81 445.08 586.09 431.46 636.12 442.44 616.95 456.8 568.81"/>
          <polygon class="cls-1" points="415.18 578.08 434.9 589 472.73 623.49 453.6 613.76 415.18 578.08"/>
          <polygon class="cls-1" points="434.34 601.82 435.71 606.59 453.57 601.46 452.2 596.7 434.34 601.82"/>
          <polygon class="cls-1" points="435.86 606.53 436.95 611.37 455.12 607.47 454.04 602.63 435.86 606.53"/>
          <polygon class="cls-1" points="452.06 596.79 450.96 591.95 432.79 595.85 433.88 600.68 452.06 596.79"/>
        </g>
        <g>
          <path class="cls-1" d="M483.5,684.83c10.51,33.82,1.15,54.9,12.68,92.02l-4.95,1.54c-11.53-37.12-2.18-58.19-12.69-92.02"/>
          <path class="cls-1" d="M463.06,691.18c11.18,35.98,31.2,49.26,41.38,82.04l-4.95,1.54c-10.19-32.79-30.21-46.06-41.39-82.04"/>
          <path class="cls-1" d="M539.44,864.9c-10.51-33.82-30.16-45.89-41.69-83.01l-4.95,1.54c11.53,37.12,31.18,49.19,41.68,83.01"/>
          <path class="cls-1" d="M518.99,871.25c-11.18-35.98-2.2-58.26-12.39-91.05l-4.95,1.54c10.19,32.79,1.2,55.07,12.38,91.05"/>
          <polygon class="cls-1" points="512.74 748.89 501.02 766.17 487.4 816.2 498.39 797.03 512.74 748.89"/>
          <polygon class="cls-1" points="471.12 758.16 490.84 769.08 528.67 803.57 509.54 793.84 471.12 758.16"/>
          <polygon class="cls-1" points="490.28 781.9 491.66 786.67 509.52 781.54 508.14 776.78 490.28 781.9"/>
          <polygon class="cls-1" points="491.8 786.61 492.9 791.45 511.07 787.55 509.98 782.71 491.8 786.61"/>
          <polygon class="cls-1" points="508 776.87 506.91 772.03 488.73 775.92 489.83 780.76 508 776.87"/>
        </g>
        <g>
          <path class="cls-1" d="M539.44,864.91c10.51,33.82,1.15,54.9,12.68,92.02l-4.95,1.54c-11.53-37.12-2.18-58.19-12.69-92.02"/>
          <path class="cls-1" d="M519,871.26c11.18,35.98,31.2,49.26,41.38,82.04l-4.95,1.54c-10.19-32.79-30.21-46.06-41.39-82.04"/>
          <path class="cls-1" d="M595.38,1044.98c-10.51-33.82-30.16-45.89-41.69-83.01l-4.95,1.54c11.53,37.12,31.18,49.19,41.68,83.01"/>
          <path class="cls-1" d="M574.94,1051.33c-11.18-35.98-2.2-58.26-12.39-91.05l-4.95,1.54c10.19,32.79,1.2,55.07,12.38,91.05"/>
          <polygon class="cls-1" points="568.69 928.97 556.96 946.25 543.35 996.28 554.33 977.11 568.69 928.97"/>
          <polygon class="cls-1" points="527.06 938.24 546.78 949.16 584.62 983.65 565.49 973.92 527.06 938.24"/>
          <polygon class="cls-1" points="546.22 961.98 547.6 966.74 565.46 961.62 564.08 956.85 546.22 961.98"/>
          <polygon class="cls-1" points="547.74 966.69 548.84 971.52 567.01 967.63 565.92 962.79 547.74 966.69"/>
          <polygon class="cls-1" points="563.95 956.95 562.85 952.11 544.67 956 545.77 960.84 563.95 956.95"/>
        </g>
        <g>
          <path class="cls-1" d="M290.15,152.52l-.29-.96-.26-.96-.22-.96-.19-.97-.16-.97-.13-.97-.1-.98-.07-.98-.04-.98v-.98s0-.98,0-.98l.04-.98.07-.97.09-.97.11-.97.13-.96.15-.96.17-.95.19-.95.21-.94c.08-.31.15-.62.23-.93.08-.31.16-.62.24-.93.09-.31.17-.61.26-.92.09-.31.18-.61.27-.91.09-.3.19-.6.28-.9.1-.3.2-.6.29-.89.21-.59.42-1.17.62-1.75.22-.57.44-1.14.65-1.7.23-.56.46-1.11.68-1.64.24-.54.47-1.07.7-1.58.24-.52.48-1.02.71-1.52.24-.5.48-.98.72-1.45.24-.47.48-.93.71-1.37.24-.45.47-.88.7-1.29.24-.42.46-.82.68-1.21.23-.39.44-.76.65-1.12.22-.36.42-.7.62-1.02.41-.65.78-1.23,1.1-1.74.34-.51.63-.94.86-1.29.5-.7.76-1.08.76-1.08l-.48.82-.46.83-.44.83-.42.84-.4.85-.38.85-.36.86-.35.86-.33.87-.31.87-.3.87-.28.88-.26.88-.25.88-.23.88-.22.88-.39,1.75-.34,1.74-.29,1.73c-.08.57-.16,1.14-.24,1.71-.06.56-.13,1.13-.19,1.68-.05.56-.1,1.11-.15,1.66-.04.55-.08,1.09-.11,1.62-.03.53-.05,1.06-.08,1.58-.02.52-.03,1.03-.05,1.54,0,.5-.01,1-.02,1.49,0,.49,0,.96,0,1.43,0,.47.02.93.03,1.37.02.45.03.88.04,1.31.02.42.04.84.06,1.24.05.8.1,1.55.15,2.25.06.69.12,1.33.17,1.91.06.57.12,1.09.17,1.53.11.88.18,1.49.21,1.76"/>
          <path class="cls-1" d="M238.31,100.49c.14.04.29.08.44.12.15.03.31.07.47.1.16.03.33.06.5.09.17.02.35.05.53.08.18.02.37.04.56.06.19.02.39.04.59.05.2.01.41.03.61.04.21.01.42.02.64.03.44.01.89.02,1.35.03.47,0,.94,0,1.43,0,.49-.01,1-.03,1.51-.04.52-.03,1.04-.05,1.57-.08.54-.04,1.08-.07,1.63-.11.55-.04,1.11-.09,1.67-.14.56-.05,1.14-.11,1.71-.16.57-.06,1.15-.12,1.73-.18,1.16-.14,2.33-.28,3.5-.42,1.17-.16,2.33-.32,3.47-.47,1.15-.17,2.27-.34,3.37-.5,1.1-.18,2.16-.35,3.18-.51,2.04-.35,3.91-.68,5.48-.95,3.16-.6,5.17-.98,5.17-.98l.09-4.73c-.5.13-1,.26-1.51.4-.51.12-1.02.24-1.53.37-.52.11-1.04.23-1.56.34-.52.1-1.05.21-1.58.32-.53.1-1.06.19-1.59.29-.53.09-1.07.18-1.6.27l-1.61.25-1.61.22-1.61.2-1.6.18c-1.06.1-2.12.21-3.16.31-1.04.08-2.06.16-3.07.24-1,.06-1.99.12-2.95.18-.96.04-1.89.09-2.79.13-.9.03-1.76.05-2.59.08-.82.01-1.61.03-2.35.04-.74,0-1.44,0-2.08.01-.64,0-1.24,0-1.77-.01-.54-.01-1.01-.02-1.43-.03-.41-.02-.77-.03-1.05-.04-.14,0-.26-.02-.37-.02-.11,0-.2-.02-.26-.02"/>
          <path class="cls-1" d="M315.67,144.59l-.29-1.12-.27-1.13-.25-1.14-.23-1.15c-.14-.77-.28-1.54-.42-2.3-.12-.77-.25-1.53-.37-2.29-.23-1.53-.45-3.03-.66-4.49-.11-.73-.22-1.45-.32-2.16-.12-.7-.23-1.4-.34-2.07-.06-.34-.12-.67-.18-1-.06-.33-.13-.65-.19-.97-.07-.32-.14-.63-.2-.94-.07-.31-.14-.61-.22-.9-.08-.29-.15-.58-.23-.87-.08-.28-.17-.56-.25-.83-.09-.27-.18-.53-.27-.79l-.14-.38-.15-.37-.15-.35-.16-.34-.17-.33-.17-.32-.18-.3-.19-.29-.19-.28-.2-.26-.21-.25-.22-.24-.22-.22-.23-.21-.24-.19-.25-.18-.26-.16-.27-.14-3.44.16c.04.09.08.19.13.3.04.1.08.21.13.32.08.22.17.46.26.72.08.26.17.53.27.81.09.29.18.58.27.89.09.31.18.64.28.97.09.34.18.68.28,1.04.18.71.37,1.47.56,2.25.18.78.37,1.6.56,2.43.18.83.37,1.68.55,2.54.35,1.72.7,3.48,1.05,5.19.32,1.71.63,3.37.92,4.9.27,1.53.52,2.93.73,4.12.4,2.38.66,3.9.66,3.9"/>
          <path class="cls-1" d="M246.22,75.09s.67.09,1.86.25c.59.09,1.31.2,2.14.33.83.14,1.76.31,2.78.49.51.1,1.04.2,1.6.31.55.11,1.12.23,1.71.35.59.13,1.19.26,1.81.4.62.14,1.25.29,1.9.44.64.16,1.3.33,1.97.49.66.18,1.34.36,2.02.54.68.2,1.37.4,2.06.6.69.22,1.38.43,2.08.65.69.24,1.39.47,2.09.71l1.04.38,1.04.39,1.04.41,1.03.42,1.02.44,1.01.45.99.47.98.48c.32.17.64.33.96.5.32.17.63.35.94.52.31.18.62.36.92.53.3.18.6.37.9.55.29.19.59.38.88.57.29.2.57.39.85.58.28.2.55.4.82.6.27.21.53.42.79.62.26.22.51.43.76.64.24.22.49.44.72.66.23.23.46.45.69.67l.33.34.32.35.31.35.3.36.29.36.28.37.27.37.26.38.25.38.23.39.22.39.21.4.2.4.18.41.17.41.16.42.15.42.13.43.12.43.1.44.05.22v.06s.01.01.01.01h.01s.03,0,.03,0l.11.02.44.09,3.25,4.28-.32-.17-.33-.16-.34-.16-.35-.15-.37-.14-.38-.13-.39-.12-.4-.11-.42-.1-.43-.09-.44-.08-.45-.08c-.31-.04-.62-.08-.93-.13-.32-.03-.65-.06-.98-.09-.09-.27-.18-.53-.28-.8l-.15-.39-.16-.39-.17-.38-.18-.38-.18-.37-.19-.36-.2-.36-.21-.35-.22-.35-.22-.34-.23-.34-.24-.33c-.16-.21-.33-.43-.5-.65-.17-.21-.35-.42-.53-.63-.18-.2-.37-.4-.56-.61-.19-.19-.39-.39-.58-.59-.2-.19-.4-.38-.61-.57-.21-.18-.42-.36-.63-.55-.22-.18-.44-.35-.66-.53-.22-.17-.45-.34-.68-.51-.23-.16-.47-.33-.7-.49-.24-.16-.48-.32-.72-.48-.25-.15-.5-.31-.75-.46-.25-.15-.51-.3-.77-.45-.26-.14-.52-.29-.78-.43-.27-.14-.53-.28-.8-.41-.27-.13-.55-.27-.82-.4l-.84-.39-.85-.37-.87-.36-.88-.35-.89-.33-.91-.32c-.61-.2-1.23-.41-1.85-.61-.62-.19-1.25-.38-1.88-.57-.64-.18-1.27-.36-1.92-.54-.64-.17-1.29-.33-1.94-.5l-1.96-.47-1.97-.45c-1.32-.28-2.64-.56-3.95-.83-1.31-.26-2.62-.52-3.91-.77-1.29-.25-2.56-.5-3.81-.75-1.25-.26-2.48-.51-3.67-.75"/>
          <polygon class="cls-1" points="330.09 94.43 312.07 103.03 276.95 129.55 295.25 119.85 330.09 94.43"/>
          <polygon class="cls-1" points="294.43 89.37 293.74 95.6 293.57 97.15 293.57 97.2 293.56 97.23 293.56 97.24 293.56 97.24 293.56 97.25 293.61 97.28 293.71 97.36 293.91 97.51 294.3 97.81 295.86 99.02 302.12 103.84 320.39 127.31 306.16 118.96 297.89 106.58 293.75 100.39 292.71 98.84 292.45 98.45 292.42 98.4 292.41 98.39 292.42 98.37 292.43 98.31 292.48 98.11 292.57 97.69 292.94 96.03 294.43 89.37"/>
          <polygon class="cls-1" points="295.58 110.86 294.49 113.6 311.95 112.18 313.04 109.44 295.58 110.86"/>
          <polygon class="cls-1" points="294.64 113.58 293.28 116.33 310.43 115.61 311.79 112.86 294.64 113.58"/>
          <polygon class="cls-1" points="312.89 109.48 314.25 106.73 297.11 107.44 295.73 110.2 312.89 109.48"/>
          <polygon class="cls-1" points="310.58 98.04 299.56 97.96 294.05 97.91 293.36 97.91 293.02 97.9 292.93 97.9 292.91 97.9 292.91 97.9 292.9 97.9 292.9 97.89 292.89 97.86 292.83 97.74 292.41 96.78 291.57 94.84 270.27 76.71 276.95 89.19 287.63 99.75 288.96 101.07 289.3 101.4 289.34 101.44 289.35 101.45 289.37 101.45 289.42 101.44 289.62 101.41 290.02 101.35 291.6 101.09 297.93 100.08 310.58 98.04"/>
          <polygon class="cls-1" points="303.17 66.94 292.73 84.77 265.98 117.62 275.68 100.23 303.17 66.94"/>
          <polygon class="cls-1" points="286.52 82.94 283.81 83.78 281.78 101.45 284.49 100.61 286.52 82.94"/>
          <polygon class="cls-1" points="283.8 83.92 281.12 84.49 278.4 102.34 281.08 101.77 283.8 83.92"/>
          <polygon class="cls-1" points="284.48 100.47 287.16 99.9 289.88 82.05 287.2 82.62 284.48 100.47"/>
        </g>
      </g>
      <g>
        <g>
          <path class="cls-1" d="M3.77,1032.25c35.96,0,53.57,15.19,93.04,15.19v5.19c-39.47,0-57.08-15.18-93.04-15.18"/>
          <path class="cls-1" d="M3.77,1053.66c38.25,0,57.16-15.18,92.01-15.18v5.19c-34.86,0-53.76,15.19-92.01,15.19"/>
          <path class="cls-1" d="M195.21,1032.25c-35.96,0-53.58,15.19-93.04,15.19v5.19c39.46,0,57.08-15.18,93.04-15.18"/>
          <path class="cls-1" d="M195.21,1053.66c-38.25,0-57.16-15.18-92.01-15.18v5.19c34.86,0,53.76,15.19,92.01,15.19"/>
          <polygon class="cls-1" points="74.7 1023.33 87.91 1039.65 132.32 1067.49 117.05 1051.32 74.7 1023.33"/>
          <polygon class="cls-1" points="71.15 1065.83 87.68 1050.24 132.5 1024.34 117.31 1039.72 71.15 1065.83"/>
          <polygon class="cls-1" points="99.93 1054.57 104.97 1054.67 105.38 1036.1 100.34 1036 99.93 1054.57"/>
          <polygon class="cls-1" points="104.96 1054.52 109.98 1054.9 111.67 1036.4 106.65 1036 104.96 1054.52"/>
          <polygon class="cls-1" points="100.39 1036.15 95.37 1035.77 93.67 1054.28 98.69 1054.67 100.39 1036.15"/>
        </g>
        <g>
          <path class="cls-1" d="M195.23,1032.25h.42s.05,0,.05,0c0,0,.11,0-.08,0-.25,0-.49,0-.74.02-.49.03-.98.08-1.47.15-1.97.29-3.9.97-5.6,1.96-3.42,1.97-5.98,5.18-7.16,8.92-.3.93-.5,1.89-.62,2.84-.05.48-.1.95-.11,1.43v.36s0,.18,0,.18c0,.06,0,0,0,0v-.1s.03-.81.03-.81c.02-.54.05-1.07.07-1.6.11-2.11.27-4.17.48-6.17.42-4,1.01-7.79,1.72-11.45,1.42-7.32,3.32-14.13,5.22-21.05,3.8-13.83,7.59-28.1,7.59-47.84h5.19c0,19.73-3.8,34-7.59,47.84-1.9,6.92-3.8,13.72-5.22,21.05-.71,3.66-1.3,7.45-1.72,11.45-.21,2-.37,4.05-.48,6.17-.02.53-.05,1.06-.07,1.6l-.03.81v.1s0,.04,0,0v-.12s0-.24,0-.24c0-.32.04-.63.07-.96.08-.64.21-1.29.41-1.91.79-2.52,2.51-4.68,4.81-6.01,1.15-.67,2.45-1.12,3.77-1.32.33-.05.66-.08.99-.1h.5c.13-.01.04-.01.04-.01h-.05s-.42,0-.42,0"/>
          <path class="cls-1" d="M195.23,1053.66h.45s.46-.02.46-.02c.18,0,.36-.04.55-.07.73-.13,1.42-.4,2.03-.8,1.22-.79,2.09-2.06,2.38-3.47.07-.35.11-.7.11-1.05v-.5s-.04-.86-.04-.86c-.02-.57-.05-1.14-.07-1.7-.11-2.25-.27-4.43-.48-6.55-.42-4.25-1.01-8.26-1.72-12.11-1.42-7.7-3.32-14.73-5.22-21.67-3.8-13.86-7.59-27.3-7.59-44.73h5.19c0,17.43,3.8,30.87,7.59,44.73,1.9,6.93,3.8,13.97,5.22,21.67.71,3.85,1.31,7.86,1.72,12.11.21,2.12.37,4.3.48,6.55.02.56.05,1.13.07,1.7l.03.86v.22s0,.11,0,.11v.28c-.01.68-.09,1.37-.23,2.05-.57,2.75-2.27,5.22-4.65,6.74-1.18.77-2.55,1.3-3.95,1.55-.35.06-.71.11-1.06.13l-.53.03h-.3s-.45,0-.45,0"/>
          <path class="cls-1" d="M179.85,860.7c0,35.96,15.19,53.58,15.19,93.04h5.19c0-39.46-15.18-57.08-15.18-93.04"/>
          <path class="cls-1" d="M201.26,860.7c0,38.25-15.18,57.16-15.18,92.01h5.19c0-34.86,15.19-53.76,15.19-92.01"/>
          <polygon class="cls-1" points="170.93 981.22 187.25 968.01 215.1 923.6 198.92 938.87 170.93 981.22"/>
          <polygon class="cls-1" points="213.43 984.77 197.84 968.24 171.94 923.41 187.32 938.61 213.43 984.77"/>
          <polygon class="cls-1" points="202.17 955.99 202.27 950.95 183.7 950.54 183.6 955.58 202.17 955.99"/>
          <polygon class="cls-1" points="202.12 950.96 202.51 945.94 184 944.25 183.6 949.27 202.12 950.96"/>
          <polygon class="cls-1" points="183.75 955.53 183.37 960.55 201.88 962.25 202.27 957.23 183.75 955.53"/>
        </g>
        <g>
          <path class="cls-1" d="M179.85,860.69c0-35.96,15.19-53.57,15.19-93.04h5.19c0,39.47-15.18,57.08-15.18,93.04"/>
          <path class="cls-1" d="M201.26,860.69c0-38.25-15.18-57.16-15.18-92.01h5.19c0,34.86,15.19,53.76,15.19,92.01"/>
          <path class="cls-1" d="M179.85,669.25c0,35.96,15.19,53.58,15.19,93.04h5.19c0-39.46-15.18-57.08-15.18-93.04"/>
          <path class="cls-1" d="M201.26,669.25c0,38.25-15.18,57.16-15.18,92.01h5.19c0-34.86,15.19-53.76,15.19-92.01"/>
          <polygon class="cls-1" points="170.93 789.77 187.25 776.55 215.1 732.15 198.92 747.42 170.93 789.77"/>
          <polygon class="cls-1" points="213.43 793.32 197.84 776.79 171.94 731.96 187.32 747.15 213.43 793.32"/>
          <polygon class="cls-1" points="202.17 764.53 202.27 759.5 183.7 759.09 183.6 764.12 202.17 764.53"/>
          <polygon class="cls-1" points="202.12 759.51 202.51 754.49 184 752.79 183.6 757.81 202.12 759.51"/>
          <polygon class="cls-1" points="183.75 764.07 183.37 769.1 201.88 770.79 202.27 765.77 183.75 764.07"/>
        </g>
        <g>
          <path class="cls-1" d="M241.97,573c30.55-13.8,51.77-6.72,85.3-21.87l2.14,4.73c-33.53,15.15-54.75,8.07-85.3,21.88"/>
          <path class="cls-1" d="M250.79,592.51c32.5-14.68,42.31-35.77,71.92-49.15l2.14,4.73c-29.61,13.38-39.42,34.47-71.92,49.16"/>
          <path class="cls-1" d="M404.62,499.53c-30.55,13.8-39.27,34.4-72.79,49.55l2.14,4.73c33.53-15.15,42.25-35.74,72.8-49.54"/>
          <path class="cls-1" d="M413.44,519.04c-32.5,14.68-54.81,8.1-84.42,21.48l2.14,4.73c29.61-13.38,51.93-6.79,84.43-21.47"/>
          <polygon class="cls-1" points="298.56 537.65 316.51 547.45 365.7 555.79 346.06 546.91 298.56 537.65"/>
          <polygon class="cls-1" points="313.04 577.75 320.66 557.19 348.09 516.38 341.51 536.23 313.04 577.75"/>
          <rect class="cls-1" x="329.02" y="537.69" width="4.7" height="18.58" transform="translate(-187.97 173.78) rotate(-23.09)"/>
          <rect class="cls-1" x="333.88" y="535.62" width="4.7" height="18.58" transform="translate(-163.11 144.11) rotate(-19.57)"/>
          <polygon class="cls-1" points="325.67 539.48 321.24 541.05 327.42 558.58 331.85 557 325.67 539.48"/>
        </g>
        <g>
          <path class="cls-1" d="M252.98,597.35l-1.12.5-1.13.47-1.13.43-1.14.4-1.15.37-1.15.34-1.16.31-1.16.28-1.16.25-1.16.22-1.16.19-1.16.17-1.16.14-1.16.12-1.16.09-1.16.07c-.39.02-.77.03-1.15.05-.38,0-.77.02-1.15.03-.38,0-.76,0-1.14,0-.38,0-.76,0-1.14-.01-.38-.01-.75-.02-1.13-.03-.38-.02-.75-.03-1.12-.05-.37-.02-.74-.04-1.11-.07-.37-.03-.74-.05-1.1-.08-.37-.03-.73-.06-1.09-.1-.36-.04-.72-.07-1.08-.11-.72-.09-1.42-.18-2.12-.26-.7-.1-1.39-.21-2.06-.31-.68-.12-1.34-.23-2-.35-.66-.13-1.3-.26-1.93-.38-.63-.14-1.25-.27-1.85-.4-.6-.14-1.19-.29-1.77-.42-.58-.15-1.14-.29-1.68-.43-.54-.15-1.07-.3-1.58-.44-.51-.15-1.01-.3-1.48-.44-.48-.15-.93-.29-1.37-.43-.44-.14-.86-.28-1.26-.41-.8-.28-1.51-.53-2.14-.75-.62-.24-1.16-.44-1.59-.6-.87-.36-1.34-.55-1.34-.55.33.11.67.21,1,.32.34.1.67.2,1.01.3.34.09.68.18,1.02.27l1.03.25,1.03.23,1.04.21,1.04.19,1.05.17,1.05.15,1.06.13,1.06.12,1.06.1,1.06.08,1.06.07,1.06.05,1.06.03,2.11.03,2.1-.03c.69-.03,1.39-.05,2.08-.08.69-.04,1.37-.08,2.05-.12.68-.05,1.35-.11,2.02-.16.67-.07,1.33-.13,1.98-.2.65-.08,1.3-.15,1.94-.23.64-.09,1.27-.17,1.89-.25.62-.09,1.23-.19,1.83-.28.6-.1,1.19-.2,1.77-.3.58-.1,1.15-.21,1.71-.31.56-.11,1.1-.21,1.63-.32.53-.11,1.05-.22,1.56-.32.5-.11,1-.22,1.47-.32.95-.22,1.84-.44,2.67-.63.82-.21,1.58-.41,2.26-.58.68-.19,1.29-.35,1.81-.49,1.05-.3,1.76-.5,2.08-.59"/>
          <path class="cls-1" d="M206.45,669.25c0-.18-.01-.37-.02-.56-.01-.19-.03-.39-.04-.59-.02-.2-.04-.41-.06-.62-.03-.21-.06-.43-.08-.65-.03-.22-.07-.45-.1-.68-.04-.23-.08-.47-.12-.71-.05-.24-.09-.49-.14-.74-.05-.25-.11-.5-.16-.76-.12-.52-.24-1.05-.37-1.59-.14-.55-.29-1.11-.43-1.68-.16-.57-.32-1.16-.49-1.75-.18-.6-.36-1.2-.54-1.82-.19-.61-.39-1.24-.59-1.87-.21-.63-.42-1.27-.63-1.91-.44-1.29-.9-2.59-1.35-3.91-.48-1.31-.96-2.64-1.44-3.95-.5-1.31-.99-2.62-1.48-3.9-.5-1.28-1-2.54-1.48-3.77-.49-1.22-.97-2.41-1.43-3.55-.95-2.27-1.81-4.34-2.54-6.09-1.51-3.49-2.47-5.7-2.47-5.7l-4.54,1.62c.27.53.55,1.08.83,1.62.27.55.54,1.11.81,1.67.26.56.52,1.13.79,1.7.26.57.51,1.15.77,1.74.25.58.5,1.17.75,1.76.24.59.49,1.19.73,1.78l.71,1.8.69,1.81c.44,1.21.88,2.42,1.32,3.62.41,1.21.83,2.41,1.23,3.59.39,1.19.77,2.36,1.14,3.51.36,1.15.71,2.29,1.05,3.39.33,1.11.64,2.18.95,3.22.29,1.04.58,2.05.85,3.01.26.96.51,1.88.74,2.75.22.87.43,1.68.63,2.44.19.76.36,1.46.51,2.09.15.63.28,1.2.4,1.69.11.49.2.91.27,1.25.07.34.12.59.15.76"/>
          <path class="cls-1" d="M241.98,573l-1.32.53-1.33.51-1.34.5-1.35.48c-.91.31-1.81.61-2.71.92-.91.29-1.81.58-2.71.87-1.8.55-3.58,1.1-5.31,1.63-.86.27-1.72.53-2.55.79-.83.27-1.65.53-2.45.79-.79.27-1.57.54-2.32.8-.37.14-.74.27-1.1.41-.36.14-.71.28-1.06.41-.35.14-.69.28-1.02.42-.33.15-.65.29-.97.43-.31.15-.62.3-.92.44-.3.15-.58.3-.87.45l-.41.23-.4.23-.38.24-.37.24-.35.25-.34.25-.32.26-.3.26-.29.27-.27.27-.25.28-.23.28-.21.29c-.07.1-.13.2-.19.29-.06.1-.12.2-.17.3-.05.1-.1.2-.15.3l.39,3.48c.22-.12.46-.25.72-.39.26-.13.54-.27.84-.42.3-.14.62-.29.95-.45.33-.15.68-.31,1.05-.47.73-.31,1.52-.64,2.36-.99.84-.33,1.73-.69,2.64-1.05.92-.35,1.88-.72,2.86-1.09.98-.36,1.98-.73,3-1.1,2.03-.72,4.1-1.46,6.12-2.17,2.02-.69,3.98-1.36,5.79-1.98,1.81-.6,3.46-1.16,4.87-1.63,2.81-.92,4.6-1.5,4.6-1.5"/>
          <path class="cls-1" d="M179.85,669.25s-.11-.82-.32-2.27c-.09-.73-.2-1.61-.32-2.63-.11-1.02-.23-2.18-.36-3.44-.06-.63-.12-1.3-.18-1.98-.06-.69-.11-1.4-.17-2.14-.05-.74-.11-1.49-.16-2.27-.05-.78-.09-1.57-.14-2.39-.04-.81-.07-1.64-.11-2.49-.03-.84-.05-1.7-.08-2.57-.01-.87-.03-1.75-.04-2.63,0-.89,0-1.78,0-2.68.02-.9.04-1.8.05-2.71l.11-2.73.08-1.36.1-1.36.11-1.35.13-1.35c.05-.45.1-.89.15-1.34.06-.44.11-.89.17-1.33.06-.44.13-.88.19-1.31.07-.43.14-.87.21-1.3.08-.43.16-.85.23-1.28.09-.42.17-.84.26-1.26.09-.41.19-.83.28-1.23.1-.41.21-.81.31-1.21.11-.4.22-.79.33-1.18.12-.39.24-.77.36-1.15.13-.38.26-.75.38-1.12.14-.37.28-.73.41-1.09.15-.36.3-.71.44-1.05l.23-.51.24-.5.25-.49.25-.48.26-.47.27-.46.28-.45.28-.44.29-.43.3-.42.31-.4.32-.39.33-.38.33-.37.34-.35.35-.34.36-.33.37-.31.38-.3.39-.28.2-.14.05-.03h.01s0,0,0-.02v-.03s.02-.12.02-.12l.08-.46,4.9-4.23-.19.36-.18.37-.16.38-.15.39-.14.4-.13.41-.12.42-.11.44-.09.45-.08.46-.07.47-.06.48-.05.48-.04.49-.03.5-.02.51c-.23.2-.45.41-.69.62l-.33.32-.32.33-.31.34-.31.34-.3.35-.29.36-.28.37-.28.37-.27.38-.26.39-.25.39-.25.4c-.15.27-.31.55-.47.82-.15.28-.29.56-.44.85-.14.29-.27.58-.41.87-.13.3-.26.59-.39.9-.12.3-.24.61-.36.92-.11.31-.22.63-.34.94-.1.32-.21.64-.31.96-.09.33-.19.65-.29.99-.09.33-.17.67-.26,1.01-.08.34-.16.68-.24,1.02-.07.34-.15.69-.22,1.04-.07.35-.13.7-.2,1.06-.06.36-.12.72-.18,1.08-.05.36-.1.73-.16,1.09-.05.37-.09.74-.14,1.11-.04.37-.08.75-.12,1.12-.03.38-.07.76-.1,1.14-.03.38-.06.76-.09,1.15-.02.39-.05.77-.07,1.16-.03.78-.06,1.56-.09,2.35-.01.79-.02,1.59-.04,2.39,0,.8,0,1.61.01,2.42.02.81.04,1.63.06,2.44.03.82.07,1.64.1,2.46l.13,2.47.16,2.47c.13,1.65.25,3.3.38,4.93.14,1.64.28,3.26.42,4.87.14,1.61.28,3.19.42,4.75.13,1.56.25,3.09.37,4.58"/>
          <polygon class="cls-1" points="181.34 568.95 192.68 585.52 226.41 615.71 213.74 599.1 181.34 568.95"/>
          <polygon class="cls-1" points="179.14 607.48 185.29 606.02 186.83 605.65 186.88 605.64 186.9 605.64 186.91 605.63 186.92 605.63 186.92 605.63 186.96 605.57 187.05 605.45 187.21 605.22 187.55 604.76 188.89 602.91 194.25 595.5 221.1 571.87 212.02 588.15 197.78 599.23 190.65 604.77 188.87 606.16 188.42 606.5 188.37 606.55 188.35 606.56 188.33 606.56 188.28 606.57 188.06 606.59 187.64 606.63 185.94 606.8 179.14 607.48"/>
          <polygon class="cls-1" points="203.01 600.67 206.35 601.21 203.59 583.69 200.26 583.16 203.01 600.67"/>
          <polygon class="cls-1" points="206.31 601.05 209.67 601.86 207.77 584.52 204.41 583.71 206.31 601.05"/>
          <polygon class="cls-1" points="200.32 583.31 196.95 582.5 198.85 599.84 202.22 600.66 200.32 583.31"/>
          <polygon class="cls-1" points="186.83 588.09 187.4 599.36 187.68 604.99 187.72 605.69 187.74 606.04 187.74 606.13 187.74 606.15 187.74 606.16 187.74 606.16 187.73 606.17 187.71 606.2 187.61 606.3 186.81 607.15 185.22 608.84 174.24 640.45 184.17 628.06 191.08 611.67 191.94 609.62 192.16 609.11 192.18 609.05 192.19 609.03 192.18 609.01 192.17 608.96 192.12 608.76 192.02 608.37 191.62 606.81 190.02 600.57 186.83 588.09"/>
          <polygon class="cls-1" points="155.12 605.43 175.26 611.16 214.57 630.54 195.09 625.51 155.12 605.43"/>
          <polygon class="cls-1" points="175.35 619.11 176.96 621.99 194.43 617.92 192.82 615.04 175.35 619.11"/>
          <polygon class="cls-1" points="177.1 621.95 178.44 624.88 196.29 621.55 194.95 618.61 177.1 621.95"/>
          <polygon class="cls-1" points="192.7 615.1 191.36 612.17 173.51 615.5 174.84 618.44 192.7 615.1"/>
        </g>
      </g>
    </g>
  </g>
</svg>