<?xml version="1.0" encoding="UTF-8"?>
<svg id="Layer_2" data-name="Layer 2" xmlns="http://www.w3.org/2000/svg" viewBox="0 0 385.47 933.34">
  <defs>
    <style>
      .cls-1 {
        fill: #bfbfbf;
        stroke: #000;
        stroke-linecap: round;
        stroke-width: 2.5px;
      }
    </style>
  </defs>
  <g id="Layer_2-2" data-name="Layer 2">
    <g>
      <g>
        <g>
          <path class="cls-1" d="M42.16,908.69c-2.55-42.85,11.36-64.74,8.56-111.77l5.18-.31c2.8,47.03-11.11,68.92-8.56,111.77"/>
          <path class="cls-1" d="M63.53,907.42c-2.71-45.58-19.21-67.21-21.68-108.74l5.18-.31c2.47,41.53,18.97,63.16,21.69,108.74"/>
          <path class="cls-1" d="M28.58,680.58c2.55,42.85,18.96,62.94,21.76,109.96l5.18-.31c-2.8-47.03-19.2-67.12-21.75-109.97"/>
          <path class="cls-1" d="M49.95,679.3c2.71,45.58-11.1,69.01-8.63,110.54l5.18-.31c-2.47-41.53,11.35-64.96,8.63-110.54"/>
          <polygon class="cls-1" points="28.22 824.71 43.57 807.99 68.22 753.43 53.16 772.58 28.22 824.71"/>
          <polygon class="cls-1" points="70.9 826.42 54.16 807.65 25.13 755.77 41.56 772.96 70.9 826.42"/>
          <polygon class="cls-1" points="57.62 792.79 57.36 786.78 38.79 787.39 39.05 793.4 57.62 792.79"/>
          <polygon class="cls-1" points="57.21 786.8 57.24 780.8 38.64 779.88 38.6 785.88 57.21 786.8"/>
          <polygon class="cls-1" points="39.2 793.33 39.17 799.34 57.77 800.26 57.8 794.26 39.2 793.33"/>
        </g>
        <g>
          <path class="cls-1" d="M76.97,585.4c27.27-17.49,48.82-13.28,78.75-32.47l2.8,4.37c-29.93,19.2-51.48,14.99-78.75,32.48"/>
          <path class="cls-1" d="M88.53,603.42c29.01-18.61,35.14-40.58,61.57-57.54l2.8,4.37c-26.43,16.96-32.56,38.93-61.57,57.54"/>
          <path class="cls-1" d="M207.9,492.44c-.74,2.41-1.31,4.77-1.76,7.13-.33,2.4-1.22,4.62-2.52,6.3-.64.85-1.39,1.54-2.05,2.32-.68.76-1.34,1.54-1.99,2.32-1.31,1.57-2.57,3.19-3.85,4.86-1.99,2.58-4.01,5.27-6.23,8.06-.57.71-1.08,1.37-1.75,2.13-.66.75-1.33,1.51-2.01,2.27-1.36,1.52-2.76,3.03-4.21,4.55-5.83,6.06-12.64,12.09-21.73,17.93l2.8,4.37c9.09-5.83,15.9-11.86,21.73-17.93,1.46-1.52,2.86-3.03,4.22-4.55,1.36-1.52,2.7-3.05,3.88-4.48,2.41-2.91,4.62-5.72,6.8-8.42,1.4-1.74,2.79-3.44,4.23-5.1.72-.83,1.44-1.64,2.19-2.45.73-.82,1.54-1.55,2.25-2.45,1.42-1.79,2.41-4.16,2.78-6.72.5-2.52,1.12-5.06,1.92-7.64"/>
          <path class="cls-1" d="M227.11,502.78c-.99,3.15-2.06,6.08-3.18,8.79-.97,2.76-2.85,5.1-5.31,6.57-1.23.74-2.58,1.25-3.85,1.82-1.29.55-2.57,1.06-3.84,1.55-2.54.97-5.03,1.82-7.45,2.6-4.13,1.33-8.08,2.42-11.86,3.43-1.84.47-3.88,1.08-5.83,1.65-1.97.58-3.93,1.19-5.9,1.84-7.88,2.6-15.82,5.91-24.15,11.25l2.8,4.37c8.33-5.34,16.27-8.65,24.15-11.25,3.94-1.3,7.86-2.42,11.82-3.55,3.98-1.14,8.12-2.35,12.46-3.81,2.54-.85,5.14-1.8,7.77-2.88,1.32-.54,2.64-1.12,3.97-1.73,1.31-.63,2.7-1.21,3.96-2.01,2.53-1.6,4.52-4.06,5.62-6.93,1.24-2.83,2.42-5.89,3.48-9.21"/>
          <polygon class="cls-1" points="125.93 543.39 144.77 550.7 193.47 552.54 173.16 546.35 125.93 543.39"/>
          <polygon class="cls-1" points="146.19 580.89 150.3 559.73 170.31 516.12 167.1 536.46 146.19 580.89"/>
          <polygon class="cls-1" points="161.94 557.42 165.81 555.05 156.09 539.22 152.22 541.58 161.94 557.42"/>
          <polygon class="cls-1" points="165.72 554.93 169.73 552.81 161.03 536.41 157.01 538.52 165.72 554.93"/>
          <polygon class="cls-1" points="152.34 541.69 148.32 543.81 157.03 560.21 161.05 558.1 152.34 541.69"/>
        </g>
        <g>
          <path class="cls-1" d="M207.9,492.43c.94-3.07,2.04-5.83,3.28-8.44.62-1.3,1.27-2.57,1.95-3.81l.26-.47.3-.58c.2-.38.4-.76.6-1.14.41-.75.82-1.5,1.22-2.24,3.3-5.89,6.91-11.19,10.56-16.59,7.29-10.8,14.69-21.97,19.91-38.96l4.96,1.52c-5.22,16.99-12.62,28.17-19.91,38.97-3.64,5.4-7.26,10.7-10.56,16.59-.4.74-.81,1.48-1.22,2.24-.38.73-.77,1.48-1.17,2.23-.71,1.34-1.4,2.7-2.05,4.11-1.3,2.81-2.46,5.79-3.47,9.09"/>
          <path class="cls-1" d="M227.11,502.76c5.36-17.38,5.38-30.43,5.45-43.56.04-13.05-.03-25.74,4.58-40.75l4.96,1.52c-4.61,15.01-4.54,27.7-4.57,40.75-.02,6.53-.07,13.15-.74,20.19-.17,1.76-.38,3.55-.63,5.37-.28,1.89-.65,3.95-1.06,6-.84,4.12-1.9,8.48-3.33,12.98"/>
          <path class="cls-1" d="M257.49,331c-9.51,30.97.34,50.6-10.09,84.58l4.96,1.52c10.44-33.99.59-53.61,10.1-84.58"/>
          <path class="cls-1" d="M277.96,337.28c-10.12,32.94-29.63,44.76-38.85,74.78l4.96,1.52c9.22-30.02,28.74-41.84,38.86-74.78"/>
          <polygon class="cls-1" points="217.08 432.16 236.18 425.57 274.55 395.51 255.05 403.91 217.08 432.16"/>
          <polygon class="cls-1" points="256.77 447.7 246.24 428.89 233.34 382.68 244.02 400.28 256.77 447.7"/>
          <polygon class="cls-1" points="253.63 419.61 255.05 415.3 237.41 409.49 235.98 413.8 253.63 419.61"/>
          <polygon class="cls-1" points="254.9 415.26 256.6 411.05 239.36 404.16 237.65 408.37 254.9 415.26"/>
          <polygon class="cls-1" points="236.14 413.8 234.44 418.01 251.69 424.91 253.39 420.7 236.14 413.8"/>
        </g>
        <g>
          <path class="cls-1" d="M257.5,330.99c9.51-30.97,28.69-41.68,39.13-75.66l4.96,1.52c-10.44,33.99-29.61,44.7-39.12,75.67"/>
          <path class="cls-1" d="M277.96,337.27c10.12-32.94.61-53.68,9.83-83.7l4.96,1.52c-9.22,30.02.3,50.76-9.82,83.7"/>
          <path class="cls-1" d="M308.14,166.12c-9.51,30.97.34,50.6-10.09,84.58l4.96,1.52c10.44-33.99.59-53.61,10.1-84.58"/>
          <path class="cls-1" d="M328.61,172.41c-10.12,32.94-29.63,44.76-38.85,74.78l4.96,1.52c9.22-30.02,28.74-41.84,38.86-74.78"/>
          <polygon class="cls-1" points="267.73 267.29 286.83 260.7 325.2 230.64 305.69 239.04 267.73 267.29"/>
          <polygon class="cls-1" points="307.42 282.83 296.89 264.01 283.99 217.8 294.67 235.4 307.42 282.83"/>
          <polygon class="cls-1" points="304.27 254.73 305.7 250.43 288.05 244.62 286.63 248.92 304.27 254.73"/>
          <polygon class="cls-1" points="305.55 250.39 307.25 246.18 290.01 239.29 288.3 243.49 305.55 250.39"/>
          <polygon class="cls-1" points="286.79 248.93 285.09 253.14 302.34 260.04 304.04 255.83 286.79 248.93"/>
        </g>
        <g>
          <path class="cls-1" d="M308.14,166.11c9.51-30.97,28.69-41.68,39.13-75.66l4.96,1.52c-10.44,33.99-29.61,44.7-39.12,75.67"/>
          <path class="cls-1" d="M328.61,172.4c10.12-32.94.61-53.68,9.83-83.7l4.96,1.52c-9.22,30.02.3,50.76-9.82,83.7"/>
          <path class="cls-1" d="M358.79,1.25c-9.51,30.97.35,50.6-10.09,84.58l4.96,1.52c10.44-33.99.59-53.61,10.1-84.58"/>
          <path class="cls-1" d="M379.25,7.54c-10.12,32.94-29.63,44.76-38.85,74.78l4.96,1.52c9.22-30.02,28.74-41.84,38.86-74.78"/>
          <polygon class="cls-1" points="318.38 102.42 337.48 95.83 375.84 65.76 356.34 74.17 318.38 102.42"/>
          <polygon class="cls-1" points="358.07 117.95 347.54 99.14 334.64 52.93 345.32 70.53 358.07 117.95"/>
          <polygon class="cls-1" points="354.92 89.86 356.35 85.55 338.7 79.74 337.27 84.05 354.92 89.86"/>
          <polygon class="cls-1" points="356.2 85.52 357.9 81.31 340.65 74.41 338.95 78.62 356.2 85.52"/>
          <polygon class="cls-1" points="337.44 84.05 335.74 88.27 352.99 95.16 354.69 90.96 337.44 84.05"/>
        </g>
        <g>
          <path class="cls-1" d="M91.4,607.89l-.94.6-.95.56-.97.53-.98.5-.99.47-1,.44-1.01.41-1.02.38-1.02.36-1.03.33-1.04.3-1.04.28-1.04.25-1.05.23-1.05.21-1.05.18-1.05.16-1.05.14c-.35.04-.7.08-1.05.12-.35.03-.7.07-1.04.1-.35.03-.7.05-1.04.08-.35.02-.69.04-1.04.06-.35.02-.69.03-1.03.05-.34.01-.69.02-1.02.03-.34,0-.68.01-1.02.02-.34,0-.68,0-1.01,0-.67-.01-1.34-.03-1.99-.04-.66-.03-1.31-.06-1.95-.09-.64-.05-1.28-.09-1.9-.14-.63-.06-1.24-.12-1.84-.17-.6-.07-1.2-.14-1.77-.21-.58-.08-1.15-.16-1.7-.23-.56-.09-1.1-.17-1.62-.25-.53-.09-1.04-.18-1.53-.27-.5-.1-.98-.19-1.44-.28-.46-.1-.91-.19-1.34-.28-.43-.1-.84-.19-1.23-.27-.78-.19-1.48-.36-2.09-.51-.62-.17-1.14-.31-1.57-.43-.86-.26-1.33-.4-1.33-.4.32.07.65.14.98.21.33.06.65.12.98.18l.98.16.99.14.99.12.99.1.99.08.99.06.99.04.99.02h.99s.99,0,.99,0l.99-.03.99-.04.98-.06.98-.07,1.94-.19,1.92-.24c.63-.09,1.26-.19,1.89-.28.62-.11,1.24-.22,1.86-.32.61-.12,1.22-.24,1.83-.36.6-.13,1.19-.26,1.78-.39.59-.14,1.17-.28,1.74-.41.57-.15,1.13-.29,1.69-.44.55-.15,1.1-.3,1.64-.45.53-.16,1.06-.31,1.58-.46.51-.16,1.02-.32,1.51-.47.49-.16.97-.32,1.44-.47.47-.16.93-.32,1.37-.47.44-.16.88-.31,1.29-.46.83-.31,1.61-.61,2.34-.88.72-.29,1.38-.55,1.98-.79.59-.25,1.12-.47,1.58-.66.91-.39,1.53-.66,1.81-.78"/>
          <path class="cls-1" d="M55.13,678.99c-.02-.16-.03-.33-.05-.5-.02-.17-.05-.35-.07-.53-.03-.18-.06-.37-.1-.56-.04-.19-.08-.39-.12-.58-.05-.2-.09-.4-.14-.61-.05-.21-.11-.42-.16-.64-.06-.22-.12-.43-.18-.66-.07-.22-.13-.45-.2-.68-.15-.46-.3-.93-.46-1.42-.17-.49-.34-.98-.52-1.5-.19-.51-.39-1.03-.58-1.56-.21-.53-.42-1.07-.64-1.62-.23-.55-.46-1.1-.69-1.66-.24-.56-.48-1.13-.73-1.7-.25-.57-.51-1.14-.76-1.72-.26-.58-.53-1.16-.79-1.74-.55-1.16-1.1-2.33-1.65-3.49-.57-1.16-1.13-2.31-1.69-3.45-.57-1.13-1.13-2.25-1.68-3.33-.56-1.08-1.1-2.13-1.62-3.13-1.07-2-2.04-3.82-2.86-5.36-1.7-3.07-2.77-5.02-2.77-5.02l-4.44,1.74c.3.47.6.94.91,1.42.3.48.59.97.9,1.46.29.49.58.99.88,1.5.29.51.57,1.01.86,1.53.28.51.56,1.03.85,1.55.27.52.55,1.05.83,1.57l.81,1.59.79,1.6.77,1.6.75,1.6c.48,1.07.96,2.13,1.43,3.18.45,1.05.89,2.09,1.33,3.11.42,1.02.83,2.03,1.23,3.01.38.98.76,1.94,1.12,2.86.35.93.69,1.82,1.01,2.67.31.86.61,1.67.89,2.44.27.77.52,1.5.76,2.17.23.68.44,1.3.63,1.86.18.56.34,1.07.49,1.51.13.44.25.81.34,1.11.08.3.15.53.19.68"/>
          <path class="cls-1" d="M76.97,585.4l-1.11.65-1.13.63-1.14.62-1.16.6c-.78.39-1.56.77-2.33,1.16-.78.37-1.56.74-2.34,1.11-1.56.72-3.09,1.43-4.59,2.11-.75.35-1.48.69-2.2,1.02-.72.34-1.42.68-2.11,1.01-.68.34-1.34.68-1.99,1-.32.17-.63.34-.94.5-.31.17-.61.34-.9.51-.29.17-.58.34-.86.51-.28.17-.55.35-.82.51-.26.18-.52.35-.77.52-.24.18-.48.35-.72.52l-.34.27-.32.27-.31.27-.29.27-.28.27-.26.28-.25.28-.23.28-.21.29-.2.29-.18.29-.16.3c-.05.1-.1.2-.14.3-.04.1-.08.2-.13.3-.04.1-.07.21-.11.31-.03.11-.06.21-.09.31l.98,3.33c.18-.14.38-.29.59-.45.22-.15.45-.32.7-.49.25-.17.51-.34.79-.53.28-.18.57-.36.88-.56.31-.19.63-.38.96-.59.33-.2.68-.4,1.03-.61.71-.41,1.46-.84,2.24-1.28.79-.43,1.6-.88,2.43-1.34.84-.45,1.69-.91,2.56-1.37,1.74-.9,3.51-1.82,5.23-2.72,1.73-.87,3.41-1.72,4.96-2.5,1.56-.77,2.98-1.47,4.18-2.06,2.42-1.17,3.96-1.92,3.96-1.92"/>
          <path class="cls-1" d="M28.57,680.57s-.16-.74-.44-2.04c-.13-.65-.28-1.45-.46-2.36-.16-.92-.35-1.96-.55-3.1-.09-.57-.19-1.17-.29-1.79-.09-.62-.19-1.26-.29-1.92-.09-.66-.19-1.35-.28-2.05-.09-.7-.18-1.42-.27-2.15-.08-.73-.16-1.48-.25-2.25-.07-.76-.15-1.54-.22-2.32-.06-.79-.12-1.58-.18-2.38-.05-.8-.09-1.61-.14-2.43-.03-.82-.06-1.64-.09-2.46l-.04-2.48v-1.24s.03-1.24.03-1.24l.04-1.23.06-1.23.08-1.22c.03-.41.07-.81.1-1.21.04-.4.08-.8.12-1.2.05-.4.1-.79.14-1.19.06-.39.11-.78.17-1.17.06-.39.13-.77.19-1.15.07-.38.14-.76.21-1.13.08-.37.16-.75.24-1.11.09-.37.18-.73.27-1.09.1-.36.2-.71.29-1.07.11-.35.22-.7.32-1.04.12-.34.24-.68.35-1.01.13-.33.26-.66.38-.98l.2-.48.21-.47.22-.46.23-.45.23-.44.24-.43.25-.42.26-.41.27-.41.28-.39.29-.38.3-.37.3-.36.31-.35.32-.34.33-.33.34-.32.35-.3.36-.29.37-.28.19-.13.05-.03h.01s0,0,0-.02v-.03s0-.12,0-.12v-.46s3.73-4.59,3.73-4.59l-.11.37-.1.38-.08.39-.07.4-.06.41-.04.41-.03.42-.02.43v.44s0,.45,0,.45l.02.46.03.47.04.47.05.48c.04.33.09.66.13.99-.22.2-.43.4-.65.6l-.31.31-.3.32-.3.32-.29.33-.28.34-.27.34-.26.35-.25.35-.25.36-.24.37-.23.37-.22.38c-.14.25-.28.51-.42.77-.13.26-.26.53-.39.79-.12.27-.24.54-.37.81-.11.28-.22.55-.34.84-.1.28-.21.57-.31.86-.09.29-.19.58-.28.87-.09.29-.17.59-.26.89-.08.3-.15.6-.23.91-.07.31-.14.61-.21.93-.06.31-.12.63-.18.94-.05.32-.11.64-.16.96-.05.32-.09.65-.14.97-.04.33-.08.66-.12.99-.03.33-.07.66-.1,1-.03.34-.05.67-.08,1.01-.02.34-.04.68-.06,1.02-.01.34-.03.69-.04,1.03,0,.35-.02.7-.02,1.05,0,.35,0,.7,0,1.06v1.06s.03,1.07.03,1.07c.03.72.06,1.44.09,2.17.05.73.1,1.46.14,2.19.06.73.13,1.47.19,2.21.08.74.15,1.48.23,2.22l.26,2.23.29,2.23c.22,1.49.43,2.97.64,4.45.23,1.47.46,2.94.68,4.38.23,1.45.45,2.87.68,4.28.21,1.4.42,2.78.62,4.13"/>
          <polygon class="cls-1" points="20.56 587.54 33.92 602.46 70.26 628.33 55.68 613.5 20.56 587.54"/>
          <polygon class="cls-1" points="24.54 624.66 30.6 622.97 32.11 622.54 32.16 622.53 32.18 622.52 32.2 622.52 32.2 622.52 32.2 622.51 32.23 622.45 32.29 622.33 32.4 622.09 32.63 621.61 33.53 619.68 37.14 611.97 57.59 586.39 52.15 603.07 41.04 615.23 35.48 621.31 34.09 622.83 33.74 623.21 33.7 623.26 33.69 623.27 33.66 623.28 33.61 623.29 33.4 623.32 32.98 623.38 31.29 623.64 24.54 624.66"/>
          <polygon class="cls-1" points="46.1 616.1 49.26 616.29 43.62 599.6 40.46 599.41 46.1 616.1"/>
          <polygon class="cls-1" points="49.2 616.15 52.43 616.59 47.6 599.98 44.37 599.54 49.2 616.15"/>
          <polygon class="cls-1" points="40.54 599.55 37.31 599.11 42.13 615.72 45.37 616.17 40.54 599.55"/>
          <polygon class="cls-1" points="29.01 605.54 31.53 616.39 32.79 621.82 32.95 622.5 33.03 622.84 33.05 622.92 33.05 622.94 33.05 622.95 33.05 622.95 33.05 622.96 33.02 622.98 32.93 623.09 32.18 623.9 30.68 625.53 21.42 654.82 30.67 643 36.68 627.75 37.43 625.84 37.62 625.36 37.64 625.3 37.65 625.29 37.64 625.26 37.62 625.22 37.54 625.03 37.38 624.67 36.73 623.19 34.16 617.31 29.01 605.54"/>
          <polygon class="cls-1" points=".45 624.23 20.86 628.22 61.15 643.44 41.43 640.04 .45 624.23"/>
          <polygon class="cls-1" points="21.38 635.42 23.15 637.93 40.37 633.2 38.6 630.69 21.38 635.42"/>
          <polygon class="cls-1" points="23.28 637.88 24.78 640.46 42.42 636.38 40.92 633.8 23.28 637.88"/>
          <polygon class="cls-1" points="38.48 630.75 36.99 628.17 19.35 632.26 20.84 634.84 38.48 630.75"/>
        </g>
      </g>
      <g>
        <g>
          <path class="cls-1" d="M308.69,932.09c-9.99-38.72-.18-61.48-11.15-103.98l5.02-1.3c10.97,42.5,1.16,65.26,11.15,103.97"/>
          <path class="cls-1" d="M329.42,926.75c-10.63-41.19-30.58-57.75-40.27-95.28l5.02-1.3c9.69,37.53,29.64,54.09,40.27,95.28"/>
          <path class="cls-1" d="M255.5,725.96c9.99,38.72,29.59,53.89,40.56,96.39l5.02-1.3c-10.97-42.49-30.56-57.67-40.55-96.39"/>
          <path class="cls-1" d="M276.23,720.61c10.63,41.19,1.18,65.34,10.87,102.87l5.02-1.3c-9.69-37.53-.23-61.68-10.86-102.87"/>
          <polygon class="cls-1" points="280.35 857.96 292.48 839.65 307.1 784.88 295.69 805.36 280.35 857.96"/>
          <polygon class="cls-1" points="322.49 851.16 302.8 837.26 265.26 795.46 284.38 807.98 322.49 851.16"/>
          <polygon class="cls-1" points="303.59 822.98 302.29 817.53 284.19 821.73 285.49 827.18 303.59 822.98"/>
          <polygon class="cls-1" points="302.14 817.58 301.12 812.08 282.73 814.88 283.74 820.38 302.14 817.58"/>
          <polygon class="cls-1" points="285.63 827.09 286.65 832.59 305.05 829.79 304.03 824.29 285.63 827.09"/>
        </g>
        <g>
          <path class="cls-1" d="M255.49,725.95c-9.99-38.72-.18-61.48-11.15-103.98l5.02-1.3c10.97,42.5,1.16,65.26,11.15,103.97"/>
          <path class="cls-1" d="M276.22,720.6c-10.63-41.19-30.58-57.75-40.27-95.28l5.02-1.3c9.69,37.53,29.64,54.09,40.27,95.28"/>
          <path class="cls-1" d="M202.3,519.82c9.99,38.72,29.59,53.89,40.56,96.39l5.02-1.3c-10.97-42.49-30.56-57.67-40.55-96.39"/>
          <path class="cls-1" d="M223.03,514.47c10.63,41.19,1.18,65.34,10.87,102.87l5.02-1.3c-9.69-37.53-.23-61.68-10.86-102.87"/>
          <polygon class="cls-1" points="227.15 651.81 239.28 633.5 253.9 578.73 242.49 599.22 227.15 651.81"/>
          <polygon class="cls-1" points="269.29 645.02 249.6 631.11 212.06 589.32 231.18 601.83 269.29 645.02"/>
          <polygon class="cls-1" points="250.39 616.83 249.09 611.39 230.99 615.58 232.29 621.03 250.39 616.83"/>
          <polygon class="cls-1" points="248.94 611.44 247.92 605.93 229.53 608.73 230.54 614.24 248.94 611.44"/>
          <polygon class="cls-1" points="232.43 620.94 233.45 626.44 251.85 623.64 250.83 618.14 232.43 620.94"/>
        </g>
      </g>
    </g>
  </g>
</svg>