<?xml version="1.0" encoding="UTF-8"?>
<svg id="Layer_2" data-name="Layer 2" xmlns="http://www.w3.org/2000/svg" viewBox="0 0 554.88 1003.76">
  <defs>
    <style>
      .cls-1 {
        fill: #bfbfbf;
        stroke: #000;
        stroke-linecap: round;
        stroke-width: 2.5px;
      }
    </style>
  </defs>
  <g id="Layer_2-2" data-name="Layer 2">
    <g>
      <g>
        <g>
          <path class="cls-1" d="M260.18,278.26c1.64-10.14,6.09-18.39,11.55-24.5,5.51-6.14,11.98-10.28,18.65-13.17,6.7-2.88,13.65-4.57,20.96-5.49,7.34-.89,15.05-1.04,23.8-.07l-.59,5.16c-7.92-.88-14.89-.83-21.6-.15-6.69.71-13.11,2.1-19.35,4.62-6.21,2.53-12.28,6.23-17.46,11.84-5.13,5.58-9.32,13.19-10.84,22.58"/>
          <path class="cls-1" d="M281.32,281.59c1.25-7.47,2.98-13.93,5.26-20.09.3-.77.6-1.53.9-2.28.3-.76.56-1.55.94-2.26.71-1.44,1.35-2.96,2.11-4.4.81-1.44,1.62-2.85,2.41-4.26.94-1.36,1.87-2.72,2.8-4.06,3.98-5.27,9.06-10.09,15.63-13.58,6.53-3.47,14.68-5.55,23.72-4.68l-.5,5.16c-8.31-.81-15.78,1.19-21.72,4.48-5.98,3.31-10.53,7.86-14.04,12.79-.81,1.25-1.63,2.51-2.45,3.78-.69,1.3-1.38,2.61-2.09,3.94-.65,1.32-1.19,2.73-1.8,4.04-.33.65-.54,1.37-.79,2.06-.25.68-.51,1.38-.76,2.07-1.92,5.6-3.36,11.38-4.48,18.06"/>
          <path class="cls-1" d="M397.89,299.98c1.56-10.15-.14-19.37-3.45-26.87-3.36-7.54-8.23-13.47-13.69-18.27-5.49-4.81-11.58-8.55-18.26-11.67-6.71-3.1-14-5.63-22.62-7.4l-1.03,5.08c7.81,1.61,14.42,3.79,20.6,6.51,6.14,2.73,11.82,6.03,16.99,10.35,5.13,4.32,9.77,9.71,12.97,16.64,3.16,6.89,4.81,15.42,3.36,24.83"/>
          <path class="cls-1" d="M376.74,296.65c1.11-7.49,1.46-14.17,1.18-20.73-.05-.82-.1-1.64-.16-2.44-.05-.82-.06-1.65-.2-2.43-.23-1.59-.37-3.23-.65-4.83-.33-1.62-.66-3.21-.99-4.79-.47-1.59-.94-3.16-1.41-4.73-2.17-6.24-5.51-12.39-10.69-17.74-5.15-5.31-12.25-9.8-21.13-11.75l-1.11,5.07c8.16,1.79,14.65,5.99,19.28,10.95,4.67,4.99,7.6,10.72,9.42,16.49.39,1.44.78,2.89,1.17,4.36.26,1.45.51,2.91.77,4.4.22,1.46.29,2.96.47,4.4.11.71.1,1.47.12,2.21.03.73.06,1.47.09,2.21.1,5.92-.31,11.86-1.3,18.56"/>
          <path class="cls-1" d="M309.53,212.96c3.44,1.97,6.64,4.15,9.53,6.4,1.46,1.21,2.85,2.44,4.16,3.68.66.62,1.3,1.25,1.92,1.87.62.62,1.22,1.26,1.81,1.96,7.73,4.34,13.74,10.25,17.78,16.54,4.06,6.3,6.1,13.05,6.32,19.28.69-3.08.9-6.07.91-9.38.01-.84-.03-1.63-.1-2.43-.06-.8-.14-1.62-.24-2.44-.1-.83-.21-1.66-.35-2.51-.13-.86-.29-1.71-.49-2.51-3.26-6.81-8.54-13.19-15.5-18.56-6.96-5.37-15.74-9.63-25.76-11.9Z"/>
          <path class="cls-1" d="M318.08,254.74c.39-1.46.85-2.98,1.41-4.5.58-1.42,1.24-2.88,1.99-4.35.38-.72.77-1.51,1.19-2.2.43-.69.87-1.38,1.34-2.08.94-1.37,1.96-2.85,3.09-4.16,6.19-4.6,13.99-7.93,22.89-9.46,8.89-1.52,18.86-1.1,28.93,1.73-4.06-.19-8.15.18-11.94.69-1.87.22-3.82.7-5.63,1.12-1.84.47-3.57.9-5.31,1.53-2.28.2-4.45.41-6.56.75-2.15.45-4.2.94-6.16,1.46-1.99.68-3.89,1.4-5.69,2.13-1.81.81-3.54,1.79-5.16,2.69-6.51,3.91-11.39,9.11-14.39,14.65Z"/>
          <path class="cls-1" d="M336.75,242.39l3.81.9c1.61-5.99,3.26-11.96,4.94-17.93-1.76-.42-3.52-.83-5.29-1.22-1.19,6.07-2.35,12.15-3.46,18.24Z"/>
          <path class="cls-1" d="M340.59,243.14c.63.16,1.22.47,1.82.72l1.79.77c2.4-5.71,4.96-11.37,7.69-16.96-1.66-.69-3.34-1.36-5.04-2.02-2.24,5.75-4.33,11.57-6.26,17.49Z"/>
          <path class="cls-1" d="M340.23,224.32c-.87-.27-1.76-.41-2.65-.58l-2.68-.48c-1.16,6.08-2.15,12.18-2.98,18.29l3.85.8c.66-3.03,1.36-6.06,2.11-9.07.74-2.99,1.52-5.98,2.35-8.96Z"/>
        </g>
        <g>
          <path class="cls-1" d="M397.88,299.99c-1.64,10.14-6.09,18.39-11.55,24.5-5.51,6.14-11.98,10.28-18.65,13.17-6.7,2.88-13.65,4.57-20.96,5.49-7.34.89-15.05,1.04-23.8.07l.59-5.16c7.92.88,14.89.83,21.6.15,6.69-.71,13.11-2.1,19.35-4.62,6.21-2.53,12.28-6.24,17.46-11.84,5.13-5.58,9.32-13.19,10.84-22.58"/>
          <path class="cls-1" d="M376.74,296.66c-1.25,7.47-2.98,13.93-5.26,20.09-.3.77-.6,1.53-.9,2.28-.3.76-.56,1.55-.94,2.26-.71,1.44-1.35,2.96-2.11,4.4-.81,1.44-1.62,2.85-2.41,4.26-.94,1.36-1.87,2.72-2.8,4.06-3.98,5.27-9.06,10.09-15.63,13.58-6.53,3.47-14.68,5.55-23.72,4.68l.5-5.16c8.31.81,15.78-1.19,21.72-4.48,5.98-3.31,10.53-7.86,14.04-12.79.81-1.25,1.63-2.51,2.45-3.78.69-1.3,1.38-2.61,2.09-3.94.65-1.32,1.19-2.73,1.8-4.04.33-.65.54-1.37.79-2.06.25-.68.51-1.38.76-2.07,1.92-5.6,3.36-11.38,4.48-18.06"/>
          <path class="cls-1" d="M260.18,278.27c-1.56,10.15.14,19.37,3.45,26.87,3.36,7.54,8.23,13.47,13.69,18.27,5.49,4.81,11.58,8.55,18.26,11.68,6.71,3.1,14,5.62,22.62,7.4l1.03-5.08c-7.81-1.61-14.42-3.79-20.6-6.51-6.14-2.73-11.82-6.03-16.99-10.35-5.13-4.32-9.77-9.71-12.97-16.64-3.16-6.89-4.81-15.42-3.36-24.83"/>
          <path class="cls-1" d="M281.32,281.6c-1.11,7.49-1.46,14.17-1.18,20.73.05.82.1,1.64.16,2.44.05.82.06,1.65.2,2.43.23,1.59.37,3.23.65,4.83.33,1.62.66,3.21.99,4.79.47,1.59.94,3.16,1.41,4.73,2.17,6.24,5.51,12.39,10.69,17.74,5.15,5.31,12.25,9.8,21.13,11.75l1.11-5.07c-8.16-1.79-14.65-5.99-19.28-10.95-4.67-4.99-7.6-10.72-9.42-16.49-.39-1.44-.78-2.89-1.17-4.36-.26-1.45-.51-2.91-.77-4.4-.22-1.46-.29-2.96-.47-4.4-.11-.71-.1-1.47-.12-2.21-.03-.73-.06-1.47-.09-2.21-.1-5.92.31-11.86,1.3-18.56"/>
          <path class="cls-1" d="M348.53,365.29c-3.44-1.97-6.64-4.15-9.53-6.4-1.46-1.21-2.85-2.44-4.16-3.68-.66-.62-1.3-1.25-1.92-1.87-.62-.62-1.22-1.26-1.81-1.96-7.73-4.34-13.74-10.25-17.78-16.54-4.06-6.3-6.1-13.05-6.32-19.28-.69,3.08-.9,6.07-.91,9.38-.01.84.03,1.63.1,2.43.06.8.14,1.62.24,2.44.1.83.21,1.66.35,2.51.13.86.29,1.71.49,2.51,3.26,6.81,8.54,13.19,15.5,18.57,6.96,5.37,15.74,9.63,25.76,11.9Z"/>
          <path class="cls-1" d="M339.98,323.51c-.39,1.46-.85,2.98-1.41,4.5-.58,1.42-1.24,2.88-1.99,4.35-.38.72-.77,1.51-1.19,2.2-.43.69-.87,1.38-1.34,2.08-.94,1.37-1.96,2.85-3.09,4.16-6.19,4.6-13.99,7.93-22.89,9.46-8.89,1.52-18.86,1.1-28.93-1.73,4.06.19,8.15-.18,11.94-.69,1.87-.22,3.82-.7,5.63-1.12,1.84-.47,3.57-.9,5.31-1.53,2.28-.2,4.45-.41,6.56-.75,2.15-.45,4.2-.94,6.16-1.46,1.99-.68,3.89-1.4,5.69-2.13,1.81-.81,3.54-1.79,5.16-2.69,6.51-3.91,11.39-9.11,14.39-14.65Z"/>
          <path class="cls-1" d="M321.31,335.86l-3.81-.9c-1.61,5.99-3.26,11.96-4.94,17.93,1.76.42,3.52.83,5.29,1.22,1.19-6.07,2.35-12.15,3.46-18.24Z"/>
          <path class="cls-1" d="M317.47,335.11c-.63-.16-1.22-.47-1.82-.72l-1.79-.77c-2.4,5.71-4.96,11.37-7.69,16.96,1.66.69,3.34,1.36,5.04,2.02,2.24-5.75,4.33-11.57,6.26-17.49Z"/>
          <path class="cls-1" d="M317.83,353.93c.87.27,1.76.41,2.65.58l2.68.48c1.16-6.08,2.15-12.18,2.98-18.29l-3.85-.8c-.66,3.03-1.36,6.06-2.11,9.07-.74,3-1.52,5.98-2.35,8.96Z"/>
        </g>
      </g>
      <g>
        <g>
          <path class="cls-1" d="M308.86,20.03c-22.18,22.26-43.81,22.43-68.15,46.86l-3.67-3.66c24.35-24.43,45.97-24.61,68.15-46.86"/>
          <path class="cls-1" d="M293.7,4.92c-23.6,23.68-24.51,46.09-46.01,67.66l-3.67-3.66c21.5-21.57,22.41-43.99,46.01-67.67"/>
          <path class="cls-1" d="M190.76,138.51c22.18-22.25,22.3-43.88,46.64-68.3l-3.67-3.66c-24.35,24.42-24.46,46.04-46.65,68.3"/>
          <path class="cls-1" d="M175.59,123.4c23.6-23.68,46.01-24.66,67.52-46.23l-3.67-3.66c-21.5,21.57-43.92,22.55-67.52,46.22"/>
          <polygon class="cls-1" points="271.42 70.22 251.71 66.88 204.59 74.7 225.47 76.67 271.42 70.22"/>
          <polygon class="cls-1" points="243.51 38.02 244.36 59.26 235.05 105.29 233.53 85.03 243.51 38.02"/>
          <polygon class="cls-1" points="233.73 63.78 230.55 66.83 243.45 80.2 246.63 77.15 233.73 63.78"/>
          <polygon class="cls-1" points="230.67 66.93 227.3 69.76 239.36 83.88 242.73 81.05 230.67 66.93"/>
          <polygon class="cls-1" points="246.49 77.07 249.86 74.24 237.8 60.12 234.42 62.95 246.49 77.07"/>
        </g>
        <g>
          <path class="cls-1" d="M190.75,138.52c-22.18,22.26-43.81,22.43-68.15,46.86l-3.67-3.66c24.35-24.43,45.97-24.61,68.15-46.86"/>
          <path class="cls-1" d="M175.59,123.41c-23.6,23.68-24.51,46.09-46.01,67.66l-3.67-3.66c21.5-21.57,22.41-43.99,46.01-67.67"/>
          <path class="cls-1" d="M73.58,256.06c1.1-1.1,2.12-2.21,3.08-3.33.57-.67,1.13-1.33,1.69-1.98.58-.69,1.14-1.39,1.68-2.08,2.17-2.77,4.09-5.53,5.85-8.3,3.51-5.54,6.37-11.09,9.29-16.71,5.84-11.24,11.96-22.75,24.13-34.97l-3.67-3.66c-12.17,12.21-18.29,23.72-24.13,34.96-2.92,5.62-5.78,11.17-9.29,16.71-1.76,2.77-3.67,5.53-5.85,8.3-.54.69-1.1,1.38-1.68,2.08-.56.66-1.13,1.33-1.71,2.01-1.03,1.2-2.13,2.38-3.32,3.57"/>
          <path class="cls-1" d="M57.31,242.06c1.53-1.54,3.06-2.98,4.57-4.35,1.48-1.33,2.93-2.55,4.39-3.72,2.91-2.33,5.81-4.4,8.69-6.28,5.76-3.76,11.44-6.77,17.06-9.73,11.24-5.9,22.22-11.54,32.97-22.33l-3.67-3.66c-10.75,10.79-21.73,16.42-32.97,22.32-5.62,2.95-11.31,5.97-17.06,9.72-2.88,1.88-5.77,3.94-8.69,6.28-1.47,1.18-2.9,2.38-4.4,3.74-1.6,1.45-3.21,2.98-4.83,4.6"/>
          <polygon class="cls-1" points="153.31 188.71 133.6 185.37 86.48 193.19 107.36 195.16 153.31 188.71"/>
          <polygon class="cls-1" points="125.4 156.51 126.25 177.75 116.94 223.78 115.42 203.52 125.4 156.51"/>
          <polygon class="cls-1" points="115.62 182.27 112.44 185.32 125.34 198.69 128.52 195.64 115.62 182.27"/>
          <polygon class="cls-1" points="112.56 185.42 109.18 188.25 121.25 202.37 124.62 199.54 112.56 185.42"/>
          <polygon class="cls-1" points="128.38 195.56 131.75 192.72 119.69 178.6 116.31 181.44 128.38 195.56"/>
        </g>
        <g>
          <path class="cls-1" d="M73.57,256.07c-4.39,4.4-8.99,7.67-14.02,10.71-5.03,3.03-10.47,5.8-16.28,8.94-5.8,3.13-11.95,6.61-18.21,10.87-3.13,2.13-6.27,4.44-9.38,6.98-1.54,1.27-3.12,2.56-4.6,3.98-1.39,1.49-2.03,3.65-1.48,5.68l-6.31.1c-.55-2.13.07-4.41,1.44-5.99,1.46-1.5,3.02-2.86,4.54-4.22,3.08-2.69,6.19-5.18,9.4-7.46,6.54-4.55,12.95-8.29,19-11.67,6.06-3.39,11.75-6.42,17.05-9.71,5.31-3.31,10.19-6.86,14.91-11.6"/>
          <path class="cls-1" d="M57.31,242.07c-6.13,6.15-10.71,12.09-14.17,17.57-3.46,5.49-5.81,10.54-7.8,15.22-2,4.69-3.63,9.02-5.86,13.27-1.12,2.13-2.38,4.24-3.95,6.39-.78,1.08-1.65,2.15-2.57,3.29-.88,1.17-1.36,2.82-1.15,4.46l-7.17.06c-.22-1.75.29-3.51,1.24-4.76,1-1.21,1.95-2.36,2.79-3.51,1.71-2.3,3.11-4.55,4.36-6.81,2.5-4.52,4.36-9.1,6.64-14.04,2.23-4.94,4.83-10.25,8.58-16.02,3.73-5.76,8.62-12.01,15.1-18.51"/>
          <path class="cls-1" d="M78.45,351.71c-.35-.34-.7-.69-1.04-1.02-.29-.27-.57-.54-.86-.81-.56-.51-1.11-1.01-1.67-1.49-1.12-.96-2.26-1.86-3.41-2.72-2.31-1.71-4.69-3.25-7.16-4.71-4.94-2.92-10.28-5.56-15.97-8.55-5.68-2.99-11.73-6.33-17.9-10.48-6.16-4.14-12.48-9.1-18.39-14.99l-6.27.3c5.96,6.22,12.22,11.55,18.61,15.98,6.46,4.43,12.76,8.04,18.7,11.28,5.94,3.25,11.53,6.14,16.74,9.32,2.61,1.6,5.13,3.27,7.58,5.13,1.23.93,2.44,1.91,3.64,2.95.6.52,1.2,1.05,1.79,1.61.3.28.6.57.91.86.34.34.69.68,1.04,1.02"/>
          <path class="cls-1" d="M63.33,366.87c-1.45-1.45-2.95-3.03-4.29-4.52-1.36-1.51-2.63-3.01-3.82-4.49-2.38-2.96-4.43-5.84-6.21-8.63-3.57-5.57-6.06-10.73-8.19-15.53-2.13-4.81-3.9-9.25-6.23-13.59-2.34-4.35-5.23-8.57-9.88-13.21l-6.97.37c4.97,4.96,8.14,9.46,10.75,14.07,2.6,4.6,4.62,9.3,7,14.36,2.38,5.05,5.12,10.47,8.98,16.33,1.92,2.93,4.12,5.95,6.66,9.07,1.27,1.56,2.62,3.14,4.06,4.73.72.8,1.46,1.6,2.23,2.4.38.4.77.8,1.16,1.2.36.37.73.73,1.09,1.11"/>
          <path class="cls-1" d="M50.12,292.23c-8.73,1.05-17.97,2.62-27.72,4.69-1.29.46-2.59.94-3.77,1.55-1.18.59-2.25,1.27-3.19,1.99-1.88,1.44-3.22,3.05-4,4.42-.4.69-.64,1.29-.86,1.87-.23.59-.44,1.2-.64,1.82-.14.31-.1.61-.13.92l-.06.93-.15,1.91c-.46,5.18-1.32,11.13-1.63,17.97,2.6-5.29,5.57-9.89,8.29-13.87l.13-.95c.07-.32.18-.63.27-.95.2-.63.4-1.24.62-1.85.44-1.21.92-2.38,1.44-3.5.52-1.12,1.09-2.21,1.7-3.24.59-1.01,1.53-2.31,2.99-3.63,1.45-1.31,3.35-2.62,5.63-3.63,1.13-.51,2.37-.91,3.59-1.31l3.63-1.16c4.79-1.5,9.41-2.83,13.85-3.98Z"/>
          <path class="cls-1" d="M1.36,283.48c2.48,4.87,4.87,9.02,6.86,12.67.16.61.29,1.19.59,1.89.3.69.74,1.45,1.32,2.23,1.16,1.55,2.92,3.15,5.16,4.41,1.11.64,2.37,1.16,3.63,1.64l3.73,1.43c2.47.94,4.89,1.83,7.27,2.68,9.52,3.4,18.36,6.12,26.51,8.15-8.03-.77-16.61-2.08-25.74-3.95-4.8-1.71-9.77-3.6-14.92-5.67-2.56-1.05-5.23-2.08-7.83-3.26-.63-.31-1.23-.65-1.8-1.01-.49-.37-.9-.75-1.31-1.15-.78-.8-1.41-1.66-1.88-2.52-.96-1.72-1.24-3.39-1.18-4.63.02-1.3,0-2.65-.04-4.03l-.16-4.3c-.07-1.48-.17-3-.21-4.59Z"/>
          <path class="cls-1" d="M2.48,305.85c.88,1.15,1.91,2.18,2.86,3.28l23.69-1.28c-.82-.88-1.66-1.72-2.46-2.62l-12.78.36-11.31.26Z"/>
          <polygon class="cls-1" points="5.5 309.12 8.09 312.39 13.29 312.19 19.52 311.87 31.9 311.14 29.81 308.5 17.1 308.9 10.71 309.06 5.5 309.12"/>
          <path class="cls-1" d="M26.38,305.27c-.64-.92-.96-2.12-.85-3.33-4.28-.19-8.55-.4-12.8-.63l-6.37-.38-1.42-.1-1.14-.1-2.29-.2c-.37,1.49-.23,3.06.31,4.39l4.97.18,6.54.1c4.36.05,8.7.08,13.06.07Z"/>
        </g>
        <g>
          <path class="cls-1" d="M78.46,351.72c22.25,22.19,22.42,43.81,46.84,68.17l-3.66,3.67c-24.42-24.35-24.6-45.97-46.85-68.16"/>
          <path class="cls-1" d="M63.34,366.88c23.67,23.61,46.08,24.52,67.65,46.03l-3.66,3.67c-21.57-21.51-43.99-22.42-67.66-46.03"/>
          <path class="cls-1" d="M196.9,469.85c-22.25-22.19-43.87-22.31-68.29-46.66l-3.66,3.67c24.42,24.35,46.04,24.48,68.29,46.67"/>
          <path class="cls-1" d="M181.79,485.01c-23.67-23.61-24.64-46.02-46.21-67.53l-3.66,3.67c21.57,21.51,22.54,43.93,46.2,67.53"/>
          <polygon class="cls-1" points="128.64 389.17 125.29 408.88 133.1 456 135.07 435.12 128.64 389.17"/>
          <polygon class="cls-1" points="96.43 417.07 117.67 416.23 163.69 425.55 143.43 427.07 96.43 417.07"/>
          <polygon class="cls-1" points="122.19 426.86 125.23 430.04 138.6 417.14 135.56 413.96 122.19 426.86"/>
          <polygon class="cls-1" points="125.34 429.92 128.17 433.3 142.29 421.24 139.46 417.86 125.34 429.92"/>
          <polygon class="cls-1" points="135.48 414.1 132.64 410.73 118.52 422.79 121.35 426.17 135.48 414.1"/>
        </g>
        <g>
          <path class="cls-1" d="M196.91,469.86c11.12,11.1,16.73,22.05,22.61,33.27,2.92,5.6,5.98,11.33,9.7,17.05,3.51,5.51,8.06,11.39,13.97,17.28l-2.67,4.67c-6.27-6.26-11.13-12.44-14.93-18.24-3.8-5.8-6.8-11.48-9.74-17.09-5.88-11.22-11.48-22.17-22.61-33.27"/>
          <path class="cls-1" d="M181.79,485.02c11.83,11.8,23.36,17.93,34.61,23.8,2.81,1.47,5.61,2.92,8.4,4.44,1.39.76,2.78,1.54,4.16,2.34,1.31.77,2.63,1.55,3.98,2.34,5,2.97,9.66,6.28,14.31,10.92l-2.71,4.63c-4.97-4.96-9.91-8.55-15.18-11.79-.67-.4-1.33-.81-1.99-1.2-.7-.41-1.39-.82-2.07-1.23-1.38-.8-2.77-1.58-4.16-2.34-2.78-1.52-5.58-2.97-8.4-4.44-11.26-5.87-22.78-12-34.62-23.8"/>
          <path class="cls-1" d="M301.56,541.15c-4.17,3.73-7.73,7.94-11.23,12.66-.87,1.18-1.74,2.39-2.61,3.62-.88,1.22-2.02,2.17-3.18,2.77-1.17.59-2.37.86-3.39.79-.52-.02-.97-.14-1.4-.29l-1.31-.42c-3.51-1.12-7.26-2.36-11.43-4.4-4.16-2.03-8.75-4.86-13.76-8.99-2.16-1.76-4.48-3.85-6.86-6.23l-2.47,4.86c2.53,2.52,4.98,4.75,7.27,6.64,5.32,4.39,10.15,7.52,14.56,9.79,4.41,2.28,8.39,3.75,12.13,5.1l1.39.5c.45.17.94.32,1.49.36,1.09.12,2.38-.14,3.63-.73,1.25-.61,2.47-1.58,3.41-2.86.94-1.28,1.86-2.56,2.8-3.79,3.76-4.95,7.59-9.41,12.08-13.42"/>
          <path class="cls-1" d="M306.12,565.58c-5.84,5.02-11.09,8.49-15.77,11.31-.58.35-1.16.69-1.73,1.03-.56.34-1.14.66-1.79.84-1.3.43-2.81.13-4.19-.59-1.4-.71-2.65-1.95-3.58-3.45-.92-1.51-1.82-3-2.73-4.48-3.33-5.66-6.56-11.17-9.92-16.88-3.18-5.29-6.34-10.18-9.95-14.67-1.6-2-3.34-3.96-5.25-5.86l-2.43,4.9c2.04,2.03,3.91,4.12,5.62,6.23,3.88,4.76,7.28,9.89,10.69,15.41,1.71,2.76,3.41,5.61,5.16,8.55.87,1.5,1.77,2.9,2.69,4.3.92,1.41,1.85,2.81,2.8,4.2.95,1.39,1.93,2.78,2.92,4.15.99,1.37,2.32,2.45,3.79,3.03,1.45.59,3.03.74,4.38.4.68-.16,1.28-.45,1.87-.77.6-.32,1.21-.64,1.82-.96,4.9-2.62,10.45-5.95,16.65-10.99"/>
          <path class="cls-1" d="M246.13,506.36c-1.77,5.92-3.02,12.35-3.77,19.29,1.53,9.04,4.02,19.03,7.47,29.98,2.57,8.16,5.75,16.71,9.56,24.95-2.52-9-4.36-18.23-5.55-27-.47-1.61-.92-3.21-1.34-4.79-4.45-16.47-6.58-30.62-6.37-42.44Z"/>
          <path class="cls-1" d="M215.04,535.37c7.63.27,14.65-.07,21.06-1.01,8.15,1.14,15.4,1.39,21.76.75,4.74-.48,8.98-1.46,12.72-2.94-3.54,3.71-7.64,6.86-12.28,9.47-.99.06-2.01.11-3.04.13-11.03.24-24.43-1.89-40.21-6.39Z"/>
          <polygon class="cls-1" points="241.54 545.91 244.76 549.26 253.46 531.69 250.9 529 241.54 545.91"/>
          <path class="cls-1" d="M244.83,549.1l3.09,3.63c2.97-5.75,5.86-11.58,8.68-17.49l-2.43-2.99c-3.04,5.69-6.15,11.3-9.33,16.84Z"/>
          <path class="cls-1" d="M250.85,529.17l-2.4-2.94c-3.53,5.2-7.13,10.32-10.81,15.37l3.05,3.59c3.46-5.27,6.85-10.61,10.16-16.02Z"/>
        </g>
        <g>
          <path class="cls-1" d="M301.57,541.14c4.64-4.14,8.93-6.71,13.42-8.81,4.47-2.09,9.11-3.69,14.12-5.62,2.51-.97,5.1-2.01,7.79-3.23,1.36-.62,2.69-1.23,4.14-1.98,1.48-.78,2.97-1.59,4.48-2.46,6.01-3.46,12.18-7.7,18.61-13.45l3.46,3.87c-6.43,5.74-12.6,9.99-18.61,13.45-6.07,3.52-11.74,6.04-17.01,8.2-5.28,2.18-10.18,4.01-14.94,6.35-4.77,2.35-9.37,5.19-14.35,9.64"/>
          <path class="cls-1" d="M306.13,565.57c6.51-5.58,11.91-11.71,16.39-17.62,4.5-5.93,8.09-11.69,11.31-17.1,3.27-5.47,5.84-10.31,9.8-15.75,3.79-5.3,8.19-10.5,13.86-15.57l3.46,3.87c-5.68,5.07-10.07,10.27-13.86,15.57-3.84,5.34-6.78,10.52-10.31,16.22-3.48,5.66-7.35,11.66-12.15,17.85-4.77,6.18-10.51,12.64-17.43,18.23"/>
          <path class="cls-1" d="M418.13,436.98c-23.43,20.94-24.79,42.52-50.51,65.5l3.46,3.87c25.71-22.98,27.08-44.56,50.51-65.49"/>
          <path class="cls-1" d="M432.39,452.95c-24.93,22.27-47.36,21.96-70.07,42.26l3.46,3.87c22.71-20.3,45.15-19.98,70.08-42.25"/>
          <polygon class="cls-1" points="333.65 500.51 353.14 504.98 400.63 499.89 379.9 496.72 333.65 500.51"/>
          <polygon class="cls-1" points="359.66 534.26 360.04 513.01 371.99 467.6 372.34 487.91 359.66 534.26"/>
          <polygon class="cls-1" points="370.92 509.11 374.26 506.25 362.15 492.16 358.81 495.02 370.92 509.11"/>
          <polygon class="cls-1" points="374.15 506.14 377.68 503.51 366.46 488.72 362.92 491.35 374.15 506.14"/>
          <polygon class="cls-1" points="358.94 495.11 355.41 497.74 366.64 512.54 370.17 509.9 358.94 495.11"/>
        </g>
        <g>
          <path class="cls-1" d="M418.14,436.98c23.43-20.94,45.03-19.87,70.75-42.85l3.46,3.87c-25.72,22.98-47.31,21.92-70.74,42.85"/>
          <path class="cls-1" d="M432.4,452.94c24.93-22.27,27.13-44.6,49.84-64.89l3.46,3.87c-22.71,20.3-24.91,42.63-49.84,64.9"/>
          <path class="cls-1" d="M545.63,396.93c1.67-3.55,3.02-6.98,4.13-10.32.56-1.67,1.05-3.32,1.5-4.95.21-.82.43-1.63.63-2.43l.07-.3.04-.15c.01-.05.01-.07.08-.26.22-.61.42-1.23.6-1.84.18-.62.34-1.24.48-1.85.13-.65.22-1.34.3-2.02.07-.68.13-1.35.16-2.02.01-.68-.03-1.39-.08-2.07-.05-.69-.13-1.37-.23-2.04-.13-.67-.29-1.34-.47-1.99-.18-.65-.37-1.31-.61-1.92-.25-.61-.52-1.21-.81-1.8-.56-1.2-1.25-2.23-2-3.24-3-3.95-6.99-6.44-11.35-7.56-1.09-.27-2.24-.43-3.35-.55-1.14-.07-2.3-.04-3.42.04-1.14.15-2.27.37-3.35.66-1.07.35-2.11.77-3.1,1.24-.94.51-1.83,1.09-2.67,1.69-.8.62-1.48,1.29-2.16,1.97l-.48.51-.15.25-.3.51-.61,1.02c-6.48,10.89-13.25,22.03-26.11,33.51l3.46,3.87c12.86-11.49,19.63-22.63,26.11-33.51l.61-1.02.3-.51.15-.25.34-.38c.47-.51.94-1.03,1.5-1.51.59-.45,1.22-.9,1.87-1.31,2.74-1.59,6.34-2.09,9.6-1.35,3.28.72,6.37,2.52,8.72,5.45.58.74,1.14,1.51,1.57,2.41.23.44.45.89.65,1.35.19.46.34.96.49,1.45.15.49.28,1,.4,1.5.08.51.15,1.03.2,1.55.05.52.1,1.06.1,1.58-.02.51-.05,1.03-.09,1.55-.05.52-.11,1.05-.19,1.56-.1.48-.22.96-.35,1.45-.13.48-.28.97-.44,1.45-.05.15-.05.18-.07.23l-.04.15-.07.3c-.21.8-.42,1.61-.64,2.43-.45,1.63-.94,3.28-1.5,4.95-1.11,3.34-2.46,6.77-4.13,10.32"/>
          <path class="cls-1" d="M526.26,387.82c1.78-3.78,3.66-7.22,5.61-10.4.98-1.59,1.97-3.12,2.98-4.59.26-.37.51-.73.76-1.09l.38-.54.29-.45.3-.45c.09-.16.14-.32.22-.48l.22-.5.12-.53c.34-1.43.08-3.13-.82-4.61-.89-1.46-2.35-2.73-4.24-3.35-1.88-.65-4.19-.5-6.19.4-.82.38-1.64.76-2.45,1.14-.73.33-1.45.66-2.17.99-11.56,5.24-22.85,10.24-34.2,20.39l3.46,3.87c11.36-10.15,22.64-15.14,34.21-20.38.72-.33,1.45-.66,2.17-.99.7-.31,1.53-.76,2.03-.8,1.13-.24,2.06.06,2.67.56.62.5.99,1.22,1.04,1.84.05.65-.33,1.05-.69,1.06-.05,0-.08,0-.11,0-.06,0-.12,0-.16,0-.05,0-.06,0-.11,0l-.16.02c-.06.03-.05-.03-.13.06l-.38.54c-.25.36-.51.73-.76,1.09-1.01,1.47-2.01,3-2.98,4.59-1.95,3.18-3.84,6.62-5.61,10.4"/>
          <polygon class="cls-1" points="458.4 389.03 477.89 393.5 525.38 388.41 504.65 385.24 458.4 389.03"/>
          <polygon class="cls-1" points="484.41 422.79 484.79 401.54 496.74 356.12 497.09 376.44 484.41 422.79"/>
          <polygon class="cls-1" points="495.67 397.63 499.01 394.78 486.91 380.69 483.56 383.54 495.67 397.63"/>
          <polygon class="cls-1" points="498.9 394.67 502.43 392.03 491.21 377.24 487.67 379.87 498.9 394.67"/>
          <polygon class="cls-1" points="483.69 383.63 480.16 386.27 491.39 401.06 494.92 398.43 483.69 383.63"/>
        </g>
        <g>
          <path class="cls-1" d="M545.63,396.94c-13.37,28.44-33.67,35.9-48.34,67.11l-4.69-2.21c14.68-31.21,34.97-38.68,48.34-67.11"/>
          <path class="cls-1" d="M526.25,387.83c-14.23,30.25-7.52,51.66-20.48,79.22l-4.69-2.21c12.96-27.56,6.25-48.97,20.47-79.22"/>
          <path class="cls-1" d="M474.43,548.32c13.37-28.44,6.18-48.83,20.86-80.04l-4.69-2.21c-14.68,31.21-7.49,51.6-20.86,80.03"/>
          <path class="cls-1" d="M455.06,539.21c14.23-30.25,34.99-38.74,47.96-66.3l-4.69-2.21c-12.96,27.56-33.74,36.05-47.96,66.3"/>
          <polygon class="cls-1" points="527.32 456.82 507.64 460.32 465.93 483.59 486.24 478.39 527.32 456.82"/>
          <polygon class="cls-1" points="490.18 435.92 498.15 455.63 504.91 502.1 496.64 483.54 490.18 435.92"/>
          <polygon class="cls-1" points="489.66 463.48 487.7 467.41 504.36 475.65 506.32 471.71 489.66 463.48"/>
          <polygon class="cls-1" points="487.85 467.47 485.63 471.28 501.75 480.49 503.97 476.69 487.85 467.47"/>
          <polygon class="cls-1" points="506.16 471.68 508.38 467.87 492.26 458.65 490.04 462.45 506.16 471.68"/>
        </g>
        <g>
          <path class="cls-1" d="M474.43,548.33c-13.37,28.44-33.67,35.9-48.34,67.11l-4.69-2.21c14.68-31.21,34.97-38.68,48.34-67.11"/>
          <path class="cls-1" d="M455.05,539.22c-14.23,30.25-7.52,51.66-20.48,79.22l-4.69-2.21c12.96-27.56,6.25-48.97,20.47-79.22"/>
          <path class="cls-1" d="M403.23,699.72c13.37-28.44,6.18-48.83,20.86-80.04l-4.69-2.21c-14.68,31.21-7.49,51.6-20.86,80.03"/>
          <path class="cls-1" d="M383.86,690.61c14.23-30.25,34.99-38.74,47.96-66.3l-4.69-2.21c-12.96,27.56-33.74,36.05-47.96,66.3"/>
          <polygon class="cls-1" points="456.13 608.21 436.44 611.72 394.73 634.98 415.04 629.79 456.13 608.21"/>
          <polygon class="cls-1" points="418.99 587.32 426.95 607.02 433.71 653.49 425.45 634.94 418.99 587.32"/>
          <polygon class="cls-1" points="418.47 614.87 416.5 618.81 433.16 627.04 435.12 623.1 418.47 614.87"/>
          <polygon class="cls-1" points="416.65 618.87 414.43 622.67 430.55 631.89 432.77 628.09 416.65 618.87"/>
          <polygon class="cls-1" points="434.96 623.07 437.18 619.27 421.06 610.05 418.84 613.85 434.96 623.07"/>
        </g>
        <g>
          <path class="cls-1" d="M403.23,699.73c-13.37,28.44-33.67,35.9-48.34,67.11l-4.69-2.21c14.68-31.21,34.97-38.68,48.34-67.11"/>
          <path class="cls-1" d="M383.86,690.62c-14.23,30.25-7.52,51.66-20.48,79.22l-4.69-2.21c12.96-27.56,6.25-48.97,20.47-79.22"/>
          <path class="cls-1" d="M332.04,851.11c13.37-28.44,6.18-48.83,20.86-80.04l-4.69-2.21c-14.68,31.21-7.49,51.6-20.86,80.03"/>
          <path class="cls-1" d="M312.66,842c14.23-30.25,34.99-38.74,47.96-66.3l-4.69-2.21c-12.96,27.56-33.74,36.05-47.96,66.3"/>
          <polygon class="cls-1" points="384.93 759.61 365.24 763.11 323.53 786.38 343.85 781.18 384.93 759.61"/>
          <polygon class="cls-1" points="347.79 738.71 355.75 758.42 362.52 804.89 354.25 786.33 347.79 738.71"/>
          <polygon class="cls-1" points="347.27 766.26 345.3 770.2 361.96 778.44 363.93 774.5 347.27 766.26"/>
          <polygon class="cls-1" points="345.45 770.26 343.23 774.07 359.35 783.28 361.57 779.48 345.45 770.26"/>
          <polygon class="cls-1" points="363.77 774.47 365.98 770.66 349.86 761.44 347.64 765.24 363.77 774.47"/>
        </g>
        <g>
          <path class="cls-1" d="M332.03,851.12c-13.37,28.44-33.67,35.9-48.34,67.11l-4.69-2.21c14.68-31.21,34.97-38.68,48.34-67.11"/>
          <path class="cls-1" d="M312.66,842.01c-14.23,30.25-7.52,51.66-20.48,79.22l-4.69-2.21c12.96-27.56,6.25-48.97,20.47-79.22"/>
          <path class="cls-1" d="M260.84,1002.51c13.37-28.44,6.18-48.83,20.86-80.04l-4.69-2.21c-14.68,31.21-7.49,51.6-20.86,80.03"/>
          <path class="cls-1" d="M241.46,993.4c14.23-30.25,34.99-38.74,47.96-66.3l-4.69-2.21c-12.96,27.56-33.74,36.05-47.96,66.3"/>
          <polygon class="cls-1" points="313.73 911 294.04 914.51 252.33 937.77 272.65 932.58 313.73 911"/>
          <polygon class="cls-1" points="276.59 890.11 284.55 909.81 291.32 956.28 283.05 937.73 276.59 890.11"/>
          <polygon class="cls-1" points="276.07 917.66 274.11 921.6 290.76 929.83 292.73 925.89 276.07 917.66"/>
          <polygon class="cls-1" points="274.25 921.66 272.03 925.46 288.15 934.68 290.38 930.88 274.25 921.66"/>
          <polygon class="cls-1" points="292.57 925.86 294.78 922.05 278.66 912.83 276.44 916.64 292.57 925.86"/>
        </g>
      </g>
    </g>
  </g>
</svg>