<?xml version="1.0" encoding="UTF-8"?>
<svg id="Layer_2" data-name="Layer 2" xmlns="http://www.w3.org/2000/svg" viewBox="0 0 985.71 1033.83">
  <defs>
    <style>
      .cls-1 {
        fill: #bfbfbf;
        stroke: #000;
        stroke-linecap: round;
        stroke-width: 2.5px;
      }
    </style>
  </defs>
  <g id="Layer_2-2" data-name="Layer 2">
    <g>
      <g>
        <g>
          <g>
            <path class="cls-1" d="M982.1,130.21c-30.61,17.79-53.24,13.37-86.83,32.9l-2.61-4.49c33.6-19.52,56.22-15.11,86.83-32.9"/>
            <path class="cls-1" d="M971.34,111.7c-32.56,18.93-41.03,41.4-70.7,58.65l-2.61-4.49c29.67-17.24,38.13-39.73,70.69-58.65"/>
            <path class="cls-1" d="M819.14,224.92c30.61-17.79,37.98-39.64,71.57-59.16l-2.61-4.49c-33.59,19.52-40.96,41.36-71.57,59.15"/>
            <path class="cls-1" d="M808.38,206.41c32.56-18.93,56.28-15.15,85.95-32.4l-2.61-4.49c-29.67,17.24-53.39,13.46-85.96,32.39"/>
            <polygon class="cls-1" points="926.21 173.01 906.76 165.44 854.97 163.33 876.09 169.76 926.21 173.01"/>
            <polygon class="cls-1" points="907.88 134.51 901.64 156.17 876.5 200.74 881.7 179.92 907.88 134.51"/>
            <polygon class="cls-1" points="889.03 158.48 884.69 160.89 893.68 177.15 898.01 174.75 889.03 158.48"/>
            <polygon class="cls-1" points="884.78 161.02 880.31 163.16 888.17 180 892.64 177.86 884.78 161.02"/>
            <polygon class="cls-1" points="897.89 174.63 902.36 172.48 894.5 155.64 890.04 157.79 897.89 174.63"/>
          </g>
          <g>
            <path class="cls-1" d="M819.13,224.93c-30.61,17.79-53.24,13.37-86.83,32.9l-2.61-4.49c33.6-19.52,56.22-15.11,86.83-32.9"/>
            <path class="cls-1" d="M808.37,206.42c-32.56,18.93-41.03,41.4-70.7,58.65l-2.61-4.49c29.67-17.24,38.13-39.73,70.69-58.65"/>
            <path class="cls-1" d="M656.17,319.64c30.61-17.79,37.98-39.64,71.57-59.16l-2.61-4.49c-33.59,19.52-40.96,41.36-71.57,59.15"/>
            <path class="cls-1" d="M645.41,301.13c32.56-18.93,56.28-15.15,85.95-32.4l-2.61-4.49c-29.67,17.24-53.39,13.46-85.96,32.39"/>
            <polygon class="cls-1" points="763.24 267.73 743.79 260.15 691.99 258.05 713.12 264.48 763.24 267.73"/>
            <polygon class="cls-1" points="744.9 229.23 738.67 250.88 713.52 295.45 718.73 274.64 744.9 229.23"/>
            <polygon class="cls-1" points="726.06 253.2 721.72 255.6 730.7 271.87 735.04 269.46 726.06 253.2"/>
            <polygon class="cls-1" points="721.81 255.73 717.34 257.88 725.19 274.72 729.67 272.58 721.81 255.73"/>
            <polygon class="cls-1" points="734.92 269.35 739.39 267.2 731.53 250.35 727.06 252.5 734.92 269.35"/>
          </g>
          <g>
            <path class="cls-1" d="M656.15,319.64c-7.65,4.45-14.81,7.51-21.76,9.9-1.74.6-3.46,1.15-5.18,1.68-.86.26-1.72.51-2.57.77-.41.12-.89.27-1.25.35l-1.11.26c-3.09.71-6.14,1.42-9.21,2.13-6.35,1.49-13.19,3.27-20.59,5.93-7.38,2.64-15.34,6.17-23.47,10.89l-5.62-2.73c8.63-5.01,17.02-8.79,24.79-11.66,7.79-2.88,14.98-4.87,21.68-6.56,3.25-.81,6.47-1.62,9.73-2.43,1.51-.36,3.32-.92,5.01-1.43,1.72-.53,3.44-1.08,5.18-1.68,6.95-2.39,14.1-5.45,21.76-9.9"/>
            <path class="cls-1" d="M645.4,301.13c-8.14,4.73-14.78,9.68-20.61,14.72-2.9,2.51-5.67,5.08-8.19,7.57-2.52,2.5-4.84,4.94-7.04,7.32-4.4,4.75-8.31,9.22-12.62,13.37-4.33,4.16-9.04,7.99-15.43,11.71l-5.57-2.76c6.84-3.97,11.94-8.04,16.63-12.41,4.68-4.37,8.93-9.03,13.68-13.99,2.37-2.48,4.87-5.03,7.57-7.63,2.78-2.65,5.44-5.15,8.37-7.68,5.84-5.04,12.47-9.99,20.61-14.72"/>
            <path class="cls-1" d="M561.66,403.05c-5.42-4.43-11.59-8.26-18.55-12.11-.89-.49-1.77-.97-2.64-1.44-.88-.48-1.84-.93-2.54-1.61-1.43-1.33-1.85-3.13-1.48-4.15.18-.5.47-.84.71-1.27l.74-1.23c.51-.84,1.02-1.69,1.54-2.53,2.13-3.44,4.76-7.16,8.99-11.27,4.22-4.1,10.07-8.6,18.2-13.32l-5.88-2.57c-8.58,5.04-14.67,9.83-19.53,14.08-4.63,4.34-7.61,8.26-10.09,11.9-.6.9-1.2,1.79-1.8,2.68l-.87,1.31c-.28.45-.61.82-.83,1.35-.44,1.08-.05,3.01,1.43,4.43.72.73,1.72,1.2,2.65,1.72.91.51,1.83,1.02,2.76,1.54,7.29,4.12,13.82,8.24,19.65,13"/>
            <path class="cls-1" d="M531.29,405.15c-7.15-6.18-12.16-11.55-16.49-16.29-.53-.6-1.09-1.16-1.58-1.78-.22-.33-.41-.7-.48-1.12-.06-.21-.06-.42-.02-.64.03-.22.08-.43.16-.66.29-.88.93-1.76,1.82-2.44.89-.7,2.09-1.05,3.2-1.45,4.5-1.59,8.92-3.06,13.23-4.47,8.62-2.81,16.74-5.34,24.21-8.03,7.49-2.7,14.3-5.57,20.7-9.29l-5.95-2.54c-6.84,3.97-14.04,7.06-21.9,9.98-3.92,1.46-7.99,2.86-12.21,4.28-2.15.72-4.29,1.44-6.43,2.15l-1.64.55-.82.28-.75.29-2.99,1.17c-3.97,1.57-7.9,3.22-11.76,4.97-.95.44-1.98.83-2.7,1.58-.73.72-1.21,1.65-1.36,2.57-.16.92,0,1.83.43,2.5.45.63.96,1.21,1.45,1.83,3.99,4.9,8.66,10.47,15.6,16.99"/>
            <path class="cls-1" d="M610.17,356.69c-7.32-2.04-15.34-3.67-24.05-4.9-5.08.27-10.41.68-15.99,1.24-5.57.56-11.45,1.25-17.38,2.16-11.84,1.79-24.01,4.44-35.31,7.78,10.39-1.7,21.25-2.83,32.04-3.31,2.86-.45,5.91-.79,8.78-1.13,2.89-.33,5.72-.63,8.5-.89,5.54-.52,10.85-.91,15.91-1.15,10.13-.49,19.29-.42,27.5.21Z"/>
            <path class="cls-1" d="M576.8,326.92c-1.18,6.7-1.53,12.91-1.04,18.64-4.11,12.37-4.45,22.56-1.03,30.56-4.31-3.42-7.86-7.29-10.66-11.6.33-10.26,4.58-22.79,12.73-37.6Z"/>
            <polygon class="cls-1" points="560.52 349.41 555.95 351.99 577.22 361.07 580.92 359.03 560.52 349.41"/>
            <path class="cls-1" d="M556.14,352.06l-4.84,2.46,5.09,2.24,5.29,2.28c3.54,1.51,7.1,3.01,10.69,4.49l4.06-1.9c-6.86-3.13-13.71-6.36-20.28-9.58Z"/>
            <path class="cls-1" d="M580.71,358.98l3.99-1.88c-6.2-3.53-12.3-7.12-18.3-10.78l-4.89,2.4c6.29,3.48,12.7,6.9,19.2,10.26Z"/>
          </g>
          <g>
            <path class="cls-1" d="M561.67,403.06c5.42,4.43,8.83,8.45,11.64,12.59,2.8,4.13,4.98,8.37,7.61,12.97,2.61,4.59,5.67,9.54,9.99,14.92,4.3,5.36,9.89,11.16,17.17,17.11l-3.35,3.96c-7.73-6.32-13.7-12.43-18.36-18.08-4.67-5.66-8.05-10.87-10.97-15.72-2.94-4.85-5.43-9.34-8.56-13.74-3.14-4.41-6.91-8.71-12.74-13.48"/>
            <path class="cls-1" d="M531.3,405.16c7.13,6.18,14.73,11.5,22.38,15.95,7.66,4.46,15.13,8.09,22.12,11.37,7.01,3.28,13.57,6.2,19.73,9.4,6.17,3.21,11.92,6.69,17.65,11.37l-3.4,3.92c-6.12-5.01-12.22-8.77-18.72-12.25-6.49-3.47-13.36-6.64-20.69-10.18-7.29-3.54-15.15-7.42-23.01-12.19-7.85-4.76-15.44-10.45-22.35-16.96"/>
            <path class="cls-1" d="M692.65,510.19c-27.4-22.42-50.45-21.64-80.52-46.24l-3.28,4.02c30.08,24.6,53.11,23.83,80.52,46.25"/>
            <path class="cls-1" d="M679.09,526.76c-29.15-23.85-33.95-47.38-60.51-69.11l-3.28,4.02c26.56,21.73,31.35,45.27,60.51,69.11"/>
            <path class="cls-1" d="M612,432.71c-2.24,5.19-3.86,10.9-4.85,17.12.81,3.66,1.79,7.46,3.08,11.52l4.05,12.31,8.11,24.62-1.4-22.04-3.64-12.02-1.82-6.01-.91-3c-.26-.97-.43-1.86-.64-2.78-1.53-7.28-2.19-13.85-2-19.71Z"/>
            <path class="cls-1" d="M573.18,455.86c9.46,1.02,18.17,1.44,26.14,1.24l50.55,7.89-21.32,2.44-12.93-2.14-6.46-1.07c-2.15-.35-4.31-.71-6.55-1.14-8.93-1.69-18.74-4.09-29.43-7.2Z"/>
            <polygon class="cls-1" points="605.9 468.08 609.67 471.29 621.75 457.17 617.97 453.96 605.9 468.08"/>
            <polygon class="cls-1" points="609.76 471.17 613.34 474.6 626.35 461.33 622.78 457.89 609.76 471.17"/>
            <path class="cls-1" d="M617.91,454.11l-1.74-1.67-1.47-1.45c-4.42,4.35-8.94,8.64-13.54,12.84l3.74,3.56,13.02-13.27Z"/>
          </g>
          <g>
            <path class="cls-1" d="M692.66,510.2c27.4,22.42,31.21,45.15,61.29,69.75l-3.28,4.02c-30.08-24.6-33.89-47.33-61.29-69.75"/>
            <path class="cls-1" d="M679.1,526.77c29.15,23.85,53.17,23.88,79.73,45.61l-3.28,4.02c-26.56-21.73-50.59-21.75-79.74-45.6"/>
            <path class="cls-1" d="M838.55,629.54c-27.4-22.42-50.45-21.64-80.52-46.24l-3.28,4.02c30.08,24.6,53.11,23.83,80.52,46.25"/>
            <path class="cls-1" d="M825,646.11c-29.15-23.85-33.95-47.38-60.51-69.11l-3.28,4.02c26.56,21.73,31.35,45.27,60.51,69.11"/>
            <polygon class="cls-1" points="752.35 547.51 752.09 568.38 768.3 617.61 766.91 595.57 752.35 547.51"/>
            <polygon class="cls-1" points="722.74 578.19 745.21 576.43 795.77 584.32 774.45 586.76 722.74 578.19"/>
            <polygon class="cls-1" points="751.8 587.42 755.58 590.64 767.65 576.52 763.88 573.3 751.8 587.42"/>
            <polygon class="cls-1" points="755.67 590.51 759.25 593.94 772.26 580.67 768.68 577.24 755.67 590.51"/>
            <polygon class="cls-1" points="763.82 573.45 760.23 570.02 747.22 583.29 750.8 586.72 763.82 573.45"/>
          </g>
          <g>
            <path class="cls-1" d="M838.56,629.54c27.4,22.42,31.21,45.15,61.29,69.75l-3.28,4.02c-30.08-24.6-33.89-47.33-61.29-69.75"/>
            <path class="cls-1" d="M825.01,646.12c29.15,23.85,53.17,23.88,79.73,45.61l-3.28,4.02c-26.56-21.73-50.58-21.75-79.74-45.6"/>
            <path class="cls-1" d="M984.46,748.88c-27.4-22.42-50.45-21.64-80.52-46.24l-3.28,4.02c30.08,24.6,53.11,23.83,80.52,46.25"/>
            <path class="cls-1" d="M970.9,765.45c-29.15-23.85-33.95-47.38-60.51-69.11l-3.28,4.02c26.56,21.73,31.35,45.27,60.51,69.11"/>
            <polygon class="cls-1" points="898.26 666.85 898 687.72 914.21 736.96 912.81 714.92 898.26 666.85"/>
            <polygon class="cls-1" points="868.65 697.53 891.11 695.77 941.68 703.67 920.36 706.1 868.65 697.53"/>
            <polygon class="cls-1" points="897.71 706.77 901.48 709.98 913.56 695.86 909.78 692.64 897.71 706.77"/>
            <polygon class="cls-1" points="901.57 709.85 905.15 713.28 918.16 700.02 914.59 696.58 901.57 709.85"/>
            <polygon class="cls-1" points="909.72 692.79 906.14 689.36 893.12 702.64 896.7 706.07 909.72 692.79"/>
          </g>
        </g>
        <g>
          <path class="cls-1" d="M907.41,12.45c-18.8,40.49-41.78,53.92-62.41,98.36l-4.71-2.18c20.63-44.43,43.61-57.87,62.41-98.36"/>
          <path class="cls-1" d="M887.99,3.44c-20,43.07-16.11,70.75-34.33,109.99l-4.71-2.18c18.22-39.24,14.33-66.92,34.32-109.99"/>
          <path class="cls-1" d="M807.33,228c18.8-40.49,14.23-66.72,34.86-111.15l-4.71-2.18c-20.63,44.43-16.07,70.66-34.87,111.15"/>
          <path class="cls-1" d="M787.92,218.98c20-43.07,43.65-57.96,61.87-97.2l-4.71-2.18c-18.22,39.24-41.88,54.13-61.88,97.2"/>
          <polygon class="cls-1" points="878.43 96.06 856.71 104.07 808.24 142.34 830.9 131.96 878.43 96.06"/>
          <polygon class="cls-1" points="841.73 74.17 847.23 99.34 847.29 160.72 841.28 137.14 841.73 74.17"/>
          <polygon class="cls-1" points="836.89 111.32 834.17 116.94 850.81 125.23 853.53 119.6 836.89 111.32"/>
          <polygon class="cls-1" points="834.32 117 831.34 122.49 847.24 132.19 850.23 126.7 834.32 117"/>
          <polygon class="cls-1" points="853.36 119.59 856.34 114.1 840.43 104.39 837.46 109.88 853.36 119.59"/>
        </g>
        <g>
          <path class="cls-1" d="M758.36,567.3c12.71,35.6,4.63,58.14,18.58,97.21l-4.89,1.74c-13.95-39.07-5.88-61.61-18.59-97.21"/>
          <path class="cls-1" d="M738.19,574.5c13.52,37.87,34.5,51.48,46.82,85.98l-4.89,1.74c-12.32-34.5-33.3-48.11-46.82-85.98"/>
          <path class="cls-1" d="M826.02,756.81c-12.71-35.6-33.24-47.93-47.19-87l-4.89,1.74c13.95,39.07,34.47,51.4,47.18,87"/>
          <path class="cls-1" d="M805.85,764.01c-13.52-37.87-5.9-61.68-18.22-96.19l-4.89,1.74c12.32,34.5,4.7,58.32,18.22,96.19"/>
          <polygon class="cls-1" points="791.82 634.5 781.12 653.08 770.59 706.4 780.43 685.84 791.82 634.5"/>
          <polygon class="cls-1" points="750.54 645.28 771.07 656.4 811.3 692.07 791.45 682.2 750.54 645.28"/>
          <polygon class="cls-1" points="771.32 669.99 773 675.01 790.64 669.17 788.96 664.15 771.32 669.99"/>
          <polygon class="cls-1" points="773.15 674.95 774.55 680.05 792.58 675.5 791.18 670.4 773.15 674.95"/>
          <polygon class="cls-1" points="788.83 664.25 787.42 659.15 769.38 663.7 770.79 668.8 788.83 664.25"/>
        </g>
      </g>
      <g>
        <g>
          <g>
            <path class="cls-1" d="M17.37,290.49c23.84,18.17,26.32,39.14,52.49,59.08l-3.14,4.13c-26.17-19.94-28.65-40.91-52.49-59.08"/>
            <path class="cls-1" d="M4.4,307.52c25.36,19.32,47.1,16.8,70.21,34.41l-3.14,4.13c-23.11-17.61-44.85-15.08-70.21-34.4"/>
            <path class="cls-1" d="M144.31,387.2c-23.84-18.17-44.73-14.98-70.9-34.92l-3.14,4.13c26.17,19.94,47.05,16.76,70.89,34.92"/>
            <path class="cls-1" d="M131.34,404.23c-25.36-19.32-28.7-40.95-51.81-58.56l-3.14,4.13c23.11,17.61,26.44,39.24,51.81,58.56"/>
            <polygon class="cls-1" points="69.8 319.22 68.68 338.88 81.25 383.46 80.92 362.88 69.8 319.22"/>
            <polygon class="cls-1" points="41.69 351.23 62.1 347.18 107.52 349.22 88.13 353.78 41.69 351.23"/>
            <polygon class="cls-1" points="67.6 356.82 70.88 359.45 82.41 344.88 79.13 342.25 67.6 356.82"/>
            <polygon class="cls-1" points="70.97 359.32 74.06 362.16 86.4 348.3 83.31 345.45 70.97 359.32"/>
            <polygon class="cls-1" points="79.07 342.4 75.97 339.56 63.63 353.43 66.72 356.27 79.07 342.4"/>
          </g>
          <g>
            <path class="cls-1" d="M144.32,387.2c23.84,18.17,26.32,39.14,52.49,59.08l-3.14,4.13c-26.17-19.94-28.65-40.91-52.49-59.08"/>
            <path class="cls-1" d="M131.34,404.23c25.36,19.32,47.1,16.8,70.21,34.41l-3.14,4.13c-23.11-17.61-44.85-15.08-70.21-34.4"/>
            <path class="cls-1" d="M271.25,483.91c-23.84-18.17-44.73-14.98-70.9-34.92l-3.14,4.13c26.17,19.94,47.05,16.76,70.89,34.92"/>
            <path class="cls-1" d="M258.28,500.94c-25.36-19.32-28.7-40.95-51.81-58.56l-3.14,4.13c23.11,17.61,26.44,39.24,51.81,58.56"/>
            <polygon class="cls-1" points="196.75 415.93 195.62 435.59 208.19 480.18 207.87 459.6 196.75 415.93"/>
            <polygon class="cls-1" points="168.64 447.95 189.05 443.9 234.47 445.94 215.07 450.5 168.64 447.95"/>
            <polygon class="cls-1" points="194.55 453.54 197.83 456.16 209.36 441.59 206.08 438.97 194.55 453.54"/>
            <polygon class="cls-1" points="197.91 456.03 201.01 458.87 213.35 445.01 210.26 442.16 197.91 456.03"/>
            <polygon class="cls-1" points="206.02 439.12 202.92 436.27 190.58 450.14 193.67 452.99 206.02 439.12"/>
          </g>
          <g>
            <path class="cls-1" d="M271.26,483.92c23.84,18.17,26.32,39.14,52.49,59.08l-3.14,4.13c-26.17-19.94-28.65-40.91-52.49-59.08"/>
            <path class="cls-1" d="M258.29,500.95c25.36,19.32,47.1,16.8,70.21,34.41l-3.14,4.13c-23.11-17.61-44.85-15.08-70.21-34.4"/>
            <path class="cls-1" d="M398.2,580.62c-23.84-18.17-44.73-14.98-70.9-34.92l-3.14,4.13c26.17,19.94,47.05,16.76,70.89,34.92"/>
            <path class="cls-1" d="M385.23,597.65c-25.36-19.32-28.7-40.95-51.81-58.56l-3.14,4.13c23.11,17.61,26.44,39.24,51.81,58.56"/>
            <polygon class="cls-1" points="323.7 512.65 322.57 532.31 335.14 576.89 334.81 556.31 323.7 512.65"/>
            <polygon class="cls-1" points="295.59 544.66 315.99 540.61 361.41 542.65 342.02 547.21 295.59 544.66"/>
            <polygon class="cls-1" points="321.49 550.25 324.77 552.87 336.3 538.3 333.02 535.68 321.49 550.25"/>
            <polygon class="cls-1" points="324.86 552.74 327.95 555.59 340.29 541.72 337.2 538.87 324.86 552.74"/>
            <polygon class="cls-1" points="332.96 535.83 329.87 532.99 317.52 546.86 320.61 549.7 332.96 535.83"/>
          </g>
          <g>
            <path class="cls-1" d="M395.11,750.9c-23.68,16.72-44.04,12.5-70.04,30.85l-2.99-4.24c25.99-18.35,46.35-14.14,70.03-30.86"/>
            <path class="cls-1" d="M382.77,733.41c-25.19,17.79-28.89,38.98-51.84,55.18l-2.99-4.24c22.96-16.21,26.65-37.4,51.84-55.19"/>
            <path class="cls-1" d="M269.03,839.91c23.68-16.72,26.53-37.32,52.52-55.67l-2.99-4.24c-25.99,18.35-28.84,38.94-52.52,55.66"/>
            <path class="cls-1" d="M256.69,822.42c25.19-17.79,46.4-14.17,69.35-30.38l-2.99-4.24c-22.96,16.21-44.16,12.59-69.36,30.37"/>
            <polygon class="cls-1" points="353.55 791.16 335.43 783.98 290.13 781.87 309.51 787.98 353.55 791.16"/>
            <polygon class="cls-1" points="331.38 754.79 329.48 775.21 314.9 817.22 316.03 797.59 331.38 754.79"/>
            <polygon class="cls-1" points="318.91 777.37 315.54 779.63 325.98 795 329.35 792.74 318.91 777.37"/>
            <polygon class="cls-1" points="315.63 779.75 312.1 781.77 321.66 797.68 325.19 795.67 315.63 779.75"/>
            <polygon class="cls-1" points="329.23 792.63 332.76 790.61 323.2 774.7 319.67 776.72 329.23 792.63"/>
          </g>
          <g>
            <path class="cls-1" d="M269.02,839.91c-23.68,16.72-44.04,12.5-70.04,30.85l-2.99-4.24c25.99-18.35,46.35-14.14,70.03-30.85"/>
            <path class="cls-1" d="M256.68,822.42c-25.19,17.79-28.89,38.98-51.84,55.18l-2.99-4.24c22.96-16.21,26.65-37.4,51.84-55.19"/>
            <path class="cls-1" d="M142.94,928.92c23.68-16.72,26.53-37.32,52.52-55.67l-2.99-4.24c-25.99,18.35-28.84,38.94-52.52,55.66"/>
            <path class="cls-1" d="M130.59,911.43c25.19-17.79,46.4-14.17,69.35-30.38l-2.99-4.24c-22.96,16.21-44.16,12.59-69.36,30.37"/>
            <polygon class="cls-1" points="227.46 880.18 209.34 872.99 164.04 870.88 183.42 877 227.46 880.18"/>
            <polygon class="cls-1" points="205.29 843.8 203.39 864.23 188.81 906.23 189.94 886.6 205.29 843.8"/>
            <polygon class="cls-1" points="192.82 866.38 189.45 868.64 199.89 884.01 203.26 881.75 192.82 866.38"/>
            <polygon class="cls-1" points="189.54 868.76 186.01 870.78 195.57 886.69 199.1 884.68 189.54 868.76"/>
            <polygon class="cls-1" points="203.14 881.65 206.67 879.63 197.11 863.71 193.58 865.73 203.14 881.65"/>
          </g>
          <g>
            <path class="cls-1" d="M142.93,928.93c-23.68,16.72-44.04,12.5-70.04,30.85l-2.99-4.24c25.99-18.35,46.35-14.14,70.03-30.86"/>
            <path class="cls-1" d="M130.59,911.44c-25.19,17.79-28.89,38.98-51.84,55.18l-2.99-4.24c22.96-16.21,26.65-37.4,51.84-55.19"/>
            <path class="cls-1" d="M16.85,1017.93c23.68-16.72,26.53-37.32,52.52-55.67l-2.99-4.24c-25.99,18.35-28.84,38.94-52.52,55.66"/>
            <path class="cls-1" d="M4.5,1000.44c25.19-17.79,46.4-14.17,69.35-30.38l-2.99-4.24c-22.96,16.21-44.16,12.59-69.36,30.37"/>
            <polygon class="cls-1" points="101.37 969.19 83.25 962 37.95 959.9 57.33 966.01 101.37 969.19"/>
            <polygon class="cls-1" points="79.2 932.82 77.3 953.24 62.71 995.24 63.85 975.61 79.2 932.82"/>
            <polygon class="cls-1" points="66.73 955.4 63.35 957.66 73.8 973.02 77.17 970.76 66.73 955.4"/>
            <polygon class="cls-1" points="63.45 957.78 59.92 959.79 69.48 975.7 73.01 973.69 63.45 957.78"/>
            <polygon class="cls-1" points="77.05 970.66 80.58 968.64 71.02 952.72 67.49 954.74 77.05 970.66"/>
          </g>
          <g>
            <path class="cls-1" d="M379.7,729.07c.71-.5,1.41-.99,2.12-1.49.71-.49,1.42-.97,2.13-1.45.71-.47,1.42-.95,2.13-1.42.72-.46,1.43-.92,2.14-1.38.72-.45,1.43-.9,2.14-1.35.72-.44,1.43-.87,2.15-1.31.72-.43,1.43-.85,2.15-1.28.72-.41,1.44-.83,2.15-1.24.72-.4,1.43-.81,2.15-1.21.72-.39,1.43-.78,2.15-1.17.72-.38,1.43-.76,2.14-1.14.72-.37,1.43-.74,2.14-1.11.71-.36,1.42-.72,2.13-1.08.71-.35,1.42-.7,2.12-1.04.71-.34,1.41-.68,2.12-1.01.7-.33,1.41-.66,2.11-.98.7-.32,1.4-.64,2.09-.95.7-.31,1.39-.62,2.08-.92,1.39-.59,2.76-1.17,4.12-1.75,1.37-.55,2.72-1.1,4.05-1.64,1.34-.51,2.67-1.02,3.97-1.53,1.31-.48,2.61-.95,3.88-1.42,1.28-.44,2.54-.88,3.78-1.31,1.24-.41,2.47-.81,3.67-1.21,1.21-.38,2.39-.75,3.55-1.11,1.16-.35,2.3-.69,3.42-1.02,1.12-.32,2.21-.63,3.28-.93,1.07-.29,2.11-.57,3.12-.84,1.01-.26,2-.51,2.96-.76.96-.23,1.89-.46,2.78-.68.9-.21,1.76-.41,2.6-.6.83-.18,1.64-.36,2.4-.53.77-.16,1.5-.31,2.2-.46,1.39-.27,2.64-.51,3.73-.72,1.09-.19,2.01-.35,2.77-.48.75-.12,1.33-.21,1.72-.27.39-.05.59-.08.59-.08-.58.13-1.17.25-1.76.38-.59.14-1.18.28-1.78.41-.6.15-1.19.3-1.79.45-.6.16-1.21.32-1.81.48-.61.17-1.22.34-1.83.51-.61.18-1.23.36-1.84.54-.62.19-1.23.38-1.86.57-.62.2-1.24.4-1.87.6-.62.21-1.25.42-1.88.63-.63.22-1.26.43-1.89.65-1.26.46-2.52.91-3.79,1.37-1.27.48-2.54.97-3.81,1.46-1.27.51-2.54,1.02-3.82,1.53l-3.81,1.6-3.8,1.65c-1.26.57-2.52,1.14-3.77,1.7-1.25.58-2.49,1.16-3.73,1.74-1.23.59-2.46,1.18-3.68,1.76-1.22.6-2.42,1.19-3.62,1.78-1.19.6-2.38,1.19-3.55,1.78-1.17.6-2.32,1.19-3.47,1.78-1.14.6-2.26,1.18-3.37,1.76-1.1.59-2.19,1.17-3.26,1.74-2.13,1.16-4.19,2.29-6.16,3.37-1.96,1.1-3.83,2.16-5.6,3.15-1.76,1.01-3.41,1.97-4.95,2.85-1.53.9-2.93,1.73-4.21,2.48-1.27.76-2.39,1.43-3.37,2.02-1.95,1.18-3.28,1.99-3.87,2.34"/>
            <path class="cls-1" d="M382.08,601.79c.3.22.62.45.94.69.33.23.67.47,1.01.72.35.24.71.49,1.08.74.37.25.75.5,1.15.77.79.51,1.61,1.04,2.47,1.6.87.54,1.77,1.1,2.7,1.68.94.56,1.91,1.15,2.9,1.74,1,.59,2.03,1.19,3.08,1.8,1.06.6,2.14,1.22,3.24,1.86,1.11.62,2.24,1.25,3.38,1.9,2.3,1.26,4.68,2.56,7.1,3.88,2.43,1.29,4.9,2.61,7.39,3.93,2.5,1.3,5.01,2.61,7.51,3.91,2.51,1.28,5,2.56,7.46,3.82,4.92,2.47,9.68,4.86,14.06,7.05,4.39,2.15,8.38,4.11,11.76,5.77,6.77,3.26,11.07,5.33,11.07,5.33l.02-5.69c-1.06-.47-2.14-.94-3.23-1.42-1.08-.49-2.18-.99-3.29-1.49-1.1-.51-2.22-1.03-3.34-1.55-1.12-.53-2.25-1.07-3.38-1.61-2.26-1.11-4.55-2.23-6.86-3.36-2.29-1.16-4.6-2.33-6.91-3.5-2.3-1.2-4.6-2.39-6.88-3.58-2.28-1.21-4.54-2.42-6.78-3.61-2.23-1.21-4.43-2.41-6.59-3.59-2.15-1.19-4.27-2.36-6.33-3.5-2.05-1.16-4.05-2.28-5.99-3.37-1.93-1.1-3.79-2.16-5.56-3.17-3.54-2.06-6.76-3.93-9.54-5.55-2.77-1.65-5.1-3.04-6.89-4.11-.89-.54-1.65-1-2.26-1.38-.6-.38-1.06-.66-1.36-.85"/>
            <path class="cls-1" d="M395.11,750.9c1.65-1.11,3.32-2.23,4.98-3.35,1.68-1.1,3.37-2.2,5.05-3.3,1.7-1.08,3.39-2.16,5.08-3.24,1.7-1.06,3.39-2.12,5.07-3.18,3.37-2.09,6.69-4.14,9.91-6.14,3.22-2.01,6.35-3.96,9.34-5.83,1.48-.95,2.94-1.88,4.35-2.79,1.4-.93,2.76-1.82,4.07-2.69.65-.44,1.29-.88,1.92-1.31.62-.44,1.24-.87,1.84-1.29.59-.43,1.18-.85,1.75-1.26.56-.42,1.12-.83,1.65-1.23.53-.41,1.05-.82,1.55-1.21.5-.4.98-.8,1.45-1.18.46-.4.9-.78,1.34-1.15.21-.19.42-.38.63-.57.2-.19.4-.38.6-.56.19-.19.38-.37.57-.55.18-.18.36-.37.53-.54.17-.18.34-.36.5-.54.16-.18.32-.36.47-.53.15-.18.29-.35.44-.52.14-.17.27-.35.4-.51.13-.17.25-.34.37-.51.11-.17.22-.33.33-.5l-.07-4.03c-.42.32-.88.67-1.38,1.05-.5.37-1.03.76-1.6,1.17-1.14.81-2.41,1.71-3.78,2.68-1.39.95-2.88,1.98-4.45,3.06-1.58,1.07-3.25,2.19-4.98,3.36-3.48,2.3-7.2,4.76-11,7.26-3.81,2.47-7.7,4.99-11.47,7.44-7.58,4.84-14.71,9.39-19.94,12.74-5.25,3.32-8.6,5.43-8.6,5.43"/>
            <path class="cls-1" d="M398.2,580.62s1.44.96,4,2.65c1.27.86,2.83,1.91,4.61,3.11,1.78,1.22,3.8,2.6,6.01,4.12,2.2,1.54,4.59,3.21,7.14,4.99,2.53,1.81,5.21,3.72,8,5.72,1.39,1.01,2.81,2.04,4.25,3.09,1.43,1.06,2.89,2.13,4.36,3.22,1.47,1.1,2.95,2.21,4.45,3.34,1.49,1.14,2.99,2.28,4.5,3.43,1.5,1.17,3.01,2.34,4.52,3.51,1.5,1.19,3.01,2.38,4.51,3.58,1.49,1.21,2.98,2.42,4.47,3.62,1.47,1.22,2.93,2.44,4.39,3.65,1.44,1.23,2.86,2.45,4.28,3.66.7.61,1.4,1.22,2.09,1.83.69.61,1.37,1.22,2.05,1.83.67.61,1.34,1.22,2,1.82.66.61,1.31,1.21,1.95,1.81.64.61,1.27,1.21,1.9,1.8.62.6,1.24,1.2,1.85,1.79.6.6,1.2,1.19,1.79,1.78.58.59,1.15,1.18,1.72,1.76.56.59,1.11,1.17,1.65,1.74.53.58,1.06,1.16,1.58,1.72.51.57,1.01,1.14,1.5,1.7.48.57.96,1.12,1.42,1.67.45.56.9,1.11,1.34,1.65.42.55.84,1.09,1.25,1.62.2.27.39.53.59.8.19.27.38.53.57.79.18.26.36.52.54.78.17.26.35.52.52.77.17.26.33.51.49.76.16.25.31.5.47.75.15.25.29.5.44.74.14.25.28.49.41.73.13.24.26.49.38.72.12.24.24.48.36.71.11.24.22.47.33.7.1.23.2.46.3.69.09.23.18.46.27.68.08.23.16.45.24.67l.11.33.03.08v.02s0,.01,0,.02v.04s-.07.16-.07.16c-.08.21-.15.43-.23.64l-9.64,9.06.41-.59.39-.6.37-.6.35-.61.33-.61.31-.62.29-.62.27-.62.25-.63.24-.63.22-.64.2-.64.18-.64.17-.65.15-.65.13-.66-.3-.67-.32-.67-.34-.67-.36-.68-.37-.68-.39-.68-.41-.69-.43-.69c-.3-.46-.6-.92-.9-1.39-.32-.46-.64-.93-.97-1.4-.34-.47-.69-.94-1.03-1.41-.36-.47-.73-.95-1.1-1.43-.38-.47-.77-.95-1.16-1.44-.4-.48-.81-.96-1.22-1.45-.42-.48-.84-.97-1.27-1.46-.44-.48-.88-.97-1.33-1.46-.46-.49-.92-.98-1.38-1.47-.47-.49-.95-.98-1.43-1.48-.49-.49-.98-.99-1.48-1.49-.51-.49-1.02-.99-1.53-1.5-.52-.5-1.05-1-1.58-1.5-.54-.5-1.08-1-1.62-1.51-.55-.5-1.1-1.01-1.66-1.51-.56-.5-1.13-1.01-1.7-1.52-1.16-1-2.33-2.02-3.52-3.05-1.21-1.01-2.43-2.03-3.66-3.07-1.25-1.02-2.51-2.04-3.78-3.08-1.29-1.02-2.59-2.05-3.9-3.08-1.32-1.02-2.65-2.05-3.99-3.09-1.35-1.02-2.71-2.05-4.07-3.08-1.37-1.02-2.75-2.05-4.14-3.08-1.39-1.02-2.79-2.04-4.19-3.07-2.82-2.03-5.65-4.06-8.48-6.1-2.85-2.01-5.69-4.02-8.51-6.01-2.83-1.98-5.65-3.95-8.43-5.89-5.56-3.89-10.98-7.69-16.14-11.3"/>
            <polygon class="cls-1" points="504.1 709.04 486.63 697.18 431.16 685.66 451.02 696.55 504.1 709.04"/>
            <polygon class="cls-1" points="502.37 659.1 501.11 665.87 500.8 667.56 500.79 667.61 500.78 667.64 500.78 667.65 500.78 667.66 500.77 667.67 500.69 667.77 500.51 667.98 500.17 668.4 499.47 669.23 496.71 672.58 485.63 685.95 432.69 736.17 452.11 708.86 479.95 684.03 493.86 671.61 497.34 668.51 498.21 667.74 498.32 667.64 498.35 667.61 498.36 667.59 498.38 667.54 498.47 667.34 498.66 666.95 499.4 665.38 502.37 659.1"/>
            <polygon class="cls-1" points="470.73 686.29 464.8 688.2 466.55 707.89 472.48 705.98 470.73 686.29"/>
            <polygon class="cls-1" points="464.84 688.36 458.9 689.96 459.14 710.1 465.08 708.5 464.84 688.36"/>
            <polygon class="cls-1" points="472.41 705.84 478.35 704.24 478.12 684.1 472.17 685.69 472.41 705.84"/>
            <path class="cls-1" d="M497.69,689.44l1.05-13.6.53-6.8.07-.85.03-.43v-.11s.01-.03.01-.03h0s0,0,0-.01h0s-.03-.07-.03-.07l-.12-.21-.94-1.72-1.88-3.44-46.45-49.19,14.81,23.77,23.34,26.46,2.92,3.31.73.83.09.1.02.03v.03s.02.05.02.05l.05.2.11.41.43,1.64,1.74,6.54,3.47,13.08Z"/>
            <polygon class="cls-1" points="520.38 642.62 498.55 651.3 442.17 657.78 462.43 648.71 520.38 642.62"/>
            <polygon class="cls-1" points="485.14 641.2 479.32 638.8 475.58 657.91 481.4 660.32 485.14 641.2"/>
            <polygon class="cls-1" points="479.32 638.97 473.58 636.28 468.35 654.74 474.1 657.43 479.32 638.97"/>
            <polygon class="cls-1" points="481.36 660.13 487.11 662.83 492.32 644.36 486.59 641.67 481.36 660.13"/>
          </g>
        </g>
        <g>
          <path class="cls-1" d="M141.05,1023.68c11.89-33.51,32.02-44.84,45.07-81.61l4.89,1.73c-13.05,36.77-33.18,48.11-45.06,81.62"/>
          <path class="cls-1" d="M161.23,1030.84c12.65-35.64,4.59-58.33,16.11-90.81l4.89,1.73c-11.52,32.48-3.46,55.17-16.1,90.81"/>
          <path class="cls-1" d="M204.34,845.3c-11.89,33.51-3.4,55-16.44,91.77l4.89,1.73c13.05-36.77,4.56-58.26,16.45-91.77"/>
          <path class="cls-1" d="M224.51,852.46c-12.65,35.64-33.2,48.18-44.72,80.66l4.89,1.73c11.52-32.48,32.08-45.01,44.73-80.66"/>
          <polygon class="cls-1" points="156.09 954.62 175.84 947.76 216.76 915.69 196.47 924.51 156.09 954.62"/>
          <polygon class="cls-1" points="194.97 972.13 185.74 951.52 176.15 901.09 185.62 920.39 194.97 972.13"/>
          <polygon class="cls-1" points="193.88 941.55 195.64 936.89 178.27 930.29 176.51 934.95 193.88 941.55"/>
          <polygon class="cls-1" points="195.49 936.85 197.51 932.3 180.63 924.53 178.6 929.08 195.49 936.85"/>
          <polygon class="cls-1" points="176.67 934.96 174.65 939.51 191.53 947.28 193.56 942.73 176.67 934.96"/>
        </g>
        <g>
          <path class="cls-1" d="M174.82,274.59c16.18,38.41,10.1,63.12,27.85,105.27l-4.78,2.01c-17.75-42.15-11.69-66.86-27.86-105.27"/>
          <path class="cls-1" d="M155.09,282.9c17.21,40.86,39.7,55.15,55.38,92.38l-4.78,2.01c-15.68-37.23-38.18-51.52-55.39-92.38"/>
          <path class="cls-1" d="M260.94,479.06c-16.18-38.41-38.1-51.33-55.85-93.48l-4.78,2.01c17.75,42.15,39.67,55.07,55.84,93.48"/>
          <path class="cls-1" d="M241.21,487.37c-17.21-40.86-11.72-66.94-27.4-104.17l-4.78,2.01c15.68,37.23,10.18,63.31,27.39,104.17"/>
          <polygon class="cls-1" points="214.95 346.88 205.85 367.33 200.16 425.57 208.2 402.98 214.95 346.88"/>
          <polygon class="cls-1" points="174.18 359.58 195.99 371.19 240.02 409.01 219.01 398.76 174.18 359.58"/>
          <polygon class="cls-1" points="197.5 385.96 199.68 391.38 216.98 384.61 214.81 379.19 197.5 385.96"/>
          <polygon class="cls-1" points="199.82 391.31 201.72 396.82 219.54 391.45 217.64 385.93 199.82 391.31"/>
          <polygon class="cls-1" points="214.69 379.3 212.78 373.79 194.96 379.16 196.86 384.68 214.69 379.3"/>
        </g>
      </g>
    </g>
  </g>
</svg>