<?xml version="1.0" encoding="UTF-8"?>
<svg id="Layer_2" data-name="Layer 2" xmlns="http://www.w3.org/2000/svg" viewBox="0 0 474.61 1039.37">
  <defs>
    <style>
      .cls-1 {
        fill: #bfbfbf;
        stroke: #000;
        stroke-linecap: round;
        stroke-width: 2.5px;
      }
    </style>
  </defs>
  <g id="Layer_2-2" data-name="Layer 2">
    <g>
      <g>
        <g>
          <path class="cls-1" d="M23.77,1.25c18.8,29.91,15.15,52.65,35.78,85.48l-4.39,2.76C34.53,56.66,38.18,33.93,19.38,4.01"/>
          <path class="cls-1" d="M5.65,12.64c20,31.82,42.73,39.47,60.95,68.46l-4.39,2.76C43.99,54.87,21.25,47.23,1.25,15.41"/>
          <path class="cls-1" d="M123.86,160.5c-18.8-29.91-40.87-36.49-61.5-69.31l-4.39,2.76c20.63,32.83,42.69,39.4,61.49,69.32"/>
          <path class="cls-1" d="M105.73,171.89c-20-31.82-17.03-55.62-35.25-84.62l-4.39,2.76c18.22,28.99,15.24,52.8,35.24,84.62"/>
          <polygon class="cls-1" points="68.4 55.5 61.5 75.18 61.13 126.93 66.84 105.62 68.4 55.5"/>
          <polygon class="cls-1" points="30.56 75.16 52.41 80.61 97.77 104.12 76.81 99.67 30.56 75.16"/>
          <polygon class="cls-1" points="55.14 93.12 57.69 97.36 73.63 87.82 71.09 83.57 55.14 93.12"/>
          <polygon class="cls-1" points="57.82 97.27 60.11 101.65 76.67 93.21 74.38 88.82 57.82 97.27"/>
          <polygon class="cls-1" points="70.98 83.7 68.68 79.31 52.12 87.75 54.41 92.14 70.98 83.7"/>
        </g>
        <g>
          <path class="cls-1" d="M123.86,160.51c18.8,29.91,15.15,52.65,35.78,85.48l-4.39,2.76c-20.63-32.83-16.99-55.56-35.79-85.47"/>
          <path class="cls-1" d="M105.74,171.9c20,31.82,42.73,39.47,60.95,68.46l-4.39,2.76c-18.22-28.99-40.96-36.64-60.96-68.46"/>
          <path class="cls-1" d="M223.94,319.75c-18.8-29.91-40.87-36.48-61.5-69.31l-4.39,2.76c20.63,32.83,42.69,39.4,61.49,69.32"/>
          <path class="cls-1" d="M205.82,331.14c-20-31.82-17.03-55.62-35.25-84.62l-4.39,2.76c18.22,28.99,15.24,52.8,35.24,84.62"/>
          <polygon class="cls-1" points="168.49 214.75 161.58 234.43 161.22 286.19 166.93 264.88 168.49 214.75"/>
          <polygon class="cls-1" points="130.65 234.42 152.49 239.87 197.86 263.38 176.89 258.92 130.65 234.42"/>
          <polygon class="cls-1" points="155.23 252.37 157.78 256.61 173.72 247.07 171.17 242.83 155.23 252.37"/>
          <polygon class="cls-1" points="157.9 256.52 160.2 260.9 176.76 252.47 174.47 248.08 157.9 256.52"/>
          <polygon class="cls-1" points="171.07 242.95 168.77 238.57 152.21 247.01 154.5 251.39 171.07 242.95"/>
        </g>
        <g>
          <path class="cls-1" d="M223.95,319.76c18.8,29.91,15.15,52.65,35.78,85.48l-4.39,2.76c-20.63-32.83-16.99-55.56-35.79-85.47"/>
          <path class="cls-1" d="M205.82,331.15c20,31.82,42.73,39.47,60.95,68.46l-4.39,2.76c-18.22-28.99-40.96-36.64-60.96-68.46"/>
          <path class="cls-1" d="M324.03,479.01c-18.8-29.91-40.87-36.49-61.5-69.31l-4.39,2.76c20.63,32.83,42.69,39.4,61.49,69.32"/>
          <path class="cls-1" d="M305.9,490.4c-20-31.82-17.03-55.62-35.25-84.62l-4.39,2.76c18.22,28.99,15.24,52.8,35.24,84.62"/>
          <polygon class="cls-1" points="268.58 374.01 261.67 393.69 261.31 445.45 267.02 424.13 268.58 374.01"/>
          <polygon class="cls-1" points="230.74 393.67 252.58 399.13 297.95 422.63 276.98 418.18 230.74 393.67"/>
          <polygon class="cls-1" points="255.32 411.63 257.87 415.87 273.81 406.33 271.26 402.09 255.32 411.63"/>
          <polygon class="cls-1" points="257.99 415.78 260.29 420.16 276.84 411.72 274.56 407.34 257.99 415.78"/>
          <polygon class="cls-1" points="271.15 402.21 268.86 397.83 252.29 406.27 254.59 410.65 271.15 402.21"/>
        </g>
        <g>
          <path class="cls-1" d="M324.04,479.02c18.8,29.91,15.15,52.65,35.78,85.48l-4.39,2.76c-20.63-32.83-16.99-55.56-35.79-85.47"/>
          <path class="cls-1" d="M305.91,490.41c20,31.82,42.73,39.47,60.95,68.46l-4.39,2.76c-18.22-28.99-40.96-36.64-60.96-68.46"/>
          <path class="cls-1" d="M424.12,638.26c-18.8-29.91-40.87-36.48-61.5-69.31l-4.39,2.76c20.63,32.83,42.69,39.4,61.49,69.32"/>
          <path class="cls-1" d="M405.99,649.66c-20-31.82-17.03-55.62-35.25-84.62l-4.39,2.76c18.22,28.99,15.24,52.8,35.24,84.62"/>
          <polygon class="cls-1" points="368.67 533.27 361.76 552.95 361.4 604.7 367.11 583.39 368.67 533.27"/>
          <polygon class="cls-1" points="330.83 552.93 352.67 558.38 398.03 581.89 377.07 577.44 330.83 552.93"/>
          <polygon class="cls-1" points="355.41 570.88 357.95 575.13 373.9 565.58 371.35 561.34 355.41 570.88"/>
          <polygon class="cls-1" points="358.08 575.03 360.38 579.42 376.93 570.98 374.64 566.59 358.08 575.03"/>
          <polygon class="cls-1" points="371.24 561.47 368.94 557.08 352.38 565.52 354.68 569.9 371.24 561.47"/>
        </g>
        <g>
          <path class="cls-1" d="M435.22,726.88c-12.73,39.46-33.42,54.14-47.39,97.45l-4.94-1.59c13.97-43.31,34.65-57.99,47.38-97.45"/>
          <path class="cls-1" d="M414.84,720.31c-13.54,41.98-5.78,67.39-18.12,105.64l-4.94-1.59c12.34-38.25,4.57-63.66,18.11-105.64"/>
          <path class="cls-1" d="M367.46,936.98c12.73-39.46,4.51-63.46,18.48-106.77l-4.94-1.59c-13.97,43.31-5.76,67.31-18.48,106.77"/>
          <path class="cls-1" d="M347.09,930.41c13.54-41.98,34.68-58.07,47.01-96.32l-4.94-1.59c-12.34,38.25-33.48,54.34-47.02,96.32"/>
          <polygon class="cls-1" points="418.61 807.45 398.4 816.95 356.18 857.14 376.98 845.34 418.61 807.45"/>
          <polygon class="cls-1" points="379.41 790.51 388.4 813.44 397.19 870.59 387.93 849.19 379.41 790.51"/>
          <polygon class="cls-1" points="379.94 825.56 378.06 831.05 395.59 837.21 397.47 831.71 379.94 825.56"/>
          <polygon class="cls-1" points="378.21 831.09 376.07 836.48 393.08 844.02 395.23 838.63 378.21 831.09"/>
          <polygon class="cls-1" points="397.31 831.72 399.45 826.32 382.43 818.78 380.29 824.17 397.31 831.72"/>
        </g>
        <g>
          <path class="cls-1" d="M266.95,1010.18c-22.13,0-32.97-15.19-57.26-15.19v-5.19c24.29,0,35.13,15.18,57.26,15.18"/>
          <path class="cls-1" d="M266.95,988.77c-23.54,0-35.18,15.18-56.63,15.18v-5.19c21.45,0,33.08-15.19,56.63-15.19"/>
          <path class="cls-1" d="M149.13,1010.18c22.13,0,32.97-15.19,57.26-15.19v-5.19c-24.29,0-35.13,15.18-57.26,15.18"/>
          <path class="cls-1" d="M149.13,988.77c23.54,0,35.18,15.18,56.63,15.18v-5.19c-21.45,0-33.08-15.19-56.63-15.19"/>
          <polygon class="cls-1" points="223.3 1019.1 215.17 1002.78 187.84 974.94 197.24 991.11 223.3 1019.1"/>
          <polygon class="cls-1" points="225.49 976.6 215.32 992.19 187.73 1018.1 197.08 1002.71 225.49 976.6"/>
          <polygon class="cls-1" points="207.77 987.86 204.67 987.76 204.42 1006.34 207.52 1006.44 207.77 987.86"/>
          <polygon class="cls-1" points="204.68 987.92 201.59 987.53 200.55 1006.04 203.64 1006.43 204.68 987.92"/>
          <polygon class="cls-1" points="207.49 1006.28 210.58 1006.67 211.63 988.15 208.54 987.76 207.49 1006.28"/>
        </g>
        <g>
          <path class="cls-1" d="M409.79,718.68l.28-.84.31-.83.34-.81.37-.8.4-.78.42-.77.45-.75.47-.74.5-.72.52-.71.54-.69.56-.68.58-.66.6-.65.62-.63.63-.62.65-.6.66-.59.67-.57.68-.56.69-.55.7-.53.71-.52.72-.5.72-.49c.24-.16.49-.32.73-.48.49-.31.98-.61,1.46-.91.5-.29.98-.58,1.46-.86.49-.27.98-.54,1.46-.81.49-.26.97-.51,1.44-.75.48-.24.95-.47,1.41-.7.47-.22.93-.44,1.38-.65.46-.2.9-.4,1.34-.6.44-.19.87-.37,1.28-.55.42-.17.83-.34,1.22-.49.4-.15.78-.3,1.15-.44.37-.14.73-.27,1.07-.4.69-.24,1.31-.46,1.85-.65.55-.18,1.03-.33,1.41-.46.79-.23,1.22-.36,1.22-.36l-.84.32-.83.34-.82.36-.81.37-.79.39-.78.4-.77.42-.76.43-.74.44-.73.45-.72.46-.71.48-.69.48-.68.49-.67.5-.66.51-.64.52-.63.52-1.22,1.06-1.17,1.08-1.12,1.09c-.36.37-.72.74-1.07,1.1-.34.37-.69.74-1.02,1.1-.33.37-.65.74-.97,1.1-.31.37-.62.73-.92,1.09-.3.36-.59.72-.87,1.07-.28.36-.55.71-.82,1.05-.26.35-.52.69-.77,1.03-.25.34-.49.67-.72,1-.23.33-.45.65-.67.96-.21.31-.42.62-.62.92-.39.6-.76,1.17-1.1,1.69-.32.53-.62,1.02-.89,1.46-.26.45-.49.84-.69,1.19-.39.69-.66,1.16-.78,1.37"/>
          <path class="cls-1" d="M401.6,652.42c.08.11.15.22.23.33.08.11.17.22.26.34.1.11.19.23.29.35.1.12.21.23.32.35.11.12.23.24.35.36.12.12.25.24.38.37.13.12.27.25.4.37.14.12.28.25.43.38.3.25.61.51.93.78.33.26.67.52,1.01.8.36.27.72.54,1.09.81.38.27.77.55,1.16.82.4.27.81.55,1.22.83.42.28.84.56,1.27.84.43.28.87.56,1.31.84.44.28.89.56,1.34.84.91.55,1.83,1.1,2.74,1.65.93.54,1.85,1.07,2.76,1.6.92.52,1.82,1.02,2.7,1.52.89.49,1.75.96,2.58,1.41,1.67.89,3.2,1.69,4.49,2.38,2.62,1.33,4.28,2.17,4.28,2.17l3.22-3.41c-.44-.18-.88-.37-1.32-.55-.44-.19-.88-.39-1.32-.59-.44-.21-.88-.41-1.32-.62-.44-.22-.88-.43-1.32-.65-.44-.22-.87-.45-1.31-.68-.43-.23-.87-.47-1.31-.7l-1.3-.72-1.28-.74-1.27-.75-1.25-.76c-.81-.52-1.63-1.03-2.43-1.54-.78-.52-1.56-1.04-2.32-1.54-.75-.52-1.48-1.02-2.19-1.52-.7-.5-1.38-.99-2.04-1.47-.65-.48-1.27-.95-1.87-1.39-.59-.45-1.15-.88-1.68-1.29-.52-.41-1.01-.8-1.47-1.16-.45-.36-.86-.7-1.24-1-.37-.31-.7-.58-.99-.82-.28-.24-.52-.45-.71-.62-.09-.08-.18-.16-.25-.22-.07-.07-.13-.12-.17-.17"/>
          <path class="cls-1" d="M435.21,726.88l.37-.96.39-.96.41-.95.43-.95c.3-.63.6-1.25.9-1.87.31-.62.63-1.23.94-1.84.64-1.22,1.27-2.41,1.89-3.58.31-.58.61-1.16.9-1.72.29-.57.57-1.12.84-1.67.13-.27.26-.54.39-.81.12-.27.25-.53.37-.8.12-.26.23-.52.34-.78.11-.26.21-.51.31-.76.09-.25.19-.5.28-.75.08-.25.16-.49.24-.73.07-.24.14-.48.21-.71l.09-.35.08-.34.07-.34.05-.33.04-.33.03-.32.02-.32v-.31s0-.3,0-.3l-.02-.3-.04-.29-.05-.29-.07-.28-.08-.27-.1-.27-.11-.26-.13-.26-.15-.25-2.94-1.76c-.02.09-.04.18-.06.28-.02.1-.04.2-.07.3-.05.21-.11.42-.17.66-.07.23-.14.47-.22.73-.08.25-.17.51-.26.79-.1.27-.19.55-.3.84-.11.29-.22.59-.33.89-.24.61-.49,1.25-.75,1.92-.28.66-.56,1.34-.85,2.04-.3.7-.61,1.41-.92,2.12-.32.71-.64,1.43-.97,2.15-.33.72-.66,1.43-.98,2.13-.66,1.4-1.31,2.76-1.9,4.01-.61,1.25-1.16,2.39-1.63,3.35-.96,1.92-1.57,3.15-1.57,3.15"/>
          <path class="cls-1" d="M424.12,638.27s.41.44,1.14,1.22c.35.4.79.88,1.28,1.44.48.57,1.03,1.21,1.63,1.91.29.36.6.73.92,1.12.31.39.64.8.97,1.21.33.42.66.86,1.01,1.3.34.45.68.91,1.04,1.39.34.48.7.97,1.05,1.46.35.5.7,1.01,1.06,1.53.35.52.7,1.05,1.05,1.59.34.54.68,1.09,1.03,1.64.33.56.66,1.12,1,1.69l.48.86.47.87.46.88.44.88.42.89.41.89.39.9.37.9.34.9c.11.3.21.61.32.91.1.3.2.61.29.91.09.3.18.61.27.91.08.3.16.61.24.91.07.3.14.6.21.9.06.3.12.6.17.9.05.3.09.6.14.9.04.3.07.6.11.89.02.3.05.59.07.89l.02.44v.44s.01.44.01.44v.43s-.03.43-.03.43l-.03.43-.04.43-.05.43-.06.42-.07.42-.08.42-.09.41-.11.41-.12.41-.13.41-.14.4-.15.4-.17.4-.18.39-.19.39-.21.38-.22.38-.11.19-.03.05h0s0,.01,0,.02l.02.02.08.08.31.3.37,4.83-.17-.3-.18-.3-.2-.3-.21-.3-.23-.3-.24-.3-.26-.3-.27-.3-.29-.3-.3-.3-.32-.3-.33-.3c-.23-.2-.47-.4-.7-.6-.25-.2-.5-.4-.76-.6.11-.25.23-.49.34-.74l.16-.37.15-.37.14-.37.13-.37.12-.37.11-.37.1-.37.09-.38.08-.38.07-.38.06-.38.05-.38c.03-.25.05-.5.08-.75.02-.25.03-.5.05-.75,0-.25,0-.5.01-.75,0-.25-.01-.5-.02-.75-.02-.25-.03-.5-.05-.76-.03-.25-.05-.5-.08-.75-.04-.25-.07-.5-.11-.76-.05-.25-.09-.5-.14-.76-.05-.25-.11-.5-.16-.76-.06-.25-.13-.5-.19-.75-.07-.25-.14-.5-.22-.75-.08-.25-.16-.5-.24-.75-.09-.25-.18-.5-.26-.75l-.29-.75-.31-.75-.33-.75-.35-.75-.37-.75-.39-.75-.4-.75-.42-.74-.44-.74-.45-.74c-.31-.49-.63-.98-.94-1.47-.33-.49-.66-.97-.99-1.46l-1.03-1.45-1.06-1.44-1.09-1.43c-.74-.94-1.48-1.88-2.22-2.82-.75-.93-1.49-1.85-2.23-2.75-.74-.91-1.47-1.8-2.18-2.68-.71-.89-1.4-1.76-2.08-2.61"/>
          <polygon class="cls-1" points="474.38 698.81 454.79 695.16 411.32 695.05 431.74 698.06 474.38 698.81"/>
          <polygon class="cls-1" points="448.47 675.69 443.83 679.85 442.67 680.9 442.63 680.93 442.62 680.95 442.61 680.95 442.6 680.96 442.6 680.96 442.62 681.01 442.66 681.12 442.74 681.34 442.9 681.76 443.54 683.48 446.11 690.33 448.5 717.07 441.25 703.36 441.12 689.99 441.05 683.31 441.03 681.64 441.03 681.22 441.03 681.17 441.03 681.15 441.05 681.14 441.09 681.11 441.26 680.98 441.61 680.73 442.98 679.72 448.47 675.69"/>
          <polygon class="cls-1" points="436.89 691.8 434.49 693.17 449.72 701.65 452.12 700.29 436.89 691.8"/>
          <polygon class="cls-1" points="434.64 693.24 432.01 694.47 446.6 703.28 449.22 702.05 434.64 693.24"/>
          <polygon class="cls-1" points="451.97 700.23 454.59 699 440 690.19 437.37 691.41 451.97 700.23"/>
          <polygon class="cls-1" points="456.26 690.79 447.18 684.73 442.65 681.7 442.08 681.32 441.79 681.13 441.72 681.09 441.71 681.08 441.7 681.07 441.7 681.07 441.7 681.06 441.71 681.03 441.76 680.91 442.11 679.97 442.81 678.08 439.95 652.9 436.3 665.77 436.76 679.47 436.81 681.19 436.83 681.61 436.83 681.67 436.83 681.68 436.85 681.69 436.9 681.71 437.08 681.8 437.44 681.97 438.89 682.65 444.68 685.36 456.26 690.79"/>
          <polygon class="cls-1" points="469.6 664.16 450.35 671.37 409.61 680.43 428.04 673.14 469.6 664.16"/>
          <polygon class="cls-1" points="447.21 666.55 444.74 665.65 431.51 677.44 433.98 678.34 447.21 666.55"/>
          <polygon class="cls-1" points="444.64 665.75 442.38 664.67 428.54 676.21 430.81 677.29 444.64 665.75"/>
          <polygon class="cls-1" points="434.07 678.24 436.33 679.32 450.16 667.78 447.9 666.7 434.07 678.24"/>
        </g>
        <g>
          <path class="cls-1" d="M266.95,983.46h1.38s1.38.04,1.38.04l1.37.07,1.36.11,1.35.14,1.34.17,1.33.2,1.32.23,1.31.25,1.3.28,1.29.3,1.27.33,1.26.35,1.25.37,1.24.39c.41.14.82.28,1.22.41.4.14.81.29,1.21.43.4.15.8.3,1.19.45.39.16.79.31,1.18.46.39.16.78.32,1.16.48.38.17.77.33,1.14.49.38.17.75.34,1.13.51.37.17.74.35,1.11.52.37.18.73.35,1.09.53.36.18.72.36,1.08.54.35.18.71.36,1.06.54.7.38,1.38.75,2.06,1.11.67.38,1.33.76,1.98,1.13.64.39,1.27.77,1.89,1.14.61.39,1.22.77,1.81,1.14.59.39,1.16.76,1.72,1.13.55.38,1.1.75,1.62,1.11.52.37,1.03.74,1.53,1.09.49.36.96.71,1.42,1.05.46.35.9.69,1.32,1.01.42.33.82.65,1.21.96.38.31.75.61,1.1.89.35.29.67.56.98.82.31.26.59.51.86.74.53.47.99.88,1.35,1.21.36.34.64.6.83.78.19.18.28.27.28.27l-.88-.7-.9-.69-.92-.67-.94-.65-.96-.64-.97-.62-.99-.6-1-.59-1.01-.57-1.02-.56-1.03-.54-1.04-.53-1.05-.51-1.06-.5-2.14-.95-2.16-.89-2.17-.84c-.72-.26-1.45-.52-2.17-.79-.72-.25-1.45-.49-2.16-.73-.72-.23-1.44-.46-2.15-.68-.71-.21-1.42-.43-2.13-.64-.71-.2-1.41-.4-2.1-.59-.69-.18-1.38-.37-2.06-.55-.68-.17-1.35-.34-2.01-.5-.66-.16-1.32-.31-1.96-.46-.64-.14-1.28-.28-1.9-.42-.62-.13-1.23-.26-1.83-.38-1.2-.23-2.34-.45-3.41-.66-1.08-.19-2.1-.36-3.04-.52-.94-.15-1.81-.28-2.6-.4-.79-.11-1.49-.21-2.09-.29-1.21-.16-2.05-.27-2.41-.32"/>
          <path class="cls-1" d="M342.14,928.82c-.06.19-.11.4-.17.6-.05.21-.11.42-.16.64-.05.22-.1.45-.15.69-.05.24-.1.48-.14.73-.04.25-.09.5-.14.76-.04.26-.08.53-.13.8-.07.55-.15,1.11-.23,1.7-.06.59-.13,1.2-.2,1.83-.05.63-.11,1.28-.17,1.94-.05.66-.09,1.34-.14,2.03-.04.69-.08,1.4-.11,2.12-.03.72-.06,1.45-.09,2.19-.02.74-.04,1.49-.07,2.25-.02,1.52-.05,3.06-.07,4.61,0,1.56,0,3.12,0,4.68.02,1.56.04,3.12.06,4.65.04,1.53.07,3.04.1,4.5.05,1.47.09,2.89.13,4.25.11,2.73.22,5.21.31,7.31.23,4.21.38,6.88.38,6.88l4.88-.35c-.07-.66-.15-1.32-.22-2-.06-.67-.13-1.35-.19-2.04-.05-.68-.11-1.38-.16-2.07-.04-.7-.09-1.4-.13-2.1-.03-.7-.07-1.41-.11-2.12-.03-.71-.05-1.42-.08-2.14-.02-.71-.04-1.43-.06-2.15l-.03-2.15c0-1.43,0-2.87,0-4.29.02-1.42.05-2.84.07-4.23.04-1.39.09-2.77.13-4.12.06-1.35.12-2.67.18-3.96.07-1.29.14-2.54.21-3.75.08-1.21.16-2.37.24-3.49.09-1.11.17-2.17.25-3.17.09-1,.17-1.94.25-2.81.08-.87.16-1.67.23-2.4.08-.72.15-1.37.21-1.93.07-.56.12-1.04.17-1.42.05-.38.09-.67.12-.86"/>
          <path class="cls-1" d="M266.95,1010.18l1.6.05,1.61.08,1.61.1,1.61.12c1.07.09,2.15.19,3.22.28,1.07.11,2.13.22,3.19.33,2.11.24,4.19.47,6.22.7,1.01.11,2.01.22,2.99.33.98.1,1.94.2,2.88.29.94.08,1.86.16,2.76.23.45.03.89.06,1.32.09.43.02.86.04,1.28.06.42.01.84.03,1.24.04.41,0,.81,0,1.2,0,.39,0,.78-.01,1.15-.02.38-.02.74-.04,1.1-.05.18-.01.36-.03.53-.04.17-.02.35-.03.52-.05.17-.02.34-.04.5-.06.17-.02.33-.05.49-.07.16-.03.32-.05.48-.08.16-.03.31-.06.46-.09.15-.03.3-.07.45-.1.15-.04.29-.08.43-.11.14-.04.28-.08.42-.12.14-.05.27-.09.4-.14.13-.05.26-.1.38-.15.12-.05.25-.11.37-.16.12-.06.24-.12.35-.17.11-.06.22-.13.33-.19.11-.07.21-.13.32-.2.1-.07.2-.14.3-.21l1.21-3.33c-.28.02-.59.04-.92.06-.33.01-.68.02-1.06.04-.37,0-.77.01-1.18.02-.41,0-.85,0-1.29,0-.9-.02-1.86-.04-2.88-.06-1.02-.04-2.09-.08-3.21-.13-1.11-.06-2.27-.12-3.44-.18-1.18-.07-2.38-.15-3.59-.23-2.43-.18-4.9-.36-7.3-.54-2.4-.2-4.73-.4-6.87-.57-2.14-.19-4.1-.37-5.76-.52-3.31-.32-5.43-.52-5.43-.52"/>
          <path class="cls-1" d="M367.46,936.99s-.18.92-.49,2.54c-.17.81-.37,1.79-.6,2.92-.25,1.13-.53,2.41-.85,3.81-.33,1.4-.7,2.92-1.09,4.53-.21.81-.42,1.63-.63,2.49-.23.85-.46,1.72-.69,2.6-.25.88-.5,1.79-.75,2.7-.27.91-.54,1.84-.81,2.78-.29.94-.58,1.88-.87,2.84-.31.95-.62,1.91-.93,2.88-.33.96-.66,1.93-.99,2.9l-1.05,2.89c-.37.96-.74,1.91-1.11,2.87l-.58,1.42-.59,1.41c-.2.46-.41.93-.61,1.39-.21.46-.42.92-.62,1.37-.21.45-.43.9-.64,1.35-.22.44-.44.89-.65,1.33-.22.44-.45.87-.67,1.3-.23.43-.46.85-.68,1.27-.23.42-.47.83-.7,1.24-.24.41-.48.81-.71,1.2-.24.39-.49.78-.72,1.17-.25.38-.5.76-.74,1.13-.25.37-.51.73-.75,1.09-.26.35-.52.7-.77,1.04-.26.34-.53.67-.78,1-.27.32-.54.64-.8.95l-.4.45-.41.44-.41.43-.42.41-.42.4-.42.38-.43.37-.43.35-.43.34-.44.32-.44.31-.44.29-.45.27-.45.26-.46.24-.46.22-.46.2-.47.18-.23.09-.06.02h-.01s0,0-.01.02l-.02.03-.07.1-.3.39-7,1.84.36-.25.35-.27.35-.28.34-.3.33-.31.32-.32.32-.34.31-.35.3-.37.3-.38.29-.39.28-.41.28-.42.27-.43.27-.45.26-.46.44-.22.43-.23.43-.24.42-.25.42-.26.41-.27.41-.29.4-.3.4-.31.39-.32.39-.33.38-.34c.25-.23.5-.46.75-.7.24-.24.48-.49.73-.74.24-.26.47-.51.71-.77.23-.27.46-.54.7-.81.22-.28.45-.56.68-.84.22-.29.44-.58.66-.88.21-.3.43-.6.65-.91.21-.31.42-.62.63-.94.2-.32.41-.64.61-.97.2-.33.4-.66.6-1,.19-.34.39-.68.58-1.03.19-.35.38-.7.57-1.05.18-.36.37-.72.56-1.08.18-.36.36-.73.54-1.1.17-.37.35-.75.53-1.12.17-.38.34-.76.52-1.15.17-.39.33-.78.5-1.17.16-.39.33-.79.49-1.19.16-.4.32-.8.48-1.21.16-.41.31-.81.47-1.22.3-.83.6-1.66.9-2.5.29-.85.57-1.7.86-2.55.27-.86.55-1.73.82-2.6.26-.88.53-1.76.79-2.64.25-.89.5-1.78.76-2.67l.73-2.69.7-2.71c.45-1.81.9-3.62,1.35-5.41.43-1.8.86-3.59,1.28-5.35.42-1.77.84-3.51,1.24-5.23.42-1.71.83-3.39,1.23-5.03"/>
          <polygon class="cls-1" points="327.41 1038.84 323.44 1019.07 302.78 977.67 308.09 998.03 327.41 1038.84"/>
          <polygon class="cls-1" points="346.75 1003.51 340.39 1003.2 338.8 1003.12 338.75 1003.12 338.72 1003.12 338.71 1003.12 338.71 1003.12 338.7 1003.12 338.63 1003.15 338.49 1003.22 338.21 1003.37 337.65 1003.65 335.41 1004.79 326.46 1009.33 287.89 1019.82 304.78 1008.71 324.57 1004.48 334.47 1002.36 336.94 1001.83 337.56 1001.7 337.64 1001.68 337.66 1001.68 337.69 1001.68 337.74 1001.69 337.95 1001.74 338.37 1001.82 340.04 1002.16 346.75 1003.51"/>
          <polygon class="cls-1" points="319.86 1001.01 316.68 999.15 311.38 1016.24 314.55 1018.1 319.86 1001.01"/>
          <polygon class="cls-1" points="316.65 999.3 313.56 997.18 307.46 1013.77 310.55 1015.89 316.65 999.3"/>
          <polygon class="cls-1" points="314.57 1017.94 317.65 1020.06 323.75 1003.48 320.67 1001.35 314.57 1017.94"/>
          <polygon class="cls-1" points="330.65 1019.13 335.3 1008.64 337.62 1003.39 337.91 1002.73 338.06 1002.4 338.09 1002.32 338.1 1002.3 338.1 1002.29 338.11 1002.29 338.12 1002.28 338.15 1002.26 338.28 1002.18 339.33 1001.52 341.44 1000.19 362.83 969.62 349.08 979.88 336.84 995.35 335.31 997.29 334.93 997.77 334.88 997.83 334.87 997.84 334.86 997.87 334.85 997.92 334.81 998.12 334.73 998.51 334.42 1000.1 333.16 1006.44 330.65 1019.13"/>
          <polygon class="cls-1" points="368.9 1013.09 351.72 1000.75 321.01 967.88 337.81 979.26 368.9 1013.09"/>
          <polygon class="cls-1" points="354.38 992.19 353.84 988.6 335.81 987.62 336.34 991.2 354.38 992.19"/>
          <polygon class="cls-1" points="353.7 988.61 353.44 985.05 335.3 983.15 335.56 986.71 353.7 988.61"/>
          <polygon class="cls-1" points="336.49 991.17 336.74 994.74 354.89 996.63 354.63 993.07 336.49 991.17"/>
        </g>
      </g>
      <g>
        <g>
          <path class="cls-1" d="M8.44,726.27c16.1,0,28.1,3.8,40.48,7.59,6.19,1.9,12.49,3.8,19.44,5.22,3.48.71,7.12,1.31,10.99,1.72,1.94.21,3.94.37,6,.48,2,.11,4.06.17,6.2.17l.37,5.19c-2.26,0-4.46-.06-6.57-.17-2.06-.11-4.06-.27-6-.48-3.88-.42-7.52-1.01-10.99-1.72-6.95-1.42-13.24-3.32-19.44-5.22-12.39-3.8-24.38-7.59-40.48-7.59"/>
          <path class="cls-1" d="M8.44,747.68c17.13,0,29.93-3.79,42.34-7.59,6.21-1.9,12.32-3.8,18.83-5.22,3.26-.71,6.61-1.3,10.13-1.72,1.76-.21,3.56-.37,5.4-.48,1.7-.11,3.26-.17,4.97-.17l.32,5.19c-1.81,0-3.52.06-5.28.17-1.85.11-3.65.27-5.4.48-3.52.42-6.87,1.01-10.13,1.72-6.51,1.42-12.63,3.32-18.83,5.22-12.42,3.8-25.21,7.59-42.34,7.59"/>
          <path class="cls-1" d="M144.75,705.66c-1.56,6.18-2.12,12.3-2.31,18.87-.02.83-.04,1.66-.05,2.48-.01.41,0,.84-.04,1.24-.06.4-.19.77-.37,1.08-.18.31-.41.56-.65.73-.25.18-.5.25-.75.36-.5.22-1,.44-1.5.66-2.07.94-4.1,1.86-6.16,2.79-4.27,1.9-9.07,3.8-15.04,5.22-5.96,1.42-13.13,2.37-21.68,2.37l.66,5.19c9.08,0,16.7-.95,23.07-2.37,6.39-1.42,11.56-3.32,16.2-5.22,2.24-.93,4.46-1.85,6.71-2.79.54-.22,1.09-.44,1.64-.65.27-.12.55-.18.82-.37.27-.17.52-.43.71-.76.2-.32.34-.71.41-1.14.06-.43.04-.88.06-1.31.03-.87.06-1.74.09-2.62.28-6.95.95-13.47,2.63-20.12"/>
          <path class="cls-1" d="M162.99,720.67c-2.27,8.55-5.12,15.14-7.78,20.69-.17.35-.33.69-.5,1.03-.17.34-.3.69-.57.99-.53.6-1.43.95-2.43.78-1.96-.39-3.89-.83-5.78-1.28-3.78-.89-7.42-1.84-10.94-2.79-7.04-1.9-13.55-3.8-19.89-5.22-6.35-1.42-12.51-2.37-19.24-2.37l.71,5.19c7.19,0,13.76.95,20.5,2.37,3.36.71,6.76,1.54,10.25,2.43,3.48.87,7.09,1.88,10.72,2.72,3.64.86,7.36,1.65,11.14,2.29,1.9.32,3.8.62,5.72.85.96.08,1.91-.3,2.48-.9.29-.3.44-.65.64-.99.19-.34.38-.69.56-1.03,3.01-5.55,6.23-12.26,8.78-21.17"/>
          <path class="cls-1" d="M71.95,717.35l11.84,16.32c1.73,1.16,3.12,2.32,4.7,3.48,1.56,1.16,3.19,2.32,4.89,3.48,3.39,2.32,7.04,4.64,10.96,6.96,3.92,2.32,8.1,4.64,12.54,6.96,4.44,2.32,9.17,4.67,14.07,6.85-7.71-5.21-14.71-10.69-20.81-16.06-7.69-4.67-14.37-9.33-20.04-14-1.42-1.17-2.77-2.33-4.06-3.5l-.48-.44c-.17-.15-.39-.29-.58-.44l-1.19-.88-2.37-1.75-9.48-7Z"/>
          <path class="cls-1" d="M68.77,759.85l14.8-15.59c13.56-8.63,23.15-17.27,28.78-25.9-.95,5.13-2.69,10.25-5.23,15.38-4.83,4.35-10.68,8.7-17.57,13.06l-2.63,1.63c-.9.54-1.8,1.09-2.65,1.63l-5.17,3.26-10.34,6.53Z"/>
          <polygon class="cls-1" points="94.99 748.6 99.73 748.7 97.16 730.12 93.38 730.02 94.99 748.6"/>
          <path class="cls-1" d="M99.7,748.54l4.79.39c-.74-6.17-1.59-12.34-2.54-18.51l-3.85-.4c.64,6.17,1.17,12.34,1.6,18.52Z"/>
          <path class="cls-1" d="M93.43,730.18l-3.79-.39c-.07,6.17-.25,12.34-.54,18.51l4.73.39c-.03-6.17-.16-12.34-.41-18.52Z"/>
        </g>
        <g>
          <path class="cls-1" d="M144.75,705.65c1.56-6.18,3.75-10.97,6.37-15.54,2.62-4.55,5.66-8.86,8.83-13.66.39-.56.82-1.29,1.23-1.98.42-.7.84-1.4,1.26-2.1.84-1.41,1.67-2.83,2.5-4.28,1.65-2.9,3.26-5.91,4.81-9.1,3.08-6.39,5.86-13.54,8.03-22.11l5.03,1.27c-4.32,17.11-11.14,28.65-17.83,39.63-3.26,5.16-6.39,9.82-9.1,14.75-2.72,4.95-5,10.14-6.68,16.78"/>
          <path class="cls-1" d="M162.99,720.66c2.26-8.56,3.28-16.74,3.69-24.11.4-7.42.11-14.02-.27-20.28-.64-12.97-1.38-25.57,2.44-40.7l5.03,1.27c-3.82,15.13-3.08,27.73-2.44,40.7.32,6.5.5,13.55,0,21.34-.25,3.89-.66,7.97-1.31,12.23-.64,4.26-1.52,8.68-2.78,13.14"/>
          <path class="cls-1" d="M184.59,547.71c-7.88,31.23,2.99,50.24-5.65,84.51l5.03,1.27c8.64-34.27-2.22-53.28,5.66-84.51"/>
          <path class="cls-1" d="M205.35,552.95c-8.38,33.22-27.24,45.92-34.88,76.19l5.03,1.27c7.64-30.27,26.5-42.97,34.88-76.19"/>
          <polygon class="cls-1" points="149.54 650.18 168.27 642.7 204.99 610.95 185.96 620.25 149.54 650.18"/>
          <polygon class="cls-1" points="189.98 663.66 178.48 645.49 163.19 600.23 174.77 617.18 189.98 663.66"/>
          <polygon class="cls-1" points="185.37 635.91 186.57 631.56 168.65 626.66 167.45 631.01 185.37 635.91"/>
          <polygon class="cls-1" points="186.42 631.53 187.89 627.27 170.32 621.27 168.83 625.53 186.42 631.53"/>
          <polygon class="cls-1" points="167.61 631.01 166.13 635.27 183.71 641.27 185.19 637.01 167.61 631.01"/>
        </g>
        <g>
          <path class="cls-1" d="M184.6,547.7c7.88-31.23,26.46-42.81,35.11-77.08l5.03,1.27c-8.65,34.27-27.22,45.85-35.1,77.08"/>
          <path class="cls-1" d="M205.36,552.93c8.38-33.22-2.2-53.35,5.44-83.61l5.03,1.27c-7.64,30.27,2.95,50.4-5.43,83.62"/>
          <path class="cls-1" d="M226.53,381.45c-7.88,31.23,2.99,50.24-5.65,84.51l5.03,1.27c8.64-34.27-2.22-53.28,5.66-84.51"/>
          <path class="cls-1" d="M247.29,386.69c-8.38,33.22-27.24,45.92-34.88,76.19l5.03,1.27c7.64-30.27,26.5-42.97,34.88-76.19"/>
          <polygon class="cls-1" points="191.48 483.93 210.2 476.44 246.93 444.69 227.9 454 191.48 483.93"/>
          <polygon class="cls-1" points="231.91 497.41 220.42 479.24 205.12 433.98 216.71 450.93 231.91 497.41"/>
          <polygon class="cls-1" points="227.31 469.66 228.51 465.31 210.59 460.41 209.39 464.75 227.31 469.66"/>
          <polygon class="cls-1" points="228.35 465.28 229.83 461.01 212.26 455.01 210.77 459.28 228.35 465.28"/>
          <polygon class="cls-1" points="209.55 464.75 208.07 469.02 225.65 475.02 227.13 470.76 209.55 464.75"/>
        </g>
      </g>
    </g>
  </g>
</svg>