<?xml version="1.0" encoding="UTF-8"?>
<svg id="Layer_2" data-name="Layer 2" xmlns="http://www.w3.org/2000/svg" viewBox="0 0 1054.52 784.96">
  <defs>
    <style>
      .cls-1 {
        fill: #bfbfbf;
        stroke: #000;
        stroke-linecap: round;
        stroke-width: 2.5px;
      }
    </style>
  </defs>
  <g id="Layer_2-2" data-name="Layer 2">
    <g>
      <g>
        <g>
          <path class="cls-1" d="M494,168.12c-30.65,8.99-49.94-1.18-83.58,8.69l-1.46-4.98c33.64-9.87,52.93.3,83.58-8.7"/>
          <path class="cls-1" d="M487.97,147.58c-32.61,9.56-44.45,28.86-74.16,37.57l-1.46-4.98c29.71-8.72,41.55-28.02,74.16-37.58"/>
          <path class="cls-1" d="M330.82,215.99c30.65-8.99,41.39-27.97,75.03-37.84l-1.46-4.98c-33.64,9.87-44.38,28.84-75.03,37.83"/>
          <path class="cls-1" d="M324.79,195.44c32.61-9.56,52.99.28,82.7-8.44l-1.46-4.98c-29.71,8.72-50.1-1.13-82.71,8.43"/>
          <polygon class="cls-1" points="436.06 194.41 420.19 182.06 374.51 166.44 392.08 178.14 436.06 194.41"/>
          <polygon class="cls-1" points="427.12 152.74 417.42 171.84 386.5 207.9 395.12 189.34 427.12 152.74"/>
          <polygon class="cls-1" points="405.75 170.74 401.43 171.91 406.31 189.83 410.63 188.67 405.75 170.74"/>
          <polygon class="cls-1" points="401.48 172.05 397.09 172.94 400.86 191.12 405.25 190.24 401.48 172.05"/>
          <polygon class="cls-1" points="410.54 188.53 414.93 187.65 411.17 169.46 406.78 170.34 410.54 188.53"/>
        </g>
        <g>
          <path class="cls-1" d="M330.8,215.99c-30.65,8.99-49.94-1.18-83.58,8.69l-1.46-4.98c33.64-9.87,52.93.3,83.58-8.7"/>
          <path class="cls-1" d="M324.78,195.45c-32.61,9.56-44.45,28.86-74.16,37.57l-1.46-4.98c29.71-8.72,41.55-28.02,74.16-37.58"/>
          <path class="cls-1" d="M175.4,261.58c12.07-3.54,18.93-9.51,28.62-16.31,10.72-7.1,21.82-14.31,38.64-19.25l-1.46-4.98c-16.82,4.93-27.92,12.14-38.64,19.24-5.15,3.49-9.59,6.77-14.43,9.67-4.82,2.9-9.9,5.38-16.42,7.29"/>
          <path class="cls-1" d="M160.25,243.81c8.37-2.6,16.42-3.91,23.68-4.57,3.64-.33,7.12-.48,10.44-.53,3.35-.06,6.4.04,9.67.07,12.89.18,25.41.46,40.27-3.9l-1.46-4.98c-14.86,4.36-27.38,4.07-40.27,3.9-6.38-.11-13.37-.04-21.04.73-7.64.78-16.18,2.16-24.87,5.08"/>
          <polygon class="cls-1" points="272.86 242.28 257 229.93 211.31 214.31 228.88 226.01 272.86 242.28"/>
          <polygon class="cls-1" points="263.93 200.61 254.22 219.71 223.3 255.77 231.92 237.21 263.93 200.61"/>
          <polygon class="cls-1" points="242.56 218.61 238.24 219.78 243.11 237.7 247.44 236.54 242.56 218.61"/>
          <polygon class="cls-1" points="238.29 219.92 233.9 220.8 237.67 238.99 242.06 238.11 238.29 219.92"/>
          <polygon class="cls-1" points="247.35 236.4 251.74 235.52 247.97 217.33 243.59 218.21 247.35 236.4"/>
        </g>
        <g>
          <path class="cls-1" d="M175.39,261.58c-3.04.89-6.05,1.53-9.13,2-1.53.25-3.1.4-4.65.61-1.55.23-3.04.66-4.4,1.24-2.72,1.17-4.95,2.94-6.39,4.92-.74.99-1.2,2.02-1.66,3.06-.47,1.06-.94,2.12-1.42,3.18-1.9,4.34-3.8,9.2-5.22,15.21-1.42,5.99-2.37,13.15-2.37,21.64l-5.19-.37c0-9,.95-16.62,2.37-23.01,1.42-6.42,3.32-11.64,5.22-16.35.47-1.15.94-2.3,1.42-3.46.46-1.13.92-2.25,1.67-3.33,1.48-2.15,3.8-4.09,6.67-5.39,1.44-.64,3.01-1.12,4.66-1.38,1.65-.24,3.31-.42,4.95-.7,3.28-.53,6.51-1.23,9.77-2.19"/>
          <path class="cls-1" d="M160.24,243.81c-4.18,1.29-7.9,2.72-11.23,4.16-1.66.75-3.28,1.37-4.71,2.3-1.42.94-2.66,2.16-3.59,3.61-.92,1.45-1.64,3.04-1.92,4.82-.29,1.77-.28,3.62.01,5.47.32,1.85.86,3.67,1.3,5.45.48,1.76.95,3.51,1.42,5.25,1.9,6.88,3.8,13.23,5.22,19.44,1.42,6.22,2.37,12.28,2.37,18.96l-5.19-.42c0-7.14-.95-13.6-2.37-20.21-.71-3.3-1.54-6.62-2.43-10.03-.87-3.4-1.88-6.92-2.72-10.48-.43-1.78-.85-3.59-1.23-5.41-.37-1.82-.81-3.67-1.01-5.53-.37-3.72.49-7.47,2.46-10.49.97-1.52,2.24-2.82,3.69-3.85,1.45-1.01,3.1-1.72,4.79-2.56,3.4-1.63,7.22-3.22,11.56-4.67"/>
          <path class="cls-1" d="M155.35,400.63c0-31.92-15.19-47.64-15.19-82.6l-5.19-.08c0,35.13,15.18,50.73,15.18,82.69"/>
          <path class="cls-1" d="M133.94,400.63c0-16.99,3.8-29.68,7.59-42,1.9-6.16,3.8-12.22,5.22-18.68.71-3.23,1.3-6.56,1.72-10.05.21-1.74.37-3.53.48-5.36.06-.92.1-1.84.13-2.78.01-.47.02-.94.03-1.42,0-.45,0-.91.01-1.37l-5.19-.03c0,30.88-15.19,47.73-15.19,81.7"/>
          <path class="cls-1" d="M164.27,301.55c-5.44,1.1-10.88,2.93-16.32,5.48-2.32,2.51-4.64,5.28-6.96,8.32-2.32,3.01-4.64,6.42-6.96,9.68l-13.92,19.72,16.17-13.57c4.67-6.14,9.33-13.02,14-17.76,4.67-4.96,9.33-8.92,14-11.87Z"/>
          <path class="cls-1" d="M121.79,285.3c5.15,7.47,10.38,14.09,15.57,19.82,2.16,3.67,4.32,7.09,6.48,10.26l1.62,2.34.81,1.13.4.56.4.62,3.24,4.98,12.95,19.91-15.38-13.5-6.53-10.25-3.26-5.09c-1.09-1.73-2.18-3.53-3.26-5.39-4.34-7.44-8.73-15.92-13.03-25.39Z"/>
          <polygon class="cls-1" points="133.02 315.82 132.92 320.46 151.5 320.82 151.6 316.85 133.02 315.82"/>
          <polygon class="cls-1" points="133.08 320.45 132.69 324.91 151.2 326.42 151.59 321.96 133.08 320.45"/>
          <path class="cls-1" d="M151.44,316.88l.39-3.7c-6.17-.95-12.34-2-18.51-3.15l-.39,4.64c6.17.85,12.34,1.59,18.52,2.22Z"/>
        </g>
        <g>
          <path class="cls-1" d="M155.35,400.64c0,31.94-15.19,47.59-15.19,82.65h-5.19c0-35.06,15.18-50.71,15.18-82.65"/>
          <path class="cls-1" d="M133.94,400.64c0,33.98,15.18,50.77,15.18,81.73h-5.19c0-30.96-15.19-47.75-15.19-81.73"/>
          <path class="cls-1" d="M155.35,570.69c0-31.94-15.19-47.59-15.19-82.65h-5.19c0,35.06,15.18,50.71,15.18,82.65"/>
          <path class="cls-1" d="M133.94,570.69c0-33.98,15.18-50.77,15.18-81.73h-5.19c0,30.96-15.19,47.75-15.19,81.73"/>
          <polygon class="cls-1" points="164.27 463.64 147.95 475.38 120.1 514.82 136.27 501.26 164.27 463.64"/>
          <polygon class="cls-1" points="121.77 460.48 137.36 475.17 163.26 514.99 147.88 501.49 121.77 460.48"/>
          <polygon class="cls-1" points="133.02 486.05 132.92 490.53 151.5 490.89 151.6 486.42 133.02 486.05"/>
          <polygon class="cls-1" points="133.08 490.52 132.69 494.98 151.2 496.48 151.59 492.03 133.08 490.52"/>
          <polygon class="cls-1" points="151.44 486.46 151.83 482 133.31 480.49 132.93 484.95 151.44 486.46"/>
        </g>
        <g>
          <path class="cls-1" d="M155.35,570.71c0,7.99-.95,14.95-2.37,21.46-.36,1.63-.74,3.22-1.15,4.8-.2.85-.41,1.44-.63,2.11-.22.67-.44,1.33-.66,1.99-.94,2.76-1.86,5.48-2.79,8.23-1.9,5.68-3.8,11.88-5.22,18.89-1.42,6.99-2.37,14.83-2.37,23.31l-5.19,3.3c0-9,.95-17.29,2.37-24.69,1.42-7.42,3.32-13.99,5.22-20.04.93-2.93,1.85-5.83,2.79-8.77.22-.71.44-1.41.66-2.12.21-.71.42-1.37.63-2.2.41-1.58.79-3.18,1.15-4.8,1.42-6.51,2.37-13.47,2.37-21.46"/>
          <path class="cls-1" d="M133.94,570.71c0,8.5.95,15.92,2.37,22.75,1.42,6.89,3.32,13.01,5.22,18.51,1.9,5.54,3.8,10.55,5.22,15.76,1.42,5.22,2.37,10.61,2.37,17.28l-5.19,3.24c0-7.14-.95-12.93-2.37-18.53-1.42-5.59-3.32-10.96-5.22-16.87-.95-2.95-1.9-6.02-2.79-9.29-.44-1.63-.88-3.31-1.28-5.05-.41-1.72-.79-3.34-1.15-5.07-1.42-6.84-2.37-14.26-2.37-22.75"/>
          <path class="cls-1" d="M155.35,711.15c0-6.32-.95-10.35-2.37-13.72-1.42-3.35-3.32-6.02-5.22-9.2-1.9-3.17-3.8-6.85-5.22-11.98-1.42-5.11-2.37-11.68-2.37-20.17l-5.19,3.58c0,9,.95,16.03,2.37,21.55,1.42,5.53,3.32,9.59,5.22,13.12,1.9,3.54,3.8,6.57,5.22,10.31,1.42,3.76,2.37,8.2,2.37,15"/>
          <path class="cls-1" d="M135.08,744.26c-.21-8.34.27-16.8,1.4-25.22.29-2.13.56-4.17.98-6.36.41-2.18.84-4.33,1.28-6.46.89-4.25,1.84-8.4,2.79-12.42,1.9-8.05,3.8-15.58,5.22-22.67,1.42-7.11,2.37-13.75,2.37-20.43l-5.19,3.63c0,7.14-.95,14.19-2.37,21.67-.71,3.74-1.54,7.58-2.43,11.54-.88,3.94-1.87,8.08-2.73,12.18-.88,4.12-1.7,8.29-2.42,12.51-.71,4.19-1.3,8.39-1.74,12.62-.44,4.26-.7,8.36-.8,12.54-.05,2.08-.05,4.16,0,6.24.04,2.04.13,4.08.26,6.12"/>
          <path class="cls-1" d="M164.27,622.6c-5.44,4.94-10.88,10.61-16.32,17-4.64,8.3-9.28,17.64-13.92,28.03-2.32,5.2-4.64,10.65-6.96,16.37-1.16,2.86-2.33,5.79-3.47,8.76-1.12,2.95-2.24,5.96-3.34,9.03,5.19-10.57,10.65-20.58,16.03-29.67,9.33-20.52,18.66-37.03,27.99-49.53Z"/>
          <path class="cls-1" d="M121.77,636.34c5.2,3.81,10.39,6.75,15.59,8.82,8.63,8.57,17.27,13.21,25.9,13.92-5.13,1.95-10.25,3.12-15.38,3.49-8.7-4.67-17.41-13.41-26.11-26.24Z"/>
          <polygon class="cls-1" points="133.02 658.93 132.92 663.69 151.5 650.66 151.6 646.85 133.02 658.93"/>
          <path class="cls-1" d="M133.08,663.57l-.39,4.97c6.17-4.21,12.34-8.54,18.51-12.96l.4-4.04c-6.17,4.12-12.34,8.13-18.52,12.03Z"/>
          <path class="cls-1" d="M151.44,646.99l.39-3.98c-6.17,3.41-12.34,6.72-18.51,9.91l-.39,4.91c6.17-3.51,12.34-7.13,18.52-10.85Z"/>
        </g>
        <g>
          <path class="cls-1" d="M155.35,711.16c.02,6.32-1,13.46-2.32,21.47-.56,4-.33,8.14.57,11.86.91,3.7,2.45,6.95,4.26,9.43.45.67.93,1.14,1.41,1.7.48.53.98.9,1.48,1.36.49.33,1.01.7,1.5.95l.74.32.38.15.35.08c.46.09.97.22,1.37.15.44-.02.88-.06,1.29-.18.85-.21,1.75-.5,2.72-.88,3.86-1.54,8.8-4.67,15.13-10.32l-2.17,8.03c-3.3,2.85-6.26,5.18-8.99,7.21-1.36,1.01-2.67,1.95-3.91,2.82-.62.43-1.23.85-1.83,1.26-.3.2-.6.4-.89.6l-.44.29c-.14.09-.27.13-.4.19-1.04.45-2.02.81-2.94,1.09-.45.15-.93.23-1.4.28-.44.1-.99,0-1.5-.08l-.38-.06-.41-.14-.81-.3c-.54-.24-1.1-.6-1.64-.92-.55-.45-1.09-.82-1.62-1.35-.53-.56-1.06-1.03-1.55-1.71-2-2.51-3.7-5.86-4.73-9.69-1.02-3.85-1.33-8.18-.78-12.37.59-4.19,1.27-8.19,1.66-11.98.42-3.79.65-7.37.65-10.77"/>
          <path class="cls-1" d="M135.08,744.27c.1,4.18.35,7.86.65,11.15.15,1.65.32,3.21.5,4.69.09.74.18,1.46.27,2.18.1.71.3,1.4.44,2.09.29.66.51,1.33.89,1.93l.6.89.15.22c.06.05.13.09.21.13l.46.24.91.45,1.05.32c.67.24,1.5.31,2.26.41,3.18.33,7.01-.5,10.71-2.2,3.72-1.72,7.4-4.38,10.41-7.78.73-.88,1.46-1.73,2.16-2.62.68-.88,1.36-1.77,2.04-2.66,1.31-1.68,2.64-3.38,3.99-5.1,5.25-6.59,10.17-12.26,15.15-16.7l-2.52,9.21c-5.32,4.75-10.55,10.69-16.09,17.54-1.38,1.71-2.78,3.48-4.2,5.29-.72.92-1.43,1.84-2.14,2.75-.73.91-1.51,1.79-2.27,2.7-.8.85-1.66,1.64-2.49,2.48-.89.71-1.77,1.49-2.7,2.16l-1.41.95-.7.47c-.21.08-.43.14-.64.21-.86.26-1.72.57-2.58.68-3.43.63-6.91.31-9.74-1.01-2.84-1.29-5.08-3.49-6.09-6.1-.17-.65-.4-1.32-.53-2-.12-.69-.24-1.39-.36-2.1-.24-1.43-.47-2.93-.69-4.52-.44-3.17-.84-6.78-1.1-10.85"/>
          <path class="cls-1" d="M243.22,674.24c-4.72,4.21-8.63,8.97-12.5,14.33-3.86,5.35-7.65,11.28-11.83,17.56-4.17,6.27-8.73,12.88-13.91,19.41-5.17,6.52-10.98,12.98-17.31,18.63l-2.02,8c6.59-5.68,12.63-11.92,18.08-18.56,5.48-6.8,10.32-13.66,14.76-20.17,4.45-6.52,8.52-12.69,12.66-18.3,4.16-5.62,8.38-10.66,13.45-15.18"/>
          <path class="cls-1" d="M248.93,697.84c-6.59,5.88-12.54,9.92-17.79,12.69-5.26,2.79-9.84,4.33-14.03,5.53-4.2,1.2-8.01,2.06-11.94,3.67-3.95,1.61-8,3.96-12.98,8.4l-2.23,8.95c5.32-4.75,9.68-7.37,13.91-9.23,4.22-1.86,8.3-2.94,12.77-4.41,4.46-1.44,9.32-3.2,14.88-6.27,5.55-3.05,11.83-7.38,18.79-13.59"/>
          <path class="cls-1" d="M185.65,713.67c-1.5,8.63-2.45,16.77-2.86,24.43.88,2.32,1.96,4.47,3.24,6.44.64.99,1.32,1.93,2.06,2.83.17.28.41.31.62.44l.65.34,1.33.72c3.62,1.94,7.59,4.5,12.37,6.85-1.42-2.4-2.71-4.76-3.89-7.08-1.17-2.34-2.2-4.67-3.17-6.87l-.64-.42c-.2-.17-.39-.42-.58-.64-.38-.44-.74-.9-1.1-1.36-.71-.93-1.37-1.9-1.99-2.92-1.23-2.03-2.28-4.22-3.13-6.58-1.71-4.72-2.68-10.11-2.9-16.17Z"/>
          <path class="cls-1" d="M160.09,784.17c2.77-4.06,5.59-8.31,8.4-12.75,1.4-2.21,2.8-4.47,4.18-6.76l2.08-3.47,1.04-1.76.52-.88.26-.44.13-.23.15-.3c14.62-24.62,26.31-46.62,35.06-66.01-3.43,9.93-7.44,20.38-12.05,31.37-2.94,5.54-6.08,11.26-9.4,17.14l-5.13,8.95-1.33,2.28-1.24,1.91-2.49,3.73c-3.32,4.92-6.67,9.66-10.05,14.2-3.38,4.54-6.82,8.92-10.14,13.02Z"/>
          <polygon class="cls-1" points="183.51 755.97 186.87 753.25 194.42 722.95 191.67 725.27 183.51 755.97"/>
          <polygon class="cls-1" points="186.92 753.05 190.18 750.73 191.87 744.23 193.88 736.24 197.8 720.34 195.16 722.16 190.89 738.38 188.71 746.53 186.92 753.05"/>
          <polygon class="cls-1" points="191.63 725.52 189.03 727.32 183.97 744.25 181.39 752.75 179.39 759.14 182.64 756.79 184.51 750.48 186.91 742.14 191.63 725.52"/>
        </g>
        <g>
          <path class="cls-1" d="M243.23,674.24c4.72-4.21,9.13-6.88,13.76-9.1,4.62-2.21,9.43-3.96,14.62-6.05,5-1.92,11.23-4.93,17.27-8.41,6.09-3.53,12.36-7.85,18.9-13.69l3.45,3.87c-6.54,5.84-12.8,10.16-18.9,13.69-6.05,3.49-12.17,6.41-17.56,8.68-5.46,2.33-10.54,4.32-15.45,6.79-4.92,2.48-9.64,5.43-14.71,9.95"/>
          <path class="cls-1" d="M248.94,697.83c6.59-5.88,12.03-12.01,16.52-17.92,4.5-5.93,8.07-11.65,11.25-17.03.78-1.33,1.55-2.65,2.33-3.98.84-1.36,1.68-2.72,2.52-4.09,1.72-2.72,3.5-5.43,5.43-8.11,3.87-5.36,8.35-10.64,14.13-15.79l3.45,3.87c-11.57,10.32-17.89,21.06-24.63,32.16-3.45,5.62-7.29,11.6-12.1,17.8-4.79,6.19-10.57,12.61-17.53,18.82"/>
          <path class="cls-1" d="M362.87,567.46c-23.83,21.27-25.39,43.02-51.55,66.36l3.45,3.87c26.15-23.34,27.72-45.09,51.55-66.36"/>
          <path class="cls-1" d="M377.13,583.43c-25.35,22.63-47.99,22.48-71.09,43.1l3.45,3.87c23.1-20.62,45.74-20.47,71.09-43.09"/>
          <polygon class="cls-1" points="277.06 632.08 296.69 636.44 344.66 630.95 323.77 627.92 277.06 632.08"/>
          <polygon class="cls-1" points="303.01 665.89 303.58 644.48 316.04 598.64 316.22 619.11 303.01 665.89"/>
          <polygon class="cls-1" points="314.59 640.47 317.99 637.57 305.9 623.46 302.49 626.37 314.59 640.47"/>
          <polygon class="cls-1" points="317.88 637.46 321.47 634.78 310.27 619.96 306.68 622.64 317.88 637.46"/>
          <polygon class="cls-1" points="302.63 626.45 299.04 629.14 310.25 643.95 313.83 641.27 302.63 626.45"/>
        </g>
        <g>
          <path class="cls-1" d="M362.88,567.45c23.83-21.27,45.62-20.36,71.78-43.7l3.45,3.87c-26.16,23.34-47.94,22.44-71.77,43.71"/>
          <path class="cls-1" d="M377.14,583.42c25.35-22.63,27.77-45.13,50.87-65.75l3.45,3.87c-23.1,20.62-25.52,43.13-50.87,65.76"/>
          <path class="cls-1" d="M489.76,454.21c-23.83,21.27-25.39,43.02-51.55,66.36l3.45,3.87c26.15-23.34,27.72-45.09,51.55-66.36"/>
          <path class="cls-1" d="M504.01,470.19c-25.35,22.63-47.99,22.48-71.09,43.1l3.45,3.87c23.1-20.62,45.74-20.47,71.09-43.09"/>
          <polygon class="cls-1" points="403.95 518.84 423.57 523.2 471.54 517.71 450.65 514.68 403.95 518.84"/>
          <polygon class="cls-1" points="429.89 552.65 430.47 531.24 442.93 485.4 443.1 505.86 429.89 552.65"/>
          <polygon class="cls-1" points="441.48 527.23 444.88 524.32 432.78 510.22 429.38 513.12 441.48 527.23"/>
          <polygon class="cls-1" points="444.77 524.21 448.35 521.53 437.15 506.72 433.56 509.4 444.77 524.21"/>
          <polygon class="cls-1" points="429.51 513.21 425.93 515.9 437.13 530.71 440.72 528.03 429.51 513.21"/>
        </g>
        <g>
          <path class="cls-1" d="M489.77,454.21c23.83-21.27,45.62-20.36,71.78-43.7l3.45,3.87c-26.16,23.34-47.94,22.44-71.77,43.71"/>
          <path class="cls-1" d="M504.02,470.18c25.35-22.63,27.77-45.13,50.87-65.75l3.45,3.87c-23.1,20.62-25.52,43.13-50.87,65.76"/>
          <path class="cls-1" d="M616.64,340.97c-23.83,21.27-25.39,43.02-51.55,66.36l3.45,3.87c26.15-23.34,27.72-45.09,51.55-66.36"/>
          <path class="cls-1" d="M630.9,356.95c-25.35,22.63-47.99,22.48-71.09,43.1l3.45,3.87c23.1-20.62,45.74-20.47,71.09-43.09"/>
          <polygon class="cls-1" points="530.83 405.6 550.46 409.96 598.43 404.47 577.54 401.44 530.83 405.6"/>
          <polygon class="cls-1" points="556.78 439.41 557.35 418 569.81 372.16 569.99 392.62 556.78 439.41"/>
          <polygon class="cls-1" points="568.36 413.99 571.76 411.08 559.67 396.98 556.26 399.88 568.36 413.99"/>
          <polygon class="cls-1" points="571.65 410.97 575.24 408.29 564.04 393.48 560.45 396.16 571.65 410.97"/>
          <polygon class="cls-1" points="556.4 399.97 552.81 402.65 564.02 417.47 567.6 414.79 556.4 399.97"/>
        </g>
        <g>
          <path class="cls-1" d="M616.65,340.97c23.83-21.27,45.62-20.36,71.78-43.7l3.45,3.87c-26.16,23.34-47.94,22.44-71.77,43.71"/>
          <path class="cls-1" d="M630.91,356.94c25.35-22.63,27.77-45.13,50.87-65.75l3.45,3.87c-23.1,20.62-25.52,43.13-50.87,65.76"/>
          <path class="cls-1" d="M743.53,227.73c-23.83,21.27-25.39,43.02-51.55,66.36l3.45,3.87c26.15-23.34,27.72-45.09,51.55-66.36"/>
          <path class="cls-1" d="M757.78,243.7c-25.35,22.63-47.99,22.48-71.09,43.1l3.45,3.87c23.1-20.62,45.74-20.47,71.09-43.09"/>
          <polygon class="cls-1" points="657.71 292.36 677.34 296.72 725.31 291.23 704.42 288.2 657.71 292.36"/>
          <polygon class="cls-1" points="683.66 326.17 684.23 304.76 696.7 258.92 696.87 279.38 683.66 326.17"/>
          <polygon class="cls-1" points="695.24 300.75 698.65 297.84 686.55 283.74 683.15 286.64 695.24 300.75"/>
          <polygon class="cls-1" points="698.54 297.73 702.12 295.05 690.92 280.24 687.33 282.91 698.54 297.73"/>
          <polygon class="cls-1" points="683.28 286.73 679.7 289.41 690.9 304.23 694.49 301.55 683.28 286.73"/>
        </g>
        <g>
          <path class="cls-1" d="M743.54,227.72c23.83-21.27,45.62-20.36,71.78-43.7l3.45,3.87c-26.16,23.34-47.94,22.44-71.77,43.71"/>
          <path class="cls-1" d="M757.79,243.7c25.35-22.63,27.77-45.13,50.87-65.75l3.45,3.87c-23.1,20.62-25.52,43.13-50.87,65.76"/>
          <path class="cls-1" d="M870.41,114.49c-23.83,21.27-25.39,43.02-51.55,66.36l3.45,3.87c26.15-23.34,27.72-45.09,51.55-66.36"/>
          <path class="cls-1" d="M884.67,130.46c-25.35,22.63-47.99,22.48-71.09,43.1l3.45,3.87c23.1-20.62,45.74-20.47,71.09-43.09"/>
          <polygon class="cls-1" points="784.6 179.12 804.23 183.48 852.2 177.99 831.31 174.95 784.6 179.12"/>
          <polygon class="cls-1" points="810.55 212.93 811.12 191.52 823.58 145.68 823.76 166.14 810.55 212.93"/>
          <polygon class="cls-1" points="822.13 187.5 825.53 184.6 813.44 170.5 810.03 173.4 822.13 187.5"/>
          <polygon class="cls-1" points="825.42 184.49 829.01 181.81 817.81 167 814.22 169.67 825.42 184.49"/>
          <polygon class="cls-1" points="810.17 173.49 806.58 176.17 817.79 190.99 821.37 188.31 810.17 173.49"/>
        </g>
        <g>
          <path class="cls-1" d="M870.42,114.48c23.83-21.27,45.62-20.36,71.78-43.7l3.45,3.87c-26.16,23.34-47.94,22.44-71.77,43.71"/>
          <path class="cls-1" d="M884.68,130.46c25.35-22.63,27.77-45.13,50.87-65.75l3.45,3.87c-23.1,20.62-25.52,43.13-50.87,65.76"/>
          <path class="cls-1" d="M997.3,1.25c-23.83,21.27-25.39,43.02-51.55,66.36l3.45,3.87c26.15-23.34,27.72-45.09,51.55-66.36"/>
          <path class="cls-1" d="M1011.55,17.22c-25.35,22.63-47.99,22.48-71.09,43.1l3.45,3.87c23.1-20.62,45.74-20.47,71.09-43.09"/>
          <polygon class="cls-1" points="911.48 65.88 931.11 70.24 979.08 64.75 958.19 61.71 911.48 65.88"/>
          <polygon class="cls-1" points="937.43 99.69 938 78.28 950.47 32.44 950.64 52.9 937.43 99.69"/>
          <polygon class="cls-1" points="949.01 74.26 952.42 71.36 940.32 57.26 936.92 60.16 949.01 74.26"/>
          <polygon class="cls-1" points="952.31 71.25 955.89 68.57 944.69 53.76 941.1 56.43 952.31 71.25"/>
          <polygon class="cls-1" points="937.05 60.25 933.47 62.93 944.67 77.75 948.26 75.07 937.05 60.25"/>
        </g>
      </g>
      <g>
        <g>
          <path class="cls-1" d="M1.25,512.42c28.62,0,42.64,15.19,74.06,15.19v5.19c-31.41,0-45.43-15.18-74.06-15.18"/>
          <path class="cls-1" d="M1.25,533.83c30.45,0,45.49-15.18,73.24-15.18v5.19c-27.74,0-42.79,15.19-73.24,15.19"/>
          <path class="cls-1" d="M153.63,512.42c-28.62,0-42.65,15.19-74.06,15.19v5.19c31.41,0,45.43-15.18,74.06-15.18"/>
          <path class="cls-1" d="M153.63,533.83c-30.45,0-45.49-15.18-73.24-15.18v5.19c27.74,0,42.79,15.19,73.24,15.19"/>
          <polygon class="cls-1" points="57.7 503.5 68.22 519.82 103.57 547.67 91.41 531.5 57.7 503.5"/>
          <polygon class="cls-1" points="54.88 546 68.03 530.41 103.71 504.51 91.62 519.89 54.88 546"/>
          <polygon class="cls-1" points="77.79 534.75 81.8 534.85 82.12 516.27 78.12 516.17 77.79 534.75"/>
          <polygon class="cls-1" points="81.79 534.69 85.78 535.08 87.13 516.57 83.14 516.18 81.79 534.69"/>
          <polygon class="cls-1" points="78.15 516.33 74.16 515.94 72.81 534.45 76.8 534.84 78.15 516.33"/>
        </g>
        <g>
          <path class="cls-1" d="M153.64,512.42c28.62,0,42.64,15.19,74.06,15.19v5.19c-31.41,0-45.43-15.18-74.06-15.18"/>
          <path class="cls-1" d="M153.64,533.83c30.45,0,45.49-15.18,73.24-15.18v5.19c-27.74,0-42.79,15.19-73.24,15.19"/>
          <path class="cls-1" d="M306.02,512.42c-28.62,0-42.65,15.19-74.06,15.19v5.19c31.41,0,45.43-15.18,74.06-15.18"/>
          <path class="cls-1" d="M306.02,533.83c-30.45,0-45.49-15.18-73.24-15.18v5.19c27.74,0,42.79,15.19,73.24,15.19"/>
          <polygon class="cls-1" points="210.09 503.5 220.61 519.82 255.96 547.67 243.8 531.5 210.09 503.5"/>
          <polygon class="cls-1" points="207.27 546 220.42 530.41 256.1 504.51 244.01 519.89 207.27 546"/>
          <polygon class="cls-1" points="230.18 534.75 234.19 534.85 234.51 516.27 230.51 516.17 230.18 534.75"/>
          <polygon class="cls-1" points="234.18 534.69 238.17 535.08 239.52 516.57 235.53 516.18 234.18 534.69"/>
          <polygon class="cls-1" points="230.54 516.33 226.55 515.94 225.2 534.45 229.19 534.84 230.54 516.33"/>
        </g>
      </g>
      <g>
        <g>
          <path class="cls-1" d="M1053.27,344.07c-.03,11.49-3.41,21.4-8.23,29.2-4.86,7.84-11.11,13.74-17.86,18.35-6.81,4.59-14.19,7.92-22.21,10.46-8.05,2.49-16.77,4.25-26.92,4.71l-.23-5.18c9.31-.43,17.31-1.96,24.77-4.15,7.43-2.23,14.34-5.19,20.75-9.35,6.36-4.18,12.28-9.58,16.9-16.85,4.58-7.23,7.8-16.46,7.82-27.2"/>
          <path class="cls-1" d="M1031.87,344.07c-.05,8.88-1.04,16.66-2.76,24.05-1.76,7.35-4.25,14.34-8.02,20.88-3.76,6.51-8.77,12.64-15.61,17.56-6.81,4.86-15.56,8.5-25.82,9.13l-.31-5.18c9.53-.58,17.62-4.02,23.87-8.62,6.28-4.64,10.82-10.43,14.17-16.52,3.36-6.12,5.5-12.61,6.98-19.36,1.46-6.79,2.26-13.85,2.31-21.93"/>
          <path class="cls-1" d="M897.31,344.09c.03,11.49,3.41,21.4,8.23,29.2,4.87,7.84,11.11,13.74,17.87,18.35,6.81,4.59,14.19,7.92,22.21,10.45,8.05,2.49,16.77,4.24,26.92,4.71l.22-5.18c-9.31-.43-17.31-1.95-24.77-4.14-7.43-2.23-14.34-5.18-20.75-9.34-6.36-4.18-12.28-9.58-16.91-16.84-4.58-7.23-7.8-16.46-7.83-27.2"/>
          <path class="cls-1" d="M918.72,344.08c.05,8.88,1.04,16.66,2.77,24.05,1.76,7.35,4.25,14.34,8.02,20.88,3.76,6.51,8.77,12.64,15.62,17.56,6.81,4.86,15.56,8.49,25.82,9.12l.31-5.18c-9.53-.58-17.62-4.02-23.88-8.61-6.28-4.64-10.82-10.43-14.17-16.52-3.36-6.12-5.5-12.61-6.99-19.36-1.46-6.79-2.26-13.85-2.31-21.93"/>
          <path class="cls-1" d="M1009.71,423.88c-7.93-2.48-15.05-6.11-21.09-10.5-9.3-2.92-17.18-7.77-23.15-13.52-5.99-5.76-10.03-12.43-12.08-19.1.3,6.42,1.97,13.26,5.17,19.79,5.21,6.45,12.38,12.09,21.06,16.28,8.68,4.18,18.97,6.73,30.09,7.03Z"/>
          <path class="cls-1" d="M995.2,383.76c-.29,1.65-.73,3.2-1.21,4.86-.52,1.58-1.09,3.26-1.8,4.84-1.38,3.25-3.17,6.39-5.33,9.48-6.39,5.68-14.61,10.24-24.17,12.97-9.55,2.73-20.45,3.51-31.7,1.76,8.78-.73,16.89-2.82,23.98-6.07,9.8-1.58,18.43-5.33,25.28-10.3,6.87-4.96,11.91-11.14,14.94-17.54Z"/>
          <path class="cls-1" d="M974.9,399.72l-2.3-.11-2.29-.22c-.67,6.16-1.39,12.31-2.14,18.46l3.05.28c1.02.07,2.03.1,3.05.14.25-6.19.46-12.38.63-18.56Z"/>
          <path class="cls-1" d="M970.3,399.55c-.76-.1-1.51-.29-2.26-.45-.75-.15-1.49-.32-2.23-.53-1.55,5.99-3.28,11.95-5.17,17.87l2.96.73c.99.23,2,.4,3,.6,1.4-6.04,2.63-12.11,3.69-18.23Z"/>
          <path class="cls-1" d="M974.21,418.13c1.01.11,2.03.13,3.05.17,1.02.04,2.04.08,3.06.05.28-6.21.38-12.41.32-18.59l-2.31-.02-2.3-.13c-.44,6.19-1.04,12.36-1.82,18.51Z"/>
        </g>
        <g>
          <path class="cls-1" d="M897.31,344.07c.03-11.49,3.41-21.4,8.23-29.2,4.86-7.84,11.11-13.74,17.86-18.35,6.81-4.59,14.19-7.92,22.21-10.46,8.05-2.49,16.77-4.25,26.92-4.71l.22,5.18c-9.31.43-17.31,1.96-24.77,4.15-7.43,2.23-14.34,5.19-20.75,9.35-6.36,4.18-12.28,9.58-16.9,16.85-4.58,7.23-7.8,16.46-7.82,27.2"/>
          <path class="cls-1" d="M918.72,344.07c.05-8.88,1.04-16.66,2.76-24.05,1.76-7.35,4.25-14.34,8.02-20.88,3.76-6.51,8.77-12.64,15.61-17.56,6.81-4.86,15.56-8.5,25.82-9.13l.31,5.18c-9.53.58-17.62,4.02-23.87,8.62-6.28,4.64-10.82,10.43-14.17,16.52-3.36,6.12-5.5,12.61-6.98,19.36-1.46,6.79-2.26,13.85-2.31,21.93"/>
          <path class="cls-1" d="M1053.27,344.06c-.03-11.49-3.41-21.4-8.23-29.2-4.87-7.84-11.11-13.74-17.87-18.35-6.81-4.59-14.19-7.92-22.21-10.45-8.05-2.49-16.77-4.24-26.92-4.71l-.22,5.18c9.31.43,17.31,1.95,24.77,4.14,7.43,2.23,14.34,5.18,20.75,9.34,6.36,4.18,12.28,9.58,16.91,16.84,4.58,7.23,7.8,16.46,7.83,27.2"/>
          <path class="cls-1" d="M1031.86,344.06c-.05-8.88-1.04-16.66-2.76-24.05-1.76-7.35-4.25-14.34-8.02-20.88-3.76-6.51-8.77-12.64-15.62-17.56-6.81-4.86-15.56-8.49-25.82-9.12l-.31,5.18c9.53.58,17.62,4.02,23.88,8.61,6.28,4.64,10.82,10.43,14.17,16.52,3.36,6.12,5.5,12.61,6.99,19.36,1.46,6.79,2.26,13.85,2.31,21.93"/>
          <path class="cls-1" d="M940.87,264.27c7.93,2.48,15.05,6.11,21.09,10.5,9.3,2.92,17.17,7.77,23.15,13.52,5.99,5.76,10.03,12.43,12.08,19.1-.3-6.42-1.97-13.26-5.17-19.79-5.21-6.45-12.38-12.09-21.06-16.28-8.68-4.18-18.97-6.73-30.09-7.03Z"/>
          <path class="cls-1" d="M955.38,304.38c.29-1.65.73-3.2,1.21-4.86.52-1.58,1.09-3.26,1.8-4.84,1.38-3.25,3.17-6.39,5.33-9.48,6.39-5.68,14.61-10.24,24.17-12.97,9.55-2.73,20.45-3.51,31.7-1.76-8.78.73-16.88,2.82-23.98,6.07-9.8,1.58-18.43,5.33-25.28,10.3-6.87,4.96-11.91,11.14-14.94,17.54Z"/>
          <path class="cls-1" d="M975.69,288.42l2.3.11,2.29.22c.67-6.16,1.39-12.31,2.14-18.46l-3.05-.28c-1.02-.07-2.03-.1-3.05-.14-.25,6.19-.46,12.38-.63,18.56Z"/>
          <path class="cls-1" d="M980.28,288.59c.76.1,1.51.29,2.26.45.75.15,1.49.32,2.23.53,1.55-5.99,3.28-11.95,5.17-17.87l-2.96-.73c-.99-.23-2-.4-3-.6-1.4,6.04-2.63,12.11-3.69,18.23Z"/>
          <path class="cls-1" d="M976.37,270.02c-1.01-.11-2.03-.13-3.05-.17-1.02-.04-2.04-.08-3.06-.05-.28,6.21-.38,12.41-.32,18.59l2.31.02,2.3.13c.44-6.19,1.04-12.36,1.82-18.51Z"/>
        </g>
      </g>
    </g>
  </g>
</svg>