<?xml version="1.0" encoding="UTF-8"?>
<svg id="Layer_2" data-name="Layer 2" xmlns="http://www.w3.org/2000/svg" viewBox="0 0 946.84 336.26">
  <defs>
    <style>
      .cls-1 {
        fill: #bfbfbf;
        stroke: #000;
        stroke-linecap: round;
        stroke-width: 2.5px;
      }
    </style>
  </defs>
  <g id="Layer_2-2" data-name="Layer 2">
    <g>
      <g>
        <g>
          <path class="cls-1" d="M1.25,9.87c27.63,0,41.17,15.19,71.5,15.19v5.19C42.42,30.25,28.88,15.06,1.25,15.06"/>
          <path class="cls-1" d="M1.25,31.28c29.4,0,43.92-15.18,70.71-15.18v5.19c-26.78,0-41.31,15.19-70.71,15.19"/>
          <path class="cls-1" d="M148.36,9.87c-27.63,0-41.17,15.19-71.5,15.19v5.19c30.33,0,43.86-15.18,71.5-15.18"/>
          <path class="cls-1" d="M148.36,31.28c-29.4,0-43.92-15.18-70.71-15.18v5.19c26.78,0,41.31,15.19,70.71,15.19"/>
          <polygon class="cls-1" points="55.75 .95 65.91 17.27 100.03 45.12 88.29 28.94 55.75 .95"/>
          <polygon class="cls-1" points="53.02 43.45 65.72 27.86 100.17 1.96 88.5 17.34 53.02 43.45"/>
          <polygon class="cls-1" points="75.14 32.19 79.01 32.29 79.33 13.72 75.46 13.62 75.14 32.19"/>
          <polygon class="cls-1" points="79 32.14 82.86 32.52 84.16 14.02 80.31 13.62 79 32.14"/>
          <polygon class="cls-1" points="75.5 13.77 71.64 13.39 70.33 31.9 74.19 32.29 75.5 13.77"/>
        </g>
        <g>
          <path class="cls-1" d="M148.37,9.87c27.63,0,41.17,15.19,71.5,15.19v5.19c-30.33,0-43.86-15.18-71.5-15.18"/>
          <path class="cls-1" d="M148.37,31.28c29.4,0,43.92-15.18,70.71-15.18v5.19c-26.78,0-41.31,15.19-70.71,15.19"/>
          <path class="cls-1" d="M295.48,9.87c-27.63,0-41.17,15.19-71.5,15.19v5.19c30.33,0,43.86-15.18,71.5-15.18"/>
          <path class="cls-1" d="M295.48,31.28c-29.4,0-43.92-15.18-70.71-15.18v5.19c26.78,0,41.31,15.19,70.71,15.19"/>
          <polygon class="cls-1" points="202.87 .95 213.03 17.27 247.15 45.12 235.42 28.94 202.87 .95"/>
          <polygon class="cls-1" points="200.14 43.45 212.84 27.86 247.29 1.96 235.62 17.34 200.14 43.45"/>
          <polygon class="cls-1" points="222.26 32.19 226.13 32.29 226.45 13.72 222.58 13.62 222.26 32.19"/>
          <polygon class="cls-1" points="226.12 32.14 229.98 32.52 231.29 14.02 227.43 13.62 226.12 32.14"/>
          <polygon class="cls-1" points="222.62 13.77 218.76 13.39 217.45 31.9 221.31 32.29 222.62 13.77"/>
        </g>
        <g>
          <path class="cls-1" d="M295.49,9.87c27.63,0,41.17,15.19,71.5,15.19v5.19c-30.33,0-43.86-15.18-71.5-15.18"/>
          <path class="cls-1" d="M295.49,31.28c29.4,0,43.92-15.18,70.71-15.18v5.19c-26.78,0-41.31,15.19-70.71,15.19"/>
          <path class="cls-1" d="M442.6,9.87c-27.63,0-41.17,15.19-71.5,15.19v5.19c30.33,0,43.86-15.18,71.5-15.18"/>
          <path class="cls-1" d="M442.6,31.28c-29.4,0-43.92-15.18-70.71-15.18v5.19c26.78,0,41.31,15.19,70.71,15.19"/>
          <polygon class="cls-1" points="349.99 .95 360.15 17.27 394.27 45.12 382.54 28.94 349.99 .95"/>
          <polygon class="cls-1" points="347.26 43.45 359.97 27.86 394.41 1.96 382.74 17.34 347.26 43.45"/>
          <polygon class="cls-1" points="369.38 32.19 373.25 32.29 373.57 13.72 369.7 13.62 369.38 32.19"/>
          <polygon class="cls-1" points="373.25 32.14 377.1 32.52 378.41 14.02 374.55 13.62 373.25 32.14"/>
          <polygon class="cls-1" points="369.74 13.77 365.88 13.39 364.57 31.9 368.43 32.29 369.74 13.77"/>
        </g>
      </g>
      <g>
        <g>
          <path class="cls-1" d="M221.93,299.98c33.98,0,50.63,15.19,87.92,15.19v5.19c-37.29,0-53.94-15.18-87.92-15.18"/>
          <path class="cls-1" d="M221.93,321.38c36.15,0,54.01-15.18,86.95-15.18v5.19c-32.94,0-50.8,15.19-86.95,15.19"/>
          <path class="cls-1" d="M402.84,299.98c-33.98,0-50.63,15.19-87.92,15.19v5.19c37.29,0,53.94-15.18,87.92-15.18"/>
          <path class="cls-1" d="M402.84,321.38c-36.15,0-54.01-15.18-86.95-15.18v5.19c32.94,0,50.8,15.19,86.95,15.19"/>
          <polygon class="cls-1" points="288.95 291.05 301.44 307.38 343.4 335.22 328.97 319.05 288.95 291.05"/>
          <polygon class="cls-1" points="285.6 333.55 301.22 317.96 343.58 292.06 329.22 307.44 285.6 333.55"/>
          <rect class="cls-1" x="306.08" y="310.68" width="18.58" height="4.76" transform="translate(-4.25 621.78) rotate(-88.79)"/>
          <polygon class="cls-1" points="317.55 322.24 322.29 322.63 323.89 304.12 319.15 303.73 317.55 322.24"/>
          <polygon class="cls-1" points="313.23 303.88 308.49 303.49 306.88 322.01 311.63 322.39 313.23 303.88"/>
        </g>
        <g>
          <path class="cls-1" d="M402.85,299.98c33.98,0,50.63,15.19,87.92,15.19v5.19c-37.29,0-53.94-15.18-87.92-15.18"/>
          <path class="cls-1" d="M402.85,321.38c36.15,0,54.01-15.18,86.95-15.18v5.19c-32.94,0-50.8,15.19-86.95,15.19"/>
          <path class="cls-1" d="M583.75,299.98c-33.98,0-50.63,15.19-87.92,15.19v5.19c37.29,0,53.94-15.18,87.92-15.18"/>
          <path class="cls-1" d="M583.75,321.38c-36.15,0-54.01-15.18-86.95-15.18v5.19c32.94,0,50.8,15.19,86.95,15.19"/>
          <polygon class="cls-1" points="469.87 291.05 482.36 307.38 524.32 335.22 509.89 319.05 469.87 291.05"/>
          <polygon class="cls-1" points="466.51 333.55 482.13 317.96 524.49 292.06 510.14 307.44 466.51 333.55"/>
          <rect class="cls-1" x="487" y="310.68" width="18.58" height="4.76" transform="translate(172.86 802.66) rotate(-88.79)"/>
          <polygon class="cls-1" points="498.46 322.24 503.21 322.63 504.81 304.12 500.07 303.73 498.46 322.24"/>
          <polygon class="cls-1" points="494.15 303.88 489.4 303.49 487.8 322.01 492.54 322.39 494.15 303.88"/>
        </g>
        <g>
          <path class="cls-1" d="M583.77,299.98c33.98,0,50.63,15.19,87.92,15.19v5.19c-37.29,0-53.94-15.18-87.92-15.18"/>
          <path class="cls-1" d="M583.77,321.38c36.15,0,54.01-15.18,86.95-15.18v5.19c-32.94,0-50.8,15.19-86.95,15.19"/>
          <path class="cls-1" d="M764.67,299.98c-33.98,0-50.63,15.19-87.92,15.19v5.19c37.29,0,53.94-15.18,87.92-15.18"/>
          <path class="cls-1" d="M764.67,321.38c-36.15,0-54.01-15.18-86.95-15.18v5.19c32.94,0,50.8,15.19,86.95,15.19"/>
          <polygon class="cls-1" points="650.78 291.05 663.28 307.38 705.24 335.22 690.81 319.05 650.78 291.05"/>
          <polygon class="cls-1" points="647.43 333.55 663.05 317.96 705.41 292.06 691.06 307.44 647.43 333.55"/>
          <rect class="cls-1" x="667.92" y="310.68" width="18.58" height="4.76" transform="translate(349.97 983.53) rotate(-88.79)"/>
          <polygon class="cls-1" points="679.38 322.24 684.12 322.63 685.73 304.12 680.98 303.73 679.38 322.24"/>
          <polygon class="cls-1" points="675.07 303.88 670.32 303.49 668.72 322.01 673.46 322.39 675.07 303.88"/>
        </g>
        <g>
          <path class="cls-1" d="M764.68,299.98c33.98,0,50.63,15.19,87.92,15.19v5.19c-37.29,0-53.94-15.18-87.92-15.18"/>
          <path class="cls-1" d="M764.68,321.38c36.15,0,54.01-15.18,86.95-15.18v5.19c-32.94,0-50.8,15.19-86.95,15.19"/>
          <path class="cls-1" d="M945.59,299.98c-33.98,0-50.63,15.19-87.92,15.19v5.19c37.29,0,53.94-15.18,87.92-15.18"/>
          <path class="cls-1" d="M945.59,321.38c-36.15,0-54.01-15.18-86.95-15.18v5.19c32.94,0,50.8,15.19,86.95,15.19"/>
          <polygon class="cls-1" points="831.7 291.05 844.19 307.38 886.15 335.22 871.72 319.05 831.7 291.05"/>
          <polygon class="cls-1" points="828.35 333.55 843.97 317.96 886.33 292.06 871.97 307.44 828.35 333.55"/>
          <rect class="cls-1" x="848.83" y="310.68" width="18.58" height="4.76" transform="translate(527.08 1164.41) rotate(-88.79)"/>
          <polygon class="cls-1" points="860.3 322.24 865.04 322.63 866.64 304.12 861.9 303.73 860.3 322.24"/>
          <polygon class="cls-1" points="855.98 303.88 851.24 303.49 849.63 322.01 854.38 322.39 855.98 303.88"/>
        </g>
      </g>
    </g>
  </g>
</svg>