<?xml version="1.0" encoding="UTF-8"?>
<svg id="Layer_2" data-name="Layer 2" xmlns="http://www.w3.org/2000/svg" viewBox="0 0 946.84 336.27">
  <defs>
    <style>
      .cls-1 {
        fill: #bfbfbf;
        stroke: #000;
        stroke-linecap: round;
        stroke-width: 2.5px;
      }
    </style>
  </defs>
  <g id="Layer_2-2" data-name="Layer 2">
    <g>
      <g>
        <g>
          <path class="cls-1" d="M945.59,36.21c-27.63,0-41.17-15.19-71.5-15.19v-5.19c30.33,0,43.86,15.18,71.5,15.18"/>
          <path class="cls-1" d="M945.59,14.81c-29.4,0-43.92,15.18-70.71,15.18v-5.19c26.78,0,41.31-15.19,70.71-15.19"/>
          <path class="cls-1" d="M798.48,36.21c27.63,0,41.17-15.19,71.5-15.19v-5.19c-30.33,0-43.86,15.18-71.5,15.18"/>
          <path class="cls-1" d="M798.48,14.81c29.4,0,43.92,15.18,70.71,15.18v-5.19c-26.78,0-41.31-15.19-70.71-15.19"/>
          <polygon class="cls-1" points="891.09 45.14 880.93 28.81 846.81 .97 858.54 17.14 891.09 45.14"/>
          <polygon class="cls-1" points="893.82 2.64 881.11 18.23 846.67 44.13 858.34 28.75 893.82 2.64"/>
          <polygon class="cls-1" points="871.7 13.89 867.83 13.79 867.51 32.37 871.38 32.47 871.7 13.89"/>
          <polygon class="cls-1" points="867.83 13.95 863.98 13.56 862.67 32.07 866.53 32.46 867.83 13.95"/>
          <polygon class="cls-1" points="871.34 32.31 875.2 32.7 876.51 14.18 872.65 13.8 871.34 32.31"/>
        </g>
        <g>
          <path class="cls-1" d="M798.47,36.21c-27.63,0-41.17-15.19-71.5-15.19v-5.19c30.33,0,43.86,15.18,71.5,15.18"/>
          <path class="cls-1" d="M798.47,14.81c-29.4,0-43.92,15.18-70.71,15.18v-5.19c26.78,0,41.31-15.19,70.71-15.19"/>
          <path class="cls-1" d="M651.36,36.21c27.63,0,41.17-15.19,71.5-15.19v-5.19c-30.33,0-43.86,15.18-71.5,15.18"/>
          <path class="cls-1" d="M651.36,14.81c29.4,0,43.92,15.18,70.71,15.18v-5.19c-26.78,0-41.31-15.19-70.71-15.19"/>
          <polygon class="cls-1" points="743.97 45.14 733.81 28.81 699.69 .97 711.42 17.14 743.97 45.14"/>
          <polygon class="cls-1" points="746.69 2.64 733.99 18.23 699.54 44.13 711.22 28.75 746.69 2.64"/>
          <polygon class="cls-1" points="724.57 13.89 720.7 13.79 720.39 32.37 724.26 32.47 724.57 13.89"/>
          <polygon class="cls-1" points="720.71 13.95 716.86 13.56 715.55 32.07 719.41 32.46 720.71 13.95"/>
          <polygon class="cls-1" points="724.22 32.31 728.08 32.7 729.38 14.18 725.53 13.8 724.22 32.31"/>
        </g>
        <g>
          <path class="cls-1" d="M651.35,36.21c-27.63,0-41.17-15.19-71.5-15.19v-5.19c30.33,0,43.86,15.18,71.5,15.18"/>
          <path class="cls-1" d="M651.35,14.81c-29.4,0-43.92,15.18-70.71,15.18v-5.19c26.78,0,41.31-15.19,70.71-15.19"/>
          <path class="cls-1" d="M504.23,36.21c27.63,0,41.17-15.19,71.5-15.19v-5.19c-30.33,0-43.86,15.18-71.5,15.18"/>
          <path class="cls-1" d="M504.23,14.81c29.4,0,43.92,15.18,70.71,15.18v-5.19c-26.78,0-41.31-15.19-70.71-15.19"/>
          <polygon class="cls-1" points="596.85 45.14 586.69 28.81 552.56 .97 564.3 17.14 596.85 45.14"/>
          <polygon class="cls-1" points="599.57 2.64 586.87 18.23 552.42 44.13 564.1 28.75 599.57 2.64"/>
          <polygon class="cls-1" points="577.45 13.89 573.58 13.79 573.27 32.37 577.14 32.47 577.45 13.89"/>
          <polygon class="cls-1" points="573.59 13.95 569.73 13.56 568.43 32.07 572.29 32.46 573.59 13.95"/>
          <polygon class="cls-1" points="577.1 32.31 580.96 32.7 582.26 14.18 578.41 13.8 577.1 32.31"/>
        </g>
      </g>
      <g>
        <g>
          <path class="cls-1" d="M724.91,326.32c-33.98,0-50.63-15.19-87.92-15.19v-5.19c37.29,0,53.94,15.18,87.92,15.18"/>
          <path class="cls-1" d="M724.91,304.91c-36.15,0-54.01,15.18-86.95,15.18v-5.19c32.94,0,50.8-15.19,86.95-15.19"/>
          <path class="cls-1" d="M544,326.32c33.98,0,50.63-15.19,87.92-15.19v-5.19c-37.29,0-53.94,15.18-87.92,15.18"/>
          <path class="cls-1" d="M544,304.91c36.15,0,54.01,15.18,86.95,15.18v-5.19c-32.94,0-50.8-15.19-86.95-15.19"/>
          <polygon class="cls-1" points="657.89 335.24 645.4 318.92 603.43 291.08 617.87 307.25 657.89 335.24"/>
          <polygon class="cls-1" points="661.24 292.74 645.62 308.33 603.26 334.23 617.62 318.85 661.24 292.74"/>
          <rect class="cls-1" x="622.18" y="310.86" width="18.58" height="4.76" transform="translate(305.03 937.98) rotate(-88.8)"/>
          <polygon class="cls-1" points="629.29 304.05 624.55 303.67 622.94 322.17 627.69 322.57 629.29 304.05"/>
          <polygon class="cls-1" points="633.61 322.42 638.35 322.8 639.95 304.29 635.21 303.9 633.61 322.42"/>
        </g>
        <g>
          <path class="cls-1" d="M543.99,326.32c-33.98,0-50.63-15.19-87.92-15.19v-5.19c37.29,0,53.94,15.18,87.92,15.18"/>
          <path class="cls-1" d="M543.99,304.91c-36.15,0-54.01,15.18-86.95,15.18v-5.19c32.94,0,50.8-15.19,86.95-15.19"/>
          <path class="cls-1" d="M363.08,326.32c33.98,0,50.63-15.19,87.92-15.19v-5.19c-37.29,0-53.94,15.18-87.92,15.18"/>
          <path class="cls-1" d="M363.08,304.91c36.15,0,54.01,15.18,86.95,15.18v-5.19c-32.94,0-50.8-15.19-86.95-15.19"/>
          <polygon class="cls-1" points="476.97 335.24 464.48 318.92 422.52 291.08 436.95 307.25 476.97 335.24"/>
          <polygon class="cls-1" points="480.32 292.74 464.7 308.33 422.34 334.23 436.7 318.85 480.32 292.74"/>
          <rect class="cls-1" x="441.26" y="310.86" width="18.58" height="4.76" transform="translate(127.92 757.11) rotate(-88.8)"/>
          <polygon class="cls-1" points="448.37 304.05 443.63 303.67 442.03 322.17 446.77 322.57 448.37 304.05"/>
          <polygon class="cls-1" points="452.69 322.42 457.43 322.8 459.04 304.29 454.29 303.9 452.69 322.42"/>
        </g>
        <g>
          <path class="cls-1" d="M363.07,326.32c-33.98,0-50.63-15.19-87.92-15.19v-5.19c37.29,0,53.94,15.18,87.92,15.18"/>
          <path class="cls-1" d="M363.07,304.91c-36.15,0-54.01,15.18-86.95,15.18v-5.19c32.94,0,50.8-15.19,86.95-15.19"/>
          <path class="cls-1" d="M182.17,326.32c33.98,0,50.63-15.19,87.92-15.19v-5.19c-37.29,0-53.94,15.18-87.92,15.18"/>
          <path class="cls-1" d="M182.17,304.91c36.15,0,54.01,15.18,86.95,15.18v-5.19c-32.94,0-50.8-15.19-86.95-15.19"/>
          <polygon class="cls-1" points="296.05 335.24 283.56 318.92 241.6 291.08 256.03 307.25 296.05 335.24"/>
          <polygon class="cls-1" points="299.41 292.74 283.79 308.33 241.43 334.23 255.78 318.85 299.41 292.74"/>
          <rect class="cls-1" x="260.34" y="310.86" width="18.58" height="4.76" transform="translate(-49.2 576.23) rotate(-88.8)"/>
          <polygon class="cls-1" points="267.46 304.05 262.71 303.67 261.11 322.17 265.85 322.57 267.46 304.05"/>
          <polygon class="cls-1" points="271.77 322.42 276.52 322.8 278.12 304.29 273.38 303.9 271.77 322.42"/>
        </g>
        <g>
          <path class="cls-1" d="M182.15,326.32c-33.98,0-50.63-15.19-87.92-15.19v-5.19c37.29,0,53.94,15.18,87.92,15.18"/>
          <path class="cls-1" d="M182.15,304.91c-36.15,0-54.01,15.18-86.95,15.18v-5.19c32.94,0,50.8-15.19,86.95-15.19"/>
          <path class="cls-1" d="M1.25,326.32c33.98,0,50.63-15.19,87.92-15.19v-5.19c-37.29,0-53.94,15.18-87.92,15.18"/>
          <path class="cls-1" d="M1.25,304.91c36.15,0,54.01,15.18,86.95,15.18v-5.19c-32.94,0-50.8-15.19-86.95-15.19"/>
          <polygon class="cls-1" points="115.14 335.24 102.65 318.92 60.68 291.08 75.11 307.25 115.14 335.24"/>
          <polygon class="cls-1" points="118.49 292.74 102.87 308.33 60.51 334.23 74.87 318.85 118.49 292.74"/>
          <rect class="cls-1" x="79.42" y="310.86" width="18.58" height="4.76" transform="translate(-226.32 395.35) rotate(-88.8)"/>
          <polygon class="cls-1" points="86.54 304.05 81.8 303.67 80.19 322.17 84.94 322.57 86.54 304.05"/>
          <polygon class="cls-1" points="90.85 322.42 95.6 322.8 97.2 304.29 92.46 303.9 90.85 322.42"/>
        </g>
      </g>
    </g>
  </g>
</svg>