<?xml version="1.0" encoding="UTF-8"?>
<svg id="Layer_2" data-name="Layer 2" xmlns="http://www.w3.org/2000/svg" viewBox="0 0 722.44 680.73">
  <defs>
    <style>
      .cls-1 {
        fill: #bfbfbf;
        stroke: #000;
        stroke-linecap: round;
        stroke-width: 2.5px;
      }
    </style>
  </defs>
  <g id="Layer_2-2" data-name="Layer 2">
    <g>
      <g>
        <g>
          <path class="cls-1" d="M24.7,1.25c14.71,27.45,8.53,48.07,24.67,78.2l-4.57,2.45C28.65,51.77,34.83,31.16,20.12,3.7"/>
          <path class="cls-1" d="M5.83,11.36c15.65,29.2,36.76,36.46,51.02,63.07l-4.57,2.45C38.02,50.28,16.9,43.02,1.25,13.81"/>
          <path class="cls-1" d="M103.01,147.4c-14.71-27.45-35.3-33.73-51.45-63.86l-4.57,2.45c16.14,30.13,36.73,36.41,51.44,63.86"/>
          <path class="cls-1" d="M84.14,157.51c-15.65-29.2-10-50.8-24.26-77.41l-4.57,2.45c14.26,26.61,8.6,48.21,24.25,77.42"/>
          <polygon class="cls-1" points="61.57 51.18 52.59 68.98 46.21 116.03 54.22 96.73 61.57 51.18"/>
          <polygon class="cls-1" points="22.66 68.54 43.16 73.8 84.33 95.79 64.56 91.45 22.66 68.54"/>
          <polygon class="cls-1" points="44.36 85.2 46.33 89.09 62.87 80.63 60.9 76.74 44.36 85.2"/>
          <polygon class="cls-1" points="46.46 89.01 48.17 93.03 65.18 85.58 63.47 81.56 46.46 89.01"/>
          <polygon class="cls-1" points="60.78 76.85 59.07 72.84 42.05 80.28 43.76 84.3 60.78 76.85"/>
        </g>
        <g>
          <path class="cls-1" d="M103.01,147.41c14.71,27.45,8.53,48.07,24.67,78.2l-4.57,2.45c-16.14-30.13-9.97-50.75-24.68-78.2"/>
          <path class="cls-1" d="M84.14,157.52c15.65,29.2,36.76,36.46,51.02,63.07l-4.57,2.45c-14.26-26.61-35.38-33.87-51.03-63.07"/>
          <path class="cls-1" d="M181.32,293.55c-14.71-27.45-35.3-33.73-51.45-63.86l-4.57,2.45c16.14,30.13,36.73,36.41,51.44,63.86"/>
          <path class="cls-1" d="M162.45,303.67c-15.65-29.2-10-50.8-24.26-77.41l-4.57,2.45c14.26,26.61,8.6,48.21,24.25,77.42"/>
          <polygon class="cls-1" points="139.89 197.34 130.91 215.14 124.53 262.19 132.54 242.89 139.89 197.34"/>
          <polygon class="cls-1" points="100.97 214.7 121.48 219.95 162.65 241.94 142.87 237.61 100.97 214.7"/>
          <polygon class="cls-1" points="122.67 231.36 124.64 235.25 141.18 226.79 139.21 222.9 122.67 231.36"/>
          <polygon class="cls-1" points="124.77 235.17 126.49 239.18 143.49 231.74 141.79 227.72 124.77 235.17"/>
          <polygon class="cls-1" points="139.09 223.01 137.38 218.99 120.37 226.44 122.08 230.46 139.09 223.01"/>
        </g>
        <g>
          <path class="cls-1" d="M181.33,293.56c14.71,27.45,8.53,48.07,24.67,78.2l-4.57,2.45c-16.14-30.13-9.97-50.75-24.68-78.2"/>
          <path class="cls-1" d="M162.46,303.68c15.65,29.2,36.76,36.46,51.02,63.07l-4.57,2.45c-14.26-26.61-35.38-33.87-51.03-63.07"/>
          <path class="cls-1" d="M259.64,439.71c-14.71-27.45-35.3-33.73-51.45-63.86l-4.57,2.45c16.14,30.13,36.73,36.41,51.44,63.86"/>
          <path class="cls-1" d="M240.77,449.82c-15.65-29.2-10-50.8-24.26-77.41l-4.57,2.45c14.26,26.61,8.6,48.21,24.25,77.42"/>
          <polygon class="cls-1" points="218.2 343.49 209.22 361.29 202.84 408.34 210.85 389.05 218.2 343.49"/>
          <polygon class="cls-1" points="179.29 360.86 199.79 366.11 240.96 388.1 221.19 383.77 179.29 360.86"/>
          <polygon class="cls-1" points="200.98 377.52 202.96 381.41 219.5 372.95 217.53 369.06 200.98 377.52"/>
          <polygon class="cls-1" points="203.09 381.33 204.8 385.34 221.81 377.9 220.1 373.88 203.09 381.33"/>
          <polygon class="cls-1" points="217.41 369.17 215.69 365.15 198.68 372.6 200.39 376.62 217.41 369.17"/>
        </g>
        <g>
          <path class="cls-1" d="M259.64,439.72c14.71,27.45,8.53,48.07,24.67,78.2l-4.57,2.45c-16.14-30.13-9.97-50.75-24.68-78.2"/>
          <path class="cls-1" d="M240.77,449.83c15.65,29.2,36.76,36.46,51.02,63.07l-4.57,2.45c-14.26-26.61-35.38-33.87-51.03-63.07"/>
          <path class="cls-1" d="M331.03,572.96c-2.91-5.43-5.96-9.1-9.29-12.31-3.33-3.19-6.93-5.9-10.77-9.05-3.84-3.14-7.91-6.72-12.05-11.44-2.07-2.36-4.15-4.99-6.21-7.95-1.02-1.46-2.08-3.1-3.12-4.81-1.04-1.71-2.07-3.5-3.08-5.38l-4.57,2.45c2.03,3.78,4.09,7.12,6.26,10.3,2.16,3.16,4.35,5.98,6.51,8.51,4.33,5.07,8.57,8.97,12.58,12.42,4.01,3.46,7.78,6.48,11.28,10.01,3.51,3.54,6.75,7.57,9.88,13.41"/>
          <path class="cls-1" d="M320.34,598.33c-4.07-7.59-7.11-15.27-9.4-22.57-2.3-7.31-3.87-14.25-5.19-20.74-1.33-6.5-2.42-12.56-3.91-18.34-.74-2.89-1.59-5.72-2.62-8.54-.47-1.32-1.2-3.03-1.94-4.64-.75-1.63-1.56-3.27-2.45-4.93l-4.57,2.45c.89,1.66,1.7,3.31,2.45,4.93.74,1.62,1.45,3.28,1.99,4.73,1.13,2.99,2.07,5.99,2.9,9.05,1.66,6.11,2.91,12.47,4.41,19.29,1.49,6.81,3.23,14.07,5.72,21.73,2.48,7.64,5.73,15.71,10.02,23.73"/>
          <path class="cls-1" d="M296.52,489.65l-8.98,17.8-3.19,23.53c-.58,3.83-.96,8.04-1.23,12.44-.27,4.4-.43,9.03-.46,13.89,1.79-8.08,3.96-15.43,6.52-22.07l7.33-45.58Z"/>
          <path class="cls-1" d="M257.6,507.01l20.5,5.26,20.58,10.99c3.56,2.07,6.54,3.07,9.59,4.18,3.01,1.05,5.91,1.89,8.69,2.52-5.52.55-11.41.43-17.65-.38-1.63-.74-3.27-1.5-5.05-2.52l-5.24-2.86-10.47-5.73-20.95-11.46Z"/>
          <polygon class="cls-1" points="279.3 523.67 281.27 527.57 297.81 519.11 295.84 515.21 279.3 523.67"/>
          <polygon class="cls-1" points="281.4 527.48 283.11 531.5 300.12 524.05 298.42 520.03 281.4 527.48"/>
          <polygon class="cls-1" points="295.72 515.33 294.01 511.31 277 518.76 278.71 522.77 295.72 515.33"/>
        </g>
        <g>
          <path class="cls-1" d="M331.04,572.97c1.2,2.24,2.26,4.56,3.19,6.91,2.11,5.27,3.79,11.02,5.43,17.26,1.72,6.77,3.37,13.26,5.08,19.95,1.84,7,3.93,14.29,6.46,21.54,2.53,7.24,5.53,14.44,9.03,20.98l-.27,8.31c-3.68-6.59-6.89-13.26-9.66-20.17-.7-1.66-1.34-3.63-1.97-5.51-.62-1.89-1.22-3.78-1.79-5.65-1.15-3.75-2.21-7.47-3.2-11.11-1.85-6.97-3.65-13.74-5.53-20.79-1.8-6.53-3.64-12.58-5.93-18.18-1.01-2.5-2.15-4.97-3.44-7.38"/>
          <path class="cls-1" d="M320.34,598.34c1.57,2.93,3.14,5.55,4.62,7.78,3.62,5.44,7.09,9.26,10.31,12.21,3.24,2.87,6.26,4.75,9.1,6.46,2.84,1.71,5.51,3.24,8.12,5.59,2.62,2.35,5.19,5.5,7.96,10.69l-.36,10.31c-2.97-5.54-5.71-9.01-8.49-11.66-2.78-2.64-5.59-4.46-8.59-6.45-1.48-1.13-2.97-2.41-4.54-3.65-1.57-1.26-3.21-2.59-4.91-4.13-.85-.77-1.72-1.58-2.61-2.45-.88-.9-1.79-1.86-2.7-2.89-1.84-2.03-3.71-4.54-5.63-7.38-1.56-2.37-3.21-5.15-4.87-8.25"/>
          <path class="cls-1" d="M394.33,584.57c-2.9,5.44-5.07,11.53-7.09,18.35-2.02,6.81-3.88,14.34-5.97,22.31-2.09,7.96-4.42,16.37-7.25,24.71-1.41,4.17-2.95,8.31-4.62,12.33-.42.98-.85,1.98-1.28,2.99-.23.49-.4,1.02-.76,1.4-.35.39-.81.67-1.29.75-.99.23-1.92-.38-2.28-1.26-.47-.82-.95-1.68-1.44-2.59l-.16,8.35c.51.9,1.02,1.79,1.51,2.67.23.43.5.87.94,1.11.42.26.94.36,1.45.3.51-.06.99-.3,1.35-.66.38-.36.56-.85.8-1.3.46-.93.91-1.85,1.35-2.76.89-1.84,1.74-3.69,2.57-5.56.41-.95.82-1.88,1.22-2.81.2-.47.4-.94.59-1.41.2-.46.39-.94.58-1.51,3.02-8.69,5.51-17.41,7.77-25.69,2.26-8.28,4.29-16.12,6.48-23.26,2.2-7.16,4.56-13.6,7.67-19.45"/>
          <path class="cls-1" d="M403.15,613.45c-4.09,7.47-8.01,12.51-11.54,16.44-.44.48-.88.96-1.31,1.43-.43.46-.85.92-1.29,1.27-.86.75-1.7,1.42-2.53,2.02-1.65,1.21-3.23,2.16-4.76,3-3.05,1.69-5.87,2.94-8.64,5.11-1.39,1.09-2.77,2.42-4.18,4.18-.35.44-.71.91-1.07,1.41-.18.24-.33.53-.62.72-.28.19-.64.31-1.02.31-.77.03-1.61-.45-1.99-1.2-.38-.75-.75-1.5-1.14-2.21l-.18,10.65c.41.77.81,1.56,1.22,2.36.41.81,1.31,1.31,2.13,1.27.41-.01.79-.14,1.09-.35.3-.21.47-.52.66-.78.38-.55.76-1.06,1.14-1.55,1.51-1.94,2.98-3.44,4.45-4.69,1.47-1.25,2.95-2.27,4.47-3.22,1.51-1.02,3.09-1.62,4.63-3.29,3.11-2.85,6.48-5.55,10.25-9.39,1.89-1.95,3.86-4.1,5.93-6.84,1.03-1.36,2.09-2.79,3.16-4.42,1.07-1.64,2.15-3.4,3.24-5.31"/>
          <path class="cls-1" d="M355.54,599.81c.33,12.14,1,24.9,2,38.29,1.08,6.93,2.28,14.09,3.61,21.47l2.07,11.24c.18,1.09.37,1.54.55,2.23.18.65.38,1.29.7,1.83.61,1.1,1.53,1.8,2.29,2.09.38.15.72.2.97.18.24-.02.41-.08.62-.11.4-.08.8-.14,1.21-.19.81-.1,1.65-.15,2.5-.15,1.68.03,3.52.17,5.43.51-1.4-1.52-2.73-2.9-3.98-4.13-1.23-1.25-2.4-2.34-3.52-3.25l-.56.09s-.09-.05-.14-.11l-.14-.2-.28-.4c-.38-.53-.74-1.07-1.12-1.64-.39-.57-1.13-1.39-1.86-2.63-.73-1.22-1.43-2.84-1.77-4.68-1.31-7.36-2.48-14.51-3.55-21.44-2.13-13.86-3.81-26.86-5.02-39Z"/>
          <path class="cls-1" d="M347.48,665.46c1.67-1.44,3.25-2.72,4.7-3.94.73-.61,1.44-1.17,2.13-1.7l1.02-.77.5-.36.25-.18.12-.09s.04-.02.06-.05l.07-.13c1.76-1.29,3.4-2.79,4.93-4.5.77-.86,1.5-1.76,2.21-2.73l.53-.73c.17-.25.35-.49.62-.83.54-.66,1.32-1.66,1.96-3.05.32-.69.6-1.47.79-2.3.19-.84.32-1.71.48-2.56l.88-5.1,1.63-9.95c1.03-6.53,1.95-12.85,2.76-18.95-.83,12.46-2.02,25.6-3.58,39.42-.64,3.5-1.28,7.07-2.01,10.66-.43,1.76-1.25,3.22-2.02,4.21-.38.5-.75.89-1.04,1.19-.3.3-.48.51-.67.72-.77.86-1.58,1.66-2.41,2.41l-.63.55c-.21,0-.41-.12-.62-.18-.41-.14-.83-.26-1.26-.37-1.7-.45-3.49-.72-5.38-.81-.95-.05-1.9-.03-2.91-.02-1.01,0-2.05.05-3.12.13Z"/>
          <polygon class="cls-1" points="361.2 672.33 363.32 676.1 363.59 661.54 363.9 642.45 362.18 639.03 361.65 657.71 361.2 672.33"/>
          <path class="cls-1" d="M363.32,675.93c.38.65.62,1.42,1.22,1.91.59.49,1.41.66,2.11.5l.31-4.87.23-9.86c.12-6.59.21-13.18.25-19.78-.33.38-.93.57-1.54.43-.61-.13-1.21-.57-1.55-1.21l-.51,18.68-.28,9.28-.03,1.05-.03.55-.06,1.1-.12,2.21Z"/>
          <polygon class="cls-1" points="362.19 639.37 360.5 635.4 359.51 653.15 358.99 661.98 358.87 663.8 358.78 665.01 358.58 667.44 360.68 671.52 361 666.57 361.42 657.54 362.19 639.37"/>
        </g>
        <g>
          <path class="cls-1" d="M394.33,584.56c2.9-5.44,5.85-8.96,9.05-11.93,3.19-2.96,6.62-5.36,10.28-8.2,3.66-2.83,7.55-6.1,11.56-10.59,4-4.47,8.11-10.18,12-17.48l4.39,2.8c-4.13,7.75-8.45,13.85-12.64,18.67-4.19,4.84-8.26,8.43-12.08,11.58-3.83,3.15-7.42,5.86-10.79,9.15-3.38,3.31-6.52,7.19-9.63,13.03"/>
          <path class="cls-1" d="M403.15,613.44c4.08-7.5,7.17-15.4,9.58-22.93,2.41-7.56,4.13-14.82,5.61-21.63,1.49-6.82,2.73-13.2,4.33-19.22,1.6-6.04,3.55-11.7,6.61-17.45l4.36,2.84c-3.27,6.14-5.4,12.15-7.18,18.52-1.77,6.35-3.18,13.04-4.84,20.18-1.65,7.13-3.54,14.71-6.14,22.62-1.3,3.95-2.77,7.97-4.46,12.02-1.68,4.06-3.6,8.09-5.77,11.97"/>
          <path class="cls-1" d="M463.79,454.2c-7.32,13.74-9.43,25.77-11.71,38.12-1.14,6.18-2.33,12.44-4.23,19.05-.95,3.3-2.08,6.69-3.48,10.19-.7,1.75-1.46,3.53-2.3,5.35-.84,1.81-1.77,3.69-2.73,5.48l4.52,2.55c16.13-30.26,9.86-50.8,24.52-78.31"/>
          <path class="cls-1" d="M482.68,464.27c-7.79,14.62-16.96,23.76-25.95,32.57-4.5,4.41-8.95,8.73-13.17,13.62-2.11,2.44-4.16,5.03-6.12,7.84-.98,1.4-1.95,2.86-2.88,4.39-.47.76-.93,1.54-1.39,2.34-.23.4-.45.8-.68,1.21-.19.36-.39.72-.59,1.08l4.54,2.51c.21-.39.42-.77.62-1.15.23-.41.46-.81.68-1.21.46-.8.92-1.57,1.39-2.34.94-1.52,1.9-2.98,2.88-4.39,1.97-2.81,4.02-5.39,6.12-7.84,4.22-4.89,8.67-9.21,13.17-13.62,9-8.81,18.17-17.95,25.96-32.57"/>
          <path class="cls-1" d="M410.61,535.05c5.28,1.66,10.9,2.69,16.85,3.09,3.19-1.05,6.5-2.33,9.93-3.83,3.42-1.48,7.02-3.3,10.57-5.03l21.33-10.42-20.49,4.07-10.49,4.8c-1.78.85-3.43,1.49-5.09,2.11-1.65.62-3.27,1.18-4.87,1.69-6.37,2.04-12.28,3.21-17.74,3.52Z"/>
          <path class="cls-1" d="M440.48,569.36c-1.13-8.92-2.67-17.09-4.6-24.52-.21-4.19-.54-8.16-.98-11.93-.22-1.88-.47-3.71-.74-5.49l-.58-5.79-2.3-23.22,7.39,18.84,1.06,11.89c.4,3.88.75,7.85.94,12.11.41,8.49.35,17.85-.18,28.09Z"/>
          <polygon class="cls-1" points="444.59 537.71 446.83 533.73 430.6 524.68 428.75 527.94 444.59 537.71"/>
          <polygon class="cls-1" points="446.68 533.67 449.07 530.01 433.43 520.01 431.03 523.66 446.68 533.67"/>
          <path class="cls-1" d="M428.9,527.99l-2.04,3c4.99,3.76,9.92,7.62,14.81,11.57l2.47-3.81c-5.03-3.68-10.11-7.27-15.25-10.76Z"/>
        </g>
        <g>
          <path class="cls-1" d="M463.8,454.19c14.65-27.49,35.22-33.81,51.3-63.97l4.58,2.44c-16.07,30.17-36.65,36.49-51.29,63.98"/>
          <path class="cls-1" d="M482.69,464.26c15.58-29.24,9.88-50.83,24.08-77.47l4.58,2.44c-14.2,26.64-8.49,48.23-24.07,77.47"/>
          <path class="cls-1" d="M541.76,307.86c-14.65,27.49-8.42,48.09-24.49,78.26l4.58,2.44c16.07-30.16,9.85-50.77,24.49-78.26"/>
          <path class="cls-1" d="M560.66,317.93c-15.58,29.24-36.68,36.55-50.87,63.19l4.58,2.44c14.2-26.64,35.3-33.95,50.88-63.19"/>
          <polygon class="cls-1" points="484.81 395.79 504.59 393.36 547.25 372.51 526.76 376.58 484.81 395.79"/>
          <polygon class="cls-1" points="520.87 418.49 513.84 398.52 509.24 352.08 516.63 370.92 520.87 418.49"/>
          <polygon class="cls-1" points="522.66 391.19 524.8 387.39 508.57 378.34 506.43 382.14 522.66 391.19"/>
          <polygon class="cls-1" points="524.66 387.33 527.04 383.67 511.4 373.67 509.01 377.32 524.66 387.33"/>
          <polygon class="cls-1" points="506.59 382.18 504.2 385.84 519.85 395.84 522.24 392.18 506.59 382.18"/>
        </g>
        <g>
          <path class="cls-1" d="M541.77,307.85c14.65-27.49,35.22-33.81,51.3-63.97l4.58,2.44c-16.07,30.17-36.65,36.49-51.29,63.98"/>
          <path class="cls-1" d="M560.66,317.92c15.58-29.24,9.88-50.83,24.08-77.47l4.58,2.44c-14.2,26.64-8.49,48.23-24.07,77.47"/>
          <path class="cls-1" d="M619.74,161.53c-14.65,27.49-8.42,48.09-24.49,78.26l4.58,2.44c16.07-30.16,9.85-50.77,24.49-78.26"/>
          <path class="cls-1" d="M638.63,171.59c-15.58,29.24-36.68,36.55-50.87,63.19l4.58,2.44c14.2-26.64,35.3-33.95,50.88-63.19"/>
          <polygon class="cls-1" points="562.78 249.45 582.57 247.02 625.23 226.17 604.73 230.24 562.78 249.45"/>
          <polygon class="cls-1" points="598.84 272.15 591.81 252.18 587.21 205.74 594.6 224.58 598.84 272.15"/>
          <polygon class="cls-1" points="600.63 244.85 602.77 241.05 586.54 232 584.41 235.8 600.63 244.85"/>
          <polygon class="cls-1" points="602.63 240.99 605.02 237.33 589.37 227.33 586.98 230.98 602.63 240.99"/>
          <polygon class="cls-1" points="584.56 235.84 582.18 239.5 597.82 249.5 600.21 245.84 584.56 235.84"/>
        </g>
        <g>
          <path class="cls-1" d="M619.74,161.51c14.65-27.49,35.22-33.81,51.3-63.97l4.58,2.44c-16.07,30.17-36.65,36.49-51.29,63.98"/>
          <path class="cls-1" d="M638.64,171.58c15.58-29.24,9.88-50.83,24.08-77.47l4.58,2.44c-14.2,26.64-8.49,48.23-24.07,77.47"/>
          <path class="cls-1" d="M697.71,15.19c-14.65,27.49-8.42,48.09-24.49,78.26l4.58,2.44c16.07-30.16,9.85-50.77,24.49-78.26"/>
          <path class="cls-1" d="M716.6,25.25c-15.58,29.24-36.68,36.55-50.87,63.19l4.58,2.44c14.2-26.64,35.3-33.95,50.88-63.19"/>
          <polygon class="cls-1" points="640.75 103.11 660.54 100.68 703.2 79.83 682.71 83.9 640.75 103.11"/>
          <polygon class="cls-1" points="676.81 125.81 669.79 105.84 665.19 59.4 672.57 78.24 676.81 125.81"/>
          <polygon class="cls-1" points="678.6 98.51 680.74 94.71 664.52 85.66 662.38 89.46 678.6 98.51"/>
          <polygon class="cls-1" points="680.6 94.65 682.99 90.99 667.35 80.99 664.95 84.64 680.6 94.65"/>
          <polygon class="cls-1" points="662.54 89.5 660.15 93.16 675.8 103.16 678.18 99.51 662.54 89.5"/>
        </g>
      </g>
      <g>
        <g>
          <path class="cls-1" d="M248.79,9.68c6.05,30.59-5.88,48.53.77,82.11l-5.09,1.01c-6.65-33.58,5.28-51.51-.77-82.1"/>
          <path class="cls-1" d="M227.79,13.84c6.44,32.55,24.52,45.68,30.38,75.33l-5.09,1.01c-5.87-29.65-23.95-42.79-30.39-75.33"/>
          <path class="cls-1" d="M281.02,172.56c-6.05-30.59-23.92-42.63-30.57-76.21l-5.09,1.01c6.65,33.57,24.5,45.62,30.56,76.21"/>
          <path class="cls-1" d="M260.02,176.71c-6.44-32.55,5.27-51.57-.6-81.23l-5.09,1.01c5.87,29.65-5.85,48.69.59,81.23"/>
          <polygon class="cls-1" points="269.48 68.29 255.7 82.7 235.86 125.89 249.15 109.76 269.48 68.29"/>
          <polygon class="cls-1" points="227.19 73.52 245.27 84.56 278.23 117.67 260.58 107.73 227.19 73.52"/>
          <polygon class="cls-1" points="243.08 95.83 243.83 100.13 262.12 96.87 261.37 92.57 243.08 95.83"/>
          <polygon class="cls-1" points="243.98 100.09 244.45 104.44 262.89 102.29 262.43 97.94 243.98 100.09"/>
          <polygon class="cls-1" points="261.23 92.64 260.76 88.29 242.32 90.44 242.78 94.79 261.23 92.64"/>
        </g>
        <g>
          <path class="cls-1" d="M281.03,172.57c3.03,15.3,1.56,27.43.16,39.93-.7,6.25-1.38,12.6-1.47,19.48-.04,3.44.06,7.02.38,10.78.17,1.92.36,3.71.63,5.65.27,1.92.6,3.9,1,5.92l-4.97,1.62c-.85-4.29-1.42-8.41-1.75-12.18-.32-3.76-.42-7.34-.38-10.78.09-6.88.77-13.23,1.46-19.48,1.39-12.5,2.86-24.64-.17-39.93"/>
          <path class="cls-1" d="M260.03,176.72c3.22,16.27,9.35,27.69,15.41,38.75,3.03,5.53,6.04,10.97,8.66,16.88,1.31,2.96,2.52,6.03,3.59,9.29.24.76.49,1.52.74,2.3.23.73.44,1.46.65,2.21.41,1.49.77,3.03,1.09,4.63l-4.98,1.56c-.34-1.71-.72-3.36-1.15-4.95-.21-.8-.44-1.59-.68-2.36-.25-.8-.51-1.6-.75-2.38-1.07-3.26-2.28-6.33-3.59-9.29-2.62-5.91-5.63-11.35-8.66-16.88-6.06-11.06-12.19-22.48-15.41-38.75"/>
          <path class="cls-1" d="M309.41,315.98c-1.2-6.05-2.99-10.2-5.16-13.84-2.17-3.63-4.72-6.75-7.37-10.36-2.65-3.6-5.39-7.69-7.9-13.02-2.5-5.31-4.77-11.89-6.38-20.02l-4.92,1.89c1.71,8.62,4.06,15.63,6.64,21.34,2.58,5.72,5.4,10.17,8.11,14.12,2.72,3.96,5.34,7.42,7.58,11.42,2.25,4.02,4.11,8.56,5.4,15.07"/>
          <path class="cls-1" d="M292.96,343.13c-1.67-8.46-2.39-16.97-2.54-25.03-.15-8.07.28-15.71.8-22.85.52-7.15,1.14-13.8,1.33-20.16.19-6.38-.05-12.46-1.31-18.86l-4.91,1.94c1.35,6.83,1.67,13.3,1.55,20.05-.12,6.73-.67,13.73-1.12,21.23-.45,7.49-.81,15.48-.58,23.94.22,8.45,1.02,17.39,2.79,26.32"/>
          <path class="cls-1" d="M301.72,231.17l-6.89,7.21-3.45,3.6c-1.17,1.08-2.35,2.14-3.51,3.27-6.86,13.14-12.93,30.28-18.21,51.44,3.77-8.72,7.7-16.64,11.79-23.76,3.09-8.44,6.36-15.92,9.83-22.44,1.73-3.26,3.51-6.28,5.34-9.06.24-.31.44-.76.66-1.19l.64-1.3,1.27-2.59,2.54-5.18Z"/>
          <path class="cls-1" d="M259.43,236.4l18.08,11.03c10.93,10.77,21.12,17.78,30.56,21.03-5.16.35-10.46-.06-15.92-1.22-5.13-3.53-10.46-8.03-15.98-13.51-1.38-1.37-2.77-2.8-4.18-4.29-1.4-1.48-2.83-3.12-4.21-4.48l-8.35-8.55Z"/>
          <polygon class="cls-1" points="275.44 259.33 276.24 263.86 293.8 256.9 293.18 253.28 275.44 259.33"/>
          <path class="cls-1" d="M276.38,263.79l.52,4.64c5.85-2.2,11.69-4.51,17.5-6.92l-.34-3.75c-5.87,2.11-11.77,4.12-17.68,6.03Z"/>
          <path class="cls-1" d="M293.04,253.36l-.34-3.69c-6.01,1.43-12.03,2.77-18.08,4l.51,4.59c5.99-1.53,11.96-3.16,17.91-4.89Z"/>
        </g>
        <g>
          <path class="cls-1" d="M309.41,315.99c1.2,6.05,1.53,12.6,1.51,19.86-.02,7.25-.38,15.18-.65,23.6-.27,8.41-.44,17.32-.12,26.26.31,8.93,1.13,17.91,2.73,26.04l-3.06,11.27c-1.71-8.62-2.6-18.04-3-27.36-.4-9.33-.29-18.59-.09-27.36.2-8.77.5-17.05.44-24.66-.06-7.63-.47-14.58-1.75-21.08"/>
          <path class="cls-1" d="M292.96,343.14c1.67,8.46,3.85,14.57,6.18,19.01,2.33,4.46,4.83,7.29,7.22,9.61,2.4,2.33,4.69,4.17,6.69,6.93,2,2.77,3.69,6.45,4.96,12.84l-3.07,11.22c-1.35-6.83-3.12-10.9-5.2-14.03-2.07-3.12-4.44-5.3-6.9-7.98-2.46-2.67-5.03-5.85-7.44-10.7-2.41-4.83-4.67-11.37-6.44-20.3"/>
          <path class="cls-1" d="M334.97,445.13c-1.41-7.15-3.17-9.19-5.2-9.84-2.03-.63-4.33.18-6.69-.6-1.63-.5-3.29-1.76-4.88-4.6-1.59-2.84-3.12-7.28-4.43-13.92l-3,11.55c1.4,7.05,2.99,11.85,4.65,15.02,1.66,3.18,3.38,4.74,5.07,5.53,2.45,1.21,4.83.8,6.94,1.86,2.12,1.08,3.96,3.58,5.48,11.26"/>
          <path class="cls-1" d="M326.63,510.44c-1.95-9.07-3.18-20.16-3.87-32.15-.34-6.04-.54-12.36-.69-18.51-.15-6.17-.24-12.28-.32-18.16-.13-8.97-.26-17.42-.61-24.95-.36-7.54-.94-14.15-2.04-19.69l-2.99,11.6c1.17,5.92,1.82,12.87,2.24,20.74.42,7.86.6,16.61.8,25.88.12,6.09.26,12.36.46,18.63.21,6.23.5,12.42.92,18.43.42,6.05.97,11.67,1.69,17.03.36,2.67.76,5.24,1.21,7.71.45,2.48.93,4.83,1.46,7"/>
          <path class="cls-1" d="M324.52,346.36c-2.92,13.24-5.71,27.19-8.36,41.83-3.44,30.42-6.09,64.85-7.95,103.28,1.78-18.76,3.73-36.71,5.83-53.87,2.73-34.26,6.22-64.67,10.48-91.24Z"/>
          <path class="cls-1" d="M296.96,426.03c4.41-4.48,8.66-9.8,12.74-15.95,7.75-5.3,14.76-14.37,21.02-27.19-3.27,9.89-6.69,19.03-10.25,27.41-7.06,9.15-14.9,14.4-23.5,15.73Z"/>
          <polygon class="cls-1" points="309.23 430.05 310.06 434.76 320.77 393.21 320.12 389.41 309.23 430.05"/>
          <path class="cls-1" d="M310.15,434.4l.67,5.37c3.58-13.69,7.14-27.48,10.68-41.38l-.48-4.49c-3.6,13.6-7.22,27.1-10.86,40.5Z"/>
          <path class="cls-1" d="M320.04,389.78l-.48-4.41c-3.73,12.92-7.49,25.75-11.26,38.47l.66,5.31c3.71-13.02,7.41-26.14,11.08-39.37Z"/>
        </g>
        <g>
          <path class="cls-1" d="M334.97,445.14c1.2,6.05,1.88,14.37,2.39,24.28.51,9.9.84,21.36,1.27,33.32.43,11.95.96,24.39,1.8,35.98.84,11.58,2,22.33,3.61,30.46l-.89,16.26c-.85-4.11-1.62-8.4-2.3-12.89-.34-2.24-.67-4.54-.97-6.88-.15-1.2-.3-2.38-.44-3.54-.07-.6-.14-1.2-.21-1.8l-.1-.9-.09-1.09c-.92-11.98-1.52-24.78-2.02-37.07-.5-12.3-.9-24.11-1.48-34.38-.58-10.28-1.34-18.99-2.63-25.5"/>
          <path class="cls-1" d="M326.63,510.45c1.71,7.96,3.5,12.49,5.18,15.47.21.37.42.72.63,1.05l.31.48.08.11.08.04.17.07c.45.17.9.21,1.34.16.89-.1,1.76-.59,2.61-1.19,1.7-1.2,3.3-2.9,4.77-2.79,1.48.12,2.82,2.03,4.09,8.42l-1.16,20.88c-1.35-6.83-2.77-9.13-4.32-9.62-.77-.24-1.58-.01-2.41.37-.42.19-.84.43-1.27.67l-.32.18c-.05.03-.11.07-.16.08l-.14-.14-.58-.55c-1.57-1.44-3.26-2.68-5.04-5.37-1.79-2.74-3.72-7.06-5.58-14.76"/>
          <path class="cls-1" d="M360.53,574.29c-1.2-6.05-2.29-6.66-3.41-5.01-1.12,1.67-2.27,5.62-3.52,9.08-1.25,3.47-2.59,6.45-4.05,6.42-1.45-.01-3.02-3.06-4.63-11.18l-.84,16.31c.84,4.1,1.65,7.46,2.43,10.33.39,1.44.76,2.75,1.13,3.97.18.59.37,1.18.54,1.76.09.28.18.56.27.83l.13.41c.04.12.1.06.14.1,1.53.42,2.95-2.2,4.27-5.31,1.32-3.11,2.54-6.71,3.73-8.01,1.2-1.28,2.36-.27,3.65,6.23"/>
          <path class="cls-1" d="M359.94,668.23c-1.63-7.83-3.05-15.74-4.31-24.09-.16-1.06-.31-2.11-.47-3.15-.08-.53-.15-1.06-.23-1.59l-.06-.4-.05-.65-.1-1.3c-.27-3.58-.53-7.1-.79-10.58-.5-7.12-.97-14.35-1.4-21.45-.88-14.21-1.66-27.93-2.52-39.6-.86-11.68-1.8-21.29-3.06-27.69l-1.08,21.26c1.35,6.83,2.36,16.84,3.3,28.89.47,6.02.91,12.54,1.36,19.38.23,3.51.45,6.99.68,10.48l.17,2.68.09,1.33.1.82.41,3.28c1.1,8.72,2.24,17.12,3.53,25.08,1.29,7.97,2.73,15.48,4.4,22.83"/>
          <path class="cls-1" d="M346.79,458.91c-.92,23.37-1.7,47.44-2.35,72.21,0,11.93.04,24.1.13,36.53l.18,18.83v1.19s.02.3.02.3v.18s.03.35.03.35l.08,1.41.15,2.81.32,5.55c.86,14.67,1.85,28.42,2.97,41.25-.64-12.45-1.17-25.65-1.6-39.58l-.15-2.69-.07-4.61-.11-9.55-.16-18.82c-.08-12.43-.12-24.61-.1-36.56.03-23.89.24-46.83.65-68.8Z"/>
          <path class="cls-1" d="M336.63,592.8l2.74-10.44,1.28-4.83.62-2.32.3-1.13.15-.56.07-.28.04-.15.05-.37c4.57-21.38,8.4-46.51,11.48-75.42-1.38,19.44-2.91,38.12-4.59,56.05-.96,6.34-1.98,12.43-3.04,18.28-.53,2.93-1.07,5.79-1.63,8.59l-.42,2.09c-.02.12-.03.12-.05.13l-.04.05-.08.09-.17.19-.68.81c-1.83,2.25-3.85,5.32-6.06,9.21Z"/>
          <polygon class="cls-1" points="343.49 591.83 344.36 596.12 347.75 529.53 347.07 525.54 343.49 591.83"/>
          <polygon class="cls-1" points="344.37 595.81 345.21 600.61 345.7 592.2 346.67 573.26 348.58 535.27 347.95 530.04 345.95 567.61 344.94 586.33 344.37 595.81"/>
          <polygon class="cls-1" points="347.04 526.21 346.42 521.08 344.21 557.62 343.1 575.83 342.42 586.13 343.26 591 343.85 581.64 344.92 563.2 347.04 526.21"/>
        </g>
        <g>
          <path class="cls-1" d="M360.54,574.29c.15.76.3,1.58.44,2.46.15.86.19,1.9.82,2.63.58.73,1.42,1.1,2.03,1.14.3.02.56-.03.69-.13.13-.09.18-.19.25-.27.55-.64,1.08-.29,1.62.66,1.08,1.9,2.18,6.15,3.37,9.92,1.19,3.78,2.48,7.06,3.89,7.25,1.41.22,2.95-2.68,4.55-10.81l.72,16.45c-.84,4.1-1.64,7.49-2.4,10.43-.38,1.47-.75,2.82-1.11,4.08-.18.62-.36,1.23-.53,1.83-.09.29-.17.58-.26.87l-.13.42c-.04.13-.09.05-.14.09-1.49.2-2.85-2.73-4.11-6.15-1.26-3.41-2.43-7.32-3.58-8.84-.58-.76-1.15-.91-1.74-.08-.08.1-.13.23-.27.35-.14.12-.41.19-.74.19-.65-.01-1.56-.39-2.18-1.15-.68-.77-.72-1.87-.89-2.78-.16-.93-.31-1.81-.48-2.63"/>
          <path class="cls-1" d="M359.94,668.24c.2.96.4,1.91.6,2.85.11.46.17.92.34,1.35.18.42.54.77.98.96.87.39,2.02.17,2.69-.58.7-.76.66-1.86.89-2.81.72-3.94,1.39-7.92,2.02-11.98.16-1.03.32-2.05.47-3.06.08-.52.15-1.03.23-1.54l.06-.39.05-.66.11-1.33c.28-3.65.55-7.24.82-10.79.5-7.45.99-14.7,1.47-21.9.92-14.52,1.75-28.54,2.64-40.44.89-11.91,1.85-21.68,3.11-28.07l.94,22.09c-1.35,6.84-2.38,16.99-3.34,29.28-.48,6.14-.95,12.79-1.41,19.78-.24,3.58-.47,7.14-.71,10.7l-.18,2.73-.09,1.36-.1.8-.41,3.17c-1.11,8.42-2.26,16.53-3.56,24.26-.65,3.87-1.34,7.66-2.07,11.38-.23.9-.2,1.94-.9,2.66-.68.71-1.84.92-2.72.56-.44-.18-.8-.5-.99-.9-.18-.4-.24-.83-.35-1.26-.2-.88-.41-1.77-.61-2.67"/>
          <path class="cls-1" d="M388.49,456.24c-1.19,6.05-1.89,14.53-2.44,24.67-.54,10.13-.92,21.9-1.4,34.16-.48,12.25-1.05,25-1.93,36.82-.87,11.81-2.05,22.72-3.65,30.84l.76,16.4c.84-4.1,1.6-8.34,2.29-12.78.35-2.22.68-4.48.99-6.78.15-1.18.3-2.34.45-3.48.07-.59.15-1.18.22-1.76l.11-.89.09-1.1c.95-12.21,1.6-25.31,2.14-37.91.55-12.61,1-24.72,1.61-35.22.62-10.51,1.4-19.38,2.68-25.88"/>
          <path class="cls-1" d="M396.17,524.17c-1.71,7.99-3.41,12.49-5.03,15.65-.2.39-.4.76-.6,1.11l-.3.51-.07.12-.08.03-.16.05c-.44.11-.87.08-1.3-.04-.86-.24-1.7-.88-2.52-1.63-1.64-1.5-3.18-3.5-4.61-3.62-1.43-.1-2.74,1.65-4,8.05l1.01,21.71c1.35-6.84,2.73-8.98,4.24-9.24.75-.12,1.53.23,2.33.76.4.26.81.57,1.22.89l.31.24c.05.04.11.09.16.11l.14-.16.55-.64c1.48-1.65,3.09-3.11,4.81-5.96.86-1.43,1.74-3.22,2.64-5.58.45-1.19.9-2.51,1.36-4.02.46-1.54.93-3.26,1.39-5.19"/>
          <path class="cls-1" d="M371.23,497.75c1.28,21.69,2.69,42.68,4.24,62.96.93,7.29,1.91,14.34,2.94,21.13.51,3.4,1.04,6.73,1.58,10l.1.61.03.15s.01.02.02.03l.04.05.16.22.31.45.64.97c1.71,2.72,3.64,6.24,5.76,10.62l-4.81-20.72-.32-.58s-.06-.23-.09-.44l-.1-.61-.21-1.22-.81-4.95-1.57-10.16c-1.02-6.89-1.99-14.03-2.92-21.4-1.85-14.75-3.52-30.46-4.99-47.13Z"/>
          <path class="cls-1" d="M375.18,645.3c.39-5.97.75-12.14,1.09-18.5l.48-9.68.23-4.95.11-2.5.05-1.26.03-.63v-.33s.01-.64.01-.64c1.07-50.13,1.39-96.51.98-139.11.69,23.02,1.24,46.8,1.63,71.34-.08,11.68-.21,23.61-.39,35.78l-.3,18.44-.09,4.67c0,.23-.01.33-.02.44l-.02.34-.04.67-.09,1.34-.36,5.29c-.98,14-2.08,27.1-3.31,39.3Z"/>
          <polygon class="cls-1" points="379.62 604.52 380.5 600.61 377.33 532.88 376.6 536.04 379.62 604.52"/>
          <polygon class="cls-1" points="380.48 600.33 381.39 596.98 381 587.67 380.1 568.28 378.27 529.63 377.49 531.58 379.22 570.69 380.48 600.33"/>
          <polygon class="cls-1" points="376.64 536.67 375.87 538.6 377.4 578.73 378.52 609.09 379.41 605.69 378.27 576.35 376.64 536.67"/>
        </g>
        <g>
          <path class="cls-1" d="M388.49,456.23c1.19-6.05,2.6-8.28,4.2-9.05,1.6-.76,3.39-.03,5.28.2,1.89.24,3.87-.01,5.81-2.47,1.93-2.44,3.82-7.1,5.42-15.23l2.85,12.37c-1.7,8.63-3.67,13.72-5.67,16.55-2.01,2.85-4.07,3.46-6.02,3.57-1.96.12-3.82-.25-5.49.88-1.68,1.14-3.16,3.77-4.44,10.27"/>
          <path class="cls-1" d="M396.17,524.16c1.7-7.97,2.89-17.35,3.68-27.68.09-1.31.19-2.61.28-3.9.09-1.31.17-2.61.23-4.04.12-2.84.23-5.64.35-8.4.2-5.61.33-11.22.45-16.71.23-10.98.36-21.47.73-30.72.37-9.26.98-17.26,2.24-23.66l2.84,12.43c-1.35,6.84-2.03,15.23-2.47,24.86-.22,4.81-.38,9.92-.52,15.25-.15,5.5-.29,10.94-.43,16.41-.34,11.05-.85,22.03-1.78,32.22-.23,2.54-.49,5.05-.77,7.47-.28,2.4-.59,4.74-.93,6.99-.68,4.52-1.47,8.74-2.4,12.59"/>
          <path class="cls-1" d="M413.91,327.06c-1.19,6.05-1.54,12.76-1.57,20.25-.02,7.47.29,15.71.51,24.44.22,8.72.34,17.93-.01,27.1-.35,9.15-1.18,18.3-2.78,26.42l2.91,12.1c1.7-8.63,2.61-18.2,3.04-27.74.43-9.56.38-19.13.23-28.19-.15-9.08-.39-17.65-.3-25.5.1-7.86.53-14.96,1.81-21.47"/>
          <path class="cls-1" d="M429.72,357.64c-1.66,8.46-3.8,14.42-6.09,18.64-2.28,4.24-4.71,6.76-7.05,8.78-2.33,2.03-4.57,3.57-6.52,6.1-1.95,2.55-3.61,6.07-4.87,12.47l2.92,12.05c1.35-6.84,3.08-10.75,5.11-13.66,2.02-2.9,4.33-4.77,6.73-7.15,2.4-2.37,4.9-5.24,7.26-9.87,2.36-4.61,4.58-10.99,6.34-19.93"/>
          <path class="cls-1" d="M393.38,385.18c3.27,11.56,6.68,22.41,10.22,32.57,7.12,11.89,15.03,19.77,23.73,23.64-4.35-5.82-8.54-12.44-12.58-19.86-7.88-8.28-15.01-20.4-21.37-36.36Z"/>
          <path class="cls-1" d="M414.23,499.13l-1.15-14.13-1.23-13.94c-.84-9.19-1.72-18.17-2.64-26.94-2.1-34.06-4.93-64.35-8.51-90.88,2.57,13.48,5,27.71,7.27,42.7,1.43,15.26,2.67,31.5,3.72,48.72.52,8.61,1,17.46,1.43,26.56l.6,13.83c.19,4.66.38,9.45.51,14.07Z"/>
          <polygon class="cls-1" points="413.67 443.92 414.61 439.66 404.16 396.53 403.4 399.89 413.67 443.92"/>
          <polygon class="cls-1" points="414.52 439.31 415.62 435.72 405.22 392.73 404.29 395.41 414.52 439.31"/>
          <polygon class="cls-1" points="403.49 400.22 402.58 402.87 412.41 448.8 413.5 445.26 403.49 400.22"/>
        </g>
        <g>
          <path class="cls-1" d="M413.92,327.05c1.19-6.05,2.94-10.05,5.07-13.47,2.12-3.41,4.61-6.22,7.2-9.53,2.58-3.3,5.26-7.09,7.72-12.19,2.45-5.09,4.69-11.52,6.29-19.65l4.75,2.71c-1.7,8.63-4.02,15.49-6.54,20.97-2.53,5.5-5.28,9.64-7.93,13.29-2.65,3.66-5.21,6.81-7.4,10.59-2.2,3.79-4.03,8.18-5.31,14.69"/>
          <path class="cls-1" d="M429.72,357.62c1.66-8.46,2.4-17.13,2.58-25.41.18-8.3-.19-16.24-.66-23.68-.47-7.45-1.03-14.4-1.19-21-.15-6.61.11-12.84,1.37-19.24l4.74,2.77c-1.35,6.84-1.68,13.46-1.6,20.44.08,6.96.58,14.26.98,22.06.4,7.79.7,16.09.44,24.78-.26,8.67-1.08,17.77-2.84,26.71"/>
          <path class="cls-1" d="M441.57,186.52c-3.01,15.3-1.53,27.43-.12,39.93.35,3.13.7,6.28.97,9.5.14,1.61.25,3.25.34,4.91.04.83.07,1.67.11,2.51.03.8.06,1.61.09,2.43.17,6.5-.31,13.88-1.91,22.01l4.81,2.44c1.7-8.63,2.27-16.43,2.17-23.32-.1-6.88-.78-13.22-1.49-19.47-1.41-12.5-2.89-24.63.12-39.93"/>
          <path class="cls-1" d="M462.58,190.65c-3.2,16.28-9.32,27.7-15.37,38.77-1.51,2.77-3.02,5.51-4.47,8.3-1.45,2.76-2.89,5.77-4.1,8.23-2.47,5.2-4.48,10.49-5.74,16.88l4.82,2.39c1.35-6.84,3.43-12.51,5.98-18.08,1.26-2.73,2.68-5.65,4.14-8.43,1.46-2.79,2.96-5.53,4.48-8.3,6.05-11.06,12.17-22.49,15.37-38.77"/>
          <path class="cls-1" d="M415.54,272.62c5.26,1.43,10.67,2.15,16.21,2.18,5.26-2.7,10.72-6.4,16.37-11.1,2.83-2.35,5.7-4.95,8.63-7.8,1.46-1.43,2.94-2.91,4.43-4.47l2.24-2.37c.37-.39.76-.84,1.12-1.19l1.09-1.01c-.77.43-1.53.78-2.31,1.28l-2.35,1.47c-1.56.96-3.11,1.86-4.66,2.72-3.08,1.71-6.13,3.22-9.13,4.53-11.3,9.1-21.85,14.36-31.63,15.77Z"/>
          <path class="cls-1" d="M451.98,307.54c-3.42-9.53-7.01-18.23-10.75-26.09-2.63-8.99-5.45-17.04-8.45-24.15-1.5-3.55-3.05-6.87-4.64-9.96-.8-1.54-1.6-3.02-2.42-4.45l-1.24-2.09-.31-.51c-.05-.09-.11-.16-.16-.26l-.14-.34-.56-1.35c.53.65,1.04,1.35,1.57,1.96.55.51,1.1,1.04,1.65,1.58,1.09,1.08,2.18,2.2,3.26,3.37,2.15,2.34,4.27,4.88,6.34,7.6,6.05,14.32,11.34,32.54,15.85,54.68Z"/>
          <polygon class="cls-1" points="447.27 273.17 448.25 268.72 431 260.19 430.2 263.73 447.27 273.17"/>
          <path class="cls-1" d="M448.1,268.66l1.25-4.32c-5.71-2.94-11.44-5.78-17.19-8.52l-1.08,3.42c5.69,3.04,11.36,6.18,17.02,9.42Z"/>
          <path class="cls-1" d="M430.35,263.77l-1.06,3.37c5.56,3.71,11.1,7.53,16.61,11.45l1.24-4.27c-5.58-3.62-11.18-7.14-16.79-10.56Z"/>
        </g>
        <g>
          <path class="cls-1" d="M441.58,186.51c6.02-30.6,23.87-42.66,30.48-76.24l5.09,1c-6.61,33.58-24.45,45.64-30.48,76.24"/>
          <path class="cls-1" d="M462.58,190.64c6.41-32.55-5.32-51.57.51-81.23l5.09,1c-5.84,29.66,5.9,48.68-.51,81.23"/>
          <path class="cls-1" d="M473.64,23.6c-6.02,30.6,5.93,48.52-.68,82.11l5.09,1c6.61-33.58-5.34-51.51.69-82.1"/>
          <path class="cls-1" d="M494.64,27.74c-6.41,32.55-24.47,45.71-30.3,75.37l5.09,1c5.84-29.66,23.91-42.81,30.31-75.37"/>
          <polygon class="cls-1" points="444.7 124.43 462.93 116.34 497.69 83.93 479.26 93.8 444.7 124.43"/>
          <polygon class="cls-1" points="485.81 135.66 473.28 118.58 455.37 75.44 467.92 91.33 485.81 135.66"/>
          <polygon class="cls-1" points="479.58 108.99 480.53 104.73 462.37 100.79 461.43 105.06 479.58 108.99"/>
          <polygon class="cls-1" points="480.37 104.71 481.59 100.51 463.72 95.49 462.49 99.69 480.37 104.71"/>
          <polygon class="cls-1" points="461.59 105.04 460.37 109.24 478.25 114.26 479.47 110.07 461.59 105.04"/>
        </g>
      </g>
    </g>
  </g>
</svg>