<?xml version="1.0" encoding="UTF-8"?>
<svg id="Layer_2" data-name="Layer 2" xmlns="http://www.w3.org/2000/svg" viewBox="0 0 924.42 677.94">
  <defs>
    <style>
      .cls-1 {
        fill: #bfbfbf;
        stroke: #000;
        stroke-linecap: round;
        stroke-width: 2.5px;
      }
    </style>
  </defs>
  <g id="Layer_2-2" data-name="Layer 2">
    <g>
      <g>
        <g>
          <path class="cls-1" d="M23.15,1.25c18.89,27.37,15.64,49.4,36.36,79.44l-4.27,2.95C34.51,53.6,37.76,31.57,18.87,4.2"/>
          <path class="cls-1" d="M5.53,13.41c20.09,29.11,42.51,34.88,60.82,61.41l-4.27,2.95C43.77,51.23,21.34,45.47,1.25,16.36"/>
          <path class="cls-1" d="M123.69,146.95c-18.89-27.37-40.64-32.15-61.37-62.18l-4.27,2.95c20.73,30.03,42.47,34.82,61.36,62.19"/>
          <path class="cls-1" d="M106.07,159.11c-20.09-29.11-17.52-52.12-35.83-78.65l-4.27,2.95c18.31,26.53,15.73,49.54,35.82,78.65"/>
          <polygon class="cls-1" points="67.74 50.16 61.25 69.49 61.65 119.1 66.94 98.29 67.74 50.16"/>
          <polygon class="cls-1" points="30.89 71.6 52.41 75.32 97.27 94.73 76.63 91.9 30.89 71.6"/>
          <polygon class="cls-1" points="55.28 87.11 57.84 91 73.34 80.76 70.78 76.87 55.28 87.11"/>
          <polygon class="cls-1" points="57.96 90.9 60.28 94.94 76.4 85.72 74.09 81.68 57.96 90.9"/>
          <polygon class="cls-1" points="70.68 77 68.36 72.96 52.23 82.18 54.55 86.22 70.68 77"/>
        </g>
        <g>
          <path class="cls-1" d="M123.7,146.96c18.89,27.37,15.64,49.4,36.36,79.44l-4.27,2.95c-20.73-30.04-17.48-52.06-36.37-79.43"/>
          <path class="cls-1" d="M106.08,159.12c20.09,29.11,42.51,34.88,60.82,61.41l-4.27,2.95c-18.31-26.53-40.73-32.29-60.83-61.4"/>
          <path class="cls-1" d="M224.24,292.66c-18.89-27.37-40.64-32.15-61.37-62.18l-4.27,2.95c20.73,30.03,42.47,34.82,61.36,62.19"/>
          <path class="cls-1" d="M206.62,304.82c-20.09-29.11-17.52-52.12-35.83-78.65l-4.27,2.95c18.31,26.53,15.73,49.54,35.82,78.65"/>
          <polygon class="cls-1" points="168.29 195.87 161.8 215.2 162.2 264.81 167.49 244 168.29 195.87"/>
          <polygon class="cls-1" points="131.44 217.3 152.96 221.03 197.82 240.44 177.18 237.61 131.44 217.3"/>
          <rect class="cls-1" x="155.57" y="227.32" width="18.58" height="4.66" transform="translate(-99.15 128.58) rotate(-33.38)"/>
          <rect class="cls-1" x="158.44" y="231.69" width="18.58" height="4.66" transform="translate(-94.19 114.46) rotate(-29.83)"/>
          <polygon class="cls-1" points="171.23 222.71 168.91 218.67 152.78 227.89 155.1 231.93 171.23 222.71"/>
        </g>
        <g>
          <path class="cls-1" d="M224.25,292.67c18.89,27.37,15.64,49.4,36.36,79.44l-4.27,2.95c-20.73-30.04-17.48-52.06-36.37-79.43"/>
          <path class="cls-1" d="M206.63,304.83c20.09,29.11,42.51,34.88,60.82,61.41l-4.27,2.95c-18.31-26.53-40.73-32.29-60.83-61.4"/>
          <path class="cls-1" d="M324.79,438.37c-18.89-27.37-40.64-32.15-61.37-62.18l-4.27,2.95c20.73,30.03,42.47,34.82,61.36,62.19"/>
          <path class="cls-1" d="M307.17,450.52c-20.09-29.11-17.52-52.12-35.83-78.65l-4.27,2.95c18.31,26.53,15.73,49.54,35.82,78.65"/>
          <polygon class="cls-1" points="268.84 341.58 262.35 360.91 262.75 410.52 268.04 389.71 268.84 341.58"/>
          <polygon class="cls-1" points="232 363.01 253.51 366.74 298.37 386.14 277.73 383.32 232 363.01"/>
          <polygon class="cls-1" points="256.38 378.53 258.94 382.42 274.45 372.18 271.88 368.29 256.38 378.53"/>
          <rect class="cls-1" x="259" y="377.4" width="18.58" height="4.66" transform="translate(-153.35 183.79) rotate(-29.83)"/>
          <polygon class="cls-1" points="271.78 368.42 269.46 364.38 253.33 373.6 255.65 377.64 271.78 368.42"/>
        </g>
        <g>
          <path class="cls-1" d="M324.8,438.38c18.89,27.37,15.64,49.4,36.36,79.44l-4.27,2.95c-20.73-30.04-17.48-52.06-36.37-79.43"/>
          <path class="cls-1" d="M307.18,450.53c20.09,29.11,42.51,34.88,60.82,61.41l-4.27,2.95c-18.31-26.53-40.73-32.29-60.83-61.4"/>
          <path class="cls-1" d="M422.37,579.76c-3.74-5.41-7.66-9.43-11.97-13.16-.55-.46-1.09-.93-1.63-1.38-.26-.2-.59-.51-.9-.79l-.95-.85c-1.27-1.12-2.54-2.21-3.82-3.28-2.56-2.14-5.14-4.22-7.74-6.31-10.39-8.37-21.01-17.07-31.37-32.09l-4.27,2.95c10.36,15.02,20.98,23.72,31.37,32.09,2.6,2.09,5.18,4.17,7.74,6.31,1.28,1.07,2.56,2.16,3.82,3.28,1.18,1.04,2.37,2.09,3.58,3.17,4.53,4.06,8.7,8.44,12.72,14.26"/>
          <path class="cls-1" d="M408.27,597.02c-5.22-7.56-9.11-14.87-12.03-21.61-2.89-6.69-5.01-13.11-7.09-19.47-4.16-12.71-8.09-25.09-17.25-38.35l-4.27,2.95c9.15,13.26,13.09,25.65,17.24,38.36,1.04,3.18,2.09,6.37,3.24,9.61.58,1.62,1.18,3.25,1.81,4.89.65,1.66,1.27,3.24,2.09,5.05,3.16,7.09,7.31,14.77,12.83,22.77"/>
          <polygon class="cls-1" points="369.39 487.28 362.9 506.61 363.3 556.23 368.6 535.42 369.39 487.28"/>
          <polygon class="cls-1" points="332.55 508.72 354.06 512.45 398.92 531.85 378.28 529.03 332.55 508.72"/>
          <rect class="cls-1" x="356.67" y="518.73" width="18.58" height="4.66" transform="translate(-226.3 287.28) rotate(-33.38)"/>
          <rect class="cls-1" x="359.55" y="523.11" width="18.58" height="4.66" transform="translate(-212.5 253.09) rotate(-29.83)"/>
          <polygon class="cls-1" points="372.33 514.12 370.01 510.08 353.88 519.31 356.2 523.35 372.33 514.12"/>
        </g>
        <g>
          <path class="cls-1" d="M422.37,579.77c2.79,4.04,4.98,8.15,6.93,12.48,1.95,4.33,3.64,8.89,5.36,13.71,2.88,8.09,5.83,16.96,9.77,26.28,3.92,9.29,8.87,19.09,15.17,28.22l-.44,7.12c-3.31-4.6-6.33-9.24-9.03-13.95-1.35-2.36-2.63-4.73-3.84-7.11-1.2-2.42-2.31-4.92-3.37-7.34-4.23-9.74-7.44-18.98-10.6-27.47-1.88-5.05-3.74-9.85-5.87-14.44-2.13-4.59-4.51-8.97-7.51-13.32"/>
          <path class="cls-1" d="M408.27,597.03c7.36,10.67,14.49,17.69,20.83,22.6,5.91,4.62,11.23,7.54,16.2,10.94,4.99,3.44,9.61,7.33,14.72,14.73l-.55,8.34c-5.46-7.91-10.38-12.24-15.66-16.09-5.26-3.8-10.82-7.2-17.05-12.17-6.66-5.36-14.14-12.89-21.92-24.16"/>
          <path class="cls-1" d="M505.67,591.62c-3.72,5.42-6.5,11.14-9.08,17.42-2.57,6.27-4.94,13.07-7.61,20.32-2.66,7.24-5.63,14.92-9.25,22.7-.9,1.95-1.85,3.9-2.83,5.84-.5.96-1,1.93-1.51,2.92-.5.98-1.06,1.93-1.77,2.75-.73.79-1.55,1.48-2.48,1.97-.93.47-1.93.78-2.96.88-2.04.16-4.21-.52-5.74-2.12l-.29,7.18c1.62,1.62,3.89,2.34,6.04,2.27,1.08-.06,2.14-.32,3.12-.75.98-.44,1.85-1.08,2.62-1.82.75-.77,1.34-1.67,1.88-2.6.55-.94,1.08-1.86,1.62-2.77,1.05-1.88,2.08-3.66,3.05-5.64,3.86-8.14,7.04-16.13,9.92-23.68,2.89-7.56,5.46-14.67,8.27-21.27,2.81-6.61,5.83-12.68,9.83-18.52"/>
          <path class="cls-1" d="M517.28,612.54c-5.2,7.58-10.22,13.2-14.84,17.39-4.61,4.28-8.87,7.07-12.8,9.47-3.94,2.39-7.58,4.34-11.16,7.04-.9.68-1.79,1.4-2.68,2.19-.93.75-1.67,1.78-2.95,2.41-2.45,1.36-6.47,1.15-9.2-1.08l-.3,8.66c2.93,2.38,7.22,2.58,9.83,1.08.36-.15.62-.4.93-.59.27-.23.54-.45.78-.69.48-.48.96-.94,1.44-1.38.95-.88,1.9-1.69,2.86-2.44,1.9-1.52,3.81-2.83,5.77-4.11,1.95-1.3,3.98-2.44,6.01-4.05,4.08-3.02,8.55-6,13.46-10.41,4.92-4.34,10.18-10.4,15.68-18.41"/>
          <path class="cls-1" d="M453.98,609.87c.33,10.06,1.1,20.75,2.29,32.06,1.35,6.04,2.85,12.31,4.51,18.8.41,1.63.83,3.27,1.34,4.86.54,1.56,1.14,3.1,1.87,4.47.34.81.74,1.12,1.13,1.62.39.45.81.85,1.22,1.25.84.74,1.71,1.42,2.59,1.91,1.76,1.06,3.49,1.54,4.93,1.72,1.48.19,2.41-.06,3.59-.09,1.14-.06,2.31-.08,3.51-.05l3.75.13-5.36-3.7c-.83-.56-1.64-1.08-2.43-1.57-.79-.5-1.51-.92-2.34-1.41-.31-.02-.59,0-.93-.06-.34-.14-.67-.43-1.04-.71l-.54-.43-.57-.49c-.37-.31-.77-.71-1.16-1.08-1.56-1.55-3.18-3.62-4.58-6.04-1.42-2.42-2.61-5.29-3.43-8.35-.79-3.08-1.46-6.19-2.14-9.19-2.66-12.07-4.73-23.28-6.21-33.64Z"/>
          <path class="cls-1" d="M442.46,664.03c4.62-2.24,8.58-4.27,12.07-5.99,2.29-.48,4.44-1.16,6.44-2.06.5-.22.99-.46,1.53-.75.58-.34,1.19-.71,1.89-1.24,1.37-1.01,2.92-2.51,4.38-4.45,1.46-1.91,2.8-4.33,3.82-7.01,1.05-2.68,1.59-5.72,2.28-8.54,1.3-5.71,2.46-11.21,3.47-16.5-1.02,10.51-2.43,21.76-4.45,33.58-.92,3.01-2.3,5.68-3.85,7.92-1.56,2.18-3.31,3.95-4.9,5.1-.82.62-1.55,1.03-2.26,1.41-.68.33-1.28.56-1.82.72l-.82.24c-.27-.03-.54-.15-.81-.21-.54-.15-1.1-.29-1.66-.42-2.23-.51-4.61-.88-7.15-1.15-2.52-.22-5.26-.48-8.15-.63Z"/>
          <path class="cls-1" d="M460.73,671.92c.89,1.28,2.04,2.4,3.47,3.12l.21-4.86.28-7.76.53-15.54c-1.19-.59-2.19-1.53-2.91-2.67l-.83,15.14-.73,12.57Z"/>
          <path class="cls-1" d="M464.19,674.88c1.41.83,3.03,1.25,4.62,1.29l.37-4.71.31-7.87c.19-5.26.36-10.49.49-15.75-1.26.1-2.61-.17-3.84-.77l-.94,15.36-.52,7.63-.07.88-.06.56-.12,1.13-.24,2.25Z"/>
          <polygon class="cls-1" points="462.3 644.5 460.13 640.68 458.71 654.91 457.96 661.98 457.79 663.51 457.64 664.68 457.33 667.02 460.04 671.12 460.54 666.4 461.15 659.14 462.3 644.5"/>
        </g>
        <g>
          <path class="cls-1" d="M505.68,591.61c3.72-5.42,7.53-9.29,11.65-12.79,4.12-3.48,8.54-6.58,13.27-10.11l.89-.67c.29-.21.6-.45.93-.73.65-.53,1.3-1.06,1.95-1.6,1.3-1.07,2.61-2.16,3.91-3.28,2.61-2.23,5.23-4.58,7.85-7.14,5.24-5.11,10.47-11.06,15.63-18.58l4.28,2.94c-5.16,7.52-10.39,13.47-15.63,18.58-2.62,2.56-5.24,4.91-7.85,7.14-1.31,1.12-2.61,2.21-3.91,3.28-1.3,1.07-2.62,2.15-3.83,3.08-4.94,3.85-9.58,7.25-13.92,11.07-4.35,3.83-8.4,8.05-12.4,13.88"/>
          <path class="cls-1" d="M517.28,612.53c5.2-7.58,9.18-15.06,12.26-22.05,3.08-7.01,5.27-13.55,7.15-19.65,4.12-12.72,8.03-25.11,17.15-38.4l4.28,2.94c-9.12,13.29-13.02,25.68-17.14,38.4-2.09,6.41-4.5,13.27-7.82,20.62-3.31,7.34-7.55,15.2-13.05,23.21"/>
          <path class="cls-1" d="M600.72,453.1c-18.81,27.42-15.51,49.44-36.16,79.53l4.28,2.94c20.65-30.09,17.35-52.11,36.16-79.53"/>
          <path class="cls-1" d="M618.38,465.21c-20.01,29.17-42.42,34.99-60.66,61.56l4.28,2.94c18.24-26.58,40.65-32.39,60.66-61.56"/>
          <polygon class="cls-1" points="530.31 539.94 550.69 539.1 596.88 521 575.55 523.49 530.31 539.94"/>
          <polygon class="cls-1" points="563.5 566.7 559.29 545.27 561.39 496.44 566.12 516.72 563.5 566.7"/>
          <rect class="cls-1" x="560.76" y="521.79" width="4.66" height="18.58" transform="translate(-196.75 678.59) rotate(-54.31)"/>
          <rect class="cls-1" x="563.82" y="517.54" width="4.66" height="18.58" transform="translate(-200 632.12) rotate(-50.76)"/>
          <polygon class="cls-1" points="554.33 527.61 551.39 531.22 565.76 542.99 568.71 539.38 554.33 527.61"/>
        </g>
        <g>
          <path class="cls-1" d="M600.73,453.09c18.81-27.42,40.55-32.25,61.2-62.34l4.28,2.94c-20.65,30.09-42.38,34.93-61.2,62.35"/>
          <path class="cls-1" d="M618.38,465.2c20.01-29.17,17.39-52.17,35.62-78.74l4.28,2.94c-18.24,26.58-15.6,49.58-35.62,78.75"/>
          <path class="cls-1" d="M700.89,307.13c-18.81,27.42-15.51,49.44-36.16,79.53l4.28,2.94c20.65-30.09,17.35-52.11,36.16-79.53"/>
          <path class="cls-1" d="M718.55,319.24c-20.01,29.17-42.42,34.99-60.66,61.56l4.28,2.94c18.24-26.58,40.65-32.39,60.66-61.56"/>
          <polygon class="cls-1" points="630.48 393.97 650.85 393.13 697.05 375.03 675.72 377.52 630.48 393.97"/>
          <polygon class="cls-1" points="663.67 420.72 659.46 399.3 661.56 350.47 666.29 370.75 663.67 420.72"/>
          <rect class="cls-1" x="660.93" y="375.81" width="4.66" height="18.58" transform="translate(-36.44 699.17) rotate(-54.31)"/>
          <rect class="cls-1" x="663.99" y="371.57" width="4.66" height="18.58" transform="translate(-50.14 656.03) rotate(-50.76)"/>
          <polygon class="cls-1" points="654.5 381.64 651.55 385.25 665.93 397.01 668.88 393.41 654.5 381.64"/>
        </g>
        <g>
          <path class="cls-1" d="M700.9,307.12c18.81-27.42,40.55-32.25,61.2-62.34l4.28,2.94c-20.65,30.09-42.38,34.93-61.2,62.35"/>
          <path class="cls-1" d="M718.55,319.23c20.01-29.17,17.39-52.17,35.62-78.74l4.28,2.94c-18.24,26.58-15.6,49.58-35.62,78.75"/>
          <path class="cls-1" d="M801.06,161.16c-18.81,27.42-15.51,49.44-36.16,79.53l4.28,2.94c20.65-30.09,17.35-52.11,36.16-79.53"/>
          <path class="cls-1" d="M818.71,173.27c-20.01,29.17-42.42,34.99-60.66,61.56l4.28,2.94c18.24-26.58,40.65-32.39,60.66-61.56"/>
          <polygon class="cls-1" points="730.65 248 751.02 247.16 797.22 229.05 775.89 231.55 730.65 248"/>
          <polygon class="cls-1" points="763.84 274.75 759.63 253.33 761.73 204.49 766.46 224.78 763.84 274.75"/>
          <rect class="cls-1" x="761.1" y="229.84" width="4.66" height="18.58" transform="translate(123.82 719.66) rotate(-54.31)"/>
          <rect class="cls-1" x="764.16" y="225.6" width="4.66" height="18.58" transform="translate(99.73 679.98) rotate(-50.76)"/>
          <polygon class="cls-1" points="754.67 235.66 751.72 239.27 766.1 251.04 769.05 247.44 754.67 235.66"/>
        </g>
        <g>
          <path class="cls-1" d="M801.07,161.15c18.81-27.42,40.55-32.25,61.2-62.34l4.28,2.94c-20.65,30.09-42.38,34.93-61.2,62.35"/>
          <path class="cls-1" d="M818.72,173.26c20.01-29.17,17.39-52.17,35.62-78.74l4.28,2.94c-18.24,26.58-15.6,49.58-35.62,78.75"/>
          <path class="cls-1" d="M901.23,15.19c-18.81,27.42-15.51,49.44-36.16,79.53l4.28,2.94c20.65-30.09,17.35-52.11,36.16-79.53"/>
          <path class="cls-1" d="M918.88,27.3c-20.01,29.17-42.42,34.99-60.66,61.56l4.28,2.94c18.24-26.58,40.65-32.39,60.66-61.56"/>
          <polygon class="cls-1" points="830.82 102.03 851.19 101.18 897.39 83.08 876.06 85.58 830.82 102.03"/>
          <polygon class="cls-1" points="864.01 128.78 859.8 107.36 861.9 58.52 866.63 78.81 864.01 128.78"/>
          <rect class="cls-1" x="861.27" y="83.87" width="4.66" height="18.58" transform="translate(284.12 740.22) rotate(-54.31)"/>
          <rect class="cls-1" x="864.33" y="79.63" width="4.66" height="18.58" transform="translate(249.6 703.92) rotate(-50.76)"/>
          <polygon class="cls-1" points="854.84 89.69 851.89 93.3 866.27 105.07 869.22 101.46 854.84 89.69"/>
        </g>
      </g>
      <g>
        <g>
          <path class="cls-1" d="M313.21,216.62c12.36,32.69,4.21,54.08,17.78,89.96l-4.85,1.83c-13.57-35.88-5.42-57.27-17.78-89.96"/>
          <path class="cls-1" d="M293.19,224.19c13.15,34.78,33.85,46.6,45.83,78.29l-4.85,1.83c-11.98-31.69-32.69-43.5-45.84-78.28"/>
          <path class="cls-1" d="M379.02,390.67c-12.36-32.69-32.62-43.34-46.19-79.22l-4.85,1.83c13.57,35.88,33.82,46.53,46.18,79.22"/>
          <path class="cls-1" d="M359,398.24c-13.15-34.78-5.45-57.33-17.43-89.02l-4.85,1.83c11.98,31.69,4.27,54.25,17.43,89.03"/>
          <polygon class="cls-1" points="345.94 277.95 335.22 295.73 324.44 345.96 334.31 326.35 345.94 277.95"/>
          <polygon class="cls-1" points="304.96 289.75 325.23 299.26 364.87 330.86 345.26 322.49 304.96 289.75"/>
          <polygon class="cls-1" points="325.39 311.94 327.03 316.55 344.54 310.36 342.91 305.74 325.39 311.94"/>
          <polygon class="cls-1" points="327.17 316.49 328.53 321.19 346.43 316.19 345.07 311.48 327.17 316.49"/>
          <polygon class="cls-1" points="342.78 305.84 341.41 301.14 323.51 306.15 324.87 310.85 342.78 305.84"/>
        </g>
        <g>
          <path class="cls-1" d="M379.03,390.68c6.18,16.35,7.23,29.87,8.44,43.78.3,3.48.61,6.98,1.01,10.56.21,1.73.41,3.49.63,5.28.21,1.72.47,3.48.77,5.3,1.21,7.24,3.25,15.31,6.54,24l-4.16,3.67c-3.48-9.22-5.7-17.75-7.07-25.41-.7-3.86-1.15-7.4-1.56-11.01-.4-3.58-.71-7.08-1.01-10.56-1.21-13.92-2.26-27.44-8.44-43.78"/>
          <path class="cls-1" d="M359,398.25c6.58,17.39,15.04,29.04,23.35,40.3,8.61,12.05,15.77,20.25,20.93,33.9l-4.18,3.62c-2.76-7.3-6-13.18-9.66-18.83-1.83-2.83-3.75-5.55-5.77-8.4-2.03-2.85-4.1-5.64-6.18-8.46-8.32-11.26-16.78-22.91-23.36-40.3"/>
          <path class="cls-1" d="M435.41,539.79c-2.45-6.47-5-10.54-7.79-13.91-2.79-3.35-5.81-5.97-9.03-9.11-3.21-3.13-6.63-6.79-10.1-11.96-3.47-5.14-7.01-11.82-10.29-20.5l-4.05,3.96c3.48,9.22,7.2,16.35,10.82,21.92,3.63,5.58,7.19,9.62,10.54,13.13,3.36,3.52,6.52,6.51,9.45,10.25,2.94,3.76,5.66,8.26,8.29,15.21"/>
          <path class="cls-1" d="M426.6,576.54c-3.48-8.75-6.05-18.18-7.98-27.34-1.94-9.16-3.27-18.03-4.39-26.37-1.13-8.35-2.06-16.17-3.31-23.5-1.26-7.35-2.84-14.21-5.42-21.04l-4.03,4.02c2.76,7.3,4.5,14.57,5.9,22.32,1.4,7.73,2.47,15.92,3.74,24.64,1.26,8.71,2.73,17.97,4.83,27.54,2.07,9.61,4.85,19.41,8.62,28.27"/>
          <path class="cls-1" d="M410.49,448.65c-3.79,5.37-7.29,11.48-10.51,18.34-3.3,17.52-4.98,39.32-5.04,65.41,1.48-11.34,3.28-21.82,5.4-31.45,1.83-21.54,5.21-38.97,10.15-52.3Z"/>
          <path class="cls-1" d="M371.29,465.16c6.92,3.6,13.5,6.31,19.74,8.13,12.36,8.28,23.2,12.53,32.52,12.76-4.61,2.3-9.53,3.78-14.76,4.46-10.92-4.27-23.42-12.72-37.5-25.35Z"/>
          <polygon class="cls-1" points="391.82 487.63 393.56 492.51 407.97 478.1 406.6 474.19 391.82 487.63"/>
          <path class="cls-1" d="M393.67,492.37l1.52,5.11c4.83-4.67,9.62-9.45,14.37-14.33l-1.15-4.16c-4.87,4.57-9.78,9.03-14.74,13.38Z"/>
          <path class="cls-1" d="M406.49,474.35l-1.14-4.09c-5.14,3.85-10.33,7.58-15.55,11.21l1.49,5.05c5.11-3.95,10.17-8,15.19-12.17Z"/>
        </g>
        <g>
          <path class="cls-1" d="M435.41,539.8c2.45,6.47,4.21,13.82,5.83,22.12,1.61,8.28,3.05,17.47,4.7,27.18,1.64,9.7,3.48,19.93,5.77,30.02,2.29,10.07,5.04,20.03,8.32,28.72l-.19,10.29c-1.72-4.38-3.31-8.7-4.8-13.07-.74-2.18-1.46-4.38-2.15-6.58-.34-1.12-.68-2.22-1.01-3.31-.16-.56-.33-1.11-.49-1.66l-.24-.83c-.08-.28-.16-.64-.23-.96-2.45-10.51-4.43-21.12-6.21-31.19-1.78-10.08-3.37-19.64-5.13-28.31-1.76-8.69-3.69-16.47-6.32-23.42"/>
          <path class="cls-1" d="M426.6,576.56c1.73,4.34,3.45,8.04,5.1,11.19,1.65,3.15,3.25,5.81,4.77,8.16.38.57.75,1.14,1.13,1.71.37.55.73,1.12,1.12,1.5.75.84,1.49,1.58,2.22,2.24,1.45,1.33,2.85,2.34,4.2,3.23,2.7,1.78,5.2,3.03,7.64,5.45,2.44,2.43,4.8,6,7.39,12.83l-.28,13.94c-2.76-7.3-5.28-11.29-7.87-14.11-1.29-1.4-2.6-2.51-3.94-3.53-.67-.51-1.35-1-2.03-1.5l-.52-.38c-.09-.07-.17-.12-.26-.19l-.25-.33-1-1.32c-2.68-3.46-5.62-6.79-8.85-11.25-1.63-2.29-3.34-4.88-5.11-7.96-1.77-3.1-3.63-6.82-5.5-11.15"/>
          <path class="cls-1" d="M490.33,547.35c-2.43,6.47-4.23,13.94-5.88,22.39-1.65,8.44-3.16,17.84-4.86,27.76-1.7,9.91-3.6,20.36-5.93,30.61-1.17,5.12-2.44,10.19-3.83,15.07-.7,2.44-1.42,4.84-2.18,7.16-.34,1.18-1.18,2.17-2.27,2.56-1.07.38-2.33.21-3.21-.56l-.09,10.33c.92.78,2.23.98,3.35.65,1.13-.35,2.02-1.27,2.37-2.37.8-2.16,1.56-4.32,2.31-6.48.74-2.16,1.46-4.33,2.15-6.5.34-1.1.68-2.19,1.02-3.27.17-.55.33-1.1.5-1.64l.24-.82c.08-.28.16-.65.24-.97,2.49-10.67,4.53-21.49,6.37-31.77,1.84-10.3,3.49-20.06,5.29-28.89,1.81-8.85,3.76-16.73,6.37-23.69"/>
          <path class="cls-1" d="M498.26,586.07c-3.46,8.64-6.74,14.55-9.68,19.32-.37.59-.73,1.17-1.1,1.74-.36.56-.71,1.15-1.09,1.5-.74.8-1.46,1.49-2.16,2.11-1.41,1.23-2.77,2.15-4.08,2.93-2.62,1.58-5.04,2.63-7.41,4.89-1.19,1.13-2.36,2.58-3.56,4.58-.6,1-1.2,2.15-1.82,3.47-.14.34-.34.66-.6.96-.29.27-.62.52-1.03.67-.8.31-1.78.29-2.62-.08l-.07,14.3c.9.39,1.94.41,2.8.08.43-.16.79-.43,1.1-.73.28-.32.49-.67.64-1.04.66-1.43,1.3-2.69,1.94-3.8,1.28-2.22,2.53-3.86,3.79-5.19,1.26-1.33,2.53-2.34,3.83-3.27.65-.46,1.31-.91,1.98-1.36l.5-.34c.08-.06.17-.11.25-.18l.24-.35.97-1.37c1.31-1.82,2.66-3.58,4.08-5.45,1.41-1.86,2.9-3.82,4.48-6.11,1.58-2.29,3.22-4.8,4.95-7.87,1.74-3.11,3.55-6.62,5.42-10.91"/>
          <path class="cls-1" d="M455.96,568.92c.31,16.19.89,33.13,1.77,50.82.92,9,1.94,18.26,3.07,27.79.3,2.37.48,4.84,1.1,7.07.58,2.25,1.43,4.24,2.33,5.88.45,1.06.9.94,1.33,1.18.43.16.83.21,1.18.23.73.02,1.04-.27,1.36-.47,2.68-1.72,5.46-2.32,8.71-2.18-1.18-1.43-2.3-2.68-3.36-3.75-1.04-1.08-2.04-1.97-3-2.65l-.48.24c-.04.07-.08-.06-.12-.15l-.13-.28-.25-.57c-.33-.77-.66-1.55-.99-2.35l-.95-2.45c-.32-.83-.92-1.8-1.64-3.05-1.46-2.48-3.35-6.2-4.12-10.72-.38-2.25-.55-4.59-.81-6.86l-.7-6.8c-1.82-18-3.25-34.97-4.29-50.92Z"/>
          <path class="cls-1" d="M449.78,652.51c1.28-1.25,2.51-2.32,3.67-3.19.58-.44,1.15-.82,1.7-1.16.28-.17.55-.33.81-.47l.4-.21.2-.1.1-.05s.03,0,.05-.03l.05-.2c1.47-2.23,2.84-4.7,4.11-7.43.35-.7.54-1.32,1.12-2.19.56-.86,1.35-1.96,2.16-3.41.8-1.42,1.61-3.17,2.2-5.16.63-1.97.87-4.24,1.11-6.42,1.98-17.54,3.59-34.08,4.82-49.61-.54,16.01-1.39,32.83-2.54,50.46l-1.57,13.45c-.29,2.27-.52,4.58-.87,6.86-.38,2.27-1.12,4.35-1.96,6.1-.85,1.73-1.81,3.15-2.61,4.19-.83,1.08-1.38,1.75-1.7,2.36l-.53.92c-.02.06-.04.03-.06.01l-.06-.06-.13-.11-.26-.22c-.34-.29-.69-.57-1.04-.83-1.4-1.05-2.83-1.83-4.35-2.41-1.53-.59-3.13-.95-4.8-1.08Z"/>
          <path class="cls-1" d="M460.9,662.91c.27.75.69,1.47,1.38,1.95.66.49,1.51.73,2.34.69l.09-5.24.07-12.82.1-25.66c-1.35.16-2.82-.75-3.27-2.15l-.71,43.24Z"/>
          <path class="cls-1" d="M464.61,665.39c.82.02,1.64-.21,2.25-.68.63-.46.94-1.14,1.21-1.8l.07-5.31-.07-12.96-.19-25.79-.73,1.38c-.24.46-.71.83-1.3.98-.13,8.63-.3,17.21-.5,25.81l-.34,12.86-.02.8c0,.26-.01.6-.02.63l-.05.59-.1,1.16-.2,2.33Z"/>
          <polygon class="cls-1" points="461.62 620.13 460.19 615.27 459.41 639.38 458.99 651.37 458.94 652.86 458.9 653.66 458.84 654.82 458.7 657.15 460.46 661.93 460.57 659.71 460.63 658.6 460.65 658.05 460.69 656.95 461.01 644.72 461.62 620.13"/>
        </g>
        <g>
          <path class="cls-1" d="M490.33,547.34c2.43-6.47,4.94-10.44,7.67-13.66,2.72-3.2,5.66-5.61,8.79-8.56,3.13-2.93,6.46-6.39,9.87-11.4,3.4-4.99,6.89-11.57,10.16-20.26l3.84,4.52c-3.47,9.22-7.13,16.26-10.68,21.68-3.56,5.43-7.03,9.27-10.3,12.58-3.27,3.32-6.35,6.1-9.22,9.7-2.88,3.61-5.55,8.01-8.16,14.97"/>
          <path class="cls-1" d="M498.26,586.06c3.46-8.66,6.12-17.94,8.09-27.26,1.99-9.31,3.37-18.4,4.56-26.94,1.19-8.56,2.18-16.59,3.48-24.08,1.3-7.51,2.91-14.47,5.48-21.31l3.82,4.58c-2.75,7.31-4.51,14.69-5.96,22.59-1.45,7.89-2.57,16.29-3.91,25.22-1.33,8.9-2.84,18.43-5.01,28.08-2.15,9.7-5.07,19.01-8.81,27.64"/>
          <path class="cls-1" d="M545.69,400.11c-6.15,16.36-7.18,29.88-8.36,43.8-.07.87-.15,1.74-.22,2.62l-.06.65-.03.59-.07,1.2c-.1,1.6-.23,3.24-.38,4.92-.31,3.36-.75,6.88-1.38,10.59-1.26,7.4-3.32,15.58-6.59,24.27l3.95,4.23c3.47-9.22,5.7-17.86,7.12-25.68.71-3.91,1.22-7.64,1.61-11.19.19-1.78.35-3.51.49-5.21.14-1.73.29-3.45.43-5.16,1.18-13.92,2.21-27.44,8.36-43.8"/>
          <path class="cls-1" d="M565.73,407.65c-6.54,17.4-14.98,29.07-23.28,40.34-4.08,5.46-7.89,10.21-11.34,15.33-3.44,5.11-6.47,10.47-9.04,17.31l3.97,4.18c2.75-7.31,5.93-13.08,9.52-18.59,3.58-5.48,7.57-10.69,11.74-16.4,8.3-11.28,16.74-22.94,23.28-40.34"/>
          <path class="cls-1" d="M503.73,486.35c4.6,3.22,9.48,5.7,14.64,7.43,11-2.87,23.6-10.02,37.82-21.47-6.82,2.83-13.33,4.8-19.51,5.92-12.53,6.82-23.52,9.52-32.96,8.12Z"/>
          <path class="cls-1" d="M530.1,536.97c-1.11-11.82-2.56-22.74-4.34-32.77-.98-21.92-3.48-39.81-7.49-53.68,3.3,5.8,6.29,12.41,8.97,19.84,2.52,18.03,3.47,40.23,2.85,66.62Z"/>
          <polygon class="cls-1" points="533.22 496.71 535.1 491.98 520.87 477.06 519.35 480.81 533.22 496.71"/>
          <path class="cls-1" d="M534.98,491.87l2.11-4.5c-4.68-5.07-9.41-10.04-14.17-14.89l-1.75,3.53c4.65,5.18,9.25,10.46,13.82,15.86Z"/>
          <path class="cls-1" d="M519.48,480.9l-1.72,3.49c4.37,5.9,8.71,11.91,13,18.03l2.08-4.44c-4.41-5.8-8.87-11.49-13.36-17.07Z"/>
        </g>
        <g>
          <path class="cls-1" d="M545.69,400.1c12.3-32.72,32.54-43.4,46.04-79.3l4.86,1.83c-13.5,35.91-33.74,46.59-46.04,79.31"/>
          <path class="cls-1" d="M565.73,407.64c13.09-34.8,5.34-57.34,17.27-89.06l4.86,1.83c-11.92,31.71-4.17,54.25-17.26,89.06"/>
          <path class="cls-1" d="M611.18,225.93c-12.3,32.72-4.11,54.09-17.61,89.99l4.86,1.83c13.5-35.9,5.32-57.28,17.62-89.99"/>
          <path class="cls-1" d="M631.22,233.46c-13.09,34.8-33.76,46.66-45.69,78.37l4.86,1.83c11.92-31.71,32.61-43.56,45.69-78.37"/>
          <polygon class="cls-1" points="561.6 332.44 581.4 326.16 622.66 295.56 602.29 303.76 561.6 332.44"/>
          <polygon class="cls-1" points="600.17 350.62 591.23 330.1 582.32 280.2 591.52 299.43 600.17 350.62"/>
          <polygon class="cls-1" points="599.48 320.47 601.3 315.93 584.05 309.01 582.24 313.56 599.48 320.47"/>
          <polygon class="cls-1" points="601.15 315.88 603.23 311.45 586.49 303.39 584.4 307.82 601.15 315.88"/>
          <polygon class="cls-1" points="582.4 313.57 580.32 318.01 597.07 326.06 599.15 321.63 582.4 313.57"/>
        </g>
      </g>
      <g>
        <g>
          <path class="cls-1" d="M480.32,203.65c0,27.84-15.19,41.48-15.19,72.04h-5.19c0-30.56,15.18-44.2,15.18-72.04"/>
          <path class="cls-1" d="M458.91,203.65c0,29.62,15.18,44.25,15.18,71.24h-5.19c0-26.99-15.19-41.62-15.19-71.24"/>
          <path class="cls-1" d="M480.32,351.87c0-27.84-15.19-41.48-15.19-72.04h-5.19c0,30.56,15.18,44.2,15.18,72.04"/>
          <path class="cls-1" d="M458.91,351.87c0-29.62,15.18-44.25,15.18-71.24h-5.19c0,26.99-15.19,41.62-15.19,71.24"/>
          <polygon class="cls-1" points="489.24 258.56 472.92 268.79 445.08 303.17 461.25 291.35 489.24 258.56"/>
          <polygon class="cls-1" points="446.74 255.81 462.33 268.61 488.23 303.32 472.85 291.55 446.74 255.81"/>
          <polygon class="cls-1" points="458 278.1 457.9 282 476.47 282.32 476.57 278.42 458 278.1"/>
          <polygon class="cls-1" points="458.05 281.99 457.67 285.88 476.17 287.19 476.57 283.3 458.05 281.99"/>
          <polygon class="cls-1" points="476.42 278.45 476.8 274.57 458.29 273.25 457.9 277.14 476.42 278.45"/>
        </g>
        <g>
          <path class="cls-1" d="M480.32,351.88c0,27.84-15.19,41.48-15.19,72.04h-5.19c0-30.56,15.18-44.2,15.18-72.04"/>
          <path class="cls-1" d="M458.91,351.88c0,29.62,15.18,44.25,15.18,71.24h-5.19c0-26.99-15.19-41.62-15.19-71.24"/>
          <path class="cls-1" d="M480.32,500.11c0-27.84-15.19-41.48-15.19-72.04h-5.19c0,30.56,15.18,44.2,15.18,72.04"/>
          <path class="cls-1" d="M458.91,500.11c0-29.62,15.18-44.25,15.18-71.24h-5.19c0,26.99-15.19,41.62-15.19,71.24"/>
          <polygon class="cls-1" points="489.24 406.79 472.92 417.03 445.08 451.41 461.25 439.58 489.24 406.79"/>
          <polygon class="cls-1" points="446.74 404.04 462.33 416.84 488.23 451.55 472.85 439.79 446.74 404.04"/>
          <polygon class="cls-1" points="458 426.33 457.9 430.23 476.47 430.55 476.57 426.65 458 426.33"/>
          <polygon class="cls-1" points="458.05 430.22 457.67 434.11 476.17 435.42 476.57 431.54 458.05 430.22"/>
          <polygon class="cls-1" points="476.42 426.69 476.8 422.8 458.29 421.49 457.9 425.37 476.42 426.69"/>
        </g>
        <g>
          <path class="cls-1" d="M480.32,500.12c0,27.84-15.19,41.48-15.19,72.04h-5.19c0-30.56,15.18-44.2,15.18-72.04"/>
          <path class="cls-1" d="M458.91,500.12c0,29.62,15.18,44.25,15.18,71.24h-5.19c0-26.99-15.19-41.62-15.19-71.24"/>
          <path class="cls-1" d="M480.32,648.34c0-27.84-15.19-41.48-15.19-72.04h-5.19c0,30.56,15.18,44.2,15.18,72.04"/>
          <path class="cls-1" d="M458.91,648.34c0-29.62,15.18-44.25,15.18-71.24h-5.19c0,26.99-15.19,41.62-15.19,71.24"/>
          <polygon class="cls-1" points="489.24 555.03 472.92 565.26 445.08 599.64 461.25 587.82 489.24 555.03"/>
          <polygon class="cls-1" points="446.74 552.28 462.33 565.08 488.23 599.79 472.85 588.02 446.74 552.28"/>
          <polygon class="cls-1" points="458 574.57 457.9 578.47 476.47 578.78 476.57 574.89 458 574.57"/>
          <polygon class="cls-1" points="458.05 578.46 457.67 582.34 476.17 583.66 476.57 579.77 458.05 578.46"/>
          <polygon class="cls-1" points="476.42 574.92 476.8 571.03 458.29 569.72 457.9 573.61 476.42 574.92"/>
        </g>
      </g>
    </g>
  </g>
</svg>