<?xml version="1.0" encoding="UTF-8"?>
<svg id="Layer_2" data-name="Layer 2" xmlns="http://www.w3.org/2000/svg" viewBox="0 0 322.97 802.34">
  <defs>
    <style>
      .cls-1 {
        fill: #bfbfbf;
        stroke: #000;
        stroke-linecap: round;
        stroke-width: 2.5px;
      }
    </style>
  </defs>
  <g id="Layer_2-2" data-name="Layer 2">
    <g>
      <g>
        <path class="cls-1" d="M1.25,104.12c9.14-3.87,17.44-6.36,25.05-8.04,7.62-1.68,14.58-2.57,21.33-3.37,6.76-.8,13.32-1.52,20.34-2.95,7.03-1.43,14.5-3.57,23.42-7.35l-1.49,6.27c-8.55,3.62-15.7,5.62-22.43,6.93-6.72,1.3-13.02,1.91-19.52,2.61-6.49.69-13.19,1.47-20.54,3.04-7.33,1.56-15.33,3.92-24.13,7.65"/>
        <path class="cls-1" d="M9.6,123.83c8.21-3.48,15.07-7.42,21.54-11.71,6.46-4.28,12.5-8.91,18.76-13.62,6.25-4.71,12.72-9.51,19.8-14.06,7.08-4.55,14.79-8.85,23.25-12.43l-1.45,6.25c-8.13,3.45-15.56,7.63-22.36,12.05-6.81,4.43-13.02,9.13-19.01,13.73-6,4.6-11.78,9.12-17.94,13.28-6.18,4.16-12.72,7.97-20.57,11.3"/>
        <path class="cls-1" d="M190.67,27.91c-12.95,3.85-25.04,10.1-37.2,17.69-9.59,6.42-18.75,12.93-28.03,18.89-9.3,5.97-18.66,11.38-29.2,15.86l-1.69,6.35c10.11-4.28,19.1-9.54,28.06-15.37,8.94-5.82,17.8-12.2,27.08-18.49,12.16-7.94,24.26-14.55,37.22-18.87"/>
        <path class="cls-1" d="M173.86,54.21c-6.26,2.65-11.32,4.19-15.85,5.12-2.26.47-4.39.78-6.45,1-2.08.24-4.1.4-6.02.43-6.26.25-12.26.04-19.44.92-7.16.88-15.53,2.87-25.94,7.28l-1.73,6.37c10.01-4.24,18.03-6.08,24.86-6.82,6.85-.74,12.54-.4,18.46-.51,3.66-.05,7.35-.24,11.55-1.04,4.21-.79,8.91-2.18,14.79-4.67"/>
        <path class="cls-1" d="M74.41,63.42c4.07,4.18,7.62,8.59,10.65,13.21,12.17,4.92,21.34,11.12,27.51,18.59-.92-5.47-2.44-10.68-4.56-15.64-8.32-6.61-19.52-11.99-33.6-16.16Z"/>
        <path class="cls-1" d="M66.31,113.01c4.77-7.67,10.17-15.6,16.19-23.8,15.13-15.79,33.07-32.77,53.84-50.95-8.24,9.06-15.92,17.88-23.02,26.46-18.59,17.34-34.26,33.43-47,48.28Z"/>
        <polygon class="cls-1" points="92 89.9 96.26 88.2 103.11 65.12 98.17 67.11 92 89.9"/>
        <path class="cls-1" d="M96.3,88.01l4.14-1.33c2.85-7.91,5.77-15.85,8.77-23.82l-4.8,1.61c-2.78,7.88-5.47,15.73-8.1,23.54Z"/>
        <path class="cls-1" d="M98.16,67.28l-4.85,1.64c-2.27,7.66-4.46,15.3-6.58,22.9l4.18-1.35c2.34-7.7,4.76-15.42,7.25-23.19Z"/>
      </g>
      <g>
        <path class="cls-1" d="M190.68,27.91c7.93-2.38,14.16-3.38,19.59-3.98,5.43-.59,10.06-.75,14.8-1.21,4.73-.45,9.57-1.18,15.4-2.76,1.46-.39,2.98-.84,4.58-1.34.4-.14.8-.23,1.24-.21.44.02.9.19,1.31.45.84.52,1.48,1.51,1.6,2.6.18,1.13-.45,2.15-.88,3.16-.45,1.01-.92,2.04-1.38,3.08-.92,2.07-1.83,4.17-2.73,6.3l-6.62,6.11c.93-2.11,1.94-4.25,3.02-6.42.57-1.11,1.13-2.21,1.67-3.29.55-1.09,1.31-2.22,1.28-3.46.02-1.2-.45-2.3-1.13-2.93-.33-.32-.71-.55-1.07-.64-.36-.09-.7-.06-1.01,0-.63.11-1.23.2-1.81.27-.29.03-.57.06-.86.09l-.42.04c-.14.02-.36.1-.53.15-5.84,1.82-10.68,2.78-15.42,3.44-4.74.67-9.38,1.05-14.81,1.87-5.44.83-11.67,2.08-19.6,4.74"/>
        <path class="cls-1" d="M173.87,54.2c8.12-3.44,16.34-7.96,25.03-13.19,1.1-.67,2.19-1.33,3.27-1.99.55-.34,1.1-.68,1.65-1.02l.41-.26.36-.2.72-.41c1.95-1.1,3.86-2.18,5.75-3.25,3.81-2.15,7.58-4.27,11.33-6.32,7.49-4.1,14.89-7.9,22.33-11.28,1.85-.82,3.74-1.72,5.58-2.41.94-.24,1.99-.07,2.83.45.84.51,1.47,1.33,1.65,2.18.2.86-.17,1.57-.38,2.34-.24.77-.48,1.55-.73,2.35-.51,1.6-1.07,3.28-1.7,5.06l-4.29,3.97c.72-1.84,1.38-3.57,1.98-5.23.29-.82.58-1.63.86-2.43.25-.79.67-1.54.5-2.41-.14-.86-.75-1.67-1.58-2.17-.84-.49-1.9-.63-2.86-.35-1.87.76-3.73,1.71-5.6,2.59-3.72,1.81-7.43,3.71-11.15,5.7-1.86,1-3.72,2.02-5.58,3.06l-1.4.78-.71.4-.86.56c-1.14.74-2.28,1.48-3.42,2.22-9.08,5.91-17.83,11.68-26.1,16.73-8.29,5.06-16.07,9.39-23.69,12.62"/>
        <path class="cls-1" d="M229.12,109.73c.96-2.33,1.81-4.55,2.55-6.65.4-1.07.63-2.02.9-2.99.26-.96.49-1.89.71-2.79.22-.91.41-1.79.59-2.65.08-.43.17-.85.25-1.27.06-.4.11-.79.17-1.19.2-1.56.35-3.04.45-4.46.09-1.4.18-2.8.16-4.04-.02-1.24-.07-2.44-.12-3.61-.11-2.33-.24-4.6-.38-6.72-.12-2.16-.16-4.34-.02-6.68.13-2.32.42-4.73.98-7.47,1.11-5.48,3.3-12,6.9-20.57l-6.69,6.06c-1.86,4.22-3.16,7.76-4.08,10.87-.46,1.55-.82,2.99-1.1,4.35-.14.68-.26,1.34-.37,1.98-.05.32-.1.63-.15.95-.04.31-.08.61-.19.98-1.44,5.54-1.79,9.95-1.82,14.29.01,2.22.02,4.42.03,6.66,0,1.15,0,2.34-.04,3.56-.03,1.22-.15,2.57-.28,3.94-.14,1.38-.32,2.82-.56,4.34-.22,1.5-.64,3.2-1.07,4.93-.47,1.76-.93,3.56-1.64,5.56-.72,2.01-1.54,4.12-2.48,6.35"/>
        <path class="cls-1" d="M198.99,125.03c3.56-8.07,8.04-15.87,13.16-23.96,2.66-4.16,5.21-8.15,7.7-12.03,2.53-3.97,5.04-7.92,7.45-11.82,2.41-3.9,4.75-7.8,6.96-11.64,2.19-3.81,4.25-7.58,6.16-11.33,3.83-7.57,6.93-14.65,9.44-21.92l-4.61,4.16c-2.88,7.43-6.33,14.73-10.45,22.35-2.05,3.79-4.26,7.6-6.6,11.45-2.39,3.9-4.64,7.63-7.69,11.91-5.73,8.29-11.32,16.25-16.26,23.91-4.95,7.68-9.23,15.05-12.57,22.62"/>
        <path class="cls-1" d="M259.64,2.49v1.14c-.02.19,0,.36-.03.57-.03.21-.06.43-.06.7-.03,1.04.12,2.58-.12,4.42-.23,1.82-.84,3.9-2.1,5.77-1.26,1.86-2.61,3.71-3.97,5.6-2.87,4.72-5.96,9.58-9.26,14.57-1.65,2.49-3.36,5.04-5.11,7.59-.22.32-.4.6-.81,1.09l-1.05,1.31-2.1,2.6-4.16,5.13c-11.05,13.55-21.64,26.06-31.78,37.54,10.68-10.86,21.73-22.54,33.14-35.05l2.05-2.47c.19-.23.29-.37.41-.53l.34-.48.68-.95,2.69-3.78c1.77-2.51,3.48-4.99,5.15-7.44,3.33-4.92,6.45-9.74,9.37-14.37,2.92-4.64,5.63-9.16,8.13-13.54.65-1.07,1.14-2.26,1.18-3.48.08-1.21-.16-2.37-.5-3.29-.35-.92-.79-1.58-1.05-1.9-.3-.29-.7-.48-1.05-.74Z"/>
        <path class="cls-1" d="M209.37,52.37l10.15-8.54c1.72-1.43,3.44-2.89,5.2-4.3,1.76-1.41,3.6-2.64,5.39-3.66,3.59-2.07,6.94-3.3,9.38-4.41,1.24-.55,2.19-1.14,3.16-1.74l1.45-.87.72-.43.36-.21.17-.1.04.03c.39,3.44,1.6,6.31,3.6,8.94,1,1.3,2.21,2.48,3.61,3.62,1.38,1.23,2.95,2.41,4.72,3.54-2.44.23-4.72.41-6.85.55l-5.93.35c-1.04-1.35-1.87-2.8-2.49-4.35-.31-.77-.57-1.58-.78-2.4l-.15-.62c-.23-.04-.61.06-.9.08-.63.09-1.27.19-1.92.31-1.29.24-2.62.54-3.97.9-.67.18-1.36.38-2.05.59-.65.24-1.41.38-2.69.57-1.24.2-2.85.52-4.61,1.2-1.75.65-3.65,1.71-5.37,3.07l-10.23,7.88Z"/>
        <polygon class="cls-1" points="232.84 46.03 230.8 50.4 238.86 43.24 243.03 39.57 251.39 32.22 252.83 28.01 244.86 35.17 232.84 46.03"/>
        <polygon class="cls-1" points="231.09 50.14 228.54 54.95 236.57 48.12 240.82 44.64 249.4 37.64 251.13 33.19 242.92 40.01 238.87 43.39 231.09 50.14"/>
        <polygon class="cls-1" points="252.68 28.18 254.35 23.85 247.01 30.19 243.39 33.33 242.94 33.72 242.02 34.55 239.91 36.46 235.7 40.29 233.12 45.16 241.14 38.02 244.95 34.76 252.68 28.18"/>
      </g>
      <g>
        <path class="cls-1" d="M229.12,109.74c-.21.53-.57,1.31-.87,1.99-.32.7-.64,1.4-.96,2.09-.66,1.4-1.31,2.77-1.96,4.12-1.32,2.72-2.67,5.37-4.04,7.96-2.74,5.17-5.54,10.05-8.34,14.63-5.6,9.17-11.17,17.1-16.41,24.25-1.28,1.74-2.57,3.49-3.87,5.26-.63.85-1.25,1.7-1.89,2.55-.33.46-.59.77-.87,1.12l-.83,1.04c-2.21,2.79-4.4,5.71-6.55,8.83-4.31,6.24-8.47,13.33-12.3,21.99l-4.75-2.09c3.82-8.67,7.98-15.75,12.29-21.99,2.16-3.12,4.35-6.03,6.55-8.83.56-.71,1.12-1.41,1.67-2.11.59-.76,1.17-1.51,1.76-2.26,1.21-1.57,2.42-3.13,3.62-4.69,4.9-6.4,10.14-13.58,15.39-21.96,2.62-4.18,5.24-8.65,7.78-13.38,1.27-2.37,2.52-4.8,3.74-7.29.61-1.24,1.21-2.5,1.8-3.77.29-.63.58-1.27.88-1.91.28-.63.6-1.33.81-1.84"/>
        <path class="cls-1" d="M198.98,125.04c-3.42,7.75-5.11,13.93-6.37,20.31-1.24,6.34-2.01,12.79-3.13,20.03-1.32,7.7-2.07,14.1-3.62,21.14-1.52,6.96-3.64,14.12-7.01,21.77l-4.75-2.09c3.38-7.65,5.5-14.81,7.01-21.77.76-3.48,1.36-6.91,1.9-10.33.52-3.39,1.04-6.92,1.42-10.13.79-6.49,1.22-12.17,2.09-17.67.44-2.76.99-5.48,1.79-8.32.81-2.87,1.83-5.77,3.35-9.22"/>
        <path class="cls-1" d="M157.09,273.05c.46-1.05.87-2.05,1.19-2.89,1.6-4.35,1.86-7.63,1.77-11.07-.1-3.42-.56-6.97-.63-11.31-.08-4.32.24-9.44,1.51-15.61.63-3.08,1.5-6.41,2.65-9.96,1.25-3.79,2.77-7.77,4.6-11.92l-4.75-2.09c-1.83,4.15-3.34,8.11-4.61,11.94-1.32,3.94-2.35,7.63-3.13,11.05-1.58,6.86-2.17,12.6-2.36,17.54-.2,4.95,0,9.1-.19,13.16-.19,4.08-.75,8.04-2.69,13.15-.34.91-.79,1.98-1.29,3.11"/>
        <path class="cls-1" d="M124.46,294.02c.59-1.36,1.21-2.72,1.78-3.92,4.09-8.58,8.85-16.71,13.63-23.89,4.78-7.2,9.59-13.5,14.02-19.04,4.44-5.56,8.52-10.38,12.04-15.05,1.76-2.35,3.37-4.63,4.88-7.09,1.82-3.17,3.55-6.56,5.17-10.23l-4.75-2.09c-1.62,3.68-3.35,7.06-5.17,10.23-1.65,2.78-3.41,5.41-5.32,8.08-3.8,5.32-8.15,10.74-12.86,16.92-4.71,6.16-9.78,13.07-14.86,20.94-5.07,7.85-10.16,16.7-14.6,26.09-.58,1.25-1.21,2.67-1.82,4.1"/>
        <path class="cls-1" d="M200.88,195.89l-20.05,5.02-21.34,13.88c-1.79,1.18-3.53,2.26-5.36,3.52-1.88,1.38-3.81,2.88-5.79,4.5-3.96,3.23-8.12,6.91-12.48,11.05,8.31-5.47,15.97-9.48,22.99-12.04l42.03-25.93Z"/>
        <path class="cls-1" d="M163.37,175.61l7.86,20.81,3.16,24.91.4,3.11.2,1.56c.07.5.1,1.1.26,1.43.51,1.53,1.06,2.95,1.66,4.26,1.2,2.63,2.59,4.82,4.17,6.59-4.45-2.61-8.29-6.61-11.53-11.98-.49-1.59-.66-3.89-.92-6l-.75-6.39-1.5-12.77-3-25.54Z"/>
        <rect class="cls-1" x="167.5" y="202.27" width="4.83" height="18.58" transform="translate(-93.62 276.18) rotate(-65.01)"/>
        <polygon class="cls-1" points="160.62 209.87 158.32 214.12 174.6 223.08 176.9 218.84 160.62 209.87"/>
        <polygon class="cls-1" points="179.19 213.28 181.49 209.02 165.21 200.06 162.91 204.31 179.19 213.28"/>
      </g>
      <g>
        <path class="cls-1" d="M157.08,273.06c-2.76,6.25-6.64,12.7-11.3,19.73-4.65,7.01-10.06,14.58-15.7,22.65-5.63,8.06-11.49,16.63-16.91,25.4-5.41,8.75-10.41,17.71-14.11,26.1l-7.89,7.79c1.82-4.27,3.76-8.48,5.83-12.69,1.04-2.1,2.11-4.2,3.22-6.29.57-1.06,1.13-2.1,1.69-3.13.29-.53.58-1.05.86-1.57l.44-.78.51-.85c5.6-9.17,11.62-18.1,17.41-26.52,5.79-8.43,11.36-16.35,16.18-23.74,4.82-7.41,8.89-14.27,11.85-20.98"/>
        <path class="cls-1" d="M124.45,294.03c-3.77,8.68-5.4,15.1-6.28,20.3-.1.64-.2,1.27-.29,1.9-.09.61-.18,1.23-.18,1.76-.04,1.09-.01,2.11.05,3.05.14,1.9.45,3.53.82,5.05.74,3.03,1.7,5.55,1.79,8.86.09,3.33-.69,7.43-3.6,14.03l-10.03,9.88c3.11-7.06,4.06-11.56,4.14-15.27.04-1.85-.15-3.49-.41-5.09-.21-1.65-.8-3.02-.54-5.17.04-2.02.09-4.06.13-6.16.08-2.18.16-4.45.53-7.13.37-2.68.86-5.59,1.8-9.05.99-3.49,2.19-7.32,4.19-11.91"/>
        <path class="cls-1" d="M156.39,345.86c-5.92,3.4-12.61,8.34-20.13,14.3-7.51,5.95-15.83,12.91-24.63,20.15-2.21,1.81-4.43,3.63-6.67,5.46-1.12.91-2.25,1.82-3.39,2.74-.57.46-1.13.92-1.72,1.34-.6.39-1.22.74-1.84.97-1.25.49-2.46.59-3.43.48-.95-.13-1.67-.49-1.93-.84-.26-.34-.24-.63-.33-.98-.06-.34-.1-.72-.11-1.12-.14-3.22,1.15-8.5,4.86-16.89l-7.86,7.88c-1.82,4.27-3.3,8.04-4.58,11.43-.61,1.67-1.2,3.28-1.78,4.86-.27.77-.54,1.52-.8,2.27-.13.37-.26.74-.38,1.1l-.19.54c-.06.17-.02.25-.04.38,0,.45.01.88.05,1.27.02.2.04.39.07.57.03.18.04.36.2.56.26.4.99.82,1.97.99,1.01.15,2.26.08,3.57-.41.65-.22,1.29-.58,1.91-.98.61-.43,1.2-.9,1.79-1.37,1.18-.94,2.35-1.88,3.52-2.82,2.33-1.88,4.63-3.75,6.93-5.61,9.14-7.43,17.79-14.59,25.66-20.74,7.88-6.17,14.96-11.32,21.32-14.98"/>
        <path class="cls-1" d="M127.09,385.26c-8.1,4.56-14.72,7.79-20.36,10.36-.7.31-1.39.62-2.07.93l-1.01.44-.25.11h-.15s-.3,0-.3,0c-.79-.01-1.49-.11-2.12-.25-1.26-.3-2.23-.83-3.09-1.42-.43-.3-.83-.61-1.22-.92-.21-.19-.36-.21-.66-.63-.29-.41-.63-1.13-.77-2.12-.16-.97-.12-2.18.23-3.44.31-1.27,1.11-2.48,1.85-3.64,1.4-2.25,2.82-4.51,4.26-6.82,5.46-8.86,9.94-16.64,12.85-23.25l-10.2,10.27c-3.11,7.06-7.76,15.25-13.4,24.48-1.48,2.4-2.94,4.76-4.39,7.1-.76,1.2-1.58,2.46-1.88,3.78-.35,1.31-.36,2.57-.16,3.57.18,1.03.57,1.75.91,2.16.35.41.55.4.79.56l.36.2c.06.03.11.07.19.09l.42-.17,1.7-.69c4.56-1.85,9.39-3.73,15.21-6.27,5.81-2.54,12.61-5.75,20.92-10.29"/>
        <path class="cls-1" d="M151.71,307.34c-11.19,11.88-22.7,24.49-34.52,37.81-5.66,7.09-11.44,14.43-17.33,22.04l-8.92,11.6-.56.74-.14.18-.09.13-.17.25-.66,1.01-1.31,2.01-2.57,3.97c-6.74,10.54-12.67,20.4-17.79,29.62,5.06-8.01,10.77-16.54,17.12-25.59l1.23-1.91c.07-.12.28-.4.47-.65l.57-.75,1.14-1.49,4.52-5.92,8.92-11.55c5.89-7.58,11.68-14.91,17.35-21.99,11.35-14.16,22.26-27.34,32.73-39.52Z"/>
        <path class="cls-1" d="M85.08,366.54c2.33-.51,4.5-.95,6.49-1.31,1-.18,1.96-.34,2.87-.48l1.34-.2.65-.09.32-.04.16-.02s.05,0,.08-.02l.18-.11c10.6-2.64,22.91-9.16,36.94-19.56-9.37,8.53-18.39,16.28-27.07,23.24-3.1,1.65-6.1,3.04-8.98,4.18-1.44.57-2.85,1.08-4.24,1.52l-1.03.32c-.16-.08-.18-.3-.28-.44-.17-.32-.34-.63-.53-.93-1.53-2.36-3.82-4.4-6.9-6.08Z"/>
        <polygon class="cls-1" points="88.17 379.26 86.29 383.67 90.86 379.12 99.99 369.92 118.27 351.51 120.09 347.61 102.03 365.56 93 374.52 88.17 379.26"/>
        <polygon class="cls-1" points="86.44 383.52 84.32 388.16 88.3 384.29 97.39 375.15 115.62 356.76 118.04 352.25 100.01 370.19 91.02 379.11 90 380.11 89.5 380.59 88.48 381.57 86.44 383.52"/>
        <polygon class="cls-1" points="119.77 347.95 122.15 343.53 104.58 360.42 95.82 368.8 94.04 370.49 92.92 371.53 90.68 373.62 88.51 378.29 93.14 373.93 102 365.31 119.77 347.95"/>
      </g>
      <g>
        <path class="cls-1" d="M156.4,345.86c5.92-3.4,9.69-4.48,12.84-4.66,3.13-.17,5.62.58,8.59,1.05,2.96.48,6.4.68,11.19-.45,4.78-1.11,10.93-3.56,18.88-8.13l-2.02,6.36c-4.15,2.35-8,4.35-11.59,6.07-1.79.86-3.52,1.65-5.19,2.39-.83.36-1.65.71-2.46,1.06-.4.17-.8.34-1.2.5l-.59.24c-.19.08-.34.1-.5.15-5.18,1.34-8.97,1.35-12.27,1.07-3.31-.27-6.14-.83-9.63-.45-3.51.39-7.67,1.69-14.04,5.35"/>
        <path class="cls-1" d="M127.11,385.26c8.1-4.56,15.56-9.3,22.47-14.13.87-.61,1.72-1.22,2.57-1.82.42-.3.85-.61,1.27-.91l.32-.23.38-.31.77-.61c2.04-1.64,4.06-3.3,6.05-4.95,3.99-3.31,7.88-6.64,11.65-9.9,7.55-6.52,14.61-12.76,21.26-18.21,6.66-5.46,12.89-10.13,19.14-13.73l-3.43,7.92c-6.69,3.84-13.29,8.73-20.32,14.4-3.51,2.83-7.11,5.86-10.82,9.01-1.89,1.62-3.78,3.22-5.66,4.83l-1.44,1.23-.72.61-.58.46-2.34,1.82c-6.26,4.87-12.79,9.77-19.87,14.58-7.08,4.81-14.73,9.53-23.04,14.06"/>
        <path class="cls-1" d="M282.71,273.22c-5.92,3.4-10.88,7.34-15.81,11.81-4.91,4.46-9.78,9.43-15.12,14.68-5.33,5.24-11.15,10.77-17.72,16.18-6.56,5.4-13.9,10.72-21.85,15.29l-1.82,6.28c4.15-2.35,8.02-4.75,11.64-7.17,1.81-1.21,3.56-2.43,5.25-3.65.84-.62,1.67-1.23,2.49-1.84.41-.31.81-.62,1.22-.92.4-.3.8-.61,1.25-.98,6.96-5.63,13.12-11.35,18.79-16.79,5.68-5.45,10.88-10.61,16.16-15.28,5.29-4.68,10.64-8.84,17-12.5"/>
        <path class="cls-1" d="M289.1,293.98c-8.1,4.56-15.49,7.7-22.29,10.12-.85.3-1.69.59-2.53.88-.83.28-1.67.57-2.42.76-1.53.41-3.01.77-4.45,1.09-2.88.63-5.58,1.1-8.17,1.5-5.18.8-9.87,1.32-14.74,2.49-4.88,1.18-9.92,2.98-16.18,6.58l-3.06,7.71c6.69-3.84,12.11-5.87,17.35-7.25,2.62-.69,5.18-1.21,7.78-1.68,1.32-.23,2.63-.46,3.94-.69l1-.17.51-.09.57-.16,2.28-.62c6.11-1.66,12.5-3.35,19.47-5.76,6.97-2.4,14.55-5.52,22.86-10.05"/>
        <path class="cls-1" d="M210.87,304.3c-2.15,7.48-3.62,14.56-4.4,21.26,1,2.09,2.24,4.04,3.72,5.85.74.9,1.55,1.77,2.41,2.61.14.29.63.19.99.25l1.15.08,2.34.15,20.2,1.41c-5.16-2.26-9.96-4.47-14.42-6.64l-1.13-.11c-.11,0-.16-.06-.21-.11l-.17-.15-.34-.31c-.45-.41-.88-.83-1.29-1.26-.83-.86-1.61-1.75-2.32-2.68-1.43-1.85-2.63-3.84-3.59-5.97-1.92-4.25-2.9-9.04-2.94-14.37Z"/>
        <path class="cls-1" d="M182.18,363.24c2.89-3.45,5.68-6.92,8.39-10.4,1.35-1.74,2.68-3.48,3.99-5.22l3.93-5.33c18.78-20.71,33.89-39.29,45.31-55.77-4.56,8.5-9.85,17.43-15.89,26.78-3.8,4.68-7.85,9.5-12.13,14.46-2.14,2.48-4.34,4.99-6.6,7.54l-2.97,3.32-2.51,2.75c-6.75,7.34-13.92,14.62-21.52,21.86Z"/>
        <path class="cls-1" d="M208.44,340.18l4.28-2.31.08-1.99.04-1,.02-.5c.01-.1-.02-.14.04-.28l.17-.43,2.74-6.9,5.45-13.79-3.45,1.87-5.89,14.04-2.96,7.03-.19.44-.09.22v.12s-.04.5-.04.5l-.06.99-.13,1.99Z"/>
        <path class="cls-1" d="M212.71,337.74l4.27-2.06.16-2.07.08-1.03.04-.52.02-.26c.02-.1-.02-.14.07-.31l2.75-6.89,5.38-13.71-3.29,1.44-5.82,13.97-2.97,7.02-.19.44c-.06.14-.14.32-.13.38l-.05.52-.1,1.03-.21,2.06Z"/>
        <path class="cls-1" d="M217.74,315.06l-3.24,1.42-6.81,14.54-3.46,7.3-.44.91-.1.22-.02.13-.04.26-.16,1.02-.32,2.05,4.24-2.06.28-2.06.14-1.03.07-.51c.02-.1,0-.15.06-.28l.2-.45,3.24-7.18,6.38-14.29Z"/>
      </g>
      <g>
        <path class="cls-1" d="M282.72,273.22c2.97-1.7,5.81-3.07,8.65-4.22.71-.29,1.42-.56,2.12-.83l1.09-.47.61-.26c.07-.04.28-.11.45-.16l.54-.17c.72-.22,1.45-.41,2.19-.55.75-.13,1.52-.23,2.28-.29,3.05-.22,6.14.28,8.8,1.38,5.34,2.17,9.38,6.44,11.25,11.86.91,2.7,1.21,5.64.88,8.32-.07.69-.19,1.31-.33,1.94-.07.31-.15.63-.23.94l-.13.46-.06.21-.02.04-.31.6c-3.27,6.38-6.87,12.16-10.49,18.04-7.25,11.76-14.61,23.92-19.73,42.15l-4.99-1.4c5.12-18.24,12.48-30.4,19.73-42.15,3.62-5.88,7.22-11.65,10.49-18.04l.31-.6.02-.04.05-.15.1-.34.18-.68c.11-.46.21-.91.26-1.41.27-1.95.06-4.09-.57-6.08-1.32-3.98-4.27-7.17-8.2-8.8-1.96-.83-4.23-1.21-6.49-1.07-.56.04-1.13.11-1.69.2-.55.11-1.09.24-1.63.4-.24.07-.59.18-.74.24l-.47.2-.86.36c-.76.29-1.51.59-2.27.91-3.03,1.27-6.09,2.75-9.27,4.58"/>
        <path class="cls-1" d="M289.11,293.97c4.05-2.28,7.75-4.63,11.15-7.03.42-.3.84-.6,1.26-.9.44-.31.8-.6.83-.63.19-.18.56-.28.97-.12.4.15.76.49.89,1.01.05.13.03.27.06.43l-.07.71c-.04.47-.08.94-.13,1.41-.63,7.5-.63,14.51-.6,21.43.05,13.84.22,27.29-4.3,43.39l-4.99-1.4c4.52-16.11,4.36-29.55,4.3-43.39-.03-6.92-.03-13.94.6-21.43.04-.47.08-.94.13-1.41l.07-.71c-.12.17-.17.4-.24.67-.1.52-.1,1.17.08,1.74.17.58.47,1.09.86,1.53.39.43.9.78,1.53,1.01.63.24,1.4.32,2.11.2.99-.27.67-.07.18.28-.43.3-.86.6-1.3.9-3.5,2.39-7.3,4.72-11.45,6.99"/>
        <path class="cls-1" d="M279.36,447.23c9.33-33.23-.71-53.62,9.53-90.09l-4.99-1.4c-10.24,36.47-.2,56.86-9.54,90.09"/>
        <path class="cls-1" d="M258.75,441.44c9.93-35.35,29.45-48.71,38.5-80.93l-4.99-1.4c-9.05,32.21-28.58,45.57-38.51,80.92"/>
        <polygon class="cls-1" points="319.23 338.27 300.09 346.07 261.75 379.58 281.29 369.84 319.23 338.27"/>
        <polygon class="cls-1" points="279.24 323.5 289.96 342.99 303.26 391.42 292.39 373.22 279.24 323.5"/>
        <rect class="cls-1" x="288.37" y="348.87" width="4.83" height="18.58" transform="translate(-136.36 532.46) rotate(-73.13)"/>
        <polygon class="cls-1" points="281.35 357.8 279.67 362.34 297.05 368.91 298.74 364.38 281.35 357.8"/>
        <polygon class="cls-1" points="300.22 358.55 301.89 354.01 284.51 347.44 282.83 351.97 300.22 358.55"/>
      </g>
      <g>
        <path class="cls-1" d="M279.36,447.25c-9.33,33.23-28.53,45.4-38.77,81.87l-4.99-1.4c10.24-36.47,29.43-48.64,38.77-81.88"/>
        <path class="cls-1" d="M258.75,441.46c-9.93,35.35-.22,56.93-9.27,89.14l-4.99-1.4c9.05-32.21-.67-53.79,9.26-89.14"/>
        <path class="cls-1" d="M229.66,624.16c9.33-33.23-.71-53.62,9.53-90.09l-4.99-1.4c-10.24,36.47-.2,56.86-9.54,90.09"/>
        <path class="cls-1" d="M209.05,618.37c9.93-35.35,29.45-48.71,38.5-80.93l-4.99-1.4c-9.05,32.21-28.58,45.57-38.51,80.92"/>
        <polygon class="cls-1" points="269.53 515.2 250.39 523 212.05 556.51 231.59 546.77 269.53 515.2"/>
        <polygon class="cls-1" points="229.54 500.42 240.26 519.92 253.56 568.35 242.69 550.15 229.54 500.42"/>
        <rect class="cls-1" x="238.67" y="525.8" width="4.83" height="18.58" transform="translate(-340.94 610.47) rotate(-73.12)"/>
        <polygon class="cls-1" points="231.65 534.73 229.98 539.26 247.35 545.84 249.04 541.3 231.65 534.73"/>
        <polygon class="cls-1" points="250.52 535.48 252.19 530.94 234.81 524.37 233.13 528.9 250.52 535.48"/>
      </g>
      <g>
        <path class="cls-1" d="M229.66,624.17c-9.33,33.23-28.53,45.4-38.77,81.87l-4.99-1.4c10.24-36.47,29.43-48.64,38.77-81.88"/>
        <path class="cls-1" d="M209.05,618.38c-9.93,35.35-.22,56.93-9.27,89.14l-4.99-1.4c9.05-32.21-.67-53.79,9.26-89.14"/>
        <path class="cls-1" d="M179.96,801.09c9.33-33.23-.71-53.62,9.53-90.09l-4.99-1.4c-10.24,36.47-.2,56.86-9.54,90.09"/>
        <path class="cls-1" d="M159.35,795.3c9.93-35.35,29.45-48.71,38.5-80.93l-4.99-1.4c-9.05,32.21-28.58,45.57-38.51,80.92"/>
        <polygon class="cls-1" points="219.84 692.13 200.69 699.93 162.36 733.43 181.89 723.7 219.84 692.13"/>
        <polygon class="cls-1" points="179.84 677.35 190.56 696.85 203.86 745.28 192.99 727.08 179.84 677.35"/>
        <rect class="cls-1" x="188.97" y="702.72" width="4.83" height="18.58" transform="translate(-545.52 688.48) rotate(-73.13)"/>
        <polygon class="cls-1" points="181.95 711.66 180.28 716.19 197.66 722.76 199.34 718.23 181.95 711.66"/>
        <polygon class="cls-1" points="200.82 712.41 202.49 707.87 185.11 701.29 183.43 705.83 200.82 712.41"/>
      </g>
    </g>
  </g>
</svg>