<?xml version="1.0" encoding="UTF-8"?>
<svg id="Layer_2" data-name="Layer 2" xmlns="http://www.w3.org/2000/svg" viewBox="0 0 386.35 750.07">
  <defs>
    <style>
      .cls-1 {
        fill: #bfbfbf;
        stroke: #000;
        stroke-linecap: round;
        stroke-width: 2.5px;
      }
    </style>
  </defs>
  <g id="Layer_2-2" data-name="Layer 2">
    <g>
      <g>
        <g>
          <path class="cls-1" d="M138.18,737.49c0-35.56,15.19-52.98,15.19-92.01h5.19c0,39.03-15.18,56.45-15.18,92.01"/>
          <path class="cls-1" d="M159.59,737.49c0-37.83-15.18-56.52-15.18-90.99h5.19c0,34.47,15.19,53.16,15.19,90.99"/>
          <path class="cls-1" d="M138.18,548.16c0,35.56,15.19,52.98,15.19,92.01h5.19c0-39.03-15.18-56.45-15.18-92.01"/>
          <path class="cls-1" d="M159.59,548.16c0,37.83-15.18,56.52-15.18,90.99h5.19c0-34.47,15.19-53.16,15.19-90.99"/>
          <polygon class="cls-1" points="129.26 667.35 145.58 654.28 173.43 610.36 157.25 625.47 129.26 667.35"/>
          <polygon class="cls-1" points="171.76 670.86 156.17 654.51 130.27 610.18 145.65 625.2 171.76 670.86"/>
          <polygon class="cls-1" points="160.5 642.39 160.6 637.41 142.03 637 141.93 641.98 160.5 642.39"/>
          <polygon class="cls-1" points="160.45 637.42 160.84 632.46 142.33 630.78 141.93 635.74 160.45 637.42"/>
          <polygon class="cls-1" points="142.08 641.94 141.7 646.9 160.21 648.58 160.6 643.62 142.08 641.94"/>
        </g>
        <g>
          <path class="cls-1" d="M138.18,548.15c0-35.56,15.19-52.98,15.19-92.01h5.19c0,39.03-15.18,56.45-15.18,92.01"/>
          <path class="cls-1" d="M159.59,548.15c0-37.83-15.18-56.52-15.18-90.99h5.19c0,34.47,15.19,53.16,15.19,90.99"/>
          <path class="cls-1" d="M138.18,358.83c0,35.56,15.19,52.98,15.19,92.01h5.19c0-39.03-15.18-56.45-15.18-92.01"/>
          <path class="cls-1" d="M159.59,358.83c0,37.83-15.18,56.52-15.18,90.99h5.19c0-34.47,15.19-53.16,15.19-90.99"/>
          <polygon class="cls-1" points="129.26 478.02 145.58 464.94 173.43 421.03 157.25 436.13 129.26 478.02"/>
          <polygon class="cls-1" points="171.76 481.53 156.17 465.18 130.27 420.85 145.65 435.87 171.76 481.53"/>
          <polygon class="cls-1" points="160.5 453.06 160.6 448.08 142.03 447.67 141.93 452.65 160.5 453.06"/>
          <polygon class="cls-1" points="160.45 448.09 160.84 443.13 142.33 441.45 141.93 446.41 160.45 448.09"/>
          <polygon class="cls-1" points="142.08 452.6 141.7 457.57 160.21 459.25 160.6 454.28 142.08 452.6"/>
        </g>
      </g>
      <g>
        <g>
          <path class="cls-1" d="M160.84,1.25c10.53,33.91,1.18,55.03,12.74,92.25l-4.95,1.54c-11.56-37.22-2.22-58.33-12.75-92.25"/>
          <path class="cls-1" d="M140.4,7.6c11.2,36.08,31.24,49.4,41.44,82.27l-4.95,1.54c-10.21-32.87-30.25-46.19-41.45-82.27"/>
          <path class="cls-1" d="M216.9,181.79c-10.53-33.91-30.19-46.02-41.75-83.24l-4.95,1.54c11.56,37.22,31.21,49.33,41.74,83.24"/>
          <path class="cls-1" d="M196.46,188.14c-11.2-36.08-2.24-58.41-12.45-91.28l-4.95,1.54c10.21,32.87,1.24,55.2,12.44,91.28"/>
          <polygon class="cls-1" points="190.13 65.49 178.41 82.79 164.82 132.93 175.8 113.73 190.13 65.49"/>
          <polygon class="cls-1" points="148.5 74.74 168.23 85.71 206.1 120.31 186.96 110.54 148.5 74.74"/>
          <polygon class="cls-1" points="167.68 98.56 169.06 103.33 186.92 98.21 185.54 93.43 167.68 98.56"/>
          <polygon class="cls-1" points="169.21 103.28 170.31 108.13 188.48 104.24 187.39 99.39 169.21 103.28"/>
          <polygon class="cls-1" points="185.41 93.53 184.31 88.68 166.13 92.57 167.23 97.41 185.41 93.53"/>
        </g>
        <g>
          <path class="cls-1" d="M216.91,181.81c10.53,33.91,1.18,55.03,12.74,92.25l-4.95,1.54c-11.56-37.22-2.22-58.33-12.75-92.25"/>
          <path class="cls-1" d="M196.46,188.15c11.2,36.08,31.24,49.4,41.44,82.27l-4.95,1.54c-10.21-32.87-30.25-46.19-41.45-82.27"/>
          <path class="cls-1" d="M272.97,362.35c-10.53-33.91-30.19-46.02-41.75-83.24l-4.95,1.54c11.56,37.22,31.21,49.33,41.74,83.24"/>
          <path class="cls-1" d="M252.52,368.7c-11.2-36.08-2.24-58.41-12.45-91.28l-4.95,1.54c10.21,32.87,1.24,55.2,12.44,91.28"/>
          <polygon class="cls-1" points="246.2 246.05 234.48 263.35 220.89 313.49 231.86 294.29 246.2 246.05"/>
          <polygon class="cls-1" points="204.57 255.3 224.3 266.27 262.16 300.86 243.02 291.1 204.57 255.3"/>
          <polygon class="cls-1" points="223.75 279.11 225.13 283.89 242.99 278.77 241.61 273.99 223.75 279.11"/>
          <polygon class="cls-1" points="225.27 283.83 226.37 288.68 244.54 284.79 243.45 279.94 225.27 283.83"/>
          <polygon class="cls-1" points="241.47 274.08 240.37 269.23 222.19 273.12 223.29 277.97 241.47 274.08"/>
        </g>
        <g>
          <path class="cls-1" d="M272.97,362.36c10.53,33.91,1.18,55.03,12.74,92.25l-4.95,1.54c-11.56-37.22-2.22-58.33-12.75-92.25"/>
          <path class="cls-1" d="M252.53,368.71c11.2,36.08,31.24,49.4,41.44,82.27l-4.95,1.54c-10.21-32.87-30.25-46.19-41.45-82.27"/>
          <path class="cls-1" d="M329.03,542.91c-10.53-33.91-30.19-46.02-41.75-83.24l-4.95,1.54c11.56,37.22,31.21,49.33,41.74,83.24"/>
          <path class="cls-1" d="M308.59,549.25c-11.2-36.08-2.24-58.41-12.45-91.28l-4.95,1.54c10.21,32.87,1.24,55.2,12.44,91.28"/>
          <polygon class="cls-1" points="302.26 426.6 290.54 443.91 276.95 494.04 287.93 474.84 302.26 426.6"/>
          <polygon class="cls-1" points="260.63 435.86 280.36 446.82 318.23 481.42 299.09 471.65 260.63 435.86"/>
          <polygon class="cls-1" points="279.81 459.67 281.19 464.45 299.05 459.33 297.67 454.55 279.81 459.67"/>
          <polygon class="cls-1" points="281.34 464.39 282.44 469.24 300.61 465.35 299.52 460.5 281.34 464.39"/>
          <polygon class="cls-1" points="297.54 454.64 296.44 449.79 278.26 453.68 279.36 458.53 297.54 454.64"/>
        </g>
        <g>
          <path class="cls-1" d="M329.04,542.92c10.53,33.91,1.18,55.03,12.74,92.25l-4.95,1.54c-11.56-37.22-2.22-58.33-12.75-92.25"/>
          <path class="cls-1" d="M308.59,549.27c11.2,36.08,31.24,49.4,41.44,82.27l-4.95,1.54c-10.21-32.87-30.25-46.19-41.45-82.27"/>
          <path class="cls-1" d="M385.1,723.46c-10.53-33.91-30.19-46.02-41.75-83.24l-4.95,1.54c11.56,37.22,31.21,49.33,41.74,83.24"/>
          <path class="cls-1" d="M364.65,729.81c-11.2-36.08-2.24-58.41-12.45-91.28l-4.95,1.54c10.21,32.87,1.24,55.2,12.44,91.28"/>
          <polygon class="cls-1" points="358.33 607.16 346.61 624.46 333.02 674.6 343.99 655.4 358.33 607.16"/>
          <polygon class="cls-1" points="316.7 616.41 336.43 627.38 374.29 661.97 355.15 652.21 316.7 616.41"/>
          <polygon class="cls-1" points="335.88 640.22 337.26 645 355.12 639.88 353.74 635.1 335.88 640.22"/>
          <polygon class="cls-1" points="337.4 644.95 338.5 649.79 356.67 645.91 355.58 641.05 337.4 644.95"/>
          <polygon class="cls-1" points="353.6 635.19 352.5 630.34 334.32 634.23 335.42 639.08 353.6 635.19"/>
        </g>
      </g>
      <g>
        <g>
          <path class="cls-1" d="M385.1,25.5c-10.53,33.91-30.19,46.02-41.75,83.24l-4.95-1.54c11.56-37.22,31.21-49.33,41.74-83.24"/>
          <path class="cls-1" d="M364.66,19.15c-11.2,36.08-2.24,58.41-12.45,91.28l-4.95-1.54c10.21-32.87,1.24-55.2,12.44-91.28"/>
          <path class="cls-1" d="M329.04,206.04c10.53-33.91,1.18-55.03,12.74-92.25l-4.95-1.54c-11.56,37.22-2.22,58.33-12.75,92.25"/>
          <path class="cls-1" d="M308.6,199.69c11.2-36.08,31.24-49.4,41.44-82.27l-4.95-1.54c-10.21,32.87-30.25,46.19-41.45,82.27"/>
          <polygon class="cls-1" points="372.85 95.03 353.4 102.65 313.8 136.27 333.72 126.67 372.85 95.03"/>
          <polygon class="cls-1" points="333.31 79.07 343.35 99.29 354.96 149.24 344.72 130.36 333.31 79.07"/>
          <polygon class="cls-1" points="335.62 109.56 334.05 114.28 351.67 120.18 353.24 115.46 335.62 109.56"/>
          <polygon class="cls-1" points="334.21 114.32 332.37 118.93 349.54 126.02 351.39 121.41 334.21 114.32"/>
          <polygon class="cls-1" points="353.08 115.46 354.92 110.83 337.74 103.74 335.9 108.36 353.08 115.46"/>
        </g>
        <g>
          <path class="cls-1" d="M329.04,206.05c-10.53,33.91-30.19,46.02-41.75,83.24l-4.95-1.54c11.56-37.22,31.21-49.33,41.74-83.24"/>
          <path class="cls-1" d="M308.59,199.7c-11.2,36.08-2.24,58.41-12.45,91.28l-4.95-1.54c10.21-32.87,1.24-55.2,12.44-91.28"/>
          <path class="cls-1" d="M272.98,386.6c10.53-33.91,1.18-55.03,12.74-92.25l-4.95-1.54c-11.56,37.22-2.22,58.33-12.75,92.25"/>
          <path class="cls-1" d="M252.53,380.25c11.2-36.08,31.24-49.4,41.44-82.27l-4.95-1.54c-10.21,32.87-30.25,46.19-41.45,82.27"/>
          <polygon class="cls-1" points="316.79 275.58 297.33 283.21 257.73 316.83 277.65 307.22 316.79 275.58"/>
          <polygon class="cls-1" points="277.24 259.63 287.29 279.84 298.9 329.8 288.66 310.91 277.24 259.63"/>
          <polygon class="cls-1" points="279.56 290.12 277.99 294.84 295.61 300.73 297.18 296.01 279.56 290.12"/>
          <polygon class="cls-1" points="278.14 294.87 276.3 299.49 293.48 306.58 295.33 301.96 278.14 294.87"/>
          <polygon class="cls-1" points="297.02 296.01 298.85 291.39 281.67 284.3 279.83 288.92 297.02 296.01"/>
        </g>
        <g>
          <path class="cls-1" d="M272.97,386.61c-10.53,33.91-30.19,46.02-41.75,83.24l-4.95-1.54c11.56-37.22,31.21-49.33,41.74-83.24"/>
          <path class="cls-1" d="M252.53,380.26c-11.2,36.08-2.24,58.41-12.45,91.28l-4.95-1.54c10.21-32.87,1.24-55.2,12.44-91.28"/>
          <path class="cls-1" d="M216.91,567.15c10.53-33.91,1.18-55.03,12.74-92.25l-4.95-1.54c-11.56,37.22-2.22,58.33-12.75,92.25"/>
          <path class="cls-1" d="M196.47,560.8c11.2-36.08,31.24-49.4,41.44-82.27l-4.95-1.54c-10.21,32.87-30.25,46.19-41.45,82.27"/>
          <polygon class="cls-1" points="260.72 456.14 241.27 463.76 201.67 497.38 221.59 487.78 260.72 456.14"/>
          <polygon class="cls-1" points="221.17 440.19 231.22 460.4 242.83 510.36 232.59 491.47 221.17 440.19"/>
          <polygon class="cls-1" points="223.49 470.67 221.92 475.39 239.54 481.29 241.11 476.57 223.49 470.67"/>
          <polygon class="cls-1" points="222.08 475.43 220.24 480.05 237.41 487.14 239.26 482.52 222.08 475.43"/>
          <polygon class="cls-1" points="240.95 476.57 242.79 471.95 225.61 464.86 223.77 469.48 240.95 476.57"/>
        </g>
        <g>
          <path class="cls-1" d="M216.91,567.16c-10.53,33.91-30.19,46.02-41.75,83.24l-4.95-1.54c11.56-37.22,31.21-49.33,41.74-83.24"/>
          <path class="cls-1" d="M196.46,560.82c-11.2,36.08-2.24,58.41-12.45,91.28l-4.95-1.54c10.21-32.87,1.24-55.2,12.44-91.28"/>
          <path class="cls-1" d="M160.85,747.71c10.53-33.91,1.18-55.03,12.74-92.25l-4.95-1.54c-11.56,37.22-2.22,58.33-12.75,92.25"/>
          <path class="cls-1" d="M140.4,741.36c11.2-36.08,31.24-49.4,41.44-82.27l-4.95-1.54c-10.21,32.87-30.25,46.19-41.45,82.27"/>
          <polygon class="cls-1" points="204.66 636.69 185.2 644.32 145.6 677.94 165.52 668.33 204.66 636.69"/>
          <polygon class="cls-1" points="165.11 620.74 175.16 640.96 186.77 690.91 176.53 672.02 165.11 620.74"/>
          <polygon class="cls-1" points="167.43 651.23 165.86 655.95 183.48 661.84 185.05 657.13 167.43 651.23"/>
          <polygon class="cls-1" points="166.01 655.98 164.17 660.6 181.35 667.69 183.2 663.07 166.01 655.98"/>
          <polygon class="cls-1" points="184.89 657.12 186.72 652.5 169.54 645.41 167.7 650.03 184.89 657.12"/>
        </g>
      </g>
      <g>
        <g>
          <path class="cls-1" d="M139.38,748.82c-12.97-33.89-5.14-55.93-19.38-93.12l4.85-1.85c14.24,37.2,6.41,59.23,19.39,93.12"/>
          <path class="cls-1" d="M159.37,741.17c-13.8-36.06-34.8-48.45-47.37-81.3l4.85-1.85c12.57,32.85,33.58,45.24,47.38,81.3"/>
          <path class="cls-1" d="M70.32,568.38c12.97,33.89,33.51,45.07,47.75,82.27l4.85-1.85c-14.24-37.2-34.77-48.38-47.74-82.27"/>
          <path class="cls-1" d="M90.31,560.73c13.8,36.06,6.44,59.3,19.02,92.15l4.85-1.85c-12.57-32.85-5.21-56.1-19.01-92.15"/>
          <polygon class="cls-1" points="105.46 685.17 115.93 666.87 125.92 615.06 116.33 635.24 105.46 685.17"/>
          <polygon class="cls-1" points="146.43 673.32 125.91 663.31 85.55 630.32 105.39 639.14 146.43 673.32"/>
          <polygon class="cls-1" points="125.54 650.21 123.81 645.43 106.32 651.68 108.04 656.46 125.54 650.21"/>
          <polygon class="cls-1" points="123.67 645.49 122.22 640.62 104.33 645.64 105.77 650.51 123.67 645.49"/>
          <polygon class="cls-1" points="108.17 656.36 109.62 661.23 127.52 656.21 126.07 651.34 108.17 656.36"/>
        </g>
        <g>
          <path class="cls-1" d="M70.31,568.37c-12.97-33.89-5.14-55.93-19.38-93.12l4.85-1.85c14.24,37.2,6.41,59.23,19.39,93.12"/>
          <path class="cls-1" d="M90.3,560.72c-13.8-36.06-34.8-48.45-47.37-81.3l4.85-1.85c12.57,32.85,33.58,45.24,47.38,81.3"/>
          <path class="cls-1" d="M1.25,387.93c12.97,33.89,33.51,45.07,47.75,82.27l4.85-1.85c-14.24-37.2-34.77-48.38-47.74-82.27"/>
          <path class="cls-1" d="M21.24,380.28c13.8,36.06,6.44,59.3,19.02,92.15l4.85-1.85c-12.57-32.85-5.21-56.1-19.01-92.15"/>
          <polygon class="cls-1" points="36.39 504.71 46.87 486.42 56.86 434.61 47.26 454.79 36.39 504.71"/>
          <polygon class="cls-1" points="77.37 492.87 56.84 482.86 16.48 449.86 36.33 458.69 77.37 492.87"/>
          <polygon class="cls-1" points="56.47 469.76 54.75 464.98 37.25 471.23 38.97 476.01 56.47 469.76"/>
          <polygon class="cls-1" points="54.61 465.04 53.16 460.17 35.26 465.19 36.7 470.06 54.61 465.04"/>
          <polygon class="cls-1" points="39.1 475.91 40.55 480.78 58.46 475.76 57.01 470.89 39.1 475.91"/>
        </g>
      </g>
    </g>
  </g>
</svg>