<?xml version="1.0" encoding="UTF-8"?>
<svg id="Layer_2" data-name="Layer 2" xmlns="http://www.w3.org/2000/svg" viewBox="0 0 523.76 1066.57">
  <defs>
    <style>
      .cls-1 {
        fill: #bfbfbf;
        stroke: #000;
        stroke-linecap: round;
        stroke-width: 2.5px;
      }
    </style>
  </defs>
  <g id="Layer_2-2" data-name="Layer 2">
    <g>
      <g>
        <path class="cls-1" d="M522.51,9.61c-8.22,24.83-26.67,32.21-35.69,59.46l-4.92-1.63c9.02-27.25,27.46-34.63,35.69-59.46"/>
        <path class="cls-1" d="M502.19,2.88c-8.75,26.41,1.34,44.23-6.63,68.3l-4.92-1.63c7.97-24.06-2.12-41.89,6.62-68.3"/>
        <path class="cls-1" d="M478.73,141.78c8.22-24.83-2.17-41.76,6.86-69.01l-4.92-1.63c-9.02,27.25,1.36,44.18-6.86,69.01"/>
        <path class="cls-1" d="M458.41,135.05c8.75-26.41,27.48-34.69,35.45-58.75l-4.93-1.63c-7.97,24.06-26.71,32.34-35.46,58.75"/>
        <polygon class="cls-1" points="514.76 61.38 496.25 65.38 459.66 87.28 478.5 81.82 514.76 61.38"/>
        <polygon class="cls-1" points="475.23 45.57 486.25 61.88 500.59 100.98 489.46 85.65 475.23 45.57"/>
        <polygon class="cls-1" points="479.33 68.98 478.08 72.43 495.62 78.55 496.87 75.11 479.33 68.98"/>
        <polygon class="cls-1" points="478.23 72.47 476.72 75.81 493.9 82.8 495.42 79.46 478.23 72.47"/>
        <polygon class="cls-1" points="496.71 75.09 498.23 71.74 481.04 64.75 479.52 68.1 496.71 75.09"/>
      </g>
      <g>
        <path class="cls-1" d="M478.73,141.79c-8.22,24.83-26.67,32.21-35.69,59.46l-4.93-1.63c9.02-27.25,27.46-34.63,35.69-59.46"/>
        <path class="cls-1" d="M458.41,135.06c-8.75,26.41,1.34,44.23-6.63,68.3l-4.92-1.63c7.97-24.06-2.12-41.89,6.62-68.3"/>
        <path class="cls-1" d="M434.95,273.96c8.22-24.83-2.17-41.76,6.86-69.01l-4.92-1.63c-9.02,27.25,1.36,44.18-6.86,69.01"/>
        <path class="cls-1" d="M414.63,267.23c8.75-26.41,27.48-34.69,35.45-58.75l-4.92-1.63c-7.97,24.06-26.71,32.34-35.46,58.75"/>
        <polygon class="cls-1" points="470.98 193.56 452.47 197.55 415.88 219.45 434.72 214 470.98 193.56"/>
        <polygon class="cls-1" points="431.45 177.75 442.47 194.06 456.81 233.15 445.68 217.83 431.45 177.75"/>
        <polygon class="cls-1" points="435.55 201.16 434.3 204.6 451.84 210.73 453.09 207.28 435.55 201.16"/>
        <polygon class="cls-1" points="434.46 204.64 432.94 207.99 450.12 214.98 451.64 211.64 434.46 204.64"/>
        <polygon class="cls-1" points="452.93 207.27 454.45 203.92 437.26 196.93 435.74 200.27 452.93 207.27"/>
      </g>
      <g>
        <path class="cls-1" d="M334.71,346.36c-31.14,0-46.39-15.19-80.57-15.19v-5.19c34.18,0,49.43,15.18,80.57,15.18"/>
        <path class="cls-1" d="M334.71,324.96c-33.13,0-49.5,15.18-79.68,15.18v-5.19c30.18,0,46.55-15.19,79.68-15.19"/>
        <path class="cls-1" d="M168.92,346.36c31.14,0,46.4-15.19,80.57-15.19v-5.19c-34.18,0-49.43,15.18-80.57,15.18"/>
        <path class="cls-1" d="M168.92,324.96c33.13,0,49.5,15.18,79.68,15.18v-5.19c-30.18,0-46.55-15.19-79.68-15.19"/>
        <polygon class="cls-1" points="273.29 355.28 261.84 338.96 223.39 311.12 236.61 327.29 273.29 355.28"/>
        <polygon class="cls-1" points="276.36 312.78 262.05 328.38 223.23 354.28 236.39 338.9 276.36 312.78"/>
        <polygon class="cls-1" points="251.44 324.04 247.07 323.94 246.72 342.52 251.08 342.62 251.44 324.04"/>
        <polygon class="cls-1" points="247.08 324.1 242.74 323.71 241.27 342.22 245.62 342.61 247.08 324.1"/>
        <polygon class="cls-1" points="251.04 342.46 255.39 342.85 256.86 324.33 252.51 323.94 251.04 342.46"/>
      </g>
      <g>
        <path class="cls-1" d="M168.91,346.36c-31.14,0-46.39-15.19-80.57-15.19v-5.19c34.18,0,49.43,15.18,80.57,15.18"/>
        <path class="cls-1" d="M168.91,324.96c-33.13,0-49.5,15.18-79.68,15.18v-5.19c30.18,0,46.55-15.19,79.68-15.19"/>
        <path class="cls-1" d="M147.31,370.82c-11.34-10.67-22.39-15.85-33.72-21.29-5.66-2.72-11.4-5.51-17.27-9.08-2.94-1.78-5.91-3.77-8.92-6.03-.75-.57-1.51-1.15-2.27-1.75-.38-.3-.76-.61-1.14-.92-.1-.08-.14-.04-.16-.06-.07,0-.12-.13-.08-.29.08-.13.09-.2.26-.21l-.54-5.16c-.87.09-1.76.38-2.49.9-.73.5-1.33,1.17-1.74,1.91-.8,1.48-.91,3.31-.21,4.82.31.76.88,1.39,1.41,1.87.38.31.76.62,1.14.92.76.6,1.52,1.19,2.27,1.75,3.01,2.27,5.99,4.25,8.92,6.03,5.87,3.57,11.6,6.36,17.27,9.08,11.33,5.44,22.37,10.63,33.71,21.3"/>
        <path class="cls-1" d="M132.64,386.42c-12.06-11.35-18.48-22.59-24.62-33.58-3.07-5.5-6.08-10.93-9.69-16.28-1.81-2.68-3.76-5.33-5.96-7.96-.55-.66-1.11-1.31-1.69-1.97-.29-.33-.59-.65-.88-.98l-.06-.06.13.11c.09.08.19.17.28.26.18.18.34.37.5.57.38.42.64.89.93,1.41.52,1.05.88,2.22.91,3.39.07,1.15-.11,2.27-.49,3.31-.37,1.05-.98,2.01-1.8,2.88-.81.88-1.91,1.59-3.07,2.06l-1.88-4.84c.97-.38,1.65-1.17,1.9-1.95.28-.77.21-1.77-.24-2.58-.14-.19-.22-.38-.38-.52-.06-.07-.12-.14-.19-.2l-.11-.08s-.05-.03-.05-.03l.06.06c.3.33.59.66.88.98.58.66,1.14,1.31,1.69,1.97,2.19,2.63,4.15,5.29,5.95,7.96,3.61,5.35,6.62,10.78,9.69,16.28,6.14,10.99,12.55,22.24,24.62,33.59"/>
        <path class="cls-1" d="M107.49,355.28l-11.45-16.32-9.61-6.96c-.79-.58-1.63-1.16-2.38-1.74-.35-.57-1.08-1.03-2.03-.97-.95.05-1.99.63-2.73,1.69-.75,1.04-1.07,2.65-.66,4.28.09.42.24.8.42,1.2l.14.3c.02.07.03.13.04.19l.07.36.28,1.46.56,2.91,1.12,5.83,2.23,11.66,1.45-20.84-.94-5.69-.12-.71c-.05-.14.05-.17.08-.24.05-.06.1-.11.15-.15.11-.09.26-.17.38-.2.16-.05.31-.06.46-.04.65.05,1.3.52,1.65,1.25.35.71.39,1.81-.27,2.88-.32.52-.78,1.03-1.32,1.41-.27.19-.52.39-.82.52l-.11.05s.05.04.07.05l.14.11.29.22,4.58,3.5,18.34,14Z"/>
        <path class="cls-1" d="M110.57,312.78l-14.31,15.59-9.71,6.48-2.43,1.62c-.1.03.03.07.08.11l.21.09c.14.06.29.1.44.14.34.1.69.14,1.07.15.78.03,1.6-.16,2.4-.47,1.57-.67,2.94-1.88,3.76-3.69.4-.9.67-1.97.68-3.13.02-.59-.05-1.18-.15-1.78-.12-.6-.29-1.18-.49-1.75-.24-.57-.46-1.09-.76-1.59l-.23-.37c-.07-.09,0-.05.02-.05l.09.02.36.06,1.44.24,2.88.48,5.75.97,11.51,1.93-20.12,2.19-5.88-1.05-.37-.07-.18-.03s.03.11.04.17c.05.23.04.47.06.72-.02.49-.09.96-.31,1.34-.4.76-1.12,1-1.67.86-.54-.11-.99-.62-.94-1.2.02-.13.04-.31.12-.43.04-.07.08-.14.13-.22.05-.08.19-.14.28-.21l1.25-.82,5-3.26,19.99-13.06Z"/>
        <path class="cls-1" d="M85.64,324.04l-1.09-.03h-.27s-.14,0-.14,0h-.07s-.15,0-.15,0c-.4.02-.79.03-1.2.1-1.62.25-3.23,1.12-4.34,2.36,4.43,4.34,9.3,8.18,14.54,11.51-1.31,1.88-3.49,3.49-5.86,4.17-.56.19-1.2.28-1.72.36-.27.04-.55.06-.82.07h-.41c-.07,0,.06,0,.08,0l1.09.02.36-18.58Z"/>
        <path class="cls-1" d="M78.52,326.55c-1.13,1.16-1.88,2.66-2.11,4.29-.24,1.63.1,3.45.97,4.93,2.91-1.15,5.52-2.93,7.66-5.14.27-.28.53-.56.78-.85.25-.29.49-.59.79-.84l1.72-1.56,3.44-3.12-.36-.41c-.09-.09.09.07.17.14l.29.28c.19.19.37.39.54.59.36.42.73.91,1.01,1.41.31.51.6,1.07.8,1.64.91,2.32.97,4.83.34,7-6.36-.39-12.22-3.42-16.05-8.38Z"/>
        <polygon class="cls-1" points="85.24 342.46 89.59 342.85 91.06 324.33 86.71 323.94 85.24 342.46"/>
      </g>
      <g>
        <path class="cls-1" d="M147.32,370.83c22.68,21.34,23.38,42.85,48.28,66.27l-3.55,3.78c-24.89-23.42-25.6-44.93-48.28-66.26"/>
        <path class="cls-1" d="M132.65,386.42c24.13,22.7,46.45,22.86,68.44,43.54l-3.55,3.78c-21.99-20.68-44.31-20.84-68.44-43.53"/>
        <path class="cls-1" d="M268.07,484.42c-22.68-21.34-44.2-20.73-69.09-44.15l-3.55,3.78c24.89,23.42,46.41,22.81,69.09,44.15"/>
        <path class="cls-1" d="M253.4,500.02c-24.13-22.7-25.65-44.97-47.64-65.65l-3.55,3.78c21.99,20.68,23.5,42.96,47.63,65.66"/>
        <polygon class="cls-1" points="198.16 406.42 195.32 426.15 204.25 472.78 205.7 451.93 198.16 406.42"/>
        <polygon class="cls-1" points="166.8 435.26 187.91 433.72 233.93 441.45 213.81 443.64 166.8 435.26"/>
        <polygon class="cls-1" points="192.67 444.15 195.78 447.21 208.77 433.92 205.66 430.86 192.67 444.15"/>
        <polygon class="cls-1" points="195.88 447.09 198.78 450.35 212.53 437.88 209.64 434.61 195.88 447.09"/>
        <polygon class="cls-1" points="205.58 431 202.68 427.74 188.93 440.22 191.82 443.48 205.58 431"/>
      </g>
      <g>
        <path class="cls-1" d="M299.54,580.65c-6.47,34.78-24.57,49.04-31.67,87.22l-5.1-.95c7.1-38.18,25.19-52.44,31.66-87.22"/>
        <path class="cls-1" d="M278.49,576.74c-6.88,37,4.64,58.06-1.62,91.78l-5.1-.95c6.27-33.72-5.26-54.78,1.62-91.78"/>
        <path class="cls-1" d="M265.11,765.83c6.47-34.78-5.3-54.6,1.8-92.77l-5.1-.95c-7.1,38.17,4.66,57.99-1.81,92.77"/>
        <path class="cls-1" d="M244.06,761.92c6.88-37,25.21-52.51,31.47-86.23l-5.1-.95c-6.27,33.72-24.6,49.22-31.48,86.23"/>
        <polygon class="cls-1" points="295.55 650.88 277.13 660.69 241.77 698.55 260.42 686.73 295.55 650.88"/>
        <polygon class="cls-1" points="254.41 639.68 266.76 658.52 284.17 706.62 271.78 689.11 254.41 639.68"/>
        <polygon class="cls-1" points="260.3 669.58 259.29 674.44 277.48 678.23 278.49 673.38 260.3 669.58"/>
        <polygon class="cls-1" points="259.45 674.45 258.16 679.24 276.05 684.26 277.35 679.48 259.45 674.45"/>
        <polygon class="cls-1" points="278.32 673.4 279.61 668.61 261.71 663.58 260.43 668.37 278.32 673.4"/>
      </g>
      <g>
        <path class="cls-1" d="M265.1,765.84c-6.47,34.78-24.57,49.04-31.67,87.22l-5.1-.95c7.1-38.18,25.19-52.44,31.66-87.22"/>
        <path class="cls-1" d="M244.06,761.93c-6.88,37,4.64,58.06-1.62,91.78l-5.1-.95c6.27-33.72-5.26-54.78,1.62-91.78"/>
        <path class="cls-1" d="M230.67,951.02c6.47-34.78-5.3-54.6,1.8-92.77l-5.1-.95c-7.1,38.17,4.66,57.99-1.81,92.77"/>
        <path class="cls-1" d="M209.62,947.1c6.88-37,25.21-52.51,31.47-86.23l-5.1-.95c-6.27,33.72-24.6,49.22-31.48,86.23"/>
        <polygon class="cls-1" points="261.12 836.07 242.7 845.88 207.33 883.74 225.98 871.92 261.12 836.07"/>
        <polygon class="cls-1" points="219.97 824.87 232.33 843.71 249.73 891.81 237.34 874.3 219.97 824.87"/>
        <polygon class="cls-1" points="225.86 854.77 224.86 859.62 243.05 863.42 244.05 858.57 225.86 854.77"/>
        <polygon class="cls-1" points="225.01 859.64 223.73 864.43 241.62 869.45 242.91 864.67 225.01 859.64"/>
        <polygon class="cls-1" points="243.89 858.58 245.17 853.8 227.28 848.77 225.99 853.56 243.89 858.58"/>
      </g>
      <g>
        <path class="cls-1" d="M126.85,1037.33c-23.59,0-35.15-15.19-61.04-15.19v-5.19c25.89,0,37.45,15.18,61.04,15.18"/>
        <path class="cls-1" d="M126.85,1015.92c-25.1,0-37.5,15.18-60.37,15.18v-5.19c22.87,0,35.27-15.19,60.37-15.19"/>
        <path class="cls-1" d="M1.25,1037.33c23.59,0,35.15-15.19,61.04-15.19v-5.19c-25.89,0-37.45,15.18-61.04,15.18"/>
        <path class="cls-1" d="M1.25,1015.92c25.1,0,37.5,15.18,60.37,15.18v-5.19c-22.87,0-35.27-15.19-60.37-15.19"/>
        <polygon class="cls-1" points="80.32 1046.25 71.65 1029.93 42.51 1002.08 52.53 1018.25 80.32 1046.25"/>
        <polygon class="cls-1" points="82.65 1003.75 71.8 1019.34 42.39 1045.24 52.36 1029.86 82.65 1003.75"/>
        <polygon class="cls-1" points="63.76 1015 60.46 1014.9 60.19 1033.48 63.49 1033.58 63.76 1015"/>
        <polygon class="cls-1" points="60.47 1015.06 57.17 1014.67 56.06 1033.18 59.35 1033.57 60.47 1015.06"/>
        <polygon class="cls-1" points="63.46 1033.42 66.76 1033.81 67.87 1015.29 64.57 1014.91 63.46 1033.42"/>
      </g>
      <g>
        <path class="cls-1" d="M334.7,319.64h1.37s1.36.04,1.36.04l1.36.07,1.35.11,1.34.14,1.33.17,1.32.2,1.31.23,1.3.25,1.29.28,1.28.3,1.26.33,1.25.35,1.24.37,1.23.39c.41.14.81.28,1.21.41.4.14.8.29,1.2.43.4.15.79.3,1.18.45.39.16.78.31,1.17.46.39.16.77.32,1.15.48.38.17.76.33,1.14.49.38.17.75.34,1.12.51.37.17.74.35,1.1.52.36.18.73.35,1.08.53.36.18.71.36,1.07.54.35.18.7.36,1.05.54.69.38,1.37.75,2.04,1.11.66.38,1.32.76,1.96,1.13.64.39,1.26.77,1.88,1.14.61.39,1.21.77,1.79,1.14.58.39,1.15.76,1.7,1.13.55.38,1.09.75,1.61,1.11.52.37,1.02.74,1.51,1.09.49.36.96.71,1.41,1.05.45.35.89.68,1.31,1.01.42.33.82.65,1.2.96.38.31.74.61,1.09.89.34.29.67.56.97.82.3.26.59.51.86.74.53.47.98.88,1.34,1.21.36.34.64.6.83.78.19.18.28.27.28.27l-.88-.7-.9-.69-.91-.67-.93-.65-.95-.64-.96-.62-.98-.6-.99-.59-1-.57-1.02-.56-1.03-.54-1.04-.53-1.04-.51-1.05-.5-1.06-.48-1.06-.47-2.14-.89-2.15-.84c-.72-.26-1.44-.52-2.15-.79-.72-.25-1.43-.49-2.15-.73-.71-.23-1.43-.46-2.13-.68-.71-.21-1.41-.43-2.11-.64-.7-.2-1.39-.4-2.08-.59-.69-.18-1.37-.37-2.04-.55-.67-.17-1.34-.34-2-.5-.66-.16-1.31-.31-1.94-.46-.64-.14-1.27-.28-1.88-.42-.62-.13-1.22-.26-1.81-.38-1.19-.23-2.32-.45-3.39-.66-1.07-.19-2.08-.36-3.01-.52-.94-.15-1.8-.28-2.58-.4-.78-.11-1.47-.21-2.08-.3-1.2-.16-2.03-.27-2.39-.32"/>
        <path class="cls-1" d="M409.7,265.59c-.06.19-.12.39-.18.6-.05.21-.11.42-.17.64-.05.22-.1.45-.16.68-.05.23-.1.47-.15.72-.05.25-.09.5-.14.76-.04.26-.09.52-.13.79-.08.54-.16,1.1-.24,1.69-.07.58-.14,1.19-.21,1.81-.06.62-.12,1.26-.18,1.92-.05.66-.1,1.33-.15,2.02-.04.69-.08,1.39-.13,2.1-.03.71-.07,1.44-.1,2.17-.03.74-.05,1.48-.08,2.23-.03,1.51-.06,3.04-.1,4.58,0,1.55-.02,3.1-.02,4.65.01,1.55.02,3.09.03,4.61.03,1.52.05,3.02.08,4.47.04,1.45.08,2.87.11,4.22.1,2.71.19,5.17.27,7.26.21,4.18.34,6.83.34,6.83l4.88-.3c-.07-.65-.14-1.31-.21-1.98-.06-.67-.12-1.34-.18-2.02-.05-.68-.1-1.37-.15-2.06-.04-.69-.08-1.39-.12-2.09-.03-.7-.06-1.4-.09-2.11-.02-.71-.05-1.41-.07-2.12-.01-.71-.03-1.42-.04-2.13l-.02-2.14c0-1.42.01-2.85.02-4.26.03-1.41.06-2.81.09-4.2.05-1.38.1-2.75.15-4.09.07-1.34.13-2.65.2-3.93.08-1.28.16-2.52.23-3.72.09-1.2.17-2.35.25-3.46.09-1.1.18-2.16.26-3.15.09-.99.18-1.92.26-2.79.09-.86.17-1.66.25-2.38.08-.72.15-1.36.22-1.92.07-.56.13-1.03.18-1.41.06-.38.1-.67.13-.85"/>
        <path class="cls-1" d="M334.7,346.36l1.59.05,1.59.08,1.6.1,1.6.12c1.06.09,2.13.19,3.19.28,1.06.11,2.12.22,3.16.33,2.09.24,4.16.47,6.17.7,1,.11,1.99.22,2.96.33.97.1,1.93.2,2.86.29.93.08,1.85.16,2.73.23.44.03.88.06,1.31.09.43.02.86.04,1.27.06.42.01.83.03,1.23.04.4,0,.8,0,1.19,0,.39,0,.77-.01,1.14-.02.37-.02.74-.04,1.09-.05.18-.01.35-.03.53-.04.17-.02.34-.03.51-.05.17-.02.34-.04.5-.06.16-.02.33-.05.49-.07.16-.03.32-.05.47-.08.16-.03.31-.06.46-.09.15-.03.3-.07.44-.1.15-.04.29-.08.43-.11.14-.04.28-.08.41-.12.13-.05.27-.09.4-.14.13-.05.26-.1.38-.15.12-.05.25-.11.37-.16.12-.06.23-.12.35-.17.11-.06.22-.13.33-.19.11-.07.21-.14.31-.2l.3-.21,1.2-3.33c-.28.02-.59.04-.92.06-.33.01-.68.02-1.05.04-.37,0-.76.01-1.17.02-.41,0-.84,0-1.28,0-.89-.02-1.85-.04-2.86-.06-1.01-.04-2.08-.08-3.18-.13-1.1-.06-2.25-.12-3.41-.18-1.17-.07-2.36-.15-3.56-.23-2.41-.18-4.86-.36-7.24-.54-2.38-.2-4.69-.4-6.81-.57-2.12-.19-4.07-.37-5.71-.52-3.29-.32-5.38-.53-5.38-.53"/>
        <path class="cls-1" d="M434.96,273.96s-.18.91-.5,2.51c-.17.8-.38,1.77-.62,2.9-.26,1.12-.55,2.38-.87,3.77-.34,1.38-.71,2.89-1.11,4.49-.21.8-.42,1.62-.65,2.46-.23.84-.47,1.7-.71,2.58-.25.88-.51,1.77-.77,2.68-.27.9-.55,1.82-.83,2.75-.29.93-.59,1.86-.89,2.81-.31.94-.63,1.89-.95,2.85-.33.95-.67,1.91-1.01,2.86l-1.07,2.86c-.38.95-.75,1.89-1.12,2.84l-.58,1.4-.6,1.39c-.21.46-.41.92-.61,1.37-.21.45-.42.9-.63,1.35-.22.45-.43.89-.64,1.33-.22.44-.44.88-.66,1.31-.23.43-.45.86-.67,1.28-.23.42-.46.84-.69,1.25-.24.41-.47.82-.7,1.22-.24.4-.48.8-.72,1.19-.25.39-.49.77-.73,1.15-.25.38-.5.75-.74,1.11-.26.36-.51.72-.76,1.07-.26.35-.52.69-.77,1.03-.27.33-.53.66-.79.98-.27.32-.54.63-.8.93l-.41.45-.41.43-.41.42-.42.41-.42.39-.42.38-.43.36-.43.35-.44.33-.44.32-.44.3-.45.28-.45.27-.45.25-.46.23-.46.21-.46.2-.47.18-.23.08-.06.02h-.01s0,0-.01.02l-.02.03-.07.1-.29.39-6.94,1.84.36-.25.35-.27.34-.28.34-.3.33-.31.32-.32.32-.34.31-.35.3-.37.3-.38.29-.39.28-.41.28-.42.27-.43.26-.45.26-.46.44-.22.43-.23.43-.24.42-.25.42-.26.41-.27.41-.28.4-.29.4-.3.39-.31.39-.32.38-.33.38-.34.37-.35c.24-.24.49-.48.73-.73.24-.25.48-.5.72-.76.23-.26.46-.53.7-.8.23-.27.45-.55.68-.83.22-.29.44-.57.67-.86.21-.3.43-.59.65-.9.21-.31.42-.61.63-.93.2-.32.41-.63.62-.96.2-.33.4-.65.6-.99.19-.33.39-.67.59-1.01.19-.34.38-.69.57-1.04.19-.35.37-.71.56-1.06.18-.36.36-.72.55-1.09.18-.37.35-.74.53-1.11.17-.38.35-.75.52-1.13.17-.38.34-.77.51-1.15.16-.39.33-.78.5-1.17.16-.4.32-.79.48-1.19.16-.4.32-.8.47-1.21.3-.82.61-1.64.92-2.47.29-.84.58-1.68.88-2.53.28-.85.56-1.71.84-2.57.27-.87.53-1.74.8-2.61.26-.88.51-1.76.77-2.64l.74-2.66.72-2.68c.46-1.79.92-3.58,1.37-5.36.44-1.78.88-3.55,1.31-5.3.43-1.75.85-3.48,1.27-5.17.43-1.69.85-3.36,1.26-4.98"/>
        <polygon class="cls-1" points="394.66 375.02 390.73 355.25 370.24 313.85 375.51 334.21 394.66 375.02"/>
        <polygon class="cls-1" points="413.9 339.77 407.55 339.4 405.96 339.3 405.91 339.3 405.89 339.3 405.87 339.3 405.87 339.3 405.86 339.3 405.79 339.33 405.66 339.4 405.38 339.55 404.82 339.83 402.6 340.97 393.72 345.51 355.47 356 372.22 344.89 391.85 340.66 401.67 338.54 404.12 338.01 404.73 337.88 404.81 337.86 404.83 337.86 404.86 337.86 404.91 337.88 405.12 337.92 405.54 338.01 407.21 338.36 413.9 339.77"/>
        <polygon class="cls-1" points="387.17 337.19 384.02 335.33 378.76 352.42 381.91 354.28 387.17 337.19"/>
        <polygon class="cls-1" points="383.99 335.48 380.93 333.36 374.88 349.95 377.94 352.07 383.99 335.48"/>
        <polygon class="cls-1" points="381.93 354.12 384.99 356.24 391.04 339.66 387.98 337.53 381.93 354.12"/>
        <polygon class="cls-1" points="397.88 355.32 402.49 344.82 404.79 339.57 405.08 338.91 405.22 338.58 405.26 338.5 405.27 338.48 405.27 338.47 405.27 338.47 405.28 338.47 405.32 338.45 405.45 338.36 406.5 337.72 408.61 336.42 430.15 306.3 416.36 316.34 404.05 331.57 402.51 333.47 402.12 333.95 402.07 334.01 402.06 334.03 402.06 334.05 402.05 334.1 402.01 334.3 401.93 334.69 401.62 336.28 400.37 342.63 397.88 355.32"/>
        <polygon class="cls-1" points="435.98 349.51 418.89 337.09 388.38 304.15 405.11 315.61 435.98 349.51"/>
        <polygon class="cls-1" points="421.59 328.61 421.07 325.05 403.06 323.89 403.57 327.45 421.59 328.61"/>
        <polygon class="cls-1" points="420.93 325.06 420.69 321.52 402.57 319.44 402.81 322.98 420.93 325.06"/>
        <polygon class="cls-1" points="403.71 327.42 403.95 330.96 422.07 333.03 421.83 329.49 403.71 327.42"/>
      </g>
      <g>
        <path class="cls-1" d="M273.27,575.77l.19-1.02.23-1.01.26-1,.29-.98.32-.97.35-.96.38-.95.4-.93.43-.92.45-.91.48-.89.5-.88.52-.87.54-.85.56-.84.57-.82.59-.81.6-.8.62-.78.63-.77.64-.75.65-.74.66-.72.67-.71.68-.69.68-.68c.46-.44.92-.88,1.37-1.31.47-.42.93-.84,1.38-1.25.47-.4.93-.8,1.38-1.19.47-.38.92-.76,1.37-1.12.46-.36.91-.71,1.35-1.06.45-.34.89-.67,1.32-.99.44-.32.86-.63,1.28-.93.42-.29.83-.58,1.23-.86.41-.27.8-.54,1.17-.79.38-.25.75-.49,1.11-.72.36-.23.7-.44,1.03-.65.67-.4,1.27-.76,1.79-1.08.54-.31,1-.57,1.37-.78.77-.41,1.19-.63,1.19-.63l-.81.52-.8.54-.78.56-.77.57-.76.59-.74.6-.73.62-.71.63-.7.64-.69.65-.67.66-.66.67-.65.68-.63.69-.62.7-.61.71-1.17,1.43-1.12,1.44-1.07,1.46c-.34.49-.68.98-1.02,1.46-.32.49-.65.98-.97,1.46-.31.49-.61.97-.92,1.45-.29.48-.58.96-.87,1.44-.28.48-.55.95-.82,1.42-.26.47-.52.94-.77,1.39-.24.46-.48.91-.72,1.36-.23.45-.45.89-.67,1.32-.21.43-.42.86-.63,1.28-.2.42-.39.83-.58,1.23-.18.4-.36.79-.53,1.17-.33.76-.64,1.48-.93,2.14-.27.67-.52,1.29-.75,1.84-.22.56-.41,1.06-.58,1.49-.32.87-.55,1.46-.65,1.72"/>
        <path class="cls-1" d="M249.84,503.8c.12.1.24.2.36.31.13.1.26.2.39.31.14.1.28.21.43.31.15.1.3.21.46.32.16.1.32.21.49.32.17.1.34.21.52.32.18.11.36.21.55.32.19.11.38.21.58.32.4.21.81.43,1.24.65.43.21.88.43,1.33.66.46.22.94.44,1.42.66.49.22.99.44,1.49.66.51.22,1.03.44,1.56.66.53.22,1.07.43,1.61.65.55.21,1.1.43,1.65.65.56.21,1.12.42,1.68.64,1.14.41,2.28.83,3.42,1.24,1.15.4,2.3.79,3.42,1.18,1.14.38,2.25.75,3.34,1.11,1.09.35,2.15.69,3.17,1.01,2.05.63,3.91,1.2,5.49,1.68,3.18.92,5.21,1.51,5.21,1.51l2.11-4.25c-.52-.11-1.04-.23-1.57-.34-.52-.12-1.05-.25-1.58-.38-.53-.14-1.06-.27-1.59-.41-.53-.15-1.06-.3-1.6-.44-.53-.16-1.07-.32-1.6-.47-.53-.17-1.07-.33-1.6-.5l-1.6-.52-1.59-.54-1.58-.56-1.56-.58c-1.03-.4-2.05-.79-3.06-1.18-1-.41-1.98-.81-2.95-1.2-.96-.41-1.89-.81-2.81-1.2-.9-.4-1.78-.8-2.64-1.18-.84-.39-1.66-.77-2.43-1.13-.77-.37-1.51-.72-2.2-1.05-.69-.34-1.33-.66-1.93-.96-.59-.3-1.14-.58-1.64-.84-.49-.26-.93-.49-1.31-.69-.38-.21-.7-.38-.96-.52-.25-.15-.45-.26-.57-.33"/>
        <path class="cls-1" d="M299.54,580.65l.27-1.17.3-1.17.32-1.17.34-1.17c.24-.77.48-1.55.72-2.32.25-.77.51-1.53.76-2.29.52-1.51,1.04-3.01,1.54-4.46.25-.73.49-1.44.74-2.14.23-.7.46-1.4.68-2.07.11-.34.21-.67.31-1.01.1-.33.2-.66.29-.98.09-.32.18-.65.27-.96.08-.32.16-.63.24-.94.07-.31.14-.61.21-.91.06-.3.12-.59.17-.88.05-.29.09-.57.14-.85l.05-.42.04-.41.03-.4.02-.39v-.38c.01-.13,0-.25,0-.37,0-.12,0-.25-.01-.37,0-.12-.02-.24-.03-.36-.01-.12-.03-.23-.04-.35-.02-.11-.03-.23-.05-.34-.02-.11-.04-.22-.07-.33-.03-.11-.05-.22-.08-.32-.03-.11-.06-.21-.09-.31-.04-.1-.07-.2-.11-.3l-.12-.29-.14-.28-.15-.27-.17-.26-3.11-1.5c-.02.21-.04.44-.07.69-.03.25-.07.51-.11.79-.05.28-.1.57-.15.87-.06.3-.12.62-.18.95-.07.33-.14.67-.21,1.03-.08.35-.16.72-.24,1.09-.18.74-.37,1.53-.57,2.34-.21.81-.43,1.65-.65,2.5-.23.85-.47,1.73-.72,2.61-.51,1.76-1.03,3.54-1.53,5.28-.53,1.73-1.04,3.41-1.51,4.96-.48,1.54-.93,2.95-1.3,4.15-.77,2.39-1.26,3.91-1.26,3.91"/>
        <path class="cls-1" d="M268.07,484.42s.58.39,1.62,1.09c.51.36,1.13.79,1.84,1.29.7.51,1.5,1.09,2.37,1.73.43.32.88.66,1.35,1.02.46.36.94.73,1.44,1.11.49.39.99.79,1.51,1.2.51.42,1.03.84,1.57,1.28.53.44,1.06.9,1.61,1.36.54.47,1.08.95,1.64,1.43.54.49,1.1.99,1.65,1.5.55.51,1.1,1.03,1.65,1.56.54.53,1.09,1.07,1.63,1.61l1.6,1.66.79.85.77.86.76.87.74.88.72.89.7.89.68.9c.22.3.44.61.65.91.21.31.42.61.63.91.2.31.4.61.6.92.19.31.38.62.57.92.18.31.36.62.54.92.17.31.34.62.5.93.16.31.31.62.47.93.14.31.29.62.43.93.13.31.26.62.39.93.12.31.23.63.35.93l.16.47.15.47.14.46.12.46.11.46.1.46.09.46.08.46.06.46.05.46.04.46.02.46v.46s0,.46,0,.46l-.02.45-.03.45-.05.45-.06.45-.08.45-.09.45-.05.22v.06s-.02.01-.02.01h0s.02.03.02.03l.09.07.34.29.85,5.49-.2-.31-.21-.31-.23-.31-.24-.3-.26-.3-.27-.3-.29-.3-.3-.29-.32-.29-.33-.29-.35-.29-.36-.28-.38-.28-.39-.28c-.27-.18-.54-.37-.82-.55.03-.28.06-.57.09-.86l.03-.43.02-.43v-.42s0-.42,0-.42v-.42s-.03-.42-.03-.42l-.03-.42-.04-.42-.05-.42-.06-.41-.07-.41-.08-.41c-.06-.27-.12-.54-.18-.82-.07-.27-.15-.54-.22-.81-.08-.27-.17-.54-.25-.81-.09-.26-.19-.53-.29-.8-.11-.26-.21-.53-.32-.8-.12-.26-.23-.52-.35-.79-.13-.26-.25-.52-.38-.79-.14-.26-.27-.52-.41-.78-.15-.26-.29-.51-.44-.77-.15-.25-.31-.51-.47-.77-.16-.25-.33-.51-.49-.76-.17-.25-.34-.5-.52-.76-.18-.25-.36-.5-.54-.75l-.57-.75-.59-.74-.61-.74-.63-.73-.65-.73-.67-.72-.68-.72-.7-.71c-.48-.47-.96-.94-1.45-1.41-.5-.46-1-.93-1.5-1.39-.51-.46-1.03-.91-1.55-1.37l-1.58-1.35-1.61-1.34-1.63-1.32c-1.1-.86-2.2-1.73-3.3-2.58-1.11-.84-2.2-1.68-3.29-2.51-1.09-.83-2.16-1.64-3.21-2.45-1.05-.81-2.07-1.61-3.08-2.38"/>
        <polygon class="cls-1" points="336 541.31 316.02 540.63 272.49 548.29 293.23 548.1 336 541.31"/>
        <polygon class="cls-1" points="306.61 519.72 303.3 525.04 302.48 526.38 302.45 526.42 302.44 526.44 302.43 526.45 302.43 526.45 302.43 526.46 302.46 526.51 302.51 526.63 302.61 526.86 302.81 527.33 303.62 529.19 306.86 536.62 311.88 566.98 303.27 552.49 301.83 537.12 301.1 529.44 300.92 527.52 300.88 527.04 300.87 526.98 300.87 526.96 300.89 526.94 300.92 526.9 301.05 526.73 301.32 526.4 302.38 525.06 306.61 519.72"/>
        <polygon class="cls-1" points="297.77 539.97 295.51 541.97 311.59 549 313.85 547 297.77 539.97"/>
        <polygon class="cls-1" points="295.66 542.02 293.15 543.91 308.62 551.44 311.12 549.55 295.66 542.02"/>
        <polygon class="cls-1" points="313.7 546.96 316.2 545.08 300.73 537.54 298.22 539.43 313.7 546.96"/>
        <polygon class="cls-1" points="317.07 535.32 307.39 529.98 302.55 527.3 301.94 526.97 301.64 526.8 301.56 526.76 301.54 526.75 301.54 526.75 301.54 526.74 301.54 526.73 301.54 526.7 301.54 526.57 301.56 525.5 301.61 523.35 289.66 497.03 290.49 511.45 295.86 525.98 296.53 527.8 296.69 528.25 296.71 528.31 296.72 528.32 296.74 528.33 296.79 528.34 296.98 528.41 297.36 528.54 298.88 529.06 304.94 531.15 317.07 535.32"/>
        <polygon class="cls-1" points="324.34 503.41 307.01 514.75 268.13 532.15 284.58 520.88 324.34 503.41"/>
        <polygon class="cls-1" points="302.04 510.21 299.17 509.72 289.71 524.8 292.59 525.3 302.04 510.21"/>
        <polygon class="cls-1" points="299.1 509.85 296.38 509.12 286.2 524.05 288.92 524.78 299.1 509.85"/>
        <polygon class="cls-1" points="292.63 525.17 295.36 525.9 305.54 510.96 302.81 510.24 292.63 525.17"/>
      </g>
      <g>
        <path class="cls-1" d="M126.85,1010.61h1.58s1.57.04,1.57.04l1.56.07,1.55.11,1.54.14,1.53.17,1.52.2,1.51.23,1.49.25,1.48.28,1.47.3c.49.11.97.22,1.45.33.48.12.96.23,1.44.35.48.12.95.25,1.43.37.47.13.94.26,1.41.39.47.14.93.28,1.39.41.46.14.92.29,1.38.43.46.15.91.3,1.36.45.45.16.9.31,1.34.46.44.16.89.32,1.32.48.44.17.87.33,1.31.49.43.17.86.34,1.29.51.43.17.85.35,1.27.52.42.18.83.35,1.25.53.82.37,1.63.73,2.43,1.08.79.38,1.58.75,2.35,1.11.76.38,1.52.76,2.26,1.13.73.39,1.45.77,2.16,1.14.7.39,1.39.77,2.06,1.14.67.39,1.32.76,1.96,1.13.63.38,1.25.75,1.85,1.11.6.37,1.18.74,1.74,1.09.56.36,1.1.71,1.63,1.05.52.35,1.02.68,1.51,1.01.48.33.94.65,1.38.96.44.31.86.61,1.25.89.39.29.77.56,1.12.82.35.26.68.51.99.74.61.47,1.12.88,1.55,1.21.42.34.74.6.95.78.21.18.32.27.32.27-.33-.23-.67-.47-1.01-.7-.34-.23-.69-.46-1.03-.69-.35-.22-.7-.44-1.05-.67-.36-.22-.71-.43-1.07-.65l-1.09-.64-1.11-.62-1.12-.6-1.14-.59-1.16-.57-1.17-.56-1.18-.54-1.19-.53-1.2-.51-1.21-.5c-.81-.32-1.63-.63-2.44-.95l-2.46-.89-2.47-.84c-.83-.26-1.65-.52-2.48-.79-.83-.25-1.65-.49-2.47-.73-.82-.23-1.64-.46-2.45-.68-.82-.21-1.63-.43-2.43-.64-.81-.2-1.6-.4-2.4-.59-.79-.18-1.58-.37-2.35-.55-.78-.17-1.54-.34-2.3-.5-.76-.16-1.5-.31-2.24-.46-.74-.14-1.46-.28-2.17-.42-.71-.13-1.41-.26-2.09-.38-1.36-.23-2.67-.45-3.9-.66-1.23-.19-2.39-.36-3.47-.52-1.08-.15-2.07-.28-2.97-.4-.9-.11-1.7-.21-2.39-.3-1.38-.16-2.33-.27-2.76-.32"/>
        <path class="cls-1" d="M204.52,946.16c-.04.23-.07.46-.11.71-.03.24-.06.49-.1.75-.03.26-.05.52-.08.8-.02.27-.05.55-.07.84-.02.29-.04.58-.06.88-.01.3-.03.61-.04.92-.02.63-.04,1.28-.05,1.95,0,.67,0,1.37-.01,2.09.01.72.02,1.45.03,2.21.02.75.05,1.52.07,2.31.03.79.07,1.59.1,2.4.04.81.09,1.64.14,2.48.05.84.11,1.68.17,2.54.13,1.71.27,3.45.41,5.2.16,1.75.32,3.51.48,5.26.18,1.75.36,3.5.54,5.21.19,1.72.38,3.4.57,5.04.2,1.64.39,3.23.57,4.75.4,3.05.76,5.82,1.06,8.17.66,4.69,1.09,7.67,1.09,7.67l4.84-1.23c-.14-.73-.28-1.46-.43-2.2-.13-.74-.27-1.5-.4-2.26-.12-.76-.25-1.53-.38-2.3-.12-.77-.23-1.55-.35-2.34-.11-.79-.22-1.58-.32-2.37-.1-.79-.2-1.59-.3-2.39-.09-.8-.18-1.6-.28-2.41l-.26-2.42c-.15-1.61-.3-3.22-.45-4.83-.12-1.6-.25-3.2-.37-4.77-.1-1.57-.2-3.13-.3-4.66-.08-1.53-.16-3.02-.23-4.48-.06-1.46-.12-2.88-.18-4.25-.04-1.37-.08-2.69-.12-3.96-.03-1.26-.06-2.47-.08-3.61-.02-1.14-.03-2.21-.04-3.2,0-1.99,0-3.66,0-4.95,0-.64.02-1.19.02-1.63.01-.44.03-.77.03-.98"/>
        <path class="cls-1" d="M126.85,1037.32l1.83.06,1.83.08c1.22.07,2.45.15,3.68.22,1.23.09,2.45.19,3.67.28,1.22.11,2.43.22,3.64.33,2.41.24,4.79.47,7.1.7,1.16.11,2.29.22,3.41.33,1.12.1,2.22.2,3.29.29,1.07.08,2.12.16,3.15.23.51.03,1.01.06,1.51.09.5.02.99.04,1.47.06.48.01.95.03,1.42.04.46,0,.92,0,1.37,0,.45,0,.89-.01,1.31-.02.43-.02.85-.04,1.26-.05.41-.03.81-.06,1.2-.09.19-.02.39-.04.58-.06.19-.02.38-.05.56-.07.18-.03.37-.05.54-.08.18-.03.35-.06.53-.09.17-.03.34-.07.51-.1.17-.04.33-.08.49-.11.16-.04.32-.08.48-.12.16-.05.31-.09.46-.14.15-.05.3-.1.44-.15.14-.05.28-.11.42-.16.14-.06.27-.12.4-.17.13-.06.26-.13.38-.19.12-.07.24-.13.36-.2.12-.07.23-.14.34-.21l1.38-3.33c-.32.02-.68.04-1.05.06-.38.01-.78.02-1.21.04-.43,0-.88.01-1.35.02-.47,0-.96,0-1.48,0-1.03-.02-2.13-.04-3.29-.06-1.16-.04-2.39-.09-3.66-.13-1.27-.06-2.59-.12-3.93-.18-1.34-.07-2.72-.15-4.1-.23-2.77-.18-5.59-.36-8.33-.54-2.74-.2-5.4-.4-7.84-.57-2.44-.19-4.68-.37-6.57-.52-3.78-.32-6.2-.53-6.2-.53"/>
        <path class="cls-1" d="M230.67,951.02s-.08,1.06-.22,2.93c-.08.94-.19,2.08-.3,3.39-.13,1.31-.29,2.8-.45,4.43-.19,1.63-.4,3.4-.62,5.28-.12.94-.25,1.91-.38,2.9-.14.99-.28,2.01-.42,3.05-.15,1.04-.31,2.09-.47,3.17-.17,1.07-.35,2.16-.53,3.27-.19,1.1-.38,2.22-.58,3.34-.21,1.12-.42,2.26-.63,3.39-.23,1.14-.46,2.28-.69,3.42-.25,1.14-.5,2.29-.75,3.43-.27,1.14-.54,2.28-.81,3.41l-.43,1.69c-.15.56-.3,1.12-.45,1.68-.16.56-.31,1.11-.46,1.67-.16.55-.32,1.1-.48,1.65-.17.54-.33,1.09-.5,1.62-.17.54-.34,1.07-.51,1.6-.18.53-.36,1.05-.53,1.57-.18.52-.37,1.03-.55,1.54-.19.51-.38,1.01-.57,1.51-.2.5-.39.99-.59,1.48-.2.48-.4.96-.6,1.44-.21.47-.42.94-.62,1.4-.22.46-.43.91-.64,1.35-.22.44-.44.87-.66,1.3-.23.42-.46.84-.68,1.25-.24.41-.47.81-.7,1.2l-.36.58-.36.56-.37.55-.37.54-.38.52-.38.5-.39.49-.39.47-.4.45-.4.44-.41.42-.41.4-.42.38-.43.37-.43.35-.44.33-.44.31-.45.29-.23.14-.06.03h-.01s0,0-.01.02l-.02.03-.08.1-.34.39-7.99,1.84.41-.25.4-.27.39-.28.39-.3.38-.31.37-.32.36-.34.36-.35.35-.37.34-.38.33-.39.33-.41.32-.42.31-.43.3-.45.3-.46.41-.32.41-.33.4-.35.39-.36.39-.37.38-.38.38-.39.37-.4.36-.41.36-.42.35-.43.35-.44c.22-.3.45-.61.68-.92.22-.31.43-.63.66-.95.21-.33.42-.66.63-.99.2-.34.41-.68.61-1.03.2-.35.39-.71.59-1.06.19-.36.38-.73.57-1.1.18-.37.37-.75.55-1.13.18-.38.35-.77.53-1.16.17-.39.34-.79.51-1.19.16-.4.33-.81.5-1.22.16-.41.32-.83.48-1.25.15-.42.31-.85.46-1.28.15-.43.29-.87.44-1.31.14-.44.28-.88.43-1.33.14-.45.27-.9.41-1.35.13-.46.26-.92.4-1.38.13-.46.25-.93.38-1.4.12-.47.24-.94.37-1.42.23-.96.46-1.92.7-2.89.21-.98.43-1.97.64-2.96.2-1,.4-2,.6-3.02.18-1.02.37-2.04.56-3.07.17-1.03.34-2.06.52-3.1.16-1.04.32-2.09.48-3.13.15-1.05.3-2.1.45-3.15l.43-3.16c.26-2.11.53-4.22.79-6.31.25-2.1.49-4.18.73-6.24.24-2.06.47-4.09.71-6.09.24-2,.48-3.95.71-5.86"/>
        <polygon class="cls-1" points="195.85 1065.98 191.32 1046.21 167.74 1004.81 173.81 1025.17 195.85 1065.98"/>
        <polygon class="cls-1" points="216.83 1029.33 210.44 1030.06 208.84 1030.25 208.74 1030.26 208.66 1030.3 208.5 1030.37 208.18 1030.51 207.55 1030.79 204.99 1031.93 194.77 1036.47 150.75 1046.96 170.02 1035.85 192.62 1031.62 203.91 1029.5 206.74 1028.97 207.44 1028.84 207.53 1028.82 207.55 1028.82 207.58 1028.82 207.63 1028.82 207.85 1028.84 208.28 1028.86 209.99 1028.95 216.83 1029.33"/>
        <polygon class="cls-1" points="187.23 1028.15 183.61 1026.29 177.55 1043.38 181.18 1045.24 187.23 1028.15"/>
        <polygon class="cls-1" points="183.57 1026.45 180.05 1024.32 173.09 1040.91 176.61 1043.03 183.57 1026.45"/>
        <polygon class="cls-1" points="181.19 1045.09 184.72 1047.21 191.68 1030.62 188.16 1028.49 181.19 1045.09"/>
        <path class="cls-1" d="M199.55,1046.28l5.31-10.5,2.65-5.25.33-.66.17-.33.04-.08v-.02s.01,0,.01,0h0s0-.01,0-.01l.03-.03.12-.12.98-.93,1.97-1.85,18.23-38.01-12.68,13.88-10.65,19.48-1.33,2.43-.33.61-.04.08v.02s-.02.02-.02.02v.05s-.06.2-.06.2l-.09.4-.36,1.59-1.44,6.34-2.87,12.69Z"/>
        <polygon class="cls-1" points="239.96 1036.33 221.52 1025.38 187.42 993.67 205.4 1003.6 239.96 1036.33"/>
        <polygon class="cls-1" points="223.29 1015.31 222.39 1011.36 204.25 1013.33 205.16 1017.27 223.29 1015.31"/>
        <polygon class="cls-1" points="222.24 1011.4 221.62 1007.44 203.28 1008.39 203.91 1012.35 222.24 1011.4"/>
        <polygon class="cls-1" points="205.3 1017.21 205.92 1021.17 224.26 1020.22 223.63 1016.26 205.3 1017.21"/>
      </g>
    </g>
  </g>
</svg>