<?xml version="1.0" encoding="UTF-8"?>
<svg id="Layer_2" data-name="Layer 2" xmlns="http://www.w3.org/2000/svg" viewBox="0 0 918.75 1055.47">
  <defs>
    <style>
      .cls-1 {
        fill: #bfbfbf;
        stroke: #000;
        stroke-linecap: round;
        stroke-width: 2.5px;
      }
    </style>
  </defs>
  <g id="Layer_2-2" data-name="Layer 2">
    <g>
      <g>
        <g>
          <path class="cls-1" d="M30.62,1054.22c-.15-32.56,14.97-48.57,14.81-84.31l5.19-.02c.16,35.73-14.95,51.75-14.8,84.31"/>
          <path class="cls-1" d="M52.03,1054.13c-.16-34.64-15.41-51.68-15.55-83.24l5.19-.02c.14,31.56,15.41,48.61,15.56,83.24"/>
          <path class="cls-1" d="M29.85,880.89c.15,32.56,15.41,48.44,15.57,84.17l5.19-.02c-.16-35.73-15.41-51.61-15.56-84.17"/>
          <path class="cls-1" d="M51.26,880.79c.16,34.64-14.95,51.82-14.81,83.38l5.19-.02c-.14-31.56,14.97-48.74,14.81-83.38"/>
          <polygon class="cls-1" points="21.42 990.05 37.68 978.01 65.35 937.68 49.24 951.58 21.42 990.05"/>
          <polygon class="cls-1" points="63.93 993.07 48.27 978.18 22.19 937.7 37.63 951.39 63.93 993.07"/>
          <polygon class="cls-1" points="52.56 967.06 52.64 962.5 34.06 962.21 33.98 966.77 52.56 967.06"/>
          <polygon class="cls-1" points="52.48 962.51 52.85 957.96 34.33 956.51 33.96 961.06 52.48 962.51"/>
          <polygon class="cls-1" points="34.14 966.73 33.77 971.27 52.29 972.73 52.66 968.18 34.14 966.73"/>
        </g>
        <g>
          <path class="cls-1" d="M29.85,880.88c-.15-32.56,14.97-48.57,14.81-84.31l5.19-.02c.16,35.73-14.95,51.75-14.8,84.31"/>
          <path class="cls-1" d="M51.26,880.78c-.16-34.64-15.41-51.68-15.55-83.24l5.19-.02c.14,31.56,15.41,48.61,15.56,83.24"/>
          <path class="cls-1" d="M29.07,707.55c.15,32.56,15.41,48.44,15.57,84.17l5.19-.02c-.16-35.73-15.41-51.61-15.56-84.17"/>
          <path class="cls-1" d="M50.48,707.45c.16,34.64-14.95,51.82-14.81,83.38l5.19-.02c-.14-31.56,14.97-48.74,14.81-83.38"/>
          <polygon class="cls-1" points="20.64 816.7 36.91 804.66 64.57 764.33 48.46 778.23 20.64 816.7"/>
          <polygon class="cls-1" points="63.15 819.73 47.5 804.83 21.41 764.36 36.86 778.05 63.15 819.73"/>
          <polygon class="cls-1" points="51.78 793.71 51.86 789.16 33.28 788.87 33.2 793.43 51.78 793.71"/>
          <polygon class="cls-1" points="51.71 789.17 52.07 784.62 33.56 783.17 33.18 787.71 51.71 789.17"/>
          <polygon class="cls-1" points="33.36 793.38 32.99 797.93 51.51 799.38 51.88 794.84 33.36 793.38"/>
        </g>
        <g>
          <path class="cls-1" d="M29.07,707.53c-.15-32.56,14.97-48.57,14.81-84.31l5.19-.02c.16,35.73-14.95,51.75-14.8,84.31"/>
          <path class="cls-1" d="M50.48,707.44c-.16-34.64-15.41-51.68-15.55-83.24l5.19-.02c.14,31.56,15.41,48.61,15.56,83.24"/>
          <path class="cls-1" d="M28.29,534.2c.15,32.56,15.41,48.44,15.57,84.17l5.19-.02c-.16-35.73-15.41-51.61-15.56-84.17"/>
          <path class="cls-1" d="M49.7,534.11c.16,34.64-14.95,51.82-14.81,83.38l5.19-.02c-.14-31.56,14.97-48.74,14.81-83.38"/>
          <polygon class="cls-1" points="19.86 643.36 36.13 631.32 63.8 590.99 47.68 604.89 19.86 643.36"/>
          <polygon class="cls-1" points="62.38 646.38 46.72 631.49 20.64 591.01 36.08 604.7 62.38 646.38"/>
          <polygon class="cls-1" points="51 620.37 51.08 615.81 32.51 615.52 32.43 620.08 51 620.37"/>
          <polygon class="cls-1" points="50.93 615.82 51.3 611.27 32.78 609.82 32.41 614.37 50.93 615.82"/>
          <polygon class="cls-1" points="32.58 620.04 32.22 624.59 50.74 626.04 51.11 621.49 32.58 620.04"/>
        </g>
        <g>
          <path class="cls-1" d="M28.29,534.19c-.15-32.56,14.97-48.57,14.81-84.31l5.19-.02c.16,35.73-14.95,51.75-14.8,84.31"/>
          <path class="cls-1" d="M49.7,534.09c-.16-34.64-15.41-51.68-15.55-83.24l5.19-.02c.14,31.56,15.41,48.61,15.56,83.24"/>
          <path class="cls-1" d="M27.52,360.86c.15,32.56,15.41,48.44,15.57,84.17l5.19-.02c-.16-35.73-15.41-51.61-15.56-84.17"/>
          <path class="cls-1" d="M48.93,360.76c.16,34.64-14.95,51.82-14.81,83.38l5.19-.02c-.14-31.56,14.97-48.74,14.81-83.38"/>
          <polygon class="cls-1" points="19.09 470.02 35.35 457.97 63.02 417.64 46.91 431.54 19.09 470.02"/>
          <polygon class="cls-1" points="61.6 473.04 45.94 458.14 19.86 417.67 35.3 431.36 61.6 473.04"/>
          <polygon class="cls-1" points="50.23 447.03 50.31 442.47 31.73 442.18 31.65 446.74 50.23 447.03"/>
          <polygon class="cls-1" points="50.15 442.48 50.52 437.93 32.01 436.48 31.63 441.02 50.15 442.48"/>
          <polygon class="cls-1" points="31.81 446.69 31.44 451.24 49.96 452.69 50.33 448.15 31.81 446.69"/>
        </g>
        <g>
          <path class="cls-1" d="M223.66,306.03c20.41,34.01,17.39,58.49,39.8,95.81l-4.45,2.67c-22.4-37.33-19.39-61.8-39.8-95.81"/>
          <path class="cls-1" d="M205.3,317.04c21.72,36.18,45.46,46.25,65.25,79.21l-4.45,2.67c-19.79-32.97-43.54-43.03-65.26-79.21"/>
          <path class="cls-1" d="M332.34,487.09c-20.41-34.01-43.44-42.86-65.84-80.18l-4.45,2.67c22.4,37.33,45.42,46.18,65.83,80.19"/>
          <path class="cls-1" d="M313.98,498.11c-21.72-36.18-19.43-61.87-39.22-94.84l-4.45,2.67c19.79,32.97,17.5,58.66,39.21,94.84"/>
          <polygon class="cls-1" points="271.57 368.51 265.08 389.41 266.41 445.74 271.61 422.98 271.57 368.51"/>
          <polygon class="cls-1" points="233.12 387.03 255.87 394.64 303.52 423.71 281.71 417.25 233.12 387.03"/>
          <polygon class="cls-1" points="259.11 408.46 261.88 413.28 278.04 404.11 275.27 399.29 259.11 408.46"/>
          <polygon class="cls-1" points="262.01 413.19 264.52 418.13 281.36 410.21 278.85 405.26 262.01 413.19"/>
          <polygon class="cls-1" points="275.16 399.42 272.64 394.47 255.81 402.39 258.32 407.34 275.16 399.42"/>
        </g>
        <g>
          <path class="cls-1" d="M332.35,487.1c20.41,34.01,17.39,58.49,39.8,95.81l-4.45,2.67c-22.4-37.33-19.39-61.8-39.8-95.81"/>
          <path class="cls-1" d="M313.99,498.12c21.72,36.18,45.46,46.25,65.25,79.21l-4.45,2.67c-19.79-32.97-43.54-43.03-65.26-79.21"/>
          <path class="cls-1" d="M441.02,668.17c-20.41-34.01-43.44-42.86-65.84-80.18l-4.45,2.67c22.4,37.33,45.42,46.18,65.83,80.19"/>
          <path class="cls-1" d="M422.67,679.19c-21.72-36.18-19.43-61.87-39.22-94.84l-4.45,2.67c19.79,32.97,17.5,58.66,39.21,94.84"/>
          <polygon class="cls-1" points="380.26 549.59 373.77 570.49 375.1 626.82 380.3 604.05 380.26 549.59"/>
          <polygon class="cls-1" points="341.8 568.11 364.55 575.72 412.21 604.79 390.4 598.33 341.8 568.11"/>
          <polygon class="cls-1" points="367.79 589.54 370.57 594.35 386.73 585.18 383.95 580.37 367.79 589.54"/>
          <polygon class="cls-1" points="370.69 594.26 373.21 599.21 390.04 591.29 387.53 586.34 370.69 594.26"/>
          <polygon class="cls-1" points="383.85 580.49 381.33 575.55 364.49 583.47 367.01 588.42 383.85 580.49"/>
        </g>
        <g>
          <path class="cls-1" d="M200.75,319.78c-2.37-3.97-4.72-7.92-7.06-11.84-2.3-3.95-4.59-7.87-6.86-11.78-2.23-3.92-4.45-7.82-6.66-11.69-2.17-3.88-4.32-7.74-6.46-11.58-2.1-3.84-4.18-7.66-6.25-11.45-2.03-3.79-4.05-7.56-6.05-11.3-1.96-3.74-3.91-7.45-5.84-11.14-1.89-3.68-3.77-7.33-5.63-10.95-1.82-3.61-3.63-7.19-5.42-10.74-1.75-3.54-3.49-7.04-5.21-10.51-1.68-3.46-3.35-6.88-4.99-10.26-1.61-3.37-3.2-6.7-4.78-9.99-1.54-3.27-3.06-6.51-4.56-9.7-1.47-3.17-2.91-6.3-4.34-9.38-1.4-3.07-2.77-6.09-4.12-9.05-1.32-2.95-2.62-5.86-3.9-8.7-1.25-2.83-2.47-5.61-3.67-8.33-1.17-2.71-2.32-5.35-3.45-7.94-1.1-2.57-2.17-5.08-3.22-7.53-1.03-2.43-2.02-4.8-2.99-7.1-1.88-4.56-3.65-8.84-5.29-12.82-1.58-3.94-3.04-7.56-4.36-10.85-1.27-3.26-2.41-6.17-3.41-8.72-.96-2.52-1.78-4.68-2.45-6.43-1.28-3.46-1.98-5.34-1.98-5.34.55,1.37,1.11,2.76,1.67,4.15.58,1.4,1.15,2.81,1.73,4.22,1.21,2.86,2.42,5.74,3.65,8.65,1.28,2.94,2.58,5.91,3.88,8.91,1.35,3.02,2.71,6.06,4.09,9.12,1.41,3.08,2.84,6.19,4.27,9.31,1.47,3.14,2.95,6.29,4.43,9.46,1.52,3.18,3.04,6.37,4.57,9.57,1.56,3.21,3.12,6.43,4.69,9.66,1.59,3.23,3.19,6.47,4.78,9.71,1.62,3.24,3.24,6.49,4.86,9.72,1.64,3.24,3.28,6.48,4.91,9.71,1.65,3.23,3.3,6.45,4.94,9.65,3.33,6.42,6.63,12.77,9.88,19.02,3.31,6.26,6.55,12.41,9.73,18.41,3.22,6.01,6.36,11.87,9.4,17.54,3.08,5.67,6.05,11.15,8.9,16.39,2.88,5.24,5.63,10.25,8.22,14.98,2.62,4.73,5.08,9.17,7.37,13.29,4.62,8.24,8.51,15.18,11.47,20.47,2.98,5.28,5.03,8.9,5.93,10.5"/>
          <path class="cls-1" d="M54.12,360.73c-.03-2.01-.06-4.15-.09-6.42-.06-2.27-.12-4.66-.18-7.17-.08-2.5-.17-5.12-.26-7.84-.11-2.71-.22-5.53-.34-8.44-.28-5.8-.58-11.98-.89-18.46-.36-6.45-.74-13.19-1.12-20.15-.43-6.93-.86-14.07-1.31-21.35-.48-7.25-.96-14.63-1.45-22.06-1.04-14.8-2.1-29.78-3.12-44.29-1.08-14.45-2.13-28.42-3.1-41.26-1-12.8-1.92-24.46-2.69-34.31-1.6-19.66-2.61-32.15-2.61-32.15l-4.5,9.18c.56,6.04,1.13,12.23,1.72,18.54.54,6.36,1.09,12.84,1.65,19.4.52,6.6,1.05,13.28,1.57,20,.5,6.75,1,13.54,1.5,20.34.47,6.82.94,13.64,1.41,20.42.45,6.8.89,13.56,1.33,20.24.82,13.41,1.61,26.49,2.37,38.92.69,12.47,1.35,24.29,1.95,35.11.56,10.85,1.06,20.71,1.5,29.23.4,8.55.74,15.75,1.01,21.29.23,5.54.39,9.41.47,11.26"/>
          <path class="cls-1" d="M223.66,306.03c-2.7-4.59-5.42-9.2-8.14-13.82-2.7-4.64-5.4-9.28-8.1-13.93-5.35-9.31-10.69-18.6-15.96-27.77-10.48-18.35-20.66-36.18-29.98-52.51-2.35-4.08-4.65-8.06-6.89-11.93-2.26-3.87-4.46-7.62-6.58-11.26-2.16-3.62-4.24-7.12-6.24-10.49-1.01-1.68-2.01-3.32-2.98-4.93-.98-1.6-1.94-3.17-2.88-4.7-.95-1.52-1.88-3.01-2.78-4.46-.91-1.44-1.81-2.84-2.67-4.2-.88-1.35-1.73-2.66-2.56-3.94-.84-1.26-1.66-2.48-2.45-3.66-.8-1.16-1.58-2.28-2.33-3.37-.76-1.06-1.49-2.08-2.2-3.07-.36-.48-.71-.95-1.05-1.42-.35-.45-.69-.9-1.02-1.34-.34-.43-.66-.84-.99-1.26-.32-.4-.64-.79-.95-1.17l-5.98-3.48c1.49,2.43,3.23,5.26,5.19,8.45,1.93,3.2,4.07,6.76,6.38,10.61,4.57,7.73,9.84,16.63,15.5,26.21,5.61,9.61,11.63,19.9,17.75,30.38,6.09,10.49,12.29,21.18,18.31,31.55,23.94,41.56,45.06,78.23,45.06,78.23"/>
          <path class="cls-1" d="M27.52,360.85s-.13-4.61-.37-12.78c-.2-8.2-.49-19.97-.84-34.26-.14-7.16-.3-14.94-.46-23.23-.13-8.29-.27-17.09-.42-26.26-.1-9.17-.21-18.72-.32-28.51-.06-9.79-.11-19.83-.17-29.98,0-5.08,0-10.18-.01-15.3.01-5.12.03-10.25.04-15.37.04-5.12.07-10.25.11-15.35.06-5.1.12-10.18.18-15.23.09-5.04.17-10.05.25-15.02.11-4.95.23-9.86.34-14.7.14-4.83.29-9.6.43-14.29.18-4.67.35-9.27.53-13.78.21-4.49.42-8.88.63-13.18.12-2.14.24-4.25.36-6.33.13-2.07.26-4.12.38-6.14.14-2.01.28-3.99.41-5.94.15-1.94.3-3.85.44-5.73.16-1.87.32-3.7.47-5.51.17-1.79.34-3.54.51-5.27.18-1.7.36-3.38.54-5.02.19-1.62.38-3.2.57-4.76.21-1.53.41-3.02.61-4.49.22-1.43.43-2.83.64-4.2.11-.67.22-1.33.33-1.99.12-.64.23-1.28.34-1.92.12-.62.24-1.23.35-1.84.12-.59.24-1.18.36-1.76.12-.56.25-1.12.37-1.68.13-.54.25-1.07.38-1.6l.19-.77.05-.19v-.05s.03.01.04.02l.07.06.27.26c.37.36.73.71,1.1,1.07l19.58,29.04-1.14-1.41-1.14-1.38-1.13-1.34-1.13-1.3-1.12-1.26-1.11-1.23-1.11-1.19-1.1-1.15-1.1-1.12-1.09-1.08-1.09-1.05-1.08-1.01-1.08-.98-1.07-.94-1.07-.91-1.06-.88s0,.03-.02.04v.05s-.03.11-.03.11l-.04.21-.09.43-.17.87c-.11.59-.22,1.17-.33,1.77-.21,1.21-.42,2.43-.64,3.66-.2,1.27-.4,2.55-.6,3.84-.19,1.32-.38,2.66-.57,4.01-.18,1.38-.36,2.77-.54,4.17-.17,1.43-.34,2.87-.51,4.33-.16,1.48-.32,2.98-.48,4.49-.15,1.53-.3,3.07-.45,4.64-.14,1.58-.28,3.17-.42,4.78-.13,1.62-.26,3.27-.39,4.92-.12,1.67-.24,3.36-.36,5.06-.11,1.71-.22,3.44-.34,5.19-.2,3.52-.39,7.11-.6,10.76-.16,3.68-.33,7.42-.5,11.23-.13,3.83-.27,7.72-.41,11.66-.11,3.96-.21,7.98-.32,12.06-.08,4.09-.16,8.23-.24,12.42-.05,4.2-.11,8.45-.17,12.74-.03,4.3-.06,8.64-.1,13.02-.01,4.38-.02,8.81-.03,13.27.03,8.92.07,17.97.1,27.12.09,9.14.19,18.38.28,27.65.14,9.27.28,18.58.42,27.88.72,37.17,1.43,74.21,2.08,107.82"/>
          <polygon class="cls-1" points="92.68 32.12 85.94 59.3 103.6 169.16 107.38 135.92 92.68 32.12"/>
          <polygon class="cls-1" points="25.25 12.56 31.36 4.26 32.89 2.19 32.94 2.13 32.96 2.09 32.97 2.08 32.98 2.07 32.99 2.09 33.2 2.37 33.62 2.93 34.46 4.06 36.15 6.31 42.88 15.32 69.81 51.36 178.05 211.32 125.07 144.63 70.51 61.96 43.23 20.62 36.41 10.28 34.71 7.7 34.49 7.38 34.44 7.3 34.41 7.31 34.36 7.34 34.15 7.47 33.72 7.71 32.03 8.68 25.25 12.56"/>
          <polygon class="cls-1" points="79.67 83.96 86.25 98.54 114.55 112.47 107.98 97.9 79.67 83.96"/>
          <polygon class="cls-1" points="86.47 98.59 92.59 112.91 122.51 130.53 116.39 116.21 86.47 98.59"/>
          <polygon class="cls-1" points="107.8 97.92 101.69 83.61 71.76 65.99 77.88 80.31 107.8 97.92"/>
          <path class="cls-1" d="M67.45,28.37l-20.96-14.52-10.48-7.26-1.31-.91-.66-.45-.16-.11-.04-.03h-.01s0,0,0,0v.04s-.03.15-.03.15l-.1.6-.78,4.78-1.55,9.56-10.18,178.32,9.62-69.97,6.49-92.43.81-11.55.2-2.89.03-.36v-.09s.04,0,.04,0l.07.02.27.07.54.13,2.17.53,8.67,2.12,17.35,4.25Z"/>
          <polygon class="cls-1" points="1.18 1.08 21.46 33.33 61.26 142.44 41.65 114.16 1.18 1.08"/>
          <polygon class="cls-1" points="21.75 78.16 23.44 94.4 40.8 71.33 39.12 55.1 21.75 78.16"/>
          <polygon class="cls-1" points="23.57 94.13 24.99 110.68 42.76 91.81 41.34 75.26 23.57 94.13"/>
          <polygon class="cls-1" points="39 55.46 37.58 38.91 19.82 57.8 21.23 74.34 39 55.46"/>
        </g>
      </g>
      <g>
        <g>
          <path class="cls-1" d="M885.07,1049.57c-.73-32.18,14.1-48.29,13.31-83.61l5.19-.12c.8,35.32-14.03,51.42-13.3,83.61"/>
          <path class="cls-1" d="M906.47,1049.09c-.77-34.23-16.33-50.81-17.03-82l5.19-.12c.7,31.19,16.27,47.77,17.04,82"/>
          <path class="cls-1" d="M881.2,878.25c.73,32.18,16.26,47.6,17.06,82.92l5.19-.12c-.8-35.32-16.33-50.74-17.05-82.92"/>
          <path class="cls-1" d="M902.61,877.76c.77,34.23-14.02,51.49-13.32,82.69l5.19-.12c-.7-31.19,14.1-48.45,13.33-82.69"/>
          <polygon class="cls-1" points="874.72 986.3 890.77 974.1 917.71 933.74 901.85 947.77 874.72 986.3"/>
          <polygon class="cls-1" points="917.28 988.52 901.36 974.08 874.56 934.54 890.24 947.79 917.28 988.52"/>
          <polygon class="cls-1" points="905.44 963.01 905.44 958.5 886.86 958.55 886.86 963.06 905.44 963.01"/>
          <polygon class="cls-1" points="905.29 958.52 905.57 954.02 887.04 952.91 886.74 957.42 905.29 958.52"/>
          <polygon class="cls-1" points="887.02 963.02 886.74 967.52 905.28 968.62 905.56 964.12 887.02 963.02"/>
        </g>
        <g>
          <path class="cls-1" d="M881.2,878.23c-.73-32.18,14.1-48.29,13.31-83.61l5.19-.12c.8,35.32-14.03,51.42-13.3,83.61"/>
          <path class="cls-1" d="M902.61,877.75c-.77-34.23-16.33-50.81-17.03-82l5.19-.12c.7,31.19,16.27,47.77,17.04,82"/>
          <path class="cls-1" d="M877.34,706.91c.73,32.18,16.27,47.6,17.06,82.92l5.19-.12c-.8-35.32-16.33-50.74-17.05-82.92"/>
          <path class="cls-1" d="M898.74,706.43c.77,34.23-14.02,51.49-13.32,82.69l5.19-.12c-.7-31.19,14.1-48.45,13.33-82.69"/>
          <polygon class="cls-1" points="870.85 814.97 886.9 802.77 913.85 762.4 897.99 776.43 870.85 814.97"/>
          <polygon class="cls-1" points="913.42 817.18 897.49 802.74 870.7 763.21 886.38 776.46 913.42 817.18"/>
          <polygon class="cls-1" points="901.58 791.68 901.58 787.17 883 787.22 883 791.73 901.58 791.68"/>
          <polygon class="cls-1" points="901.42 787.18 901.71 782.68 883.17 781.58 882.88 786.08 901.42 787.18"/>
          <polygon class="cls-1" points="883.16 791.68 882.87 796.18 901.42 797.28 901.7 792.78 883.16 791.68"/>
        </g>
        <g>
          <path class="cls-1" d="M877.34,706.9c-.73-32.18,14.1-48.29,13.31-83.61l5.19-.12c.8,35.32-14.03,51.42-13.3,83.61"/>
          <path class="cls-1" d="M898.74,706.42c-.77-34.23-16.33-50.81-17.03-82l5.19-.12c.7,31.19,16.27,47.77,17.04,82"/>
          <path class="cls-1" d="M873.48,535.58c.73,32.18,16.26,47.6,17.06,82.92l5.19-.12c-.8-35.32-16.33-50.74-17.05-82.92"/>
          <path class="cls-1" d="M894.88,535.09c.77,34.23-14.02,51.49-13.32,82.69l5.19-.12c-.7-31.19,14.1-48.45,13.33-82.69"/>
          <polygon class="cls-1" points="866.99 643.63 883.04 631.43 909.99 591.07 894.12 605.1 866.99 643.63"/>
          <polygon class="cls-1" points="909.55 645.85 893.63 631.41 866.83 591.87 882.52 605.12 909.55 645.85"/>
          <polygon class="cls-1" points="897.72 620.34 897.72 615.83 879.14 615.88 879.14 620.39 897.72 620.34"/>
          <polygon class="cls-1" points="897.56 615.85 897.85 611.35 879.31 610.24 879.02 614.75 897.56 615.85"/>
          <polygon class="cls-1" points="879.3 620.35 879.01 624.85 897.55 625.95 897.84 621.45 879.3 620.35"/>
        </g>
        <g>
          <path class="cls-1" d="M873.48,535.56c-.73-32.18,14.1-48.29,13.31-83.61l5.19-.12c.8,35.32-14.03,51.43-13.3,83.61"/>
          <path class="cls-1" d="M894.88,535.08c-.77-34.23-16.33-50.81-17.03-82l5.19-.12c.7,31.19,16.27,47.77,17.04,82"/>
          <path class="cls-1" d="M869.63,364.75c.01.4.03.79.04,1.19.02.43.04.85.06,1.28.05.97.11,1.93.19,2.88.15,1.89.36,3.72.61,5.51.5,3.57,1.17,6.95,1.95,10.21,1.57,6.52,3.61,12.57,5.64,18.72,4.08,12.29,8.16,24.98,8.56,42.64l5.19-.12c-.4-17.66-4.48-30.34-8.55-42.64-2.04-6.15-4.07-12.2-5.64-18.72-.79-3.26-1.45-6.64-1.95-10.21-.25-1.79-.45-3.62-.61-5.51-.08-.94-.14-1.9-.19-2.88-.02-.44-.04-.88-.06-1.33-.01-.42-.03-.85-.04-1.28"/>
          <path class="cls-1" d="M891.02,363.67c.05,2.25.04,4.31-.03,6.32-.07,2.01-.18,3.97-.35,5.87-.33,3.81-.84,7.41-1.48,10.87-1.27,6.92-3.02,13.26-4.78,19.51-3.51,12.49-7.04,24.61-6.69,40.2l5.19-.12c-.35-15.6,3.17-27.71,6.69-40.2,1.76-6.25,3.51-12.59,4.78-19.51.63-3.46,1.15-7.06,1.48-10.87.16-1.9.28-3.86.35-5.88.03-1.01.05-2.03.06-3.07,0-.55,0-1.1,0-1.65,0-.58-.02-1.16-.03-1.75"/>
          <polygon class="cls-1" points="863.13 472.3 879.18 460.1 906.12 419.73 890.26 433.76 863.13 472.3"/>
          <polygon class="cls-1" points="905.69 474.52 889.77 460.07 862.97 420.54 878.66 433.79 905.69 474.52"/>
          <polygon class="cls-1" points="893.86 449.01 893.86 444.5 875.28 444.55 875.28 449.06 893.86 449.01"/>
          <polygon class="cls-1" points="893.7 444.51 893.99 440.01 875.45 438.91 875.16 443.41 893.7 444.51"/>
          <polygon class="cls-1" points="875.43 449.01 875.15 453.51 893.69 454.62 893.98 450.11 875.43 449.01"/>
        </g>
        <g>
          <path class="cls-1" d="M869.63,364.74c-.14-6.37.68-12.04,1.97-17.85,1.29-5.79,3.06-11.7,4.81-18.12,1.75-6.41,3.5-13.35,4.75-20.93,1.25-7.56,2.02-15.8,1.82-24.35l5.07-5.2c.2,9.07-.55,17.76-1.79,25.73-1.24,7.99-2.98,15.3-4.72,22.08-1.74,6.79-3.5,13.06-4.79,19.24-1.28,6.2-2.1,12.29-1.94,19.13"/>
          <path class="cls-1" d="M891.02,363.65c-.2-8.89-1.32-16.54-2.89-23.04-1.57-6.52-3.59-11.93-5.6-16.81-2.01-4.89-4-9.26-5.53-13.98-1.53-4.74-2.59-9.82-2.75-16.55l5.07-5.15c.16,7.19,1.24,12.68,2.78,17.81,1.54,5.11,3.55,9.84,5.56,15.1,2.02,5.25,4.05,11.03,5.63,17.96,1.58,6.91,2.71,15,2.92,24.4"/>
          <path class="cls-1" d="M866.57,228.89c.11,4.86.74,8.17,1.69,10.66,2.02,5.48,5.51,7.82,8.58,12.81,1.54,2.48,2.97,5.59,4.06,9.87,1.09,4.27,1.83,9.71,1.99,16.62l5.07-5.48c-.17-7.34-.92-13.16-2.01-17.77-1.1-4.62-2.53-8.05-4.08-10.84-3.09-5.61-6.59-8.52-8.62-14.65-.96-2.79-1.59-6.43-1.71-11.66"/>
          <path class="cls-1" d="M886.87,186.19c.11,3.1.11,6.28-.02,9.53-.13,3.28-.36,6.59-.68,9.89-1.48,15.64-4.6,31.19-7.31,44.98-1.35,6.92-2.6,13.44-3.48,19.56-.88,6.13-1.39,11.85-1.27,17.38l5.06-5.54c-.13-5.91.37-11.97,1.24-18.43.87-6.45,2.11-13.28,3.46-20.5,2.69-14.4,5.81-30.54,7.27-46.9.29-3.41.5-6.83.6-10.23.07-3.33,0-6.54-.16-9.7"/>
          <path class="cls-1" d="M859.73,321.34c5.29-6.95,10.55-14.63,15.81-23.05,8.83-20.08,17.57-44.38,26.21-72.9-5.1,12.81-10.23,24.78-15.37,35.9-8.79,24.06-17.67,44.07-26.65,60.04Z"/>
          <path class="cls-1" d="M901.58,292.09c-5.24-1.96-10.47-3.04-15.67-3.24-8.76-5.51-17.43-7.05-26.01-4.64,5.04-3.83,10.1-6.86,15.18-9.09,8.74,1.55,17.57,7.2,26.5,16.97Z"/>
          <polygon class="cls-1" points="889.9 273.42 889.89 268.58 871.76 288.45 871.74 292.32 889.9 273.42"/>
          <path class="cls-1" d="M889.74,268.76l.27-5.15c-6.02,6.48-12.05,13.07-18.07,19.77l-.3,4.21c6.03-6.38,12.06-12.66,18.1-18.83Z"/>
          <path class="cls-1" d="M871.9,292.12l-.29,4.15c6.04-5.67,12.09-11.24,18.14-16.7l.27-5.09c-6.04,5.77-12.08,11.65-18.12,17.64Z"/>
        </g>
        <g>
          <path class="cls-1" d="M866.57,228.88c-.14-6.37.64-13.9,1.87-22.5,1.23-8.58,2.91-18.21,4.58-28.35,1.67-10.13,3.33-20.78,4.52-31.15,1.19-10.35,1.91-20.45,1.72-28.99l3.82-12.1c.14,4.32.17,8.73.06,13.23-.05,2.25-.14,4.52-.25,6.82-.07,1.17-.13,2.32-.2,3.46-.04.59-.08,1.17-.11,1.75l-.06.88-.1.99c-1.18,10.78-2.83,21.8-4.49,32.3-1.66,10.51-3.33,20.49-4.56,29.46-1.22,8.99-1.99,16.93-1.84,23.78"/>
          <path class="cls-1" d="M886.87,186.18c-.32-8.62-1.47-14.22-2.78-18.36-.17-.52-.33-1.02-.5-1.5-.17-.48-.33-.97-.56-1.28-.42-.7-.87-1.3-1.32-1.82-.91-1.03-1.88-1.74-2.84-2.33-1.92-1.17-3.84-1.82-5.3-3.76-1.47-1.96-2.49-5.18-2.64-11.91l4.84-15.31c.16,7.19,1.19,10.82,2.67,13.16.74,1.16,1.59,1.99,2.49,2.73.45.37.92.71,1.4,1.06l.36.26c.06.05.12.08.18.14l.13.26.54,1.03c1.48,2.71,3.16,5.34,4.69,9.4.38,1.01.75,2.11,1.1,3.31.35,1.22.67,2.59.96,4.08.3,1.49.56,3.13.79,4.92.11.9.22,1.83.31,2.81.09,1,.16,2.06.22,3.16"/>
          <path class="cls-1" d="M851.76,138.81c3.16-5.53,6.66-13.55,10.57-23.24,1.01-2.56,2.01-5.07,3-7.55.52-1.33,1.04-2.65,1.55-3.97l.79-2.03.4-1.02c.07-.16.11-.37.23-.48.13-.11.17-.09.18-.12.88-.57,1.81-1.3,2.75-1.9,1.87-1.21,3.75-1.91,5.22-.05,1.47,1.84,2.51,6.26,2.71,14.81l3.77-12.17c-.14-4.32-.39-8-.67-11.26-.14-1.63-.29-3.14-.45-4.58-.08-.71-.16-1.4-.24-2.09-.04-.34-.08-.67-.12-1l-.06-.49c-.02-.16-.08-.17-.13-.26-1.47-2.27-3.37-1.95-5.24-1.11-.94.42-1.88.96-2.76,1.35-.02.02-.06,0-.19.1-.12.11-.17.32-.24.49l-.41,1.05-.82,2.09c-.54,1.36-1.08,2.72-1.62,4.09-1.03,2.56-2.08,5.16-3.14,7.8-4.1,10.03-7.81,18.41-11.21,24.35"/>
          <path class="cls-1" d="M866.15,74.61c4.21-7.12,7.63-12.17,10.68-16.59.38-.55.75-1.09,1.13-1.62l.55-.79.14-.19h.09s.17,0,.17,0c.23.01.44.06.65.13l.08.03s.16.12.15.33l-.14,1.19c-.09.8-.19,1.59-.28,2.38-.75,6.35-1.55,12.73-2.36,18.98-1.62,12.52-3.24,24.51-4.43,34.95-1.19,10.46-1.94,19.36-1.78,26.08l4.84-15.7c-.16-7.19.58-16.49,1.76-27.34.59-5.42,1.29-11.21,2.04-17.27.39-3.1.78-6.18,1.16-9.26l.3-2.36.15-1.18.04-.78.15-3.09c.19-4.1.35-8.14.46-12.11.01-.49.03-.99.04-1.49l.02-.74c0-.13-.17-.19-.21-.11l-.13.17c-.35.46-.7.93-1.05,1.4-.71.95-1.44,1.92-2.18,2.92-3,4.04-6.36,8.68-10.51,15.32"/>
          <path class="cls-1" d="M857.06,202.95c5.04-17.6,10.07-35.94,15.08-55.01,2.11-9.57,4.21-19.39,6.3-29.49l3.14-15.34.2-.97.05-.24.02-.16.05-.31.18-1.25.35-2.48.67-4.91c.87-6.49,1.64-12.78,2.3-18.85.66-6.07,1.27-11.86,1.77-17.45-1.46,10.36-3.18,21.49-5.2,33.33l-.32,2.37c-.01.14-.09.51-.15.84l-.2.98-.39,1.96-1.57,7.79-3.16,15.31c-2.11,10.08-4.22,19.9-6.34,29.47-4.24,19.14-8.49,37.28-12.77,54.4Z"/>
          <path class="cls-1" d="M891.7,105.9l-5.09,6.29-2.32,2.82-1.11,1.33-.54.64-.27.32-.13.16s-.04.04-.07.09l-.12.23c-8.38,11.4-16.67,26.76-24.87,46.09,4.82-13.87,9.65-26.94,14.5-39.21,2.09-3.88,4.18-7.49,6.28-10.85,1.05-1.68,2.1-3.3,3.16-4.85l.79-1.15c.04-.07.05-.06.07-.05h.05s.1.02.1.02l.21.02c.28.03.57.05.87.05,2.36.02,5.19-.6,8.47-1.93Z"/>
          <polygon class="cls-1" points="883.9 100.15 883.76 95.67 877.18 116.91 868.53 145.06 868.52 149.13 883.9 100.15"/>
          <polygon class="cls-1" points="883.69 95.9 883.67 91.03 881.63 97.33 877.32 111.32 868.7 139.41 868.42 144.39 877.05 116.76 881.37 103.01 883.69 95.9"/>
          <polygon class="cls-1" points="868.66 148.62 868.39 153.52 877.05 126.97 881.38 113.75 883.99 105.99 883.99 101.07 881.64 108.13 877.31 121.59 868.66 148.62"/>
        </g>
        <g>
          <path class="cls-1" d="M851.76,138.81c-3.16,5.53-5.26,7.27-7.05,7.54-1.79.26-3.27-.98-5.01-1.76-1.73-.8-3.72-1.14-6.4.67-2.67,1.79-6.03,5.76-10.28,13.18l1.28-11.85c2.23-3.78,4.25-6.81,6.08-9.31.92-1.25,1.79-2.38,2.63-3.4.41-.49.82-.98,1.23-1.46l.59-.68c.2-.23.39-.45.57-.55,2.88-2.17,5.06-2.15,6.97-1.67,1.92.47,3.58,1.38,5.56.79,1.99-.61,4.29-2.72,7.69-8.66"/>
          <path class="cls-1" d="M866.14,74.62c-4.22,7.12-8.22,14.66-12.07,22.76-.48,1.03-.96,2.05-1.44,3.06-.24.52-.48,1.03-.71,1.55l-.18.39-.2.5-.4,1c-1.06,2.73-2.1,5.41-3.13,8.06-2.06,5.39-4.07,10.8-6.01,16.1-3.89,10.6-7.51,20.76-10.95,29.63-3.45,8.89-6.7,16.48-10.04,22.32l1.42-12.92c3.57-6.24,7.03-14.19,10.67-23.41,1.82-4.61,3.68-9.52,5.59-14.66.98-2.63,1.95-5.24,2.91-7.85l.74-2,.37-1,.34-.81,1.36-3.23c3.65-8.6,7.39-16.94,11.21-24.66,3.82-7.74,7.84-14.9,12.01-21.56"/>
          <path class="cls-1" d="M784.24,256.73c3.16-5.53,5.74-11.93,8.26-19.2,2.51-7.26,4.96-15.35,7.67-23.9,2.7-8.54,5.66-17.52,9.06-26.33,3.39-8.79,7.24-17.42,11.49-24.84l1.16-11.78c-4.46,7.55-8.5,16.12-12.09,25.2-3.61,9.16-6.75,18.47-9.63,27.32-2.89,8.86-5.51,17.27-8.22,24.86-2.72,7.61-5.5,14.38-8.9,20.32"/>
          <path class="cls-1" d="M779.28,222.32c4.42-7.72,8.46-12.87,12.06-16.29,3.61-3.44,6.78-5.16,9.69-6.43,2.92-1.28,5.58-2.1,8.29-3.98,2.72-1.89,5.49-4.82,8.84-10.66l1.22-12.58c-3.57,6.24-6.55,9.52-9.46,11.75-2.91,2.21-5.75,3.35-8.85,4.94-3.1,1.59-6.46,3.63-10.27,7.42-3.8,3.77-8.07,9.31-12.74,17.47"/>
          <path class="cls-1" d="M823.35,206.39c.72-12.2,1.07-23.77,1.06-34.69-.72-3.42-1.56-6.61-2.54-9.57-.49-1.48-1.01-2.9-1.57-4.27-.13-.39-.29-.56-.44-.82l-.46-.74-.94-1.49c-1.28-2-2.66-4.07-4.14-6.2-1.48-2.12-3.11-4.03-4.84-6.02,1.1,3.67,2.11,7.37,3.02,11.08.92,3.69,1.71,7.54,2.46,11.22l.46.81c.15.3.29.66.43.99.28.68.56,1.37.83,2.07.54,1.41,1.04,2.87,1.52,4.39.95,3.04,1.77,6.29,2.47,9.77,1.4,6.95,2.29,14.78,2.68,23.48Z"/>
          <path class="cls-1" d="M839.45,102.29c-2.01,6.71-3.99,13.57-5.92,20.57l-2.87,10.62-1.42,5.39-1.41,5.52c-9.35,33.71-16.74,63.99-22.16,90.83,2.03-13.86,4.45-28.41,7.27-43.66,1.86-7.63,3.85-15.48,5.96-23.55l3.27-12.28.85-3.12.82-2.8,1.66-5.52c4.49-14.72,9.13-28.7,13.96-42.01Z"/>
          <polygon class="cls-1" points="823.3 144.98 821.02 148.58 816.79 192.14 818.64 189.12 823.3 144.98"/>
          <polygon class="cls-1" points="820.99 148.89 818.76 151.91 816.64 173.16 814.5 195.53 816.29 193.2 818.67 170.42 820.99 148.89"/>
          <polygon class="cls-1" points="818.66 188.76 820.42 186.46 823.33 162.75 826.09 140.84 823.88 143.85 821.33 165.46 818.66 188.76"/>
        </g>
        <g>
          <path class="cls-1" d="M784.23,256.74c-3.16,5.53-6.18,8.88-9.36,11.57-3.17,2.68-6.5,4.67-10.09,7.11-3.58,2.43-7.42,5.31-11.48,9.54-4.05,4.21-8.34,9.79-12.59,17.21l-3.66-4.05c4.51-7.88,9.02-13.85,13.28-18.42,4.27-4.59,8.29-7.79,12.05-10.55,3.77-2.76,7.27-5.07,10.64-8.08,3.38-3.03,6.6-6.75,10-12.69"/>
          <path class="cls-1" d="M779.27,222.33c-4.42,7.72-8.02,15.92-10.96,23.92-2.95,8.01-5.24,15.84-7.27,23.21-2.04,7.38-3.82,14.3-5.87,20.76-2.06,6.47-4.39,12.45-7.74,18.28l-3.63-4.1c3.57-6.24,6.11-12.57,8.36-19.38,2.25-6.79,4.2-14.03,6.43-21.73,2.22-7.69,4.69-15.84,7.84-24.21,3.14-8.35,6.97-16.94,11.64-25.1"/>
          <path class="cls-1" d="M710.61,385.34c8-13.97,10.66-26.26,13.52-38.89,1.42-6.3,2.92-12.74,5.11-19.43,2.01-6.37,4.93-13.39,9.18-20.81l-3.8-3.81c-4.51,7.87-7.66,15.29-9.87,22.01-2.22,6.74-3.7,13.14-5.12,19.45-2.86,12.63-5.52,24.92-13.52,38.89"/>
          <path class="cls-1" d="M692.03,374.7c8.51-14.86,18.16-24.07,27.62-32.96,2.36-2.22,4.72-4.42,7.04-6.68,1.16-1.13,2.31-2.28,3.45-3.45,1.08-1.13,2.18-2.28,3.29-3.44,4.11-4.31,7.8-8.85,11.14-14.69l-3.83-3.76c-3.57,6.24-7.47,11.14-11.77,15.78-1.06,1.13-2.21,2.36-3.35,3.53-1.14,1.17-2.29,2.32-3.45,3.45-2.32,2.26-4.67,4.46-7.04,6.68-9.46,8.88-19.11,18.1-27.62,32.96"/>
          <path class="cls-1" d="M764.51,309.15c-4.58-2.95-9.52-5.27-14.83-6.95-5.95,1.05-12.42,3.02-19.42,5.9-3.5,1.44-7.13,3.11-10.89,5.01-1.88.95-3.79,1.96-5.74,3.02l-1.47.81-.74.41-.69.32-2.74,1.29c1.75-.34,3.45-.6,5.23-1,1.82-.46,3.61-.88,5.38-1.25,3.53-.74,6.96-1.3,10.28-1.68,13.89-5.47,25.76-7.43,35.63-5.89Z"/>
          <path class="cls-1" d="M741.19,264.35c.1,10.28.64,19.8,1.61,28.56-.48,9.52-.46,18.18.05,25.98.25,3.9.63,7.59,1.13,11.06.25,1.74.53,3.42.84,5.04l.24,1.21c.03.21.1.37.11.63l.04.75.16,2.98c-.56-1.61-1.08-3.27-1.66-4.83-.69-1.37-1.36-2.79-2-4.25-1.28-2.92-2.47-6.01-3.55-9.27-1.03-15.72-.02-35,3.04-57.85Z"/>
          <polygon class="cls-1" points="734.23 299.15 731.81 303.17 745.52 316.61 747.47 313.41 734.23 299.15"/>
          <path class="cls-1" d="M731.93,303.28l-2.64,3.83c4.5,4.56,9.05,9.03,13.65,13.41l2.17-3c-4.45-4.65-8.85-9.39-13.19-14.23Z"/>
          <path class="cls-1" d="M747.34,313.33l2.14-2.96c-4.1-5.27-8.14-10.63-12.13-16.08l-2.61,3.78c4.15,5.18,8.34,10.27,12.6,15.26Z"/>
        </g>
        <g>
          <path class="cls-1" d="M710.6,385.35c-15.99,27.93-37.01,34.07-54.56,64.73l-4.5-2.58c17.55-30.66,38.56-36.8,54.56-64.73"/>
          <path class="cls-1" d="M692.02,374.71c-17.01,29.72-12.25,51.94-27.75,79.02l-4.5-2.58c15.5-27.08,10.73-49.31,27.74-79.02"/>
          <path class="cls-1" d="M625.45,534.06c15.99-27.93,10.65-49.17,28.2-79.82l-4.5-2.58c-17.55,30.66-12.21,51.89-28.21,79.82"/>
          <path class="cls-1" d="M606.88,523.42c17.01-29.72,38.6-36.86,54.1-63.93l-4.5-2.58c-15.5,27.08-37.09,34.21-54.11,63.93"/>
          <polygon class="cls-1" points="686.8 444.87 666.76 447.03 622.84 467.69 643.67 463.86 686.8 444.87"/>
          <polygon class="cls-1" points="651.5 421 657.67 441.59 660.21 489.28 653.62 469.83 651.5 421"/>
          <polygon class="cls-1" points="648.46 448.95 646.13 452.81 662.07 462.36 664.4 458.5 648.46 448.95"/>
          <polygon class="cls-1" points="646.27 452.88 643.7 456.59 659.01 467.1 661.59 463.4 646.27 452.88"/>
          <polygon class="cls-1" points="664.24 458.46 666.81 454.75 651.5 444.24 648.93 447.94 664.24 458.46"/>
        </g>
        <g>
          <path class="cls-1" d="M625.45,534.07c-15.99,27.93-37.01,34.07-54.56,64.73l-4.5-2.58c17.55-30.66,38.56-36.8,54.56-64.73"/>
          <path class="cls-1" d="M606.87,523.43c-17.01,29.72-12.25,51.94-27.75,79.02l-4.5-2.58c15.5-27.08,10.73-49.31,27.74-79.02"/>
          <path class="cls-1" d="M540.3,682.79c15.99-27.93,10.65-49.17,28.2-79.82l-4.5-2.58c-17.55,30.66-12.21,51.89-28.21,79.82"/>
          <path class="cls-1" d="M521.72,672.15c17.01-29.72,38.6-36.86,54.1-63.93l-4.5-2.58c-15.5,27.08-37.09,34.21-54.11,63.93"/>
          <polygon class="cls-1" points="601.65 593.6 581.6 595.76 537.69 616.42 558.52 612.59 601.65 593.6"/>
          <polygon class="cls-1" points="566.34 569.72 572.52 590.31 575.06 638 568.47 618.56 566.34 569.72"/>
          <polygon class="cls-1" points="563.31 597.68 560.98 601.54 576.92 611.09 579.24 607.23 563.31 597.68"/>
          <polygon class="cls-1" points="561.12 601.61 558.55 605.32 573.86 615.83 576.43 612.13 561.12 601.61"/>
          <polygon class="cls-1" points="579.09 607.19 581.66 603.48 566.34 592.96 563.77 596.67 579.09 607.19"/>
        </g>
      </g>
      <g>
        <path class="cls-1" d="M267.04,628.02c-.01,8.74-2.19,16.94-5.71,23.83-3.52,6.91-8.33,12.55-13.7,16.85-5.36,4.33-11.36,7.28-17.41,9.06-6.07,1.78-12.23,2.35-18.16,1.94-11.86-.89-23.01-5.77-31.81-13.86-4.39-4.06-8.22-8.94-11.17-14.62-.36-.72-.77-1.41-1.09-2.15-.31-.75-.63-1.5-.95-2.26-.7-1.48-1.12-3.1-1.66-4.69-.29-.79-.46-1.62-.65-2.46-.19-.83-.39-1.67-.59-2.51-.16-.85-.25-1.72-.39-2.59-.1-.88-.31-1.75-.33-2.64l5.17-.45c0,.79.21,1.56.29,2.33.12.77.2,1.54.33,2.29.17.75.35,1.49.52,2.22.17.74.3,1.48.57,2.17.48,1.4.83,2.84,1.45,4.15.27.67.55,1.34.82,2,.28.66.64,1.27.95,1.91,2.57,5.05,5.9,9.43,9.77,13.09,7.73,7.31,17.61,11.9,28.32,12.89,5.35.46,10.93.03,16.45-1.5,5.51-1.53,11-4.14,15.92-8.03,4.93-3.87,9.35-8.98,12.6-15.26,3.24-6.26,5.25-13.74,5.27-21.72"/>
        <path class="cls-1" d="M245.63,628.02c-.11,11.98-4.51,22.24-11.13,30.11-3.33,3.94-7.25,7.28-11.65,9.92-4.39,2.62-9.26,4.63-14.44,5.61-5.16,1.01-10.64,1.21-16.19.32-5.55-.87-11.14-2.89-16.32-6.12-5.18-3.22-9.98-7.67-13.77-13.31-3.78-5.63-6.52-12.5-7.45-20.06l5.15-.62c.83,6.83,3.33,13.02,6.77,18.07,3.45,5.07,7.82,9.03,12.52,11.87,4.7,2.85,9.74,4.58,14.73,5.26,4.98.7,9.87.42,14.45-.59,4.6-.97,8.86-2.87,12.68-5.27,3.82-2.42,7.2-5.44,10.04-8.94,5.66-7.02,9.29-15.89,9.4-26.24"/>
        <path class="cls-1" d="M267.04,628c-.01-8.74-2.2-16.94-5.72-23.83-3.53-6.91-8.34-12.54-13.71-16.85-5.37-4.33-11.36-7.28-17.42-9.05-6.07-1.77-12.23-2.35-18.16-1.93-11.86.9-23.01,5.78-31.8,13.87-4.39,4.06-8.21,8.94-11.16,14.62-.36.72-.77,1.41-1.09,2.15-.31.75-.63,1.5-.95,2.26-.7,1.48-1.11,3.1-1.66,4.69-.29.79-.46,1.63-.65,2.46-.19.83-.39,1.67-.59,2.51-.15.85-.25,1.72-.39,2.59-.06.44-.13.87-.19,1.31-.08.44-.12.88-.13,1.33l5.17.45c0-.4.05-.79.12-1.18l.17-1.16c.12-.77.2-1.54.33-2.29.17-.75.35-1.49.52-2.22.17-.73.3-1.48.56-2.17.48-1.4.83-2.84,1.44-4.15.28-.67.55-1.34.82-2,.27-.66.64-1.27.95-1.91,2.57-5.05,5.9-9.43,9.76-13.1,3.86-3.67,8.26-6.63,13.04-8.82,1.2-.53,2.4-1.12,3.65-1.49.63-.21,1.25-.42,1.87-.63.63-.22,1.26-.43,1.9-.56,1.3-.3,2.59-.6,3.88-.89,1.33-.17,2.65-.34,3.98-.51,5.35-.46,10.93-.04,16.45,1.49,5.51,1.53,11,4.13,15.93,8.03,4.93,3.87,9.36,8.97,12.61,15.25,3.25,6.26,5.26,13.73,5.28,21.72"/>
        <path class="cls-1" d="M245.63,628.01c-.11-11.98-4.52-22.24-11.14-30.11-3.33-3.93-7.26-7.27-11.65-9.91-4.39-2.61-9.26-4.63-14.44-5.6-5.16-1.01-10.64-1.21-16.19-.31-5.55.87-11.14,2.89-16.31,6.13-5.18,3.22-9.98,7.67-13.76,13.32-3.78,5.63-6.52,12.5-7.44,20.07l5.15.62c.83-6.83,3.32-13.02,6.77-18.07,3.45-5.07,7.82-9.04,12.51-11.88,4.7-2.85,9.74-4.59,14.73-5.27,4.98-.7,9.87-.42,14.45.58,4.6.96,8.86,2.87,12.68,5.26,3.82,2.42,7.2,5.43,10.04,8.93,5.66,7.02,9.3,15.89,9.41,26.24"/>
        <path class="cls-1" d="M160.59,677.74c-3.46-10.72-3.71-21.34-1.41-30.38-.21-6.74.97-13.11,3.25-18.62,2.26-5.51,5.49-10.18,9.26-13.74,3.76-3.56,8.02-6.01,12.25-7.36,4.23-1.36,8.43-1.62,12.11-.98-3-1.32-6.64-2.32-10.4-2.39-1.97-.14-3.84.06-5.91.3-1.04.12-1.98.37-3.02.6-1,.25-2.11.48-3.08.86-9.12,5.2-16.91,15.39-20.13,28.45-3.26,13.06-1.24,29,7.06,43.27Z"/>
        <path class="cls-1" d="M192.1,648.78c-1.76.4-3.5.48-5.42.52-.95,0-1.85-.1-2.83-.19l-1.48-.17c-.49-.07-.95-.19-1.44-.29-.96-.22-1.97-.46-2.99-.74-.95-.33-1.93-.69-2.94-1.09-1.04-.38-1.98-.87-2.94-1.39-.95-.53-2.01-1.06-2.93-1.69-7.93-7.74-13.24-20.14-12.75-34.24.24-7.02,1.94-14.37,5.2-21.41,3.25-7.04,8.07-13.79,14.36-19.59-3.7,4.96-6.61,10.06-8.5,15.35-2,5.17-2.96,10.51-3.27,15.47-1.82,6.68-2.15,13.35-1.17,19.42.97,6.08,3.21,11.53,6.19,16,2.99,4.48,6.75,7.94,10.76,10.27,4,2.34,8.23,3.57,12.15,3.78Z"/>
        <path class="cls-1" d="M170.4,627.5l.2-3.07c.13-1.01.34-2.02.49-3.02-6.07-1.26-12.12-2.61-18.16-4.04-.26,1.51-.51,3.02-.74,4.54-.18,1.52-.24,3.05-.33,4.58,6.18.42,12.36.76,18.54,1.01Z"/>
        <path class="cls-1" d="M170.94,621.39c.16-1.01.58-1.96.86-2.93l.47-1.45.62-1.39c-5.57-2.72-11.03-5.77-16.35-9.13-.6,1.4-1.19,2.81-1.77,4.22-.31.7-.52,1.44-.75,2.17l-.67,2.2c2.88,1.22,5.77,2.35,8.69,3.4,2.92,1.05,5.92,2.03,8.89,2.91Z"/>
        <path class="cls-1" d="M152.02,626.4c-.18,1.52-.14,3.04-.13,4.57l.03,2.3c0,.77.13,1.53.2,2.29,6.27.2,12.5.06,18.66-.42l-.27-3.07c-.03-1.02.02-2.05.02-3.07-3.1-.26-6.22-.61-9.31-1.05-3.07-.43-6.13-.95-9.19-1.56Z"/>
      </g>
      <g>
        <path class="cls-1" d="M792.1,628.02c-.01,8.74-2.19,16.94-5.71,23.83-3.52,6.91-8.33,12.55-13.7,16.85-5.36,4.33-11.36,7.28-17.41,9.06-6.07,1.78-12.23,2.35-18.16,1.94-11.86-.89-23.01-5.77-31.81-13.86-4.39-4.06-8.22-8.94-11.17-14.62-.36-.72-.77-1.41-1.09-2.15-.31-.75-.63-1.5-.95-2.26-.7-1.48-1.12-3.1-1.66-4.69-.29-.79-.46-1.62-.65-2.46-.19-.83-.39-1.67-.59-2.51-.16-.85-.25-1.72-.39-2.59-.1-.88-.31-1.75-.33-2.64l5.17-.45c0,.79.21,1.56.29,2.33.12.77.2,1.54.33,2.29.17.75.35,1.49.52,2.22.17.74.3,1.48.57,2.17.48,1.4.83,2.84,1.45,4.15.27.67.55,1.34.82,2,.28.66.64,1.27.95,1.91,2.57,5.05,5.9,9.43,9.77,13.09,7.73,7.31,17.61,11.9,28.32,12.89,5.35.46,10.93.03,16.45-1.5,5.51-1.53,11-4.14,15.92-8.03,4.93-3.87,9.35-8.98,12.6-15.26,3.24-6.26,5.25-13.74,5.27-21.72"/>
        <path class="cls-1" d="M770.69,628.02c-.11,11.98-4.51,22.24-11.13,30.11-3.33,3.94-7.25,7.28-11.65,9.92-4.39,2.62-9.26,4.63-14.44,5.61-5.16,1.01-10.64,1.21-16.19.32-5.55-.87-11.14-2.89-16.32-6.12-5.18-3.22-9.98-7.67-13.77-13.31-3.78-5.63-6.52-12.5-7.45-20.06l5.15-.62c.83,6.83,3.33,13.02,6.77,18.07,3.45,5.07,7.82,9.03,12.52,11.87,4.7,2.85,9.74,4.58,14.73,5.26,4.98.7,9.87.42,14.45-.59,4.6-.97,8.86-2.87,12.68-5.27,3.82-2.42,7.2-5.44,10.04-8.94,5.66-7.02,9.29-15.89,9.4-26.24"/>
        <path class="cls-1" d="M792.1,628c-.01-8.74-2.2-16.94-5.72-23.83-3.53-6.91-8.34-12.54-13.71-16.85-5.37-4.33-11.36-7.28-17.42-9.05-6.07-1.77-12.23-2.35-18.16-1.93-11.86.9-23.01,5.78-31.8,13.87-4.39,4.06-8.21,8.94-11.16,14.62-.36.72-.77,1.41-1.09,2.15-.31.75-.63,1.5-.95,2.26-.7,1.48-1.11,3.1-1.66,4.69-.29.79-.46,1.63-.65,2.46-.19.83-.39,1.67-.59,2.51-.15.85-.25,1.72-.39,2.59-.06.44-.13.87-.19,1.31-.08.44-.12.88-.13,1.33l5.17.45c0-.4.05-.79.12-1.18l.17-1.16c.12-.77.2-1.54.33-2.29.17-.75.35-1.49.52-2.22.17-.73.3-1.48.56-2.17.48-1.4.83-2.84,1.44-4.15.27-.67.55-1.34.82-2,.27-.66.64-1.27.95-1.91,2.57-5.05,5.9-9.43,9.76-13.1,3.86-3.67,8.26-6.63,13.03-8.82,1.2-.53,2.4-1.12,3.65-1.49.63-.21,1.25-.42,1.87-.63.63-.22,1.26-.43,1.9-.56,1.3-.3,2.59-.6,3.88-.89,1.33-.17,2.65-.34,3.98-.51,5.35-.46,10.93-.04,16.45,1.49,5.51,1.53,11,4.13,15.93,8.03,4.93,3.87,9.36,8.97,12.61,15.25,3.25,6.26,5.26,13.73,5.28,21.72"/>
        <path class="cls-1" d="M770.69,628.01c-.11-11.98-4.52-22.24-11.14-30.11-3.33-3.93-7.26-7.27-11.65-9.91-4.39-2.61-9.26-4.63-14.44-5.6-5.16-1.01-10.64-1.21-16.19-.31-5.55.87-11.14,2.89-16.31,6.13-5.18,3.22-9.98,7.67-13.76,13.32-3.78,5.63-6.52,12.5-7.44,20.07l5.15.62c.83-6.83,3.32-13.02,6.77-18.07,3.45-5.07,7.82-9.04,12.51-11.88,4.7-2.85,9.74-4.59,14.73-5.27,4.98-.7,9.87-.42,14.45.58,4.6.96,8.86,2.87,12.68,5.26,3.82,2.42,7.2,5.43,10.04,8.93,5.66,7.02,9.3,15.89,9.41,26.24"/>
        <path class="cls-1" d="M685.65,677.74c-3.46-10.72-3.71-21.34-1.41-30.38-.21-6.74.97-13.11,3.25-18.62,2.25-5.51,5.49-10.18,9.26-13.74,3.76-3.56,8.02-6.01,12.25-7.36,4.23-1.36,8.43-1.62,12.11-.98-3-1.32-6.64-2.32-10.4-2.39-1.97-.14-3.84.06-5.91.3-1.04.12-1.98.37-3.02.6-1,.25-2.11.48-3.08.86-9.12,5.2-16.91,15.39-20.13,28.45-3.26,13.06-1.24,29,7.06,43.27Z"/>
        <path class="cls-1" d="M717.16,648.78c-1.76.4-3.5.48-5.42.52-.95,0-1.85-.1-2.83-.19l-1.48-.17c-.49-.07-.95-.19-1.44-.29-.96-.22-1.97-.46-2.99-.74-.95-.33-1.93-.69-2.94-1.09-1.04-.38-1.98-.87-2.94-1.39-.95-.53-2.01-1.06-2.93-1.69-7.93-7.74-13.24-20.14-12.75-34.24.24-7.02,1.94-14.37,5.2-21.41,3.25-7.04,8.07-13.79,14.36-19.59-3.7,4.96-6.61,10.06-8.5,15.35-2,5.17-2.96,10.51-3.27,15.47-1.82,6.68-2.15,13.35-1.17,19.42.97,6.08,3.21,11.53,6.19,16,2.99,4.48,6.75,7.94,10.76,10.27,4,2.34,8.23,3.57,12.15,3.78Z"/>
        <path class="cls-1" d="M695.46,627.5l.2-3.07c.13-1.01.34-2.02.49-3.02-6.07-1.26-12.12-2.61-18.16-4.04-.26,1.51-.51,3.02-.74,4.54-.18,1.52-.24,3.05-.33,4.58,6.18.42,12.36.76,18.54,1.01Z"/>
        <path class="cls-1" d="M696,621.39c.16-1.01.58-1.96.86-2.93l.47-1.45.62-1.39c-5.57-2.72-11.03-5.77-16.35-9.13-.6,1.4-1.19,2.81-1.77,4.22-.31.7-.52,1.44-.75,2.17l-.67,2.2c2.88,1.22,5.77,2.35,8.69,3.4,2.92,1.05,5.92,2.03,8.89,2.91Z"/>
        <path class="cls-1" d="M677.08,626.4c-.18,1.52-.14,3.04-.13,4.57l.03,2.3c0,.77.13,1.53.2,2.29,6.27.2,12.5.06,18.66-.42l-.27-3.07c-.03-1.02.02-2.05.02-3.07-3.1-.26-6.22-.61-9.31-1.05-3.07-.43-6.13-.95-9.19-1.56Z"/>
      </g>
    </g>
  </g>
</svg>