<?xml version="1.0" encoding="UTF-8"?>
<svg id="Layer_2" data-name="Layer 2" xmlns="http://www.w3.org/2000/svg" viewBox="0 0 515.87 682.09">
  <defs>
    <style>
      .cls-1 {
        fill: #bfbfbf;
        stroke: #000;
        stroke-linecap: round;
        stroke-width: 2.5px;
      }
    </style>
  </defs>
  <g id="Layer_2-2" data-name="Layer 2">
    <g>
      <g>
        <g>
          <path class="cls-1" d="M278.09,3.34c0,31.3-15.19,46.63-15.19,80.99h-5.19c0-34.35,15.18-49.69,15.18-80.99"/>
          <path class="cls-1" d="M256.68,3.34c0,33.3,15.18,49.75,15.18,80.09h-5.19c0-30.34-15.19-46.8-15.19-80.09"/>
          <path class="cls-1" d="M278.09,169.98c0-31.3-15.19-46.64-15.19-80.99h-5.19c0,34.35,15.18,49.69,15.18,80.99"/>
          <path class="cls-1" d="M256.68,169.98c0-33.3,15.18-49.75,15.18-80.09h-5.19c0,30.34-15.19,46.8-15.19,80.09"/>
          <polygon class="cls-1" points="287.01 65.07 270.69 76.58 242.84 115.23 259.02 101.94 287.01 65.07"/>
          <polygon class="cls-1" points="244.51 61.98 260.1 76.37 286 115.39 270.62 102.17 244.51 61.98"/>
          <polygon class="cls-1" points="255.76 87.04 255.66 91.42 274.24 91.78 274.34 87.4 255.76 87.04"/>
          <polygon class="cls-1" points="255.82 91.42 255.43 95.78 273.94 97.26 274.34 92.89 255.82 91.42"/>
          <polygon class="cls-1" points="274.18 87.44 274.57 83.07 256.06 81.59 255.67 85.96 274.18 87.44"/>
        </g>
        <g>
          <path class="cls-1" d="M278.09,169.99c0,31.3-15.19,46.63-15.19,80.99h-5.19c0-34.35,15.18-49.69,15.18-80.99"/>
          <path class="cls-1" d="M256.68,169.99c0,33.3,15.18,49.75,15.18,80.09h-5.19c0-30.34-15.19-46.8-15.19-80.09"/>
          <path class="cls-1" d="M278.09,336.64c0-31.3-15.19-46.64-15.19-80.99h-5.19c0,34.35,15.18,49.69,15.18,80.99"/>
          <path class="cls-1" d="M256.68,336.64c0-33.3,15.18-49.75,15.18-80.09h-5.19c0,30.34-15.19,46.8-15.19,80.09"/>
          <polygon class="cls-1" points="287.01 231.73 270.69 243.23 242.84 281.89 259.02 268.59 287.01 231.73"/>
          <polygon class="cls-1" points="244.51 228.64 260.1 243.03 286 282.05 270.62 268.82 244.51 228.64"/>
          <polygon class="cls-1" points="255.76 253.7 255.66 258.08 274.24 258.44 274.34 254.05 255.76 253.7"/>
          <polygon class="cls-1" points="255.82 258.07 255.43 262.44 273.94 263.92 274.34 259.55 255.82 258.07"/>
          <polygon class="cls-1" points="274.18 254.1 274.57 249.72 256.06 248.25 255.67 252.62 274.18 254.1"/>
        </g>
        <g>
          <path class="cls-1" d="M278.09,336.65c0,31.3-15.19,46.63-15.19,80.99h-5.19c0-34.35,15.18-49.69,15.18-80.99"/>
          <path class="cls-1" d="M256.68,336.65c0,33.3,15.18,49.75,15.18,80.09h-5.19c0-30.34-15.19-46.8-15.19-80.09"/>
          <path class="cls-1" d="M278.09,503.29c0-31.3-15.19-46.64-15.19-80.99h-5.19c0,34.35,15.18,49.69,15.18,80.99"/>
          <path class="cls-1" d="M256.68,503.29c0-33.3,15.18-49.75,15.18-80.09h-5.19c0,30.34-15.19,46.8-15.19,80.09"/>
          <polygon class="cls-1" points="287.01 398.38 270.69 409.89 242.84 448.54 259.02 435.25 287.01 398.38"/>
          <polygon class="cls-1" points="244.51 395.29 260.1 409.68 286 448.7 270.62 435.48 244.51 395.29"/>
          <polygon class="cls-1" points="255.76 420.35 255.66 424.73 274.24 425.09 274.34 420.71 255.76 420.35"/>
          <polygon class="cls-1" points="255.82 424.72 255.43 429.09 273.94 430.57 274.34 426.2 255.82 424.72"/>
          <polygon class="cls-1" points="274.18 420.75 274.57 416.38 256.06 414.9 255.67 419.27 274.18 420.75"/>
        </g>
        <g>
          <path class="cls-1" d="M278.09,503.3c0,31.3-15.19,46.63-15.19,80.99h-5.19c0-34.35,15.18-49.69,15.18-80.99"/>
          <path class="cls-1" d="M256.68,503.3c0,33.3,15.18,49.75,15.18,80.09h-5.19c0-30.34-15.19-46.8-15.19-80.09"/>
          <path class="cls-1" d="M278.09,669.94c0-31.3-15.19-46.64-15.19-80.99h-5.19c0,34.35,15.18,49.69,15.18,80.99"/>
          <path class="cls-1" d="M256.68,669.94c0-33.3,15.18-49.75,15.18-80.09h-5.19c0,30.34-15.19,46.8-15.19,80.09"/>
          <polygon class="cls-1" points="287.01 565.04 270.69 576.54 242.84 615.2 259.02 601.9 287.01 565.04"/>
          <polygon class="cls-1" points="244.51 561.95 260.1 576.33 286 615.36 270.62 602.13 244.51 561.95"/>
          <polygon class="cls-1" points="255.76 587 255.66 591.39 274.24 591.74 274.34 587.36 255.76 587"/>
          <polygon class="cls-1" points="255.82 591.38 255.43 595.75 273.94 597.22 274.34 592.85 255.82 591.38"/>
          <polygon class="cls-1" points="274.18 587.4 274.57 583.03 256.06 581.55 255.67 585.92 274.18 587.4"/>
        </g>
      </g>
      <g>
        <g>
          <path class="cls-1" d="M26.13,1.25c11.69,30.91,3.2,51.42,16.03,85.34l-4.85,1.83C24.49,54.5,32.96,33.99,21.28,3.09"/>
          <path class="cls-1" d="M6.11,8.82c12.43,32.88,32.77,43.76,44.1,73.72l-4.85,1.83C34.03,54.41,13.68,43.54,1.25,10.66"/>
          <path class="cls-1" d="M88.35,165.79c-11.69-30.91-31.62-40.68-44.44-74.6l-4.85,1.83c12.83,33.92,32.75,43.69,44.44,74.6"/>
          <path class="cls-1" d="M68.33,173.36c-12.43-32.88-4.38-54.49-15.7-84.45l-4.85,1.83c11.33,29.96,3.26,51.58,15.7,84.46"/>
          <polygon class="cls-1" points="57.53 59.05 46.56 76.18 34.94 124.2 45.11 105.35 57.53 59.05"/>
          <polygon class="cls-1" points="16.62 71.03 36.58 79.73 75.37 109.09 56.05 101.48 16.62 71.03"/>
          <polygon class="cls-1" points="36.5 91.79 38.05 96.16 55.56 89.94 54.01 85.58 36.5 91.79"/>
          <rect class="cls-1" x="38.47" y="93.46" width="18.58" height="4.63" transform="translate(-24.42 16.76) rotate(-15.91)"/>
          <rect class="cls-1" x="35.02" y="83.68" width="18.58" height="4.63" transform="translate(-21.91 15.47) rotate(-15.94)"/>
        </g>
        <g>
          <path class="cls-1" d="M88.36,165.8c11.69,30.91,3.2,51.42,16.03,85.34l-4.85,1.83c-12.83-33.92-4.35-54.43-16.04-85.34"/>
          <path class="cls-1" d="M68.33,173.37c12.43,32.88,32.77,43.76,44.1,73.72l-4.85,1.83c-11.33-29.96-31.68-40.83-44.11-73.71"/>
          <path class="cls-1" d="M150.57,330.34c-11.69-30.91-31.62-40.68-44.44-74.6l-4.85,1.83c12.83,33.92,32.75,43.69,44.44,74.6"/>
          <path class="cls-1" d="M130.55,337.92c-12.43-32.88-4.38-54.49-15.7-84.45l-4.85,1.83c11.33,29.96,3.26,51.58,15.7,84.46"/>
          <polygon class="cls-1" points="119.75 223.6 108.78 240.74 97.16 288.75 107.33 269.91 119.75 223.6"/>
          <polygon class="cls-1" points="78.84 235.59 98.8 244.28 137.59 273.65 118.27 266.03 78.84 235.59"/>
          <polygon class="cls-1" points="98.72 256.35 100.27 260.71 117.78 254.49 116.23 250.13 98.72 256.35"/>
          <rect class="cls-1" x="100.69" y="258.01" width="18.58" height="4.63" transform="translate(-67.12 40.1) rotate(-15.9)"/>
          <rect class="cls-1" x="97.24" y="248.23" width="18.58" height="4.63" transform="translate(-64.71 38.89) rotate(-15.94)"/>
        </g>
        <g>
          <path class="cls-1" d="M150.58,330.36c11.69,30.91,3.2,51.42,16.03,85.34l-4.85,1.83c-12.83-33.92-4.35-54.43-16.04-85.34"/>
          <path class="cls-1" d="M130.55,337.93c12.43,32.88,32.77,43.76,44.1,73.72l-4.85,1.83c-11.33-29.96-31.68-40.83-44.11-73.71"/>
          <path class="cls-1" d="M209.34,485.78c-2.31-6.11-5.06-10.7-8.21-14.99-3.14-4.27-6.66-8.23-10.38-12.68-.93-1.11-1.87-2.25-2.81-3.43-.46-.56-.98-1.28-1.48-1.95-.5-.68-1-1.37-1.5-2.06-2-2.77-3.98-5.66-5.91-8.74-3.85-6.17-7.51-13.14-10.71-21.62l-4.85,1.83c3.21,8.48,6.86,15.45,10.71,21.62,1.93,3.08,3.91,5.97,5.9,8.74.99,1.37,2.02,2.78,3,4.05.98,1.24,1.95,2.47,2.91,3.7,3.84,4.8,7.5,9.1,10.78,13.75,3.29,4.66,6.19,9.65,8.67,16.23"/>
          <path class="cls-1" d="M193.39,504.13c-3.23-8.54-5.32-16.74-6.64-24.28-1.33-7.55-1.92-14.46-2.31-20.87l-.14-2.38c-.04-.78-.09-1.57-.16-2.41-.14-1.65-.27-3.3-.41-4.95-.3-3.31-.67-6.63-1.18-10.01-1.03-6.75-2.65-13.72-5.48-21.21l-4.85,1.83c5.67,14.99,6.47,27.84,7.45,41.17.53,6.76,1.25,14.03,2.73,21.97,1.48,7.93,3.72,16.56,7.14,25.59"/>
          <polygon class="cls-1" points="181.97 388.16 171 405.29 159.38 453.31 169.55 434.46 181.97 388.16"/>
          <polygon class="cls-1" points="141.06 400.14 161.02 408.83 199.81 438.2 180.49 430.58 141.06 400.14"/>
          <polygon class="cls-1" points="160.95 420.9 162.49 425.26 180 419.05 178.46 414.68 160.95 420.9"/>
          <rect class="cls-1" x="162.91" y="422.56" width="18.58" height="4.63" transform="translate(-109.83 63.45) rotate(-15.9)"/>
          <rect class="cls-1" x="159.46" y="412.78" width="18.58" height="4.63" transform="translate(-107.48 62.29) rotate(-15.94)"/>
        </g>
        <g>
          <path class="cls-1" d="M209.35,485.78c2.31,6.11,3.65,12.33,4.67,19.06,1.02,6.72,1.71,13.92,2.6,21.63.88,7.69,1.95,15.89,3.61,24.32,1.66,8.41,3.93,17.09,7.03,25.3l-2.02,8.97c-3.34-8.51-5.78-17.59-7.58-26.41-1.82-8.83-3.02-17.38-4.03-25.42-1.02-8.06-1.85-15.61-3-22.7-1.16-7.1-2.65-13.72-5.14-20.29"/>
          <path class="cls-1" d="M193.4,504.14c3.23,8.54,6.73,15.12,10.18,20.21,3.45,5.11,6.87,8.77,10.09,11.92,3.22,3.16,6.26,5.82,9.06,9.21,2.81,3.4,5.38,7.52,7.82,13.98l-2.09,9.14c-2.61-6.9-5.33-11.41-8.28-15.18-2.94-3.76-6.11-6.76-9.47-10.28-3.35-3.5-6.9-7.52-10.51-13.02-3.6-5.49-7.26-12.49-10.67-21.52"/>
          <path class="cls-1" d="M258.68,616.25c-2.31-6.11-4.39-8.92-6.52-10.53-2.13-1.6-4.3-1.98-6.66-2.86-2.36-.87-4.91-2.24-7.68-5.55-2.77-3.29-5.77-8.56-8.88-16.77l-1.9,9.12c1.66,4.25,3.29,7.76,4.85,10.77,1.56,2.99,3.04,5.58,4.47,7.67,2.92,3.71,5.61,5.44,8.1,6.66,2.5,1.23,4.8,1.97,7.07,3.94,2.27,1.99,4.5,5.19,6.98,11.77"/>
          <path class="cls-1" d="M258.02,669.39c-3.16-7.91-5.91-15.92-8.34-24.35-.3-1.07-.6-2.12-.89-3.17-.15-.54-.29-1.07-.43-1.6l-.11-.4-.1-.48-.2-.97c-.54-2.58-1.05-5.16-1.55-7.73-.99-5.15-1.91-10.26-2.78-15.25-1.75-9.99-3.3-19.47-5-27.97-1.7-8.52-3.53-16.05-5.97-22.51l-1.95,9.52c2.61,6.9,4.59,14.82,6.43,23.72.92,4.44,1.8,9.12,2.68,13.98.45,2.48.89,4.95,1.34,7.42l.34,1.89.17.95.18.82.75,3.28c2.02,8.73,4.21,17.23,6.73,25.29,1.26,4.03,2.64,8,4.05,11.83,1.42,3.84,2.94,7.59,4.57,11.31"/>
          <path class="cls-1" d="M231.92,520.25c-1.63,11.07-2.99,22.85-4.09,35.33.05,6.7.2,13.65.44,20.86l.44,11c.19,3.62.45,7.1.72,10.62.55,7.01,1.23,13.94,2.04,20.79.8,6.83,1.7,13.43,2.72,19.94-.48-6.2-.87-12.52-1.17-18.94-.29-6.41-.52-13.01-.62-19.61l-.19-2.58-.14-2.81-.25-5.61-.4-10.95c-.22-7.18-.35-14.11-.38-20.8-.07-13.38.22-25.8.88-37.24Z"/>
          <path class="cls-1" d="M210.1,582.71c4.66-2.27,9.08-5.64,13.08-9.5,8.59-1.69,15.74-7.19,21.46-16.49-2.52,7.82-5.34,14.88-8.44,21.17-1.8,1.39-3.7,2.53-5.68,3.43-.99.45-2.01.83-3.05,1.16l-.78.23-.78.13-1.59.24c-4.3.61-9.14.93-14.21-.37Z"/>
          <polygon class="cls-1" points="225.58 591.01 227.3 595.5 234.12 562.17 232.78 558.37 225.58 591.01"/>
          <polygon class="cls-1" points="227.35 595.23 228.97 600.16 230.53 592.8 232.28 584.33 235.72 567.27 234.5 562.91 230.88 579.52 229.05 587.76 227.35 595.23"/>
          <polygon class="cls-1" points="232.74 558.68 231.53 554.39 227.52 569.97 223.52 585.11 225.12 590.1 228.9 574.72 232.74 558.68"/>
        </g>
        <g>
          <path class="cls-1" d="M258.68,616.26c.58,1.53,1.14,3.18,1.68,4.93.07.22.12.45.22.66.1.21.26.38.45.46.38.2.79.04.88-.21.27-.48.53-.91.79-1.31,1.05-1.6,2.06-2.61,3.08-3.3,2.03-1.37,4.09-1.44,6.33-2.01,2.24-.56,4.67-1.62,7.35-4.7,2.67-3.06,5.61-8.18,8.7-16.4l1.54,9.52c-1.66,4.22-3.24,7.7-4.76,10.74-.76,1.52-1.5,2.92-2.21,4.22-.36.64-.71,1.26-1.06,1.88-.17.3-.35.6-.52.9-.17.3-.34.59-.52.78-2.83,3.48-5.39,4.9-7.76,5.82-2.38.93-4.56,1.35-6.74,3.09-1.09.87-2.18,2.08-3.3,3.89-.28.45-.56.94-.85,1.47-.1.29-.54.46-.95.25-.2-.09-.38-.27-.49-.49-.1-.22-.15-.47-.23-.7-.59-1.86-1.19-3.62-1.81-5.27"/>
          <path class="cls-1" d="M258.02,669.4c.79,1.98,1.56,3.84,2.3,5.59.11.47.68.79,1.19.6.25-.09.46-.27.57-.52.1-.24.18-.49.28-.74.36-1.01.71-2,1.06-2.98,1.39-3.98,2.69-8,3.92-12.1.31-1.04.61-2.07.91-3.09.15-.52.3-1.04.44-1.56l.11-.39.11-.5.21-.99c.56-2.65,1.1-5.3,1.62-7.94,1.04-5.29,2.01-10.56,2.93-15.71,1.85-10.3,3.5-20.1,5.27-28.84,1.77-8.76,3.65-16.44,6.08-22.91l1.65,10.36c-2.6,6.91-4.62,14.99-6.53,24.12-.95,4.56-1.88,9.37-2.81,14.38-.47,2.56-.94,5.11-1.41,7.65l-.36,1.95-.18.98-.19.8-.78,3.19c-2.08,8.46-4.36,16.7-6.88,24.51-1.26,3.91-2.6,7.74-4.03,11.51-.36.93-.72,1.87-1.09,2.82-.09.23-.18.47-.28.7-.11.23-.33.41-.58.49-.52.18-1.1-.11-1.21-.55-.76-1.64-1.55-3.39-2.37-5.25"/>
          <path class="cls-1" d="M308.52,497.08c-2.3,6.12-3.68,12.49-4.78,19.46-1.09,6.95-1.89,14.47-2.88,22.49-.98,8.01-2.15,16.52-3.89,25.18-1.73,8.65-4.04,17.49-7.13,25.7l1.66,9.41c3.31-8.4,5.86-17.37,7.74-26.4,1.89-9.06,3.19-17.93,4.31-26.29,1.12-8.37,2.05-16.24,3.28-23.56,1.24-7.34,2.77-14.11,5.25-20.69"/>
          <path class="cls-1" d="M323.18,518.92c-3.21,8.55-6.64,14.97-9.99,19.84-3.36,4.89-6.64,8.24-9.74,11.08-3.1,2.86-6.01,5.21-8.72,8.37-2.71,3.18-5.22,7.14-7.65,13.6l1.79,9.99c2.6-6.91,5.25-11.26,8.1-14.81,2.85-3.53,5.89-6.23,9.13-9.44,3.23-3.2,6.65-6.91,10.16-12.18,3.5-5.26,7.09-12.11,10.49-21.15"/>
          <path class="cls-1" d="M275.48,559.6c2.29,9.38,4.84,18.05,7.66,26.01,1.72,2.02,3.53,3.79,5.44,5.31.95.76,1.93,1.45,2.94,2.08.97.47,1.94.73,2.96,1.11,2.03.68,4.21,1.46,6.52,2.06,1.15.29,2.34.55,3.55.8l1.85.35c.62.1,1.24.11,1.87.15-2.21-1.8-4.39-4.08-6.43-6.25-2.05-2.2-3.99-4.49-5.83-6.83l-.75-.33c-.25-.12-.51-.29-.76-.44-.51-.31-1.01-.63-1.51-.96-.99-.67-1.96-1.41-2.91-2.2-1.89-1.59-3.7-3.42-5.41-5.5-3.42-4.15-6.48-9.27-9.18-15.36Z"/>
          <path class="cls-1" d="M283.18,645.46c.65-5.97,1.21-12.06,1.72-18.38.25-3.15.48-6.32.68-9.53l.29-4.83.13-2.43.06-1.22c.02-.43.05-.76.05-1.28,2.35-30.77,3.26-57.73,2.74-80.89,1.17,11.45,2.06,23.67,2.65,36.65-.23,6.79-.55,13.83-.97,21.12l-.69,11.11-.19,2.84-.25,2.59-.53,5.14c-.74,6.82-1.59,13.5-2.55,20.04-.48,3.27-.99,6.51-1.53,9.72-.52,3.16-1.06,6.28-1.62,9.36Z"/>
          <polygon class="cls-1" points="291.3 604.45 293.06 600.35 286.84 565.67 285.44 569.1 291.3 604.45"/>
          <polygon class="cls-1" points="293.01 600.1 294.87 596.46 291.88 579.42 288.66 561.69 287.15 564.57 290.2 582.76 293.01 600.1"/>
          <polygon class="cls-1" points="285.51 569.37 284.03 572.21 286.69 591.43 288 601.09 289.07 609.27 290.9 605.66 289.74 597.57 288.35 588.13 285.51 569.37"/>
        </g>
        <g>
          <path class="cls-1" d="M308.52,497.07c2.3-6.12,4.98-10.56,8.03-14.62,3.04-4.05,6.44-7.69,10.03-11.84,3.58-4.13,7.35-8.77,11.04-14.53,3.8-6.07,7.47-13.12,10.65-21.59l4.86,1.83c-6.34,16.85-14.74,28.42-22.13,37.28-3.72,4.5-7.25,8.49-10.43,12.92-3.19,4.44-6.02,9.27-8.49,15.85"/>
          <path class="cls-1" d="M323.18,518.91c3.21-8.55,5.34-16.91,6.75-24.68,1.41-7.79,2.1-15.01,2.6-21.73.51-6.74.8-12.92,1.59-19.05,1.02-6.76,2.63-13.73,5.45-21.22l4.86,1.83c-2.82,7.49-4.43,14.47-5.44,21.22-.91,6.47-1.34,13.02-1.98,20.11-.63,7.07-1.45,14.65-3.01,22.84-1.55,8.16-3.84,16.95-7.24,25.99"/>
          <path class="cls-1" d="M365.88,344.52c-11.63,30.93-3.11,51.43-15.87,85.37l4.86,1.83c12.76-33.94,4.25-54.44,15.88-85.37"/>
          <path class="cls-1" d="M385.92,352.05c-12.37,32.9-32.69,43.82-43.97,73.8l4.86,1.83c11.27-29.98,31.6-40.89,43.97-73.79"/>
          <polygon class="cls-1" points="318.56 445.03 338.11 439.41 378.54 411.02 358.46 418.46 318.56 445.03"/>
          <path class="cls-1" d="M357.16,463.13c-.33-.98-.75-1.7-1.12-2.55l-1.16-2.46-2.31-4.93-4.62-9.85-9.75-47.67,9.48,18.48,4.76,24.45,2.38,12.22,1.19,6.11.59,3.06.3,1.53c.1.5.2,1,.26,1.62Z"/>
          <polygon class="cls-1" points="355.97 434.33 357.69 430.03 340.43 423.14 338.71 427.43 355.97 434.33"/>
          <rect class="cls-1" x="347.83" y="414.62" width="4.63" height="18.58" transform="translate(-183.01 558.23) rotate(-64.58)"/>
          <rect class="cls-1" x="343.96" y="424.24" width="4.63" height="18.58" transform="translate(-193.84 560.54) rotate(-64.62)"/>
        </g>
        <g>
          <path class="cls-1" d="M365.89,344.51c11.63-30.93,31.54-40.73,44.31-74.68l4.86,1.83c-12.76,33.94-32.67,43.75-44.3,74.68"/>
          <path class="cls-1" d="M385.93,352.04c12.37-32.9,4.27-54.5,15.55-84.48l4.86,1.83c-11.27,29.98-3.17,51.58-15.54,84.48"/>
          <path class="cls-1" d="M427.8,179.85c-11.63,30.93-3.11,51.43-15.87,85.37l4.86,1.83c12.76-33.94,4.25-54.44,15.88-85.37"/>
          <path class="cls-1" d="M447.84,187.38c-12.37,32.9-32.69,43.82-43.97,73.8l4.86,1.83c11.27-29.98,31.6-40.89,43.97-73.79"/>
          <polygon class="cls-1" points="380.47 280.37 400.03 274.74 440.45 246.35 420.37 253.79 380.47 280.37"/>
          <polygon class="cls-1" points="419.11 298.38 409.86 278.67 400.11 231 409.6 249.48 419.11 298.38"/>
          <polygon class="cls-1" points="417.88 269.66 419.6 265.36 402.35 258.47 400.63 262.77 417.88 269.66"/>
          <rect class="cls-1" x="409.74" y="249.95" width="4.63" height="18.58" transform="translate(1.07 520.18) rotate(-64.59)"/>
          <rect class="cls-1" x="405.87" y="259.57" width="4.63" height="18.58" transform="translate(-9.68 522.42) rotate(-64.62)"/>
        </g>
        <g>
          <path class="cls-1" d="M427.8,179.84c11.63-30.93,31.54-40.73,44.31-74.68l4.86,1.83c-12.76,33.94-32.67,43.75-44.3,74.68"/>
          <path class="cls-1" d="M447.84,187.37c12.37-32.9,4.28-54.5,15.55-84.48l4.86,1.83c-11.27,29.98-3.17,51.58-15.54,84.48"/>
          <path class="cls-1" d="M489.72,15.18c-11.63,30.93-3.11,51.43-15.87,85.37l4.86,1.83c12.76-33.94,4.25-54.44,15.88-85.37"/>
          <path class="cls-1" d="M509.75,22.72c-12.37,32.9-32.69,43.82-43.97,73.8l4.86,1.83c11.27-29.98,31.6-40.89,43.97-73.79"/>
          <polygon class="cls-1" points="442.39 115.7 461.94 110.07 502.37 81.68 482.29 89.12 442.39 115.7"/>
          <polygon class="cls-1" points="481.02 133.71 471.78 114 462.03 66.33 471.51 84.81 481.02 133.71"/>
          <polygon class="cls-1" points="479.8 104.99 481.52 100.69 464.26 93.8 462.54 98.1 479.8 104.99"/>
          <rect class="cls-1" x="471.66" y="85.28" width="4.63" height="18.58" transform="translate(185.14 482.08) rotate(-64.58)"/>
          <rect class="cls-1" x="467.79" y="94.9" width="4.63" height="18.58" transform="translate(174.46 484.25) rotate(-64.62)"/>
        </g>
      </g>
    </g>
  </g>
</svg>