<?xml version="1.0" encoding="UTF-8"?>
<svg id="Layer_2" data-name="Layer 2" xmlns="http://www.w3.org/2000/svg" viewBox="0 0 623.83 933.49">
  <defs>
    <style>
      .cls-1 {
        fill: #bfbfbf;
        stroke: #000;
        stroke-linecap: round;
        stroke-width: 2.5px;
      }
    </style>
  </defs>
  <g id="Layer_2-2" data-name="Layer 2">
    <g>
      <g>
        <g>
          <path class="cls-1" d="M1.25,255.03c22.05-24.42,44.12-26.2,68.32-53l3.85,3.48c-24.2,26.8-46.27,28.59-68.32,53.01"/>
          <path class="cls-1" d="M17.14,269.38c23.46-25.98,23.78-48.99,45.15-72.66l3.85,3.48c-21.37,23.67-21.69,46.68-45.15,72.66"/>
          <path class="cls-1" d="M118.63,125.03c-22.05,24.42-21.58,46.56-45.78,73.36l3.85,3.48c24.2-26.8,23.73-48.94,45.78-73.35"/>
          <path class="cls-1" d="M134.52,139.38c-23.46,25.98-46.31,28.64-67.69,52.31l3.85,3.48c21.37-23.67,44.24-26.33,67.69-52.3"/>
          <polygon class="cls-1" points="38.11 200.89 58.33 202.85 106.23 191.36 84.86 190.89 38.11 200.89"/>
          <polygon class="cls-1" points="67.48 231.78 66.05 210.11 74.31 162.31 76.41 182.93 67.48 231.78"/>
          <polygon class="cls-1" points="76.78 204.69 79.94 201.34 66.41 188.61 63.24 191.96 76.78 204.69"/>
          <rect class="cls-1" x="72.85" y="183.6" width="4.61" height="18.58" transform="translate(-111.5 103.37) rotate(-43.09)"/>
          <rect class="cls-1" x="65.75" y="191.1" width="4.61" height="18.58" transform="translate(-118.6 100.65) rotate(-43.12)"/>
        </g>
        <g>
          <path class="cls-1" d="M291.74,149.11c13.69,27.79,6.78,48.12,21.81,78.62l-4.65,2.29c-15.03-30.5-8.12-50.82-21.81-78.61"/>
          <path class="cls-1" d="M272.54,158.58c14.57,29.56,35.38,37.46,48.66,64.4l-4.65,2.29c-13.27-26.94-34.1-34.83-48.66-64.4"/>
          <path class="cls-1" d="M364.65,297.06c-13.69-27.79-34.03-34.69-49.06-65.19l-4.65,2.29c15.03,30.5,35.36,37.4,49.05,65.19"/>
          <path class="cls-1" d="M345.44,306.53c-14.57-29.56-8.15-50.88-21.42-77.82l-4.65,2.29c13.27,26.94,6.85,48.26,21.42,77.82"/>
          <polygon class="cls-1" points="326.75 199.98 317.15 217.41 309.08 264.04 317.77 245.08 326.75 199.98"/>
          <polygon class="cls-1" points="287.28 216.02 307.56 221.91 347.86 245.1 328.28 240.16 287.28 216.02"/>
          <polygon class="cls-1" points="308.34 233.29 310.17 237.23 326.99 229.34 325.16 225.4 308.34 233.29"/>
          <polygon class="cls-1" points="310.3 237.15 311.86 241.2 329.11 234.33 327.56 230.28 310.3 237.15"/>
          <polygon class="cls-1" points="325.04 225.51 323.47 221.45 306.22 228.33 307.78 232.38 325.04 225.51"/>
        </g>
        <g>
          <path class="cls-1" d="M364.65,297.07c13.69,27.79,6.78,48.12,21.81,78.62l-4.65,2.29c-15.03-30.5-8.12-50.82-21.81-78.61"/>
          <path class="cls-1" d="M345.45,306.54c14.57,29.56,35.38,37.46,48.66,64.4l-4.65,2.29c-13.27-26.94-34.1-34.83-48.66-64.4"/>
          <path class="cls-1" d="M437.56,445.02c-13.69-27.79-34.03-34.69-49.06-65.19l-4.65,2.29c15.03,30.5,35.36,37.4,49.05,65.19"/>
          <path class="cls-1" d="M418.36,454.48c-14.57-29.56-8.15-50.88-21.42-77.82l-4.65,2.29c13.27,26.94,6.85,48.26,21.42,77.82"/>
          <polygon class="cls-1" points="399.66 347.94 390.06 365.37 381.99 412 390.68 393.04 399.66 347.94"/>
          <polygon class="cls-1" points="360.19 363.98 380.47 369.86 420.77 393.06 401.19 388.12 360.19 363.98"/>
          <polygon class="cls-1" points="381.25 381.25 383.08 385.19 399.9 377.3 398.07 373.36 381.25 381.25"/>
          <polygon class="cls-1" points="383.21 385.11 384.78 389.16 402.02 382.29 400.47 378.24 383.21 385.11"/>
          <polygon class="cls-1" points="397.95 373.47 396.38 369.41 379.13 376.29 380.69 380.34 397.95 373.47"/>
        </g>
        <g>
          <path class="cls-1" d="M437.56,445.03c13.69,27.79,6.78,48.12,21.81,78.62l-4.65,2.29c-15.03-30.5-8.12-50.82-21.81-78.61"/>
          <path class="cls-1" d="M418.36,454.5c14.57,29.56,35.38,37.46,48.66,64.4l-4.65,2.29c-13.27-26.94-34.1-34.83-48.66-64.4"/>
          <path class="cls-1" d="M506.52,600.85c0-5.73-.36-10.97-.96-15.67-3.86-5.95-7.86-11.12-11.84-15.81-.99-1.17-1.99-2.32-2.98-3.44-.51-.6-.93-1-1.4-1.5l-1.37-1.43c-1.83-1.91-3.66-3.82-5.52-5.77-7.36-7.84-14.68-16.52-21.04-29.44l-4.65,2.29c6.36,12.91,13.68,21.6,21.04,29.44,1.86,1.95,3.69,3.86,5.52,5.77.92.97,1.81,1.87,2.76,2.9.96,1.06,1.91,2.13,2.87,3.24,3.84,4.42,7.7,9.31,11.41,14.95.6,4.46.96,9.44.96,14.89"/>
          <path class="cls-1" d="M485.11,602.62c0-4.54.31-8.79.85-12.87-1.86-5.58-3.06-10.95-4.09-16.42-1.06-5.53-1.76-10.78-2.6-16.08-1.66-10.57-3.73-21.08-9.42-32.62l-4.65,2.29c5.69,11.54,7.76,22.05,9.42,32.62.4,2.65.81,5.29,1.22,7.96.43,2.61.85,5.25,1.3,7.95.89,5.19,1.95,10.26,3.64,15.51-.53,3.83-.85,7.82-.85,12.09"/>
          <polygon class="cls-1" points="472.57 495.9 462.97 513.33 454.9 559.96 463.59 541 472.57 495.9"/>
          <polygon class="cls-1" points="433.1 511.94 453.38 517.82 493.69 541.02 474.1 536.08 433.1 511.94"/>
          <polygon class="cls-1" points="454.16 529.21 455.99 533.15 472.81 525.26 470.98 521.32 454.16 529.21"/>
          <polygon class="cls-1" points="456.12 533.07 457.69 537.12 474.93 530.25 473.38 526.2 456.12 533.07"/>
          <polygon class="cls-1" points="470.86 521.43 469.29 517.37 452.04 524.25 453.6 528.3 470.86 521.43"/>
        </g>
        <g>
          <path class="cls-1" d="M506.52,600.86c0,2.34-.06,4.6-.17,6.8-.03.55-.06,1.09-.09,1.63-.04.46-.07.92-.11,1.38-.08.89-.17,1.76-.28,2.62-.42,3.45-1.01,6.71-1.72,9.87-1.42,6.31-3.32,12.17-5.22,18.13-3.8,11.92-7.59,24.21-7.59,41.21h-5.19c0-17,3.8-29.3,7.59-41.21,1.9-5.96,3.8-11.82,5.22-18.13.71-3.16,1.3-6.42,1.72-9.87.1-.86.2-1.73.28-2.62.04-.45.07-.91.11-1.37.03-.51.06-1.03.09-1.55.11-2.09.17-4.24.17-6.47"/>
          <path class="cls-1" d="M485.11,602.63c0,1.98.06,3.9.17,5.76.11,1.85.27,3.79.48,5.6.42,3.66,1.01,7.12,1.72,10.43,1.42,6.63,3.32,12.69,5.22,18.67,3.8,11.95,7.59,23.52,7.59,38.54h-5.19c0-15.02-3.8-26.59-7.59-38.54-1.9-5.97-3.8-12.04-5.22-18.67-.71-3.32-1.31-6.77-1.72-10.43-.1-.91-.2-1.84-.28-2.78-.07-.9-.14-1.82-.21-2.75-.11-1.75-.17-3.55-.17-5.41"/>
          <path class="cls-1" d="M506.52,767.29c0-30.98-15.19-46.16-15.19-80.16h-5.19c0,34,15.18,49.18,15.18,80.16"/>
          <path class="cls-1" d="M485.11,767.29c0-32.96,15.18-49.24,15.18-79.27h-5.19c0,30.03-15.19,46.32-15.19,79.27"/>
          <polygon class="cls-1" points="515.44 663.46 499.11 674.85 471.27 713.11 487.44 699.95 515.44 663.46"/>
          <polygon class="cls-1" points="472.94 660.4 488.53 674.64 514.43 713.27 499.05 700.18 472.94 660.4"/>
          <polygon class="cls-1" points="484.19 685.2 484.09 689.54 502.67 689.9 502.77 685.56 484.19 685.2"/>
          <polygon class="cls-1" points="484.25 689.53 483.86 693.86 502.37 695.32 502.76 690.99 484.25 689.53"/>
          <polygon class="cls-1" points="502.61 685.6 503 681.27 484.48 679.81 484.1 684.14 502.61 685.6"/>
        </g>
        <g>
          <path class="cls-1" d="M506.52,767.31c0,30.98-15.19,46.16-15.19,80.16h-5.19c0-34,15.18-49.18,15.18-80.16"/>
          <path class="cls-1" d="M485.11,767.31c0,32.96,15.18,49.24,15.18,79.27h-5.19c0-30.03-15.19-46.32-15.19-79.27"/>
          <path class="cls-1" d="M506.52,932.24c0-30.98-15.19-46.16-15.19-80.16h-5.19c0,34,15.18,49.18,15.18,80.16"/>
          <path class="cls-1" d="M485.11,932.24c0-32.96,15.18-49.24,15.18-79.27h-5.19c0,30.03-15.19,46.32-15.19,79.27"/>
          <polygon class="cls-1" points="515.44 828.41 499.11 839.8 471.27 878.06 487.44 864.9 515.44 828.41"/>
          <polygon class="cls-1" points="472.94 825.35 488.53 839.59 514.43 878.21 499.05 865.13 472.94 825.35"/>
          <polygon class="cls-1" points="484.19 850.15 484.09 854.49 502.67 854.84 502.77 850.51 484.19 850.15"/>
          <polygon class="cls-1" points="484.25 854.48 483.86 858.81 502.37 860.27 502.76 855.94 484.25 854.48"/>
          <polygon class="cls-1" points="502.61 850.55 503 846.22 484.48 844.76 484.1 849.08 502.61 850.55"/>
        </g>
        <g>
          <path class="cls-1" d="M267.78,160.93c-.41-.84-.82-1.68-1.23-2.51-.4-.84-.8-1.68-1.2-2.51-.39-.84-.77-1.68-1.16-2.51-.37-.84-.75-1.68-1.12-2.51-.36-.84-.72-1.68-1.08-2.51-.35-.84-.7-1.67-1.05-2.51-.34-.84-.68-1.67-1.01-2.5-.33-.83-.65-1.67-.98-2.5-.32-.83-.63-1.66-.94-2.49-.3-.83-.61-1.66-.91-2.48-.29-.83-.59-1.65-.88-2.47-.28-.82-.56-1.64-.85-2.46-.27-.82-.54-1.63-.81-2.45-.26-.81-.52-1.62-.78-2.43-.25-.81-.5-1.61-.75-2.42-.24-.8-.48-1.6-.72-2.4-.23-.8-.46-1.59-.69-2.38-.22-.79-.44-1.58-.66-2.36-.42-1.57-.83-3.12-1.24-4.66-.38-1.54-.76-3.06-1.14-4.57-.35-1.51-.69-2.99-1.03-4.46-.32-1.47-.63-2.92-.94-4.35-.29-1.43-.57-2.84-.84-4.22-.26-1.38-.51-2.75-.76-4.09-.23-1.34-.45-2.65-.67-3.94-.2-1.29-.4-2.55-.59-3.78-.18-1.23-.35-2.44-.52-3.62-.15-1.18-.31-2.32-.45-3.44-.13-1.11-.26-2.2-.39-3.25-.11-1.05-.22-2.07-.33-3.05-.1-.98-.19-1.93-.28-2.84-.08-.91-.15-1.78-.23-2.62-.06-.83-.12-1.63-.18-2.39-.09-1.51-.18-2.86-.25-4.04-.05-1.17-.09-2.18-.13-2.99-.04-1.62-.06-2.5-.06-2.5.05.63.11,1.27.16,1.91.06.64.13,1.29.19,1.94.07.65.15,1.31.22,1.97.08.66.17,1.33.26,1.99.09.67.19,1.34.28,2.02.1.68.21,1.35.31,2.04.11.68.23,1.37.34,2.06.12.69.24,1.38.37,2.07.13.69.26,1.39.39,2.09.14.7.28,1.4.42,2.1.3,1.41.6,2.82.9,4.24.33,1.42.66,2.85.99,4.28.35,1.43.71,2.87,1.06,4.3l1.13,4.31c.4,1.44.79,2.87,1.19,4.31.41,1.43.83,2.86,1.24,4.29.43,1.42.85,2.84,1.28,4.25.44,1.41.88,2.81,1.31,4.21.45,1.39.89,2.77,1.33,4.15.45,1.37.9,2.73,1.35,4.07.46,1.34.91,2.67,1.35,3.98.92,2.62,1.82,5.17,2.69,7.64.9,2.46,1.78,4.84,2.61,7.12.86,2.27,1.69,4.44,2.47,6.49.8,2.04,1.55,3.97,2.25,5.75.71,1.78,1.37,3.42,1.96,4.89.6,1.48,1.14,2.79,1.61,3.93.94,2.27,1.59,3.83,1.87,4.52"/>
          <path class="cls-1" d="M138.38,142.85c.27-.31.54-.62.83-.95.28-.33.57-.67.87-1.03.58-.71,1.19-1.47,1.84-2.25.62-.8,1.28-1.64,1.96-2.51.66-.88,1.35-1.79,2.07-2.74.7-.95,1.42-1.94,2.16-2.95.73-1.02,1.48-2.07,2.25-3.14.76-1.08,1.53-2.18,2.32-3.3.78-1.13,1.57-2.28,2.38-3.44,1.59-2.35,3.23-4.77,4.89-7.23,1.64-2.48,3.31-5,4.98-7.53,1.65-2.55,3.32-5.11,4.98-7.66,1.64-2.56,3.27-5.1,4.87-7.61,3.16-5.03,6.22-9.89,9.03-14.35,2.77-4.48,5.3-8.56,7.43-12.01,4.22-6.92,6.89-11.32,6.89-11.32l-5.85-.29c-.62,1.09-1.24,2.19-1.87,3.3-.64,1.11-1.29,2.23-1.95,3.36-.67,1.13-1.34,2.27-2.02,3.42-.69,1.14-1.38,2.3-2.08,3.46-1.43,2.31-2.87,4.65-4.32,7.01-1.49,2.34-2.98,4.7-4.48,7.05-1.52,2.34-3.05,4.69-4.56,7.02-1.54,2.32-3.07,4.63-4.58,6.91-1.53,2.27-3.04,4.52-4.53,6.72-1.5,2.19-2.97,4.35-4.41,6.45-1.45,2.09-2.86,4.13-4.22,6.09-1.38,1.96-2.7,3.85-3.97,5.66-2.57,3.6-4.9,6.87-6.92,9.7-2.05,2.81-3.77,5.19-5.1,7.01-.67.91-1.24,1.68-1.7,2.29-.46.61-.82,1.08-1.04,1.38"/>
          <path class="cls-1" d="M291.74,149.12c-.91-1.95-1.83-3.92-2.75-5.88-.89-1.98-1.79-3.96-2.69-5.95-.88-1.99-1.75-3.98-2.62-5.96-.86-1.99-1.71-3.97-2.56-5.93-1.68-3.94-3.33-7.82-4.94-11.6-1.62-3.77-3.19-7.43-4.7-10.93-.77-1.74-1.53-3.45-2.26-5.1-.76-1.65-1.49-3.25-2.2-4.8-.37-.77-.73-1.53-1.08-2.27-.36-.74-.72-1.47-1.06-2.18-.36-.71-.71-1.4-1.05-2.08-.35-.67-.7-1.33-1.04-1.98-.35-.64-.69-1.26-1.02-1.87-.34-.6-.68-1.18-1.01-1.75-.34-.56-.67-1.1-.99-1.63-.17-.26-.33-.52-.49-.77-.17-.25-.33-.49-.49-.73-.16-.24-.33-.47-.48-.7-.16-.23-.32-.45-.48-.67-.16-.21-.32-.43-.48-.63-.16-.2-.32-.4-.47-.6-.16-.19-.32-.38-.47-.56-.16-.18-.31-.35-.47-.52-.16-.17-.31-.33-.46-.49-.16-.15-.31-.3-.46-.45l-4.07-.72c.27.51.57,1.06.88,1.65.31.6.63,1.23.98,1.9.67,1.36,1.42,2.86,2.23,4.49.79,1.64,1.63,3.4,2.52,5.26.88,1.87,1.8,3.84,2.75,5.88,1.87,4.1,3.88,8.49,5.93,12.96,2.01,4.48,4.06,9.05,6.04,13.48,3.92,8.89,7.6,17.26,10.31,23.41,2.68,6.16,4.38,10.09,4.38,10.09"/>
          <path class="cls-1" d="M118.63,125.02s1.17-1.46,3.24-4.06c1.05-1.29,2.32-2.86,3.79-4.67,1.48-1.8,3.16-3.84,5-6.08,1.86-2.22,3.88-4.64,6.04-7.22,2.18-2.56,4.49-5.27,6.9-8.09,1.22-1.4,2.46-2.83,3.72-4.29,1.27-1.45,2.56-2.92,3.87-4.41,1.32-1.48,2.65-2.98,4-4.49,1.36-1.5,2.73-3.02,4.11-4.54,1.39-1.51,2.79-3.03,4.19-4.56,1.42-1.51,2.84-3.03,4.25-4.54,1.43-1.5,2.87-3,4.3-4.49,1.44-1.48,2.88-2.95,4.31-4.41,1.45-1.44,2.89-2.88,4.31-4.3,1.44-1.4,2.88-2.78,4.29-4.15.71-.67,1.42-1.34,2.13-2.01.71-.66,1.42-1.31,2.11-1.96.71-.64,1.4-1.27,2.1-1.9.7-.62,1.39-1.24,2.08-1.84.69-.6,1.38-1.19,2.06-1.78.68-.58,1.36-1.15,2.03-1.72.68-.55,1.34-1.1,2-1.64.67-.53,1.32-1.05,1.97-1.57.66-.5,1.3-1,1.94-1.49.64-.48,1.28-.95,1.9-1.41.63-.45,1.25-.89,1.86-1.32.62-.42,1.23-.83,1.82-1.23.3-.19.6-.39.89-.58.3-.19.59-.37.88-.55.29-.18.58-.35.87-.53.29-.17.58-.34.86-.5.29-.16.57-.32.85-.48.28-.15.56-.3.83-.45.28-.14.55-.28.82-.42.27-.13.54-.27.81-.4.27-.12.53-.25.79-.37.26-.11.52-.23.78-.34.26-.1.51-.21.77-.31.25-.09.5-.19.75-.28.25-.08.49-.17.74-.25.24-.07.48-.15.72-.22l.35-.1.09-.02h.02s.01,0,.02,0l.04.02.16.09c.21.12.41.24.62.36l7.91,11.89-.55-.54-.55-.52-.56-.5-.57-.48-.58-.47-.58-.45-.59-.43-.59-.41-.6-.39-.61-.37-.61-.35-.62-.34-.63-.32-.63-.3-.64-.29-.64-.27-.72.28-.73.3-.74.32-.74.34-.75.36-.75.38-.76.39-.76.41c-.51.29-1.02.58-1.55.88-.52.31-1.04.63-1.57.95-.52.33-1.05.67-1.59,1.01-.53.36-1.06.71-1.61,1.08-.54.38-1.08.76-1.62,1.14-.54.4-1.09.8-1.64,1.2-.55.42-1.1.84-1.66,1.26-.55.43-1.11.87-1.68,1.32-.56.45-1.12.91-1.69,1.37-.56.47-1.13.95-1.71,1.43-.57.49-1.14.98-1.72,1.48-.57.5-1.15,1.01-1.73,1.53-.58.52-1.16,1.05-1.75,1.58-.58.54-1.17,1.08-1.76,1.62-.59.55-1.18,1.11-1.77,1.66-.59.56-1.18,1.13-1.78,1.71-1.18,1.16-2.38,2.34-3.59,3.53-1.19,1.21-2.4,2.44-3.62,3.68-1.2,1.26-2.42,2.53-3.65,3.81-1.21,1.3-2.44,2.61-3.67,3.92-1.22,1.33-2.45,2.67-3.68,4.02-1.22,1.36-2.45,2.73-3.69,4.11-1.23,1.39-2.46,2.78-3.69,4.18-1.23,1.41-2.46,2.82-3.69,4.23-2.44,2.85-4.9,5.71-7.35,8.57-2.43,2.88-4.85,5.75-7.26,8.61-2.4,2.87-4.78,5.72-7.13,8.53-4.71,5.62-9.3,11.11-13.68,16.33"/>
          <polygon class="cls-1" points="263.36 26.69 249.18 42.63 230.53 98.44 244.03 79.8 263.36 26.69"/>
          <polygon class="cls-1" points="212.6 19.9 219.41 21.54 221.11 21.95 221.16 21.96 221.19 21.97 221.2 21.97 221.21 21.97 221.22 21.98 221.31 22.09 221.5 22.31 221.88 22.76 222.63 23.65 225.65 27.21 237.74 41.45 281.65 106.85 256.58 81.09 235.07 47.03 224.32 30 221.63 25.74 220.96 24.67 220.88 24.54 220.86 24.51 220.83 24.49 220.79 24.47 220.6 24.36 220.22 24.15 218.69 23.3 212.6 19.9"/>
          <polygon class="cls-1" points="236.18 57.13 237.36 63.72 257.43 65.78 256.26 59.2 236.18 57.13"/>
          <polygon class="cls-1" points="237.52 63.7 238.38 70.24 258.72 73.98 257.86 67.45 237.52 63.7"/>
          <polygon class="cls-1" points="256.11 59.24 255.25 52.71 234.91 48.96 235.76 55.5 256.11 59.24"/>
          <path class="cls-1" d="M242.79,29.52l-13.58-3.8-6.79-1.9-.85-.24-.42-.12-.11-.03h-.03s0,0,0,0h0s-.01,0-.01,0l-.06.03-.24.11-1.89.9-3.78,1.8-56.51,46.21,26.34-14.35,30.19-23.13,3.77-2.89.94-.72.12-.09.03-.02h.03s.05,0,.05,0l.21-.02.43-.03,1.7-.13,6.82-.52,13.63-1.04Z"/>
          <polygon class="cls-1" points="197.92 .32 204.09 23.53 203.62 82.72 196.85 61.13 197.92 .32"/>
          <polygon class="cls-1" points="192 37.07 188.79 43.03 207.99 47.83 211.2 41.87 192 37.07"/>
          <polygon class="cls-1" points="188.96 43.04 185.46 48.91 203.81 55.23 207.31 49.36 188.96 43.04"/>
          <polygon class="cls-1" points="211.01 41.89 214.51 36.02 196.16 29.71 192.66 35.58 211.01 41.89"/>
        </g>
      </g>
      <g>
        <g>
          <path class="cls-1" d="M357.79,610.24c0,29.11-15.19,43.37-15.19,75.32h-5.19c0-31.95,15.18-46.21,15.18-75.32"/>
          <path class="cls-1" d="M336.39,610.24c0,30.97,15.18,46.27,15.18,74.49h-5.19c0-28.22-15.19-43.52-15.19-74.49"/>
          <path class="cls-1" d="M357.79,765.22c0-29.11-15.19-43.37-15.19-75.32h-5.19c0,31.95,15.18,46.21,15.18,75.32"/>
          <path class="cls-1" d="M336.39,765.22c0-30.97,15.18-46.27,15.18-74.49h-5.19c0,28.22-15.19,43.52-15.19,74.49"/>
          <polygon class="cls-1" points="366.72 667.66 350.39 678.36 322.55 714.31 338.72 701.94 366.72 667.66"/>
          <polygon class="cls-1" points="324.22 664.78 339.81 678.17 365.71 714.45 350.33 702.16 324.22 664.78"/>
          <polygon class="cls-1" points="335.47 688.09 335.37 692.16 353.95 692.5 354.05 688.42 335.47 688.09"/>
          <polygon class="cls-1" points="335.53 692.15 335.14 696.22 353.65 697.59 354.04 693.53 335.53 692.15"/>
          <polygon class="cls-1" points="353.89 688.46 354.28 684.39 335.76 683.02 335.38 687.08 353.89 688.46"/>
        </g>
        <g>
          <path class="cls-1" d="M357.79,765.23c0,29.11-15.19,43.37-15.19,75.32h-5.19c0-31.95,15.18-46.21,15.18-75.32"/>
          <path class="cls-1" d="M336.39,765.23c0,30.97,15.18,46.27,15.18,74.49h-5.19c0-28.22-15.19-43.52-15.19-74.49"/>
          <path class="cls-1" d="M357.79,920.21c0-29.11-15.19-43.37-15.19-75.32h-5.19c0,31.95,15.18,46.21,15.18,75.32"/>
          <path class="cls-1" d="M336.39,920.21c0-30.97,15.18-46.27,15.18-74.49h-5.19c0,28.22-15.19,43.52-15.19,74.49"/>
          <polygon class="cls-1" points="366.72 822.64 350.39 833.34 322.55 869.29 338.72 856.93 366.72 822.64"/>
          <polygon class="cls-1" points="324.22 819.77 339.81 833.15 365.71 869.44 350.33 857.14 324.22 819.77"/>
          <polygon class="cls-1" points="335.47 843.07 335.37 847.15 353.95 847.48 354.05 843.41 335.47 843.07"/>
          <polygon class="cls-1" points="335.53 847.14 335.14 851.2 353.65 852.58 354.04 848.51 335.53 847.14"/>
          <polygon class="cls-1" points="353.89 843.44 354.28 839.38 335.76 838.01 335.38 842.07 353.89 843.44"/>
        </g>
      </g>
      <g>
        <g>
          <path class="cls-1" d="M613.92,610.24c0,30.24-15.19,45.05-15.19,78.24h-5.19c0-33.19,15.18-48,15.18-78.24"/>
          <path class="cls-1" d="M592.52,610.24c0,32.17,15.18,48.07,15.18,77.38h-5.19c0-29.31-15.19-45.21-15.19-77.38"/>
          <path class="cls-1" d="M613.92,771.24c0-30.24-15.19-45.06-15.19-78.24h-5.19c0,33.19,15.18,48,15.18,78.24"/>
          <path class="cls-1" d="M592.52,771.24c0-32.17,15.18-48.07,15.18-77.38h-5.19c0,29.31-15.19,45.21-15.19,77.38"/>
          <polygon class="cls-1" points="622.85 669.89 606.52 681 578.68 718.35 594.85 705.5 622.85 669.89"/>
          <polygon class="cls-1" points="580.35 666.9 595.94 680.8 621.84 718.5 606.46 705.73 580.35 666.9"/>
          <polygon class="cls-1" points="591.6 691.11 591.5 695.34 610.08 695.69 610.18 691.46 591.6 691.11"/>
          <polygon class="cls-1" points="591.66 695.34 591.27 699.56 609.78 700.98 610.17 696.76 591.66 695.34"/>
          <polygon class="cls-1" points="610.02 691.5 610.41 687.27 591.89 685.85 591.5 690.07 610.02 691.5"/>
        </g>
        <g>
          <path class="cls-1" d="M613.92,771.25c0,30.24-15.19,45.05-15.19,78.24h-5.19c0-33.19,15.18-48,15.18-78.24"/>
          <path class="cls-1" d="M592.52,771.25c0,32.17,15.18,48.07,15.18,77.38h-5.19c0-29.31-15.19-45.21-15.19-77.38"/>
          <path class="cls-1" d="M613.92,932.24c0-30.24-15.19-45.06-15.19-78.24h-5.19c0,33.19,15.18,48,15.18,78.24"/>
          <path class="cls-1" d="M592.52,932.24c0-32.17,15.18-48.07,15.18-77.38h-5.19c0,29.31-15.19,45.21-15.19,77.38"/>
          <polygon class="cls-1" points="622.85 830.89 606.52 842.01 578.68 879.35 594.85 866.51 622.85 830.89"/>
          <polygon class="cls-1" points="580.35 827.91 595.94 841.81 621.84 879.51 606.46 866.73 580.35 827.91"/>
          <polygon class="cls-1" points="591.6 852.11 591.5 856.35 610.08 856.7 610.18 852.46 591.6 852.11"/>
          <polygon class="cls-1" points="591.66 856.34 591.27 860.56 609.78 861.99 610.17 857.77 591.66 856.34"/>
          <polygon class="cls-1" points="610.02 852.5 610.41 848.28 591.89 846.85 591.5 851.07 610.02 852.5"/>
        </g>
      </g>
    </g>
  </g>
</svg>