<?xml version="1.0" encoding="UTF-8"?>
<svg id="Layer_2" data-name="Layer 2" xmlns="http://www.w3.org/2000/svg" viewBox="0 0 621.86 1092.88">
  <defs>
    <style>
      .cls-1 {
        fill: #bfbfbf;
        stroke: #000;
        stroke-linecap: round;
        stroke-width: 2.5px;
      }
    </style>
  </defs>
  <g id="Layer_2-2" data-name="Layer 2">
    <g>
      <g>
        <g>
          <path class="cls-1" d="M1.25,894.67c13.68-29.71,34.18-37.91,49.2-70.52l4.71,2.17c-15.02,32.61-35.51,40.81-49.19,70.52"/>
          <path class="cls-1" d="M20.7,903.63c14.56-31.61,7.96-53.57,21.22-82.37l4.71,2.17c-13.26,28.8-6.66,50.77-21.21,82.38"/>
          <path class="cls-1" d="M74.09,736.5c-13.68,29.71-6.59,50.62-21.61,83.23l4.71,2.17c15.02-32.61,7.93-53.51,21.61-83.22"/>
          <path class="cls-1" d="M93.54,745.46c-14.56,31.61-35.54,40.87-48.8,69.67l4.71,2.17c13.26-28.8,34.25-38.06,48.81-69.67"/>
          <polygon class="cls-1" points="20.13 832.34 39.99 828.25 82.18 803.21 61.67 809.06 20.13 832.34"/>
          <polygon class="cls-1" points="57.38 853.05 49.51 832.88 43.04 785 51.23 803.99 57.38 853.05"/>
          <polygon class="cls-1" points="58.11 824.56 60.12 820.44 43.41 812.33 41.4 816.45 58.11 824.56"/>
          <polygon class="cls-1" points="59.98 820.39 62.24 816.4 46.07 807.26 43.8 811.24 59.98 820.39"/>
          <rect class="cls-1" x="46.22" y="813.76" width="4.58" height="18.58" transform="translate(-691.4 459.33) rotate(-60.45)"/>
        </g>
        <g>
          <path class="cls-1" d="M74.1,736.49c13.68-29.71,34.18-37.91,49.2-70.52l4.71,2.17c-15.02,32.61-35.51,40.81-49.19,70.52"/>
          <path class="cls-1" d="M93.54,745.45c14.56-31.61,7.96-53.57,21.22-82.37l4.71,2.17c-13.26,28.8-6.66,50.77-21.21,82.38"/>
          <path class="cls-1" d="M146.94,578.32c-13.68,29.71-6.59,50.62-21.61,83.23l4.71,2.17c15.02-32.61,7.93-53.51,21.61-83.22"/>
          <path class="cls-1" d="M166.38,587.27c-14.56,31.61-35.54,40.87-48.8,69.67l4.71,2.17c13.26-28.8,34.25-38.06,48.81-69.67"/>
          <polygon class="cls-1" points="92.98 674.16 112.83 670.07 155.02 645.03 134.52 650.88 92.98 674.16"/>
          <polygon class="cls-1" points="130.23 694.87 122.36 674.69 115.89 626.82 124.08 645.81 130.23 694.87"/>
          <polygon class="cls-1" points="130.96 666.38 132.97 662.26 116.25 654.15 114.25 658.27 130.96 666.38"/>
          <polygon class="cls-1" points="132.82 662.21 135.09 658.22 118.92 649.08 116.65 653.06 132.82 662.21"/>
          <rect class="cls-1" x="119.07" y="655.57" width="4.58" height="18.58" transform="translate(-516.87 442.53) rotate(-60.45)"/>
        </g>
        <g>
          <path class="cls-1" d="M146.94,578.31c13.68-29.71,34.18-37.91,49.2-70.52l4.71,2.17c-15.02,32.61-35.51,40.81-49.19,70.52"/>
          <path class="cls-1" d="M166.39,587.26c14.56-31.61,7.96-53.57,21.22-82.37l4.71,2.17c-13.26,28.8-6.66,50.77-21.21,82.38"/>
          <path class="cls-1" d="M219.79,420.14c-13.68,29.71-6.59,50.62-21.61,83.23l4.71,2.17c15.02-32.61,7.93-53.51,21.61-83.22"/>
          <path class="cls-1" d="M239.23,429.09c-14.56,31.61-35.54,40.87-48.8,69.67l4.71,2.17c13.26-28.8,34.25-38.06,48.81-69.67"/>
          <polygon class="cls-1" points="165.83 515.98 185.68 511.89 227.87 486.84 207.37 492.7 165.83 515.98"/>
          <polygon class="cls-1" points="203.08 536.69 195.21 516.51 188.74 468.64 196.93 487.62 203.08 536.69"/>
          <polygon class="cls-1" points="203.81 508.2 205.82 504.08 189.1 495.97 187.09 500.09 203.81 508.2"/>
          <polygon class="cls-1" points="205.67 504.02 207.93 500.04 191.77 490.89 189.5 494.88 205.67 504.02"/>
          <rect class="cls-1" x="191.92" y="497.39" width="4.58" height="18.58" transform="translate(-342.35 425.73) rotate(-60.45)"/>
        </g>
        <g>
          <path class="cls-1" d="M421.31,464.3c0,32.91-15.19,49.04-15.19,85.16h-5.19c0-36.12,15.18-52.25,15.18-85.16"/>
          <path class="cls-1" d="M399.9,464.3c0,35.01,15.18,52.31,15.18,84.22h-5.19c0-31.9-15.19-49.2-15.19-84.22"/>
          <path class="cls-1" d="M421.31,639.52c0-32.91-15.19-49.04-15.19-85.16h-5.19c0,36.12,15.18,52.25,15.18,85.16"/>
          <path class="cls-1" d="M399.9,639.52c0-35.01,15.18-52.31,15.18-84.22h-5.19c0,31.9-15.19,49.2-15.19,84.22"/>
          <polygon class="cls-1" points="430.23 529.21 413.91 541.31 386.06 581.95 402.24 567.98 430.23 529.21"/>
          <polygon class="cls-1" points="387.73 525.96 403.32 541.09 429.22 582.12 413.84 568.22 387.73 525.96"/>
          <polygon class="cls-1" points="398.99 552.31 398.89 556.92 417.46 557.3 417.56 552.69 398.99 552.31"/>
          <rect class="cls-1" x="405.8" y="550.69" width="4.61" height="18.58" transform="translate(-184.24 919.52) rotate(-85.17)"/>
          <rect class="cls-1" x="406.04" y="540.37" width="4.61" height="18.58" transform="translate(-173.51 910.64) rotate(-85.21)"/>
        </g>
        <g>
          <path class="cls-1" d="M421.31,639.53c0,32.91-15.19,49.04-15.19,85.16h-5.19c0-36.12,15.18-52.25,15.18-85.16"/>
          <path class="cls-1" d="M399.9,639.53c0,35.01,15.18,52.31,15.18,84.22h-5.19c0-31.9-15.19-49.2-15.19-84.22"/>
          <path class="cls-1" d="M421.31,814.75c0-32.91-15.19-49.04-15.19-85.16h-5.19c0,36.12,15.18,52.25,15.18,85.16"/>
          <path class="cls-1" d="M399.9,814.75c0-35.01,15.18-52.31,15.18-84.22h-5.19c0,31.9-15.19,49.2-15.19,84.22"/>
          <polygon class="cls-1" points="430.23 704.45 413.91 716.54 386.06 757.19 402.24 743.21 430.23 704.45"/>
          <polygon class="cls-1" points="387.73 701.2 403.32 716.33 429.22 757.36 413.84 743.45 387.73 701.2"/>
          <polygon class="cls-1" points="398.99 727.54 398.89 732.15 417.46 732.53 417.56 727.92 398.99 727.54"/>
          <rect class="cls-1" x="405.8" y="725.93" width="4.61" height="18.58" transform="translate(-358.85 1080) rotate(-85.17)"/>
          <rect class="cls-1" x="406.04" y="715.6" width="4.61" height="18.58" transform="translate(-348.14 1071.23) rotate(-85.21)"/>
        </g>
        <g>
          <path class="cls-1" d="M315.71,920.37c-28.04,0-41.78-15.19-72.56-15.19v-5.19c30.78,0,44.52,15.18,72.56,15.18"/>
          <path class="cls-1" d="M315.71,898.96c-29.83,0-44.58,15.18-71.76,15.18v-5.19c27.18,0,41.93-15.19,71.76-15.19"/>
          <path class="cls-1" d="M166.4,920.37c28.05,0,41.79-15.19,72.56-15.19v-5.19c-30.78,0-44.52,15.18-72.56,15.18"/>
          <path class="cls-1" d="M166.4,898.96c29.83,0,44.58,15.18,71.76,15.18v-5.19c-27.18,0-41.93-15.19-71.76-15.19"/>
          <polygon class="cls-1" points="260.4 929.29 250.09 912.97 215.46 885.12 227.37 901.3 260.4 929.29"/>
          <polygon class="cls-1" points="263.17 886.79 250.27 902.38 215.31 928.28 227.16 912.9 263.17 886.79"/>
          <polygon class="cls-1" points="240.71 898.04 236.79 897.94 236.47 916.52 240.39 916.62 240.71 898.04"/>
          <polygon class="cls-1" points="236.8 898.1 232.88 897.71 231.56 916.22 235.47 916.61 236.8 898.1"/>
          <polygon class="cls-1" points="240.36 916.46 244.27 916.85 245.6 898.34 241.68 897.95 240.36 916.46"/>
        </g>
        <g>
          <path class="cls-1" d="M394.59,464.3c.01-5.79.03-11.55.04-17.28.06-5.72.12-11.42.18-17.08.1-5.65.2-11.27.31-16.86.14-5.57.28-11.1.42-16.61.18-5.48.36-10.93.53-16.34.21-5.38.42-10.73.63-16.04.24-5.28.48-10.52.72-15.73.27-5.17.54-10.3.81-15.39.3-5.05.59-10.06.88-15.03.32-4.93.63-9.81.94-14.64.34-4.8.67-9.54,1-14.24.35-4.66.7-9.26,1.04-13.81.37-4.51.73-8.96,1.08-13.36.38-4.36.75-8.65,1.11-12.88.38-4.2.76-8.32,1.13-12.38.39-4.03.77-7.98,1.14-11.86.39-3.85.77-7.62,1.14-11.32.39-3.67.76-7.25,1.13-10.75.77-6.92,1.51-13.51,2.2-19.72.73-6.11,1.42-11.86,2.06-17.18.67-5.25,1.29-10.08,1.85-14.47.58-4.32,1.11-8.19,1.56-11.57.47-3.33.88-6.17,1.21-8.49.68-4.55,1.05-7.01,1.05-7.01-.46,3.69-.92,7.42-1.39,11.19-.44,3.85-.88,7.73-1.32,11.65-.41,3.99-.83,8.01-1.25,12.07-.39,4.11-.79,8.26-1.19,12.44-.37,4.22-.75,8.48-1.13,12.75-.35,4.32-.71,8.66-1.07,13.02-.33,4.4-.67,8.81-1.01,13.23-.32,4.46-.63,8.92-.95,13.4-.3,4.5-.6,9.01-.89,13.51-.28,4.53-.56,9.06-.84,13.58-.51,9.1-1.02,18.17-1.52,27.15-.45,9.04-.89,18-1.32,26.8-.39,8.85-.77,17.56-1.14,26.05-.33,8.53-.65,16.85-.96,24.9-.28,8.08-.55,15.88-.8,23.35-.23,7.49-.45,14.64-.66,21.39-.19,6.77-.36,13.13-.52,19.03-.54,23.66-.91,39.88-1.02,44.49"/>
          <path class="cls-1" d="M243.95,431.26c1.04-2.3,2.14-4.74,3.31-7.33,1.15-2.6,2.36-5.35,3.62-8.23,1.24-2.88,2.55-5.89,3.9-9.02,1.33-3.13,2.72-6.38,4.15-9.74,2.81-6.71,5.81-13.86,8.95-21.35,3.08-7.48,6.3-15.3,9.62-23.37,3.28-8.05,6.65-16.36,10.09-24.81,3.4-8.44,6.86-17.03,10.34-25.68,6.87-17.25,13.83-34.73,20.57-51.64,6.65-16.88,13.08-33.2,18.99-48.19,5.85-14.96,11.18-28.6,15.69-40.13,8.94-23.02,14.61-37.63,14.61-37.63l-8.92,8.52c-2.68,7.1-5.43,14.38-8.24,21.79-2.87,7.46-5.79,15.05-8.75,22.74-3.01,7.72-6.07,15.53-9.14,23.39-3.12,7.88-6.25,15.81-9.39,23.74-3.17,7.95-6.35,15.9-9.5,23.8-3.19,7.92-6.36,15.78-9.49,23.56-6.34,15.58-12.53,30.78-18.41,45.22-5.96,14.47-11.6,28.17-16.78,40.72-5.23,12.57-9.98,23.98-14.08,33.85-4.15,9.88-7.65,18.22-10.33,24.62-2.72,6.39-4.61,10.85-5.52,12.99"/>
          <path class="cls-1" d="M421.31,464.3c.04-6.67.09-13.37.13-20.09.07-6.72.15-13.45.22-20.19.2-13.45.41-26.88.61-40.13.46-26.47.91-52.19,1.32-75.74.08-5.9.16-11.66.23-17.26.05-5.61.1-11.06.15-16.34.02-5.28.03-10.38.05-15.29-.03-4.91-.05-9.62-.08-14.12-.03-2.25-.06-4.44-.09-6.58-.04-2.13-.09-4.21-.13-6.24-.06-2.02-.12-3.98-.17-5.88-.07-1.89-.14-3.73-.21-5.51-.09-1.76-.18-3.47-.26-5.12-.11-1.63-.21-3.2-.31-4.72-.06-.75-.12-1.48-.17-2.2-.06-.71-.13-1.41-.19-2.1-.07-.67-.13-1.34-.2-1.99-.07-.64-.14-1.26-.21-1.88l-3.34-7.59c.03,3.57.06,7.74.1,12.42,0,4.69,0,9.89.01,15.51-.06,11.25-.12,24.21-.2,38.16-.13,13.94-.27,28.87-.41,44.08-.18,15.2-.36,30.67-.54,45.71-.86,60.08-1.62,113.1-1.62,113.1"/>
          <path class="cls-1" d="M219.79,420.13s2.31-5.29,6.41-14.68c4.15-9.4,10.1-22.89,17.34-39.28,3.65-8.19,7.62-17.1,11.85-26.59,4.26-9.48,8.78-19.53,13.49-30.01,4.75-10.47,9.7-21.36,14.77-32.53,5.12-11.15,10.37-22.58,15.68-34.14,5.37-11.53,10.8-23.19,16.23-34.84,2.74-5.81,5.48-11.61,8.21-17.4,2.75-5.77,5.49-11.52,8.21-17.23,2.74-5.69,5.46-11.35,8.16-16.96,2.72-5.58,5.41-11.11,8.07-16.56,2.68-5.43,5.33-10.79,7.94-16.06,2.63-5.24,5.22-10.39,7.76-15.44,2.56-5.01,5.08-9.91,7.53-14.71,2.48-4.74,4.9-9.36,7.26-13.86,1.19-2.22,2.36-4.42,3.51-6.58,1.16-2.14,2.3-4.25,3.43-6.33,1.13-2.05,2.24-4.07,3.34-6.06,1.1-1.96,2.18-3.88,3.24-5.78,1.07-1.86,2.11-3.68,3.14-5.48,1.03-1.75,2.04-3.48,3.03-5.17.99-1.65,1.97-3.26,2.92-4.84.95-1.53,1.89-3.03,2.8-4.5.91-1.41,1.8-2.79,2.68-4.15.43-.65.86-1.3,1.29-1.94.42-.62.84-1.24,1.26-1.85.41-.59.82-1.17,1.22-1.75.4-.56.8-1.11,1.19-1.65l.58-.79.14-.19.04-.05s.01.03.02.04l.03.11.1.46c.13.62.26,1.24.39,1.85l1.84,43.83c-.17-1.49-.35-2.98-.52-4.47-.19-1.43-.38-2.86-.58-4.29l-.31-2.08-.32-2.04-.34-1.99-.35-1.95-.37-1.91-.38-1.87c-.13-.61-.26-1.22-.39-1.83-.14-.59-.27-1.19-.41-1.78-.14-.58-.28-1.16-.42-1.74-.14-.57-.29-1.13-.43-1.7-.15-.55-.3-1.11-.45-1.67-.15-.54-.31-1.08-.46-1.63,0-.02-.02.03-.03.04l-.04.06-.08.11-.15.22-.3.45-.61.91c-.41.62-.82,1.24-1.23,1.87-.83,1.29-1.67,2.58-2.51,3.89-.85,1.35-1.71,2.72-2.57,4.1-.87,1.42-1.75,2.86-2.63,4.31-.89,1.49-1.79,2.99-2.69,4.51-.91,1.55-1.82,3.12-2.75,4.71-.92,1.61-1.86,3.25-2.8,4.89-.94,1.68-1.89,3.37-2.86,5.08-.96,1.73-1.93,3.49-2.91,5.26-.98,1.79-1.96,3.6-2.96,5.43-1.98,3.71-3.99,7.49-6.05,11.35-2.04,3.92-4.11,7.91-6.22,11.97-2.09,4.11-4.22,8.3-6.38,12.55-2.14,4.29-4.32,8.65-6.53,13.08-2.19,4.46-4.41,8.98-6.66,13.57-2.23,4.61-4.49,9.28-6.78,14.01-2.27,4.75-4.56,9.55-6.88,14.4-2.3,4.87-4.62,9.79-6.96,14.75-2.33,4.98-4.67,10-7.04,15.06-4.68,10.15-9.43,20.45-14.23,30.86-4.75,10.43-9.54,20.96-14.35,31.54-4.77,10.59-9.56,21.23-14.35,31.86-18.99,42.54-37.9,84.92-55.07,123.39"/>
          <polygon class="cls-1" points="449.96 85.57 430.2 110.43 388.8 239.84 409.15 206.57 449.96 85.57"/>
          <polygon class="cls-1" points="401.7 23.44 411.62 16.6 414.1 14.89 414.17 14.83 414.21 14.81 414.23 14.79 414.24 14.79 414.24 14.81 414.28 15.25 414.35 16.13 414.49 17.88 414.78 21.39 415.91 35.41 420.45 91.49 430.94 333.14 419.83 227.33 415.6 103.33 413.49 41.32 412.96 25.82 412.82 21.95 412.81 21.46 412.8 21.35 412.77 21.35 412.71 21.36 412.45 21.41 411.94 21.51 409.89 21.89 401.7 23.44"/>
          <polygon class="cls-1" points="412.13 132.88 410.27 152.78 427.37 186 429.23 166.1 412.13 132.88"/>
          <polygon class="cls-1" points="410.43 152.97 408.31 172.31 424.9 210.52 427.01 191.2 410.43 152.97"/>
          <polygon class="cls-1" points="429.07 166.02 431.19 146.69 414.6 108.47 412.47 127.8 429.07 166.02"/>
          <path class="cls-1" d="M430.26,65.26l-10.5-29.12-5.25-14.56-.66-1.82-.33-.91-.08-.23-.02-.06h0s0-.01,0-.01l-.03.04-.1.16-.4.64-3.23,5.1-6.46,10.21-103.41,198.31,45.67-75.42,54.7-102.28,6.84-12.78,1.71-3.2.21-.4.05-.1.02.03.05.06.2.25.4.49,1.59,1.97,6.34,7.88,12.69,15.75Z"/>
          <polygon class="cls-1" points="385.95 .2 387.29 45.43 365.72 186.25 362.89 145.82 385.95 .2"/>
          <polygon class="cls-1" points="363.88 96.49 356.83 115.66 384.75 96.79 391.8 77.64 363.88 96.49"/>
          <polygon class="cls-1" points="357.1 115.4 349.63 134.81 375.7 120.89 383.16 101.49 357.1 115.4"/>
          <polygon class="cls-1" points="391.49 78 398.96 58.59 372.88 72.53 365.42 91.93 391.49 78"/>
        </g>
        <g>
          <path class="cls-1" d="M315.71,893.65c.63,0,1.27,0,1.9,0,.63.01,1.26.03,1.89.04.63.02,1.25.05,1.88.07.62.04,1.25.07,1.87.11.62.05,1.24.09,1.85.14.62.06,1.23.11,1.84.17.61.07,1.22.13,1.83.2.61.08,1.21.15,1.81.23.6.08,1.2.17,1.8.25.6.09,1.19.19,1.78.28.59.1,1.18.2,1.77.3.59.11,1.17.22,1.75.33.58.12,1.16.23,1.73.35.57.12,1.15.25,1.71.37.57.13,1.13.26,1.7.39.56.14,1.12.28,1.68.41.55.14,1.11.29,1.66.43.55.15,1.09.3,1.64.45.54.16,1.08.31,1.62.46.53.16,1.07.32,1.59.48.53.17,1.05.33,1.57.49.52.17,1.04.34,1.55.51,1.02.35,2.03.7,3.03,1.04.99.37,1.96.73,2.93,1.08.96.38,1.9.75,2.82,1.11.92.38,1.82.76,2.71,1.13.88.39,1.75.77,2.6,1.14.84.39,1.67.77,2.48,1.14.8.39,1.59.76,2.36,1.13.76.38,1.5.75,2.23,1.11.72.37,1.42.74,2.09,1.09.67.36,1.32.71,1.96,1.05.63.35,1.23.68,1.81,1.01.58.33,1.13.65,1.66.96.53.31,1.03.61,1.51.89.47.29.93.56,1.35.82.42.26.82.51,1.19.74.73.47,1.35.88,1.86,1.21.5.34.89.6,1.15.78.26.18.39.27.39.27-.4-.23-.81-.47-1.21-.7-.41-.23-.82-.46-1.24-.69-.42-.22-.84-.44-1.27-.67-.43-.22-.86-.43-1.29-.65-.44-.21-.87-.42-1.31-.64-.44-.21-.89-.41-1.33-.62-.45-.2-.9-.4-1.35-.6l-1.37-.59-1.39-.57-1.41-.56-1.42-.54-1.43-.53c-.96-.33-1.93-.67-2.9-1.01-.98-.32-1.96-.63-2.94-.95l-2.96-.89-2.98-.84c-1-.26-1.99-.52-2.98-.79-.99-.25-1.99-.49-2.97-.73-.99-.23-1.97-.46-2.95-.68-.98-.21-1.96-.43-2.92-.64-.97-.2-1.93-.4-2.88-.59-.95-.18-1.9-.37-2.83-.55-.93-.17-1.86-.34-2.77-.5-.91-.16-1.81-.31-2.69-.46-.88-.14-1.75-.28-2.61-.42-.85-.13-1.69-.26-2.51-.38-1.64-.23-3.21-.45-4.69-.66-1.48-.19-2.88-.36-4.17-.52-1.3-.15-2.49-.28-3.57-.4-1.08-.11-2.04-.21-2.87-.3-1.67-.16-2.81-.27-3.31-.32"/>
          <path class="cls-1" d="M394.71,814.76c0,.28.01.56.02.86.01.29.03.6.04.91.02.31.04.63.06.96.03.33.06.66.08,1.01.07.69.15,1.41.23,2.15.1.75.2,1.52.3,2.32.12.8.24,1.62.37,2.47.14.85.29,1.71.43,2.6.16.89.32,1.79.49,2.72.18.92.36,1.86.54,2.82.19.95.39,1.92.59,2.9.21.98.42,1.97.63,2.97.44,1.99.9,4.02,1.35,6.06.48,2.03.96,4.08,1.44,6.12.5,2.03.99,4.06,1.48,6.05.5,1.99,1,3.94,1.48,5.84.49,1.9.97,3.73,1.43,5.5.95,3.52,1.81,6.72,2.54,9.43,1.51,5.4,2.47,8.83,2.47,8.83l4.54-2.52c-.27-.83-.55-1.67-.83-2.51-.27-.85-.54-1.71-.81-2.58-.26-.87-.52-1.75-.79-2.64-.26-.89-.51-1.79-.77-2.69-.25-.91-.5-1.82-.75-2.73-.24-.92-.49-1.84-.73-2.76-.47-1.85-.94-3.72-1.41-5.59-.44-1.87-.88-3.75-1.32-5.61-.41-1.87-.83-3.73-1.23-5.56-.39-1.84-.77-3.66-1.14-5.44-.36-1.79-.71-3.54-1.05-5.25-.33-1.71-.64-3.38-.95-4.99-.29-1.61-.58-3.17-.85-4.66-.26-1.49-.51-2.91-.74-4.25-.22-1.34-.43-2.61-.63-3.78-.37-2.35-.67-4.33-.91-5.85-.11-.76-.2-1.41-.27-1.93-.07-.52-.12-.91-.15-1.17"/>
          <path class="cls-1" d="M315.71,920.36c.73.02,1.46.04,2.2.06l2.21.08c1.47.07,2.95.15,4.43.22,1.47.09,2.95.19,4.42.28,1.47.11,2.93.22,4.38.33,2.9.24,5.76.47,8.54.7,1.39.11,2.76.22,4.1.33,1.35.1,2.67.2,3.96.29,1.29.08,2.56.16,3.78.23.61.03,1.22.06,1.82.09.6.02,1.19.04,1.76.06.58.01,1.15.03,1.71.04.56,0,1.11,0,1.65,0,.54,0,1.07-.01,1.58-.02.52-.02,1.02-.04,1.51-.05.49-.03.97-.06,1.44-.09.47-.04.92-.09,1.37-.13.22-.03.44-.05.65-.08.21-.03.43-.06.63-.09.21-.03.41-.07.61-.1.2-.04.4-.08.59-.11.19-.04.38-.08.57-.12.19-.05.37-.09.55-.14.18-.05.36-.1.53-.15.17-.05.34-.11.51-.16.16-.06.32-.12.48-.17.16-.06.31-.13.46-.19.15-.07.29-.13.44-.2.14-.07.28-.14.41-.21l1.66-3.34c-.39.02-.81.04-1.27.06-.45.01-.94.02-1.45.04-.51,0-1.06.01-1.62.02-.57,0-1.16,0-1.78,0-1.23-.02-2.56-.04-3.96-.06-1.4-.04-2.87-.08-4.4-.13-1.53-.06-3.11-.12-4.73-.18-1.62-.07-3.27-.15-4.93-.23-3.33-.18-6.72-.36-10.02-.54-3.29-.2-6.49-.4-9.43-.57-2.94-.19-5.63-.37-7.9-.52-4.55-.32-7.45-.53-7.45-.53"/>
          <path class="cls-1" d="M421.31,814.76s.11,1.27.32,3.52c.09,1.13.2,2.5.32,4.08.11,1.58.23,3.37.36,5.34.11,1.97.23,4.1.36,6.38.05,1.14.11,2.31.16,3.52.05,1.2.09,2.44.14,3.7.04,1.26.08,2.54.11,3.85.03,1.31.05,2.63.08,3.98.01,1.34.03,2.71.04,4.08,0,1.37,0,2.76,0,4.15-.02,1.39-.04,2.8-.05,4.2-.04,1.41-.07,2.81-.11,4.22-.06,1.41-.12,2.81-.18,4.22-.08,1.4-.16,2.8-.25,4.18-.05.69-.1,1.38-.15,2.07-.06.69-.11,1.37-.17,2.05-.06.68-.13,1.36-.19,2.03-.07.67-.14,1.34-.21,2.01-.08.66-.16,1.32-.23,1.98-.09.65-.17,1.3-.26,1.95-.09.64-.19,1.28-.28,1.91-.1.63-.2,1.26-.31,1.87-.11.62-.22,1.23-.33,1.83-.12.6-.24,1.2-.36,1.79-.13.59-.26,1.17-.38,1.74-.14.57-.28,1.13-.41,1.69-.15.55-.3,1.1-.44,1.63-.16.53-.31,1.06-.47,1.57-.17.51-.34,1.02-.5,1.51-.09.25-.17.49-.26.73-.09.24-.18.48-.27.72-.09.23-.19.47-.28.7-.1.23-.19.46-.28.68-.1.22-.2.44-.29.66-.1.22-.2.43-.3.64-.1.21-.21.42-.31.63-.11.2-.21.41-.32.61-.11.2-.22.39-.33.59-.11.19-.22.38-.33.57-.12.18-.23.37-.34.55-.12.18-.24.35-.35.53-.12.17-.24.34-.36.5l-.37.48-.38.46-.39.44-.4.42-.41.39-9.61,1.84.49-.25.48-.27.47-.28.47-.3.46-.31.45-.32.44-.34.43-.35.42-.37.41-.38.4-.39.39-.41.38-.42.37-.43.36-.45.36-.46.35-.47.34-.48.33-.5.32-.51.31-.52.31-.53.3-.54.29-.56.28-.57.28-.58c.17-.39.35-.79.53-1.19.16-.41.33-.82.5-1.23.15-.42.31-.84.47-1.27.15-.43.29-.87.44-1.31.14-.45.27-.9.41-1.35.13-.46.26-.92.39-1.39.12-.47.24-.95.36-1.43.11-.48.22-.97.34-1.46.1-.49.21-.99.31-1.49.09-.5.19-1.01.29-1.53.09-.51.17-1.03.26-1.56.08-.52.16-1.05.24-1.59.07-.53.15-1.07.22-1.62.07-.54.13-1.09.2-1.64.06-.55.12-1.11.18-1.67.05-.56.1-1.13.16-1.69.05-.57.09-1.14.14-1.72.04-.58.08-1.16.12-1.74.03-.58.07-1.17.1-1.76.05-1.18.1-2.37.15-3.58.03-1.2.06-2.42.09-3.64.01-1.22.02-2.46.04-3.7,0-1.24,0-2.49-.01-3.75-.02-1.26-.04-2.52-.06-3.78-.03-1.27-.07-2.54-.1-3.81-.1-2.55-.19-5.1-.29-7.66-.13-2.55-.25-5.1-.38-7.64-.14-2.53-.28-5.05-.42-7.54-.27-4.97-.54-9.83-.79-14.44"/>
          <polygon class="cls-1" points="398.73 949.02 393.28 929.26 364.91 887.86 372.2 908.21 398.73 949.02"/>
          <polygon class="cls-1" points="422.02 910.43 397.43 919.51 344.46 930 367.65 918.89 422.02 910.43"/>
          <rect class="cls-1" x="373.24" y="916.44" width="18.58" height="4.74" transform="translate(-612.69 910.38) rotate(-66.91)"/>
          <polygon class="cls-1" points="383.95 909.49 379.71 907.37 371.34 923.96 375.57 926.07 383.95 909.49"/>
          <polygon class="cls-1" points="381.09 928.13 385.33 930.25 393.71 913.66 389.47 911.53 381.09 928.13"/>
          <polygon class="cls-1" points="403.18 929.32 415.94 908.32 426.92 859.36 416.99 878.56 403.18 929.32"/>
          <polygon class="cls-1" points="446.04 913.61 425.9 904.73 386.59 874.71 406.07 882.5 446.04 913.61"/>
          <rect class="cls-1" x="406.98" y="890.97" width="18.58" height="4.74" transform="translate(-278.67 194.49) rotate(-19.86)"/>
          <polygon class="cls-1" points="424.06 888.03 422.72 883.48 404.87 888.64 406.21 893.19 424.06 888.03"/>
          <polygon class="cls-1" points="408.46 898.63 409.8 903.18 427.65 898.01 426.32 893.46 408.46 898.63"/>
        </g>
      </g>
      <g>
        <g>
          <path class="cls-1" d="M193.98,1037.88c12.3-26.83,32.13-33.65,45.63-63.1l4.72,2.16c-13.5,29.45-33.32,36.27-45.62,63.11"/>
          <path class="cls-1" d="M213.44,1046.8c13.08-28.55,5.75-48.98,17.67-74.99l4.72,2.16c-11.92,26.01-4.58,46.45-17.66,74.99"/>
          <path class="cls-1" d="M259.46,895.02c-12.3,26.83-4.52,46.31-18.02,75.76l4.72,2.16c13.5-29.45,5.72-48.92,18.02-75.76"/>
          <path class="cls-1" d="M278.92,903.94c-13.08,28.55-33.35,36.33-45.27,62.34l4.72,2.16c11.92-26.01,32.19-33.79,45.28-62.34"/>
          <polygon class="cls-1" points="210.13 981.24 229.49 978.18 269.99 956.64 250.06 961.3 210.13 981.24"/>
          <polygon class="cls-1" points="247.55 1001.6 239.03 982.77 230.82 938.52 239.6 956.27 247.55 1001.6"/>
          <polygon class="cls-1" points="247.16 975.43 248.98 971.71 232.23 963.66 230.42 967.38 247.16 975.43"/>
          <polygon class="cls-1" points="248.83 971.66 250.9 968.07 234.66 959.09 232.58 962.67 248.83 971.66"/>
          <polygon class="cls-1" points="230.58 967.41 228.51 971 244.76 979.98 246.83 976.39 230.58 967.41"/>
        </g>
        <g>
          <path class="cls-1" d="M259.46,895.01c12.3-26.83,32.13-33.65,45.63-63.1l4.72,2.16c-13.5,29.45-33.32,36.27-45.62,63.11"/>
          <path class="cls-1" d="M278.92,903.93c13.08-28.55,5.75-48.98,17.67-74.99l4.72,2.16c-11.92,26.01-4.58,46.45-17.66,74.99"/>
          <path class="cls-1" d="M324.94,752.15c-12.3,26.83-4.52,46.31-18.02,75.76l4.72,2.16c13.5-29.45,5.72-48.92,18.02-75.76"/>
          <path class="cls-1" d="M344.4,761.07c-13.08,28.55-33.35,36.33-45.27,62.34l4.72,2.16c11.92-26.01,32.19-33.79,45.28-62.34"/>
          <polygon class="cls-1" points="275.61 838.37 294.97 835.31 335.47 813.77 315.54 818.43 275.61 838.37"/>
          <polygon class="cls-1" points="313.03 858.73 304.51 839.9 296.3 795.65 305.09 813.4 313.03 858.73"/>
          <polygon class="cls-1" points="312.65 832.56 314.46 828.84 297.71 820.79 295.9 824.51 312.65 832.56"/>
          <polygon class="cls-1" points="314.31 828.78 316.38 825.2 300.14 816.22 298.06 819.8 314.31 828.78"/>
          <polygon class="cls-1" points="296.06 824.54 293.99 828.13 310.24 837.11 312.31 833.52 296.06 824.54"/>
        </g>
        <g>
          <path class="cls-1" d="M324.95,752.14c12.3-26.83,32.13-33.65,45.63-63.1l4.72,2.16c-13.5,29.45-33.32,36.27-45.62,63.11"/>
          <path class="cls-1" d="M344.41,761.06c13.08-28.55,5.75-48.98,17.67-74.99l4.72,2.16c-11.92,26.01-4.58,46.45-17.66,74.99"/>
          <path class="cls-1" d="M390.42,609.28c-12.3,26.83-4.52,46.31-18.02,75.76l4.72,2.16c13.5-29.45,5.72-48.92,18.02-75.76"/>
          <path class="cls-1" d="M409.89,618.2c-13.08,28.55-33.35,36.33-45.27,62.34l4.72,2.16c11.92-26.01,32.19-33.79,45.28-62.34"/>
          <polygon class="cls-1" points="341.09 695.5 360.45 692.44 400.95 670.9 381.03 675.56 341.09 695.5"/>
          <polygon class="cls-1" points="378.51 715.86 369.99 697.03 361.78 652.78 370.57 670.53 378.51 715.86"/>
          <polygon class="cls-1" points="378.13 689.69 379.94 685.97 363.2 677.92 361.38 681.64 378.13 689.69"/>
          <polygon class="cls-1" points="379.8 685.91 381.87 682.33 365.62 673.35 363.54 676.93 379.8 685.91"/>
          <polygon class="cls-1" points="361.54 681.67 359.47 685.26 375.72 694.23 377.79 690.65 361.54 681.67"/>
        </g>
        <g>
          <path class="cls-1" d="M592.03,653.27c0,28.61-15.19,42.63-15.19,74.03h-5.19c0-31.4,15.18-45.42,15.18-74.03"/>
          <path class="cls-1" d="M570.62,653.27c0,30.44,15.18,45.48,15.18,73.21h-5.19c0-27.73-15.19-42.78-15.19-73.21"/>
          <path class="cls-1" d="M592.03,805.6c0-28.61-15.19-42.63-15.19-74.03h-5.19c0,31.4,15.18,45.42,15.18,74.03"/>
          <path class="cls-1" d="M570.62,805.6c0-30.44,15.18-45.48,15.18-73.21h-5.19c0,27.73-15.19,42.78-15.19,73.21"/>
          <polygon class="cls-1" points="600.95 709.7 584.63 720.22 556.78 755.55 572.95 743.4 600.95 709.7"/>
          <polygon class="cls-1" points="558.45 706.88 574.04 720.03 599.94 755.7 584.56 743.61 558.45 706.88"/>
          <polygon class="cls-1" points="569.7 729.78 569.6 733.79 588.18 734.12 588.28 730.11 569.7 729.78"/>
          <polygon class="cls-1" points="569.76 733.78 569.37 737.78 587.88 739.13 588.27 735.13 569.76 733.78"/>
          <polygon class="cls-1" points="588.12 730.15 588.51 726.15 570 724.8 569.61 728.8 588.12 730.15"/>
        </g>
        <g>
          <path class="cls-1" d="M592.03,805.61c0,28.61-15.19,42.63-15.19,74.03h-5.19c0-31.4,15.18-45.42,15.18-74.03"/>
          <path class="cls-1" d="M570.62,805.61c0,30.44,15.18,45.48,15.18,73.21h-5.19c0-27.73-15.19-42.78-15.19-73.21"/>
          <path class="cls-1" d="M592.03,957.94c0-28.61-15.19-42.63-15.19-74.03h-5.19c0,31.4,15.18,45.42,15.18,74.03"/>
          <path class="cls-1" d="M570.62,957.94c0-30.44,15.18-45.48,15.18-73.21h-5.19c0,27.73-15.19,42.78-15.19,73.21"/>
          <polygon class="cls-1" points="600.95 862.04 584.63 872.56 556.78 907.89 572.95 895.74 600.95 862.04"/>
          <polygon class="cls-1" points="558.45 859.22 574.04 872.37 599.94 908.04 584.56 895.95 558.45 859.22"/>
          <polygon class="cls-1" points="569.7 882.12 569.6 886.13 588.18 886.46 588.28 882.45 569.7 882.12"/>
          <polygon class="cls-1" points="569.76 886.12 569.37 890.11 587.88 891.46 588.27 887.47 569.76 886.12"/>
          <polygon class="cls-1" points="588.12 882.49 588.51 878.49 570 877.14 569.61 881.14 588.12 882.49"/>
        </g>
        <g>
          <path class="cls-1" d="M486.43,1063.55c-25.98,0-38.7-15.19-67.21-15.19v-5.19c28.51,0,41.23,15.18,67.21,15.18"/>
          <path class="cls-1" d="M486.43,1042.14c-27.63,0-41.29,15.18-66.47,15.18v-5.19c25.18,0,38.83-15.19,66.47-15.19"/>
          <path class="cls-1" d="M348.13,1063.55c25.98,0,38.7-15.19,67.21-15.19v-5.19c-28.51,0-41.23,15.18-67.21,15.18"/>
          <path class="cls-1" d="M348.13,1042.14c27.63,0,41.29,15.18,66.47,15.18v-5.19c-25.18,0-38.83-15.19-66.47-15.19"/>
          <polygon class="cls-1" points="435.19 1072.47 425.65 1056.15 393.57 1028.3 404.6 1044.48 435.19 1072.47"/>
          <polygon class="cls-1" points="437.76 1029.97 425.82 1045.56 393.43 1071.46 404.41 1056.08 437.76 1029.97"/>
          <polygon class="cls-1" points="416.96 1041.22 413.33 1041.12 413.03 1059.7 416.67 1059.8 416.96 1041.22"/>
          <polygon class="cls-1" points="413.33 1041.28 409.71 1040.89 408.48 1059.4 412.11 1059.8 413.33 1041.28"/>
          <polygon class="cls-1" points="416.63 1059.64 420.26 1060.03 421.48 1041.52 417.86 1041.13 416.63 1059.64"/>
        </g>
        <g>
          <path class="cls-1" d="M565.31,653.27c.01-5.81.03-11.6.04-17.35.06-5.75.12-11.47.18-17.16.1-5.67.2-11.32.31-16.93.14-5.59.28-11.15.42-16.68.18-5.5.36-10.97.53-16.41.21-5.41.42-10.78.63-16.11.24-5.3.48-10.57.72-15.8.27-5.19.54-10.35.81-15.46.3-5.08.59-10.11.88-15.09.32-4.95.63-9.85.94-14.71.34-4.82.67-9.59,1-14.3.35-4.68.7-9.3,1.04-13.87.37-4.53.73-9,1.08-13.41.38-4.38.75-8.69,1.11-12.94.38-4.21.76-8.36,1.13-12.44.39-4.04.77-8.02,1.14-11.91.39-3.87.77-7.66,1.14-11.37.39-3.68.76-7.28,1.13-10.8.77-6.95,1.51-13.57,2.2-19.8.73-6.14,1.42-11.91,2.06-17.26.67-5.27,1.29-10.13,1.85-14.53.58-4.34,1.11-8.23,1.56-11.62.47-3.34.88-6.2,1.21-8.52.68-4.57,1.05-7.04,1.05-7.04-.46,3.7-.92,7.45-1.39,11.23-.44,3.86-.88,7.77-1.32,11.7-.41,4.01-.83,8.05-1.25,12.12-.39,4.13-.79,8.3-1.19,12.49-.37,4.24-.75,8.51-1.13,12.81-.35,4.34-.71,8.7-1.07,13.07-.33,4.41-.67,8.85-1.01,13.29-.32,4.48-.63,8.96-.95,13.46-.3,4.52-.6,9.05-.89,13.57-.28,4.55-.56,9.1-.84,13.64-.51,9.14-1.02,18.25-1.52,27.27-.45,9.08-.89,18.07-1.32,26.92-.39,8.89-.77,17.63-1.14,26.17-.33,8.57-.65,16.93-.96,25.01-.28,8.11-.55,15.95-.8,23.45-.23,7.52-.45,14.7-.66,21.49-.19,6.8-.36,13.19-.52,19.12-.54,23.76-.91,40.06-1.02,44.69"/>
          <path class="cls-1" d="M414.61,620.36c1.04-2.31,2.14-4.77,3.31-7.37,1.15-2.62,2.36-5.38,3.63-8.27,1.25-2.89,2.55-5.92,3.9-9.06,1.33-3.15,2.72-6.41,4.15-9.79,2.81-6.74,5.81-13.93,8.95-21.46,3.08-7.52,6.3-15.38,9.63-23.49,3.28-8.09,6.65-16.44,10.09-24.93,3.4-8.48,6.86-17.11,10.34-25.8,6.87-17.34,13.83-34.9,20.57-51.9,6.65-16.96,13.08-33.36,18.99-48.43,5.85-15.04,11.18-28.74,15.69-40.33,8.94-23.13,14.62-37.82,14.62-37.82l-8.93,8.58c-2.68,7.13-5.44,14.45-8.24,21.9-2.87,7.49-5.79,15.12-8.76,22.85-3.02,7.75-6.07,15.6-9.14,23.5-3.12,7.92-6.25,15.89-9.39,23.86-3.17,7.99-6.35,15.97-9.51,23.92-3.19,7.95-6.36,15.86-9.49,23.68-6.35,15.66-12.54,30.93-18.42,45.45-5.96,14.54-11.61,28.31-16.78,40.92-5.23,12.63-9.98,24.1-14.09,34.02-4.15,9.93-7.65,18.31-10.34,24.74-2.72,6.43-4.61,10.91-5.52,13.06"/>
          <path class="cls-1" d="M592.02,653.27c.04-6.7.09-13.43.13-20.18.07-6.75.15-13.51.22-20.27.2-13.51.41-27,.61-40.3.46-26.59.91-52.42,1.32-76.07.08-5.92.16-11.71.23-17.34.05-5.63.1-11.11.15-16.41.02-5.3.03-10.43.05-15.36-.03-4.93-.05-9.66-.08-14.18-.03-2.26-.06-4.46-.09-6.61-.04-2.14-.09-4.23-.13-6.27-.06-2.03-.12-3.99-.17-5.91-.07-1.9-.14-3.75-.21-5.53-.09-1.77-.18-3.48-.26-5.15-.11-1.63-.21-3.21-.31-4.74-.06-.75-.12-1.49-.17-2.21-.06-.71-.13-1.42-.19-2.11-.07-.68-.13-1.34-.2-2-.07-.64-.14-1.27-.21-1.89l-3.34-7.62c.03,3.58.06,7.77.1,12.47,0,4.71,0,9.93.01,15.58-.06,11.3-.12,24.31-.2,38.32-.13,14-.27,29-.41,44.27-.18,15.27-.36,30.81-.54,45.91-.86,60.35-1.62,113.59-1.62,113.59"/>
          <path class="cls-1" d="M390.42,609.28s2.31-5.32,6.41-14.75c4.15-9.45,10.11-23.01,17.34-39.48,3.65-8.23,7.63-17.19,11.86-26.73,4.26-9.53,8.78-19.63,13.5-30.17,4.75-10.52,9.7-21.47,14.77-32.7,5.12-11.21,10.37-22.69,15.68-34.31,5.37-11.59,10.81-23.31,16.23-35.02,2.74-5.84,5.48-11.67,8.21-17.49,2.75-5.8,5.49-11.58,8.21-17.32,2.74-5.72,5.47-11.41,8.17-17.04,2.72-5.61,5.42-11.17,8.08-16.65,2.68-5.46,5.33-10.84,7.94-16.14,2.63-5.26,5.22-10.44,7.76-15.52,2.56-5.03,5.08-9.97,7.53-14.79,2.48-4.76,4.9-9.41,7.26-13.94,1.19-2.24,2.36-4.44,3.52-6.61,1.16-2.15,2.3-4.27,3.43-6.36,1.13-2.06,2.24-4.09,3.34-6.09,1.1-1.97,2.18-3.9,3.24-5.81,1.07-1.87,2.11-3.71,3.14-5.51,1.03-1.76,2.04-3.5,3.03-5.2.99-1.66,1.97-3.28,2.92-4.87.95-1.54,1.89-3.05,2.8-4.53.91-1.42,1.8-2.81,2.68-4.18.43-.66.86-1.31,1.29-1.95.42-.62.84-1.24,1.26-1.86.41-.59.82-1.18,1.22-1.76.4-.56.8-1.11,1.19-1.66l.58-.79.14-.19.04-.05s.01.03.02.04l.03.11.1.46c.13.63.26,1.25.39,1.86l1.84,44.02c-.17-1.5-.35-2.99-.52-4.49-.19-1.44-.38-2.87-.58-4.31l-.31-2.09-.32-2.04-.34-2-.35-1.96-.37-1.92-.38-1.88c-.13-.61-.26-1.22-.39-1.83-.14-.6-.27-1.19-.41-1.79-.14-.58-.28-1.17-.42-1.75-.14-.57-.29-1.14-.43-1.71-.15-.56-.3-1.11-.45-1.67-.15-.54-.31-1.09-.46-1.63,0-.02-.02.03-.03.04l-.04.06-.08.11-.15.23-.3.45-.61.92c-.41.62-.82,1.25-1.23,1.88-.83,1.29-1.67,2.6-2.51,3.92-.85,1.36-1.71,2.74-2.58,4.13-.87,1.43-1.75,2.88-2.64,4.34-.89,1.5-1.79,3.01-2.69,4.54-.91,1.56-1.82,3.14-2.75,4.73-.92,1.62-1.86,3.26-2.8,4.92-.94,1.68-1.89,3.39-2.86,5.11-.96,1.74-1.93,3.51-2.91,5.29-.98,1.8-1.96,3.62-2.96,5.46-1.98,3.73-4,7.53-6.05,11.41-2.04,3.94-4.11,7.95-6.23,12.04-2.09,4.13-4.22,8.34-6.39,12.62-2.14,4.31-4.32,8.7-6.53,13.15-2.19,4.48-4.41,9.03-6.66,13.64-2.23,4.63-4.49,9.33-6.78,14.08-2.27,4.77-4.56,9.6-6.88,14.48-2.3,4.89-4.62,9.84-6.97,14.83-2.33,5-4.67,10.05-7.04,15.14-4.68,10.2-9.44,20.56-14.24,31.02-4.75,10.48-9.54,21.07-14.36,31.7-4.77,10.65-9.57,21.34-14.36,32.02-18.99,42.76-37.92,85.36-55.09,124.02"/>
          <polygon class="cls-1" points="620.68 272.89 600.91 297.86 559.52 427.83 579.87 394.42 620.68 272.89"/>
          <polygon class="cls-1" points="572.41 210.53 582.33 203.63 584.81 201.91 584.89 201.85 584.93 201.82 584.95 201.81 584.96 201.8 584.96 201.83 585 202.27 585.07 203.15 585.21 204.91 585.49 208.43 586.63 222.52 591.17 278.84 601.66 521.54 590.55 415.27 586.32 290.73 584.2 228.46 583.67 212.89 583.54 209 583.52 208.51 583.52 208.39 583.49 208.4 583.42 208.41 583.17 208.46 582.66 208.56 580.61 208.95 572.41 210.53"/>
          <polygon class="cls-1" points="582.85 320.41 580.99 340.4 598.08 373.76 599.95 353.78 582.85 320.41"/>
          <polygon class="cls-1" points="581.15 340.59 579.02 360.01 595.61 398.39 597.73 378.98 581.15 340.59"/>
          <polygon class="cls-1" points="599.79 353.69 601.91 334.28 585.32 295.89 583.19 315.31 599.79 353.69"/>
          <path class="cls-1" d="M600.98,252.5l-10.5-29.25-5.25-14.62-.66-1.83-.33-.91-.08-.23-.02-.06h0s0-.01,0-.01l-.03.04-.1.16-.4.64-3.23,5.13-6.46,10.27-103.46,199.38,45.69-75.85,54.73-102.83,6.84-12.85,1.71-3.21.21-.4.05-.1.02.03.05.06.2.25.4.49,1.59,1.98,6.34,7.91,12.69,15.82Z"/>
          <polygon class="cls-1" points="556.65 187.26 557.99 232.65 536.43 374.05 533.59 333.49 556.65 187.26"/>
          <polygon class="cls-1" points="534.57 283.98 527.52 303.24 555.46 284.21 562.51 264.96 534.57 283.98"/>
          <polygon class="cls-1" points="527.79 302.98 520.32 322.48 546.41 308.42 553.86 288.93 527.79 302.98"/>
          <polygon class="cls-1" points="562.2 265.32 569.67 245.82 543.58 259.9 536.11 279.39 562.2 265.32"/>
        </g>
        <g>
          <path class="cls-1" d="M486.42,1036.83c.63,0,1.27,0,1.9,0,.63.01,1.26.03,1.89.04.63.02,1.25.05,1.88.07.62.04,1.25.07,1.87.11.62.05,1.24.09,1.85.14.62.06,1.23.11,1.84.17.61.07,1.22.13,1.83.2.61.08,1.21.15,1.81.23.6.08,1.2.17,1.8.25.6.09,1.19.19,1.78.28.59.1,1.18.2,1.77.3.59.11,1.17.22,1.75.33.58.12,1.16.23,1.73.35.57.12,1.15.25,1.71.37.57.13,1.13.26,1.7.39.56.14,1.12.28,1.68.41.55.14,1.11.29,1.66.43.55.15,1.09.3,1.64.45.54.16,1.08.31,1.62.46.53.16,1.07.32,1.59.48.53.17,1.05.33,1.57.49.52.17,1.04.34,1.55.51,1.02.35,2.03.7,3.03,1.04.99.37,1.96.73,2.93,1.08.96.38,1.9.75,2.82,1.11.92.38,1.82.76,2.71,1.13.88.39,1.75.77,2.6,1.14.84.39,1.67.77,2.48,1.14.8.39,1.59.76,2.36,1.13.76.38,1.5.75,2.23,1.11.72.37,1.42.74,2.09,1.09.67.36,1.32.71,1.96,1.05.63.35,1.23.68,1.81,1.01.58.33,1.13.65,1.66.96.53.31,1.03.61,1.51.89.47.29.93.56,1.35.82.42.26.82.51,1.19.74.73.47,1.35.88,1.86,1.21.5.34.89.6,1.15.78.26.18.39.27.39.27-.4-.23-.81-.47-1.21-.7-.41-.23-.82-.46-1.24-.69-.42-.22-.84-.44-1.27-.67-.43-.22-.86-.43-1.29-.65-.44-.21-.87-.42-1.31-.64-.44-.21-.89-.41-1.33-.62-.45-.2-.9-.4-1.35-.6l-1.37-.59-1.39-.57-1.41-.56-1.42-.54-1.43-.53c-.96-.33-1.93-.67-2.9-1.01-.98-.32-1.96-.63-2.94-.95l-2.96-.89-2.98-.84c-1-.26-1.99-.52-2.98-.79-.99-.25-1.99-.49-2.97-.73-.99-.23-1.97-.46-2.95-.68-.98-.21-1.96-.43-2.92-.64-.97-.2-1.93-.4-2.88-.59-.95-.18-1.9-.37-2.83-.55-.93-.17-1.86-.34-2.77-.5-.91-.16-1.81-.31-2.69-.46-.88-.14-1.75-.28-2.61-.42-.85-.13-1.69-.26-2.51-.38-1.64-.23-3.21-.45-4.69-.66-1.48-.19-2.88-.36-4.17-.52-1.3-.15-2.49-.28-3.57-.4-1.08-.11-2.04-.21-2.87-.3-1.67-.16-2.81-.27-3.31-.32"/>
          <path class="cls-1" d="M565.43,957.94c0,.28.01.56.02.86.01.29.03.6.04.91.02.31.04.63.06.96.03.33.06.66.08,1.01.07.69.15,1.41.23,2.15.1.75.2,1.52.3,2.32.12.8.24,1.62.37,2.47.14.85.29,1.71.43,2.6.16.89.32,1.79.49,2.72.18.92.36,1.86.54,2.82.19.95.39,1.92.59,2.9.21.98.42,1.97.63,2.97.44,1.99.9,4.02,1.35,6.06.48,2.03.96,4.08,1.44,6.12.5,2.03.99,4.06,1.48,6.05.5,1.99,1,3.94,1.48,5.84.49,1.9.97,3.73,1.43,5.5.95,3.52,1.81,6.72,2.54,9.43,1.51,5.4,2.47,8.83,2.47,8.83l4.54-2.52c-.27-.83-.55-1.67-.83-2.51-.27-.85-.54-1.71-.81-2.58-.26-.87-.52-1.75-.79-2.64-.26-.89-.51-1.79-.77-2.69-.25-.91-.5-1.82-.75-2.73-.24-.92-.49-1.84-.73-2.76-.47-1.85-.94-3.72-1.41-5.59-.44-1.87-.88-3.75-1.32-5.61-.41-1.87-.83-3.73-1.23-5.56-.39-1.84-.77-3.66-1.14-5.44-.36-1.79-.71-3.54-1.05-5.25-.33-1.71-.64-3.38-.95-4.99-.29-1.61-.58-3.17-.85-4.66-.26-1.49-.51-2.91-.74-4.25-.22-1.34-.43-2.61-.63-3.78-.37-2.35-.67-4.33-.91-5.85-.11-.76-.2-1.41-.27-1.93-.07-.52-.12-.91-.15-1.17"/>
          <path class="cls-1" d="M486.42,1063.55c.73.02,1.46.04,2.2.06l2.21.08c1.47.07,2.95.15,4.43.22,1.47.09,2.95.19,4.42.28,1.47.11,2.93.22,4.38.33,2.9.24,5.76.47,8.54.7,1.39.11,2.76.22,4.1.33,1.35.1,2.67.2,3.96.29,1.29.08,2.56.16,3.78.23.61.03,1.22.06,1.82.09.6.02,1.19.04,1.76.06.58.01,1.15.03,1.71.04.56,0,1.11,0,1.65,0,.54,0,1.07-.01,1.58-.02.52-.02,1.02-.04,1.51-.05.49-.03.97-.06,1.44-.09.47-.04.92-.09,1.37-.13.22-.03.44-.05.65-.08.21-.03.43-.06.63-.09.21-.03.41-.07.61-.1.2-.04.4-.08.59-.11.19-.04.38-.08.57-.12.19-.05.37-.09.55-.14.18-.05.36-.1.53-.15.17-.05.34-.11.51-.16.16-.06.32-.12.48-.17.16-.06.31-.13.46-.19.15-.07.29-.13.44-.2.14-.07.28-.14.41-.21l1.66-3.33c-.39.02-.81.04-1.27.06-.45.01-.94.02-1.45.04-.51,0-1.06.01-1.62.02-.57,0-1.16,0-1.78,0-1.23-.02-2.56-.04-3.96-.06-1.4-.04-2.87-.09-4.4-.13-1.53-.06-3.11-.12-4.73-.18-1.62-.07-3.27-.15-4.93-.23-3.33-.18-6.72-.36-10.02-.54-3.29-.2-6.49-.4-9.43-.57-2.94-.19-5.63-.37-7.9-.52-4.55-.32-7.45-.53-7.45-.53"/>
          <path class="cls-1" d="M592.03,957.94s.11,1.27.32,3.52c.09,1.13.2,2.5.32,4.08.11,1.58.23,3.37.36,5.34.11,1.97.23,4.1.36,6.38.05,1.14.11,2.31.16,3.52.05,1.2.09,2.44.14,3.7.04,1.26.08,2.54.11,3.85.03,1.31.05,2.63.08,3.98.01,1.34.03,2.71.04,4.08,0,1.37,0,2.76,0,4.15-.02,1.39-.04,2.8-.05,4.2-.04,1.41-.07,2.81-.11,4.22-.06,1.41-.12,2.81-.18,4.22-.08,1.4-.16,2.8-.25,4.18-.05.69-.1,1.38-.15,2.07-.06.69-.11,1.37-.17,2.05-.06.68-.13,1.36-.19,2.03-.07.67-.14,1.34-.21,2.01-.08.66-.16,1.32-.23,1.98-.09.65-.17,1.3-.26,1.95-.09.64-.19,1.28-.28,1.91-.1.63-.2,1.26-.31,1.87-.11.62-.22,1.23-.33,1.83-.12.6-.24,1.2-.36,1.79-.13.59-.26,1.17-.38,1.74-.14.57-.28,1.13-.41,1.69-.15.55-.3,1.1-.44,1.63-.16.53-.31,1.06-.47,1.57-.17.51-.34,1.02-.5,1.51-.09.25-.17.49-.26.73-.09.24-.18.48-.27.72-.09.23-.19.47-.28.7-.1.23-.19.46-.28.68-.1.22-.2.44-.29.66-.1.22-.2.43-.3.64-.1.21-.21.42-.31.63-.11.2-.21.41-.32.61-.11.2-.22.39-.33.59-.11.19-.22.38-.33.57-.12.18-.23.37-.34.55-.12.18-.24.35-.35.53-.12.17-.24.34-.36.5l-.37.48-.38.46-.39.44-.4.42-.41.39-9.61,1.84.49-.25.48-.27.47-.28.47-.3.46-.31.45-.32.44-.34.43-.35.42-.37.41-.38.4-.39.39-.41.38-.42.37-.43.36-.45.36-.46.35-.47.34-.48.33-.5.32-.51.31-.52.31-.53.3-.54.29-.56.28-.57.28-.58c.17-.39.35-.79.53-1.19.16-.41.33-.82.5-1.23.15-.42.31-.84.47-1.27.15-.43.29-.87.44-1.31.14-.45.27-.9.41-1.35.13-.46.26-.92.39-1.39.12-.47.24-.95.36-1.43.11-.48.22-.97.34-1.46.1-.49.21-.99.31-1.49.09-.5.19-1.01.29-1.53.09-.51.17-1.03.26-1.56.08-.52.16-1.05.24-1.59.07-.53.15-1.07.22-1.62.07-.54.13-1.09.2-1.64.06-.55.12-1.11.18-1.67.05-.56.1-1.13.16-1.69.05-.57.09-1.14.14-1.72.04-.58.08-1.16.12-1.74.03-.58.07-1.17.1-1.76.05-1.18.1-2.37.15-3.58.03-1.2.06-2.42.09-3.64.01-1.22.02-2.46.04-3.7,0-1.24,0-2.49-.01-3.75-.02-1.26-.04-2.52-.06-3.78-.03-1.27-.07-2.54-.1-3.81-.1-2.55-.19-5.1-.29-7.66-.13-2.55-.25-5.11-.38-7.64-.14-2.53-.28-5.05-.42-7.54-.27-4.97-.54-9.83-.79-14.44"/>
          <polygon class="cls-1" points="569.44 1092.2 563.99 1072.44 535.63 1031.04 542.92 1051.39 569.44 1092.2"/>
          <polygon class="cls-1" points="592.73 1053.61 568.14 1062.69 515.18 1073.18 538.37 1062.07 592.73 1053.61"/>
          <rect class="cls-1" x="543.96" y="1059.62" width="18.58" height="4.74" transform="translate(-640.63 1154.45) rotate(-66.91)"/>
          <polygon class="cls-1" points="554.67 1052.67 550.43 1050.55 542.05 1067.14 546.29 1069.25 554.67 1052.67"/>
          <polygon class="cls-1" points="551.81 1071.31 556.05 1073.43 564.42 1056.84 560.19 1054.71 551.81 1071.31"/>
          <polygon class="cls-1" points="573.89 1072.5 586.66 1051.5 597.64 1002.54 587.71 1021.74 573.89 1072.5"/>
          <polygon class="cls-1" points="616.76 1056.79 596.62 1047.91 557.3 1017.89 576.79 1025.68 616.76 1056.79"/>
          <rect class="cls-1" x="577.7" y="1034.15" width="18.58" height="4.74" transform="translate(-317.16 260.99) rotate(-19.86)"/>
          <polygon class="cls-1" points="594.78 1031.21 593.44 1026.66 575.58 1031.82 576.92 1036.37 594.78 1031.21"/>
          <polygon class="cls-1" points="579.18 1041.81 580.52 1046.36 598.37 1041.19 597.03 1036.65 579.18 1041.81"/>
        </g>
      </g>
    </g>
  </g>
</svg>