<?xml version="1.0" encoding="UTF-8"?>
<svg id="Layer_2" data-name="Layer 2" xmlns="http://www.w3.org/2000/svg" viewBox="0 0 727.05 1104.85">
  <defs>
    <style>
      .cls-1 {
        fill: #bfbfbf;
        stroke: #000;
        stroke-linecap: round;
        stroke-width: 2.5px;
      }
    </style>
  </defs>
  <g id="Layer_2-2" data-name="Layer 2">
    <g>
      <g>
        <path class="cls-1" d="M1.25,401.25c22.92-28.1,45.92-32.26,71.07-63.1l4.02,3.28c-25.16,30.84-48.15,35.01-71.07,63.1"/>
        <path class="cls-1" d="M17.84,414.79c24.38-29.89,24.67-54.26,46.88-81.49l4.02,3.28c-22.22,27.24-22.5,51.61-46.88,81.5"/>
        <path class="cls-1" d="M123.27,251.67c-22.92,28.1-22.38,51.46-47.53,82.3l4.02,3.28c25.15-30.84,24.62-54.2,47.54-82.3"/>
        <path class="cls-1" d="M139.86,265.2c-24.38,29.89-48.19,35.07-70.41,62.3l4.02,3.28c22.22-27.24,46.03-32.41,70.42-62.3"/>
        <polygon class="cls-1" points="39.54 340.2 60.61 340.19 110.5 323.09 88.23 324.8 39.54 340.2"/>
        <polygon class="cls-1" points="70.21 369.84 68.67 347.07 77.17 295.67 79.4 317.26 70.21 369.84"/>
        <polygon class="cls-1" points="79.84 340.23 83.13 336.36 68.99 324.29 65.71 328.17 79.84 340.23"/>
        <polygon class="cls-1" points="83 336.27 86.5 332.59 73.24 319.57 69.73 323.24 83 336.27"/>
        <polygon class="cls-1" points="65.86 328.23 62.36 331.91 75.62 344.94 79.12 341.26 65.86 328.23"/>
      </g>
      <g>
        <path class="cls-1" d="M123.28,251.66c22.92-28.1,45.92-32.26,71.07-63.1l4.02,3.28c-25.16,30.84-48.15,35.01-71.07,63.1"/>
        <path class="cls-1" d="M139.87,265.19c24.38-29.89,24.67-54.26,46.88-81.49l4.02,3.28c-22.22,27.24-22.5,51.61-46.88,81.5"/>
        <path class="cls-1" d="M245.3,102.07c-22.92,28.1-22.38,51.46-47.53,82.3l4.02,3.28c25.15-30.84,24.62-54.2,47.54-82.3"/>
        <path class="cls-1" d="M261.89,115.6c-24.38,29.89-48.19,35.07-70.41,62.3l4.02,3.28c22.22-27.24,46.03-32.41,70.42-62.3"/>
        <polygon class="cls-1" points="161.57 190.6 182.64 190.59 232.52 173.49 210.26 175.2 161.57 190.6"/>
        <polygon class="cls-1" points="192.24 220.24 190.7 197.47 199.2 146.07 201.43 167.66 192.24 220.24"/>
        <polygon class="cls-1" points="201.87 190.63 205.15 186.76 191.02 174.7 187.73 178.57 201.87 190.63"/>
        <polygon class="cls-1" points="205.03 186.67 208.53 182.99 195.27 169.97 191.76 173.64 205.03 186.67"/>
        <polygon class="cls-1" points="187.89 178.63 184.39 182.31 197.65 195.34 201.15 191.66 187.89 178.63"/>
      </g>
      <g>
        <path class="cls-1" d="M402.8,95.14c21.16,21.73,20.64,42.98,43.87,66.83l-3.72,3.62c-23.22-23.85-22.71-45.09-43.87-66.82"/>
        <path class="cls-1" d="M387.46,110.08c22.51,23.12,44.51,23.96,65.02,45.02l-3.72,3.62c-20.51-21.07-42.52-21.9-65.03-45.02"/>
        <path class="cls-1" d="M515.45,210.85c-21.16-21.73-42.41-21.79-65.63-45.64l-3.72,3.62c23.22,23.85,44.47,23.91,65.63,45.64"/>
        <path class="cls-1" d="M500.11,225.78c-22.51-23.12-22.76-45.14-43.27-66.2l-3.72,3.62c20.51,21.07,20.75,43.09,43.26,66.21"/>
        <polygon class="cls-1" points="450.93 131.78 447.01 151.16 453.19 197.42 455.79 176.91 450.93 131.78"/>
        <polygon class="cls-1" points="418.39 159.29 439.28 158.4 484.22 167.43 464.26 168.97 418.39 159.29"/>
        <polygon class="cls-1" points="443.39 168.83 446.28 171.95 459.83 159.24 456.94 156.12 443.39 168.83"/>
        <polygon class="cls-1" points="446.39 171.83 449.06 175.14 463.32 163.25 460.65 159.94 446.39 171.83"/>
        <polygon class="cls-1" points="456.86 156.26 454.18 152.96 439.92 164.85 442.59 168.15 456.86 156.26"/>
      </g>
      <g>
        <path class="cls-1" d="M515.46,210.86c21.16,21.73,20.64,42.98,43.87,66.83l-3.72,3.62c-23.22-23.85-22.71-45.09-43.87-66.82"/>
        <path class="cls-1" d="M500.12,225.79c22.51,23.12,44.51,23.96,65.02,45.02l-3.72,3.62c-20.51-21.07-42.52-21.9-65.03-45.02"/>
        <path class="cls-1" d="M628.11,326.56c-21.16-21.73-42.41-21.79-65.63-45.64l-3.72,3.62c23.22,23.85,44.47,23.91,65.63,45.64"/>
        <path class="cls-1" d="M612.77,341.5c-22.51-23.12-22.76-45.14-43.27-66.2l-3.72,3.62c20.51,21.07,20.75,43.09,43.26,66.21"/>
        <polygon class="cls-1" points="563.58 247.5 559.67 266.87 565.85 313.14 568.45 292.62 563.58 247.5"/>
        <polygon class="cls-1" points="531.04 275 551.94 274.12 596.88 283.14 576.92 284.69 531.04 275"/>
        <polygon class="cls-1" points="556.05 284.55 558.94 287.66 572.49 274.95 569.6 271.84 556.05 284.55"/>
        <polygon class="cls-1" points="559.04 287.55 561.72 290.85 575.98 278.96 573.31 275.66 559.04 287.55"/>
        <polygon class="cls-1" points="569.52 271.98 566.84 268.67 552.57 280.56 555.25 283.87 569.52 271.98"/>
      </g>
      <g>
        <path class="cls-1" d="M613.25,486.58c-24.65,17.36-45.47,13.45-72.53,32.5l-2.99-4.24c27.06-19.05,47.87-15.14,72.53-32.5"/>
        <path class="cls-1" d="M600.93,469.07c-26.23,18.47-30.44,40.01-54.34,56.83l-2.99-4.24c23.9-16.83,28.11-38.37,54.34-56.84"/>
        <path class="cls-1" d="M482.01,579c24.65-17.36,27.99-38.28,55.04-57.34l-2.99-4.24c-27.06,19.05-30.39,39.97-55.05,57.33"/>
        <path class="cls-1" d="M469.68,561.5c26.23-18.47,47.93-15.18,71.82-32.01l-2.99-4.24c-23.9,16.83-45.6,13.53-71.83,32"/>
        <polygon class="cls-1" points="569.77 528.11 551.31 521.15 504.83 519.82 524.62 525.67 569.77 528.11"/>
        <polygon class="cls-1" points="547.73 491.65 545.38 512.38 529.56 555.19 531.12 535.28 547.73 491.65"/>
        <polygon class="cls-1" points="534.48 514.75 530.97 517.1 541.38 532.48 544.89 530.13 534.48 514.75"/>
        <polygon class="cls-1" points="531.07 517.22 527.4 519.33 536.89 535.28 540.56 533.18 531.07 517.22"/>
        <polygon class="cls-1" points="544.77 530.03 548.43 527.92 538.94 511.97 535.27 514.07 544.77 530.03"/>
      </g>
      <g>
        <path class="cls-1" d="M482,579.01c-24.65,17.36-45.47,13.45-72.53,32.5l-2.99-4.24c27.06-19.05,47.87-15.14,72.53-32.5"/>
        <path class="cls-1" d="M469.67,561.5c-26.23,18.47-30.44,40.01-54.34,56.83l-2.99-4.24c23.9-16.83,28.11-38.37,54.34-56.84"/>
        <path class="cls-1" d="M350.75,671.43c24.65-17.36,27.99-38.28,55.04-57.34l-2.99-4.24c-27.06,19.05-30.39,39.97-55.05,57.33"/>
        <path class="cls-1" d="M338.43,653.92c26.23-18.47,47.93-15.18,71.82-32.01l-2.99-4.24c-23.9,16.83-45.6,13.53-71.83,32"/>
        <polygon class="cls-1" points="438.51 620.54 420.05 613.58 373.58 612.25 393.36 618.1 438.51 620.54"/>
        <polygon class="cls-1" points="416.48 584.08 414.12 604.8 398.3 647.62 399.86 627.71 416.48 584.08"/>
        <polygon class="cls-1" points="403.22 607.18 399.71 609.52 410.13 624.91 413.64 622.56 403.22 607.18"/>
        <polygon class="cls-1" points="399.81 609.65 396.15 611.75 405.64 627.7 409.31 625.6 399.81 609.65"/>
        <polygon class="cls-1" points="413.51 622.46 417.18 620.35 407.68 604.39 404.02 606.5 413.51 622.46"/>
      </g>
      <g>
        <path class="cls-1" d="M350.74,671.43c-12.33,8.68-23.69,12.04-35.36,15.61-2.92.89-5.85,1.8-8.83,2.81l-1.12.38c-.23.05-.44.07-.67.11-.44.1-.9.23-1.34.42-.89.39-1.75.99-2.49,1.82-1.48,1.63-2.44,4.19-2.03,6.96l.09.52c.03.17.06.35.13.59.12.45.25.9.37,1.35.25.9.53,1.82.82,2.74.58,1.85,1.23,3.74,1.96,5.67l-4.85,1.83c-.73-1.94-1.38-3.82-1.96-5.67-.29-.92-.56-1.84-.82-2.74-.25-.9-.5-1.78-.71-2.81-.78-3.99.3-7.82,2.23-10.48.96-1.35,2.13-2.43,3.38-3.22.62-.4,1.28-.72,1.92-.99.7-.24,1.4-.49,2.1-.73,2.97-1.01,5.91-1.91,8.83-2.81,11.67-3.57,23.04-6.94,35.36-15.62"/>
        <path class="cls-1" d="M338.42,653.93c-13.11,9.23-20.72,19.24-28.04,29.03-.92,1.22-1.83,2.44-2.74,3.66l-1.38,1.82-.7.91-.35.45c-.11.15-.11.23-.16.34-.71,1.63-.71,3.23-.39,4.5.33,1.28.98,2.18,1.62,2.81.04.04.08.08.11.12,0-.01.08.15.12.22l.14.28c.19.37.38.75.57,1.13.37.76.74,1.53,1.1,2.32.71,1.58,1.4,3.22,2.04,4.93l-4.85,1.83c-.64-1.71-1.33-3.35-2.04-4.93-.36-.79-.72-1.56-1.1-2.32-.19-.38-.38-.76-.57-1.13l-.27-.53-.18-.32c-1-1.72-1.61-3.78-1.6-6.07,0-2.27.67-4.75,2.18-6.99,1.83-2.44,3.64-4.85,5.46-7.28,7.32-9.8,14.93-19.8,28.04-29.03"/>
        <path class="cls-1" d="M345.61,782.26c-10.64-28.21-30.07-36.67-41.75-67.63l-4.85,1.83c11.68,30.96,31.1,39.42,41.74,67.63"/>
        <path class="cls-1" d="M325.58,789.81c-11.32-30.01-2.71-50.2-13.03-77.54l-4.85,1.83c10.32,27.35,1.7,47.54,13.02,77.55"/>
        <path class="cls-1" d="M321.71,698.51c-2.41-1.97-5.29-2.99-8.06-2.96-.67,0-1.38.08-2.04.22-.33.07-.66.15-.99.25l-.49.16c-.14.11-.24.32-.37.47l-2.84,4.03-12.91,44.67,10.61-17.69,6.83-21.55,3.41-10.78.21-.67.11-.34c0-.08.06-.05.1-.05h.13c.34.05.65.12.97.2.34.09.67.2.98.34.33.13.66.29.97.48,1.27.73,2.44,1.82,3.38,3.22Z"/>
        <path class="cls-1" d="M281.53,685.15c.69,5.35,2.84,9.92,5.75,13.18,1.46,1.63,3.06,2.94,4.77,3.9.85.53,1.64.75,2.46,1.08l2.43.93,37.5,26.03-18.89-6.49-19.05-13.5-4.76-3.38-2.38-1.69c-.4-.3-.78-.52-1.2-.89-.46-.49-.92-1.01-1.36-1.55-3.51-4.37-5.69-10.69-5.27-17.62Z"/>
        <polygon class="cls-1" points="296.52 715.38 297.92 719.37 315.42 713.14 314.02 709.15 296.52 715.38"/>
        <polygon class="cls-1" points="298.06 719.31 299.18 723.38 317 718.18 315.88 714.1 298.06 719.31"/>
        <polygon class="cls-1" points="313.89 709.24 312.76 705.17 294.94 710.37 296.06 714.45 313.89 709.24"/>
      </g>
      <g>
        <path class="cls-1" d="M345.61,782.27c10.64,28.21,1.65,47.39,13.33,78.35l-4.85,1.83c-11.68-30.96-2.69-50.14-13.33-78.35"/>
        <path class="cls-1" d="M325.58,789.82c11.32,30.01,31.12,39.48,41.44,66.83l-4.85,1.83c-10.32-27.35-30.12-36.81-41.44-66.82"/>
        <path class="cls-1" d="M402.27,932.45c-10.64-28.21-30.07-36.67-41.75-67.63l-4.85,1.83c11.68,30.96,31.1,39.42,41.74,67.63"/>
        <path class="cls-1" d="M382.24,940.01c-11.32-30.01-2.71-50.2-13.03-77.54l-4.85,1.83c10.32,27.35,1.7,47.54,13.02,77.55"/>
        <polygon class="cls-1" points="374.95 834.76 363.59 850.89 350.68 895.55 361.29 877.86 374.95 834.76"/>
        <polygon class="cls-1" points="334.13 846.97 353.61 854.44 391.11 880.46 372.23 873.97 334.13 846.97"/>
        <polygon class="cls-1" points="353.18 865.58 354.58 869.57 372.08 863.34 370.69 859.35 353.18 865.58"/>
        <polygon class="cls-1" points="354.72 869.51 355.85 873.58 373.66 868.38 372.55 864.3 354.72 869.51"/>
        <polygon class="cls-1" points="370.55 859.44 369.43 855.37 351.61 860.57 352.73 864.65 370.55 859.44"/>
      </g>
      <g>
        <path class="cls-1" d="M303.47,1075.34c-17.04,0-25.38-15.19-44.08-15.19v-5.19c18.7,0,27.05,15.18,44.08,15.18"/>
        <path class="cls-1" d="M303.47,1053.93c-18.12,0-27.08,15.18-43.6,15.18v-5.19c16.51,0,25.47-15.19,43.6-15.19"/>
        <path class="cls-1" d="M212.77,1075.34c17.04,0,25.39-15.19,44.08-15.19v-5.19c-18.7,0-27.05,15.18-44.08,15.18"/>
        <path class="cls-1" d="M212.77,1053.93c18.12,0,27.08,15.18,43.6,15.18v-5.19c-16.51,0-25.47-15.19-43.6-15.19"/>
        <polygon class="cls-1" points="269.87 1084.26 263.61 1067.94 242.57 1040.09 249.8 1056.27 269.87 1084.26"/>
        <polygon class="cls-1" points="271.55 1041.76 263.72 1057.35 242.48 1083.25 249.68 1067.87 271.55 1041.76"/>
        <polygon class="cls-1" points="257.91 1053.02 255.53 1052.92 255.33 1071.49 257.72 1071.59 257.91 1053.02"/>
        <polygon class="cls-1" points="255.53 1053.07 253.15 1052.68 252.35 1071.19 254.73 1071.59 255.53 1053.07"/>
        <polygon class="cls-1" points="257.69 1071.44 260.07 1071.82 260.88 1053.31 258.5 1052.92 257.69 1071.44"/>
      </g>
      <g>
        <path class="cls-1" d="M383.66,113.78l-1.48-1.53-1.45-1.54-1.42-1.56-1.38-1.57-1.35-1.59-1.32-1.6-1.29-1.61-1.26-1.61c-.41-.54-.82-1.08-1.23-1.62-.4-.54-.8-1.09-1.19-1.63-.39-.55-.78-1.09-1.16-1.63-.38-.55-.76-1.09-1.13-1.64-.37-.55-.74-1.09-1.1-1.64-.36-.55-.72-1.09-1.07-1.64-.35-.55-.7-1.09-1.05-1.64-.34-.55-.68-1.09-1.02-1.64-.33-.55-.66-1.09-.99-1.63-.32-.55-.64-1.09-.96-1.63-.31-.54-.62-1.08-.93-1.62-.3-.54-.6-1.08-.9-1.62-.29-.54-.59-1.07-.88-1.61-.28-.54-.57-1.07-.85-1.6-.55-1.07-1.09-2.12-1.62-3.16-.51-1.05-1.02-2.09-1.52-3.11-.48-1.03-.95-2.04-1.41-3.04-.45-1.01-.88-2-1.32-2.97-.41-.98-.82-1.94-1.22-2.88-.38-.95-.76-1.88-1.12-2.79-.35-.91-.7-1.81-1.03-2.68-.32-.88-.64-1.73-.95-2.57-.29-.84-.58-1.65-.86-2.44-.27-.79-.53-1.56-.78-2.31-.24-.75-.47-1.47-.69-2.16-.21-.7-.42-1.36-.62-2-.19-.64-.37-1.25-.54-1.84-.16-.58-.32-1.14-.47-1.66-.14-.52-.27-1.01-.4-1.47-.23-.92-.43-1.7-.59-2.34-.15-.64-.26-1.13-.34-1.46-.07-.33-.11-.51-.11-.51.15.49.3.97.45,1.46.16.49.32.98.48,1.47.17.49.34.99.51,1.48.18.49.36.99.54,1.49.19.5.38,1,.57,1.5.2.5.4,1,.6,1.5.21.5.42,1,.63,1.51.22.5.43,1.01.65,1.51l.68,1.52.7,1.52.72,1.52.74,1.52c.51,1.01,1.03,2.02,1.55,3.03.54,1.01,1.08,2.01,1.62,3.02l1.68,3,1.73,2.98c.59.98,1.18,1.96,1.77,2.94.6.97,1.2,1.94,1.8,2.9.61.96,1.22,1.91,1.82,2.85.61.94,1.23,1.87,1.83,2.79.62.92,1.23,1.83,1.83,2.73.61.89,1.22,1.78,1.82,2.65.61.87,1.21,1.73,1.8,2.57.6.84,1.19,1.67,1.78,2.49,1.19,1.62,2.33,3.18,3.43,4.67,1.12,1.48,2.19,2.89,3.2,4.23,1.03,1.32,1.99,2.57,2.89,3.72.91,1.14,1.75,2.2,2.5,3.15.76.94,1.45,1.79,2.04,2.52,1.19,1.45,2,2.45,2.36,2.89"/>
        <path class="cls-1" d="M265.92,118.88c.19-.24.39-.5.59-.76.2-.27.4-.54.61-.82.21-.28.42-.58.63-.88.21-.3.43-.61.65-.93.43-.64.88-1.32,1.35-2.02.45-.71.92-1.45,1.41-2.21.47-.77.96-1.56,1.46-2.38.49-.82.99-1.67,1.51-2.54.5-.87,1.02-1.76,1.55-2.67.52-.91,1.04-1.85,1.58-2.79,1.04-1.9,2.12-3.87,3.22-5.86,1.07-2.01,2.16-4.06,3.25-6.12,1.07-2.07,2.15-4.16,3.22-6.23,1.06-2.08,2.11-4.15,3.14-6.19,1.02-2.05,2.02-4.06,2.99-6.01.96-1.96,1.89-3.86,2.79-5.68,1.76-3.65,3.36-6.98,4.72-9.8,2.66-5.65,4.35-9.24,4.35-9.24l-5.3-.68c-.38.89-.76,1.79-1.14,2.71-.4.91-.8,1.83-1.2,2.75-.42.92-.84,1.85-1.26,2.79-.43.94-.87,1.88-1.31,2.83-.45.94-.9,1.89-1.35,2.85-.46.95-.93,1.91-1.39,2.86-.95,1.91-1.91,3.83-2.87,5.74-.99,1.91-1.97,3.81-2.95,5.71-1,1.89-2,3.76-2.99,5.61-1,1.84-2,3.66-2.97,5.45-.99,1.78-1.96,3.53-2.91,5.23-.96,1.69-1.9,3.34-2.8,4.94-.92,1.59-1.8,3.12-2.65,4.58-1.72,2.91-3.28,5.56-4.63,7.85-1.38,2.27-2.55,4.19-3.44,5.66-.46.73-.84,1.35-1.15,1.85-.32.49-.56.87-.71,1.11"/>
        <path class="cls-1" d="M402.8,95.15l-1.68-1.81-1.67-1.83c-1.1-1.23-2.2-2.47-3.31-3.71-1.09-1.25-2.17-2.5-3.25-3.75-1.07-1.26-2.14-2.51-3.19-3.75-2.1-2.5-4.17-4.96-6.18-7.35-2.02-2.38-3.99-4.7-5.86-6.91-.95-1.09-1.89-2.16-2.8-3.2-.46-.51-.91-1.02-1.36-1.52-.45-.49-.9-.98-1.34-1.46-.44-.47-.88-.94-1.31-1.4-.44-.45-.86-.89-1.28-1.33-.43-.43-.84-.85-1.25-1.26-.42-.4-.82-.79-1.22-1.18-.41-.37-.81-.74-1.19-1.1-.4-.35-.79-.68-1.16-1.01-.19-.16-.38-.32-.57-.47-.19-.15-.38-.3-.56-.45-.19-.14-.37-.28-.55-.42-.18-.13-.37-.27-.55-.4-.18-.13-.36-.25-.54-.37-.18-.12-.36-.23-.53-.35-.18-.11-.35-.22-.52-.32-.17-.1-.34-.2-.51-.29-.17-.09-.34-.18-.5-.27-.17-.08-.33-.16-.49-.24-.16-.07-.33-.14-.48-.21-.16-.06-.32-.12-.48-.18l-3.69.99c.32.3.67.63,1.04.98.36.36.75.74,1.16,1.14.41.41.83.84,1.28,1.29.44.46.91.93,1.39,1.43.95,1.01,1.97,2.09,3.05,3.23,1.07,1.15,2.19,2.37,3.35,3.63,1.15,1.27,2.35,2.58,3.57,3.93,1.21,1.35,2.45,2.73,3.7,4.12,2.48,2.8,5,5.66,7.45,8.43,4.86,5.58,9.42,10.84,12.78,14.7,3.33,3.88,5.46,6.36,5.46,6.36"/>
        <path class="cls-1" d="M245.3,102.06s.81-1.17,2.25-3.26c.73-1.03,1.62-2.29,2.64-3.75,1.04-1.44,2.21-3.08,3.5-4.87,1.31-1.78,2.73-3.71,4.25-5.77,1.54-2.04,3.18-4.2,4.88-6.46.86-1.12,1.75-2.26,2.64-3.42.91-1.15,1.83-2.32,2.76-3.51.94-1.18,1.9-2.37,2.86-3.57.97-1.19,1.96-2.4,2.95-3.61,1-1.2,2.01-2.41,3.02-3.62,1.03-1.2,2.05-2.4,3.08-3.6,1.04-1.19,2.09-2.37,3.13-3.55,1.06-1.17,2.11-2.33,3.16-3.48,1.07-1.14,2.12-2.26,3.17-3.38.53-.55,1.06-1.1,1.59-1.64.53-.54,1.06-1.08,1.59-1.61.53-.53,1.06-1.05,1.58-1.57.53-.51,1.06-1.02,1.58-1.53.53-.5,1.05-.99,1.57-1.48.53-.48,1.05-.96,1.57-1.44.52-.47,1.04-.93,1.56-1.38.52-.45,1.03-.89,1.54-1.33.52-.43,1.03-.85,1.53-1.27.51-.41,1.02-.81,1.51-1.21.51-.39,1.01-.77,1.5-1.14.5-.36.99-.72,1.48-1.07.49-.34.98-.67,1.46-1,.24-.16.48-.32.72-.47.24-.15.48-.3.72-.45.24-.15.47-.29.71-.43.24-.14.47-.28.7-.41.23-.13.47-.26.7-.39.23-.12.46-.25.69-.37.23-.12.46-.23.68-.35.23-.11.45-.22.68-.33.22-.1.45-.2.67-.3.22-.09.44-.19.66-.28.22-.09.44-.17.65-.26.22-.08.43-.16.64-.23.21-.07.43-.14.64-.21.21-.06.42-.12.63-.19.21-.05.42-.11.62-.16.21-.05.41-.09.61-.14l.3-.06h.08s.02-.02.02-.02h.02s.04,0,.04,0h.15c.2.03.4.04.6.06l8.83,6.44-.57-.22-.57-.2-.57-.19-.58-.17-.58-.15-.58-.13-.58-.11-.59-.1-.59-.08-.59-.06-.6-.05-.6-.03h-.6s-.6-.01-.6-.01l-.61.02-.61.03-.6.19-.61.21-.61.22-.61.24-.61.25-.62.27-.62.28-.62.3-.62.31-.62.33c-.41.23-.83.46-1.25.7-.42.25-.84.5-1.26.76-.42.27-.84.54-1.27.81-.42.28-.84.57-1.27.86-.42.3-.85.61-1.28.91-.42.32-.85.64-1.28.96-.43.33-.86.67-1.29,1.01-.43.35-.86.7-1.3,1.06-.43.36-.86.73-1.3,1.1-.43.38-.87.76-1.3,1.15-.43.39-.87.79-1.31,1.19-.43.41-.87.82-1.31,1.23-.43.42-.87.84-1.31,1.27-.44.43-.88.87-1.32,1.3-.44.44-.88.89-1.32,1.34-.44.45-.88.91-1.32,1.37-.44.47-.88.93-1.32,1.4-.87.96-1.76,1.92-2.65,2.9-.88.99-1.76,2-2.66,3.01-.88,1.03-1.76,2.06-2.65,3.11-.88,1.06-1.76,2.12-2.65,3.19-.88,1.08-1.76,2.17-2.65,3.27-.88,1.1-1.75,2.21-2.64,3.33-.87,1.12-1.75,2.25-2.63,3.37-1.73,2.27-3.47,4.56-5.2,6.84-1.71,2.3-3.42,4.6-5.12,6.88-1.69,2.29-3.36,4.57-5.02,6.82-3.32,4.5-6.55,8.88-9.63,13.05"/>
        <polygon class="cls-1" points="358.38 8.44 348.48 26.6 341.01 78.28 349.89 58.22 358.38 8.44"/>
        <polygon class="cls-1" points="312.58 18.47 318.95 20.38 320.55 20.86 320.65 20.89 320.75 20.94 320.95 21.05 321.35 21.26 322.16 21.68 325.37 23.35 338.25 30.07 387.21 65.32 361.1 54.43 336.8 35.54 324.65 26.09 321.61 23.73 320.85 23.14 320.76 23.06 320.74 23.05 320.71 23.03 320.67 23.01 320.48 22.9 320.1 22.69 318.6 21.85 312.58 18.47"/>
        <polygon class="cls-1" points="339.38 43.16 341.47 47.96 359.41 41.89 357.33 37.09 339.38 43.16"/>
        <polygon class="cls-1" points="341.61 47.89 343.41 52.78 361.85 47.93 360.05 43.05 341.61 47.89"/>
        <polygon class="cls-1" points="357.2 37.18 355.41 32.3 336.97 37.14 338.76 42.03 357.2 37.18"/>
        <polygon class="cls-1" points="340.78 18.6 328.26 20.8 322 21.9 321.22 22.03 320.83 22.1 320.73 22.12 320.71 22.12 320.69 22.13 320.68 22.13 320.63 22.15 320.44 22.23 318.89 22.87 315.79 24.14 272.57 59.76 293.88 49.34 317.23 31.65 320.15 29.44 320.88 28.89 320.97 28.82 320.99 28.8 321.01 28.79 321.06 28.76 321.24 28.67 321.61 28.48 323.09 27.72 328.98 24.68 340.78 18.6"/>
        <polygon class="cls-1" points="296.22 .52 305.53 20.97 314.71 71.9 305.14 52.82 296.22 .52"/>
        <polygon class="cls-1" points="296.87 31.73 294.96 36.63 312.97 42.18 314.89 37.28 296.87 31.73"/>
        <polygon class="cls-1" points="295.12 36.65 292.93 41.45 310.42 48.24 312.61 43.45 295.12 36.65"/>
        <polygon class="cls-1" points="314.72 37.29 316.91 32.49 299.41 25.7 297.22 30.49 314.72 37.29"/>
      </g>
      <g>
        <path class="cls-1" d="M597.87,464.73l1.82-1.28,1.83-1.24,1.84-1.21c.62-.39,1.23-.78,1.85-1.17.62-.38,1.24-.76,1.86-1.14.62-.37,1.24-.74,1.86-1.11.62-.36,1.25-.72,1.87-1.07.62-.35,1.25-.69,1.87-1.04.63-.34,1.25-.67,1.87-1.01.63-.33,1.25-.65,1.87-.97.63-.32,1.25-.63,1.87-.94.62-.31,1.25-.61,1.87-.91.62-.3,1.24-.59,1.86-.88.62-.29,1.24-.57,1.86-.85.62-.28,1.24-.55,1.85-.82.62-.27,1.23-.53,1.85-.79.62-.26,1.23-.51,1.84-.77.61-.25,1.22-.49,1.83-.74.61-.24,1.21-.48,1.82-.71.6-.23,1.21-.46,1.8-.68,1.2-.43,2.39-.86,3.57-1.29,1.18-.4,2.35-.8,3.5-1.19,1.16-.37,2.3-.73,3.43-1.09,1.13-.34,2.25-.67,3.35-1,1.1-.31,2.19-.61,3.25-.91,1.07-.28,2.12-.55,3.15-.82,1.03-.25,2.04-.5,3.03-.74.99-.23,1.96-.45,2.91-.67.95-.2,1.88-.4,2.78-.59.9-.18,1.78-.35,2.63-.52.85-.16,1.68-.31,2.48-.46.8-.14,1.57-.27,2.32-.4.74-.12,1.46-.23,2.14-.34.68-.1,1.34-.2,1.96-.29.62-.08,1.21-.16,1.77-.24.56-.07,1.08-.13,1.56-.19.97-.11,1.8-.2,2.48-.27.67-.06,1.19-.11,1.55-.14.35-.03.53-.04.53-.04-.52.08-1.04.16-1.57.24-.52.09-1.05.18-1.58.28-.53.1-1.06.2-1.6.31-.53.11-1.07.22-1.61.34-.54.12-1.08.24-1.62.37-.54.13-1.09.26-1.64.39-.55.14-1.09.28-1.65.42-.55.15-1.1.3-1.65.45-.55.16-1.11.31-1.66.47l-1.67.49-1.67.52-1.68.54c-1.12.38-2.24.76-3.36,1.13-1.12.4-2.24.8-3.36,1.21l-3.35,1.27-3.34,1.32c-1.11.46-2.21.91-3.31,1.37-1.09.47-2.19.94-3.27,1.41-1.08.48-2.16.96-3.22,1.43-1.06.49-2.12.97-3.17,1.45-1.04.49-2.08.98-3.1,1.46-1.02.49-2.03.98-3.03,1.46-.99.49-1.97.98-2.94,1.46-.96.49-1.91.97-2.85,1.44-1.86.97-3.65,1.9-5.37,2.8-1.71.92-3.34,1.8-4.87,2.63-1.53.85-2.97,1.65-4.3,2.39-1.33.76-2.55,1.45-3.65,2.08-1.1.64-2.08,1.21-2.92,1.7-1.69.99-2.85,1.67-3.36,1.98"/>
        <path class="cls-1" d="M609.05,345.12c.23.23.47.46.72.71.25.24.51.48.78.74.27.25.55.5.83.76.29.26.58.52.89.79.61.53,1.26,1.08,1.93,1.65.68.56,1.38,1.14,2.11,1.74.74.59,1.5,1.19,2.29,1.82.79.61,1.61,1.24,2.44,1.88.84.63,1.7,1.28,2.57,1.94.88.65,1.78,1.31,2.69,1.99,1.84,1.32,3.74,2.69,5.67,4.08,1.95,1.36,3.93,2.75,5.92,4.15,2.01,1.38,4.03,2.76,6.04,4.14,2.02,1.36,4.03,2.71,6.01,4.05,1.99,1.32,3.94,2.61,5.84,3.87,1.9,1.25,3.75,2.46,5.52,3.62,3.55,2.29,6.79,4.38,9.53,6.15,5.5,3.49,8.99,5.7,8.99,5.7l1.2-5.28c-.87-.51-1.75-1.02-2.65-1.54-.89-.53-1.78-1.06-2.69-1.6-.9-.55-1.81-1.11-2.73-1.67-.91-.57-1.83-1.14-2.75-1.72-.92-.59-1.84-1.18-2.77-1.77-.92-.6-1.85-1.2-2.79-1.81-1.85-1.23-3.71-2.47-5.58-3.71-1.85-1.27-3.7-2.53-5.54-3.79-1.83-1.28-3.64-2.55-5.43-3.81-1.78-1.28-3.54-2.54-5.27-3.77-1.72-1.25-3.4-2.48-5.05-3.68-1.63-1.21-3.22-2.39-4.76-3.53-1.53-1.15-3-2.26-4.42-3.32-2.8-2.15-5.35-4.1-7.55-5.79-2.18-1.72-4.02-3.17-5.44-4.28-.7-.56-1.3-1.04-1.77-1.43-.47-.39-.83-.69-1.06-.88"/>
        <path class="cls-1" d="M613.25,486.58c.71-.48,1.42-.96,2.14-1.44l2.16-1.43c1.45-.93,2.91-1.87,4.37-2.81,1.47-.92,2.93-1.84,4.4-2.75,1.47-.9,2.93-1.8,4.39-2.69,2.92-1.76,5.79-3.5,8.59-5.19,2.79-1.7,5.5-3.35,8.09-4.94,1.28-.81,2.54-1.6,3.76-2.37.61-.39,1.2-.78,1.79-1.16.58-.39,1.16-.77,1.73-1.14.56-.38,1.11-.75,1.66-1.12.54-.37,1.07-.74,1.58-1.1.51-.37,1.01-.73,1.5-1.08.48-.36.96-.72,1.42-1.07.45-.36.9-.71,1.33-1.05.42-.35.84-.7,1.24-1.03.2-.17.39-.34.58-.51.19-.17.37-.34.56-.5.18-.17.36-.33.53-.5.17-.17.34-.33.5-.49.16-.17.32-.33.48-.49.15-.16.3-.32.45-.48.14-.16.28-.32.42-.48.13-.16.26-.32.39-.47.12-.16.24-.31.36-.47.11-.16.22-.31.33-.46.1-.16.2-.31.3-.46.09-.15.18-.3.27-.45l-.33-3.85c-.36.28-.76.58-1.18.91-.43.32-.89.65-1.37,1.01-.49.35-1.01.72-1.55,1.11-.54.38-1.11.78-1.71,1.2-1.19.82-2.48,1.69-3.83,2.62-1.37.91-2.8,1.87-4.3,2.87-1.5.98-3.05,2-4.64,3.04-1.59,1.03-3.22,2.08-4.86,3.15-3.3,2.1-6.65,4.24-9.91,6.32-6.55,4.11-12.72,7.97-17.25,10.81-4.55,2.81-7.45,4.6-7.45,4.6"/>
        <path class="cls-1" d="M628.11,326.56s1.12.99,3.1,2.73c.98.88,2.18,1.96,3.56,3.2,1.37,1.25,2.92,2.67,4.62,4.23,1.69,1.57,3.52,3.29,5.47,5.11,1.93,1.85,3.98,3.81,6.11,5.85,1.06,1.03,2.14,2.09,3.23,3.16,1.09,1.08,2.19,2.18,3.31,3.29,1.11,1.12,2.23,2.25,3.37,3.4,1.12,1.15,2.26,2.32,3.4,3.49,1.13,1.18,2.26,2.37,3.4,3.57,1.12,1.21,2.25,2.42,3.37,3.63,1.11,1.22,2.22,2.45,3.32,3.67,1.09,1.23,2.17,2.46,3.25,3.69,1.06,1.24,2.1,2.47,3.14,3.69.51.62,1.02,1.23,1.52,1.84.5.61,1,1.23,1.49,1.83.49.61.97,1.22,1.45,1.83.47.61.94,1.22,1.41,1.82.46.61.91,1.21,1.36,1.8.44.6.88,1.2,1.31,1.79.42.6.85,1.19,1.26,1.77.41.59.81,1.17,1.21,1.75.39.58.77,1.16,1.15,1.73.37.58.73,1.14,1.09,1.7.34.57.68,1.13,1.02,1.68.32.56.64,1.11.95,1.65.3.55.59,1.09.88,1.62.27.54.54,1.07.8,1.59.13.26.25.52.37.78.12.26.24.52.35.77.11.26.22.51.33.76.1.25.21.5.31.75.1.25.19.5.29.74.09.25.18.49.27.73.08.24.17.48.25.72.08.24.15.48.22.71.07.23.13.47.2.7.06.23.12.46.18.69.05.23.1.45.15.68.04.22.09.44.13.66.04.22.07.44.11.65.03.21.05.43.08.64l.03.31v.08s0,.02,0,.02v.02s-.01.04-.01.04l-.04.15c-.06.2-.11.4-.16.59l-8.15,7.99.33-.54.31-.54.29-.55.28-.56.26-.56.24-.57.22-.57.21-.58.19-.58.17-.59.16-.59.14-.6.12-.6.11-.61.09-.61.08-.62-.14-.64-.15-.64-.17-.65-.18-.65-.2-.66-.22-.66-.23-.67-.25-.67-.26-.67-.28-.68c-.2-.45-.39-.91-.59-1.37-.21-.46-.43-.92-.65-1.38-.23-.46-.47-.93-.7-1.4-.25-.47-.5-.94-.76-1.41-.27-.47-.54-.94-.81-1.42-.28-.47-.57-.95-.86-1.44-.3-.48-.6-.96-.91-1.45-.32-.48-.63-.97-.95-1.46-.33-.49-.66-.98-1-1.47-.34-.49-.69-.98-1.04-1.48-.36-.49-.72-.99-1.09-1.49-.37-.5-.75-1-1.13-1.5-.39-.5-.77-1-1.16-1.51-.4-.5-.8-1.01-1.2-1.52-.41-.5-.82-1.01-1.24-1.53-.42-.51-.85-1.02-1.27-1.53-.43-.51-.87-1.02-1.31-1.54-.89-1.02-1.79-2.05-2.7-3.09-.93-1.03-1.87-2.06-2.81-3.11-.96-1.03-1.93-2.08-2.91-3.13-.99-1.04-1.99-2.08-3-3.13-1.02-1.04-2.04-2.09-3.08-3.14-1.04-1.04-2.09-2.09-3.14-3.14-1.06-1.04-2.12-2.09-3.19-3.13-2.15-2.07-4.31-4.15-6.47-6.23-2.18-2.06-4.36-4.11-6.52-6.15-2.17-2.03-4.33-4.05-6.47-6.04-4.26-3.99-8.42-7.88-12.38-11.58"/>
        <polygon class="cls-1" points="709.34 453.96 692.73 441.48 641.7 426.78 660.41 438.5 709.34 453.96"/>
        <polygon class="cls-1" points="706.87 406.45 704.32 412.64 703.68 414.19 703.66 414.24 703.65 414.26 703.65 414.27 703.65 414.28 703.64 414.29 703.57 414.38 703.43 414.57 703.14 414.94 702.57 415.69 700.27 418.7 691.1 430.71 646.36 475.04 662.2 450.31 685.82 428.49 697.63 417.59 700.59 414.86 701.33 414.18 701.42 414.1 701.44 414.08 701.46 414.05 701.49 414.01 701.61 413.83 701.86 413.48 702.86 412.07 706.87 406.45"/>
        <polygon class="cls-1" points="677.62 430.03 672.36 431.46 675.23 450.35 680.48 448.93 677.62 430.03"/>
        <polygon class="cls-1" points="672.41 431.61 667.13 432.74 668.65 451.96 673.93 450.83 672.41 431.61"/>
        <polygon class="cls-1" points="680.4 448.78 685.69 447.66 684.17 428.44 678.88 429.56 680.4 448.78"/>
        <path class="cls-1" d="M702.26,434.85l.07-12.89.04-6.45v-.81s0-.4,0-.4v-.1s0-.03,0-.03h0s0,0,0-.01h0s-.02-.06-.02-.06l-.06-.21-.5-1.66-1-3.32-32.18-48.8,8.59,23.06,15.81,26.14,1.98,3.27.49.82.06.1.02.03v.02s.02.05.02.05l.06.2.12.4.5,1.59,2,6.35,4,12.71Z"/>
        <polygon class="cls-1" points="726.68 392.36 704.99 398.94 652.27 401.15 672.6 394.11 726.68 392.36"/>
        <polygon class="cls-1" points="694.85 388.67 690.05 386.04 682.7 403.53 687.5 406.16 694.85 388.67"/>
        <polygon class="cls-1" points="690.01 386.2 685.33 383.31 676.76 400.1 681.44 402.99 690.01 386.2"/>
        <polygon class="cls-1" points="687.51 405.99 692.18 408.87 700.75 392.08 696.07 389.19 687.51 405.99"/>
      </g>
      <g>
        <path class="cls-1" d="M303.47,1048.62c.92,0,1.83,0,2.75,0,.91.01,1.82.03,2.73.04.91.02,1.81.05,2.72.07.9.04,1.8.07,2.7.11.9.05,1.79.09,2.68.14.89.06,1.78.11,2.66.17.88.07,1.76.13,2.64.2.88.08,1.75.15,2.62.23.87.08,1.74.17,2.6.25.86.09,1.72.19,2.58.28.85.1,1.71.2,2.55.3.85.11,1.69.22,2.53.33.84.12,1.67.23,2.51.35.83.12,1.66.25,2.48.37.82.13,1.64.26,2.45.39.81.14,1.62.28,2.43.41.8.14,1.6.29,2.4.43.79.15,1.58.3,2.37.45,1.56.32,3.11.63,4.64.94,1.52.34,3.03.67,4.51,1,1.48.35,2.94.7,4.38,1.04,1.43.37,2.84.73,4.23,1.08,1.38.38,2.74.75,4.08,1.11,1.33.38,2.64.76,3.92,1.13,1.28.39,2.53.77,3.76,1.14,1.22.39,2.42.77,3.59,1.14,1.16.39,2.3.76,3.41,1.13,1.1.38,2.18.75,3.22,1.11,1.04.37,2.05.74,3.03,1.09.97.36,1.92.71,2.83,1.05.9.35,1.78.68,2.62,1.01.83.33,1.64.65,2.4.96.76.31,1.49.61,2.18.89,1.37.58,2.6,1.11,3.67,1.56,1.06.47,1.96.88,2.69,1.21,1.44.68,2.22,1.05,2.22,1.05-.58-.23-1.17-.47-1.75-.7-.59-.23-1.19-.46-1.79-.69-.61-.22-1.22-.44-1.83-.67-.62-.22-1.24-.43-1.86-.65-.63-.21-1.26-.42-1.9-.64-.64-.21-1.28-.41-1.93-.62-.65-.2-1.3-.4-1.96-.6-.66-.2-1.32-.39-1.98-.59-.67-.19-1.34-.38-2.01-.57-.68-.18-1.35-.37-2.03-.56-1.37-.35-2.74-.71-4.13-1.07-1.39-.33-2.79-.67-4.19-1.01-1.41-.32-2.83-.63-4.25-.95l-4.28-.89c-1.44-.28-2.87-.56-4.3-.84-1.44-.26-2.88-.52-4.31-.79-1.44-.25-2.87-.49-4.3-.73-1.43-.23-2.85-.46-4.27-.68-1.42-.21-2.83-.43-4.23-.64-1.4-.2-2.79-.4-4.17-.59-1.38-.18-2.74-.37-4.09-.55-1.35-.17-2.69-.34-4-.5-1.32-.16-2.62-.31-3.89-.46-2.56-.28-5.03-.55-7.4-.8-2.37-.23-4.64-.45-6.78-.66-2.14-.19-4.16-.36-6.03-.52-1.87-.15-3.6-.28-5.16-.4-1.56-.11-2.95-.21-4.16-.3-2.41-.16-4.06-.27-4.79-.32"/>
        <path class="cls-1" d="M377.38,941.85c.15.37.3.76.46,1.15.16.39.33.8.51,1.22.18.41.36.84.55,1.28.19.43.39.88.59,1.34.42.9.86,1.85,1.31,2.83.47.97.96,1.99,1.47,3.03.52,1.04,1.06,2.11,1.61,3.21.56,1.09,1.14,2.22,1.73,3.37.6,1.14,1.22,2.31,1.85,3.5.64,1.19,1.29,2.39,1.94,3.62,1.34,2.44,2.72,4.95,4.13,7.51,1.43,2.54,2.89,5.12,4.36,7.72,1.49,2.58,2.98,5.19,4.47,7.77,1.5,2.57,3,5.14,4.47,7.66,2.98,5.01,5.86,9.86,8.51,14.31,2.68,4.42,5.12,8.45,7.18,11.86,4.17,6.78,6.82,11.08,6.82,11.08l2.96-5c-.68-1.02-1.36-2.06-2.05-3.11-.68-1.06-1.38-2.13-2.07-3.21-.69-1.09-1.39-2.19-2.09-3.29-.69-1.11-1.39-2.24-2.09-3.37-1.38-2.28-2.78-4.59-4.19-6.91-1.38-2.34-2.77-4.7-4.17-7.06-1.37-2.38-2.74-4.76-4.1-7.12-1.34-2.38-2.68-4.75-3.99-7.09-1.3-2.35-2.59-4.68-3.85-6.96-1.25-2.29-2.47-4.54-3.66-6.73-1.18-2.2-2.33-4.34-3.43-6.42-1.1-2.08-2.16-4.08-3.17-6-2-3.85-3.81-7.36-5.38-10.38-1.54-3.05-2.84-5.62-3.84-7.59-.49-.99-.91-1.84-1.24-2.51-.33-.68-.57-1.19-.73-1.53"/>
        <path class="cls-1" d="M303.47,1075.34c2.11.04,4.24.09,6.37.13,2.13.07,4.26.15,6.4.22,2.13.09,4.26.19,6.39.28,2.12.11,4.23.22,6.33.33,4.19.24,8.33.47,12.35.7,4.02.21,7.93.42,11.66.62,1.87.08,3.7.16,5.47.23,1.78.05,3.51.1,5.18.15.84.01,1.66.03,2.47.04.81,0,1.6,0,2.38,0,.78,0,1.54-.01,2.29-.02.75-.02,1.48-.04,2.19-.05.71-.03,1.41-.06,2.09-.09.68-.04,1.34-.09,1.98-.13.64-.06,1.26-.12,1.86-.17.3-.03.6-.07.89-.1.29-.04.58-.08.86-.11.28-.04.56-.08.83-.12.27-.05.54-.09.8-.14.26-.05.51-.1.76-.15.25-.05.49-.11.73-.16.24-.06.47-.12.7-.17.23-.06.45-.13.66-.19.21-.07.42-.13.63-.2.2-.07.4-.14.59-.21l2.4-3.33c-.57.02-1.18.04-1.83.06-.66.01-1.36.02-2.1.04-1.49,0-3.13,0-4.92.01-1.78-.02-3.7-.04-5.73-.06-2.02-.04-4.16-.08-6.37-.13-4.42-.13-9.15-.27-13.97-.41-4.82-.18-9.72-.36-14.49-.54-9.52-.42-18.49-.81-25.07-1.1-6.58-.32-10.78-.53-10.78-.53"/>
        <path class="cls-1" d="M402.27,932.46s.75,1.67,2.09,4.64c.66,1.49,1.46,3.31,2.38,5.4.91,2.1,1.94,4.48,3.06,7.09,1.11,2.62,2.31,5.47,3.59,8.51,1.25,3.05,2.58,6.28,3.96,9.65.68,1.69,1.37,3.42,2.07,5.17.69,1.76,1.39,3.55,2.11,5.35.7,1.81,1.41,3.65,2.12,5.51.7,1.86,1.41,3.74,2.12,5.62.69,1.89,1.39,3.8,2.09,5.7.68,1.91,1.37,3.83,2.05,5.75.66,1.93,1.33,3.85,1.99,5.77.64,1.92,1.27,3.84,1.91,5.75.61,1.91,1.21,3.81,1.8,5.69.57,1.89,1.13,3.76,1.68,5.61.27.93.53,1.85.79,2.76.25.92.5,1.82.75,2.72.24.9.48,1.8.71,2.69.23.89.45,1.77.67,2.64.21.87.42,1.74.63,2.6.19.86.39,1.71.58,2.54.18.84.35,1.67.53,2.49.16.82.32,1.63.48,2.43.14.8.28,1.59.42,2.36.12.78.24,1.54.36,2.29.1.75.21,1.49.31,2.22.08.73.16,1.44.24,2.14.03.35.07.7.1,1.04.03.34.05.68.08,1.02.02.34.04.67.06,1,.02.33.03.66.05.98.01.32.02.64.03.96,0,.31,0,.62.01.93,0,.31,0,.61,0,.91,0,.3-.02.59-.02.89-.01.29-.03.58-.04.86-.02.28-.04.56-.06.84-.03.27-.05.54-.08.81-.03.26-.07.52-.1.78-.04.25-.08.51-.12.76-.05.25-.09.49-.14.73l-.08.35-.02.09v.02s-.02,0-.02.01l-.04.03-.14.1c-.2.13-.39.26-.59.39l-13.89,1.84.72-.25.7-.27.69-.28.67-.3.66-.31.65-.32.63-.34.62-.35.6-.37.59-.38.58-.39.57-.41.55-.42.54-.43.53-.45.52-.46.09-.76.07-.78.06-.79.04-.8.03-.82.02-.83v-.84s0-.85,0-.85c-.02-.58-.04-1.16-.06-1.75-.04-.59-.07-1.19-.11-1.79-.05-.61-.11-1.22-.16-1.84-.07-.62-.14-1.25-.21-1.89-.08-.64-.17-1.28-.26-1.93-.1-.65-.2-1.31-.3-1.97-.11-.67-.23-1.34-.35-2.02-.13-.68-.26-1.36-.39-2.06-.14-.69-.29-1.39-.43-2.09-.16-.7-.31-1.41-.47-2.13-.17-.72-.34-1.44-.51-2.17-.18-.73-.36-1.46-.55-2.2-.19-.74-.39-1.48-.59-2.23-.21-.75-.41-1.5-.62-2.26-.22-.76-.43-1.52-.65-2.29-.23-.77-.46-1.54-.69-2.32-.48-1.55-.97-3.13-1.46-4.72-.52-1.59-1.05-3.19-1.58-4.81-.55-1.61-1.12-3.25-1.68-4.89-.59-1.64-1.18-3.29-1.77-4.96-.61-1.66-1.23-3.34-1.85-5.02-.64-1.68-1.28-3.37-1.93-5.07-.66-1.69-1.32-3.39-1.99-5.1-.68-1.7-1.36-3.41-2.04-5.12-1.39-3.41-2.79-6.84-4.18-10.26-1.42-3.41-2.84-6.82-4.25-10.2-1.43-3.38-2.84-6.74-4.24-10.05-2.79-6.63-5.52-13.1-8.11-19.26"/>
        <polygon class="cls-1" points="423.52 1103.99 415.64 1084.23 374.62 1042.83 385.17 1063.18 423.52 1103.99"/>
        <polygon class="cls-1" points="451.76 1061.64 447.17 1066.89 446.02 1068.2 445.99 1068.24 445.97 1068.26 445.96 1068.27 445.96 1068.27 445.95 1068.27 445.81 1068.31 445.53 1068.38 444.98 1068.52 443.86 1068.81 439.42 1069.94 421.64 1074.48 345.05 1084.97 378.59 1073.86 417.89 1069.63 437.54 1067.52 442.46 1066.99 443.69 1066.86 443.84 1066.84 443.88 1066.83 443.9 1066.82 443.95 1066.79 444.13 1066.67 444.49 1066.43 445.95 1065.47 451.76 1061.64"/>
        <polygon class="cls-1" points="408.52 1066.16 402.21 1064.3 391.69 1081.4 397.99 1083.26 408.52 1066.16"/>
        <polygon class="cls-1" points="402.15 1064.46 396.03 1062.34 383.91 1078.93 390.04 1081.05 402.15 1064.46"/>
        <polygon class="cls-1" points="398.02 1083.1 404.15 1085.22 416.26 1068.63 410.13 1066.5 398.02 1083.1"/>
        <path class="cls-1" d="M429.96,1084.29l9.23-10.5,4.62-5.25.58-.66.29-.33.07-.08.02-.02h0s0,0,0-.01v-.02s0-.06,0-.06v-.26s.09-2.06.09-2.06l.15-4.11-14.72-70.12.51,29.49,6.49,36.78.81,4.6.2,1.15.03.14v.04s0,.02,0,.02l-.02.05-.08.2-.16.4-.62,1.59-2.5,6.34-4.99,12.69Z"/>
        <polygon class="cls-1" points="475.87 1057.47 452.49 1052.56 400.39 1025.83 422.59 1029.49 475.87 1057.47"/>
        <polygon class="cls-1" points="446.12 1035.93 442.33 1030.46 429.21 1045.18 432.99 1050.64 446.12 1035.93"/>
        <polygon class="cls-1" points="442.24 1030.61 438.67 1024.93 424.6 1038.22 428.17 1043.9 442.24 1030.61"/>
        <polygon class="cls-1" points="433.06 1050.46 436.63 1056.14 450.7 1042.85 447.13 1037.17 433.06 1050.46"/>
      </g>
    </g>
  </g>
</svg>