<?xml version="1.0" encoding="UTF-8"?>
<svg id="Layer_2" data-name="Layer 2" xmlns="http://www.w3.org/2000/svg" viewBox="0 0 1034.45 1050.24">
  <defs>
    <style>
      .cls-1 {
        fill: #bfbfbf;
        stroke: #000;
        stroke-linecap: round;
        stroke-width: 2.5px;
      }
    </style>
  </defs>
  <g id="Layer_2-2" data-name="Layer 2">
    <g>
      <g>
        <g>
          <path class="cls-1" d="M1.25,1036.82c16.4-31.87,37.93-40.53,55.93-75.5l4.61,2.37c-18,34.97-39.53,43.64-55.92,75.5"/>
          <path class="cls-1" d="M20.29,1046.61c17.44-33.9,12.56-57.6,28.46-88.49l4.61,2.37c-15.89,30.89-11.01,54.59-28.45,88.49"/>
          <path class="cls-1" d="M88.54,867.17c-16.4,31.87-10.93,54.43-28.92,89.4l4.61,2.37c18-34.97,12.53-57.53,28.93-89.4"/>
          <path class="cls-1" d="M107.58,876.96c-17.44,33.9-39.56,43.71-55.45,74.59l4.61,2.37c15.89-30.89,38.02-40.69,55.46-74.59"/>
          <polygon class="cls-1" points="25.66 969.89 46.2 965.64 91.21 939.03 69.86 945.16 25.66 969.89"/>
          <polygon class="cls-1" points="61.83 992.48 55.5 970.7 52.91 919.12 59.66 939.62 61.83 992.48"/>
          <polygon class="cls-1" points="64.95 961.82 67.33 957.4 51 948.54 48.62 952.96 64.95 961.82"/>
          <polygon class="cls-1" points="67.19 957.34 69.82 953.07 54.14 943.1 51.5 947.37 67.19 957.34"/>
          <polygon class="cls-1" points="48.78 952.98 46.14 957.26 61.83 967.23 64.47 962.96 48.78 952.98"/>
        </g>
        <g>
          <path class="cls-1" d="M88.55,867.16c16.4-31.87,37.93-40.53,55.93-75.5l4.61,2.37c-18,34.97-39.53,43.64-55.92,75.5"/>
          <path class="cls-1" d="M107.59,876.95c17.44-33.9,12.56-57.6,28.46-88.49l4.61,2.37c-15.89,30.89-11.01,54.59-28.45,88.49"/>
          <path class="cls-1" d="M175.84,697.51c-16.4,31.87-10.93,54.43-28.92,89.4l4.61,2.37c18-34.97,12.53-57.53,28.93-89.4"/>
          <path class="cls-1" d="M194.88,707.3c-17.44,33.9-39.56,43.71-55.45,74.59l4.61,2.37c15.89-30.89,38.02-40.69,55.46-74.59"/>
          <polygon class="cls-1" points="112.96 800.23 133.5 795.98 178.51 769.37 157.16 775.5 112.96 800.23"/>
          <polygon class="cls-1" points="149.13 822.82 142.8 801.04 140.21 749.46 146.96 769.96 149.13 822.82"/>
          <polygon class="cls-1" points="152.25 792.16 154.63 787.74 138.3 778.88 135.92 783.29 152.25 792.16"/>
          <polygon class="cls-1" points="154.49 787.68 157.12 783.41 141.44 773.44 138.8 777.7 154.49 787.68"/>
          <polygon class="cls-1" points="136.08 783.32 133.44 787.6 149.13 797.57 151.77 793.3 136.08 783.32"/>
        </g>
        <g>
          <path class="cls-1" d="M175.85,697.5c16.4-31.87,37.93-40.53,55.93-75.5l4.61,2.37c-18,34.97-39.53,43.64-55.92,75.5"/>
          <path class="cls-1" d="M194.89,707.29c17.44-33.9,12.56-57.6,28.46-88.49l4.61,2.37c-15.89,30.89-11.01,54.59-28.45,88.49"/>
          <path class="cls-1" d="M263.14,527.84c-16.4,31.87-10.93,54.43-28.92,89.4l4.61,2.37c17.99-34.97,12.53-57.53,28.93-89.4"/>
          <path class="cls-1" d="M282.18,537.64c-17.44,33.9-39.56,43.71-55.45,74.59l4.61,2.37c15.89-30.89,38.02-40.69,55.46-74.59"/>
          <polygon class="cls-1" points="200.26 630.56 220.8 626.32 265.81 599.71 244.46 605.84 200.26 630.56"/>
          <polygon class="cls-1" points="236.43 653.16 230.1 631.37 227.51 579.8 234.26 600.3 236.43 653.16"/>
          <polygon class="cls-1" points="239.55 622.5 241.93 618.08 225.6 609.22 223.22 613.63 239.55 622.5"/>
          <polygon class="cls-1" points="241.79 618.02 244.42 613.75 228.74 603.78 226.1 608.04 241.79 618.02"/>
          <polygon class="cls-1" points="223.38 613.66 220.74 617.93 236.43 627.91 239.07 623.64 223.38 613.66"/>
        </g>
        <g>
          <path class="cls-1" d="M263.15,527.83c16.4-31.87,37.93-40.53,55.93-75.5l4.61,2.37c-18,34.97-39.53,43.64-55.92,75.5"/>
          <path class="cls-1" d="M282.19,537.63c17.44-33.9,12.56-57.6,28.46-88.49l4.61,2.37c-15.89,30.89-11.01,54.59-28.45,88.49"/>
          <path class="cls-1" d="M350.44,358.18c-16.4,31.87-10.93,54.43-28.92,89.4l4.61,2.37c18-34.97,12.53-57.53,28.93-89.4"/>
          <path class="cls-1" d="M369.48,367.98c-17.44,33.9-39.56,43.71-55.45,74.59l4.61,2.37c15.89-30.89,38.02-40.69,55.46-74.59"/>
          <polygon class="cls-1" points="287.56 460.9 308.1 456.66 353.11 430.05 331.76 436.18 287.56 460.9"/>
          <polygon class="cls-1" points="323.73 483.49 317.4 461.71 314.81 410.14 321.56 430.64 323.73 483.49"/>
          <polygon class="cls-1" points="326.85 452.83 329.23 448.42 312.9 439.55 310.52 443.97 326.85 452.83"/>
          <polygon class="cls-1" points="329.09 448.36 331.72 444.08 316.04 434.11 313.4 438.38 329.09 448.36"/>
          <polygon class="cls-1" points="310.68 444 308.04 448.27 323.73 458.25 326.37 453.98 310.68 444"/>
        </g>
        <g>
          <path class="cls-1" d="M350.45,358.17c16.4-31.87,37.93-40.53,55.93-75.5l4.61,2.37c-18,34.97-39.53,43.64-55.92,75.5"/>
          <path class="cls-1" d="M369.49,367.97c17.44-33.9,12.56-57.6,28.46-88.49l4.61,2.37c-15.89,30.89-11.01,54.59-28.45,88.49"/>
          <path class="cls-1" d="M437.74,188.52c-16.4,31.87-10.93,54.43-28.92,89.4l4.61,2.37c18-34.97,12.53-57.53,28.93-89.4"/>
          <path class="cls-1" d="M456.78,198.32c-17.44,33.9-39.56,43.71-55.45,74.59l4.61,2.37c15.89-30.89,38.02-40.69,55.46-74.59"/>
          <polygon class="cls-1" points="374.86 291.24 395.4 286.99 440.41 260.38 419.06 266.52 374.86 291.24"/>
          <polygon class="cls-1" points="411.03 313.83 404.7 292.05 402.11 240.47 408.86 260.97 411.03 313.83"/>
          <polygon class="cls-1" points="414.15 283.17 416.53 278.76 400.2 269.89 397.82 274.31 414.15 283.17"/>
          <polygon class="cls-1" points="416.39 278.69 419.02 274.42 403.34 264.45 400.7 268.72 416.39 278.69"/>
          <polygon class="cls-1" points="397.98 274.34 395.34 278.61 411.03 288.58 413.67 284.31 397.98 274.34"/>
        </g>
        <g>
          <path class="cls-1" d="M626.84,191.11c15.27,31.79,9.05,53.93,25.81,88.82l-4.68,2.25c-16.75-34.89-10.55-57.03-25.81-88.81"/>
          <path class="cls-1" d="M607.54,200.38c16.24,33.81,37.95,43.95,52.74,74.76l-4.68,2.25c-14.8-30.81-36.51-40.94-52.75-74.76"/>
          <path class="cls-1" d="M708.11,360.33c-15.26-31.79-36.43-40.78-53.19-75.67l-4.68,2.25c16.75,34.88,37.92,43.88,53.18,75.67"/>
          <path class="cls-1" d="M688.81,369.6c-16.24-33.81-10.58-57.09-25.38-87.9l-4.68,2.25c14.8,30.81,9.13,54.09,25.37,87.91"/>
          <polygon class="cls-1" points="664.99 249.94 655.89 268.69 649.64 319.99 657.73 299.49 664.99 249.94"/>
          <polygon class="cls-1" points="625.17 265.2 646.24 273.06 688.62 301.47 668.31 294.7 625.17 265.2"/>
          <polygon class="cls-1" points="647.54 285.77 649.58 290.27 666.5 282.59 664.46 278.09 647.54 285.77"/>
          <polygon class="cls-1" points="649.72 290.19 651.5 294.79 668.91 288.28 667.13 283.67 649.72 290.19"/>
          <polygon class="cls-1" points="664.34 278.2 662.55 273.6 645.14 280.11 646.93 284.72 664.34 278.2"/>
        </g>
        <g>
          <path class="cls-1" d="M708.11,360.34c15.26,31.79,9.05,53.93,25.81,88.82l-4.68,2.25c-16.75-34.89-10.55-57.03-25.81-88.81"/>
          <path class="cls-1" d="M688.82,369.61c16.24,33.81,37.95,43.95,52.74,74.76l-4.68,2.25c-14.8-30.81-36.51-40.94-52.75-74.76"/>
          <path class="cls-1" d="M789.38,529.56c-15.27-31.79-36.43-40.78-53.19-75.67l-4.68,2.25c16.75,34.88,37.92,43.88,53.18,75.67"/>
          <path class="cls-1" d="M770.08,538.83c-16.24-33.81-10.58-57.09-25.38-87.9l-4.68,2.25c14.8,30.81,9.13,54.09,25.37,87.91"/>
          <polygon class="cls-1" points="746.26 419.17 737.16 437.92 730.91 489.22 739.01 468.72 746.26 419.17"/>
          <polygon class="cls-1" points="706.44 434.43 727.52 442.29 769.89 470.7 749.58 463.93 706.44 434.43"/>
          <polygon class="cls-1" points="728.81 455 730.86 459.5 747.78 451.82 745.73 447.32 728.81 455"/>
          <polygon class="cls-1" points="730.99 459.42 732.77 464.02 750.18 457.51 748.4 452.9 730.99 459.42"/>
          <polygon class="cls-1" points="745.61 447.43 743.83 442.83 726.42 449.34 728.2 453.95 745.61 447.43"/>
        </g>
        <g>
          <path class="cls-1" d="M789.39,529.57c15.26,31.79,9.05,53.93,25.81,88.82l-4.68,2.25c-16.75-34.89-10.55-57.03-25.81-88.81"/>
          <path class="cls-1" d="M770.09,538.84c16.24,33.81,37.95,43.95,52.74,74.76l-4.68,2.25c-14.8-30.81-36.51-40.94-52.75-74.76"/>
          <path class="cls-1" d="M870.65,698.79c-15.26-31.79-36.43-40.78-53.19-75.67l-4.68,2.25c16.75,34.88,37.92,43.88,53.18,75.67"/>
          <path class="cls-1" d="M851.36,708.06c-16.24-33.81-10.58-57.09-25.38-87.9l-4.68,2.25c14.8,30.81,9.13,54.09,25.37,87.91"/>
          <polygon class="cls-1" points="827.54 588.4 818.43 607.15 812.18 658.46 820.28 637.95 827.54 588.4"/>
          <polygon class="cls-1" points="787.72 603.66 808.79 611.52 851.17 639.93 830.85 633.16 787.72 603.66"/>
          <polygon class="cls-1" points="810.08 624.23 812.13 628.73 829.05 621.05 827 616.55 810.08 624.23"/>
          <polygon class="cls-1" points="812.27 628.65 814.05 633.26 831.45 626.74 829.68 622.13 812.27 628.65"/>
          <polygon class="cls-1" points="826.88 616.67 825.1 612.06 807.69 618.57 809.47 623.18 826.88 616.67"/>
        </g>
        <g>
          <path class="cls-1" d="M870.66,698.8c15.27,31.79,9.05,53.93,25.81,88.82l-4.68,2.25c-16.75-34.89-10.55-57.03-25.81-88.81"/>
          <path class="cls-1" d="M851.36,708.07c16.24,33.81,37.95,43.95,52.74,74.76l-4.68,2.25c-14.8-30.81-36.51-40.94-52.75-74.76"/>
          <path class="cls-1" d="M951.93,868.02c-15.26-31.79-36.43-40.78-53.19-75.67l-4.68,2.25c16.75,34.88,37.92,43.88,53.18,75.67"/>
          <path class="cls-1" d="M932.63,877.29c-16.24-33.81-10.58-57.09-25.38-87.9l-4.68,2.25c14.8,30.81,9.13,54.09,25.37,87.91"/>
          <polygon class="cls-1" points="908.81 757.63 899.71 776.38 893.46 827.69 901.55 807.19 908.81 757.63"/>
          <polygon class="cls-1" points="868.99 772.89 890.06 780.75 932.44 809.17 912.13 802.4 868.99 772.89"/>
          <polygon class="cls-1" points="891.36 793.46 893.4 797.96 910.32 790.28 908.28 785.79 891.36 793.46"/>
          <polygon class="cls-1" points="893.54 797.88 895.32 802.49 912.73 795.97 910.95 791.37 893.54 797.88"/>
          <polygon class="cls-1" points="908.16 785.9 906.37 781.29 888.96 787.8 890.74 792.41 908.16 785.9"/>
        </g>
        <g>
          <path class="cls-1" d="M951.93,868.03c15.26,31.79,9.05,53.93,25.81,88.82l-4.68,2.25c-16.75-34.89-10.55-57.03-25.81-88.81"/>
          <path class="cls-1" d="M932.64,877.3c16.24,33.81,37.95,43.95,52.74,74.76l-4.68,2.25c-14.8-30.81-36.51-40.94-52.75-74.76"/>
          <path class="cls-1" d="M1033.2,1037.25c-15.27-31.79-36.43-40.78-53.19-75.67l-4.68,2.25c16.75,34.88,37.92,43.88,53.18,75.67"/>
          <path class="cls-1" d="M1013.9,1046.52c-16.24-33.81-10.58-57.09-25.38-87.9l-4.68,2.25c14.8,30.81,9.13,54.09,25.37,87.91"/>
          <polygon class="cls-1" points="990.08 926.86 980.98 945.61 974.73 996.92 982.83 976.42 990.08 926.86"/>
          <polygon class="cls-1" points="950.26 942.12 971.34 949.98 1013.71 978.4 993.4 971.63 950.26 942.12"/>
          <polygon class="cls-1" points="972.63 962.7 974.68 967.19 991.6 959.51 989.55 955.02 972.63 962.7"/>
          <polygon class="cls-1" points="974.81 967.11 976.59 971.72 994 965.21 992.22 960.6 974.81 967.11"/>
          <polygon class="cls-1" points="989.43 955.13 987.65 950.52 970.24 957.04 972.02 961.64 989.43 955.13"/>
        </g>
        <g>
          <path class="cls-1" d="M602.76,202.68c-.55-1.15-1.1-2.3-1.65-3.44-.54-1.15-1.07-2.3-1.61-3.44-.52-1.15-1.05-2.29-1.57-3.44-.51-1.15-1.02-2.29-1.53-3.43-.5-1.14-.99-2.28-1.49-3.42-.49-1.14-.97-2.28-1.45-3.41-.47-1.14-.94-2.27-1.41-3.4-.46-1.13-.92-2.26-1.37-3.38-.45-1.13-.89-2.25-1.34-3.37-.43-1.12-.87-2.24-1.3-3.35-.42-1.12-.84-2.23-1.26-3.33-.41-1.11-.82-2.21-1.23-3.31-.79-2.2-1.57-4.39-2.35-6.56-.74-2.17-1.48-4.33-2.21-6.46-.7-2.14-1.39-4.25-2.07-6.35-.65-2.1-1.3-4.17-1.94-6.23-.61-2.05-1.22-4.08-1.82-6.09-.57-2-1.14-3.98-1.69-5.94-.53-1.95-1.06-3.88-1.57-5.77-.49-1.89-.98-3.76-1.46-5.6-.46-1.83-.9-3.64-1.35-5.41-.42-1.77-.83-3.5-1.24-5.21-.39-1.7-.76-3.36-1.13-4.99-.35-1.62-.7-3.21-1.03-4.76-.32-1.55-.63-3.05-.94-4.52-.29-1.46-.57-2.89-.84-4.27-.26-1.38-.51-2.71-.75-4-.23-1.28-.45-2.53-.67-3.72-.2-1.19-.4-2.33-.59-3.43-.18-1.09-.35-2.13-.51-3.12-.3-1.97-.56-3.73-.8-5.27-.21-1.53-.39-2.83-.53-3.89-.25-2.1-.39-3.24-.39-3.24.14.83.28,1.66.42,2.5.15.84.31,1.69.46,2.54.17.86.33,1.72.5,2.58.18.87.36,1.74.53,2.62.19.88.38,1.77.57,2.65.2.89.4,1.79.6,2.69.43,1.81.86,3.62,1.3,5.46.47,1.84.94,3.69,1.42,5.56.5,1.87,1.01,3.75,1.52,5.63.54,1.89,1.08,3.79,1.62,5.69.57,1.91,1.13,3.82,1.7,5.73l1.77,5.76c.61,1.92,1.22,3.84,1.83,5.76.63,1.92,1.26,3.83,1.89,5.74.64,1.91,1.29,3.81,1.92,5.7.65,1.89,1.31,3.78,1.95,5.65.66,1.87,1.32,3.73,1.97,5.57.66,1.84,1.32,3.67,1.98,5.48.66,1.81,1.32,3.6,1.97,5.37,1.33,3.53,2.63,6.98,3.88,10.31,1.29,3.33,2.54,6.55,3.73,9.63,1.22,3.07,2.39,6.01,3.49,8.78,1.12,2.77,2.18,5.37,3.16,7.79,2,4.82,3.69,8.88,4.98,11.98,1.3,3.09,2.2,5.21,2.6,6.14"/>
          <path class="cls-1" d="M461.4,200.69c.25-.5.5-1.01.77-1.54.26-.53.53-1.08.8-1.65.53-1.14,1.09-2.33,1.68-3.59.57-1.26,1.16-2.58,1.78-3.95.6-1.38,1.22-2.81,1.86-4.29.63-1.48,1.28-3.01,1.94-4.59.65-1.58,1.32-3.19,2.01-4.85,1.34-3.32,2.73-6.79,4.17-10.37,1.4-3.58,2.85-7.28,4.32-11.04,1.44-3.76,2.9-7.6,4.38-11.45,1.45-3.86,2.9-7.74,4.35-11.6,1.43-3.86,2.85-7.71,4.25-11.49,2.75-7.57,5.4-14.88,7.84-21.6,2.39-6.72,4.58-12.84,6.42-18.02,3.63-10.35,5.93-16.92,5.93-16.92l-6.35,2.42c-.52,1.6-1.05,3.23-1.58,4.87-.55,1.64-1.1,3.31-1.66,4.98-1.15,3.36-2.33,6.78-3.52,10.24-1.23,3.47-2.48,6.97-3.73,10.5-1.29,3.53-2.59,7.08-3.89,10.63-1.33,3.55-2.66,7.1-3.99,10.64-1.35,3.53-2.69,7.04-4.02,10.51-1.35,3.47-2.68,6.89-3.99,10.25-1.33,3.36-2.63,6.66-3.9,9.87-2.59,6.42-5.03,12.5-7.28,18.07-2.29,5.56-4.37,10.62-6.17,14.99-1.83,4.36-3.38,8.05-4.57,10.88-1.22,2.82-2.07,4.78-2.47,5.73"/>
          <path class="cls-1" d="M626.84,191.11c-1.23-2.67-2.47-5.35-3.71-8.04-1.22-2.7-2.44-5.41-3.66-8.12-1.2-2.71-2.4-5.43-3.59-8.13-1.18-2.71-2.35-5.4-3.52-8.08-4.64-10.72-9.14-21.13-13.26-30.67-1.05-2.38-2.08-4.7-3.09-6.96-1.02-2.25-2.02-4.44-2.98-6.56-.49-1.05-.98-2.09-1.45-3.11-.48-1.01-.96-2.01-1.42-2.99-.47-.97-.94-1.92-1.4-2.86-.47-.93-.92-1.83-1.37-2.72-.46-.88-.9-1.74-1.34-2.58-.45-.83-.88-1.64-1.31-2.42-.44-.78-.86-1.53-1.28-2.26-.43-.72-.84-1.42-1.24-2.1-.21-.33-.41-.66-.61-.98-.2-.32-.4-.63-.6-.94-.2-.3-.4-.6-.59-.89-.2-.29-.39-.57-.59-.85-.2-.27-.39-.54-.58-.8-.19-.26-.38-.51-.57-.75-.19-.24-.38-.47-.56-.7-.19-.22-.37-.44-.55-.65l-4.45-1.57c.36.7.74,1.46,1.16,2.27.41.82.84,1.69,1.3,2.62.9,1.86,1.89,3.92,2.97,6.16,1.06,2.24,2.19,4.66,3.39,7.21,1.18,2.56,2.43,5.25,3.72,8.04,2.54,5.6,5.27,11.59,8.04,17.69,2.74,6.12,5.53,12.34,8.24,18.39,5.36,12.12,10.4,23.53,14.1,31.9,3.67,8.39,6.02,13.74,6.02,13.74"/>
          <path class="cls-1" d="M437.74,188.52s1.06-2.32,2.95-6.43c.96-2.05,2.12-4.55,3.46-7.43,1.36-2.88,2.9-6.13,4.59-9.71,1.71-3.56,3.57-7.44,5.55-11.57,2.01-4.12,4.15-8.48,6.37-13.03,2.26-4.53,4.62-9.25,7.03-14.09,1.23-2.41,2.47-4.85,3.72-7.31,1.27-2.46,2.54-4.93,3.82-7.43,1.3-2.48,2.6-4.98,3.91-7.49,1.33-2.5,2.66-5,3.98-7.5,1.35-2.49,2.69-4.98,4.04-7.46,1.36-2.47,2.72-4.93,4.07-7.37,1.37-2.43,2.73-4.84,4.08-7.23,1.37-2.37,2.73-4.72,4.07-7.04,1.37-2.3,2.72-4.56,4.05-6.79.68-1.11,1.35-2.2,2.01-3.29.67-1.08,1.34-2.15,2-3.21.67-1.05,1.33-2.09,1.98-3.12.66-1.02,1.32-2.03,1.96-3.03.65-.99,1.3-1.97,1.94-2.93.65-.95,1.29-1.9,1.92-2.83.64-.92,1.27-1.82,1.89-2.72.63-.88,1.25-1.75,1.86-2.6.62-.84,1.23-1.66,1.83-2.48.61-.79,1.21-1.58,1.8-2.35.6-.75,1.19-1.49,1.77-2.21.59-.7,1.16-1.39,1.73-2.07.29-.33.57-.65.85-.98.28-.32.56-.63.84-.94.28-.3.56-.6.83-.9.28-.29.55-.58.82-.86.27-.28.54-.55.81-.82.27-.26.53-.52.8-.78.26-.25.53-.49.78-.74.26-.23.52-.46.77-.69.26-.22.51-.44.76-.65.25-.2.5-.41.75-.61l.37-.29.09-.07.02-.02s.01,0,.02.01l.04.03.18.14c.24.19.47.38.71.57l10.02,16.62-.66-.79-.66-.76-.67-.74-.67-.72-.68-.69-.68-.67-.69-.65-.69-.62-.69-.6-.7-.58-.7-.55-.71-.53-.71-.51-.72-.49-.72-.47-.72-.45s-.02.01-.02.01l-.02.02-.05.04-.09.08-.19.17-.37.35-.75.71-.75.74-.76.76c-.5.53-1.01,1.06-1.52,1.6-.51.56-1.02,1.13-1.54,1.7-.51.59-1.03,1.19-1.55,1.79-.52.62-1.04,1.25-1.56,1.88-.52.65-1.05,1.31-1.58,1.97-.52.68-1.05,1.37-1.59,2.06-.53.71-1.06,1.42-1.6,2.15-.53.74-1.07,1.48-1.61,2.23-.54.76-1.08,1.53-1.62,2.31-.54.79-1.08,1.58-1.63,2.38-.54.81-1.09,1.63-1.64,2.46-.55.84-1.1,1.68-1.65,2.53-.55.86-1.1,1.72-1.66,2.6-.55.88-1.11,1.77-1.67,2.66-.55.9-1.11,1.81-1.67,2.73-.56.92-1.12,1.85-1.68,2.79-1.11,1.89-2.24,3.81-3.38,5.75-1.12,1.96-2.25,3.95-3.4,5.96-1.13,2.03-2.27,4.08-3.42,6.15-1.13,2.09-2.27,4.2-3.43,6.32-1.14,2.14-2.28,4.3-3.43,6.47-1.14,2.18-2.28,4.39-3.44,6.6-1.14,2.22-2.28,4.46-3.44,6.71-2.26,4.51-4.55,9.07-6.85,13.65-2.26,4.6-4.52,9.21-6.79,13.83-8.91,18.51-17.78,36.95-25.83,53.69"/>
          <polygon class="cls-1" points="580.4 28.22 567.33 46.65 554.7 115.99 566.7 93.96 580.4 28.22"/>
          <polygon class="cls-1" points="525.14 17.14 532.69 15.89 534.58 15.58 534.64 15.57 534.67 15.56 534.68 15.56 534.69 15.56 534.7 15.57 534.81 15.73 535.05 16.04 535.51 16.68 536.43 17.95 540.13 23.03 554.93 43.35 610.5 134.82 580.29 97.59 552.81 50.15 539.07 26.43 535.64 20.5 534.78 19.02 534.67 18.83 534.65 18.79 534.62 18.78 534.56 18.77 534.35 18.73 533.91 18.66 532.15 18.35 525.14 17.14"/>
          <polygon class="cls-1" points="555.33 63.39 557.45 72.11 579.2 77.9 577.08 69.19 555.33 63.39"/>
          <polygon class="cls-1" points="557.62 72.12 559.4 80.72 581.65 88.72 579.87 80.12 557.62 72.12"/>
          <polygon class="cls-1" points="576.92 69.23 575.14 60.63 552.89 52.62 554.66 61.23 576.92 69.23"/>
          <path class="cls-1" d="M558.76,28.68l-15.02-7.03-7.51-3.51-.94-.44-.47-.22-.12-.05h-.03s0-.02,0-.02h0s-.01.02-.01.02l-.06.06-.24.25-1.92,1.98-3.83,3.96-54.81,82.53,26.5-29.79,29.49-42.22,3.69-5.28.92-1.32.12-.16.03-.04h.03s.06,0,.06,0h.23s.45.04.45.04l1.81.1,7.22.38,14.44.77Z"/>
          <polygon class="cls-1" points="506.7 .45 516.43 25.55 523.78 97.21 513.62 74.36 506.7 .45"/>
          <polygon class="cls-1" points="505.19 47.61 502.52 56.33 523.86 53.03 526.54 44.31 505.19 47.61"/>
          <polygon class="cls-1" points="502.71 56.25 499.72 65 520.34 63.94 523.33 55.2 502.71 56.25"/>
          <polygon class="cls-1" points="526.33 44.44 529.33 35.69 508.7 36.76 505.7 45.5 526.33 44.44"/>
        </g>
      </g>
      <g>
        <g>
          <path class="cls-1" d="M318.55,672.27c19.07-35.71,41.81-46.05,62.74-85.25l4.58,2.44c-20.93,39.19-43.66,49.54-62.74,85.25"/>
          <path class="cls-1" d="M337.44,682.35c20.29-37.99,16.92-63.91,35.41-98.53l4.58,2.44c-18.49,34.62-15.11,60.54-35.4,98.53"/>
          <path class="cls-1" d="M420.09,482.14c-19.07,35.71-15.02,60.36-35.95,99.56l4.58,2.44c20.93-39.19,16.88-63.84,35.95-99.55"/>
          <path class="cls-1" d="M438.97,492.23c-20.29,37.99-43.7,49.61-62.19,84.23l4.58,2.44c18.49-34.62,41.91-46.23,62.2-84.23"/>
          <polygon class="cls-1" points="348.3 597.63 369.71 592.19 417.82 561.21 395.45 568.76 348.3 597.63"/>
          <polygon class="cls-1" points="383.91 621.18 378.92 597.42 379.85 540.7 385.36 563.03 383.91 621.18"/>
          <polygon class="cls-1" points="389.25 587.29 392 582.33 375.84 573.17 373.08 578.13 389.25 587.29"/>
          <polygon class="cls-1" points="391.86 582.27 394.87 577.47 379.44 567.07 376.43 571.86 391.86 582.27"/>
          <polygon class="cls-1" points="373.24 578.15 370.24 582.96 385.67 593.37 388.67 588.56 373.24 578.15"/>
        </g>
        <g>
          <path class="cls-1" d="M608.32,485.91c16.98,35.12,11.63,58.94,30.27,97.49l-4.67,2.26c-18.64-38.55-13.29-62.36-30.27-97.49"/>
          <path class="cls-1" d="M589.04,495.23c18.07,37.37,40.66,49.22,57.12,83.27l-4.67,2.26c-16.46-34.05-39.06-45.9-57.13-83.26"/>
          <path class="cls-1" d="M698.73,672.9c-16.98-35.12-38.98-45.72-57.61-84.27l-4.67,2.26c18.64,38.55,40.63,49.15,57.61,84.27"/>
          <path class="cls-1" d="M679.45,682.22c-18.07-37.37-13.33-62.44-29.79-96.48l-4.67,2.26c16.46,34.05,11.72,59.12,29.78,96.49"/>
          <polygon class="cls-1" points="649.84 551.3 641.39 571.32 637.29 626.81 644.64 604.85 649.84 551.3"/>
          <polygon class="cls-1" points="609.9 566.33 631.75 575.69 676.24 608.21 655.21 600.06 609.9 566.33"/>
          <polygon class="cls-1" points="633.63 589.55 635.92 594.51 652.84 586.83 650.55 581.87 633.63 589.55"/>
          <polygon class="cls-1" points="636.05 594.44 638.08 599.51 655.54 593.11 653.52 588.03 636.05 594.44"/>
          <polygon class="cls-1" points="650.43 581.98 648.41 576.91 630.94 583.31 632.96 588.38 650.43 581.98"/>
        </g>
        <g>
          <path class="cls-1" d="M584.26,497.54c-.54-1.12-1.08-2.24-1.62-3.36-.53-1.12-1.06-2.24-1.58-3.36-.52-1.12-1.03-2.24-1.54-3.36-.5-1.12-1-2.24-1.5-3.35-.49-1.12-.98-2.23-1.46-3.34-.48-1.11-.95-2.22-1.42-3.33-.46-1.11-.93-2.22-1.39-3.32-.45-1.11-.9-2.21-1.35-3.31-.44-1.1-.88-2.2-1.31-3.29-.43-1.1-.85-2.19-1.27-3.28-.41-1.09-.83-2.18-1.24-3.26-.4-1.08-.8-2.16-1.2-3.24-.77-2.16-1.54-4.3-2.3-6.42-.73-2.12-1.45-4.23-2.16-6.32-.68-2.09-1.36-4.16-2.03-6.21-.64-2.05-1.27-4.08-1.9-6.09-.6-2.01-1.19-4-1.77-5.96-.56-1.96-1.11-3.9-1.65-5.81-.52-1.91-1.03-3.79-1.53-5.65-.48-1.85-.95-3.68-1.42-5.48-.44-1.79-.88-3.56-1.31-5.3-.41-1.73-.81-3.43-1.2-5.1-.37-1.66-.74-3.29-1.1-4.89-.34-1.59-.67-3.15-1-4.67-.31-1.51-.61-2.99-.9-4.43-.28-1.43-.55-2.83-.81-4.18-.25-1.35-.49-2.66-.73-3.92-.22-1.26-.44-2.48-.64-3.65-.2-1.17-.38-2.29-.56-3.36-.17-1.07-.33-2.09-.49-3.06-.28-1.93-.54-3.66-.76-5.17-.2-1.5-.37-2.78-.51-3.82-.24-2.06-.37-3.18-.37-3.18.13.81.27,1.63.41,2.45.15.83.3,1.66.44,2.49.16.84.32,1.68.48,2.53.17.85.34,1.71.52,2.57.18.86.37,1.73.55,2.6.19.87.39,1.75.58,2.63.2.88.41,1.77.62,2.66.21.89.43,1.79.65,2.69.46,1.8.92,3.62,1.38,5.44.49,1.83.99,3.67,1.48,5.52.52,1.85,1.05,3.71,1.58,5.57.55,1.87,1.11,3.74,1.66,5.61l1.73,5.63c.6,1.88,1.2,3.76,1.79,5.63.62,1.88,1.23,3.75,1.84,5.62.63,1.87,1.26,3.73,1.88,5.58.64,1.85,1.28,3.69,1.91,5.53.65,1.83,1.29,3.65,1.93,5.45.65,1.8,1.3,3.59,1.94,5.36.65,1.77,1.29,3.52,1.93,5.25,1.3,3.45,2.58,6.82,3.81,10.08,1.27,3.26,2.49,6.4,3.66,9.41,1.2,3.01,2.34,5.88,3.42,8.59,1.1,2.71,2.14,5.25,3.1,7.61,1.97,4.71,3.62,8.68,4.89,11.71,1.28,3.02,2.16,5.09,2.55,6"/>
          <path class="cls-1" d="M443.56,494.67c.25-.48.51-.98.77-1.49.26-.52.53-1.05.81-1.6.54-1.1,1.1-2.27,1.69-3.49.57-1.23,1.17-2.51,1.79-3.84.6-1.34,1.23-2.73,1.88-4.17.63-1.44,1.29-2.93,1.96-4.46.66-1.53,1.34-3.11,2.03-4.72,1.35-3.23,2.76-6.6,4.22-10.09,1.42-3.49,2.88-7.08,4.36-10.75,1.45-3.66,2.93-7.39,4.42-11.15,1.46-3.76,2.94-7.53,4.4-11.3,1.44-3.76,2.88-7.51,4.29-11.19,2.78-7.37,5.46-14.49,7.93-21.03,2.42-6.54,4.63-12.51,6.5-17.55,3.67-10.08,6-16.48,6-16.48l-6.33,2.22c-.53,1.56-1.06,3.15-1.6,4.75-.55,1.6-1.11,3.22-1.68,4.86-.58,1.64-1.16,3.29-1.75,4.95-.6,1.66-1.2,3.34-1.81,5.03-1.25,3.38-2.51,6.79-3.78,10.23-1.31,3.44-2.62,6.9-3.94,10.35-1.35,3.46-2.69,6.92-4.03,10.35-1.36,3.44-2.72,6.85-4.06,10.23-1.36,3.37-2.71,6.71-4.03,9.98-1.34,3.27-2.66,6.48-3.94,9.6-2.61,6.24-5.09,12.16-7.35,17.58-2.31,5.41-4.42,10.33-6.23,14.58-1.85,4.24-3.42,7.83-4.61,10.58-1.23,2.74-2.08,4.65-2.49,5.57"/>
          <path class="cls-1" d="M608.31,485.91c-1.21-2.61-2.43-5.23-3.65-7.86-1.2-2.64-2.39-5.28-3.59-7.93-1.18-2.65-2.35-5.3-3.53-7.94-1.16-2.64-2.31-5.28-3.46-7.9-4.55-10.47-8.97-20.65-13.02-29.97-1.04-2.32-2.05-4.59-3.03-6.8-1.01-2.2-1.99-4.34-2.93-6.41-.48-1.03-.96-2.04-1.43-3.04-.48-.99-.94-1.96-1.4-2.92-.47-.95-.92-1.88-1.37-2.79-.46-.91-.91-1.79-1.34-2.66-.45-.86-.89-1.7-1.32-2.51-.44-.81-.87-1.6-1.29-2.36-.43-.76-.85-1.49-1.26-2.21-.42-.7-.83-1.38-1.23-2.05-.2-.32-.4-.64-.6-.96-.2-.31-.4-.62-.59-.92-.2-.3-.39-.59-.59-.87-.2-.28-.39-.56-.58-.83-.19-.26-.38-.52-.57-.78-.19-.25-.38-.49-.56-.73-.19-.23-.37-.46-.55-.68-.18-.22-.37-.43-.55-.64l-4.43-1.49c.35.68.73,1.43,1.14,2.22.4.8.83,1.65,1.28,2.56.88,1.82,1.86,3.83,2.92,6.01,1.04,2.19,2.15,4.55,3.33,7.04,1.16,2.5,2.38,5.13,3.65,7.85,2.5,5.47,5.18,11.32,7.9,17.29,2.69,5.98,5.43,12.06,8.09,17.97,5.26,11.84,10.22,22.99,13.85,31.17,3.61,8.19,5.91,13.42,5.91,13.42"/>
          <path class="cls-1" d="M420.09,482.14s1.07-2.25,2.98-6.24c.96-1.99,2.14-4.42,3.49-7.22,1.37-2.79,2.92-5.96,4.62-9.43,1.72-3.46,3.6-7.23,5.6-11.24,2.03-4,4.18-8.24,6.42-12.65,2.28-4.4,4.65-8.98,7.08-13.67,1.23-2.34,2.48-4.71,3.74-7.1,1.27-2.38,2.56-4.79,3.85-7.2,1.31-2.41,2.62-4.83,3.94-7.26,1.33-2.42,2.67-4.85,4.01-7.27,1.36-2.41,2.71-4.83,4.06-7.23,1.37-2.39,2.74-4.77,4.09-7.14,1.38-2.35,2.75-4.69,4.1-7,1.38-2.3,2.75-4.57,4.1-6.81,1.38-2.22,2.73-4.42,4.07-6.58.68-1.07,1.35-2.13,2.02-3.18.67-1.04,1.34-2.08,2.01-3.11.67-1.02,1.33-2.02,1.99-3.02.66-.99,1.32-1.97,1.97-2.93.66-.96,1.31-1.9,1.95-2.84.65-.92,1.29-1.83,1.93-2.73.64-.89,1.28-1.76,1.9-2.62.63-.85,1.26-1.69,1.87-2.51.62-.81,1.24-1.6,1.84-2.39.61-.77,1.22-1.52,1.81-2.26.6-.72,1.19-1.43,1.77-2.13.59-.67,1.17-1.34,1.73-1.99.29-.32.57-.63.85-.94.28-.3.56-.6.84-.9.28-.29.56-.58.83-.86.28-.28.55-.55.82-.83.27-.26.54-.53.81-.79.27-.25.53-.5.8-.75.26-.24.53-.47.79-.71.26-.22.52-.44.77-.66.26-.21.51-.42.76-.62.25-.19.5-.39.75-.58l.37-.27.09-.07.02-.02s.01,0,.02.01l.04.03.18.13c.24.18.47.37.7.55l9.88,16.21-.65-.77-.65-.74-.66-.72-.66-.7-.67-.67-.67-.65-.68-.63-.68-.6-.69-.58-.69-.56-.7-.54-.7-.52-.71-.49-.71-.47-.71-.45-.72-.43s-.02,0-.02.01l-.02.02-.05.04-.09.08-.19.16-.37.33-.75.68-.75.71-.76.73c-.5.51-1.01,1.02-1.52,1.53-.51.54-1.02,1.08-1.54,1.63-.51.57-1.03,1.14-1.55,1.72-.52.6-1.04,1.2-1.57,1.81-.52.63-1.05,1.26-1.58,1.9-.53.66-1.06,1.32-1.59,1.99-.53.68-1.06,1.37-1.61,2.07-.53.71-1.07,1.43-1.62,2.15-.54.74-1.08,1.48-1.63,2.23-.54.76-1.09,1.53-1.64,2.3-.54.78-1.09,1.58-1.65,2.38-.55.81-1.1,1.62-1.66,2.45-.55.83-1.11,1.67-1.67,2.51-.55.85-1.11,1.71-1.68,2.58-.56.87-1.12,1.75-1.68,2.64-.56.89-1.12,1.79-1.69,2.7-1.12,1.83-2.25,3.69-3.4,5.57-1.13,1.9-2.27,3.83-3.42,5.78-1.13,1.97-2.28,3.95-3.44,5.96-1.14,2.02-2.29,4.07-3.45,6.13-1.14,2.07-2.3,4.17-3.46,6.28-1.15,2.12-2.3,4.25-3.46,6.4-1.15,2.16-2.3,4.33-3.46,6.51-2.28,4.38-4.58,8.8-6.9,13.25-2.27,4.46-4.56,8.94-6.84,13.42-8.97,17.97-17.92,35.88-26.03,52.13"/>
          <polygon class="cls-1" points="563.05 326.46 549.92 344.71 536.93 412.95 549.01 391.18 563.05 326.46"/>
          <polygon class="cls-1" points="508.09 315.86 515.61 314.82 517.5 314.56 517.56 314.55 517.58 314.54 517.6 314.54 517.61 314.54 517.61 314.55 517.73 314.71 517.96 315.01 518.41 315.63 519.33 316.87 522.98 321.82 537.59 341.6 592.38 430.82 562.52 394.59 535.44 348.31 521.91 325.17 518.52 319.38 517.67 317.94 517.57 317.76 517.54 317.71 517.52 317.71 517.46 317.7 517.24 317.65 516.81 317.57 515.06 317.23 508.09 315.86"/>
          <polygon class="cls-1" points="537.87 361.29 539.93 369.82 561.55 375.27 559.49 366.74 537.87 361.29"/>
          <polygon class="cls-1" points="540.1 369.83 541.82 378.25 563.93 385.86 562.21 377.44 540.1 369.83"/>
          <polygon class="cls-1" points="559.33 366.78 557.61 358.35 535.51 350.74 537.22 359.17 559.33 366.78"/>
          <path class="cls-1" d="M541.5,327.16l-14.92-6.73-7.46-3.37-.93-.42-.47-.21-.12-.05h-.03s0-.02,0-.02h0s-.01.02-.01.02l-.06.06-.24.24-1.92,1.9-3.84,3.8-55.04,79.77,26.55-28.63,29.6-40.77,3.7-5.1.93-1.27.12-.16.03-.04h.03s.06,0,.06,0h.22s.45.03.45.03l1.8.07,7.19.29,14.38.59Z"/>
          <polygon class="cls-1" points="489.85 299.02 499.38 323.92 506.25 394.5 496.28 371.81 489.85 299.02"/>
          <polygon class="cls-1" points="488.06 345.32 485.35 353.82 506.6 351.09 509.32 342.6 488.06 345.32"/>
          <polygon class="cls-1" points="485.54 353.75 482.5 362.28 503.03 361.73 506.06 353.22 485.54 353.75"/>
          <polygon class="cls-1" points="509.11 342.71 512.15 334.19 491.61 334.74 488.58 343.26 509.11 342.71"/>
        </g>
      </g>
      <g>
        <g>
          <path class="cls-1" d="M575.8,613.52c-.03,9.08-2.9,16.91-6.97,22.91-4.11,6.04-9.35,10.38-14.87,13.61-5.56,3.23-11.42,5.39-17.6,6.97-6.2,1.56-12.71,2.57-20.21,2.92l-.23-5.18c6.66-.31,12.45-1.1,18.07-2.35,5.59-1.28,10.98-3.06,16.14-5.86,5.13-2.8,10.04-6.65,13.91-12.11,3.83-5.43,6.54-12.57,6.57-20.91"/>
          <path class="cls-1" d="M554.39,613.52c-.06,6.32-.48,11.88-1.36,17.4-.91,5.47-2.27,10.92-4.76,16.12-2.47,5.18-6,10.2-11.09,14.26-5.05,4.03-11.78,7.07-19.71,7.54l-.31-5.18c7.19-.43,13.27-3.27,17.76-7.03,4.53-3.78,7.58-8.46,9.64-13.22,2.08-4.78,3.09-9.74,3.73-14.61.61-4.91.85-9.76.91-15.27"/>
          <path class="cls-1" d="M452.4,613.53c.03,9.08,2.91,16.91,6.98,22.91,4.11,6.04,9.35,10.38,14.88,13.6,5.56,3.22,11.42,5.39,17.6,6.97,6.2,1.56,12.71,2.57,20.21,2.91l.22-5.18c-6.66-.31-12.45-1.09-18.07-2.35-5.59-1.28-10.98-3.06-16.14-5.86-5.13-2.8-10.05-6.65-13.91-12.1-3.83-5.43-6.54-12.57-6.57-20.9"/>
          <path class="cls-1" d="M473.81,613.53c.06,6.32.48,11.88,1.37,17.4.91,5.47,2.28,10.92,4.76,16.12,2.47,5.18,6,10.2,11.09,14.25,5.05,4.03,11.78,7.06,19.71,7.54l.31-5.18c-7.19-.43-13.27-3.27-17.76-7.03-4.53-3.78-7.59-8.45-9.64-13.22-2.08-4.78-3.09-9.74-3.73-14.61-.62-4.91-.85-9.76-.91-15.27"/>
          <path class="cls-1" d="M542.07,678.36c-3.44-1.52-6.66-3.27-9.6-5.14-2.99-2.03-5.68-4.08-8.12-6.4-7.35-3.27-13.22-8.17-17.24-13.58-4.03-5.43-6.17-11.42-6.53-17.05-.48,2.96-.53,5.82-.33,8.94.09,1.58.34,3.01.62,4.58.3,1.52.65,3.17,1.14,4.66,3.39,5.94,8.67,11.33,15.46,15.61,6.79,4.28,15.21,7.32,24.61,8.37Z"/>
          <path class="cls-1" d="M526.69,638.62c0,1.43-.05,2.92-.2,4.43-.18,1.43-.44,2.91-.77,4.42-.17.74-.35,1.55-.58,2.27-.23.73-.47,1.46-.74,2.2-.54,1.46-1.15,3.02-1.87,4.47-4.43,5.31-10.62,9.82-18.2,12.89-7.58,3.06-16.56,4.54-26.1,3.83,3.76-.63,7.44-1.76,10.8-3.01,1.67-.58,3.35-1.41,4.92-2.17,1.59-.8,3.07-1.57,4.53-2.5,7.83-2.17,14.38-6.12,19.18-10.93,4.82-4.79,7.84-10.41,9.03-15.89Z"/>
          <path class="cls-1" d="M513.82,652.88l-3.24-.26c-.64,6.16-1.31,12.32-2.03,18.48,1.58.13,3.17.25,4.76.34.21-6.19.39-12.37.52-18.56Z"/>
          <path class="cls-1" d="M510.57,652.77c-1.07-.19-2.11-.56-3.15-.82-1.41,6.03-2.98,12.02-4.73,17.98,1.53.39,3.08.76,4.64,1.11,1.25-6.04,2.32-12.13,3.24-18.28Z"/>
          <path class="cls-1" d="M513.26,671.28c.79.12,1.58.13,2.38.16l2.39.07c.12-6.19.08-12.36-.14-18.52l-3.27-.22c-.28,6.21-.74,12.37-1.36,18.51Z"/>
        </g>
        <g>
          <path class="cls-1" d="M452.4,613.52c.03-9.08,2.9-16.91,6.97-22.91,4.11-6.04,9.35-10.38,14.87-13.61,5.56-3.23,11.42-5.39,17.6-6.97,6.2-1.56,12.71-2.57,20.21-2.92l.23,5.18c-6.66.31-12.45,1.1-18.07,2.35-5.59,1.28-10.98,3.06-16.14,5.86-5.13,2.8-10.04,6.65-13.91,12.11-3.83,5.43-6.54,12.58-6.57,20.91"/>
          <path class="cls-1" d="M473.81,613.52c.06-6.32.48-11.88,1.36-17.4.91-5.47,2.27-10.92,4.76-16.12,2.47-5.18,6-10.2,11.09-14.26,5.05-4.03,11.78-7.07,19.71-7.54l.31,5.18c-7.19.43-13.27,3.27-17.76,7.03-4.53,3.78-7.58,8.46-9.64,13.22-2.08,4.78-3.09,9.74-3.73,14.61-.61,4.91-.85,9.76-.91,15.27"/>
          <path class="cls-1" d="M575.8,613.51c-.03-9.08-2.91-16.91-6.98-22.91-4.11-6.04-9.35-10.38-14.88-13.6-5.56-3.22-11.42-5.39-17.6-6.97-6.2-1.56-12.71-2.57-20.21-2.91l-.22,5.18c6.66.31,12.45,1.09,18.07,2.35,5.59,1.28,10.98,3.06,16.14,5.86,5.13,2.8,10.05,6.65,13.91,12.1,3.83,5.43,6.54,12.57,6.57,20.9"/>
          <path class="cls-1" d="M554.39,613.51c-.06-6.32-.48-11.88-1.37-17.4-.91-5.47-2.28-10.92-4.76-16.12-2.47-5.18-6-10.2-11.09-14.25-5.05-4.03-11.78-7.06-19.71-7.54l-.31,5.18c7.19.43,13.27,3.27,17.76,7.03,4.53,3.78,7.59,8.45,9.64,13.22,2.08,4.78,3.09,9.74,3.73,14.61.61,4.91.85,9.76.91,15.27"/>
          <path class="cls-1" d="M486.13,548.68c3.44,1.52,6.66,3.27,9.6,5.14,2.99,2.03,5.68,4.08,8.12,6.4,7.35,3.27,13.22,8.16,17.24,13.58,4.03,5.43,6.17,11.42,6.53,17.05.48-2.96.53-5.82.33-8.94-.09-1.58-.34-3.01-.62-4.58-.3-1.52-.65-3.17-1.13-4.66-3.39-5.94-8.67-11.33-15.46-15.61-6.79-4.28-15.21-7.32-24.61-8.37Z"/>
          <path class="cls-1" d="M501.51,588.42c0-1.43.05-2.92.2-4.43.18-1.43.44-2.91.77-4.42.17-.74.35-1.54.58-2.27.23-.73.47-1.46.74-2.2.54-1.46,1.15-3.02,1.87-4.47,4.43-5.31,10.62-9.82,18.2-12.89,7.58-3.06,16.56-4.54,26.1-3.83-3.76.63-7.44,1.76-10.8,3.01-1.67.58-3.35,1.41-4.92,2.17-1.59.8-3.07,1.57-4.53,2.5-7.83,2.17-14.38,6.12-19.18,10.93-4.82,4.79-7.84,10.41-9.03,15.89Z"/>
          <path class="cls-1" d="M514.38,574.16l3.24.26c.64-6.16,1.31-12.32,2.03-18.48-1.58-.13-3.17-.25-4.76-.35-.21,6.19-.39,12.37-.52,18.56Z"/>
          <path class="cls-1" d="M517.63,574.27c1.07.19,2.11.56,3.15.82,1.41-6.03,2.98-12.02,4.73-17.98-1.53-.39-3.08-.76-4.64-1.11-1.25,6.04-2.32,12.13-3.24,18.28Z"/>
          <path class="cls-1" d="M514.94,555.76c-.79-.12-1.58-.13-2.38-.16l-2.39-.07c-.12,6.19-.08,12.36.14,18.52l3.27.22c.28-6.21.74-12.37,1.36-18.51Z"/>
        </g>
      </g>
    </g>
  </g>
</svg>