<?xml version="1.0" encoding="UTF-8"?>
<svg id="Layer_2" data-name="Layer 2" xmlns="http://www.w3.org/2000/svg" viewBox="0 0 648.56 892.13">
  <defs>
    <style>
      .cls-1 {
        fill: #bfbfbf;
        stroke: #000;
        stroke-linecap: round;
        stroke-width: 2.5px;
      }
    </style>
  </defs>
  <g id="Layer_2-2" data-name="Layer 2">
    <g>
      <g>
        <g>
          <path class="cls-1" d="M627.93,349.43c-21.91-23.31-21.58-45.13-45.63-70.7l3.78-3.55c24.05,25.58,23.73,47.39,45.64,70.7"/>
          <path class="cls-1" d="M643.53,334.76c-23.31-24.79-45.89-26.64-67.13-49.23l3.78-3.55c21.24,22.59,43.83,24.44,67.14,49.23"/>
          <path class="cls-1" d="M511.27,225.36c21.91,23.31,43.71,24.32,67.76,49.9l3.78-3.55c-24.05-25.58-45.85-26.6-67.76-49.9"/>
          <path class="cls-1" d="M526.86,210.69c23.31,24.79,23.77,47.44,45.01,70.03l3.78-3.55c-21.24-22.59-21.7-45.25-45.01-70.04"/>
          <polygon class="cls-1" points="578.21 309.58 582.05 289.83 575.27 241.97 572.8 262.95 578.21 309.58"/>
          <polygon class="cls-1" points="611.34 282.76 589.91 282.73 543.72 271.42 564.18 270.73 611.34 282.76"/>
          <polygon class="cls-1" points="585.6 271.82 582.6 268.48 568.82 280.94 571.81 284.28 585.6 271.82"/>
          <polygon class="cls-1" points="582.49 268.6 579.72 265.08 565.2 276.66 567.97 280.18 582.49 268.6"/>
          <polygon class="cls-1" points="571.9 284.14 574.68 287.66 589.2 276.07 586.42 272.55 571.9 284.14"/>
        </g>
        <g>
          <path class="cls-1" d="M511.26,225.35c-21.91-23.31-21.58-45.13-45.63-70.7l3.78-3.55c24.05,25.58,23.73,47.39,45.64,70.7"/>
          <path class="cls-1" d="M526.86,210.68c-23.31-24.79-45.89-26.64-67.13-49.23l3.78-3.55c21.24,22.59,43.83,24.44,67.14,49.23"/>
          <path class="cls-1" d="M394.59,101.28c21.91,23.31,43.72,24.32,67.76,49.9l3.78-3.55c-24.05-25.58-45.85-26.6-67.76-49.9"/>
          <path class="cls-1" d="M410.19,86.61c23.31,24.79,23.77,47.44,45.01,70.03l3.78-3.55c-21.24-22.59-21.7-45.25-45.01-70.04"/>
          <polygon class="cls-1" points="461.54 185.49 465.37 165.75 458.6 117.89 456.12 138.87 461.54 185.49"/>
          <polygon class="cls-1" points="494.66 158.68 473.23 158.65 427.05 147.34 447.51 146.65 494.66 158.68"/>
          <polygon class="cls-1" points="468.92 147.74 465.93 144.4 452.14 156.86 455.14 160.19 468.92 147.74"/>
          <polygon class="cls-1" points="465.82 144.52 463.04 141 448.53 152.58 451.3 156.1 465.82 144.52"/>
          <polygon class="cls-1" points="455.22 160.06 458 163.57 472.52 151.99 469.75 148.47 455.22 160.06"/>
        </g>
        <g>
          <path class="cls-1" d="M394.59,101.27c-2.04-2.17-3.88-4.32-5.58-6.47-.85-1.07-1.65-2.14-2.43-3.21-.38-.54-.76-1.07-1.13-1.6-.2-.29-.33-.49-.47-.72l-.41-.67c-2.18-3.57-4.06-7.3-5.94-11.22-3.74-7.84-7.59-16.57-13.37-25.85-3.94-6.34-8.79-12.96-14.75-19.3l.97-6.18c6.34,6.48,11.55,13.34,15.76,20.01,6.2,9.73,10.4,18.84,14.52,27.07,2.07,4.13,4.14,8.05,6.53,11.85.31.49.57.91.95,1.45.37.53.75,1.06,1.13,1.6.77,1.07,1.58,2.14,2.43,3.21,1.69,2.15,3.54,4.3,5.58,6.47"/>
          <path class="cls-1" d="M410.18,86.6c-4.25-4.53-8.42-8.22-12.68-11.55-4.26-3.33-8.36-6.03-12.27-8.32-7.84-4.61-14.85-7.53-21.39-11.29-4.9-2.81-9.56-6.12-14.55-11.43l1.06-6.45c5.33,5.67,10.3,9.3,15.48,12.42,6.93,4.17,14.28,7.46,22.5,12.47,4.1,2.5,8.41,5.41,12.88,8.96.56.45,1.12.9,1.68,1.36.52.43,1.05.87,1.59,1.31,1.05.88,2.1,1.79,3.16,2.75,2.11,1.91,4.22,3.97,6.34,6.23"/>
          <path class="cls-1" d="M298.39,75.37c4.48-4.48,7.94-9.29,11.25-14.6,3.29-5.31,6.41-11.11,9.88-17.27,3.47-6.15,7.3-12.67,11.85-19.24.57-.81,1.15-1.63,1.74-2.46.3-.41.59-.82.89-1.23.31-.39.57-.86.97-1.16.39-.29.86-.42,1.27-.37.43.04.72.31,1.03.54.62.47,1.24.97,1.88,1.5,2.56,2.11,5.29,4.68,8.2,7.77l.77-6.26c-3.09-3.16-5.98-5.82-8.68-8.15-.67-.57-1.33-1.14-1.99-1.69-.32-.27-.63-.58-1.09-.65-.44-.09-.94.01-1.35.28-.42.27-.69.73-1.02,1.1-.32.4-.63.79-.95,1.18-.63.81-1.24,1.54-1.85,2.42-4.84,6.85-8.93,13.63-12.66,20.04-3.73,6.42-7.1,12.47-10.67,18.05-3.58,5.59-7.34,10.69-12.15,15.51"/>
          <path class="cls-1" d="M287.43,56.05c6.25-6.25,12.14-10.81,17.5-14.14,5.36-3.36,10.2-5.51,14.67-7.29,4.48-1.79,8.58-3.22,12.69-5.31.51-.26,1.03-.53,1.54-.82.26-.14.51-.3.78-.43.28-.12.65-.14,1.02-.01.37.12.73.38.99.74.25.36.51.72.76,1.09.5.7,1.02,1.41,1.53,2.13,2.06,2.8,4.19,5.41,6.48,7.85l.79-6.73c-2.45-2.61-4.73-5.38-6.93-8.32-.55-.76-1.1-1.5-1.64-2.24-.27-.38-.54-.76-.81-1.14-.28-.38-.66-.65-1.05-.77-.39-.12-.79-.1-1.09.04-.29.15-.55.33-.83.48-.55.32-1.1.63-1.64.92-2.19,1.18-4.37,2.19-6.6,3.16-2.23.98-4.51,1.86-6.86,3.04-4.69,2.22-9.81,4.44-15.49,8.01-5.65,3.58-11.85,8.48-18.46,15.08"/>
          <path class="cls-1" d="M355.08,72.28c.05-7.89-.4-16.3-1.34-25.26-1.38-4.85-2.94-9.9-4.67-15.13-.87-2.62-1.78-5.28-2.74-8-.97-2.59-2.01-4.94-3.08-7.37-1.07-2.4-2.18-4.78-3.32-7.09l-1.74-3.44c-.61-1.09-1.09-2.42-2.03-3.07-.44-.33-.89-.53-1.26-.62-.36-.08-.65-.08-.98-.13-.64-.08-1.29-.17-1.95-.27l-4.1-.66,5.58,4.22,1.29.95c.46.34,1.1.9,1.65,1.74.57.82.91,1.98,1.29,3.05l1.11,3.27.77,1.75c.25.63.5,1.36.74,2.04l1.44,4.08c.94,2.7,1.83,5.35,2.68,7.96,1.7,5.21,3.23,10.24,4.58,15.09,2.71,9.7,4.74,18.66,6.07,26.89Z"/>
          <path class="cls-1" d="M372.53,28.81c-1.48.35-2.93.73-4.33,1.15-1.41.44-2.78.92-4.11,1.42-2.66,1-5.15,2.11-7.47,3.25-5.67.27-10.67,1.26-14.99,2.97-1.08.43-2.12.9-3.12,1.41-.5.26-.99.53-1.46.81-.48.32-.88.43-1.59,1.18-.33.36-.66.84-.92,1.42-.25.59-.46,1.21-.69,1.81l-1.3,3.59c-.85,2.37-1.65,4.7-2.41,6.99.96-4.59,2.07-9.32,3.31-14.18l.96-3.68c.32-1.24.82-2.32,1.3-3.15.5-.85.87-1.38,1.21-1.94.36-.56.72-1.1,1.09-1.64,2.18-.86,4.53-1.54,7.05-2.03,1.26-.24,2.57-.44,3.92-.6l1.02-.11,1.02.02,2.09.04c5.67.1,12.21.08,19.4,1.27Z"/>
          <polygon class="cls-1" points="349.82 21.88 346.62 18.58 345.3 29.68 343.91 41.76 346.46 44.62 349.82 21.88"/>
          <polygon class="cls-1" points="346.61 18.76 343.44 15.19 342.8 19.87 342.08 25.86 340.73 37.93 343.25 41.19 344.92 29.46 345.8 23.63 346.61 18.76"/>
          <polygon class="cls-1" points="346.46 44.39 348.95 47.59 351.35 36.63 352.59 31.2 353.78 26.21 350.63 22.56 349.62 27.48 348.54 33.09 346.46 44.39"/>
        </g>
        <g>
          <path class="cls-1" d="M298.38,75.37c-4.48,4.48-8.91,7.57-13.68,10.32-.6.34-1.2.68-1.8,1.01-.7.42-1.39.83-2.08,1.24-1.41.83-2.81,1.63-4.22,2.41-2.82,1.56-5.65,3.05-8.5,4.55-11.39,6.02-23.05,12.31-35.46,24.72l-3.67-3.67c12.41-12.41,24.07-18.71,35.46-24.72,2.85-1.5,5.68-2.99,8.49-4.55,1.41-.78,2.82-1.58,4.22-2.41,1.31-.78,2.64-1.56,3.99-2.36,5.04-3.02,9.77-6.41,14.58-11.22"/>
          <path class="cls-1" d="M287.42,56.06c-6.25,6.25-11.17,12.52-15.07,18.42-3.86,5.87-6.93,11.62-9.95,17.33-6.04,11.41-11.81,22.54-22.77,33.51l-3.67-3.67c10.96-10.96,16.73-22.1,22.77-33.51,1.51-2.85,3.03-5.72,4.66-8.61.81-1.44,1.65-2.89,2.53-4.34.44-.72.89-1.45,1.34-2.18.23-.36.46-.73.7-1.1.26-.38.51-.77.77-1.16,4.18-6.19,9.41-12.77,16.02-19.38"/>
          <path class="cls-1" d="M181.49,192.26c22.62-22.62,22.96-44.44,47.79-69.27l-3.67-3.67c-24.83,24.82-25.17,46.64-47.79,69.26"/>
          <path class="cls-1" d="M166.35,177.12c24.06-24.06,46.69-25.22,68.61-47.15l-3.67-3.67c-21.93,21.93-44.56,23.08-68.62,47.14"/>
          <polygon class="cls-1" points="263.61 122.76 243.76 119.53 196.13 127.78 217.18 129.61 263.61 122.76"/>
          <polygon class="cls-1" points="235.79 90.47 236.42 111.9 226.53 158.41 225.22 137.98 235.79 90.47"/>
          <polygon class="cls-1" points="225.64 116.54 222.41 119.64 235.28 133.03 238.52 129.93 225.64 116.54"/>
          <polygon class="cls-1" points="222.52 119.74 219.09 122.62 231.11 136.78 234.55 133.9 222.52 119.74"/>
          <polygon class="cls-1" points="238.38 129.85 241.81 126.97 229.79 112.81 226.36 115.69 238.38 129.85"/>
        </g>
        <g>
          <path class="cls-1" d="M181.48,192.27c-22.62,22.62-44.44,22.96-69.27,47.79l-3.67-3.67c24.83-24.83,46.64-25.17,69.26-47.79"/>
          <path class="cls-1" d="M166.35,177.13c-24.06,24.06-25.22,46.69-47.15,68.61l-3.67-3.67c21.93-21.93,23.08-44.56,47.14-68.62"/>
          <path class="cls-1" d="M66.18,307.58c4.48-4.48,7.49-8.83,10.11-13.47,1.31-2.31,2.51-4.69,3.71-7.15.3-.62.6-1.24.9-1.86.32-.64.56-1.21.97-1.95.75-1.42,1.5-2.84,2.25-4.26,6.02-11.39,12.31-23.05,24.72-35.46l-3.67-3.67c-12.41,12.41-18.71,24.07-24.72,35.46-.75,1.42-1.5,2.84-2.26,4.26-.68,1.32-1.35,2.64-2.04,3.98-1.33,2.59-2.66,5.1-4.11,7.55-2.9,4.91-6.21,9.56-11.02,14.37"/>
          <path class="cls-1" d="M44.99,298.49c6.25-6.25,12.6-11.26,18.63-15.27,6.08-4.06,11.67-6.97,17.41-10.03,11.4-6.04,22.54-11.81,33.51-22.77l-3.67-3.67c-22.19,22.19-43.5,22.02-71.02,49.54"/>
          <polygon class="cls-1" points="143.18 243.19 123.32 239.97 75.7 248.21 96.74 250.04 143.18 243.19"/>
          <polygon class="cls-1" points="115.36 210.91 115.99 232.33 106.1 278.84 104.78 258.41 115.36 210.91"/>
          <polygon class="cls-1" points="105.21 236.97 101.97 240.07 114.85 253.47 118.09 250.37 105.21 236.97"/>
          <polygon class="cls-1" points="102.09 240.17 98.66 243.06 110.68 257.21 114.11 254.33 102.09 240.17"/>
          <polygon class="cls-1" points="117.95 250.29 121.38 247.4 109.35 233.24 105.92 236.13 117.95 250.29"/>
        </g>
        <g>
          <path class="cls-1" d="M66.17,307.58c-1.57,1.57-3.18,3.02-4.77,4.31-4.38,3.6-9.17,6.68-14.38,9.78-5.21,3.09-10.83,6.19-16.71,9.64-1.47.88-2.95,1.76-4.45,2.65-.75.46-1.5.92-2.25,1.38-.37.24-.76.46-1.12.72-.35.27-.6.6-.74.94-.14.34-.17.69-.09.96.08.27.22.5.33.75.23.5.48,1,.75,1.52.53,1.03,1.12,2.09,1.78,3.18,2.64,4.37,6.47,9.31,11.95,14.8l-5.93,1.28c-5.7-5.84-9.66-11.06-12.89-15.68-.86-1.15-1.43-2.28-2.05-3.37-.3-.55-.58-1.08-.84-1.61-.13-.27-.28-.51-.37-.8-.09-.29-.06-.66.07-1.02.14-.36.4-.72.76-1,.37-.27.78-.51,1.17-.76.79-.49,1.57-.99,2.34-1.47,1.56-.95,3.1-1.9,4.63-2.83,6.12-3.69,11.97-7.01,17.42-10.35,5.46-3.34,10.5-6.68,15.16-10.56,1.7-1.4,3.42-2.96,5.11-4.64"/>
          <path class="cls-1" d="M44.98,298.5c-2.05,2.05-3.92,4.06-5.49,5.9-4.74,5.5-7.99,10.56-10.57,15.11-2.47,4.58-4.06,8.71-5.47,12.57-.35.95-.7,1.9-1.04,2.85l-.26.7c-.09.23-.19.46-.17.77.02.61.48,1.36,1.25,1.79,2.95,1.84,5.78,3.65,8.48,5.48,5.41,3.67,10.26,7.39,14.6,11.73l-6.08,1.26c-4.64-4.64-9.76-8.63-15.42-12.55-2.83-1.96-5.78-3.89-8.85-5.84-.8-.46-1.27-1.26-1.28-1.91-.02-.33.1-.58.21-.82l.3-.75c.41-1.01.81-2.02,1.22-3.03,2.17-4.07,4.11-8.38,6.68-13.22,2.59-4.82,5.87-10.21,10.92-16.02,1.67-1.94,3.65-4.06,5.82-6.23"/>
          <path class="cls-1" d="M107.75,408.03c-5.66-5.66-11.26-9.92-16.88-13.52-2.81-1.8-5.62-3.44-8.44-5-2.59-1.27-5.14-2.52-7.72-3.77-5.31-2.62-10.98-5.61-16.9-9.52-5.91-3.9-12.1-8.75-18.11-14.75l-5.79,1.49c6.3,6.4,12.85,11.55,19.04,15.74,6.22,4.2,12.15,7.45,17.71,10.33,2.7,1.39,5.38,2.76,8.1,4.16,2.82,1.56,5.63,3.2,8.44,5,5.61,3.6,11.22,7.86,16.87,13.52"/>
          <path class="cls-1" d="M92.61,423.17c-6.02-6.02-10.6-11.94-14.44-17.79-1.91-2.92-3.67-5.85-5.26-8.69-1.58-2.84-2.98-5.58-4.3-8.24-2.64-5.32-4.91-10.28-7.64-15.02-2.74-4.75-5.91-9.26-10.64-13.99l-5.8,1.54c5.05,5.05,8.51,9.86,11.52,14.88,2.99,5.01,5.52,10.22,8.42,15.8,1.45,2.79,2.98,5.67,4.69,8.64.88,1.51,1.7,2.94,2.58,4.39.88,1.45,1.79,2.91,2.75,4.37,3.83,5.85,8.42,11.77,14.43,17.79"/>
          <path class="cls-1" d="M54.89,342.56c-5.28,2.41-10.04,5.34-14.29,8.79-3.22,9.9-3.48,22.77-.78,38.6,1.07-6.56,2.73-12.52,4.98-17.9.52-12.67,3.89-22.51,10.09-29.5Z"/>
          <path class="cls-1" d="M.65,343.6c8.45,3.72,17.51,6.99,26.8,9.57,20,7.79,37.22,12.8,51.65,15.02-6.89.36-14.34.17-22.34-.59-4.34-1.26-8.85-2.7-13.55-4.32-4.68-1.62-9.65-3.41-14.48-5.43-9.71-4.02-19.36-8.91-28.07-14.25Z"/>
          <polygon class="cls-1" points="30.33 362.03 33.46 365.39 54.15 359.88 51.61 357.2 30.33 362.03"/>
          <path class="cls-1" d="M33.62,365.34l2.85,3.45c6.95-1.75,13.86-3.58,20.67-5.49l-2.22-2.78c-7.02,1.68-14.21,3.31-21.3,4.82Z"/>
          <polygon class="cls-1" points="51.46 357.27 49.27 354.53 37.9 356.25 32.17 357.07 26.69 357.81 29.44 361.23 34.86 360.31 40.42 359.32 51.46 357.27"/>
        </g>
        <g>
          <path class="cls-1" d="M107.76,408.04c22.62,22.62,22.96,44.44,47.79,69.27l-3.67,3.67c-24.83-24.83-25.17-46.64-47.79-69.26"/>
          <path class="cls-1" d="M92.62,423.18c24.06,24.06,46.69,25.22,68.61,47.15l-3.67,3.67c-21.93-21.93-44.56-23.08-68.62-47.14"/>
          <path class="cls-1" d="M228.18,528.47c-22.62-22.62-44.44-22.96-69.27-47.79l-3.67,3.67c24.82,24.83,46.64,25.17,69.26,47.79"/>
          <path class="cls-1" d="M213.05,543.61c-24.06-24.06-25.22-46.69-47.15-68.61l-3.67,3.67c21.93,21.93,23.08,44.56,47.14,68.62"/>
          <polygon class="cls-1" points="158.68 446.35 155.45 466.2 163.7 513.83 165.53 492.78 158.68 446.35"/>
          <polygon class="cls-1" points="126.39 474.17 147.82 473.54 194.33 483.43 173.9 484.74 126.39 474.17"/>
          <polygon class="cls-1" points="152.46 484.32 155.56 487.55 168.95 474.68 165.85 471.44 152.46 484.32"/>
          <polygon class="cls-1" points="155.66 487.44 158.54 490.87 172.7 478.85 169.82 475.41 155.66 487.44"/>
          <polygon class="cls-1" points="165.77 471.58 162.89 468.15 148.73 480.17 151.61 483.6 165.77 471.58"/>
        </g>
        <g>
          <path class="cls-1" d="M228.19,528.48c22.62,22.62,22.96,44.44,47.79,69.27l-3.67,3.67c-24.83-24.83-25.17-46.64-47.79-69.26"/>
          <path class="cls-1" d="M213.05,543.61c24.06,24.06,46.69,25.22,68.61,47.15l-3.67,3.67c-21.93-21.93-44.56-23.08-68.62-47.14"/>
          <path class="cls-1" d="M348.62,648.9c-22.62-22.62-44.44-22.96-69.27-47.79l-3.67,3.67c24.83,24.82,46.64,25.17,69.26,47.79"/>
          <path class="cls-1" d="M333.48,664.04c-24.06-24.06-25.22-46.69-47.15-68.62l-3.67,3.67c21.93,21.93,23.08,44.56,47.14,68.62"/>
          <polygon class="cls-1" points="279.11 566.78 275.89 586.64 284.13 634.26 285.96 613.22 279.11 566.78"/>
          <polygon class="cls-1" points="246.83 594.6 268.25 593.97 314.76 603.86 294.33 605.18 246.83 594.6"/>
          <polygon class="cls-1" points="272.89 604.75 275.99 607.99 289.39 595.11 286.29 591.87 272.89 604.75"/>
          <polygon class="cls-1" points="276.1 607.87 278.98 611.3 293.13 599.28 290.25 595.85 276.1 607.87"/>
          <polygon class="cls-1" points="286.21 592.01 283.32 588.58 269.16 600.61 272.05 604.04 286.21 592.01"/>
        </g>
      </g>
      <g>
        <g>
          <path class="cls-1" d="M53.7,544.57c19.46,20.54,17.96,41.04,39.31,63.58l-3.77,3.57c-21.35-22.54-19.86-43.04-39.32-63.58"/>
          <path class="cls-1" d="M38.16,559.29c20.7,21.85,41.95,22.2,60.8,42.11l-3.77,3.57c-18.86-19.91-40.11-20.26-60.81-42.1"/>
          <path class="cls-1" d="M157.28,653.9c-19.46-20.54-40.01-20.15-61.37-42.69l-3.77,3.57c21.35,22.54,41.91,22.16,61.36,42.7"/>
          <path class="cls-1" d="M141.74,668.63c-20.7-21.85-19.9-43.08-38.76-62.99l-3.77,3.57c18.86,19.91,18.06,41.15,38.76,63"/>
          <polygon class="cls-1" points="98.55 578.94 93.85 597.71 97.67 642.22 101.14 622.38 98.55 578.94"/>
          <polygon class="cls-1" points="65.78 606.14 86.04 604.86 129.1 612.64 109.71 614.55 65.78 606.14"/>
          <polygon class="cls-1" points="89.52 614.84 92.17 617.78 105.88 605.24 103.23 602.3 89.52 614.84"/>
          <polygon class="cls-1" points="92.28 617.67 94.72 620.8 109.07 609.04 106.64 605.9 92.28 617.67"/>
          <polygon class="cls-1" points="103.14 602.43 100.71 599.3 86.35 611.06 88.78 614.19 103.14 602.43"/>
        </g>
        <g>
          <path class="cls-1" d="M157.29,653.91c19.46,20.54,17.96,41.04,39.31,63.58l-3.77,3.57c-21.35-22.54-19.86-43.04-39.32-63.58"/>
          <path class="cls-1" d="M141.75,668.63c20.7,21.85,41.95,22.2,60.8,42.11l-3.77,3.57c-18.86-19.91-40.11-20.26-60.81-42.1"/>
          <path class="cls-1" d="M260.87,763.24c-19.46-20.54-40.01-20.15-61.37-42.69l-3.77,3.57c21.35,22.54,41.91,22.16,61.36,42.7"/>
          <path class="cls-1" d="M245.33,777.97c-20.7-21.85-19.9-43.08-38.76-62.99l-3.77,3.57c18.86,19.91,18.06,41.15,38.76,63"/>
          <polygon class="cls-1" points="202.14 688.28 197.44 707.05 201.25 751.56 204.73 731.72 202.14 688.28"/>
          <polygon class="cls-1" points="169.37 715.48 189.63 714.2 232.68 721.99 213.3 723.89 169.37 715.48"/>
          <polygon class="cls-1" points="193.11 724.18 195.76 727.12 209.47 714.58 206.82 711.64 193.11 724.18"/>
          <polygon class="cls-1" points="195.87 727.01 198.3 730.14 212.66 718.38 210.23 715.25 195.87 727.01"/>
          <polygon class="cls-1" points="206.73 711.77 204.29 708.64 189.94 720.4 192.37 723.54 206.73 711.77"/>
        </g>
        <g>
          <path class="cls-1" d="M260.88,763.25c19.46,20.54,17.96,41.04,39.31,63.58l-3.77,3.57c-21.35-22.54-19.86-43.04-39.32-63.58"/>
          <path class="cls-1" d="M245.34,777.98c20.7,21.85,41.95,22.2,60.8,42.11l-3.77,3.57c-18.86-19.91-40.11-20.26-60.81-42.1"/>
          <path class="cls-1" d="M364.46,872.59c-19.46-20.54-40.01-20.15-61.37-42.69l-3.77,3.57c21.35,22.54,41.91,22.16,61.36,42.7"/>
          <path class="cls-1" d="M348.92,887.31c-20.7-21.85-19.91-43.08-38.76-62.99l-3.77,3.57c18.86,19.91,18.06,41.15,38.76,63"/>
          <polygon class="cls-1" points="305.73 797.62 301.03 816.4 304.84 860.91 308.32 841.06 305.73 797.62"/>
          <polygon class="cls-1" points="272.95 824.82 293.22 823.54 336.27 831.33 316.89 833.23 272.95 824.82"/>
          <polygon class="cls-1" points="296.7 833.52 299.35 836.47 313.06 823.93 310.41 820.98 296.7 833.52"/>
          <polygon class="cls-1" points="299.46 836.35 301.89 839.49 316.25 827.73 313.82 824.59 299.46 836.35"/>
          <polygon class="cls-1" points="310.32 821.12 307.88 817.98 293.53 829.75 295.96 832.88 310.32 821.12"/>
        </g>
      </g>
      <g>
        <g>
          <path class="cls-1" d="M398.52,361.43c-.03,9.48-2.98,17.64-7.18,23.94-4.24,6.33-9.64,10.92-15.37,14.38-5.76,3.45-11.87,5.81-18.35,7.54-6.5,1.71-13.37,2.84-21.3,3.21l-.23-5.18c7.1-.33,13.25-1.23,19.16-2.64,5.89-1.43,11.52-3.42,16.89-6.43,5.33-3.02,10.42-7.12,14.41-12.88,3.95-5.72,6.74-13.21,6.77-21.93"/>
          <path class="cls-1" d="M377.11,361.43c-.06,6.73-.58,12.66-1.59,18.48-1.05,5.78-2.59,11.49-5.29,16.9-2.68,5.4-6.45,10.59-11.83,14.79-5.34,4.17-12.4,7.3-20.7,7.8l-.31-5.18c7.57-.45,13.98-3.39,18.76-7.29,4.82-3.92,8.11-8.77,10.38-13.75,2.29-4.99,3.48-10.21,4.26-15.39.75-5.22,1.08-10.43,1.14-16.36"/>
          <path class="cls-1" d="M269.8,361.45c.03,9.48,2.99,17.64,7.18,23.94,4.24,6.33,9.65,10.92,15.37,14.37,5.76,3.45,11.87,5.8,18.35,7.54,6.5,1.71,13.37,2.83,21.3,3.2l.22-5.18c-7.1-.33-13.25-1.23-19.16-2.64-5.89-1.43-11.52-3.41-16.89-6.43-5.33-3.02-10.42-7.12-14.41-12.87-3.95-5.72-6.74-13.21-6.78-21.93"/>
          <path class="cls-1" d="M291.21,361.44c.06,6.73.58,12.66,1.6,18.48,1.05,5.78,2.59,11.49,5.29,16.9,2.68,5.4,6.46,10.59,11.83,14.78,5.34,4.17,12.4,7.3,20.71,7.79l.31-5.18c-7.57-.45-13.98-3.39-18.76-7.29-4.82-3.92-8.12-8.77-10.39-13.75-2.29-5-3.48-10.21-4.26-15.39-.75-5.22-1.08-10.43-1.14-16.36"/>
          <path class="cls-1" d="M363.18,428.72c-3.52-1.48-6.84-3.2-9.87-5.04-3.08-2.01-5.87-4.03-8.4-6.33-7.67-3.21-13.87-8.1-18.21-13.57-4.35-5.48-6.8-11.59-7.44-17.38-.39,3.02-.33,5.92-.03,9.1.07.81.18,1.56.32,2.32.13.76.29,1.54.46,2.32s.36,1.57.58,2.37c.21.8.44,1.6.72,2.35,3.69,6.03,9.27,11.45,16.37,15.71,7.09,4.26,15.82,7.23,25.5,8.16Z"/>
          <path class="cls-1" d="M347.95,388.91c-.05,1.45-.16,2.97-.36,4.5-.24,1.46-.55,2.95-.94,4.48-.2.75-.41,1.57-.66,2.3-.25.73-.53,1.47-.83,2.22-.6,1.48-1.26,3.05-2.05,4.51-4.75,5.38-11.27,9.88-19.18,12.9-7.9,3-17.19,4.37-27.01,3.49,3.85-.57,7.63-1.66,11.1-2.85,1.72-.56,3.45-1.37,5.08-2.11,1.64-.79,3.18-1.53,4.69-2.44,2.05-.59,4-1.18,5.87-1.89,1.88-.8,3.67-1.63,5.35-2.48,1.7-.99,3.29-2.01,4.78-3.02,1.49-1.08,2.88-2.3,4.17-3.44,5.15-4.82,8.5-10.53,9.99-16.16Z"/>
          <path class="cls-1" d="M333.87,403.45l-3.46-.28c-.64,6.16-1.33,12.32-2.05,18.48,1.65.13,3.32.25,4.98.36.22-6.19.4-12.37.54-18.56Z"/>
          <path class="cls-1" d="M330.4,403.33c-1.14-.19-2.25-.58-3.37-.85-1.43,6.02-3.03,12.02-4.8,17.97,1.6.4,3.22.78,4.86,1.15,1.27-6.04,2.37-12.12,3.31-18.27Z"/>
          <path class="cls-1" d="M333.28,421.85c.83.13,1.65.13,2.49.16l2.5.07c.15-6.19.13-12.37-.06-18.53l-3.49-.21c-.31,6.21-.79,12.38-1.44,18.51Z"/>
        </g>
        <g>
          <path class="cls-1" d="M269.8,361.43c.03-9.48,2.98-17.64,7.18-23.94,4.24-6.33,9.64-10.93,15.37-14.38,5.76-3.45,11.87-5.81,18.35-7.54,6.5-1.71,13.37-2.84,21.3-3.21l.23,5.18c-7.1.33-13.25,1.23-19.16,2.64-5.89,1.43-11.52,3.42-16.89,6.43-5.33,3.02-10.41,7.12-14.41,12.87-3.95,5.72-6.74,13.21-6.77,21.93"/>
          <path class="cls-1" d="M291.21,361.43c.06-6.73.58-12.66,1.59-18.48,1.05-5.78,2.59-11.49,5.29-16.9,2.68-5.4,6.46-10.59,11.83-14.79,5.34-4.17,12.4-7.3,20.7-7.8l.31,5.18c-7.57.45-13.98,3.39-18.76,7.29-4.82,3.92-8.11,8.77-10.38,13.75-2.29,5-3.48,10.21-4.26,15.39-.75,5.22-1.08,10.43-1.14,16.36"/>
          <path class="cls-1" d="M398.52,361.42c-.03-9.48-2.99-17.64-7.18-23.94-4.24-6.33-9.65-10.92-15.37-14.37-5.76-3.45-11.87-5.8-18.35-7.54-6.5-1.71-13.37-2.83-21.3-3.2l-.22,5.18c7.1.33,13.25,1.23,19.16,2.64,5.89,1.43,11.52,3.41,16.89,6.43,5.33,3.02,10.42,7.12,14.41,12.87,3.95,5.72,6.74,13.21,6.78,21.93"/>
          <path class="cls-1" d="M377.11,361.42c-.06-6.73-.58-12.66-1.6-18.48-1.05-5.78-2.59-11.49-5.29-16.9-2.68-5.4-6.46-10.59-11.83-14.78-5.34-4.17-12.4-7.3-20.71-7.79l-.31,5.18c7.57.45,13.98,3.39,18.76,7.29,4.82,3.92,8.12,8.77,10.39,13.75,2.29,5,3.48,10.21,4.26,15.39.75,5.22,1.08,10.43,1.14,16.36"/>
          <path class="cls-1" d="M305.14,294.15c3.52,1.48,6.84,3.2,9.87,5.04,3.08,2.01,5.87,4.03,8.4,6.33,7.67,3.21,13.87,8.1,18.21,13.57,4.35,5.48,6.8,11.59,7.44,17.38.39-3.02.33-5.92.03-9.1-.07-.8-.18-1.56-.32-2.32-.13-.76-.29-1.54-.46-2.32s-.36-1.57-.58-2.37c-.21-.8-.44-1.6-.72-2.35-3.69-6.03-9.28-11.45-16.37-15.71-7.09-4.26-15.82-7.23-25.5-8.16Z"/>
          <path class="cls-1" d="M320.38,333.95c.05-1.45.16-2.97.36-4.5.24-1.45.55-2.95.94-4.48.2-.75.41-1.57.66-2.3.25-.73.53-1.47.83-2.22.6-1.48,1.26-3.05,2.05-4.51,4.75-5.38,11.27-9.88,19.18-12.9,7.9-3,17.19-4.37,27.01-3.49-3.85.57-7.63,1.66-11.1,2.85-1.72.56-3.45,1.37-5.08,2.11-1.64.78-3.18,1.53-4.69,2.45-2.05.59-4,1.18-5.87,1.89-1.88.8-3.67,1.63-5.35,2.48-1.7.99-3.29,2.01-4.78,3.02-1.49,1.08-2.88,2.3-4.17,3.44-5.15,4.82-8.5,10.53-9.99,16.16Z"/>
          <path class="cls-1" d="M334.46,319.41l3.46.28c.64-6.16,1.33-12.32,2.05-18.48-1.65-.13-3.32-.25-4.98-.36-.22,6.19-.4,12.37-.54,18.56Z"/>
          <path class="cls-1" d="M337.93,319.53c1.14.19,2.25.58,3.37.85,1.43-6.02,3.03-12.02,4.8-17.97-1.6-.4-3.22-.78-4.86-1.15-1.27,6.04-2.37,12.12-3.31,18.27Z"/>
          <path class="cls-1" d="M335.04,301.01c-.83-.13-1.65-.13-2.49-.16l-2.5-.07c-.15,6.19-.13,12.37.06,18.53l3.49.21c.31-6.21.79-12.37,1.44-18.51Z"/>
        </g>
      </g>
    </g>
  </g>
</svg>