<?xml version="1.0" encoding="UTF-8"?>
<svg id="Layer_2" data-name="Layer 2" xmlns="http://www.w3.org/2000/svg" viewBox="0 0 643.68 847.38">
  <defs>
    <style>
      .cls-1 {
        fill: #bfbfbf;
        stroke: #000;
        stroke-linecap: round;
        stroke-width: 2.5px;
      }
    </style>
  </defs>
  <g id="Layer_2-2" data-name="Layer 2">
    <g>
      <g>
        <g>
          <path class="cls-1" d="M339.77,18.31c-20.2,24.17-41.74,26.27-63.91,52.79l-3.98-3.33c22.17-26.52,43.71-28.63,63.91-52.79"/>
          <path class="cls-1" d="M323.35,4.58c-21.49,25.71-20.45,48.15-40.03,71.57l-3.98-3.33c19.58-23.43,18.54-45.87,40.03-71.58"/>
          <path class="cls-1" d="M232.25,146.97c20.2-24.17,18.44-45.75,40.6-72.27l-3.98-3.33c-22.17,26.52-20.41,48.1-40.61,72.27"/>
          <path class="cls-1" d="M215.82,133.24c21.49-25.71,43.75-28.68,63.33-52.1l-3.98-3.33c-19.58,23.43-41.85,26.39-63.33,52.1"/>
          <polygon class="cls-1" points="306.79 71.7 286.84 70.11 240.53 82.1 261.52 82.21 306.79 71.7"/>
          <polygon class="cls-1" points="276.17 42.06 278.85 63.16 273.54 109.9 270.27 89.83 276.17 42.06"/>
          <polygon class="cls-1" points="268.64 68.62 265.73 71.94 279.76 84.13 282.66 80.81 268.64 68.62"/>
          <polygon class="cls-1" points="265.86 72.03 262.74 75.16 275.99 88.17 279.11 85.05 265.86 72.03"/>
          <polygon class="cls-1" points="282.51 80.74 285.63 77.61 272.38 64.6 269.26 67.73 282.51 80.74"/>
        </g>
        <g>
          <path class="cls-1" d="M232.24,146.98c-20.2,24.17-41.74,26.27-63.91,52.79l-3.98-3.33c22.17-26.52,43.71-28.63,63.91-52.79"/>
          <path class="cls-1" d="M215.82,133.25c-21.49,25.71-20.45,48.15-40.03,71.57l-3.98-3.33c19.58-23.43,18.54-45.87,40.03-71.58"/>
          <path class="cls-1" d="M124.72,275.64c20.2-24.17,18.44-45.75,40.6-72.27l-3.98-3.33c-22.17,26.52-20.41,48.1-40.61,72.27"/>
          <path class="cls-1" d="M108.29,261.91c21.49-25.71,43.75-28.68,63.33-52.1l-3.98-3.33c-19.58,23.43-41.85,26.39-63.33,52.1"/>
          <polygon class="cls-1" points="199.25 200.37 179.31 198.78 133 210.77 153.99 210.88 199.25 200.37"/>
          <polygon class="cls-1" points="168.64 170.73 171.32 191.83 166.01 238.57 162.74 218.5 168.64 170.73"/>
          <polygon class="cls-1" points="161.11 197.29 158.2 200.61 172.22 212.8 175.13 209.48 161.11 197.29"/>
          <polygon class="cls-1" points="158.33 200.7 155.21 203.83 168.46 216.84 171.58 213.72 158.33 200.7"/>
          <polygon class="cls-1" points="174.98 209.41 178.1 206.28 164.85 193.27 161.73 196.4 174.98 209.41"/>
        </g>
        <g>
          <path class="cls-1" d="M124.71,275.65c-20.2,24.17-41.74,26.27-63.91,52.79l-3.98-3.33c22.17-26.52,43.71-28.63,63.91-52.79"/>
          <path class="cls-1" d="M108.28,261.92c-21.49,25.71-20.45,48.15-40.03,71.57l-3.98-3.33c19.58-23.43,18.54-45.87,40.03-71.58"/>
          <path class="cls-1" d="M32.01,395.89c-.77-1.36-1.31-2.84-1.48-4.33-.17-1.48-.05-2.95.33-4.24.36-1.31,1.06-2.35,1.58-3.46.54-1.1,1.03-2.2,1.49-3.3,1.83-4.4,3.12-8.91,4.73-13.81,1.61-4.89,3.55-10.17,6.49-15.91.74-1.44,1.53-2.9,2.4-4.39.88-1.51,1.9-3.12,2.95-4.69,2.11-3.18,4.51-6.41,7.28-9.73l-3.98-3.33c-5.53,6.62-9.6,12.97-12.85,19.08-3.2,6.05-5.38,11.61-7.22,16.77-1.85,5.17-3.37,9.95-5.44,14.65-.52,1.18-1.07,2.35-1.68,3.52-.58,1.19-1.35,2.3-1.76,3.7-.43,1.38-.57,2.95-.4,4.55.18,1.6.75,3.19,1.58,4.65"/>
          <path class="cls-1" d="M7.83,394.86c-1-1.88-1.51-3.94-1.37-5.96.12-2.02.8-3.96,1.93-5.58.56-.82,1.24-1.54,1.95-2.22.7-.69,1.41-1.37,2.11-2.03,1.42-1.33,2.85-2.6,4.29-3.81,2.87-2.44,5.83-4.65,8.7-6.7,2.87-2.05,5.69-3.94,8.43-5.74,5.48-3.6,10.64-6.81,15.41-10.31,1.2-.88,2.36-1.75,3.53-2.71,1.28-1.08,2.55-2.21,3.81-3.39,2.52-2.37,5.01-4.98,7.46-7.91l-3.98-3.33c-10.02,11.99-19.57,17.49-31.1,25.37-5.71,3.86-11.77,8.15-17.53,13.38-1.44,1.31-2.87,2.66-4.27,4.08-.7.71-1.4,1.43-2.08,2.17-.69.73-1.36,1.49-1.91,2.36-1.11,1.71-1.8,3.76-1.93,5.87-.15,2.12.31,4.28,1.26,6.25"/>
          <path class="cls-1" d="M91.72,329.04l-19.95-1.58-23.15,5.99-11.58,3c-4.05,1.23-8.34,2.75-12.76,4.41,3.96-.54,7.8-.92,11.5-1.15,3.74-.27,7.17-.17,10.68-.16l45.27-10.51Z"/>
          <path class="cls-1" d="M61.11,299.4l2.68,21.11-2.65,23.37-1.33,11.68c-.04,3.41.18,6.51.5,9.49-1.15-2.62-2.17-5.4-3.07-8.32l-.65-2.22-.31-1.13c-.11-.37-.2-.76-.25-1.19l-.82-5.02,5.89-47.77Z"/>
          <polygon class="cls-1" points="53.57 325.96 50.67 329.28 64.69 341.47 67.6 338.15 53.57 325.96"/>
          <polygon class="cls-1" points="50.79 329.37 47.68 332.5 60.93 345.51 64.05 342.39 50.79 329.37"/>
          <polygon class="cls-1" points="67.45 338.08 70.57 334.95 57.31 321.94 54.2 325.07 67.45 338.08"/>
        </g>
        <g>
          <path class="cls-1" d="M32.02,395.9c2.85,5.54,4.28,10.39,5.21,15.31.93,4.91,1.35,9.87,2,15.29.32,2.7.71,5.52,1.22,8.46l.21,1.12c.09.4.17.8.26,1.21.18.81.36,1.62.55,2.44.38,1.63.8,3.29,1.26,4.96,1.85,6.7,4.41,13.75,8.37,21.43l-4.61,2.38c-3.96-7.68-6.52-14.74-8.37-21.43-.92-3.34-1.68-6.63-2.3-9.78-.6-3.11-1.07-6.09-1.47-8.95-.82-5.73-1.4-11.01-2.5-16.26-1.11-5.26-2.72-10.47-5.79-16.43"/>
          <path class="cls-1" d="M7.83,394.87c3.69,7.7,8.08,14.46,12.67,20.25,4.59,5.81,9.24,10.69,13.65,15.11,2.22,2.23,4.33,4.27,6.45,6.44,2.19,2.3,4.34,4.67,6.43,7.17,4.18,5.01,8.12,10.58,11.61,17.37l-4.61,2.38c-3.49-6.79-7.43-12.36-11.61-17.37-2.09-2.5-4.24-4.87-6.43-7.17-2.24-2.31-4.45-4.59-6.68-6.89-4.57-4.74-9.4-9.94-14.16-16.11-4.75-6.15-9.13-13.33-12.61-21.4"/>
          <path class="cls-1" d="M104.06,535.79c-14.42-28-34.99-34.77-50.81-65.5l-4.61,2.38c15.82,30.73,36.39,37.5,50.81,65.5"/>
          <path class="cls-1" d="M85.02,545.59c-15.34-29.79-9.42-51.46-23.4-78.6l-4.61,2.38c13.98,27.14,8.05,48.81,23.39,78.6"/>
          <polygon class="cls-1" points="63.66 437.86 54.45 455.62 47.5 502.95 55.76 483.65 63.66 437.86"/>
          <polygon class="cls-1" points="24.45 454.55 44.94 460.29 85.95 483.34 66.18 478.55 24.45 454.55"/>
          <polygon class="cls-1" points="46 471.82 47.93 475.78 64.61 467.6 62.68 463.63 46 471.82"/>
          <polygon class="cls-1" points="48.07 475.7 49.74 479.79 66.87 472.64 65.21 468.55 48.07 475.7"/>
          <polygon class="cls-1" points="62.56 463.74 60.89 459.65 43.75 466.81 45.42 470.89 62.56 463.74"/>
        </g>
        <g>
          <path class="cls-1" d="M104.06,535.8c14.42,28,7.98,48.67,23.81,79.4l-4.61,2.38c-15.83-30.73-9.39-51.4-23.81-79.4"/>
          <path class="cls-1" d="M85.03,545.6c15.34,29.79,36.42,37.56,50.39,64.7l-4.61,2.38c-13.98-27.14-35.06-34.91-50.4-64.69"/>
          <path class="cls-1" d="M180.83,684.87c-14.42-28-34.99-34.77-50.81-65.5l-4.61,2.38c15.82,30.73,36.39,37.5,50.81,65.5"/>
          <path class="cls-1" d="M161.8,694.67c-15.34-29.79-9.42-51.46-23.4-78.6l-4.61,2.38c13.98,27.14,8.05,48.81,23.39,78.6"/>
          <polygon class="cls-1" points="140.43 586.94 131.22 604.71 124.27 652.03 132.53 632.74 140.43 586.94"/>
          <polygon class="cls-1" points="101.23 603.63 121.71 609.37 162.72 632.42 142.95 627.63 101.23 603.63"/>
          <polygon class="cls-1" points="122.77 620.9 124.71 624.86 141.39 616.68 139.46 612.71 122.77 620.9"/>
          <polygon class="cls-1" points="124.84 624.78 126.51 628.87 143.64 621.72 141.98 617.63 124.84 624.78"/>
          <polygon class="cls-1" points="139.34 612.82 137.66 608.73 120.53 615.89 122.19 619.98 139.34 612.82"/>
        </g>
        <g>
          <path class="cls-1" d="M180.83,684.88c14.42,28,7.98,48.67,23.81,79.4l-4.61,2.38c-15.83-30.73-9.39-51.4-23.81-79.4"/>
          <path class="cls-1" d="M161.8,694.68c15.34,29.79,36.42,37.56,50.39,64.7l-4.61,2.38c-13.98-27.14-35.06-34.91-50.4-64.69"/>
          <path class="cls-1" d="M257.6,833.95c-14.42-28-34.99-34.77-50.81-65.5l-4.61,2.38c15.82,30.73,36.39,37.5,50.81,65.5"/>
          <path class="cls-1" d="M238.57,843.75c-15.34-29.79-9.42-51.46-23.4-78.6l-4.61,2.38c13.98,27.14,8.05,48.81,23.39,78.6"/>
          <polygon class="cls-1" points="217.21 736.02 208 753.79 201.05 801.11 209.3 781.82 217.21 736.02"/>
          <polygon class="cls-1" points="178 752.72 198.49 758.45 239.49 781.5 219.72 776.71 178 752.72"/>
          <polygon class="cls-1" points="199.55 769.98 201.48 773.94 218.16 765.76 216.23 761.79 199.55 769.98"/>
          <polygon class="cls-1" points="201.61 773.86 203.28 777.95 220.41 770.8 218.75 766.71 201.61 773.86"/>
          <polygon class="cls-1" points="216.11 761.9 214.44 757.81 197.3 764.97 198.97 769.06 216.11 761.9"/>
        </g>
      </g>
      <g>
        <g>
          <path class="cls-1" d="M483.21,18.31c-20.19,24.16-41.74,26.26-63.9,52.78l-3.98-3.33c22.16-26.52,43.7-28.62,63.9-52.78"/>
          <path class="cls-1" d="M466.79,4.58c-21.48,25.7-20.45,48.14-40.02,71.56l-3.98-3.33c19.57-23.42,18.53-45.86,40.02-71.57"/>
          <path class="cls-1" d="M375.71,146.95c20.19-24.16,18.43-45.74,40.59-72.26l-3.98-3.33c-22.16,26.52-20.41,48.09-40.6,72.25"/>
          <path class="cls-1" d="M359.28,133.22c21.48-25.71,43.75-28.67,63.32-52.09l-3.98-3.33c-19.57,23.42-41.84,26.38-63.32,52.09"/>
          <polygon class="cls-1" points="450.23 71.69 430.29 70.1 383.98 82.08 404.97 82.19 450.23 71.69"/>
          <polygon class="cls-1" points="419.61 42.05 422.29 63.15 416.99 109.88 413.72 89.81 419.61 42.05"/>
          <polygon class="cls-1" points="412.08 68.61 409.18 71.93 423.2 84.12 426.11 80.8 412.08 68.61"/>
          <polygon class="cls-1" points="409.31 72.02 406.19 75.14 419.44 88.15 422.56 85.03 409.31 72.02"/>
          <polygon class="cls-1" points="425.96 80.73 429.08 77.6 415.82 64.59 412.71 67.71 425.96 80.73"/>
        </g>
        <g>
          <path class="cls-1" d="M375.7,146.96c-20.19,24.16-41.74,26.26-63.9,52.78l-3.98-3.33c22.16-26.52,43.7-28.62,63.9-52.78"/>
          <path class="cls-1" d="M359.27,133.23c-21.48,25.7-20.45,48.14-40.02,71.56l-3.98-3.33c19.57-23.42,18.53-45.86,40.02-71.57"/>
          <path class="cls-1" d="M268.19,275.6c20.19-24.16,18.43-45.74,40.59-72.26l-3.98-3.33c-22.16,26.52-20.41,48.09-40.6,72.25"/>
          <path class="cls-1" d="M251.77,261.87c21.48-25.71,43.75-28.67,63.32-52.09l-3.98-3.33c-19.57,23.42-41.84,26.38-63.32,52.09"/>
          <polygon class="cls-1" points="342.72 200.33 322.77 198.75 276.47 210.73 297.46 210.84 342.72 200.33"/>
          <polygon class="cls-1" points="312.1 170.7 314.78 191.8 309.48 238.53 306.21 218.46 312.1 170.7"/>
          <polygon class="cls-1" points="304.57 197.26 301.67 200.58 315.69 212.76 318.59 209.45 304.57 197.26"/>
          <polygon class="cls-1" points="301.79 200.67 298.68 203.79 311.93 216.8 315.05 213.68 301.79 200.67"/>
          <polygon class="cls-1" points="318.45 209.38 321.56 206.25 308.31 193.24 305.19 196.36 318.45 209.38"/>
        </g>
        <g>
          <path class="cls-1" d="M268.19,275.61c-20.19,24.16-41.74,26.26-63.9,52.78l-3.98-3.33c22.16-26.52,43.7-28.62,63.9-52.78"/>
          <path class="cls-1" d="M251.76,261.88c-21.48,25.7-20.45,48.14-40.02,71.56l-3.98-3.33c19.57-23.42,18.53-45.86,40.02-71.57"/>
          <path class="cls-1" d="M175.48,395.95c-1.49-2.75-1.73-5.98-1.06-8.59.15-.66.4-1.27.65-1.85.27-.57.57-1.11.83-1.66.54-1.09,1.03-2.19,1.49-3.28,1.82-4.38,3.11-8.87,4.72-13.74,1.61-4.9,3.55-10.2,6.5-15.97.74-1.44,1.54-2.91,2.4-4.4.88-1.51,1.9-3.13,2.95-4.71,2.12-3.19,4.52-6.44,7.31-9.77l-3.98-3.33c-5.56,6.65-9.64,13.02-12.89,19.15-3.21,6.08-5.38,11.65-7.22,16.83-1.83,5.14-3.35,9.9-5.42,14.57-.52,1.17-1.07,2.34-1.67,3.51-.3.59-.63,1.16-.93,1.77-.28.62-.55,1.27-.73,1.98-.76,2.79-.52,6.26,1.08,9.22"/>
          <path class="cls-1" d="M151.31,394.94c-1.84-3.62-1.53-7.86.33-11.09.89-1.66,2.29-2.94,3.62-4.22,1.34-1.27,2.68-2.49,4.04-3.67,2.71-2.35,5.48-4.49,8.22-6.48,2.73-1.99,5.42-3.82,8.04-5.56,11.88-8,21.25-12.64,32-25.51l-3.98-3.33c-2.58,3.08-5.2,5.81-7.87,8.29-1.32,1.23-2.69,2.43-4,3.51-1.29,1.04-2.59,2.05-3.93,3.04-5.33,3.95-11.06,7.62-17.16,11.81-5.46,3.73-11.16,7.92-16.58,12.95-1.37,1.26-2.69,2.56-4.01,3.92-1.31,1.36-2.68,2.72-3.56,4.47-1.84,3.41-2.18,7.84-.45,11.63"/>
          <path class="cls-1" d="M235.21,328.98l-19.95-1.58-23.15,5.99-11.58,3c-4.04,1.21-8.34,2.74-12.75,4.4,3.96-.54,7.79-.92,11.49-1.14,3.74-.27,7.16-.16,10.67-.16l45.26-10.51Z"/>
          <path class="cls-1" d="M204.59,299.34l2.68,21.11-2.65,23.37-1.32,11.68-.04.36v.31s.01.62.01.62l.03,1.23.1,2.4c.09,1.58.22,3.11.38,4.59-1.15-2.62-2.17-5.4-3.07-8.32l-.65-2.22c-.19-.77-.45-1.46-.55-2.34l-.82-5.02,5.89-47.77Z"/>
          <polygon class="cls-1" points="197.06 325.9 194.15 329.22 208.18 341.41 211.08 338.09 197.06 325.9"/>
          <polygon class="cls-1" points="194.28 329.32 191.16 332.44 204.41 345.45 207.53 342.33 194.28 329.32"/>
          <polygon class="cls-1" points="210.94 338.03 214.05 334.9 200.8 321.89 197.68 325.01 210.94 338.03"/>
        </g>
        <g>
          <path class="cls-1" d="M175.49,395.96c2.85,5.54,4.28,10.39,5.21,15.31.93,4.91,1.35,9.87,2,15.29.33,2.7.71,5.52,1.22,8.46.12.71.29,1.53.47,2.34.18.81.36,1.62.55,2.44.38,1.63.8,3.29,1.26,4.96,1.85,6.7,4.41,13.75,8.37,21.43l-4.61,2.38c-3.96-7.68-6.52-14.73-8.37-21.43-.92-3.34-1.68-6.63-2.3-9.78-.6-3.11-1.07-6.09-1.47-8.95-.82-5.73-1.4-11.01-2.5-16.26-1.11-5.26-2.72-10.47-5.79-16.43"/>
          <path class="cls-1" d="M151.32,394.95c3.69,7.7,8.07,14.46,12.67,20.25,4.59,5.8,9.23,10.68,13.64,15.1,2.22,2.24,4.33,4.26,6.45,6.45,2.19,2.3,4.34,4.67,6.43,7.17,4.18,5.01,8.12,10.58,11.61,17.37l-4.61,2.38c-3.49-6.78-7.43-12.36-11.61-17.37-2.09-2.5-4.24-4.87-6.43-7.17-2.24-2.31-4.45-4.59-6.68-6.89-4.57-4.74-9.4-9.94-14.15-16.1-4.75-6.15-9.11-13.33-12.6-21.4"/>
          <path class="cls-1" d="M247.52,535.84c-14.42-28-34.98-34.76-50.81-65.48l-4.61,2.38c15.82,30.72,36.38,37.49,50.8,65.49"/>
          <path class="cls-1" d="M228.49,545.64c-15.34-29.78-9.42-51.45-23.39-78.59l-4.61,2.38c13.97,27.14,8.05,48.81,23.39,78.59"/>
          <polygon class="cls-1" points="207.13 437.93 197.92 455.69 190.97 503.01 199.23 483.72 207.13 437.93"/>
          <polygon class="cls-1" points="167.93 454.62 188.42 460.35 229.41 483.4 209.65 478.61 167.93 454.62"/>
          <polygon class="cls-1" points="189.47 471.88 191.4 475.85 208.08 467.66 206.15 463.7 189.47 471.88"/>
          <polygon class="cls-1" points="191.54 475.77 193.21 479.85 210.34 472.7 208.68 468.61 191.54 475.77"/>
          <polygon class="cls-1" points="206.04 463.81 204.36 459.72 187.23 466.87 188.89 470.96 206.04 463.81"/>
        </g>
        <g>
          <path class="cls-1" d="M247.53,535.85c14.42,28,7.98,48.66,23.8,79.39l-4.61,2.38c-15.82-30.73-9.39-51.39-23.81-79.39"/>
          <path class="cls-1" d="M228.49,545.65c15.34,29.78,36.41,37.55,50.39,64.69l-4.61,2.38c-13.97-27.14-35.06-34.9-50.39-64.68"/>
          <path class="cls-1" d="M324.28,684.9c-14.42-28-34.98-34.76-50.81-65.48l-4.61,2.38c15.82,30.72,36.38,37.49,50.8,65.49"/>
          <path class="cls-1" d="M305.25,694.7c-15.34-29.78-9.42-51.45-23.39-78.59l-4.61,2.38c13.97,27.14,8.05,48.81,23.39,78.59"/>
          <polygon class="cls-1" points="283.89 586.98 274.68 604.75 267.73 652.07 275.99 632.77 283.89 586.98"/>
          <polygon class="cls-1" points="244.69 603.68 265.17 609.41 306.17 632.45 286.41 627.67 244.69 603.68"/>
          <polygon class="cls-1" points="266.23 620.94 268.16 624.9 284.84 616.72 282.91 612.75 266.23 620.94"/>
          <polygon class="cls-1" points="268.3 624.82 269.97 628.91 287.1 621.75 285.44 617.67 268.3 624.82"/>
          <polygon class="cls-1" points="282.79 612.86 281.12 608.77 263.98 615.93 265.65 620.01 282.79 612.86"/>
        </g>
        <g>
          <path class="cls-1" d="M324.29,684.91c14.42,28,7.98,48.66,23.8,79.39l-4.61,2.38c-15.82-30.73-9.39-51.39-23.81-79.39"/>
          <path class="cls-1" d="M305.25,694.71c15.34,29.78,36.41,37.55,50.39,64.69l-4.61,2.38c-13.97-27.14-35.06-34.9-50.39-64.68"/>
          <path class="cls-1" d="M401.04,833.95c-14.42-28-34.98-34.76-50.81-65.48l-4.61,2.38c15.82,30.72,36.38,37.49,50.8,65.49"/>
          <path class="cls-1" d="M382.01,843.75c-15.34-29.78-9.42-51.45-23.39-78.59l-4.61,2.38c13.97,27.14,8.05,48.81,23.39,78.59"/>
          <polygon class="cls-1" points="360.65 736.04 351.44 753.8 344.49 801.12 352.75 781.83 360.65 736.04"/>
          <polygon class="cls-1" points="321.44 752.73 341.93 758.46 382.93 781.51 363.17 776.72 321.44 752.73"/>
          <polygon class="cls-1" points="342.99 769.99 344.92 773.96 361.6 765.77 359.67 761.81 342.99 769.99"/>
          <polygon class="cls-1" points="345.06 773.88 346.72 777.96 363.86 770.81 362.2 766.72 345.06 773.88"/>
          <polygon class="cls-1" points="359.55 761.92 357.88 757.83 340.74 764.98 342.41 769.07 359.55 761.92"/>
        </g>
      </g>
      <g>
        <g>
          <path class="cls-1" d="M642.43,18.31c-20.19,24.16-41.74,26.26-63.9,52.77l-3.98-3.33c22.16-26.52,43.7-28.62,63.89-52.78"/>
          <path class="cls-1" d="M626.01,4.58c-21.48,25.7-20.45,48.14-40.02,71.56l-3.98-3.33c19.57-23.42,18.53-45.86,40.01-71.56"/>
          <path class="cls-1" d="M534.94,146.94c20.19-24.16,18.43-45.74,40.59-72.25l-3.98-3.33c-22.16,26.52-20.4,48.09-40.6,72.25"/>
          <path class="cls-1" d="M518.51,133.21c21.48-25.7,43.74-28.67,63.32-52.09l-3.98-3.33c-19.57,23.42-41.84,26.38-63.32,52.08"/>
          <polygon class="cls-1" points="609.45 71.68 589.51 70.1 543.21 82.08 564.19 82.19 609.45 71.68"/>
          <polygon class="cls-1" points="578.84 42.04 581.52 63.15 576.22 109.88 572.95 89.81 578.84 42.04"/>
          <polygon class="cls-1" points="571.31 68.6 568.4 71.92 582.43 84.11 585.33 80.79 571.31 68.6"/>
          <polygon class="cls-1" points="568.53 72.02 565.41 75.14 578.66 88.15 581.78 85.03 568.53 72.02"/>
          <polygon class="cls-1" points="585.18 80.73 588.3 77.6 575.05 64.59 571.93 67.71 585.18 80.73"/>
        </g>
        <g>
          <path class="cls-1" d="M534.93,146.95c-20.19,24.16-41.74,26.26-63.9,52.77l-3.98-3.33c22.16-26.52,43.7-28.62,63.89-52.78"/>
          <path class="cls-1" d="M518.5,133.22c-21.48,25.7-20.45,48.14-40.02,71.56l-3.98-3.33c19.57-23.42,18.53-45.86,40.01-71.56"/>
          <path class="cls-1" d="M427.43,275.58c20.19-24.16,18.43-45.74,40.59-72.25l-3.98-3.33c-22.16,26.52-20.4,48.09-40.6,72.25"/>
          <path class="cls-1" d="M411,261.85c21.48-25.7,43.74-28.67,63.32-52.09l-3.98-3.33c-19.57,23.42-41.84,26.38-63.32,52.08"/>
          <polygon class="cls-1" points="501.95 200.32 482 198.74 435.7 210.72 456.69 210.83 501.95 200.32"/>
          <polygon class="cls-1" points="471.33 170.68 474.01 191.79 468.71 238.52 465.44 218.45 471.33 170.68"/>
          <polygon class="cls-1" points="463.8 197.24 460.9 200.56 474.92 212.75 477.83 209.43 463.8 197.24"/>
          <polygon class="cls-1" points="461.02 200.65 457.91 203.78 471.16 216.79 474.28 213.67 461.02 200.65"/>
          <polygon class="cls-1" points="477.68 209.36 480.8 206.24 467.54 193.22 464.43 196.35 477.68 209.36"/>
        </g>
        <g>
          <path class="cls-1" d="M427.42,275.59c-20.19,24.16-41.74,26.26-63.9,52.77l-3.98-3.33c22.16-26.52,43.7-28.62,63.89-52.78"/>
          <path class="cls-1" d="M411,261.86c-21.48,25.7-20.45,48.14-40.02,71.56l-3.98-3.33c19.57-23.42,18.53-45.86,40.01-71.56"/>
          <path class="cls-1" d="M334.72,395.98c-1.43-2.79-1.66-6.01-1.01-8.63.16-.66.38-1.28.63-1.87.27-.58.56-1.12.83-1.67.54-1.1,1.03-2.19,1.49-3.29,1.82-4.4,3.12-8.9,4.73-13.79,1.61-4.89,3.55-10.17,6.49-15.93.74-1.44,1.53-2.9,2.4-4.39.89-1.51,1.9-3.12,2.95-4.7,2.11-3.18,4.51-6.42,7.29-9.74l-3.98-3.33c-5.54,6.63-9.61,12.98-12.86,19.09-3.21,6.06-5.38,11.62-7.22,16.79-1.85,5.16-3.37,9.94-5.43,14.63-.52,1.17-1.07,2.34-1.68,3.52-.3.59-.63,1.17-.92,1.79-.27.63-.52,1.3-.7,2-.73,2.81-.51,6.27,1.03,9.27"/>
          <path class="cls-1" d="M310.55,394.97c-1.76-3.67-1.44-7.9.4-11.15.44-.83,1.01-1.58,1.62-2.28.63-.69,1.31-1.33,1.98-1.97,1.34-1.28,2.69-2.5,4.06-3.68,2.72-2.35,5.5-4.5,8.25-6.49,2.74-1.99,5.44-3.83,8.06-5.57,5.83-3.87,11.3-7.24,16.36-10.89,1.26-.91,2.5-1.84,3.72-2.81,1.27-1.03,2.66-2.27,3.97-3.48,2.65-2.47,5.27-5.19,7.84-8.26l-3.98-3.33c-2.57,3.07-5.19,5.8-7.84,8.26-1.32,1.22-2.68,2.43-3.99,3.5-1.28,1.04-2.59,2.05-3.91,3.04-5.31,3.94-11.02,7.6-17.1,11.76-5.47,3.74-11.19,7.93-16.63,12.98-1.37,1.26-2.7,2.57-4.03,3.93-.66.69-1.33,1.36-1.95,2.1-.6.75-1.16,1.54-1.6,2.41-1.82,3.43-2.18,7.85-.51,11.7"/>
          <path class="cls-1" d="M394.44,328.96l-19.95-1.58-23.15,5.99-11.58,2.99c-4.03,1.21-8.34,2.74-12.75,4.4,3.96-.54,7.79-.92,11.49-1.14,3.74-.27,7.16-.16,10.67-.15l45.26-10.51Z"/>
          <path class="cls-1" d="M363.83,299.32l2.68,21.1-2.65,23.36-1.32,11.68c-.08.52-.02.87-.03,1.3l.03,1.23.1,2.4c.09,1.58.22,3.11.38,4.59-1.15-2.63-2.17-5.4-3.06-8.33l-.65-2.22c-.2-.76-.44-1.47-.55-2.34l-.82-5.02,5.89-47.76Z"/>
          <polygon class="cls-1" points="356.3 325.88 353.39 329.2 367.42 341.39 370.32 338.07 356.3 325.88"/>
          <polygon class="cls-1" points="353.52 329.29 350.4 332.42 363.65 345.43 366.77 342.31 353.52 329.29"/>
          <polygon class="cls-1" points="370.17 338 373.29 334.88 360.04 321.86 356.92 324.99 370.17 338"/>
        </g>
        <g>
          <path class="cls-1" d="M334.72,395.98c2.85,5.54,4.28,10.39,5.21,15.31.93,4.91,1.35,9.87,2,15.29.32,2.7.71,5.52,1.22,8.47.12.71.29,1.53.47,2.34.18.81.36,1.62.55,2.44.38,1.63.8,3.29,1.26,4.96,1.85,6.7,4.41,13.75,8.37,21.43l-4.61,2.38c-3.96-7.68-6.52-14.73-8.37-21.43-.92-3.34-1.68-6.63-2.3-9.78-.6-3.11-1.07-6.09-1.47-8.95-.82-5.73-1.4-11.01-2.5-16.26-1.11-5.26-2.73-10.47-5.79-16.43"/>
          <path class="cls-1" d="M310.56,394.98c3.69,7.7,8.07,14.46,12.66,20.24,4.59,5.8,9.23,10.68,13.64,15.1,1.09,1.08,2.18,2.17,3.26,3.25l1.59,1.58c.53.53,1.04,1.02,1.6,1.62,2.19,2.3,4.34,4.67,6.43,7.17,4.18,5.01,8.12,10.58,11.61,17.37l-4.61,2.38c-3.49-6.78-7.43-12.36-11.61-17.37-2.09-2.5-4.24-4.87-6.43-7.17-2.24-2.31-4.45-4.59-6.68-6.89-4.57-4.74-9.4-9.94-14.15-16.1-4.75-6.15-9.11-13.33-12.59-21.4"/>
          <path class="cls-1" d="M406.75,535.86c-14.42-27.99-34.98-34.76-50.8-65.48l-4.61,2.38c15.82,30.72,36.38,37.49,50.8,65.48"/>
          <path class="cls-1" d="M387.72,545.66c-15.34-29.78-9.42-51.45-23.39-78.58l-4.61,2.38c13.97,27.14,8.05,48.8,23.39,78.58"/>
          <polygon class="cls-1" points="366.37 437.96 357.16 455.72 350.2 503.04 358.46 483.74 366.37 437.96"/>
          <polygon class="cls-1" points="327.16 454.65 347.65 460.38 388.65 483.42 368.88 478.64 327.16 454.65"/>
          <polygon class="cls-1" points="348.71 471.91 350.64 475.87 367.32 467.69 365.39 463.72 348.71 471.91"/>
          <polygon class="cls-1" points="350.77 475.79 352.44 479.88 369.57 472.73 367.91 468.64 350.77 475.79"/>
          <polygon class="cls-1" points="365.27 463.83 363.6 459.75 346.46 466.9 348.13 470.99 365.27 463.83"/>
        </g>
        <g>
          <path class="cls-1" d="M406.76,535.87c14.42,27.99,7.98,48.66,23.8,79.38l-4.61,2.38c-15.82-30.72-9.39-51.39-23.8-79.38"/>
          <path class="cls-1" d="M387.73,545.67c15.34,29.78,36.41,37.55,50.38,64.68l-4.61,2.38c-13.97-27.14-35.05-34.9-50.39-64.68"/>
          <path class="cls-1" d="M483.51,684.91c-14.42-27.99-34.98-34.76-50.8-65.48l-4.61,2.38c15.82,30.72,36.38,37.49,50.8,65.48"/>
          <path class="cls-1" d="M464.47,694.71c-15.34-29.78-9.42-51.45-23.39-78.58l-4.61,2.38c13.97,27.13,8.05,48.8,23.39,78.58"/>
          <polygon class="cls-1" points="443.12 587 433.91 604.76 426.96 652.08 435.21 632.79 443.12 587"/>
          <polygon class="cls-1" points="403.91 603.69 424.4 609.42 465.4 632.47 445.64 627.68 403.91 603.69"/>
          <polygon class="cls-1" points="425.46 620.95 427.39 624.92 444.07 616.73 442.14 612.77 425.46 620.95"/>
          <polygon class="cls-1" points="427.53 624.84 429.19 628.92 446.33 621.77 444.67 617.68 427.53 624.84"/>
          <polygon class="cls-1" points="442.02 612.88 440.35 608.79 423.21 615.94 424.88 620.03 442.02 612.88"/>
        </g>
        <g>
          <path class="cls-1" d="M483.51,684.92c14.42,27.99,7.98,48.66,23.8,79.38l-4.61,2.38c-15.82-30.72-9.39-51.39-23.8-79.38"/>
          <path class="cls-1" d="M464.48,694.72c15.34,29.78,36.41,37.55,50.38,64.68l-4.61,2.38c-13.97-27.13-35.05-34.9-50.39-64.68"/>
          <path class="cls-1" d="M560.26,833.95c-14.42-27.99-34.98-34.76-50.8-65.48l-4.61,2.38c15.82,30.72,36.38,37.49,50.8,65.48"/>
          <path class="cls-1" d="M541.23,843.75c-15.34-29.78-9.42-51.45-23.39-78.58l-4.61,2.38c13.97,27.13,8.05,48.8,23.38,78.58"/>
          <polygon class="cls-1" points="519.88 736.04 510.66 753.81 503.71 801.13 511.97 781.83 519.88 736.04"/>
          <polygon class="cls-1" points="480.67 752.74 501.16 758.47 542.15 781.51 522.39 776.72 480.67 752.74"/>
          <polygon class="cls-1" points="502.21 770 504.14 773.96 520.82 765.78 518.89 761.81 502.21 770"/>
          <polygon class="cls-1" points="504.28 773.88 505.95 777.97 523.08 770.81 521.42 766.73 504.28 773.88"/>
          <polygon class="cls-1" points="518.78 761.92 517.1 757.83 499.97 764.99 501.63 769.07 518.78 761.92"/>
        </g>
      </g>
    </g>
  </g>
</svg>