<?xml version="1.0" encoding="UTF-8"?>
<svg id="Layer_2" data-name="Layer 2" xmlns="http://www.w3.org/2000/svg" viewBox="0 0 498.74 719.61">
  <defs>
    <style>
      .cls-1 {
        fill: #bfbfbf;
        stroke: #000;
        stroke-linecap: round;
        stroke-width: 2.5px;
      }
    </style>
  </defs>
  <g id="Layer_2-2" data-name="Layer 2">
    <g>
      <g>
        <g>
          <path class="cls-1" d="M352.16,278.77c-.09,9.95-2.32,18.59-5.81,25.86-3.47,7.3-8,13.33-13.02,18.68-5.06,5.34-10.64,10-16.69,14.67-6.12,4.62-12.71,9.25-20.61,14.16l-2.73-4.41c7.42-4.62,13.66-8.93,19.48-13.22,5.76-4.34,11.11-8.67,15.98-13.67,4.83-5,9.21-10.67,12.57-17.56,3.38-6.87,5.54-15.06,5.63-24.51"/>
          <path class="cls-1" d="M330.75,278.77c-.05,4.19-.1,8.11-.23,11.88-.19,3.76-.3,7.38-.62,10.9-.53,7.06-1.38,13.82-3.03,20.53-1.66,6.69-4.06,13.39-8.06,19.76-3.98,6.34-9.48,12.49-17.17,17.34l-2.78-4.38c7.27-4.59,12.44-10.45,16.14-16.49,3.72-6.07,5.89-12.46,7.35-18.8,1.45-6.37,2.15-12.76,2.55-19.39.26-3.31.32-6.71.47-10.23.09-3.53.12-7.2.17-11.12"/>
          <path class="cls-1" d="M200.05,366.59c2.14,1.28,4.34,2.3,6.47,3.27,1.08.46,2.17.86,3.23,1.26,1.06.4,2.13.76,3.2,1.06,1.06.31,2.12.6,3.16.87,1.05.24,2.1.45,3.14.64,2.06.43,4.13.61,6.12.82,8.05.67,15.54-.31,22.67-1.99,7.14-1.72,13.98-4.13,21.04-7.07,3.53-1.5,7.13-3.07,10.87-4.86,3.73-1.8,7.61-3.71,11.71-5.92l-2.47-4.56c-3.85,2.07-7.5,3.88-10.99,5.6-3.5,1.7-6.88,3.21-10.19,4.66-6.63,2.84-13.08,5.23-19.83,6.96-6.74,1.69-13.84,2.72-21.49,2.16-1.9-.18-3.86-.34-5.82-.73-.98-.18-1.98-.37-2.98-.59-.99-.25-1.99-.52-3-.81-1.02-.27-2.03-.61-3.04-.99-1.01-.38-2.05-.75-3.07-1.18-2.03-.91-4.11-1.88-6.14-3.09"/>
          <path class="cls-1" d="M210.77,348.06c1.79,1.08,3.59,2.01,5.29,3.02,1.75.9,3.41,1.89,5.1,2.73,3.32,1.79,6.56,3.38,9.75,4.93,6.39,3.02,12.67,5.67,19.3,7.63,6.62,1.96,13.61,3.15,21.14,2.91.94-.04,1.89-.07,2.85-.14.95-.1,1.91-.21,2.88-.34,1.95-.21,3.88-.68,5.89-1.12,3.94-1.05,8.02-2.45,12.02-4.61l-2.41-4.59c-3.78,2.04-7.65,3.35-11.37,4.32-1.9.4-3.72.83-5.57,1.02-.92.11-1.83.21-2.72.29-.91.06-1.81.08-2.69.11-7.12.15-13.73-1.09-19.96-3.04-6.24-1.95-12.12-4.57-18.08-7.48-2.97-1.49-5.99-3.01-9.09-4.72-1.57-.8-3.12-1.73-4.75-2.58-1.59-.95-3.27-1.82-4.94-2.83"/>
          <path class="cls-1" d="M329.49,356.03c-7.63-.05-14.91-.85-21.83-2.45-8.85.94-17.41.39-25.18-1.27-7.79-1.67-14.85-4.6-20.88-8.28,4.51,4.75,9.86,8.99,15.95,12.59,3.78,1.2,7.72,2.05,11.86,2.71,4.1.57,8.4.92,12.78.88,8.76-.05,18.04-1.34,27.3-4.18Z"/>
          <path class="cls-1" d="M300.98,324.36c1.09,6.52,1.28,13.49.44,20.67-2.76,7.61-6.95,15.09-12.45,22.22-5.51,7.11-12.43,13.68-20.56,19.41,5.17-6,9.39-12.45,12.67-18.97,6.1-6.64,10.78-13.95,14.08-21.31,3.32-7.35,5.16-14.9,5.82-22.01Z"/>
          <path class="cls-1" d="M289.96,347.44c-1.26.72-2.57,1.34-3.88,1.97l7.93,16.81c1.61-.79,3.24-1.54,4.8-2.44l-8.85-16.34Z"/>
          <path class="cls-1" d="M286.15,349.55c-1.33.58-2.73,1-4.09,1.49,2.02,5.87,3.92,11.76,5.71,17.68,1.71-.53,3.37-1.2,5.06-1.81-2.11-5.82-4.35-11.63-6.68-17.36Z"/>
          <path class="cls-1" d="M298.68,363.68l2.42-1.17c.8-.4,1.58-.84,2.37-1.27-2.82-5.52-5.73-10.99-8.74-16.38-1.31.66-2.56,1.39-3.89,1.98,2.71,5.56,5.33,11.18,7.84,16.85Z"/>
        </g>
        <g>
          <path class="cls-1" d="M200.03,366.58c-2.18-1.21-4.15-2.62-6.06-3.98-1.84-1.45-3.63-2.86-5.21-4.41-3.24-3.01-5.9-6.29-8.22-9.56-4.56-6.66-7.51-13.58-9.64-20.6-2.14-7.03-3.38-14.21-4.39-21.79-.15-.94-.25-1.9-.35-2.87-.11-.96-.22-1.93-.34-2.92-.15-1.98-.42-3.97-.53-6.04-.36-4.12-.58-8.45-.71-13.1l5.19-.15c.13,4.37.32,8.44.63,12.32.09,1.95.34,3.82.45,5.69.1.93.2,1.85.29,2.75.09.91.17,1.82.3,2.71.88,7.15,1.94,13.97,3.87,20.67,1.93,6.68,4.64,13.3,8.91,19.66,2.18,3.13,4.67,6.27,7.74,9.13,1.49,1.49,3.18,2.82,4.92,4.21,1.81,1.29,3.67,2.64,5.74,3.78"/>
          <path class="cls-1" d="M210.76,348.05c-3.62-2.1-6.99-4.1-10.17-6.14-.81-.49-1.6-.98-2.36-1.5-.78-.5-1.56-.99-2.32-1.48-1.48-1.04-3.03-1.97-4.45-3.01-5.83-4.01-11.29-8.09-16.28-12.87-4.98-4.77-9.55-10.21-13.12-16.85-3.49-6.63-6.05-14.49-6.4-23.56l5.18-.21c.34,8.58,2.81,16,6.18,22.24,3.44,6.24,7.85,11.33,12.64,15.76,4.78,4.44,10.01,8.2,15.54,11.9,1.35.96,2.82,1.81,4.22,2.77.72.45,1.45.91,2.19,1.37.72.48,1.46.94,2.23,1.39,2.98,1.89,6.15,3.74,9.53,5.71"/>
          <path class="cls-1" d="M200.02,190.97c-2.18,1.21-4.15,2.62-6.06,3.98-1.84,1.45-3.63,2.86-5.21,4.41-3.24,3.01-5.9,6.29-8.22,9.57-4.56,6.66-7.51,13.58-9.64,20.6-2.14,7.03-3.37,14.21-4.39,21.79-.15.94-.24,1.9-.35,2.87-.11.96-.22,1.93-.34,2.92-.15,1.98-.41,3.97-.53,6.04-.36,4.12-.58,8.45-.71,13.1l5.19.15c.13-4.37.31-8.44.63-12.32.09-1.95.33-3.82.45-5.69.1-.93.2-1.85.29-2.75.09-.91.17-1.82.3-2.71.87-7.15,1.94-13.97,3.87-20.67,1.93-6.68,4.64-13.3,8.91-19.66,2.18-3.13,4.67-6.27,7.74-9.14,1.49-1.49,3.18-2.83,4.92-4.21,1.81-1.29,3.67-2.64,5.74-3.78"/>
          <path class="cls-1" d="M210.75,209.5c-3.62,2.1-6.99,4.11-10.16,6.14-.4.25-.8.49-1.2.74-.39.26-.78.51-1.16.77-.78.5-1.56.99-2.32,1.48-1.48,1.04-3.03,1.97-4.45,3.01-5.83,4.01-11.29,8.09-16.27,12.88-4.98,4.77-9.55,10.21-13.11,16.86-3.49,6.63-6.04,14.5-6.4,23.57l5.18.21c.33-8.58,2.81-16,6.17-22.24,3.44-6.24,7.85-11.33,12.63-15.76,4.78-4.44,10.01-8.2,15.54-11.9,1.35-.96,2.82-1.81,4.22-2.77.72-.45,1.45-.91,2.19-1.37.36-.23.73-.47,1.09-.71.38-.22.75-.45,1.13-.68,2.98-1.89,6.15-3.74,9.53-5.71"/>
          <path class="cls-1" d="M144.45,308.33l1.44-2.43c.5-.8,1.02-1.6,1.53-2.38,1.04-1.57,2.07-3.08,3.16-4.56,2.23-2.96,4.47-5.72,6.93-8.32,7.26-16.28,18.86-28.41,31.29-35.12-6.33,1.55-12.69,4.06-18.87,7.54-5.78,5.36-11.04,11.93-15.42,19.53-4.4,7.6-7.85,16.27-10.05,25.74Z"/>
          <path class="cls-1" d="M186.15,299.48c-6.19-2.3-12.31-5.63-18.11-9.95-5.14-6.21-9.66-13.57-13.01-21.88-3.36-8.31-5.73-17.61-6.56-27.5,2.66,7.49,6.1,14.35,10.11,20.44,2.78,8.61,6.68,16.29,11.43,22.84,4.77,6.55,10.24,11.95,16.14,16.05Z"/>
          <path class="cls-1" d="M171.67,278.4c.09-1.45.11-2.91.24-4.35l-18.51-1.53c-.2,1.78-.2,3.57-.3,5.36l18.57.52Z"/>
          <path class="cls-1" d="M171.76,274.05c.26-1.43.43-2.87.76-4.29-6.07-1.18-12.12-2.48-18.16-3.89l-.53,2.63c-.16.88-.28,1.76-.42,2.65,6.11,1.08,12.22,2.04,18.35,2.89Z"/>
          <path class="cls-1" d="M153.26,277.82c-.17,1.78-.2,3.57-.3,5.36,6.17.33,12.39.55,18.58.65,0-1.46.16-2.92.23-4.36-6.19-.44-12.36-.98-18.51-1.65Z"/>
        </g>
        <g>
          <path class="cls-1" d="M200.03,190.97c8.64-5.04,17.32-7.23,25.32-7.93,8.05-.67,15.54.31,22.67,1.99,7.14,1.72,13.98,4.13,21.05,7.06,3.53,1.5,7.13,3.07,10.87,4.85,3.73,1.8,7.61,3.71,11.71,5.92l-2.46,4.57c-3.85-2.07-7.5-3.88-10.99-5.6-3.5-1.7-6.88-3.21-10.19-4.66-6.64-2.84-13.08-5.23-19.83-6.95-6.74-1.69-13.84-2.72-21.49-2.15-7.6.59-15.86,2.62-24.05,7.4"/>
          <path class="cls-1" d="M210.76,209.5c1.79-1.08,3.59-2.02,5.29-3.02,1.75-.9,3.41-1.89,5.1-2.73,3.32-1.79,6.56-3.38,9.75-4.93,6.39-3.02,12.67-5.67,19.3-7.63,6.62-1.96,13.61-3.15,21.14-2.91.94.04,1.89.07,2.85.14.95.1,1.91.21,2.88.34,1.95.21,3.88.68,5.89,1.12,3.94,1.05,8.02,2.45,12.02,4.61l-2.41,4.59c-3.78-2.04-7.65-3.35-11.37-4.32-1.9-.4-3.72-.83-5.57-1.01-.92-.11-1.83-.21-2.72-.29-.91-.05-1.81-.08-2.69-.1-7.12-.15-13.73,1.09-19.96,3.05-6.24,1.95-12.12,4.57-18.08,7.48-2.97,1.49-5.99,3.01-9.09,4.72-1.57.8-3.12,1.73-4.75,2.58-1.59.95-3.27,1.82-4.94,2.83"/>
          <path class="cls-1" d="M352.16,278.76c-.09-9.95-2.32-18.59-5.81-25.86-3.47-7.3-8-13.33-13.02-18.68-5.06-5.34-10.64-10-16.69-14.66-6.12-4.62-12.72-9.25-20.61-14.16l-2.73,4.41c7.42,4.61,13.66,8.93,19.48,13.22,5.76,4.34,11.11,8.67,15.98,13.66,4.83,5,9.21,10.67,12.58,17.56,3.38,6.87,5.54,15.06,5.63,24.51"/>
          <path class="cls-1" d="M330.75,278.76c-.05-4.19-.1-8.11-.23-11.88-.19-3.76-.3-7.38-.62-10.9-.53-7.06-1.39-13.82-3.03-20.53-1.66-6.69-4.06-13.39-8.06-19.76-3.98-6.34-9.48-12.49-17.17-17.34l-2.78,4.38c7.27,4.59,12.44,10.45,16.14,16.49,3.72,6.06,5.89,12.46,7.36,18.8,1.45,6.37,2.15,12.76,2.55,19.39.26,3.31.32,6.71.47,10.23.09,3.53.13,7.2.17,11.12"/>
          <path class="cls-1" d="M278.27,171.91c3.8,6.64,6.74,13.39,8.82,20.15,5.23,7.24,9.02,14.9,11.46,22.46,2.41,7.62,3.46,15.17,3.3,22.24,1.81-6.27,2.81-13.03,2.89-20.11-3.41-15.41-12.24-31.39-26.48-44.74Z"/>
          <path class="cls-1" d="M265.13,212.48c5.09-4.23,11.03-7.9,17.67-10.74,7.95-1.37,16.55-1.5,25.47-.29,8.87,1.26,18.04,3.9,27.05,8.06-7.81-1.42-15.46-1.86-22.75-1.43-4.37-1-8.8-1.53-13.02-1.83-2.17-.07-4.22-.2-6.33-.11l-3.08.11-3.05.27c-8.02.78-15.48,2.95-21.95,5.97Z"/>
          <path class="cls-1" d="M290.6,210.47c1.26.72,2.44,1.58,3.65,2.38l10.62-15.26c-1.5-.98-2.95-2.03-4.5-2.94l-9.76,15.82Z"/>
          <path class="cls-1" d="M294.33,212.72c1.15.88,2.22,1.88,3.33,2.8,4.08-4.67,8.22-9.24,12.47-13.76-1.3-1.23-2.71-2.32-4.08-3.48-3.99,4.73-7.9,9.54-11.71,14.43Z"/>
          <path class="cls-1" d="M300.33,194.82c-1.49-1-2.96-2.03-4.51-2.94-3.38,5.2-6.67,10.45-9.85,15.76,1.23.79,2.48,1.52,3.65,2.39,3.47-5.13,7.04-10.19,10.7-15.2Z"/>
        </g>
      </g>
      <g>
        <g>
          <path class="cls-1" d="M351.6,433.41c.96,9.91-.34,18.73-3.05,26.33-2.68,7.63-6.55,14.1-10.98,19.95-4.47,5.85-9.52,11.07-15.05,16.35-5.6,5.24-11.67,10.54-19,16.26l-3.18-4.1c6.89-5.37,12.64-10.32,17.98-15.2,5.27-4.92,10.13-9.79,14.45-15.28,4.27-5.49,8.04-11.58,10.65-18.79,2.64-7.19,3.92-15.56,3.01-24.96"/>
          <path class="cls-1" d="M330.31,435.67c.4,4.17.76,8.07,1.03,11.84.21,3.75.48,7.37.54,10.91.22,7.07.08,13.89-.85,20.73-.94,6.83-2.62,13.75-5.93,20.5-3.29,6.73-8.1,13.42-15.24,19.06l-3.23-4.06c6.75-5.33,11.27-11.7,14.31-18.1,3.06-6.42,4.54-13.01,5.33-19.47.77-6.49.79-12.91.49-19.55-.09-3.31-.39-6.71-.61-10.22-.28-3.52-.64-7.17-1-11.08"/>
          <path class="cls-1" d="M209.6,536.79c2.26,1.05,4.55,1.83,6.78,2.57,1.12.35,2.24.63,3.35.91,1.1.29,2.2.54,3.29.72,1.09.2,2.17.37,3.24.53,1.07.13,2.14.22,3.19.31,2.09.21,4.17.17,6.18.17,8.08-.19,15.42-1.95,22.33-4.37,6.91-2.46,13.46-5.58,20.18-9.25,3.35-1.87,6.77-3.81,10.29-5.98,3.51-2.19,7.18-4.49,11.02-7.12l-2.93-4.28c-3.61,2.47-7.05,4.65-10.34,6.73-3.3,2.06-6.5,3.92-9.64,5.71-6.3,3.53-12.45,6.58-18.98,9.01-6.52,2.39-13.48,4.16-21.14,4.41-1.91.02-3.88.07-5.86-.11-1-.08-2.01-.16-3.03-.27-1.01-.15-2.04-.31-3.07-.49-1.04-.16-2.08-.39-3.13-.67-1.05-.27-2.11-.53-3.18-.85-2.11-.69-4.29-1.43-6.44-2.43"/>
          <path class="cls-1" d="M218.31,517.23c1.9.89,3.78,1.62,5.58,2.44,1.84.71,3.59,1.52,5.36,2.17,3.49,1.43,6.88,2.67,10.21,3.87,6.67,2.32,13.2,4.3,20,5.55,6.79,1.25,13.87,1.7,21.33.66.93-.14,1.87-.27,2.82-.44.93-.2,1.88-.41,2.83-.64,1.92-.42,3.79-1.08,5.73-1.73,3.8-1.46,7.72-3.28,11.47-5.85l-2.89-4.31c-3.54,2.43-7.25,4.14-10.85,5.5-1.84.6-3.61,1.22-5.43,1.6-.9.21-1.79.4-2.68.58-.9.15-1.79.27-2.67.39-7.07.9-13.76.37-20.17-.92-6.42-1.28-12.53-3.26-18.77-5.53-3.12-1.17-6.28-2.36-9.53-3.73-1.64-.63-3.28-1.39-5-2.06-1.68-.77-3.44-1.46-5.22-2.29"/>
          <path class="cls-1" d="M337.21,512.63c-7.59.76-14.91.73-21.96-.13-8.7,1.87-17.27,2.22-25.17,1.4-7.92-.84-15.26-3-21.64-6.03,4.99,4.25,10.75,7.9,17.19,10.84,3.88.8,7.89,1.23,12.08,1.44,4.14.13,8.45.03,12.8-.47,8.71-.98,17.8-3.24,26.71-7.04Z"/>
          <path class="cls-1" d="M305.51,484.14c1.77,6.37,2.69,13.28,2.62,20.51-1.95,7.85-5.31,15.74-10.03,23.41-4.73,7.65-10.92,14.91-18.4,21.47,4.5-6.51,8.03-13.37,10.59-20.2,5.37-7.25,9.25-15.01,11.75-22.68,2.52-7.66,3.56-15.36,3.47-22.5Z"/>
          <path class="cls-1" d="M296.99,508.26c-1.18.85-2.42,1.61-3.65,2.37l9.66,15.88c1.51-.96,3.06-1.88,4.51-2.93l-10.52-15.32Z"/>
          <path class="cls-1" d="M293.43,510.76c-1.26.71-2.61,1.28-3.91,1.91,2.62,5.62,5.14,11.28,7.54,16.98,1.64-.71,3.22-1.55,4.84-2.33-2.72-5.56-5.55-11.1-8.47-16.56Z"/>
          <path class="cls-1" d="M307.38,523.49l2.28-1.42c.76-.48,1.48-1.01,2.23-1.51-3.39-5.19-6.86-10.32-10.43-15.37-1.23.79-2.4,1.65-3.66,2.38,3.28,5.24,6.48,10.55,9.58,15.93Z"/>
        </g>
        <g>
          <path class="cls-1" d="M209.59,536.78c-2.3-.97-4.4-2.17-6.44-3.32-1.99-1.25-3.91-2.46-5.64-3.84-3.54-2.65-6.53-5.63-9.19-8.64-5.24-6.14-8.9-12.71-11.76-19.46-2.87-6.76-4.86-13.78-6.66-21.2-.25-.92-.44-1.87-.65-2.82-.21-.94-.43-1.9-.64-2.87-.35-1.96-.83-3.91-1.16-5.96-.79-4.06-1.47-8.34-2.09-12.95l5.14-.7c.59,4.33,1.21,8.36,1.93,12.18.3,1.93.74,3.77,1.05,5.61.2.91.39,1.82.58,2.71.18.9.36,1.8.58,2.67,1.63,7.02,3.4,13.69,6.03,20.14,2.62,6.44,6.02,12.74,10.94,18.61,2.5,2.88,5.31,5.74,8.66,8.27,1.64,1.32,3.46,2.47,5.34,3.67,1.93,1.09,3.93,2.23,6.11,3.15"/>
          <path class="cls-1" d="M218.3,517.23c-3.82-1.71-7.39-3.34-10.76-5.03-.86-.4-1.69-.81-2.51-1.24-.83-.41-1.65-.82-2.46-1.23-1.58-.88-3.22-1.64-4.75-2.52-6.22-3.37-12.08-6.85-17.54-11.08-5.45-4.22-10.58-9.15-14.82-15.38-4.17-6.23-7.54-13.78-8.85-22.76l5.13-.75c1.24,8.5,4.48,15.62,8.49,21.46,4.08,5.85,9.01,10.44,14.23,14.34,5.23,3.91,10.82,7.1,16.71,10.19,1.44.81,3,1.5,4.48,2.31.76.37,1.54.75,2.32,1.13.77.4,1.55.78,2.36,1.14,3.16,1.56,6.51,3.07,10.08,4.67"/>
          <path class="cls-1" d="M191.05,362.16c-2.04,1.43-3.85,3.04-5.6,4.59-1.68,1.64-3.3,3.23-4.71,4.94-2.91,3.33-5.2,6.88-7.17,10.38-3.83,7.1-6.04,14.3-7.41,21.5-1.38,7.22-1.85,14.49-2.06,22.13-.05.95-.04,1.92-.04,2.89,0,.97-.02,1.95-.03,2.94.06,1.99,0,4,.11,6.07.08,4.13.32,8.46.68,13.1l5.17-.4c-.34-4.36-.58-8.43-.67-12.32-.11-1.95-.07-3.84-.15-5.71,0-.94,0-1.86,0-2.77-.01-.92-.03-1.83,0-2.73.11-7.21.45-14.1,1.66-20.96,1.21-6.85,3.21-13.72,6.78-20.49,1.84-3.34,3.99-6.72,6.73-9.9,1.33-1.64,2.86-3.15,4.45-4.71,1.66-1.47,3.37-3.01,5.31-4.37"/>
          <path class="cls-1" d="M203.66,379.45c-3.37,2.47-6.52,4.82-9.46,7.18-.38.29-.75.57-1.12.86-.36.3-.72.59-1.07.88-.73.58-1.44,1.15-2.15,1.72-1.36,1.19-2.8,2.28-4.11,3.46-5.37,4.6-10.37,9.24-14.82,14.52-4.45,5.27-8.42,11.16-11.26,18.15-2.77,6.97-4.48,15.05-3.88,24.11l5.18-.34c-.57-8.57,1.1-16.21,3.79-22.77,2.76-6.57,6.61-12.1,10.9-17,4.29-4.92,9.09-9.22,14.19-13.47,1.24-1.1,2.61-2.1,3.9-3.2.67-.52,1.35-1.05,2.03-1.59.34-.27.67-.54,1.01-.82.35-.26.7-.53,1.05-.79,2.77-2.19,5.72-4.37,8.88-6.68"/>
          <path class="cls-1" d="M148.17,484.73l1.17-2.57c.41-.85.84-1.7,1.27-2.53.87-1.67,1.73-3.28,2.66-4.86,1.9-3.18,3.84-6.16,6.01-9,5.5-16.95,15.75-30.25,27.4-38.22-6.13,2.21-12.19,5.38-17.97,9.49-5.18,5.94-9.72,13.03-13.27,21.04-3.57,8.02-6.09,17.01-7.28,26.66Z"/>
          <path class="cls-1" d="M188.7,471.53c-6.4-1.64-12.84-4.3-19.06-7.98-5.77-5.64-11.03-12.47-15.24-20.39-4.22-7.9-7.55-16.91-9.43-26.65,3.44,7.17,7.58,13.63,12.21,19.26,3.68,8.27,8.37,15.49,13.77,21.51,5.44,6.01,11.45,10.81,17.75,14.25Z"/>
          <path class="cls-1" d="M172.08,452.09c-.07-1.45-.2-2.9-.22-4.35l-18.57.43c0,1.79.18,3.57.27,5.36l18.52-1.44Z"/>
          <path class="cls-1" d="M171.71,447.75c.11-1.45.12-2.9.31-4.34-6.16-.53-12.32-1.18-18.47-1.95l-.25,2.67c-.07.89-.09,1.78-.14,2.68,6.19.43,12.37.74,18.55.94Z"/>
          <path class="cls-1" d="M153.71,453.46c.01,1.79.18,3.57.27,5.36,6.17-.32,12.38-.76,18.55-1.32-.16-1.45-.15-2.92-.23-4.36-6.21.22-12.4.33-18.58.32Z"/>
        </g>
        <g>
          <path class="cls-1" d="M191.06,362.15c8.06-5.92,16.46-9.02,24.35-10.56,7.94-1.51,15.49-1.33,22.75-.42,7.28.95,14.33,2.63,21.67,4.8,3.67,1.12,7.42,2.3,11.32,3.68,3.89,1.4,7.96,2.89,12.27,4.65l-1.97,4.8c-4.05-1.66-7.87-3.06-11.52-4.41-3.66-1.32-7.18-2.46-10.63-3.56-6.9-2.13-13.56-3.82-20.45-4.82-6.88-.97-14.05-1.24-21.59.13-7.5,1.39-15.49,4.28-23.14,9.9"/>
          <path class="cls-1" d="M203.67,379.45c1.67-1.26,3.36-2.38,4.95-3.56,1.65-1.08,3.19-2.24,4.78-3.25,3.11-2.13,6.17-4.05,9.17-5.93,6.04-3.67,12-6.98,18.38-9.62,6.37-2.65,13.2-4.57,20.71-5.13.94-.06,1.89-.13,2.85-.16.95,0,1.92,0,2.9.03,1.96,0,3.93.26,5.97.49,4.03.63,8.24,1.59,12.44,3.31l-1.91,4.82c-3.97-1.63-7.96-2.52-11.77-3.1-1.93-.2-3.79-.44-5.65-.42-.92-.01-1.84-.01-2.74,0-.91.04-1.8.11-2.69.18-7.1.61-13.53,2.53-19.52,5.13-6,2.6-11.57,5.82-17.19,9.35-2.8,1.8-5.64,3.63-8.54,5.65-1.48.96-2.92,2.05-4.45,3.07-1.48,1.11-3.06,2.15-4.62,3.34"/>
          <path class="cls-1" d="M351.6,433.4c-1.14-9.89-4.27-18.24-8.51-25.1-4.22-6.89-9.37-12.41-14.92-17.2-5.6-4.78-11.64-8.82-18.14-12.82-6.57-3.95-13.62-7.86-21.99-11.91l-2.25,4.68c7.87,3.81,14.52,7.43,20.77,11.09,6.18,3.71,11.96,7.45,17.33,11.9,5.33,4.47,10.29,9.63,14.36,16.14,4.09,6.47,7.1,14.39,8.18,23.78"/>
          <path class="cls-1" d="M330.31,435.66c-.49-4.16-.96-8.05-1.48-11.79-.58-3.71-1.08-7.31-1.77-10.77-1.27-6.96-2.84-13.59-5.18-20.09-2.36-6.47-5.45-12.89-10.1-18.8-4.63-5.89-10.74-11.42-18.9-15.43l-2.3,4.65c7.72,3.79,13.47,9.07,17.79,14.69,4.34,5.64,7.17,11.77,9.3,17.92,2.12,6.18,3.48,12.46,4.58,19.01.61,3.26,1.03,6.64,1.55,10.12.46,3.5.88,7.15,1.34,11.04"/>
          <path class="cls-1" d="M266.85,334.94c4.48,6.2,8.11,12.6,10.9,19.1,5.96,6.65,10.54,13.86,13.77,21.13,3.2,7.32,5.04,14.72,5.63,21.77,1.13-6.42,1.42-13.26.75-20.31-5.02-14.96-15.49-29.92-31.05-41.69Z"/>
          <path class="cls-1" d="M258.06,376.68c4.61-4.74,10.13-9.02,16.43-12.55,7.77-2.2,16.3-3.24,25.3-2.98,8.96.32,18.35,1.98,27.75,5.16-7.92-.59-15.57-.22-22.77.98-4.46-.54-8.91-.59-13.14-.45-2.17.16-4.22.25-6.31.56l-3.05.43-3.01.59c-7.9,1.62-15.08,4.57-21.2,8.26Z"/>
          <path class="cls-1" d="M283.18,371.99c1.33.59,2.59,1.32,3.88,1.98l8.95-16.29c-1.59-.82-3.15-1.71-4.79-2.45l-8.04,16.76Z"/>
          <path class="cls-1" d="M287.12,373.83c1.24.76,2.41,1.63,3.61,2.43,3.56-5.07,7.2-10.05,10.95-14.99-1.42-1.09-2.94-2.02-4.43-3.03-3.47,5.12-6.84,10.32-10.13,15.59Z"/>
          <path class="cls-1" d="M291.2,355.4c-1.58-.83-3.15-1.71-4.79-2.45-2.82,5.53-5.53,11.1-8.13,16.71,1.31.65,2.63,1.25,3.89,1.99,2.91-5.46,5.92-10.88,9.04-16.25Z"/>
        </g>
      </g>
      <g>
        <g>
          <path class="cls-1" d="M497.49,193.47c-.09,9.95-2.32,18.59-5.81,25.86-3.47,7.3-8,13.33-13.02,18.68-5.06,5.34-10.64,10-16.69,14.67-6.12,4.62-12.71,9.25-20.61,14.16l-2.73-4.41c7.42-4.62,13.66-8.93,19.48-13.22,5.76-4.34,11.11-8.67,15.98-13.67,4.83-5,9.21-10.67,12.57-17.56,3.38-6.87,5.54-15.06,5.63-24.51"/>
          <path class="cls-1" d="M476.08,193.47c-.05,4.19-.1,8.11-.23,11.88-.19,3.76-.3,7.38-.62,10.9-.53,7.06-1.38,13.82-3.03,20.53-1.66,6.69-4.06,13.39-8.06,19.76-3.98,6.34-9.48,12.49-17.17,17.34l-2.78-4.38c7.27-4.59,12.44-10.45,16.14-16.49,3.72-6.07,5.89-12.46,7.35-18.8,1.45-6.37,2.15-12.76,2.55-19.39.26-3.31.32-6.71.47-10.23.09-3.53.12-7.2.17-11.12"/>
          <path class="cls-1" d="M345.38,281.28c2.14,1.28,4.34,2.3,6.47,3.27,1.08.46,2.17.86,3.23,1.26,1.06.4,2.13.76,3.2,1.06,1.07.31,2.12.6,3.16.87,1.05.24,2.1.45,3.14.64,2.06.43,4.13.61,6.12.82,8.05.67,15.54-.31,22.67-1.99,7.14-1.72,13.98-4.13,21.04-7.07,3.53-1.5,7.13-3.07,10.87-4.86,3.73-1.8,7.61-3.71,11.71-5.92l-2.47-4.56c-3.85,2.07-7.5,3.88-10.99,5.6-3.5,1.7-6.88,3.21-10.19,4.66-6.63,2.84-13.08,5.23-19.83,6.96-6.74,1.69-13.84,2.72-21.49,2.16-1.9-.18-3.86-.34-5.82-.73-.98-.18-1.98-.37-2.98-.59-.99-.25-1.99-.52-3-.81-1.02-.27-2.03-.61-3.04-.99-1.01-.38-2.05-.75-3.07-1.18-2.03-.91-4.11-1.88-6.14-3.09"/>
          <path class="cls-1" d="M356.1,262.75c1.79,1.08,3.59,2.01,5.29,3.02,1.75.9,3.41,1.89,5.1,2.73,3.32,1.79,6.56,3.38,9.75,4.93,6.39,3.02,12.67,5.67,19.3,7.63,6.62,1.96,13.61,3.15,21.14,2.91.94-.04,1.89-.07,2.85-.14.95-.1,1.91-.21,2.88-.34,1.95-.21,3.88-.68,5.89-1.12,3.94-1.05,8.02-2.45,12.02-4.61l-2.41-4.59c-3.78,2.04-7.65,3.35-11.37,4.32-1.9.4-3.72.83-5.57,1.02-.92.11-1.83.21-2.72.29-.91.06-1.81.08-2.69.11-7.12.15-13.73-1.09-19.96-3.04-6.24-1.95-12.12-4.57-18.08-7.48-2.97-1.49-5.99-3.01-9.09-4.72-1.57-.8-3.12-1.73-4.75-2.58-1.59-.95-3.27-1.82-4.94-2.83"/>
          <path class="cls-1" d="M474.82,270.73c-7.63-.05-14.91-.85-21.83-2.45-8.85.94-17.41.39-25.18-1.27-7.79-1.67-14.85-4.6-20.88-8.28,4.51,4.75,9.86,8.99,15.95,12.59,3.78,1.2,7.72,2.05,11.86,2.71,4.1.57,8.4.92,12.78.88,8.76-.05,18.04-1.34,27.3-4.18Z"/>
          <path class="cls-1" d="M446.31,239.05c1.09,6.52,1.28,13.49.44,20.67-2.76,7.61-6.95,15.09-12.45,22.22-5.51,7.11-12.43,13.68-20.56,19.41,5.17-6,9.39-12.45,12.67-18.97,6.1-6.64,10.78-13.95,14.08-21.31,3.32-7.35,5.16-14.9,5.82-22.01Z"/>
          <path class="cls-1" d="M435.29,262.14c-1.26.72-2.57,1.34-3.88,1.97l7.93,16.81c1.61-.79,3.24-1.54,4.8-2.44l-8.85-16.34Z"/>
          <path class="cls-1" d="M431.49,264.25c-1.33.58-2.73,1-4.09,1.49,2.02,5.87,3.92,11.76,5.71,17.68,1.71-.53,3.37-1.2,5.06-1.81-2.11-5.82-4.35-11.63-6.68-17.36Z"/>
          <path class="cls-1" d="M444.01,278.37l2.42-1.17c.8-.4,1.58-.84,2.37-1.27-2.82-5.52-5.73-10.99-8.74-16.38-1.31.66-2.56,1.39-3.89,1.98,2.71,5.56,5.33,11.18,7.84,16.85Z"/>
        </g>
        <g>
          <path class="cls-1" d="M345.37,281.28c-2.18-1.21-4.15-2.62-6.06-3.98-1.84-1.45-3.63-2.86-5.21-4.41-3.24-3.01-5.9-6.29-8.22-9.56-4.56-6.66-7.51-13.58-9.64-20.6-2.14-7.03-3.38-14.21-4.39-21.79-.15-.94-.25-1.9-.35-2.87-.11-.96-.22-1.93-.34-2.92-.15-1.98-.42-3.97-.53-6.04-.36-4.12-.58-8.45-.71-13.1l5.19-.15c.13,4.37.32,8.44.63,12.32.09,1.95.34,3.82.45,5.69.1.93.2,1.85.29,2.75.09.91.17,1.82.3,2.71.88,7.15,1.94,13.97,3.87,20.67,1.93,6.68,4.64,13.3,8.91,19.66,2.18,3.13,4.67,6.27,7.74,9.13,1.49,1.49,3.18,2.82,4.92,4.21,1.81,1.29,3.67,2.64,5.74,3.78"/>
          <path class="cls-1" d="M356.09,262.75c-3.62-2.1-6.99-4.1-10.17-6.14-.81-.49-1.6-.98-2.36-1.5-.78-.5-1.56-.99-2.32-1.48-1.48-1.04-3.03-1.97-4.45-3.01-5.83-4.01-11.29-8.09-16.28-12.87-4.98-4.77-9.55-10.21-13.12-16.85-3.49-6.63-6.05-14.49-6.4-23.56l5.18-.21c.34,8.58,2.81,16,6.18,22.24,3.44,6.24,7.86,11.33,12.64,15.76,4.78,4.44,10.01,8.2,15.54,11.9,1.35.96,2.82,1.81,4.22,2.77.72.45,1.45.91,2.19,1.37.72.48,1.46.94,2.23,1.39,2.98,1.89,6.15,3.74,9.53,5.71"/>
          <path class="cls-1" d="M345.35,105.67c-2.18,1.21-4.15,2.62-6.06,3.98-1.84,1.45-3.63,2.86-5.21,4.41-3.24,3.01-5.9,6.29-8.22,9.57-4.56,6.66-7.51,13.58-9.64,20.6-2.14,7.03-3.37,14.21-4.39,21.79-.15.94-.24,1.91-.35,2.87-.11.96-.22,1.93-.34,2.92-.15,1.98-.41,3.97-.53,6.04-.36,4.12-.58,8.45-.71,13.1l5.19.15c.13-4.37.31-8.44.63-12.32.09-1.95.33-3.82.45-5.69.1-.93.2-1.85.29-2.75.09-.91.17-1.82.3-2.71.87-7.15,1.94-13.97,3.87-20.67,1.93-6.68,4.64-13.3,8.91-19.66,2.18-3.13,4.67-6.27,7.74-9.14,1.49-1.49,3.18-2.83,4.92-4.21,1.81-1.29,3.67-2.64,5.74-3.78"/>
          <path class="cls-1" d="M356.08,124.2c-3.62,2.1-6.99,4.11-10.16,6.14-.4.25-.8.49-1.2.74-.39.26-.78.51-1.16.77-.78.5-1.56.99-2.32,1.48-1.48,1.04-3.03,1.97-4.45,3.01-5.83,4.01-11.29,8.09-16.27,12.88-4.98,4.77-9.55,10.21-13.11,16.86-3.49,6.63-6.04,14.5-6.4,23.57l5.18.21c.33-8.58,2.81-16,6.17-22.24,3.44-6.24,7.85-11.33,12.63-15.76,4.78-4.44,10.01-8.2,15.54-11.9,1.35-.96,2.82-1.81,4.22-2.77.72-.45,1.45-.91,2.19-1.37.36-.23.73-.47,1.09-.71.38-.22.75-.45,1.13-.68,2.98-1.89,6.15-3.75,9.53-5.71"/>
          <path class="cls-1" d="M289.78,223.03l1.44-2.43c.5-.8,1.02-1.6,1.53-2.38,1.04-1.57,2.07-3.08,3.16-4.56,2.23-2.96,4.47-5.72,6.93-8.32,7.26-16.28,18.86-28.41,31.29-35.12-6.33,1.55-12.69,4.06-18.87,7.54-5.78,5.36-11.04,11.93-15.42,19.53-4.4,7.6-7.85,16.27-10.05,25.74Z"/>
          <path class="cls-1" d="M331.48,214.18c-6.19-2.3-12.31-5.63-18.11-9.95-5.14-6.21-9.66-13.57-13.01-21.88-3.36-8.31-5.72-17.61-6.56-27.5,2.66,7.49,6.1,14.35,10.11,20.44,2.78,8.61,6.68,16.29,11.43,22.84,4.77,6.55,10.24,11.95,16.14,16.05Z"/>
          <path class="cls-1" d="M317,193.1c.09-1.45.11-2.91.24-4.35l-18.51-1.53c-.2,1.78-.2,3.57-.3,5.36l18.57.52Z"/>
          <path class="cls-1" d="M317.09,188.74c.26-1.43.43-2.87.76-4.29-6.07-1.18-12.12-2.48-18.16-3.89l-.53,2.63c-.16.88-.28,1.76-.42,2.65,6.11,1.08,12.22,2.04,18.35,2.89Z"/>
          <path class="cls-1" d="M298.59,192.52c-.17,1.78-.2,3.57-.3,5.36,6.17.33,12.39.55,18.58.65,0-1.46.16-2.92.23-4.36-6.19-.44-12.36-.99-18.51-1.65Z"/>
        </g>
        <g>
          <path class="cls-1" d="M345.37,105.66c8.64-5.04,17.32-7.23,25.32-7.93,8.05-.67,15.54.31,22.67,1.99,7.14,1.72,13.98,4.13,21.05,7.06,3.53,1.5,7.13,3.07,10.87,4.85,3.73,1.8,7.61,3.71,11.71,5.92l-2.46,4.57c-3.85-2.07-7.5-3.88-10.99-5.6-3.5-1.7-6.88-3.21-10.19-4.66-6.64-2.84-13.08-5.23-19.83-6.95-6.74-1.69-13.84-2.72-21.49-2.15-7.6.59-15.86,2.62-24.05,7.4"/>
          <path class="cls-1" d="M356.09,124.19c1.79-1.08,3.59-2.02,5.29-3.02,1.75-.9,3.41-1.89,5.1-2.73,3.32-1.79,6.56-3.38,9.75-4.93,6.39-3.02,12.67-5.67,19.3-7.63,6.62-1.96,13.61-3.15,21.14-2.91.94.04,1.89.07,2.85.14.95.1,1.91.21,2.88.34,1.95.21,3.88.68,5.89,1.12,3.94,1.05,8.02,2.45,12.02,4.61l-2.41,4.59c-3.78-2.04-7.65-3.35-11.37-4.32-1.9-.4-3.72-.83-5.57-1.01-.92-.11-1.83-.21-2.72-.29-.91-.05-1.81-.08-2.69-.1-7.12-.15-13.73,1.09-19.96,3.05-6.24,1.95-12.12,4.57-18.08,7.48-2.97,1.49-5.99,3.01-9.09,4.72-1.57.8-3.12,1.73-4.75,2.58-1.59.95-3.27,1.82-4.94,2.83"/>
          <path class="cls-1" d="M497.49,193.45c-.09-9.95-2.32-18.59-5.81-25.86-3.47-7.3-8-13.33-13.02-18.68-5.06-5.34-10.64-10-16.69-14.66-6.12-4.62-12.72-9.25-20.61-14.16l-2.73,4.41c7.42,4.61,13.66,8.93,19.48,13.22,5.76,4.34,11.11,8.67,15.98,13.66,4.83,5,9.21,10.67,12.58,17.56,3.38,6.87,5.54,15.06,5.63,24.51"/>
          <path class="cls-1" d="M476.08,193.46c-.05-4.19-.1-8.11-.23-11.88-.19-3.76-.3-7.38-.62-10.9-.53-7.06-1.39-13.82-3.04-20.53-1.66-6.69-4.06-13.39-8.06-19.76-3.98-6.34-9.48-12.49-17.17-17.34l-2.78,4.38c7.27,4.59,12.44,10.45,16.14,16.49,3.72,6.06,5.89,12.46,7.36,18.8,1.45,6.37,2.15,12.76,2.55,19.39.26,3.31.32,6.71.47,10.23.09,3.53.13,7.2.17,11.12"/>
          <path class="cls-1" d="M423.6,86.61c3.8,6.64,6.74,13.39,8.82,20.15,5.23,7.24,9.02,14.9,11.46,22.46,2.41,7.62,3.46,15.17,3.3,22.24,1.81-6.27,2.81-13.03,2.89-20.11-3.41-15.41-12.24-31.39-26.48-44.74Z"/>
          <path class="cls-1" d="M410.46,127.18c5.09-4.23,11.03-7.9,17.67-10.74,7.95-1.37,16.55-1.5,25.47-.29,8.87,1.26,18.04,3.9,27.05,8.06-7.81-1.42-15.46-1.86-22.75-1.43-4.37-1-8.79-1.53-13.02-1.83-2.17-.07-4.22-.2-6.33-.11l-3.08.11-3.05.27c-8.02.78-15.48,2.95-21.95,5.97Z"/>
          <path class="cls-1" d="M435.94,125.17c1.26.72,2.44,1.58,3.65,2.38l10.62-15.26c-1.5-.98-2.95-2.03-4.5-2.94l-9.76,15.82Z"/>
          <path class="cls-1" d="M439.66,127.42c1.15.88,2.22,1.88,3.33,2.8,4.08-4.67,8.22-9.24,12.47-13.76-1.3-1.23-2.71-2.32-4.08-3.48-3.99,4.73-7.89,9.54-11.71,14.43Z"/>
          <path class="cls-1" d="M445.66,109.51c-1.49-1-2.96-2.03-4.51-2.94-3.38,5.2-6.67,10.45-9.85,15.76,1.23.79,2.48,1.52,3.65,2.39,3.47-5.13,7.04-10.19,10.7-15.2Z"/>
        </g>
      </g>
      <g>
        <g>
          <path class="cls-1" d="M207.86,189c.96,9.91-.34,18.73-3.05,26.33-2.68,7.63-6.55,14.1-10.98,19.95-4.47,5.85-9.52,11.07-15.05,16.35-5.6,5.24-11.67,10.54-19,16.26l-3.18-4.1c6.89-5.37,12.64-10.32,17.98-15.2,5.27-4.92,10.13-9.79,14.45-15.28,4.27-5.49,8.04-11.58,10.65-18.79,2.64-7.19,3.92-15.56,3.01-24.96"/>
          <path class="cls-1" d="M186.57,191.26c.4,4.17.76,8.07,1.03,11.84.21,3.75.48,7.37.54,10.91.22,7.07.08,13.89-.85,20.73-.94,6.83-2.62,13.75-5.93,20.5-3.29,6.73-8.1,13.42-15.24,19.06l-3.23-4.06c6.75-5.33,11.27-11.7,14.31-18.1,3.06-6.42,4.54-13.01,5.33-19.47.77-6.49.79-12.91.49-19.55-.09-3.31-.39-6.71-.61-10.22-.28-3.52-.64-7.17-1-11.08"/>
          <path class="cls-1" d="M65.86,292.38c2.26,1.05,4.55,1.83,6.78,2.57,1.12.35,2.24.63,3.35.91,1.1.29,2.2.54,3.29.72,1.09.2,2.17.37,3.24.53,1.07.13,2.14.22,3.19.31,2.09.21,4.17.17,6.18.17,8.08-.19,15.42-1.95,22.33-4.37,6.91-2.46,13.46-5.58,20.18-9.25,3.35-1.87,6.77-3.81,10.29-5.98,3.51-2.19,7.18-4.49,11.02-7.12l-2.93-4.28c-3.61,2.47-7.05,4.65-10.34,6.73-3.3,2.06-6.5,3.92-9.64,5.71-6.3,3.53-12.45,6.58-18.98,9.01-6.52,2.39-13.48,4.16-21.14,4.41-1.91.02-3.88.07-5.86-.11-1-.08-2.01-.16-3.03-.27-1.01-.15-2.04-.31-3.07-.49-1.04-.16-2.08-.39-3.13-.67-1.05-.27-2.11-.53-3.18-.85-2.11-.69-4.29-1.43-6.43-2.43"/>
          <path class="cls-1" d="M74.56,272.82c1.9.89,3.78,1.62,5.58,2.44,1.84.71,3.59,1.52,5.36,2.17,3.49,1.43,6.88,2.67,10.21,3.87,6.67,2.32,13.2,4.3,20,5.55,6.79,1.25,13.87,1.7,21.33.66.93-.14,1.87-.27,2.82-.44.93-.2,1.88-.41,2.83-.64,1.92-.42,3.79-1.08,5.73-1.73,3.8-1.46,7.72-3.28,11.47-5.85l-2.89-4.31c-3.54,2.43-7.25,4.14-10.85,5.5-1.84.6-3.61,1.22-5.43,1.6-.9.21-1.79.4-2.68.58-.89.15-1.79.27-2.67.39-7.07.9-13.76.37-20.17-.92-6.42-1.28-12.53-3.26-18.77-5.53-3.12-1.17-6.28-2.36-9.53-3.73-1.64-.63-3.28-1.39-5-2.06-1.68-.77-3.44-1.46-5.22-2.29"/>
          <path class="cls-1" d="M193.47,268.22c-7.59.76-14.91.73-21.96-.13-8.7,1.87-17.27,2.22-25.17,1.39-7.92-.84-15.26-3-21.64-6.03,4.99,4.25,10.75,7.9,17.19,10.84,3.88.8,7.89,1.23,12.08,1.44,4.14.13,8.45.03,12.8-.47,8.71-.98,17.8-3.24,26.71-7.04Z"/>
          <path class="cls-1" d="M161.77,239.73c1.77,6.37,2.69,13.28,2.62,20.51-1.95,7.85-5.31,15.74-10.03,23.41-4.73,7.65-10.92,14.91-18.4,21.47,4.5-6.51,8.03-13.37,10.59-20.2,5.37-7.25,9.25-15.01,11.75-22.68,2.52-7.66,3.56-15.36,3.47-22.5Z"/>
          <path class="cls-1" d="M153.25,263.85c-1.18.85-2.42,1.61-3.65,2.37l9.66,15.88c1.51-.96,3.06-1.88,4.51-2.93l-10.52-15.32Z"/>
          <path class="cls-1" d="M149.69,266.35c-1.26.71-2.61,1.28-3.91,1.91,2.62,5.62,5.14,11.28,7.54,16.98,1.64-.71,3.22-1.55,4.84-2.33-2.72-5.56-5.55-11.1-8.47-16.56Z"/>
          <path class="cls-1" d="M163.64,279.07l2.28-1.42c.76-.48,1.48-1.01,2.23-1.51-3.39-5.19-6.86-10.32-10.43-15.37-1.23.79-2.4,1.65-3.66,2.38,3.28,5.24,6.48,10.55,9.58,15.93Z"/>
        </g>
        <g>
          <path class="cls-1" d="M65.85,292.37c-2.3-.97-4.4-2.17-6.44-3.32-1.99-1.25-3.91-2.46-5.64-3.84-3.54-2.65-6.53-5.63-9.19-8.64-5.24-6.14-8.9-12.71-11.76-19.46-2.87-6.76-4.86-13.78-6.66-21.2-.25-.92-.44-1.87-.65-2.82-.21-.94-.43-1.9-.64-2.87-.35-1.96-.83-3.91-1.16-5.96-.79-4.06-1.47-8.34-2.09-12.95l5.14-.7c.59,4.33,1.21,8.36,1.93,12.18.3,1.93.74,3.77,1.05,5.61.2.91.39,1.82.58,2.71.18.9.36,1.8.58,2.67,1.63,7.02,3.4,13.69,6.03,20.14,2.62,6.44,6.02,12.74,10.94,18.61,2.5,2.88,5.31,5.74,8.66,8.27,1.64,1.32,3.46,2.47,5.34,3.67,1.93,1.09,3.93,2.23,6.11,3.15"/>
          <path class="cls-1" d="M74.55,272.81c-3.82-1.71-7.39-3.34-10.76-5.03-.86-.4-1.69-.81-2.51-1.24-.83-.41-1.65-.82-2.46-1.23-1.58-.88-3.22-1.64-4.75-2.52-6.22-3.37-12.08-6.85-17.54-11.08-5.45-4.22-10.58-9.15-14.82-15.38-4.17-6.23-7.54-13.78-8.85-22.76l5.13-.75c1.24,8.5,4.48,15.62,8.49,21.46,4.08,5.85,9.01,10.44,14.23,14.34,5.23,3.91,10.82,7.1,16.71,10.19,1.44.81,3,1.5,4.48,2.31.76.37,1.54.75,2.32,1.13.77.4,1.55.78,2.36,1.14,3.16,1.56,6.51,3.07,10.08,4.67"/>
          <path class="cls-1" d="M47.3,117.75c-2.04,1.43-3.85,3.04-5.6,4.59-1.68,1.64-3.3,3.23-4.71,4.94-2.91,3.33-5.2,6.88-7.17,10.38-3.83,7.1-6.04,14.3-7.41,21.5-1.38,7.22-1.85,14.49-2.06,22.13-.05.95-.04,1.92-.04,2.89,0,.97-.02,1.95-.03,2.94.06,1.99,0,4,.11,6.07.08,4.13.32,8.46.68,13.1l5.17-.4c-.34-4.36-.58-8.43-.67-12.32-.11-1.95-.07-3.84-.15-5.71,0-.94,0-1.86,0-2.77-.01-.92-.03-1.83,0-2.73.11-7.21.45-14.1,1.66-20.96,1.21-6.85,3.21-13.72,6.78-20.49,1.84-3.34,3.99-6.72,6.73-9.9,1.33-1.64,2.86-3.15,4.45-4.71,1.66-1.47,3.37-3.01,5.31-4.37"/>
          <path class="cls-1" d="M59.92,135.04c-3.37,2.47-6.52,4.82-9.46,7.18-.38.29-.75.57-1.12.86-.36.3-.72.59-1.07.88-.73.58-1.44,1.15-2.15,1.72-1.36,1.19-2.8,2.28-4.11,3.46-5.37,4.6-10.37,9.24-14.82,14.52-4.45,5.27-8.42,11.16-11.26,18.15-2.77,6.97-4.48,15.05-3.88,24.11l5.18-.34c-.57-8.57,1.1-16.21,3.79-22.77,2.76-6.57,6.61-12.1,10.9-17,4.29-4.92,9.09-9.22,14.19-13.47,1.24-1.1,2.61-2.1,3.9-3.2.67-.52,1.35-1.05,2.03-1.59.34-.27.67-.54,1.01-.82.35-.26.7-.53,1.05-.79,2.77-2.19,5.72-4.37,8.88-6.68"/>
          <path class="cls-1" d="M4.43,240.31l1.17-2.57c.41-.85.84-1.7,1.27-2.53.87-1.67,1.73-3.28,2.66-4.86,1.9-3.18,3.84-6.16,6.01-9,5.5-16.95,15.75-30.25,27.4-38.22-6.13,2.21-12.19,5.38-17.97,9.49-5.18,5.94-9.72,13.03-13.27,21.04-3.57,8.02-6.09,17.01-7.28,26.66Z"/>
          <path class="cls-1" d="M44.96,227.12c-6.4-1.64-12.84-4.3-19.06-7.98-5.77-5.64-11.03-12.47-15.24-20.39-4.22-7.9-7.55-16.91-9.43-26.65,3.44,7.17,7.58,13.63,12.21,19.26,3.68,8.27,8.36,15.49,13.77,21.51,5.43,6.01,11.45,10.81,17.75,14.25Z"/>
          <path class="cls-1" d="M28.34,207.68c-.07-1.45-.2-2.9-.22-4.35l-18.57.43c0,1.79.18,3.57.27,5.36l18.52-1.44Z"/>
          <path class="cls-1" d="M27.96,203.34c.11-1.45.12-2.9.31-4.34-6.16-.53-12.32-1.18-18.47-1.95l-.25,2.67c-.07.89-.09,1.78-.14,2.68,6.19.43,12.37.74,18.55.94Z"/>
          <path class="cls-1" d="M9.97,209.05c.01,1.79.18,3.57.27,5.36,6.17-.32,12.38-.76,18.55-1.32-.16-1.45-.15-2.92-.23-4.36-6.21.22-12.4.33-18.58.32Z"/>
        </g>
        <g>
          <path class="cls-1" d="M47.32,117.74c8.06-5.92,16.46-9.02,24.35-10.56,7.94-1.51,15.49-1.34,22.75-.42,7.28.95,14.33,2.63,21.67,4.8,3.67,1.12,7.42,2.3,11.32,3.68,3.89,1.4,7.96,2.89,12.27,4.65l-1.97,4.8c-4.05-1.66-7.87-3.06-11.52-4.41-3.66-1.32-7.18-2.46-10.63-3.56-6.9-2.13-13.56-3.82-20.45-4.82-6.88-.97-14.05-1.24-21.59.13-7.5,1.39-15.49,4.28-23.14,9.9"/>
          <path class="cls-1" d="M59.93,135.03c1.67-1.26,3.36-2.38,4.95-3.56,1.65-1.08,3.19-2.24,4.78-3.25,3.11-2.13,6.17-4.05,9.17-5.93,6.04-3.67,12-6.98,18.38-9.62,6.37-2.65,13.2-4.57,20.71-5.13.94-.06,1.89-.13,2.85-.16.95,0,1.92,0,2.9.03,1.96,0,3.93.26,5.97.49,4.03.63,8.24,1.59,12.44,3.31l-1.91,4.82c-3.97-1.63-7.96-2.52-11.77-3.1-1.93-.2-3.79-.43-5.65-.42-.92-.01-1.84-.01-2.74,0-.91.04-1.8.11-2.69.18-7.1.61-13.53,2.53-19.52,5.13-6,2.6-11.57,5.82-17.19,9.35-2.8,1.8-5.64,3.63-8.54,5.65-1.48.96-2.92,2.05-4.45,3.07-1.48,1.11-3.06,2.15-4.62,3.34"/>
          <path class="cls-1" d="M207.85,188.99c-1.14-9.89-4.27-18.24-8.51-25.1-4.22-6.89-9.37-12.41-14.92-17.2-5.6-4.78-11.64-8.82-18.14-12.82-6.57-3.95-13.62-7.86-21.99-11.91l-2.25,4.68c7.87,3.81,14.52,7.43,20.77,11.09,6.18,3.71,11.96,7.45,17.33,11.9,5.33,4.47,10.29,9.63,14.36,16.14,4.09,6.47,7.1,14.39,8.18,23.78"/>
          <path class="cls-1" d="M186.56,191.25c-.49-4.16-.96-8.05-1.48-11.79-.58-3.71-1.08-7.31-1.77-10.77-1.27-6.96-2.84-13.59-5.18-20.09-2.36-6.47-5.45-12.89-10.1-18.8-4.63-5.89-10.74-11.42-18.9-15.43l-2.3,4.65c7.72,3.79,13.47,9.07,17.79,14.69,4.34,5.64,7.17,11.77,9.3,17.92,2.12,6.18,3.48,12.46,4.58,19.01.61,3.26,1.03,6.64,1.55,10.12.46,3.5.88,7.15,1.34,11.04"/>
          <path class="cls-1" d="M123.1,90.53c4.48,6.2,8.11,12.6,10.9,19.1,5.96,6.65,10.54,13.86,13.77,21.13,3.2,7.32,5.04,14.72,5.63,21.77,1.13-6.42,1.42-13.26.75-20.31-5.02-14.96-15.49-29.92-31.05-41.69Z"/>
          <path class="cls-1" d="M114.32,132.27c4.61-4.74,10.13-9.02,16.43-12.55,7.77-2.2,16.3-3.24,25.3-2.98,8.96.32,18.35,1.98,27.75,5.16-7.92-.59-15.57-.22-22.77.98-4.46-.54-8.91-.59-13.14-.45-2.17.16-4.22.25-6.31.56l-3.05.43-3.01.59c-7.9,1.62-15.08,4.57-21.2,8.26Z"/>
          <path class="cls-1" d="M139.44,127.58c1.33.59,2.59,1.32,3.88,1.98l8.95-16.29c-1.59-.82-3.15-1.71-4.79-2.45l-8.04,16.76Z"/>
          <path class="cls-1" d="M143.38,129.42c1.24.76,2.41,1.63,3.61,2.43,3.56-5.07,7.2-10.05,10.95-14.99-1.42-1.09-2.94-2.02-4.43-3.03-3.47,5.12-6.84,10.32-10.13,15.59Z"/>
          <path class="cls-1" d="M147.46,110.99c-1.58-.83-3.15-1.71-4.79-2.45-2.82,5.53-5.53,11.1-8.13,16.71,1.31.65,2.63,1.25,3.89,1.99,2.91-5.46,5.92-10.88,9.04-16.25Z"/>
        </g>
      </g>
      <g>
        <g>
          <path class="cls-1" d="M352.16,610.71c-.09,9.95-2.32,18.59-5.81,25.86-3.47,7.3-8,13.33-13.02,18.68-5.06,5.34-10.64,10-16.69,14.67-6.12,4.62-12.71,9.25-20.61,14.16l-2.73-4.41c7.42-4.62,13.66-8.93,19.48-13.22,5.76-4.34,11.11-8.67,15.98-13.67,4.83-5,9.21-10.67,12.57-17.56,3.38-6.87,5.54-15.06,5.63-24.51"/>
          <path class="cls-1" d="M330.75,610.71c-.05,4.19-.1,8.11-.23,11.88-.19,3.76-.3,7.38-.62,10.9-.53,7.06-1.38,13.82-3.03,20.53-1.66,6.69-4.06,13.39-8.06,19.76-3.98,6.34-9.48,12.49-17.17,17.34l-2.78-4.38c7.27-4.59,12.44-10.45,16.14-16.49,3.72-6.07,5.89-12.46,7.35-18.8,1.45-6.37,2.15-12.76,2.55-19.39.26-3.31.32-6.71.47-10.23.09-3.53.12-7.2.17-11.12"/>
          <path class="cls-1" d="M200.05,698.53c2.14,1.28,4.34,2.3,6.47,3.27,1.08.46,2.17.86,3.23,1.26,1.06.4,2.13.76,3.2,1.06,1.06.31,2.12.6,3.16.87,1.05.24,2.1.45,3.14.64,2.06.43,4.13.61,6.12.82,8.05.67,15.54-.31,22.67-1.99,7.14-1.72,13.98-4.13,21.04-7.07,3.53-1.5,7.13-3.07,10.87-4.86,3.73-1.8,7.61-3.71,11.71-5.92l-2.47-4.56c-3.85,2.07-7.5,3.88-10.99,5.6-3.5,1.7-6.88,3.21-10.19,4.66-6.63,2.84-13.08,5.23-19.83,6.96-6.74,1.69-13.84,2.72-21.49,2.16-1.9-.18-3.86-.34-5.82-.73-.98-.18-1.98-.37-2.98-.59-.99-.25-1.99-.52-3-.81-1.02-.27-2.03-.61-3.04-.99-1.01-.38-2.05-.75-3.07-1.18-2.03-.91-4.11-1.88-6.14-3.09"/>
          <path class="cls-1" d="M210.77,679.99c1.79,1.08,3.59,2.01,5.29,3.02,1.75.9,3.41,1.89,5.1,2.73,3.32,1.79,6.56,3.38,9.75,4.93,6.39,3.02,12.67,5.67,19.3,7.63,6.62,1.96,13.61,3.15,21.14,2.91.94-.04,1.89-.07,2.85-.14.95-.1,1.91-.21,2.88-.34,1.95-.21,3.88-.68,5.89-1.12,3.94-1.05,8.02-2.45,12.02-4.61l-2.41-4.59c-3.78,2.04-7.65,3.35-11.37,4.32-1.9.4-3.72.83-5.57,1.02-.92.11-1.83.21-2.72.29-.91.06-1.81.08-2.69.11-7.12.15-13.73-1.09-19.96-3.04-6.24-1.95-12.12-4.57-18.08-7.48-2.97-1.49-5.99-3.01-9.09-4.72-1.57-.8-3.12-1.73-4.75-2.58-1.59-.95-3.27-1.82-4.94-2.83"/>
          <path class="cls-1" d="M329.49,687.97c-7.63-.05-14.91-.85-21.83-2.45-8.85.94-17.41.39-25.18-1.27-7.79-1.67-14.85-4.6-20.88-8.28,4.51,4.75,9.86,8.99,15.95,12.59,3.78,1.2,7.72,2.05,11.86,2.71,4.1.57,8.4.92,12.78.88,8.76-.05,18.04-1.34,27.3-4.18Z"/>
          <path class="cls-1" d="M300.98,656.29c1.09,6.52,1.28,13.49.44,20.67-2.76,7.61-6.95,15.09-12.45,22.22-5.51,7.11-12.43,13.68-20.56,19.41,5.17-6,9.39-12.45,12.67-18.97,6.1-6.64,10.78-13.95,14.08-21.31,3.32-7.35,5.16-14.9,5.82-22.01Z"/>
          <path class="cls-1" d="M289.96,679.38c-1.26.72-2.57,1.34-3.88,1.97l7.93,16.81c1.61-.79,3.24-1.54,4.8-2.44l-8.85-16.34Z"/>
          <path class="cls-1" d="M286.15,681.49c-1.33.58-2.73,1-4.09,1.49,2.02,5.87,3.92,11.76,5.71,17.68,1.71-.53,3.37-1.2,5.06-1.81-2.11-5.82-4.35-11.63-6.68-17.36Z"/>
          <path class="cls-1" d="M298.68,695.61l2.42-1.17c.8-.4,1.58-.84,2.37-1.27-2.82-5.52-5.73-10.99-8.74-16.38-1.31.66-2.56,1.39-3.89,1.98,2.71,5.56,5.33,11.18,7.84,16.85Z"/>
        </g>
        <g>
          <path class="cls-1" d="M200.03,698.52c-2.18-1.21-4.15-2.62-6.06-3.98-1.84-1.45-3.63-2.86-5.21-4.41-3.24-3.01-5.9-6.29-8.22-9.56-4.56-6.66-7.51-13.58-9.64-20.6-2.14-7.03-3.38-14.21-4.39-21.79-.15-.94-.25-1.9-.35-2.87-.11-.96-.22-1.93-.34-2.92-.15-1.98-.42-3.97-.53-6.04-.36-4.12-.58-8.45-.71-13.1l5.19-.15c.13,4.37.32,8.44.63,12.32.09,1.95.34,3.82.45,5.69.1.93.2,1.85.29,2.75.09.91.17,1.82.3,2.71.88,7.15,1.94,13.97,3.87,20.67,1.93,6.68,4.64,13.3,8.91,19.66,2.18,3.13,4.67,6.27,7.74,9.13,1.49,1.49,3.18,2.82,4.92,4.21,1.81,1.29,3.67,2.64,5.74,3.78"/>
          <path class="cls-1" d="M210.76,679.99c-3.62-2.1-6.99-4.1-10.17-6.14-.81-.49-1.6-.98-2.36-1.5-.78-.5-1.56-.99-2.32-1.48-1.48-1.04-3.03-1.97-4.45-3.01-5.83-4.01-11.29-8.09-16.28-12.87-4.98-4.77-9.55-10.21-13.12-16.85-3.49-6.63-6.05-14.49-6.4-23.56l5.18-.21c.34,8.58,2.81,16,6.18,22.24,3.44,6.24,7.85,11.33,12.64,15.76,4.78,4.44,10.01,8.2,15.54,11.9,1.35.96,2.82,1.81,4.22,2.77.72.45,1.45.91,2.19,1.37.72.48,1.46.94,2.23,1.39,2.98,1.89,6.15,3.74,9.53,5.71"/>
          <path class="cls-1" d="M200.02,522.91c-2.18,1.21-4.15,2.62-6.06,3.98-1.84,1.45-3.63,2.86-5.21,4.41-3.24,3.01-5.9,6.29-8.22,9.57-4.56,6.66-7.51,13.58-9.64,20.6-2.14,7.03-3.37,14.21-4.39,21.79-.15.94-.24,1.91-.35,2.87-.11.96-.22,1.93-.34,2.92-.15,1.98-.41,3.97-.53,6.04-.36,4.12-.58,8.45-.71,13.1l5.19.15c.13-4.37.31-8.44.63-12.32.09-1.95.33-3.82.45-5.69.1-.93.2-1.85.29-2.75.09-.91.17-1.82.3-2.71.87-7.15,1.94-13.97,3.87-20.67,1.93-6.68,4.64-13.3,8.91-19.66,2.18-3.13,4.67-6.27,7.74-9.14,1.49-1.49,3.18-2.83,4.92-4.21,1.81-1.29,3.67-2.64,5.74-3.78"/>
          <path class="cls-1" d="M210.75,541.44c-3.62,2.1-6.99,4.11-10.16,6.14-.4.25-.8.49-1.2.74-.39.26-.78.51-1.16.77-.78.5-1.56.99-2.32,1.48-1.48,1.04-3.03,1.97-4.45,3.01-5.83,4.01-11.29,8.09-16.27,12.87-4.98,4.77-9.55,10.21-13.11,16.86-3.49,6.63-6.04,14.5-6.4,23.57l5.18.21c.33-8.58,2.81-16,6.17-22.24,3.44-6.24,7.85-11.33,12.63-15.76,4.78-4.44,10.01-8.2,15.54-11.9,1.35-.96,2.82-1.81,4.22-2.77.72-.45,1.45-.91,2.19-1.37.36-.23.73-.47,1.09-.71.38-.22.75-.45,1.13-.68,2.98-1.89,6.15-3.75,9.53-5.71"/>
          <path class="cls-1" d="M144.45,640.27l1.44-2.43c.5-.8,1.02-1.6,1.53-2.38,1.04-1.57,2.07-3.08,3.16-4.56,2.23-2.96,4.47-5.72,6.93-8.32,7.26-16.28,18.86-28.41,31.29-35.12-6.33,1.55-12.69,4.06-18.87,7.54-5.78,5.36-11.04,11.93-15.42,19.53-4.4,7.6-7.85,16.27-10.05,25.74Z"/>
          <path class="cls-1" d="M186.15,631.42c-6.19-2.3-12.31-5.63-18.11-9.95-5.14-6.21-9.66-13.57-13.01-21.88-3.36-8.31-5.73-17.61-6.56-27.5,2.66,7.49,6.1,14.35,10.11,20.44,2.78,8.61,6.68,16.29,11.43,22.84,4.77,6.55,10.24,11.95,16.14,16.05Z"/>
          <path class="cls-1" d="M171.67,610.34c.09-1.45.11-2.91.24-4.35l-18.51-1.53c-.2,1.78-.2,3.57-.3,5.36l18.57.52Z"/>
          <path class="cls-1" d="M171.76,605.99c.26-1.43.43-2.87.76-4.29-6.07-1.18-12.12-2.48-18.16-3.89l-.53,2.63c-.16.88-.28,1.76-.42,2.65,6.11,1.08,12.22,2.04,18.35,2.89Z"/>
          <path class="cls-1" d="M153.26,609.76c-.17,1.78-.2,3.57-.3,5.36,6.17.33,12.39.55,18.58.65,0-1.46.16-2.92.23-4.36-6.19-.44-12.36-.98-18.51-1.65Z"/>
        </g>
        <g>
          <path class="cls-1" d="M200.03,522.9c8.64-5.04,17.32-7.23,25.32-7.93,8.05-.67,15.54.31,22.67,1.99,7.14,1.72,13.98,4.13,21.05,7.06,3.53,1.5,7.13,3.07,10.87,4.85,3.73,1.8,7.61,3.71,11.71,5.92l-2.46,4.57c-3.85-2.07-7.5-3.88-10.99-5.6-3.5-1.7-6.88-3.21-10.19-4.66-6.64-2.84-13.08-5.23-19.83-6.95-6.74-1.69-13.84-2.72-21.49-2.15-7.6.59-15.86,2.62-24.05,7.4"/>
          <path class="cls-1" d="M210.76,541.43c1.79-1.08,3.59-2.02,5.29-3.02,1.75-.9,3.41-1.89,5.1-2.73,3.32-1.79,6.56-3.38,9.75-4.93,6.39-3.02,12.67-5.67,19.3-7.63,6.62-1.96,13.61-3.15,21.14-2.91.94.04,1.89.07,2.85.14.95.1,1.91.21,2.88.34,1.95.21,3.88.68,5.89,1.12,3.94,1.05,8.02,2.45,12.02,4.61l-2.41,4.59c-3.78-2.04-7.65-3.35-11.37-4.32-1.9-.4-3.72-.83-5.57-1.01-.92-.11-1.83-.21-2.72-.29-.91-.05-1.81-.08-2.69-.1-7.12-.15-13.73,1.09-19.96,3.05-6.24,1.95-12.12,4.57-18.08,7.48-2.97,1.49-5.99,3.01-9.09,4.72-1.57.8-3.12,1.73-4.75,2.58-1.59.95-3.27,1.82-4.94,2.83"/>
          <path class="cls-1" d="M352.16,610.7c-.09-9.95-2.32-18.59-5.81-25.86-3.47-7.3-8-13.33-13.02-18.68-5.06-5.34-10.64-10-16.69-14.66-6.12-4.62-12.72-9.25-20.61-14.16l-2.73,4.41c7.42,4.61,13.66,8.93,19.48,13.22,5.76,4.34,11.11,8.67,15.98,13.66,4.83,5,9.21,10.67,12.58,17.56,3.38,6.87,5.54,15.06,5.63,24.51"/>
          <path class="cls-1" d="M330.75,610.7c-.05-4.19-.1-8.11-.23-11.88-.19-3.76-.3-7.38-.62-10.9-.53-7.06-1.39-13.82-3.03-20.53-1.66-6.69-4.06-13.39-8.06-19.76-3.98-6.34-9.48-12.49-17.17-17.34l-2.78,4.38c7.27,4.59,12.44,10.45,16.14,16.49,3.72,6.06,5.89,12.46,7.36,18.8,1.45,6.37,2.15,12.76,2.55,19.39.26,3.31.32,6.71.47,10.23.09,3.53.13,7.2.17,11.12"/>
          <path class="cls-1" d="M278.27,503.85c3.8,6.64,6.74,13.39,8.82,20.15,5.23,7.24,9.02,14.9,11.46,22.46,2.41,7.62,3.46,15.17,3.3,22.24,1.81-6.27,2.81-13.03,2.89-20.11-3.41-15.41-12.24-31.39-26.48-44.74Z"/>
          <path class="cls-1" d="M265.13,544.42c5.09-4.23,11.03-7.9,17.67-10.74,7.95-1.37,16.55-1.5,25.47-.29,8.87,1.26,18.04,3.9,27.05,8.06-7.81-1.42-15.46-1.86-22.75-1.43-4.37-1-8.8-1.53-13.02-1.83-2.17-.07-4.22-.2-6.33-.11l-3.08.11-3.05.27c-8.02.78-15.48,2.95-21.95,5.97Z"/>
          <path class="cls-1" d="M290.6,542.41c1.26.72,2.44,1.58,3.65,2.38l10.62-15.26c-1.5-.98-2.95-2.03-4.5-2.94l-9.76,15.82Z"/>
          <path class="cls-1" d="M294.33,544.66c1.15.88,2.22,1.88,3.33,2.8,4.08-4.67,8.22-9.24,12.47-13.76-1.3-1.23-2.71-2.32-4.08-3.48-3.99,4.73-7.9,9.54-11.71,14.43Z"/>
          <path class="cls-1" d="M300.33,526.76c-1.49-1-2.96-2.03-4.51-2.94-3.38,5.2-6.67,10.45-9.85,15.76,1.23.79,2.48,1.52,3.65,2.39,3.47-5.13,7.04-10.19,10.7-15.2Z"/>
        </g>
      </g>
      <g>
        <g>
          <path class="cls-1" d="M351.6,99.47c.96,9.91-.34,18.73-3.05,26.33-2.68,7.63-6.55,14.1-10.98,19.95-4.47,5.85-9.52,11.07-15.05,16.35-5.6,5.24-11.67,10.54-19,16.26l-3.18-4.1c6.89-5.37,12.64-10.32,17.98-15.2,5.27-4.92,10.13-9.79,14.45-15.28,4.27-5.49,8.04-11.58,10.65-18.79,2.64-7.19,3.92-15.56,3.01-24.96"/>
          <path class="cls-1" d="M330.31,101.72c.4,4.17.76,8.07,1.03,11.84.21,3.75.48,7.37.54,10.91.22,7.07.08,13.89-.85,20.73-.94,6.83-2.62,13.75-5.93,20.5-3.29,6.73-8.1,13.42-15.24,19.06l-3.23-4.06c6.75-5.33,11.27-11.7,14.31-18.1,3.06-6.42,4.54-13.01,5.33-19.47.77-6.49.79-12.91.49-19.55-.09-3.31-.39-6.71-.61-10.22-.28-3.52-.64-7.17-1-11.08"/>
          <path class="cls-1" d="M209.6,202.84c2.26,1.05,4.55,1.83,6.78,2.57,1.12.35,2.24.63,3.35.91,1.1.29,2.2.54,3.29.72,1.09.2,2.17.37,3.24.53,1.07.13,2.14.22,3.19.31,2.09.21,4.17.17,6.18.17,8.08-.19,15.42-1.95,22.33-4.37,6.91-2.46,13.46-5.58,20.18-9.25,3.35-1.87,6.77-3.81,10.29-5.98,3.51-2.19,7.18-4.49,11.02-7.12l-2.93-4.28c-3.61,2.47-7.05,4.65-10.34,6.73-3.3,2.06-6.5,3.92-9.64,5.71-6.3,3.53-12.45,6.58-18.98,9.01-6.52,2.39-13.48,4.16-21.14,4.41-1.91.02-3.88.07-5.86-.11-1-.08-2.01-.16-3.03-.27-1.01-.15-2.04-.31-3.07-.49-1.04-.16-2.08-.39-3.13-.67-1.05-.27-2.11-.53-3.18-.85-2.11-.69-4.29-1.43-6.44-2.43"/>
          <path class="cls-1" d="M218.31,183.28c1.9.89,3.78,1.62,5.58,2.44,1.84.71,3.59,1.52,5.36,2.17,3.49,1.43,6.88,2.67,10.21,3.87,6.67,2.32,13.2,4.3,20,5.55,6.79,1.25,13.87,1.7,21.33.66.93-.14,1.87-.27,2.82-.44.93-.2,1.88-.41,2.83-.64,1.92-.42,3.79-1.08,5.73-1.73,3.8-1.46,7.72-3.28,11.47-5.85l-2.89-4.31c-3.54,2.43-7.25,4.14-10.85,5.5-1.84.6-3.61,1.22-5.43,1.6-.9.21-1.79.4-2.68.58-.9.15-1.79.27-2.67.39-7.07.9-13.76.37-20.17-.92-6.42-1.28-12.53-3.26-18.77-5.53-3.12-1.17-6.28-2.36-9.53-3.73-1.64-.63-3.28-1.39-5-2.06-1.68-.77-3.44-1.46-5.22-2.29"/>
          <path class="cls-1" d="M337.21,178.68c-7.59.76-14.91.73-21.96-.13-8.7,1.87-17.27,2.22-25.17,1.4-7.92-.84-15.26-3-21.64-6.03,4.99,4.25,10.75,7.9,17.19,10.84,3.88.8,7.89,1.23,12.08,1.44,4.14.13,8.45.03,12.8-.47,8.71-.98,17.8-3.24,26.71-7.04Z"/>
          <path class="cls-1" d="M305.51,150.2c1.77,6.37,2.69,13.28,2.62,20.51-1.95,7.85-5.31,15.74-10.03,23.41-4.73,7.65-10.92,14.91-18.4,21.47,4.5-6.51,8.03-13.37,10.59-20.2,5.37-7.25,9.25-15.01,11.75-22.68,2.52-7.66,3.56-15.36,3.47-22.5Z"/>
          <path class="cls-1" d="M296.99,174.32c-1.18.85-2.42,1.61-3.65,2.37l9.66,15.88c1.51-.96,3.06-1.88,4.51-2.93l-10.52-15.32Z"/>
          <path class="cls-1" d="M293.43,176.81c-1.26.71-2.61,1.28-3.91,1.91,2.62,5.62,5.14,11.28,7.54,16.98,1.64-.71,3.22-1.55,4.84-2.33-2.72-5.56-5.55-11.1-8.47-16.56Z"/>
          <path class="cls-1" d="M307.38,189.54l2.28-1.42c.76-.48,1.48-1.01,2.23-1.51-3.39-5.19-6.86-10.32-10.43-15.37-1.23.79-2.4,1.65-3.66,2.38,3.28,5.24,6.48,10.55,9.58,15.93Z"/>
        </g>
        <g>
          <path class="cls-1" d="M209.59,202.84c-2.3-.97-4.4-2.17-6.44-3.32-1.99-1.25-3.91-2.46-5.64-3.84-3.54-2.65-6.53-5.63-9.19-8.64-5.24-6.14-8.9-12.71-11.76-19.46-2.87-6.76-4.86-13.78-6.66-21.2-.25-.92-.44-1.87-.65-2.82-.21-.94-.43-1.9-.64-2.87-.35-1.96-.83-3.91-1.16-5.96-.79-4.06-1.47-8.34-2.09-12.95l5.14-.7c.59,4.33,1.21,8.36,1.93,12.18.3,1.93.74,3.77,1.05,5.61.2.91.39,1.82.58,2.71.18.9.36,1.8.58,2.67,1.63,7.02,3.4,13.69,6.03,20.14,2.62,6.44,6.02,12.74,10.94,18.61,2.5,2.88,5.31,5.74,8.66,8.27,1.64,1.32,3.46,2.47,5.34,3.67,1.93,1.09,3.93,2.23,6.11,3.15"/>
          <path class="cls-1" d="M218.3,183.28c-3.82-1.71-7.39-3.34-10.76-5.03-.86-.4-1.69-.81-2.51-1.24-.83-.41-1.65-.82-2.46-1.23-1.58-.88-3.22-1.64-4.75-2.52-6.22-3.37-12.08-6.85-17.54-11.08-5.45-4.22-10.58-9.15-14.82-15.38-4.17-6.23-7.54-13.78-8.85-22.76l5.13-.75c1.24,8.5,4.48,15.62,8.49,21.46,4.08,5.85,9.01,10.44,14.23,14.34,5.23,3.91,10.82,7.1,16.71,10.19,1.44.81,3,1.5,4.48,2.31.76.37,1.54.75,2.32,1.13.77.4,1.55.78,2.36,1.14,3.16,1.56,6.51,3.07,10.08,4.67"/>
          <path class="cls-1" d="M191.05,28.21c-2.04,1.43-3.85,3.04-5.6,4.59-1.68,1.64-3.3,3.23-4.71,4.94-2.91,3.33-5.2,6.88-7.17,10.38-3.83,7.1-6.04,14.3-7.41,21.5-1.38,7.22-1.85,14.49-2.06,22.13-.05.95-.04,1.92-.04,2.89,0,.97-.02,1.95-.03,2.94.06,1.99,0,4,.11,6.07.08,4.13.32,8.46.68,13.1l5.17-.4c-.34-4.36-.58-8.43-.67-12.32-.11-1.95-.07-3.84-.15-5.71,0-.94,0-1.86,0-2.77-.01-.92-.03-1.83,0-2.73.11-7.21.45-14.1,1.66-20.96,1.21-6.85,3.21-13.72,6.78-20.49,1.84-3.34,3.99-6.72,6.73-9.9,1.33-1.64,2.86-3.15,4.45-4.71,1.66-1.47,3.37-3.01,5.31-4.37"/>
          <path class="cls-1" d="M203.66,45.51c-3.37,2.47-6.52,4.82-9.46,7.18-.38.29-.75.57-1.12.86-.36.3-.72.59-1.07.88-.73.58-1.44,1.15-2.15,1.72-1.36,1.19-2.8,2.28-4.11,3.46-5.37,4.6-10.37,9.24-14.82,14.52-4.45,5.27-8.42,11.16-11.26,18.15-2.77,6.97-4.48,15.05-3.88,24.11l5.18-.34c-.57-8.57,1.1-16.21,3.79-22.77,2.76-6.57,6.61-12.1,10.9-17,4.29-4.92,9.09-9.22,14.19-13.47,1.24-1.1,2.61-2.1,3.9-3.2.67-.52,1.35-1.05,2.03-1.59.34-.27.67-.54,1.01-.82.35-.26.7-.53,1.05-.79,2.77-2.19,5.72-4.37,8.88-6.68"/>
          <path class="cls-1" d="M148.17,150.78l1.17-2.57c.41-.85.84-1.7,1.27-2.53.87-1.67,1.73-3.28,2.66-4.86,1.9-3.18,3.84-6.16,6.01-9,5.5-16.95,15.75-30.25,27.4-38.22-6.13,2.21-12.19,5.38-17.97,9.49-5.18,5.94-9.72,13.03-13.27,21.04-3.57,8.02-6.09,17.01-7.28,26.66Z"/>
          <path class="cls-1" d="M188.7,137.58c-6.4-1.64-12.84-4.3-19.06-7.98-5.77-5.64-11.03-12.47-15.24-20.39-4.22-7.9-7.55-16.91-9.43-26.65,3.44,7.17,7.58,13.63,12.21,19.26,3.68,8.27,8.37,15.49,13.77,21.51,5.44,6.01,11.45,10.81,17.75,14.25Z"/>
          <path class="cls-1" d="M172.08,118.14c-.07-1.45-.2-2.9-.22-4.35l-18.57.43c0,1.79.18,3.57.27,5.36l18.52-1.44Z"/>
          <path class="cls-1" d="M171.71,113.81c.11-1.45.12-2.9.31-4.34-6.16-.53-12.32-1.18-18.47-1.95l-.25,2.67c-.07.89-.09,1.78-.14,2.68,6.19.43,12.37.74,18.55.94Z"/>
          <path class="cls-1" d="M153.71,119.51c.01,1.79.18,3.57.27,5.36,6.17-.32,12.38-.76,18.55-1.32-.16-1.45-.15-2.92-.23-4.36-6.21.22-12.4.33-18.58.32Z"/>
        </g>
        <g>
          <path class="cls-1" d="M191.06,28.2c8.06-5.92,16.46-9.02,24.35-10.56,7.94-1.51,15.49-1.33,22.75-.42,7.28.95,14.33,2.63,21.67,4.8,3.67,1.12,7.42,2.3,11.32,3.68,3.89,1.4,7.96,2.89,12.27,4.65l-1.97,4.8c-4.05-1.66-7.87-3.06-11.52-4.41-3.66-1.32-7.18-2.46-10.63-3.56-6.9-2.13-13.56-3.82-20.45-4.82-6.88-.97-14.05-1.24-21.59.13-7.5,1.39-15.49,4.28-23.14,9.9"/>
          <path class="cls-1" d="M203.67,45.5c1.67-1.26,3.36-2.38,4.95-3.56,1.65-1.08,3.19-2.24,4.78-3.25,3.11-2.13,6.17-4.05,9.17-5.93,6.04-3.67,12-6.98,18.38-9.62,6.37-2.65,13.2-4.57,20.71-5.13.94-.06,1.89-.13,2.85-.16.95,0,1.92,0,2.9.03,1.96,0,3.93.26,5.97.49,4.03.63,8.24,1.59,12.44,3.31l-1.91,4.82c-3.97-1.63-7.96-2.52-11.77-3.1-1.93-.2-3.79-.43-5.65-.42-.92-.01-1.84-.01-2.74,0-.91.04-1.8.11-2.69.18-7.1.61-13.53,2.53-19.52,5.13-6,2.6-11.57,5.82-17.19,9.35-2.8,1.8-5.64,3.63-8.54,5.65-1.48.96-2.92,2.05-4.45,3.07-1.48,1.11-3.06,2.15-4.62,3.34"/>
          <path class="cls-1" d="M351.6,99.45c-1.14-9.89-4.27-18.24-8.51-25.1-4.22-6.89-9.37-12.41-14.92-17.2-5.6-4.78-11.64-8.82-18.14-12.82-6.57-3.95-13.62-7.86-21.99-11.91l-2.25,4.68c7.87,3.81,14.52,7.43,20.77,11.09,6.18,3.71,11.96,7.45,17.33,11.9,5.33,4.47,10.29,9.63,14.36,16.14,4.09,6.47,7.1,14.39,8.18,23.78"/>
          <path class="cls-1" d="M330.31,101.71c-.49-4.16-.96-8.05-1.48-11.79-.58-3.71-1.08-7.31-1.77-10.77-1.27-6.96-2.84-13.59-5.18-20.09-2.36-6.47-5.45-12.89-10.1-18.8-4.63-5.89-10.74-11.42-18.9-15.43l-2.3,4.65c7.72,3.79,13.47,9.07,17.79,14.69,4.34,5.64,7.17,11.77,9.3,17.92,2.12,6.18,3.48,12.46,4.58,19.01.61,3.26,1.03,6.64,1.55,10.12.46,3.5.88,7.15,1.34,11.04"/>
          <path class="cls-1" d="M266.85,1c4.48,6.2,8.11,12.6,10.9,19.1,5.96,6.65,10.54,13.86,13.77,21.13,3.2,7.32,5.04,14.72,5.63,21.77,1.13-6.42,1.42-13.26.75-20.31-5.02-14.96-15.49-29.92-31.05-41.69Z"/>
          <path class="cls-1" d="M258.06,42.73c4.61-4.74,10.13-9.02,16.43-12.55,7.77-2.2,16.3-3.24,25.3-2.98,8.96.32,18.35,1.98,27.75,5.16-7.92-.59-15.57-.22-22.77.98-4.46-.54-8.91-.59-13.14-.45-2.17.16-4.22.25-6.31.56l-3.05.43-3.01.59c-7.9,1.62-15.08,4.57-21.2,8.26Z"/>
          <path class="cls-1" d="M283.18,38.04c1.33.59,2.59,1.32,3.88,1.98l8.95-16.29c-1.59-.82-3.15-1.71-4.79-2.45l-8.04,16.76Z"/>
          <path class="cls-1" d="M287.12,39.88c1.24.76,2.41,1.63,3.61,2.43,3.56-5.07,7.2-10.05,10.95-14.99-1.42-1.09-2.94-2.02-4.43-3.03-3.47,5.12-6.84,10.32-10.13,15.59Z"/>
          <path class="cls-1" d="M291.2,21.45c-1.58-.83-3.15-1.71-4.79-2.45-2.82,5.53-5.53,11.1-8.13,16.71,1.31.65,2.63,1.25,3.89,1.99,2.91-5.46,5.92-10.88,9.04-16.25Z"/>
        </g>
      </g>
    </g>
  </g>
</svg>