<?xml version="1.0" encoding="UTF-8"?>
<svg id="Layer_2" data-name="Layer 2" xmlns="http://www.w3.org/2000/svg" viewBox="0 0 744.18 873.46">
  <defs>
    <style>
      .cls-1 {
        fill: #bfbfbf;
        stroke: #000;
        stroke-linecap: round;
        stroke-width: 2.5px;
      }
    </style>
  </defs>
  <g id="Layer_2-2" data-name="Layer 2">
    <g>
      <g>
        <g>
          <path class="cls-1" d="M595.21,22.1c-26.65,21.11-49.13,19.55-78.38,42.72l-3.22-4.07c29.25-23.17,51.73-21.62,78.37-42.73"/>
          <path class="cls-1" d="M581.91,5.32c-28.35,22.46-32.93,45.46-58.76,65.92l-3.22-4.07c25.83-20.47,30.41-43.47,58.75-65.93"/>
          <path class="cls-1" d="M453.34,134.5c26.65-21.11,30.27-43.36,59.52-66.53l-3.22-4.07c-29.24,23.17-32.87,45.41-59.52,66.53"/>
          <path class="cls-1" d="M440.05,117.72c28.35-22.46,51.78-21.66,77.61-42.12l-3.22-4.07c-25.83,20.47-49.27,19.66-77.62,42.12"/>
          <polygon class="cls-1" points="548.19 70.74 528.26 65.7 478.06 69.95 499.42 73.66 548.19 70.74"/>
          <polygon class="cls-1" points="524.43 35.34 521.86 57.26 504.73 103.89 506.43 82.91 524.43 35.34"/>
          <rect class="cls-1" x="511.42" y="60.61" width="4.76" height="18.58" transform="translate(62.22 324.77) rotate(-37.19)"/>
          <polygon class="cls-1" points="506.4 64.06 502.44 66.7 512.67 82.2 516.64 79.56 506.4 64.06"/>
          <polygon class="cls-1" points="521.18 75.77 525.15 73.12 514.91 57.62 510.94 60.26 521.18 75.77"/>
        </g>
        <g>
          <path class="cls-1" d="M453.33,134.51c-26.65,21.11-49.13,19.55-78.38,42.72l-3.22-4.07c29.25-23.17,51.73-21.62,78.37-42.73"/>
          <path class="cls-1" d="M440.04,117.73c-28.35,22.46-32.93,45.46-58.76,65.92l-3.22-4.07c25.83-20.46,30.41-43.47,58.75-65.93"/>
          <path class="cls-1" d="M311.47,246.91c26.65-21.11,30.27-43.36,59.52-66.53l-3.22-4.07c-29.24,23.17-32.87,45.41-59.52,66.53"/>
          <path class="cls-1" d="M298.17,230.13c28.35-22.46,51.78-21.66,77.61-42.13l-3.22-4.07c-25.83,20.46-49.27,19.66-77.62,42.12"/>
          <polygon class="cls-1" points="406.32 183.14 386.38 178.11 336.18 182.36 357.55 186.07 406.32 183.14"/>
          <polygon class="cls-1" points="382.55 147.75 379.99 169.67 362.85 216.29 364.56 195.32 382.55 147.75"/>
          <rect class="cls-1" x="369.55" y="173.02" width="4.76" height="18.58" transform="translate(-34.57 261.87) rotate(-37.19)"/>
          <polygon class="cls-1" points="364.52 176.47 360.56 179.11 370.8 194.61 374.76 191.97 364.52 176.47"/>
          <polygon class="cls-1" points="379.31 188.18 383.27 185.53 373.03 170.03 369.07 172.67 379.31 188.18"/>
        </g>
        <g>
          <path class="cls-1" d="M311.46,246.92c-26.65,21.11-49.13,19.55-78.38,42.72l-3.22-4.07c29.25-23.17,51.73-21.62,78.37-42.73"/>
          <path class="cls-1" d="M298.16,230.14c-28.35,22.46-32.93,45.46-58.76,65.92l-3.22-4.07c25.83-20.47,30.41-43.47,58.75-65.93"/>
          <path class="cls-1" d="M169.59,359.32c26.65-21.11,30.27-43.36,59.52-66.53l-3.22-4.07c-29.24,23.17-32.87,45.41-59.52,66.53"/>
          <path class="cls-1" d="M156.3,342.54c28.35-22.46,51.78-21.66,77.61-42.12l-3.22-4.07c-25.83,20.47-49.27,19.66-77.62,42.12"/>
          <polygon class="cls-1" points="264.44 295.55 244.51 290.52 194.31 294.77 215.67 298.48 264.44 295.55"/>
          <polygon class="cls-1" points="240.68 260.16 238.11 282.08 220.98 328.7 222.68 307.73 240.68 260.16"/>
          <rect class="cls-1" x="227.67" y="285.43" width="4.76" height="18.58" transform="translate(-131.35 198.96) rotate(-37.19)"/>
          <polygon class="cls-1" points="222.65 288.87 218.69 291.52 228.92 307.02 232.89 304.38 222.65 288.87"/>
          <polygon class="cls-1" points="237.43 300.59 241.4 297.94 231.16 282.43 227.19 285.08 237.43 300.59"/>
        </g>
        <g>
          <path class="cls-1" d="M169.58,359.33c-26.65,21.11-49.13,19.55-78.38,42.72l-3.22-4.07c29.25-23.17,51.73-21.62,78.37-42.73"/>
          <path class="cls-1" d="M156.29,342.55c-28.35,22.46-32.93,45.46-58.76,65.92l-3.22-4.07c25.83-20.47,30.41-43.47,58.75-65.93"/>
          <path class="cls-1" d="M137.51,428.42c-15.39-7.21-28.47-9.14-41.93-11.25-6.73-1.05-13.55-2.15-20.8-3.98-.9-.24-1.82-.48-2.74-.72l-.17-.05s-.06-.02-.01,0l.19.1c.12.07.24.15.36.24.47.35.87.83,1.14,1.34.53,1.04.57,2.23.1,3.29-.23.53-.6,1.01-1.01,1.35l-.16.12c-.05.04,0,0,0,0l.06-.07.12-.13.5-.53c1.33-1.43,2.73-2.86,4.21-4.29,2.95-2.87,6.21-5.75,9.86-8.65l-3.22-4.07c-3.66,2.9-6.91,5.78-9.86,8.65-1.48,1.43-2.87,2.86-4.21,4.29l-.5.53-.28.3c-.15.16-.27.36-.33.57-.13.42-.04.85.18,1.18.2.34.66.5.83.53.92.24,1.84.48,2.74.72,7.25,1.82,14.07,2.92,20.8,3.98,13.45,2.11,26.53,4.04,41.92,11.25"/>
          <path class="cls-1" d="M128.43,447.8c-16.38-7.67-27-16.84-37.26-25.83-5.13-4.5-10.17-8.95-15.79-13.16l-1.06-.79-.27-.2-.03-.02s-.03-.02,0,0l.2.09c.27.13.54.27.79.43.53.32,1.03.7,1.5,1.14,1.88,1.77,2.91,4.27,2.88,6.75-.01,1.25-.28,2.54-.82,3.73-.53,1.19-1.36,2.29-2.27,3.11l-.32.28.04-.02.07-.04.15-.08.29-.16c.39-.22.78-.43,1.18-.65,1.57-.88,3.15-1.81,4.74-2.8,3.17-1.98,6.36-4.21,9.59-6.76l-3.22-4.07c-3.23,2.56-6.42,4.78-9.59,6.76-1.58.99-3.16,1.92-4.74,2.8-.4.22-.79.43-1.18.65l-.29.16-.15.08-.07.04-.04.02.14-.12c.83-.75,1.35-1.96,1.31-3.05,0-1.09-.48-2.16-1.31-2.91-.21-.18-.42-.34-.65-.48-.11-.06-.22-.12-.34-.18l-.09-.04s0,0,0,0l.03.02.27.2,1.06.79c5.62,4.21,10.66,8.66,15.79,13.16,10.26,9,20.88,18.17,37.26,25.84"/>
          <path class="cls-1" d="M122.57,407.96l-19.93-5.03-25.1,2.12-12.55,1.06-1.57.13-.78.07h-.1s-.02.01-.02.01h-.01s-.07.05-.1.08l-.49.38c-.63.51-1.25,1.14-1.79,1.81-1.1,1.37-1.91,2.99-2.36,4.69-.89,3.4-.37,7.07,1.61,10.2.99,1.56,2.34,2.92,3.85,3.92.37.25.76.48,1.15.69.14.07.1.06.11.07v.02s.04.04.04.04l.1.17.82,1.34,3.28,5.38-1.55-5.19-.78-2.6-.39-1.3-.19-.65v-.04s-.29-.17-.29-.17c-.2-.13-.4-.26-.59-.4-.38-.27-.76-.6-1.11-.92-.7-.67-1.3-1.45-1.77-2.28-1.87-3.33-1.54-7.27.52-10.07.51-.69,1.11-1.29,1.75-1.77.16-.12.32-.23.49-.34.11-.08.09-.04.11-.05h.04s.17.04.17.04l.67.12,2.67.46,5.34.93,48.77-2.93Z"/>
          <path class="cls-1" d="M98.8,372.56l-2.57,21.93-8.57,23.31-4.28,11.66-.54,1.46-.27.73v.02s.38-.3.38-.3c.26-.21.52-.42.78-.65.5-.44.99-.91,1.47-1.43.95-1.02,1.81-2.17,2.54-3.41,1.47-2.47,2.39-5.25,2.71-8.04.32-2.79.07-5.61-.76-8.33-.83-2.71-2.26-5.33-4.21-7.56-.97-1.12-2.07-2.12-3.23-2.99-.6-.44-1.18-.83-1.78-1.19-.3-.18-.61-.35-.92-.52l-.47-.24s0,0,0-.01l.39-.04,1.54-.17,6.17-.68-4.88,1.96-2.44.98-1.22.49-.61.25-.31.12h-.02s.16.09.23.13l.53.3c.35.21.69.43,1.02.66.67.46,1.34.99,1.94,1.56,2.49,2.28,4.26,5.3,5.03,8.38.79,3.09.7,6.29-.26,9.3-.93,3.01-2.86,5.79-5.15,7.65-.28.23-.58.46-.87.67-.05.04-.06.04-.05.03h0s0-.03,0-.03v-.04s.02-.16.02-.16l.03-.33.21-2.62.43-5.24,18-47.57Z"/>
          <rect class="cls-1" x="85.8" y="397.84" width="4.76" height="18.58" transform="translate(-228.14 136.07) rotate(-37.19)"/>
          <polygon class="cls-1" points="80.77 401.28 76.81 403.93 87.05 419.43 91.01 416.79 80.77 401.28"/>
          <polygon class="cls-1" points="95.56 413 99.52 410.35 89.28 394.84 85.32 397.49 95.56 413"/>
        </g>
        <g>
          <path class="cls-1" d="M137.53,428.42c30.79,14.42,39.43,35.24,73.22,51.06l-2.2,4.7c-33.79-15.83-42.43-36.64-73.22-51.06"/>
          <path class="cls-1" d="M128.45,447.81c32.75,15.34,55.38,9.17,85.22,23.15l-2.2,4.7c-29.84-13.98-52.47-7.8-85.22-23.14"/>
          <path class="cls-1" d="M301.44,505.19c-30.79-14.42-52.31-7.73-86.1-23.56l-2.2,4.7c33.79,15.83,55.31,9.14,86.1,23.56"/>
          <path class="cls-1" d="M292.36,524.58c-32.75-15.34-42.5-36.67-72.34-50.64l-2.2,4.7c29.84,13.98,39.59,35.31,72.34,50.65"/>
          <polygon class="cls-1" points="202.03 448.78 206.43 468.86 232.64 511.89 226.42 491.12 202.03 448.78"/>
          <polygon class="cls-1" points="180.97 485.85 201.73 478.36 251.1 472.88 231.57 480.71 180.97 485.85"/>
          <rect class="cls-1" x="207.35" y="477.54" width="18.58" height="4.76" transform="translate(-309.59 461.49) rotate(-63.7)"/>
          <polygon class="cls-1" points="214.71 489.16 218.85 491.53 228.15 475.45 224.02 473.08 214.71 489.16"/>
          <polygon class="cls-1" points="218.59 470.7 214.46 468.34 205.15 484.42 209.29 486.79 218.59 470.7"/>
        </g>
        <g>
          <path class="cls-1" d="M301.45,505.2c30.79,14.42,39.43,35.24,73.22,51.06l-2.2,4.7c-33.79-15.83-42.43-36.64-73.22-51.06"/>
          <path class="cls-1" d="M292.37,524.58c32.75,15.34,55.38,9.17,85.22,23.15l-2.2,4.7c-29.84-13.98-52.47-7.8-85.22-23.14"/>
          <path class="cls-1" d="M465.36,581.96c-30.79-14.42-52.31-7.73-86.1-23.56l-2.2,4.7c33.79,15.83,55.31,9.14,86.1,23.56"/>
          <path class="cls-1" d="M456.28,601.35c-32.75-15.34-42.5-36.67-72.34-50.64l-2.2,4.7c29.84,13.98,39.59,35.31,72.34,50.65"/>
          <polygon class="cls-1" points="365.95 525.56 370.35 545.64 396.56 588.66 390.34 567.89 365.95 525.56"/>
          <polygon class="cls-1" points="344.89 562.62 365.65 555.13 415.02 549.65 395.49 557.49 344.89 562.62"/>
          <rect class="cls-1" x="371.27" y="554.32" width="18.58" height="4.76" transform="translate(-287.13 651.2) rotate(-63.7)"/>
          <polygon class="cls-1" points="378.63 565.94 382.77 568.3 392.07 552.22 387.94 549.85 378.63 565.94"/>
          <polygon class="cls-1" points="382.51 547.47 378.38 545.11 369.07 561.2 373.21 563.56 382.51 547.47"/>
        </g>
        <g>
          <path class="cls-1" d="M442.23,780.96c-27.27,5.71-43.74-6.35-73.67-.08l-1.06-5.08c29.93-6.27,46.4,5.79,73.67.08"/>
          <path class="cls-1" d="M437.84,760c-29.01,6.08-40.23,23.94-66.66,29.48l-1.06-5.08c26.43-5.54,37.65-23.41,66.66-29.49"/>
          <path class="cls-1" d="M297.07,811.37c27.27-5.71,37.51-23.38,67.44-29.65l-1.06-5.08c-29.93,6.27-40.17,23.93-67.44,29.64"/>
          <path class="cls-1" d="M292.67,790.42c29.01-6.08,46.46,5.78,72.89.24l-1.06-5.08c-26.43,5.54-43.88-6.32-72.89-.25"/>
          <polygon class="cls-1" points="390.28 800.96 376.91 787.08 337.53 766.88 352.43 780.29 390.28 800.96"/>
          <polygon class="cls-1" points="384.26 758.79 374.92 776.68 346.24 809.15 354.61 791.69 384.26 758.79"/>
          <polygon class="cls-1" points="364.74 774.38 360.9 775.09 364.4 793.33 368.24 792.63 364.74 774.38"/>
          <polygon class="cls-1" points="360.94 775.24 357.05 775.66 359.56 794.04 363.45 793.63 360.94 775.24"/>
          <polygon class="cls-1" points="368.17 792.49 372.06 792.07 369.55 773.68 365.66 774.09 368.17 792.49"/>
        </g>
        <g>
          <path class="cls-1" d="M297.06,811.38c-27.27,5.71-43.74-6.35-73.67-.08l-1.06-5.08c29.93-6.27,46.4,5.79,73.67.08"/>
          <path class="cls-1" d="M292.66,790.42c-29.01,6.08-40.23,23.94-66.66,29.48l-1.06-5.08c26.43-5.54,37.65-23.41,66.66-29.48"/>
          <path class="cls-1" d="M151.89,841.79c27.27-5.71,37.51-23.38,67.44-29.65l-1.06-5.08c-29.93,6.27-40.17,23.93-67.44,29.64"/>
          <path class="cls-1" d="M147.5,820.84c29.01-6.08,46.46,5.78,72.89.24l-1.06-5.08c-26.43,5.54-43.88-6.32-72.89-.25"/>
          <polygon class="cls-1" points="245.1 831.38 231.73 817.5 192.35 797.3 207.25 810.71 245.1 831.38"/>
          <polygon class="cls-1" points="239.08 789.22 229.74 807.1 201.06 839.57 209.43 822.11 239.08 789.22"/>
          <polygon class="cls-1" points="219.56 804.8 215.72 805.51 219.22 823.75 223.06 823.05 219.56 804.8"/>
          <polygon class="cls-1" points="215.76 805.66 211.88 806.08 214.38 824.46 218.27 824.05 215.76 805.66"/>
          <polygon class="cls-1" points="222.99 822.91 226.88 822.49 224.37 804.1 220.48 804.51 222.99 822.91"/>
        </g>
        <g>
          <path class="cls-1" d="M151.88,841.8c-27.27,5.71-43.74-6.35-73.67-.08l-1.06-5.08c29.93-6.27,46.4,5.79,73.67.08"/>
          <path class="cls-1" d="M147.49,820.84c-29.01,6.08-40.23,23.94-66.66,29.48l-1.06-5.08c26.43-5.54,37.65-23.41,66.66-29.48"/>
          <path class="cls-1" d="M6.71,872.21c27.27-5.71,37.51-23.38,67.44-29.65l-1.06-5.08c-29.93,6.27-40.17,23.93-67.44,29.64"/>
          <path class="cls-1" d="M2.32,851.26c29.01-6.08,46.46,5.78,72.89.24l-1.06-5.08c-26.43,5.54-43.88-6.32-72.89-.25"/>
          <polygon class="cls-1" points="99.92 861.8 86.55 847.92 47.17 827.72 62.07 841.13 99.92 861.8"/>
          <polygon class="cls-1" points="93.9 819.64 84.56 837.52 55.88 869.99 64.25 852.53 93.9 819.64"/>
          <polygon class="cls-1" points="74.38 835.23 70.54 835.93 74.04 854.17 77.88 853.47 74.38 835.23"/>
          <polygon class="cls-1" points="70.58 836.08 66.7 836.5 69.2 854.88 73.09 854.47 70.58 836.08"/>
          <polygon class="cls-1" points="77.81 853.33 81.7 852.91 79.19 834.52 75.3 834.93 77.81 853.33"/>
        </g>
        <g>
          <path class="cls-1" d="M436.75,754.8c1.86-.39,3.71-.78,5.56-1.16,1.85-.38,3.7-.75,5.54-1.12,1.84-.36,3.68-.72,5.52-1.08,1.84-.35,3.67-.7,5.49-1.04,3.65-.66,7.28-1.32,10.89-1.97,3.61-.61,7.19-1.22,10.76-1.82,3.56-.56,7.09-1.12,10.61-1.68,3.5-.52,6.98-1.03,10.44-1.54,3.44-.47,6.86-.94,10.25-1.41,3.38-.43,6.73-.86,10.05-1.28,3.31-.39,6.59-.78,9.84-1.16,3.23-.35,6.43-.7,9.6-1.05,3.15-.32,6.27-.63,9.35-.94,3.06-.28,6.09-.56,9.09-.84,2.97-.25,5.91-.5,8.8-.74,2.88-.22,5.71-.44,8.5-.65,2.77-.19,5.5-.38,8.19-.56,2.67-.16,5.29-.33,7.85-.48,2.55-.14,5.06-.28,7.51-.41,2.43-.12,4.82-.23,7.14-.34,2.31-.1,4.56-.19,6.76-.28,2.18-.08,4.3-.15,6.36-.22,2.05-.06,4.03-.12,5.95-.17,1.91-.04,3.75-.08,5.52-.12,3.51-.05,6.74-.1,9.67-.14,2.89-.01,5.49-.02,7.75-.03,2.24.02,4.15.03,5.7.04,3.06.06,4.72.09,4.72.09-1.23.02-2.46.04-3.7.06-1.25.03-2.51.06-3.77.09-1.28.04-2.56.08-3.85.12-1.3.05-2.6.1-3.91.15-2.65.13-5.32.26-8.01.4-2.72.17-5.47.34-8.23.51-2.79.2-5.6.41-8.42.61-2.85.23-5.71.47-8.58.71-2.89.26-5.8.53-8.71.8-2.93.29-5.86.58-8.8.87-2.95.31-5.91.63-8.87.95-2.97.34-5.93.67-8.9,1.01-2.97.35-5.94.71-8.89,1.06-2.96.37-5.92.74-8.86,1.11-5.9.78-11.74,1.55-17.49,2.31-5.77.81-11.44,1.61-16.97,2.4-5.55.83-10.96,1.63-16.2,2.41-5.25.82-10.31,1.6-15.17,2.36-4.86.78-9.5,1.53-13.88,2.24-4.39.73-8.51,1.41-12.34,2.05-7.66,1.32-14.11,2.43-19.02,3.27-4.91.86-8.28,1.46-9.77,1.72"/>
          <path class="cls-1" d="M454.08,606.05c1.51.68,3.11,1.41,4.81,2.18,1.71.75,3.52,1.54,5.41,2.37,1.89.81,3.88,1.65,5.94,2.53,2.06.86,4.2,1.75,6.42,2.67,2.22.91,4.5,1.84,6.85,2.8,2.35.95,4.77,1.92,7.24,2.91,4.94,1.95,10.11,3.99,15.45,6.1,5.33,2.06,10.83,4.19,16.42,6.35,5.59,2.13,11.28,4.29,17.01,6.48,5.72,2.15,11.48,4.32,17.21,6.47,5.73,2.13,11.42,4.25,17.03,6.34,11.2,4.12,22.03,8.1,31.98,11.76,9.94,3.61,18.99,6.9,26.64,9.68,15.29,5.5,25,8.98,25,8.98l-4.9-7.31c-4.72-1.63-9.57-3.29-14.51-4.99-4.96-1.76-10-3.54-15.12-5.36-5.12-1.86-10.31-3.74-15.53-5.63-5.23-1.93-10.49-3.88-15.75-5.82-5.27-1.98-10.54-3.96-15.77-5.93-5.24-2-10.45-3.98-15.6-5.95-10.31-4-20.37-7.89-29.93-11.6-9.56-3.77-18.62-7.35-26.92-10.63-8.3-3.33-15.84-6.35-22.36-8.96-6.52-2.65-12.02-4.89-16.25-6.6-4.22-1.75-7.16-2.96-8.57-3.55"/>
          <path class="cls-1" d="M442.23,780.95c4.29-.85,8.61-1.71,12.94-2.57,4.33-.83,8.67-1.67,13.01-2.5,8.68-1.61,17.35-3.22,25.91-4.81,17.1-3.11,33.72-6.14,48.94-8.91,3.8-.72,7.52-1.42,11.14-2.1,3.61-.71,7.13-1.39,10.53-2.05,3.4-.7,6.68-1.37,9.83-2.01,1.58-.34,3.12-.67,4.63-.99,1.51-.34,2.98-.66,4.42-.98,1.44-.33,2.84-.66,4.21-.97,1.36-.33,2.69-.65,3.98-.97,1.28-.33,2.53-.65,3.74-.96,1.2-.33,2.37-.64,3.5-.95,1.11-.33,2.19-.64,3.24-.94.51-.16,1.02-.32,1.52-.47.49-.16.97-.31,1.45-.47.47-.16.93-.31,1.38-.47.44-.16.88-.31,1.31-.47.42-.16.83-.31,1.24-.46.39-.16.78-.31,1.16-.46l4.19-4.29c-1.14.26-2.38.54-3.71.84-1.33.29-2.75.6-4.25.93-3.01.63-6.35,1.34-9.96,2.1-3.62.74-7.51,1.53-11.62,2.37-4.11.82-8.44,1.68-12.93,2.58-8.98,1.75-18.61,3.62-28.41,5.53-9.8,1.87-19.78,3.78-29.48,5.63-19.39,3.64-37.64,7.06-51.04,9.57-13.4,2.48-21.95,4.06-21.95,4.06"/>
          <path class="cls-1" d="M465.36,581.96s3.48,1.51,9.66,4.17c6.18,2.71,15.04,6.6,25.81,11.33,5.38,2.4,11.23,5,17.46,7.78,6.22,2.81,12.81,5.79,19.69,8.89,6.86,3.14,14,6.42,21.32,9.77,7.3,3.4,14.78,6.89,22.35,10.42,3.77,1.79,7.57,3.58,11.37,5.39,3.8,1.82,7.6,3.64,11.4,5.46,3.79,1.84,7.58,3.68,11.36,5.52,3.76,1.85,7.52,3.7,11.24,5.54,3.71,1.86,7.4,3.7,11.05,5.53,3.63,1.85,7.23,3.68,10.78,5.5,3.53,1.84,7.01,3.65,10.44,5.43,3.4,1.81,6.74,3.59,10.02,5.34,1.63.88,3.24,1.76,4.83,2.63,1.58.87,3.15,1.74,4.69,2.59,1.54.86,3.05,1.71,4.55,2.56,1.49.85,2.95,1.69,4.4,2.52,1.43.83,2.85,1.66,4.24,2.47,1.38.82,2.73,1.63,4.07,2.42,1.32.8,2.61,1.59,3.89,2.37,1.25.79,2.49,1.56,3.7,2.32,1.19.77,2.35,1.52,3.5,2.26,1.12.75,2.22,1.48,3.29,2.2,1.05.72,2.07,1.44,3.08,2.13.49.35.97.7,1.45,1.04.47.34.93.69,1.4,1.02.45.34.9.67,1.34,1,.43.33.85.66,1.28.99.41.33.81.65,1.21.97.39.32.77.63,1.15.95.37.31.73.62,1.09.93.34.31.69.61,1.02.91l.49.45.12.11.03.03s-.02.01-.02.02l-.07.04-.27.16c-.37.21-.74.42-1.11.63l-27.78,7.7,1.4-.55,1.37-.56,1.33-.57,1.3-.58,1.27-.58,1.24-.59,1.21-.6,1.18-.61,1.15-.62,1.12-.62,1.09-.63,1.06-.64,1.03-.65,1.01-.65.98-.66.95-.67s-.02-.02-.02-.03l-.03-.03-.07-.06-.14-.11-.28-.23-.57-.46c-.39-.31-.78-.61-1.17-.92-.81-.62-1.62-1.24-2.45-1.87-.86-.63-1.72-1.26-2.59-1.9-.9-.64-1.81-1.28-2.73-1.93-.95-.65-1.9-1.3-2.87-1.96-.99-.66-1.99-1.32-3-1.99-1.03-.67-2.07-1.34-3.13-2.02-1.07-.67-2.16-1.35-3.25-2.04-1.11-.68-2.24-1.37-3.37-2.07-1.15-.69-2.32-1.39-3.49-2.09-1.19-.7-2.39-1.4-3.6-2.11-1.23-.71-2.46-1.42-3.71-2.14-1.26-.71-2.53-1.43-3.82-2.16-1.3-.72-2.6-1.45-3.92-2.18-2.66-1.45-5.37-2.92-8.13-4.42-2.79-1.47-5.62-2.97-8.49-4.48-2.9-1.49-5.84-3.01-8.82-4.55-3-1.51-6.04-3.05-9.12-4.6-3.1-1.53-6.23-3.08-9.39-4.64-3.18-1.54-6.39-3.11-9.63-4.68-3.25-1.56-6.53-3.13-9.84-4.71-3.32-1.57-6.66-3.15-10.02-4.73-3.37-1.57-6.76-3.16-10.17-4.75-6.83-3.14-13.73-6.32-20.66-9.5-6.95-3.15-13.92-6.31-20.89-9.46-27.92-12.47-55.75-24.9-81-36.18"/>
          <polygon class="cls-1" points="691.44 758.01 671.42 742.02 579.78 718.92 605.33 734.36 691.44 758.01"/>
          <polygon class="cls-1" points="725.1 702.84 728.65 711.29 729.54 713.4 729.57 713.47 729.58 713.5 729.59 713.52 729.59 713.52 729.57 713.53 729.3 713.62 728.75 713.81 727.65 714.19 725.46 714.94 716.69 717.93 681.58 729.93 528.48 772.73 594.18 747.61 672.98 726.77 712.39 716.36 722.24 713.75 724.7 713.1 725.01 713.02 725.08 713 725.08 712.97 725.08 712.91 725.08 712.68 725.08 712.21 725.09 710.33 725.1 702.84"/>
          <polygon class="cls-1" points="653.29 727.36 640.12 728.22 622.28 749.42 635.44 748.56 653.29 727.36"/>
          <polygon class="cls-1" points="640.03 728.4 627.17 728.92 606.02 750.3 618.87 749.77 640.03 728.4"/>
          <polygon class="cls-1" points="635.47 748.4 648.32 747.87 669.48 726.49 656.62 727.01 635.47 748.4"/>
          <path class="cls-1" d="M700.45,736l16.56-14.2,8.28-7.1,1.03-.89.52-.44.13-.11.03-.03h0s0,0,0-.02l-.03-.02-.1-.07-.4-.3-3.22-2.39-6.44-4.78-128.14-72.14,47.87,33.39,65.9,38.49,8.24,4.81,2.06,1.2.26.15.06.04v.03s-.04.06-.04.06l-.12.23-.23.45-.94,1.82-3.76,7.27-7.52,14.54Z"/>
          <polygon class="cls-1" points="743.92 685.12 711.29 692.07 613.21 689.55 642.6 681.8 743.92 685.12"/>
          <polygon class="cls-1" points="677.86 676.52 665.07 672.31 674.79 696.15 687.57 700.36 677.86 676.52"/>
          <polygon class="cls-1" points="665.22 672.53 652.31 667.97 658.74 690.69 671.64 695.25 665.22 672.53"/>
          <polygon class="cls-1" points="687.35 700.12 700.25 704.69 693.82 681.96 680.92 677.39 687.35 700.12"/>
        </g>
      </g>
      <g>
        <path class="cls-1" d="M288.42,112c23.15-18.1,43.85-15.01,69.26-34.88l3.2,4.09c-25.41,19.87-46.1,16.78-69.26,34.88"/>
        <path class="cls-1" d="M301.6,128.87c24.63-19.26,27.45-40.74,49.89-58.28l3.2,4.09c-22.44,17.55-25.26,39.03-49.89,58.29"/>
        <path class="cls-1" d="M411.68,15.62c-23.15,18.1-25.14,38.94-50.55,58.81l3.2,4.09c25.41-19.87,27.4-40.7,50.56-58.8"/>
        <path class="cls-1" d="M424.87,32.48c-24.63,19.26-46.15,16.82-68.6,34.37l3.2,4.09c22.44-17.55,43.97-15.1,68.6-34.36"/>
        <polygon class="cls-1" points="328.58 69.27 347.15 75.47 392.89 75.05 373.1 70 328.58 69.27"/>
        <polygon class="cls-1" points="352.48 104.53 353.52 83.93 366.43 40.96 366.12 60.72 352.48 104.53"/>
        <polygon class="cls-1" points="364.08 81.17 367.38 78.72 356.21 63.88 352.9 66.33 364.08 81.17"/>
        <polygon class="cls-1" points="367.28 78.6 370.75 76.38 360.44 60.94 356.97 63.16 367.28 78.6"/>
        <polygon class="cls-1" points="353.03 66.43 349.56 68.66 359.87 84.09 363.34 81.87 353.03 66.43"/>
      </g>
      <g>
        <path class="cls-1" d="M402.19,246.82c23.16-19.82,44.38-17.98,69.8-39.73l3.37,3.94c-25.42,21.75-46.64,19.92-69.8,39.74"/>
        <path class="cls-1" d="M416.1,263.08c24.64-21.08,26.95-43.03,49.4-62.24l3.37,3.94c-22.45,19.21-24.75,41.17-49.39,62.25"/>
        <path class="cls-1" d="M525.5,141.31c-23.16,19.82-24.64,41.07-50.06,62.81l3.37,3.94c25.42-21.75,26.9-42.99,50.06-62.81"/>
        <path class="cls-1" d="M539.42,157.58c-24.64,21.08-46.69,19.96-69.14,39.17l3.37,3.94c22.45-19.21,44.5-18.09,69.14-39.17"/>
        <polygon class="cls-1" points="442.07 200.95 461.2 206.07 507.9 202.76 487.55 198.88 442.07 200.95"/>
        <polygon class="cls-1" points="467.41 235.2 467.93 214.25 479.96 169.86 480.18 189.92 467.41 235.2"/>
        <polygon class="cls-1" points="478.64 210.79 481.95 208.09 470.14 193.75 466.83 196.44 478.64 210.79"/>
        <polygon class="cls-1" points="481.84 207.98 485.32 205.5 474.39 190.51 470.89 192.97 481.84 207.98"/>
        <polygon class="cls-1" points="466.96 196.54 463.47 199.01 474.42 214.01 477.9 211.54 466.96 196.54"/>
      </g>
    </g>
  </g>
</svg>