<?xml version="1.0" encoding="UTF-8"?>
<svg id="Layer_2" data-name="Layer 2" xmlns="http://www.w3.org/2000/svg" viewBox="0 0 1002.75 547.51">
  <defs>
    <style>
      .cls-1 {
        fill: #bfbfbf;
        stroke: #000;
        stroke-linecap: round;
        stroke-width: 2.5px;
      }
    </style>
  </defs>
  <g id="Layer_2-2" data-name="Layer 2">
    <g>
      <g>
        <g>
          <path class="cls-1" d="M598.98,382.03c29.18-28.63,54.11-31.81,86.13-63.23l3.63,3.7c-32.02,31.42-56.95,34.61-86.13,63.23"/>
          <path class="cls-1" d="M613.97,397.31c31.04-30.45,35.75-56.34,64.03-84.09l3.63,3.7c-28.28,27.75-32.99,53.64-64.03,84.09"/>
          <path class="cls-1" d="M754.32,229.62c-29.18,28.63-32.84,53.49-64.86,84.91l3.63,3.7c32.02-31.42,35.69-56.28,64.87-84.91"/>
          <path class="cls-1" d="M769.31,244.91c-31.04,30.45-57.01,34.67-85.29,62.42l3.63,3.7c28.28-27.75,54.26-31.96,85.3-62.41"/>
          <polygon class="cls-1" points="650.28 319.2 672.43 320.33 727.97 304.85 704.25 305.47 650.28 319.2"/>
          <polygon class="cls-1" points="677.16 352.37 679.65 328.08 697.89 273.9 696.33 296.97 677.16 352.37"/>
          <polygon class="cls-1" points="692.64 321.41 696.79 317.48 684.12 303.89 679.96 307.83 692.64 321.41"/>
          <polygon class="cls-1" points="696.67 317.37 701.02 313.66 689.43 299.09 685.08 302.81 696.67 317.37"/>
          <polygon class="cls-1" points="680.11 307.9 675.76 311.62 687.35 326.19 691.7 322.47 680.11 307.9"/>
        </g>
        <g>
          <path class="cls-1" d="M932.5,322.05c-6.29,38.42-24.36,54.79-31.26,96.95l-5.12-.84c6.9-42.17,24.96-58.54,31.25-96.96"/>
          <path class="cls-1" d="M911.37,318.59c-6.69,40.87,4.98,63.52-1.11,100.76l-5.12-.84c6.1-37.24-5.59-59.89,1.1-100.76"/>
          <path class="cls-1" d="M899.02,526.59c6.29-38.42-5.62-59.7,1.28-101.86l-5.12-.84c-6.9,42.16,5,63.44-1.29,101.86"/>
          <path class="cls-1" d="M877.89,523.13c6.69-40.87,24.98-58.62,31.07-95.86l-5.12-.84c-6.1,37.24-24.39,54.98-31.08,95.86"/>
          <polygon class="cls-1" points="928.9 399.27 910.48 410.75 875.23 453.7 893.87 440 928.9 399.27"/>
          <polygon class="cls-1" points="887.58 388.61 900.07 408.79 917.79 460.87 905.27 442.15 887.58 388.61"/>
          <polygon class="cls-1" points="893.65 421.18 892.67 426.55 910.93 429.99 911.91 424.62 893.65 421.18"/>
          <polygon class="cls-1" points="892.83 426.56 891.57 431.86 909.53 436.66 910.8 431.36 892.83 426.56"/>
          <polygon class="cls-1" points="911.75 424.65 913.01 419.35 895.03 414.54 893.77 419.84 911.75 424.65"/>
        </g>
        <g>
          <path class="cls-1" d="M906.13,317.74c.31-1.91.63-3.82.94-5.72.32-1.9.65-3.8.97-5.69.68-3.77,1.35-7.53,2.02-11.26.71-3.72,1.42-7.41,2.12-11.09.74-3.66,1.48-7.29,2.21-10.91.77-3.59,1.53-7.16,2.29-10.71.79-3.52,1.58-7.02,2.36-10.5.81-3.45,1.62-6.88,2.42-10.28.83-3.37,1.65-6.72,2.46-10.04.84-3.29,1.67-6.56,2.49-9.79.85-3.21,1.69-6.38,2.52-9.52.85-3.12,1.69-6.2,2.53-9.25.85-3.02,1.69-6.01,2.52-8.96.85-2.92,1.69-5.81,2.51-8.65.84-2.82,1.67-5.6,2.49-8.33.83-2.71,1.65-5.38,2.45-8,.82-2.6,1.62-5.15,2.41-7.66.8-2.48,1.58-4.91,2.35-7.3.78-2.36,1.54-4.67,2.28-6.92.75-2.23,1.49-4.41,2.2-6.54.72-2.1,1.43-4.15,2.11-6.14,1.39-3.92,2.69-7.61,3.89-11.02,1.23-3.36,2.36-6.46,3.39-9.26,1.04-2.76,1.98-5.23,2.79-7.39.83-2.12,1.53-3.94,2.11-5.41,1.17-2.9,1.8-4.46,1.8-4.46-.43,1.17-.86,2.35-1.29,3.54-.43,1.2-.86,2.41-1.29,3.63-.43,1.23-.85,2.46-1.28,3.71-.42,1.25-.85,2.52-1.28,3.78-.84,2.57-1.69,5.16-2.54,7.77-.83,2.66-1.67,5.33-2.52,8.03-.83,2.73-1.66,5.48-2.49,8.25-.82,2.8-1.64,5.61-2.46,8.43-.81,2.85-1.61,5.71-2.43,8.58-.79,2.89-1.59,5.8-2.39,8.7-.78,2.93-1.56,5.86-2.34,8.79-.77,2.95-1.53,5.9-2.3,8.84-.75,2.96-1.5,5.91-2.25,8.86-.73,2.96-1.46,5.91-2.19,8.84-1.42,5.9-2.82,11.75-4.2,17.5-1.34,5.79-2.65,11.48-3.94,17.03-1.25,5.58-2.47,11.03-3.64,16.3-1.15,5.29-2.26,10.41-3.32,15.3-1.04,4.91-2.03,9.6-2.96,14.03-.92,4.44-1.78,8.62-2.58,12.49-1.56,7.77-2.87,14.32-3.87,19.31-.98,4.99-1.65,8.42-1.95,9.93"/>
          <path class="cls-1" d="M772.95,248.61c1.19-1.2,2.46-2.47,3.8-3.82,1.33-1.37,2.73-2.81,4.19-4.32,1.45-1.52,2.96-3.11,4.54-4.77,1.56-1.66,3.17-3.39,4.85-5.18,1.66-1.79,3.37-3.64,5.12-5.55,1.74-1.91,3.54-3.87,5.37-5.88,3.63-4.03,7.43-8.24,11.35-12.58,3.88-4.35,7.87-8.84,11.94-13.41,4.03-4.58,8.14-9.24,12.27-13.93,4.1-4.7,8.23-9.42,12.34-14.12,4.08-4.71,8.15-9.39,12.15-14,7.94-9.22,15.62-18.14,22.68-26.33,7-8.2,13.39-15.67,18.78-21.98,10.72-12.64,17.53-20.66,17.53-20.66l-8.66,2.14c-3.25,3.93-6.57,7.96-9.97,12.06-3.45,4.1-6.97,8.28-10.53,12.52-3.61,4.23-7.26,8.51-10.94,12.81-3.72,4.3-7.46,8.63-11.2,12.96-3.78,4.32-7.55,8.65-11.31,12.95-3.78,4.29-7.55,8.56-11.26,12.78-7.5,8.42-14.83,16.64-21.78,24.44-7.03,7.79-13.68,15.16-19.78,21.92-6.15,6.74-11.73,12.86-16.56,18.16-4.86,5.28-8.97,9.74-12.12,13.16-3.17,3.41-5.39,5.78-6.45,6.92"/>
          <path class="cls-1" d="M932.49,322.05c.77-4.4,1.53-8.82,2.31-13.26.8-4.43,1.6-8.87,2.4-13.31,1.66-8.85,3.31-17.7,4.94-26.42,3.32-17.42,6.54-34.34,9.5-49.84.72-3.88,1.41-7.68,2.09-11.37.66-3.7,1.3-7.29,1.91-10.77.59-3.49,1.15-6.86,1.7-10.1.26-1.62.51-3.21.76-4.77.24-1.56.47-3.08.69-4.57.21-1.49.42-2.94.62-4.36.19-1.42.37-2.8.55-4.14.16-1.34.32-2.65.47-3.92.13-1.26.26-2.49.38-3.68.1-1.18.2-2.32.3-3.43.04-.55.08-1.09.11-1.62.03-.53.06-1.04.09-1.55.02-.5.04-1,.07-1.48.01-.48.03-.95.04-1.42,0-.46.01-.9.02-1.35,0-.43,0-.86,0-1.27l-2.47-5.55c-.17,1.18-.36,2.46-.57,3.84-.21,1.37-.44,2.84-.68,4.39-.5,3.1-1.06,6.53-1.67,10.25-.63,3.71-1.3,7.71-2.02,11.93-.73,4.22-1.5,8.65-2.3,13.25-1.64,9.19-3.39,19.04-5.17,29.06-1.82,10.02-3.67,20.21-5.48,30.12-3.66,19.79-7.11,38.42-9.64,52.09-2.56,13.66-4.2,22.39-4.2,22.39"/>
          <path class="cls-1" d="M754.32,229.62s2.68-2.79,7.44-7.74c4.8-4.93,11.68-12.02,20.04-20.62,4.21-4.28,8.79-8.95,13.66-13.91,4.9-4.94,10.1-10.18,15.52-15.65,5.45-5.44,11.12-11.09,16.94-16.89,5.86-5.76,11.86-11.67,17.93-17.64,3.05-2.97,6.12-5.96,9.2-8.95,3.09-2.98,6.19-5.97,9.29-8.95,3.11-2.97,6.22-5.94,9.32-8.9,3.11-2.94,6.21-5.87,9.3-8.78,3.1-2.89,6.17-5.75,9.22-8.59,3.06-2.81,6.09-5.6,9.09-8.35,3.01-2.72,5.98-5.4,8.9-8.05,2.94-2.6,5.83-5.17,8.67-7.68,1.42-1.24,2.83-2.47,4.23-3.68,1.4-1.2,2.78-2.39,4.15-3.57,1.37-1.16,2.72-2.31,4.06-3.45,1.34-1.12,2.66-2.23,3.97-3.32,1.31-1.07,2.6-2.13,3.87-3.18,1.27-1.03,2.53-2.04,3.76-3.03,1.23-.97,2.45-1.93,3.65-2.88,1.2-.92,2.37-1.83,3.53-2.72,1.15-.86,2.29-1.71,3.4-2.55,1.11-.81,2.2-1.6,3.27-2.37,1.06-.74,2.1-1.47,3.13-2.19.51-.34,1.01-.69,1.51-1.02.49-.33.98-.65,1.47-.97.48-.31.96-.62,1.43-.92.47-.29.93-.59,1.39-.87.46-.28.91-.55,1.35-.82.44-.26.88-.52,1.31-.77.43-.24.85-.48,1.27-.72.41-.22.82-.44,1.23-.66l.6-.31.15-.08.04-.02s0,.02.01.03v.08s.06.32.06.32c.06.43.12.86.19,1.29l-2.93,29.26v-1.53s-.03-1.5-.03-1.5l-.04-1.48-.06-1.45-.08-1.42-.1-1.4-.12-1.37-.14-1.35-.16-1.32-.17-1.3-.19-1.27-.21-1.25-.23-1.22-.24-1.2-.26-1.17-.28-1.15s-.02,0-.03.01l-.04.02-.08.05-.16.09-.32.19-.64.38c-.43.26-.86.53-1.29.79-.88.56-1.76,1.12-2.65,1.68-.9.6-1.81,1.2-2.73,1.81-.93.64-1.86,1.28-2.81,1.93-.95.68-1.92,1.36-2.89,2.05-.98.71-1.96,1.44-2.96,2.17-1,.75-2.01,1.51-3.03,2.28-1.02.79-2.06,1.58-3.1,2.39-1.05.82-2.1,1.65-3.17,2.49-1.07.86-2.15,1.72-3.24,2.6-1.09.89-2.19,1.79-3.3,2.7-1.11.92-2.23,1.85-3.36,2.79-1.13.95-2.27,1.91-3.42,2.89-1.15.98-2.31,1.97-3.48,2.98-2.33,2.03-4.7,4.1-7.11,6.21-2.4,2.14-4.83,4.32-7.31,6.52-2.46,2.24-4.95,4.51-7.48,6.82-2.52,2.33-5.06,4.69-7.64,7.08-2.57,2.41-5.16,4.86-7.78,7.33-2.61,2.49-5.25,5-7.91,7.54-2.65,2.55-5.32,5.13-8.01,7.73-2.68,2.61-5.38,5.24-8.1,7.89-2.71,2.66-5.43,5.34-8.16,8.03-5.44,5.41-10.93,10.87-16.45,16.36-5.48,5.52-10.99,11.06-16.5,16.59-21.88,22.24-43.68,44.39-63.47,64.5"/>
          <polygon class="cls-1" points="1001.74 76.39 979.55 89.63 924.69 168.46 948.38 149.76 1001.74 76.39"/>
          <polygon class="cls-1" points="962.44 24.44 971.7 23.97 974.01 23.85 974.08 23.85 974.12 23.85 974.14 23.85 974.15 23.85 974.15 23.87 974.14 24.16 974.11 24.75 974.06 25.93 973.96 28.29 973.57 37.74 971.98 75.54 956.19 236.93 956.68 165.21 965.91 82.58 970.53 41.26 971.69 30.93 971.97 28.35 972.01 28.03 972.02 27.95 971.99 27.94 971.94 27.92 971.72 27.84 971.27 27.68 969.51 27.03 962.44 24.44"/>
          <polygon class="cls-1" points="959.29 101.55 955.3 114.4 968.58 139.11 972.57 126.27 959.29 101.55"/>
          <polygon class="cls-1" points="955.44 114.55 951.25 126.99 963.49 154.92 967.67 142.49 955.44 114.55"/>
          <polygon class="cls-1" points="972.42 126.18 976.6 113.75 964.37 85.81 960.18 98.25 972.42 126.18"/>
          <path class="cls-1" d="M984.5,59.79l-7.21-20.94-3.61-10.47-.45-1.31-.23-.65-.06-.16v-.04s-.02-.01-.02-.01h0s-.03.02-.03.02l-.11.07-.43.28-3.42,2.24-6.84,4.48-114.47,96.92,48.84-34,60.18-49.37,7.52-6.17,1.88-1.54.24-.19.06-.05.02.02.04.05.17.19.34.39,1.35,1.56,5.41,6.23,10.82,12.46Z"/>
          <polygon class="cls-1" points="952.56 .48 947.29 33.86 909.37 126.15 912.71 95.57 952.56 .48"/>
          <polygon class="cls-1" points="920.5 60.28 911.9 70.97 937.91 69.93 946.51 59.24 920.5 60.28"/>
          <polygon class="cls-1" points="912.16 70.91 903.18 81.6 926.94 83.3 935.91 72.62 912.16 70.91"/>
          <polygon class="cls-1" points="946.2 59.36 955.18 48.68 931.42 46.99 922.44 57.66 946.2 59.36"/>
        </g>
      </g>
      <g>
        <g>
          <path class="cls-1" d="M718.87,473.08c13.26-25.61,33.25-31.18,47.8-59.29l4.61,2.39c-14.56,28.11-34.53,33.68-47.8,59.29"/>
          <path class="cls-1" d="M737.88,482.93c14.11-27.25,7.6-47.69,20.45-72.52l4.61,2.39c-12.86,24.83-6.34,45.28-20.45,72.53"/>
          <path class="cls-1" d="M789.48,336.72c-13.26,25.61-6.27,45.15-20.83,73.26l4.61,2.39c14.55-28.11,7.57-47.64,20.83-73.25"/>
          <path class="cls-1" d="M808.49,346.56c-14.11,27.25-34.56,33.73-47.42,58.56l4.61,2.39c12.86-24.83,33.31-31.31,47.42-58.56"/>
          <polygon class="cls-1" points="737.11 418.46 756.48 416.55 797.58 397.73 777.59 401.17 737.11 418.46"/>
          <polygon class="cls-1" points="773.54 440.53 765.79 421.59 759.32 377.75 767.38 395.64 773.54 440.53"/>
          <polygon class="cls-1" points="774.16 414.85 776.11 411.31 759.76 402.48 757.82 406.02 774.16 414.85"/>
          <polygon class="cls-1" points="775.97 411.25 778.16 407.85 762.35 398.13 760.15 401.53 775.97 411.25"/>
          <polygon class="cls-1" points="757.97 406.06 755.78 409.46 771.59 419.18 773.79 415.78 757.97 406.06"/>
        </g>
        <g>
          <path class="cls-1" d="M789.48,336.71c13.26-25.61,33.25-31.18,47.8-59.29l4.61,2.39c-14.56,28.11-34.53,33.68-47.8,59.29"/>
          <path class="cls-1" d="M808.49,346.55c14.11-27.25,7.6-47.69,20.46-72.52l4.61,2.39c-12.86,24.83-6.34,45.28-20.45,72.53"/>
          <path class="cls-1" d="M860.09,200.34c-13.26,25.61-6.27,45.15-20.83,73.26l4.61,2.39c14.55-28.11,7.57-47.64,20.83-73.25"/>
          <path class="cls-1" d="M879.1,210.19c-14.11,27.25-34.56,33.73-47.42,58.56l4.61,2.39c12.86-24.83,33.31-31.31,47.42-58.56"/>
          <polygon class="cls-1" points="807.72 282.09 827.09 280.18 868.19 261.35 848.2 264.79 807.72 282.09"/>
          <polygon class="cls-1" points="844.15 304.16 836.4 285.22 829.93 241.37 837.99 259.27 844.15 304.16"/>
          <polygon class="cls-1" points="844.77 278.48 846.72 274.94 830.37 266.1 828.43 269.64 844.77 278.48"/>
          <polygon class="cls-1" points="846.58 274.87 848.77 271.48 832.96 261.76 830.76 265.15 846.58 274.87"/>
          <polygon class="cls-1" points="828.58 269.68 826.39 273.08 842.2 282.8 844.4 279.41 828.58 269.68"/>
        </g>
        <g>
          <path class="cls-1" d="M860.09,200.33c13.26-25.61,33.25-31.18,47.8-59.29l4.61,2.39c-14.56,28.11-34.53,33.68-47.8,59.29"/>
          <path class="cls-1" d="M879.11,210.18c14.11-27.25,7.6-47.69,20.45-72.52l4.61,2.39c-12.86,24.83-6.34,45.28-20.45,72.53"/>
          <path class="cls-1" d="M930.7,63.97c-13.26,25.61-6.27,45.15-20.83,73.26l4.61,2.39c14.55-28.11,7.57-47.64,20.83-73.26"/>
          <path class="cls-1" d="M949.71,73.81c-14.11,27.25-34.56,33.73-47.42,58.56l4.61,2.39c12.86-24.83,33.31-31.31,47.42-58.56"/>
          <polygon class="cls-1" points="878.33 145.71 897.7 143.8 938.8 124.97 918.81 128.42 878.33 145.71"/>
          <polygon class="cls-1" points="914.76 167.78 907.01 148.84 900.55 105 908.6 122.89 914.76 167.78"/>
          <polygon class="cls-1" points="915.38 142.1 917.33 138.56 900.98 129.73 899.04 133.27 915.38 142.1"/>
          <polygon class="cls-1" points="917.19 138.5 919.38 135.1 903.57 125.38 901.37 128.78 917.19 138.5"/>
          <polygon class="cls-1" points="899.2 133.31 897 136.71 912.81 146.43 915.01 143.03 899.2 133.31"/>
        </g>
      </g>
      <g>
        <g>
          <path class="cls-1" d="M24.02,163.32c20.07,33.2,16.91,57.32,38.93,93.75l-4.44,2.68c-22.03-36.44-18.87-60.55-38.94-93.75"/>
          <path class="cls-1" d="M5.7,174.4c21.35,35.32,44.89,44.91,64.35,77.09l-4.44,2.68C46.15,221.99,22.6,212.4,1.25,177.08"/>
          <path class="cls-1" d="M130.87,340.06c-20.07-33.2-42.9-41.6-64.93-78.04l-4.44,2.68c22.03,36.43,44.85,44.84,64.92,78.04"/>
          <path class="cls-1" d="M112.55,351.13c-21.35-35.32-18.91-60.62-38.37-92.8l-4.44,2.68c19.45,32.18,17.01,57.49,38.36,92.8"/>
          <polygon class="cls-1" points="71.24 224.18 64.65 244.82 65.6 300.23 70.92 277.76 71.24 224.18"/>
          <polygon class="cls-1" points="32.88 242.89 55.45 250.08 102.64 278.07 81 272 32.88 242.89"/>
          <polygon class="cls-1" points="58.58 263.64 61.31 268.34 77.43 259.11 74.71 254.41 58.58 263.64"/>
          <polygon class="cls-1" points="61.44 268.25 63.91 273.09 80.69 265.08 78.23 260.24 61.44 268.25"/>
          <polygon class="cls-1" points="74.6 254.54 72.13 249.7 55.34 257.71 57.81 262.55 74.6 254.54"/>
        </g>
        <g>
          <path class="cls-1" d="M130.88,340.07c20.07,33.2,16.91,57.32,38.93,93.75l-4.44,2.68c-22.03-36.44-18.87-60.55-38.94-93.75"/>
          <path class="cls-1" d="M112.56,351.14c21.35,35.32,44.89,44.91,64.35,77.09l-4.44,2.68c-19.45-32.18-43-41.77-64.35-77.09"/>
          <path class="cls-1" d="M237.73,516.8c-20.07-33.2-42.9-41.6-64.93-78.04l-4.44,2.68c22.03,36.43,44.85,44.84,64.92,78.04"/>
          <path class="cls-1" d="M219.41,527.88c-21.35-35.32-18.91-60.62-38.37-92.8l-4.44,2.68c19.45,32.18,17.01,57.49,38.36,92.8"/>
          <polygon class="cls-1" points="178.1 400.93 171.51 421.57 172.46 476.98 177.78 454.51 178.1 400.93"/>
          <polygon class="cls-1" points="139.74 419.64 162.31 426.83 209.5 454.82 187.86 448.75 139.74 419.64"/>
          <polygon class="cls-1" points="165.44 440.39 168.17 445.09 184.29 435.86 181.57 431.16 165.44 440.39"/>
          <polygon class="cls-1" points="168.3 445 170.76 449.83 187.55 441.83 185.09 436.99 168.3 445"/>
          <polygon class="cls-1" points="181.46 431.28 178.99 426.45 162.2 434.46 164.67 439.3 181.46 431.28"/>
        </g>
      </g>
      <g>
        <g>
          <path class="cls-1" d="M967.82,62.96c-27.31,18.16-49.1,14.4-79.07,34.33l-2.87-4.32c29.98-19.93,51.76-16.18,79.07-34.33"/>
          <path class="cls-1" d="M955.97,45.13c-29.05,19.31-35.01,41.5-61.48,59.1l-2.87-4.32c26.47-17.6,32.42-39.79,61.48-59.1"/>
          <path class="cls-1" d="M822.42,159.62c27.31-18.16,32.29-39.7,62.26-59.62l-2.87-4.32c-29.97,19.92-34.95,41.46-62.26,59.62"/>
          <path class="cls-1" d="M810.57,141.79c29.05-19.31,51.82-16.21,78.29-33.81l-2.87-4.32c-26.47,17.6-49.24,14.49-78.29,33.81"/>
          <polygon class="cls-1" points="918.89 106.2 899.82 99.28 850.68 98.51 871.23 104.27 918.89 106.2"/>
          <polygon class="cls-1" points="898.06 69.01 894.14 90.34 874.43 134.54 877.45 114.07 898.06 69.01"/>
          <polygon class="cls-1" points="882.43 92.92 878.55 95.38 888.52 111.06 892.4 108.6 882.43 92.92"/>
          <polygon class="cls-1" points="878.64 95.5 874.62 97.71 883.57 113.98 887.6 111.78 878.64 95.5"/>
          <rect class="cls-1" x="887.51" y="89.96" width="4.6" height="18.58" transform="translate(62.26 440.97) rotate(-28.8)"/>
        </g>
        <g>
          <path class="cls-1" d="M822.41,159.62c-27.31,18.16-49.1,14.4-79.07,34.33l-2.87-4.32c29.98-19.93,51.76-16.18,79.07-34.33"/>
          <path class="cls-1" d="M810.56,141.79c-29.05,19.31-35.01,41.5-61.48,59.1l-2.87-4.32c26.47-17.6,32.42-39.79,61.48-59.1"/>
          <path class="cls-1" d="M677,256.28c27.31-18.16,32.29-39.7,62.26-59.62l-2.87-4.32c-29.97,19.92-34.95,41.46-62.26,59.62"/>
          <path class="cls-1" d="M665.15,238.45c29.05-19.31,51.82-16.21,78.29-33.81l-2.87-4.32c-26.47,17.6-49.24,14.49-78.29,33.81"/>
          <polygon class="cls-1" points="773.48 202.86 754.41 195.94 705.26 195.17 725.82 200.93 773.48 202.86"/>
          <polygon class="cls-1" points="752.65 165.67 748.72 187 729.01 231.2 732.04 210.73 752.65 165.67"/>
          <polygon class="cls-1" points="737.01 189.58 733.14 192.04 743.11 207.72 746.99 205.26 737.01 189.58"/>
          <polygon class="cls-1" points="733.23 192.16 729.2 194.37 738.16 210.64 742.19 208.44 733.23 192.16"/>
          <rect class="cls-1" x="742.1" y="186.62" width="4.6" height="18.58" transform="translate(-2.29 382.89) rotate(-28.8)"/>
        </g>
        <g>
          <path class="cls-1" d="M676.99,256.28c-27.31,18.16-49.1,14.4-79.07,34.33l-2.87-4.32c29.98-19.93,51.76-16.18,79.07-34.33"/>
          <path class="cls-1" d="M665.14,238.45c-29.05,19.31-35.01,41.5-61.48,59.1l-2.87-4.32c26.47-17.6,32.42-39.79,61.48-59.1"/>
          <path class="cls-1" d="M531.59,352.94c27.31-18.16,32.29-39.7,62.26-59.62l-2.87-4.32c-29.97,19.92-34.95,41.46-62.26,59.62"/>
          <path class="cls-1" d="M519.74,335.11c29.05-19.31,51.82-16.21,78.29-33.81l-2.87-4.32c-26.47,17.6-49.24,14.49-78.29,33.81"/>
          <polygon class="cls-1" points="628.07 299.52 608.99 292.6 559.85 291.83 580.4 297.59 628.07 299.52"/>
          <polygon class="cls-1" points="607.23 262.33 603.31 283.66 583.6 327.86 586.63 307.39 607.23 262.33"/>
          <polygon class="cls-1" points="591.6 286.24 587.72 288.7 597.69 304.38 601.57 301.92 591.6 286.24"/>
          <polygon class="cls-1" points="587.82 288.82 583.79 291.03 592.75 307.3 596.78 305.1 587.82 288.82"/>
          <rect class="cls-1" x="596.69" y="283.28" width="4.6" height="18.58" transform="translate(-66.85 324.77) rotate(-28.8)"/>
        </g>
        <g>
          <path class="cls-1" d="M531.58,352.94c-27.31,18.16-49.1,14.4-79.07,34.33l-2.87-4.32c29.98-19.93,51.76-16.18,79.07-34.33"/>
          <path class="cls-1" d="M519.73,335.11c-29.05,19.31-35.01,41.5-61.48,59.1l-2.87-4.32c26.47-17.6,32.42-39.79,61.48-59.1"/>
          <path class="cls-1" d="M386.18,449.6c27.31-18.16,32.29-39.7,62.26-59.62l-2.87-4.32c-29.97,19.92-34.95,41.46-62.26,59.62"/>
          <path class="cls-1" d="M374.33,431.77c29.05-19.31,51.82-16.21,78.29-33.81l-2.87-4.32c-26.47,17.6-49.24,14.49-78.29,33.81"/>
          <polygon class="cls-1" points="482.65 396.18 463.58 389.26 414.44 388.49 434.99 394.25 482.65 396.18"/>
          <polygon class="cls-1" points="461.82 358.99 457.9 380.32 438.19 424.53 441.21 404.05 461.82 358.99"/>
          <polygon class="cls-1" points="446.19 382.9 442.31 385.36 452.28 401.04 456.16 398.58 446.19 382.9"/>
          <polygon class="cls-1" points="442.4 385.48 438.38 387.69 447.33 403.96 451.36 401.76 442.4 385.48"/>
          <rect class="cls-1" x="451.27" y="379.94" width="4.6" height="18.58" transform="translate(-131.41 266.68) rotate(-28.8)"/>
        </g>
        <g>
          <path class="cls-1" d="M386.17,449.6c-27.31,18.16-49.1,14.4-79.07,34.33l-2.87-4.32c29.98-19.93,51.76-16.18,79.07-34.33"/>
          <path class="cls-1" d="M374.32,431.77c-29.05,19.31-35.01,41.5-61.48,59.1l-2.87-4.32c26.47-17.6,32.42-39.79,61.48-59.1"/>
          <path class="cls-1" d="M240.76,546.26c27.31-18.16,32.29-39.7,62.26-59.62l-2.87-4.32c-29.97,19.92-34.95,41.46-62.26,59.62"/>
          <path class="cls-1" d="M228.91,528.43c29.05-19.31,51.82-16.21,78.29-33.81l-2.87-4.32c-26.47,17.6-49.24,14.49-78.29,33.81"/>
          <polygon class="cls-1" points="337.24 492.84 318.16 485.92 269.02 485.15 289.58 490.91 337.24 492.84"/>
          <polygon class="cls-1" points="316.41 455.65 312.48 476.98 292.77 521.19 295.8 500.71 316.41 455.65"/>
          <polygon class="cls-1" points="300.77 479.56 296.89 482.02 306.87 497.7 310.75 495.24 300.77 479.56"/>
          <polygon class="cls-1" points="296.99 482.14 292.96 484.35 301.92 500.62 305.95 498.42 296.99 482.14"/>
          <rect class="cls-1" x="305.86" y="476.6" width="4.6" height="18.58" transform="translate(-195.97 208.58) rotate(-28.8)"/>
        </g>
      </g>
    </g>
  </g>
</svg>