<?xml version="1.0" encoding="UTF-8"?>
<svg id="Layer_2" data-name="Layer 2" xmlns="http://www.w3.org/2000/svg" viewBox="0 0 934.19 394.35">
  <defs>
    <style>
      .cls-1 {
        fill: #bfbfbf;
        stroke: #000;
        stroke-linecap: round;
        stroke-width: 2.5px;
      }
    </style>
  </defs>
  <g id="Layer_2-2" data-name="Layer 2">
    <g>
      <g>
        <g>
          <path class="cls-1" d="M22.79,3.89c16.28,22.48,11.96,42.4,29.83,67.07l-4.2,3.04C30.55,49.34,34.87,29.42,18.59,6.94"/>
          <path class="cls-1" d="M5.46,16.45c17.32,23.91,38.18,26.82,53.96,48.61l-4.2,3.04C39.43,46.32,18.57,43.41,1.25,19.5"/>
          <path class="cls-1" d="M109.49,123.56c-16.28-22.48-36.56-24.58-54.43-49.25l-4.2,3.04c17.87,24.67,38.14,26.77,54.43,49.25"/>
          <path class="cls-1" d="M92.15,136.12c-17.32-23.91-13.59-44.63-29.37-66.42l-4.2,3.04c15.78,21.79,12.04,42.51,29.37,66.43"/>
          <polygon class="cls-1" points="62.14 42.99 54.9 60.83 52.46 104.93 58.64 85.89 62.14 42.99"/>
          <polygon class="cls-1" points="26.11 65.71 46.22 66.89 87.5 79.72 68.16 79.25 26.11 65.71"/>
          <polygon class="cls-1" points="48.26 77.1 50.46 80.31 65.69 69.66 63.49 66.46 48.26 77.1"/>
          <polygon class="cls-1" points="50.58 80.21 52.54 83.57 68.3 73.77 66.34 70.41 50.58 80.21"/>
          <polygon class="cls-1" points="63.39 66.58 61.42 63.21 45.66 73.01 47.62 76.38 63.39 66.58"/>
        </g>
        <g>
          <path class="cls-1" d="M109.49,123.57c16.28,22.48,11.96,42.4,29.83,67.07l-4.2,3.04c-17.87-24.67-13.55-44.59-29.84-67.06"/>
          <path class="cls-1" d="M92.16,136.13c17.32,23.91,38.18,26.82,53.96,48.61l-4.2,3.04c-15.78-21.79-36.64-24.69-53.97-48.61"/>
          <path class="cls-1" d="M196.19,243.24c-16.28-22.48-36.56-24.58-54.43-49.25l-4.2,3.04c17.87,24.67,38.14,26.77,54.43,49.25"/>
          <path class="cls-1" d="M178.85,255.8c-17.32-23.91-13.59-44.63-29.37-66.42l-4.2,3.04c15.78,21.79,12.04,42.51,29.37,66.43"/>
          <polygon class="cls-1" points="148.83 162.67 141.6 180.51 139.16 224.6 145.34 205.56 148.83 162.67"/>
          <polygon class="cls-1" points="112.81 185.38 132.92 186.57 174.2 199.4 154.86 198.92 112.81 185.38"/>
          <polygon class="cls-1" points="134.96 196.77 137.16 199.98 152.39 189.34 150.19 186.13 134.96 196.77"/>
          <polygon class="cls-1" points="137.28 199.88 139.24 203.25 155 193.45 153.04 190.08 137.28 199.88"/>
          <polygon class="cls-1" points="150.08 186.25 148.12 182.89 132.36 192.69 134.32 196.06 150.08 186.25"/>
        </g>
        <g>
          <path class="cls-1" d="M196.19,243.24c16.28,22.48,11.96,42.4,29.83,67.07l-4.2,3.04c-17.87-24.67-13.55-44.59-29.84-67.06"/>
          <path class="cls-1" d="M178.85,255.8c17.32,23.91,38.18,26.82,53.96,48.61l-4.2,3.04c-15.78-21.79-36.64-24.69-53.97-48.61"/>
          <path class="cls-1" d="M282.88,362.91c-16.28-22.48-36.56-24.58-54.43-49.25l-4.2,3.04c17.87,24.67,38.14,26.77,54.43,49.25"/>
          <path class="cls-1" d="M265.55,375.47c-17.32-23.91-13.59-44.63-29.37-66.42l-4.2,3.04c15.78,21.79,12.04,42.51,29.37,66.43"/>
          <polygon class="cls-1" points="235.53 282.34 228.3 300.18 225.86 344.28 232.04 325.24 235.53 282.34"/>
          <polygon class="cls-1" points="199.51 305.06 219.62 306.24 260.89 319.07 241.56 318.6 199.51 305.06"/>
          <polygon class="cls-1" points="221.66 316.45 223.86 319.66 239.09 309.01 236.89 305.81 221.66 316.45"/>
          <polygon class="cls-1" points="223.98 319.56 225.94 322.92 241.69 313.12 239.74 309.76 223.98 319.56"/>
          <polygon class="cls-1" points="236.78 305.93 234.82 302.56 219.06 312.36 221.02 315.73 236.78 305.93"/>
        </g>
      </g>
      <g>
        <g>
          <path class="cls-1" d="M932.94,33.43c-30.44,16.89-52.73,11.88-86.14,30.42l-2.52-4.54c33.41-18.54,55.69-13.53,86.14-30.42"/>
          <path class="cls-1" d="M922.56,14.71c-32.39,17.97-41.03,40.12-70.54,56.49l-2.52-4.54c29.51-16.37,38.15-38.53,70.53-56.5"/>
          <path class="cls-1" d="M770.86,123.34c30.44-16.89,37.99-38.44,71.4-56.98l-2.52-4.54c-33.41,18.53-40.96,40.08-71.41,56.97"/>
          <path class="cls-1" d="M760.48,104.62c32.39-17.97,55.75-13.57,85.26-29.94l-2.52-4.54c-29.51,16.37-52.88,11.97-85.27,29.93"/>
          <polygon class="cls-1" points="877.23 74.54 858.12 66.47 807.02 62.98 827.79 69.95 877.23 74.54"/>
          <polygon class="cls-1" points="859.62 35.71 853.18 57.1 827.8 100.81 833.2 80.22 859.62 35.71"/>
          <rect class="cls-1" x="840.44" y="59.14" width="4.88" height="18.58" transform="translate(65.63 401.61) rotate(-27.84)"/>
          <polygon class="cls-1" points="836.48 61.48 832.04 63.5 839.58 80.48 844.02 78.46 836.48 61.48"/>
          <polygon class="cls-1" points="849.25 75.39 853.69 73.37 846.15 56.38 841.71 58.4 849.25 75.39"/>
        </g>
        <g>
          <path class="cls-1" d="M770.85,123.35c-30.44,16.89-52.73,11.88-86.14,30.42l-2.52-4.54c33.41-18.54,55.69-13.53,86.14-30.42"/>
          <path class="cls-1" d="M760.47,104.63c-32.39,17.97-41.03,40.12-70.54,56.49l-2.52-4.54c29.51-16.37,38.15-38.53,70.53-56.5"/>
          <path class="cls-1" d="M608.77,213.26c30.44-16.89,37.99-38.44,71.4-56.98l-2.52-4.54c-33.41,18.53-40.96,40.08-71.41,56.97"/>
          <path class="cls-1" d="M598.39,194.54c32.39-17.97,55.75-13.57,85.26-29.94l-2.52-4.54c-29.51,16.37-52.88,11.97-85.27,29.93"/>
          <polygon class="cls-1" points="715.14 164.46 696.03 156.39 644.92 152.9 665.7 159.87 715.14 164.46"/>
          <polygon class="cls-1" points="697.53 125.62 691.09 147.02 665.7 190.73 671.11 170.14 697.53 125.62"/>
          <rect class="cls-1" x="678.35" y="149.05" width="4.88" height="18.58" transform="translate(4.86 336.31) rotate(-27.84)"/>
          <polygon class="cls-1" points="674.39 151.4 669.95 153.41 677.49 170.4 681.93 168.38 674.39 151.4"/>
          <polygon class="cls-1" points="687.16 165.31 691.6 163.29 684.05 146.3 679.62 148.32 687.16 165.31"/>
        </g>
        <g>
          <path class="cls-1" d="M608.76,213.26c-30.44,16.89-52.73,11.88-86.14,30.42l-2.52-4.54c33.41-18.54,55.69-13.53,86.14-30.42"/>
          <path class="cls-1" d="M598.38,194.54c-32.39,17.97-41.03,40.12-70.54,56.49l-2.52-4.54c29.51-16.37,38.15-38.53,70.53-56.5"/>
          <path class="cls-1" d="M446.68,303.18c30.44-16.89,37.99-38.44,71.4-56.98l-2.52-4.54c-33.41,18.53-40.96,40.08-71.41,56.97"/>
          <path class="cls-1" d="M436.3,284.46c32.39-17.97,55.75-13.57,85.26-29.94l-2.52-4.54c-29.51,16.37-52.88,11.97-85.27,29.93"/>
          <polygon class="cls-1" points="553.05 254.38 533.94 246.31 482.83 242.82 503.61 249.79 553.05 254.38"/>
          <polygon class="cls-1" points="535.43 215.54 529 236.94 503.61 280.64 509.02 260.06 535.43 215.54"/>
          <rect class="cls-1" x="516.26" y="238.97" width="4.88" height="18.58" transform="translate(-55.9 271.01) rotate(-27.84)"/>
          <polygon class="cls-1" points="512.3 241.31 507.86 243.33 515.4 260.31 519.84 258.3 512.3 241.31"/>
          <polygon class="cls-1" points="525.07 255.23 529.51 253.21 521.96 236.22 517.53 238.24 525.07 255.23"/>
        </g>
        <g>
          <path class="cls-1" d="M446.67,303.18c-30.44,16.89-52.73,11.88-86.14,30.42l-2.52-4.54c33.41-18.54,55.69-13.53,86.14-30.42"/>
          <path class="cls-1" d="M436.29,284.46c-32.39,17.97-41.03,40.12-70.54,56.49l-2.52-4.54c29.51-16.37,38.15-38.53,70.53-56.5"/>
          <path class="cls-1" d="M284.59,393.1c30.44-16.89,37.99-38.44,71.4-56.98l-2.52-4.54c-33.41,18.53-40.96,40.08-71.41,56.97"/>
          <path class="cls-1" d="M274.21,374.37c32.39-17.97,55.75-13.57,85.26-29.94l-2.52-4.54c-29.51,16.37-52.88,11.97-85.27,29.93"/>
          <polygon class="cls-1" points="390.95 344.29 371.85 336.23 320.74 332.73 341.52 339.71 390.95 344.29"/>
          <polygon class="cls-1" points="373.34 305.46 366.91 326.86 341.52 370.56 346.92 349.98 373.34 305.46"/>
          <rect class="cls-1" x="354.17" y="328.89" width="4.88" height="18.58" transform="translate(-116.66 205.7) rotate(-27.84)"/>
          <polygon class="cls-1" points="350.2 331.23 345.77 333.25 353.31 350.23 357.75 348.22 350.2 331.23"/>
          <polygon class="cls-1" points="362.98 345.15 367.42 343.13 359.87 326.14 355.43 328.16 362.98 345.15"/>
        </g>
      </g>
      <g>
        <g>
          <path class="cls-1" d="M912.96,36.29c-34,0-50.66-15.19-87.98-15.19v-5.19c37.32,0,53.98,15.18,87.98,15.18"/>
          <path class="cls-1" d="M912.96,14.88c-36.17,0-54.05,15.18-87.01,15.18v-5.19c32.96,0,50.83-15.19,87.01-15.19"/>
          <path class="cls-1" d="M731.94,36.29c34,0,50.66-15.19,87.98-15.19v-5.19c-37.32,0-53.98,15.18-87.98,15.18"/>
          <path class="cls-1" d="M731.94,14.88c36.17,0,54.05,15.18,87.01,15.18v-5.19c-32.96,0-50.83-15.19-87.01-15.19"/>
          <polygon class="cls-1" points="845.9 45.21 833.4 28.89 791.41 1.04 805.85 17.22 845.9 45.21"/>
          <polygon class="cls-1" points="849.25 2.71 833.62 18.3 791.24 44.2 805.6 28.82 849.25 2.71"/>
          <rect class="cls-1" x="810.17" y="20.82" width="18.58" height="4.76" transform="translate(779.08 842) rotate(-88.8)"/>
          <polygon class="cls-1" points="817.28 14.02 812.54 13.63 810.93 32.14 815.68 32.54 817.28 14.02"/>
          <polygon class="cls-1" points="821.6 32.38 826.35 32.77 827.95 14.26 823.21 13.87 821.6 32.38"/>
        </g>
        <g>
          <path class="cls-1" d="M731.92,36.29c-34,0-50.66-15.19-87.98-15.19v-5.19c37.32,0,53.98,15.18,87.98,15.18"/>
          <path class="cls-1" d="M731.92,14.88c-36.17,0-54.05,15.18-87.01,15.18v-5.19c32.96,0,50.83-15.19,87.01-15.19"/>
          <path class="cls-1" d="M550.9,36.29c34,0,50.66-15.19,87.98-15.19v-5.19c-37.32,0-53.98,15.18-87.98,15.18"/>
          <path class="cls-1" d="M550.9,14.88c36.17,0,54.05,15.18,87.01,15.18v-5.19c-32.96,0-50.83-15.19-87.01-15.19"/>
          <polygon class="cls-1" points="664.86 45.21 652.36 28.89 610.37 1.04 624.81 17.22 664.86 45.21"/>
          <polygon class="cls-1" points="668.22 2.71 652.59 18.3 610.2 44.2 624.56 28.82 668.22 2.71"/>
          <rect class="cls-1" x="629.13" y="20.82" width="18.58" height="4.76" transform="translate(601.84 661) rotate(-88.8)"/>
          <polygon class="cls-1" points="636.25 14.02 631.5 13.63 629.9 32.14 634.64 32.54 636.25 14.02"/>
          <polygon class="cls-1" points="640.56 32.38 645.31 32.77 646.92 14.26 642.17 13.87 640.56 32.38"/>
        </g>
        <g>
          <path class="cls-1" d="M550.89,36.29c-34,0-50.66-15.19-87.98-15.19v-5.19c37.32,0,53.98,15.18,87.98,15.18"/>
          <path class="cls-1" d="M550.89,14.88c-36.17,0-54.05,15.18-87.01,15.18v-5.19c32.96,0,50.83-15.19,87.01-15.19"/>
          <path class="cls-1" d="M369.86,36.29c34,0,50.66-15.19,87.98-15.19v-5.19c-37.32,0-53.98,15.18-87.98,15.18"/>
          <path class="cls-1" d="M369.86,14.88c36.17,0,54.05,15.18,87.01,15.18v-5.19c-32.96,0-50.83-15.19-87.01-15.19"/>
          <polygon class="cls-1" points="483.82 45.21 471.33 28.89 429.34 1.04 443.78 17.22 483.82 45.21"/>
          <polygon class="cls-1" points="487.18 2.71 471.55 18.3 429.16 44.2 443.53 28.82 487.18 2.71"/>
          <rect class="cls-1" x="448.1" y="20.82" width="18.58" height="4.76" transform="translate(424.58 480) rotate(-88.8)"/>
          <polygon class="cls-1" points="455.21 14.02 450.46 13.63 448.86 32.14 453.61 32.54 455.21 14.02"/>
          <polygon class="cls-1" points="459.53 32.38 464.28 32.77 465.88 14.26 461.13 13.87 459.53 32.38"/>
        </g>
        <g>
          <path class="cls-1" d="M369.85,36.29c-34,0-50.66-15.19-87.98-15.19v-5.19c37.32,0,53.98,15.18,87.98,15.18"/>
          <path class="cls-1" d="M369.85,14.88c-36.17,0-54.05,15.18-87.01,15.18v-5.19c32.96,0,50.83-15.19,87.01-15.19"/>
          <path class="cls-1" d="M188.83,36.29c34,0,50.66-15.19,87.98-15.19v-5.19c-37.32,0-53.98,15.18-87.98,15.18"/>
          <path class="cls-1" d="M188.83,14.88c36.17,0,54.05,15.18,87.01,15.18v-5.19c-32.96,0-50.83-15.19-87.01-15.19"/>
          <polygon class="cls-1" points="302.79 45.21 290.29 28.89 248.3 1.04 262.74 17.22 302.79 45.21"/>
          <polygon class="cls-1" points="306.15 2.71 290.51 18.3 248.13 44.2 262.49 28.82 306.15 2.71"/>
          <rect class="cls-1" x="267.06" y="20.82" width="18.58" height="4.76" transform="translate(247.34 299) rotate(-88.8)"/>
          <polygon class="cls-1" points="274.17 14.02 269.43 13.63 267.82 32.14 272.57 32.54 274.17 14.02"/>
          <polygon class="cls-1" points="278.49 32.38 283.24 32.77 284.84 14.26 280.1 13.87 278.49 32.38"/>
        </g>
        <g>
          <path class="cls-1" d="M188.81,36.29c-34,0-50.66-15.19-87.98-15.19v-5.19c37.32,0,53.98,15.18,87.98,15.18"/>
          <path class="cls-1" d="M188.81,14.88c-36.17,0-54.05,15.18-87.01,15.18v-5.19c32.96,0,50.83-15.19,87.01-15.19"/>
          <path class="cls-1" d="M7.79,36.29c34,0,50.66-15.19,87.98-15.19v-5.19c-37.32,0-53.98,15.18-87.98,15.18"/>
          <path class="cls-1" d="M7.79,14.88c36.17,0,54.05,15.18,87.01,15.18v-5.19c-32.96,0-50.83-15.19-87.01-15.19"/>
          <polygon class="cls-1" points="121.75 45.21 109.25 28.89 67.26 1.04 81.7 17.22 121.75 45.21"/>
          <polygon class="cls-1" points="125.11 2.71 109.48 18.3 67.09 44.2 81.45 28.82 125.11 2.71"/>
          <rect class="cls-1" x="86.02" y="20.82" width="18.58" height="4.76" transform="translate(70.12 118.01) rotate(-88.8)"/>
          <polygon class="cls-1" points="93.14 14.02 88.39 13.63 86.79 32.14 91.53 32.54 93.14 14.02"/>
          <polygon class="cls-1" points="97.45 32.39 102.2 32.77 103.81 14.26 99.06 13.87 97.45 32.39"/>
        </g>
      </g>
    </g>
  </g>
</svg>