<?xml version="1.0" encoding="UTF-8"?>
<svg id="Layer_2" data-name="Layer 2" xmlns="http://www.w3.org/2000/svg" viewBox="0 0 457.79 1042.29">
  <defs>
    <style>
      .cls-1 {
        fill: #bfbfbf;
        stroke: #000;
        stroke-linecap: round;
        stroke-width: 2.5px;
      }
    </style>
  </defs>
  <g id="Layer_2-2" data-name="Layer 2">
    <g>
      <g>
        <g>
          <path class="cls-1" d="M1.25,169.76c42.05-17.96,68.61-12.8,114.76-32.51l2.04,4.77c-46.15,19.72-72.71,14.55-114.76,32.52"/>
          <path class="cls-1" d="M9.66,189.44c44.73-19.11,60.87-42.51,101.63-59.92l2.04,4.77c-40.76,17.41-56.89,40.82-101.63,59.93"/>
          <path class="cls-1" d="M225.11,74.12c-42.05,17.96-56.68,40.73-102.83,60.45l2.04,4.77c46.15-19.71,60.78-42.48,102.83-60.44"/>
          <path class="cls-1" d="M233.52,93.81c-44.73,19.11-72.8,14.59-113.56,32l2.04,4.77c40.76-17.41,68.83-12.89,113.56-32"/>
          <polygon class="cls-1" points="80.68 126.12 102.54 134.53 165.41 137.95 141.2 130.71 80.68 126.12"/>
          <polygon class="cls-1" points="93.22 166.98 106.43 144.39 148.67 98.17 136.95 119.91 93.22 166.98"/>
          <polygon class="cls-1" points="122.46 142.25 128.39 139.83 121.57 122.54 115.64 124.96 122.46 142.25"/>
          <polygon class="cls-1" points="128.31 139.69 134.34 137.54 129.05 119.67 123.02 121.81 128.31 139.69"/>
          <polygon class="cls-1" points="115.76 125.08 109.74 127.24 115.03 145.11 121.05 142.96 115.76 125.08"/>
        </g>
        <g>
          <path class="cls-1" d="M371.23,156.87c5.31,38.69-7.14,59.7-1.31,102.16l-5.14.71c-5.83-42.46,6.61-63.48,1.3-102.16"/>
          <path class="cls-1" d="M350.02,159.78c5.65,41.16,23.48,59.43,28.63,96.93l-5.14.71c-5.15-37.5-22.98-55.77-28.63-96.93"/>
          <path class="cls-1" d="M399.5,362.83c-5.31-38.69-22.96-55.58-28.79-98.03l-5.14.71c5.83,42.46,23.47,59.35,28.78,98.03"/>
          <path class="cls-1" d="M378.29,365.74c-5.65-41.16,6.6-63.56,1.45-101.06l-5.14.71c5.15,37.5-7.11,59.9-1.46,101.06"/>
          <polygon class="cls-1" points="390.54 231.96 376.32 248.4 355.29 299.96 369.06 281.33 390.54 231.96"/>
          <polygon class="cls-1" points="347.91 233.92 365.8 249.58 398.07 294.29 380.59 280.03 347.91 233.92"/>
          <polygon class="cls-1" points="363.31 263.36 363.95 268.79 382.42 266.7 381.77 261.27 363.31 263.36"/>
          <polygon class="cls-1" points="364.11 268.75 364.46 274.21 383.05 273.51 382.7 268.06 364.11 268.75"/>
          <polygon class="cls-1" points="381.63 261.34 381.27 255.89 362.68 256.58 363.03 262.03 381.63 261.34"/>
        </g>
        <g>
          <path class="cls-1" d="M399.5,362.84c5.31,38.69-7.14,59.7-1.31,102.16l-5.14.71c-5.83-42.46,6.61-63.47,1.3-102.16"/>
          <path class="cls-1" d="M378.29,365.75c5.65,41.16,23.48,59.43,28.63,96.93l-5.14.71c-5.15-37.5-22.98-55.77-28.63-96.93"/>
          <path class="cls-1" d="M427.77,568.8c-5.31-38.69-22.96-55.58-28.79-98.03l-5.14.71c5.83,42.46,23.47,59.35,28.78,98.03"/>
          <path class="cls-1" d="M406.56,571.71c-5.65-41.16,6.6-63.56,1.45-101.06l-5.14.71c5.15,37.5-7.11,59.9-1.46,101.06"/>
          <polygon class="cls-1" points="418.81 437.93 404.59 454.37 383.56 505.93 397.33 487.3 418.81 437.93"/>
          <polygon class="cls-1" points="376.18 439.89 394.07 455.55 426.34 500.26 408.86 486.01 376.18 439.89"/>
          <polygon class="cls-1" points="391.58 469.33 392.22 474.76 410.69 472.68 410.04 467.25 391.58 469.33"/>
          <polygon class="cls-1" points="392.38 474.73 392.73 480.18 411.32 479.49 410.97 474.04 392.38 474.73"/>
          <polygon class="cls-1" points="409.9 467.32 409.54 461.86 390.95 462.56 391.3 468.01 409.9 467.32"/>
        </g>
        <g>
          <path class="cls-1" d="M409.24,644.33c-17.64,24.84-38.67,28.21-58.03,55.47l-4.23-3c19.36-27.26,40.38-30.63,58.03-55.47"/>
          <path class="cls-1" d="M391.78,631.93c-18.77,26.42-15.67,48.27-32.77,72.34l-4.23-3c17.1-24.07,14-45.93,32.76-72.35"/>
          <path class="cls-1" d="M315.3,776.56c17.64-24.84,13.91-45.8,33.27-73.06l-4.23-3c-19.36,27.26-15.63,48.22-33.28,73.06"/>
          <path class="cls-1" d="M297.85,764.16c18.77-26.42,40.42-30.69,57.52-54.76l-4.23-3c-17.1,24.07-38.76,28.34-57.53,54.76"/>
          <polygon class="cls-1" points="381.71 698.48 361.92 698.16 317.43 712.71 338.11 711.53 381.71 698.48"/>
          <polygon class="cls-1" points="348.81 671.42 353.41 691.87 352.52 737.83 347.44 718.43 348.81 671.42"/>
          <polygon class="cls-1" points="343.86 697.82 341.3 701.24 356.25 712.28 358.8 708.86 343.86 697.82"/>
          <polygon class="cls-1" points="341.44 701.32 338.66 704.57 352.91 716.46 355.7 713.22 341.44 701.32"/>
          <polygon class="cls-1" points="358.65 708.81 361.43 705.56 347.17 693.67 344.39 696.91 358.65 708.81"/>
        </g>
        <g>
          <path class="cls-1" d="M315.3,776.57c-17.64,24.84-38.67,28.21-58.03,55.47l-4.23-3c19.36-27.26,40.38-30.63,58.03-55.47"/>
          <path class="cls-1" d="M297.85,764.17c-18.77,26.42-15.67,48.27-32.77,72.34l-4.23-3c17.1-24.07,14-45.93,32.77-72.35"/>
          <path class="cls-1" d="M221.37,908.8c17.64-24.84,13.91-45.8,33.27-73.06l-4.23-3c-19.36,27.26-15.63,48.22-33.28,73.06"/>
          <path class="cls-1" d="M203.91,896.4c18.77-26.42,40.42-30.69,57.52-54.76l-4.23-3c-17.1,24.08-38.76,28.34-57.53,54.76"/>
          <polygon class="cls-1" points="287.77 830.72 267.98 830.4 223.49 844.94 244.17 843.76 287.77 830.72"/>
          <polygon class="cls-1" points="254.87 803.66 259.47 824.1 258.59 870.07 253.5 850.67 254.87 803.66"/>
          <polygon class="cls-1" points="249.92 830.06 247.37 833.48 262.31 844.52 264.86 841.1 249.92 830.06"/>
          <polygon class="cls-1" points="247.5 833.56 244.72 836.8 258.98 848.69 261.76 845.46 247.5 833.56"/>
          <polygon class="cls-1" points="264.71 841.04 267.49 837.8 253.23 825.9 250.45 829.15 264.71 841.04"/>
        </g>
        <g>
          <path class="cls-1" d="M221.36,908.81c-17.64,24.84-38.67,28.21-58.03,55.47l-4.23-3c19.36-27.26,40.38-30.63,58.03-55.47"/>
          <path class="cls-1" d="M203.91,896.41c-18.77,26.42-15.67,48.27-32.77,72.34l-4.23-3c17.1-24.07,14-45.93,32.76-72.35"/>
          <path class="cls-1" d="M127.43,1041.04c17.64-24.84,13.91-45.8,33.27-73.06l-4.23-3c-19.36,27.26-15.63,48.22-33.28,73.06"/>
          <path class="cls-1" d="M109.97,1028.64c18.77-26.42,40.42-30.69,57.52-54.76l-4.23-3c-17.1,24.08-38.76,28.34-57.53,54.76"/>
          <polygon class="cls-1" points="193.83 962.96 174.04 962.64 129.55 977.18 150.23 976 193.83 962.96"/>
          <polygon class="cls-1" points="160.93 935.89 165.53 956.34 164.65 1002.3 159.56 982.9 160.93 935.89"/>
          <polygon class="cls-1" points="155.98 962.3 153.43 965.72 168.37 976.76 170.92 973.34 155.98 962.3"/>
          <polygon class="cls-1" points="153.56 965.8 150.78 969.04 165.04 980.93 167.82 977.69 153.56 965.8"/>
          <polygon class="cls-1" points="170.77 973.28 173.55 970.03 159.29 958.14 156.51 961.38 170.77 973.28"/>
        </g>
        <g>
          <path class="cls-1" d="M344.76,160.5c-.11-.82-.22-1.65-.34-2.47-.1-.82-.2-1.64-.3-2.46-.09-.82-.18-1.63-.26-2.45-.08-.81-.15-1.63-.23-2.44-.06-.81-.13-1.62-.19-2.43-.05-.81-.11-1.61-.16-2.41-.04-.8-.09-1.6-.13-2.4-.03-.8-.07-1.59-.1-2.38-.02-.79-.05-1.58-.07-2.37-.01-.79-.03-1.57-.04-2.35,0-.78,0-1.56-.01-2.34,0-.77,0-1.55.01-2.32.01-.77.03-1.53.04-2.3.02-.76.04-1.52.06-2.28.03-.75.06-1.51.09-2.26.04-.75.07-1.49.11-2.23.04-.74.09-1.48.13-2.21.05-.73.1-1.46.15-2.19.12-1.45.24-2.88.36-4.3.15-1.41.29-2.81.43-4.19.17-1.37.33-2.73.5-4.07.19-1.33.37-2.65.55-3.95.2-1.29.4-2.56.6-3.82.21-1.25.43-2.47.63-3.68.23-1.2.45-2.38.66-3.53.23-1.15.46-2.27.69-3.38.24-1.1.47-2.17.7-3.21.24-1.04.48-2.06.71-3.04.24-.98.48-1.94.7-2.87.24-.92.47-1.82.69-2.68.23-.86.46-1.69.68-2.49.23-.79.44-1.56.65-2.29.22-.73.42-1.42.62-2.08.41-1.31.78-2.48,1.1-3.51.34-1.01.63-1.88.86-2.58.25-.7.44-1.23.57-1.59.13-.36.2-.54.2-.54-.16.55-.32,1.11-.48,1.67-.15.56-.3,1.13-.46,1.7-.15.57-.29,1.15-.44,1.73-.14.58-.28,1.17-.42,1.76-.13.59-.26,1.19-.4,1.79-.12.6-.25,1.21-.38,1.82-.12.61-.24,1.22-.36,1.84-.11.62-.22,1.24-.34,1.86-.11.63-.21,1.25-.32,1.88-.1.63-.2,1.27-.3,1.9-.18,1.28-.36,2.56-.55,3.85-.16,1.3-.32,2.6-.48,3.9-.14,1.31-.28,2.63-.42,3.94l-.36,3.97-.3,3.98c-.08,1.33-.17,2.65-.25,3.98-.07,1.32-.13,2.64-.2,3.96-.05,1.32-.1,2.63-.15,3.93-.04,1.3-.07,2.6-.11,3.88-.02,1.29-.05,2.56-.07,3.82-.01,1.26-.02,2.51-.04,3.75,0,1.24,0,2.46,0,3.66,0,1.2.02,2.39.02,3.56.04,2.34.08,4.59.12,6.76.06,2.16.13,4.23.19,6.18.08,1.95.16,3.79.23,5.49.09,1.7.17,3.27.24,4.69.08,1.42.16,2.68.22,3.77.14,2.18.23,3.68.27,4.35"/>
          <path class="cls-1" d="M235.56,98.58c.33-.15.67-.3,1.02-.46.35-.16.71-.33,1.08-.51.37-.18.75-.36,1.13-.55.38-.19.78-.39,1.18-.6.8-.42,1.64-.86,2.51-1.32.86-.47,1.75-.96,2.68-1.47.91-.52,1.86-1.06,2.83-1.61.96-.56,1.95-1.15,2.97-1.74,1.01-.6,2.03-1.22,3.08-1.85,1.04-.64,2.1-1.29,3.18-1.95,2.14-1.34,4.35-2.73,6.59-4.14,2.23-1.43,4.49-2.89,6.77-4.36,2.26-1.49,4.54-2.99,6.81-4.48,2.25-1.51,4.5-3,6.71-4.48,2.2-1.49,4.36-2.95,6.46-4.37,2.09-1.43,4.12-2.82,6.06-4.15,3.87-2.68,7.39-5.12,10.37-7.19,5.92-4.17,9.68-6.82,9.68-6.82l-4.81-2.88c-.89.68-1.79,1.36-2.71,2.05-.92.68-1.85,1.37-2.79,2.07-.95.69-1.91,1.38-2.87,2.09-.97.69-1.95,1.39-2.94,2.09-.99.7-1.99,1.4-3,2.1-1.01.7-2.02,1.4-3.04,2.1-2.05,1.38-4.12,2.78-6.18,4.17-2.08,1.37-4.17,2.74-6.24,4.1-2.09,1.34-4.17,2.68-6.22,4-2.07,1.3-4.11,2.59-6.11,3.85-2.01,1.25-3.99,2.47-5.92,3.67-1.94,1.18-3.82,2.33-5.64,3.44-1.83,1.1-3.59,2.16-5.28,3.18-3.39,2-6.48,3.82-9.14,5.39-2.69,1.54-4.95,2.85-6.69,3.85-.88.49-1.62.91-2.22,1.25-.6.33-1.06.58-1.35.74"/>
          <path class="cls-1" d="M371.22,156.87c-.22-1.9-.43-3.82-.65-5.74-.19-1.92-.38-3.85-.57-5.78-.17-1.93-.34-3.85-.51-5.77-.15-1.92-.31-3.83-.46-5.73-.28-3.8-.56-7.54-.83-11.19-.28-3.64-.56-7.17-.82-10.55-.15-1.69-.3-3.34-.45-4.94-.17-1.6-.33-3.16-.49-4.67-.09-.75-.18-1.49-.27-2.22-.1-.73-.19-1.44-.28-2.14-.1-.7-.2-1.38-.3-2.05-.11-.67-.22-1.32-.32-1.96-.12-.64-.23-1.26-.35-1.86-.13-.6-.25-1.19-.37-1.76-.07-.28-.13-.56-.2-.84-.07-.27-.14-.54-.2-.81-.07-.27-.14-.53-.21-.78-.07-.26-.15-.51-.22-.76-.08-.25-.15-.49-.23-.73-.08-.24-.16-.47-.23-.7-.08-.23-.16-.45-.24-.67-.08-.22-.17-.43-.25-.64-.09-.2-.17-.41-.26-.6-.09-.19-.18-.38-.27-.57-.09-.18-.19-.36-.28-.54-.1-.17-.19-.34-.29-.51l-3.6-1.71c.09.51.18,1.05.29,1.64.09.59.19,1.22.3,1.88.19,1.33.39,2.81.62,4.41.2,1.6.41,3.33.64,5.15.21,1.82.43,3.74.66,5.74.42,3.99.86,8.26,1.31,12.6.42,4.35.84,8.78,1.25,13.08.76,8.61,1.48,16.71,2,22.66.49,5.95.81,9.75.81,9.75"/>
          <path class="cls-1" d="M225.11,74.12s1.48-.76,4.11-2.1c1.32-.66,2.93-1.47,4.79-2.39,1.86-.91,3.97-1.95,6.29-3.08,2.33-1.11,4.86-2.32,7.55-3.61,2.71-1.26,5.58-2.6,8.58-3.99,1.5-.68,3.04-1.38,4.6-2.09,1.56-.7,3.15-1.41,4.76-2.12,1.62-.71,3.25-1.42,4.9-2.14,1.66-.71,3.33-1.42,5.01-2.14,1.69-.7,3.38-1.41,5.09-2.11,1.71-.69,3.42-1.38,5.13-2.07,1.72-.67,3.44-1.34,5.15-2.01,1.72-.65,3.44-1.29,5.14-1.93,1.71-.61,3.41-1.22,5.1-1.83.85-.29,1.69-.58,2.52-.87.84-.28,1.67-.56,2.5-.84.83-.27,1.66-.54,2.48-.8.82-.26,1.64-.51,2.45-.77.81-.24,1.62-.49,2.42-.73.8-.23,1.59-.46,2.38-.68.79-.21,1.57-.43,2.34-.64.77-.2,1.54-.4,2.29-.59.76-.18,1.51-.36,2.25-.54.74-.17,1.47-.33,2.2-.49.72-.15,1.44-.29,2.14-.44.7-.13,1.4-.25,2.08-.38.68-.11,1.36-.21,2.02-.32.66-.09,1.31-.17,1.95-.26.32-.04.64-.07.95-.11.31-.03.62-.06.93-.09.31-.02.61-.05.91-.07.3-.02.6-.04.89-.06.29-.01.59-.03.88-.04.29,0,.57-.01.86-.02.28,0,.56,0,.84,0,.27,0,.55.01.81.02.27.01.53.02.79.03.26.02.52.04.77.05.25.02.5.05.75.07.24.03.49.06.73.09.24.04.47.07.7.11.23.04.46.09.68.13l.33.07.08.02h.02s.01.01.02.02l.03.03.12.12.46.47,3.53,12.23-.34-.61-.35-.59-.36-.58-.38-.56-.39-.55-.4-.54-.41-.52-.43-.51-.44-.49-.45-.48-.46-.47-.47-.45-.48-.44-.5-.43-.51-.41-.52-.4-.7-.08-.72-.06-.73-.05-.74-.04-.75-.02h-.76s-.77,0-.77,0l-.78.02c-.53.02-1.06.05-1.6.08-.54.04-1.09.08-1.64.13-.55.06-1.11.12-1.68.18-.57.07-1.14.15-1.72.22-.58.09-1.16.18-1.76.27-.59.1-1.19.21-1.79.32-.6.12-1.21.24-1.83.36-.61.13-1.23.27-1.86.4-.62.15-1.26.29-1.89.44-.64.16-1.28.32-1.92.48-.65.17-1.3.35-1.95.52-.65.19-1.31.37-1.98.56-.66.2-1.33.4-2.01.6-.67.21-1.35.42-2.03.63-.68.22-1.37.44-2.06.66-.69.23-1.38.46-2.08.7-1.39.49-2.8.98-4.23,1.48-1.42.53-2.85,1.06-4.3,1.6-1.44.56-2.9,1.13-4.37,1.7-1.46.59-2.94,1.19-4.43,1.79-1.48.62-2.97,1.24-4.47,1.87-1.5.64-3,1.29-4.51,1.94-1.51.66-3.02,1.33-4.54,2-1.51.68-3.03,1.37-4.55,2.05-3.03,1.4-6.08,2.81-9.12,4.21-3.03,1.43-6.05,2.86-9.06,4.28-3,1.44-5.98,2.86-8.92,4.27-5.89,2.81-11.63,5.55-17.1,8.17"/>
          <polygon class="cls-1" points="384.82 45.17 366.21 54.93 330.25 97.4 349.12 85.16 384.82 45.17"/>
          <polygon class="cls-1" points="340.15 24.21 345.3 28.69 346.59 29.81 346.63 29.85 346.65 29.86 346.66 29.87 346.66 29.88 346.67 29.89 346.72 30.01 346.82 30.25 347.03 30.72 347.45 31.68 349.12 35.52 355.82 50.87 375.65 118.22 360.51 89.62 351.47 54.9 346.95 37.53 345.82 33.19 345.54 32.11 345.51 31.97 345.5 31.94 345.48 31.92 345.45 31.87 345.33 31.7 345.08 31.34 344.09 29.91 340.15 24.21"/>
          <polygon class="cls-1" points="349.19 63.78 348.12 69.7 366.36 76.83 367.42 70.91 349.19 63.78"/>
          <polygon class="cls-1" points="348.29 69.73 346.94 75.52 364.87 84.14 366.21 78.36 348.29 69.73"/>
          <polygon class="cls-1" points="367.26 70.91 368.61 65.12 350.68 56.49 349.33 62.29 367.26 70.91"/>
          <path class="cls-1" d="M364.51,42.07l-11.54-6.86-5.77-3.43-.72-.43-.36-.21-.09-.05h-.02s0-.02,0-.02h0s-.01,0-.01,0h-.06s-.24,0-.24,0l-1.9-.06-3.79-.12-63.33,15.12,27.05-.75,33.3-6.72,4.16-.84,1.04-.21.13-.03h.03s.03,0,.03,0h.05s.21.05.21.05l.41.09,1.65.34,6.59,1.38,13.19,2.76Z"/>
          <polygon class="cls-1" points="334.55 .48 331.75 23.57 311.02 75.18 312.75 53.25 334.55 .48"/>
          <polygon class="cls-1" points="316.95 30 312.2 33.78 326.68 46.59 331.42 42.81 316.95 30"/>
          <polygon class="cls-1" points="312.35 33.86 307.39 37.44 320.62 51.2 325.58 47.62 312.35 33.86"/>
          <polygon class="cls-1" points="331.25 42.75 336.21 39.17 322.97 25.42 318.01 28.99 331.25 42.75"/>
        </g>
        <g>
          <path class="cls-1" d="M387.45,628.86l.22-.31.22-.3.23-.3.24-.29.49-.56.51-.54.54-.52.56-.5.58-.48.6-.45.62-.43.64-.41.65-.39.67-.37.68-.36.7-.34.71-.32.72-.3.73-.29.74-.27.75-.25.76-.24.76-.22.77-.21.77-.19.77-.18c.26-.06.52-.11.78-.17.26-.05.52-.1.78-.15.53-.09,1.04-.18,1.55-.27.52-.08,1.04-.15,1.54-.22.52-.06,1.03-.12,1.52-.18.51-.05,1.01-.1,1.5-.14.5-.04.99-.07,1.46-.11.48-.02.96-.05,1.42-.07.47-.02.92-.03,1.37-.05.45,0,.89-.01,1.31-.02.43,0,.84,0,1.24,0,.4,0,.79.01,1.16.02.38.01.73.02,1.07.03.69.03,1.31.06,1.86.09.55.04,1.03.07,1.41.1.79.07,1.21.11,1.21.11l-.85-.02h-.84s-.84.02-.84.02l-.83.04-.82.06-.81.07-.8.09-.79.1-.78.12-.78.13-.77.15-.76.16-.75.17-.74.18-.73.19-.72.2-.71.21-.7.22-1.37.48-1.32.51c-.43.18-.86.36-1.28.53-.41.19-.83.37-1.24.56-.4.19-.8.38-1.19.57-.38.2-.76.39-1.14.59-.37.2-.73.4-1.09.6-.35.2-.7.4-1.04.6-.34.2-.67.4-.99.6-.32.2-.63.4-.94.6-.3.2-.6.4-.89.59-.28.2-.56.39-.83.58-.27.19-.53.38-.78.56-.25.18-.49.36-.72.54-.23.18-.45.35-.66.51-.42.33-.8.64-1.15.92-.34.28-.64.54-.9.76-.51.45-.87.75-1.02.89"/>
          <path class="cls-1" d="M401.41,572.43c.02.11.04.22.07.34.03.11.06.23.09.35.04.12.08.24.12.37.05.12.09.25.14.38.05.13.11.26.16.4.06.14.12.27.18.41.07.14.13.28.2.43.07.14.15.29.22.44.08.15.16.3.24.45.09.15.17.31.26.46.19.31.38.63.57.96.21.33.42.66.63,1,.23.34.46.68.69,1.03.24.35.49.7.74,1.06.26.36.52.72.78,1.08.27.36.54.73.82,1.09.28.37.56.73.85,1.1.58.73,1.17,1.47,1.76,2.21.6.73,1.2,1.46,1.79,2.17.61.71,1.2,1.41,1.78,2.09.59.68,1.17,1.33,1.71,1.96,1.13,1.25,2.15,2.39,3.02,3.35.89.96,1.62,1.74,2.12,2.29.51.54.8.84.8.84l4.36-1.6c-.31-.29-.63-.58-.95-.87-.31-.3-.62-.6-.94-.9-.31-.31-.61-.62-.92-.93-.3-.31-.6-.63-.91-.95-.3-.32-.59-.64-.89-.97l-.88-.98-.86-1-.84-1-.82-1.01-.8-1.01c-.51-.68-1.02-1.35-1.52-2.01-.48-.67-.96-1.33-1.43-1.98-.45-.65-.89-1.29-1.32-1.92-.41-.63-.82-1.24-1.21-1.83-.38-.59-.74-1.17-1.09-1.71-.34-.55-.66-1.07-.96-1.57-.29-.5-.57-.96-.83-1.4-.25-.43-.48-.84-.68-1.2-.2-.36-.38-.69-.53-.97-.15-.28-.27-.53-.38-.72-.05-.1-.09-.18-.13-.26-.03-.08-.06-.14-.08-.19"/>
          <path class="cls-1" d="M409.23,644.33l.55-.68.57-.67.59-.66.6-.65.62-.64.63-.63c.43-.41.85-.82,1.27-1.23.86-.8,1.7-1.59,2.53-2.35.41-.38.81-.76,1.21-1.13.39-.38.77-.75,1.14-1.11.18-.18.36-.37.54-.55.17-.18.35-.36.51-.54.16-.18.33-.36.49-.54.15-.18.31-.36.46-.53.14-.18.28-.36.42-.53.13-.18.26-.35.38-.53l.18-.26.17-.26.16-.26.15-.26.13-.26.12-.26.11-.26.1-.26.08-.26.07-.26.06-.26.04-.26.03-.26.02-.26v-.26s-.02-.26-.02-.26l-.03-.26-.05-.26-.06-.26-.08-.26-2.34-2.47c-.04.07-.07.14-.11.22-.04.07-.08.15-.13.23-.09.15-.2.32-.3.49-.11.17-.23.35-.36.53-.13.18-.27.37-.41.57-.15.19-.3.4-.46.6-.16.21-.33.42-.5.64-.35.43-.73.88-1.12,1.35-.4.46-.81.93-1.23,1.42-.43.48-.87.97-1.32,1.46-.45.49-.91.98-1.36,1.47-.46.49-.92.97-1.37,1.45-.92.95-1.81,1.87-2.63,2.71-.83.84-1.59,1.6-2.24,2.25-1.31,1.28-2.14,2.1-2.14,2.1"/>
          <path class="cls-1" d="M427.77,568.81s.18.48.5,1.34c.15.43.33.95.54,1.56.1.3.2.62.31.97.11.34.22.7.33,1.08.11.38.23.77.35,1.18.11.41.23.84.35,1.27.11.44.23.89.35,1.36.11.47.22.94.34,1.43.1.49.21.99.32,1.5.1.51.19,1.03.29,1.55.09.53.17,1.06.26,1.6.07.54.15,1.08.22,1.63l.09.83.08.83.07.83.05.84.03.84.02.84v.84s-.02.84-.02.84l-.04.83-.06.83-.08.82-.1.82c-.04.27-.08.54-.13.81-.05.27-.1.53-.15.8-.06.27-.12.53-.18.79-.07.26-.14.52-.2.78-.08.26-.15.51-.23.76-.09.25-.17.5-.26.75-.1.25-.19.49-.29.73-.11.24-.21.48-.32.72l-.17.35-.18.35-.19.34-.19.34-.2.33-.21.33-.22.32-.23.32-.24.31-.25.31-.25.3-.26.29-.27.29-.28.28-.29.27-.3.27-.31.26-.32.25-.33.25-.34.24-.35.23-.36.22-.18.11-.05.03h-.01s0,0,0,.02l.02.02.06.09.23.36-.7,4.17-.09-.3-.11-.31-.12-.32-.13-.32-.15-.33-.16-.33-.18-.34-.19-.34-.42-.7-.47-.72c-.17-.24-.35-.49-.52-.74-.19-.25-.38-.5-.57-.76.21-.16.42-.31.63-.47.2-.16.39-.32.59-.48.18-.16.37-.33.56-.5.17-.17.35-.34.52-.51.16-.17.33-.35.49-.52.15-.18.3-.36.46-.54.14-.18.28-.37.43-.55.13-.19.26-.37.4-.56.12-.19.24-.38.37-.58.11-.19.22-.39.34-.59.1-.2.2-.4.31-.6.09-.2.19-.4.28-.61.08-.2.17-.41.25-.62.08-.21.15-.42.23-.63.07-.21.13-.42.2-.64.06-.21.12-.43.18-.65.05-.22.1-.44.15-.66.04-.22.09-.44.13-.66l.11-.67.09-.68.06-.69.04-.69.03-.7v-.7s0-.71,0-.71l-.03-.71-.04-.72-.06-.72-.07-.73-.09-.73c-.07-.49-.14-.98-.22-1.47-.09-.49-.17-.98-.26-1.48l-.3-1.48-.34-1.48-.36-1.48c-.26-.98-.53-1.97-.79-2.95-.28-.98-.55-1.94-.82-2.9-.27-.96-.55-1.9-.81-2.83-.26-.93-.51-1.84-.75-2.74"/>
          <polygon class="cls-1" points="451.63 634.13 434.27 624.44 394.02 609.62 412.28 619.05 451.63 634.13"/>
          <polygon class="cls-1" points="433.62 606.25 427.65 607.97 426.16 608.41 426.11 608.42 426.09 608.43 426.08 608.43 426.07 608.43 426.07 608.44 426.08 608.49 426.09 608.59 426.12 608.8 426.17 609.21 426.4 610.86 427.28 617.46 423.68 640.63 419.95 626.71 422.73 615.48 424.12 609.87 424.47 608.47 424.55 608.12 424.57 608.07 424.57 608.06 424.59 608.06 424.65 608.05 424.86 608.01 425.27 607.92 426.94 607.59 433.62 606.25"/>
          <polygon class="cls-1" points="418.42 615.57 415.9 615.9 428.17 628.15 430.68 627.82 418.42 615.57"/>
          <polygon class="cls-1" points="416.02 616 413.31 616.14 424.92 628.45 427.62 628.31 416.02 616"/>
          <polygon class="cls-1" points="430.56 627.72 433.26 627.58 421.66 615.27 418.95 615.4 430.56 627.72"/>
          <path class="cls-1" d="M436.59,621.28l-7.1-8.14-3.55-4.07-.44-.51-.22-.25-.06-.06v-.02s-.02,0-.02,0h0s0,0,0,0l.02-.02.09-.08.72-.62,1.44-1.25,8.24-20.7-8.81,8.88-5.47,10.9-.68,1.36-.17.34-.02.04h0s0,0,0,.01l.02.02.04.03.15.13.3.26,1.19,1.06,4.78,4.23,9.55,8.46Z"/>
          <polygon class="cls-1" points="457.59 604.23 437.16 603.48 396.6 597.05 416.32 597.46 457.59 604.23"/>
          <polygon class="cls-1" points="436.4 598.67 434.57 597.13 417.6 601.99 419.44 603.52 436.4 598.67"/>
          <polygon class="cls-1" points="434.44 597.18 432.86 595.58 415.45 600.03 417.03 601.63 434.44 597.18"/>
          <polygon class="cls-1" points="419.55 603.46 421.13 605.06 438.53 600.61 436.97 599.01 419.55 603.46"/>
        </g>
      </g>
      <g>
        <path class="cls-1" d="M90.79,881.21c25.91-36.65,51.01-45.84,79.45-86.07l4.24,3c-28.44,40.23-53.53,49.42-79.44,86.07"/>
        <path class="cls-1" d="M108.27,893.57c27.57-38.99,28.79-67.02,53.91-102.55l4.24,3c-25.12,35.53-26.34,63.56-53.91,102.56"/>
        <path class="cls-1" d="M228.75,686.07c-25.91,36.65-26.21,63.38-54.65,103.61l4.24,3c28.44-40.23,28.74-66.95,54.65-103.6"/>
        <path class="cls-1" d="M246.23,698.43c-27.57,38.99-53.58,49.5-78.7,85.03l4.24,3c25.12-35.53,51.14-46.03,78.71-85.02"/>
        <polygon class="cls-1" points="134.61 803.76 157.47 799.71 212.21 770.53 187.99 776.76 134.61 803.76"/>
        <polygon class="cls-1" points="166.76 831.92 165.94 806.07 177.1 745.42 178.71 769.79 166.76 831.92"/>
        <polygon class="cls-1" points="178.31 796.08 182.02 791 167.15 779.86 163.44 784.94 178.31 796.08"/>
        <polygon class="cls-1" points="181.89 790.92 185.82 786.03 171.93 773.62 167.99 778.51 181.89 790.92"/>
        <polygon class="cls-1" points="163.6 784.98 159.67 789.87 173.56 802.29 177.5 797.4 163.6 784.98"/>
      </g>
      <g>
        <path class="cls-1" d="M47.17,783.71c24.41-34.95,48.82-43.37,75.61-81.72l4.25,2.97c-26.79,38.35-51.19,46.78-75.61,81.72"/>
        <path class="cls-1" d="M64.72,795.97c25.97-37.17,26.36-64.24,50.02-98.11l4.25,2.97c-23.66,33.87-24.04,60.94-50.01,98.12"/>
        <path class="cls-1" d="M177.13,597.67c-24.41,34.95-23.92,60.76-50.71,99.11l4.25,2.97c26.79-38.35,26.3-64.17,50.72-99.11"/>
        <path class="cls-1" d="M194.68,609.93c-25.97,37.17-51.25,46.85-74.91,80.72l4.25,2.97c23.66-33.87,48.95-43.54,74.91-80.72"/>
        <polygon class="cls-1" points="88 709.68 110.35 706.19 163.33 678.98 139.7 684.56 88 709.68"/>
        <polygon class="cls-1" points="120.43 737.47 118.87 712.48 128.07 654.08 130.37 677.66 120.43 737.47"/>
        <polygon class="cls-1" points="130.75 703.05 134.25 698.22 119.3 687.18 115.8 692.01 130.75 703.05"/>
        <polygon class="cls-1" points="134.11 698.14 137.84 693.48 123.82 681.23 120.08 685.89 134.11 698.14"/>
        <polygon class="cls-1" points="115.96 692.06 112.23 696.72 126.26 708.97 129.98 704.31 115.96 692.06"/>
      </g>
    </g>
  </g>
</svg>