<?xml version="1.0" encoding="UTF-8"?>
<svg id="Layer_2" data-name="Layer 2" xmlns="http://www.w3.org/2000/svg" viewBox="0 0 514.6 1022.39">
  <defs>
    <style>
      .cls-1 {
        fill: #bfbfbf;
        stroke: #000;
        stroke-linecap: round;
        stroke-width: 2.5px;
      }
    </style>
  </defs>
  <g id="Layer_2-2" data-name="Layer 2">
    <g>
      <g>
        <path class="cls-1" d="M26.46,1.25c12.99,38.53,4.97,62.25,19.23,104.54l-4.92,1.66C26.51,65.16,34.53,41.44,21.54,2.91"/>
        <path class="cls-1" d="M6.17,8.09c13.82,40.99,35.04,56.39,47.63,93.73l-4.92,1.66C36.29,66.14,15.07,50.74,1.25,9.75"/>
        <path class="cls-1" d="M95.63,206.37c-12.99-38.53-33.75-52.55-48.01-94.83l-4.92,1.66c14.26,42.28,35.01,56.31,48,94.84"/>
        <path class="cls-1" d="M75.35,213.21c-13.82-40.99-6.27-66.09-18.86-103.44l-4.92,1.66c12.59,37.35,5.03,62.45,18.86,103.44"/>
        <polygon class="cls-1" points="60.54 74.39 49.85 93.76 39.51 150.24 49.32 128.71 60.54 74.39"/>
        <polygon class="cls-1" points="18.98 84.16 39.73 96.89 80.47 136.65 60.41 125.28 18.98 84.16"/>
        <polygon class="cls-1" points="40.05 111.41 41.78 116.84 59.53 111.34 57.8 105.92 40.05 111.41"/>
        <polygon class="cls-1" points="41.92 116.78 43.37 122.28 61.52 118.18 60.08 112.68 41.92 116.78"/>
        <polygon class="cls-1" points="57.67 106.02 56.22 100.51 38.07 104.61 39.51 110.11 57.67 106.02"/>
      </g>
      <g>
        <path class="cls-1" d="M95.64,206.38c12.99,38.53,4.97,62.25,19.23,104.54l-4.92,1.66c-14.26-42.29-6.24-66.01-19.23-104.54"/>
        <path class="cls-1" d="M75.35,213.22c13.82,40.99,35.04,56.39,47.63,93.73l-4.92,1.66c-12.59-37.35-33.82-52.75-47.64-93.73"/>
        <path class="cls-1" d="M215.38,307.46c-20.33,0-35.48,3.8-51.12,7.59-7.82,1.9-15.76,3.8-24.54,5.22-4.39.71-8.99,1.31-13.88,1.72-.61.05-1.23.1-1.85.15l-.68.05c-.21,0-.42,0-.63-.02-.84-.07-1.7-.3-2.48-.74-.78-.44-1.51-1.04-2.06-1.8-.29-.37-.51-.8-.72-1.23-.16-.36-.41-1.1-.62-1.75l-4.92,1.66c.23.67.42,1.27.76,2.11.35.77.74,1.51,1.24,2.17.96,1.35,2.2,2.44,3.56,3.24,1.36.8,2.87,1.27,4.36,1.46.73.09,1.53.09,2.19.05.62-.05,1.24-.1,1.85-.15,4.89-.42,9.49-1.01,13.88-1.72,8.78-1.42,16.72-3.32,24.54-5.22,15.64-3.8,30.79-7.59,51.12-7.59"/>
        <path class="cls-1" d="M215.38,328.87c-21.63,0-37.78-3.8-53.46-7.59-7.84-1.9-15.56-3.79-23.78-5.22-4.11-.71-8.35-1.3-12.79-1.72l-.84-.08-.42-.04c-.11-.01-.37-.02-.28-.04.08-.05.18-.08.28-.1.21-.05.44-.04.65.03.21.07.43.17.6.35.08.09.17.18.23.3.03.05.07.11.09.17.02.03.03.05.04.08v.04s0,0,0-.05l-.04-.11-4.92,1.66c.06.19.08.21.09.25.02.05.03.09.05.14l.12.27c.09.17.18.35.3.5.22.32.48.62.8.86.31.25.66.45,1.05.61.19.08.39.14.6.19.01.02.22.03.34.04l.42.04.84.08c4.44.42,8.68,1.01,12.79,1.72,8.22,1.42,15.94,3.32,23.78,5.22,15.68,3.8,31.83,7.59,53.46,7.59"/>
        <path class="cls-1" d="M129.72,279.52l-10.69,19.38-2.59,14.12-.65,3.53-.32,1.76c-.11.57-.22,1.1-.24,1.69-.14,2.33.69,5.07,2.64,7.36.97,1.15,2.21,2.18,3.68,2.99.72.4,1.56.75,2.31,1.04l1.57.87,6.28,3.48,12.55,6.96-17.27-16.17-2.99-1.75c-.96-.58-1.69-1.28-2.24-2.05-1.1-1.54-1.35-3.29-.92-4.62.21-.67.58-1.23,1.05-1.64.29-.03.34-.77.47-1.31l.35-1.7,1.4-6.79,5.61-27.16Z"/>
        <path class="cls-1" d="M88.16,289.29l20.75,12.73,10.19,9.94,2.55,2.48,1.27,1.24.16.16c.06.06.11.11.14.08l.2-.05c.12-.03.26-.09.38-.15.97-.47,1.61-1.6,1.48-2.87-.06-.63-.31-1.31-.74-1.92-.11-.16-.23-.3-.36-.45-.06-.08-.13-.15-.2-.22l-.11-.1s-.1-.06.01-.1l1.58-.81,6.34-3.24,12.67-6.48-17.18,15.38-3.26,1.63-.2.1c-.05.03-.03.06-.05.1l-.06.2c-.05.15-.1.25-.16.39-.13.26-.3.5-.51.72-.84.89-2.36,1.32-3.98.89-.41-.1-.81-.26-1.21-.48-.41-.22-.77-.43-1.22-.92l-2.59-2.57-5.18-5.14-20.71-20.56Z"/>
        <path class="cls-1" d="M109.23,316.54l.86,2.71.22.68.11.35.17.48c.23.64.52,1.26.84,1.86,5.52-2.83,10.89-5.91,16.11-9.24.12.18.23.36.32.56.05.1.1.19.13.29,0,0,.03.09.01.04l-.05-.17-.11-.34-.86-2.71-17.75,5.5Z"/>
        <path class="cls-1" d="M111.56,322.53c1.19,2.42,3.12,4.51,5.5,5.91,3.71-5.01,6.4-10.67,7.92-16.66.8.1,1.59.44,2.25,1.02-4.51,4.21-9.84,7.53-15.67,9.73Z"/>
        <polygon class="cls-1" points="126.85 311.15 125.4 305.64 107.24 309.74 108.69 315.24 126.85 311.15"/>
      </g>
      <g>
        <path class="cls-1" d="M287.06,490.63c-2.97,2.74-5.89,5.17-8.79,7.38-1.45,1.1-2.89,2.15-4.33,3.14-.73.49-1.44.98-2.15,1.46-.35.23-.74.49-1.05.68l-.9.53c-4.83,2.81-9.9,5.25-15.31,7.91-3.23,1.59-6.58,3.25-10.04,5.09-1.73.92-3.49,1.88-5.28,2.9-.89.52-1.79,1.04-2.7,1.57-.91.53-1.8,1.11-2.58,1.81-1.57,1.37-2.8,3.09-3.52,4.99-.36.95-.59,1.95-.68,2.96-.1,1.02.01,2.04.08,3.09.3,4.2.89,8.81,1.84,13.83l-5.36-.46c-.99-5.33-1.56-10.21-1.9-14.67-.07-1.12-.2-2.2-.11-3.28.07-1.08.3-2.15.65-3.17.7-2.04,1.94-3.89,3.59-5.35.81-.75,1.75-1.37,2.7-1.94.95-.57,1.89-1.13,2.83-1.69,1.87-1.1,3.71-2.14,5.53-3.13,3.63-1.99,7.14-3.81,10.53-5.54,5.68-2.91,11.02-5.6,16.14-8.68l.96-.58c.35-.23.7-.46,1.06-.69.71-.48,1.43-.97,2.15-1.46,1.44-1,2.88-2.04,4.33-3.14,2.9-2.2,5.83-4.64,8.79-7.38"/>
        <path class="cls-1" d="M272.53,474.9c-5.99,5.53-10.8,10.94-15.01,16.35-4.24,5.43-7.59,10.59-10.46,15.43-1.91,3.2-3.61,6.27-5.26,9.24-.82,1.45-1.64,2.9-2.46,4.37-.8,1.45-1.75,2.76-2.3,4.44-.57,1.65-.84,3.52-.73,5.45.05.97.2,1.95.44,2.92.23.98.6,1.93.91,2.9,1.27,3.86,2.32,7.77,3.1,11.91l-5.38-.52c-.84-4.42-1.94-8.6-3.25-12.71-.32-1.03-.71-2.05-.94-3.09-.25-1.04-.39-2.08-.43-3.11-.09-2.06.22-4.04.86-5.78.61-1.78,1.66-3.17,2.54-4.69.91-1.54,1.82-3.08,2.72-4.6,1.82-3.12,3.7-6.34,5.77-9.71,3.13-5.08,6.75-10.49,11.28-16.19,1.18-1.47,2.21-2.76,3.35-4.12,1.13-1.35,2.32-2.71,3.56-4.07,2.48-2.72,5.19-5.46,8.17-8.22"/>
        <path class="cls-1" d="M264.45,639.58c-3.29-17.4-9.48-29.66-15.75-42.34-3.13-6.34-6.29-12.79-9.11-20.04-.71-1.81-1.39-3.67-2.05-5.6-.65-1.89-1.26-3.74-1.85-5.74-1.17-3.97-2.23-8.26-3.1-12.88l-5.31-.15c1.86,9.82,4.41,18.18,7.21,25.34,2.82,7.25,5.97,13.7,9.1,20.04,6.26,12.68,12.45,24.94,15.74,42.34"/>
        <path class="cls-1" d="M243.41,643.57c-3.5-18.51-2.39-33.05-1.21-47.18.59-7.06,1.21-14.02,1.27-21.33.02-1.81,0-3.7-.06-5.52-.02-1.66-.08-3.32-.18-5-.21-3.36-.62-6.8-1.31-10.44l-5.3-.09c.74,3.89,1.19,7.56,1.45,11.15.13,1.79.21,3.57.25,5.33.05,1.84.08,3.71.06,5.53-.07,7.3-.68,14.26-1.28,21.33-1.19,14.13-2.3,28.66,1.2,47.18"/>
        <path class="cls-1" d="M254.49,535.27c-3.23.56-6.05,1.39-8.57,2.34-2.59.96-5.13,2.13-7.64,3.49-3.7,5.42-7.18,11.98-10.45,19.68-1.63,3.85-3.21,7.98-4.74,12.4-1.58,4.1-3.2,8.05-4.8,12.09l13.08-17.84c3.32-7.54,6.85-13.98,10.58-19.34,1.87-2.68,3.79-5.08,5.76-7.21,2.04-2.12,3.7-4,6.77-5.61Z"/>
        <path class="cls-1" d="M212.11,517.81c1.15,3.71,3.03,7.56,5.84,11.09,2.89,3.52,5.97,6.85,9.12,9.99,5.92,8.04,11.63,15.01,17.14,20.91,2.76,2.95,5.46,5.63,8.11,8.04.16.13.34.32.51.53l.53.6,1.05,1.21,2.1,2.41,4.21,4.82-8.95-5.92-2.24-1.48c-.74-.46-1.5-1.06-2.22-1.4-1.45-.79-2.92-1.64-4.39-2.53-5.54-5.94-11.34-12.99-17.27-21.15-2.94-4.07-5.83-8.41-8.53-12.94-1.33-2.26-2.76-4.56-3.58-6.97-.87-2.4-1.32-4.86-1.44-7.21Z"/>
        <polygon class="cls-1" points="224.86 550.5 225.73 555.61 244.69 555.91 244.02 551.84 224.86 550.5"/>
        <path class="cls-1" d="M225.88,555.6l.57,5.11c6.32.22,12.62.33,18.9.32l-.37-4.09c-6.34-.33-12.71-.78-19.1-1.34Z"/>
        <path class="cls-1" d="M243.87,551.87l-.37-4.03c-6.47-1.1-13.04-2.32-19.49-3.64l.52,5.04c6.46.99,12.91,1.87,19.34,2.63Z"/>
      </g>
      <g>
        <path class="cls-1" d="M264.45,639.6c6.59,34.81-5.11,54.68,2.13,92.88l-5.1.97c-7.23-38.2,4.46-58.07-2.13-92.88"/>
        <path class="cls-1" d="M243.41,643.58c7.01,37.03,25.39,52.5,31.78,86.24l-5.1.97c-6.39-33.74-24.77-49.21-31.78-86.23"/>
        <path class="cls-1" d="M299.53,824.89c-6.59-34.81-24.74-49.03-31.97-87.23l-5.1.97c7.23,38.2,25.38,52.43,31.97,87.23"/>
        <path class="cls-1" d="M278.5,828.88c-7.01-37.03,4.44-58.15-1.95-91.88l-5.1.97c6.39,33.74-5.07,54.86,1.94,91.88"/>
        <polygon class="cls-1" points="286.21 706.58 272.6 722.41 253.37 770.57 266.47 752.78 286.21 706.58"/>
        <polygon class="cls-1" points="243.8 711.05 262.15 724.15 295.81 762.72 277.92 750.88 243.8 711.05"/>
        <polygon class="cls-1" points="260.14 736.82 260.96 741.71 279.29 738.66 278.46 733.76 260.14 736.82"/>
        <polygon class="cls-1" points="261.11 741.67 261.65 746.61 280.15 744.8 279.61 739.87 261.11 741.67"/>
        <polygon class="cls-1" points="278.32 733.84 277.78 728.91 259.28 730.71 259.81 735.64 278.32 733.84"/>
      </g>
      <g>
        <path class="cls-1" d="M299.53,824.91c6.59,34.81-5.11,54.68,2.13,92.88l-5.1.96c-7.23-38.2,4.46-58.07-2.13-92.88"/>
        <path class="cls-1" d="M278.5,828.89c7.01,37.03,25.39,52.5,31.78,86.24l-5.1.97c-6.39-33.74-24.77-49.21-31.78-86.23"/>
        <path class="cls-1" d="M337.75,986.09c-1.82,0-3.62.06-5.43.18-.46.03-.91.07-1.36.1l-.68.06c-.23.04-.46-.04-.59-.2-.29-.71-.48-1.44-.74-2.13-.98-2.77-2.09-5.26-3.31-7.64-2.44-4.75-5.29-9.08-8.24-14.09-2.74-4.63-5.55-9.84-8.12-16.23-1.29-3.19-2.51-6.67-3.62-10.47-.28-.95-.55-1.92-.81-2.91-.27-1-.53-2.07-.79-3.13-.51-2.14-.99-4.35-1.42-6.65l-5.1.97c1.73,9.11,4.17,17.28,6.81,24.06,2.65,6.82,5.54,12.42,8.35,17.44,3.03,5.42,5.96,10.16,8.48,15.35,1.26,2.6,2.42,5.31,3.44,8.32.27.75.47,1.54.77,2.31.13.18.38.26.62.22l.73-.06c.48-.03.96-.07,1.45-.1,1.93-.12,3.87-.18,5.83-.18"/>
        <path class="cls-1" d="M322.72,1007.04c-2.35-.07-4.59-.19-6.71-.34-.53-.04-1.06-.08-1.58-.12l-.78-.07c-.26-.03-.5-.25-.57-.52-.19-1.1-.34-2.2-.5-3.29-.6-4.37-.99-8.68-1.17-12.9-.2-4.21-.14-8.38,0-12.37.13-4,.36-7.84.61-11.54.51-7.62,1.15-14.65,1.33-21.51.16-6.98,0-13.07-1.71-22.07l-5.1.97c1.67,8.8,1.96,15.58,1.87,22.95-.1,7.28-.67,14.71-1.1,22.74-.44,7.8-.67,16.15.05,24.75.35,4.29.92,8.64,1.74,13.01.21,1.09.42,2.19.66,3.29.08.27.34.5.6.54l.78.11c.53.07,1.06.13,1.59.2,2.13.27,4.42.49,6.8.67"/>
        <path class="cls-1" d="M321.29,891.89l-13.61,15.83-9.61,24.08c-.81,1.96-1.58,4.1-2.35,6.29-.77,2.19-1.52,4.45-2.26,6.79-1.48,4.67-2.9,9.62-4.27,14.86,3.95-8.11,8.08-15.31,12.37-21.59l19.73-46.25Z"/>
        <path class="cls-1" d="M278.89,896.36l18.35,13.1,16.83,19.29c1.43,1.74,2.75,2.9,4.08,4.15,1.33,1.23,2.65,2.38,3.95,3.48,2.61,2.18,5.17,4.1,7.68,5.75-5.47-1.32-11.1-3.51-16.9-6.56-1.37-1.38-2.74-2.77-4.15-4.35l-4.26-4.98-8.53-9.96-17.06-19.91Z"/>
        <polygon class="cls-1" points="295.22 922.13 296.04 927.02 314.37 923.97 313.55 919.07 295.22 922.13"/>
        <polygon class="cls-1" points="296.2 926.98 296.73 931.91 315.23 930.11 314.7 925.18 296.2 926.98"/>
        <polygon class="cls-1" points="313.4 919.15 312.86 914.22 294.36 916.02 294.9 920.95 313.4 919.15"/>
      </g>
      <g>
        <path class="cls-1" d="M337.76,986.09c7.01,0,12.52.95,17.81,2.37,5.28,1.42,10.31,3.32,15.92,5.22,2.8.95,5.73,1.9,8.88,2.79,1.57.44,3.2.88,4.88,1.28.85.2,1.68.4,2.59.59.93.18,1.88.37,2.83.56,7.65,1.42,16.02,2.37,25.74,2.37v5.19c-9.72,0-18.09-.95-25.74-2.37-7.7-1.42-14.27-3.32-20.27-5.22-6.01-1.9-11.44-3.8-17.15-5.22-5.72-1.42-11.69-2.37-19.23-2.37"/>
        <path class="cls-1" d="M322.73,1007.04c9.53.3,18.6-.47,26.87-1.91,8.28-1.42,15.7-3.32,22.53-5.22,3.31-.93,6.59-1.85,9.92-2.79,1.58-.42,3.17-.85,4.78-1.28.75-.2,1.7-.4,2.56-.59.88-.18,1.77-.37,2.67-.55,7.16-1.42,14.76-2.37,23.35-2.37v5.19c-8.58,0-16.19.95-23.35,2.37-1.78.36-3.58.74-5.27,1.15-1.71.43-3.4.86-5.08,1.28-3.53.93-7.01,1.86-10.53,2.79-7.24,1.89-15.08,3.81-23.8,5.21-8.71,1.42-18.14,1.92-27.85,1.19"/>
        <path class="cls-1" d="M513.35,986.09c-35.42,0-52.78,15.19-91.65,15.19v5.19c38.88,0,56.23-15.18,91.65-15.18"/>
        <path class="cls-1" d="M513.35,1007.5c-37.68,0-56.3-15.18-90.64-15.18v5.19c34.34,0,52.96,15.19,90.64,15.19"/>
        <polygon class="cls-1" points="394.63 977.17 407.65 993.49 451.39 1021.34 436.35 1005.17 394.63 977.17"/>
        <polygon class="cls-1" points="391.13 1019.67 407.42 1004.08 451.58 978.18 436.61 993.56 391.13 1019.67"/>
        <polygon class="cls-1" points="419.49 1008.42 424.45 1008.52 424.86 989.94 419.9 989.84 419.49 1008.42"/>
        <polygon class="cls-1" points="424.44 1008.36 429.38 1008.75 431.06 990.24 426.11 989.85 424.44 1008.36"/>
        <polygon class="cls-1" points="419.94 990 415 989.61 413.32 1008.12 418.27 1008.51 419.94 990"/>
      </g>
      <g>
        <path class="cls-1" d="M268.92,471c1.19-1.1,2.38-2.2,3.57-3.29,1.19-1.09,2.38-2.17,3.57-3.25,1.19-1.07,2.39-2.14,3.57-3.2,1.19-1.06,2.39-2.11,3.57-3.16,1.19-1.04,2.39-2.08,3.57-3.11,1.19-1.03,2.38-2.05,3.57-3.07,2.39-2.01,4.76-4.01,7.12-6,2.38-1.95,4.74-3.89,7.08-5.82,2.36-1.89,4.7-3.77,7.03-5.63,2.34-1.83,4.66-3.65,6.96-5.45,2.31-1.77,4.61-3.52,6.88-5.26,2.28-1.7,4.54-3.39,6.78-5.07,2.24-1.64,4.47-3.27,6.67-4.87,2.2-1.58,4.38-3.14,6.54-4.68,2.16-1.51,4.29-3.01,6.39-4.48,2.1-1.45,4.18-2.87,6.23-4.28,2.05-1.38,4.07-2.74,6.05-4.08,1.99-1.31,3.94-2.61,5.86-3.88,1.92-1.25,3.8-2.47,5.65-3.67,1.85-1.18,3.66-2.33,5.43-3.47,1.77-1.11,3.5-2.2,5.19-3.26,1.69-1.04,3.33-2.06,4.94-3.05,1.6-.97,3.16-1.92,4.67-2.83,1.51-.9,2.97-1.77,4.39-2.62,1.41-.83,2.77-1.63,4.08-2.4,2.61-1.5,5.02-2.89,7.21-4.14,2.17-1.21,4.12-2.3,5.82-3.25,1.69-.92,3.14-1.7,4.31-2.34,2.34-1.23,3.6-1.89,3.6-1.89-.91.53-1.83,1.05-2.75,1.59-.93.55-1.86,1.09-2.79,1.65-.94.56-1.88,1.13-2.83,1.7-.95.58-1.9,1.17-2.86,1.76-1.92,1.21-3.86,2.43-5.82,3.67-1.96,1.28-3.94,2.56-5.93,3.85-1.99,1.33-4,2.67-6.01,4.02-2.02,1.38-4.04,2.77-6.08,4.17-2.04,1.43-4.08,2.86-6.13,4.29-2.05,1.46-4.1,2.93-6.16,4.4l-6.17,4.48c-2.05,1.52-4.11,3.03-6.16,4.55-2.05,1.53-4.09,3.06-6.13,4.59-2.03,1.54-4.06,3.08-6.08,4.61-2.01,1.55-4.02,3.09-6.01,4.62-1.99,1.54-3.96,3.08-5.92,4.6-3.9,3.08-7.74,6.11-11.49,9.07-3.73,3-7.38,5.93-10.9,8.76-3.51,2.87-6.91,5.64-10.15,8.29-3.24,2.68-6.33,5.24-9.25,7.65-2.91,2.44-5.65,4.73-8.19,6.85-5.06,4.29-9.32,7.91-12.56,10.66-3.23,2.77-5.45,4.67-6.44,5.51"/>
        <path class="cls-1" d="M215.39,334.06c1.41-.02,2.92-.04,4.51-.06,1.59-.05,3.27-.1,5.04-.15,1.76-.07,3.59-.15,5.5-.23,1.91-.1,3.88-.2,5.93-.3,2.04-.12,4.15-.24,6.31-.37,2.16-.14,4.38-.29,6.65-.43,4.53-.33,9.26-.68,14.15-1.03,4.87-.39,9.88-.8,14.99-1.21,5.09-.44,10.27-.9,15.49-1.35,5.2-.48,10.44-.96,15.64-1.44,5.2-.5,10.37-.99,15.46-1.48,10.15-1.02,19.96-2.01,28.97-2.91,8.99-.95,17.17-1.81,24.1-2.54,13.81-1.51,22.58-2.47,22.58-2.47l-6.43-4.54c-2.11.27-4.26.55-6.42.83-2.18.27-4.38.54-6.6.81-4.47.51-9.02,1.03-13.62,1.56-4.63.49-9.32.99-14.04,1.49-4.74.47-9.51.94-14.28,1.41-4.79.44-9.58.88-14.34,1.32-4.78.41-9.52.83-14.21,1.23-4.7.39-9.35.77-13.91,1.14-4.57.36-9.05.71-13.42,1.05-8.76.64-17.05,1.24-24.65,1.8-7.62.51-14.54.97-20.53,1.37-6,.37-11.06.67-14.95.91-3.89.21-6.61.35-7.91.42"/>
        <path class="cls-1" d="M287.05,490.62c2.77-2.5,5.56-5.02,8.36-7.54,2.81-2.5,5.64-5.01,8.46-7.51,5.67-4.96,11.34-9.92,16.93-14.81,11.21-9.73,22.09-19.17,32.06-27.83,2.48-2.18,4.9-4.32,7.26-6.39,2.34-2.1,4.62-4.13,6.82-6.1,2.18-2,4.29-3.92,6.32-5.78,1-.94,1.99-1.86,2.95-2.76.96-.91,1.89-1.8,2.8-2.67.9-.88,1.79-1.73,2.65-2.57.85-.84,1.67-1.67,2.48-2.47.79-.81,1.56-1.6,2.31-2.36.73-.77,1.44-1.52,2.12-2.25.66-.74,1.31-1.45,1.93-2.14.3-.35.6-.69.89-1.03.28-.34.56-.67.84-1,.27-.33.53-.65.79-.97.25-.32.49-.63.74-.93.23-.31.46-.61.68-.9.21-.3.42-.59.63-.87l.86-5.33c-.72.69-1.5,1.44-2.34,2.25-.85.8-1.75,1.65-2.7,2.55-1.93,1.78-4.06,3.76-6.38,5.91-2.33,2.12-4.83,4.41-7.48,6.82-2.66,2.4-5.45,4.92-8.35,7.54-5.82,5.2-12.06,10.78-18.42,16.46-6.38,5.65-12.87,11.4-19.17,16.98-12.65,11.12-24.55,21.58-33.29,29.27-8.76,7.66-14.35,12.54-14.35,12.54"/>
        <path class="cls-1" d="M215.39,307.46s3.24-.11,8.98-.32c2.88-.09,6.38-.2,10.42-.32,4.04-.11,8.62-.23,13.64-.36,5.02-.11,10.49-.23,16.31-.36,5.82-.09,12-.2,18.43-.3,6.44-.06,13.14-.13,20.01-.19,6.87-.01,13.92-.03,21.05-.04,3.56.02,7.15.04,10.74.05,3.59.04,7.19.07,10.79.11,3.6.06,7.19.12,10.78.18,3.58.08,7.15.16,10.69.25,3.54.11,7.06.22,10.54.32,3.48.14,6.92.27,10.32.4,3.39.17,6.74.33,10.03.49,3.28.2,6.51.4,9.68.59,1.58.11,3.14.22,4.68.33,1.54.12,3.06.24,4.57.36,1.5.13,2.98.26,4.44.38,1.46.14,2.89.28,4.31.41,1.41.15,2.8.3,4.17.44,1.36.16,2.7.31,4.02.47,1.31.17,2.6.34,3.86.5,1.25.18,2.49.36,3.7.53,1.2.19,2.37.38,3.52.56,1.13.2,2.25.4,3.34.59,1.07.21,2.12.42,3.15.63.5.11,1,.22,1.5.33.49.11.97.22,1.45.33.47.12.94.23,1.4.34.45.12.9.24,1.34.35.43.12.86.24,1.29.36.42.12.83.25,1.23.37.4.13.79.25,1.18.38.38.13.75.26,1.12.39l.54.2.13.05h.03s0,.03,0,.04l-.03.06-.12.25c-.17.33-.33.66-.5.99l-16.79,18.01.76-1.04.73-1.04.7-1.03.67-1.02.65-1.02.62-1.01.59-1.01.56-1,.54-.99.51-.99.48-.98.46-.98.43-.97.41-.97.38-.96.36-.96s-.02,0-.03-.01h-.04s-.07-.03-.07-.03l-.15-.04-.3-.09-.61-.17c-.41-.11-.82-.23-1.24-.34-.85-.22-1.7-.43-2.57-.65-.89-.21-1.79-.41-2.69-.62-.93-.19-1.86-.39-2.81-.59-.97-.18-1.94-.37-2.93-.56-1-.17-2.02-.35-3.04-.53-1.04-.16-2.09-.33-3.15-.5-1.07-.16-2.16-.31-3.25-.47-1.11-.15-2.23-.29-3.36-.44-1.14-.14-2.29-.27-3.46-.41-1.17-.13-2.36-.26-3.55-.39-1.2-.12-2.42-.24-3.64-.36-1.23-.11-2.48-.22-3.73-.34-1.26-.1-2.53-.21-3.82-.31-1.29-.09-2.59-.19-3.9-.29-1.32-.09-2.64-.17-3.98-.26-2.69-.15-5.42-.3-8.19-.46-2.78-.12-5.6-.25-8.46-.37-2.87-.1-5.77-.2-8.72-.3-2.95-.07-5.93-.15-8.94-.22-3.02-.05-6.06-.1-9.14-.15-3.08-.03-6.18-.06-9.31-.09-3.13-.01-6.28-.02-9.46-.04-3.17,0-6.37,0-9.58.01-6.42.05-12.9.1-19.41.16-6.51.1-13.04.19-19.57.29-26.1.55-52.1,1.1-75.7,1.59"/>
        <polygon class="cls-1" points="462.35 367.68 438.7 362.61 357.36 381.41 384.86 383.71 462.35 367.68"/>
        <polygon class="cls-1" points="459.89 306.76 465.7 312.9 467.15 314.44 467.19 314.49 467.22 314.51 467.23 314.53 467.23 314.53 467.22 314.54 467.07 314.74 466.75 315.12 466.13 315.89 464.88 317.43 459.88 323.6 439.88 348.26 347.57 447.83 383.57 399.45 431.72 349.19 455.8 324.07 461.82 317.78 463.32 316.21 463.51 316.02 463.56 315.97 463.55 315.94 463.53 315.89 463.44 315.68 463.27 315.25 462.6 313.55 459.89 306.76"/>
        <polygon class="cls-1" points="417.21 357.88 407.75 364.08 405.69 389.27 415.14 383.07 417.21 357.88"/>
        <polygon class="cls-1" points="407.78 364.27 398.39 370.06 393.92 396.78 403.31 390.98 407.78 364.27"/>
        <polygon class="cls-1" points="415.06 382.92 424.46 377.13 428.93 350.41 419.53 356.2 415.06 382.92"/>
        <path class="cls-1" d="M457.33,345.49l4.86-18.78,2.43-9.39.3-1.17.15-.59.04-.15v-.04s.01,0,.01,0h0s-.03-.01-.03-.01l-.1-.02-.42-.1-3.35-.8-6.71-1.6-125.15-10.98,49.08,9.93,64.87,6.91,8.11.86,2.03.22.25.03h.06s0,.04,0,.04v.06s.04.24.04.24l.07.48.27,1.91,1.06,7.65,2.13,15.31Z"/>
        <polygon class="cls-1" points="468.03 282.73 445.32 302.87 368.61 342.19 388.52 322.7 468.03 282.73"/>
        <polygon class="cls-1" points="413.85 302.97 402.45 304.58 418.59 322.05 429.99 320.44 413.85 302.97"/>
        <polygon class="cls-1" points="402.64 304.71 391.01 306.05 404.21 323.91 415.82 322.57 402.64 304.71"/>
        <polygon class="cls-1" points="429.73 320.31 441.36 318.97 428.15 301.12 416.54 302.46 429.73 320.31"/>
      </g>
    </g>
  </g>
</svg>