<?xml version="1.0" encoding="UTF-8"?>
<svg id="Layer_2" data-name="Layer 2" xmlns="http://www.w3.org/2000/svg" viewBox="0 0 530.57 696.14">
  <defs>
    <style>
      .cls-1 {
        fill: #bfbfbf;
        stroke: #000;
        stroke-linecap: round;
        stroke-width: 4.5px;
      }
    </style>
  </defs>
  <g id="Layer_2-2" data-name="Layer 2">
    <g>
      <g>
        <g>
          <path class="cls-1" d="M299.93,9.46c0,62.6-27.34,93.27-27.34,161.98h-9.34c0-68.71,27.33-99.37,27.33-161.98"/>
          <path class="cls-1" d="M261.4,9.46c0,66.6,27.32,99.51,27.32,160.19h-9.34c0-60.68-27.34-93.59-27.34-160.19"/>
          <path class="cls-1" d="M299.93,342.75c0-62.6-27.34-93.27-27.34-161.98h-9.34c0,68.7,27.33,99.38,27.33,161.98"/>
          <path class="cls-1" d="M261.4,342.75c0-66.6,27.32-99.51,27.32-160.19h-9.34c0,60.68-27.34,93.59-27.34,160.19"/>
          <polygon class="cls-1" points="315.99 132.94 286.61 155.95 236.49 233.25 265.6 206.67 315.99 132.94"/>
          <polygon class="cls-1" points="239.49 126.75 267.55 155.53 314.17 233.58 286.49 207.13 239.49 126.75"/>
          <rect class="cls-1" x="271.99" y="164.89" width="8.77" height="33.45" transform="translate(89.13 454.2) rotate(-88.82)"/>
          <polygon class="cls-1" points="259.85 185.62 259.15 194.36 292.47 197.31 293.18 188.57 259.85 185.62"/>
          <polygon class="cls-1" points="292.91 177.67 293.6 168.93 260.28 165.97 259.58 174.71 292.91 177.67"/>
        </g>
        <g>
          <path class="cls-1" d="M299.93,342.77c0,62.6-27.34,93.27-27.34,161.98h-9.34c0-68.71,27.33-99.37,27.33-161.98"/>
          <path class="cls-1" d="M261.4,342.77c0,66.6,27.32,99.51,27.32,160.19h-9.34c0-60.68-27.34-93.59-27.34-160.19"/>
          <path class="cls-1" d="M299.93,676.06c0-62.6-27.34-93.27-27.34-161.98h-9.34c0,68.7,27.33,99.38,27.33,161.98"/>
          <path class="cls-1" d="M261.4,676.06c0-66.6,27.32-99.51,27.32-160.19h-9.34c0,60.68-27.34,93.59-27.34,160.19"/>
          <polygon class="cls-1" points="315.99 466.24 286.61 489.25 236.49 566.56 265.6 539.97 315.99 466.24"/>
          <polygon class="cls-1" points="239.49 460.06 267.55 488.84 314.17 566.88 286.49 540.43 239.49 460.06"/>
          <rect class="cls-1" x="271.99" y="498.2" width="8.77" height="33.45" transform="translate(-244.1 780.67) rotate(-88.82)"/>
          <polygon class="cls-1" points="259.85 518.93 259.15 527.66 292.47 530.62 293.18 521.88 259.85 518.93"/>
          <polygon class="cls-1" points="292.91 510.98 293.6 502.23 260.28 499.28 259.58 508.02 292.91 510.98"/>
        </g>
      </g>
      <g>
        <g>
          <path class="cls-1" d="M47.04,2.25c23.37,61.81,9.25,101.76,34.9,169.6l-8.73,3.3C47.56,107.32,61.67,67.37,38.3,5.56"/>
          <path class="cls-1" d="M11,15.88c24.86,65.76,62.71,88.59,85.37,148.5l-8.73,3.3C64.97,107.77,27.11,84.94,2.25,19.19"/>
          <path class="cls-1" d="M167.32,320.34c-4.62-12.23-10.09-21.85-16.33-31.1-1.56-2.31-3.16-4.59-4.81-6.86-.42-.57-.83-1.14-1.24-1.7-.47-.69-.93-1.38-1.39-2.07-.94-1.37-1.88-2.73-2.81-4.09-3.76-5.42-7.59-10.71-11.44-16.05-15.38-21.36-31.05-43.47-43.88-77.39l-8.73,3.3c12.83,33.92,28.49,56.03,43.87,77.4,3.85,5.34,7.67,10.63,11.43,16.05.93,1.36,1.87,2.72,2.81,4.09.46.69.93,1.38,1.39,2.07.43.61.86,1.23,1.29,1.84,1.71,2.46,3.39,4.92,5.01,7.41,6.52,10,12.29,20.42,17.26,33.57"/>
          <path class="cls-1" d="M136.19,346.96c-6.46-17.08-10.67-33.04-13.37-47.44-1.36-7.22-2.33-14-3.17-20.76-.83-6.73-1.51-13.34-2.16-19.9-2.62-26.25-4.97-51.77-16.3-81.73l-8.73,3.3c11.33,29.96,13.67,55.48,16.29,81.73.65,6.56,1.33,13.17,2.16,19.91.42,3.37.87,6.77,1.39,10.21.56,3.54,1.24,7.31,1.98,11.09,3,15.19,7.53,32,14.36,50.06"/>
          <polygon class="cls-1" points="108.16 118.48 89.27 151.6 71.25 245.66 88.56 209.11 108.16 118.48"/>
          <polygon class="cls-1" points="34.3 139.44 71.29 157.93 144.04 218.5 108.27 202.17 34.3 139.44"/>
          <polygon class="cls-1" points="71.96 181.76 75.06 190.48 106.61 179.36 103.5 170.64 71.96 181.76"/>
          <polygon class="cls-1" points="75.32 190.36 77.93 199.23 110.19 190.37 107.59 181.49 75.32 190.36"/>
          <polygon class="cls-1" points="103.27 170.82 100.65 161.94 68.38 170.81 70.99 179.69 103.27 170.82"/>
        </g>
        <g>
          <path class="cls-1" d="M167.32,320.35c4.62,12.23,7.33,24.21,9.43,37.01,2.09,12.76,3.55,26.28,5.38,40.8,1.83,14.5,4.03,29.99,7.41,46.18,3.37,16.16,7.94,33.07,14.15,49.49l-3.91,15.75c-1.66-4.26-3.22-8.6-4.66-12.97-1.45-4.35-2.8-8.72-4.05-13.1-2.51-8.74-4.64-17.41-6.48-25.89-3.68-16.98-6.16-33.19-8.25-48.39-2.1-15.22-3.83-29.44-6.2-42.94-2.38-13.54-5.39-26.32-10.36-39.47"/>
          <path class="cls-1" d="M136.19,346.98c6.46,17.08,13.43,30.68,20.27,41.54,6.86,10.89,13.61,19.1,19.99,26.3,6.38,7.22,12.38,13.43,17.94,20.88,5.57,7.48,10.67,16.15,15.56,29.07l-4,15.83c-5.22-13.81-10.62-23.27-16.47-31.49-5.84-8.19-12.1-15.09-18.75-23.02-6.64-7.9-13.67-16.82-20.82-28.5-7.14-11.64-14.43-26.09-21.26-44.16"/>
          <path class="cls-1" d="M265.99,581.29c-4.62-12.23-8.74-18.28-12.95-22.18-4.2-3.86-8.48-5.52-13.14-8.17-4.65-2.63-9.67-6.26-15.17-13.55-5.48-7.26-11.46-18.24-17.67-34.65l-3.67,16.13c3.32,8.47,6.58,15.67,9.69,21.81,1.55,3.08,3.08,5.91,4.56,8.56.74,1.32,1.47,2.6,2.2,3.82.36.61.72,1.21,1.08,1.81.36.6.71,1.19,1.08,1.67,5.8,8.09,11.09,12.44,16.01,15.78,4.92,3.36,9.47,5.72,13.95,10.33,4.5,4.65,8.91,11.5,13.88,24.65"/>
          <path class="cls-1" d="M265.37,678.14c-6.33-15.82-11.82-31.56-16.71-48.04-.6-2.09-1.2-4.15-1.8-6.19-.29-1.04-.58-2.08-.88-3.12l-.22-.78-.21-.93-.41-1.86c-1.09-4.96-2.14-9.92-3.15-14.86-2.02-9.87-3.89-19.65-5.67-29.18-3.56-19.08-6.74-37.15-10.18-53.49-3.45-16.37-7.15-30.98-12.03-43.9l-3.71,16.59c5.22,13.81,9.21,29.2,12.95,46.32,1.86,8.55,3.65,17.51,5.46,26.81.91,4.75,1.82,9.48,2.73,14.2l.69,3.62.35,1.81.37,1.6c.5,2.12,1,4.24,1.51,6.36,2.03,8.46,4.16,16.83,6.42,25.05,2.24,8.2,4.61,16.24,7.16,24.12,5.14,15.85,10.74,30.72,17.26,45.61"/>
          <path class="cls-1" d="M212.15,393.49c-3.06,19.58-5.6,40.58-7.59,62.98.19,12.3.57,25.12,1.14,38.43.28,6.66.62,13.44,1,20.36.41,6.8.92,13.4,1.48,20.11,1.14,13.43,2.53,26.58,4.18,39.61.82,6.5,1.73,13.02,2.66,19.38.93,6.32,1.91,12.56,2.95,18.74-.5-5.83-.96-11.71-1.37-17.65-.41-5.93-.78-11.93-1.12-18.04-.66-12.18-1.12-24.5-1.37-36.93l-.4-4.9-.31-5.23-.56-10.4c-.35-6.87-.66-13.62-.92-20.25-.52-13.26-.86-26.03-1.02-38.31-.31-24.57.11-47.2,1.26-67.89Z"/>
          <path class="cls-1" d="M170.03,498.4c9.17-2.2,17.7-6.09,25.59-11.66,16.87.68,30.86-6.25,41.98-20.78-4.86,13.23-10.31,24.93-16.33,35.1-3.52,1.75-7.24,3.01-11.13,3.78-1.95.38-3.94.64-5.99.78l-1.54.08-1.54-.04-3.15-.12c-2.14-.1-4.32-.35-6.56-.66-1.12-.16-2.26-.33-3.4-.55-1.14-.24-2.29-.51-3.45-.81-4.64-1.21-9.47-2.91-14.49-5.1Z"/>
          <polygon class="cls-1" points="200.49 520.84 203.92 529.86 217 471.31 214.33 463.75 200.49 520.84"/>
          <polygon class="cls-1" points="204.02 529.37 207.27 539.16 210.35 525.89 213.67 511.13 220.23 481.38 217.76 472.83 210.85 501.69 207.36 516 204.02 529.37"/>
          <polygon class="cls-1" points="214.25 464.31 211.81 455.91 204.13 482.71 200.25 496 196.38 509.05 199.56 518.96 203.2 505.77 206.91 492.03 214.25 464.31"/>
        </g>
        <g>
          <path class="cls-1" d="M266,581.31c.58,1.53,1.15,3.11,1.71,4.74.08.2.12.42.24.6.12.17.31.3.51.33.2.04.4,0,.54-.11.15-.11.21-.28.28-.43.28-.61.55-1.21.82-1.81,1.09-2.33,2.15-4.33,3.21-6.06,2.1-3.46,4.15-5.87,6.2-7.69,4.11-3.64,8.27-4.99,12.8-7.34,4.53-2.33,9.43-5.65,14.82-12.72,5.38-7.03,11.28-17.87,17.46-34.3l3.32,16.6c-3.31,8.49-6.52,15.56-9.58,21.75-1.53,3.1-3.02,5.92-4.48,8.59-.73,1.3-1.44,2.59-2.15,3.86-.35.62-.71,1.23-1.05,1.84l-.52.9c-.17.29-.36.51-.53.77-5.69,7.86-10.86,11.91-15.66,14.95-4.8,3.06-9.22,5.11-13.61,9.5-2.2,2.2-4.39,4.99-6.64,8.87-1.13,1.94-2.27,4.14-3.44,6.69-.29.65-.59,1.31-.88,1.97-.07.17-.14.35-.3.47-.16.11-.37.17-.59.12-.21-.03-.41-.17-.55-.35-.13-.19-.18-.43-.26-.64-.6-1.74-1.22-3.44-1.84-5.08"/>
          <path class="cls-1" d="M265.38,678.17c.79,1.95,1.57,3.88,2.34,5.77.14.5.81.76,1.3.5.25-.12.42-.34.5-.6l.28-.74c.38-.99.75-1.98,1.12-2.96,1.48-3.94,2.91-7.88,4.29-11.84,2.77-7.91,5.36-15.89,7.81-24.01.61-2.06,1.21-4.1,1.81-6.12.3-1.03.59-2.06.88-3.08l.22-.77.21-.94.42-1.89c1.11-5.03,2.17-10.06,3.2-15.08,2.06-10.02,3.97-19.95,5.79-29.65,3.64-19.4,6.91-37.78,10.41-54.37,3.51-16.61,7.24-31.38,12.1-44.31l3.42,17.43c-5.2,13.82-9.22,29.37-13.01,46.73-1.89,8.67-3.71,17.77-5.56,27.22-.93,4.83-1.86,9.63-2.79,14.43l-.71,3.68-.36,1.84-.38,1.58c-.51,2.09-1.03,4.18-1.54,6.28-4.14,16.7-8.59,32.88-13.7,48.43-2.52,7.74-5.18,15.33-8.03,22.82-1.43,3.75-2.9,7.47-4.42,11.2-.38.92-.76,1.85-1.15,2.79l-.29.7c-.08.24-.25.45-.51.56-.5.24-1.18,0-1.32-.47-.79-1.78-1.59-3.59-2.4-5.43"/>
          <path class="cls-1" d="M364.92,331.57c-4.6,12.24-7.34,24.38-9.5,37.41-2.15,13-3.7,26.84-5.63,41.67-1.92,14.81-4.21,30.62-7.65,47.05-3.43,16.4-8.02,33.47-14.2,49.9l3.56,16.3c1.66-4.22,3.21-8.55,4.67-12.88,1.46-4.33,2.82-8.66,4.08-13.06,2.53-8.76,4.68-17.54,6.55-26.14,3.74-17.22,6.3-33.75,8.49-49.26,2.19-15.54,4.01-30.07,6.44-43.81,2.44-13.78,5.49-26.72,10.43-39.88"/>
          <path class="cls-1" d="M394.78,361.66c-6.43,17.1-13.31,30.55-20.05,41.19-6.75,10.67-13.37,18.58-19.61,25.48-6.25,6.92-12.12,12.83-17.58,20.05-5.46,7.26-10.5,15.78-15.36,28.71l3.71,16.68c5.2-13.82,10.52-23.13,16.27-31.13,5.73-7.96,11.87-14.57,18.39-22.19,6.51-7.6,13.4-16.23,20.45-27.68,7.03-11.42,14.24-25.73,21.03-43.8"/>
          <path class="cls-1" d="M298.62,462.27c4.71,15.3,9.95,29.19,15.72,41.66,3.5,2.57,7.18,4.64,11.06,6.2,1.94.78,3.92,1.43,5.96,1.96,2.01.42,4.05.64,6.18.91,2.12.22,4.32.52,6.55.53,2.23.05,4.52,0,6.86-.14,4.65-.44,9.47-1.43,14.49-2.91-8.95-3.76-17.29-9.18-25.03-16.2-16.84-2.86-30.78-13.57-41.78-32.01Z"/>
          <path class="cls-1" d="M315.43,614.25c1.24-11.65,2.29-23.52,3.15-35.62.42-6.04.82-12.19,1.15-18.37l.46-9.29.2-4.66.09-2.34c.03-.81.07-1.5.08-2.41,4.47-56.06,6.09-104.5,4.84-145.34,2.47,19.65,4.37,40.83,5.69,63.54-.4,12.2-.99,24.9-1.77,38.09-.39,6.6-.82,13.31-1.3,20.16l-.37,5.16-.43,4.96-.95,9.89c-1.33,13.14-2.91,26.11-4.75,38.94-.93,6.46-1.87,12.65-2.88,18.88-1.01,6.21-2.08,12.35-3.2,18.42Z"/>
          <polygon class="cls-1" points="331.24 533.64 334.8 525.29 321.66 466.3 318.87 473.23 331.24 533.64"/>
          <polygon class="cls-1" points="334.68 524.84 338.43 517.23 331.97 487.75 325.3 458.16 322.28 464.17 328.61 494.68 331.74 510.05 334.68 524.84"/>
          <polygon class="cls-1" points="319 473.67 316.03 479.6 321.59 512.16 324.32 528.55 326.75 543.51 330.45 536.06 327.81 521.26 324.9 505.32 319 473.67"/>
        </g>
        <g>
          <path class="cls-1" d="M364.93,331.55c4.6-12.24,9.99-21.71,16.12-30.74,3.06-4.5,6.3-8.87,9.68-13.31.86-1.12,1.71-2.23,2.56-3.34l1.3-1.69c.22-.3.42-.53.67-.88l.71-1c1.91-2.67,3.82-5.33,5.73-8.01,15.34-21.39,30.97-43.53,43.73-77.48l8.74,3.29c-12.76,33.94-28.39,56.09-43.73,77.48-1.92,2.67-3.82,5.34-5.73,8.01-.97,1.39-1.84,2.52-2.75,3.75-.88,1.2-1.77,2.4-2.66,3.61-3.51,4.79-6.89,9.52-10.09,14.4-6.41,9.78-12.1,20.06-17.05,33.21"/>
          <path class="cls-1" d="M394.79,361.63c6.43-17.1,10.67-33.22,13.43-47.86,1.39-7.33,2.42-14.32,3.22-20.99.37-3.35.74-6.66,1.1-9.94.33-3.32.67-6.61,1-9.89,2.57-26.25,4.87-51.78,16.14-81.76l8.74,3.29c-22.82,60.68-8.09,99.19-36.39,174.45"/>
          <path class="cls-1" d="M483.5,16.22c-23.26,61.86-9.06,101.78-34.59,169.67l8.74,3.29c25.53-67.89,11.34-107.81,34.6-169.67"/>
          <path class="cls-1" d="M519.57,29.78c-24.74,65.8-62.55,88.7-85.09,148.66l8.74,3.29c22.54-59.96,60.36-82.85,85.1-148.66"/>
          <polygon class="cls-1" points="390.52 217.88 426.56 205.48 502.2 146.74 465.07 162.76 390.52 217.88"/>
          <polygon class="cls-1" points="459.83 250.91 444.25 212.6 429.6 119.08 445.69 154.95 459.83 250.91"/>
          <polygon class="cls-1" points="459.48 194.26 462.91 185.66 431.87 173.19 428.45 181.79 459.48 194.26"/>
          <polygon class="cls-1" points="462.64 185.58 466.54 177.19 436.45 162.55 432.54 170.94 462.64 185.58"/>
          <polygon class="cls-1" points="428.74 181.8 424.85 190.2 454.94 204.84 458.84 196.46 428.74 181.8"/>
        </g>
      </g>
    </g>
  </g>
</svg>