<?xml version="1.0" encoding="UTF-8"?>
<svg id="Layer_2" data-name="Layer 2" xmlns="http://www.w3.org/2000/svg" viewBox="0 0 771.56 1172.93">
  <defs>
    <style>
      .cls-1 {
        fill: #bfbfbf;
        stroke: #000;
        stroke-linecap: round;
        stroke-width: 4.5px;
      }
    </style>
  </defs>
  <g id="Layer_2-2" data-name="Layer 2">
    <g>
      <g>
        <path class="cls-1" d="M2.25,422.07c36.52-44.77,75.59-49.42,115.68-98.56l7.24,5.9c-40.08,49.14-79.15,53.8-115.67,98.57"/>
        <path class="cls-1" d="M32.11,446.43c38.85-47.63,36.87-88.43,72.27-131.83l7.24,5.9c-35.4,43.4-33.41,84.21-72.26,131.84"/>
        <path class="cls-1" d="M196.68,183.72c-36.52,44.77-33.23,83.99-73.31,133.12l7.24,5.9c40.08-49.13,36.8-88.34,73.32-133.11"/>
        <path class="cls-1" d="M226.54,208.08c-38.85,47.63-79.22,53.89-114.62,97.29l7.24,5.9c35.4-43.4,75.78-49.65,114.63-97.28"/>
        <polygon class="cls-1" points="61.83 323.62 98.02 325.74 181.96 302.13 143.89 302.74 61.83 323.62"/>
        <polygon class="cls-1" points="117.51 376.4 112.55 338.08 121.95 252.8 127.97 289.21 117.51 376.4"/>
        <polygon class="cls-1" points="131.05 327.75 136.3 321.6 110.81 299.95 105.55 306.1 131.05 327.75"/>
        <polygon class="cls-1" points="136.07 321.43 141.71 315.62 117.62 292.45 111.97 298.25 136.07 321.43"/>
        <polygon class="cls-1" points="105.82 306.22 100.18 312.04 124.28 335.21 129.92 329.4 105.82 306.22"/>
      </g>
      <g>
        <path class="cls-1" d="M480.18,171.26c21.28,21.86,12.12,51.64,35.48,75.63l-6.69,6.51c-23.36-23.99-14.2-53.76-35.49-75.62"/>
        <path class="cls-1" d="M452.56,198.14c22.64,23.25,53.41,15.68,74.04,36.87l-6.69,6.51c-20.63-21.19-51.41-13.61-74.05-36.86"/>
        <path class="cls-1" d="M593.48,287.63c-21.28-21.86-51.3-13.5-74.65-37.49l-6.69,6.51c23.36,23.99,53.36,15.64,74.65,37.5"/>
        <path class="cls-1" d="M565.87,314.52c-22.64-23.25-14.25-53.81-34.88-75l-6.69,6.51c20.63,21.19,12.23,51.75,34.87,75.01"/>
        <polygon class="cls-1" points="533.66 203.17 520.43 231.7 510.8 293.66 522.62 264.06 533.66 203.17"/>
        <polygon class="cls-1" points="476.74 254.38 506.63 244.85 566.57 239.58 537.74 249.65 476.74 254.38"/>
        <polygon class="cls-1" points="508.3 257.74 511.15 260.93 535.35 237.85 532.5 234.67 508.3 257.74"/>
        <polygon class="cls-1" points="511.34 260.73 513.81 264.27 538.69 242.06 536.23 238.51 511.34 260.73"/>
        <polygon class="cls-1" points="532.32 234.89 529.85 231.36 504.97 253.57 507.44 257.11 532.32 234.89"/>
      </g>
      <g>
        <path class="cls-1" d="M566.73,575.65c-35.23,24.81-65.41,37.71-96.46,51.2-15.52,6.75-31.26,13.65-47.94,22.27-4.17,2.15-8.4,4.42-12.71,6.81-2.07,1.17-4.17,2.35-6.3,3.54-2.1,1.21-4.23,2.45-6.39,3.74-8.62,5.15-17.65,10.99-27,17.57l-7.63-6.05c9.92-6.98,19.49-13.2,28.61-18.71,4.55-2.75,9.02-5.34,13.33-7.74,4.3-2.39,8.53-4.66,12.71-6.81,16.69-8.62,32.42-15.52,47.94-22.27,31.04-13.5,61.22-26.4,96.45-51.21"/>
        <path class="cls-1" d="M544.55,544.15c-37.48,26.39-61.55,51.7-84.79,76.42-11.62,12.36-23.03,24.57-35.8,36.7-1.61,1.5-3.22,3.02-4.86,4.54-1.63,1.49-3.28,2.98-4.95,4.5-2.95,2.71-5.95,5.38-9.07,8.03-6.22,5.3-12.84,10.48-20.22,15.67l-7.51-6.13c7.88-5.55,14.98-11.07,21.66-16.69,3.34-2.81,6.57-5.64,9.74-8.5,3.33-2.98,6.65-6.04,9.83-9.06,12.77-12.13,24.18-24.34,35.8-36.7,23.23-24.72,47.3-50.03,84.78-76.42"/>
        <path class="cls-1" d="M392.33,862.61c-16.26-43.09-30.12-60.47-48.21-89.07-4.43-6.89-8.97-14.1-13.57-21.75-2.3-3.82-4.61-7.76-6.93-11.82-1.14-2.04-2.36-4.07-3.43-6.2-.99-2.14-1.55-4.46-1.52-6.72,0-1.13.13-2.25.41-3.32.25-1.08.66-2.1,1.17-3.05.5-.96,1.16-1.82,1.88-2.6.73-.77,1.55-1.45,2.35-2.19,3.21-2.9,6.65-5.87,10.32-8.92,7.34-6.09,15.65-12.46,25-19.04l-8.25-5.6c-9.9,7-18.59,13.83-26.35,20.29-3.89,3.23-7.55,6.37-11.05,9.42-.86.77-1.76,1.49-2.57,2.3-.8.81-1.53,1.71-2.1,2.72-.58,1-1.06,2.07-1.38,3.2-.19.55-.28,1.14-.4,1.72-.07.59-.14,1.18-.13,1.78-.05,2.4.51,4.85,1.55,7.12,1.12,2.25,2.39,4.41,3.57,6.57,2.41,4.31,4.81,8.48,7.2,12.55,4.78,8.13,9.5,15.79,14.09,23.15,9.2,14.72,17.91,28.13,25.85,41.9,1.98,3.45,3.92,6.92,5.81,10.45l.71,1.33.35.67.39.78c.52,1.04,1.04,2.08,1.56,3.14,1.04,2.11,2.06,4.25,3.09,6.42,4.08,8.71,8.04,17.99,11.85,28.07"/>
        <path class="cls-1" d="M356.28,876.21c-4.05-10.72-7.44-20.92-10.33-30.7-1.45-4.89-2.76-9.66-4.03-14.49-1.25-4.78-2.37-9.43-3.39-13.94-4.08-18.06-6.4-33.9-8.23-48.43-.86-7.02-1.71-13.99-2.58-21.05-.43-3.41-.88-6.79-1.37-10.17-.3-1.66-.43-3.42-.07-5.24.37-1.81,1.1-3.64,2.25-5.3,1.14-1.67,2.66-3.17,4.47-4.34.9-.59,1.88-1.08,2.85-1.59.96-.51,1.92-1.02,2.88-1.54,3.83-2.06,7.61-4.17,11.36-6.35,7.49-4.36,14.84-9.02,22.22-14.21l-8.38-5.52c-7.88,5.55-15.71,10.54-23.66,15.22-3.97,2.34-7.98,4.61-12.03,6.82-1.02.55-2.04,1.1-3.05,1.65-1.02.55-2.05,1.08-3.01,1.71-.97.62-1.82,1.36-2.63,2.13-.76.8-1.5,1.62-2.07,2.53-1.21,1.78-1.96,3.74-2.33,5.68-.15.97-.25,1.94-.19,2.87.04.94.2,1.84.35,2.74.58,3.61,1.11,7.22,1.63,10.87,1.05,7.52,2.09,14.95,3.13,22.43,2.13,15.44,4.82,32.22,9.28,51.31,1.11,4.77,2.34,9.68,3.69,14.73.68,2.48,1.36,4.98,2.06,7.53.66,2.4,1.36,4.82,2.08,7.26,2.89,9.79,6.28,19.98,10.33,30.7"/>
        <path class="cls-1" d="M437,686.65l-5.35-.72-2.68-.36-.67-.09-.56-.16-1.13-.33c-3.02-.87-6.14-1.66-9.36-2.39-6.44-1.45-13.29-2.62-20.54-3.5-10.51,1.64-21.74,3.79-33.72,6.46-15.25,3.38-31.84,7.63-48.09,13.26-4.07,1.4-8.09,2.88-12.13,4.43-2,.77-3.98,1.57-5.97,2.38-1.98.83-4.01,1.58-5.84,2.61-3.69,2.04-6.75,4.92-8.9,8.03-1.08,1.55-1.94,3.15-2.59,4.71-.66,1.57-1.04,3.04-1.39,4.52.83-1.3,1.67-2.57,2.75-3.93,1.07-1.35,2.34-2.73,3.8-4.07,2.91-2.67,6.67-5.12,11.06-6.78,2.19-.85,4.57-1.42,6.96-1.96,2.39-.55,4.78-1.07,7.18-1.56,4.81-.99,9.65-1.86,14.48-2.61,4.25-1.27,8.77-2.32,13.08-3.37,4.33-1.04,8.58-2.01,12.75-2.93,8.33-1.83,16.31-3.43,23.96-4.78,11.84-2.1,22.87-3.62,33.08-4.57,5.1-.47,10.01-.8,14.7-.99,2.35-.09,4.65-.15,6.89-.17.99.09,2.58-.26,3.96-.45l4.25-.66Z"/>
        <path class="cls-1" d="M399.91,619.2c-4.94,14.92-12.24,31.5-16.2,45.73-5.21,9.08-9.72,17.66-13.52,25.75-4.78,10.17-8.45,19.55-11.02,28.15-.64,2.15-1.21,4.25-1.71,6.31-.25,1.03-.48,2.04-.7,3.04-.21,1.01-.46,1.94-.5,3.09-.12,2.26.41,5.02,1.72,7.82.65,1.4,1.5,2.8,2.53,4.15,1.01,1.36,2.28,2.62,3.49,3.88-1.73-1.33-3.53-2.69-5.1-4.14-1.58-1.45-3-2.96-4.24-4.48-2.49-3.05-4.25-6.15-5.34-8.87-.56-1.37-.92-2.59-1.22-3.76-.31-1.19-.6-2.4-.85-3.63-.51-2.46-.92-5-1.21-7.61,3.54-9.5,8.28-19.84,14.23-31.04,5.16-9.71,11.22-20.06,18.19-31.04,3.48-5.49,7.2-11.15,11.13-16.96l1.49-2.19c.51-.74.86-1.37,1.3-2.06l2.51-4.05,5.03-8.1Z"/>
        <path class="cls-1" d="M353.04,676.99l-1.04.71-9.4,6.51,14.92,9.86,15.07,9.84,8.26-5.6.15-.1c-9.38-7.03-18.7-14.1-27.96-21.21Z"/>
        <path class="cls-1" d="M342.88,684.35c-3.62,2.31-7.19,4.64-10.77,7l7.06,4.87,7.43,4.95c4.98,3.28,10.02,6.52,15.12,9.72l8.94-5.42c-4.76-3.44-9.46-6.93-14.1-10.45l-6.92-5.32-6.77-5.34Z"/>
        <path class="cls-1" d="M380.68,698.08l8.8-5.35c-7.96-7.98-15.68-16.13-23.17-24.44l-10.86,6.8c8.18,7.83,16.59,15.49,25.24,22.99Z"/>
      </g>
      <g>
        <path class="cls-1" d="M445.72,204.81c-.89-.92-1.78-1.84-2.67-2.75-.87-.93-1.74-1.86-2.61-2.78-.85-.94-1.7-1.87-2.55-2.81-.83-.95-1.66-1.89-2.49-2.83-.81-.95-1.62-1.91-2.43-2.85-.79-.96-1.59-1.92-2.38-2.87-.78-.97-1.55-1.93-2.32-2.89-.76-.97-1.51-1.94-2.26-2.91-.74-.98-1.47-1.95-2.21-2.92-.72-.98-1.44-1.96-2.15-2.93-.7-.98-1.4-1.96-2.1-2.94-.68-.98-1.36-1.97-2.04-2.94-.66-.99-1.33-1.97-1.99-2.95-.65-.99-1.29-1.97-1.93-2.95-.63-.99-1.26-1.97-1.88-2.95-.61-.99-1.22-1.97-1.83-2.94-.6-.98-1.19-1.96-1.78-2.94-.58-.98-1.15-1.96-1.73-2.93-.56-.98-1.12-1.95-1.68-2.92-.55-.97-1.09-1.94-1.63-2.91-.53-.97-1.05-1.93-1.58-2.89-.51-.96-1.02-1.92-1.53-2.88-.5-.96-.99-1.91-1.48-2.86-.48-.95-.96-1.9-1.43-2.83-.47-.94-.93-1.88-1.39-2.81-.45-.93-.9-1.86-1.34-2.78-.43-.92-.87-1.84-1.3-2.75-.42-.91-.84-1.82-1.25-2.72-.41-.9-.81-1.8-1.21-2.69-.39-.89-.78-1.78-1.16-2.65-.74-1.76-1.48-3.49-2.19-5.19-.69-1.71-1.36-3.38-2.02-5.02-.63-1.65-1.25-3.26-1.86-4.83-.58-1.58-1.15-3.12-1.7-4.62-.53-1.51-1.05-2.97-1.55-4.4-.48-1.43-.95-2.81-1.4-4.15-.43-1.34-.85-2.64-1.25-3.89-.39-1.25-.76-2.45-1.11-3.6-.34-1.15-.66-2.26-.97-3.3-.3-1.05-.58-2.05-.84-2.98-.25-.94-.49-1.82-.71-2.65-.21-.82-.41-1.59-.59-2.29-.17-.7-.33-1.34-.47-1.92-.27-1.15-.47-2.03-.61-2.63-.13-.6-.2-.91-.2-.91.27.87.53,1.75.8,2.64.29.88.57,1.76.86,2.65.3.89.61,1.78.92,2.67.32.89.65,1.79.97,2.68.34.89.68,1.79,1.03,2.7.36.9.72,1.8,1.08,2.71.37.9.75,1.81,1.13,2.72.39.9.78,1.81,1.18,2.72.41.91.81,1.82,1.22,2.73.42.91.84,1.82,1.26,2.73.43.91.87,1.82,1.3,2.73.45.91.89,1.82,1.34,2.73.46.91.92,1.82,1.38,2.73l1.41,2.73,1.44,2.72,1.47,2.72,1.5,2.71,1.52,2.7c1.04,1.79,2.07,3.57,3.11,5.36,1.06,1.77,2.12,3.54,3.18,5.3,1.08,1.75,2.16,3.49,3.24,5.22,1.1,1.72,2.19,3.43,3.28,5.13,1.11,1.69,2.21,3.36,3.29,5.03,1.11,1.65,2.21,3.29,3.3,4.91,1.11,1.61,2.2,3.2,3.28,4.78,1.1,1.56,2.18,3.11,3.25,4.63,1.08,1.51,2.15,3.01,3.2,4.47,1.06,1.46,2.11,2.89,3.13,4.3,1.04,1.4,2.05,2.77,3.04,4.11,1,1.33,1.98,2.64,2.94,3.91.96,1.27,1.9,2.5,2.82,3.7,1.85,2.38,3.59,4.62,5.2,6.69,1.64,2.06,3.14,3.95,4.5,5.67,1.38,1.7,2.6,3.22,3.67,4.53,2.14,2.61,3.61,4.4,4.25,5.19"/>
        <path class="cls-1" d="M233.78,213.98c.34-.44.7-.9,1.07-1.37.36-.48.72-.97,1.1-1.47.37-.51.75-1.04,1.14-1.58.38-.54.77-1.1,1.17-1.67.39-.58.79-1.17,1.2-1.77.4-.61.81-1.23,1.23-1.86.41-.64.83-1.29,1.26-1.95.42-.66.85-1.34,1.28-2.03.85-1.38,1.73-2.81,2.63-4.29.88-1.48,1.79-3.01,2.72-4.56.91-1.57,1.84-3.17,2.78-4.81.93-1.65,1.88-3.32,2.84-5.02.95-1.71,1.91-3.45,2.88-5.2.96-1.76,1.93-3.55,2.91-5.35.97-1.81,1.94-3.63,2.92-5.47.97-1.84,1.95-3.69,2.93-5.55,1.93-3.73,3.87-7.48,5.8-11.21,1.9-3.75,3.79-7.48,5.65-11.15,1.83-3.68,3.64-7.3,5.39-10.82,1.73-3.53,3.41-6.95,5.02-10.23,3.17-6.58,6.05-12.57,8.5-17.63,2.4-5.08,4.36-9.24,5.73-12.12,1.35-2.89,2.1-4.51,2.1-4.51l-9.54-1.23c-.68,1.6-1.36,3.23-2.06,4.87-.71,1.63-1.44,3.29-2.17,4.96-.75,1.66-1.51,3.34-2.27,5.03-.78,1.68-1.57,3.38-2.36,5.09-.81,1.7-1.62,3.41-2.44,5.13-.83,1.71-1.67,3.43-2.5,5.16-.85,1.72-1.71,3.44-2.56,5.17-.87,1.72-1.74,3.45-2.61,5.17l-2.64,5.15c-.89,1.71-1.78,3.42-2.67,5.13-1.81,3.39-3.6,6.77-5.37,10.1-1.81,3.32-3.6,6.6-5.35,9.81-1.78,3.2-3.53,6.35-5.24,9.41-1.73,3.05-3.42,6.02-5.04,8.89-1.65,2.86-3.24,5.61-4.76,8.25-1.54,2.63-3.01,5.13-4.4,7.5-1.4,2.36-2.72,4.57-3.94,6.63-1.24,2.05-2.38,3.94-3.41,5.64-1.04,1.7-1.98,3.22-2.79,4.54-.82,1.32-1.52,2.43-2.08,3.33-.57.89-1.01,1.56-1.29,2"/>
        <path class="cls-1" d="M480.17,171.26c-1.01-1.08-2.01-2.16-3.03-3.25-1-1.1-2-2.19-3.01-3.29l-2.99-3.33-2.96-3.35c-1.95-2.25-3.91-4.5-5.86-6.74-1.93-2.26-3.84-4.51-5.75-6.74-3.78-4.49-7.51-8.92-11.13-13.23-1.81-2.15-3.6-4.27-5.35-6.35-1.77-2.07-3.5-4.1-5.2-6.09-1.72-1.97-3.4-3.89-5.03-5.76-.83-.93-1.65-1.84-2.45-2.74-.81-.89-1.61-1.77-2.4-2.63-.8-.85-1.58-1.69-2.36-2.52-.78-.81-1.55-1.61-2.31-2.39-.77-.77-1.52-1.52-2.25-2.26-.75-.72-1.48-1.43-2.2-2.12-.36-.34-.72-.67-1.08-1.01-.36-.33-.72-.65-1.07-.97-.36-.31-.71-.62-1.05-.93-.35-.3-.7-.6-1.04-.89-.35-.29-.69-.57-1.03-.85-.34-.27-.68-.54-1.01-.8-.34-.26-.67-.51-1-.76-.33-.24-.66-.48-.98-.72-.33-.23-.65-.45-.97-.67-.32-.21-.64-.42-.95-.63-.32-.2-.63-.39-.94-.58-.31-.18-.62-.36-.92-.53-.31-.16-.61-.32-.9-.48-.3-.15-.6-.29-.89-.43l-.44-.2-.43-.18-.43-.17-.43-.16-6.64,1.78c.58.54,1.2,1.13,1.87,1.76.66.64,1.36,1.33,2.1,2.05.73.74,1.5,1.51,2.31,2.33.8.82,1.63,1.68,2.5,2.58,1.71,1.81,3.55,3.76,5.49,5.81,1.92,2.08,3.94,4.27,6.03,6.53,2.08,2.29,4.22,4.65,6.42,7.07,2.18,2.43,4.41,4.92,6.66,7.42,4.46,5.04,9,10.18,13.42,15.17,4.38,5.02,8.63,9.89,12.54,14.37,3.89,4.5,7.45,8.61,10.46,12.09,5.99,6.98,9.82,11.44,9.82,11.44"/>
        <path class="cls-1" d="M196.68,183.71s1.46-2.11,4.05-5.86c1.31-1.86,2.91-4.13,4.75-6.74,1.87-2.6,3.98-5.54,6.3-8.76,1.17-1.6,2.4-3.28,3.67-5.02,1.28-1.73,2.61-3.52,3.98-5.37,1.38-1.84,2.8-3.74,4.26-5.68,1.47-1.94,2.98-3.92,4.52-5.94,1.56-2.01,3.14-4.07,4.76-6.15,1.63-2.07,3.29-4.18,4.97-6.32,1.7-2.12,3.41-4.27,5.15-6.43,1.75-2.15,3.53-4.32,5.31-6.5,1.8-2.16,3.62-4.33,5.44-6.51,1.85-2.16,3.7-4.32,5.54-6.48l2.8-3.21,2.82-3.19c.95-1.05,1.89-2.1,2.84-3.15.95-1.04,1.9-2.08,2.85-3.11.95-1.03,1.91-2.05,2.85-3.07.96-1.01,1.91-2.02,2.86-3.02.96-.99,1.91-1.98,2.86-2.96.96-.97,1.91-1.94,2.86-2.9.96-.95,1.91-1.89,2.85-2.83.96-.92,1.9-1.84,2.84-2.75.95-.9,1.9-1.79,2.83-2.67.95-.87,1.89-1.73,2.82-2.58.94-.84,1.88-1.67,2.8-2.49.94-.81,1.86-1.6,2.78-2.39.93-.77,1.85-1.53,2.75-2.28.92-.73,1.83-1.46,2.73-2.17.45-.35.9-.7,1.35-1.04.45-.34.9-.68,1.34-1.01.45-.33.89-.66,1.34-.98.45-.32.89-.63,1.33-.95.44-.31.88-.61,1.32-.92.44-.3.88-.59,1.31-.88.44-.29.87-.57,1.3-.85.43-.27.86-.54,1.29-.81.43-.26.85-.52,1.28-.78.43-.25.85-.5,1.27-.74.42-.24.84-.47,1.25-.7.42-.22.83-.45,1.24-.67.41-.21.82-.42,1.23-.63.41-.2.81-.39,1.22-.59.41-.18.81-.37,1.2-.55.4-.17.8-.34,1.19-.51.4-.16.79-.31,1.18-.46.39-.14.78-.28,1.16-.42.39-.13.77-.25,1.15-.38.38-.11.76-.22,1.13-.33.38-.1.75-.19,1.12-.29.37-.08.74-.16,1.1-.24l.54-.1.14-.02h.03s.02,0,.03,0h.07s.27.02.27.02l.54.04.54.05,15.9,11.59-1.02-.4-1.03-.37-1.03-.33-1.04-.3-1.04-.27-1.05-.24-1.05-.21-1.06-.18-1.06-.14-1.07-.11-1.07-.08-1.08-.05-1.08-.03h-1.09s-1.09.04-1.09.04l-1.09.06-1.09.34-1.09.37c-.36.13-.73.27-1.1.4-.36.14-.73.29-1.1.43-.37.15-.73.3-1.1.46-.37.16-.74.32-1.11.48-.37.17-.74.34-1.11.51-.37.18-.74.36-1.11.54-.37.19-.74.38-1.12.56-.37.2-.75.39-1.12.59-.37.2-.75.41-1.13.62-.37.21-.75.43-1.13.64-.38.22-.75.44-1.13.67-.38.23-.75.46-1.14.69-.38.24-.76.48-1.14.72-.38.25-.76.49-1.14.74-.38.25-.76.51-1.14.76-.38.26-.76.52-1.15.79-.38.27-.76.54-1.15.81-.38.28-.77.55-1.15.83-.76.57-1.53,1.15-2.31,1.73-.77.6-1.54,1.21-2.32,1.82-.77.63-1.55,1.26-2.33,1.9-.77.66-1.55,1.32-2.34,1.98-.78.68-1.56,1.37-2.35,2.06-.78.71-1.56,1.42-2.35,2.14-.78.73-1.57,1.47-2.36,2.21-.78.75-1.57,1.51-2.37,2.28-.78.78-1.58,1.56-2.37,2.35-.79.8-1.58,1.6-2.38,2.41-.79.82-1.58,1.64-2.38,2.47-.79.84-1.58,1.68-2.38,2.53-.79.86-1.59,1.72-2.39,2.58-.79.87-1.59,1.75-2.39,2.64-.79.89-1.59,1.79-2.39,2.69-.79.91-1.59,1.82-2.39,2.73-.79.92-1.59,1.85-2.39,2.78-.79.94-1.59,1.88-2.39,2.82-1.58,1.9-3.17,3.82-4.77,5.75-1.58,1.95-3.17,3.91-4.76,5.88-1.58,1.99-3.16,3.98-4.75,5.99-1.57,2.02-3.15,4.04-4.73,6.07-1.56,2.04-3.13,4.09-4.7,6.14l-4.67,6.18c-3.08,4.14-6.16,8.27-9.22,12.38-3.04,4.13-6.05,8.23-9.03,12.27-2.98,4.05-5.92,8.06-8.8,11.98-2.9,3.92-5.75,7.76-8.53,11.51"/>
        <polygon class="cls-1" points="400.21 15.19 382.39 47.89 368.95 140.9 384.93 104.8 400.21 15.19"/>
        <polygon class="cls-1" points="317.78 33.25 329.25 36.69 332.12 37.55 332.3 37.6 332.48 37.7 332.84 37.89 333.57 38.26 335.02 39.02 340.81 42.04 363.98 54.12 452.11 117.57 405.12 97.97 361.38 63.96 339.51 46.96 334.04 42.71 332.67 41.65 332.5 41.51 332.46 41.48 332.42 41.46 332.33 41.41 331.99 41.22 331.32 40.84 328.61 39.32 317.78 33.25"/>
        <polygon class="cls-1" points="366.03 77.69 369.77 86.34 402.07 75.4 398.33 66.76 366.03 77.69"/>
        <polygon class="cls-1" points="370.03 86.2 373.27 95 406.46 86.28 403.22 77.5 370.03 86.2"/>
        <polygon class="cls-1" points="398.1 66.93 394.87 58.14 361.67 66.85 364.9 75.65 398.1 66.93"/>
        <path class="cls-1" d="M368.53,33.49l-22.53,3.95-11.27,1.98-1.41.25-.7.12-.18.03h-.04s-.01,0-.01,0h-.01s-.02.01-.02.01l-.09.04-.35.14-2.79,1.15-5.58,2.29-77.8,64.11,38.36-18.74,42.02-31.85,5.25-3.98,1.31-1,.16-.12.04-.03.04-.02.08-.04.33-.17.66-.34,2.65-1.37,10.61-5.47,21.23-10.94Z"/>
        <polygon class="cls-1" points="288.34 .93 305.08 37.74 321.62 129.43 304.38 95.07 288.34 .93"/>
        <polygon class="cls-1" points="289.51 57.11 286.06 65.93 318.48 75.92 321.93 67.11 289.51 57.11"/>
        <polygon class="cls-1" points="286.35 65.96 282.41 74.6 313.9 86.84 317.83 78.2 286.35 65.96"/>
        <polygon class="cls-1" points="321.63 67.12 325.56 58.49 294.07 46.26 290.13 54.89 321.63 67.12"/>
      </g>
      <g>
        <path class="cls-1" d="M539.04,536.33c1.1-.77,2.19-1.54,3.28-2.3,1.1-.75,2.2-1.49,3.3-2.24,1.11-.73,2.21-1.45,3.32-2.17,1.11-.71,2.22-1.41,3.33-2.11,1.12-.69,2.23-1.37,3.34-2.05,1.12-.67,2.24-1.33,3.35-1.99,1.12-.65,2.24-1.29,3.36-1.93,1.12-.63,2.25-1.25,3.36-1.87,1.13-.61,2.25-1.21,3.37-1.81,1.13-.59,2.25-1.17,3.37-1.75,1.13-.57,2.25-1.13,3.36-1.7,1.12-.55,2.24-1.1,3.36-1.64,1.12-.53,2.24-1.06,3.35-1.59,1.12-.51,2.23-1.03,3.35-1.53,1.12-.5,2.23-.99,3.33-1.48,1.11-.48,2.22-.96,3.32-1.43,1.11-.46,2.21-.92,3.31-1.38,1.1-.45,2.2-.89,3.29-1.33,1.1-.43,2.18-.86,3.27-1.28,1.09-.41,2.17-.82,3.25-1.23,1.08-.4,2.15-.79,3.22-1.18,1.07-.38,2.14-.76,3.2-1.14,1.06-.37,2.12-.73,3.17-1.09,1.05-.35,2.1-.7,3.14-1.05,1.04-.34,2.08-.67,3.1-1,1.03-.32,2.05-.64,3.07-.96,1.02-.31,2.03-.62,3.03-.92,1-.29,2-.59,2.99-.88.99-.28,1.97-.56,2.95-.84.98-.27,1.94-.53,2.9-.8,1.92-.5,3.81-1,5.67-1.48,1.86-.46,3.68-.9,5.46-1.34,1.79-.41,3.53-.81,5.24-1.2,1.71-.36,3.38-.72,5-1.07,1.63-.32,3.21-.64,4.74-.94,1.54-.28,3.03-.56,4.47-.83,1.44-.25,2.83-.49,4.17-.72,1.34-.21,2.63-.42,3.86-.61,1.23-.18,2.41-.35,3.53-.52,1.12-.15,2.18-.3,3.18-.43,1-.12,1.94-.24,2.81-.35.88-.1,1.69-.19,2.43-.28.74-.08,1.42-.15,2.03-.21,1.21-.11,2.15-.19,2.78-.25.63-.05.96-.07.96-.07-.94.15-1.88.29-2.82.44-.94.17-1.89.33-2.85.5-.95.18-1.91.37-2.88.55-.96.2-1.93.4-2.9.61-.97.22-1.94.44-2.92.66-.98.24-1.96.47-2.94.71-.98.25-1.97.5-2.96.76-.99.27-1.98.53-2.98.8-.99.28-1.99.56-2.99.85-1,.3-2,.59-3,.89-1,.31-2.01.62-3.01.93-1,.32-2.01.64-3.02.97-1.01.33-2.01.67-3.02,1l-3.03,1.04-3.03,1.07-3.03,1.1-3.02,1.13-3.02,1.16c-2,.79-4.01,1.59-6.01,2.38-1.99.82-3.98,1.65-5.96,2.46-1.97.85-3.93,1.69-5.89,2.53-1.95.86-3.88,1.73-5.8,2.58-1.91.88-3.82,1.75-5.7,2.61-1.88.89-3.74,1.76-5.58,2.63-1.84.89-3.65,1.77-5.45,2.64-1.79.89-3.55,1.76-5.29,2.62-1.73.88-3.44,1.74-5.12,2.59-1.67.86-3.32,1.71-4.94,2.55-1.61.85-3.19,1.68-4.73,2.49-1.54.82-3.04,1.63-4.51,2.41-1.46.79-2.88,1.57-4.27,2.32-2.75,1.53-5.34,2.97-7.74,4.3-2.39,1.36-4.59,2.61-6.57,3.74-1.98,1.15-3.74,2.17-5.26,3.06-3.04,1.79-5.13,3.01-6.05,3.56"/>
        <path class="cls-1" d="M559.17,321.03c.42.41.85.83,1.29,1.27.45.43.92.87,1.4,1.32.49.45.99.9,1.5,1.37.52.46,1.05.93,1.59,1.42.55.48,1.11.96,1.69,1.46.58.49,1.17.99,1.78,1.51.61.51,1.23,1.02,1.86,1.54.64.52,1.28,1.05,1.94,1.58,1.33,1.06,2.7,2.15,4.11,3.27,1.43,1.1,2.89,2.23,4.39,3.39,1.51,1.14,3.06,2.31,4.63,3.49,1.59,1.17,3.2,2.37,4.85,3.58,1.65,1.2,3.33,2.42,5.03,3.65,1.71,1.22,3.43,2.45,5.17,3.7,1.75,1.23,3.51,2.48,5.29,3.73,1.78,1.24,3.57,2.49,5.37,3.74,3.61,2.48,7.25,4.97,10.87,7.45,3.64,2.45,7.25,4.89,10.81,7.28,3.57,2.37,7.09,4.7,10.51,6.97,3.43,2.25,6.75,4.43,9.94,6.51,6.4,4.13,12.22,7.89,17.15,11.07,4.95,3.14,8.99,5.71,11.8,7.5,2.82,1.77,4.39,2.76,4.39,2.76l2.15-9.5c-1.57-.91-3.16-1.83-4.76-2.76-1.6-.95-3.21-1.92-4.84-2.89-1.62-.99-3.26-1.99-4.91-3-1.64-1.03-3.29-2.06-4.95-3.1-1.65-1.06-3.32-2.12-4.99-3.18-1.66-1.08-3.34-2.17-5.01-3.26-1.67-1.1-3.34-2.21-5.02-3.32-1.67-1.12-3.34-2.24-5.02-3.37l-5-3.4c-1.66-1.14-3.31-2.28-4.97-3.42-3.29-2.3-6.55-4.6-9.78-6.86-3.21-2.3-6.38-4.57-9.49-6.79-3.09-2.26-6.13-4.47-9.08-6.62-2.94-2.18-5.8-4.3-8.57-6.35-2.75-2.07-5.41-4.07-7.95-5.98-2.53-1.93-4.94-3.77-7.22-5.5-2.27-1.75-4.4-3.4-6.37-4.92-1.97-1.54-3.78-2.96-5.42-4.24-1.63-1.29-3.09-2.45-4.36-3.46-1.26-1.02-2.33-1.88-3.19-2.57-.85-.7-1.49-1.24-1.91-1.58"/>
        <path class="cls-1" d="M566.73,575.65c1.28-.86,2.56-1.73,3.85-2.59,1.29-.85,2.59-1.71,3.89-2.57l3.92-2.54,3.94-2.51c2.64-1.65,5.28-3.3,7.91-4.95,2.64-1.62,5.28-3.24,7.9-4.84,5.25-3.18,10.43-6.31,15.46-9.35,2.51-1.52,4.99-3.03,7.43-4.5,2.42-1.49,4.8-2.95,7.13-4.38,2.31-1.46,4.57-2.88,6.77-4.26,1.09-.7,2.17-1.4,3.23-2.08,1.05-.69,2.09-1.38,3.11-2.05,1.01-.68,2.01-1.36,2.98-2.02.97-.67,1.92-1.34,2.85-1.99.92-.66,1.82-1.32,2.71-1.95.87-.65,1.72-1.29,2.55-1.92.41-.32.82-.64,1.22-.95.4-.32.79-.63,1.18-.94.38-.31.76-.62,1.13-.93.37-.31.73-.62,1.09-.92.35-.31.7-.61,1.05-.91.34-.31.67-.61,1-.9.32-.3.64-.6.96-.9.31-.3.61-.6.91-.89.29-.3.58-.59.86-.88.27-.29.54-.58.81-.87.26-.29.51-.58.76-.86.24-.29.47-.57.71-.85.22-.29.44-.57.65-.84.2-.28.4-.56.6-.83l.28-.41.27-.41.25-.41.24-.41-.59-6.93c-.66.5-1.36,1.05-2.13,1.63-.77.57-1.6,1.18-2.47,1.82-.88.63-1.81,1.3-2.78,2-.98.69-2.01,1.41-3.07,2.15-2.15,1.47-4.46,3.05-6.9,4.72-2.46,1.64-5.05,3.37-7.73,5.16-2.7,1.77-5.49,3.6-8.35,5.47-2.87,1.85-5.8,3.75-8.75,5.66-5.93,3.79-11.98,7.64-17.85,11.38-5.89,3.71-11.61,7.3-16.87,10.62-5.28,3.29-10.1,6.29-14.18,8.84-8.18,5.06-13.41,8.29-13.41,8.29"/>
        <path class="cls-1" d="M593.48,287.63s2.01,1.77,5.59,4.92c1.77,1.59,3.93,3.53,6.42,5.76,2.47,2.26,5.26,4.81,8.32,7.61,1.52,1.41,3.11,2.89,4.76,4.42,1.64,1.54,3.34,3.14,5.1,4.78,1.74,1.66,3.54,3.36,5.38,5.12,1.83,1.76,3.71,3.57,5.62,5.41,1.9,1.86,3.84,3.75,5.82,5.68,1.96,1.94,3.95,3.92,5.96,5.92,2,2.02,4.02,4.06,6.06,6.12,2.02,2.08,4.06,4.18,6.11,6.29,2.03,2.13,4.07,4.27,6.12,6.42,2.02,2.17,4.05,4.35,6.07,6.53l3,3.29,2.98,3.31c.98,1.11,1.96,2.21,2.94,3.31.97,1.11,1.94,2.22,2.9,3.32.95,1.11,1.91,2.22,2.85,3.32.94,1.11,1.87,2.22,2.8,3.32.92,1.11,1.83,2.21,2.74,3.31.9,1.11,1.79,2.21,2.68,3.3.88,1.1,1.75,2.2,2.61,3.29.85,1.1,1.7,2.19,2.53,3.27.82,1.09,1.64,2.17,2.45,3.24.8,1.08,1.58,2.15,2.36,3.22.76,1.07,1.52,2.13,2.27,3.19.73,1.06,1.46,2.11,2.17,3.15.7,1.05,1.38,2.09,2.06,3.11.66,1.04,1.31,2.06,1.95,3.07.31.51.62,1.01.93,1.52.3.5.6,1.01.9,1.5.29.5.58,1,.87,1.49.28.5.56.99.84,1.48.27.49.54.98.81,1.46.26.49.52.97.77,1.45.25.48.5.96.74,1.43.24.48.47.95.71,1.42.23.47.45.94.67,1.4.21.47.43.93.64,1.39.2.46.4.92.6,1.37.19.45.38.91.56,1.35.18.45.35.89.52,1.33.16.44.32.88.48,1.32.15.44.3.87.44,1.3.14.43.27.86.4,1.28.12.42.24.84.36,1.26.11.42.21.83.32,1.24.09.41.19.81.28,1.22.08.4.16.8.23,1.19.06.39.13.78.19,1.17.05.39.1.77.15,1.15l.06.57v.14s.02.04.02.04c0,.01,0,.02,0,.03l-.02.07-.07.27-.14.54-.15.53-14.67,14.38.59-.97.56-.98.53-.99.5-1,.46-1.01.43-1.02.4-1.03.37-1.04.34-1.05.31-1.06.28-1.07.25-1.08.22-1.08.2-1.09.17-1.1.14-1.11c-.08-.38-.16-.77-.24-1.15-.09-.38-.18-.77-.28-1.16-.1-.39-.2-.78-.3-1.17-.11-.39-.22-.78-.33-1.17-.12-.39-.24-.79-.36-1.18-.13-.4-.26-.79-.39-1.19-.14-.4-.28-.8-.42-1.2-.15-.4-.29-.8-.44-1.21-.16-.4-.31-.81-.47-1.21-.16-.4-.33-.81-.5-1.22-.17-.41-.35-.82-.52-1.23-.18-.41-.36-.82-.55-1.23-.19-.41-.38-.83-.57-1.24-.2-.41-.4-.83-.6-1.25-.21-.42-.41-.83-.62-1.25-.21-.42-.43-.84-.65-1.26-.22-.42-.45-.84-.67-1.27-.23-.42-.46-.85-.69-1.27-.48-.85-.97-1.7-1.46-2.56-.51-.85-1.03-1.72-1.55-2.59-.54-.86-1.08-1.73-1.63-2.61-.57-.87-1.14-1.74-1.72-2.63-.59-.88-1.19-1.76-1.8-2.65-.62-.88-1.25-1.77-1.88-2.67-.65-.89-1.3-1.78-1.95-2.69-.67-.89-1.35-1.79-2.03-2.7-.69-.9-1.39-1.8-2.1-2.72-.72-.9-1.44-1.81-2.16-2.73-.74-.91-1.48-1.82-2.23-2.75-.76-.91-1.52-1.83-2.29-2.76-.78-.92-1.56-1.84-2.35-2.77-.8-.92-1.6-1.85-2.41-2.78-.82-.92-1.63-1.85-2.46-2.79-.83-.93-1.67-1.86-2.51-2.8-.85-.93-1.7-1.87-2.56-2.8-1.73-1.86-3.48-3.74-5.24-5.63-1.79-1.87-3.59-3.75-5.4-5.64-1.83-1.87-3.68-3.76-5.54-5.65-1.87-1.87-3.76-3.76-5.65-5.65-1.91-1.87-3.82-3.75-5.74-5.64-1.93-1.87-3.87-3.74-5.8-5.62l-5.85-5.59c-3.92-3.7-7.84-7.4-11.74-11.08-3.91-3.65-7.8-7.28-11.64-10.87-3.84-3.58-7.64-7.12-11.37-10.6-3.71-3.49-7.36-6.91-10.91-10.25"/>
        <polygon class="cls-1" points="739.69 516.94 709.8 494.48 617.94 468.02 651.62 489.11 739.69 516.94"/>
        <polygon class="cls-1" points="735.24 431.42 730.65 442.57 729.51 445.36 729.47 445.44 729.45 445.49 729.44 445.51 729.44 445.52 729.43 445.53 729.3 445.7 729.04 446.04 728.53 446.71 727.5 448.06 723.37 453.47 706.86 475.09 626.33 554.89 654.84 510.36 697.36 471.1 718.62 451.48 723.93 446.57 725.26 445.34 725.43 445.19 725.47 445.15 725.5 445.11 725.55 445.03 725.78 444.71 726.23 444.08 728.03 441.55 735.24 431.42"/>
        <polygon class="cls-1" points="682.59 473.87 673.13 476.44 678.28 510.44 687.73 507.88 682.59 473.87"/>
        <polygon class="cls-1" points="673.22 476.72 663.71 478.74 666.44 513.34 675.95 511.31 673.22 476.72"/>
        <polygon class="cls-1" points="687.6 507.62 697.11 505.6 694.38 471 684.86 473.02 687.6 507.62"/>
        <path class="cls-1" d="M726.95,482.54l.13-23.21.07-11.6v-1.45s.01-.73.01-.73v-.18s0-.05,0-.05h0s0-.01,0-.02v-.02s-.04-.09-.04-.09l-.11-.37-.9-2.99-1.81-5.97-57.93-87.83,15.46,41.52,28.46,47.05,3.56,5.88.89,1.47.11.18.03.05v.04s.04.09.04.09l.11.36.22.71.9,2.86,3.6,11.44,7.19,22.87Z"/>
        <polygon class="cls-1" points="770.91 406.06 731.86 417.91 636.96 421.89 673.56 409.2 770.91 406.06"/>
        <polygon class="cls-1" points="713.61 399.42 704.96 394.69 691.73 426.17 700.37 430.9 713.61 399.42"/>
        <polygon class="cls-1" points="704.89 394.98 696.47 389.78 681.04 420 689.46 425.19 704.89 394.98"/>
        <polygon class="cls-1" points="700.39 430.59 708.81 435.79 724.23 405.56 715.81 400.36 700.39 430.59"/>
      </g>
      <g>
        <path class="cls-1" d="M214.49,1071.72c1.65,0,3.3,0,4.94,0,1.64.02,3.28.05,4.92.07,1.63.04,3.26.09,4.89.13,1.62.06,3.24.13,4.86.19,1.61.08,3.22.17,4.83.25,1.6.1,3.2.2,4.79.3,1.59.12,3.18.24,4.76.36,1.58.14,3.15.27,4.72.41,1.57.15,3.13.3,4.68.46,1.55.17,3.1.34,4.64.5,1.54.18,3.07.37,4.6.55,1.52.2,3.04.4,4.56.59,1.51.21,3.01.42,4.51.63,1.49.22,2.98.45,4.46.67,1.48.24,2.95.47,4.42.71,1.46.25,2.92.5,4.37.74,1.44.26,2.88.52,4.31.78,1.43.27,2.85.54,4.26.81,1.41.28,2.81.56,4.21.84,1.39.29,2.77.58,4.15.86,1.37.3,2.73.59,4.09.89,1.35.31,2.7.61,4.03.91,1.33.31,2.65.62,3.97.93,1.31.32,2.61.64,3.91.95,1.29.32,2.57.65,3.84.97,1.27.33,2.53.66,3.78.98,1.25.33,2.48.66,3.71.99,1.22.34,2.44.67,3.64,1,2.39.69,4.75,1.37,7.06,2.03,2.3.7,4.55,1.38,6.77,2.05,2.2.7,4.35,1.38,6.46,2.05,2.09.69,4.14,1.37,6.14,2.04,1.98.69,3.92,1.35,5.8,2.01,1.87.67,3.69,1.32,5.45,1.96,1.75.65,3.45,1.28,5.09,1.9,1.63.63,3.2,1.23,4.71,1.82,1.5.6,2.95,1.17,4.33,1.72,1.37.56,2.68,1.1,3.93,1.61,1.24.52,2.41,1.01,3.51,1.48,1.1.47,2.13.92,3.09,1.33.95.42,1.84.81,2.65,1.17.81.37,1.54.7,2.2,1,1.3.61,2.3,1.08,2.98,1.4.67.33,1.02.5,1.02.5-1.05-.42-2.1-.84-3.16-1.27-1.07-.41-2.15-.82-3.23-1.23-1.09-.4-2.19-.8-3.29-1.2-1.11-.39-2.23-.78-3.36-1.17-1.13-.38-2.27-.76-3.42-1.14-1.15-.37-2.31-.74-3.47-1.11-1.17-.36-2.34-.72-3.52-1.09-1.19-.35-2.38-.7-3.57-1.06-1.2-.34-2.41-.69-3.62-1.03-1.22-.33-2.44-.67-3.66-1-1.23-.32-2.46-.65-3.7-.97-1.24-.31-2.48-.63-3.73-.95-1.25-.31-2.51-.61-3.76-.92-1.26-.3-2.52-.6-3.79-.89l-3.81-.87-3.83-.84c-2.57-.54-5.14-1.07-7.71-1.61-2.58-.5-5.17-1.01-7.75-1.51-2.59-.47-5.18-.94-7.76-1.41-2.59-.44-5.17-.88-7.73-1.32-2.58-.41-5.14-.82-7.69-1.23-2.55-.38-5.09-.77-7.61-1.15-2.52-.36-5.02-.71-7.5-1.06-2.48-.33-4.94-.66-7.36-.98-2.43-.31-4.83-.61-7.2-.9-2.37-.28-4.71-.56-7.01-.83-2.3-.26-4.57-.51-6.79-.76-2.22-.23-4.4-.46-6.54-.69-4.27-.41-8.35-.81-12.21-1.18-3.86-.33-7.49-.65-10.86-.94-3.37-.26-6.48-.51-9.28-.72-2.81-.2-5.31-.38-7.48-.53-4.33-.29-7.31-.49-8.62-.58"/>
        <path class="cls-1" d="M347.54,879.52c.27.67.54,1.36.82,2.07.29.71.6,1.44.91,2.19.32.75.65,1.51.99,2.3.35.78.7,1.58,1.07,2.4.37.82.76,1.65,1.15,2.5.4.85.8,1.71,1.22,2.6.85,1.75,1.73,3.57,2.64,5.46.94,1.87,1.9,3.79,2.89,5.78,1.01,1.97,2.06,3.99,3.12,6.06,1.08,2.06,2.19,4.16,3.32,6.31,1.15,2.13,2.31,4.31,3.5,6.52,1.2,2.2,2.42,4.43,3.65,6.69,1.25,2.25,2.51,4.53,3.78,6.82,2.58,4.57,5.2,9.22,7.84,13.9,2.68,4.65,5.37,9.33,8.05,13.99,2.71,4.63,5.4,9.25,8.05,13.78,2.67,4.52,5.3,8.96,7.86,13.28,2.57,4.3,5.07,8.48,7.46,12.48,4.82,7.96,9.22,15.22,12.93,21.35,7.51,12.2,12.27,19.94,12.27,19.94l5.33-9.01c-1.22-1.84-2.45-3.71-3.7-5.6-1.23-1.9-2.48-3.83-3.73-5.77-1.24-1.96-2.49-3.94-3.76-5.93-1.25-2.01-2.51-4.03-3.77-6.06-1.25-2.05-2.51-4.1-3.78-6.17-1.25-2.08-2.51-4.17-3.77-6.26-1.25-2.11-2.5-4.22-3.76-6.33-1.25-2.12-2.49-4.25-3.74-6.38-2.46-4.28-4.93-8.56-7.38-12.82-2.42-4.29-4.82-8.55-7.19-12.76-2.34-4.23-4.65-8.42-6.92-12.52-2.24-4.13-4.44-8.18-6.59-12.12-2.12-3.96-4.19-7.82-6.18-11.55-1.98-3.74-3.88-7.35-5.7-10.8-1.81-3.46-3.53-6.77-5.15-9.89-1.61-3.13-3.13-6.07-4.53-8.8-1.39-2.74-2.68-5.26-3.84-7.55-1.15-2.29-2.18-4.34-3.07-6.12-.88-1.79-1.63-3.3-2.23-4.52-.59-1.22-1.03-2.15-1.32-2.75"/>
        <path class="cls-1" d="M214.49,1119.81c1.9.03,3.81.07,5.72.1,1.91.05,3.83.09,5.75.14,3.83.13,7.68.26,11.52.39,3.84.17,7.67.34,11.49.51,3.82.2,7.62.39,11.4.59,7.55.43,14.99.85,22.23,1.26,3.62.2,7.18.4,10.68.6,3.5.18,6.94.35,10.3.52,3.36.14,6.65.28,9.85.41,1.6.05,3.18.1,4.73.15,1.55.04,3.09.08,4.59.11,1.51.02,2.99.05,4.44.07,1.45,0,2.88.01,4.28.02,1.4-.01,2.77-.03,4.12-.04,1.34-.03,2.66-.07,3.94-.1,1.28-.06,2.53-.11,3.75-.16.61-.04,1.21-.07,1.8-.11.59-.04,1.18-.08,1.76-.13.58-.05,1.14-.1,1.7-.14.56-.06,1.11-.11,1.65-.16.54-.06,1.07-.12,1.6-.18.52-.07,1.04-.14,1.54-.2.5-.08,1-.15,1.49-.22.49-.08.96-.16,1.43-.25.47-.09.92-.18,1.38-.27.45-.1.89-.19,1.32-.29.43-.11.85-.21,1.26-.31.41-.11.8-.23,1.2-.34.38-.12.76-.24,1.13-.36l.54-.19.53-.2,4.33-6c-1.02.03-2.12.07-3.3.11-1.18.02-2.45.04-3.78.07-1.34,0-2.75.02-4.22.03-1.48,0-3.02,0-4.63,0-3.21-.04-6.66-.08-10.31-.12-3.64-.07-7.48-.15-11.46-.23-3.98-.11-8.1-.22-12.31-.33-4.21-.13-8.51-.27-12.84-.41-8.67-.32-17.5-.65-26.08-.97-8.57-.36-16.89-.71-24.55-1.03-7.66-.35-14.65-.67-20.58-.94-11.84-.58-19.4-.95-19.4-.95"/>
        <path class="cls-1" d="M392.34,862.62s1.36,3.01,3.76,8.36c1.18,2.68,2.62,5.95,4.29,9.72,1.63,3.78,3.49,8.06,5.52,12.76,1.99,4.72,4.16,9.85,6.46,15.31,1.13,2.74,2.3,5.56,3.5,8.46,1.18,2.9,2.4,5.88,3.63,8.91,1.22,3.04,2.46,6.15,3.73,9.31,1.25,3.17,2.51,6.38,3.79,9.64,1.26,3.27,2.53,6.57,3.82,9.91,1.26,3.35,2.53,6.72,3.81,10.12,1.25,3.41,2.51,6.83,3.77,10.27,1.23,3.45,2.46,6.9,3.69,10.35,1.19,3.46,2.39,6.93,3.58,10.38.58,1.73,1.16,3.46,1.74,5.18.57,1.73,1.13,3.45,1.69,5.16.55,1.72,1.1,3.43,1.65,5.14.54,1.71,1.07,3.41,1.6,5.11.52,1.7,1.03,3.39,1.54,5.07.5,1.68.99,3.36,1.49,5.02.48,1.67.95,3.32,1.42,4.97.45,1.65.91,3.28,1.35,4.9.43,1.62.86,3.24,1.28,4.83.41,1.6.81,3.19,1.21,4.76.38,1.57.75,3.13,1.13,4.67.35,1.54.7,3.07,1.04,4.58.32,1.51.64,3,.95,4.48.29,1.48.58,2.93.86,4.37.26,1.44.51,2.86.76,4.25.11.7.23,1.39.34,2.08.11.69.21,1.37.32,2.05.1.68.19,1.35.29,2.02.09.67.17,1.33.26,1.98.08.65.16,1.3.23,1.95.07.64.14,1.28.2,1.91.06.63.12,1.26.18,1.88.05.62.1,1.23.15,1.84.04.61.08,1.21.12,1.8.03.59.06,1.18.09,1.76.02.58.04,1.15.05,1.72,0,.56.02,1.12.02,1.68,0,.55,0,1.1,0,1.64-.01.54-.03,1.07-.04,1.59-.03.52-.05,1.04-.08,1.55-.04.51-.07,1.01-.11,1.5-.05.49-.1.98-.14,1.46-.06.47-.12.94-.18,1.41-.07.46-.14.91-.21,1.36-.08.44-.17.88-.25,1.31l-.14.64-.04.16v.04s-.03.02-.04.03l-.06.05-.26.18-.53.36-.53.35-25.01,3.31,1.29-.45,1.26-.48,1.24-.51,1.21-.53,1.19-.56,1.16-.58,1.14-.61,1.11-.63,1.09-.66,1.07-.68,1.04-.71,1.02-.73,1-.76.97-.78.95-.8.93-.83s0-.03,0-.04v-.04s.02-.08.02-.08l.02-.17.04-.34.07-.69c.04-.46.08-.93.13-1.4.03-.47.07-.94.1-1.42.03-.48.05-.96.08-1.44.02-.49.03-.98.05-1.47,0-.49.02-.99.03-1.49,0-.5,0-1.01,0-1.52,0-.51-.01-1.02-.02-1.54-.01-.52-.03-1.04-.04-1.56-.02-.52-.04-1.05-.07-1.58-.03-.53-.06-1.07-.09-1.6-.04-.54-.07-1.08-.11-1.63-.04-.55-.09-1.1-.14-1.65-.05-.55-.1-1.11-.16-1.67-.06-.56-.12-1.12-.18-1.69-.07-.57-.13-1.14-.2-1.71-.15-1.15-.31-2.31-.46-3.48-.18-1.17-.36-2.36-.55-3.55-.21-1.2-.41-2.41-.63-3.63-.23-1.22-.47-2.46-.7-3.7-.26-1.25-.52-2.5-.78-3.77-.28-1.27-.56-2.55-.85-3.84-.3-1.29-.61-2.59-.92-3.9-.33-1.31-.66-2.63-.99-3.96-.35-1.33-.7-2.67-1.05-4.02-.37-1.35-.74-2.71-1.12-4.07-.39-1.37-.78-2.74-1.18-4.13-.41-1.38-.82-2.77-1.24-4.18-.43-1.4-.86-2.81-1.29-4.22-.45-1.41-.89-2.84-1.34-4.27-.46-1.43-.93-2.87-1.4-4.31-.48-1.44-.96-2.89-1.44-4.35-.49-1.46-.99-2.92-1.49-4.39-.51-1.47-1.02-2.94-1.53-4.42-1.05-2.95-2.12-5.93-3.19-8.93-1.1-2.99-2.22-6-3.34-9.04-1.15-3.02-2.31-6.06-3.47-9.12-1.19-3.05-2.38-6.11-3.58-9.18-1.22-3.06-2.44-6.14-3.67-9.22-1.24-3.07-2.49-6.15-3.74-9.24l-3.79-9.23c-2.56-6.14-5.12-12.27-7.66-18.37-2.57-6.08-5.12-12.12-7.64-18.09-2.52-5.97-5.02-11.86-7.46-17.65-2.43-5.79-4.81-11.48-7.14-17.02"/>
        <polygon class="cls-1" points="430.58 1171.39 416.4 1135.81 342.56 1061.29 361.55 1097.93 430.58 1171.39"/>
        <polygon class="cls-1" points="481.42 1095.16 473.16 1104.59 471.09 1106.95 471.02 1107.03 470.99 1107.06 470.98 1107.08 470.97 1107.09 470.95 1107.09 470.7 1107.16 470.2 1107.29 469.2 1107.54 467.2 1108.05 459.2 1110.1 427.2 1118.27 289.33 1137.15 349.7 1117.16 420.45 1109.54 455.83 1105.73 464.67 1104.78 466.88 1104.54 467.16 1104.51 467.23 1104.5 467.27 1104.47 467.35 1104.42 467.68 1104.2 468.33 1103.77 470.95 1102.05 481.42 1095.16"/>
        <polygon class="cls-1" points="403.59 1103.3 392.23 1099.95 373.28 1130.72 384.63 1134.07 403.59 1103.3"/>
        <polygon class="cls-1" points="392.12 1100.23 381.09 1096.41 359.29 1126.27 370.32 1130.08 392.12 1100.23"/>
        <polygon class="cls-1" points="384.68 1133.78 395.71 1137.6 417.52 1107.74 406.49 1103.91 384.68 1133.78"/>
        <path class="cls-1" d="M442.17,1135.92l16.61-18.9,8.31-9.45,1.04-1.18.52-.59.13-.15.03-.04h0s0,0,0-.02v-.03s0-.12,0-.12l.02-.46.14-3.7.28-7.41-26.5-126.22.91,53.08,11.69,66.2,1.46,8.27.37,2.07.05.26v.06s0,.04,0,.04l-.04.09-.14.36-.28.71-1.12,2.85-4.49,11.42-8.99,22.84Z"/>
        <polygon class="cls-1" points="524.8 1087.65 482.73 1078.8 388.94 1030.69 428.91 1037.28 524.8 1087.65"/>
        <polygon class="cls-1" points="471.26 1048.88 464.44 1039.04 440.83 1065.52 447.63 1075.35 471.26 1048.88"/>
        <polygon class="cls-1" points="464.28 1039.31 457.85 1029.08 432.52 1052.99 438.96 1063.21 464.28 1039.31"/>
        <polygon class="cls-1" points="447.76 1075.03 454.19 1085.26 479.51 1061.33 473.08 1051.11 447.76 1075.03"/>
      </g>
    </g>
  </g>
</svg>