<?xml version="1.0" encoding="UTF-8"?>
<svg id="Layer_2" data-name="Layer 2" xmlns="http://www.w3.org/2000/svg" viewBox="0 0 385.39 761.79">
  <defs>
    <style>
      .cls-1 {
        fill: #bfbfbf;
        stroke: #000;
        stroke-linecap: round;
        stroke-width: 4.5px;
      }
    </style>
  </defs>
  <g id="Layer_2-2" data-name="Layer 2">
    <g>
      <g>
        <path class="cls-1" d="M367.54,23.84c0,56.75-27.34,84.55-27.34,146.84h-9.34c0-62.29,27.33-90.09,27.33-146.84"/>
        <path class="cls-1" d="M329,23.84c0,60.37,27.32,90.21,27.32,145.22h-9.34c0-55.01-27.34-84.84-27.34-145.22"/>
        <path class="cls-1" d="M367.54,325.98c0-56.75-27.34-84.56-27.34-146.84h-9.34c0,62.28,27.33,90.09,27.33,146.84"/>
        <path class="cls-1" d="M329,325.98c0-60.37,27.32-90.21,27.32-145.22h-9.34c0,55.01-27.34,84.84-27.34,145.22"/>
        <polygon class="cls-1" points="383.59 135.78 354.22 156.64 304.09 226.72 333.21 202.62 383.59 135.78"/>
        <polygon class="cls-1" points="307.09 130.17 335.16 156.26 381.78 227.01 354.09 203.03 307.09 130.17"/>
        <polygon class="cls-1" points="327.35 175.6 327.17 183.55 360.61 184.2 360.79 176.25 327.35 175.6"/>
        <polygon class="cls-1" points="327.45 183.53 326.75 191.46 360.07 194.13 360.78 186.21 327.45 183.53"/>
        <polygon class="cls-1" points="360.51 176.33 361.2 168.4 327.88 165.73 327.18 173.65 360.51 176.33"/>
      </g>
      <g>
        <g>
          <path class="cls-1" d="M65.38,32.63c0,68.27-27.34,101.71-27.34,176.64h-9.34c0-74.93,27.33-108.37,27.33-176.64"/>
          <path class="cls-1" d="M26.84,32.63c0,72.62,27.32,108.51,27.32,174.68h-9.34c0-66.17-27.34-102.06-27.34-174.68"/>
          <path class="cls-1" d="M65.38,396.07c0-68.27-27.34-101.71-27.34-176.64h-9.34c0,74.92,27.33,108.37,27.33,176.64"/>
          <path class="cls-1" d="M26.84,396.07c0-72.62,27.32-108.51,27.32-174.68h-9.34c0,66.17-27.34,102.06-27.34,174.68"/>
          <polygon class="cls-1" points="81.44 167.27 52.06 192.37 1.93 276.67 31.05 247.68 81.44 167.27"/>
          <polygon class="cls-1" points="4.94 160.53 33 191.92 79.62 277.02 51.94 248.18 4.94 160.53"/>
          <polygon class="cls-1" points="25.19 215.18 25.01 224.74 58.45 225.52 58.63 215.97 25.19 215.18"/>
          <polygon class="cls-1" points="25.3 224.72 24.6 234.25 57.91 237.47 58.62 227.94 25.3 224.72"/>
          <polygon class="cls-1" points="58.35 216.06 59.05 206.52 25.72 203.3 25.02 212.83 58.35 216.06"/>
        </g>
        <g>
          <path class="cls-1" d="M65.38,396.1c0,68.27-27.34,101.71-27.34,176.64h-9.34c0-74.93,27.33-108.37,27.33-176.64"/>
          <path class="cls-1" d="M26.84,396.1c0,72.62,27.32,108.51,27.32,174.68h-9.34c0-66.17-27.34-102.06-27.34-174.68"/>
          <path class="cls-1" d="M65.38,759.54c0-68.27-27.34-101.71-27.34-176.64h-9.34c0,74.92,27.33,108.37,27.33,176.64"/>
          <path class="cls-1" d="M26.84,759.54c0-72.62,27.32-108.51,27.32-174.68h-9.34c0,66.17-27.34,102.06-27.34,174.68"/>
          <polygon class="cls-1" points="81.44 530.74 52.06 555.84 1.93 640.14 31.05 611.15 81.44 530.74"/>
          <polygon class="cls-1" points="4.94 524 33 555.38 79.62 640.49 51.94 611.65 4.94 524"/>
          <polygon class="cls-1" points="25.19 578.65 25.01 588.21 58.45 588.99 58.63 579.43 25.19 578.65"/>
          <polygon class="cls-1" points="25.3 588.19 24.6 597.72 57.91 600.94 58.62 591.41 25.3 588.19"/>
          <polygon class="cls-1" points="58.35 579.53 59.05 569.99 25.72 566.77 25.02 576.3 58.35 579.53"/>
        </g>
      </g>
      <g>
        <path class="cls-1" d="M334.93,65.24c-53.71,0-80.03-27.34-138.98-27.34v-9.34c58.95,0,85.26,27.33,138.98,27.33"/>
        <path class="cls-1" d="M334.93,26.7c-57.14,0-85.38,27.32-137.44,27.32v-9.34c52.07,0,80.3-27.34,137.44-27.34"/>
        <path class="cls-1" d="M48.97,65.24c53.71,0,80.03-27.34,138.98-27.34v-9.34c-58.95,0-85.26,27.33-138.98,27.33"/>
        <path class="cls-1" d="M48.97,26.7c57.14,0,85.38,27.32,137.44,27.32v-9.34c-52.07,0-80.3-27.34-137.44-27.34"/>
        <polygon class="cls-1" points="228.99 81.3 209.24 51.92 142.91 1.8 165.73 30.91 228.99 81.3"/>
        <polygon class="cls-1" points="234.29 4.8 209.6 32.86 142.64 79.48 165.33 51.8 234.29 4.8"/>
        <polygon class="cls-1" points="191.29 25.06 183.77 24.88 183.16 58.31 190.68 58.49 191.29 25.06"/>
        <polygon class="cls-1" points="183.79 25.16 176.29 24.46 173.75 57.77 181.25 58.48 183.79 25.16"/>
        <polygon class="cls-1" points="190.6 58.21 198.11 58.91 200.64 25.58 193.14 24.88 190.6 58.21"/>
      </g>
    </g>
  </g>
</svg>