<?xml version="1.0" encoding="UTF-8"?>
<svg id="Layer_2" data-name="Layer 2" xmlns="http://www.w3.org/2000/svg" viewBox="0 0 294.87 690.43">
  <defs>
    <style>
      .cls-1 {
        fill: #bfbfbf;
        stroke: #000;
        stroke-linecap: round;
        stroke-width: 4.5px;
      }
    </style>
  </defs>
  <g id="Layer_2-2" data-name="Layer 2">
    <g>
      <g>
        <path class="cls-1" d="M49.23,2.25c12.22,61.77-8.61,97.33,4.81,165.12l-9.16,1.81c-13.42-67.79,7.4-103.35-4.82-165.12"/>
        <path class="cls-1" d="M11.42,9.73c13,65.71,46.24,92.87,58.08,152.74l-9.16,1.81C48.5,104.41,15.25,77.25,2.25,11.55"/>
        <path class="cls-1" d="M114.31,331.08c-12.22-61.77-45.03-86.72-58.45-154.5l-9.16,1.81c13.42,67.79,46.21,92.74,58.44,154.51"/>
        <path class="cls-1" d="M76.5,338.56c-13-65.71,7.37-103.48-4.47-163.35l-9.16,1.81c11.85,59.87-8.54,97.65,4.46,163.35"/>
        <polygon class="cls-1" points="89.09 120.95 64.76 149.36 30.69 235.36 54.06 203.48 89.09 120.95"/>
        <polygon class="cls-1" points="12.84 129.71 45.99 152.65 106.96 220.6 74.64 199.88 12.84 129.71"/>
        <polygon class="cls-1" points="42.5 175.22 44.03 183.9 76.97 178.12 75.44 169.43 42.5 175.22"/>
        <polygon class="cls-1" points="44.3 183.83 45.32 192.59 78.58 189.03 77.57 180.27 44.3 183.83"/>
        <polygon class="cls-1" points="75.18 169.57 74.15 160.81 40.89 164.36 41.91 173.12 75.18 169.57"/>
      </g>
      <g>
        <path class="cls-1" d="M114.31,331.1c12.22,61.77-8.61,97.33,4.81,165.12l-9.16,1.81c-13.42-67.79,7.4-103.35-4.82-165.12"/>
        <path class="cls-1" d="M76.51,338.58c13,65.71,46.24,92.87,58.08,152.74l-9.16,1.81c-11.85-59.87-45.09-87.03-58.1-152.74"/>
        <path class="cls-1" d="M179.39,659.93c-12.22-61.77-45.03-86.72-58.45-154.5l-9.16,1.81c13.42,67.79,46.21,92.74,58.44,154.51"/>
        <path class="cls-1" d="M141.59,667.41c-13-65.71,7.37-103.48-4.47-163.35l-9.16,1.81c11.85,59.87-8.54,97.65,4.46,163.35"/>
        <polygon class="cls-1" points="154.17 449.8 129.85 478.21 95.77 564.21 119.14 532.33 154.17 449.8"/>
        <polygon class="cls-1" points="77.92 458.56 111.07 481.5 172.04 549.45 139.72 528.73 77.92 458.56"/>
        <polygon class="cls-1" points="107.58 504.07 109.12 512.75 142.06 506.97 140.52 498.28 107.58 504.07"/>
        <polygon class="cls-1" points="109.39 512.68 110.41 521.44 143.67 517.88 142.66 509.12 109.39 512.68"/>
        <polygon class="cls-1" points="140.26 498.42 139.24 489.66 105.97 493.21 106.99 501.97 140.26 498.42"/>
      </g>
      <g>
        <path class="cls-1" d="M179.4,659.95c.38,1.93.73,3.83,1.05,5.72l.06.35.03.18v.04c-.03-.15.11.48-.14-.69-.35-1.58-.83-3.16-1.42-4.66-.65-1.67-1.46-3.34-2.4-4.88-.95-1.58-2.12-3.19-3.38-4.62-1.26-1.43-2.68-2.79-4.19-3.98-1.49-1.18-3.05-2.21-4.71-3.09-1.62-.87-3.25-1.58-4.97-2.15-1.66-.56-3.34-.97-5.04-1.25-3.34-.54-6.76-.55-10.09-.02-1.7.27-3.39.68-5.03,1.22-1.7.56-3.35,1.27-4.95,2.11-1.65.87-3.22,1.9-4.7,3.05-1.51,1.17-2.93,2.51-4.19,3.93-1.26,1.41-2.42,2.98-3.4,4.58-.94,1.53-1.76,3.17-2.42,4.84-.61,1.54-1.09,3.06-1.45,4.64-.24,1.09-.24,1.16-.21,1.01v-.04s.17-.69.17-.69c.23-.91.45-1.82.67-2.72.91-3.59,1.89-7.06,2.94-10.43,2.09-6.73,4.42-13.04,6.91-19.08,4.99-12.09,10.65-23.12,16.34-34.34,11.38-22.44,22.91-45.64,29.59-79.54l9.16,1.8c-6.67,33.9-18.2,57.1-29.58,79.54-5.69,11.22-11.34,22.26-16.33,34.35-2.5,6.04-4.82,12.35-6.91,19.08-1.04,3.36-2.02,6.83-2.94,10.43-.22.9-.45,1.81-.67,2.72l-.16.69v.04c-.03.11-.03.06.14-.71.26-1.12.59-2.19,1.03-3.28.47-1.18,1.05-2.34,1.71-3.42.69-1.13,1.51-2.24,2.4-3.24.89-1.01,1.9-1.95,2.97-2.78,1.05-.82,2.16-1.54,3.33-2.16,1.13-.6,2.3-1.1,3.5-1.5,1.16-.39,2.36-.68,3.56-.86,4.73-.73,9.57-.05,14.22,2.41,1.17.63,2.28,1.36,3.34,2.19,1.07.84,2.07,1.8,2.96,2.81.89,1.01,1.72,2.15,2.39,3.27.66,1.09,1.24,2.27,1.7,3.45.42,1.06.76,2.18,1,3.3.17.83.08.38.1.48v-.04s-.04-.18-.04-.18l-.06-.35c-.32-1.88-.67-3.79-1.05-5.72"/>
        <path class="cls-1" d="M141.59,667.43c.41,2.05.83,4.07,1.28,6.05l.04.19v.05c.04.12.08.33.13.48.1.34.21.66.38,1.02.64,1.4,1.99,2.65,3.4,3.17,1.42.55,2.88.58,4.29.13,1.41-.43,2.82-1.54,3.57-2.92.18-.32.35-.7.46-1.02.06-.16.11-.33.15-.5l.09-.39.03-.19.06-.37.12-.74c.15-.99.3-1.97.44-2.94.56-3.9,1.01-7.71,1.36-11.42.7-7.44,1.01-14.54,1.06-21.4.09-13.72-.88-26.47-1.89-39.04-2.01-25.14-4.17-49.55,1.72-79.49l9.16,1.8c-5.89,29.94-3.73,54.35-1.71,79.49,1.01,12.57,1.98,25.32,1.89,39.04-.04,6.86-.35,13.96-1.05,21.4-.35,3.72-.8,7.52-1.36,11.43-.15.97-.3,1.96-.44,2.94l-.12.74-.06.37-.03.19c.04-.17-.13.67-.22.95-.11.41-.23.82-.37,1.22-.26.77-.68,1.72-1.14,2.52-.93,1.67-2.26,3.27-3.82,4.52-.77.62-1.58,1.16-2.45,1.62-.84.45-1.7.81-2.59,1.1-3.5,1.1-7.08,1.02-10.59-.34-.87-.34-1.72-.77-2.57-1.3-.83-.52-1.62-1.12-2.36-1.81-1.47-1.36-2.69-3.06-3.48-4.75-.43-.9-.7-1.68-.94-2.5-.11-.39-.23-.89-.29-1.19v-.05s-.05-.19-.05-.19c-.44-1.98-.87-4-1.28-6.05"/>
        <path class="cls-1" d="M180.9,345.11c-12.16,61.78,8.71,97.32-4.64,165.12l9.16,1.8c13.34-67.8-7.51-103.34,4.65-165.12"/>
        <path class="cls-1" d="M218.71,352.55c-12.93,65.72-46.14,92.92-57.92,152.8l9.16,1.8c11.79-59.88,45-87.08,57.93-152.8"/>
        <polygon class="cls-1" points="124.39 549.06 157.69 532.03 221.88 465.42 188.15 486.03 124.39 549.06"/>
        <polygon class="cls-1" points="198.25 569.94 176.31 536.12 145.72 450.1 167.75 481.55 198.25 569.94"/>
        <polygon class="cls-1" points="188.11 516.57 189.99 507.95 157.32 500.79 155.44 509.4 188.11 516.57"/>
        <polygon class="cls-1" points="189.71 507.92 192.09 499.43 159.98 490.08 157.58 498.57 189.71 507.92"/>
        <polygon class="cls-1" points="155.73 509.38 153.35 517.87 185.48 527.22 187.86 518.73 155.73 509.38"/>
      </g>
      <g>
        <path class="cls-1" d="M180.9,345.09c12.16-61.78,44.94-86.76,58.28-154.57l9.16,1.8c-13.34,67.8-46.11,92.79-58.27,154.57"/>
        <path class="cls-1" d="M218.71,352.53c12.93-65.72-7.48-103.47,4.3-163.35l9.16,1.8c-11.79,59.88,8.65,97.64-4.29,163.36"/>
        <path class="cls-1" d="M245.63,16.19c-12.16,61.78,8.71,97.32-4.64,165.12l9.16,1.8c13.34-67.8-7.51-103.34,4.65-165.12"/>
        <path class="cls-1" d="M283.44,23.64c-12.93,65.72-46.14,92.92-57.92,152.8l9.16,1.8c11.79-59.88,45-87.08,57.93-152.8"/>
        <polygon class="cls-1" points="189.13 220.15 222.42 203.11 286.62 136.5 252.89 157.11 189.13 220.15"/>
        <polygon class="cls-1" points="262.99 241.02 241.04 207.2 210.46 121.18 232.48 152.63 262.99 241.02"/>
        <polygon class="cls-1" points="252.84 187.65 254.72 179.03 222.05 171.87 220.18 180.49 252.84 187.65"/>
        <polygon class="cls-1" points="254.44 179 256.83 170.51 224.71 161.16 222.32 169.65 254.44 179"/>
        <polygon class="cls-1" points="220.47 180.46 218.09 188.95 250.21 198.3 252.59 189.81 220.47 180.46"/>
      </g>
    </g>
  </g>
</svg>