<?xml version="1.0" encoding="UTF-8"?>
<svg id="Layer_2" data-name="Layer 2" xmlns="http://www.w3.org/2000/svg" viewBox="0 0 1045.54 604.87">
  <defs>
    <style>
      .cls-1 {
        fill: #bfbfbf;
        stroke: #000;
        stroke-linecap: round;
        stroke-width: 4.5px;
      }
    </style>
  </defs>
  <g id="Layer_2-2" data-name="Layer 2">
    <g>
      <g>
        <g>
          <path class="cls-1" d="M595.64,415.98c.51-.5,19.91,18.76,20.47,18.21l6.54,6.67c-.56.55-19.95-18.71-20.46-18.2"/>
          <path class="cls-1" d="M622.62,443.49c.55-.54-18.32-20.31-17.82-20.79l6.54,6.67c-.5.49,18.38,20.27,17.83,20.8"/>
          <path class="cls-1" d="M598.37,413.3c-.51.5,18.38,20.26,17.82,20.82l6.54,6.67c.56-.55-18.32-20.3-17.81-20.81"/>
          <path class="cls-1" d="M625.35,440.81c-.55.54-19.95-18.7-20.45-18.22l6.54,6.67c.5-.49,19.91,18.76,20.46,18.23"/>
          <polygon class="cls-1" points="585.4 403.53 606.16 424.31 641.9 459.47 621.29 438.9 585.4 403.53"/>
          <polygon class="cls-1" points="638.93 458.19 619.51 437.92 587.5 404.02 606.67 423.99 638.93 458.19"/>
          <polygon class="cls-1" points="625.15 443.32 625.35 443.38 601.94 419.51 601.74 419.45 625.15 443.32"/>
          <polygon class="cls-1" points="625.15 443.18 625.71 443.61 602.4 419.8 601.83 419.37 625.15 443.18"/>
          <polygon class="cls-1" points="601.94 419.65 601.38 419.22 624.69 443.03 625.25 443.46 601.94 419.65"/>
        </g>
        <g>
          <path class="cls-1" d="M871.61,571.93c.57-3.44,1.13-6.88,1.69-10.3.58-3.42,1.17-6.84,1.75-10.24.6-3.4,1.2-6.79,1.8-10.17.62-3.37,1.23-6.74,1.85-10.1.63-3.35,1.26-6.69,1.89-10.02.65-3.32,1.29-6.64,1.93-9.94.66-3.3,1.32-6.58,1.97-9.86.67-3.27,1.34-6.53,2.01-9.77.68-3.24,1.37-6.47,2.05-9.69.7-3.21,1.39-6.41,2.08-9.59.71-3.18,1.41-6.34,2.11-9.5.72-3.14,1.43-6.28,2.14-9.4.72-3.11,1.44-6.21,2.16-9.3.73-3.08,1.46-6.14,2.19-9.2,1.49-6.07,2.96-12.1,4.43-18.07,1.51-5.93,3.01-11.8,4.49-17.62,1.52-5.77,3.03-11.49,4.53-17.15,1.53-5.61,3.05-11.16,4.55-16.65,1.53-5.44,3.05-10.81,4.54-16.12,1.53-5.26,3.03-10.45,4.52-15.57,1.52-5.07,3.01-10.07,4.48-15,1.5-4.88,2.97-9.68,4.42-14.4,1.47-4.68,2.91-9.27,4.33-13.78,1.44-4.47,2.85-8.85,4.23-13.13,1.4-4.25,2.77-8.4,4.1-12.46,1.35-4.02,2.67-7.95,3.96-11.77,1.3-3.79,2.57-7.47,3.79-11.05,1.24-3.54,2.44-6.98,3.61-10.3,1.17-3.29,2.31-6.47,3.4-9.54,1.1-3.04,2.16-5.95,3.17-8.74,1.02-2.77,2-5.41,2.93-7.93,1.88-4.97,3.56-9.42,5.03-13.31,1.49-3.82,2.76-7.09,3.79-9.75,1.05-2.62,1.85-4.63,2.4-5.99.55-1.34.84-2.04.84-2.04-.77,2.11-1.55,4.24-2.33,6.38-.77,2.16-1.54,4.34-2.32,6.53-.77,2.21-1.54,4.44-2.31,6.67-.76,2.26-1.53,4.53-2.3,6.81-.76,2.3-1.53,4.61-2.29,6.94-.76,2.34-1.52,4.7-2.28,7.06-.75,2.38-1.51,4.77-2.27,7.17-.75,2.42-1.51,4.84-2.26,7.28-1.49,4.92-2.98,9.87-4.49,14.84-1.47,5.03-2.95,10.09-4.43,15.18-1.45,5.13-2.91,10.28-4.37,15.45-1.43,5.21-2.86,10.43-4.3,15.66-1.41,5.27-2.81,10.54-4.22,15.82-1.38,5.31-2.76,10.61-4.13,15.91-1.35,5.33-2.7,10.64-4.04,15.94-1.32,5.32-2.64,10.63-3.94,15.91-1.29,5.3-2.57,10.58-3.84,15.82-1.25,5.26-2.49,10.49-3.73,15.67-1.21,5.2-2.42,10.36-3.61,15.47-1.17,5.12-2.33,10.19-3.48,15.2-2.25,10.05-4.44,19.86-6.56,29.34-2.07,9.53-4.06,18.73-5.97,27.54-1.87,8.84-3.65,17.28-5.33,25.26-1.65,7.99-3.2,15.52-4.64,22.49-2.8,13.99-5.16,25.78-6.96,34.75-1.76,8.99-2.97,15.15-3.51,17.88"/>
          <path class="cls-1" d="M631.89,447.49c1.07-1.07,2.18-2.17,3.32-3.31,1.14-1.15,2.31-2.34,3.52-3.56,2.39-2.46,4.91-5.06,7.54-7.78,2.61-2.74,5.33-5.61,8.16-8.59,2.8-3,5.71-6.11,8.72-9.32,2.98-3.23,6.06-6.56,9.22-9.99,3.14-3.44,6.37-6.97,9.67-10.58,3.28-3.62,6.63-7.32,10.05-11.1,3.4-3.78,6.86-7.63,10.38-11.55,6.98-7.84,14.17-15.92,21.49-24.15,7.26-8.24,14.65-16.63,22.09-25.07,7.38-8.45,14.82-16.96,22.21-25.42,7.35-8.47,14.67-16.9,21.87-25.19,14.3-16.6,28.12-32.65,40.82-47.4,12.61-14.75,24.1-28.2,33.81-39.57,19.3-22.75,31.56-37.19,31.56-37.19l-15.59,3.85c-2.91,3.54-5.85,7.12-8.82,10.74-3.01,3.62-6.05,7.28-9.11,10.98-3.09,3.69-6.22,7.42-9.37,11.18-3.17,3.76-6.37,7.54-9.59,11.35-6.5,7.61-13.07,15.31-19.69,23.07-6.69,7.74-13.43,15.53-20.16,23.32-6.8,7.78-13.59,15.56-20.35,23.3-6.81,7.73-13.58,15.41-20.27,23-6.73,7.58-13.39,15.07-19.92,22.42-6.57,7.34-13.01,14.55-19.29,21.57-6.31,7.01-12.45,13.84-18.39,20.43-5.96,6.59-11.71,12.94-17.21,19.02-11.06,12.13-21.11,23.16-29.8,32.69-8.75,9.51-16.14,17.53-21.81,23.7-5.71,6.13-9.7,10.41-11.61,12.45"/>
          <path class="cls-1" d="M919.07,579.7c1.38-7.92,2.76-15.88,4.15-23.86,1.44-7.97,2.88-15.96,4.32-23.95,1.48-7.97,2.95-15.94,4.42-23.88,1.5-7.93,2.99-15.83,4.47-23.67,3-15.67,5.95-31.12,8.83-46.14,2.85-15.03,5.62-29.62,8.27-43.58,1.29-6.99,2.55-13.82,3.77-20.47,1.18-6.66,2.33-13.13,3.45-19.39.54-3.14,1.06-6.22,1.58-9.25.5-3.03.99-6.01,1.48-8.93.46-2.92.92-5.78,1.37-8.59.43-2.8.84-5.55,1.25-8.23.38-2.68.76-5.3,1.12-7.85.34-2.55.67-5.04.99-7.46.29-2.42.57-4.76.84-7.05.12-1.14.25-2.26.37-3.36.11-1.1.22-2.19.33-3.25.1-1.06.19-2.11.29-3.14.08-1.03.17-2.03.25-3.03.07-.99.14-1.96.21-2.91.06-.95.11-1.88.16-2.79.04-.91.08-1.8.12-2.67.03-.86.05-1.71.08-2.55.01-.82.02-1.63.03-2.42,0-.78-.01-1.54-.02-2.3l-4.45-9.99c-.31,2.13-.65,4.43-1.02,6.9-.38,2.47-.79,5.11-1.22,7.9-.91,5.57-1.91,11.76-3,18.46-1.13,6.69-2.35,13.88-3.63,21.47-1.32,7.59-2.7,15.57-4.14,23.86-2.95,16.55-6.1,34.27-9.31,52.32-3.28,18.03-6.61,36.38-9.86,54.21-6.59,35.62-12.79,69.15-17.35,93.77-4.61,24.59-7.55,40.29-7.55,40.29"/>
          <path class="cls-1" d="M598.35,413.31s4.83-5.02,13.38-13.93c4.31-4.45,9.55-9.87,15.59-16.11,6.07-6.23,12.94-13.28,20.48-21.01,7.58-7.71,15.82-16.1,24.6-25.03,8.82-8.9,18.18-18.33,27.93-28.16,9.81-9.78,20.02-19.96,30.49-30.41,5.26-5.2,10.59-10.46,15.96-15.77,5.39-5.29,10.84-10.63,16.31-15.99,5.49-5.35,11.02-10.72,16.56-16.11,5.56-5.36,11.14-10.74,16.72-16.12,5.6-5.35,11.2-10.69,16.77-16.01,5.6-5.29,11.19-10.56,16.73-15.8,5.57-5.2,11.11-10.36,16.59-15.47,5.51-5.06,10.97-10.08,16.36-15.03,2.71-2.46,5.39-4.89,8.06-7.32,2.68-2.41,5.33-4.8,7.97-7.17,2.64-2.35,5.26-4.69,7.86-7,2.6-2.3,5.18-4.57,7.74-6.82,2.56-2.23,5.1-4.44,7.61-6.63,2.52-2.16,5-4.31,7.46-6.42,2.47-2.09,4.9-4.16,7.31-6.2,2.41-2.02,4.79-4.01,7.14-5.97,2.35-1.93,4.67-3.84,6.96-5.72,2.29-1.85,4.55-3.67,6.77-5.46,2.22-1.76,4.41-3.48,6.56-5.18,2.15-1.66,4.27-3.29,6.35-4.89,2.08-1.56,4.12-3.09,6.12-4.59,1-.73,1.99-1.46,2.97-2.18.98-.71,1.95-1.4,2.91-2.1.96-.68,1.91-1.35,2.84-2.01.94-.65,1.86-1.29,2.78-1.93.91-.62,1.82-1.23,2.71-1.84.89-.59,1.77-1.17,2.65-1.75.87-.56,1.73-1.11,2.58-1.66.84-.53,1.68-1.05,2.51-1.57.82-.5,1.63-.99,2.43-1.48.79-.47,1.58-.93,2.36-1.38.77-.43,1.53-.86,2.28-1.29.74-.4,1.48-.8,2.21-1.19l1.07-.56.27-.14.07-.03s.01.04.02.05l.02.14.09.57c.11.78.22,1.55.34,2.32l-5.27,52.67c0-.92,0-1.84,0-2.76l-.04-2.71-.08-2.66-.11-2.61-.15-2.56-.18-2.52-.21-2.47-.25-2.42-.28-2.38c-.1-.78-.21-1.55-.31-2.33-.11-.76-.23-1.52-.34-2.29-.12-.75-.25-1.49-.38-2.24-.14-.73-.27-1.46-.41-2.2-.15-.72-.29-1.43-.44-2.15-.16-.7-.31-1.4-.47-2.11-.17-.69-.33-1.38-.5-2.07,0-.03-.04.02-.06.02l-.07.04-.14.08-.28.17-.57.34-1.15.69c-.77.47-1.55.95-2.33,1.43-.79.49-1.57.99-2.37,1.49-.8.51-1.6,1.03-2.4,1.54-.81.53-1.62,1.06-2.44,1.6-.82.55-1.65,1.1-2.48,1.66-.83.57-1.67,1.14-2.51,1.71-.84.59-1.69,1.17-2.55,1.77-1.72,1.22-3.45,2.45-5.2,3.69-1.76,1.29-3.54,2.59-5.33,3.9-1.8,1.35-3.62,2.72-5.46,4.1-1.84,1.42-3.71,2.85-5.59,4.3-1.88,1.48-3.79,2.98-5.71,4.49-1.92,1.54-3.87,3.1-5.83,4.67-1.96,1.6-3.94,3.22-5.94,4.85-2,1.66-4.01,3.33-6.05,5.03-2.03,1.72-4.08,3.45-6.16,5.19-2.07,1.77-4.15,3.55-6.26,5.35-2.1,1.82-4.22,3.66-6.35,5.51-2.13,1.87-4.28,3.76-6.45,5.66-2.16,1.92-4.34,3.85-6.53,5.8-2.19,1.97-4.4,3.95-6.62,5.94-4.43,4.03-8.92,8.12-13.47,12.27-4.53,4.2-9.11,8.45-13.76,12.75-4.62,4.35-9.29,8.74-14.01,13.19-4.7,4.48-9.44,9.01-14.23,13.57-4.77,4.6-9.57,9.24-14.42,13.91-4.82,4.7-9.68,9.44-14.57,14.21-4.87,4.79-9.77,9.61-14.69,14.45-4.9,4.86-9.83,9.75-14.78,14.65-4.93,4.92-9.88,9.85-14.83,14.8-9.87,9.93-19.79,19.9-29.7,29.87-19.7,20.01-39.37,39.99-58.57,59.49-19.18,19.5-37.88,38.52-55.68,56.62"/>
          <polygon class="cls-1" points="1043.72 137.51 1003.76 161.33 905.03 303.23 947.66 269.58 1043.72 137.51"/>
          <polygon class="cls-1" points="972.97 44 989.63 43.15 993.8 42.94 993.93 42.93 993.99 42.93 994.03 42.92 994.04 42.92 994.04 42.96 994.02 43.49 993.98 44.55 993.89 46.68 993.71 50.93 992.99 67.94 990.14 135.98 961.72 426.47 962.59 297.38 979.22 148.64 987.53 74.27 989.61 55.68 990.13 51.03 990.2 50.45 990.21 50.31 990.16 50.29 990.06 50.25 989.66 50.11 988.87 49.82 985.69 48.65 972.97 44"/>
          <polygon class="cls-1" points="967.3 182.79 960.12 205.92 984.02 250.4 991.2 227.28 967.3 182.79"/>
          <polygon class="cls-1" points="960.36 206.19 952.83 228.58 974.86 278.86 982.38 256.49 960.36 206.19"/>
          <polygon class="cls-1" points="990.94 227.13 998.46 204.76 976.44 154.46 968.9 176.85 990.94 227.13"/>
          <path class="cls-1" d="M1012.67,107.63l-12.98-37.69-6.49-18.85-.81-2.36-.41-1.18-.1-.29-.03-.07v-.02s0-.01-.02,0l-.05.03-.19.13-.77.5-6.16,4.03-12.31,8.06-206.04,174.46,87.91-61.2,108.33-88.87,13.54-11.11,3.39-2.78.42-.35.1-.08.04.04.08.09.3.35.61.7,2.43,2.8,9.74,11.21,19.47,22.43Z"/>
          <polygon class="cls-1" points="955.18 .87 945.69 60.95 877.44 227.06 883.45 172.02 955.18 .87"/>
          <polygon class="cls-1" points="897.48 108.5 882 127.75 928.81 125.87 944.29 106.63 897.48 108.5"/>
          <polygon class="cls-1" points="882.47 127.64 866.3 146.87 909.07 149.93 925.22 130.71 882.47 127.64"/>
          <polygon class="cls-1" points="943.74 106.85 959.91 87.62 917.12 84.57 900.96 103.8 943.74 106.85"/>
        </g>
      </g>
      <g>
        <path class="cls-1" d="M712.81,510.72c39.79-76.84,83.55-101.92,127.22-186.25l8.29,4.29c-43.67,84.34-87.42,109.42-127.21,186.26"/>
        <path class="cls-1" d="M747.03,528.44c42.33-81.75,38.98-134.7,77.54-209.19l8.29,4.29c-38.57,74.49-35.2,127.45-77.53,209.2"/>
        <path class="cls-1" d="M924.63,101.62c-39.79,76.84-35,127.06-78.67,211.39l8.29,4.29c43.66-84.33,38.89-134.55,78.68-211.39"/>
        <path class="cls-1" d="M958.85,119.34c-42.33,81.75-87.51,109.58-126.07,184.06l8.29,4.29c38.57-74.49,83.76-102.31,126.08-184.06"/>
        <polygon class="cls-1" points="777.02 351.78 817.74 337.04 911.38 265.19 868.63 284.44 777.02 351.78"/>
        <polygon class="cls-1" points="841.03 394.54 834.4 346.31 842.6 229.08 850.37 274.27 841.03 394.54"/>
        <polygon class="cls-1" points="854.89 323.71 860.62 313.03 831.38 296.78 825.65 307.45 854.89 323.71"/>
        <polygon class="cls-1" points="860.36 312.92 866.53 302.52 838.83 283.58 832.64 293.98 860.36 312.92"/>
        <polygon class="cls-1" points="825.96 307.48 819.78 317.89 847.5 336.84 853.67 326.44 825.96 307.48"/>
      </g>
      <g>
        <path class="cls-1" d="M43.23,200.12c40.14,66.4,36.41,113.06,80.47,185.93l-7.99,4.83c-44.06-72.87-40.34-119.53-80.48-185.93"/>
        <path class="cls-1" d="M10.25,220.05c42.7,70.63,87.19,91.4,126.1,155.75l-7.99,4.83C89.45,316.28,44.95,295.52,2.25,224.89"/>
        <path class="cls-1" d="M256.93,553.59c-40.14-66.39-83.2-84.78-127.26-157.65l-7.99,4.83c44.05,72.87,87.1,91.26,127.25,157.65"/>
        <path class="cls-1" d="M223.96,573.53c-42.7-70.63-40.42-119.67-79.33-184.03l-7.99,4.83c38.91,64.36,36.62,113.4,79.32,184.03"/>
        <polygon class="cls-1" points="136.14 322.76 125.76 362.36 132.43 470.29 140.3 427.03 136.14 322.76"/>
        <polygon class="cls-1" points="66.71 355.78 109.18 371.78 199.12 430.43 158.47 416.71 66.71 355.78"/>
        <polygon class="cls-1" points="116.18 398.45 121.65 407.84 150.72 391.3 145.26 381.91 116.18 398.45"/>
        <polygon class="cls-1" points="121.88 407.68 126.88 417.31 157.29 403.2 152.29 393.57 121.88 407.68"/>
        <polygon class="cls-1" points="145.07 382.15 140.06 372.51 109.65 386.62 114.65 396.25 145.07 382.15"/>
      </g>
      <g>
        <g>
          <path class="cls-1" d="M982.66,119.33c-45.52,30.26-82.95,22.31-132.91,55.52l-5.17-7.78c49.96-33.21,87.38-25.27,132.9-55.53"/>
          <path class="cls-1" d="M961.32,87.24c-48.42,32.19-57.23,70.85-101.35,100.18l-5.17-7.78c44.12-29.33,52.92-68,101.34-100.19"/>
          <path class="cls-1" d="M740.32,280.42c45.52-30.26,52.69-67.85,102.64-101.06l-5.17-7.78c-49.96,33.21-57.13,70.79-102.65,101.05"/>
          <path class="cls-1" d="M718.98,248.33c48.42-32.19,87.48-25.34,131.6-54.67l-5.17-7.78c-44.12,29.33-83.19,22.47-131.61,54.66"/>
          <polygon class="cls-1" points="901.77 192.38 868.77 179.04 784.81 174.66 820.26 186.05 901.77 192.38"/>
          <polygon class="cls-1" points="863.91 125.68 858.52 162.96 827.58 239.51 831.49 203.67 863.91 125.68"/>
          <polygon class="cls-1" points="838.69 166.78 832.21 170.87 850.2 199.06 856.68 194.97 838.69 166.78"/>
          <polygon class="cls-1" points="832.38 171.09 825.64 174.73 841.94 203.9 848.68 200.27 832.38 171.09"/>
          <polygon class="cls-1" points="856.46 194.78 863.2 191.13 846.9 161.95 840.16 165.59 856.46 194.78"/>
        </g>
        <g>
          <path class="cls-1" d="M740.3,280.43c-45.52,30.26-82.95,22.31-132.91,55.52l-5.17-7.78c49.96-33.21,87.38-25.27,132.9-55.53"/>
          <path class="cls-1" d="M718.97,248.34c-48.42,32.19-57.23,70.85-101.35,100.18l-5.17-7.78c44.12-29.33,52.92-68,101.34-100.19"/>
          <path class="cls-1" d="M497.96,441.52c45.52-30.26,52.69-67.85,102.64-101.06l-5.17-7.78c-49.96,33.21-57.13,70.79-102.65,101.05"/>
          <path class="cls-1" d="M476.63,409.43c48.42-32.19,87.48-25.34,131.6-54.67l-5.17-7.78c-44.12,29.33-83.19,22.47-131.61,54.66"/>
          <polygon class="cls-1" points="659.41 353.48 626.42 340.14 542.46 335.76 577.9 347.16 659.41 353.48"/>
          <polygon class="cls-1" points="621.56 286.78 616.17 324.06 585.23 400.61 589.13 364.77 621.56 286.78"/>
          <polygon class="cls-1" points="596.33 327.88 589.86 331.97 607.85 360.16 614.32 356.07 596.33 327.88"/>
          <polygon class="cls-1" points="590.03 332.19 583.28 335.83 599.58 365 606.33 361.37 590.03 332.19"/>
          <polygon class="cls-1" points="614.1 355.88 620.85 352.23 604.55 323.05 597.8 326.69 614.1 355.88"/>
        </g>
        <g>
          <path class="cls-1" d="M497.94,441.53c-45.52,30.26-82.95,22.31-132.91,55.52l-5.17-7.78c49.96-33.21,87.38-25.27,132.9-55.53"/>
          <path class="cls-1" d="M476.61,409.44c-48.42,32.19-57.23,70.85-101.35,100.18l-5.17-7.78c44.12-29.33,52.92-68,101.34-100.19"/>
          <path class="cls-1" d="M255.6,602.62c45.52-30.26,52.69-67.85,102.64-101.06l-5.17-7.78c-49.96,33.21-57.13,70.79-102.65,101.05"/>
          <path class="cls-1" d="M234.27,570.53c48.42-32.19,87.48-25.34,131.6-54.67l-5.17-7.78c-44.12,29.33-83.19,22.47-131.61,54.66"/>
          <polygon class="cls-1" points="417.05 514.58 384.06 501.24 300.1 496.86 335.55 508.26 417.05 514.58"/>
          <polygon class="cls-1" points="379.2 447.88 373.81 485.17 342.87 561.71 346.78 525.87 379.2 447.88"/>
          <polygon class="cls-1" points="353.97 488.98 347.5 493.07 365.49 521.26 371.96 517.17 353.97 488.98"/>
          <polygon class="cls-1" points="347.67 493.29 340.93 496.93 357.22 526.1 363.97 522.47 347.67 493.29"/>
          <polygon class="cls-1" points="371.75 516.98 378.49 513.33 362.19 484.15 355.45 487.79 371.75 516.98"/>
        </g>
      </g>
    </g>
  </g>
</svg>