<?xml version="1.0" encoding="UTF-8"?>
<svg id="Layer_2" data-name="Layer 2" xmlns="http://www.w3.org/2000/svg" viewBox="0 0 571.19 1088.66">
  <defs>
    <style>
      .cls-1 {
        fill: #bfbfbf;
        stroke: #000;
        stroke-linecap: round;
        stroke-width: 4.5px;
      }
    </style>
  </defs>
  <g id="Layer_2-2" data-name="Layer 2">
    <g>
      <g>
        <g>
          <path class="cls-1" d="M49.01,1073.31c15.16-53.33,48.88-71.98,65.52-130.51l8.98,2.55c-16.64,58.53-50.35,77.18-65.51,130.51"/>
          <path class="cls-1" d="M86.08,1083.85c16.13-56.73-2.19-92.24,12.51-143.93l8.98,2.55c-14.7,51.69,3.63,87.2-12.5,143.93"/>
          <path class="cls-1" d="M129.72,789.4c-15.16,53.33,3.71,86.93-12.93,145.46l8.98,2.55c16.64-58.53-2.22-92.13,12.94-145.46"/>
          <path class="cls-1" d="M166.79,799.93c-16.13,56.73-50.38,77.29-65.08,128.99l8.98,2.55c14.7-51.69,48.96-72.25,65.09-128.98"/>
          <polygon class="cls-1" points="63.47 963.74 97.3 952.17 164.23 900.02 129.79 914.71 63.47 963.74"/>
          <polygon class="cls-1" points="135.55 989.92 115.53 957.74 89.59 878.5 109.81 908.61 135.55 989.92"/>
          <polygon class="cls-1" points="128.2 941.69 130.5 934.27 98.51 924.52 96.21 931.94 128.2 941.69"/>
          <polygon class="cls-1" points="130.23 934.21 133.01 926.96 101.68 915.33 98.88 922.58 130.23 934.21"/>
          <polygon class="cls-1" points="96.51 931.94 93.72 939.2 125.06 950.83 127.85 943.58 96.51 931.94"/>
        </g>
        <g>
          <path class="cls-1" d="M129.73,789.38c15.16-53.33,48.88-71.98,65.52-130.51l8.98,2.55c-16.64,58.53-50.35,77.18-65.51,130.51"/>
          <path class="cls-1" d="M166.8,799.91c16.13-56.73-2.19-92.24,12.51-143.93l8.98,2.55c-14.7,51.69,3.63,87.2-12.5,143.93"/>
          <path class="cls-1" d="M210.44,505.46c-15.16,53.33,3.71,86.93-12.93,145.46l8.98,2.55c16.64-58.53-2.22-92.13,12.94-145.46"/>
          <path class="cls-1" d="M247.51,516c-16.13,56.73-50.38,77.29-65.08,128.99l8.98,2.55c14.7-51.69,48.96-72.25,65.09-128.98"/>
          <polygon class="cls-1" points="144.18 679.81 178.02 668.24 244.95 616.09 210.51 630.78 144.18 679.81"/>
          <polygon class="cls-1" points="216.27 705.99 196.25 673.8 170.3 594.57 190.53 624.67 216.27 705.99"/>
          <polygon class="cls-1" points="208.92 657.76 211.22 650.34 179.23 640.59 176.93 648.01 208.92 657.76"/>
          <polygon class="cls-1" points="210.94 650.28 213.73 643.03 182.4 631.4 179.6 638.65 210.94 650.28"/>
          <polygon class="cls-1" points="177.22 648.01 174.44 655.27 205.78 666.9 208.56 659.64 177.22 648.01"/>
        </g>
        <g>
          <path class="cls-1" d="M524.5,503.18c-1.25-3.04-2.5-6.07-3.75-9.09-1.23-3.03-2.45-6.05-3.67-9.07-1.2-3.02-2.4-6.03-3.59-9.04-1.18-3.01-2.35-6.01-3.52-9-1.15-3-2.3-5.99-3.44-8.97-1.12-2.98-2.25-5.96-3.36-8.93-1.1-2.97-2.19-5.93-3.29-8.88-1.07-2.95-2.14-5.9-3.21-8.83-1.05-2.94-2.09-5.86-3.14-8.78-1.02-2.92-2.05-5.83-3.06-8.73-1-2.9-2-5.79-2.99-8.67-.98-2.88-1.95-5.74-2.92-8.6-.95-2.86-1.9-5.7-2.84-8.54-.93-2.83-1.85-5.65-2.77-8.46-.9-2.81-1.8-5.6-2.7-8.39-.88-2.78-1.76-5.55-2.63-8.31-1.7-5.51-3.39-10.96-5.05-16.37-1.61-5.39-3.2-10.73-4.78-16.01-1.52-5.26-3.03-10.47-4.51-15.62-1.43-5.13-2.85-10.2-4.25-15.2-1.35-4.98-2.68-9.9-3.99-14.76-1.27-4.83-2.51-9.59-3.74-14.28-1.18-4.66-2.35-9.26-3.49-13.77-1.1-4.49-2.19-8.9-3.25-13.23-1.03-4.31-2.03-8.53-3.01-12.66-.95-4.11-1.88-8.13-2.78-12.06-.87-3.91-1.73-7.72-2.56-11.43-.8-3.69-1.58-7.28-2.33-10.77-.73-3.47-1.43-6.83-2.12-10.08-.66-3.23-1.29-6.36-1.91-9.36-.59-2.99-1.16-5.86-1.7-8.61-.52-2.74-1.02-5.35-1.5-7.83-.9-4.93-1.71-9.35-2.42-13.21-.66-3.82-1.22-7.08-1.67-9.73-.43-2.63-.75-4.65-.97-6.02-.21-1.35-.32-2.06-.32-2.06.41,2.08.82,4.18,1.23,6.29.44,2.12.87,4.26,1.31,6.4.46,2.16.92,4.33,1.39,6.51.49,2.2.98,4.4,1.47,6.62.51,2.23,1.02,4.47,1.54,6.72.53,2.26,1.07,4.53,1.61,6.81.56,2.29,1.11,4.59,1.68,6.89.58,2.32,1.16,4.64,1.74,6.97.6,2.34,1.2,4.69,1.8,7.04.62,2.36,1.24,4.73,1.86,7.11,1.28,4.77,2.58,9.57,3.87,14.39,1.35,4.84,2.71,9.7,4.06,14.58,1.41,4.89,2.82,9.8,4.23,14.71,1.46,4.93,2.92,9.86,4.38,14.79,1.5,4.94,3,9.89,4.49,14.82,1.53,4.94,3.06,9.88,4.59,14.8,1.56,4.93,3.11,9.84,4.66,14.73,1.58,4.89,3.14,9.76,4.7,14.6,1.59,4.84,3.16,9.65,4.72,14.43,1.59,4.78,3.16,9.51,4.72,14.2,1.58,4.69,3.15,9.33,4.69,13.92,3.15,9.18,6.22,18.13,9.2,26.79,3.04,8.66,5.98,17.04,8.79,25.05,2.87,8.01,5.6,15.67,8.19,22.9,2.63,7.23,5.1,14.03,7.39,20.33,2.32,6.3,4.46,12.11,6.39,17.35,1.95,5.24,3.69,9.92,5.2,13.96,3.03,8.08,5.1,13.62,6.02,16.07"/>
          <path class="cls-1" d="M256.5,518.55c.38-1.38.77-2.8,1.17-4.26.39-1.48.8-3,1.22-4.56.8-3.13,1.65-6.43,2.53-9.89.85-3.46,1.73-7.08,2.65-10.84.89-3.76,1.81-7.67,2.76-11.71.92-4.03,1.87-8.2,2.85-12.48.95-4.28,1.93-8.68,2.93-13.18.98-4.5,1.98-9.09,3-13.78,1-4.68,2.02-9.46,3.05-14.3,2.01-9.68,4.09-19.66,6.2-29.81,2.05-10.14,4.14-20.46,6.25-30.85,2.05-10.37,4.12-20.81,6.18-31.2,2.02-10.37,4.02-20.7,6-30.85,3.86-20.28,7.59-39.89,11.01-57.9,3.34-17.98,6.39-34.36,8.96-48.22,5.04-27.66,8.23-45.22,8.23-45.22l-11.42,10.3c-.7,4.26-1.41,8.57-2.13,12.93-.74,4.37-1.5,8.79-2.26,13.26-.78,4.47-1.57,8.99-2.37,13.54-.82,4.56-1.64,9.16-2.47,13.78-1.72,9.27-3.46,18.66-5.21,28.1-1.82,9.47-3.65,19-5.48,28.53-1.89,9.55-3.78,19.1-5.66,28.6-1.93,9.51-3.84,18.97-5.74,28.31-1.94,9.36-3.85,18.6-5.73,27.67-1.91,9.08-3.79,17.99-5.62,26.67-1.86,8.69-3.67,17.15-5.42,25.32-1.78,8.18-3.49,16.07-5.13,23.61-3.34,15.1-6.38,28.82-9,40.68-2.69,11.87-4.96,21.89-6.71,29.59-.89,3.85-1.65,7.12-2.26,9.74-.62,2.62-1.09,4.59-1.39,5.88"/>
          <path class="cls-1" d="M568.94,484.81c-2.82-7.03-5.65-14.09-8.49-21.17-2.79-7.1-5.59-14.22-8.39-21.33-2.76-7.12-5.52-14.24-8.27-21.33-2.72-7.1-5.43-14.17-8.12-21.19-5.35-14.05-10.61-27.9-15.74-41.35-5.15-13.46-10.14-26.52-14.92-39.02-2.43-6.24-4.8-12.34-7.1-18.27-2.35-5.92-4.63-11.68-6.84-17.25-1.12-2.78-2.23-5.51-3.31-8.19-1.1-2.68-2.18-5.31-3.24-7.88-1.08-2.57-2.13-5.09-3.16-7.55-1.05-2.46-2.08-4.86-3.09-7.21-1.03-2.34-2.03-4.62-3-6.84-1-2.21-1.97-4.36-2.92-6.46-.97-2.08-1.92-4.09-2.83-6.05-.47-.97-.93-1.93-1.38-2.87-.46-.94-.92-1.86-1.36-2.76-.45-.9-.9-1.78-1.34-2.65-.45-.86-.88-1.71-1.32-2.54-.44-.82-.87-1.63-1.29-2.43-.43-.78-.85-1.55-1.27-2.31-.42-.74-.84-1.47-1.24-2.19-.41-.7-.82-1.39-1.22-2.07-.41-.66-.8-1.31-1.2-1.95-.4-.62-.79-1.22-1.17-1.82l-8.84-5.67c.8,1.86,1.68,3.87,2.61,6.03.92,2.17,1.9,4.48,2.94,6.93,2.04,4.91,4.3,10.37,6.75,16.27,2.41,5.92,5,12.28,7.73,19,2.7,6.73,5.55,13.82,8.5,21.16,5.83,14.72,12.07,30.48,18.43,46.53,6.29,16.07,12.7,32.43,18.93,48.32,12.34,31.81,23.95,61.75,32.48,83.74,8.47,21.99,13.87,36.03,13.87,36.03"/>
          <path class="cls-1" d="M210.44,505.46s1.6-6.37,4.43-17.65c1.44-5.65,3.19-12.53,5.22-20.46,2.05-7.93,4.38-16.91,6.93-26.76,2.59-9.84,5.41-20.56,8.42-31.96,3.06-11.4,6.31-23.48,9.69-36.08,1.72-6.29,3.47-12.71,5.26-19.24,1.8-6.52,3.64-13.15,5.5-19.86,1.88-6.71,3.78-13.5,5.71-20.35,1.95-6.84,3.91-13.75,5.89-20.69,2.01-6.94,4.02-13.91,6.04-20.9,2.05-6.98,4.11-13.98,6.17-20.98,2.09-6.98,4.19-13.96,6.28-20.92,2.13-6.94,4.25-13.85,6.35-20.72,2.15-6.85,4.28-13.65,6.4-20.39,2.16-6.71,4.3-13.36,6.42-19.92,1.08-3.27,2.15-6.52,3.21-9.74,1.08-3.21,2.14-6.41,3.2-9.57,1.07-3.15,2.14-6.28,3.19-9.39,1.07-3.09,2.13-6.15,3.18-9.18,1.07-3.02,2.12-6.01,3.17-8.96,1.06-2.94,2.11-5.85,3.15-8.73,1.05-2.86,2.1-5.68,3.13-8.47,1.05-2.77,2.08-5.5,3.1-8.2,1.04-2.67,2.06-5.31,3.07-7.91,1.03-2.57,2.04-5.11,3.04-7.61,1.02-2.47,2.02-4.9,3.01-7.29,1.01-2.35,1.99-4.67,2.97-6.95.49-1.12.98-2.24,1.47-3.34.49-1.09.98-2.18,1.46-3.25.49-1.06.97-2.11,1.44-3.16.48-1.03.96-2.05,1.43-3.06.48-1,.95-1.99,1.42-2.96.47-.96.94-1.92,1.41-2.86.47-.93.93-1.85,1.39-2.76.47-.9.93-1.78,1.38-2.66.46-.86.92-1.71,1.37-2.55.46-.82.91-1.64,1.35-2.45.45-.79.9-1.56,1.34-2.33.45-.75.89-1.49,1.32-2.22.44-.71.88-1.41,1.31-2.11.43-.67.86-1.33,1.29-1.99l.64-.95.16-.23.04-.06s.03.02.04.03l.09.1.37.41c.49.56.97,1.12,1.45,1.67l22.07,44.72-1.4-2.19-1.4-2.14-1.41-2.08-1.41-2.02-1.42-1.97-1.42-1.91-1.43-1.86-1.43-1.8-1.44-1.75-1.44-1.7-1.45-1.64-1.45-1.59c-.48-.51-.97-1.03-1.46-1.54-.49-.5-.97-.99-1.46-1.49-.49-.48-.97-.96-1.47-1.44-.49-.46-.98-.92-1.47-1.39-.02-.02-.03.03-.04.05l-.04.07-.08.13-.16.27-.32.54-.64,1.1c-.42.75-.85,1.49-1.27,2.25-.42.77-.85,1.54-1.28,2.31-.42.79-.85,1.58-1.28,2.38-.43.81-.85,1.62-1.28,2.44-.43.83-.85,1.66-1.29,2.5-.43.85-.86,1.7-1.29,2.56-.43.87-.86,1.75-1.29,2.62-.85,1.79-1.72,3.6-2.59,5.43-.86,1.87-1.72,3.76-2.6,5.66-.86,1.94-1.73,3.91-2.61,5.89-.86,2.02-1.73,4.05-2.62,6.11-.87,2.09-1.74,4.19-2.62,6.32-.87,2.16-1.74,4.33-2.63,6.53-.87,2.22-1.75,4.47-2.64,6.73-.87,2.29-1.75,4.59-2.64,6.92-.87,2.35-1.76,4.72-2.65,7.11-.88,2.41-1.76,4.84-2.65,7.29-.88,2.47-1.76,4.95-2.66,7.46-.88,2.52-1.77,5.07-2.66,7.63-.88,2.58-1.77,5.17-2.66,7.79-.88,2.63-1.77,5.27-2.67,7.94-.88,2.68-1.77,5.37-2.67,8.09-.88,2.72-1.77,5.47-2.67,8.23-1.76,5.54-3.54,11.16-5.34,16.84-1.76,5.71-3.54,11.48-5.34,17.32-1.76,5.85-3.54,11.77-5.33,17.74-1.76,5.98-3.53,12.02-5.32,18.11-1.76,6.1-3.52,12.24-5.3,18.42-1.75,6.19-3.51,12.42-5.28,18.68-1.74,6.27-3.5,12.56-5.26,18.88-1.74,6.32-3.48,12.67-5.23,19.03-3.44,12.73-6.89,25.52-10.34,38.3-6.77,25.57-13.52,51.1-20.11,76.01-6.57,24.91-12.98,49.2-19.08,72.32"/>
          <polygon class="cls-1" points="452.35 67.75 430.25 107.43 417.51 271.67 436.94 222.77 452.35 67.75"/>
          <polygon class="cls-1" points="344.7 28.54 358.56 20.25 362.03 18.18 362.13 18.11 362.19 18.08 362.22 18.07 362.23 18.06 362.24 18.08 362.49 18.52 362.99 19.39 363.99 21.13 365.98 24.61 373.95 38.54 405.83 94.26 528.08 340.57 463.71 237.2 402.89 110.01 372.48 46.42 364.88 30.52 362.98 26.55 362.74 26.05 362.68 25.93 362.63 25.94 362.53 25.95 362.11 26.01 361.28 26.13 357.97 26.61 344.7 28.54"/>
          <polygon class="cls-1" points="409.94 143.4 415.48 165.57 458.32 188.66 452.79 166.51 409.94 143.4"/>
          <polygon class="cls-1" points="415.82 165.66 420.68 187.4 464.85 216.09 459.99 194.36 415.82 165.66"/>
          <polygon class="cls-1" points="452.48 166.52 447.63 144.79 403.46 116.09 408.3 137.84 452.48 166.52"/>
          <path class="cls-1" d="M410.77,60l-30.09-23.33-15.05-11.67-1.88-1.46-.94-.73-.24-.18-.06-.05h-.01s0-.02-.01,0l-.03.05-.1.19-.41.77-3.24,6.15-6.48,12.29-88.35,238.53,44.4-90.78,47.9-123.04,5.99-15.38,1.5-3.84.19-.48.05-.12.05.02.11.03.44.12.87.24,3.49.97,13.97,3.9,27.94,7.8Z"/>
          <polygon class="cls-1" points="307.62 .86 329.9 55.02 355.46 223.9 332.76 175.5 307.62 .86"/>
          <polygon class="cls-1" points="312.63 116.41 309.1 139.43 348.29 116.57 351.82 93.56 312.63 116.41"/>
          <polygon class="cls-1" points="309.44 139.13 305.32 162.44 343.54 145.52 347.65 122.21 309.44 139.13"/>
          <polygon class="cls-1" points="351.46 93.99 355.58 70.67 317.36 87.62 313.23 110.93 351.46 93.99"/>
        </g>
      </g>
      <g>
        <path class="cls-1" d="M2.25,849.46c42.41,0,63.18,27.34,109.73,27.34v9.34c-46.54,0-67.32-27.33-109.73-27.33"/>
        <path class="cls-1" d="M2.25,887.99c45.11,0,67.41-27.32,108.51-27.32v9.34c-41.11,0-63.4,27.34-108.51,27.34"/>
        <path class="cls-1" d="M228.02,849.46c-42.41,0-63.18,27.34-109.73,27.34v9.34c46.54,0,67.32-27.33,109.73-27.33"/>
        <path class="cls-1" d="M228.02,887.99c-45.11,0-67.41-27.32-108.51-27.32v9.34c41.11,0,63.4,27.34,108.51,27.34"/>
        <polygon class="cls-1" points="85.89 833.4 101.48 862.78 153.85 912.9 135.84 883.79 85.89 833.4"/>
        <polygon class="cls-1" points="81.7 909.9 101.2 881.83 154.07 835.21 136.15 862.9 81.7 909.9"/>
        <polygon class="cls-1" points="115.65 889.64 121.59 889.82 122.08 856.38 116.14 856.2 115.65 889.64"/>
        <polygon class="cls-1" points="121.58 889.54 127.5 890.24 129.5 856.92 123.58 856.21 121.58 889.54"/>
        <polygon class="cls-1" points="116.19 856.48 110.27 855.79 108.27 889.11 114.19 889.81 116.19 856.48"/>
      </g>
    </g>
  </g>
</svg>