<?xml version="1.0" encoding="UTF-8"?>
<svg id="Layer_2" data-name="Layer 2" xmlns="http://www.w3.org/2000/svg" viewBox="0 0 83.25 671.09">
  <defs>
    <style>
      .cls-1 {
        fill: #bfbfbf;
        stroke: #000;
        stroke-linecap: round;
        stroke-width: 4.5px;
      }
    </style>
  </defs>
  <g id="Layer_2-2" data-name="Layer 2">
    <g>
      <g>
        <path class="cls-1" d="M65.33,2.25c0,62.6-27.34,93.27-27.34,161.98h-9.34c0-68.71,27.33-99.37,27.33-161.98"/>
        <path class="cls-1" d="M26.8,2.25c0,66.6,27.32,99.51,27.32,160.19h-9.34c0-60.68-27.34-93.59-27.34-160.19"/>
        <path class="cls-1" d="M65.33,335.53c0-62.6-27.34-93.27-27.34-161.98h-9.34c0,68.7,27.33,99.38,27.33,161.98"/>
        <path class="cls-1" d="M26.8,335.53c0-66.6,27.32-99.51,27.32-160.19h-9.34c0,60.68-27.34,93.59-27.34,160.19"/>
        <polygon class="cls-1" points="81.39 125.72 52.01 148.73 1.89 226.04 31 199.45 81.39 125.72"/>
        <polygon class="cls-1" points="4.89 119.54 32.95 148.32 79.57 226.36 51.89 199.91 4.89 119.54"/>
        <rect class="cls-1" x="37.39" y="157.67" width="8.77" height="33.45" transform="translate(-133.44 212.59) rotate(-88.82)"/>
        <polygon class="cls-1" points="25.25 178.4 24.55 187.14 57.87 190.1 58.58 181.36 25.25 178.4"/>
        <polygon class="cls-1" points="58.31 170.46 59 161.71 25.68 158.76 24.98 167.5 58.31 170.46"/>
      </g>
      <g>
        <path class="cls-1" d="M65.33,335.56c0,62.6-27.34,93.27-27.34,161.98h-9.34c0-68.71,27.33-99.37,27.33-161.98"/>
        <path class="cls-1" d="M26.8,335.56c0,66.6,27.32,99.51,27.32,160.19h-9.34c0-60.68-27.34-93.59-27.34-160.19"/>
        <path class="cls-1" d="M65.33,668.84c0-62.6-27.34-93.27-27.34-161.98h-9.34c0,68.7,27.33,99.38,27.33,161.98"/>
        <path class="cls-1" d="M26.8,668.84c0-66.6,27.32-99.51,27.32-160.19h-9.34c0,60.68-27.34,93.59-27.34,160.19"/>
        <polygon class="cls-1" points="81.39 459.03 52.01 482.04 1.89 559.35 31 532.76 81.39 459.03"/>
        <polygon class="cls-1" points="4.89 452.85 32.95 481.63 79.57 559.67 51.89 533.22 4.89 452.85"/>
        <rect class="cls-1" x="37.39" y="490.98" width="8.77" height="33.45" transform="translate(-466.68 539.05) rotate(-88.82)"/>
        <polygon class="cls-1" points="25.25 511.71 24.55 520.45 57.87 523.4 58.58 514.66 25.25 511.71"/>
        <polygon class="cls-1" points="58.31 503.76 59 495.02 25.68 492.07 24.98 500.8 58.31 503.76"/>
      </g>
    </g>
  </g>
</svg>