<?xml version="1.0" encoding="UTF-8"?>
<svg id="Layer_2" data-name="Layer 2" xmlns="http://www.w3.org/2000/svg" viewBox="0 0 206.52 187.09">
  <defs>
    <style>
      .cls-1 {
        fill: #bfbfbf;
        stroke: #000;
        stroke-linecap: round;
        stroke-width: 4.5px;
      }
    </style>
  </defs>
  <g id="Layer_2-2" data-name="Layer 2">
    <g>
      <path class="cls-1" d="M2.25,148.46c32.1-27.46,65.6-20.14,100.83-50.28l6.07,7.1c-35.23,30.14-68.72,22.83-100.82,50.29"/>
      <path class="cls-1" d="M27.3,177.74c34.15-29.22,33.26-64.41,64.37-91.04l6.07,7.1c-31.11,26.62-30.22,61.83-64.36,91.05"/>
      <path class="cls-1" d="M173.14,2.25c-32.1,27.46-30.05,61.69-65.28,91.83l6.07,7.1c35.23-30.14,33.19-64.36,65.29-91.82"/>
      <path class="cls-1" d="M198.19,31.53c-34.15,29.22-68.79,22.89-99.9,49.51l6.07,7.1c31.11-26.62,65.76-20.28,99.91-49.5"/>
      <polygon class="cls-1" points="55.12 82.09 86.02 94.32 158.24 98.49 125.68 88.03 55.12 82.09"/>
      <polygon class="cls-1" points="101.68 142.93 98.2 108.98 107.9 39.32 112.34 71.96 101.68 142.93"/>
      <polygon class="cls-1" points="114.21 105.55 118.82 101.84 97.45 76.12 92.84 79.83 114.21 105.55"/>
      <polygon class="cls-1" points="118.63 101.64 123.56 98.34 103.42 71.73 98.48 75.02 118.63 101.64"/>
      <polygon class="cls-1" points="93.07 80.01 88.13 83.32 108.28 109.93 113.22 106.63 93.07 80.01"/>
    </g>
  </g>
</svg>