<?xml version="1.0" encoding="UTF-8"?>
<svg id="Layer_2" data-name="Layer 2" xmlns="http://www.w3.org/2000/svg" viewBox="0 0 937.6 690.93">
  <defs>
    <style>
      .cls-1 {
        fill: #bfbfbf;
        stroke: #000;
        stroke-linecap: round;
        stroke-width: 4.5px;
      }
    </style>
  </defs>
  <g id="Layer_2-2" data-name="Layer 2">
    <g>
      <g>
        <g>
          <path class="cls-1" d="M41.66,2.25c33.99,49.26,28.15,88.92,65.46,142.99l-7.69,5.3C62.12,96.47,67.96,56.82,33.97,7.56"/>
          <path class="cls-1" d="M9.95,24.14c36.16,52.4,76.52,62.78,109.47,110.53l-7.69,5.3C78.78,92.22,38.41,81.85,2.25,29.45"/>
          <path class="cls-1" d="M222.64,264.51c-33.99-49.26-73.15-57.87-110.46-111.93l-7.69,5.3c37.31,54.06,76.45,62.68,110.45,111.94"/>
          <path class="cls-1" d="M190.93,286.39c-36.16-52.4-31.54-93.82-64.5-141.57l-7.69,5.3c32.95,47.75,28.32,89.17,64.48,141.58"/>
          <polygon class="cls-1" points="121.93 90.29 110.24 125.08 110.97 214.38 120.49 176.92 121.93 90.29"/>
          <polygon class="cls-1" points="55.61 128.87 94.33 135.58 175.08 170.51 137.93 165.42 55.61 128.87"/>
          <rect class="cls-1" x="99.03" y="146.9" width="33.44" height="8.38" transform="translate(-64.03 88.61) rotate(-33.38)"/>
          <polygon class="cls-1" points="104.33 163.63 108.5 170.9 137.52 154.3 133.36 147.02 104.33 163.63"/>
          <polygon class="cls-1" points="127.22 138.6 123.04 131.32 94.01 147.93 98.18 155.2 127.22 138.6"/>
        </g>
        <g>
          <path class="cls-1" d="M222.66,264.53c33.99,49.26,28.15,88.92,65.46,142.99l-7.69,5.3c-37.31-54.07-31.47-93.72-65.47-142.98"/>
          <path class="cls-1" d="M190.94,286.41c36.16,52.4,76.52,62.78,109.47,110.53l-7.69,5.3c-32.95-47.75-73.32-58.12-109.49-110.52"/>
          <path class="cls-1" d="M397.03,517.2c-6.73-9.75-13.73-16.88-21.38-23.46-1.91-1.64-3.86-3.24-5.84-4.82-1.01-.79-2.01-1.58-3.01-2.37l-1.52-1.18c-.24-.18-.54-.44-.83-.68l-.86-.73c-4.61-3.86-9.26-7.59-13.94-11.36-18.7-15.07-37.82-30.73-56.47-57.77l-7.69,5.3c18.65,27.03,37.77,42.7,56.47,57.77,4.67,3.77,9.32,7.5,13.93,11.36.57.47,1.17,1,1.7,1.42l1.6,1.29c1.05.86,2.1,1.72,3.15,2.58,2.08,1.73,4.13,3.47,6.14,5.26,8.06,7.17,15.5,14.95,22.73,25.43"/>
          <path class="cls-1" d="M373.12,550.41c-9.4-13.61-16.46-26.86-21.82-39.14-1.34-3.07-2.58-6.09-3.73-9.05-1.15-2.95-2.22-5.86-3.26-8.79-2.07-5.82-3.97-11.58-5.84-17.3-7.48-22.87-14.57-45.16-31.04-69.04l-7.69,5.3c16.48,23.87,23.56,46.17,31.04,69.04,3.8,11.53,7.34,22.67,13.29,35.8,5.79,12.9,13.32,26.83,23.26,41.22"/>
          <polygon class="cls-1" points="302.92 352.56 291.24 387.35 291.96 476.66 301.49 439.2 302.92 352.56"/>
          <polygon class="cls-1" points="236.6 391.15 275.32 397.85 356.07 432.79 318.93 427.7 236.6 391.15"/>
          <rect class="cls-1" x="280.03" y="409.17" width="33.44" height="8.38" transform="translate(-178.47 231.45) rotate(-33.38)"/>
          <polygon class="cls-1" points="285.32 425.9 289.49 433.18 318.51 416.58 314.35 409.3 285.32 425.9"/>
          <polygon class="cls-1" points="308.21 400.87 304.04 393.6 275 410.2 279.17 417.48 308.21 400.87"/>
        </g>
        <g>
          <path class="cls-1" d="M397.04,517.22c4.49,6.5,8.14,13.12,11.4,20.08,3.26,6.95,6.14,14.23,8.96,21.89,5.7,15.39,11.3,32.42,18.78,50.4,3.73,8.98,7.92,18.17,12.71,27.34,4.79,9.17,10.18,18.32,16.2,27.04l-.48,13.06c-6.35-8.82-12.07-17.65-17.23-26.69-2.57-4.53-5.01-9.01-7.28-13.68-2.26-4.78-4.38-9.52-6.38-14.21-8.03-18.77-14.13-36.52-20.36-52.68-3.09-8.03-6.23-15.7-9.78-23.07-3.56-7.38-7.51-14.45-12.34-21.43"/>
          <path class="cls-1" d="M373.13,550.43c5.88,8.52,11.7,15.77,17.3,21.89,5.6,6.13,10.99,11.13,16.11,15.31,11.39,9.4,21.5,14.82,30.88,20.97,4.7,3.09,9.24,6.39,13.8,10.65,4.56,4.26,9.13,9.47,14.02,16.55l-.63,15.52c-5.22-7.56-10.1-13.22-14.96-17.9-4.85-4.68-9.67-8.38-14.64-11.86-4.97-3.48-10.11-6.71-15.46-10.54-2.69-1.86-5.45-3.81-8.3-5.89-2.85-2.09-5.76-4.39-8.76-6.9-5.38-4.55-11.04-9.94-16.93-16.49-5.89-6.54-12.02-14.24-18.24-23.25"/>
          <path class="cls-1" d="M543.99,529c-6.7,9.76-11.67,20.02-16.28,31.27-4.59,11.23-8.81,23.4-13.56,36.38-4.75,12.96-10.04,26.71-16.51,40.67-3.23,6.98-6.76,14-10.6,20.93-.96,1.73-1.94,3.46-2.95,5.18-.5.85-1.01,1.71-1.52,2.57-.51.85-1.01,1.72-1.6,2.52-1.22,1.55-2.94,2.69-4.84,3.06-1.89.4-3.93.07-5.61-.97l-.2,13.13c1.77,1.06,3.92,1.41,5.9,1.04,2-.34,3.81-1.43,5.09-2.93.62-.77,1.15-1.61,1.69-2.44.54-.83,1.08-1.66,1.61-2.48,1.06-1.65,2.1-3.31,3.13-4.97,2.05-3.33,4.02-6.67,5.91-10.03.95-1.68,1.88-3.36,2.79-5.05.45-.85.91-1.7,1.35-2.54.45-.84.89-1.69,1.32-2.63,6.91-14.59,12.59-28.92,17.73-42.43,5.14-13.53,9.74-26.26,14.74-38.08,5.02-11.85,10.43-22.74,17.63-33.24"/>
          <path class="cls-1" d="M565.44,565.84c-9.36,13.63-18.4,23.82-26.76,31.43-8.36,7.69-16.05,12.84-23.19,17.21-7.15,4.38-13.75,7.96-20.22,12.87-3.24,2.46-6.46,5.26-9.74,8.73-1.65,1.72-3.27,3.65-5.02,5.72-1.82,2.05-5.3,2.87-8.26,1.79l-.15,16.06c3.16,1.15,6.88.27,8.82-1.95,1.87-2.23,3.59-4.33,5.36-6.21,3.5-3.78,6.93-6.89,10.37-9.64,3.44-2.75,6.91-5.16,10.45-7.5,3.54-2.37,7.2-4.5,10.9-7.32,7.43-5.33,15.55-10.75,24.42-18.8,2.2-2.05,4.46-4.22,6.75-6.61,2.28-2.4,4.6-4.98,6.96-7.75,4.71-5.54,9.57-11.87,14.51-19.07"/>
          <path class="cls-1" d="M453.32,570.51c.97,18.65,2.72,38.43,5.25,59.33,2.59,11.11,5.46,22.61,8.6,34.53.78,2.98,1.56,6.03,2.78,8.69,1.18,2.68,2.64,5.03,4.17,6.94l.58.71.14.18.14.09.29.18.58.36.57.29c.77.4,1.51.65,2.22.86,1.43.39,2.62.36,3.52.2,3.68-.63,7.59-.93,11.76-.96,2.09-.02,4.19.1,6.42.18,2.24.07,4.55.2,6.92.39-3.54-2.59-6.9-4.92-9.96-7.18-3.07-2.25-5.97-4.25-8.67-6l-1.34.12c-.11.04-.23-.05-.34-.11l-.34-.2-.68-.4c-.9-.54-1.78-1.11-2.65-1.7-.89-.61-1.66-1.16-2.64-1.92-1.01-.78-2.26-1.84-3.59-3.27-1.33-1.42-2.73-3.19-4.02-5.3-1.29-2.11-2.47-4.57-3.39-7.25-.92-2.69-1.52-5.62-2.21-8.42l-1.97-8.4c-5.11-22.19-9.16-42.84-12.13-61.94Z"/>
          <path class="cls-1" d="M435.51,670.89c3.98-2.01,7.6-4.14,11.03-5.96,1.71-.92,3.37-1.79,4.97-2.61l2.35-1.2,1.15-.57.57-.27.28-.14s.09-.04.14-.07l.15-.17c3.98-1.07,7.7-2.53,11.15-4.36.86-.47,1.66-.88,2.85-1.71,1.15-.81,2.51-1.94,3.89-3.5,1.38-1.55,2.76-3.46,3.95-5.71,1.21-2.24,2.18-4.85,2.86-7.59,5.61-21.91,10.19-42.31,13.72-61.19-1.67,18.75-4.19,38.72-7.54,59.91-1.41,5.52-2.89,11.14-4.44,16.86-.8,2.83-1.47,5.83-2.57,8.49-1.09,2.66-2.49,4.99-3.99,6.91-3,3.88-6.35,5.85-8.2,6.51l-1.43.52c-.47-.06-.94-.28-1.42-.4-.95-.29-1.91-.55-2.89-.79-3.93-1-8.03-1.62-12.44-2.07-2.21-.24-4.5-.42-6.84-.55-1.17-.06-2.36-.11-3.57-.14l-3.73-.21Z"/>
          <path class="cls-1" d="M467.52,684.79c1.58,2.3,4.39,3.8,7.28,3.85l.16-8.8.14-14.41.22-28.82c-2.33.09-4.73-1.06-6.14-3.03l-.87,28.2-.45,14.08-.33,8.93Z"/>
          <path class="cls-1" d="M474.78,688.36c2.88.28,5.71-.89,7.32-2.86l.16-9.19-.03-14.67-.19-29.16c-.69.75-1.29,1.56-2.07,2.23-.8.65-1.81,1.1-2.92,1.26-.27,9.68-.58,19.35-.97,28.97l-.61,14.43-.04.9c-.01.29-.03.65-.04.77l-.08,1.05-.17,2.09-.35,4.18Z"/>
          <path class="cls-1" d="M469.2,634.11c-1.36-2.28-2.64-4.61-3.95-6.9l-1.93,26.54-1.03,13.18-.13,1.64-.11,1.18-.21,2.08-.42,4.17,4.88,7.33.33-4.01.16-2,.08-1,.04-.54.05-.84.78-13.54,1.45-27.29Z"/>
        </g>
        <g>
          <path class="cls-1" d="M544,528.98c6.7-9.76,13.57-16.75,21.04-23.1,3.73-3.17,7.59-6.15,11.6-9.16,2.05-1.52,4.08-3.03,6.11-4.54l3.13-2.32,1.59-1.18c.54-.4,1.04-.76,1.65-1.27,18.66-15.12,37.74-30.83,56.32-57.91l7.7,5.28c-18.58,27.08-37.66,42.8-56.32,57.92-9,7.07-17.36,13.22-25.23,20.16-7.87,6.95-15.18,14.58-22.39,25.07"/>
          <path class="cls-1" d="M565.46,565.82c9.36-13.64,16.51-27.07,22-39.6,2.75-6.28,5.11-12.35,7.18-18.2,1.04-2.93,2.01-5.8,2.93-8.63.92-2.85,1.83-5.68,2.74-8.49,7.42-22.89,14.45-45.2,30.86-69.12l7.7,5.28c-16.41,23.92-23.43,46.23-30.86,69.12-3.67,11.39-7.99,23.72-13.92,36.89-5.92,13.16-13.54,27.27-23.43,41.69"/>
          <path class="cls-1" d="M715.56,278.98c-33.87,49.35-27.92,89-65.08,143.16l7.7,5.28c37.17-54.16,31.23-93.8,65.09-143.15"/>
          <path class="cls-1" d="M747.33,300.78c-36.03,52.5-76.36,62.98-109.18,110.82l7.7,5.28c32.83-47.84,73.17-58.31,109.2-110.81"/>
          <polygon class="cls-1" points="588.82 435.29 625.49 433.77 708.64 401.19 670.25 405.67 588.82 435.29"/>
          <polygon class="cls-1" points="648.55 483.44 640.98 444.88 644.76 356.98 653.28 393.49 648.55 483.44"/>
          <polygon class="cls-1" points="658.96 432.48 663.85 425.67 636.67 406.18 631.78 412.99 658.96 432.48"/>
          <polygon class="cls-1" points="663.61 425.52 668.91 419.03 643.04 397.85 637.73 404.34 663.61 425.52"/>
          <polygon class="cls-1" points="632.05 413.08 626.75 419.58 652.63 440.77 657.93 434.27 632.05 413.08"/>
        </g>
        <g>
          <path class="cls-1" d="M715.57,278.96c33.87-49.35,73-58.06,110.16-112.22l7.7,5.28c-37.17,54.16-76.29,62.88-110.15,112.23"/>
          <path class="cls-1" d="M747.35,300.76c36.03-52.5,31.3-93.9,64.12-141.74l7.7,5.28c-32.83,47.84-28.09,89.25-64.11,141.75"/>
          <path class="cls-1" d="M895.86,16.23c-33.87,49.35-27.92,89-65.08,143.16l7.7,5.28c37.17-54.16,31.23-93.8,65.09-143.15"/>
          <path class="cls-1" d="M927.64,38.03c-36.03,52.5-76.36,62.98-109.18,110.82l7.7,5.28c32.83-47.84,73.17-58.31,109.2-110.81"/>
          <polygon class="cls-1" points="769.12 172.54 805.8 171.02 888.94 138.44 850.56 142.93 769.12 172.54"/>
          <polygon class="cls-1" points="828.86 220.7 821.29 182.13 825.06 94.23 833.58 130.74 828.86 220.7"/>
          <polygon class="cls-1" points="839.26 169.73 844.15 162.92 816.97 143.43 812.08 150.24 839.26 169.73"/>
          <polygon class="cls-1" points="843.91 162.77 849.22 156.28 823.34 135.1 818.03 141.59 843.91 162.77"/>
          <polygon class="cls-1" points="812.36 150.34 807.06 156.83 832.93 178.02 838.24 171.53 812.36 150.34"/>
        </g>
      </g>
      <g>
        <g>
          <path class="cls-1" d="M333.36,220.73c4.31,11.41,6.51,22.06,7.9,32.98,1.38,10.91,1.95,22.06,2.78,33.93.83,11.86,1.93,24.44,4.26,37.84,2.32,13.38,5.88,27.64,11.4,42.22l-6.27,9.82c-5.77-15.27-9.56-30.12-12.09-44.04-2.54-13.95-3.83-27.02-4.84-39.36-1.02-12.35-1.76-23.98-3.34-35.4-1.59-11.44-4-22.64-8.55-34.68"/>
          <path class="cls-1" d="M297.31,234.36c5.65,14.93,12.14,27.28,18.79,37.62,6.66,10.37,13.49,18.77,20.04,26.45,6.56,7.69,12.84,14.65,18.55,22.51,5.72,7.88,10.85,16.62,15.31,28.41l-6.3,9.75c-4.69-12.4-10.03-21.69-15.94-30.07-5.9-8.37-12.37-15.81-19.11-23.98-6.74-8.16-13.76-17.06-20.62-27.96-6.85-10.88-13.57-23.81-19.47-39.41"/>
          <path class="cls-1" d="M424.56,461.94c-2.58-6.81-5.2-11.84-7.96-15.88-2.75-4.03-5.62-7.08-8.64-9.78-6.78-6.51-14.17-11.28-21.91-19.83-3.86-4.26-7.81-9.45-11.74-16.1-3.93-6.65-7.86-14.78-11.63-24.75l-6.13,10.19c3.95,10.44,8.04,19,12.12,26.05,4.09,7.05,8.17,12.61,12.16,17.22,8,9.25,15.63,14.66,22.67,21.86,3.16,3.1,6.19,6.56,9.11,11.03,2.92,4.48,5.72,9.98,8.49,17.3"/>
          <path class="cls-1" d="M410.37,530.85c-6.77-16.87-11.55-34.78-14.95-53.37-4.15-22.32-6.58-43.97-9.38-63.76-1.4-9.91-2.91-19.38-4.83-28.41-1.93-9.03-4.27-17.62-7.41-25.92l-6.1,10.27c3.3,8.73,5.79,17.71,7.86,27.12,2.06,9.4,3.7,19.23,5.24,29.48,3.06,20.48,5.74,42.8,10.17,65.86,3.71,18.23,8.82,35.74,15.98,52.15"/>
          <path class="cls-1" d="M379.23,296.63c-5.27,13.74-10.18,28.45-14.72,44.13-3.97,36.74-5.84,79.04-5.6,126.91,2.18-21.68,4.78-42.25,7.8-61.7,2.16-41.78,6.33-78.23,12.53-109.34Z"/>
          <path class="cls-1" d="M320.74,358.25c10.55,1.46,20.67,1.77,30.35.91,19.39,7.34,36.81,9.46,52.25,6.35-7.49,6.28-15.38,11.5-23.67,15.68-17.59-2.23-37.23-9.88-58.93-22.95Z"/>
          <polygon class="cls-1" points="352.93 386.11 355.81 394.22 377.7 357.57 375.3 350.71 352.93 386.11"/>
          <path class="cls-1" d="M355.98,393.89l2.54,8.69c7.38-11.88,14.71-23.9,21.98-36.06l-2.06-7.46c-7.43,11.75-14.92,23.36-22.46,34.83Z"/>
          <path class="cls-1" d="M375.13,351.08l-2.04-7.37c-7.79,10.81-15.63,21.48-23.52,32.01l2.51,8.62c7.74-10.95,15.42-22.03,23.05-33.26Z"/>
        </g>
        <g>
          <path class="cls-1" d="M424.57,461.95c4.08,10.78,7.05,23.47,9.78,37.93,2.72,14.44,5.18,30.61,7.97,47.65,2.78,17.03,5.9,34.93,9.76,52.39,3.85,17.43,8.46,34.46,13.94,48.93l-.23,18.67c-2.9-7.39-5.59-14.71-8.07-22.02-1.24-3.66-2.42-7.32-3.55-10.98-.56-1.86-1.12-3.69-1.66-5.5-.27-.92-.54-1.84-.8-2.75l-.4-1.38c-.13-.47-.26-1.11-.39-1.65-4.13-18.15-7.48-36.69-10.5-54.33-3.03-17.66-5.72-34.44-8.69-49.53-2.98-15.12-6.22-28.51-10.6-40.1"/>
          <path class="cls-1" d="M410.38,530.87c5.7,14.23,11.25,24.27,16.4,32.5.64,1.01,1.28,2.01,1.91,3,.32.48.63.96.94,1.44l.23.35.23.24.47.46c1.24,1.22,2.47,2.26,3.66,3.16,2.4,1.81,4.7,3.08,6.92,4.13,4.45,2.12,8.57,3.34,12.58,6.72,4.03,3.41,7.94,8.93,12.25,20.32l-.32,25.57c-4.6-12.17-8.78-18.39-13.05-22.44-2.13-2.02-4.28-3.48-6.49-4.79-1.1-.65-2.22-1.27-3.35-1.89l-.85-.47c-.14-.08-.29-.15-.43-.25l-.43-.59-1.73-2.36c-4.66-6.26-9.66-12.35-15.08-20.24-5.41-7.91-11.26-17.6-17.29-31.44"/>
          <path class="cls-1" d="M515.29,466.53c-4.17,11.08-7.31,24.28-10.21,39.28-2.89,14.98-5.54,31.72-8.48,49.26-2.94,17.53-6.18,35.86-10.12,53.61-1.97,8.87-4.1,17.59-6.44,25.92-1.17,4.17-2.38,8.23-3.65,12.17-.63,1.97-1.28,3.9-1.94,5.8-.16.48-.32.95-.54,1.39-.25.42-.55.82-.95,1.1-.77.58-1.79.81-2.73.6l-.02,18.79c.98.22,2.05,0,2.85-.56.42-.27.73-.66.99-1.07.23-.42.4-.89.57-1.36.69-1.9,1.38-3.76,2.05-5.59,1.34-3.72,2.63-7.41,3.86-11.08,1.24-3.67,2.43-7.31,3.57-10.92.57-1.82,1.13-3.62,1.68-5.4.27-.9.54-1.79.81-2.68l.4-1.34c.13-.46.26-1.11.39-1.66,4.17-18.38,7.63-37.27,10.78-55.35,3.16-18.1,6.01-35.38,9.12-50.95,3.12-15.59,6.5-29.42,10.94-41.23"/>
          <path class="cls-1" d="M527.38,536.61c-5.65,14.64-11.06,26.03-16.05,35.51-.62,1.17-1.24,2.33-1.85,3.47-.31.56-.61,1.12-.91,1.68l-.23.41-.23.22-.45.43c-1.21,1.13-2.4,2.09-3.56,2.91-2.33,1.64-4.57,2.74-6.73,3.65-4.33,1.82-8.36,2.83-12.34,6.14-1.99,1.66-3.97,3.89-6,7.15-1.01,1.63-2.04,3.52-3.08,5.72-.52,1.1-1.05,2.28-1.58,3.55-.29.62-.48,1.32-.87,1.93-.41.59-1.05,1.07-1.8,1.23l.08,26.08c.8-.18,1.49-.69,1.92-1.32.41-.65.62-1.39.92-2.06.56-1.35,1.12-2.62,1.67-3.8,1.1-2.37,2.19-4.42,3.26-6.21,2.14-3.57,4.24-6.11,6.34-8.06,2.1-1.95,4.21-3.3,6.36-4.47,1.08-.59,2.16-1.13,3.27-1.67l.83-.41c.14-.07.28-.12.42-.22l.41-.69,1.67-2.77c4.5-7.41,9.3-15.17,14.54-24.83,5.23-9.65,10.89-21.22,16.84-36.07"/>
          <path class="cls-1" d="M458.57,506.46c.66,29.44,1.79,60.12,3.4,92.05,1.6,16.04,3.37,32.53,5.3,49.46.26,2.11.45,4.26.78,6.35.35,2.08.93,4.04,1.6,5.77,1.35,3.48,3.08,6.03,4.05,7.76l.33.63c.03.05.04.1.07.15.02,0,.04-.02.06-.02l.12-.06c.14-.08.27-.17.41-.26l.82-.53,1.68-1.08c4.56-2.95,9.74-6.33,15.53-10.15-4.37-1.14-8.25-2.62-11.64-4.45l-.83.45-.05.03s-.02.01-.03.01l-.03-.07-.11-.28-.21-.56-.42-1.13c-.55-1.51-1.1-3.04-1.64-4.59-1.07-3.11-2.11-6.32-3.11-9.62-.26-.83-.48-1.65-.76-2.5-.28-.86-.75-1.81-1.32-2.95-1.14-2.27-2.65-5.32-3.62-9.06-.5-1.86-.81-3.89-1.01-5.94l-.63-6.12-1.22-12.12c-3.16-32.1-5.67-62.49-7.54-91.17Z"/>
          <path class="cls-1" d="M447.97,656.2c2.4-1.5,4.66-2.82,6.77-3.98,1.06-.58,2.08-1.12,3.06-1.61l1.45-.71.7-.33.35-.16.17-.08s.06,0,.09-.06l.09-.39c2.38-4.68,4.61-9.78,6.67-15.3.27-.7.49-1.37.8-2.1.32-.73.85-1.58,1.47-2.65,1.25-2.12,2.84-5.14,3.71-8.87.45-1.85.64-3.86.87-5.84l.67-5.92,1.3-11.73c3.39-31.08,6.21-60.66,8.46-88.74-1.09,29.11-2.63,59.43-4.62,90.96-1.71,15.68-3.57,31.74-5.57,48.19-.24,2.06-.5,4.14-1.05,6.02-.52,1.89-1.24,3.59-2,5.02-.75,1.44-1.53,2.64-2.19,3.61-.66.97-1.17,1.7-1.45,2.33l-.85,1.9s-.04.11-.05.08l-.05-.04-.11-.09-.21-.17-.43-.34c-.57-.45-1.16-.88-1.75-1.3-4.75-3.37-10.18-5.95-16.29-7.73Z"/>
          <path class="cls-1" d="M467.59,675.75c.44,1.27,1.68,2.24,3.07,2.37,1.38.17,2.81-.48,3.47-1.6v-9.67s-.13-23.39-.13-23.39l-.27-46.73c-.36,1.01-1.38,1.75-2.53,1.75-1.13.04-2.31-.64-2.85-1.74l-.42,46.22-.35,32.8Z"/>
          <path class="cls-1" d="M474.13,676.25c1.07-2.24,2.02-4.64,3.04-6.95l.04-9.27-.1-23.39-.28-46.59-2.47,4.55v47.33s-.02,23.76-.02,23.76v2.65s-.03,1.14-.03,1.14l-.06,2.26-.11,4.52Z"/>
          <path class="cls-1" d="M468.38,597.57c-.88-2.74-1.62-5.52-2.42-8.25l-1.04,44.35-.56,22.07-.07,2.75-.02.66-.02.25-.03.5-.12,2.01-.25,4.02,3,8.16.17-3.93.08-1.96.04-.98.02-.6.03-1.4.41-22.47.78-45.17Z"/>
        </g>
        <g>
          <path class="cls-1" d="M515.3,466.51c4.17-11.08,8.38-17.44,12.9-22.17,4.51-4.71,9.31-7.76,14.41-11.61,5.09-3.84,10.49-8.48,16.04-15.96,5.54-7.46,11.26-17.81,16.72-32.34l5.74,8.7c-2.88,7.53-5.82,14.28-8.75,20.42-1.47,3.07-2.93,5.98-4.39,8.75-.74,1.37-1.46,2.73-2.18,4.07-.36.66-.73,1.31-1.09,1.96l-.54.96c-.18.31-.36.53-.54.8-5.79,8.11-11.4,13.32-16.7,17.72-5.31,4.41-10.31,8.01-15.04,13.31-4.74,5.33-9.19,12.31-13.63,24.12"/>
          <path class="cls-1" d="M527.38,536.59c5.65-14.64,10.02-28.77,13.44-42.36.42-1.71.83-3.4,1.25-5.08.2-.84.4-1.68.59-2.52l.15-.63.14-.76.28-1.53c.75-4.07,1.45-8.13,2.1-12.16,1.32-8.06,2.48-16,3.57-23.75,2.18-15.51,4.06-30.2,6.42-43.77,2.37-13.59,5.22-26.02,9.58-37.6l5.73,11.3c-4.62,12.29-7.7,25.34-10.29,39.52-1.29,7.08-2.46,14.42-3.6,22.01-.57,3.87-1.14,7.72-1.71,11.56l-.43,2.94-.22,1.47-.22,1.2c-.3,1.61-.59,3.21-.89,4.82-2.41,12.9-5.14,26.14-8.81,39.91-3.66,13.77-8.29,28.08-14.23,42.93"/>
          <path class="cls-1" d="M604.2,230.06c-4.17,11.08-6.24,21.46-7.56,32.23-1.3,10.74-1.82,21.84-2.65,33.74-.82,11.88-1.94,24.57-4.28,38.1-2.34,13.5-5.92,27.87-11.38,42.4l5.9,8.41c2.88-7.53,5.29-14.78,7.29-21.77,1-3.5,1.9-6.93,2.72-10.31.41-1.69.79-3.36,1.15-5.02.18-.83.35-1.66.53-2.48.17-.81.34-1.64.5-2.55,2.58-14.15,3.92-27.4,4.95-39.84,1.03-12.46,1.76-24.1,3.29-35.44,1.53-11.36,3.85-22.37,8.29-34.18"/>
          <path class="cls-1" d="M640.27,243.63c-5.65,14.64-12.14,26.8-18.74,37.44-.84,1.32-1.67,2.63-2.49,3.92-.83,1.29-1.66,2.57-2.49,3.72-1.67,2.34-3.33,4.58-4.99,6.72-3.32,4.29-6.62,8.21-9.85,11.93-6.45,7.46-12.6,14.11-18.17,21.64-5.58,7.56-10.56,15.96-14.92,27.55l5.95,10.7c4.62-12.29,9.84-21.31,15.64-29.45,2.9-4.06,5.93-7.89,9.08-11.7,1.61-1.92,3.2-3.84,4.8-5.74l1.22-1.45.61-.73.62-.83c.83-1.11,1.65-2.23,2.48-3.35,6.65-8.95,13.62-18.25,20.47-29.06,6.84-10.81,13.59-23.15,19.53-38"/>
          <path class="cls-1" d="M539.48,356.57c7.16,8.79,14.73,16.47,22.73,23.03,4.33.34,8.82.28,13.45-.18,2.32-.23,4.67-.56,7.07-.99.6.03,1.2-.58,1.8-.94l1.81-1.23,3.66-2.5,31.34-21.44c-10.49,3.24-20.49,6.12-30.01,8.66l-1.82,1.16c-.15.12-.3.13-.45.17l-.45.09-.91.17c-1.21.23-2.4.43-3.59.61-2.38.36-4.72.62-7.02.78-4.61.33-9.07.27-13.4-.17-8.64-.88-16.71-3.29-24.2-7.23Z"/>
          <path class="cls-1" d="M578.66,447.6c-.64-7.37-1.41-14.65-2.31-21.84-.45-3.59-.93-7.17-1.44-10.71l-1.63-10.73c-.62-42.51-3.49-79.02-8.63-109.51,4.64,13.87,8.83,28.95,12.57,45.24.72,9.21,1.3,18.81,1.73,28.79.21,4.99.39,10.09.53,15.27l.18,7,.11,6.12c.23,16.36-.14,33.15-1.1,50.37Z"/>
          <path class="cls-1" d="M585.11,390.39l3.11-7.62-2.64-2.44-1.32-1.22-.66-.61c-.11-.12-.22-.16-.33-.35l-.33-.6-5.33-9.59-10.67-19.14-2.56,6.31,10.39,19.86,5.19,9.95.32.62.16.31.16.16.64.62,1.29,1.24,2.57,2.49Z"/>
          <path class="cls-1" d="M588.04,382.62l3.44-7.31-2.6-2.62-1.3-1.31-.65-.66-.33-.33c-.11-.13-.22-.17-.33-.41l-5.27-9.64c-3.52-6.4-7.06-12.77-10.62-19.09l-2.91,5.73c3.47,6.56,6.92,13.17,10.35,19.81l5.14,10,.32.63c.11.2.21.46.32.52l.64.67,1.27,1.34,2.54,2.67Z"/>
          <path class="cls-1" d="M564.58,355.4l-2.87,5.67,9.74,21.43,4.84,10.81.6,1.36c.05.11.1.24.15.33l.15.17.3.35,1.19,1.39,2.38,2.78,3.41-7.29-2.45-2.74-1.23-1.37-.61-.68c-.1-.13-.2-.19-.31-.38l-.31-.66-4.97-10.45-10.01-20.72Z"/>
        </g>
      </g>
      <g>
        <path class="cls-1" d="M501.4,212.88c0,83.53-27.34,124.44-27.34,216.11h-9.34c0-91.67,27.33-132.59,27.33-216.11"/>
        <path class="cls-1" d="M462.87,212.88c0,88.85,27.32,132.76,27.32,213.72h-9.34c0-80.96-27.34-124.87-27.34-213.72"/>
        <path class="cls-1" d="M501.4,657.55c0-83.53-27.34-124.45-27.34-216.11h-9.34c0,91.67,27.33,132.59,27.33,216.11"/>
        <path class="cls-1" d="M462.87,657.55c0-88.85,27.32-132.76,27.32-213.72h-9.34c0,80.96-27.34,124.87-27.34,213.72"/>
        <polygon class="cls-1" points="517.46 377.61 488.08 408.32 437.96 511.46 467.07 475.99 517.46 377.61"/>
        <polygon class="cls-1" points="440.96 369.37 469.03 407.76 515.65 511.89 487.96 476.6 440.96 369.37"/>
        <polygon class="cls-1" points="461.22 436.23 461.04 447.93 494.48 448.88 494.66 437.19 461.22 436.23"/>
        <polygon class="cls-1" points="461.32 447.9 460.62 459.56 493.94 463.5 494.65 451.84 461.32 447.9"/>
        <polygon class="cls-1" points="494.38 437.3 495.07 425.63 461.75 421.69 461.05 433.35 494.38 437.3"/>
      </g>
    </g>
  </g>
</svg>