<?xml version="1.0" encoding="UTF-8"?>
<svg id="Layer_2" data-name="Layer 2" xmlns="http://www.w3.org/2000/svg" viewBox="0 0 427.85 943.21">
  <defs>
    <style>
      .cls-1 {
        fill: #bfbfbf;
        stroke: #000;
        stroke-linecap: round;
        stroke-width: 4.5px;
      }
    </style>
  </defs>
  <g id="Layer_2-2" data-name="Layer 2">
    <g>
      <g>
        <g>
          <path class="cls-1" d="M62.58,914.8c-2.09-35.16,24.17-54.01,21.87-92.6l9.32-.55c2.3,38.59-23.96,57.44-21.86,92.6"/>
          <path class="cls-1" d="M101.05,912.51c-2.23-37.41-30.6-54.27-32.63-88.35l9.32-.55c2.03,34.08,30.42,50.94,32.65,88.35"/>
          <path class="cls-1" d="M51.44,727.61c2.09,35.16,30.41,50.76,32.71,89.35l9.32-.56c-2.3-38.59-30.6-54.19-32.69-89.35"/>
          <path class="cls-1" d="M89.91,725.32c2.23,37.41-23.95,57.51-21.92,91.6l9.32-.55c-2.03-34.08,24.16-54.19,21.93-91.6"/>
          <polygon class="cls-1" points="42.42 846.41 70.98 831.74 118.43 785.34 90.26 802 42.42 846.41"/>
          <polygon class="cls-1" points="118.99 845.33 90.02 830.84 40.87 789.77 69.39 802.98 118.99 845.33"/>
          <polygon class="cls-1" points="97.1 818.39 96.98 813.45 63.58 815.04 63.69 819.97 97.1 818.39"/>
          <polygon class="cls-1" points="96.7 813.48 97.11 808.53 63.75 808.85 63.34 813.8 96.7 813.48"/>
          <polygon class="cls-1" points="63.97 819.91 63.57 824.86 96.93 824.54 97.34 819.59 63.97 819.91"/>
        </g>
        <g>
          <path class="cls-1" d="M138.55,556.31c14.5-9.3,28.1-15.43,41.41-20.24,6.58-2.36,13.58-4.7,19.08-5.99,5.89-1.53,12-3.11,18.38-4.95,4.88-1.4,9.92-2.95,15.13-4.74,2.6-.9,5.25-1.85,7.94-2.88,1.33-.53,2.74-.98,3.99-1.69,1.25-.7,2.35-1.6,3.25-2.65.92-1.04,1.5-2.26,2.11-3.48.61-1.22,1.23-2.48,1.83-3.76,1.21-2.57,2.41-5.26,3.58-8.09,2.34-5.65,4.57-11.82,6.63-18.54l8.64,3.69c-2.19,7.12-4.54,13.69-7.02,19.69-1.24,3-2.5,5.87-3.77,8.6-.64,1.37-1.27,2.71-1.91,4.02-.64,1.31-1.23,2.62-2.19,3.74-.93,1.13-2.07,2.11-3.37,2.87-1.31.76-2.8,1.25-4.2,1.83-2.83,1.12-5.61,2.16-8.35,3.14-5.48,1.97-10.78,3.69-15.92,5.25-6.72,2.06-13.16,3.85-19.38,5.59-5.98,1.59-12.78,3.81-19.4,6.2-13.32,4.82-26.91,10.94-41.41,20.25"/>
          <path class="cls-1" d="M159.35,588.75c14.77-9.48,26.44-19.34,36.59-29.32,5.05-4.98,9.85-10.06,14.13-14.93,4.31-4.88,8.24-9.64,12.01-14.24,3.19-3.89,6.26-7.68,9.35-11.34,1.55-1.83,3.1-3.64,4.68-5.41.78-.9,1.63-1.71,2.3-2.77.68-1.04,1.23-2.23,1.59-3.52.39-1.28.49-2.69.65-4.06.16-1.38.33-2.75.52-4.12.37-2.74.81-5.46,1.31-8.19,1.01-5.45,2.31-10.9,4.03-16.49l8.6,3.79c-1.84,5.98-3.25,11.79-4.36,17.59-.56,2.9-1.04,5.79-1.47,8.7-.21,1.45-.41,2.91-.6,4.36-.19,1.45-.31,2.94-.74,4.3-.41,1.36-1.01,2.62-1.75,3.72-.73,1.11-1.66,1.97-2.51,2.91-1.72,1.86-3.41,3.76-5.1,5.68-3.37,3.84-6.7,7.79-10.16,11.86-4.08,4.8-8.33,9.76-12.97,14.85-1.17,1.27-2.36,2.55-3.55,3.84-1.19,1.26-2.39,2.53-3.6,3.82-2.37,2.51-4.81,5.01-7.35,7.5-10.15,9.98-21.82,19.85-36.59,29.33"/>
          <path class="cls-1" d="M284.55,312.4c-8.95,29.13-9.08,52.83-9.43,77.25-.18,12.21-.4,24.59-1.82,37.92-.71,6.66-1.71,13.56-3.15,20.8-1.43,7.19-3.36,14.93-5.7,22.54l8.79,3.18c2.55-8.29,4.38-15.71,5.83-22.98,1.44-7.23,2.44-14.13,3.15-20.8,1.41-13.33,1.65-25.71,1.82-37.92.35-24.41.49-48.12,9.44-77.25"/>
          <path class="cls-1" d="M321.38,323.72c-9.52,30.99-23.16,52.13-36.59,72.58-6.71,10.23-13.38,20.28-19.44,31.31-3.03,5.51-5.92,11.27-8.59,17.41-1.33,3.07-2.61,6.24-3.83,9.52-.3.82-.6,1.65-.9,2.48-.28.82-.57,1.64-.86,2.47-.51,1.47-.99,2.96-1.46,4.49l8.82,3.08c.5-1.63,1.02-3.23,1.56-4.8.56-1.63,1.16-3.35,1.77-4.98,1.22-3.28,2.5-6.45,3.83-9.52,2.67-6.14,5.55-11.9,8.59-17.41,6.07-11.03,12.73-21.08,19.45-31.31,13.43-20.45,27.08-41.59,36.6-72.58"/>
          <path class="cls-1" d="M214.11,486.89c9.95,1.19,20.2,1.01,30.92-.48,5.36-3.23,10.87-6.93,16.52-11.11,2.83-2.09,5.69-4.3,8.59-6.63l8.75-7.14,35.01-28.61-35.43,16.19-17.3,13.43c-5.65,4.08-11.15,7.7-16.52,10.87-10.74,6.32-20.86,10.84-30.54,13.49Z"/>
          <path class="cls-1" d="M274.12,539.23c.12-3.3-.17-6.98-1.13-10.75-.98-3.78-2.07-7.52-3.22-11.19-2.32-7.36-4.95-14.47-7.77-21.21-1.62-7.94-3.39-15.44-5.28-22.49-.95-3.52-1.93-6.94-2.95-10.24l-.77-2.45-.39-1.21c-.13-.4-.24-.89-.35-1.33l-1.39-5.39-11.13-43.16,18.9,32.74,2.74,11.07,1.37,5.54c.46,1.84.9,3.72,1.39,5.47,1.91,7.13,3.67,14.72,5.3,22.77,1.62,8.05,3.13,16.6,4.23,25.44.55,4.42,1.01,8.9,1.35,13.43.14,2.25.4,4.57.25,6.77-.13,2.2-.55,4.3-1.14,6.2Z"/>
          <path class="cls-1" d="M275.38,479.08l2.8-8.49c-10.52-3.7-21.06-7.36-31.61-10.97l-2.27,6.76c10.37,4.19,20.73,8.42,31.08,12.7Z"/>
          <path class="cls-1" d="M277.91,470.52l3.21-8.06-31-12.53-3.17,7.91c10.38,4.03,20.71,8.26,30.97,12.68Z"/>
          <path class="cls-1" d="M244.59,466.42l-2.73,6.53c9.99,5.32,19.91,10.83,29.78,16.54l3.26-8.23c-10.04-5.14-20.15-10.09-30.31-14.84Z"/>
        </g>
        <g>
          <path class="cls-1" d="M284.56,312.38c17.89-58.25,52.79-78.76,72.43-142.7l8.93,2.74c-19.64,63.93-54.53,84.45-72.42,142.7"/>
          <path class="cls-1" d="M321.39,323.7c19.04-61.97,2.32-100.62,19.67-157.08l8.93,2.74c-17.35,56.47-.62,95.12-19.66,157.09"/>
          <path class="cls-1" d="M379.82,2.25c-17.89,58.25-.53,94.82-20.17,158.75l8.93,2.74c19.64-63.93,2.29-100.5,20.18-158.75"/>
          <path class="cls-1" d="M416.66,13.57c-19.04,61.97-54.56,84.57-71.91,141.04l8.93,2.74c17.35-56.47,52.89-79.06,71.92-141.03"/>
          <polygon class="cls-1" points="304.5 192.77 339.16 179.99 409.17 122.77 373.74 138.96 304.5 192.77"/>
          <polygon class="cls-1" points="375.86 220.99 357.26 185.97 335 99.66 353.91 132.4 375.86 220.99"/>
          <rect class="cls-1" x="352.01" y="142.39" width="8.54" height="33.45" transform="translate(93.43 447.49) rotate(-71.72)"/>
          <polygon class="cls-1" points="373.22 160.24 376.39 152.31 345.39 139.78 342.21 147.7 373.22 160.24"/>
          <polygon class="cls-1" points="339.35 157.92 336.19 165.86 367.2 178.39 370.37 170.46 339.35 157.92"/>
        </g>
        <g>
          <path class="cls-1" d="M164.52,596.79l-.84.55-.85.53-.85.52-.86.5-.87.49-.87.47-.88.46-.88.44-.89.43-.89.42c-.6.27-1.2.53-1.8.79-.61.25-1.21.49-1.81.74-.61.23-1.22.46-1.83.69-.62.21-1.23.43-1.84.64-.62.2-1.24.4-1.85.59-.62.18-1.24.36-1.86.54-.63.17-1.25.33-1.87.5-.63.15-1.26.3-1.88.45-.63.14-1.26.27-1.88.41-.63.12-1.26.25-1.89.37-.63.11-1.26.22-1.89.33-.63.1-1.26.19-1.89.29-.63.08-1.26.17-1.89.25-.63.07-1.26.14-1.89.22-.63.06-1.26.12-1.88.18-.63.05-1.25.1-1.87.15-.63.04-1.25.08-1.87.12-.62.03-1.24.06-1.86.08-.62.02-1.23.04-1.85.06-.61,0-1.23.02-1.83.03-.61,0-1.22,0-1.82,0-.6,0-1.21-.02-1.8-.02-.6-.02-1.19-.03-1.78-.05-.59-.02-1.18-.05-1.76-.07-.59-.03-1.17-.06-1.74-.09-.58-.04-1.15-.08-1.72-.11-.57-.04-1.14-.09-1.69-.13-.56-.05-1.12-.1-1.67-.15-.55-.06-1.1-.11-1.64-.16-1.09-.13-2.15-.25-3.19-.37-1.05-.14-2.07-.28-3.06-.42-1-.16-1.97-.31-2.92-.46-.95-.17-1.87-.33-2.76-.48-.89-.17-1.76-.34-2.59-.5-.83-.17-1.64-.34-2.4-.5-.77-.17-1.51-.34-2.21-.49-.7-.17-1.37-.33-2-.48-.63-.16-1.22-.31-1.77-.45-.55-.15-1.07-.28-1.54-.41-.47-.13-.9-.25-1.29-.36-.77-.23-1.37-.41-1.77-.52-.4-.13-.61-.19-.61-.19.58.12,1.17.25,1.76.37.59.11,1.17.22,1.77.33.59.1,1.18.19,1.77.29.59.08,1.18.17,1.78.25.59.07,1.19.14,1.78.22.59.06,1.19.12,1.79.18.59.05,1.19.1,1.79.14.59.04,1.19.07,1.79.11.59.02,1.19.05,1.79.07.59.01,1.19.03,1.79.04h1.79s1.78,0,1.78,0l1.78-.05,1.77-.08,1.77-.1,1.76-.13,1.75-.15,1.74-.18,1.73-.2,1.72-.22,1.71-.24,1.7-.26,1.68-.28,1.67-.3c1.1-.22,2.2-.43,3.29-.64,1.08-.23,2.15-.47,3.21-.7,1.05-.25,2.1-.5,3.13-.75,1.02-.26,2.04-.53,3.04-.78.99-.27,1.98-.55,2.94-.81.96-.28,1.91-.56,2.84-.83.92-.29,1.83-.57,2.72-.85.88-.29,1.75-.57,2.6-.85.84-.29,1.67-.57,2.47-.84.8-.28,1.58-.56,2.33-.83.75-.28,1.48-.55,2.18-.81.7-.27,1.38-.53,2.03-.78,1.29-.52,2.48-.99,3.56-1.42,1.07-.45,2.02-.84,2.84-1.19,1.64-.71,2.76-1.19,3.25-1.4"/>
          <path class="cls-1" d="M99.24,724.76c-.01-.15-.03-.3-.04-.45-.02-.15-.03-.3-.05-.46-.04-.31-.09-.63-.13-.95-.06-.33-.12-.66-.18-1-.07-.34-.14-.69-.22-1.05-.08-.36-.17-.73-.25-1.1-.1-.37-.19-.75-.29-1.14-.11-.39-.22-.78-.33-1.19-.12-.4-.24-.81-.36-1.22-.13-.41-.26-.83-.4-1.26-.14-.43-.28-.86-.43-1.3-.31-.87-.62-1.77-.94-2.69-.34-.92-.69-1.85-1.05-2.81-.38-.95-.76-1.92-1.15-2.91-.41-.98-.82-1.98-1.24-2.99-.43-1.01-.87-2.03-1.31-3.05-.46-1.03-.91-2.06-1.38-3.1-.47-1.04-.95-2.08-1.43-3.13-.49-1.05-.98-2.1-1.47-3.15l-1.5-3.14c-1.02-2.09-2.04-4.16-3.04-6.21-1.03-2.04-2.04-4.04-3.03-5.99-1.01-1.94-1.98-3.83-2.92-5.63-.95-1.8-1.86-3.52-2.72-5.14-.87-1.61-1.68-3.13-2.43-4.51-1.52-2.76-2.76-5.02-3.62-6.59-.88-1.56-1.37-2.44-1.37-2.44l-8,3.13c.54.84,1.09,1.69,1.64,2.56.53.87,1.07,1.75,1.61,2.63.52.89,1.05,1.79,1.58,2.69.51.91,1.03,1.83,1.55,2.75.5.93,1.01,1.86,1.52,2.79.49.94.99,1.88,1.49,2.83.48.95.97,1.9,1.46,2.86l1.42,2.87,1.38,2.88c.45.96.9,1.92,1.34,2.88.44.96.87,1.92,1.3,2.87.42.96.84,1.91,1.26,2.85.41.95.82,1.89,1.22,2.82.4.94.79,1.86,1.18,2.78.75,1.84,1.49,3.65,2.21,5.41.69,1.77,1.37,3.49,2.02,5.15.63,1.67,1.23,3.27,1.81,4.81.56,1.54,1.09,3.01,1.6,4.4.49,1.39.94,2.7,1.37,3.91.41,1.21.79,2.33,1.13,3.35.33,1.02.62,1.92.88,2.71.24.79.45,1.46.61,2,.08.27.15.51.2.71.05.21.1.38.14.51"/>
          <path class="cls-1" d="M138.55,556.31c-.67.39-1.34.78-2.01,1.17l-2.04,1.14-2.06,1.11-2.08,1.08-2.09,1.06-2.1,1.03c-1.41.67-2.81,1.34-4.2,2-2.81,1.29-5.57,2.57-8.26,3.81-1.34.62-2.67,1.23-3.96,1.84-1.29.62-2.56,1.22-3.8,1.81-.61.3-1.22.61-1.82.9-.59.3-1.18.61-1.76.9-.57.31-1.14.61-1.7.9-.55.31-1.09.61-1.63.91-.53.31-1.04.62-1.55.92-.5.31-.99.62-1.47.92-.24.16-.47.31-.7.47-.23.16-.46.31-.68.47-.22.16-.44.32-.66.47-.21.16-.42.32-.63.47-.21.16-.41.32-.61.48-.2.16-.39.32-.58.48-.19.16-.37.33-.56.49-.18.17-.36.33-.53.49-.17.17-.34.33-.5.49-.16.17-.32.33-.48.5-.15.17-.3.34-.45.5-.14.17-.28.34-.42.51-.13.17-.26.35-.39.51-.12.18-.24.35-.36.52-.11.18-.22.35-.32.53l-.15.27-.14.27-.13.27-.13.27-.12.27-.11.27-.1.27-.09.28-.08.28-.07.28,1.77,6c.16-.13.33-.26.51-.4.18-.13.37-.27.56-.42.39-.28.81-.57,1.25-.88.45-.3.93-.62,1.42-.95.51-.32,1.03-.66,1.58-1.01.55-.34,1.13-.69,1.72-1.06.6-.36,1.22-.72,1.85-1.1.64-.37,1.3-.75,1.97-1.14.68-.38,1.36-.77,2.07-1.17,1.41-.78,2.88-1.59,4.38-2.41,1.51-.81,3.05-1.63,4.6-2.47,1.56-.82,3.14-1.64,4.71-2.47,1.58-.81,3.15-1.62,4.71-2.42,3.12-1.57,6.15-3.1,8.93-4.5,2.8-1.38,5.36-2.64,7.52-3.71,4.35-2.11,7.13-3.45,7.13-3.45"/>
          <path class="cls-1" d="M51.43,727.61s-.07-.33-.21-.96c-.13-.62-.33-1.54-.58-2.71-.23-1.17-.51-2.61-.83-4.26-.15-.83-.31-1.71-.48-2.64-.16-.93-.33-1.91-.51-2.94-.17-1.03-.34-2.1-.52-3.22-.17-1.12-.34-2.27-.52-3.46-.16-1.19-.33-2.42-.51-3.68-.16-1.26-.32-2.56-.48-3.88-.15-1.32-.29-2.67-.45-4.04-.13-1.37-.26-2.77-.39-4.18-.11-1.41-.22-2.85-.33-4.29-.05-.72-.09-1.45-.14-2.18-.04-.73-.08-1.46-.12-2.2-.03-.73-.06-1.47-.09-2.21l-.07-2.22-.05-2.23-.02-2.23v-2.23s.05-2.23.05-2.23l.07-2.22c.04-.74.07-1.48.11-2.21.05-.73.09-1.47.14-2.2.06-.73.12-1.46.18-2.18.07-.72.14-1.44.22-2.16.09-.72.17-1.43.26-2.13.1-.71.2-1.41.3-2.11.11-.7.23-1.39.34-2.08.13-.69.26-1.37.39-2.04.15-.67.29-1.34.43-2l.23-.99c.08-.33.16-.65.25-.98.09-.32.17-.65.26-.97.09-.32.18-.64.27-.95.1-.32.19-.63.28-.94.1-.31.2-.62.3-.93.1-.31.21-.61.31-.92.11-.3.22-.6.32-.9.11-.3.23-.59.34-.89.12-.29.23-.59.35-.88.12-.29.24-.58.36-.86.13-.28.25-.57.38-.85.13-.28.26-.56.39-.83.14-.27.27-.54.41-.81.14-.27.28-.53.42-.8.15-.26.29-.52.44-.78.15-.26.3-.51.45-.76.16-.25.31-.5.47-.75.16-.25.32-.49.48-.73.17-.24.33-.48.5-.71.17-.23.35-.46.52-.69.18-.23.36-.45.53-.67.18-.22.37-.44.55-.65.19-.21.38-.42.56-.63.2-.21.39-.41.58-.61.2-.2.4-.4.6-.59.21-.19.41-.38.62-.57.21-.18.42-.37.63-.55.22-.18.44-.35.65-.52.23-.17.45-.34.67-.5l.34-.24.09-.06.02-.02s0-.02,0-.02v-.05s-.01-.21-.01-.21c0-.28-.01-.55-.02-.82l6.74-8.26-.19.66-.17.68-.15.7-.13.71-.1.73-.08.75-.06.76-.04.78v.79s0,.81,0,.81l.03.82.05.84.07.85.09.87.11.88.13.9-.59.54-.58.55-.56.56-.55.57-.53.58-.52.59-.5.6-.49.62-.47.63-.46.64-.44.65-.43.66-.42.67-.4.68-.39.69-.38.7-.36.71-.35.72-.34.73-.32.74-.31.75-.3.76-.29.77-.27.77-.26.78-.25.79-.24.8-.23.81c-.14.54-.28,1.09-.42,1.64-.12.55-.25,1.11-.38,1.67-.11.56-.22,1.13-.33,1.7-.1.57-.19,1.15-.29,1.72-.08.58-.17,1.16-.25,1.75-.07.59-.14,1.18-.21,1.78-.06.6-.12,1.2-.18,1.8-.05.6-.09,1.21-.14,1.82-.04.61-.07,1.23-.11,1.84-.02.62-.05,1.24-.07,1.86-.01.62-.03,1.25-.04,1.88,0,.63,0,1.26-.01,1.9,0,.64.01,1.27.02,1.92.01.64.03,1.28.04,1.93.02.65.05,1.29.07,1.94.03.65.06,1.3.1,1.96.04.65.08,1.31.12,1.97.05.66.09,1.32.14,1.98.11,1.32.23,2.65.34,3.98.14,1.33.28,2.66.42,4,.16,1.34.32,2.67.48,4.01l.53,4.02c.19,1.34.38,2.68.57,4.01.2,1.33.4,2.67.59,3.99.41,2.65.82,5.29,1.23,7.89.41,2.6.82,5.17,1.22,7.7.38,2.53.75,5.01,1.11,7.43"/>
          <polygon class="cls-1" points="37.02 560.17 61.06 587.01 126.48 633.58 100.22 606.9 37.02 560.17"/>
          <polygon class="cls-1" points="44.18 626.98 55.08 623.93 57.8 623.17 57.89 623.14 57.93 623.13 57.95 623.12 57.96 623.12 57.97 623.11 58.02 623.01 58.12 622.79 58.32 622.35 58.73 621.49 60.35 618.02 66.85 604.13 103.67 558.09 93.88 588.12 73.87 610.01 63.86 620.95 61.36 623.69 60.73 624.37 60.66 624.46 60.64 624.48 60.59 624.49 60.49 624.5 60.11 624.56 59.36 624.67 56.32 625.13 44.18 626.98"/>
          <polygon class="cls-1" points="82.99 611.58 88.67 611.91 78.52 581.86 72.84 581.53 82.99 611.58"/>
          <polygon class="cls-1" points="88.55 611.65 94.38 612.45 85.69 582.55 79.87 581.75 88.55 611.65"/>
          <polygon class="cls-1" points="72.97 581.78 67.15 580.98 75.84 610.88 81.67 611.69 72.97 581.78"/>
          <path class="cls-1" d="M52.21,592.55l4.54,19.54,2.27,9.77.28,1.22.14.61.04.15v.04s.01,0,.01,0h0s-.01.02-.01.02l-.04.05-.17.18-1.35,1.47-2.7,2.93-16.66,52.72,16.65-21.28,10.82-27.45,1.35-3.43.34-.86.04-.11v-.03s0-.04,0-.04l-.04-.08-.14-.33-.29-.66-1.16-2.65-4.63-10.6-9.27-21.19Z"/>
          <polygon class="cls-1" points=".81 626.19 37.54 633.39 110.07 660.78 74.57 654.66 .81 626.19"/>
          <polygon class="cls-1" points="38.49 646.34 41.67 650.87 72.66 642.35 69.49 637.83 38.49 646.34"/>
          <polygon class="cls-1" points="41.91 650.77 44.6 655.42 76.35 648.07 73.66 643.43 41.91 650.77"/>
          <polygon class="cls-1" points="69.27 637.95 66.58 633.3 34.82 640.65 37.51 645.29 69.27 637.95"/>
        </g>
      </g>
      <g>
        <path class="cls-1" d="M329.55,940.96c-19.98-77.44-3.3-122.2-25.24-207.19l9.04-2.33c21.93,84.99,5.26,129.75,25.25,207.19"/>
        <path class="cls-1" d="M366.87,931.33c-21.26-82.38-58.22-116.26-77.59-191.32l9.04-2.33c19.37,75.06,56.35,108.94,77.61,191.32"/>
        <path class="cls-1" d="M223.16,528.7c19.98,77.44,56.25,108.55,78.18,193.53l9.04-2.33c-21.93-84.99-58.18-116.1-78.17-193.54"/>
        <path class="cls-1" d="M260.48,519.07c21.26,82.38,5.31,129.91,24.68,204.98l9.04-2.33c-19.37-75.06-3.4-122.6-24.66-204.98"/>
        <polygon class="cls-1" points="274.59 792.24 295.69 756.44 319.55 648.29 299.84 688.45 274.59 792.24"/>
        <polygon class="cls-1" points="350.64 780.77 314.28 752.19 244.22 667.3 279.47 693.1 350.64 780.77"/>
        <polygon class="cls-1" points="315.02 723.84 312.4 712.96 279.79 720.43 282.42 731.31 315.02 723.84"/>
        <polygon class="cls-1" points="312.13 713.05 310.02 702.07 276.82 706.74 278.92 717.72 312.13 713.05"/>
        <polygon class="cls-1" points="282.66 731.14 284.78 742.13 317.99 737.46 315.88 726.47 282.66 731.14"/>
      </g>
    </g>
  </g>
</svg>