<?xml version="1.0" encoding="UTF-8"?>
<svg id="Layer_2" data-name="Layer 2" xmlns="http://www.w3.org/2000/svg" viewBox="0 0 224.82 236.28">
  <defs>
    <style>
      .cls-1 {
        fill: #bfbfbf;
        stroke: #000;
        stroke-linecap: round;
        stroke-width: 4.5px;
      }
    </style>
  </defs>
  <g id="Layer_2-2" data-name="Layer 2">
    <g>
      <g>
        <path class="cls-1" d="M222.57,118.14c0,8.08-1.32,15.67-3.52,22.53-2.21,6.86-5.29,13-8.95,18.38-7.34,10.78-16.69,18.53-26.55,24.29-9.94,5.74-20.45,9.54-31.46,12.34-5.52,1.39-11.2,2.51-17.15,3.39-5.95.86-12.18,1.54-18.87,1.81l-.4-9.33c5.95-.23,11.47-.79,16.78-1.48,5.31-.7,10.4-1.59,15.39-2.71,9.95-2.25,19.62-5.37,28.84-10.34,9.15-4.98,17.92-11.85,24.82-21.59,3.44-4.86,6.34-10.43,8.43-16.69,2.08-6.25,3.31-13.19,3.32-20.6"/>
        <path class="cls-1" d="M184.04,118.14c-.06,11.23-.78,21.14-2.34,30.96-.79,4.9-1.81,9.74-3.17,14.54-1.35,4.8-3.06,9.57-5.25,14.21-4.36,9.27-10.61,18.28-19.68,25.55-4.53,3.61-9.76,6.75-15.66,9.12-5.89,2.36-12.47,3.94-19.52,4.37l-.56-9.32c6.39-.39,12.34-1.86,17.65-4.06,5.32-2.21,10-5.15,14.02-8.51,8.07-6.78,13.46-15.17,17.08-23.69,1.82-4.27,3.18-8.62,4.22-12.98,1.05-4.35,1.79-8.7,2.33-13.05,1.07-8.74,1.46-17.36,1.52-27.14"/>
        <path class="cls-1" d="M2.25,118.16c.01,8.08,1.32,15.67,3.53,22.53,2.21,6.86,5.3,13,8.96,18.37,7.34,10.77,16.7,18.52,26.56,24.28,9.94,5.74,20.45,9.54,31.47,12.33,5.52,1.39,11.2,2.51,17.15,3.39,5.95.86,12.17,1.54,18.87,1.81l.4-9.33c-5.95-.23-11.47-.79-16.77-1.48-5.31-.7-10.4-1.59-15.39-2.7-9.95-2.25-19.62-5.37-28.84-10.34-9.15-4.98-17.92-11.85-24.83-21.58-3.44-4.86-6.34-10.43-8.43-16.69-2.08-6.25-3.31-13.19-3.32-20.6"/>
        <path class="cls-1" d="M40.79,118.16c.07,11.23.79,21.14,2.34,30.96.79,4.89,1.81,9.73,3.17,14.54,1.36,4.8,3.06,9.57,5.25,14.21,4.36,9.27,10.61,18.28,19.69,25.55,4.53,3.6,9.76,6.75,15.66,9.11,5.89,2.36,12.47,3.94,19.52,4.36l.56-9.32c-6.39-.39-12.34-1.85-17.65-4.06-5.32-2.21-10-5.14-14.03-8.51-8.07-6.78-13.47-15.16-17.08-23.68-3.64-8.56-5.45-17.35-6.56-26.03-1.07-8.74-1.46-17.36-1.53-27.14"/>
        <path class="cls-1" d="M162.4,234.05c-12.27-5.34-22.99-12.5-31.71-20.81-13.14-5.96-23.58-14.7-30.73-24.41-7.16-9.73-10.94-20.46-11.49-30.56-1.62,10.28-.95,21.53,2.4,32.59,6.02,10.6,15.4,20.39,27.53,28.13,12.13,7.72,27.19,13.15,44,15.07Z"/>
        <path class="cls-1" d="M134.7,162.58l.02,1.97-.06,1.94c-.06,1.3-.15,2.64-.28,3.97-.29,2.6-.7,5.35-1.32,7.99-1.2,5.39-3.09,10.71-5.64,16.01-7.87,9.49-18.89,17.69-32.45,23.24-13.54,5.54-29.64,8.27-46.71,7.02,13.64-2.6,25.93-7.41,36.3-13.96,6.98-1.99,13.41-4.75,19.14-8.1,5.73-3.36,10.78-7.3,15.05-11.6,8.57-8.6,13.9-18.68,15.96-28.49Z"/>
        <path class="cls-1" d="M111.91,188.1l-2.89-.16c-.96-.08-1.92-.2-2.87-.3-1.14,11.09-2.36,22.17-3.65,33.25l4.24.41c1.41.1,2.83.15,4.25.22.38-11.14.69-22.28.93-33.42Z"/>
        <path class="cls-1" d="M106.14,187.92c-.95-.16-1.89-.44-2.82-.67l-1.4-.35-1.38-.42c-2.52,10.83-5.35,21.61-8.48,32.32l4.11,1.1c1.38.35,2.77.62,4.16.92,2.24-10.91,4.17-21.87,5.8-32.9Z"/>
        <path class="cls-1" d="M110.91,221.24c1.41.17,2.82.23,4.24.32,1.42.08,2.84.16,4.27.15.22-11.15.13-22.29-.27-33.4l-2.92-.13c-.97-.07-1.94-.18-2.9-.27-.5,11.14-1.31,22.25-2.43,33.32Z"/>
      </g>
      <g>
        <path class="cls-1" d="M2.25,118.14c0-8.08,1.32-15.67,3.52-22.53,2.21-6.86,5.29-13,8.95-18.37,7.34-10.78,16.69-18.53,26.55-24.29,9.94-5.74,20.45-9.54,31.46-12.34,5.52-1.39,11.2-2.51,17.15-3.39,5.95-.86,12.18-1.54,18.87-1.81l.41,9.33c-5.95.23-11.47.79-16.78,1.48-5.31.7-10.4,1.59-15.39,2.71-9.95,2.25-19.62,5.37-28.84,10.34-9.15,4.98-17.92,11.85-24.82,21.59-3.44,4.86-6.34,10.43-8.43,16.69-2.08,6.25-3.31,13.19-3.32,20.6"/>
        <path class="cls-1" d="M40.79,118.14c.06-11.23.78-21.14,2.34-30.96.79-4.9,1.81-9.74,3.17-14.54,1.35-4.8,3.06-9.57,5.25-14.21,4.36-9.27,10.61-18.28,19.68-25.55,4.53-3.61,9.76-6.75,15.66-9.12,5.89-2.36,12.47-3.94,19.52-4.37l.56,9.32c-6.39.39-12.34,1.86-17.65,4.06-5.32,2.21-10,5.15-14.02,8.51-8.07,6.78-13.46,15.17-17.08,23.69-1.82,4.27-3.18,8.62-4.22,12.98-1.05,4.35-1.79,8.7-2.33,13.05-1.07,8.74-1.46,17.36-1.52,27.14"/>
        <path class="cls-1" d="M222.57,118.12c-.01-8.08-1.32-15.67-3.53-22.53-2.21-6.86-5.3-13-8.96-18.37-7.34-10.77-16.7-18.52-26.56-24.28-9.94-5.74-20.45-9.54-31.47-12.33-5.52-1.39-11.2-2.51-17.15-3.39-5.95-.86-12.18-1.54-18.87-1.81l-.4,9.33c5.95.23,11.47.79,16.78,1.48,5.31.7,10.4,1.59,15.39,2.7,9.95,2.25,19.62,5.37,28.84,10.34,9.15,4.98,17.92,11.85,24.83,21.58,3.44,4.86,6.34,10.43,8.43,16.69,2.08,6.25,3.31,13.19,3.32,20.6"/>
        <path class="cls-1" d="M184.04,118.13c-.07-11.23-.79-21.14-2.34-30.96-.79-4.89-1.81-9.73-3.17-14.54-1.36-4.8-3.06-9.57-5.25-14.21-4.36-9.27-10.61-18.28-19.69-25.55-4.53-3.6-9.76-6.75-15.66-9.11-5.89-2.36-12.47-3.94-19.52-4.36l-.56,9.32c6.39.39,12.34,1.85,17.65,4.06,5.32,2.21,10,5.14,14.03,8.51,8.07,6.78,13.47,15.16,17.08,23.68,3.64,8.56,5.45,17.35,6.56,26.03,1.07,8.74,1.46,17.36,1.53,27.14"/>
        <path class="cls-1" d="M62.42,2.24c12.27,5.34,22.99,12.5,31.71,20.81,13.14,5.96,23.58,14.7,30.73,24.41,7.16,9.73,10.94,20.46,11.49,30.56,1.62-10.28.95-21.53-2.4-32.59-6.02-10.6-15.4-20.39-27.53-28.13-12.13-7.72-27.19-13.15-44-15.07Z"/>
        <path class="cls-1" d="M90.12,73.7l-.02-1.97.06-1.94c.06-1.3.15-2.64.28-3.97.29-2.6.7-5.35,1.32-7.99,1.2-5.39,3.09-10.71,5.64-16.01,7.87-9.49,18.89-17.69,32.45-23.24,13.54-5.54,29.64-8.27,46.71-7.02-13.64,2.6-25.93,7.41-36.3,13.96-6.98,1.99-13.41,4.75-19.14,8.1-5.73,3.36-10.78,7.3-15.05,11.6-8.57,8.6-13.9,18.68-15.96,28.49Z"/>
        <path class="cls-1" d="M112.91,48.18l2.89.16c.96.08,1.92.2,2.87.3,1.14-11.09,2.36-22.17,3.65-33.25l-4.24-.41c-1.41-.1-2.83-.15-4.25-.22-.38,11.14-.69,22.28-.93,33.42Z"/>
        <path class="cls-1" d="M118.68,48.36c.95.16,1.89.44,2.82.67l1.4.35,1.38.42c2.52-10.83,5.35-21.61,8.48-32.32l-4.11-1.1c-1.38-.35-2.77-.62-4.16-.92-2.24,10.91-4.17,21.87-5.8,32.9Z"/>
        <path class="cls-1" d="M113.91,15.04c-1.41-.17-2.82-.23-4.24-.32-1.42-.08-2.84-.16-4.27-.15-.22,11.15-.13,22.29.27,33.4l2.92.13c.97.07,1.94.18,2.9.27.5-11.14,1.31-22.25,2.43-33.32Z"/>
      </g>
    </g>
  </g>
</svg>