<?xml version="1.0" encoding="UTF-8"?>
<svg id="Layer_2" data-name="Layer 2" xmlns="http://www.w3.org/2000/svg" viewBox="0 0 346.95 816.13">
  <defs>
    <style>
      .cls-1 {
        fill: #bfbfbf;
        stroke: #000;
        stroke-linecap: round;
        stroke-width: 4.5px;
      }
    </style>
  </defs>
  <g id="Layer_2-2" data-name="Layer 2">
    <g>
      <g>
        <path class="cls-1" d="M2.25,99.66c50.85-21.55,86.43-6.94,142.23-30.6l3.64,8.6c-55.81,23.66-91.38,9.05-142.23,30.61"/>
        <path class="cls-1" d="M17.29,135.14c54.09-22.93,70.16-59.42,119.45-80.31l3.64,8.6c-49.29,20.89-65.35,57.39-119.44,80.32"/>
        <path class="cls-1" d="M272.14,72.14c2.29-5.18,4.01-10.14,5.35-15.05.67-2.45,1.25-4.89,1.76-7.32.12-.61.24-1.22.37-1.83l.17-.91.08-.46v-.06s.02-.03.02-.03l.1-.25c.16-.41.32-.82.47-1.24.3-.83.57-1.68.8-2.52.47-1.69.81-3.62.99-5.44.17-1.87.18-3.81.04-5.69-.32-3.79-1.32-7.5-2.85-10.78-3.1-6.6-8.09-11.7-14.35-14.91-3.15-1.59-6.6-2.7-10.21-3.16-3.58-.48-7.28-.28-10.63.47-1.74.37-3.23.87-4.77,1.47l-1.13.47c-.26.11-.2.09-.23.11l-.05.04-.22.16-.86.64c-1.13.87-2.26,1.73-3.38,2.59-2.23,1.74-4.4,3.5-6.55,5.29-4.3,3.56-8.48,7.19-12.71,10.84-16.89,14.58-34.4,29.43-62.31,41.26l3.64,8.6c27.9-11.83,45.42-26.67,62.31-41.25,4.22-3.65,8.41-7.27,12.71-10.84,2.15-1.78,4.33-3.54,6.55-5.28,1.12-.86,2.24-1.72,3.38-2.59l.86-.64.22-.16.05-.04s0,0,.17-.09l.78-.34c1.07-.43,2.1-.8,3.32-1.07,2.34-.55,4.92-.72,7.43-.4,2.53.29,4.96,1.05,7.18,2.14,4.43,2.21,7.99,5.78,10.22,10.43,1.11,2.31,1.83,4.92,2.08,7.61.11,1.33.12,2.7,0,4.03-.13,1.29-.35,2.66-.68,3.87-.16.61-.35,1.21-.56,1.8l-.33.89-.07.18v.03s-.02.06-.02.06l-.1.48-.2.96c-.14.64-.27,1.28-.41,1.93-.57,2.57-1.21,5.15-1.94,7.74-1.47,5.19-3.33,10.46-5.76,15.96"/>
        <path class="cls-1" d="M234.61,62.41c2.95-6.83,6.09-13.1,9.39-18.86,1.65-2.88,3.34-5.65,5.06-8.3l.65-.99.32-.49.16-.24s.06-.1.07-.11h.02c.15-.03.32-.04.41-.22.18-.36-.09-1.1-.84-1.26l-.32-.02-.56.1-1.11.2c-.74.13-1.48.26-2.21.38-1.47.23-2.93.47-4.38.69-2.9.43-5.78.81-8.62,1.15-5.7.68-11.3,1.2-16.87,1.7-22.27,2.02-43.94,3.79-68.59,14.23l3.64,8.6c24.64-10.45,46.32-12.21,68.59-14.23,5.57-.5,11.17-1.02,16.87-1.7,2.85-.34,5.72-.71,8.63-1.15,1.45-.23,2.91-.46,4.38-.69.73-.13,1.47-.25,2.21-.38l1.11-.2.56-.1c-.29.18-.73.38-1.14.5-1.75.63-4.06.53-5.85-.3-1.8-.81-3.3-2.17-4.22-4.13-.47-.97-.75-2.11-.83-3.26-.03-.58,0-1.16.06-1.71.09-.57.18-1.07.34-1.57l.13-.37c.04-.1-.01,0-.01,0l-.04.06-.16.25-.32.51-.64,1.02c-1.71,2.73-3.39,5.57-5.02,8.53-3.28,5.93-6.39,12.36-9.31,19.37"/>
        <polygon class="cls-1" points="96.27 42.36 126.43 61.49 208.78 81.02 175.82 63.37 96.27 42.36"/>
        <polygon class="cls-1" points="121.11 114.93 133.53 79.18 178.72 9.39 168.04 43.98 121.11 114.93"/>
        <polygon class="cls-1" points="153.9 79.02 161.1 76.17 148.63 45.13 141.44 47.99 153.9 79.02"/>
        <polygon class="cls-1" points="160.97 75.92 168.34 73.55 157.74 41.86 150.36 44.21 160.97 75.92"/>
        <polygon class="cls-1" points="141.61 48.22 134.24 50.59 144.85 82.29 152.22 79.92 141.61 48.22"/>
      </g>
      <g>
        <path class="cls-1" d="M272.13,72.15c-4.57,10.35-10.28,19.06-16.86,27.63-6.57,8.54-13.99,16.9-21.74,25.99-7.74,9.07-15.79,18.87-23.47,29.92-7.67,11.03-14.97,23.35-20.92,36.84l-10.3,2.75c3.05-7.01,6.24-13.56,9.55-19.7,1.66-3.07,3.34-6.03,5.05-8.9.85-1.44,1.72-2.85,2.58-4.24.44-.69.87-1.38,1.3-2.07l.65-1.02.73-1.08c7.92-11.61,16.2-21.92,24.16-31.49,7.96-9.58,15.6-18.44,22.4-27.51,6.81-9.09,12.77-18.37,17.63-29.37"/>
        <path class="cls-1" d="M234.61,62.43c-5.89,13.68-9.51,26.11-12,37.52-.3,1.43-.59,2.84-.88,4.24-.28,1.4-.57,2.8-.71,4.07-.34,2.59-.61,5.11-.81,7.56-.41,4.9-.58,9.52-.68,13.97-.2,8.91-.07,17.08-1.02,25.59-.96,8.53-3,17.37-7.76,28.16l-12.15,4.4c5.04-11.42,7.31-20.81,8.51-29.87.59-4.52.91-8.94,1.13-13.41.1-2.26.19-4.51.28-6.76l.06-1.71.04-.86.12-.95c.16-1.27.33-2.54.49-3.81,1.31-10.22,2.64-20.9,5.09-32.61,2.45-11.7,6.01-24.45,11.85-38.49"/>
        <path class="cls-1" d="M174.74,292.9c4.57-10.35,5.79-17.36,5.64-23.36-.16-5.98-1.71-10.93-2.95-16.6-1.24-5.66-2.16-12.04-1.21-20.53.93-8.47,3.75-19.09,9.7-32.57l-10.39,3.06c-3.05,7.01-5.52,13.5-7.58,19.54-1.03,3.02-1.95,5.92-2.78,8.72-.4,1.39-.8,2.77-1.19,4.12-.18.67-.37,1.34-.55,2.01l-.26.99c-.08.32-.09.58-.14.87-1.19,9.05-.5,15.95.51,22.11,1.01,6.17,2.34,11.61,2.27,18.13-.08,6.54-1.56,14.11-6.41,25.11"/>
        <path class="cls-1" d="M116.64,336.01c5.89-13.68,12.38-26.34,19.19-38.1.86-1.47,1.72-2.93,2.57-4.37.43-.72.86-1.44,1.29-2.16l.33-.54.42-.63.85-1.25c2.27-3.33,4.57-6.62,6.87-9.86,4.62-6.5,9.28-12.83,13.86-18.98,9.17-12.32,18.01-23.91,25.7-34.97,7.69-11.09,14.21-21.64,18.97-32.42l-12.38,4.93c-5.04,11.42-11.8,22.52-19.73,34.13-3.96,5.8-8.2,11.72-12.63,17.79-2.27,3.09-4.52,6.16-6.77,9.23l-1.73,2.35-.86,1.17-.66.99c-.88,1.33-1.76,2.66-2.65,3.99-7.06,10.68-14.15,21.82-20.91,33.88-6.76,12.05-13.21,25.03-19.04,39.07"/>
        <path class="cls-1" d="M255.79,148.99c-14.03,7.55-28.51,16.1-43.42,25.65-7.37,6.36-14.9,13.08-22.59,20.16-3.84,3.54-7.73,7.17-11.65,10.89l-2.42,2.32-2.17,2.11-4.33,4.28c-11.54,11.49-22.96,23.74-34.26,36.73,11.03-9.73,22.15-18.86,33.36-27.39l2.13-2.08,2.89-2.76,5.9-5.56c3.91-3.66,7.79-7.24,11.62-10.74,7.67-6.99,15.19-13.63,22.56-19.93,14.74-12.6,28.87-23.82,42.39-33.67Z"/>
        <path class="cls-1" d="M174.26,157.68c2.36,4.4,4.7,8.64,7.01,12.73l3.45,6.01,1.71,2.92.85,1.44.43.71.21.36c.04.06.07.12.11.17l.2.09c10.53,14.63,23.44,23.87,38.72,27.73-10.83,1.68-21.18,2.28-31.05,1.8-3.25-2.34-6.34-5.03-9.28-8.07-1.47-1.52-2.9-3.13-4.29-4.82l-1.04-1.29c-.18-.58-.25-1.27-.38-1.91l-.7-3.93-5.95-33.94Z"/>
        <path class="cls-1" d="M173.97,199.96l-3.25,7.25,3.47-.3,1.74-.15.87-.08c.16-.03.25.01.47-.08l.69-.27,11.08-4.4,22.17-8.84,2.92-6.17-21.89,8.19-10.93,4.07-.68.25-.34.13h-.22s-.87.07-.87.07l-1.74.11-3.49.22Z"/>
        <path class="cls-1" d="M170.96,207.16l-3.67,7.28,3.35-.16,1.67-.08.84-.04.42-.02c.16-.02.23.03.5-.09l11-4.29,22.07-8.75,3.63-6.47-21.79,8.11-10.86,3.98-.68.25c-.22.08-.48.19-.59.16l-.84.02-1.68.04-3.36.07Z"/>
        <path class="cls-1" d="M213.73,187.12l3.58-6.39-21.15,6.66-10.54,3.25-1.32.4c-.11.03-.23.07-.32.09h-.21s-.42-.02-.42-.02l-1.69-.06-3.39-.12-3.68,7.24,3.38.03h1.69s.84.02.84.02c.15-.01.25.03.45-.03l.67-.22,10.68-3.57,21.44-7.3Z"/>
      </g>
      <g>
        <path class="cls-1" d="M174.74,292.91c-4.57,10.35-11.39,21.59-19.65,33.95-8.24,12.34-17.9,25.75-27.87,39.9-4.99,7.07-10.05,14.31-15.04,21.64-.62.92-1.26,1.83-1.85,2.76-.58.93-.95,1.93-1.09,2.86-.3,1.88.34,3.4,1,3.85.33.24.58.17.84.15.26-.03.53-.07.81-.11.56-.09,1.16-.22,1.81-.38,5.17-1.26,13.37-4.84,26.09-12.15l-11.14,11.71c-6.57,3.67-12.37,6.72-17.58,9.38-2.54,1.27-5,2.51-7.4,3.71-1.15.57-2.29,1.13-3.41,1.68-.55.27-1.1.54-1.64.8l-.81.39c-.26.12-.39.13-.59.19-.73.2-1.4.37-2.04.51l-.92.18c-.29.05-.58.14-.95-.1-.75-.43-1.47-2.01-1.2-3.97.12-.97.5-2.02,1.09-2.98.6-.96,1.26-1.91,1.89-2.86,5.1-7.59,10.27-15.09,15.37-22.4,10.19-14.64,20.06-28.55,28.54-41.41,8.48-12.89,15.56-24.69,20.41-35.69"/>
        <path class="cls-1" d="M116.63,336.02c-5.89,13.68-9.71,24.8-12.51,34.23-.34,1.17-.67,2.32-1,3.46-.16.56-.31,1.12-.47,1.68l-.11.41.02.29.05.57c.14,1.51.38,2.88.7,4.14.63,2.53,1.58,4.62,2.6,6.55.51.96,1.04,1.88,1.56,2.79l.77,1.36.37.68c.13.23.2.45.53.73.64.57,2.21,1.1,4.07.85.93-.12,1.92-.43,2.84-.95.92-.53,1.76-1.2,2.63-1.81,3.33-2.37,6.69-4.76,10.1-7.19,13.13-9.26,24.75-17.07,34.75-22.83l-14.5,14.56c-10.7,6.15-22.92,14.32-36.63,23.91-3.56,2.51-7.06,4.99-10.53,7.43-.9.62-1.78,1.32-2.74,1.87-.96.53-2,.85-2.96.95-1.94.22-3.56-.39-4.19-1.04-.34-.32-.38-.58-.5-.84l-.33-.78-.68-1.55-.35-.78c-.05-.13-.13-.25-.16-.4l.16-.7.65-2.83c1.72-7.58,3.46-15.62,6.21-25.35,2.76-9.72,6.53-21.15,12.36-35.19"/>
        <path class="cls-1" d="M285.88,283.16c-9.47,5.45-19.06,12.1-29.42,19.76-10.34,7.65-21.42,16.3-33.26,25.39-11.83,9.08-24.44,18.61-37.43,27.78-12.97,9.16-26.37,18.01-39.08,25.32l-10.9,11.69c6.57-3.67,13-7.47,19.31-11.44,3.16-1.98,6.29-4.01,9.39-6.08,1.57-1.06,3.11-2.1,4.64-3.13,1.59-1.1,3.16-2.19,4.71-3.27,13.61-9.53,26.76-19.37,39.14-28.76,12.39-9.4,24.01-18.36,34.92-26.34,10.94-8,21.14-15,31.33-20.86"/>
        <path class="cls-1" d="M258.29,326.51c-12.73,7-22.6,10.81-30.95,13.42-1.03.31-2.05.62-3.07.92-.96.28-1.9.55-2.84.82-1.74.51-3.36.93-4.89,1.28-3.06.69-5.73,1.09-8.22,1.39-4.99.59-9.2.73-14.51,2.08-5.34,1.36-11.76,3.91-21.76,9.67l-13.91,14.22c10.7-6.15,17.72-9.05,23.63-10.74,2.95-.84,5.6-1.37,8.22-1.81,1.31-.2,2.62-.41,3.92-.61l.99-.15.5-.08.63-.14,2.51-.52c6.71-1.36,13.56-2.38,21.91-4.58,8.36-2.22,18.22-5.61,30.95-12.13"/>
        <path class="cls-1" d="M186.44,329.64c-12.9,13.94-24.7,27.25-35.41,39.94-2.44,4.19-4.49,8.15-6.14,11.88-.83,1.87-1.56,3.68-2.19,5.43l-.12.33-.03.08s.03.02.04.02l.09.05.35.19.69.39c.46.27.92.55,1.38.85,3.69,2.38,7.38,5.77,11.06,10.16.39-7.2.77-13.6,1.16-19.19l-.6-.52c-.09-.02-.02-.14.01-.25l.11-.32.22-.65c.3-.87.62-1.76.97-2.66.69-1.8,1.48-3.65,2.37-5.56,1.77-3.81,3.91-7.84,6.43-12.09,5.04-8.49,11.57-17.85,19.62-28.07Z"/>
        <path class="cls-1" d="M76.94,433.42c7.12-5.09,14.24-10.39,21.36-15.89,3.56-2.75,7.12-5.56,10.68-8.42l5.34-4.33,2.67-2.19,2.87-2.39c45.06-36.27,84.23-69.14,117.51-98.64-16.2,15.46-33.58,31.61-52.15,48.44-9.87,8.28-20.12,16.79-30.75,25.51l-16.23,13.25-4.15,3.36-3.06,2.43-6.01,4.68c-16.03,12.37-32.05,23.76-48.08,34.18Z"/>
        <path class="cls-1" d="M130.22,397.86l6.57-3.49,3.15-3.83,1.58-1.92.79-.96.2-.24c.08-.09.1-.13.26-.29l.78-.8,12.45-12.73,24.86-25.44-5.34,2.95-25.57,25.85-12.81,12.94-.8.81-.4.4-.2.23-.79.93-1.58,1.86-3.15,3.72Z"/>
        <path class="cls-1" d="M136.98,394.13l6.17-2.99,3.36-4.05,1.68-2.03.84-1.02.42-.51c.16-.19.21-.29.53-.59l12.44-12.7,24.69-25.3-4.58,2.16-25.4,25.71-12.79,12.91-.8.81c-.26.26-.58.58-.67.7l-.84.99-1.68,1.97-3.36,3.94Z"/>
        <polygon class="cls-1" points="175.14 351.52 170.62 353.66 143.63 380.28 130.05 393.64 128.35 395.31 127.94 395.72 127.73 395.95 127.31 396.41 125.63 398.26 122.27 401.95 128.44 398.91 131.8 395.11 133.48 393.2 134.32 392.25 134.53 392.01 134.63 391.89 134.68 391.83 134.79 391.73 135.62 390.91 148.85 377.74 175.14 351.52"/>
      </g>
      <g>
        <path class="cls-1" d="M285.9,283.15c9.47-5.45,16.62-8.42,23.34-10.57,1.67-.54,3.32-1.02,4.95-1.47.82-.22,1.63-.44,2.44-.65l1.22-.31c.4-.11.86-.16,1.35.04.24.08.48.24.71.42l.09.07s.11.06.24.12l.36.18c.47.25.94.5,1.4.77.41.23,1.02.63,1.59,1.03.56.4,1.12.81,1.65,1.24,4.22,3.45,7.41,8.29,8.81,13.84.35,1.39.59,2.78.69,4.19.06.7.09,1.41.09,2.11,0,.68-.04,1.37-.1,2.05-.06.68-.13,1.37-.24,2.02-.11.63-.24,1.26-.4,1.89-.15.61-.33,1.27-.51,1.83l-.14.22-1.14,1.74c-1.53,2.32-3.07,4.64-4.6,6.96-12.32,18.6-24.83,37.86-33.03,67.03l-8.99-2.53c8.2-29.18,20.7-48.43,33.02-67.03,1.54-2.33,3.07-4.64,4.6-6.96l1.14-1.74.14-.22c.12-.36.24-.77.35-1.15.22-.78.38-1.59.46-2.47.1-.86.12-1.74.06-2.64-.04-.9-.18-1.79-.39-2.67-.82-3.55-2.79-6.72-5.49-9.01-.34-.29-.69-.56-1.06-.83-.36-.27-.75-.54-1.03-.69-.3-.18-.61-.36-.92-.53l-.23-.13c-.08-.04-.17-.09-.16-.09l-.09-.07c-.24-.19-.5-.35-.77-.43-.53-.2-1.03-.14-1.46,0l-1.32.37c-.88.26-1.76.51-2.65.77-1.77.53-3.56,1.09-5.37,1.71-7.29,2.49-15.06,5.82-25.25,11.67"/>
        <path class="cls-1" d="M258.31,326.5c12.73-7,25.12-15.57,37.25-25.34,1.53-1.25,3.04-2.49,4.54-3.71.76-.63,1.51-1.26,2.26-1.89l.56-.47.53-.39,1.05-.78c1.4-1.03,2.76-2.12,4.15-3.1.72-.45,1.53-.67,2.26-.65.18,0,.35,0,.64.1.25.06.53.17.81.3.56.26,1.07.64,1.54,1.08.92.91,1.58,2.24,1.72,3.67.05.36.05.72.02,1.07l-.04.52v.27s.02,1.07.02,1.07c.03,1.42.07,2.84.1,4.25.09,2.83.19,5.63.28,8.42.82,22.35,1.81,44.07-5.43,69.84l-8.99-2.53c7.24-25.77,6.24-47.49,5.42-69.84-.09-2.79-.19-5.59-.28-8.42-.03-1.41-.07-2.83-.1-4.25l-.02-1.07v-.27s-.09.1-.13.16c-.07.12-.14.25-.2.42-.24.64-.2,1.52.1,2.24.13.37.35.7.61,1.02.07.08.14.15.22.22,0,.03.05-.04,0,.08l-.13.34-.27.69-.54,1.38-.54,1.4-.27.71c-.06.16-.09.22-.09.18h-.04s-.33.07-.33.07c-.9.18-1.87.6-2.71,1.22-1.6,1.28-3.02,2.52-4.55,3.76-3.01,2.48-6.02,4.89-9.06,7.23-12.14,9.38-24.52,17.53-37.26,24.05"/>
        <path class="cls-1" d="M280.09,530.8c14.94-53.17-4.07-86.61,12.32-144.96l-8.99-2.53c-16.39,58.35,2.6,91.79-12.34,144.96"/>
        <path class="cls-1" d="M242.99,520.38c15.89-56.56,50.05-77.12,64.52-128.66l-8.99-2.53c-14.48,51.54-48.65,72.09-64.54,128.66"/>
        <polygon class="cls-1" points="345.61 356.94 311.83 368.54 245.13 420.64 279.51 405.94 345.61 356.94"/>
        <polygon class="cls-1" points="273.43 331 293.58 363.03 319.85 441.93 299.51 411.98 273.43 331"/>
        <polygon class="cls-1" points="280.98 379.05 278.72 386.44 310.74 396.09 313 388.7 280.98 379.05"/>
        <polygon class="cls-1" points="278.99 386.5 276.23 393.74 307.6 405.25 310.37 398.02 278.99 386.5"/>
        <polygon class="cls-1" points="312.71 388.69 315.46 381.45 284.09 369.93 281.33 377.17 312.71 388.69"/>
      </g>
      <g>
        <path class="cls-1" d="M280.09,530.82c-14.94,53.17-48.57,71.82-64.96,130.18l-8.99-2.53c16.39-58.36,50.02-77.01,64.95-130.18"/>
        <path class="cls-1" d="M242.99,520.4c-15.89,56.56,2.57,91.9-11.91,143.44l-8.99-2.53c14.48-51.54-3.99-86.88,11.9-143.44"/>
        <path class="cls-1" d="M200.57,813.88c14.94-53.17-4.07-86.61,12.32-144.96l-8.99-2.53c-16.39,58.35,2.6,91.79-12.34,144.96"/>
        <path class="cls-1" d="M163.47,803.46c15.89-56.56,50.05-77.12,64.52-128.66l-8.99-2.53c-14.48,51.54-48.65,72.09-64.54,128.66"/>
        <polygon class="cls-1" points="266.09 640.03 232.32 651.63 165.62 703.73 199.99 689.02 266.09 640.03"/>
        <polygon class="cls-1" points="193.91 614.09 214.07 646.12 240.33 725.01 219.99 695.06 193.91 614.09"/>
        <polygon class="cls-1" points="201.46 662.13 199.2 669.53 231.22 679.18 233.48 671.78 201.46 662.13"/>
        <polygon class="cls-1" points="199.47 669.59 196.71 676.82 228.08 688.34 230.85 681.11 199.47 669.59"/>
        <polygon class="cls-1" points="233.19 671.78 235.95 664.54 204.57 653.02 201.81 660.25 233.19 671.78"/>
      </g>
    </g>
  </g>
</svg>