<?xml version="1.0" encoding="UTF-8"?>
<svg id="Layer_2" data-name="Layer 2" xmlns="http://www.w3.org/2000/svg" viewBox="0 0 1025.43 1026.79">
  <defs>
    <style>
      .cls-1 {
        fill: #bfbfbf;
        stroke: #000;
        stroke-linecap: round;
        stroke-width: 4.5px;
      }
    </style>
  </defs>
  <g id="Layer_2-2" data-name="Layer 2">
    <g>
      <g>
        <g>
          <path class="cls-1" d="M989.53,538.81c-39.66-39.18-39.88-77.83-83.41-120.83l6.56-6.64c43.53,43,43.75,81.64,83.42,120.82"/>
          <path class="cls-1" d="M1016.61,511.39c-42.19-41.68-82.25-42.84-120.69-80.82l6.56-6.64c38.45,37.98,78.51,39.13,120.7,80.81"/>
          <path class="cls-1" d="M778.38,330.2c39.66,39.18,78.31,38.93,121.83,81.94l6.56-6.64c-43.53-43-82.16-42.76-121.83-81.94"/>
          <path class="cls-1" d="M805.46,302.79c42.19,41.68,43.84,81.72,82.28,119.7l6.56-6.64c-38.45-37.98-40.08-78.03-82.27-119.71"/>
          <polygon class="cls-1" points="900.02 472.95 906.09 437.65 892.33 353.6 888.72 390.96 900.02 472.95"/>
          <polygon class="cls-1" points="957.7 422.4 919.74 424.35 837.53 408.67 873.75 405.53 957.7 422.4"/>
          <polygon class="cls-1" points="911.71 405.44 906.28 399.83 882.33 423.16 887.76 428.78 911.71 405.44"/>
          <polygon class="cls-1" points="906.1 400.04 901.05 394.07 875.77 415.92 880.8 421.9 906.1 400.04"/>
          <polygon class="cls-1" points="887.9 428.53 892.95 434.49 918.24 412.64 913.2 406.67 887.9 428.53"/>
        </g>
        <g>
          <path class="cls-1" d="M778.36,330.19c-39.66-39.18-39.88-77.83-83.41-120.83l6.56-6.64c43.53,43,43.75,81.64,83.42,120.82"/>
          <path class="cls-1" d="M805.44,302.77c-42.19-41.68-82.25-42.84-120.69-80.82l6.56-6.64c38.45,37.98,78.51,39.13,120.7,80.81"/>
          <path class="cls-1" d="M574.59,128.88c7.85,7.75,15.59,13,23.89,17.59,2.07,1.14,4.17,2.24,6.3,3.32,1.08.54,2.16,1.07,3.23,1.6,1.24.67,2.47,1.33,3.7,2,4.97,2.65,9.95,5.18,14.97,7.73,20.06,10.21,40.6,20.9,62.37,42.4l6.56-6.64c-21.76-21.5-42.3-32.19-62.36-42.4-5.01-2.55-10-5.08-14.96-7.73-1.23-.67-2.47-1.33-3.71-2.01-1.13-.59-2.26-1.18-3.4-1.77-2.25-1.19-4.47-2.41-6.66-3.67-8.77-5.06-17.03-10.82-25.47-19.16"/>
          <path class="cls-1" d="M592.95,92.84c10.96,10.83,19.63,21.79,26.51,32.2,3.46,5.22,6.43,10.25,9.27,15.31,2.83,5.05,5.48,10.07,8.11,15.06,10.49,19.97,20.51,39.47,39.74,58.46l6.56-6.64c-19.22-18.99-29.24-38.5-39.73-58.47-2.62-4.99-5.27-10.01-8.11-15.06-.72-1.26-1.43-2.52-2.16-3.79-.73-1.27-1.46-2.52-2.31-3.87-1.65-2.66-3.39-5.35-5.24-8.08-7.39-10.9-16.6-22.41-28.19-33.86"/>
          <polygon class="cls-1" points="688.85 264.33 694.92 229.03 681.17 144.98 677.55 182.34 688.85 264.33"/>
          <polygon class="cls-1" points="746.53 213.78 708.58 215.73 626.37 200.05 662.58 196.91 746.53 213.78"/>
          <polygon class="cls-1" points="700.54 196.82 695.11 191.21 671.16 214.55 676.59 220.16 700.54 196.82"/>
          <polygon class="cls-1" points="694.93 191.42 689.88 185.45 664.6 207.3 669.63 213.28 694.93 191.42"/>
          <polygon class="cls-1" points="676.73 219.91 681.78 225.87 707.08 204.02 702.03 198.05 676.73 219.91"/>
        </g>
        <g>
          <path class="cls-1" d="M574.58,128.87c-4.1-4.06-7.72-8.28-11.07-12.73-5.6-7.43-10.51-15.52-15.51-24.25-4.99-8.72-10.06-18.07-15.74-27.79-1.42-2.43-2.88-4.88-4.38-7.35-.76-1.23-1.52-2.47-2.29-3.71-.77-1.25-1.55-2.5-2.44-3.65-1.78-2.28-3.95-4.14-6.3-5.39-2.36-1.21-4.91-1.87-7.34-1.77-2.43.09-4.74.89-6.61,2.31-1.92,1.36-3.91,2.87-5.95,4.51-4.08,3.3-8.4,7.19-12.92,11.76l-1.82-10.82c4.82-4.7,9.38-8.72,13.7-12.28,2.15-1.77,4.25-3.43,6.28-5,1.97-1.63,4.41-2.65,6.99-2.97,1.29-.14,2.61-.16,3.92.08,1.32.26,2.61.8,3.87,1.39,2.51,1.28,4.81,3.21,6.71,5.58.94,1.2,1.78,2.5,2.6,3.79.82,1.3,1.63,2.58,2.44,3.86,1.6,2.57,3.16,5.12,4.68,7.65,6.08,10.11,11.53,19.84,16.92,28.95,5.4,9.12,10.73,17.62,16.78,25.5,3.62,4.71,7.52,9.22,11.93,13.58"/>
          <path class="cls-1" d="M592.93,92.83c-5.36-5.29-10.57-9.87-15.56-13.79-4.5-3.53-8.84-6.52-13-9.12-4.16-2.59-8.12-4.86-11.94-6.71-7.64-3.76-14.61-6.27-21.19-8.62-1.62-.58-3.24-1.17-4.87-1.76-1.6-.58-3.15-1.26-5.11-1.41-3.83-.38-8.65,1.02-12.69,4.19-.49.42-1.01.8-1.47,1.27l-.71.68-.67.74c-.89.98-1.66,2.1-2.45,3.18-1.57,2.17-3.16,4.28-4.78,6.33-3.24,4.1-6.61,7.96-10.21,11.6l-1.84-11.41c3.85-3.89,7.45-7.98,10.92-12.31,1.73-2.16,3.43-4.38,5.11-6.66.84-1.14,1.66-2.31,2.61-3.34l.71-.78.76-.71c.49-.5,1.04-.89,1.57-1.32,4.31-3.29,9.45-4.68,13.53-4.15,2.08.21,3.73,1,5.43,1.68,1.73.69,3.45,1.37,5.17,2.05.87.37,1.76.64,2.63,1.09l2.65,1.28c1.81.84,3.62,1.69,5.44,2.54,3.7,1.71,7.53,3.47,11.57,5.49,8.04,4.02,16.91,9.02,26.41,16.58,5.26,4.19,10.76,9.05,16.42,14.64"/>
          <path class="cls-1" d="M398.69,185.71c9.81-9.9,17.16-19.74,23.34-29.61.38-.61.79-1.25,1.12-1.83.29-.53.58-1.06.86-1.59.57-1.08,1.13-2.16,1.69-3.22,1.12-2.17,2.21-4.37,3.3-6.61,2.26-4.67,4.48-9.27,6.72-13.91,4.68-9.57,9.99-19.78,16.87-30.37,6.86-10.56,15.34-21.54,25.77-32.05l-2.19-10.65c-11.11,10.83-20.17,22.33-27.53,33.41-7.39,11.09-13.16,21.76-18.28,31.78-2.47,4.86-4.91,9.69-7.4,14.58-1.21,2.36-2.42,4.67-3.65,6.96-.62,1.13-1.24,2.26-1.87,3.4-.32.56-.63,1.12-.95,1.68-.38.61-.75,1.22-1.13,1.84-6.18,9.87-13.53,19.71-23.34,29.6"/>
          <path class="cls-1" d="M371.33,158.57c10.44-10.53,20.77-18.52,31-25.2,10.31-6.76,20.05-11.73,29.15-16.06,9.11-4.34,17.58-8.03,25.71-12.59,8.14-4.58,15.92-9.99,24.12-18.26l-2.32-10.92c-8.77,8.84-17.04,14.76-25.66,19.81-8.6,5.03-17.51,9.17-27.07,13.96-9.55,4.77-19.74,10.2-30.56,17.47-10.25,6.7-20.56,14.67-31.01,25.21"/>
          <path class="cls-1" d="M510.08,97.34c-1.21-2.89-2.39-5.53-3.51-8-1.12-2.46-2.21-4.76-3.4-7.06-2.36-4.57-4.94-8.92-7.75-13.04-4.14-1.76-8.6-3.19-13.38-4.3-2.39-.55-4.86-1.03-7.42-1.42-2.53-.32-5.14-.5-7.84-.73-2.71-.22-5.5-.38-8.38-.48l-4.39-.13c-1.48,0-2.98.01-4.5.05-6.1.09-12.47.66-19.19,1.48,5.51,1.34,10.76,2.93,15.75,4.79,5,1.89,9.75,4.01,14.22,6.36,10.67,1.12,20.13,3.54,28.34,7.17,4.11,1.82,7.91,3.95,11.4,6.39,1.75,1.22,3.42,2.52,5.01,3.9.79.69,1.56,1.38,2.4,2.2.83.81,1.74,1.77,2.65,2.81Z"/>
          <path class="cls-1" d="M512.92,1.94c-2.39,2.45-4.67,5.27-6.69,8.48-2.04,3.19-3.72,6.83-5.16,10.68-2.94,7.66-5.66,15.43-8.1,23.55-14.1,36.29-23.37,67.71-27.81,94.26-.28-12.82.4-26.62,2.06-41.4,2.33-7.91,4.98-16.15,7.94-24.69,2.96-8.49,6.2-17.67,9.91-25.94,1.84-4.23,3.76-8.4,5.75-12.54,1.99-4.13,4.07-8.24,6.19-12.23,1.06-2,2.14-3.99,3.24-5.97.56-.98,1.09-1.99,1.68-2.93l.88-1.43.96-1.34c1.3-1.76,2.74-3.39,4.3-4.79.76-.74,1.58-1.35,2.38-2.01.82-.58,1.64-1.21,2.48-1.71Z"/>
          <polygon class="cls-1" points="477.98 49.57 472.14 54.92 480.38 93.49 485.02 89.07 477.98 49.57"/>
          <path class="cls-1" d="M472.23,55.21l-5.98,4.82,1.92,9.51,2.05,9.76c1.38,6.49,2.79,12.95,4.24,19.38l4.8-3.83c-1.26-6.62-2.48-13.28-3.67-19.97l-1.76-10.06-1.6-9.62Z"/>
          <path class="cls-1" d="M484.91,88.78l4.73-3.78c-.82-7.06-1.61-14.15-2.37-21.28l-1.11-10.71-.9-9.67-5.88,4.7,1.2,9.62,1.4,10.43c.95,6.93,1.93,13.83,2.94,20.7Z"/>
        </g>
        <g>
          <path class="cls-1" d="M398.68,185.72c-39.26,39.59-77.9,39.74-120.98,83.19l-6.63-6.58c43.08-43.45,81.72-43.61,120.97-83.2"/>
          <path class="cls-1" d="M371.31,158.59c-41.76,42.12-42.99,82.17-81.04,120.54l-6.63-6.58c38.05-38.38,39.27-78.44,81.03-120.55"/>
          <path class="cls-1" d="M189.69,396.49c39.26-39.59,39.08-78.24,82.16-121.69l-6.63-6.58c-43.08,43.45-42.91,82.09-82.17,121.68"/>
          <path class="cls-1" d="M162.32,369.36c41.76-42.12,81.8-43.69,119.85-82.06l-6.63-6.58c-38.05,38.38-78.1,39.94-119.86,82.06"/>
          <polygon class="cls-1" points="332.66 275.11 297.37 268.98 213.3 282.58 250.64 286.26 332.66 275.11"/>
          <polygon class="cls-1" points="282.21 217.34 284.09 255.3 268.26 337.48 265.19 301.26 282.21 217.34"/>
          <polygon class="cls-1" points="265.17 263.3 259.54 268.71 282.84 292.71 288.47 287.29 265.17 263.3"/>
          <polygon class="cls-1" points="259.76 268.9 253.78 273.94 275.59 299.26 281.57 294.23 259.76 268.9"/>
          <polygon class="cls-1" points="288.21 287.15 294.19 282.11 272.38 256.78 266.4 261.81 288.21 287.15"/>
        </g>
        <g>
          <path class="cls-1" d="M189.67,396.51c-8.02,8.09-16.01,14.53-24.02,20.03-3.99,2.74-8.04,5.29-12.01,7.61-3.49,1.83-7.07,3.6-10.76,5.41-7.37,3.6-15.16,7.33-23.33,11.81-8.16,4.47-16.71,9.69-25.42,16.1-7.58,5.52-15.46,12.17-23.09,19.86l-10.51-2.33c7.89-8.2,16.12-15.3,24.09-21.2,9.14-6.85,18.09-12.47,26.63-17.33,8.55-4.86,16.7-8.96,24.44-12.93,3.87-1.99,7.64-3.95,11.31-5.97,3.99-2.34,8.02-4.88,12.02-7.62,8.01-5.5,16-11.94,24.02-20.03"/>
          <path class="cls-1" d="M162.31,369.38c-8.43,8.5-15.2,16.91-20.97,25.25-5.75,8.32-10.61,16.69-14.62,24.5-4.04,7.84-7.36,15.26-10.65,22.33-3.3,7.07-6.58,13.78-10.68,20.35-3.8,6.16-8.44,12.28-14.77,18.67l-10.72-2.46c6.77-6.83,11.81-13.35,15.97-19.88,4.49-6.97,8.14-14.05,11.8-21.49,3.66-7.43,7.34-15.22,11.74-23.43,9.32-16.95,19.35-33.38,36.25-50.43"/>
          <path class="cls-1" d="M129.13,574.6c-7.72-7.88-16.15-14.04-25.52-19.94-9.35-5.88-19.62-11.48-30.51-17.71-5.44-3.11-11.04-6.38-16.71-9.88-2.88-1.71-5.36-3.92-7.17-6.44-1.85-2.51-2.92-5.34-3.27-8.13-.29-2.78.2-5.54,1.56-7.79,1.37-2.23,3.01-4.45,4.78-6.79,3.57-4.66,7.9-9.63,13.1-14.88l-10.71-1.96c-5.36,5.59-9.85,10.85-13.74,15.78-1.93,2.47-3.77,4.81-5.39,7.16-1.58,2.38-2.45,5.3-2.29,8.25.32,2.96,1.4,5.97,3.3,8.64,1.87,2.68,4.43,5.04,7.43,6.86,5.91,3.74,11.73,7.24,17.39,10.58,11.34,6.69,22.04,12.73,31.86,19.09,9.84,6.38,18.78,13.06,27.08,21.53"/>
          <path class="cls-1" d="M92.82,592.61c-5.38-5.5-10.03-10.83-13.98-15.96-3.97-5.13-7.22-10.04-10.02-14.71-5.7-9.33-9.07-17.75-11.91-25.5-.68-1.91-1.35-3.81-2.03-5.71l-.98-2.79c-.32-.92-.67-1.83-.85-2.87-.83-4.08.33-9.53,3.7-14.24.8-1.19,1.82-2.29,2.87-3.36.56-.51,1.11-1.03,1.71-1.5.61-.46,1.21-.94,1.84-1.38,2.5-1.78,4.92-3.58,7.27-5.42,4.7-3.68,9.09-7.5,13.2-11.64l-11.2-1.97c-4.39,4.43-9.05,8.52-14,12.45-2.48,1.97-5.02,3.89-7.64,5.79-.67.47-1.29.98-1.93,1.47-.63.51-1.2,1.06-1.78,1.6-1.09,1.14-2.15,2.31-2.98,3.59-3.48,5.03-4.58,10.84-3.56,15.17.23,1.1.63,2.07,1.01,3.05l1.15,2.96c.68,1.99,1.74,3.98,2.7,6.02,3.85,8.12,7.55,16.95,13.3,26.87,1.42,2.48,3.01,5.02,4.75,7.62,1.71,2.61,3.64,5.26,5.74,7.97,4.19,5.42,9.15,11.04,14.84,16.85"/>
          <path class="cls-1" d="M137.83,471.6c-2.55-.13-5.12-.22-7.74-.29-10.86-.25-22.31.08-34.34,1-8.11,2.25-16.54,4.82-25.29,7.71-4.38,1.45-8.83,2.98-13.37,4.59-1.17.4-2.19.82-3.27,1.25l-3.2,1.29c-2.13.87-4.26,1.76-6.37,2.67-8.44,3.64-16.74,7.61-24.71,11.82-8.18,3.99-14.19,10.57-17.53,17.12,4.28-4.51,9.79-8.97,16.52-12.44,3.35-1.75,7.06-3.2,10.92-4.47,3.83-1.31,7.7-2.56,11.62-3.75l2.9-1.23c.97-.41,2.14-.79,3.19-1.18l6.42-2.28c4.25-1.48,8.43-2.9,12.54-4.24,8.22-2.69,16.18-5.11,23.85-7.25,15.36-4.28,29.63-7.47,42.81-9.56,1.7-.27,3.38-.52,5.04-.75Z"/>
          <path class="cls-1" d="M65.78,435.61c.76,4.15,1.67,8.14,2.72,11.99.93,3.29,1.95,6.47,3.06,9.53,1.13,3.07,2.34,6.02,3.61,8.86.34,10.7,1.88,20.18,4.63,28.44,1.38,4.13,3.05,7.96,5.03,11.48,1.8,3.39,5.69,8.14,11.71,12.08-6.76-2.64-12.6-5.8-17.31-8.79l-1.72-1.11-1.62-1.08c-1.02-.68-2.01-1.38-2.95-2.05-1.9-1.36-3.74-2.78-5.52-4.27-1.21-3.61-2.18-7.46-2.91-11.54-.37-2.04-.68-4.14-.92-6.31-.12-1.08-.23-2.18-.33-3.29l-.13-1.68-.02-1.68c-.1-9.02-.16-19.19,1.17-30.24.42-3.37.92-6.82,1.51-10.36Z"/>
          <polygon class="cls-1" points="53.3 477.78 47.65 483.58 66.69 486.96 86.78 490.44 91.59 485.85 72.09 481.77 53.3 477.78"/>
          <path class="cls-1" d="M47.97,483.62l-6.15,5.71,8.49,1.65,9.96,1.78c6.66,1.17,13.35,2.31,20.07,3.41l5.48-4.51c-6.53-1.3-13.04-2.63-19.51-3.99l-9.68-2.07-8.67-1.97Z"/>
          <path class="cls-1" d="M91.22,485.83l5.39-4.45c-6.1-1.74-12.17-3.5-18.2-5.31l-9.03-2.73-8.65-2.7-6.26,5.65,8.65,2.36,9.32,2.44c6.23,1.61,12.49,3.18,18.78,4.73Z"/>
        </g>
        <g>
          <path class="cls-1" d="M129.14,574.61c7.72,7.88,12.93,15.64,17.47,23.93,1.13,2.07,2.22,4.17,3.28,6.31,1.09,2.16,1.98,4.18,3.44,6.8,2.63,4.98,5.14,9.97,7.67,15,10.13,20.1,20.73,40.69,42.15,62.54l-6.67,6.54c-21.41-21.85-32.02-42.44-42.15-62.53-2.53-5.02-5.04-10.02-7.67-14.99-1.4-2.57-2.47-4.77-3.66-7.03-1.18-2.25-2.38-4.47-3.63-6.66-5.02-8.78-10.73-17.05-19.03-25.52"/>
          <path class="cls-1" d="M92.84,592.62c10.79,11.01,21.72,19.73,32.11,26.67,5.22,3.49,10.23,6.48,15.28,9.34,5.04,2.85,10.05,5.52,15.03,8.17,19.92,10.57,39.39,20.67,58.3,39.97l-6.67,6.54c-18.91-19.3-38.38-29.4-58.31-39.97-4.98-2.64-9.99-5.31-15.03-8.17-4.94-2.75-10.32-6.1-15.76-9.83-10.88-7.44-22.36-16.71-33.76-28.35"/>
          <path class="cls-1" d="M329.47,779.02c-39.02-39.82-77.67-40.19-120.5-83.89l-6.67,6.54c42.83,43.7,81.46,44.08,120.49,83.9"/>
          <path class="cls-1" d="M301.94,805.99c-41.51-42.36-42.51-82.42-80.34-121.01l-6.67,6.54c37.83,38.6,38.82,78.66,80.33,121.02"/>
          <polygon class="cls-1" points="210.15 634.32 203.51 669.52 215.9 753.78 220.12 716.49 210.15 634.32"/>
          <polygon class="cls-1" points="151.66 683.94 189.64 682.6 271.58 699.61 235.32 702.16 151.66 683.94"/>
          <polygon class="cls-1" points="197.37 701.63 202.7 707.34 227.03 684.39 221.69 678.68 197.37 701.63"/>
          <polygon class="cls-1" points="202.89 707.13 207.84 713.17 233.47 691.73 228.53 685.68 202.89 707.13"/>
          <polygon class="cls-1" points="221.54 678.93 216.59 672.89 190.95 694.33 195.9 700.38 221.54 678.93"/>
        </g>
        <g>
          <path class="cls-1" d="M329.48,779.03c39.02,39.82,38.61,78.46,81.45,122.16l-6.67,6.54c-42.83-43.7-42.43-82.33-81.45-122.15"/>
          <path class="cls-1" d="M301.96,806c41.51,42.36,81.54,44.17,119.37,82.76l-6.67,6.54c-37.83-38.6-77.87-40.39-119.38-82.75"/>
          <path class="cls-1" d="M537.24,991.02c-39.02-39.82-77.67-40.19-120.5-83.89l-6.67,6.54c42.83,43.7,81.46,44.08,120.49,83.9"/>
          <path class="cls-1" d="M509.72,1017.99c-41.51-42.36-42.51-82.42-80.34-121.01l-6.67,6.54c37.83,38.6,38.82,78.66,80.33,121.02"/>
          <polygon class="cls-1" points="417.92 846.33 411.28 881.53 423.67 965.78 427.89 928.49 417.92 846.33"/>
          <polygon class="cls-1" points="359.43 895.94 397.41 894.6 479.35 911.61 443.09 914.16 359.43 895.94"/>
          <polygon class="cls-1" points="405.14 913.64 410.47 919.34 434.8 896.39 429.46 890.69 405.14 913.64"/>
          <polygon class="cls-1" points="410.66 919.13 415.61 925.18 441.24 903.74 436.3 897.68 410.66 919.13"/>
          <polygon class="cls-1" points="429.32 890.94 424.36 884.89 398.72 906.34 403.67 912.38 429.32 890.94"/>
        </g>
      </g>
      <g>
        <g>
          <path class="cls-1" d="M578.47,772.89c41.15-49.65,82.42-56.6,127.53-111.03l7.25,5.88c-45.24,54.58-86.4,61.43-127.58,111.11"/>
          <path class="cls-1" d="M608.14,797.48c43.79-52.84,44.39-96.39,84.3-144.53l7.19,5.96c-39.9,48.15-40.49,91.7-84.29,144.54"/>
          <path class="cls-1" d="M745.11,535.06c1.67,1.4,3.37,2.76,5.09,4.09,1.72,1.32,3.54,2.58,4.94,4.22,2.85,3.22,4.41,7.25,4.65,10.94.13,1.85-.07,3.61-.52,5.18-.46,1.57-1.17,2.91-1.74,4.33-1.18,2.81-2.22,5.62-3.21,8.45-3.93,11.32-7.09,23.27-13.63,37.5-2.95,6.51-6.64,13.52-11.36,21.03-4.71,7.51-10.46,15.52-17.4,23.9l7.62,5.44c7.37-8.89,13.5-17.38,18.58-25.32,5.08-7.95,9.1-15.36,12.37-22.25,7.23-15.06,11.01-27.76,15.6-39.87,1.15-3.03,2.36-6.04,3.71-9.05.65-1.52,1.46-2.97,1.99-4.65.52-1.68.77-3.58.66-5.56-.19-3.96-1.81-8.31-4.84-11.77-1.48-1.76-3.42-3.12-5.26-4.54-1.85-1.43-3.67-2.89-5.46-4.4"/>
          <path class="cls-1" d="M792.37,525.77c2.15,1.91,4.19,3.78,6.14,5.61.97.93,1.96,1.8,2.83,2.78.89.95,1.64,2.03,2.28,3.15,2.58,4.52,2.91,10.1,1.21,14.96-.84,2.44-2.18,4.71-3.89,6.67-.87.98-1.8,1.89-2.75,2.8-.95.91-1.89,1.81-2.82,2.7-1.89,1.78-3.8,3.53-5.71,5.24l-1.44,1.28-1.51,1.26c-1.01.83-2.02,1.66-3.02,2.48-16.09,13.13-31.53,23.88-45.48,34.38-7.09,5.32-13.81,10.6-20.19,16.27-6.38,5.67-12.41,11.73-18.23,18.74l7.69,5.36c6.22-7.5,12.61-14,19.34-20.09,6.73-6.09,13.79-11.77,21.19-17.47,3.65-2.82,7.39-5.65,11.2-8.52,3.82-2.87,7.72-5.8,11.59-8.82,7.78-6.04,15.59-12.44,23.18-19.38,3.76-3.45,7.51-7.06,11.15-10.79.9-.93,1.8-1.87,2.71-2.82.9-.95,1.81-1.9,2.63-2.92,1.64-2.05,2.92-4.41,3.72-6.95,1.62-5.06,1.28-10.87-1.21-15.61-.62-1.18-1.34-2.31-2.2-3.32-.84-1.03-1.79-1.96-2.73-2.94-1.88-1.95-3.85-3.93-5.95-5.96"/>
          <path class="cls-1" d="M647.3,664.68l37.75.49,11.18-3.67c1.85-.6,3.75-1.25,5.56-1.8,1.8-.53,3.62-1.09,5.46-1.68,7.37-2.34,15.07-5.09,23.11-8.24,16.08-6.31,33.51-14.25,52.28-23.81-17.01,5.32-32.95,9.33-47.8,12.05-15.93,6.06-30.56,10.55-43.9,13.49l-43.64,13.17Z"/>
          <path class="cls-1" d="M702.14,718.4l-2.68-40.74c6.07-31.68,7.03-57.19,2.95-76.62,5.49,7.84,9.96,16.91,13.41,27.2-.24,6.43-.81,13.26-1.71,20.48-.45,3.61-.98,7.32-1.6,11.13-.6,3.79-1.35,7.77-2.04,11.66l-8.33,46.88Z"/>
          <path class="cls-1" d="M719.72,665.44l6.19-7.19c-9.15-6.42-18.34-12.81-27.56-19.15l-4.97,5.71c8.81,6.83,17.59,13.71,26.34,20.62Z"/>
          <path class="cls-1" d="M725.66,658.11l6.63-6.9c-9.01-6.54-18.15-12.9-27.43-19.11l-5.43,5.44c8.88,6.69,17.63,13.55,26.24,20.57Z"/>
          <path class="cls-1" d="M693.65,644.93l-5.45,5.48,23.71,23.61,6.44-6.68c-8.1-7.64-16.34-15.11-24.71-22.41Z"/>
        </g>
        <g>
          <path class="cls-1" d="M745.09,535.05c-9.77-8.21-16.25-15.88-21.83-23.92-5.55-8.01-10.17-16.35-15.58-25.36-5.39-8.99-11.58-18.65-19.88-28.97-2.07-2.58-4.23-5.15-6.76-7.96-2.47-2.76-5.06-5.52-7.8-8.31-5.47-5.57-11.5-11.19-18.28-16.88l6.01-7.15c13.55,11.38,24.14,22.51,33.14,33.41,8.93,10.84,15.69,20.99,21.65,30.45,5.97,9.48,11.14,18.28,17.3,26.79,6.18,8.53,13.3,16.75,23.81,25.57"/>
          <path class="cls-1" d="M792.35,525.75c-12.89-11.52-26.36-21.19-39.66-29.05-13.31-7.88-26.09-14.12-38.02-19.69-11.96-5.58-23.11-10.49-33.71-16.04-.66-.35-1.32-.7-1.98-1.05-.68-.37-1.26-.67-2.03-1.12-1.46-.84-2.92-1.71-4.38-2.59-2.92-1.77-5.85-3.64-8.79-5.62-5.88-3.96-11.79-8.37-17.78-13.4l6.01-7.15c5.99,5.03,11.9,9.44,17.78,13.4,2.94,1.98,5.87,3.85,8.79,5.62,1.46.89,2.92,1.75,4.38,2.59,1.44.83,2.79,1.56,4.21,2.33,11.19,6.05,22.9,11.42,35.42,17.48,6.26,3.02,12.71,6.21,19.35,9.7,6.64,3.49,13.49,7.27,20.33,11.51,13.72,8.46,27.26,18.9,39.82,31.16"/>
          <path class="cls-1" d="M525.22,350.49c.66.45,1.27.95,1.87,1.44.6.48,1.2.96,1.79,1.43,1.19.93,2.35,1.81,3.51,2.65,2.31,1.68,4.56,3.18,6.77,4.56,4.43,2.75,8.73,4.97,13.05,6.92,8.62,3.89,17.32,6.74,26.82,10.25,9.48,3.5,19.75,7.67,31.11,13.86,5.67,3.09,11.61,6.68,17.78,10.89.77.53,1.54,1.07,2.33,1.61.8.57,1.61,1.15,2.42,1.73,1.63,1.18,3.26,2.39,4.91,3.64,3.3,2.51,6.64,5.17,10.02,8.02l6.01-7.15c-3.39-2.85-6.73-5.51-10.02-8.02-3.31-2.52-6.52-4.83-9.81-7.11-6.53-4.5-12.79-8.38-18.78-11.73-11.99-6.73-22.84-11.38-32.88-15.35-10.06-3.99-19.31-7.3-28.53-11.7-4.61-2.2-9.22-4.68-13.98-7.7-2.38-1.51-4.8-3.16-7.28-4.98-1.24-.91-2.49-1.86-3.77-2.87-.64-.51-1.28-1.02-1.93-1.54-.64-.53-1.3-1.07-2.01-1.55"/>
          <path class="cls-1" d="M522.84,300.16c13.61,10.43,25.47,21.89,35.79,33.64,5.16,5.86,9.89,11.84,14.33,17.64,4.43,5.81,8.56,11.51,12.49,17.04,7.87,11.07,14.94,21.47,22.47,31.14,3.77,4.84,7.67,9.5,11.9,14.03.53.56,1.07,1.13,1.61,1.7.63.63,1.27,1.27,1.91,1.91,1.29,1.27,2.61,2.54,3.96,3.81,2.7,2.53,5.54,5.06,8.54,7.57l6.01-7.15c-2.99-2.51-5.83-5.04-8.54-7.57-1.35-1.27-2.67-2.54-3.96-3.81-.64-.64-1.28-1.28-1.91-1.91-.58-.6-1.16-1.2-1.73-1.8-4.55-4.8-8.75-9.72-12.82-14.81-8.12-10.17-15.75-21.04-24.19-32.59-8.41-11.52-17.66-23.89-28.66-35.65-10.98-11.77-23.5-22.9-37.65-32.69"/>
          <path class="cls-1" d="M657.45,482.41l.74-37.75-14.38-44.81-1.8-5.6-.91-2.81-1.05-2.92c-1.42-3.92-2.94-7.93-4.56-12.02-3.25-8.18-6.9-16.7-10.95-25.56,3.66,15.75,6.03,30.41,7.1,43.98l25.82,87.49Z"/>
          <path class="cls-1" d="M712.33,428.6c-1.9-.07-3.78-.12-5.63-.15l-2.77-.04c-.94-.02-1.72.08-2.59.11l-10.19.6-20.38,1.21-45.78-8.01-5.72-1c-.94-.15-1.94-.36-2.83-.47l-2.5-.2c-3.31-.24-6.53-.41-9.65-.49-6.24-.17-12.1-.02-17.58.45,9.34-4.2,19.91-7.38,31.7-9.53,1.76.2,3.55.43,5.36.67,1.87.29,3.88.7,5.81,1.05l11.71,2.16,23.41,4.32,23.41,4.32,11.71,2.16,2.93.54c1,.2,1.89.31,3.02.62l6.56,1.68Z"/>
          <polygon class="cls-1" points="658.95 410.22 652.15 404.28 630.08 429.41 636.88 435.35 658.95 410.22"/>
          <polygon class="cls-1" points="651.98 404.5 645.54 398.18 621.78 421.73 628.22 428.07 651.98 404.5"/>
          <polygon class="cls-1" points="636.99 435.08 643.45 441.41 667.21 417.85 660.76 411.52 636.99 435.08"/>
        </g>
        <g>
          <path class="cls-1" d="M525.21,350.48c-2.68-1.76-6.03-2.33-8.96-1.77-1.46.28-2.82.83-3.97,1.57-1.17.74-2.05,1.71-3.03,2.54-3.84,3.4-7.61,6.24-11.43,8.79-7.63,5.1-15.45,9.1-23.94,13.9-8.48,4.78-17.63,10.36-27.55,18.19-4.96,3.91-10.11,8.38-15.41,13.53-2.65,2.57-5.33,5.31-8.05,8.23-1.36,1.46-2.72,2.96-4.09,4.51-.68.78-1.36,1.56-2.05,2.36-.7.83-1.41,1.66-2.13,2.51l-7.15-6.01c.72-.84,1.43-1.68,2.13-2.51.73-.84,1.46-1.68,2.18-2.5,1.45-1.64,2.89-3.24,4.33-4.8,2.87-3.11,5.71-6.03,8.5-8.78,5.59-5.5,11.02-10.3,16.24-14.53,10.46-8.47,20.09-14.62,29.04-19.97,8.96-5.36,17.25-9.92,25.38-15.62,4.07-2.85,8.1-6,12.21-9.73,1.04-.91,1.99-1.97,3.24-2.78,1.24-.81,2.69-1.41,4.26-1.73,3.14-.62,6.74-.02,9.62,1.87"/>
          <path class="cls-1" d="M522.82,300.14c-1.84-1.13-3.94-1.79-6.05-1.97-2.12-.18-4.25.17-6.19.91-1.95.75-3.71,1.92-5.14,3.41-.69.76-1.34,1.56-1.96,2.38-.63.82-1.25,1.63-1.87,2.43-4.93,6.48-9.49,13.08-13.66,19.73-2.08,3.34-4.09,6.62-5.98,10.03-1.89,3.39-3.7,6.75-5.44,10.07-3.48,6.64-6.69,13.11-9.73,19.39-6.1,12.57-11.52,24.33-17.46,35.39-2.97,5.53-6.08,10.89-9.52,16.15-1.72,2.63-3.52,5.23-5.44,7.83-.96,1.3-1.94,2.59-2.96,3.88-.51.64-1.03,1.29-1.55,1.94-.57.69-1.15,1.39-1.73,2.09l-7.15-6.01c.6-.72,1.19-1.44,1.78-2.16.56-.69,1.11-1.38,1.66-2.07,1.09-1.38,2.15-2.76,3.18-4.14,2.06-2.76,4-5.53,5.85-8.32,3.71-5.58,7.07-11.25,10.3-17.07,6.44-11.64,12.32-23.98,18.9-37.1,6.56-13.1,13.95-26.76,22.94-39.9,4.48-6.57,9.35-13.04,14.58-19.31.66-.78,1.32-1.56,1.98-2.35.66-.79,1.34-1.56,2.07-2.3,1.5-1.43,3.35-2.57,5.39-3.3,2.03-.73,4.25-1.08,6.45-.93,2.2.15,4.37.77,6.29,1.82"/>
          <path class="cls-1" d="M322.01,577.59c41.49-49.4,40.88-91.18,86.42-145.4l-7.15-6.01c-45.53,54.21-44.94,95.99-86.43,145.39"/>
          <path class="cls-1" d="M292.5,552.8c44.14-52.55,86.87-60.95,127.09-108.83l-7.15-6.01c-40.22,47.88-82.96,56.27-127.1,108.82"/>
          <path class="cls-1" d="M466.12,430.97c-9.56-3.85-20.06-6.57-31.51-8.16-3.36.76-6.81,1.62-10.35,2.58l-2.67.74-2.79.89-5.6,1.8-22.4,7.19-44.81,14.38,39.92-2.26,43.72-12.89c1.89-.62,3.47-.87,5.12-1.2,1.64-.32,3.25-.61,4.85-.88,3.19-.53,6.3-.97,9.33-1.31,6.06-.68,11.79-.98,17.19-.88Z"/>
          <path class="cls-1" d="M423.74,362.49c-1.95,16.87-2.77,32.39-2.46,46.56l-16.01,91.55-3.67-38.68,8.66-46.85c3.17-15.95,7.66-33.48,13.48-52.58Z"/>
          <polygon class="cls-1" points="401.17 420.85 395.23 427.65 420.36 449.72 426.3 442.92 401.17 420.85"/>
          <polygon class="cls-1" points="395.45 427.82 389.13 434.26 412.68 458.02 419.02 451.58 395.45 427.82"/>
          <path class="cls-1" d="M426.03,442.81l6.33-6.45-11.81-11.84c-3.93-3.96-7.82-7.96-11.68-12l-6.4,6.53,23.56,23.77Z"/>
        </g>
      </g>
      <g>
        <path class="cls-1" d="M611.48,582.36c-.01,12.57-3.24,24.39-8.44,34.22-5.2,9.87-12.28,17.81-20.11,23.75-7.83,5.98-16.51,9.89-25.19,12.08-8.69,2.19-17.41,2.61-25.68,1.65-2.07-.3-4.11-.63-6.12-.98-2.01-.48-3.99-1.02-5.94-1.55-.49-.14-.98-.25-1.46-.42l-1.44-.52c-.95-.35-1.9-.71-2.85-1.06-1.9-.65-3.73-1.58-5.54-2.46-7.23-3.57-13.8-8.28-19.51-13.99-5.7-5.71-10.56-12.39-14.3-20.01-.45-.96-.97-1.89-1.38-2.88-.4-.99-.79-2-1.19-3.01-.88-1.98-1.41-4.12-2.1-6.23-.37-1.05-.58-2.15-.83-3.25-.25-1.1-.5-2.2-.75-3.32-.2-1.12-.32-2.27-.5-3.42-.08-.57-.16-1.15-.25-1.73l-.13-.87-.05-.88,9.3-.81.04.74.11.73c.07.49.14.97.21,1.45.15.96.23,1.93.4,2.87.21.94.42,1.87.62,2.79.2.92.36,1.86.67,2.73.58,1.77.97,3.59,1.71,5.26.32.86.65,1.71.97,2.55.33.84.77,1.62,1.13,2.44,3.05,6.48,7.03,12.26,11.78,17.27,4.74,5.01,10.26,9.24,16.42,12.52,1.54.81,3.1,1.68,4.73,2.28.82.33,1.64.67,2.45,1l1.24.5c.42.16.84.27,1.26.4,1.69.51,3.41,1.03,5.15,1.51,1.75.35,3.52.69,5.33,1.02,7.21,1.05,14.89.9,22.6-.84,7.7-1.74,15.47-5.04,22.5-10.23,7.04-5.16,13.43-12.14,18.13-20.88,4.7-8.7,7.62-19.22,7.64-30.43"/>
        <path class="cls-1" d="M572.95,582.36c-.05,7.41-1.33,14.3-3.54,20.7-2.22,6.39-5.37,12.28-9.35,17.56-3.98,5.28-8.78,9.95-14.34,13.8-5.55,3.82-11.87,6.94-18.75,8.69-6.86,1.8-14.3,2.5-21.96,1.67-1.89-.27-3.84-.51-5.77-.92-1.9-.47-3.82-.98-5.77-1.53-1.89-.67-3.78-1.41-5.7-2.19-1.9-.81-3.7-1.84-5.58-2.83-7.33-4.2-14.19-10.21-19.61-17.99-5.41-7.75-9.35-17.34-10.64-27.93l9.27-1.12c1.13,9.25,4.62,17.62,9.43,24.33,4.81,6.74,10.9,11.88,17.36,15.39,1.66.82,3.25,1.68,4.91,2.35,1.69.63,3.35,1.23,5,1.77,1.71.43,3.39.82,5.04,1.18,1.68.3,3.38.44,5.01.63,6.64.5,13.02-.37,18.83-2.15,5.83-1.73,11.07-4.65,15.59-8.07,4.52-3.46,8.34-7.54,11.44-12.04,3.1-4.5,5.49-9.41,7.14-14.61,1.65-5.22,2.57-10.71,2.63-16.68"/>
        <path class="cls-1" d="M611.48,582.33c-.02-12.57-3.25-24.39-8.45-34.22-5.2-9.87-12.29-17.81-20.12-23.74-7.83-5.97-16.51-9.88-25.19-12.07-8.69-2.18-17.42-2.6-25.68-1.64-2.07.3-4.11.63-6.12.98-2.01.49-3.99,1.02-5.94,1.55-.98.24-1.94.59-2.9.95-.95.35-1.9.71-2.85,1.06-1.9.65-3.72,1.58-5.54,2.46-7.23,3.57-13.8,8.29-19.5,14-5.7,5.71-10.55,12.4-14.29,20.01-.45.96-.98,1.88-1.38,2.88-.39.99-.79,2-1.19,3.01-.89,1.98-1.41,4.13-2.1,6.23-.37,1.05-.58,2.15-.82,3.25-.25,1.1-.5,2.2-.75,3.32-.2,1.12-.32,2.27-.49,3.42-.08.57-.16,1.15-.25,1.73l-.13.87-.05.88,9.3.81.04-.74.11-.73c.07-.49.14-.97.21-1.45.14-.96.24-1.93.4-2.87.21-.94.42-1.87.62-2.79.2-.92.35-1.86.67-2.73.58-1.77.97-3.59,1.71-5.26.32-.86.65-1.71.97-2.55.32-.85.77-1.62,1.13-2.44,3.04-6.48,7.03-12.26,11.77-17.27,4.74-5.01,10.26-9.25,16.41-12.53,1.54-.81,3.1-1.68,4.73-2.28.82-.33,1.64-.67,2.45-1,.82-.34,1.65-.68,2.5-.91,1.69-.51,3.4-1.03,5.15-1.52,1.75-.35,3.52-.69,5.33-1.02,7.21-1.06,14.89-.91,22.6.83,7.7,1.74,15.47,5.04,22.51,10.22,7.04,5.15,13.44,12.14,18.14,20.87,4.7,8.7,7.63,19.21,7.65,30.43"/>
        <path class="cls-1" d="M572.95,582.34c-.06-7.41-1.33-14.3-3.55-20.69-2.22-6.39-5.38-12.27-9.36-17.56-3.98-5.28-8.79-9.95-14.34-13.8-2.76-1.97-5.76-3.59-8.88-5.11-1.61-.67-3.22-1.35-4.82-2.02-1.65-.54-3.33-1.04-5.05-1.55-6.86-1.79-14.3-2.5-21.96-1.66-1.89.28-3.85.51-5.77.92-1.9.47-3.82.98-5.77,1.53-1.89.67-3.78,1.41-5.7,2.19-1.9.82-3.7,1.84-5.58,2.83-7.33,4.21-14.18,10.21-19.6,18-5.41,7.75-9.34,17.35-10.63,27.93l9.27,1.12c1.12-9.25,4.61-17.62,9.42-24.34,4.81-6.74,10.89-11.88,17.35-15.4,1.66-.82,3.25-1.68,4.91-2.35,1.69-.63,3.35-1.23,5-1.77,1.71-.43,3.39-.82,5.04-1.18,1.67-.3,3.38-.44,5.01-.63,6.64-.5,13.02.36,18.83,2.14,1.45.51,2.87.99,4.26,1.5,1.34.63,2.68,1.26,4.03,1.9,2.59,1.42,5.05,2.89,7.3,4.66,4.52,3.45,8.34,7.54,11.45,12.03,3.1,4.5,5.5,9.41,7.15,14.61,1.65,5.21,2.58,10.71,2.64,16.68"/>
        <path class="cls-1" d="M456,656.29c-.25-1.07-.49-2.13-.71-3.18-.2-1.07-.36-2.16-.52-3.23-.31-2.14-.57-4.25-.76-6.31-.23-2.04-.24-4.18-.27-6.22-.01-2.05.03-4.06.12-6.02.14-1.99.38-3.98.64-5.9.28-1.93.54-3.77.97-5.63.44-1.87.92-3.68,1.43-5.44.52-1.76,1.04-3.45,1.76-5.14.59-9.72,3.25-18.6,7.38-25.9,4.09-7.32,9.49-13.13,15.38-17.08,5.88-3.97,12.22-6.1,18.13-6.57,5.92-.48,11.42.72,15.76,3.11-3.85-3.27-8.89-6.04-14.37-7.43-2.85-.82-5.65-1.16-8.77-1.39-1.56-.11-3.02-.04-4.61.01-1.55.09-3.25.17-4.78.45-1.63.71-3.39,1.45-5.06,2.35-1.61.93-3.27,1.94-4.95,3.03-1.57,1.14-3.13,2.39-4.73,3.72-.83.66-1.51,1.38-2.26,2.11-.73.73-1.47,1.49-2.21,2.27-5.74,6.28-10.55,14.24-13.72,23.52-3.21,9.3-4.5,19.92-3.59,31.04.91,11.11,4.09,22.69,9.74,33.82Z"/>
        <path class="cls-1" d="M510.79,602.56c-2.37,1.26-4.8,2.09-7.55,2.8-1.36.34-2.67.52-4.11.72-.71.09-1.44.17-2.18.23-.73.05-1.42.05-2.15.06-1.45,0-2.97-.05-4.51-.17-1.46-.18-2.98-.42-4.53-.73-.76-.16-1.6-.31-2.34-.53-.75-.21-1.51-.45-2.28-.69-1.51-.51-3.17-1.04-4.66-1.73-1.45-1.17-2.98-2.41-4.44-3.76-1.36-1.38-2.75-2.86-4.14-4.42-1.25-1.59-2.48-3.28-3.73-5.05-1.18-1.78-2.18-3.66-3.26-5.62-4.02-7.84-6.64-17.21-7.09-27.39-.46-10.17,1.25-21.09,5.4-31.79,4.14-10.7,10.73-21.17,19.73-30.37-5.12,8.06-8.85,16.27-10.96,24.55-2.25,8.14-2.86,16.34-2.41,23.82-1.78,9.76-1.29,19.23,1.01,27.51,2.3,8.29,6.34,15.36,11.25,20.74,4.92,5.39,10.72,9.05,16.5,10.96,5.78,1.92,11.54,2.09,16.43.85Z"/>
        <path class="cls-1" d="M480.36,581.72l.28-3.75c.17-1.24.43-2.46.63-3.69-10.94-2.18-21.85-4.51-32.74-6.98-.38,2.13-.74,4.28-1.07,6.42-.26,2.15-.35,4.31-.5,6.47,11.13.66,22.26,1.17,33.39,1.53Z"/>
        <path class="cls-1" d="M480.99,574.24c.23-1.23.78-2.38,1.17-3.56l.62-1.75.81-1.68c-10.17-4.52-20.13-9.64-29.84-15.32-.88,1.96-1.74,3.95-2.57,5.95-.45.99-.76,2.02-1.1,3.05l-.99,3.11c5.22,2,10.49,3.85,15.79,5.54,5.3,1.7,10.71,3.26,16.11,4.66Z"/>
        <path class="cls-1" d="M447.26,580.08c-.27,2.15-.25,4.3-.26,6.47v3.25c.01,1.09.17,2.17.25,3.26,11.22-.03,22.37-.68,33.4-1.93l-.23-3.78c0-1.26.1-2.52.14-3.77-5.57-.28-11.16-.7-16.73-1.29-5.53-.58-11.06-1.32-16.58-2.2Z"/>
      </g>
    </g>
  </g>
</svg>