<?xml version="1.0" encoding="UTF-8"?>
<svg id="Layer_2" data-name="Layer 2" xmlns="http://www.w3.org/2000/svg" viewBox="0 0 614.49 1094.77">
  <defs>
    <style>
      .cls-1 {
        fill: #bfbfbf;
        stroke: #000;
        stroke-linecap: round;
        stroke-width: 4.5px;
      }
    </style>
  </defs>
  <g id="Layer_2-2" data-name="Layer 2">
    <g>
      <g>
        <g>
          <path class="cls-1" d="M16.49,2.25c37.93,11.82,48.38,43.71,90.01,56.67l-2.78,8.92C62.1,54.87,51.64,22.99,13.71,11.18"/>
          <path class="cls-1" d="M5.03,39.04c40.35,12.57,68.42-7.31,105.19,4.15l-2.78,8.92c-36.77-11.45-64.84,8.44-105.19-4.13"/>
          <path class="cls-1" d="M218.44,65.16c-37.93-11.82-64.65,8.5-106.28-4.47l-2.78,8.92c41.63,12.97,68.34-7.33,106.27,4.48"/>
          <path class="cls-1" d="M206.98,101.95c-40.35-12.57-52.17-44.87-88.93-56.32l-2.78,8.92c36.77,11.45,48.58,43.77,88.93,56.34"/>
          <polygon class="cls-1" points="96.08 10.22 101.29 42.62 133.22 105.06 125.77 72.25 96.08 10.22"/>
          <polygon class="cls-1" points="69.58 82.1 95.37 60.73 156.52 30.95 132.26 52.39 69.58 82.1"/>
          <polygon class="cls-1" points="105.98 72.21 111.23 74.04 121.61 42.25 116.35 40.42 105.98 72.21"/>
          <polygon class="cls-1" points="111.31 73.77 116.39 76.08 128.09 44.83 123.01 42.5 111.31 73.77"/>
          <polygon class="cls-1" points="116.32 40.71 111.23 38.39 99.53 69.65 104.62 71.97 116.32 40.71"/>
        </g>
        <g>
          <path class="cls-1" d="M343.44,190.25c16.83,54.17-1.03,88.82,17.44,148.28l-8.92,2.77c-18.47-59.46-.62-94.1-17.45-148.27"/>
          <path class="cls-1" d="M306.64,201.68c17.9,57.63,52.84,78,69.16,130.51l-8.92,2.77c-16.31-52.51-51.27-72.88-69.17-130.51"/>
          <path class="cls-1" d="M433.04,478.66c-16.83-54.17-51.18-72.6-69.65-132.06l-8.92,2.77c18.47,59.45,52.81,77.89,69.64,132.06"/>
          <path class="cls-1" d="M396.24,490.09c-17.9-57.63-.66-94.21-16.97-146.72l-8.92,2.77c16.31,52.51-.95,89.1,16.96,146.73"/>
          <polygon class="cls-1" points="391.97 292.33 370.1 320.96 343.01 402.73 363.67 371.08 391.97 292.33"/>
          <polygon class="cls-1" points="317.25 309.68 351.79 326.25 417.29 379.96 383.74 365.28 317.25 309.68"/>
          <polygon class="cls-1" points="350.07 347.03 352.26 354.67 384.38 345.37 382.19 337.73 350.07 347.03"/>
          <polygon class="cls-1" points="352.52 354.57 354.2 362.34 386.81 355.02 385.14 347.24 352.52 354.57"/>
          <polygon class="cls-1" points="381.95 337.89 380.26 330.12 347.64 337.45 349.33 345.22 381.95 337.89"/>
        </g>
        <g>
          <path class="cls-1" d="M433.04,478.68c16.83,54.17-1.03,88.82,17.44,148.28l-8.92,2.77c-18.47-59.46-.62-94.1-17.45-148.27"/>
          <path class="cls-1" d="M396.24,490.11c17.9,57.63,52.84,78,69.16,130.51l-8.92,2.77c-16.31-52.51-51.27-72.88-69.17-130.51"/>
          <path class="cls-1" d="M522.64,767.08c-16.83-54.17-51.18-72.6-69.65-132.06l-8.92,2.77c18.47,59.45,52.81,77.89,69.64,132.06"/>
          <path class="cls-1" d="M485.84,778.51c-17.9-57.63-.66-94.21-16.97-146.72l-8.92,2.77c16.31,52.51-.95,89.1,16.96,146.73"/>
          <polygon class="cls-1" points="481.57 580.76 459.7 609.38 432.62 691.15 453.27 659.51 481.57 580.76"/>
          <polygon class="cls-1" points="406.85 598.1 441.39 614.68 506.89 668.38 473.34 653.71 406.85 598.1"/>
          <polygon class="cls-1" points="439.67 635.46 441.86 643.1 473.98 633.8 471.8 626.16 439.67 635.46"/>
          <polygon class="cls-1" points="442.12 643 443.8 650.77 476.41 643.44 474.74 635.67 442.12 643"/>
          <polygon class="cls-1" points="471.55 626.32 469.86 618.54 437.25 625.87 438.93 633.64 471.55 626.32"/>
        </g>
        <g>
          <path class="cls-1" d="M522.65,767.1c16.83,54.17-1.03,88.82,17.44,148.28l-8.92,2.77c-18.47-59.46-.62-94.1-17.45-148.27"/>
          <path class="cls-1" d="M485.84,778.53c17.9,57.63,52.84,78,69.16,130.51l-8.92,2.77c-16.31-52.51-51.27-72.88-69.17-130.51"/>
          <path class="cls-1" d="M612.24,1055.51c-16.83-54.17-51.18-72.6-69.65-132.06l-8.92,2.77c18.47,59.45,52.81,77.89,69.64,132.06"/>
          <path class="cls-1" d="M575.44,1066.94c-17.9-57.63-.66-94.21-16.97-146.72l-8.92,2.77c16.31,52.51-.95,89.1,16.96,146.73"/>
          <polygon class="cls-1" points="571.17 869.18 549.3 897.81 522.22 979.58 542.87 947.93 571.17 869.18"/>
          <polygon class="cls-1" points="496.45 886.53 530.99 903.11 596.49 956.81 562.94 942.14 496.45 886.53"/>
          <polygon class="cls-1" points="529.27 923.89 531.46 931.53 563.58 922.23 561.4 914.59 529.27 923.89"/>
          <polygon class="cls-1" points="531.72 931.43 533.4 939.19 566.01 931.87 564.34 924.09 531.72 931.43"/>
          <polygon class="cls-1" points="561.15 914.74 559.47 906.97 526.85 914.3 528.53 922.07 561.15 914.74"/>
        </g>
        <g>
          <path class="cls-1" d="M297.51,204.52l-.27-.86-.26-.86-.24-.86-.22-.86-.21-.87-.19-.87-.18-.87-.16-.87-.15-.87-.14-.87-.12-.88-.11-.88-.09-.88-.08-.88c-.04-.59-.08-1.17-.12-1.76-.02-.59-.05-1.17-.07-1.76,0-.59-.01-1.17-.02-1.76,0-.59.02-1.17.03-1.76.02-.59.05-1.17.07-1.76.04-.59.08-1.17.12-1.75.05-.58.11-1.17.16-1.75.07-.58.13-1.16.2-1.74.08-.58.16-1.16.24-1.74.09-.58.18-1.15.28-1.73.1-.58.21-1.15.31-1.72.12-.57.23-1.14.34-1.71.13-.57.25-1.13.38-1.7.14-.56.27-1.12.41-1.68.15-.56.29-1.12.43-1.67.15-.55.31-1.11.46-1.65.16-.55.32-1.1.49-1.64.17-.54.34-1.08.51-1.62.18-.54.35-1.07.53-1.6.18-.53.37-1.06.55-1.58.19-.52.38-1.04.57-1.56.2-.52.39-1.03.58-1.54.2-.51.4-1.01.6-1.52.2-.5.41-1,.61-1.49.21-.49.41-.98.62-1.47.21-.48.42-.96.63-1.44.21-.48.43-.95.63-1.41.44-.93.87-1.84,1.28-2.73.44-.89.87-1.76,1.29-2.61.44-.85.87-1.67,1.28-2.47.43-.8.85-1.58,1.26-2.33.42-.75.83-1.48,1.23-2.17.41-.7.8-1.37,1.18-2.01.39-.64.76-1.26,1.11-1.84.36-.58.71-1.14,1.03-1.66.33-.52.65-1.01.94-1.47.61-.91,1.13-1.69,1.55-2.32.44-.63.78-1.12,1.01-1.45.24-.33.36-.5.36-.5-.29.49-.58.98-.87,1.47-.28.49-.55.99-.83,1.49-.26.5-.53,1-.79,1.5-.25.5-.5,1.01-.76,1.51-.24.51-.48,1.01-.72,1.52-.23.51-.46,1.02-.69,1.54-.22.51-.44,1.03-.66,1.54-.21.52-.42,1.03-.62,1.55l-.59,1.56-.56,1.57-.53,1.57-.5,1.58-.47,1.58-.44,1.58-.42,1.58-.39,1.58-.36,1.58-.34,1.57-.32,1.57-.29,1.57-.27,1.56-.25,1.55-.22,1.54-.2,1.53-.18,1.52-.16,1.51c-.09,1-.18,1.99-.27,2.98-.07.98-.14,1.95-.21,2.92-.05.96-.1,1.91-.14,2.85-.03.93-.06,1.86-.09,2.77-.01.91-.02,1.8-.04,2.68,0,.88,0,1.74,0,2.58.02.84.03,1.67.05,2.47.03.8.05,1.59.08,2.36.04.76.07,1.51.11,2.23.04.72.09,1.42.13,2.1.05.67.1,1.33.14,1.95.11,1.25.22,2.4.31,3.44.11,1.03.21,1.96.3,2.75.19,1.59.32,2.68.38,3.17"/>
          <path class="cls-1" d="M204.19,110.87c.13.04.26.07.39.11.13.03.27.07.4.1.27.06.56.12.85.18.29.05.59.11.9.16.31.04.63.09.96.14.33.04.67.08,1.01.12.35.03.7.06,1.06.1.36.02.73.05,1.11.08.38.02.76.04,1.15.06.39.01.79.02,1.19.04.41,0,.82.01,1.23.02.42,0,.84,0,1.27,0,.43,0,.87-.01,1.31-.02.89-.03,1.79-.05,2.72-.08.93-.05,1.87-.09,2.83-.14.96-.06,1.94-.13,2.93-.19.99-.08,2-.16,3.01-.24,1.02-.1,2.04-.19,3.08-.29,1.03-.11,2.08-.22,3.12-.33,1.05-.12,2.1-.24,3.15-.36l3.15-.39c2.1-.28,4.2-.57,6.25-.85,2.06-.31,4.09-.61,6.06-.9,1.98-.32,3.89-.62,5.73-.91,1.84-.31,3.6-.61,5.25-.89,1.65-.29,3.2-.57,4.62-.82,2.84-.53,5.17-.96,6.78-1.26,1.62-.32,2.52-.49,2.52-.49l.16-8.51c-.89.23-1.8.47-2.71.71-.91.22-1.83.44-2.76.66-.93.2-1.86.41-2.81.61-.94.19-1.89.38-2.84.57-.95.17-1.91.35-2.87.52-.96.16-1.92.32-2.89.48-.96.15-1.93.29-2.9.44l-2.9.4-2.89.36c-.96.11-1.92.22-2.88.33-.96.1-1.91.2-2.86.29-.95.09-1.89.18-2.83.26-.94.08-1.86.16-2.79.23-.92.07-1.83.14-2.74.2-1.81.11-3.58.22-5.3.32-1.72.08-3.4.15-5.01.23-1.61.05-3.17.1-4.66.14-1.48.03-2.9.05-4.24.07-1.33,0-2.59.01-3.75.02-1.16,0-2.23-.02-3.19-.02-.96-.02-1.83-.04-2.57-.05-.75-.03-1.38-.05-1.89-.07-.25-.01-.48-.03-.67-.04-.19-.02-.35-.03-.48-.04"/>
          <path class="cls-1" d="M343.44,190.25c-.17-.67-.35-1.34-.52-2.02l-.48-2.04-.45-2.05-.42-2.06-.39-2.07-.36-2.07c-.22-1.38-.45-2.76-.67-4.13-.41-2.75-.81-5.45-1.2-8.09-.2-1.31-.39-2.61-.58-3.88-.21-1.27-.41-2.51-.61-3.73-.11-.61-.22-1.2-.32-1.8-.12-.59-.23-1.17-.34-1.74-.12-.57-.24-1.13-.36-1.69-.13-.55-.26-1.09-.39-1.63-.14-.53-.28-1.05-.41-1.56-.07-.25-.15-.51-.22-.75-.08-.25-.15-.49-.23-.74-.08-.24-.16-.48-.24-.72-.08-.24-.16-.47-.24-.7-.09-.23-.17-.46-.25-.68-.09-.22-.18-.44-.26-.66-.09-.21-.18-.43-.28-.64-.1-.21-.19-.41-.29-.62l-.3-.59c-.1-.19-.21-.38-.31-.57-.11-.19-.22-.37-.32-.55-.11-.18-.22-.35-.33-.52-.12-.17-.23-.34-.35-.5-.12-.16-.24-.32-.36-.48-.13-.15-.25-.3-.37-.45-.13-.14-.26-.29-.39-.42-.14-.14-.27-.27-.4-.4l-.21-.19-.21-.18-.22-.17-.22-.17-.22-.16-.23-.15-.23-.15-.24-.14-.24-.13-.24-.12-6.2.28c.07.17.15.35.23.53.07.19.15.38.23.58.08.2.15.41.24.62.08.22.16.44.24.67.15.46.31.95.48,1.46.16.51.32,1.05.49,1.61.16.56.33,1.14.5,1.74.16.6.33,1.23.5,1.87.16.64.33,1.3.51,1.98.17.68.33,1.37.51,2.07.33,1.41.66,2.87,1.01,4.37.33,1.5.66,3.03.99,4.58.32,1.55.64,3.12.96,4.68.31,1.56.62,3.12.92,4.66.58,3.08,1.14,6.07,1.66,8.83.49,2.76.94,5.28,1.32,7.42.73,4.28,1.19,7.02,1.19,7.02"/>
          <path class="cls-1" d="M218.44,65.15s.3.04.88.11c.57.08,1.4.19,2.47.34,1.06.16,2.36.36,3.85.59.74.13,1.54.26,2.38.4.84.15,1.72.31,2.64.47.92.18,1.88.36,2.87.55.99.2,2.02.41,3.08.63,1.06.23,2.14.47,3.26.71,1.11.26,2.25.53,3.41.8,1.16.29,2.34.59,3.54.89,1.19.32,2.41.65,3.64.98,1.22.35,2.46.71,3.71,1.08.62.19,1.25.38,1.87.57.62.2,1.25.4,1.88.6l1.88.62,1.88.65,1.88.68,1.87.7,1.86.73,1.85.76,1.83.79c.61.27,1.21.54,1.81.81.6.28,1.2.56,1.79.84.59.29,1.18.58,1.76.87.58.3,1.16.6,1.73.9.57.31,1.14.62,1.7.93.56.32,1.11.64,1.66.96.54.33,1.08.66,1.62.99.53.34,1.05.68,1.58,1.02.51.35,1.02.71,1.53,1.05l.75.54.73.55.72.55.7.56.69.57.67.58.66.59.64.59.63.6.61.61.59.62.58.63.56.64c.18.22.36.43.54.65.18.22.35.44.52.65.17.22.34.44.5.66.16.23.32.45.48.67.16.23.31.46.46.68.15.23.3.46.44.69.14.23.28.47.42.7.13.24.27.47.4.71.13.24.25.48.38.72.12.24.24.49.36.72.11.25.22.49.33.73.1.25.21.5.31.74.1.25.19.5.29.75.09.26.18.51.26.76.08.26.16.52.24.77.07.26.14.52.21.78.06.27.13.53.19.79l.08.4.02.1v.02s.02,0,.03,0h.05s.2.04.2.04c.26.05.53.11.79.16l5.86,7.7-.57-.31-.59-.3-.62-.28-.64-.26-.66-.25-.68-.23-.7-.21-.73-.2-.75-.18-.77-.17-.79-.15-.81-.14-.83-.12-.85-.11-.87-.09-.89-.08-.24-.73-.26-.72-.27-.71-.29-.7-.3-.69-.32-.68-.33-.67-.35-.66-.36-.65-.37-.64-.39-.63-.4-.62-.42-.61-.43-.6-.44-.59-.46-.58-.47-.57-.48-.56-.49-.55-.51-.54-.52-.53-.53-.52-.54-.51-.55-.51-.56-.5-.58-.49-.59-.48-.6-.47-.61-.46-.62-.46c-.42-.29-.84-.59-1.27-.89-.43-.28-.87-.57-1.3-.86-.44-.27-.89-.55-1.34-.83-.46-.27-.92-.53-1.38-.8-.47-.26-.94-.51-1.41-.77-.48-.25-.96-.5-1.44-.75-.49-.24-.98-.48-1.48-.72-.5-.23-1-.46-1.51-.7-.51-.22-1.02-.45-1.53-.67-.52-.21-1.04-.43-1.56-.65-.53-.21-1.05-.42-1.59-.62-.53-.2-1.07-.4-1.61-.6-.54-.19-1.09-.39-1.63-.58-.55-.19-1.1-.37-1.65-.56-.55-.18-1.11-.36-1.67-.54-.56-.17-1.12-.35-1.69-.52l-1.7-.51c-1.14-.32-2.29-.64-3.45-.96-1.16-.3-2.33-.6-3.49-.9-1.17-.28-2.35-.57-3.53-.85l-3.55-.8-3.55-.77c-1.19-.24-2.37-.49-3.55-.73-2.36-.47-4.71-.93-7.03-1.4-2.32-.46-4.62-.91-6.87-1.35-2.25-.46-4.46-.92-6.61-1.36"/>
          <polygon class="cls-1" points="369.4 99.96 336.95 115.44 273.75 163.17 306.69 145.71 369.4 99.96"/>
          <polygon class="cls-1" points="305.21 90.86 303.97 102.06 303.66 104.86 303.65 104.95 303.65 104.99 303.64 105.01 303.64 105.02 303.65 105.03 303.74 105.1 303.91 105.23 304.27 105.5 304.97 106.05 307.78 108.22 319.04 116.89 351.93 159.14 326.33 144.12 311.43 121.83 303.98 110.68 302.11 107.9 301.65 107.2 301.59 107.11 301.58 107.09 301.59 107.04 301.61 106.95 301.69 106.58 301.86 105.83 302.53 102.83 305.21 90.86"/>
          <polygon class="cls-1" points="307.28 129.53 305.31 134.47 336.74 131.91 338.71 126.98 307.28 129.53"/>
          <polygon class="cls-1" points="305.59 134.42 303.13 139.38 334 138.09 336.45 133.13 305.59 134.42"/>
          <polygon class="cls-1" points="338.43 127.05 340.89 122.09 310.03 123.38 307.55 128.35 338.43 127.05"/>
          <path class="cls-1" d="M334.29,106.46l-19.84-.16-9.92-.08h-1.24s-.62-.01-.62-.01h-.16s-.04,0-.04,0h-.02s0-.02,0-.02l-.02-.05-.09-.22-.76-1.74-1.52-3.48-38.34-32.64,12.02,22.47,19.22,19.01,2.4,2.38.6.59.07.07h0s0,0,.01.02h.04s.09-.02.09-.02l.36-.06.71-.11,2.85-.46,11.39-1.83,22.78-3.66Z"/>
          <polygon class="cls-1" points="320.95 50.47 302.15 82.57 253.99 141.69 271.46 110.4 320.95 50.47"/>
          <polygon class="cls-1" points="290.98 79.27 286.08 80.79 282.43 112.58 287.32 111.07 290.98 79.27"/>
          <polygon class="cls-1" points="286.08 81.04 281.25 82.06 276.36 114.2 281.18 113.17 286.08 81.04"/>
          <polygon class="cls-1" points="287.3 110.83 292.12 109.81 297.02 77.68 292.2 78.69 287.3 110.83"/>
        </g>
      </g>
      <g>
        <g>
          <path class="cls-1" d="M6.79,1032.59c9.83,0,18.64,1.22,27.24,3.14,8.59,1.92,16.96,4.55,25.65,7.36,8.68,2.82,17.66,5.82,27.31,8.5,9.65,2.68,19.98,5.04,31.17,6.55,7.91,1.12,16.51,1.78,25.46,1.78l5.76,8.96c-9.37.14-18.29-.34-26.59-1.4-11.62-1.52-22.34-3.87-32.36-6.55-10.03-2.68-19.36-5.68-28.39-8.5-9.04-2.81-17.77-5.44-26.75-7.36-8.99-1.92-18.21-3.14-28.5-3.14"/>
          <path class="cls-1" d="M6.79,1071.13c12.39,0,23.42-1.2,33.27-3.09,9.86-1.89,18.56-4.48,26.57-7.26,8.02-2.78,15.35-5.76,22.67-8.43,7.32-2.67,14.61-5.04,22.7-6.6,5.87-1.22,12.27-1.94,19.67-1.94l6.05,9.34c-7.91,0-14.78.73-21.09,1.94-8.49,1.56-16.14,3.93-23.81,6.6-7.67,2.67-15.35,5.65-23.73,8.44-8.37,2.78-17.44,5.37-27.71,7.27-10.26,1.89-21.72,3.09-34.6,3.09"/>
          <path class="cls-1" d="M168.38,957.27c0,10.73,1.71,20.88,4.27,31.57,2.56,10.66,5.98,21.81,9.4,33.82,1.71,6,3.42,12.22,5.02,18.65.8,3.21,1.58,6.48,2.31,9.8l.27,1.25c.09.41.22.85.12,1.23-.07.38-.28.67-.53.8-.24.11-.49.18-.74.27-.99.35-2.02.68-3.09,1-8.52,2.56-19.58,4.27-33.98,4.27l6.12,8.83c7.52-.11,14.27-.59,20.36-1.25,3.05-.33,5.94-.72,8.68-1.13,1.36-.22,2.69-.43,4.01-.65.65-.11,1.29-.23,1.93-.34.64-.11,1.27-.22,1.83-.4,1.15-.32,2.27-.65,3.35-1,.27-.09.54-.16.8-.28.26-.14.49-.44.58-.84.11-.4-.03-.85-.11-1.29l-.27-1.31c-.73-3.48-1.51-6.91-2.31-10.29-1.6-6.75-3.31-13.27-5.02-19.59-3.42-12.64-6.83-24.39-9.39-35.7-2.56-11.34-4.27-22.2-4.27-33.73"/>
          <path class="cls-1" d="M206.91,972.57c0,7.48-.41,14.32-1.19,20.51-.76,6.2-1.88,11.74-3.14,16.79-.64,2.52-1.27,4.95-2.01,7.22-.73,2.27-1.51,4.43-2.31,6.49-1.6,4.12-3.31,7.85-5.02,11.37-1.67,3.38-3.34,6.74-5.02,10.13-.39.82-.78,1.65-1.18,2.48l-.57,1.25-.28.63c-.11.21-.36.41-.7.5-.33.1-.74.05-1.13-.05l-1.17-.27c-.77-.17-1.55-.35-2.33-.53-1.53-.33-3.06-.66-4.61-1-12.21-2.56-23.59-4.27-34.92-4.27l6.71,9.34c12.11,0,24.18,1.71,37.04,4.27,1.63.34,3.25.67,4.85,1,.82.18,1.64.35,2.45.53l1.23.27c.41.11.84.16,1.19.04.35-.1.61-.32.72-.55l.29-.69.57-1.37c.39-.91.79-1.81,1.18-2.72,1.56-3.65,3.45-7.12,4.74-11.29,2.9-8.07,6.4-16.44,9.26-27,1.42-5.28,2.67-11.1,3.46-17.66.83-6.54,1.2-13.8,1.22-21.7"/>
          <path class="cls-1" d="M91.25,1016.53c3.88,3.89,7.9,7.79,12.05,11.68,5.99,5.9,12.43,11.8,19.32,17.7,7.29,4.18,15.02,8.35,23.2,12.53,4.09,2.09,8.29,4.18,12.6,6.27,1.11.56,2.07.96,3.1,1.41l3.05,1.32c2.04.87,4.09,1.73,6.15,2.57,8.25,3.36,16.69,6.45,25.31,9.29,4.31,1.42,8.67,2.77,13.08,4.07,2.2.65,4.42,1.27,6.64,1.89l3.35.91,1.68.44c.57.17,1.08.22,1.58.14-.42-.03-.87-.12-1.32-.27l-1.41-.56-2.83-1.15-5.61-2.37c-3.72-1.6-7.4-3.26-11.05-4.96-7.29-3.41-14.43-7.03-21.43-10.86l-2.64-1.09-.66-.28-.72-.34-1.44-.69-5.7-2.76c-3.76-1.84-7.44-3.68-11.03-5.52-7.19-3.68-14.06-7.36-20.59-11.03-13.08-7.36-24.84-14.71-35.31-22.07-3.19-2.08-6.31-4.17-9.36-6.25Z"/>
          <path class="cls-1" d="M120.6,1093.03c2.77-4.98,5.26-9.96,7.45-14.95,1.84-4.56,3.57-8.92,5.12-13.12,6.82-7.77,11.97-15.54,15.45-23.31,1.74-3.88,3.07-7.77,3.97-11.65.45-1.94.8-3.89,1.05-5.83.12-.97.22-1.94.29-2.91l.09-1.46c0-.51.11-.85-.06-1.79l1.49,3.8c.44,1.15.86,2.31,1.26,3.46.8,2.31,1.51,4.61,2.14,6.92,1.26,4.61,2.18,9.23,2.77,13.84-2.83,6.34-6.8,12.68-11.9,19.02-5.73,5.71-11.99,12.02-18.7,19.02-3.3,2.99-6.78,5.98-10.42,8.96Z"/>
          <path class="cls-1" d="M156.16,1071.93l7.85-.06-2.42-3.6-1.21-1.8c-.43-.62-.75-1.14-1.29-1.88l-6.01-8.36-12.08-16.72-6.48-.18,11.27,16.72,5.61,8.36c.5.73.87,1.33,1.26,1.94l1.17,1.86,2.33,3.72Z"/>
          <path class="cls-1" d="M163.83,1071.63l8.15.37-4.53-6.96-5.96-8.33c-3.99-5.55-8.03-11.1-12.12-16.66l-6.9-.71c3.82,5.55,7.6,11.11,11.33,16.66l5.56,8.33c.22.34.49.72.66,1.02l.54.89,1.09,1.79,2.17,3.59Z"/>
          <path class="cls-1" d="M134.78,1039.62l-6.79-.69c3.22,5.55,6.4,11.11,9.53,16.66l4.66,8.33c.82,1.44,1.4,2.64,2.08,3.94l1.98,3.85,8.11.43-2.06-3.74-1.03-1.86c-.36-.64-.64-1.19-1.1-1.92l-5.06-8.33c-3.4-5.55-6.84-11.11-10.32-16.66Z"/>
        </g>
        <g>
          <path class="cls-1" d="M168.38,957.26c0-10.73,1.71-19.53,4.27-28.18,1.28-4.32,2.78-8.58,4.38-12.93.83-2.21,1.65-4.41,2.47-6.61l.63-1.68.64-1.93c.43-1.3.85-2.6,1.28-3.9,6.83-20.86,13.67-42.38,13.67-72.13h9.34c0,29.76-6.83,51.27-13.66,72.13-.43,1.3-.85,2.6-1.28,3.9l-.64,1.94-.63,1.8c-.82,2.35-1.64,4.7-2.47,7.07-1.6,4.66-3.1,9.24-4.38,13.88-2.56,9.31-4.27,18.81-4.27,30.34"/>
          <path class="cls-1" d="M206.91,972.54c0-14.99-1.71-28.63-4.27-40.72-1.28-6.06-2.78-11.75-4.38-17.14-.8-2.71-1.63-5.28-2.47-7.9-.86-2.65-1.7-5.27-2.55-7.88-6.83-20.91-13.66-41.17-13.66-67.45h9.34c0,26.28,6.83,46.55,13.67,67.45,3.42,10.23,6.83,21.53,9.4,34.34,2.56,12.78,4.27,27.17,4.27,43.02"/>
          <path class="cls-1" d="M168.38,671.64c0,16.38,1.71,31.08,4.27,44.28.64,3.3,1.33,6.52,2.07,9.66.19.78.37,1.56.56,2.34l.28,1.16c.1.38.19.68.29,1.02.4,1.32.79,2.64,1.18,3.95,1.6,5.25,3.31,10.42,5.02,15.64,6.83,20.86,13.67,42.38,13.67,72.13h9.34c0-29.75-6.83-51.27-13.66-72.13-3.42-10.58-6.83-20.08-9.39-33.1-2.56-12.54-4.27-26.54-4.27-42.12"/>
          <path class="cls-1" d="M206.91,683.32c0,13.86-1.71,25.57-4.27,36.92-1.28,5.65-2.78,11.28-4.38,16.67-1.6,5.41-3.31,10.68-5.02,15.9-6.83,20.91-13.66,41.17-13.66,67.45h9.34c0-26.28,6.83-46.55,13.67-67.45,1.71-5.23,3.42-10.49,5.02-15.9.8-2.69,1.58-5.48,2.31-8.2.73-2.63,1.43-5.27,2.07-7.93,2.56-10.67,4.27-21.63,4.27-34.63"/>
          <polygon class="cls-1" points="152.32 863.25 181.7 843.32 231.82 776.36 202.71 799.39 152.32 863.25"/>
          <polygon class="cls-1" points="228.82 868.6 200.75 843.68 154.13 776.08 181.82 798.99 228.82 868.6"/>
          <polygon class="cls-1" points="208.56 825.2 208.74 817.6 175.3 816.98 175.12 824.58 208.56 825.2"/>
          <polygon class="cls-1" points="208.46 817.62 209.16 810.05 175.84 807.49 175.13 815.06 208.46 817.62"/>
          <polygon class="cls-1" points="175.4 824.5 174.71 832.08 208.03 834.64 208.73 827.07 175.4 824.5"/>
        </g>
        <g>
          <path class="cls-1" d="M168.38,671.61c-.11-16.44,2.8-29.64,6.48-40.5,1.82-5.48,3.86-10.38,5.86-15.04.14-.29.21-.58.43-.87.22-.28.56-.54.94-.66l2.3-.72c1.54-.46,3.07-.92,4.61-1.38,3.11-.89,6.23-1.74,9.37-2.55,12.62-3.24,25.57-5.84,38.69-9.03,13.17-3.18,26.22-7.17,40.2-13.49l4.66,8.14c-13.19,5.96-25.52,9.66-38.08,12.52-12.53,2.84-25.19,4.94-37.68,7.67-3.11.68-6.22,1.39-9.31,2.15-1.53.39-3.07.79-4.61,1.18l-2.3.62c-.38.1-.71.34-.92.61-.21.28-.26.57-.38.85-1.75,4.56-3.54,9.33-5.15,14.62-3.24,10.5-5.83,23.11-5.75,38.73"/>
          <path class="cls-1" d="M206.91,683.3c0-13.86-1.71-26.6-4.27-39.51-.62-3.21-1.39-6.48-2.02-9.66-.32-1.6-.64-3.19-.95-4.76-.15-.79-.34-1.58-.46-2.37-.02-.39.11-.75.33-.98.22-.21.45-.4.67-.6,3.59-3.19,6.95-6.53,10.37-9.99,6.81-6.9,13.85-14.33,23.07-21.37,9.21-7,20.32-13.87,33.93-20.03l4.74,8.1c-12.91,5.83-23.38,12.43-32.01,19.15-4.33,3.37-8.16,6.81-11.75,10.19-3.56,3.41-6.99,6.66-10.14,10-3.18,3.31-6.24,6.57-9.37,9.74-.19.2-.4.39-.59.6-.18.23-.29.58-.25.96.16.77.38,1.55.56,2.32.37,1.53.75,3.07,1.13,4.62.73,3.07,1.43,6.13,2.07,9.18,2.56,12.22,4.27,24.22,4.27,37.22"/>
          <path class="cls-1" d="M401.67,501.16c-24.71,11.16-40.3,25.71-56.49,40.52-8.1,7.41-16.34,14.88-25.96,22.04-4.81,3.58-9.95,7.07-15.59,10.44-5.67,3.38-11.67,6.56-18.77,9.77l4.22,8.34c6.53-2.95,12.77-6.24,18.39-9.6,5.64-3.37,10.79-6.87,15.6-10.44,9.61-7.15,17.86-14.63,25.96-22.03,16.2-14.81,31.79-29.35,56.5-40.52"/>
          <path class="cls-1" d="M417.53,536.28c-26.28,11.87-48.73,14.52-70.6,16.9-10.93,1.19-21.72,2.32-32.77,4.5-5.52,1.09-11.11,2.44-16.82,4.2-2.85.88-5.73,1.86-8.65,2.96-.73.28-1.46.56-2.19.85-.76.31-1.52.61-2.28.93-1.67.7-3.36,1.43-5.06,2.2l4.14,8.38c1.61-.73,3.21-1.42,4.8-2.08,1.56-.65,2.97-1.2,4.44-1.76,2.92-1.1,5.8-2.08,8.65-2.96,5.7-1.76,11.29-3.11,16.82-4.2,11.05-2.18,21.83-3.3,32.77-4.49,21.87-2.38,44.32-5.02,70.6-16.89"/>
          <path class="cls-1" d="M215.8,567.51c14.7,4.1,28.28,8.72,40.72,13.84,8.12.92,15.83,2.02,23.14,3.3,3.65.64,7.21,1.33,10.66,2.06l10.22,2.26,40.83,9.06-32.97-17.05-19.77-4.89c-6.93-1.48-14.24-2.78-21.94-3.91-15.41-2.26-32.36-3.81-50.87-4.66Z"/>
          <path class="cls-1" d="M264.72,629.35c-.53-10.03.29-20.66,2.46-31.9,2.89-5.57,6.16-11.31,9.82-17.22,1.83-2.96,3.75-5.96,5.76-9l1.53-2.29c.51-.76,1.08-1.55,1.48-2.27l2.65-4.39,21.2-35.16-9.48,34.66-5.51,8.94-2.76,4.47c-.92,1.49-1.82,2.97-2.82,4.5-3.89,6.05-7.38,11.93-10.48,17.63-6.2,11.4-10.82,22.08-13.86,32.05Z"/>
          <path class="cls-1" d="M287.73,596.72l6.66-2.81c-4.59-10.16-9.14-20.33-13.65-30.53l-8.13,3.48c5,9.97,10.04,19.93,15.12,29.86Z"/>
          <path class="cls-1" d="M294.26,593.66l7.06-2.42-11.38-31.41-7.23,2.48c3.69,10.53,7.54,20.98,11.55,31.35Z"/>
          <path class="cls-1" d="M272.82,567.08l-8.38,3.02c4.78,10.03,9.72,19.99,14.82,29.87l6.93-2.36c-4.62-10.1-9.08-20.28-13.37-30.53Z"/>
        </g>
      </g>
    </g>
  </g>
</svg>