<?xml version="1.0" encoding="UTF-8"?>
<svg id="Layer_2" data-name="Layer 2" xmlns="http://www.w3.org/2000/svg" viewBox="0 0 539.52 1107.6">
  <defs>
    <style>
      .cls-1 {
        fill: #bfbfbf;
        stroke: #000;
        stroke-linecap: round;
        stroke-width: 4.5px;
      }
    </style>
  </defs>
  <g id="Layer_2-2" data-name="Layer 2">
    <g>
      <g>
        <path class="cls-1" d="M537.27,17.31c-13.46,40.64-46.01,51.95-60.78,96.55l-8.86-2.94c14.77-44.6,47.31-55.92,60.77-96.56"/>
        <path class="cls-1" d="M500.69,5.19c-14.32,43.23,4.54,73.19-8.5,112.58l-8.86-2.94c13.05-39.39-5.83-69.35,8.49-112.58"/>
        <path class="cls-1" d="M465.61,233.66c13.46-40.64-5.9-69.15,8.88-113.75l-8.86-2.94c-14.77,44.6,4.57,73.1-8.89,113.74"/>
        <path class="cls-1" d="M429.03,221.55c14.32-43.23,47.33-56,60.38-95.4l-8.86-2.94c-13.05,39.39-46.08,52.16-60.39,95.39"/>
        <polygon class="cls-1" points="525.97 102.51 493.13 108.21 428.93 142.63 462.28 134.53 525.97 102.51"/>
        <polygon class="cls-1" points="454.68 74.44 475.13 101.95 502.61 167.27 482.01 141.39 454.68 74.44"/>
        <polygon class="cls-1" points="463.13 113.35 461.08 118.98 492.66 129.96 494.72 124.32 463.13 113.35"/>
        <polygon class="cls-1" points="461.35 119.06 458.81 124.51 489.8 136.9 492.35 131.45 461.35 119.06"/>
        <polygon class="cls-1" points="494.44 124.29 496.97 118.83 465.98 106.44 463.43 111.89 494.44 124.29"/>
      </g>
      <g>
        <path class="cls-1" d="M285.17,363.99c-39.17,0-58.36-27.34-101.35-27.34v-9.34c42.99,0,62.18,27.33,101.35,27.33"/>
        <path class="cls-1" d="M285.17,325.46c-41.67,0-62.26,27.33-100.23,27.33v-9.34c37.97,0,58.56-27.34,100.23-27.34"/>
        <path class="cls-1" d="M76.63,363.99c39.17,0,58.36-27.34,101.35-27.34v-9.34c-42.99,0-62.18,27.33-101.35,27.33"/>
        <path class="cls-1" d="M76.63,325.46c41.67,0,62.26,27.33,100.23,27.33v-9.34c-37.97,0-58.56-27.34-100.23-27.34"/>
        <polygon class="cls-1" points="207.91 380.05 193.51 350.67 145.14 300.55 161.78 329.66 207.91 380.05"/>
        <polygon class="cls-1" points="211.78 303.55 193.77 331.61 144.94 378.23 161.49 350.55 211.78 303.55"/>
        <polygon class="cls-1" points="180.42 323.81 174.94 323.63 174.49 357.07 179.97 357.25 180.42 323.81"/>
        <polygon class="cls-1" points="174.95 323.91 169.48 323.21 167.63 356.53 173.1 357.24 174.95 323.91"/>
        <polygon class="cls-1" points="179.92 356.97 185.39 357.66 187.24 324.34 181.77 323.64 179.92 356.97"/>
      </g>
      <g>
        <path class="cls-1" d="M98.96,307.63c28.59,26.89,23.86,59.98,55.24,89.5l-6.4,6.8c-31.38-29.52-26.66-62.59-55.25-89.49"/>
        <path class="cls-1" d="M72.56,335.7c30.41,28.61,64.16,22.85,91.87,48.91l-6.4,6.8c-27.71-26.07-61.47-20.29-91.88-48.9"/>
        <path class="cls-1" d="M251.16,450.81c-28.59-26.89-61.33-20.16-92.7-49.67l-6.4,6.8c31.37,29.52,64.1,22.79,92.69,49.68"/>
        <path class="cls-1" d="M224.75,478.88c-30.41-28.61-26.72-62.65-54.43-88.72l-6.4,6.8c27.71,26.07,24.01,60.12,54.42,88.73"/>
        <polygon class="cls-1" points="166.35 348.98 156.73 380.26 157.69 449.98 165.49 417.35 166.35 348.98"/>
        <polygon class="cls-1" points="111.11 402.04 143.48 393.97 211.06 393.54 180.01 402.34 111.11 402.04"/>
        <polygon class="cls-1" points="147.87 408.82 151.75 412.71 174.99 388.67 171.11 384.77 147.87 408.82"/>
        <polygon class="cls-1" points="151.94 412.5 155.45 416.76 179.63 393.77 176.12 389.5 151.94 412.5"/>
        <polygon class="cls-1" points="170.96 385.01 167.44 380.75 143.26 403.75 146.77 408.01 170.96 385.01"/>
      </g>
      <g>
        <path class="cls-1" d="M307.8,624.02c-9.63,51.77-41.22,72.12-51.78,128.94l-9.18-1.71c10.56-56.81,42.14-77.18,51.77-128.94"/>
        <path class="cls-1" d="M269.92,616.97c-10.24,55.07,11.56,87.27,2.23,137.45l-9.18-1.71c9.33-50.18-12.49-82.39-2.25-137.45"/>
        <path class="cls-1" d="M256.56,899.6c9.63-51.77-12.54-82.12-1.97-138.93l-9.18-1.71c-10.56,56.81,11.59,87.17,1.96,138.93"/>
        <path class="cls-1" d="M218.67,892.56c10.24-55.07,42.16-77.28,51.49-127.46l-9.18-1.71c-9.33,50.18-41.27,72.39-51.51,127.46"/>
        <polygon class="cls-1" points="304.61 729.05 272.19 742.7 211.02 797.47 243.73 780.8 304.61 729.05"/>
        <polygon class="cls-1" points="230.35 709.95 253.51 738.88 287.35 811.93 264.2 785 230.35 709.95"/>
        <polygon class="cls-1" points="242.56 755.09 241.03 762.31 273.8 769.02 275.32 761.8 242.56 755.09"/>
        <polygon class="cls-1" points="241.31 762.35 239.28 769.44 271.58 777.98 273.63 770.88 241.31 762.35"/>
        <polygon class="cls-1" points="275.03 761.82 277.06 754.71 244.75 746.18 242.72 753.28 275.03 761.82"/>
      </g>
      <g>
        <path class="cls-1" d="M69.68,1054.95c-12.67,0-18.87-27.34-32.77-27.34v-9.34c13.9,0,20.11,27.33,32.77,27.33"/>
        <path class="cls-1" d="M69.68,1016.42c-13.47,0-20.13,27.33-32.41,27.33v-9.34c12.28,0,18.93-27.34,32.41-27.34"/>
        <path class="cls-1" d="M2.25,1054.95c12.67,0,18.87-27.34,32.77-27.34v-9.34c-13.9,0-20.11,27.33-32.77,27.33"/>
        <path class="cls-1" d="M2.25,1016.42c13.47,0,20.13,27.33,32.41,27.33v-9.34c-12.28,0-18.94-27.34-32.41-27.34"/>
        <polygon class="cls-1" points="44.7 1071.01 40.04 1041.63 24.4 991.51 29.78 1020.62 44.7 1071.01"/>
        <polygon class="cls-1" points="45.95 994.51 40.13 1022.58 24.34 1069.2 29.69 1041.51 45.95 994.51"/>
        <polygon class="cls-1" points="35.81 1014.77 34.04 1014.59 33.89 1048.03 35.67 1048.21 35.81 1014.77"/>
        <polygon class="cls-1" points="34.04 1014.87 32.27 1014.17 31.67 1047.49 33.44 1048.2 34.04 1014.87"/>
        <polygon class="cls-1" points="35.65 1047.93 37.42 1048.62 38.01 1015.3 36.25 1014.6 35.65 1047.93"/>
      </g>
      <g>
        <path class="cls-1" d="M285.16,315.9h1.24s1.23,0,1.23,0l1.23.03,1.23.04c.82.04,1.63.09,2.44.13.81.06,1.62.13,2.43.19.81.08,1.61.17,2.41.25.8.1,1.6.2,2.39.3.79.12,1.59.24,2.38.36.79.14,1.57.27,2.36.41.78.15,1.56.3,2.34.46.78.17,1.55.34,2.32.5.77.18,1.53.37,2.3.55.76.2,1.52.4,2.27.59.75.21,1.5.42,2.25.63.75.22,1.49.45,2.23.67.74.24,1.47.47,2.21.71.73.25,1.46.5,2.18.74.72.26,1.44.52,2.15.78.71.27,1.42.54,2.13.81.7.28,1.4.56,2.1.84.69.29,1.39.58,2.07.86.68.3,1.37.59,2.04.89.68.31,1.35.61,2.01.91.66.31,1.33.62,1.98.93.65.32,1.3.64,1.95.95.64.32,1.28.65,1.92.97.63.33,1.26.66,1.89.98.62.33,1.24.66,1.85.99.61.34,1.22.67,1.82,1,.6.34,1.19.68,1.78,1.01.59.34,1.17.68,1.75,1.02.57.34,1.14.69,1.71,1.02.56.35,1.12.69,1.67,1.03.55.35,1.09.69,1.63,1.03.54.34,1.07.69,1.59,1.02,1.04.69,2.07,1.37,3.06,2.04.99.69,1.96,1.35,2.9,2.01.93.67,1.84,1.32,2.72,1.96.87.65,1.72,1.28,2.54,1.9.81.63,1.6,1.23,2.35,1.82.75.6,1.47,1.17,2.16,1.72.68.56,1.34,1.1,1.96,1.61.62.52,1.2,1.01,1.75,1.48.55.47,1.06.92,1.54,1.33.48.42.92.81,1.32,1.17.4.37.77.7,1.1,1,.65.61,1.15,1.08,1.49,1.4.33.33.51.5.51.5-.52-.42-1.05-.84-1.58-1.27-.53-.41-1.07-.82-1.61-1.23-.55-.4-1.09-.8-1.64-1.2-.56-.39-1.11-.78-1.68-1.17-.57-.38-1.13-.76-1.71-1.14-.58-.37-1.15-.74-1.73-1.11-.58-.36-1.17-.72-1.76-1.09-.59-.35-1.19-.7-1.78-1.06-.6-.34-1.2-.69-1.81-1.03-.61-.33-1.22-.67-1.83-1l-1.85-.97-1.86-.95-1.88-.92-1.89-.89-1.9-.87-1.91-.84-1.92-.82-1.93-.79-1.93-.77-1.94-.74-1.94-.72-1.94-.7c-1.29-.44-2.58-.88-3.86-1.32-1.29-.41-2.57-.82-3.84-1.23-1.28-.38-2.54-.77-3.8-1.15-1.26-.36-2.51-.71-3.75-1.06-1.24-.33-2.47-.66-3.68-.98-1.21-.31-2.41-.61-3.6-.9-1.18-.28-2.35-.56-3.5-.83-1.15-.26-2.28-.51-3.39-.76-1.11-.23-2.2-.46-3.26-.69-1.07-.21-2.11-.42-3.12-.62-1.02-.19-2.01-.38-2.97-.56-.96-.17-1.9-.34-2.8-.5-.91-.15-1.78-.3-2.62-.44-1.68-.26-3.24-.51-4.64-.73-1.4-.2-2.65-.38-3.74-.53-2.17-.29-3.65-.49-4.31-.58"/>
        <path class="cls-1" d="M420.16,218.61c-.1.35-.21.71-.32,1.08-.1.37-.2.75-.3,1.15-.09.4-.19.8-.28,1.22-.09.42-.18.85-.27,1.29-.08.44-.17.9-.25,1.36-.08.47-.16.94-.24,1.43-.07.49-.15.98-.22,1.49-.07.51-.14,1.02-.21,1.55-.06.53-.13,1.06-.19,1.6-.06.54-.12,1.1-.18,1.66-.1,1.12-.21,2.28-.32,3.46-.09,1.18-.18,2.4-.27,3.63-.07,1.24-.15,2.5-.23,3.78-.06,1.28-.12,2.59-.18,3.91-.05,1.32-.09,2.66-.14,4.01-.03,1.35-.07,2.72-.1,4.09-.02,1.38-.05,2.76-.07,4.15-.01,1.39-.02,2.78-.04,4.18,0,1.4,0,2.79,0,4.19.02,2.79.04,5.57.06,8.3.05,2.74.1,5.43.14,8.04.07,2.62.14,5.16.2,7.59.08,2.44.16,4.76.23,6.95.09,2.19.17,4.24.24,6.12.18,3.76.32,6.83.43,8.97.12,2.14.18,3.33.18,3.33l8.78-.53c-.13-1.17-.25-2.37-.38-3.57-.11-1.2-.22-2.42-.33-3.64-.09-1.22-.18-2.46-.27-3.7-.07-1.24-.15-2.5-.22-3.76-.06-1.26-.11-2.52-.17-3.8-.04-1.27-.08-2.55-.12-3.82-.03-1.28-.05-2.56-.08-3.84l-.04-3.85v-3.84c.01-1.28.02-2.55.03-3.83.02-1.27.04-2.54.07-3.8.03-1.26.06-2.51.1-3.76.09-2.49.18-4.95.27-7.36.12-2.41.24-4.77.36-7.07.14-2.3.28-4.53.42-6.69.16-2.16.31-4.24.46-6.23.17-1.99.32-3.88.47-5.67.17-1.78.32-3.46.47-5.02.16-1.55.31-2.99.44-4.28.15-1.29.28-2.45.39-3.45.13-1,.23-1.85.32-2.54.05-.34.09-.64.13-.9.04-.26.07-.47.1-.64"/>
        <path class="cls-1" d="M285.16,363.99c.95.03,1.9.07,2.86.1.95.05,1.91.09,2.87.14l2.88.18,2.88.21,2.87.24,2.87.27c1.91.2,3.81.39,5.69.59,3.77.43,7.49.85,11.1,1.26,1.81.2,3.59.4,5.34.6,1.75.18,3.47.35,5.15.52.84.08,1.67.15,2.49.22.82.06,1.63.13,2.43.19.8.05,1.59.1,2.36.15.78.04,1.54.08,2.29.11.75.02,1.49.05,2.22.07.73,0,1.44.01,2.14.02.35,0,.7,0,1.04-.01.34,0,.68-.02,1.02-.03.34-.01.67-.03,1-.04.33-.02.65-.04.97-.06.32-.02.64-.05.95-.07.31-.03.62-.06.93-.09.3-.04.6-.07.9-.11.3-.04.59-.08.88-.13.29-.05.57-.1.85-.14.28-.06.55-.11.83-.16.27-.06.54-.12.8-.18.26-.07.52-.14.77-.2.25-.08.5-.15.74-.22.24-.08.48-.16.72-.25.23-.09.46-.18.69-.27.22-.1.44-.19.66-.29l.32-.15.31-.16.3-.17.29-.17.29-.18.28-.18.27-.19.26-.2,2.16-6c-.25.02-.52.04-.79.06-.28.02-.56.03-.86.05-.59.02-1.22.04-1.89.07-.67,0-1.37.02-2.11.03-.74,0-1.51,0-2.31,0-.8-.01-1.63-.03-2.49-.04-.86-.02-1.75-.05-2.66-.07-1.82-.07-3.74-.15-5.72-.23-1.99-.11-4.04-.22-6.15-.33-2.1-.13-4.25-.27-6.42-.41-2.17-.15-4.35-.31-6.53-.47-2.18-.17-4.35-.34-6.49-.5-4.28-.36-8.44-.71-12.26-1.03-3.82-.35-7.32-.67-10.28-.94-5.92-.58-9.69-.95-9.69-.95"/>
        <path class="cls-1" d="M465.62,233.66s-.32,1.63-.9,4.52c-.31,1.44-.68,3.19-1.12,5.21-.23,1.01-.47,2.08-.72,3.22-.26,1.13-.54,2.33-.83,3.57-.3,1.25-.62,2.55-.94,3.9-.34,1.35-.69,2.74-1.05,4.18-.38,1.43-.76,2.91-1.16,4.43-.41,1.51-.84,3.06-1.27,4.64-.45,1.58-.91,3.18-1.38,4.82-.49,1.63-.99,3.28-1.49,4.96-.53,1.67-1.06,3.36-1.6,5.06-.56,1.69-1.13,3.41-1.7,5.12-.3.86-.59,1.71-.89,2.58l-.92,2.58-.95,2.58-.97,2.57-1,2.56-1.03,2.54c-.35.84-.7,1.68-1.05,2.52-.36.84-.72,1.67-1.08,2.5-.37.83-.74,1.65-1.1,2.47-.38.82-.76,1.63-1.13,2.44-.39.8-.77,1.6-1.16,2.4-.4.79-.79,1.58-1.18,2.36-.41.77-.81,1.54-1.21,2.31-.42.76-.83,1.51-1.24,2.26-.42.74-.84,1.47-1.26,2.2-.43.72-.86,1.43-1.29,2.14-.44.7-.88,1.39-1.31,2.07-.45.67-.9,1.34-1.34,2-.23.33-.45.65-.68.97-.23.32-.46.64-.69.95-.23.31-.46.63-.69.94-.23.31-.47.61-.7.91-.24.3-.47.6-.71.89-.24.29-.48.58-.71.87-.24.29-.48.57-.72.85-.24.28-.49.55-.73.83-.25.27-.49.54-.73.8-.25.26-.49.52-.74.78-.25.25-.5.51-.74.76-.25.25-.5.49-.75.73-.25.24-.51.47-.76.71-.26.23-.51.45-.76.68-.26.22-.52.44-.77.65-.26.21-.52.42-.78.62-.26.2-.52.4-.78.6-.27.19-.53.38-.79.57-.27.18-.53.36-.8.54-.27.17-.54.34-.8.51-.27.16-.54.32-.81.48-.27.15-.55.3-.82.45-.28.14-.55.28-.82.42-.28.13-.55.26-.83.39-.28.12-.56.24-.83.35-.28.11-.56.22-.84.32l-.42.15-.11.04h-.03s-.01.02-.02.03l-.03.05-.13.18c-.18.24-.35.47-.53.71l-12.49,3.31.64-.45.63-.48.62-.51.6-.53.59-.56.58-.58.57-.61.56-.63.54-.66.53-.68.52-.71.51-.73.5-.76.49-.78.47-.8.46-.83.79-.39.78-.41.77-.43.76-.44.75-.46.74-.48.73-.5.72-.52.72-.54.71-.56.7-.58.69-.59.68-.61.67-.63.67-.64.66-.66.65-.68.64-.69.63-.71.63-.73.62-.74.61-.76.6-.77.6-.78.59-.8.58-.81c.38-.55.76-1.11,1.14-1.67.37-.57.74-1.14,1.11-1.72.36-.59.72-1.18,1.09-1.77.35-.6.7-1.21,1.06-1.82.34-.62.69-1.24,1.03-1.87.33-.63.67-1.27,1.01-1.92.33-.65.65-1.3.98-1.96.32-.66.64-1.33.96-2,.31-.68.62-1.36.94-2.04.3-.69.61-1.38.92-2.08.3-.7.59-1.41.89-2.11.29-.71.58-1.43.87-2.15.28-.72.57-1.45.85-2.18.28-.73.55-1.47.83-2.21.27-.74.54-1.49.81-2.24.26-.75.53-1.5.8-2.26.26-.76.52-1.52.78-2.29.5-1.54,1-3.08,1.51-4.63.48-1.56.96-3.13,1.45-4.7.46-1.58.93-3.17,1.39-4.76.45-1.6.89-3.2,1.34-4.8l1.29-4.82c.83-3.22,1.65-6.44,2.47-9.64.79-3.21,1.58-6.39,2.36-9.54.77-3.15,1.54-6.26,2.29-9.31.77-3.05,1.53-6.04,2.26-8.96"/>
        <polygon class="cls-1" points="393.09 415.57 386 379.99 349.13 305.47 358.61 342.11 393.09 415.57"/>
        <polygon class="cls-1" points="427.71 352.12 416.28 351.45 413.42 351.28 413.33 351.27 413.29 351.27 413.27 351.27 413.25 351.27 413.25 351.27 413.12 351.34 412.87 351.47 412.37 351.72 411.37 352.23 407.38 354.28 391.4 362.45 322.54 381.33 352.69 361.34 388.03 353.72 405.69 349.91 410.11 348.96 411.21 348.72 411.35 348.69 411.39 348.68 411.43 348.69 411.53 348.71 411.9 348.79 412.66 348.95 415.67 349.58 427.71 352.12"/>
        <polygon class="cls-1" points="379.6 347.48 373.93 344.13 364.47 374.9 370.14 378.25 379.6 347.48"/>
        <polygon class="cls-1" points="373.88 344.41 368.37 340.59 357.48 370.45 362.99 374.26 373.88 344.41"/>
        <polygon class="cls-1" points="370.16 377.96 375.67 381.77 386.56 351.92 381.05 348.09 370.16 377.96"/>
        <path class="cls-1" d="M398.87,380.1l8.3-18.9,4.15-9.45.52-1.18.26-.59.06-.15.02-.04h0s0,0,0-.02h.01s.06-.05.06-.05l.24-.15,1.9-1.17,3.8-2.34,38.77-54.21-24.82,18.08-22.17,27.41-2.77,3.43-.69.86-.09.11-.02.03v.04s-.03.09-.03.09l-.07.36-.14.71-.56,2.85-2.24,11.42-4.49,22.84Z"/>
        <polygon class="cls-1" points="467.46 369.65 436.69 347.29 381.77 288 411.88 308.64 467.46 369.65"/>
        <polygon class="cls-1" points="441.55 332.04 440.62 325.62 408.19 323.53 409.12 329.95 441.55 332.04"/>
        <polygon class="cls-1" points="440.36 325.64 439.93 319.27 407.32 315.53 407.75 321.9 440.36 325.64"/>
        <polygon class="cls-1" points="409.38 329.89 409.8 336.26 442.42 339.99 442 333.63 409.38 329.89"/>
      </g>
      <g>
        <path class="cls-1" d="M260.52,615.23l.17-.92.18-.91.2-.91.21-.9.23-.9.24-.89.25-.89.27-.88.28-.88.29-.87.31-.86.32-.86.68-1.7c.24-.56.48-1.12.73-1.68.26-.55.52-1.1.77-1.65.27-.55.54-1.09.81-1.63.29-.54.57-1.07.86-1.61.3-.53.6-1.06.9-1.58.31-.52.62-1.04.93-1.56.32-.51.65-1.02.97-1.53.33-.51.67-1.01,1-1.51.35-.5.69-.99,1.03-1.48.35-.49.71-.98,1.06-1.46.36-.48.73-.96,1.09-1.43.37-.47.74-.94,1.11-1.41.38-.46.76-.92,1.13-1.38.39-.45.77-.91,1.15-1.36.39-.45.78-.89,1.17-1.33.4-.44.8-.87,1.19-1.3.4-.43.8-.85,1.2-1.28.41-.42.81-.84,1.22-1.25.41-.41.82-.82,1.22-1.22.41-.4.82-.8,1.23-1.2.42-.39.83-.78,1.24-1.17.42-.38.83-.76,1.24-1.14.42-.37.83-.74,1.24-1.11.42-.36.83-.73,1.24-1.08.42-.35.83-.71,1.24-1.05.42-.35.83-.69,1.23-1.03.41-.34.82-.67,1.23-1,.83-.65,1.64-1.29,2.43-1.91.81-.61,1.6-1.21,2.37-1.79.79-.57,1.56-1.13,2.3-1.67.76-.53,1.5-1.05,2.21-1.54.73-.49,1.43-.96,2.11-1.42.69-.45,1.35-.88,1.99-1.29.65-.41,1.26-.79,1.85-1.16.6-.36,1.16-.71,1.7-1.03.54-.32,1.05-.62,1.53-.9.97-.55,1.8-1.02,2.47-1.4.69-.37,1.22-.66,1.58-.85.37-.19.56-.29.56-.29-.48.31-.97.63-1.46.94-.48.32-.95.65-1.44.97-.47.33-.94.67-1.41,1-.46.34-.92.69-1.39,1.03-.45.35-.91.7-1.36,1.06-.44.36-.89.72-1.34,1.08-.44.37-.87.74-1.31,1.11l-1.29,1.13-1.26,1.15-1.24,1.18-1.21,1.19-1.19,1.21-1.16,1.23-1.14,1.24-1.12,1.26-1.09,1.27-1.07,1.28-1.04,1.29-1.02,1.3-1,1.3-.97,1.31-.95,1.31-.93,1.31-.91,1.32-.88,1.31-.86,1.31c-.55.88-1.11,1.75-1.65,2.62-.53.87-1.05,1.74-1.56,2.59-.5.86-.99,1.71-1.47,2.56-.47.85-.93,1.68-1.39,2.51-.44.83-.87,1.65-1.3,2.45-.41.81-.82,1.6-1.21,2.38-.38.78-.76,1.55-1.13,2.3-.36.75-.7,1.49-1.04,2.21-.33.72-.65,1.42-.96,2.11-.3.69-.59,1.35-.88,1.99-.28.65-.54,1.27-.8,1.87-.49,1.2-.94,2.31-1.35,3.32-.39,1.01-.74,1.9-1.04,2.68-.58,1.56-.98,2.63-1.16,3.1"/>
        <path class="cls-1" d="M218.35,485.69c.1.09.21.18.32.28.11.09.22.18.33.28.23.18.46.37.71.56.25.18.5.37.77.56.27.19.54.37.83.57.29.19.58.38.88.57.31.19.62.38.94.58.32.19.66.38.99.58.34.19.69.39,1.04.58.36.19.72.39,1.09.59.37.19.75.39,1.14.59.39.19.78.39,1.18.59.4.2.81.39,1.22.59.83.39,1.68.78,2.55,1.19.88.39,1.78.79,2.69,1.19.92.39,1.85.78,2.8,1.18.95.39,1.92.78,2.9,1.18.98.38,1.98.77,2.97,1.16,1.01.38,2.02.76,3.03,1.15,1.02.38,2.04.75,3.07,1.13l3.09,1.11c2.07.72,4.13,1.43,6.16,2.13,2.04.68,4.05,1.34,6.01,1.99,1.97.63,3.87,1.24,5.7,1.83,1.84.57,3.59,1.12,5.24,1.63,1.66.5,3.21.97,4.63,1.4,2.86.84,5.2,1.52,6.82,1.99,1.63.46,2.55.72,2.55.72l3.8-7.65c-.93-.2-1.87-.41-2.82-.61-.94-.22-1.89-.45-2.84-.68-.95-.25-1.9-.49-2.86-.74-.95-.26-1.91-.53-2.88-.8-.96-.28-1.92-.57-2.88-.85-.96-.3-1.92-.6-2.88-.9-.96-.31-1.91-.63-2.87-.94l-2.86-.98-2.84-1.01c-.94-.35-1.88-.69-2.81-1.04-.93-.35-1.85-.71-2.77-1.06-.91-.36-1.83-.72-2.73-1.07-.9-.36-1.79-.72-2.68-1.08-.88-.36-1.76-.73-2.62-1.09-1.72-.74-3.41-1.46-5.05-2.16-1.63-.73-3.21-1.43-4.74-2.12-1.52-.7-2.98-1.38-4.38-2.03-1.39-.66-2.71-1.3-3.96-1.9-1.24-.61-2.4-1.19-3.48-1.72-1.07-.55-2.06-1.05-2.95-1.5-.88-.47-1.68-.88-2.36-1.24-.68-.37-1.26-.69-1.72-.94-.23-.13-.43-.25-.6-.34-.17-.1-.31-.19-.42-.26"/>
        <path class="cls-1" d="M307.8,624.02c.16-.7.33-1.4.49-2.11l.54-2.11.57-2.1.61-2.1.64-2.09.66-2.08c.46-1.38.91-2.76,1.36-4.13.94-2.73,1.87-5.41,2.77-8.02.45-1.31.89-2.59,1.32-3.86.42-1.27.83-2.51,1.23-3.73.19-.61.38-1.21.56-1.81.18-.6.35-1.19.52-1.77.16-.58.32-1.16.48-1.73.15-.57.29-1.13.43-1.68.13-.56.25-1.1.37-1.64.06-.27.11-.54.16-.8.05-.27.1-.53.15-.79.04-.26.09-.52.13-.77.04-.26.08-.51.11-.76.03-.25.06-.5.1-.75.03-.25.05-.49.08-.73.02-.24.04-.48.06-.72.01-.24.03-.47.04-.7,0-.23.01-.46.02-.69,0-.23,0-.45,0-.67,0-.22-.02-.44-.02-.66-.02-.22-.03-.43-.05-.64-.02-.21-.05-.42-.07-.63-.03-.21-.06-.41-.09-.61-.04-.2-.08-.4-.12-.59-.05-.2-.1-.39-.14-.58-.06-.19-.11-.38-.17-.56l-.09-.27-.1-.27-.11-.26-.11-.26-.12-.25-.13-.25-.13-.25-.14-.24-.15-.24-.16-.23-5.6-2.7c-.02.19-.03.39-.05.6-.02.21-.05.42-.07.65-.03.22-.06.45-.09.69-.03.24-.07.48-.11.73-.08.5-.17,1.02-.26,1.57-.1.55-.21,1.12-.33,1.72-.12.59-.25,1.21-.39,1.85-.14.63-.29,1.29-.44,1.96-.16.67-.32,1.36-.49,2.06-.17.7-.35,1.42-.53,2.15-.38,1.46-.77,2.97-1.18,4.51-.42,1.54-.85,3.11-1.29,4.69-.45,1.58-.91,3.18-1.36,4.77-.47,1.59-.93,3.17-1.39,4.74-.95,3.12-1.87,6.14-2.71,8.93-.87,2.78-1.67,5.32-2.34,7.47-1.39,4.29-2.27,7.03-2.27,7.03"/>
        <path class="cls-1" d="M251.16,450.81s.27.18.77.51c.49.33,1.22.83,2.15,1.45.92.64,2.03,1.42,3.31,2.32.64.46,1.31.95,2.03,1.46.71.52,1.46,1.08,2.24,1.65.78.58,1.58,1.2,2.43,1.83.83.64,1.69,1.31,2.58,2,.88.7,1.79,1.42,2.72,2.16.92.75,1.86,1.52,2.82,2.31.95.8,1.91,1.62,2.9,2.45.97.85,1.95,1.7,2.95,2.57.98.89,1.97,1.79,2.97,2.69.49.46.99.92,1.49,1.39.49.47.99.94,1.48,1.41l1.48,1.44,1.47,1.46,1.45,1.48,1.43,1.51,1.41,1.53,1.39,1.54,1.36,1.56,1.33,1.58c.43.53.87,1.06,1.3,1.59.42.54.84,1.07,1.26,1.61.41.54.81,1.08,1.22,1.62.39.55.79,1.09,1.17,1.63.38.55.75,1.1,1.13,1.64.36.55.72,1.1,1.08,1.65.34.56.68,1.11,1.02,1.66.32.56.65,1.11.96,1.66l.46.83.44.83.43.84.41.84.39.84c.13.28.25.56.38.84.12.28.24.56.36.84.11.28.23.56.34.84.11.28.22.56.32.84.1.28.2.56.3.84.1.28.19.56.28.84.09.28.18.56.26.84.08.28.16.56.24.84.07.28.15.56.22.84.07.28.14.56.2.83.06.28.12.56.18.83.05.28.11.56.16.83.05.28.09.56.14.83.04.28.08.56.11.83.03.28.06.55.09.83.02.28.04.55.07.83.01.28.03.55.04.82,0,.28.01.55.02.82,0,.28,0,.55,0,.82-.01.27-.02.55-.03.82-.02.27-.04.55-.06.81-.03.27-.06.54-.08.81-.04.27-.07.54-.11.81-.05.27-.09.54-.14.81-.06.27-.11.54-.16.8l-.09.4-.02.1v.02s0,.01,0,.02l.04.03.16.13c.21.18.42.35.62.52l1.53,9.89-.36-.56-.38-.56-.41-.55-.44-.55-.47-.54-.49-.54-.52-.53-.55-.53-.57-.52-.6-.52-.63-.52-.65-.51-.68-.51-.7-.5-.72-.5-.75-.5.09-.77.07-.77.05-.77.03-.77.02-.76v-.76s-.02-.76-.02-.76l-.04-.76-.06-.75-.07-.75-.09-.75-.11-.75-.13-.74-.14-.74-.16-.74-.17-.74-.19-.73-.21-.73-.22-.73-.24-.73-.25-.72-.27-.72-.28-.72-.3-.72-.31-.71-.32-.71-.34-.71-.35-.71-.36-.7-.38-.7c-.26-.46-.52-.93-.79-1.39-.28-.46-.56-.92-.84-1.38-.29-.46-.59-.91-.89-1.38-.31-.45-.62-.91-.93-1.37-.32-.45-.65-.9-.98-1.36-.34-.45-.68-.9-1.02-1.35-.35-.44-.7-.89-1.06-1.34-.36-.44-.73-.88-1.1-1.33-.38-.44-.75-.88-1.13-1.32-.39-.43-.78-.87-1.17-1.31-.4-.43-.8-.87-1.2-1.3-.41-.43-.82-.86-1.23-1.29-.42-.43-.84-.85-1.26-1.28l-1.29-1.27-1.32-1.27-1.34-1.26-1.36-1.25c-.92-.82-1.85-1.64-2.78-2.47-.95-.81-1.9-1.62-2.85-2.44-.97-.8-1.93-1.6-2.9-2.4l-2.94-2.37-2.96-2.34c-.99-.77-1.99-1.54-2.97-2.31-1.99-1.52-3.97-3.03-5.92-4.52-1.96-1.49-3.89-2.96-5.78-4.4-1.89-1.46-3.74-2.89-5.54-4.29"/>
        <polygon class="cls-1" points="373.43 553.21 337.47 551.97 259.11 565.76 296.44 565.41 373.43 553.21"/>
        <polygon class="cls-1" points="320.54 514.33 314.58 523.92 313.09 526.32 313.05 526.39 313.02 526.43 313.01 526.45 313 526.46 313.01 526.46 313.05 526.57 313.14 526.78 313.33 527.2 313.69 528.03 315.15 531.38 320.98 544.75 330.02 599.4 314.53 573.33 311.92 545.66 310.62 531.83 310.3 528.37 310.21 527.51 310.2 527.4 310.2 527.37 310.23 527.34 310.29 527.26 310.53 526.96 311.01 526.36 312.91 523.95 320.54 514.33"/>
        <polygon class="cls-1" points="304.62 550.78 300.55 554.39 329.49 567.05 333.57 563.45 304.62 550.78"/>
        <polygon class="cls-1" points="300.81 554.48 296.3 557.88 324.15 571.43 328.66 568.04 300.81 554.48"/>
        <polygon class="cls-1" points="333.29 563.38 337.8 559.98 309.95 546.42 305.42 549.82 333.29 563.38"/>
        <path class="cls-1" d="M339.36,542.42l-17.43-9.62-8.72-4.81-1.09-.6-.54-.3-.14-.08-.03-.02h0s0,0,0-.01h0s0-.08,0-.08v-.24s.05-1.93.05-1.93l.09-3.86-21.52-47.38,1.5,25.96,9.66,26.15,1.21,3.27.3.82.04.1h0s0,.01,0,.03h.04s.09.04.09.04l.34.12.68.23,2.73.94,10.92,3.76,21.84,7.51Z"/>
        <polygon class="cls-1" points="352.44 484.98 321.25 505.39 251.27 536.72 280.88 516.42 352.44 484.98"/>
        <polygon class="cls-1" points="312.31 497.23 307.13 496.33 290.11 523.49 295.29 524.38 312.31 497.23"/>
        <polygon class="cls-1" points="307.02 496.56 302.11 495.25 283.79 522.14 288.69 523.44 307.02 496.56"/>
        <polygon class="cls-1" points="295.37 524.15 300.28 525.46 318.6 498.58 313.69 497.27 295.37 524.15"/>
      </g>
      <g>
        <path class="cls-1" d="M69.68,1006.86c.95,0,1.9,0,2.84,0,.94.02,1.89.05,2.83.07.94.04,1.88.09,2.81.13.93.06,1.86.13,2.79.19.93.08,1.85.17,2.77.25.92.1,1.84.2,2.75.3.91.12,1.83.24,2.73.36.91.14,1.81.27,2.71.41.9.15,1.8.3,2.69.46.89.17,1.78.34,2.67.5.88.18,1.77.37,2.64.55.88.2,1.75.39,2.62.59.87.21,1.73.42,2.59.63.86.22,1.71.45,2.57.67.85.24,1.7.47,2.54.71.84.25,1.68.5,2.51.74.83.26,1.66.52,2.48.78.82.27,1.64.54,2.45.81.81.28,1.62.56,2.42.84.8.29,1.59.58,2.39.86.79.3,1.57.59,2.35.89.78.31,1.55.61,2.32.91.77.31,1.53.62,2.28.93.75.32,1.5.63,2.25.95.74.32,1.48.65,2.21.97.73.33,1.45.66,2.17.98.72.33,1.43.66,2.13.99.7.34,1.4.67,2.09,1,.69.34,1.37.68,2.05,1.01.68.34,1.35.68,2.01,1.02.66.34,1.32.69,1.97,1.02.65.35,1.29.69,1.92,1.03,1.26.7,2.5,1.38,3.71,2.05,1.2.69,2.38,1.37,3.53,2.04,1.14.69,2.25,1.35,3.33,2.01,1.07.67,2.12,1.32,3.13,1.96,1.01.65,1.98,1.28,2.93,1.9.94.63,1.84,1.23,2.71,1.82.86.6,1.69,1.17,2.49,1.72.79.56,1.54,1.1,2.26,1.61.71.52,1.38,1.01,2.02,1.48.63.47,1.22.92,1.77,1.33.55.42,1.06.81,1.52,1.17.46.37.88.7,1.26,1,.75.61,1.32,1.08,1.71,1.4.38.33.58.49.58.49-.6-.42-1.21-.84-1.81-1.26-.61-.41-1.23-.82-1.85-1.23-.63-.4-1.26-.8-1.89-1.2-.64-.39-1.28-.78-1.93-1.17-.65-.38-1.31-.76-1.96-1.14-.66-.37-1.33-.74-2-1.11-.67-.36-1.35-.72-2.03-1.09-.68-.35-1.37-.7-2.05-1.06-.69-.34-1.38-.69-2.08-1.03-.7-.33-1.4-.67-2.1-1-.71-.32-1.41-.65-2.12-.97l-2.14-.95-2.16-.92-2.18-.89-2.19-.87-2.2-.84-2.21-.82-2.22-.79-2.23-.77-2.23-.74-2.23-.72-2.23-.7c-1.49-.44-2.97-.88-4.45-1.32-1.48-.41-2.95-.82-4.42-1.23-1.47-.38-2.93-.77-4.37-1.15-1.45-.36-2.89-.71-4.31-1.06-1.43-.33-2.84-.66-4.23-.98-1.4-.31-2.78-.61-4.14-.9-1.36-.28-2.71-.56-4.03-.83-1.32-.26-2.62-.51-3.9-.76-1.28-.23-2.53-.46-3.76-.69-1.23-.21-2.43-.42-3.6-.62-1.17-.19-2.31-.38-3.42-.56-1.11-.17-2.19-.34-3.23-.5-1.04-.15-2.05-.3-3.02-.44-1.94-.26-3.72-.51-5.34-.73-1.61-.2-3.05-.38-4.3-.53-2.49-.29-4.2-.49-4.96-.58"/>
        <path class="cls-1" d="M209.48,890.85c-.06.41-.13.84-.2,1.27-.06.44-.11.89-.17,1.35-.05.47-.1.94-.15,1.44-.04.49-.08,1-.13,1.51-.03.52-.07,1.05-.1,1.59-.03.54-.05,1.09-.08,1.66-.02.56-.04,1.14-.06,1.72-.01.59-.03,1.18-.04,1.79,0,.61-.01,1.22-.02,1.85,0,.63,0,1.26,0,1.91.02,1.29.04,2.61.06,3.97.04,1.36.08,2.75.12,4.16.06,1.42.12,2.86.19,4.32.08,1.46.16,2.95.25,4.46.1,1.51.2,3.03.3,4.57.11,1.54.23,3.09.34,4.65.13,1.56.26,3.13.39,4.71.29,3.15.58,6.32.87,9.48.33,3.15.65,6.29.97,9.38.35,3.09.69,6.12,1.02,9.08.36,2.95.7,5.81,1.03,8.56.35,2.74.68,5.36.99,7.82.33,2.46.63,4.77.91,6.88.59,4.22,1.07,7.67,1.41,10.07.35,2.4.55,3.73.55,3.73l8.72-2.21c-.25-1.31-.51-2.63-.77-3.97-.24-1.34-.48-2.69-.72-4.06-.22-1.37-.45-2.75-.68-4.14-.21-1.39-.42-2.8-.63-4.21-.19-1.41-.39-2.84-.58-4.26-.18-1.43-.36-2.87-.54-4.31-.17-1.44-.33-2.89-.5-4.33l-.46-4.35-.42-4.35c-.13-1.45-.26-2.9-.38-4.34-.12-1.44-.23-2.88-.35-4.31-.11-1.43-.21-2.86-.31-4.27-.18-2.83-.36-5.63-.53-8.38-.14-2.75-.28-5.44-.42-8.07-.11-2.63-.21-5.18-.31-7.65-.08-2.47-.15-4.85-.22-7.13-.05-2.28-.1-4.45-.15-6.5-.03-2.05-.05-3.98-.08-5.76,0-1.79-.02-3.43-.03-4.92,0-1.49.01-2.82.01-3.98.02-1.16.03-2.14.04-2.93.03-.79.05-1.39.06-1.77"/>
        <path class="cls-1" d="M69.68,1054.95c1.09.03,2.19.07,3.29.1,1.1.05,2.2.09,3.3.14l3.31.18,3.31.21c2.21.17,4.41.34,6.61.51,2.2.2,4.38.39,6.55.59,4.34.43,8.62.85,12.78,1.26,2.08.2,4.13.4,6.14.6,2.01.18,3.99.35,5.92.52.97.08,1.92.15,2.87.22.94.06,1.88.13,2.8.19.92.05,1.83.1,2.72.15.89.04,1.77.08,2.64.11.87.02,1.72.05,2.55.07.84,0,1.66.01,2.46.02.8-.01,1.59-.03,2.37-.04.39-.01.77-.03,1.15-.04.38-.02.75-.04,1.12-.06.37-.02.73-.05,1.09-.07.36-.03.71-.06,1.07-.09.35-.04.7-.07,1.04-.11.34-.04.68-.08,1.01-.13.33-.05.66-.1.98-.14.32-.05.64-.11.95-.16.31-.06.62-.12.92-.18.3-.07.6-.14.89-.2.29-.08.58-.15.86-.22.28-.08.55-.17.82-.25.27-.09.53-.18.79-.27.26-.1.51-.19.76-.29.24-.11.49-.21.72-.31l.35-.17.34-.17.33-.18.32-.18.31-.19.3-.2,2.49-6c-.29.02-.6.04-.91.06-.32.02-.65.03-.99.05-.68.02-1.41.04-2.17.07-.77,0-1.58.02-2.43.03-.85,0-1.74,0-2.66,0-.92-.01-1.88-.03-2.87-.04-.99-.02-2.01-.05-3.06-.07-2.09-.07-4.3-.15-6.59-.23-2.29-.11-4.65-.22-7.07-.33-2.42-.13-4.89-.27-7.38-.41-2.49-.15-5.01-.31-7.52-.47-2.51-.17-5.01-.34-7.47-.5-4.93-.36-9.71-.71-14.11-1.03-4.4-.35-8.42-.67-11.83-.94-6.81-.58-11.15-.95-11.15-.95"/>
        <path class="cls-1" d="M256.56,899.61s-.15,1.9-.4,5.28c-.15,1.68-.33,3.74-.55,6.1-.24,2.36-.51,5.04-.81,7.97-.17,1.46-.34,2.99-.52,4.58-.19,1.58-.39,3.23-.6,4.92-.22,1.69-.45,3.44-.68,5.22-.25,1.79-.5,3.62-.76,5.48-.28,1.87-.56,3.77-.85,5.7-.31,1.93-.63,3.89-.95,5.88-.34,1.98-.69,3.99-1.04,6.02-.38,2.02-.76,4.06-1.14,6.11-.41,2.04-.83,4.1-1.25,6.16l-.66,3.09-.69,3.09-.72,3.08-.75,3.07c-.26,1.02-.52,2.03-.77,3.05-.27,1.01-.54,2.02-.8,3.02-.28,1-.56,2-.83,3-.29.99-.58,1.98-.86,2.96-.3.98-.6,1.96-.89,2.92-.31.97-.62,1.93-.93,2.88-.32.95-.64,1.9-.96,2.83-.33.93-.66,1.86-.99,2.78-.34.91-.68,1.82-1.02,2.72-.35.89-.71,1.78-1.05,2.66-.37.87-.73,1.73-1.09,2.59-.38.85-.75,1.68-1.12,2.51-.19.41-.38.82-.57,1.23-.2.4-.39.81-.58,1.21-.2.4-.39.79-.59,1.18-.2.39-.4.78-.6,1.16-.2.38-.41.76-.61,1.14-.21.38-.41.75-.62,1.12-.21.37-.42.73-.63,1.09-.21.36-.42.71-.63,1.07-.22.35-.43.7-.64,1.04-.22.34-.44.68-.65,1.02-.22.33-.44.66-.66.99-.23.32-.45.65-.67.96-.23.31-.46.63-.68.94-.23.31-.46.61-.69.91-.24.3-.47.59-.7.88-.24.29-.47.57-.71.85-.24.28-.48.55-.72.82-.24.27-.49.53-.73.79-.25.25-.49.51-.74.76-.25.24-.5.48-.75.72-.25.23-.51.46-.76.69-.26.22-.51.44-.77.66-.26.21-.52.42-.78.62-.26.2-.53.39-.79.59-.27.19-.53.37-.8.55-.27.17-.54.35-.81.52l-.41.24-.1.06h-.03s-.01.03-.02.04l-.04.05-.15.18c-.2.24-.41.47-.61.71l-14.37,3.31.74-.45.73-.48.71-.51.7-.53.68-.56.67-.58.65-.61.64-.64.63-.66.61-.69.6-.71.59-.73.57-.76.56-.78.55-.8.53-.83.74-.58.73-.6.72-.62.71-.64.7-.66.69-.68.68-.7.67-.72.66-.74.65-.76.64-.78.62-.8.61-.81.6-.83.59-.85.58-.87.57-.88.57-.9.56-.92.55-.93.54-.95.53-.97.52-.98.51-1c.33-.67.66-1.35.99-2.04.32-.69.64-1.39.96-2.1.31-.71.61-1.43.92-2.15.29-.73.59-1.46.89-2.2.28-.75.57-1.5.86-2.26.27-.76.55-1.53.83-2.3.26-.78.53-1.56.8-2.35.25-.79.51-1.59.77-2.4.25-.81.49-1.62.74-2.44.24-.82.47-1.65.71-2.48.23-.83.46-1.67.69-2.52.22-.85.44-1.7.66-2.55.21-.86.42-1.72.64-2.59.2-.87.41-1.74.61-2.62.2-.88.39-1.76.59-2.65.19-.89.38-1.78.57-2.68.18-.9.36-1.8.55-2.7.18-.91.35-1.82.53-2.73.33-1.83.67-3.67,1-5.52.31-1.85.62-3.72.93-5.59.29-1.87.58-3.75.87-5.64.27-1.89.54-3.78.81-5.67l.77-5.69c.47-3.8.95-7.59,1.42-11.36.44-3.77.88-7.52,1.31-11.23.43-3.71.85-7.36,1.27-10.96.44-3.59.86-7.12,1.28-10.55"/>
        <polygon class="cls-1" points="193.89 1106.53 185.73 1070.95 143.29 996.43 154.2 1033.07 193.89 1106.53"/>
        <polygon class="cls-1" points="231.64 1040.56 220.14 1041.88 217.27 1042.21 217.18 1042.22 217.13 1042.23 217.11 1042.23 217.1 1042.23 217.09 1042.24 216.95 1042.3 216.66 1042.43 216.08 1042.68 214.93 1043.19 210.34 1045.24 191.94 1053.41 112.69 1072.29 147.39 1052.3 188.06 1044.68 208.4 1040.87 213.48 1039.92 214.75 1039.68 214.91 1039.65 214.95 1039.64 215 1039.65 215.09 1039.65 215.48 1039.67 216.25 1039.72 219.33 1039.89 231.64 1040.56"/>
        <polygon class="cls-1" points="178.37 1038.44 171.84 1035.09 160.95 1065.86 167.47 1069.21 178.37 1038.44"/>
        <polygon class="cls-1" points="171.78 1035.37 165.44 1031.55 152.91 1061.41 159.24 1065.22 171.78 1035.37"/>
        <polygon class="cls-1" points="167.5 1068.92 173.84 1072.74 186.38 1042.88 180.03 1039.05 167.5 1068.92"/>
        <path class="cls-1" d="M200.54,1071.07l9.55-18.9,4.78-9.45.6-1.18.3-.59.07-.15.02-.04h0s0,0,0-.02h.01s.06-.07.06-.07l.22-.21,1.77-1.67,3.54-3.34,32.82-68.41-22.83,24.98-19.16,35.06-2.4,4.38-.6,1.1-.07.14-.02.03v.04s-.03.09-.03.09l-.08.36-.16.71-.65,2.85-2.58,11.42-5.17,22.84Z"/>
        <polygon class="cls-1" points="273.28 1053.15 240.08 1033.46 178.72 976.37 211.07 994.24 273.28 1053.15"/>
        <polygon class="cls-1" points="243.28 1015.32 241.65 1008.22 209.01 1011.76 210.63 1018.85 243.28 1015.32"/>
        <polygon class="cls-1" points="241.38 1008.29 240.26 1001.16 207.25 1002.87 208.38 1010 241.38 1008.29"/>
        <polygon class="cls-1" points="210.89 1018.75 212.01 1025.88 245.01 1024.16 243.89 1017.03 210.89 1018.75"/>
      </g>
    </g>
  </g>
</svg>