<?xml version="1.0" encoding="UTF-8"?>
<svg id="Layer_2" data-name="Layer 2" xmlns="http://www.w3.org/2000/svg" viewBox="0 0 703.53 1014.3">
  <defs>
    <style>
      .cls-1 {
        fill: #bfbfbf;
        stroke: #000;
        stroke-linecap: round;
        stroke-width: 4.5px;
      }
    </style>
  </defs>
  <g id="Layer_2-2" data-name="Layer 2">
    <g>
      <g>
        <g>
          <path class="cls-1" d="M665.73,281.79c-17.85-19.77-26.07-39.07-34.73-58.86-8.6-19.72-18-40.33-36.75-61.1l5.9-7.4c5.02,5.56,9.43,11.08,13.26,16.44,3.86,5.39,7.03,10.5,9.96,15.65,5.8,10.25,10.24,20.26,14.57,30.16,8.66,19.78,16.88,39.09,34.73,58.85"/>
          <path class="cls-1" d="M694.34,255.96c-18.99-21.03-38.24-32.16-57.07-42.82-9.42-5.33-18.73-10.55-27.85-16.82-9.58-6.79-16.92-12.37-24.47-20.73l5.96-7.34c3.99,4.42,8.03,8.26,12.2,11.76,4.06,3.38,8.7,6.93,13.24,10.04,9.12,6.28,18.43,11.49,27.85,16.82,18.84,10.66,38.09,21.79,57.08,42.82"/>
          <path class="cls-1" d="M499.54,97.73c6.15,6.81,11.68,11.01,17.24,14.13,5.54,3.12,11.1,5.15,17.01,7.34,7.67,2.83,15.96,5.93,25.2,11.49,9.21,5.53,19.41,13.58,30.13,25.44l5.58-7.75c-11.37-12.59-22.13-21.26-31.84-27.34-9.74-6.12-18.49-9.73-26.61-13.07-6.27-2.58-12.18-5.01-18.11-8.55-5.94-3.55-11.88-8.2-18.49-15.53"/>
          <path class="cls-1" d="M499.97,42.21c8.07,8.46,15.31,17.62,21.66,27.17,6.37,9.52,11.84,19.42,16.73,28.9,7.05,13.62,12.91,26.54,19.01,38.27,6.13,11.76,12.45,22.29,21.22,32.01l5.52-7.82c-9.37-10.38-16.22-21.49-22.84-33.8-6.59-12.28-12.91-25.72-20.46-39.88-5.24-9.84-11.1-19.96-17.87-29.5-1.69-2.39-3.44-4.76-5.24-7.11-1.8-2.33-3.65-4.58-5.56-6.83-1.9-2.23-3.89-4.48-5.89-6.61-2.01-2.13-4.07-4.21-6.19-6.27"/>
          <path class="cls-1" d="M583.42,214.58l2.17-8.55.54-2.14.27-1.07c.11-.33.24-.64.36-.97.49-1.28.97-2.58,1.43-3.9,1.86-5.25,3.51-10.73,4.96-16.43-1.4-26.49-7.48-58.15-18.24-94.99,2.09,16.79,3.24,32.55,3.45,47.27,2.85,15.69,4.58,30.13,5.19,43.34.3,6.6.33,12.89.07,18.88-.13,2.99-.33,5.9-.59,8.74l-.1,1.06c-.01.38.04.83.06,1.24l.15,2.51.29,5.02Z"/>
          <path class="cls-1" d="M643.72,167.22l-18.63.3c-6.44-.15-12.64-.04-18.59.35-25.52-5.08-46.65-5.29-63.39-.64,7.28-5.7,15.45-10.43,24.5-14.17,10.64.1,22.43,1.46,35.35,4.08,6.46,1.31,13.21,2.94,20.24,4.88l5.33,1.52c.92.29,1.75.47,2.59.67l2.52.6,10.09,2.41Z"/>
          <path class="cls-1" d="M599.12,148.06l-5.13-5.95c-6.61,9.31-13.19,18.66-19.74,28.03l4.07,4.78c6.91-8.98,13.84-17.94,20.8-26.86Z"/>
          <path class="cls-1" d="M593.83,142.35l-4.84-6.4c-6.68,9.17-13.25,18.47-19.69,27.9l3.78,5.25c6.8-9.05,13.71-17.97,20.75-26.75Z"/>
          <path class="cls-1" d="M578.45,174.64l3.73,5.17c7.58-8.18,15.29-16.22,23.11-24.13l-4.77-6.33c-7.47,8.3-14.83,16.73-22.07,25.29Z"/>
        </g>
        <g>
          <path class="cls-1" d="M499.53,97.72c-7.06-7.82-13.28-17.26-19.62-28.1-3.16-5.41-6.34-11.16-9.6-17.17-.84-1.47-1.55-3.14-2.65-4.33-1.08-1.2-2.38-1.94-3.5-2.23-1.15-.32-1.99-.12-2.54.17l-1.83.82c-4.92,2.26-10.23,5.3-15.95,11.11-5.71,5.78-11.85,14.38-18.1,27.07l-4.29-11.68c3.36-6.56,6.67-12.14,9.84-16.97,1.59-2.42,3.14-4.67,4.66-6.76.76-1.03,1.51-2.04,2.25-3.04.37-.49.74-.97,1.1-1.45.36-.48.73-.95,1.11-1.33,6.02-6.42,11.6-10.01,16.79-12.82l1.93-1.03c.31-.17.64-.34,1.1-.41.45-.08,1-.06,1.59.08,1.19.27,2.56,1.01,3.72,2.24,1.17,1.23,1.93,2.96,2.82,4.48,3.47,6.23,6.85,12.21,10.23,17.86,6.77,11.32,13.45,21.27,21.04,29.67"/>
          <path class="cls-1" d="M499.95,42.19c-9.81-10.29-18.23-17.07-25.65-22.68-.92-.69-1.84-1.37-2.74-2.04-.45-.33-.9-.66-1.34-.99l-.33-.24-.32-.15-.64-.3c-1.71-.76-3.28-1.48-4.94-1.94-.92-.15-2.21.26-3.36,1.24-1.15.97-2.17,2.51-2.64,4.36-.91,3.7-1.75,7.38-2.59,11-3.34,14.52-6.31,28.25-9.59,40.71-3.3,12.48-6.9,23.65-11.82,33.64l-4.4-12.19c5.26-10.67,9.16-22.45,12.74-35.51,1.78-6.52,3.48-13.34,5.18-20.43.86-3.62,1.72-7.22,2.57-10.81l.65-2.76.33-1.38.36-1.2c.49-1.59.98-3.17,1.48-4.77,1-3.17,2.01-6.32,3.08-9.43.55-1.56,1.68-2.79,2.93-3.45,1.25-.67,2.64-.79,3.63-.37,1.79,1,3.48,2.16,5.3,3.28,1.8,1.15,3.63,2.32,5.55,3.61,3.85,2.57,7.91,5.4,12.33,8.85,2.22,1.74,4.52,3.62,6.9,5.68,1.19,1.03,2.4,2.1,3.63,3.22,1.25,1.15,2.51,2.34,3.8,3.59"/>
          <path class="cls-1" d="M387.66,224.18c4.66-9.45,7.26-18.6,9.19-28.32,1.92-9.69,3.15-19.91,4.75-30.9,1.6-10.97,3.58-22.72,6.8-35.06,3.21-12.31,7.69-25.27,13.94-37.96l-4.54-11.41c-6.74,13.18-11.57,26.8-15.07,39.74-3.53,12.95-5.78,25.25-7.65,36.77-1.88,11.53-3.37,22.29-5.57,32.56-2.22,10.29-5.12,20.06-10.13,30.22"/>
          <path class="cls-1" d="M353.56,206.18c6.51-13.2,13.65-23.83,20.72-32.4,7.09-8.59,14.14-15.17,20.8-20.96,6.67-5.81,12.96-10.84,18.73-16.77,5.79-5.95,11.05-12.77,15.97-22.76l-4.69-11.61c-5.26,10.67-10.82,18.1-16.9,24.62-6.06,6.5-12.61,12.07-19.55,18.42-6.93,6.34-14.25,13.46-21.64,22.66-7.38,9.17-14.84,20.46-21.72,34.41"/>
          <path class="cls-1" d="M456.38,121.04c-5.75-10.49-12.04-19.88-18.86-28.18-3.96-1.42-8.11-2.44-12.45-3.08-2.17-.32-4.39-.54-6.66-.66-2.24-.06-4.52,0-6.88.09-2.35.1-4.79.21-7.26.46-2.47.26-4.99.6-7.57,1.02-5.13.89-10.43,2.24-15.93,3.94,10.03,1.58,19.46,4.46,28.26,8.54,18.73-.06,34.53,5.91,47.36,17.87Z"/>
          <path class="cls-1" d="M432.26,12.34c-.94,8.71-1.65,17.54-2.16,26.58-.5,9.08-.79,18.17-.79,27.48-2.97,41.18-3.04,76.48-.21,105.91-3.43-13.92-6.28-29.02-8.54-45.3.02-8.89.22-18.17.61-27.82.41-9.6.9-19.92,1.93-29.56.49-4.89,1.05-9.79,1.68-14.66.63-4.85,1.33-9.67,2.1-14.47,1.56-9.67,3.33-18.98,5.38-28.15Z"/>
          <polygon class="cls-1" points="417.72 73.36 414.1 79.92 430.75 121.05 433.6 115.68 417.72 73.36"/>
          <path class="cls-1" d="M414.25,80.24l-3.87,6,4.04,10.21,4.17,10.38c2.79,6.9,5.6,13.76,8.43,20.58l3.13-4.74c-2.71-7.06-5.41-14.16-8.08-21.29l-4-10.74-3.81-10.41Z"/>
          <polygon class="cls-1" points="433.43 115.38 436.51 110.7 429.21 87.83 425.6 76.3 422.34 65.64 418.52 71.49 422.01 82.02 425.79 93.2 433.43 115.38"/>
        </g>
        <g>
          <path class="cls-1" d="M387.65,224.19c-.3.59-.59,1.17-.89,1.75-.32.61-.64,1.21-.96,1.81-.76,1.42-1.53,2.82-2.31,4.18-1.56,2.72-3.17,5.32-4.82,7.81-3.29,4.98-6.73,9.55-10.28,13.85-7.09,8.6-14.62,16.13-22.21,23.81-15.19,15.36-30.66,31.29-43.58,57.51l-8.38-4.13c12.92-26.22,28.39-42.16,43.57-57.52,7.59-7.68,15.11-15.21,22.21-23.81,3.55-4.3,6.99-8.87,10.28-13.85,1.64-2.49,3.25-5.09,4.82-7.81.78-1.36,1.55-2.75,2.31-4.18.33-.63.67-1.27,1.01-1.91.31-.62.63-1.25.95-1.88"/>
          <path class="cls-1" d="M353.55,206.2c-.81,1.64-1.6,3.31-2.31,4.87-.71,1.56-1.39,3.11-2.04,4.65-1.29,3.08-2.46,6.1-3.51,9.09-2.11,5.97-3.78,11.77-5.15,17.45-2.74,11.36-4.29,22.22-5.76,32.94-2.95,21.44-5.62,42.32-17.03,65.47l-8.38-4.13c11.41-23.16,14.08-44.03,17.02-65.47,1.47-10.72,3.02-21.58,5.76-32.94,1.37-5.68,3.04-11.48,5.15-17.45,1.05-2.99,2.22-6.01,3.51-9.09.65-1.54,1.32-3.09,2.04-4.65.39-.83.78-1.66,1.17-2.5.42-.86.84-1.73,1.26-2.6"/>
          <path class="cls-1" d="M262.71,477.73c23.54-47.78,10.55-83.27,36.39-135.7l-8.38-4.13c-25.84,52.43-12.86,87.92-36.4,135.69"/>
          <path class="cls-1" d="M228.14,460.7c25.05-50.82,61.93-63.86,84.75-110.17l-8.38-4.13c-22.82,46.31-59.72,59.34-84.76,110.17"/>
          <polygon class="cls-1" points="356.02 324.71 321.01 329.28 246.98 366.13 283.09 358.71 356.02 324.71"/>
          <polygon class="cls-1" points="289.72 286.18 304.07 320.54 316.54 400.71 301.66 368.29 289.72 286.18"/>
          <polygon class="cls-1" points="289.05 333.38 285.59 339.99 315.31 355.32 318.77 348.71 289.05 333.38"/>
          <polygon class="cls-1" points="285.85 340.1 281.94 346.46 310.71 363.44 314.63 357.08 285.85 340.1"/>
          <polygon class="cls-1" points="318.49 348.65 322.4 342.28 293.62 325.3 289.7 331.66 318.49 348.65"/>
        </g>
        <g>
          <path class="cls-1" d="M262.7,477.75c-23.54,47.78-59.6,59.1-85.44,111.53l-8.38-4.13c25.84-52.44,61.88-63.76,85.43-111.54"/>
          <path class="cls-1" d="M228.14,460.72c-25.05,50.82-12.91,88.02-35.73,134.33l-8.38-4.13c22.82-46.31,10.67-83.51,35.72-134.33"/>
          <path class="cls-1" d="M186.85,728.47c0-24.26-5.67-42.89-11.85-61.54l-1.16-3.5-.58-1.75-.29-.88-.29-.78c-.78-2.07-1.55-4.19-2.32-6.36-1.53-4.34-3-8.91-4.35-13.75-.67-2.42-1.32-4.91-1.91-7.47-.3-1.28-.59-2.58-.86-3.9-.12-.66-.3-1.32-.37-1.99-.07-.67.07-1.3.24-1.9,1.29-4.89,2.95-10.06,5.06-15.49,1.52-3.98,3.44-8.35,5.66-12.86l-8.46-3.96c-2.36,4.78-4.4,9.42-6.04,13.64-2.27,5.75-4.05,11.23-5.49,16.41-.2.64-.35,1.3-.29,2.01.06.71.24,1.41.36,2.11.27,1.4.56,2.77.86,4.13.6,2.72,1.24,5.36,1.91,7.93,1.35,5.14,2.82,9.99,4.35,14.61.76,2.31,1.54,4.57,2.32,6.78.78,2.33,1.55,4.64,2.33,6.96,6.17,18.65,11.85,37.27,11.85,61.54"/>
          <path class="cls-1" d="M148.31,728.47c0-25.81,5.67-45.67,11.84-64.55.39-1.17.78-2.34,1.16-3.51.39-1.11.78-2.22,1.17-3.33.77-2.16,1.54-4.32,2.32-6.48,1.53-4.26,3-8.39,4.35-12.51.67-2.06,1.31-4.11,1.91-6.18.29-1.03.58-2.06.88-3.11.35-1.06,1.31-1.93,2-2.88,2.97-3.75,5.75-7.59,8.33-11.68,1.93-3.03,3.82-6.36,5.57-9.92l-8.5-3.88c-1.88,3.81-3.87,7.37-5.91,10.62-2.72,4.38-5.64,8.5-8.74,12.52-.39.5-.78,1-1.17,1.5-.41.49-.72,1.03-.91,1.59-.3,1.12-.59,2.23-.88,3.33-.6,2.21-1.24,4.41-1.91,6.61-1.35,4.4-2.83,8.82-4.35,13.35-.77,2.3-1.54,4.6-2.32,6.9-.77,2.35-1.55,4.7-2.33,7.07-6.18,18.88-11.85,38.74-11.85,64.55"/>
          <path class="cls-1" d="M230.67,579.08l-35.01,4.58-20.1,10c-6.61,3.14-13.44,6.74-20.5,10.81-5.94,3.42-12,7.19-17.98,11.33l-2.24,1.57c-.74.53-1.52,1.05-2.15,1.64-.65.59-1.12,1.19-1.63,1.8l-1.51,1.84c-2.02,2.47-4.04,5.04-6.03,7.72,2.48-1.85,4.97-3.61,7.46-5.28,1.24-.84,2.48-1.65,3.71-2.44,1.27-.79,2.38-1.57,3.81-2.31.71-.37,1.52-.7,2.32-1.02l2.4-.95c1.6-.62,3.2-1.22,4.8-1.8,3.2-1.16,6.4-2.23,9.58-3.22,3.02-1.66,6.02-3.23,8.97-4.71,5.49-2.76,10.83-5.23,16.03-7.41l3.87-1.58c.63-.23,1.32-.58,1.98-.88l2.01-.94,8.03-3.75,32.14-14.98Z"/>
          <path class="cls-1" d="M164.38,540.55l14.35,34.37,3.39,21.77c1.33,6.85,2.9,13.22,4.67,19.18,1.49,5.01,3.13,9.71,4.92,14.1l.68,1.63c.23.54.44,1.07.79,1.64.34.57.83,1.15,1.26,1.72l1.33,1.69c1.77,2.23,3.55,4.38,5.32,6.44-4.59-3.37-9.28-7.08-13.79-11.1-1.03-1.01-1.75-1.92-2.58-2.9-.81-.97-1.61-1.96-2.4-2.96-1.58-2.01-3.12-4.1-4.63-6.26-.73-2.59-1.41-5.25-2.06-8-1.25-5.31-2.35-10.92-3.31-16.83-.93-5.96-1.78-12.09-2.67-18.13l-5.28-36.36Z"/>
          <path class="cls-1" d="M163.7,587.75l-3.62,6.94c10.13,4.65,20.29,9.26,30.46,13.83l2.92-5.52c-9.94-5.04-19.86-10.13-29.76-15.25Z"/>
          <path class="cls-1" d="M160.35,594.78l-4.1,6.74c10.03,4.76,20.14,9.37,30.33,13.81l3.42-5.33c-9.96-4.91-19.85-9.99-29.65-15.22Z"/>
          <path class="cls-1" d="M193.18,602.93l3.87-6.28-28.78-16.98-3.91,6.36,14.39,8.49c4.79,2.84,9.59,5.67,14.43,8.41Z"/>
        </g>
        <g>
          <path class="cls-1" d="M186.85,728.49c0,53.26-27.34,79.35-27.34,137.81h-9.34c0-58.46,27.33-84.55,27.33-137.81"/>
          <path class="cls-1" d="M148.31,728.49c0,56.66,27.32,84.66,27.32,136.29h-9.34c0-51.63-27.34-79.63-27.34-136.29"/>
          <path class="cls-1" d="M186.85,1012.05c0-53.26-27.34-79.36-27.34-137.81h-9.34c0,58.45,27.33,84.55,27.33,137.81"/>
          <path class="cls-1" d="M148.31,1012.05c0-56.66,27.32-84.66,27.32-136.29h-9.34c0,51.63-27.34,79.63-27.34,136.29"/>
          <polygon class="cls-1" points="202.9 833.54 173.53 853.12 123.4 918.89 152.52 896.27 202.9 833.54"/>
          <polygon class="cls-1" points="126.4 828.28 154.47 852.76 201.09 919.16 173.4 896.66 126.4 828.28"/>
          <polygon class="cls-1" points="146.66 870.92 146.48 878.38 179.92 878.99 180.1 871.53 146.66 870.92"/>
          <polygon class="cls-1" points="146.76 878.36 146.06 885.79 179.38 888.31 180.09 880.87 146.76 878.36"/>
          <polygon class="cls-1" points="179.82 871.6 180.51 864.16 147.19 861.65 146.49 869.08 179.82 871.6"/>
        </g>
      </g>
      <g>
        <path class="cls-1" d="M355.03,647.91c0,65.84-27.34,98.09-27.34,170.35h-9.34c0-72.26,27.33-104.51,27.33-170.35"/>
        <path class="cls-1" d="M316.5,647.91c0,70.04,27.32,104.65,27.32,168.47h-9.34c0-63.82-27.34-98.43-27.34-168.47"/>
        <path class="cls-1" d="M355.03,998.43c0-65.84-27.34-98.1-27.34-170.35h-9.34c0,72.26,27.33,104.51,27.33,170.35"/>
        <path class="cls-1" d="M316.5,998.43c0-70.04,27.32-104.65,27.32-168.47h-9.34c0,63.82-27.34,98.43-27.34,168.47"/>
        <polygon class="cls-1" points="371.09 777.77 341.71 801.97 291.59 883.27 320.7 855.31 371.09 777.77"/>
        <polygon class="cls-1" points="294.59 771.27 322.65 801.53 369.27 883.61 341.59 855.79 294.59 771.27"/>
        <polygon class="cls-1" points="314.85 823.97 314.67 833.19 348.11 833.95 348.29 824.73 314.85 823.97"/>
        <polygon class="cls-1" points="314.95 833.17 314.25 842.36 347.56 845.47 348.28 836.28 314.95 833.17"/>
        <polygon class="cls-1" points="348 824.81 348.7 815.62 315.37 812.51 314.68 821.7 348 824.81"/>
      </g>
      <g>
        <path class="cls-1" d="M65.38,647.91c0,68.4-27.34,101.9-27.34,176.97h-9.34c0-75.07,27.33-108.57,27.33-176.97"/>
        <path class="cls-1" d="M26.84,647.91c0,72.76,27.32,108.71,27.32,175.01h-9.34c0-66.3-27.34-102.25-27.34-175.01"/>
        <path class="cls-1" d="M65.38,1012.04c0-68.4-27.34-101.91-27.34-176.97h-9.34c0,75.06,27.33,108.57,27.33,176.97"/>
        <path class="cls-1" d="M26.84,1012.04c0-72.76,27.32-108.71,27.32-175.01h-9.34c0,66.3-27.34,102.25-27.34,175.01"/>
        <polygon class="cls-1" points="81.44 782.81 52.06 807.95 1.93 892.41 31.05 863.36 81.44 782.81"/>
        <polygon class="cls-1" points="4.94 776.06 33 807.5 79.62 892.76 51.94 863.87 4.94 776.06"/>
        <polygon class="cls-1" points="25.2 830.81 25.02 840.39 58.45 841.17 58.63 831.59 25.2 830.81"/>
        <polygon class="cls-1" points="25.3 840.37 24.6 849.91 57.91 853.14 58.62 843.59 25.3 840.37"/>
        <polygon class="cls-1" points="58.35 831.68 59.05 822.13 25.72 818.9 25.02 828.45 58.35 831.68"/>
      </g>
    </g>
  </g>
</svg>