<?xml version="1.0" encoding="UTF-8"?>
<svg id="Layer_2" data-name="Layer 2" xmlns="http://www.w3.org/2000/svg" viewBox="0 0 516.64 1085.93">
  <defs>
    <style>
      .cls-1 {
        fill: #bfbfbf;
        stroke: #000;
        stroke-linecap: round;
        stroke-width: 4.5px;
      }
    </style>
  </defs>
  <g id="Layer_2-2" data-name="Layer 2">
    <g>
      <g>
        <g>
          <path class="cls-1" d="M42.79,2.25c35.97,57.23,30.44,99.81,69.91,162.62l-7.91,4.97C65.33,107.03,70.84,64.45,34.88,7.23"/>
          <path class="cls-1" d="M10.17,22.76c38.26,60.88,80.3,76.42,115.16,131.89l-7.91,4.97C82.56,104.15,40.51,88.61,2.25,27.73"/>
          <path class="cls-1" d="M234.27,306.92c-35.97-57.23-76.73-70.72-116.2-133.52l-7.91,4.97c39.47,62.81,80.23,76.3,116.19,133.53"/>
          <path class="cls-1" d="M201.64,327.42c-38.26-60.88-34.03-105.5-68.89-160.97l-7.91,4.97c34.86,55.47,30.62,100.1,68.88,160.98"/>
          <polygon class="cls-1" points="127.33 106.57 115.67 143.24 117.65 240.58 127.02 200.79 127.33 106.57"/>
          <polygon class="cls-1" points="59 141.63 99.3 153 183.61 199.54 144.97 190.09 59 141.63"/>
          <polygon class="cls-1" points="104.95 176.66 109.83 184.77 138.55 167.64 133.67 159.53 104.95 176.66"/>
          <polygon class="cls-1" points="110.06 184.61 114.49 192.97 144.39 177.94 139.97 169.57 110.06 184.61"/>
          <polygon class="cls-1" points="133.48 159.75 129.05 151.39 99.13 166.42 103.56 174.78 133.48 159.75"/>
        </g>
        <g>
          <path class="cls-1" d="M234.28,306.94c35.97,57.23,30.44,99.81,69.91,162.62l-7.91,4.97c-39.47-62.81-33.96-105.38-69.92-162.61"/>
          <path class="cls-1" d="M201.66,327.44c38.26,60.88,80.3,76.42,115.16,131.89l-7.91,4.97c-34.86-55.47-76.91-71.01-115.18-131.89"/>
          <path class="cls-1" d="M425.76,611.61c-35.97-57.23-76.73-70.72-116.2-133.52l-7.91,4.97c39.47,62.81,80.23,76.3,116.19,133.53"/>
          <path class="cls-1" d="M393.13,632.11c-38.26-60.88-34.03-105.5-68.89-160.97l-7.91,4.97c34.86,55.47,30.62,100.1,68.88,160.98"/>
          <polygon class="cls-1" points="318.81 411.26 307.16 447.93 309.13 545.27 318.51 505.48 318.81 411.26"/>
          <polygon class="cls-1" points="250.49 446.32 290.79 457.69 375.09 504.23 336.46 494.78 250.49 446.32"/>
          <polygon class="cls-1" points="296.44 481.35 301.32 489.46 330.04 472.32 325.16 464.22 296.44 481.35"/>
          <polygon class="cls-1" points="301.55 489.3 305.98 497.66 335.88 482.63 331.46 474.26 301.55 489.3"/>
          <polygon class="cls-1" points="324.97 464.44 320.53 456.08 290.62 471.11 295.05 479.47 324.97 464.44"/>
        </g>
        <g>
          <path class="cls-1" d="M445.74,771.11c-7.91,24.52-37.8,28.14-46.48,55.04l-8.89-2.87c8.68-26.91,38.56-30.53,46.46-55.05"/>
          <path class="cls-1" d="M409.06,759.29c-8.41,26.08,13.44,47.36,5.77,71.12l-8.89-2.87c7.66-23.77-14.2-45.04-5.79-71.13"/>
          <path class="cls-1" d="M403.64,901.64c7.91-24.52-14.24-44.92-5.56-71.83l-8.89-2.87c-8.68,26.91,13.46,47.31,5.55,71.82"/>
          <path class="cls-1" d="M366.97,889.81c8.41-26.08,38.57-30.58,46.24-54.35l-8.89-2.87c-7.66,23.77-37.84,28.26-46.25,54.34"/>
          <polygon class="cls-1" points="445.43 824.4 414.56 824.39 357.09 839.29 388.16 837.81 445.43 824.4"/>
          <polygon class="cls-1" points="373.4 798.5 396.47 818.38 430.99 863.26 407.98 844.4 373.4 798.5"/>
          <polygon class="cls-1" points="386.35 824.34 385.07 827.72 416.81 838.26 418.09 834.89 386.35 824.34"/>
          <polygon class="cls-1" points="385.34 827.8 383.57 831.01 414.91 842.39 416.69 839.19 385.34 827.8"/>
          <polygon class="cls-1" points="417.81 834.83 419.57 831.62 388.23 820.24 386.46 823.44 417.81 834.83"/>
        </g>
        <g>
          <path class="cls-1" d="M222.74,1033.39c-12.56,0-18.71-27.34-32.49-27.34v-9.34c13.78,0,19.93,27.33,32.49,27.33"/>
          <path class="cls-1" d="M222.74,994.85c-13.36,0-19.96,27.32-32.13,27.32v-9.34c12.17,0,18.77-27.34,32.13-27.34"/>
          <path class="cls-1" d="M155.88,1033.39c12.56,0,18.71-27.34,32.49-27.34v-9.34c-13.78,0-19.93,27.33-32.49,27.33"/>
          <path class="cls-1" d="M155.88,994.85c13.36,0,19.96,27.32,32.13,27.32v-9.34c-12.17,0-18.77-27.34-32.13-27.34"/>
          <polygon class="cls-1" points="197.97 1049.45 193.35 1020.07 177.84 969.94 183.18 999.06 197.97 1049.45"/>
          <polygon class="cls-1" points="199.21 972.95 193.43 1001.01 177.78 1047.63 183.09 1019.95 199.21 972.95"/>
          <polygon class="cls-1" points="189.15 993.2 187.4 993.02 187.25 1026.46 189.01 1026.64 189.15 993.2"/>
          <polygon class="cls-1" points="187.4 993.31 185.65 992.61 185.05 1025.92 186.81 1026.63 187.4 993.31"/>
          <polygon class="cls-1" points="188.99 1026.36 190.75 1027.06 191.34 993.73 189.59 993.03 188.99 1026.36"/>
        </g>
        <g>
          <path class="cls-1" d="M399.96,756.36l.24-.76.26-.75.27-.75.28-.74.3-.73.31-.73.32-.72.34-.71.35-.71.36-.7.38-.69.39-.69.4-.68.41-.67.42-.67.43-.66.9-1.3.94-1.27.98-1.24,1.01-1.22,1.05-1.19,1.08-1.16,1.11-1.14,1.14-1.11c.39-.36.78-.73,1.17-1.09.4-.35.8-.71,1.19-1.06.41-.35.81-.69,1.21-1.03.41-.34.82-.67,1.23-1.01.42-.33.84-.66,1.25-.98.42-.32.85-.64,1.27-.96.43-.31.86-.62,1.28-.93.43-.3.86-.61,1.29-.91.44-.3.87-.59,1.3-.88.44-.29.87-.57,1.31-.86.44-.28.88-.56,1.31-.83.44-.27.88-.54,1.32-.81.44-.26.88-.53,1.32-.79.44-.26.88-.51,1.32-.76.44-.25.88-.49,1.31-.74.44-.24.88-.48,1.31-.71.88-.46,1.75-.91,2.59-1.35.87-.43,1.72-.85,2.55-1.26.85-.4,1.68-.79,2.48-1.17.82-.37,1.63-.73,2.4-1.07.79-.34,1.56-.66,2.31-.98.76-.31,1.49-.6,2.19-.89.72-.28,1.41-.54,2.07-.8.67-.25,1.31-.49,1.92-.71.62-.22,1.2-.43,1.76-.62.56-.19,1.09-.37,1.58-.54,1-.32,1.85-.6,2.55-.82.71-.21,1.26-.38,1.63-.49.38-.11.57-.16.57-.16-.5.19-1.01.39-1.52.58-.5.2-.99.41-1.49.61-.49.21-.98.43-1.47.64-.48.22-.96.45-1.45.67-.47.23-.95.46-1.43.7-.47.24-.93.48-1.4.72-.46.25-.92.5-1.38.75l-1.36.77-1.34.79-1.32.82-1.29.84-1.27.85-1.25.87-1.23.89-1.2.9-1.18.92-1.16.93-1.14.94-1.11.95-1.09.96-1.07.97-1.05.98-1.02.98-1,.99-.98.99-.96.99c-.62.67-1.23,1.33-1.84,1.98-.59.67-1.17,1.32-1.75,1.98-.56.66-1.12,1.31-1.66,1.96-.53.65-1.06,1.3-1.57,1.93-.5.64-1,1.27-1.48,1.9-.47.63-.94,1.25-1.39,1.85-.44.61-.88,1.21-1.3,1.8-.41.59-.82,1.17-1.21,1.73-.38.57-.76,1.12-1.12,1.66-.35.54-.7,1.06-1.03,1.57-.32.51-.64,1-.94,1.48-.3.48-.58.93-.85,1.37-.27.44-.52.86-.76,1.26-.47.8-.89,1.52-1.25,2.13-.71,1.24-1.19,2.1-1.4,2.47"/>
          <path class="cls-1" d="M385.22,637.09l.2.3.21.3c.15.2.31.4.47.61.17.2.35.41.53.62.19.21.38.42.58.64.21.21.42.43.63.65.22.22.45.44.68.66.24.22.48.44.73.67.25.22.51.45.77.69.27.23.54.46.81.7.28.23.57.47.85.71.29.23.59.47.89.71.31.24.62.48.93.72.64.48,1.29.96,1.96,1.46.68.49,1.38.98,2.08,1.48.72.49,1.45.99,2.19,1.5.75.5,1.51,1,2.28,1.51.78.5,1.56,1,2.35,1.51.8.5,1.6,1,2.41,1.51.82.5,1.63,1,2.45,1.5l2.48,1.48c1.67.97,3.33,1.93,4.96,2.88,1.66.93,3.28,1.85,4.87,2.73,1.6.87,3.15,1.72,4.64,2.54,1.5.8,2.93,1.57,4.28,2.29,1.36.71,2.63,1.38,3.79,1.99,2.35,1.2,4.27,2.19,5.61,2.87,1.35.67,2.1,1.05,2.1,1.05l5.79-6.14c-.78-.33-1.58-.66-2.38-1-.79-.35-1.58-.7-2.38-1.06-.79-.37-1.58-.74-2.38-1.12-.79-.39-1.58-.78-2.38-1.17-.78-.4-1.57-.81-2.37-1.22-.78-.42-1.56-.84-2.35-1.26-.78-.43-1.55-.86-2.33-1.3l-2.31-1.33-2.28-1.35c-.75-.46-1.5-.91-2.24-1.37-.74-.46-1.47-.92-2.2-1.38-.72-.46-1.44-.93-2.16-1.39-.71-.47-1.41-.93-2.11-1.39-.69-.47-1.38-.93-2.06-1.38-1.34-.93-2.66-1.84-3.94-2.73-1.26-.91-2.49-1.79-3.68-2.64-1.17-.87-2.29-1.7-3.37-2.5-1.06-.81-2.07-1.58-3.03-2.32-.94-.74-1.83-1.44-2.65-2.08-.81-.66-1.55-1.26-2.23-1.81-.66-.55-1.26-1.05-1.77-1.48-.51-.44-.93-.81-1.28-1.11-.17-.15-.32-.29-.44-.4-.06-.06-.12-.11-.17-.16-.05-.05-.1-.1-.14-.14"/>
          <path class="cls-1" d="M445.73,771.12l.66-1.73.7-1.72.74-1.71.77-1.7.8-1.69.82-1.68c.57-1.11,1.13-2.22,1.69-3.32,1.15-2.19,2.29-4.34,3.4-6.44.55-1.05,1.09-2.08,1.62-3.1.52-1.02,1.02-2.02,1.52-3,.24-.49.47-.98.71-1.46.22-.48.45-.96.66-1.43.21-.48.41-.94.62-1.41.19-.47.38-.92.56-1.38.17-.46.34-.9.5-1.34.08-.22.15-.44.23-.66.07-.22.14-.44.21-.65.07-.22.13-.43.19-.64.06-.21.12-.42.18-.63.05-.21.11-.42.16-.62.05-.21.09-.41.14-.62.04-.2.08-.41.12-.61.03-.2.07-.4.1-.6.03-.2.05-.39.08-.59.02-.19.04-.39.05-.58.01-.19.02-.38.03-.57,0-.19,0-.37,0-.56,0-.19-.01-.37-.02-.55-.01-.18-.03-.36-.04-.54-.02-.18-.04-.35-.07-.53-.03-.17-.06-.35-.09-.52-.04-.17-.08-.34-.12-.5l-.07-.25-.08-.25-.08-.24-.09-.24-.1-.24-.1-.23-.11-.23-.12-.23-.13-.23-.13-.22-5.28-3.17c-.03.16-.07.33-.1.51-.04.17-.08.35-.12.54-.05.19-.09.38-.14.57-.05.2-.11.4-.17.61-.12.41-.25.85-.39,1.31-.15.45-.3.93-.47,1.42-.17.49-.35,1-.53,1.52-.19.52-.39,1.06-.6,1.61-.21.55-.43,1.11-.65,1.69-.23.57-.46,1.16-.7,1.76-.5,1.19-1.01,2.42-1.53,3.68-.54,1.25-1.1,2.53-1.66,3.82-.58,1.28-1.16,2.58-1.74,3.87-.59,1.29-1.18,2.57-1.77,3.84-1.19,2.52-2.35,4.97-3.42,7.22-1.09,2.24-2.09,4.29-2.93,6.03-1.72,3.46-2.82,5.67-2.82,5.67"/>
          <path class="cls-1" d="M425.77,611.61s.19.2.55.57c.35.38.86.93,1.51,1.63.64.71,1.42,1.59,2.31,2.59.44.51.91,1.05,1.4,1.62.49.58,1,1.19,1.54,1.82.53.64,1.08,1.31,1.65,2.01.56.7,1.14,1.43,1.74,2.18.59.76,1.19,1.54,1.82,2.35.61.81,1.23,1.64,1.87,2.49.62.86,1.25,1.74,1.89,2.63.62.9,1.26,1.82,1.9,2.75.31.47.63.94.95,1.42.31.48.63.96.94,1.44.31.49.62.98.93,1.47.31.49.61.99.92,1.49l.91,1.51.89,1.53.87,1.55.85,1.56.82,1.58.79,1.59.76,1.6.73,1.61c.23.54.46,1.08.7,1.62.22.54.44,1.08.66,1.62.21.55.41,1.09.62,1.63.19.55.38,1.09.57,1.63.18.55.35,1.09.53,1.63.16.55.32,1.09.48,1.63.14.55.28,1.09.43,1.63l.19.81.18.81.16.81.15.81.13.81.12.81.1.8.09.8c.02.27.05.53.07.8.02.27.04.53.06.8.01.27.03.53.04.79,0,.26.01.53.02.79,0,.26,0,.53,0,.79,0,.26,0,.52-.01.78-.01.26-.02.52-.03.78-.02.26-.03.52-.05.77-.02.26-.05.52-.07.77-.03.26-.06.51-.09.77-.04.26-.07.51-.11.76-.04.25-.09.51-.13.76-.05.25-.1.5-.15.75-.06.25-.11.5-.17.75-.06.25-.13.5-.19.74-.07.25-.14.49-.21.73-.08.25-.16.49-.23.73-.09.24-.17.48-.26.72-.09.24-.19.48-.28.72-.1.24-.2.48-.3.71-.11.24-.22.47-.32.7-.12.23-.23.47-.35.7-.12.23-.25.46-.37.69-.13.23-.26.46-.39.68l-.21.34-.05.08v.02s0,.01,0,.02l.04.03.15.14.57.54.67,8.69-.3-.53-.33-.53-.36-.53-.39-.54-.41-.54-.44-.54-.47-.54-.49-.54-.52-.54-.55-.54-.57-.54-.6-.54-.62-.54-.65-.54-.67-.54-.7-.54c.2-.44.41-.89.61-1.34l.28-.67.26-.67.25-.67.23-.67.21-.67.2-.67.18-.67.16-.67.15-.68.13-.68.11-.68.1-.68.08-.68.07-.68.05-.68.04-.68.02-.68v-.68s0-.68,0-.68l-.02-.68-.04-.68-.05-.68-.06-.68-.08-.68-.09-.68-.1-.68-.12-.68-.13-.68-.14-.68-.15-.68c-.11-.45-.23-.9-.34-1.36-.13-.45-.26-.9-.39-1.36-.14-.45-.29-.9-.43-1.36-.16-.45-.32-.9-.48-1.36-.17-.45-.34-.9-.52-1.35-.18-.45-.37-.9-.56-1.35-.2-.45-.4-.9-.59-1.35-.21-.45-.42-.9-.63-1.35-.22-.45-.44-.9-.66-1.35-.23-.45-.46-.89-.7-1.34-.24-.45-.48-.89-.73-1.34-.25-.44-.5-.89-.76-1.34l-.79-1.33-.81-1.33-.84-1.33-.86-1.32-.88-1.32-.9-1.31c-.62-.87-1.23-1.74-1.85-2.62l-1.91-2.59-1.96-2.57-1.99-2.55c-.67-.84-1.34-1.68-2.01-2.52-1.35-1.67-2.69-3.32-4.01-4.96-1.33-1.63-2.64-3.24-3.93-4.83-.64-.79-1.27-1.58-1.9-2.36-.62-.79-1.23-1.56-1.84-2.33"/>
          <polygon class="cls-1" points="516.22 720.59 480.96 714.03 402.73 713.83 439.47 719.25 516.22 720.59"/>
          <polygon class="cls-1" points="469.59 678.97 461.24 686.47 459.15 688.35 459.09 688.41 459.05 688.44 459.04 688.45 459.03 688.46 459.03 688.46 459.07 688.56 459.14 688.75 459.28 689.14 459.57 689.91 460.72 692.99 465.34 705.33 469.65 753.46 456.6 728.78 456.36 704.72 456.23 692.69 456.2 689.68 456.2 688.93 456.19 688.84 456.2 688.81 456.23 688.78 456.31 688.73 456.62 688.5 457.24 688.05 459.71 686.23 469.59 678.97"/>
          <polygon class="cls-1" points="448.74 707.98 444.43 710.44 471.84 725.71 476.15 723.25 448.74 707.98"/>
          <polygon class="cls-1" points="444.69 710.56 439.96 712.78 466.22 728.64 470.94 726.42 444.69 710.56"/>
          <polygon class="cls-1" points="475.89 723.14 480.61 720.93 454.35 705.07 449.61 707.28 475.89 723.14"/>
          <path class="cls-1" d="M483.62,706.15l-16.34-10.9-8.17-5.45-1.02-.68-.51-.34-.13-.09-.03-.02h0s0,0,0-.01h0s.02-.07.02-.07l.08-.21.63-1.7,1.26-3.39-5.15-45.33-6.56,23.17.82,24.66.1,3.08.03.77v.1s0,.01,0,.01h0s.04.03.04.03l.08.04.33.15.65.31,2.61,1.22,10.42,4.89,20.85,9.77Z"/>
          <polygon class="cls-1" points="507.63 658.22 472.97 671.19 399.64 687.51 432.82 674.38 507.63 658.22"/>
          <polygon class="cls-1" points="467.32 662.53 462.87 660.9 439.07 682.12 443.52 683.75 467.32 662.53"/>
          <polygon class="cls-1" points="462.7 661.09 458.63 659.13 433.72 679.9 437.8 681.85 462.7 661.09"/>
          <polygon class="cls-1" points="443.67 683.56 447.74 685.51 472.63 664.74 468.57 662.79 443.67 683.56"/>
        </g>
        <g>
          <path class="cls-1" d="M222.73,985.29h1.25s1.24,0,1.24,0c.83.02,1.65.05,2.48.07.82.04,1.64.09,2.46.13.82.06,1.63.13,2.45.19.81.08,1.62.17,2.43.25.81.1,1.61.2,2.41.3.8.12,1.6.24,2.4.36.79.14,1.59.27,2.38.41.79.15,1.57.3,2.36.46.78.17,1.56.34,2.34.5.77.18,1.55.37,2.32.55.77.2,1.53.39,2.29.59.76.21,1.52.42,2.27.63.75.22,1.5.45,2.25.67.74.24,1.49.47,2.22.71.74.25,1.47.5,2.2.74.73.26,1.45.52,2.17.78.72.27,1.43.54,2.15.81.71.28,1.42.56,2.12.84.7.29,1.4.58,2.09.86.69.3,1.38.59,2.06.89.68.31,1.36.61,2.03.91.67.31,1.34.62,2,.93.66.32,1.32.63,1.97.95.65.32,1.29.65,1.94.97.64.33,1.27.66,1.9.98.63.33,1.25.67,1.87.99.62.34,1.23.67,1.83,1,.6.34,1.2.68,1.8,1.01.59.34,1.18.68,1.76,1.02.58.34,1.15.69,1.72,1.02.57.34,1.13.69,1.69,1.03.55.35,1.1.69,1.65,1.03.54.35,1.08.69,1.61,1.02,1.05.69,2.08,1.37,3.09,2.04,1,.69,1.97,1.35,2.92,2.01.94.67,1.86,1.32,2.75,1.96.88.65,1.74,1.28,2.56,1.9.82.63,1.61,1.23,2.37,1.82.76.6,1.48,1.17,2.18,1.72.69.56,1.35,1.1,1.98,1.61.62.52,1.21,1.01,1.77,1.48.55.47,1.07.92,1.55,1.33.48.42.92.81,1.33,1.17.41.37.77.7,1.11,1,.66.61,1.16,1.08,1.5,1.4.34.33.51.49.51.49-.53-.42-1.06-.84-1.59-1.26-.54-.41-1.08-.82-1.62-1.23-.55-.4-1.1-.8-1.66-1.2-.56-.39-1.12-.78-1.69-1.17-.57-.38-1.14-.76-1.72-1.14-.58-.37-1.16-.74-1.75-1.11-.59-.36-1.18-.72-1.77-1.09-.6-.35-1.2-.7-1.8-1.06-.61-.34-1.21-.68-1.82-1.03-.61-.33-1.23-.67-1.84-1l-1.86-.97-1.88-.95-1.89-.92-1.91-.89-1.92-.87-1.93-.84-1.94-.82-1.94-.79-1.95-.77-1.95-.74-1.95-.72-1.95-.7c-1.3-.44-2.6-.88-3.89-1.32-1.3-.41-2.59-.82-3.87-1.23-1.29-.38-2.56-.77-3.83-1.15-1.27-.36-2.53-.71-3.78-1.06-1.25-.33-2.49-.66-3.71-.98-1.22-.31-2.43-.61-3.63-.9-1.19-.28-2.37-.56-3.53-.83-1.16-.26-2.3-.51-3.42-.76-1.12-.23-2.22-.46-3.29-.69-1.08-.21-2.13-.42-3.15-.62-1.03-.19-2.03-.38-3-.56-.97-.17-1.91-.34-2.83-.5-.91-.15-1.79-.3-2.64-.44-1.7-.26-3.26-.51-4.68-.73-1.41-.2-2.68-.38-3.77-.53-2.18-.29-3.68-.49-4.35-.58"/>
          <path class="cls-1" d="M358.08,886.94c-.1.35-.2.71-.31,1.09-.09.38-.19.76-.29,1.16-.09.4-.18.81-.28,1.23-.08.42-.17.86-.26,1.31-.08.45-.16.91-.24,1.37-.07.47-.15.95-.23,1.44-.07.49-.14.99-.21,1.5-.07.51-.13,1.03-.2,1.56-.06.53-.12,1.07-.19,1.62-.06.55-.11,1.1-.17,1.67-.1,1.13-.2,2.29-.3,3.49-.08,1.19-.17,2.42-.25,3.66-.07,1.25-.14,2.52-.21,3.81-.05,1.29-.11,2.61-.16,3.94-.04,1.33-.08,2.68-.12,4.05-.03,1.36-.05,2.74-.08,4.12-.02,1.39-.03,2.78-.05,4.18,0,1.4,0,2.81-.01,4.21,0,1.41.01,2.81.02,4.22.04,2.81.07,5.61.11,8.36.06,2.76.13,5.47.19,8.1.08,2.64.16,5.2.24,7.65.1,2.45.19,4.8.27,7,.1,2.21.19,4.27.28,6.16.2,3.79.36,6.88.47,9.03.13,2.15.2,3.35.2,3.35l8.79-.63c-.13-1.18-.27-2.38-.4-3.59-.11-1.21-.23-2.43-.35-3.67-.1-1.23-.19-2.48-.29-3.73-.08-1.25-.16-2.51-.24-3.78-.06-1.27-.13-2.54-.19-3.82-.05-1.28-.1-2.56-.14-3.85-.03-1.29-.07-2.58-.1-3.87l-.06-3.88-.02-3.87c0-1.29,0-2.57.01-3.86.02-1.28.03-2.56.05-3.83.03-1.27.05-2.53.08-3.79.08-2.51.16-4.99.23-7.42.11-2.43.21-4.81.32-7.13.13-2.32.26-4.57.38-6.75.15-2.17.29-4.27.42-6.28.16-2,.3-3.91.44-5.71.16-1.8.31-3.49.44-5.06.15-1.57.29-3.01.42-4.32.14-1.3.27-2.47.37-3.48.12-1.01.22-1.87.31-2.56.05-.34.09-.65.12-.9.04-.26.07-.47.1-.64"/>
          <path class="cls-1" d="M222.73,1033.38c.96.03,1.92.07,2.88.1.96.05,1.93.09,2.89.14l2.9.18,2.9.21,2.9.24,2.89.27c1.92.2,3.84.39,5.74.59,3.8.43,7.55.85,11.19,1.26,1.82.2,3.62.4,5.38.6,1.76.18,3.5.35,5.19.52.85.08,1.68.15,2.51.22.83.06,1.64.13,2.45.19.81.05,1.6.1,2.38.15.78.04,1.55.08,2.31.11.76.02,1.5.04,2.24.07.73,0,1.45.01,2.16.02.35,0,.7,0,1.05-.01.35,0,.69-.02,1.03-.03.34-.01.67-.03,1-.04.33-.02.66-.04.98-.06.32-.02.64-.05.96-.07.31-.03.63-.06.93-.09.31-.04.61-.07.91-.11.3-.04.59-.08.88-.13.29-.05.58-.1.86-.14.28-.06.56-.11.83-.16.27-.06.54-.12.81-.18.26-.07.52-.14.78-.2.25-.08.5-.15.75-.22.24-.08.49-.17.72-.25.23-.09.47-.18.69-.27.22-.1.45-.19.66-.29l.32-.15.31-.16.31-.17.3-.17.29-.18.28-.18.27-.19.27-.2,2.18-6c-.26.02-.52.04-.8.06-.28.02-.57.03-.86.05-.6.02-1.23.04-1.9.07-.67,0-1.38.02-2.13.03-.74,0-1.52,0-2.33,0-.81-.01-1.65-.03-2.51-.04-.87-.02-1.76-.05-2.68-.07-1.84-.07-3.77-.15-5.77-.23-2-.11-4.08-.22-6.2-.33-2.12-.13-4.28-.27-6.47-.41-2.18-.15-4.39-.31-6.59-.47-2.2-.17-4.39-.34-6.55-.5-4.32-.36-8.51-.71-12.36-1.04-3.86-.35-7.38-.67-10.36-.94-5.97-.58-9.77-.95-9.77-.95"/>
          <path class="cls-1" d="M403.65,901.64s-.32,1.65-.87,4.57c-.3,1.45-.67,3.22-1.09,5.26-.22,1.02-.46,2.1-.71,3.25-.26,1.14-.53,2.35-.82,3.61-.3,1.26-.6,2.57-.92,3.94-.33,1.36-.68,2.77-1.03,4.22-.37,1.45-.75,2.94-1.14,4.47-.41,1.53-.82,3.09-1.25,4.69-.44,1.59-.9,3.22-1.35,4.87-.48,1.65-.97,3.32-1.46,5.01-.52,1.69-1.04,3.39-1.57,5.11-.55,1.71-1.11,3.44-1.68,5.18-.29.87-.59,1.73-.88,2.6l-.91,2.61-.93,2.61-.96,2.6-.99,2.59-1.01,2.57c-.35.85-.69,1.7-1.04,2.55-.36.85-.71,1.69-1.07,2.53-.37.84-.73,1.67-1.09,2.5-.37.83-.75,1.65-1.12,2.47-.38.81-.77,1.62-1.15,2.43-.39.8-.78,1.6-1.17,2.39-.4.78-.8,1.56-1.2,2.34-.41.77-.82,1.53-1.22,2.29-.42.75-.84,1.49-1.25,2.23-.43.73-.86,1.45-1.28,2.17-.44.71-.87,1.41-1.3,2.1-.45.69-.89,1.36-1.33,2.03-.23.33-.45.66-.68.99-.23.32-.46.65-.68.97-.23.32-.46.63-.69.95-.23.31-.46.62-.7.93-.24.3-.47.61-.7.91-.24.3-.47.59-.71.89-.24.29-.48.58-.71.86-.24.28-.48.56-.72.84-.24.27-.49.55-.73.82-.25.27-.49.53-.73.79-.25.26-.5.51-.74.77-.25.25-.5.5-.75.74-.25.24-.51.48-.75.72-.26.23-.51.46-.76.69-.26.22-.51.45-.77.67-.26.21-.52.43-.77.64-.26.21-.52.41-.78.61-.27.2-.53.39-.79.58-.27.19-.53.37-.79.55-.27.18-.54.35-.8.52-.27.17-.54.33-.81.49-.27.16-.55.31-.81.46-.28.14-.55.29-.82.43-.28.13-.55.27-.83.4-.28.12-.56.24-.83.37-.28.11-.56.22-.84.33l-.42.15-.11.04h-.03s-.01.02-.02.03l-.03.05-.13.18c-.18.24-.36.47-.53.71l-12.59,3.31.65-.45.64-.48.62-.51.61-.53.6-.56.58-.58.57-.61.56-.64.55-.66.54-.69.52-.71.51-.73.5-.76.49-.78.48-.8.47-.83.78-.4.78-.42.77-.44.76-.46.75-.48.74-.49.73-.51.72-.53.71-.55.7-.57.7-.59.69-.6.68-.62.67-.64.66-.66.65-.67.65-.69.64-.71.63-.72.62-.74.61-.75.61-.77.6-.78.59-.8c.38-.54.77-1.09,1.16-1.64.37-.56.75-1.12,1.13-1.69.37-.58.73-1.16,1.1-1.75.36-.59.72-1.19,1.08-1.8.35-.61.7-1.23,1.05-1.85.34-.63.68-1.26,1.02-1.89.33-.64.66-1.29,1-1.94.32-.66.65-1.32.97-1.98.31-.67.63-1.35.95-2.03.31-.68.62-1.37.93-2.07.3-.7.6-1.4.9-2.1.29-.71.59-1.42.88-2.14.29-.72.57-1.44.86-2.17.28-.73.56-1.47.84-2.2.27-.74.55-1.49.82-2.23.27-.75.53-1.5.8-2.26.26-.76.52-1.52.78-2.29.25-.77.51-1.54.77-2.31.49-1.55.99-3.11,1.48-4.68.47-1.58.95-3.16,1.42-4.75.45-1.6.91-3.2,1.36-4.81.44-1.61.88-3.23,1.31-4.85l1.27-4.87c.81-3.26,1.62-6.51,2.42-9.74.78-3.24,1.55-6.46,2.31-9.64.76-3.18,1.51-6.32,2.24-9.41.75-3.08,1.49-6.1,2.22-9.05"/>
          <polygon class="cls-1" points="331.55 1084.96 324.41 1049.39 287.23 974.87 296.79 1011.51 331.55 1084.96"/>
          <polygon class="cls-1" points="366.36 1021.38 354.92 1020.81 352.06 1020.67 351.97 1020.67 351.92 1020.67 351.9 1020.67 351.89 1020.67 351.88 1020.67 351.76 1020.73 351.51 1020.86 351 1021.12 350 1021.63 345.97 1023.67 329.85 1031.85 260.42 1050.73 290.82 1030.73 326.45 1023.11 344.27 1019.3 348.72 1018.35 349.83 1018.11 349.97 1018.08 350.01 1018.08 350.05 1018.09 350.15 1018.11 350.53 1018.18 351.28 1018.33 354.3 1018.94 366.36 1021.38"/>
          <polygon class="cls-1" points="317.96 1016.87 312.24 1013.52 302.7 1044.29 308.41 1047.64 317.96 1016.87"/>
          <polygon class="cls-1" points="312.19 1013.8 306.63 1009.99 295.65 1039.85 301.2 1043.66 312.19 1013.8"/>
          <polygon class="cls-1" points="308.44 1047.36 313.99 1051.17 324.98 1021.31 319.42 1017.48 308.44 1047.36"/>
          <path class="cls-1" d="M337.39,1049.5l8.37-18.9,4.18-9.45.52-1.18.26-.59.07-.15.02-.04h0s0,0,0-.02h.01s.06-.05.06-.05l.24-.15,1.89-1.2,3.79-2.39,38.51-55.02-24.74,18.47-22.04,27.85-2.76,3.48-.69.87-.09.11-.02.03v.04s-.03.09-.03.09l-.07.36-.14.71-.57,2.86-2.26,11.42-4.53,22.84Z"/>
          <polygon class="cls-1" points="406.24 1038.62 375.32 1016.41 320.04 957.25 350.29 977.73 406.24 1038.62"/>
          <polygon class="cls-1" points="380.11 1001 379.14 994.54 346.68 992.77 347.64 999.22 380.11 1001"/>
          <polygon class="cls-1" points="378.88 994.56 378.41 988.15 345.75 984.72 346.22 991.13 378.88 994.56"/>
          <polygon class="cls-1" points="347.89 999.17 348.36 1005.58 381.02 1009 380.56 1002.59 347.89 999.17"/>
        </g>
      </g>
      <g>
        <g>
          <path class="cls-1" d="M15.19,720.49c9.95,0,18.73,1.71,27.53,4.27,8.79,2.56,17.57,5.98,27.04,9.4,9.45,3.42,19.59,6.83,30.72,9.4,11.11,2.56,23.27,4.27,36.17,4.27l5.69,8.62c-13.51.07-25.94-1.25-37.37-3.55-11.66-2.56-22.26-5.98-32.18-9.39-9.93-3.42-19.18-6.83-28.45-9.39-9.3-2.56-18.6-4.27-29.16-4.27"/>
          <path class="cls-1" d="M15.19,759.03c13.19-.11,24.63-1.89,34.65-4.35,2.5-.63,4.95-1.25,7.26-1.99,2.32-.73,4.55-1.51,6.71-2.31,4.33-1.6,8.37-3.31,12.26-5.02,7.77-3.42,14.86-6.83,22.47-9.39,7.63-2.56,15.75-4.27,26.1-4.27l6.18,9.34c-10.94,0-19.57,1.71-27.69,4.27-4.05,1.28-7.96,2.78-11.89,4.38-3.95,1.58-7.82,3.39-12.11,4.87-8.45,3.13-17.47,6.4-27.93,9-10.44,2.6-22.33,4.53-36.02,4.81"/>
          <path class="cls-1" d="M156.83,633.97c-2.34,9.27-2.77,17.98-2.43,27.12.34,9.12,1.47,18.62,2.41,28.88.94,10.24,1.69,21.24,1.38,32.96-.15,5.85-.57,11.87-1.35,18-.2,1.53-.4,3.07-.66,4.61-.18.75-.69,1.39-1.34,1.69-.33.15-.67.2-1.03.22l-1.06.08c-2.85.2-5.89.31-9.11.31l6.02,8.57c3.37-.02,6.56-.12,9.59-.3l1.13-.07c.37-.01.74-.06,1.09-.22.69-.31,1.25-.95,1.46-1.72.32-1.56.59-3.13.85-4.68,1.03-6.23,1.7-12.36,2-18.44.46-12.31-.15-23.85-.95-34.63-.8-10.79-1.79-20.83-1.99-30.51-.19-9.7.39-19.02,2.91-28.98"/>
          <path class="cls-1" d="M193.59,645.8c-3.27,12.95-7.72,23.62-12.58,32.4-4.86,8.81-10.14,15.77-15.23,21.96-5.09,6.21-9.99,11.66-14.19,17.85-2.1,3.1-4.04,6.4-5.75,10.14-.42.95-.84,1.91-1.27,2.88-.28.47-.79.85-1.4.99-.6.16-1.28,0-1.93-.03-2.61-.2-5.2-.31-7.8-.31l6.67,9.34c2.74,0,5.47.11,8.22.31.68.02,1.39.19,2.04.02.64-.16,1.18-.57,1.48-1.07.45-1.05.89-2.09,1.33-3.11,1.79-4.04,3.8-7.63,5.97-11.01,4.34-6.77,9.4-12.72,14.59-19.49,5.23-6.72,10.66-14.21,15.67-23.62,5.01-9.38,9.63-20.7,13.08-34.38"/>
          <path class="cls-1" d="M85.65,704.44c9.37,9.79,19.67,19.58,30.9,29.38,6.98,4.18,14.3,8.35,21.95,12.53,3.83,2.09,7.73,4.18,11.73,6.27,1.03.57,1.91.92,2.85,1.36l2.8,1.25,5.68,2.48c.95.45,1.91.74,2.78.79.86.06,1.59-.08,2.1-.27l3.11-1.15,6.59-2.34c2.28-.8,4.64-1.6,7.06-2.51,2.42-.9,4.94-1.76,7.48-2.8-2.5-.04-4.96-.17-7.37-.33-2.4-.15-4.74-.33-7.02-.52-4.56-.43-8.87-.91-12.91-1.41l-1.46.48c-.52.12-1.1.15-1.65.22l-1.66.15c-.52.05-1.21.07-2.06-.08-.84-.15-1.82-.46-2.79-.98l-2.91-1.57-5.73-3.15c-7.56-4.2-14.81-8.4-21.74-12.6-13.85-8.4-26.42-16.8-37.72-25.19Z"/>
          <path class="cls-1" d="M116.42,777.35c4.66-8.46,8.49-16.55,11.33-24.48,5.34-7.77,9.42-15.54,12.26-23.31.18-.46.34-1.01.42-1.79.07-.77.02-1.71-.23-2.69l-1.53-5.85c-1.03-3.85-2.09-7.62-3.16-11.29-2.15-7.35-4.4-14.33-6.73-20.96,6.43,12.25,12.56,25.67,18.4,40.24l1.47,6.17.72,3.14c.26,1.06.3,2.07.19,2.89-.11.84-.35,1.41-.58,1.87l-.71,1.47c-.48.98-.98,1.96-1.51,2.94-1.05,1.96-2.17,3.92-3.38,5.88l-.92,1.47c-.36.43-.76.81-1.14,1.22l-2.38,2.44c-6.47,6.54-13.98,13.43-22.52,20.67Z"/>
          <polygon class="cls-1" points="148.53 759.29 155.62 759.36 150.82 752.5 144.87 744.14 132.92 727.42 126.96 727.24 138.3 743.96 143.96 752.32 148.53 759.29"/>
          <path class="cls-1" d="M155.44,759.13l7.38.48-4.52-6.67-5.85-8.38-11.97-17.05c-.85.53-2,.17-3.04.1l-3.17-.36,11.24,16.66,5.54,8.33.66,1.01.53.84,1.07,1.68,2.12,3.36Z"/>
          <path class="cls-1" d="M127.21,727.52l-6.28-.69,9.89,16.66,4.87,8.33.61,1.04c.22.37.33.6.5.9l.93,1.72,1.85,3.45,7.33.5-1.97-3.41-.99-1.7-.5-.85-.26-.44-.32-.52-5.17-8.33-10.49-16.66Z"/>
        </g>
        <g>
          <path class="cls-1" d="M156.84,633.96c.59-2.32,1.25-4.54,2-6.67.45-1.26.88-2.49,1.32-3.71.48-1.3.97-2.58,1.48-3.84,2.04-5.03,4.32-9.71,6.77-14.16,4.89-8.91,10.44-16.94,16.03-25.12,11.17-16.35,22.49-33.26,28.97-58.97l9.05,2.28c-6.48,25.7-17.8,42.62-28.97,58.97-5.58,8.17-11.13,16.2-16.02,25.12-2.45,4.46-4.73,9.14-6.77,14.16-.51,1.26-1,2.54-1.48,3.84-.47,1.27-.97,2.73-1.34,3.79-.79,2.3-1.5,4.69-2.13,7.18"/>
          <path class="cls-1" d="M193.6,645.79c.82-3.23,1.5-6.39,2.07-9.48.56-3.03.98-5.91,1.32-8.77.67-5.71.95-11.2.98-16.53.04-10.65-.95-20.65-1.99-30.52-2.07-19.73-4.28-38.91,1.45-61.61l9.05,2.28c-5.73,22.7-3.52,41.88-1.44,61.61,1.04,9.87,2.04,19.87,1.99,30.52-.02,5.33-.3,10.81-.98,16.53-.17,1.43-.36,2.87-.58,4.33-.11.73-.23,1.46-.35,2.2-.13.76-.27,1.52-.41,2.29-.62,3.26-1.35,6.6-2.21,10.01"/>
          <path class="cls-1" d="M219.23,386.63c-11.82,46.84,8.9,76.47-4.06,127.88l9.05,2.28c12.97-51.4-7.74-81.04,4.08-127.88"/>
          <path class="cls-1" d="M256.59,396.05c-12.57,49.83-45.28,67.77-56.73,113.17l9.05,2.28c11.45-45.4,44.17-63.34,56.74-113.17"/>
          <polygon class="cls-1" points="164.06 539.68 196.89 529.65 260.08 484.07 226.83 496.84 164.06 539.68"/>
          <polygon class="cls-1" points="237.07 563.02 215.29 534.62 184.81 464.83 206.66 491.39 237.07 563.02"/>
          <polygon class="cls-1" points="226.88 520.57 228.71 514.05 196.43 505.34 194.6 511.85 226.88 520.57"/>
          <polygon class="cls-1" points="228.44 514 230.76 507.63 199.02 497.27 196.68 503.64 228.44 514"/>
          <polygon class="cls-1" points="194.88 511.86 192.56 518.23 224.31 528.59 226.64 522.22 194.88 511.86"/>
        </g>
      </g>
    </g>
  </g>
</svg>