<?xml version="1.0" encoding="UTF-8"?>
<svg id="Layer_2" data-name="Layer 2" xmlns="http://www.w3.org/2000/svg" viewBox="0 0 730.69 1046.57">
  <defs>
    <style>
      .cls-1 {
        fill: #bfbfbf;
        stroke: #000;
        stroke-linecap: round;
        stroke-width: 4.5px;
      }
    </style>
  </defs>
  <g id="Layer_2-2" data-name="Layer 2">
    <g>
      <g>
        <path class="cls-1" d="M2.25,981.3c28.21,0,49.23,6.83,70.93,13.67,10.85,3.42,21.88,6.83,34.06,9.4,6.09,1.28,12.47,2.35,19.26,3.1,3.4.37,6.9.67,10.51.87.45.02.91.05,1.36.07l.69.03h.17s.08,0,.08,0h.17c.46.04.91-.04,1.36-.14.89-.25,1.76-.74,2.4-1.49l6.99,6.19c-1.76,2.01-4.08,3.44-6.54,4.19-1.24.34-2.51.58-3.76.57-.29,0-.68.02-.88,0l-.69-.03c-.46-.02-.91-.05-1.36-.07-3.62-.2-7.12-.49-10.51-.87-6.79-.75-13.17-1.81-19.26-3.1-12.18-2.56-23.21-5.98-34.06-9.39-21.7-6.83-42.72-13.66-70.93-13.66"/>
        <path class="cls-1" d="M2.25,1019.83c30.01,0,52.44-6.83,74.19-13.66,10.88-3.42,21.59-6.83,33-9.39,5.71-1.28,11.58-2.35,17.75-3.1,3.08-.37,6.23-.67,9.47-.87.81-.04,1.62-.09,2.44-.13.03,0,.14,0,.11,0h-.15s-.3-.02-.3-.02c-.2,0-.4.01-.6.03-.42,0-.82.08-1.24.15-1.67.3-3.28,1.07-4.58,2.17l5.98,7.17c.16-.14.39-.24.63-.23.06,0,.11-.01.16.02.02,0,.04,0,.07,0,.01,0,.02.01.03.02h.02s-.09.02-.13.02c-.82.04-1.63.09-2.44.13-3.24.2-6.39.49-9.47.87-6.16.75-12.04,1.82-17.75,3.1-11.41,2.56-22.12,5.98-33,9.4-21.76,6.83-44.18,13.67-74.19,13.67"/>
        <path class="cls-1" d="M117.28,856.57c0,56.43,27.34,84.07,27.34,146h9.34c0-61.93-27.33-89.57-27.33-146"/>
        <path class="cls-1" d="M155.81,856.57c0,60.03-27.32,89.69-27.32,144.38h9.34c0-54.69,27.34-84.36,27.34-144.38"/>
        <path class="cls-1" d="M113.54,965.24l20.74,29.38,4.35,3.13.54.39c.07.03.04.06.02.09l-.06.09-.11.19c-.14.27-.26.56-.36.82-.09.29-.16.57-.21.84-.04.29-.06.57-.05.83.06,2.23,2.06,3.93,4.41,3.75,1.17-.09,2.39-.57,3.44-1.61l3.13-4.35,6.27-8.71,25.06-34.84-29.11,23.96-12.6,16.61-3.15,4.15-1.57,2.08-.79,1.04-.1.13s-.07-.03-.1-.04l-.2-.15c-.13-.1-.25-.21-.37-.32-1.98-1.84-2.99-5.48-1.83-9.21.57-1.87,1.69-3.78,3.36-5.43.83-.83,1.8-1.59,2.87-2.25.54-.31,1.08-.65,1.66-.91l.44-.19c-.06-.06-.17-.13-.25-.2l-.52-.39-8.31-6.3-16.61-12.6Z"/>
        <path class="cls-1" d="M107.97,1041.74l25.94-28.06,4.4-2.91.55-.36c.17-.12.4-.24.49-.37.23-.27.44-.49.62-.77.36-.54.6-1.09.74-1.65.59-2.26-.65-4.42-2.59-4.86-.96-.24-2.05-.05-3.02.48l-.04.03s-.03-.04-.05-.06l-.09-.14-.18-.27-.36-.55-.73-1.1-1.46-2.2-5.83-8.79-23.31-35.17,27.69,23.84,11.75,18.11,2.94,4.53.73,1.13.37.57c.12.2.23.28.35.44.24.28.47.59.65.92.21.33.39.68.53,1.06,1.29,2.96.88,7.42-2.08,11.08-1.45,1.83-3.52,3.44-6.01,4.51l-.47.2-.24.1-.14.09-.57.37-1.13.73-2.26,1.47-9.06,5.88-18.11,11.75Z"/>
        <path class="cls-1" d="M156.81,1008.03c.32-1.08.52-2.2.62-3.32l.06-.84.03-.75.02-.99.09-3.95-33.44-.65-.09,3.95-.02.99v.49s-.02.25-.02.25c0,.08,0-.03,0-.07v-.17c-.02-.46.02-.92.07-1.38.03-.47.1-.94.2-1.4,10.97,1.95,21.81,4.57,32.48,7.84Z"/>
        <polygon class="cls-1" points="157.36 998.2 158.06 990.32 124.74 987.66 124.03 995.53 157.36 998.2"/>
        <path class="cls-1" d="M124.59,1000.35c.49-3.73,2.43-7.25,5.38-9.69,7.64,8.19,13.1,18.14,15.89,29,4.15-1.42,7.78-4.44,9.95-8.44-9.32-6.2-20.1-9.96-31.22-10.88Z"/>
      </g>
      <g>
        <path class="cls-1" d="M117.28,856.55c0-56.43,27.34-84.07,27.34-145.99h9.34c0,61.93-27.33,89.57-27.33,145.99"/>
        <path class="cls-1" d="M155.81,856.55c0-60.03-27.32-89.69-27.32-144.38h9.34c0,54.69,27.34,84.36,27.34,144.38"/>
        <path class="cls-1" d="M117.28,556.15c0,56.43,27.34,84.07,27.34,146h9.34c0-61.93-27.33-89.57-27.33-146"/>
        <path class="cls-1" d="M155.81,556.15c0,60.03-27.32,89.69-27.32,144.38h9.34c0-54.69,27.34-84.36,27.34-144.38"/>
        <polygon class="cls-1" points="101.22 745.26 130.6 724.52 180.72 654.84 151.61 678.8 101.22 745.26"/>
        <polygon class="cls-1" points="177.72 750.83 149.66 724.89 103.03 654.55 130.72 678.39 177.72 750.83"/>
        <polygon class="cls-1" points="157.46 705.66 157.64 697.76 124.2 697.11 124.02 705.02 157.46 705.66"/>
        <polygon class="cls-1" points="157.36 697.78 158.06 689.9 124.74 687.24 124.03 695.11 157.36 697.78"/>
        <polygon class="cls-1" points="124.3 704.94 123.61 712.82 156.93 715.48 157.63 707.61 124.3 704.94"/>
      </g>
      <g>
        <path class="cls-1" d="M117.28,556.13c0-56.43,27.34-84.07,27.34-145.99h9.34c0,61.93-27.33,89.57-27.33,145.99"/>
        <path class="cls-1" d="M155.81,556.13c0-60.03-27.32-89.69-27.32-144.38h9.34c0,54.69,27.34,84.36,27.34,144.38"/>
        <path class="cls-1" d="M134.87,245.11c-2.7,3.21-5.18,6.38-7.38,9.51-1.12,1.56-2.16,3.12-3.16,4.66-.5.77-1.01,1.52-1.45,2.32-.44.8-.81,1.65-1.11,2.53-.6,1.76-.9,3.63-.89,5.46.04,1.83.11,3.65.2,5.44.21,3.61.54,7.17.99,10.68.89,7.02,2.26,13.82,3.86,20.4,1.6,6.58,3.31,12.92,5.02,19.13.84,3.06,1.69,6.13,2.55,9.23.41,1.5.83,3.01,1.25,4.52.4,1.39.81,2.79,1.22,4.2,1.6,5.64,3.1,11.44,4.38,17.53,2.56,12.18,4.27,25.52,4.27,41h9.34c0-15.48-1.71-28.82-4.27-41-1.28-6.09-2.78-11.89-4.38-17.53-1.71-5.88-3.37-11.59-5.02-17.25-1.71-5.88-3.42-11.9-5.02-18.16-1.6-6.26-3.02-12.74-4.03-19.46-.5-3.36-.91-6.77-1.21-10.24-.14-1.73-.26-3.48-.35-5.24-.07-1.76.19-3.56.77-5.24.29-.84.65-1.65,1.08-2.41.43-.76.94-1.46,1.43-2.19.99-1.45,2.02-2.91,3.12-4.39,2.17-2.95,4.58-5.95,7.2-8.97"/>
        <path class="cls-1" d="M169.58,263.89c-2.47,2.64-4.95,5.14-7.47,7.53-1.26,1.2-2.52,2.37-3.8,3.52-1.32,1.11-2.4,2.44-3.1,3.9-.36.73-.62,1.48-.81,2.23-.18.76-.25,1.51-.38,2.26-.23,1.5-.47,2.98-.73,4.44-.52,2.92-1.11,5.78-1.75,8.59-2.56,11.25-5.98,21.89-9.39,33.13-1.67,5.58-3.34,11.12-5.02,16.72-1.6,5.46-3.1,10.99-4.38,16.7-2.56,11.41-4.27,23.52-4.27,37.19h9.34c0-13.67,1.71-25.78,4.27-37.19,1.28-5.71,2.78-11.24,4.38-16.7,1.6-5.44,3.31-10.93,5.02-16.21,3.42-10.59,6.83-20.58,9.4-31.11.64-2.63,1.23-5.31,1.75-8.04.26-1.37.5-2.75.73-4.15.12-.7.19-1.41.37-2.12.18-.71.44-1.41.78-2.09.68-1.37,1.7-2.61,2.94-3.65,1.2-1.07,2.4-2.17,3.59-3.29,2.37-2.24,4.71-4.58,7.03-7.06"/>
        <polygon class="cls-1" points="101.22 444.84 130.6 424.1 180.72 354.42 151.61 378.38 101.22 444.84"/>
        <polygon class="cls-1" points="177.72 450.41 149.66 424.47 103.03 354.13 130.72 377.97 177.72 450.41"/>
        <polygon class="cls-1" points="157.46 405.24 157.64 397.34 124.2 396.69 124.02 404.6 157.46 405.24"/>
        <polygon class="cls-1" points="157.36 397.36 158.06 389.48 124.74 386.82 124.03 394.69 157.36 397.36"/>
        <polygon class="cls-1" points="124.3 404.52 123.61 412.4 156.93 415.06 157.63 407.19 124.3 404.52"/>
      </g>
      <g>
        <path class="cls-1" d="M134.89,245.09c5.43-6.42,11.33-12,17.08-17.05,5.76-5.06,11.45-9.58,17.04-13.67.7-.51,1.4-1.01,2.09-1.52l1.04-.74c.34-.24.62-.41.93-.62,1.23-.79,2.45-1.57,3.66-2.34,2.44-1.53,4.89-3.01,7.34-4.46,4.9-2.89,9.83-5.65,14.79-8.45,9.91-5.59,19.94-11.3,30.14-18.44,5.1-3.57,10.24-7.5,15.43-11.95,2.59-2.22,5.2-4.58,7.82-7.08,1.31-1.25,2.62-2.54,3.94-3.87,1.31-1.33,2.62-2.69,4.01-4.17l6.73,6.48c-21.08,22.52-41.43,34.26-61.24,45.41-4.96,2.79-9.88,5.56-14.78,8.45-2.45,1.45-4.9,2.93-7.34,4.46-1.21.78-2.43,1.56-3.66,2.34l-.92.61-1,.7c-.67.47-1.33.95-2,1.42-5.35,3.84-10.81,8.1-16.31,12.89-5.5,4.79-11.12,10.08-16.37,16.14"/>
        <path class="cls-1" d="M169.59,263.88c9.85-10.52,17-20.66,23.3-31.13,6.37-10.55,11.44-20.96,16.37-31.23,4.94-10.27,9.77-20.43,15.7-30.51,2.96-5.04,6.2-10.06,9.87-15.07,1.83-2.5,3.77-5.01,5.84-7.51,1.03-1.25,2.1-2.5,3.2-3.75.55-.62,1.11-1.24,1.67-1.87.59-.64,1.19-1.29,1.78-1.93l6.79,6.41c-18.76,20.03-28.13,40.05-38.03,60.62-2.47,5.14-4.97,10.31-7.65,15.51-1.34,2.6-2.72,5.21-4.17,7.83-.73,1.3-1.48,2.61-2.22,3.94-.75,1.29-1.51,2.59-2.28,3.9-5.81,9.95-12.42,19.52-21.67,29.39"/>
        <path class="cls-1" d="M368.3,7.76c-3.03,2.32-5.95,4.68-8.76,7.11-2.88,2.53-5.64,5.12-8.3,7.75-1.32,1.29-2.65,2.68-3.96,4.09-1.3,1.4-2.58,2.8-3.83,4.22-1.25,1.43-2.47,2.82-3.69,4.31-1.22,1.49-2.41,2.99-3.58,4.5-9.39,12.02-17.41,25.23-24.92,38.58-6.5,11.57-12.81,22.78-19.92,33.69-7.13,10.93-15.04,21.54-25.2,32.39l6.38,6.84c9.57-10.22,16.97-20.29,23.64-30.72,6.65-10.42,12.53-21.17,18.62-32.3,7.03-12.85,14.5-25.86,23.34-37.92,8.79-12.08,19.01-23.22,30.53-32.81"/>
        <path class="cls-1" d="M369.82,50.03c-10.06,10.75-19.01,17.7-27.95,23.37-4.47,2.79-8.88,5.4-13.38,7.77-4.5,2.37-9.05,4.63-13.71,7.02-8.9,4.62-18.2,9.71-27.98,16.54-9.76,6.81-20.03,15.39-30.44,26.5l6.32,6.91c9.86-10.53,19.65-18.59,28.96-24.92,9.33-6.34,18.2-10.98,26.67-15.13,8.85-4.35,17.27-8.18,25.69-13.29,8.44-5.13,16.85-11.5,26.29-21.59"/>
        <path class="cls-1" d="M204.74,146.46l35.62,4.94,10.53-2.08c3.45-.63,7.17-1.55,10.69-2.25,7.08-1.46,13.85-2.57,20.31-3.35,12.91-1.56,24.55-1.77,34.93-.64-9.03-4.55-19.08-8.02-30.13-10.42-12.38.93-25.97,3.16-40.77,6.68-.96.25-1.79.38-2.65.52l-2.57.44-5.14.88-10.28,1.76-20.55,3.52Z"/>
        <path class="cls-1" d="M256.78,202.82l-2.76-38.11c3.87-26.87,12.52-58.84,25.89-95.86-2.64,16.33-4.33,31.63-5.07,45.92-4.72,16.51-8.15,31.63-10.46,45.56l-7.6,42.5Z"/>
        <path class="cls-1" d="M272.63,156.25l5.26-5.35c-7.27-8.54-14.51-17.12-21.71-25.73l-6.41,6.58c7.59,8.2,15.21,16.37,22.86,24.51Z"/>
        <path class="cls-1" d="M277.69,150.69l5.57-4.92c-6.43-9.38-12.73-18.9-18.9-28.56l-6.71,6.12c6.55,9.26,13.23,18.38,20.04,27.36Z"/>
        <path class="cls-1" d="M250.02,131.88l-6.77,6.21,22.51,24.72,5.72-5.09c-7.28-8.48-14.43-17.09-21.46-25.84Z"/>
      </g>
      <g>
        <path class="cls-1" d="M368.31,7.75c1.42-1.09,2.8-2.11,4.15-3.07,1.33-.98,2.95-1.72,4.72-2.09,3.54-.78,7.55-.18,10.61,1.58,1.56.86,2.78,2.03,3.91,3.24,1.15,1.18,2.31,2.43,3.44,3.67,2.27,2.48,4.47,5.01,6.6,7.58,8.62,10.46,16.28,21.81,23.56,33.91,7.29,12.02,14.14,24.54,21.57,36.93,7.46,12.41,15.61,24.32,26.14,36.34l-5.49,7.91c-9.92-11.33-17.55-22.64-24.54-34.5-6.95-11.85-13.27-24.17-20.07-36.18-6.79-12.06-13.99-23.64-22.18-34.39-2.03-2.66-4.12-5.28-6.29-7.86-1.08-1.29-2.19-2.58-3.29-3.82-1.08-1.27-2.25-2.5-3.75-3.39-2.94-1.83-6.81-2.44-10.22-1.6-1.72.4-3.27,1.2-4.55,2.24-1.29,1.03-2.62,2.11-3.98,3.26"/>
        <path class="cls-1" d="M369.83,50.02c1.24-1.32,2.44-2.65,3.64-4,1.21-1.34,2.72-2.38,4.34-3.05,3.25-1.32,6.88-1.06,9.44.41,1.29.73,2.26,1.73,3.35,2.58,1.06.87,2.11,1.7,3.16,2.5,2.09,1.6,4.16,3.07,6.22,4.46,1.03.69,2.06,1.36,3.08,2.01,1.03.65,2.06,1.26,3.07,1.98,2.03,1.37,4.06,2.66,6.11,3.87,4.08,2.42,8.23,4.62,12.48,6.8,8.5,4.39,17.49,8.94,26.92,15.83,9.41,6.86,19.4,15.68,29.65,27.38l-5.42,7.98c-9.71-11.09-19.23-19.37-28.19-25.72-4.49-3.17-8.87-5.87-13.12-8.26-4.26-2.38-8.35-4.62-12.39-6.61-8.08-4.04-15.77-7.63-23.53-12.61-1.94-1.25-3.89-2.58-5.86-4.04-.98-.73-1.97-1.49-2.97-2.29-1.02-.77-1.93-1.7-3.14-2.36-2.4-1.35-5.81-1.57-8.86-.31-1.52.63-2.94,1.62-4.07,2.88-1.13,1.27-2.26,2.53-3.42,3.76"/>
        <path class="cls-1" d="M598.24,227.34c-2.8-3.2-5.61-6.24-8.39-9.12-1.39-1.44-2.78-2.84-4.17-4.2-1.18-1.13-2.35-2.21-3.52-3.27-4.7-4.23-9.42-8-14.17-11.48-9.5-6.96-19.11-12.74-28.83-18.66-9.72-5.91-19.55-11.96-29.51-19.43-2.49-1.87-4.98-3.83-7.49-5.9-2.57-2.14-5.2-4.46-7.78-6.84-5.19-4.8-10.37-10.06-15.64-16.08l-5.82,7.53c4.97,5.67,9.86,10.61,14.79,15.11,2.46,2.25,4.93,4.37,7.42,6.43,2.5,2.07,5,4.03,7.49,5.9,9.95,7.48,19.78,13.52,29.5,19.44,9.72,5.91,19.32,11.7,28.82,18.66,4.75,3.48,9.47,7.25,14.17,11.48,1.18,1.06,2.34,2.14,3.52,3.27,1.32,1.29,2.65,2.62,3.98,3.99,2.66,2.73,5.33,5.62,7.99,8.66"/>
        <path class="cls-1" d="M566.8,249.92c-9.36-10.69-16.89-21.88-22.89-32.62-6.03-10.77-10.73-21.33-15.33-31.77-4.6-10.43-9.08-20.74-14.67-31.01-.7-1.28-1.41-2.57-2.15-3.85-.37-.64-.74-1.28-1.12-1.92-.37-.64-.75-1.27-1.22-2-1.79-2.83-3.69-5.69-5.72-8.57-4.05-5.76-8.6-11.6-13.72-17.45l-5.88,7.46c4.85,5.54,9.15,11.1,12.96,16.58,1.9,2.74,3.69,5.47,5.36,8.17,1.63,2.65,3.04,5.15,4.45,7.74,5.59,10.27,10.07,20.58,14.67,31.02,4.59,10.44,9.3,21,15.33,31.77,3.01,5.39,6.36,10.83,10.18,16.33.96,1.38,1.94,2.76,2.96,4.14.48.65.96,1.3,1.45,1.96.48.63.96,1.26,1.44,1.9,1.95,2.53,4.02,5.06,6.25,7.61"/>
        <path class="cls-1" d="M468.58,54.87c1.63,16.73,2.41,32.48,2.34,47.27,4.17,17.44,7.12,33.49,8.85,48.15.87,7.33,1.43,14.31,1.69,20.95l.04,1.24.13,1.33.26,2.67.51,5.34,1.02,10.68,3.06-18.6c.95-6.28,2.26-12.15,3.11-18.54-2.33-28.16-9.34-61.66-21.01-100.49Z"/>
        <path class="cls-1" d="M431.72,128.91c8.61-4.37,18.23-7.58,28.87-9.63,11.83,1.72,24.81,4.75,38.93,9.08,7.06,2.17,14.41,4.66,22.04,7.48.47.17.97.37,1.42.51l1.27.35,2.54.69,5.09,1.39,10.18,2.78c-12.25.02-24.09.51-37.11-.36-29.16-9.52-53.56-13.61-73.22-12.28Z"/>
        <path class="cls-1" d="M468.54,140.2l4.84,5.8c7.28-8.61,14.59-17.18,21.93-25.71l-5.94-7.06c-6.97,8.96-13.91,17.95-20.82,26.98Z"/>
        <path class="cls-1" d="M473.55,145.77l4.47,6.17c8.04-7.68,16.2-15.21,24.48-22.61l-5.55-7.42c-7.93,7.81-15.73,15.77-23.4,23.86Z"/>
        <path class="cls-1" d="M489.25,113.52l-5.63-7.49c-7.1,8.75-14.08,17.64-20.94,26.67l4.54,6.24c7.22-8.62,14.57-17.09,22.03-25.43Z"/>
      </g>
      <g>
        <path class="cls-1" d="M598.26,227.35c3.48,3.97,6.69,7.89,9.43,11.48,4.42,5.74,8.05,11.44,11.07,16.97.77,1.38,1.49,2.75,2.17,4.12.7,1.36,1.35,2.71,1.97,4.05.61,1.35,1.29,2.62,1.71,4.08.43,1.44.67,2.99.68,4.56.03,1.57-.26,3.13-.47,4.68-.22,1.55-.46,3.09-.73,4.63-.52,3.07-1.12,6.12-1.76,9.15-1.29,6.05-2.8,11.99-4.37,17.86-1.57,5.87-3.11,11.66-4.53,17.48-.71,2.91-1.4,5.82-2.05,8.76-.31,1.44-.62,2.9-.94,4.37-.3,1.4-.59,2.81-.87,4.23-2.24,11.41-3.69,23.87-3.69,38.15h-9.34c0-14.28,1.45-26.74,3.69-38.15,2.24-11.33,5.26-22.08,8.39-33.24,1.57-5.57,3.12-11.23,4.51-17.01.69-2.89,1.35-5.81,1.94-8.76.3-1.48.58-2.96.84-4.45.25-1.49.59-3,.59-4.5.02-1.5-.19-2.98-.61-4.35-.41-1.38-1.08-2.58-1.68-3.86-1.23-2.53-2.57-5.11-4.05-7.72-2.94-5.24-6.41-10.64-10.59-16.1-2.59-3.42-5.64-7.15-8.94-10.92"/>
        <path class="cls-1" d="M566.81,249.94c2.77,3.17,5.57,6.14,8.2,8.73,4.51,4.5,9.11,8.63,13.82,12.54,2.36,1.95,4.74,3.85,7.15,5.72,2.49,1.8,4.17,4.32,4.76,6.81,2.54,9.96,5.98,19.49,9.1,29.7,1.57,5.09,3.12,10.33,4.56,15.8.72,2.73,1.41,5.53,2.06,8.38l.24,1.07.24.98c.15.65.31,1.31.47,1.97.29,1.32.59,2.64.88,3.98,2.26,10.68,3.72,22.01,3.72,34.69h-9.34c0-12.68-1.47-24.01-3.72-34.69-.56-2.69-1.18-5.26-1.83-7.94-.65-2.7-1.34-5.34-2.06-7.93-1.44-5.17-2.99-10.11-4.56-14.9-3.15-9.6-6.41-18.58-9.09-27.86-.61-2.33-2.22-4.68-4.59-6.36-2.3-1.74-4.57-3.51-6.82-5.33-4.48-3.65-8.84-7.49-13.09-11.71-2.48-2.43-5.11-5.21-7.72-8.18"/>
        <path class="cls-1" d="M633.22,536.32c0-56.43-27.34-84.07-27.34-146h-9.34c0,61.93,27.33,89.57,27.33,146"/>
        <path class="cls-1" d="M594.68,536.32c0-60.03,27.32-89.69,27.32-144.38h-9.34c0,54.69-27.34,84.36-27.34,144.38"/>
        <polygon class="cls-1" points="649.28 347.21 619.9 367.95 569.78 437.63 598.89 413.67 649.28 347.21"/>
        <polygon class="cls-1" points="572.78 341.64 600.84 367.58 647.46 437.92 619.78 414.08 572.78 341.64"/>
        <polygon class="cls-1" points="593.04 386.81 592.86 394.71 626.29 395.36 626.47 387.46 593.04 386.81"/>
        <polygon class="cls-1" points="593.14 394.7 592.44 402.57 625.75 405.23 626.47 397.36 593.14 394.7"/>
        <polygon class="cls-1" points="626.19 387.53 626.89 379.65 593.56 376.99 592.86 384.87 626.19 387.53"/>
      </g>
      <g>
        <path class="cls-1" d="M633.22,536.34c0,56.43-27.34,84.07-27.34,146h-9.34c0-61.93,27.33-89.57,27.33-146"/>
        <path class="cls-1" d="M594.68,536.34c0,60.03,27.32,89.69,27.32,144.38h-9.34c0-54.69-27.34-84.36-27.34-144.38"/>
        <path class="cls-1" d="M633.22,836.74c0-56.43-27.34-84.07-27.34-146h-9.34c0,61.93,27.33,89.57,27.33,146"/>
        <path class="cls-1" d="M594.68,836.74c0-60.03,27.32-89.69,27.32-144.38h-9.34c0,54.69-27.34,84.36-27.34,144.38"/>
        <polygon class="cls-1" points="649.28 647.63 619.9 668.37 569.78 738.05 598.89 714.09 649.28 647.63"/>
        <polygon class="cls-1" points="572.78 642.06 600.84 668 647.46 738.34 619.78 714.5 572.78 642.06"/>
        <polygon class="cls-1" points="593.04 687.23 592.86 695.13 626.29 695.78 626.47 687.88 593.04 687.23"/>
        <polygon class="cls-1" points="593.14 695.11 592.44 702.99 625.75 705.65 626.47 697.78 593.14 695.11"/>
        <polygon class="cls-1" points="626.19 687.95 626.89 680.07 593.56 677.41 592.86 685.29 626.19 687.95"/>
      </g>
      <g>
        <path class="cls-1" d="M633.22,836.76c0,56.43-27.34,84.07-27.34,146h-9.34c0-61.93,27.33-89.57,27.33-146"/>
        <path class="cls-1" d="M594.68,836.76c0,60.03,27.32,89.69,27.32,144.38h-9.34c0-54.69-27.34-84.36-27.34-144.38"/>
        <path class="cls-1" d="M728.44,981.3c-28.21,0-49.23,6.83-70.94,13.67-10.85,3.42-21.88,6.83-34.06,9.4-3.05.64-6.16,1.23-9.37,1.75-.8.12-1.61.25-2.42.38-.53.07-.49.09-.67.16-.14.07-.27.06-.43.12-.58.12-1.24.05-1.89-.21-.66-.25-1.25-.76-1.71-1.39-.22-.32-.41-.68-.53-1.07-.07-.2-.13-.4-.15-.61l-.03-.16s-.01-.04-.02-.09v-.17s-.05-.68-.05-.68c-.2-3.62-.31-7.35-.31-11.22h-9.34c0,3.87.11,7.61.31,11.22.05.76.1,2.18.39,3.29.25,1.17.68,2.28,1.21,3.3,1.09,2.04,2.64,3.76,4.46,4.92,1.82,1.18,3.86,1.88,5.87,2.03.51.01,1,.07,1.49.02.48-.03,1.01-.06,1.38-.13.81-.13,1.62-.25,2.42-.38,3.21-.52,6.32-1.11,9.37-1.75,12.18-2.56,23.21-5.98,34.06-9.39,21.71-6.83,42.72-13.66,70.94-13.66"/>
        <path class="cls-1" d="M728.44,1019.83c-30.01,0-52.44-6.83-74.19-13.66-10.88-3.42-21.59-6.83-33-9.39-2.85-.64-5.75-1.23-8.7-1.75l-1.11-.19c-.34-.03.03-.07.12-.1.15-.03.29-.05.44-.06.3-.03.62-.07.93-.05.32,0,.65,0,.96.07,1.3.16,2.61.64,3.75,1.41,1.15.77,2.15,1.85,2.87,3.19.38.66.66,1.39.86,2.14.12.37.15.77.23,1.14.03.19.05.38.06.57,0,.18,0,0,.02-.09l.02-.3c.2-3.24.31-6.56.31-9.98h-9.34c0,3.42-.11,6.74-.31,9.98l-.02.3c0,.1-.01.24-.01.19,0-.02-.02-.03-.04-.05-.05-.03-.05-.07-.1-.1-.08-.06-.15-.12-.26-.14-.17-.06-.36-.01-.5.11-.14.12-.26.32-.28.55,0,.04,0,.11,0,.17.01.04.02.13.04.18l.04.09s-.05.08.21.11l1.11.19c2.95.52,5.85,1.11,8.7,1.75,11.41,2.56,22.12,5.98,33,9.4,21.76,6.83,44.18,13.67,74.19,13.67"/>
        <path class="cls-1" d="M649.28,948.05l-29.38,20.74-12.53,17.42-6.27,8.71-3.13,4.35-1.57,2.18-.78,1.09c-.26.38-.53.64-.76,1.29-1.98,4.51-1.82,10.87,1.48,16.51,1.63,2.81,4.02,5.45,7.07,7.52.76.51,1.57.98,2.4,1.44.84.43,1.71.82,2.61,1.2.9.34,1.82.65,2.77.93.44.26.75.52,1.13.78l17.42,12.53-11.98-14.56-5.99-7.28c-.33-.59-1.42-1.24-2.15-1.9-.77-.7-1.47-1.4-2.05-2.18-1.19-1.5-1.97-3.2-2.39-4.81-1.79-3.43-1.37-7.05.25-9.11.4-.52.86-.95,1.36-1.29l.38-.24c.13-.09.24-.08.38-.31l.79-1.04,3.15-4.15,12.6-16.61,25.19-33.23Z"/>
        <path class="cls-1" d="M572.78,942.48l28.06,25.94,11.66,17.59,5.83,8.79,2.91,4.4,1.46,2.2.73,1.1.36.55.09.14.05.07s.03-.04.05-.06l.19-.33c.92-1.75,1.45-4.02,1.38-6.41-.07-2.4-.71-4.93-2-7.33-1.29-2.4-3.27-4.69-5.86-6.51-.64-.47-1.33-.89-2.04-1.27-.7-.41-1.45-.75-2.22-1.06-.38-.17-.76-.32-1.15-.45l-.59-.19c-.16-.06-.53-.12-.31-.18l1.1-.73,17.59-11.66-11.92,13.84-5.96,6.92-.74.87-.09.11s-.08.07-.01.11l.24.21c.16.14.31.29.46.45.58.63,1.12,1.24,1.56,1.95.89,1.32,1.42,2.81,1.61,4.18,1.27,2.89.39,5.7-1.34,6.93-.44.31-.9.51-1.39.6l-.19.03s-.06-.01-.09-.07l-.09-.14-.37-.57-.73-1.13-2.94-4.53-11.75-18.11-23.5-36.22Z"/>
        <polygon class="cls-1" points="593.04 987.65 592.86 995.55 626.29 996.2 626.47 988.3 593.04 987.65"/>
        <path class="cls-1" d="M593.14,995.53l-.35,3.94-.17,1.97-.09.98-.04.49c-.01.18-.03.27-.03.61,11.15,1.4,22.39.04,32.81-4.06.28.86.51,1.75.63,2.63.04.22.07.44.08.66l.02.33v.14s.02-.12.02-.12l.09-.98.36-3.94-33.33-2.66Z"/>
        <polygon class="cls-1" points="626.19 988.37 626.89 980.49 593.56 977.83 592.86 985.71 626.19 988.37"/>
      </g>
    </g>
  </g>
</svg>