<?xml version="1.0" encoding="UTF-8"?>
<svg id="Layer_2" data-name="Layer 2" xmlns="http://www.w3.org/2000/svg" viewBox="0 0 1000.99 1040.96">
  <defs>
    <style>
      .cls-1 {
        fill: #bfbfbf;
        stroke: #000;
        stroke-linecap: round;
        stroke-width: 4.5px;
      }
    </style>
  </defs>
  <g id="Layer_2-2" data-name="Layer 2">
    <g>
      <g>
        <g>
          <g>
            <path class="cls-1" d="M994.5,146.6c-45.92,26.69-82.14,16.12-132.54,45.41l-4.69-8.07c50.39-29.29,86.62-18.73,132.53-45.42"/>
            <path class="cls-1" d="M975.13,113.28c-48.84,28.39-59.25,66.04-103.76,91.91l-4.69-8.07c44.51-25.87,54.91-63.53,103.75-91.92"/>
            <path class="cls-1" d="M750.05,288.67c45.92-26.69,54.67-63.4,105.06-92.68l-4.69-8.07c-50.39,29.29-59.15,65.98-105.07,92.67"/>
            <path class="cls-1" d="M730.69,255.35c48.84-28.39,86.71-18.79,131.22-44.66l-4.69-8.07c-44.51,25.87-82.38,16.26-131.22,44.64"/>
            <polygon class="cls-1" points="912.01 213.11 880.37 197.52 798.48 187.14 832.61 200.98 912.01 213.11"/>
            <polygon class="cls-1" points="878.1 144.34 871.1 180.87 837.28 254.44 842.77 219.23 878.1 144.34"/>
            <polygon class="cls-1" points="851.53 183.22 845.01 186.8 861.28 216.01 867.8 212.43 851.53 183.22"/>
            <polygon class="cls-1" points="845.16 187.03 838.4 190.15 852.97 220.22 859.74 217.11 845.16 187.03"/>
            <polygon class="cls-1" points="867.6 212.22 874.36 209.1 859.78 179.03 853.02 182.15 867.6 212.22"/>
          </g>
          <g>
            <path class="cls-1" d="M750.04,288.68c-5.72,3.32-11.29,6.07-16.75,8.39-1.37.58-2.73,1.13-4.08,1.66-1.31.5-2.82,1.1-3.83,1.39-2.23.7-4.47,1.32-6.73,1.9-9.05,2.31-18.53,3.89-28.75,5.89-10.2,1.99-21.14,4.4-32.72,8.16-11.56,3.74-23.81,8.86-35.98,15.88-.13.08-.3.17-.47.27l-10.4-4.75c.18-.1.35-.2.49-.29,12.91-7.45,25.8-12.94,37.94-17.02,12.17-4.1,23.63-6.82,34.36-9.11,21.91-4.86,38.25-6.51,62.22-20.44"/>
            <path class="cls-1" d="M730.67,255.36c-6.11,3.55-11.61,7.24-16.66,11.04-4.99,3.76-9.8,7.79-14.01,11.72-8.49,7.9-15.11,15.69-20.98,23.06-5.89,7.37-11.03,14.31-16.95,20.72-5.95,6.42-12.65,12.29-22.25,17.87l-10.33-4.8c10.26-5.96,17.55-12.17,24.04-18.92,6.48-6.73,12.13-13.97,18.54-21.65,6.39-7.67,13.55-15.78,22.62-24.01,4.46-4.07,9.76-8.39,14.62-12.08,5.05-3.8,10.55-7.49,16.66-11.04"/>
            <path class="cls-1" d="M592.13,408.93c-4.07-3.33-8.57-6.46-13.49-9.51-2.46-1.53-5.02-3.04-7.68-4.54-1.37-.71-2.35-1.93-2.67-3.08-.17-.57-.21-1.13-.12-1.58.08-.47.3-.78.51-1.08,3.26-4.86,5.02-9.83,7.52-15.24,2.48-5.39,5.7-11.22,11.51-17.56,5.78-6.33,14.2-13.19,26.4-20.28l-10.78-4.51c-12.84,7.57-21.66,14.85-28.41,21.42-6.4,6.68-10.16,12.82-13.16,18.51-3.02,5.71-5.3,10.98-9.12,16.16-.24.31-.5.65-.6,1.15-.12.48-.1,1.08.07,1.7.31,1.24,1.32,2.54,2.76,3.3,2.79,1.61,5.48,3.22,8.07,4.86,5.19,3.28,9.97,6.64,14.35,10.22"/>
            <path class="cls-1" d="M533.65,408.71c-5.28-4.58-9.77-8.88-13.68-12.86-.96-1-1.91-1.98-2.85-2.94-.46-.48-.91-.96-1.36-1.44-.45-.47-.91-.94-1.11-1.61-.45-1.31-.03-3,1.15-4.14.57-.6,1.35-.96,2.12-1.3.77-.35,1.54-.7,2.31-1.04,1.57-.68,3.12-1.36,4.65-2.03.78-.33,1.56-.66,2.34-.99l.59-.24.67-.23,1.34-.46c3.57-1.23,7.14-2.4,10.68-3.54,7.09-2.27,14.08-4.36,20.9-6.35,13.65-3.98,26.54-7.53,38.29-11.39,11.77-3.88,22.35-8.05,31.95-13.63l-10.89-4.47c-10.26,5.96-21.43,10.48-33.75,14.67-6.15,2.09-12.58,4.1-19.24,6.12-3.4,1.02-6.79,2.04-10.17,3.05l-2.59.77-1.3.39-1.2.41c-1.59.56-3.18,1.11-4.78,1.67-12.72,4.5-25.2,9.51-37.03,15.3-.74.36-1.48.73-2.22,1.1-.74.36-1.49.74-2.04,1.36-1.13,1.19-1.56,2.93-1.16,4.28.18.69.6,1.18,1.02,1.66.41.49.83.98,1.25,1.48.87,1,1.74,2.01,2.63,3.03,3.61,4.09,7.84,8.57,12.84,13.32"/>
            <path class="cls-1" d="M688.59,342.96c-13.04-3.75-27.13-6.88-42.27-9.41-6.53.08-13.27.29-20.24.63-7.33.36-14.92.86-22.73,1.51-7.75.67-15.7,1.51-23.6,2.56-7.92,1.05-15.95,2.29-23.78,3.72-7.86,1.43-15.81,3.08-23.39,4.86,4.45-.48,8.88-.89,13.41-1.26,4.54-.37,9.09-.68,13.63-.93,9.08-.5,18.22-.76,27.33-.78l3.49-.36,3.56-.31,7.05-.55c4.66-.34,9.23-.64,13.72-.88,8.97-.49,17.61-.78,25.9-.87,17.49-.19,33.47.5,47.92,2.07Z"/>
            <path class="cls-1" d="M622.41,292.94c.2,10.71,1.65,20.68,4.35,29.93-.57,3.84-.91,7.56-1.05,11.15-.55,14.78,2.56,27.43,9.32,37.96-8.41-5.79-15.68-12.23-21.82-19.34-1.27-7.46-1.33-15.61-.2-24.46,1.37-10.72,4.5-22.47,9.39-35.24Z"/>
            <path class="cls-1" d="M602.28,328.11c-2.29,1.29-4.62,2.56-6.87,3.86l38.91,15.95,5.59-3.04-37.62-16.77Z"/>
            <path class="cls-1" d="M595.75,332.09l-7.4,3.65,9.35,3.94,9.68,4c6.47,2.66,12.99,5.3,19.54,7.91l6.24-2.8c-6.33-2.75-12.62-5.51-18.87-8.3l-9.35-4.2-9.18-4.19Z"/>
            <path class="cls-1" d="M639.53,344.77l4.83-2.18,1.3-.58c-11.64-6.08-23.13-12.25-34.47-18.51l-4.12,1.95-3.35,1.6c11.74,5.98,23.72,11.9,35.8,17.72Z"/>
          </g>
          <g>
            <path class="cls-1" d="M592.14,408.94c8.13,6.65,12.61,12.52,15.87,18.5,3.24,5.96,5.24,12.01,7.9,18.6,2.65,6.58,5.96,13.7,11.48,21.53,5.5,7.81,13.25,16.35,24.17,25.29l-8.51,5.1c-11.59-9.48-19.91-18.5-25.94-26.73-6.05-8.26-9.84-15.77-12.96-22.73-3.13-6.97-5.59-13.4-9.33-19.77-3.76-6.39-8.77-12.69-17.51-19.84"/>
            <path class="cls-1" d="M533.67,408.72c5.28,4.58,10.79,8.92,16.44,12.93,5.69,4.04,11.53,7.78,17.51,11.25,3.01,1.73,5.96,3.41,9.09,5,3.11,1.59,6.2,3.13,9.28,4.6,6.15,2.96,12.2,5.7,18.09,8.31,11.79,5.23,22.91,9.92,33.11,14.94,10.22,5.05,19.48,10.42,28.07,17.45l-8.58,5.04c-9.18-7.51-18.97-13.31-29.68-18.76-10.68-5.44-22.3-10.49-34.51-16.12-12.17-5.62-24.66-11.87-36.47-19.26-5.94-3.7-11.61-7.64-17.17-11.9-2.73-2.11-5.41-4.29-8.05-6.55-2.64-2.26-5.24-4.61-7.72-6.97"/>
            <path class="cls-1" d="M779.88,562.5c-20.55-16.81-40.19-24.05-60.33-31.69-5.03-1.91-10.1-3.85-15.22-5.97-1.27-.54-2.56-1.08-3.85-1.62-1.25-.54-2.5-1.08-3.77-1.63-2.44-1.05-4.92-2.18-7.44-3.41-10.07-4.93-20.87-11.55-31.79-20.48l-8.15,5.4c11.59,9.48,22.96,16.57,33.56,21.93,5.32,2.7,10.38,4.91,15.53,7.05,5.12,2.12,10.18,4.06,15.22,5.97,20.14,7.65,39.77,14.88,60.33,31.69"/>
            <path class="cls-1" d="M755.49,592.33c-21.86-17.88-33.87-36.53-45.4-54.78-2.88-4.56-5.73-9.1-8.7-13.6-.74-1.11-1.48-2.22-2.23-3.34-.67-1.03-1.34-2.07-2.02-3.11-1.35-2.05-2.72-4.07-4.13-6.05-5.65-7.93-11.86-15.22-20.45-22.25l-8.08,5.46c9.18,7.51,15.92,15.23,22.06,23.56,6.02,8.24,11.91,17.47,17.62,26.56,11.52,18.25,23.53,36.91,45.39,54.79"/>
            <path class="cls-1" d="M673.64,454.86c-7.02,6.91-13.1,14.59-18.24,23.04-1.46,20.39,2.46,45.19,11.78,74.39-.61-13.04-.15-25.2,1.38-36.48-3.47-24.54-1.78-44.85,5.08-60.94Z"/>
            <path class="cls-1" d="M586.86,482.7c17.68,2.38,34.24,3.84,49.68,4.38,32.25,6.3,59.45,8.47,81.59,6.5-10.09,3.67-21.19,6.51-33.32,8.52-27.4-2.17-60.05-8.64-97.95-19.4Z"/>
            <path class="cls-1" d="M643.59,502.93l5.88,5.04c9.66-6.49,19.3-13.02,28.89-19.57l-4.66-4.04c-10,6.22-20.04,12.4-30.11,18.57Z"/>
            <path class="cls-1" d="M649.69,507.79l5.44,5.35c9.74-6.38,19.35-12.87,28.81-19.47l-4.22-4.37c-9.87,6.28-19.88,12.44-30.03,18.49Z"/>
            <path class="cls-1" d="M673.5,484.56l-4.17-4.31c-10.78,5.53-21.7,10.95-32.75,16.26l5.37,5.29c10.65-5.64,21.17-11.39,31.55-17.25Z"/>
          </g>
          <g>
            <path class="cls-1" d="M779.9,562.51c41.11,33.62,43.93,71.25,89.05,108.16l-5.91,7.23c-45.12-36.9-47.95-74.52-89.06-108.15"/>
            <path class="cls-1" d="M755.5,592.34c43.73,35.77,82.64,32.29,122.48,64.88l-5.91,7.23c-39.85-32.59-78.76-29.1-122.49-64.87"/>
            <path class="cls-1" d="M998.74,741.52c-41.11-33.62-78.55-28.94-123.67-65.84l-5.91,7.23c45.11,36.9,82.55,32.22,123.66,65.85"/>
            <path class="cls-1" d="M974.34,771.35c-43.73-35.77-48.04-74.59-87.88-107.19l-5.91,7.23c39.85,32.59,44.14,71.43,87.87,107.2"/>
            <polygon class="cls-1" points="871.14 616.4 867.65 651.5 886.68 731.82 887.65 695 871.14 616.4"/>
            <polygon class="cls-1" points="818.65 672.29 855.31 666.03 936.07 671.86 901.18 679.08 818.65 672.29"/>
            <polygon class="cls-1" points="864.38 683.53 870.02 688.38 891.66 662.88 886.02 658.03 864.38 683.53"/>
            <polygon class="cls-1" points="870.19 688.15 875.48 693.38 898.52 669.18 893.23 663.94 870.19 688.15"/>
            <polygon class="cls-1" points="885.9 658.29 880.6 653.06 857.56 677.27 862.85 682.5 885.9 658.29"/>
          </g>
        </g>
        <g>
          <path class="cls-1" d="M925.67,22.42c-18.8,40.49-52.8,48.81-73.43,93.24l-8.47-3.93c20.63-44.44,54.62-52.76,73.42-93.25"/>
          <path class="cls-1" d="M890.72,6.19c-20,43.07-5.09,75.86-23.32,115.1l-8.47-3.93c18.22-39.24,3.31-72.04,23.3-115.11"/>
          <path class="cls-1" d="M825.59,237.96c18.8-40.49,3.21-71.83,23.84-116.27l-8.47-3.93c-20.63,44.43-5.05,75.78-23.85,116.26"/>
          <path class="cls-1" d="M790.64,221.73c20-43.07,54.66-52.85,72.88-92.09l-8.47-3.93c-18.22,39.24-52.9,49.01-72.9,92.08"/>
          <polygon class="cls-1" points="903.16 109.03 869.6 111.54 800.93 140.43 835.32 135.49 903.16 109.03"/>
          <polygon class="cls-1" points="835.63 72.82 852.44 103.25 871.29 173.35 854.13 144.59 835.63 72.82"/>
          <polygon class="cls-1" points="838.96 113.76 836.16 119.35 866.27 133.9 869.07 128.3 838.96 113.76"/>
          <polygon class="cls-1" points="836.42 119.46 833.16 124.82 862.49 140.76 865.76 135.4 836.42 119.46"/>
          <polygon class="cls-1" points="868.79 128.24 872.04 122.88 842.71 106.93 839.45 112.29 868.79 128.24"/>
        </g>
        <g>
          <path class="cls-1" d="M777.12,566.28c12.71,35.6-6.81,62.23,7.14,101.29l-8.79,3.14c-13.95-39.07,5.56-65.69-7.15-101.29"/>
          <path class="cls-1" d="M740.83,579.24c13.52,37.87,45.93,47.39,58.25,81.9l-8.79,3.14c-12.32-34.5-44.75-44.02-58.27-81.89"/>
          <path class="cls-1" d="M844.78,755.79c-12.71-35.6-44.68-43.84-58.63-82.91l-8.79,3.14c13.95,39.07,45.91,47.32,58.62,82.91"/>
          <path class="cls-1" d="M808.49,768.75c-13.52-37.87,5.53-65.77-6.79-100.27l-8.79,3.14c12.32,34.5-6.75,62.41,6.77,100.28"/>
          <polygon class="cls-1" points="817.31 631.09 794.31 654.05 762.8 714.87 784.82 689.96 817.31 631.09"/>
          <polygon class="cls-1" points="744.01 653.3 776.28 660.23 836.03 688.93 804.59 683.2 744.01 653.3"/>
          <polygon class="cls-1" points="773.26 674.98 774.87 680.03 806.51 669.19 804.9 664.15 773.26 674.98"/>
          <polygon class="cls-1" points="775.13 679.92 776.25 685.13 808.22 675.61 807.12 670.4 775.13 679.92"/>
          <polygon class="cls-1" points="804.65 664.29 803.53 659.09 771.55 668.61 772.66 673.81 804.65 664.29"/>
        </g>
      </g>
      <g>
        <g>
          <g>
            <path class="cls-1" d="M31.27,282.82c57.27,43.63,68.76,86.76,131.62,134.65l-5.66,7.43c-62.86-47.89-74.36-91-131.63-134.64"/>
            <path class="cls-1" d="M7.92,313.47c60.93,46.42,107.6,47.62,163.11,89.92l-5.66,7.43c-55.52-42.3-102.19-43.49-163.12-89.91"/>
            <path class="cls-1" d="M336.19,515.12c-57.27-43.64-101.9-43.27-164.76-91.15l-5.66,7.43c62.86,47.89,107.48,47.53,164.75,91.16"/>
            <path class="cls-1" d="M312.84,545.78c-60.93-46.42-74.48-91.09-129.99-133.39l-5.66,7.43c55.52,42.3,69.06,86.98,129.99,133.4"/>
            <polygon class="cls-1" points="153.96 356.11 157.21 395.52 197.57 489.27 190.88 447.58 153.96 356.11"/>
            <polygon class="cls-1" points="101.95 412.65 145.28 410.39 244.94 427.7 203.96 431.29 101.95 412.65"/>
            <polygon class="cls-1" points="160.08 431.47 167.99 437.72 188.91 411.62 181 405.37 160.08 431.47"/>
            <polygon class="cls-1" points="168.14 437.49 175.71 444.13 198.6 419.69 191.04 413.03 168.14 437.49"/>
            <polygon class="cls-1" points="180.9 405.65 173.32 399.01 150.43 423.45 158 430.1 180.9 405.65"/>
          </g>
          <g>
            <path class="cls-1" d="M330.64,821.63c-56.41,39.82-99.81,36.99-161.72,80.7l-5.39-7.63c61.91-43.7,105.3-40.89,161.71-80.71"/>
            <path class="cls-1" d="M308.42,790.15c-60.01,42.36-73.9,85.62-128.58,124.22l-5.39-7.63c54.68-38.6,68.56-81.87,128.57-124.23"/>
            <path class="cls-1" d="M30.34,1033.62c56.41-39.82,68.28-81.66,130.18-125.37l-5.39-7.63c-61.91,43.7-73.78,85.53-130.19,125.36"/>
            <path class="cls-1" d="M8.11,1002.14c60.01-42.36,105.42-40.97,160.1-79.57l-5.39-7.63c-54.68,38.6-100.1,37.2-160.1,79.56"/>
            <polygon class="cls-1" points="228.65 913.28 190.97 903.92 92.41 912.15 133.15 919.02 228.65 913.28"/>
            <polygon class="cls-1" points="190.1 846.85 180.35 888.09 136.92 975.82 144.79 936.37 190.1 846.85"/>
            <polygon class="cls-1" points="156.63 895.28 148.62 900.71 167.26 928.48 175.27 923.06 156.63 895.28"/>
            <polygon class="cls-1" points="148.8 900.93 140.53 905.92 157.08 935.01 165.36 930.04 148.8 900.93"/>
            <polygon class="cls-1" points="175.03 922.88 183.31 917.88 166.75 888.78 158.47 893.77 175.03 922.88"/>
          </g>
          <g>
            <path class="cls-1" d="M302.9,782.34c1.27-.9,2.54-1.79,3.81-2.68,1.28-.88,2.55-1.75,3.83-2.62,1.28-.85,2.56-1.7,3.84-2.55,1.29-.83,2.57-1.66,3.85-2.49,1.29-.81,2.58-1.62,3.86-2.42,1.29-.79,2.58-1.57,3.86-2.36,1.29-.77,2.58-1.53,3.87-2.3,1.29-.75,2.58-1.49,3.87-2.23,1.29-.73,2.58-1.45,3.87-2.17,1.29-.71,2.58-1.41,3.86-2.11,1.29-.69,2.58-1.37,3.86-2.05,1.29-.67,2.57-1.33,3.85-1.99,1.28-.65,2.56-1.29,3.84-1.94,1.28-.63,2.55-1.25,3.82-1.88,1.27-.61,2.54-1.22,3.81-1.82,1.27-.59,2.53-1.18,3.79-1.77,1.26-.57,2.52-1.14,3.77-1.71,1.25-.56,2.5-1.11,3.75-1.66,1.25-.54,2.49-1.07,3.72-1.6,1.24-.52,2.47-1.04,3.69-1.55,1.23-.5,2.45-1,3.66-1.5,1.22-.49,2.43-.97,3.63-1.45,1.21-.47,2.4-.94,3.59-1.4,1.19-.45,2.38-.9,3.56-1.35,1.18-.44,2.35-.87,3.52-1.3,1.17-.42,2.32-.84,3.47-1.25,1.15-.4,2.29-.81,3.43-1.21,1.14-.39,2.26-.78,3.38-1.16,2.24-.74,4.45-1.47,6.61-2.18,2.17-.68,4.3-1.35,6.39-2.01,2.09-.62,4.15-1.24,6.16-1.84,2.01-.57,3.98-1.13,5.9-1.67,1.92-.52,3.8-1.02,5.62-1.52,1.83-.47,3.6-.92,5.33-1.36,1.72-.42,3.4-.83,5.01-1.22,1.62-.37,3.18-.73,4.68-1.08,1.5-.33,2.94-.65,4.32-.95,1.38-.29,2.7-.56,3.95-.82,1.25-.25,2.44-.48,3.56-.7,1.12-.21,2.17-.4,3.15-.59.98-.17,1.88-.33,2.72-.48.83-.14,1.59-.27,2.27-.38,1.35-.21,2.4-.37,3.1-.48.7-.1,1.07-.15,1.07-.15-1.05.23-2.1.45-3.16.68-1.06.25-2.13.5-3.2.75-1.07.27-2.15.54-3.23.81-1.08.29-2.17.58-3.26.87-1.09.31-2.19.61-3.29.92-1.1.32-2.21.65-3.32.98-1.11.34-2.22.68-3.34,1.03-1.12.36-2.24.72-3.36,1.08-1.12.37-2.25.75-3.38,1.13-1.13.39-2.26.78-3.4,1.17-1.13.4-2.27.81-3.41,1.21-1.14.42-2.28.84-3.42,1.26-1.14.43-2.28.86-3.43,1.29-1.14.44-2.29.89-3.43,1.33l-3.44,1.36-3.44,1.4-6.87,2.88c-2.28.99-4.56,1.99-6.84,2.98-2.27,1.02-4.53,2.04-6.79,3.06-2.25,1.05-4.49,2.09-6.72,3.12-2.22,1.06-4.43,2.12-6.63,3.17-2.19,1.07-4.36,2.14-6.52,3.2-2.15,1.08-4.28,2.15-6.39,3.21-2.1,1.08-4.18,2.15-6.24,3.2-2.05,1.07-4.07,2.13-6.07,3.18-1.99,1.06-3.95,2.1-5.88,3.13-1.92,1.04-3.81,2.07-5.66,3.07-1.85,1.02-3.66,2.02-5.43,2.99-3.53,1.98-6.9,3.88-10.08,5.67-3.17,1.83-6.15,3.54-8.91,5.14-2.75,1.62-5.28,3.11-7.57,4.46-2.28,1.36-4.31,2.58-6.07,3.63-3.5,2.12-5.91,3.57-6.97,4.22"/>
            <path class="cls-1" d="M307.18,553.22c.55.4,1.11.82,1.69,1.24.59.42,1.2.85,1.83,1.29.63.43,1.28.88,1.95,1.34.67.45,1.36.91,2.06,1.38.71.46,1.43.94,2.17,1.42.74.48,1.5.96,2.28,1.46,1.56.97,3.18,1.98,4.86,3.02,1.69,1.01,3.43,2.06,5.22,3.14,1.8,1.06,3.66,2.14,5.55,3.25,1.91,1.09,3.85,2.2,5.84,3.34,1.99,1.12,4.03,2.26,6.09,3.41,2.07,1.14,4.17,2.3,6.3,3.47,2.13,1.16,4.29,2.33,6.47,3.51,4.37,2.33,8.82,4.7,13.3,7.08,4.49,2.34,9.02,4.7,13.52,7.04,4.51,2.31,9,4.61,13.42,6.87,4.43,2.23,8.78,4.43,13.01,6.56,4.24,2.11,8.35,4.16,12.29,6.12,7.89,3.87,15.09,7.4,21.17,10.39,12.19,5.87,19.93,9.6,19.93,9.6l.04-10.24c-1.91-.84-3.85-1.69-5.81-2.56-1.95-.88-3.93-1.78-5.92-2.68-1.99-.92-3.99-1.86-6.01-2.79-2.02-.96-4.05-1.92-6.09-2.9-2.04-.99-4.09-1.98-6.15-2.98-2.06-1.02-4.12-2.04-6.19-3.06-2.07-1.04-4.14-2.08-6.22-3.12-2.07-1.06-4.15-2.11-6.22-3.17-4.14-2.15-8.28-4.31-12.39-6.45-4.1-2.18-8.17-4.36-12.2-6.5-4.01-2.18-7.98-4.34-11.87-6.45-3.88-2.15-7.68-4.25-11.39-6.31-3.7-2.08-7.3-4.1-10.77-6.06-3.47-1.98-6.81-3.89-10.01-5.71-3.19-1.84-6.24-3.6-9.11-5.27-2.87-1.68-5.56-3.25-8.06-4.72-2.49-1.48-4.79-2.84-6.87-4.07-2.07-1.24-3.93-2.36-5.54-3.32-1.61-.98-2.97-1.81-4.06-2.48-1.09-.68-1.91-1.19-2.44-1.52"/>
            <path class="cls-1" d="M330.63,821.62c1.48-1.01,2.97-2.02,4.46-3.03,1.5-1,3-2,4.51-3.01l4.54-2.98,4.56-2.96c3.05-1.95,6.11-3.9,9.15-5.83,3.05-1.92,6.1-3.82,9.12-5.72,6.06-3.76,12.04-7.46,17.84-11.06,2.9-1.8,5.76-3.58,8.57-5.32,2.8-1.76,5.55-3.49,8.24-5.17,2.67-1.71,5.28-3.39,7.82-5.02,1.26-.83,2.51-1.64,3.73-2.45,1.22-.81,2.42-1.62,3.6-2.4,1.17-.8,2.33-1.59,3.46-2.36,1.12-.79,2.23-1.56,3.31-2.32,1.07-.77,2.12-1.53,3.15-2.27,1.01-.76,2.01-1.5,2.98-2.22.96-.74,1.89-1.47,2.8-2.17.45-.36.89-.72,1.33-1.07.43-.36.86-.71,1.28-1.06.42-.35.83-.7,1.23-1.04.4-.35.79-.69,1.18-1.03.38-.34.76-.68,1.13-1.02.36-.34.72-.68,1.07-1.01.34-.34.68-.67,1.02-.99.33-.33.65-.66.96-.98.31-.33.61-.65.91-.97.29-.32.57-.64.85-.95.27-.32.53-.63.79-.94.25-.31.49-.62.73-.93.23-.31.45-.61.67-.91l.31-.45.29-.45-.13-7.26c-.76.58-1.59,1.21-2.48,1.89-.9.66-1.86,1.37-2.87,2.11-1.02.73-2.1,1.51-3.24,2.32-1.14.8-2.33,1.64-3.57,2.51-2.49,1.72-5.18,3.56-8.01,5.51-2.85,1.92-5.85,3.94-8.96,6.04-3.13,2.08-6.36,4.22-9.67,6.42-3.32,2.18-6.71,4.4-10.13,6.65-6.87,4.45-13.85,8.98-20.64,13.39-6.81,4.37-13.42,8.6-19.51,12.5-6.1,3.88-11.67,7.42-16.39,10.42-9.45,5.97-15.49,9.78-15.49,9.78"/>
            <path class="cls-1" d="M336.2,515.13s2.6,1.72,7.21,4.77c2.29,1.55,5.09,3.43,8.31,5.6,3.2,2.2,6.83,4.68,10.81,7.41,3.96,2.77,8.26,5.77,12.84,8.98,2.28,1.62,4.63,3.29,7.04,5,2.4,1.73,4.86,3.49,7.37,5.3,2.5,1.82,5.05,3.68,7.64,5.56,2.58,1.91,5.2,3.84,7.86,5.8,2.64,1.98,5.31,3.98,8.01,6.01,2.68,2.04,5.39,4.11,8.11,6.18,2.7,2.1,5.42,4.21,8.14,6.33,2.7,2.14,5.41,4.29,8.12,6.44,2.68,2.18,5.37,4.35,8.04,6.52,1.33,1.1,2.65,2.19,3.97,3.28,1.31,1.1,2.62,2.2,3.93,3.29,1.3,1.1,2.59,2.2,3.88,3.3,1.28,1.1,2.55,2.2,3.82,3.3,1.26,1.1,2.51,2.2,3.76,3.29,1.24,1.1,2.46,2.2,3.68,3.29,1.21,1.1,2.41,2.19,3.61,3.28,1.18,1.1,2.35,2.18,3.52,3.26,1.15,1.09,2.29,2.17,3.42,3.25,1.12,1.08,2.23,2.16,3.32,3.22,1.08,1.08,2.15,2.14,3.21,3.2,1.04,1.07,2.08,2.12,3.1,3.17,1,1.06,2,2.1,2.98,3.14.96,1.05,1.91,2.08,2.84,3.1.91,1.03,1.82,2.05,2.71,3.06.44.51.87,1.01,1.3,1.51.42.5.84,1,1.26,1.5.41.5.82,1,1.22,1.49.4.5.79.99,1.18,1.48.38.49.77.98,1.14,1.46.37.49.74.97,1.1,1.45.36.48.71.96,1.06,1.43.34.48.68.95,1.02,1.42.33.47.65.94.97,1.4.31.47.62.93.93,1.39.3.46.59.92.88,1.37.28.46.56.91.84,1.36.27.45.53.9.79,1.34.25.45.5.89.74,1.32.23.44.46.87.69,1.3.22.43.43.86.64,1.28.2.43.4.85.59,1.27.18.42.36.83.54,1.25.16.41.33.82.49,1.23.15.41.29.81.43,1.21l.2.6.05.15v.04s0,.02,0,.04l-.02.07-.1.29-.2.58-.21.57-17.35,16.3.73-1.07.7-1.08.66-1.08.63-1.09.59-1.1.56-1.11.52-1.12.49-1.12.46-1.13.43-1.14.39-1.15.36-1.15.33-1.16.3-1.17.27-1.17.24-1.18s0-.02-.01-.04l-.02-.04-.03-.07-.07-.15-.13-.3-.28-.6c-.19-.4-.38-.8-.58-1.21-.2-.4-.4-.81-.61-1.21-.21-.4-.43-.81-.64-1.22-.22-.41-.45-.81-.67-1.23-.23-.41-.47-.82-.7-1.23-.24-.41-.49-.82-.74-1.24-.25-.41-.51-.83-.77-1.24-.26-.41-.53-.83-.8-1.25-.27-.42-.55-.83-.83-1.25-.28-.42-.57-.84-.86-1.26-.29-.42-.59-.84-.89-1.27-.3-.42-.61-.84-.92-1.27-.31-.42-.63-.85-.94-1.27-.32-.42-.65-.85-.97-1.28-.33-.43-.67-.85-1-1.29-.69-.85-1.38-1.71-2.08-2.58-.72-.86-1.45-1.73-2.19-2.6-.76-.86-1.52-1.74-2.29-2.62-.79-.87-1.59-1.75-2.39-2.64-.82-.88-1.65-1.76-2.49-2.65-.85-.88-1.71-1.77-2.58-2.67-.88-.89-1.77-1.78-2.67-2.68-.91-.89-1.83-1.79-2.75-2.69-.94-.89-1.88-1.8-2.84-2.7-.96-.9-1.94-1.8-2.92-2.72-.99-.9-1.99-1.81-2.99-2.73-1.01-.91-2.04-1.82-3.06-2.73-1.04-.91-2.08-1.82-3.13-2.74-1.06-.91-2.13-1.83-3.2-2.75-1.08-.91-2.17-1.83-3.26-2.76-1.1-.92-2.21-1.84-3.32-2.76-1.12-.92-2.25-1.84-3.38-2.77-1.14-.92-2.28-1.84-3.43-2.77-2.32-1.83-4.65-3.69-7.01-5.55-2.38-1.84-4.77-3.69-7.18-5.56-2.43-1.84-4.87-3.69-7.33-5.55-2.47-1.84-4.96-3.69-7.45-5.54-2.51-1.84-5.02-3.68-7.55-5.53-2.53-1.83-5.07-3.67-7.61-5.5l-7.65-5.47c-5.12-3.62-10.24-7.23-15.33-10.82-5.1-3.57-10.17-7.11-15.18-10.61-5.01-3.5-9.96-6.95-14.82-10.34-4.85-3.41-9.6-6.75-14.24-10.01"/>
            <polygon class="cls-1" points="526.81 746.27 495.37 724.92 395.53 704.19 431.28 723.8 526.81 746.27"/>
            <polygon class="cls-1" points="523.71 656.39 521.43 668.57 520.87 671.61 520.85 671.71 520.84 671.75 520.84 671.78 520.83 671.79 520.82 671.8 520.67 671.99 520.36 672.37 519.73 673.12 518.49 674.62 513.51 680.64 493.58 704.72 398.28 795.1 433.24 745.95 483.34 701.26 508.39 678.91 514.65 673.32 516.21 671.93 516.41 671.75 516.46 671.71 516.48 671.67 516.52 671.58 516.69 671.22 517.02 670.52 518.36 667.69 523.71 656.39"/>
            <polygon class="cls-1" points="466.75 705.32 456.07 708.76 459.22 744.2 469.9 740.77 466.75 705.32"/>
            <polygon class="cls-1" points="456.15 709.05 445.45 711.93 445.88 748.18 456.57 745.3 456.15 709.05"/>
            <polygon class="cls-1" points="469.77 740.51 480.46 737.63 480.04 701.38 469.34 704.25 469.77 740.51"/>
            <path class="cls-1" d="M515.28,711l1.9-24.47.95-12.24.12-1.53.06-.76v-.19s.02-.05.02-.05h0s0-.01,0-.02v-.02s-.07-.1-.07-.1l-.21-.39-1.69-3.09-3.38-6.19-83.6-88.54,26.65,42.78,42.01,47.63,5.25,5.95,1.31,1.49.16.19.04.05v.05s.04.09.04.09l.1.37.2.74.78,2.94,3.13,11.77,6.25,23.55Z"/>
            <polygon class="cls-1" points="556.13 626.73 516.82 642.34 415.35 654 451.81 637.69 556.13 626.73"/>
            <polygon class="cls-1" points="492.68 624.17 482.21 619.84 475.49 654.25 485.95 658.58 492.68 624.17"/>
            <polygon class="cls-1" points="482.21 620.15 471.87 615.3 462.47 648.54 472.81 653.38 482.21 620.15"/>
            <polygon class="cls-1" points="485.89 658.25 496.23 663.09 505.62 629.85 495.29 625 485.89 658.25"/>
          </g>
        </g>
        <g>
          <path class="cls-1" d="M132.51,1022.69c11.89-33.51,43.47-40.78,56.52-77.55l8.8,3.12c-13.05,36.77-44.62,44.05-56.51,77.56"/>
          <path class="cls-1" d="M168.83,1035.58c12.65-35.64-6.86-62.39,4.66-94.87l8.8,3.12c-11.52,32.48,7.99,59.23-4.65,94.88"/>
          <path class="cls-1" d="M195.79,844.32c-11.89,33.51,8.05,59.06-4.99,95.83l8.8,3.12c13.05-36.77-6.88-62.32,5-95.83"/>
          <path class="cls-1" d="M232.11,857.2c-12.65,35.64-44.65,44.12-56.17,76.6l8.8,3.12c11.52-32.48,43.54-40.95,56.18-76.59"/>
          <polygon class="cls-1" points="140.82 951.24 172.88 948.75 234.79 924.13 202.31 928.63 140.82 951.24"/>
          <polygon class="cls-1" points="211.74 980.13 190.76 955.34 161.64 897.99 182.71 921.4 211.74 980.13"/>
          <polygon class="cls-1" points="202.17 946.53 204 941.9 172.62 930.34 170.79 934.97 202.17 946.53"/>
          <polygon class="cls-1" points="203.73 941.82 206.05 937.37 175.21 924.65 172.88 929.09 203.73 941.82"/>
          <polygon class="cls-1" points="171.07 935.02 168.76 939.47 199.6 952.19 201.92 947.75 171.07 935.02"/>
        </g>
        <g>
          <path class="cls-1" d="M193.3,272.83c16.18,38.41-1.1,67.83,16.66,109.98l-8.61,3.62c-17.75-42.15-.49-71.57-16.67-109.98"/>
          <path class="cls-1" d="M157.78,287.79c17.21,40.86,50.89,50.44,66.57,87.67l-8.61,3.62c-15.68-37.23-49.38-46.81-66.58-87.66"/>
          <path class="cls-1" d="M279.41,477.3c-16.18-38.41-49.3-46.61-67.05-88.76l-8.61,3.62c17.75,42.15,50.86,50.36,67.04,88.77"/>
          <path class="cls-1" d="M243.89,492.26c-17.21-40.86-.53-71.65-16.21-108.88l-8.61,3.62c15.68,37.23-1.01,68.03,16.19,108.89"/>
          <polygon class="cls-1" points="240 342.35 218.87 367.87 192.65 434.75 212.61 407.14 240 342.35"/>
          <polygon class="cls-1" points="167.9 368.25 201.2 375.01 264.33 404.79 231.98 399.31 167.9 368.25"/>
          <polygon class="cls-1" points="199.52 391.13 201.62 396.58 232.62 384.04 230.52 378.59 199.52 391.13"/>
          <polygon class="cls-1" points="201.87 396.46 203.48 402.09 234.95 390.97 233.35 385.33 201.87 396.46"/>
          <polygon class="cls-1" points="230.28 378.75 228.66 373.12 197.19 384.24 198.8 389.87 230.28 378.75"/>
        </g>
      </g>
    </g>
  </g>
</svg>