<?xml version="1.0" encoding="UTF-8"?>
<svg id="Layer_2" data-name="Layer 2" xmlns="http://www.w3.org/2000/svg" viewBox="0 0 521.55 842.76">
  <defs>
    <style>
      .cls-1 {
        fill: #bfbfbf;
        stroke: #000;
        stroke-linecap: round;
        stroke-width: 4.5px;
      }
    </style>
  </defs>
  <g id="Layer_2-2" data-name="Layer 2">
    <g>
      <g>
        <g>
          <path class="cls-1" d="M26.16,2.25c46.31,20.38,57.99,55.38,108.82,77.75l-3.76,8.55C80.39,66.18,68.7,31.19,22.39,10.81"/>
          <path class="cls-1" d="M10.64,37.52c49.27,21.68,84.62,7.38,129.51,27.13l-3.76,8.55c-44.89-19.75-80.25-5.44-129.52-27.12"/>
          <path class="cls-1" d="M272.72,110.74c-46.31-20.38-80.01-5.34-130.84-27.7l-3.76,8.55c50.83,22.36,84.52,7.34,130.84,27.71"/>
          <path class="cls-1" d="M257.2,146.01c-49.27-21.68-62.61-57.4-107.5-77.15l-3.76,8.55c44.89,19.75,58.23,55.49,107.5,77.17"/>
          <polygon class="cls-1" points="123.97 27.74 129.16 62.12 166.16 133.17 158.22 97.86 123.97 27.74"/>
          <polygon class="cls-1" points="88.58 95.75 121.18 79.43 197.69 62.16 166.97 78.9 88.58 95.75"/>
          <polygon class="cls-1" points="133.82 93.52 140.23 96.54 154.23 66.17 147.82 63.15 133.82 93.52"/>
          <polygon class="cls-1" points="140.33 96.28 146.52 99.76 162.12 70.23 155.94 66.73 140.33 96.28"/>
          <polygon class="cls-1" points="147.76 63.43 141.58 59.95 125.97 89.49 132.15 92.98 147.76 63.43"/>
        </g>
        <g>
          <path class="cls-1" d="M272.74,110.75c46.31,20.38,57.99,55.38,108.82,77.75l-3.76,8.55c-50.83-22.37-62.51-57.36-108.83-77.74"/>
          <path class="cls-1" d="M257.22,146.02c49.27,21.68,84.62,7.38,129.51,27.13l-3.76,8.55c-44.89-19.75-80.25-5.44-129.52-27.12"/>
          <path class="cls-1" d="M519.3,219.24c-46.31-20.38-80.01-5.34-130.84-27.7l-3.76,8.55c50.83,22.36,84.52,7.34,130.84,27.71"/>
          <path class="cls-1" d="M503.78,254.51c-49.27-21.68-62.61-57.4-107.5-77.15l-3.76,8.55c44.89,19.75,58.23,55.49,107.5,77.17"/>
          <polygon class="cls-1" points="370.55 136.24 375.74 170.62 412.75 241.66 404.8 206.36 370.55 136.24"/>
          <polygon class="cls-1" points="335.17 204.25 367.76 187.93 444.27 170.66 413.56 187.39 335.17 204.25"/>
          <polygon class="cls-1" points="380.4 202.02 386.81 205.04 400.81 174.66 394.4 171.65 380.4 202.02"/>
          <polygon class="cls-1" points="386.91 204.77 393.1 208.26 408.7 178.73 402.52 175.23 386.91 204.77"/>
          <polygon class="cls-1" points="394.35 171.93 388.16 168.45 372.55 197.99 378.74 201.47 394.35 171.93"/>
        </g>
      </g>
      <g>
        <g>
          <path class="cls-1" d="M13.02,423.61c46.31,0,69,27.34,119.83,27.34v9.34c-50.83,0-73.52-27.33-119.83-27.33"/>
          <path class="cls-1" d="M13.02,462.15c49.27,0,73.61-27.32,118.51-27.32v9.34c-44.89,0-69.24,27.34-118.51,27.34"/>
          <path class="cls-1" d="M259.59,423.61c-46.31,0-69,27.34-119.83,27.34v9.34c50.83,0,73.52-27.33,119.83-27.33"/>
          <path class="cls-1" d="M259.59,462.15c-49.27,0-73.61-27.32-118.51-27.32v9.34c44.89,0,69.24,27.34,118.51,27.34"/>
          <polygon class="cls-1" points="104.37 407.55 121.39 436.93 178.58 487.05 158.91 457.94 104.37 407.55"/>
          <polygon class="cls-1" points="99.79 484.05 121.08 455.99 178.82 409.37 159.25 437.05 99.79 484.05"/>
          <polygon class="cls-1" points="136.87 463.79 143.36 463.97 143.89 430.54 137.4 430.36 136.87 463.79"/>
          <polygon class="cls-1" points="143.34 463.69 149.81 464.39 151.99 431.08 145.53 430.36 143.34 463.69"/>
          <polygon class="cls-1" points="137.46 430.64 130.99 429.94 128.81 463.27 135.27 463.97 137.46 430.64"/>
        </g>
        <g>
          <path class="cls-1" d="M259.61,423.61c46.31,0,69,27.34,119.83,27.34v9.34c-50.83,0-73.52-27.33-119.83-27.33"/>
          <path class="cls-1" d="M259.61,462.15c49.27,0,73.61-27.32,118.51-27.32v9.34c-44.89,0-69.24,27.34-118.51,27.34"/>
          <path class="cls-1" d="M506.17,423.61c-46.31,0-69,27.34-119.83,27.34v9.34c50.83,0,73.52-27.33,119.83-27.33"/>
          <path class="cls-1" d="M506.17,462.15c-49.27,0-73.61-27.32-118.51-27.32v9.34c44.89,0,69.24,27.34,118.51,27.34"/>
          <polygon class="cls-1" points="350.95 407.55 367.97 436.93 425.17 487.05 405.5 457.94 350.95 407.55"/>
          <polygon class="cls-1" points="346.38 484.05 367.67 455.99 425.4 409.37 405.84 437.05 346.38 484.05"/>
          <polygon class="cls-1" points="383.45 463.79 389.94 463.97 390.47 430.54 383.98 430.36 383.45 463.79"/>
          <polygon class="cls-1" points="389.92 463.69 396.39 464.39 398.57 431.08 392.11 430.36 389.92 463.69"/>
          <polygon class="cls-1" points="384.04 430.64 377.58 429.94 375.39 463.27 381.86 463.97 384.04 430.64"/>
        </g>
      </g>
      <g>
        <g>
          <path class="cls-1" d="M2.25,795.32c46.31-16.21,78.03,1.65,128.86-16.14l3.08,8.81c-50.83,17.79-82.54-.06-128.86,16.15"/>
          <path class="cls-1" d="M14.98,831.69c49.27-17.24,64.59-51.56,109.48-67.27l3.08,8.81c-44.89,15.71-60.21,50.04-109.48,67.28"/>
          <path class="cls-1" d="M248.82,709.02c-46.31,16.21-59.97,49.96-110.8,67.74l3.08,8.81c50.83-17.79,64.49-51.52,110.81-67.73"/>
          <path class="cls-1" d="M261.55,745.39c-49.27,17.24-82.64-.03-127.53,15.69l3.08,8.81c44.89-15.71,78.27,1.57,127.54-15.67"/>
          <polygon class="cls-1" points="88.29 748.19 115.02 769.96 188.77 797.25 159.48 776.66 88.29 748.19"/>
          <polygon class="cls-1" points="108.99 821.99 121.01 788.05 163.34 723.84 152.92 756.82 108.99 821.99"/>
          <polygon class="cls-1" points="139.37 789.9 145.92 787.8 135.4 756.05 128.86 758.15 139.37 789.9"/>
          <polygon class="cls-1" points="145.81 787.54 152.51 785.93 143.69 753.72 136.99 755.31 145.81 787.54"/>
          <polygon class="cls-1" points="129.01 758.39 122.31 760 131.14 792.22 137.83 790.62 129.01 758.39"/>
        </g>
        <g>
          <path class="cls-1" d="M248.83,709.01c46.31-16.21,78.03,1.65,128.86-16.14l3.08,8.81c-50.83,17.79-82.54-.06-128.86,16.15"/>
          <path class="cls-1" d="M261.56,745.38c49.27-17.24,64.59-51.56,109.48-67.27l3.08,8.81c-44.89,15.71-60.21,50.04-109.48,67.28"/>
          <path class="cls-1" d="M495.4,622.71c-46.31,16.21-59.97,49.96-110.8,67.75l3.08,8.81c50.83-17.79,64.49-51.52,110.81-67.73"/>
          <path class="cls-1" d="M508.13,659.09c-49.27,17.24-82.64-.03-127.53,15.69l3.08,8.81c44.89-15.71,78.27,1.57,127.54-15.67"/>
          <polygon class="cls-1" points="334.87 661.88 361.6 683.65 435.35 710.95 406.06 690.35 334.87 661.88"/>
          <polygon class="cls-1" points="355.57 735.69 367.59 701.75 409.93 637.54 399.5 670.52 355.57 735.69"/>
          <polygon class="cls-1" points="385.95 703.59 392.5 701.49 381.98 669.75 375.44 671.85 385.95 703.59"/>
          <polygon class="cls-1" points="392.39 701.23 399.09 699.63 390.27 667.42 383.57 669.01 392.39 701.23"/>
          <polygon class="cls-1" points="375.59 672.09 368.9 673.7 377.72 705.92 384.41 704.31 375.59 672.09"/>
        </g>
      </g>
    </g>
  </g>
</svg>