<?xml version="1.0" encoding="UTF-8"?>
<svg id="Layer_2" data-name="Layer 2" xmlns="http://www.w3.org/2000/svg" viewBox="0 0 736.41 695.78">
  <defs>
    <style>
      .cls-1 {
        fill: #bfbfbf;
        stroke: #000;
        stroke-linecap: round;
        stroke-width: 4.5px;
      }
    </style>
  </defs>
  <g id="Layer_2-2" data-name="Layer 2">
    <g>
      <g>
        <g>
          <path class="cls-1" d="M44.46,2.25c26.48,49.41,15.35,86.53,44.41,140.76l-8.23,4.41C51.58,93.19,62.69,56.08,36.22,6.67"/>
          <path class="cls-1" d="M10.49,20.45c28.17,52.57,66.17,65.64,91.83,113.53l-8.23,4.41C68.43,90.5,30.42,77.43,2.25,24.87"/>
          <path class="cls-1" d="M185.42,265.32c-26.48-49.41-63.55-60.71-92.6-114.94l-8.23,4.41c29.06,54.23,66.11,65.53,92.59,114.95"/>
          <path class="cls-1" d="M151.45,283.52c-28.17-52.57-18-91.45-43.66-139.34l-8.23,4.41c25.66,47.9,15.48,86.78,43.65,139.35"/>
          <polygon class="cls-1" points="110.83 92.12 94.67 124.16 83.18 208.85 97.6 174.12 110.83 92.12"/>
          <polygon class="cls-1" points="40.79 123.37 77.7 132.83 151.8 172.42 116.21 164.62 40.79 123.37"/>
          <polygon class="cls-1" points="79.84 153.36 83.39 160.37 113.17 145.14 109.62 138.14 79.84 153.36"/>
          <polygon class="cls-1" points="83.63 160.22 86.71 167.45 117.32 154.04 114.26 146.81 83.63 160.22"/>
          <polygon class="cls-1" points="109.41 138.33 106.32 131.11 75.7 144.51 78.78 151.74 109.41 138.33"/>
        </g>
        <g>
          <path class="cls-1" d="M185.42,265.33c26.48,49.41,15.35,86.53,44.41,140.76l-8.23,4.41c-29.06-54.23-17.94-91.34-44.42-140.76"/>
          <path class="cls-1" d="M151.46,283.53c28.17,52.57,66.17,65.64,91.83,113.53l-8.23,4.41c-25.66-47.9-63.68-60.96-91.84-113.53"/>
          <path class="cls-1" d="M313.14,503.69c-5.24-9.78-10.68-16.31-16.62-21.97-5.93-5.63-12.33-10.35-19.16-15.87-13.62-10.95-29.1-25.37-43.58-52.4l-8.23,4.41c1.82,3.4,3.65,6.58,5.55,9.72,1.91,3.15,3.85,6.13,5.78,8.96,3.88,5.66,7.78,10.68,11.65,15.18,7.73,9.01,15.29,15.88,22.41,21.94,7.13,6.08,13.83,11.35,20.08,17.59,6.26,6.26,12.04,13.43,17.67,23.94"/>
          <path class="cls-1" d="M294.82,551.09c-7.32-13.66-12.84-27.57-17.03-40.82-4.21-13.27-7.11-25.92-9.58-37.76-2.48-11.86-4.53-22.91-7.26-33.43-1.37-5.27-2.91-10.41-4.8-15.51-.94-2.55-1.97-5.1-3.11-7.65l-.43-.96-.48-1.03c-.36-.73-.72-1.47-1.08-2.21-.73-1.48-1.5-2.97-2.3-4.46l-8.23,4.41c.8,1.5,1.57,2.98,2.3,4.46.73,1.48,1.45,2.98,2.04,4.3,1.23,2.72,2.35,5.43,3.38,8.14,2.06,5.42,3.76,10.87,5.29,16.43,3.05,11.11,5.39,22.72,8.17,35.15,2.77,12.41,5.98,25.63,10.52,39.54,4.53,13.88,10.41,28.47,18.15,42.91"/>
          <path class="cls-1" d="M251.8,355.21l-16.16,32.04-2.87,21.17-1.44,10.59c-.47,3.55-.99,7-1.39,10.67-1.65,14.61-2.43,30.85-2.34,48.7,2.99-14.98,6.67-28.66,11.04-41.05.45-3.6.96-7.11,1.51-10.51.55-3.42,1.2-6.64,1.73-10.11l3.31-20.5,6.62-41Z"/>
          <path class="cls-1" d="M181.75,386.46l36.91,9.46,18.53,9.9,9.26,4.95,4.63,2.47,1.16.62c.39.21.77.42,1.13.56l2.16.95c11.47,4.95,22.12,8.37,31.95,10.28-9.71,1.41-20.08,1.6-31.11.57-11.41-4.7-24.43-12.43-36.91-19.13l-37.71-20.62Z"/>
          <polygon class="cls-1" points="220.81 416.45 224.35 423.45 254.13 408.22 250.58 401.22 220.81 416.45"/>
          <path class="cls-1" d="M224.59,423.3l3.14,7.34c10.14-4.58,20.2-9.33,30.17-14.24-.85-2.08-1.57-3.94-2.68-6.51l-30.63,13.41Z"/>
          <polygon class="cls-1" points="250.37 401.42 247.28 394.19 216.66 407.6 219.74 414.82 250.37 401.42"/>
        </g>
        <g>
          <path class="cls-1" d="M313.15,503.71c5.24,9.78,9.05,20.51,12.56,32.48,3.49,11.94,6.65,25.06,10.23,38.98,3.57,13.9,7.57,28.6,12.53,43.28,4.94,14.65,10.87,29.33,17.9,42.45l-.31,15.08c-3.69-6.61-7.11-13.23-10.3-19.97-1.59-3.37-3.12-6.75-4.59-10.17-.73-1.71-1.45-3.42-2.16-5.14-.35-.87-.7-1.73-1.05-2.59l-.52-1.3c-.17-.44-.33-.94-.5-1.41-5.3-15.31-9.6-30.58-13.48-45.05-3.88-14.48-7.34-28.16-11.15-40.69-3.82-12.56-7.98-23.94-13.61-34.45"/>
          <path class="cls-1" d="M294.83,551.11c3.65,6.84,7.28,12.65,10.82,17.62,3.55,4.92,6.99,9.05,10.3,12.57,1.66,1.74,3.26,3.45,4.86,4.88,1.6,1.43,3.17,2.73,4.71,3.91,3.08,2.36,6.05,4.28,8.91,6,5.73,3.46,11.02,6.11,16.19,10.33,5.18,4.24,10.21,10.02,15.75,20.35l-.42,18.98c-5.92-11.04-11.28-17.44-16.78-22.28-2.74-2.41-5.51-4.41-8.35-6.31-2.83-1.97-5.78-3.48-8.69-6.19-2.94-2.43-6-4.86-9.22-7.56-3.21-2.66-6.58-5.69-10.11-9.26-.88-.89-1.77-1.81-2.67-2.78-.9-1-1.8-2.03-2.72-3.11-1.83-2.17-3.7-4.46-5.58-7.04-1.87-2.63-3.77-5.46-5.69-8.53-1.91-3.09-3.82-6.47-5.76-10.07"/>
          <path class="cls-1" d="M426.01,515.25c-5.22,9.79-9.09,20.69-12.69,32.91-3.59,12.19-6.89,25.64-10.6,39.89-3.71,14.23-7.85,29.26-12.9,44.19-2.52,7.46-5.27,14.89-8.27,22.11-1.5,3.61-3.06,7.16-4.69,10.64-.41.86-.82,1.72-1.23,2.59-.21.43-.41.85-.62,1.28-.2.43-.41.86-.77,1.17-.7.62-1.78.72-2.54.23-.39-.23-.65-.62-.86-1.02-.22-.4-.44-.81-.66-1.21l-.11,15.14c.23.41.46.82.69,1.23.21.41.49.81.9,1.05.79.52,1.92.43,2.66-.16.38-.29.6-.72.81-1.13.22-.41.44-.83.66-1.24.44-.83.87-1.66,1.29-2.48,1.71-3.31,3.36-6.62,4.95-9.95,1.59-3.33,3.12-6.68,4.61-10.06.74-1.72,1.46-3.41,2.18-5.09.36-.86.71-1.71,1.06-2.56l.52-1.28c.17-.43.34-.96.51-1.43,5.39-15.56,9.83-31.16,13.84-45.96,4.02-14.81,7.61-28.82,11.52-41.6,3.92-12.81,8.14-24.35,13.75-34.88"/>
          <path class="cls-1" d="M442.5,566.17c-7.33,13.56-14.44,22.69-20.85,29.72-.8.88-1.6,1.73-2.38,2.55-.78.82-1.55,1.65-2.34,2.3-1.56,1.37-3.09,2.59-4.59,3.7-3,2.22-5.87,3.98-8.64,5.55-5.55,3.15-10.67,5.49-15.7,9.48-2.52,2-5.02,4.42-7.57,7.62-1.28,1.6-2.57,3.4-3.88,5.44-.66,1.02-1.32,2.1-1.99,3.26-.32.59-1.02.98-1.75.93-.73-.03-1.42-.51-1.73-1.18l-.1,19.59c.33.72,1.07,1.23,1.85,1.26.78.06,1.53-.37,1.87-1,.72-1.24,1.43-2.41,2.13-3.51,1.41-2.21,2.78-4.17,4.14-5.93,2.72-3.52,5.38-6.25,8.06-8.54,2.67-2.29,5.36-4.16,8.12-5.92,1.38-.88,2.77-1.73,4.18-2.6l1.06-.65.54-.33.52-.48,2.11-1.9c5.67-5.06,11.8-9.82,18.66-16.79,3.42-3.41,7.02-7.57,10.76-12.42,1.87-2.4,3.76-5.21,5.69-8.13.96-1.47,1.93-3.01,2.9-4.6.97-1.63,1.93-3.35,2.9-5.12"/>
          <path class="cls-1" d="M356.86,551.29c.83,22.29,2.27,45.71,4.32,70.26,2.05,12.67,4.31,25.74,6.8,39.21l1.9,10.18.98,5.15c.29,1.75.89,3.36,1.6,4.58.18.31.36.6.54.87l.14.2s.09.06.13.08c.09.04.18.1.26.14.35.16.67.24.93.25.26.01.43-.05.6-.1l.52-.15c.7-.19,1.4-.36,2.11-.51,2.84-.58,5.82-.78,8.92-.61,3.16.11,6.5.54,10.01,1.3-5.18-5.83-9.81-10.61-13.88-14.34l-1.03.1c-.08.06-.17-.09-.26-.2l-.26-.34-.52-.69c-.7-.93-1.38-1.88-2.05-2.85-1.34-1.95-2.63-4-3.86-6.14-.54-.98-2.3-2.86-3.23-5.96-.47-1.53-.66-3.25-.97-4.88l-.85-4.91c-1.12-6.53-2.18-12.96-3.19-19.29-4.05-25.33-7.26-49.11-9.64-71.34Z"/>
          <path class="cls-1" d="M344.16,671.17l2.14-1.83,2.04-1.81c1.34-1.17,2.64-2.27,3.91-3.31,1.27-1.03,2.5-2,3.7-2.89l1.77-1.29.86-.61.43-.29.21-.14s.07-.04.11-.08l.11-.25c3.07-2.5,5.94-5.37,8.6-8.63.67-.81,1.32-1.65,1.96-2.51l.95-1.31c.27-.42.77-.93,1.41-1.81.63-.86,1.32-2.05,1.79-3.5.24-.72.4-1.51.54-2.3l.43-2.36,1.69-9.37c4.41-24.8,8.01-48.07,10.79-69.83-1.35,22.16-3.35,45.54-6,70.14-1.11,6.25-2.27,12.59-3.49,19.04l-1.86,9.74-.96,4.93c-.35,1.62-.56,3.38-1.14,4.84-.56,1.47-1.36,2.6-2.04,3.38-.34.39-.64.69-.88.92-.24.24-.39.41-.57.61-.7.77-1.41,1.51-2.14,2.23l-1.1,1.06c-.05.07-.09.04-.14.02l-.14-.05-.27-.11-.55-.21c-.73-.27-1.47-.53-2.22-.75-1.5-.46-3.03-.82-4.59-1.09-1.58-.29-3.2-.5-4.86-.64-1.66-.13-3.36-.18-5.11-.15-1.75.02-3.51.17-5.41.25Z"/>
          <path class="cls-1" d="M368.34,683.79l1.91,3.39c.34.55.58,1.17,1.03,1.65.47.46,1.15.72,1.82.67l.14-9.05.11-17.63.16-35.28c-.51.17-1.11.09-1.59-.2-.24-.15-.44-.35-.61-.59-.15-.24-.27-.51-.4-.76l-1.55-3.08-.54,34.39-.28,17.17-.2,9.32Z"/>
          <path class="cls-1" d="M373.08,689.23c.67.02,1.3-.26,1.69-.71.35-.47.64-.98.97-1.46l1.9-2.93.17-9.38v-17.74s-.06-35.29-.06-35.29l-3.1,4.31c-.08,11.97-.19,23.99-.46,35.93l-.48,17.85-.04,1.11c-.01.36-.02.81-.04.91l-.08,1.07-.15,2.13-.32,4.21Z"/>
          <polygon class="cls-1" points="369.39 623.55 366.33 616.36 364.95 649.08 364.22 665.34 364.12 667.37 364.08 668.13 364.05 668.65 363.91 670.77 363.62 675.01 367.4 682.34 367.63 678.28 367.74 676.25 367.8 675.23 367.83 674.66 367.86 673.62 368.41 656.99 369.39 623.55"/>
        </g>
        <g>
          <path class="cls-1" d="M426.01,515.24c5.22-9.79,10.55-16.18,16.35-21.61,5.79-5.41,12.01-9.82,18.66-15.03,6.64-5.19,13.7-11.18,20.95-19.34,7.23-8.12,14.67-18.45,21.68-31.6l8.05,4.76c-7.43,13.95-15.24,24.97-22.81,33.73-7.58,8.79-14.95,15.35-21.89,21.11-6.95,5.78-13.47,10.75-19.57,16.75-6.12,6.03-11.8,13.06-17.4,23.58"/>
          <path class="cls-1" d="M442.51,566.15c3.66-6.76,6.87-13.74,9.71-20.65,2.84-6.92,5.3-13.8,7.45-20.56,4.3-13.52,7.35-26.5,9.96-38.67,2.62-12.18,4.81-23.56,7.65-34.33,2.85-10.79,6.32-20.94,11.83-31.28l8,4.84c-5.89,11.05-9.69,21.83-12.86,33.21-3.15,11.36-5.64,23.3-8.56,36.05-2.91,12.73-6.26,26.28-10.9,40.44-2.32,7.07-4.95,14.28-7.97,21.55-3.03,7.24-6.42,14.65-10.32,21.68"/>
          <path class="cls-1" d="M551.55,279.63c-26.36,49.47-15.15,86.57-44.08,140.87l8.24,4.39c28.93-54.3,17.73-91.39,44.09-140.86"/>
          <path class="cls-1" d="M585.56,297.76c-28.04,52.63-66.02,65.79-91.57,113.75l8.24,4.39c25.55-47.96,63.54-61.11,91.58-113.74"/>
          <path class="cls-1" d="M455.06,426.58c9.66,2.69,19.92,4.26,30.79,4.69,5.81-2.01,11.83-4.43,18.07-7.26,3.1-1.38,6.33-3,9.53-4.56l9.6-4.69,38.39-18.76-36.89,7.32-18.88,8.64-9.43,4.3c-3,1.17-5.96,2.25-8.86,3.23-11.6,3.92-22.38,6.28-32.32,7.09Z"/>
          <path class="cls-1" d="M510.03,486.09c-2.19-15.78-5.1-30.22-8.73-43.3-.45-7.42-1.1-14.46-1.95-21.12-.2-1.69-.47-3.26-.65-4.97l-.52-5.22-1.04-10.45-4.14-41.8,13.3,33.92,1.91,21.4c.62,7.17,1.36,14.1,1.77,21.67.86,15.05.88,31.67.05,49.88Z"/>
          <path class="cls-1" d="M517.11,429.72l3.9-6.93-29.21-16.29-3.73,6.63c9.7,5.49,19.38,11.03,29.04,16.6Z"/>
          <polygon class="cls-1" points="520.76 422.66 525.05 416.09 496.9 398.09 492.59 404.66 520.76 422.66"/>
          <path class="cls-1" d="M488.35,413.2l-3.68,5.43c9.15,6.45,18.21,13.06,27.19,19.84l4.45-6.87c-9.23-6.3-18.56-12.43-27.96-18.39Z"/>
        </g>
        <g>
          <path class="cls-1" d="M551.56,279.62c26.36-49.47,63.4-60.85,92.33-115.15l8.24,4.39c-28.93,54.3-65.96,65.69-92.32,115.16"/>
          <path class="cls-1" d="M585.57,297.74c28.04-52.63,17.78-91.49,43.34-139.44l8.24,4.39c-25.55,47.96-15.28,86.82-43.33,139.45"/>
          <path class="cls-1" d="M691.9,16.22c-26.36,49.47-15.15,86.57-44.08,140.87l8.24,4.39c28.93-54.3,17.73-91.39,44.09-140.86"/>
          <path class="cls-1" d="M725.91,34.34c-28.04,52.63-66.02,65.79-91.57,113.75l8.24,4.39c25.55-47.96,63.54-61.11,91.58-113.74"/>
          <polygon class="cls-1" points="589.38 174.49 624.99 170.12 701.78 132.59 664.89 139.91 589.38 174.49"/>
          <polygon class="cls-1" points="654.29 215.34 641.64 179.41 633.36 95.81 646.65 129.73 654.29 215.34"/>
          <polygon class="cls-1" points="657.51 166.21 661.36 159.37 632.15 143.08 628.3 149.92 657.51 166.21"/>
          <polygon class="cls-1" points="661.11 159.25 665.4 152.67 637.25 134.67 632.94 141.25 661.11 159.25"/>
          <polygon class="cls-1" points="628.59 149.99 624.29 156.57 652.46 174.58 656.76 168 628.59 149.99"/>
        </g>
      </g>
      <g>
        <g>
          <path class="cls-1" d="M269.99,14.71c12.11,61.19-8.78,96.47,4.51,163.62l-9.16,1.81c-13.29-67.15,7.58-102.43-4.53-163.62"/>
          <path class="cls-1" d="M232.19,22.2c12.88,65.09,46.05,91.95,57.79,151.26l-9.16,1.81c-11.74-59.31-44.92-86.16-57.8-151.26"/>
          <path class="cls-1" d="M334.46,340.46c-12.11-61.19-44.86-85.86-58.15-153.01l-9.16,1.81c13.29,67.15,46.03,91.82,58.14,153.01"/>
          <path class="cls-1" d="M296.66,347.94c-12.88-65.09,7.56-102.56-4.18-161.87l-9.16,1.81c11.74,59.31-8.71,96.78,4.17,161.87"/>
          <polygon class="cls-1" points="309.63 132.27 285.26 160.47 251.05 245.76 274.46 214.12 309.63 132.27"/>
          <polygon class="cls-1" points="233.39 141.09 266.49 163.76 327.32 230.99 295.04 210.51 233.39 141.09"/>
          <rect class="cls-1" x="263.46" y="183.17" width="33.45" height="8.74" transform="translate(-28.34 51.58) rotate(-10.01)"/>
          <polygon class="cls-1" points="264.75 194.66 265.75 203.34 299 199.76 298.01 191.08 264.75 194.66"/>
          <polygon class="cls-1" points="295.64 180.48 294.63 171.8 261.37 175.38 262.37 184.06 295.64 180.48"/>
        </g>
        <g>
          <path class="cls-1" d="M334.47,340.48c12.11,61.19-8.78,96.47,4.51,163.62l-9.16,1.81c-13.29-67.15,7.58-102.43-4.53-163.62"/>
          <path class="cls-1" d="M296.67,347.96c12.88,65.09,46.05,91.95,57.79,151.26l-9.16,1.81c-11.74-59.31-44.92-86.16-57.8-151.26"/>
          <path class="cls-1" d="M398.94,666.23c-12.11-61.19-44.86-85.86-58.15-153.01l-9.16,1.81c13.29,67.15,46.03,91.82,58.14,153.01"/>
          <path class="cls-1" d="M361.14,673.71c-12.88-65.09,7.56-102.56-4.18-161.87l-9.16,1.81c11.74,59.31-8.71,96.78,4.17,161.87"/>
          <polygon class="cls-1" points="374.1 458.04 349.74 486.23 315.52 571.53 338.94 539.89 374.1 458.04"/>
          <polygon class="cls-1" points="297.86 466.85 330.96 489.53 391.79 556.76 359.52 536.28 297.86 466.85"/>
          <rect class="cls-1" x="327.94" y="508.94" width="33.45" height="8.74" transform="translate(-84 67.75) rotate(-10.01)"/>
          <polygon class="cls-1" points="329.22 520.43 330.23 529.11 363.48 525.53 362.49 516.85 329.22 520.43"/>
          <polygon class="cls-1" points="360.11 506.24 359.1 497.56 325.84 501.15 326.84 509.82 360.11 506.24"/>
        </g>
        <g>
          <path class="cls-1" d="M398.94,666.25c.18.96.36,1.91.54,2.85l.13.71.06.35.02.09-.22-1.02c-.16-.71-.36-1.41-.57-2.1-.22-.7-.46-1.37-.74-2.05-.29-.76-.62-1.5-.98-2.24-.73-1.47-1.54-2.83-2.56-4.27-1-1.41-2.13-2.7-3.35-3.93-1.21-1.22-2.6-2.34-3.95-3.29-2.79-1.95-5.75-3.34-8.74-4.22-1.46-.44-2.99-.76-4.47-.97-1.47-.21-2.98-.3-4.46-.28-1.48,0-2.98.14-4.44.38-1.5.23-2.99.59-4.43,1.06-1.49.47-2.98,1.08-4.37,1.79-1.43.72-2.88,1.59-4.2,2.56-1.33.97-2.65,2.09-3.82,3.3-1.17,1.21-2.25,2.49-3.21,3.87-.97,1.42-1.74,2.72-2.43,4.16-.34.71-.65,1.44-.93,2.17-.26.66-.49,1.31-.7,1.98-.21.67-.39,1.35-.55,2.03l-.21,1.02c-.04.22,0,.04-.01.08v-.04s.09-.34.09-.34l.17-.67c.9-3.56,1.88-6.99,2.92-10.33,2.07-6.66,4.39-12.91,6.88-18.9,4.97-11.97,10.6-22.9,16.27-34.01,11.34-22.22,22.82-45.19,29.43-78.77l9.16,1.8c-6.61,33.58-18.09,56.55-29.43,78.77-5.67,11.11-11.3,22.03-16.27,34.01-2.48,5.99-4.8,12.23-6.87,18.9-1.04,3.33-2.01,6.77-2.92,10.33l-.17.67-.08.34v.04s-.03.11,0-.04l.14-.7c.11-.47.23-.93.37-1.39.14-.46.3-.91.48-1.36.19-.51.4-1.01.64-1.5.48-1,1.01-1.89,1.68-2.88,1.32-1.89,2.98-3.61,4.85-4.97,3.77-2.74,7.98-3.96,12.03-4.02,4.05-.05,8.32,1.07,12.21,3.77,1.92,1.34,3.68,3.07,5.06,5,.7,1,1.27,1.94,1.77,2.95.25.51.48,1.02.68,1.55.19.47.36.93.51,1.41.15.48.28.96.4,1.45l.15.7-.02-.09-.06-.35-.13-.71c-.18-.94-.36-1.89-.54-2.85"/>
          <path class="cls-1" d="M361.14,673.73c.21,1.02.41,2.02.62,3.02l.16.75.04.19.14.56c.13.42.23.8.44,1.23.72,1.68,2.23,3.21,3.9,3.95,1.67.77,3.44.93,5.14.57,1.69-.35,3.39-1.33,4.55-2.81.59-.73,1-1.54,1.28-2.34.13-.39.23-.79.31-1.18l.06-.37c.07-.49.14-.97.21-1.45.56-3.87,1-7.63,1.34-11.32.69-7.37.99-14.41,1.02-21.2.06-13.59-.93-26.23-1.96-38.69-2.06-24.91-4.26-49.11,1.58-78.77l9.16,1.8c-5.84,29.66-3.63,53.85-1.57,78.77,1.03,12.46,2.03,25.1,1.96,38.69-.03,6.8-.33,13.83-1.02,21.2-.34,3.69-.79,7.45-1.34,11.32-.07.48-.14.97-.21,1.45l-.06.37c-.17.85-.4,1.7-.69,2.53-.61,1.72-1.54,3.48-2.83,5.08-1.26,1.58-2.86,2.96-4.56,3.97-1.71,1.03-3.53,1.71-5.36,2.1-3.65.75-7.42.39-11.03-1.28-1.8-.84-3.52-2.04-4.99-3.54-.73-.74-1.38-1.56-1.98-2.42-.59-.86-1.04-1.72-1.46-2.63-.44-.94-.68-1.73-.93-2.63l-.17-.66-.11-.49-.04-.19-.16-.75c-.2-1-.41-2.01-.62-3.02"/>
          <path class="cls-1" d="M402.27,354.49c-12.04,61.2,8.88,96.46-4.34,163.63l9.16,1.8c13.22-67.16-7.69-102.42,4.35-163.62"/>
          <path class="cls-1" d="M440.08,361.94c-12.81,65.1-45.96,92-57.63,151.32l9.16,1.8c11.67-59.32,44.83-86.21,57.64-151.32"/>
          <polygon class="cls-1" points="346.15 556.5 379.4 539.68 443.46 473.79 409.77 494.16 346.15 556.5"/>
          <polygon class="cls-1" points="420.02 577.32 398.02 543.77 367.29 458.47 389.37 489.67 420.02 577.32"/>
          <rect class="cls-1" x="390.01" y="499.85" width="8.74" height="33.45" transform="translate(-194.42 791.7) rotate(-77.69)"/>
          <polygon class="cls-1" points="411.37 515.84 413.74 507.44 381.62 498.11 379.24 506.52 411.37 515.84"/>
          <polygon class="cls-1" points="377.41 517.23 375.04 525.64 407.17 534.96 409.54 526.56 377.41 517.23"/>
        </g>
        <g>
          <path class="cls-1" d="M402.28,354.47c12.04-61.2,44.77-85.9,57.99-153.07l9.16,1.8c-13.22,67.17-45.93,91.87-57.98,153.07"/>
          <path class="cls-1" d="M440.09,361.91c12.81-65.1-7.67-102.55,4.01-161.87l9.16,1.8c-11.68,59.32,8.82,96.77-4,161.88"/>
          <path class="cls-1" d="M466.4,28.66c-12.04,61.2,8.88,96.46-4.34,163.63l9.16,1.8c13.22-67.16-7.69-102.42,4.35-163.62"/>
          <path class="cls-1" d="M504.21,36.1c-12.81,65.1-45.96,92-57.63,151.32l9.16,1.8c11.67-59.32,44.83-86.21,57.64-151.32"/>
          <polygon class="cls-1" points="410.28 230.67 443.53 213.85 507.58 147.95 473.9 168.32 410.28 230.67"/>
          <polygon class="cls-1" points="484.15 251.48 462.15 217.93 431.42 132.64 453.5 163.84 484.15 251.48"/>
          <rect class="cls-1" x="454.14" y="174.01" width="8.74" height="33.45" transform="translate(174.37 598.01) rotate(-77.69)"/>
          <polygon class="cls-1" points="475.5 190.01 477.86 181.6 445.74 172.28 443.36 180.69 475.5 190.01"/>
          <polygon class="cls-1" points="441.53 191.39 439.17 199.81 471.3 209.13 473.67 200.72 441.53 191.39"/>
        </g>
      </g>
    </g>
  </g>
</svg>