<?xml version="1.0" encoding="UTF-8"?>
<svg id="Layer_2" data-name="Layer 2" xmlns="http://www.w3.org/2000/svg" viewBox="0 0 628.37 998.13">
  <defs>
    <style>
      .cls-1 {
        fill: #bfbfbf;
        stroke: #000;
        stroke-linecap: round;
        stroke-width: 4.5px;
      }
    </style>
  </defs>
  <g id="Layer_2-2" data-name="Layer 2">
    <g>
      <g>
        <g>
          <path class="cls-1" d="M45.89,265.36c0-4.22,27.34-6.29,27.34-10.92h9.34c0,4.63-27.33,6.7-27.33,10.92"/>
          <path class="cls-1" d="M84.43,265.36c0-4.49-27.32-6.71-27.32-10.8h9.34c0,4.09,27.34,6.31,27.34,10.8"/>
          <path class="cls-1" d="M45.89,242.88c0,4.22,27.34,6.29,27.34,10.92h9.34c0-4.63-27.33-6.7-27.33-10.92"/>
          <path class="cls-1" d="M84.43,242.88c0,4.49-27.32,6.71-27.32,10.8h9.34c0-4.09,27.34-6.31,27.34-10.8"/>
          <polygon class="cls-1" points="29.84 257.03 59.21 255.48 109.34 250.27 80.22 252.06 29.84 257.03"/>
          <polygon class="cls-1" points="106.34 257.45 78.27 255.51 31.65 250.25 59.34 252.03 106.34 257.45"/>
          <polygon class="cls-1" points="86.08 254.07 86.26 253.48 52.82 253.43 52.64 254.02 86.08 254.07"/>
          <polygon class="cls-1" points="85.98 253.48 86.68 252.89 53.36 252.69 52.65 253.28 85.98 253.48"/>
          <polygon class="cls-1" points="52.92 254.02 52.23 254.61 85.55 254.8 86.25 254.21 52.92 254.02"/>
        </g>
        <g>
          <path class="cls-1" d="M235.98,52.8c28.08,0,41.84,27.34,72.66,27.34v9.34c-30.82,0-44.58-27.33-72.66-27.33"/>
          <path class="cls-1" d="M235.98,91.34c29.87,0,44.63-27.32,71.85-27.32v9.34c-27.22,0-41.98,27.34-71.85,27.34"/>
          <path class="cls-1" d="M385.48,52.8c-28.08,0-41.84,27.34-72.66,27.34v9.34c30.82,0,44.58-27.33,72.66-27.33"/>
          <path class="cls-1" d="M385.48,91.34c-29.87,0-44.63-27.32-71.85-27.32v9.34c27.22,0,41.98,27.34,71.85,27.34"/>
          <polygon class="cls-1" points="291.36 36.74 301.68 66.12 336.36 116.25 324.43 87.13 291.36 36.74"/>
          <polygon class="cls-1" points="288.59 113.24 301.5 85.18 336.5 38.56 324.64 66.24 288.59 113.24"/>
          <polygon class="cls-1" points="311.07 92.99 315 93.17 315.32 59.73 311.39 59.55 311.07 92.99"/>
          <polygon class="cls-1" points="314.99 92.88 318.91 93.58 320.24 60.27 316.32 59.56 314.99 92.88"/>
          <polygon class="cls-1" points="311.43 59.83 307.5 59.13 306.18 92.46 310.1 93.16 311.43 59.83"/>
        </g>
        <g>
          <path class="cls-1" d="M575.57,242.88c0,25.34-27.34,37.75-27.34,65.57h-9.34c0-27.81,27.33-40.23,27.33-65.57"/>
          <path class="cls-1" d="M537.03,242.88c0,26.96,27.32,40.28,27.32,64.84h-9.34c0-24.56-27.34-37.88-27.34-64.84"/>
          <path class="cls-1" d="M575.57,377.79c0-25.34-27.34-37.76-27.34-65.57h-9.34c0,27.81,27.33,40.23,27.33,65.57"/>
          <path class="cls-1" d="M537.03,377.79c0-26.96,27.32-40.28,27.32-64.84h-9.34c0,24.56-27.34,37.88-27.34,64.84"/>
          <polygon class="cls-1" points="591.62 292.86 562.25 302.18 512.12 333.47 541.24 322.71 591.62 292.86"/>
          <polygon class="cls-1" points="515.12 290.36 543.19 302.01 589.81 333.6 562.12 322.89 515.12 290.36"/>
          <polygon class="cls-1" points="535.38 310.65 535.2 314.2 568.64 314.49 568.82 310.94 535.38 310.65"/>
          <polygon class="cls-1" points="535.48 314.19 534.79 317.73 568.1 318.92 568.81 315.38 535.48 314.19"/>
          <polygon class="cls-1" points="568.54 310.97 569.23 307.43 535.91 306.24 535.21 309.77 568.54 310.97"/>
        </g>
        <g>
          <path class="cls-1" d="M385.49,567.88c-57.66,0-85.9-27.34-149.18-27.34v-9.34c63.28,0,91.53,27.33,149.18,27.33"/>
          <path class="cls-1" d="M385.49,529.35c-61.34,0-91.65,27.32-147.54,27.32v-9.34c55.89,0,86.2-27.34,147.54-27.34"/>
          <path class="cls-1" d="M78.52,567.88c57.66,0,85.91-27.34,149.18-27.34v-9.34c-63.28,0-91.53,27.33-149.18,27.33"/>
          <path class="cls-1" d="M78.52,529.35c61.34,0,91.65,27.32,147.54,27.32v-9.34c-55.89,0-86.2-27.34-147.54-27.34"/>
          <polygon class="cls-1" points="271.77 583.94 250.57 554.56 179.37 504.44 203.86 533.55 271.77 583.94"/>
          <polygon class="cls-1" points="277.46 507.44 250.96 535.51 179.08 582.13 203.44 554.44 277.46 507.44"/>
          <polygon class="cls-1" points="231.3 527.7 223.23 527.52 222.57 560.96 230.64 561.14 231.3 527.7"/>
          <polygon class="cls-1" points="223.25 527.8 215.2 527.1 212.48 560.42 220.53 561.13 223.25 527.8"/>
          <polygon class="cls-1" points="230.57 560.86 238.62 561.55 241.34 528.23 233.29 527.53 230.57 560.86"/>
        </g>
        <g>
          <path class="cls-1" d="M235.98,100.9c-1.14,0-2.28,0-3.42,0-1.14-.02-2.27-.05-3.4-.07-1.13-.04-2.26-.09-3.38-.13-1.12-.06-2.24-.13-3.36-.19-1.12-.08-2.23-.17-3.34-.25-1.11-.1-2.21-.2-3.31-.3-1.1-.12-2.2-.24-3.29-.36-1.09-.14-2.18-.27-3.26-.41-1.08-.15-2.16-.3-3.24-.46-1.07-.17-2.14-.34-3.21-.5-1.06-.18-2.12-.37-3.18-.55-1.05-.2-2.1-.4-3.15-.59-1.04-.21-2.08-.42-3.12-.63-1.03-.22-2.06-.45-3.09-.67-1.02-.24-2.04-.47-3.05-.71-1.01-.25-2.02-.5-3.02-.74-1-.26-1.99-.52-2.98-.78-.99-.27-1.97-.54-2.95-.81-.97-.28-1.94-.56-2.91-.84-.96-.29-1.92-.58-2.87-.86-.95-.3-1.89-.59-2.83-.89-.93-.3-1.86-.61-2.79-.91-.92-.31-1.84-.62-2.75-.93-.91-.32-1.81-.64-2.7-.95-.89-.32-1.78-.65-2.66-.97-.88-.33-1.75-.66-2.61-.98-.86-.33-1.72-.66-2.56-.99-.85-.34-1.68-.67-2.52-1-.83-.34-1.65-.68-2.47-1.01-.81-.34-1.62-.68-2.42-1.02-.8-.34-1.58-.69-2.37-1.02-.78-.35-1.55-.69-2.31-1.03-1.52-.7-3.01-1.38-4.47-2.05-1.45-.69-2.86-1.37-4.24-2.04-1.37-.69-2.71-1.35-4.01-2.01-1.29-.67-2.55-1.32-3.77-1.96-1.21-.65-2.38-1.28-3.52-1.9-1.13-.63-2.21-1.23-3.26-1.82-1.04-.6-2.04-1.17-2.99-1.72-.95-.56-1.85-1.1-2.72-1.61-.85-.52-1.67-1.01-2.43-1.48-.76-.47-1.47-.92-2.13-1.33-.66-.42-1.27-.81-1.83-1.17-.56-.37-1.06-.7-1.52-1-.9-.61-1.59-1.08-2.06-1.4-.46-.33-.7-.49-.7-.49.72.42,1.45.84,2.18,1.27.74.41,1.48.82,2.23,1.23.76.4,1.51.8,2.28,1.2.77.39,1.54.78,2.32,1.17.78.38,1.57.76,2.36,1.14.8.37,1.6.74,2.4,1.11.81.36,1.62.72,2.44,1.09.82.35,1.64.7,2.47,1.06.83.34,1.66.68,2.5,1.03.84.33,1.68.67,2.53,1,.85.32,1.7.65,2.56.97.86.31,1.72.63,2.58.95l2.6.92,2.62.89,2.64.87,2.65.84,2.66.82,2.67.79,2.68.77,2.68.74c1.79.47,3.58.94,5.36,1.41,1.79.44,3.57.88,5.35,1.32,1.78.41,3.55.82,5.31,1.23,1.77.38,3.52.77,5.26,1.15,1.74.36,3.47.71,5.19,1.06,1.72.33,3.42.66,5.09.98,1.68.31,3.34.61,4.98.9,1.64.28,3.26.56,4.85.83,1.59.26,3.16.51,4.69.76,1.54.23,3.05.46,4.52.69,1.48.21,2.92.42,4.33.62,1.41.19,2.78.38,4.11.56,2.67.33,5.18.65,7.51.94,2.33.26,4.48.51,6.42.72,1.94.2,3.67.38,5.17.53,3,.29,5.05.49,5.97.58"/>
          <path class="cls-1" d="M93.78,242.9c-.01-.5-.02-1.01-.04-1.55-.02-.53-.05-1.08-.08-1.64-.04-.56-.08-1.14-.12-1.73-.05-.59-.1-1.2-.15-1.82-.06-.62-.12-1.25-.19-1.9-.07-.65-.15-1.3-.22-1.98-.08-.67-.17-1.36-.26-2.05-.09-.7-.19-1.4-.29-2.12-.22-1.44-.44-2.92-.67-4.44-.25-1.52-.51-3.08-.78-4.68-.29-1.6-.58-3.23-.88-4.89-.32-1.66-.64-3.35-.98-5.07-.35-1.72-.7-3.46-1.06-5.22-.37-1.76-.75-3.54-1.13-5.34-.39-1.79-.79-3.6-1.19-5.43-.41-1.82-.82-3.65-1.24-5.48-.86-3.66-1.73-7.35-2.59-11.02-.9-3.66-1.79-7.3-2.67-10.88-.91-3.58-1.8-7.09-2.66-10.51-.89-3.41-1.75-6.72-2.58-9.89-.84-3.17-1.65-6.19-2.41-9.04-.77-2.84-1.49-5.5-2.16-7.94-1.35-4.86-2.46-8.84-3.22-11.6-.78-2.76-1.22-4.3-1.22-4.3l-8.17,4.53c.49,1.49.98,3,1.49,4.52.48,1.53.96,3.08,1.45,4.65.47,1.57.94,3.15,1.42,4.75.46,1.6.92,3.22,1.39,4.84.45,1.63.9,3.27,1.35,4.92.44,1.65.88,3.31,1.32,4.97.43,1.67.85,3.34,1.28,5.02.42,1.68.83,3.36,1.25,5.04l1.21,5.05c.39,1.69.78,3.37,1.17,5.05.75,3.36,1.49,6.71,2.22,10.01.7,3.31,1.38,6.58,2.06,9.79.64,3.22,1.27,6.38,1.89,9.45.59,3.08,1.16,6.08,1.71,8.98.53,2.9,1.04,5.7,1.52,8.38.47,2.68.91,5.24,1.33,7.66.4,2.42.78,4.69,1.13,6.8.34,2.11.65,4.06.93,5.82.27,1.76.51,3.34.71,4.71.19,1.37.36,2.54.49,3.47.12.94.21,1.65.27,2.11"/>
          <path class="cls-1" d="M235.98,52.81c-1.32-.03-2.64-.07-3.96-.1-1.32-.05-2.65-.09-3.97-.14l-3.98-.18-3.98-.21c-2.65-.17-5.31-.34-7.95-.51-2.64-.2-5.27-.39-7.88-.59-5.22-.43-10.37-.85-15.37-1.26-2.5-.2-4.97-.4-7.39-.6-2.42-.18-4.8-.35-7.12-.52-1.16-.08-2.31-.15-3.45-.22-1.14-.06-2.26-.13-3.36-.19-1.11-.05-2.2-.1-3.27-.15-1.08-.04-2.13-.08-3.17-.11-1.04-.02-2.07-.05-3.07-.07-1.01,0-1.99-.01-2.96-.02-.97.01-1.92.03-2.85.04-.46.01-.92.03-1.38.04-.45.02-.9.04-1.35.06-.44.02-.88.05-1.31.07-.43.03-.86.06-1.28.09-.42.04-.84.07-1.25.11-.41.04-.81.08-1.21.13-.4.05-.79.1-1.18.14-.39.06-.77.11-1.14.16-.37.06-.74.12-1.11.18-.36.07-.72.14-1.07.2-.35.08-.69.15-1.03.22-.34.08-.67.16-.99.25-.32.09-.64.18-.95.27-.31.1-.61.19-.91.29-.29.11-.58.21-.87.31l-.42.17-.41.17-.4.18-.39.18-.38.19-.36.2-2.99,6c.7-.03,1.47-.07,2.28-.11.82-.02,1.69-.04,2.62-.07.92,0,1.9-.02,2.92-.03,1.02,0,2.09,0,3.2,0,1.11.01,2.26.03,3.45.04,1.19.02,2.42.05,3.68.07,2.52.07,5.17.15,7.93.23,2.75.11,5.6.22,8.51.33,2.91.13,5.88.27,8.88.41,6,.32,12.1.65,18.03.97,5.93.36,11.68.71,16.98,1.03,5.29.35,10.13.67,14.23.94,8.19.58,13.42.95,13.42.95"/>
          <path class="cls-1" d="M45.89,242.9s-.21-2.28-.57-6.33c-.16-2.03-.35-4.49-.58-7.34-.19-2.85-.41-6.07-.66-9.6-.11-1.77-.21-3.61-.33-5.53-.1-1.92-.21-3.9-.31-5.95-.09-2.05-.19-4.16-.29-6.33-.08-2.17-.17-4.39-.25-6.65-.07-2.27-.14-4.58-.2-6.93-.05-2.35-.1-4.74-.15-7.16-.02-2.42-.05-4.87-.08-7.34,0-2.47,0-4.97,0-7.48.03-2.51.07-5.03.1-7.56.07-2.53.13-5.07.2-7.6l.14-3.8c.06-1.27.12-2.53.17-3.79.07-1.26.14-2.52.2-3.78.08-1.26.16-2.51.24-3.75.09-1.25.18-2.49.27-3.73.1-1.24.21-2.47.31-3.7.12-1.23.23-2.44.34-3.66.13-1.21.26-2.42.38-3.61.14-1.2.28-2.38.42-3.56.16-1.18.31-2.35.46-3.5.17-1.16.34-2.3.51-3.44.19-1.13.37-2.26.55-3.37.2-1.11.4-2.21.6-3.3.22-1.08.43-2.16.64-3.22.23-1.06.46-2.1.69-3.13.12-.51.24-1.02.36-1.53.13-.51.25-1.01.38-1.51.13-.5.26-.99.39-1.48.14-.49.27-.97.4-1.46.14-.48.28-.96.42-1.43.14-.47.29-.94.43-1.4.15-.46.3-.92.44-1.38.15-.45.31-.9.46-1.35.16-.44.31-.88.47-1.32.16-.43.32-.86.48-1.29.17-.42.33-.84.5-1.26.17-.41.34-.82.51-1.23.18-.4.35-.8.53-1.19.18-.39.36-.78.54-1.16.19-.38.37-.75.56-1.13.19-.37.38-.73.57-1.09.2-.36.39-.71.59-1.06.2-.34.4-.68.6-1.02.21-.33.41-.66.62-.98.21-.32.42-.63.63-.95.22-.31.43-.61.65-.91.22-.29.45-.58.66-.87.23-.28.46-.56.68-.83.23-.27.47-.53.7-.79l.35-.38.36-.37.36-.36.37-.35,17.29-3.31-.89.45-.87.48-.85.51-.84.53-.82.56-.8.58-.79.61-.77.64-.75.66-.74.68-.72.71-.7.73-.69.76-.67.78-.66.8-.64.83-.63.85-.61.87-.6.89-.58.92-.57.94-.55.96c-.18.32-.36.65-.54.98-.17.33-.35.67-.52,1-.17.34-.34.68-.51,1.02-.16.34-.33.69-.5,1.04-.16.35-.32.7-.48,1.06-.16.36-.31.72-.47,1.08-.15.36-.3.73-.46,1.1-.15.37-.29.74-.44,1.12-.14.38-.29.76-.43,1.14-.14.38-.28.77-.42,1.15-.13.39-.27.78-.4,1.17-.13.39-.26.79-.39,1.19-.13.4-.25.8-.38,1.21-.12.41-.24.81-.37,1.23-.23.83-.46,1.66-.7,2.5-.21.85-.43,1.7-.65,2.57-.2.87-.4,1.74-.6,2.63-.18.89-.37,1.78-.56,2.69-.17.91-.34,1.82-.52,2.75-.16.93-.31,1.86-.47,2.8-.14.94-.29,1.9-.43,2.86-.13.96-.26,1.93-.39,2.91-.12.98-.24,1.96-.36,2.96-.11.99-.21,2-.32,3-.09,1.01-.19,2.03-.28,3.05-.08,1.02-.17,2.05-.25,3.09-.07,1.04-.14,2.08-.22,3.13-.06,1.05-.12,2.11-.18,3.17-.05,1.06-.1,2.13-.15,3.2-.04,1.07-.08,2.15-.12,3.23-.03,1.08-.06,2.17-.1,3.27-.02,1.09-.05,2.19-.07,3.29-.02,2.2-.04,4.43-.07,6.66,0,2.24.02,4.49.03,6.75.04,2.26.07,4.53.11,6.81.06,2.28.12,4.57.18,6.86.08,2.29.16,4.59.24,6.89l.29,6.9c.23,4.6.46,9.19.68,13.75.26,4.56.51,9.09.76,13.57.26,4.48.51,8.9.76,13.24.23,4.34.45,8.6.67,12.76"/>
          <polygon class="cls-1" points="86.54 1.23 96.35 36.8 147.41 111.32 134.29 74.68 86.54 1.23"/>
          <polygon class="cls-1" points="44.62 70.69 88.88 54.34 184.23 35.46 142.48 55.46 44.62 70.69"/>
          <rect class="cls-1" x="98.97" y="51.34" width="33.45" height="8.54" transform="translate(19.17 140.23) rotate(-66.91)"/>
          <polygon class="cls-1" points="113.14 72.39 120.77 76.21 135.85 46.34 128.22 42.53 113.14 72.39"/>
          <polygon class="cls-1" points="118.29 38.83 110.66 35.02 95.58 64.88 103.21 68.71 118.29 38.83"/>
          <polygon class="cls-1" points="78.53 36.69 55.55 74.49 35.79 162.62 53.67 128.06 78.53 36.69"/>
          <polygon class="cls-1" points="1.38 64.96 37.62 80.96 108.39 134.98 73.32 120.96 1.38 64.96"/>
          <rect class="cls-1" x="38.25" y="97.18" width="33.44" height="8.54" transform="translate(-31.19 24.7) rotate(-19.86)"/>
          <polygon class="cls-1" points="40.95 111.01 43.35 119.2 75.49 109.91 73.08 101.73 40.95 111.01"/>
          <polygon class="cls-1" points="69.02 91.93 66.61 83.75 34.48 93.04 36.88 101.23 69.02 91.93"/>
        </g>
        <g>
          <path class="cls-1" d="M527.47,242.89c0-1.14,0-2.28,0-3.42.02-1.14.05-2.27.07-3.4.04-1.13.09-2.26.13-3.38.06-1.12.13-2.24.19-3.36.08-1.12.17-2.23.25-3.34.1-1.11.2-2.21.3-3.31.12-1.1.24-2.2.36-3.29.14-1.09.27-2.18.41-3.26.15-1.08.3-2.16.46-3.24.17-1.07.34-2.14.5-3.21.18-1.06.37-2.12.55-3.18.2-1.05.39-2.1.59-3.15.21-1.04.42-2.08.63-3.12.22-1.03.45-2.06.67-3.09.24-1.02.47-2.04.71-3.05.25-1.01.5-2.02.74-3.02.26-1,.52-1.99.78-2.98.27-.99.54-1.97.81-2.95.28-.97.56-1.94.84-2.91.29-.96.58-1.92.86-2.87.3-.95.59-1.89.89-2.83.31-.93.61-1.86.91-2.79.31-.92.62-1.84.93-2.75.32-.91.64-1.81.95-2.7.32-.89.65-1.78.97-2.66.33-.88.66-1.75.98-2.61.33-.86.66-1.72.99-2.56.34-.85.67-1.68,1-2.52.34-.83.68-1.65,1.01-2.47.34-.81.68-1.62,1.02-2.42.34-.8.69-1.58,1.02-2.37.34-.78.69-1.55,1.03-2.31.7-1.52,1.38-3.01,2.05-4.47.69-1.45,1.37-2.86,2.04-4.24.69-1.37,1.35-2.71,2.01-4.01.67-1.29,1.32-2.55,1.96-3.77.65-1.21,1.28-2.38,1.9-3.52.63-1.13,1.23-2.21,1.82-3.26.6-1.04,1.17-2.04,1.72-2.99.56-.95,1.1-1.85,1.61-2.72.52-.85,1.01-1.67,1.48-2.43.47-.76.92-1.47,1.33-2.13.42-.66.81-1.27,1.17-1.83.37-.56.7-1.06,1-1.52.61-.9,1.08-1.59,1.4-2.06.33-.46.49-.7.49-.7-.42.72-.84,1.45-1.26,2.18-.41.74-.82,1.48-1.23,2.23-.4.76-.8,1.51-1.2,2.28-.39.77-.78,1.54-1.17,2.32-.38.78-.76,1.57-1.14,2.36-.37.8-.74,1.6-1.11,2.4-.36.81-.72,1.62-1.09,2.44-.35.82-.7,1.64-1.06,2.47-.34.83-.68,1.67-1.03,2.5-.33.84-.67,1.68-1,2.53-.32.85-.65,1.7-.97,2.56-.31.86-.63,1.72-.95,2.58l-.92,2.6-.89,2.62-.87,2.64-.84,2.65-.82,2.66-.79,2.67-.77,2.68-.74,2.68c-.47,1.79-.94,3.58-1.41,5.36-.44,1.79-.88,3.57-1.32,5.35-.41,1.78-.82,3.55-1.23,5.31-.38,1.77-.77,3.52-1.15,5.26-.36,1.74-.71,3.47-1.06,5.19-.33,1.72-.66,3.41-.98,5.09-.31,1.68-.61,3.34-.9,4.98-.28,1.64-.56,3.26-.83,4.85-.26,1.59-.51,3.16-.76,4.69-.23,1.54-.46,3.05-.69,4.52-.21,1.48-.42,2.92-.62,4.33-.19,1.41-.38,2.78-.56,4.11-.33,2.67-.65,5.18-.94,7.51-.26,2.33-.51,4.48-.73,6.42-.2,1.94-.38,3.67-.53,5.17-.29,3-.49,5.05-.58,5.97"/>
          <path class="cls-1" d="M385.47,100.68c.5-.01,1.01-.02,1.55-.04.53-.02,1.08-.05,1.64-.08.56-.04,1.14-.08,1.73-.12.59-.05,1.2-.1,1.82-.15.62-.06,1.25-.12,1.9-.19.65-.07,1.31-.15,1.98-.22.67-.08,1.36-.17,2.05-.26.7-.09,1.4-.19,2.12-.29,1.44-.22,2.92-.44,4.44-.67,1.52-.25,3.08-.51,4.68-.78,1.6-.29,3.23-.58,4.89-.88,1.66-.32,3.35-.64,5.07-.98,1.72-.35,3.46-.7,5.22-1.06,1.76-.37,3.54-.75,5.34-1.13,1.79-.39,3.6-.79,5.43-1.19,1.82-.41,3.65-.82,5.48-1.24,3.66-.86,7.35-1.73,11.02-2.59,3.66-.9,7.3-1.79,10.88-2.67,3.58-.91,7.09-1.8,10.51-2.66,3.41-.89,6.72-1.75,9.89-2.58,3.17-.84,6.19-1.65,9.04-2.41,2.84-.77,5.5-1.49,7.94-2.16,4.86-1.35,8.84-2.46,11.6-3.22,2.76-.78,4.3-1.22,4.3-1.22l-4.53-8.17c-1.49.49-3,.98-4.52,1.49-1.53.48-3.08.96-4.65,1.45-1.57.47-3.15.94-4.75,1.42-1.6.46-3.22.92-4.84,1.39-1.63.45-3.27.9-4.92,1.35-1.65.44-3.31.88-4.97,1.32-1.67.43-3.34.85-5.02,1.28-1.68.42-3.36.83-5.04,1.25l-5.05,1.21c-1.69.39-3.37.78-5.05,1.17-3.36.75-6.71,1.49-10.01,2.22-3.31.7-6.58,1.38-9.79,2.06-3.22.64-6.38,1.27-9.45,1.89-3.08.59-6.08,1.16-8.98,1.71-2.9.53-5.7,1.04-8.38,1.52-2.68.47-5.24.91-7.66,1.33-2.42.4-4.69.78-6.8,1.13-2.11.34-4.06.65-5.82.93-1.76.27-3.34.51-4.71.71-1.37.19-2.54.36-3.47.49-.94.12-1.65.21-2.11.27"/>
          <path class="cls-1" d="M575.56,242.89c.03-1.32.07-2.64.1-3.96.05-1.32.09-2.65.14-3.97l.18-3.98.21-3.98c.17-2.65.34-5.31.51-7.95.2-2.64.39-5.27.59-7.88.43-5.22.85-10.37,1.26-15.37.2-2.5.4-4.97.6-7.39.18-2.42.35-4.8.52-7.12.08-1.16.15-2.31.22-3.45.06-1.14.13-2.26.19-3.36.05-1.11.1-2.2.15-3.27.04-1.07.08-2.13.11-3.17.02-1.04.05-2.07.07-3.07,0-1.01.01-1.99.02-2.96-.01-.97-.03-1.92-.04-2.85-.01-.46-.03-.92-.04-1.38-.02-.45-.04-.9-.06-1.35-.02-.44-.05-.88-.07-1.31-.03-.43-.06-.86-.09-1.28-.04-.42-.07-.84-.11-1.25-.04-.41-.08-.81-.13-1.21-.05-.4-.1-.79-.14-1.18-.06-.39-.11-.77-.16-1.14-.06-.37-.12-.74-.18-1.11-.07-.36-.14-.72-.2-1.07-.08-.35-.15-.69-.22-1.03-.08-.34-.16-.67-.25-.99-.09-.32-.18-.64-.27-.95-.1-.31-.19-.61-.29-.91-.11-.29-.21-.58-.31-.87l-.17-.42-.17-.41-.18-.4-.18-.39-.19-.38-.2-.36-6-2.99c.03.7.07,1.47.11,2.28.02.82.04,1.69.07,2.62,0,.92.02,1.9.03,2.92,0,1.02,0,2.09,0,3.2-.01,1.11-.03,2.26-.04,3.45-.02,1.19-.05,2.42-.07,3.68-.07,2.52-.15,5.17-.23,7.93-.11,2.75-.22,5.6-.33,8.51-.13,2.91-.27,5.88-.41,8.88-.32,6-.65,12.1-.97,18.03-.36,5.93-.71,11.68-1.03,16.98-.35,5.29-.67,10.13-.94,14.23-.58,8.19-.95,13.42-.95,13.42"/>
          <path class="cls-1" d="M385.47,52.8s2.28-.21,6.33-.57c2.03-.16,4.49-.35,7.34-.58,2.85-.19,6.07-.41,9.6-.66,1.77-.1,3.61-.21,5.53-.33,1.92-.1,3.9-.21,5.95-.31,2.05-.09,4.16-.19,6.33-.29,2.17-.08,4.39-.17,6.65-.25,2.27-.07,4.58-.14,6.93-.2,2.35-.05,4.74-.1,7.16-.15,2.42-.02,4.87-.05,7.34-.08,2.47,0,4.97,0,7.48,0,2.51.03,5.03.07,7.56.1,2.53.07,5.07.13,7.6.2l3.8.14c1.27.06,2.53.12,3.79.17,1.26.07,2.52.14,3.78.2,1.26.08,2.51.16,3.76.24,1.25.09,2.49.18,3.73.27,1.24.1,2.47.21,3.7.31,1.23.12,2.44.23,3.66.34,1.21.13,2.42.26,3.61.38,1.19.14,2.38.28,3.56.42,1.18.16,2.35.31,3.5.46,1.16.17,2.3.34,3.44.51,1.13.19,2.26.37,3.37.55,1.11.2,2.21.4,3.3.6,1.08.22,2.16.43,3.22.64,1.06.23,2.1.46,3.13.69.51.12,1.02.24,1.53.36.51.13,1.01.25,1.51.38.5.13.99.26,1.48.39.49.14.97.27,1.46.4.48.14.96.28,1.43.42.47.14.94.29,1.4.43.46.15.92.3,1.38.44.45.15.9.31,1.35.46.44.16.88.31,1.32.47.43.16.86.32,1.29.48.42.17.84.33,1.26.5.41.17.82.34,1.23.51.4.18.8.35,1.19.53.39.18.78.36,1.16.54.38.19.75.37,1.13.56.37.19.73.38,1.09.57.36.2.71.39,1.06.59.34.2.68.4,1.02.6.33.21.66.41.98.62.32.21.63.42.95.63.31.22.61.43.91.65.29.22.58.45.87.66.28.23.56.46.83.68.27.23.53.47.79.7l.38.35.37.36.36.36.35.37,3.31,17.29-.45-.89-.48-.87-.51-.85-.53-.84-.56-.82-.58-.8-.61-.79-.64-.77-.66-.75-.68-.74-.71-.72-.73-.7-.76-.69-.78-.67-.8-.66-.83-.64-.85-.63-.87-.61-.89-.6-.92-.58-.94-.57-.96-.55c-.32-.18-.65-.36-.98-.54-.33-.17-.67-.35-1-.52-.34-.17-.68-.34-1.02-.51-.35-.16-.69-.33-1.04-.5-.35-.16-.71-.32-1.06-.48-.36-.16-.72-.31-1.08-.47-.36-.15-.73-.3-1.1-.46-.37-.15-.74-.29-1.12-.44-.38-.14-.76-.29-1.14-.43-.38-.14-.77-.28-1.15-.42-.39-.13-.78-.27-1.17-.4-.4-.13-.79-.26-1.19-.39-.4-.13-.8-.25-1.21-.38-.41-.12-.81-.24-1.23-.37-.83-.23-1.66-.46-2.5-.7-.85-.21-1.7-.43-2.57-.65-.87-.2-1.74-.4-2.63-.6-.89-.18-1.78-.37-2.69-.56-.91-.17-1.82-.34-2.75-.52-.93-.16-1.86-.31-2.8-.47-.94-.14-1.9-.29-2.86-.43-.96-.13-1.93-.26-2.91-.39-.98-.12-1.96-.24-2.96-.36-.99-.11-2-.21-3-.32-1.01-.09-2.03-.19-3.05-.28-1.02-.08-2.05-.17-3.09-.25-1.04-.07-2.08-.14-3.13-.22-1.05-.06-2.11-.12-3.17-.18-1.06-.05-2.13-.1-3.2-.15-1.07-.04-2.15-.08-3.23-.12-1.08-.03-2.17-.06-3.27-.1-1.09-.02-2.19-.05-3.29-.07-2.2-.02-4.43-.04-6.66-.07-2.24,0-4.49.02-6.75.03-2.26.04-4.53.07-6.81.11-2.28.06-4.57.12-6.86.18-2.29.08-4.59.16-6.89.24l-6.9.29c-4.6.23-9.19.46-13.75.68-4.56.26-9.09.51-13.57.76-4.48.26-8.9.51-13.24.76-4.34.23-8.6.45-12.76.67"/>
          <polygon class="cls-1" points="627.14 93.45 591.56 103.26 517.05 154.32 553.68 141.19 627.14 93.45"/>
          <polygon class="cls-1" points="557.67 51.53 574.03 95.79 592.9 191.13 572.91 149.39 557.67 51.53"/>
          <rect class="cls-1" x="568.49" y="105.88" width="8.54" height="33.45" transform="translate(235.37 601.4) rotate(-66.91)"/>
          <polygon class="cls-1" points="555.98 120.05 552.16 127.68 582.02 142.75 585.83 135.13 555.98 120.05"/>
          <polygon class="cls-1" points="589.53 125.19 593.35 117.57 563.49 102.49 559.66 110.12 589.53 125.19"/>
          <polygon class="cls-1" points="591.68 85.44 553.88 62.46 465.74 42.7 500.31 60.58 591.68 85.44"/>
          <polygon class="cls-1" points="563.4 8.29 547.41 44.53 493.39 115.3 507.41 80.23 563.4 8.29"/>
          <rect class="cls-1" x="522.65" y="45.16" width="8.54" height="33.44" transform="translate(10.31 182.64) rotate(-19.86)"/>
          <polygon class="cls-1" points="517.35 47.85 509.17 50.26 518.46 82.4 526.64 79.99 517.35 47.85"/>
          <polygon class="cls-1" points="536.44 75.93 544.62 73.52 535.32 41.39 527.14 43.79 536.44 75.93"/>
        </g>
        <g>
          <path class="cls-1" d="M385.48,519.79c1.14,0,2.28,0,3.42,0,1.14.02,2.27.05,3.4.07,1.13.04,2.26.09,3.38.13,1.12.06,2.24.13,3.36.19,1.12.08,2.23.17,3.34.25,1.11.1,2.21.2,3.31.3,1.1.12,2.2.24,3.29.36,1.09.14,2.18.27,3.26.41,1.08.15,2.16.3,3.24.46,1.07.17,2.14.34,3.21.5,1.06.18,2.12.37,3.18.55,1.05.2,2.1.39,3.15.59,1.04.21,2.08.42,3.12.63,1.03.22,2.06.45,3.09.67,1.02.24,2.04.47,3.05.71,1.01.25,2.02.5,3.02.74,1,.26,1.99.52,2.98.78.99.27,1.97.54,2.95.81.97.28,1.94.56,2.91.84.96.29,1.92.58,2.87.86.95.3,1.89.59,2.83.89.93.3,1.86.61,2.79.91.92.31,1.84.62,2.75.93.91.32,1.81.64,2.7.95.89.32,1.78.65,2.66.97.88.33,1.75.66,2.61.98.86.33,1.72.66,2.56.99.85.34,1.68.67,2.52,1,.83.34,1.65.68,2.47,1.01.81.34,1.62.68,2.42,1.02.8.34,1.58.69,2.37,1.02.78.35,1.55.69,2.31,1.03,1.52.7,3.01,1.38,4.47,2.05,1.45.69,2.86,1.37,4.24,2.04,1.37.69,2.71,1.35,4.01,2.01,1.29.67,2.55,1.32,3.77,1.96,1.21.65,2.38,1.28,3.52,1.9,1.13.63,2.21,1.23,3.26,1.82,1.04.6,2.04,1.17,2.99,1.72.95.56,1.85,1.1,2.72,1.61.85.52,1.67,1.01,2.43,1.48.76.47,1.47.92,2.13,1.33.66.42,1.27.81,1.83,1.17.56.37,1.06.7,1.52,1,.9.61,1.59,1.08,2.06,1.4.46.33.7.49.7.49-.72-.42-1.45-.84-2.18-1.26-.74-.41-1.48-.82-2.23-1.23-.76-.4-1.51-.8-2.28-1.2-.77-.39-1.54-.78-2.32-1.17-.78-.38-1.57-.76-2.36-1.14-.8-.37-1.6-.74-2.4-1.11-.81-.36-1.62-.72-2.44-1.09-.82-.35-1.64-.7-2.47-1.06-.83-.34-1.67-.69-2.5-1.03-.84-.33-1.68-.67-2.53-1-.85-.32-1.7-.65-2.56-.97-.86-.31-1.72-.63-2.58-.95l-2.6-.92-2.62-.89-2.64-.87-2.65-.84-2.66-.82-2.67-.79-2.68-.77-2.68-.74c-1.79-.47-3.58-.94-5.36-1.41-1.79-.44-3.57-.88-5.35-1.32-1.78-.41-3.55-.82-5.31-1.23-1.77-.38-3.52-.77-5.26-1.15-1.74-.36-3.47-.71-5.19-1.06-1.72-.33-3.42-.66-5.09-.98-1.68-.31-3.34-.61-4.98-.9-1.64-.28-3.26-.56-4.85-.83-1.59-.26-3.16-.51-4.69-.76-1.54-.23-3.05-.46-4.52-.69-1.48-.21-2.92-.42-4.33-.62-1.41-.19-2.78-.38-4.11-.56-2.67-.33-5.18-.65-7.51-.94-2.33-.26-4.48-.51-6.42-.72-1.94-.2-3.67-.38-5.17-.53-3-.29-5.05-.49-5.97-.58"/>
          <path class="cls-1" d="M527.68,377.79c.01.5.02,1.01.04,1.55.02.53.05,1.08.08,1.64.04.56.08,1.14.12,1.73.05.59.1,1.2.15,1.82.06.62.12,1.25.19,1.9.07.65.15,1.3.22,1.98.08.67.17,1.36.26,2.05.09.7.19,1.4.29,2.12.22,1.44.44,2.92.67,4.44.25,1.52.51,3.08.78,4.68.29,1.6.58,3.23.88,4.89.32,1.66.64,3.35.98,5.07.35,1.72.7,3.46,1.06,5.22.37,1.76.75,3.54,1.13,5.34.39,1.79.79,3.6,1.19,5.43.41,1.82.82,3.65,1.24,5.48.86,3.66,1.73,7.35,2.59,11.02.9,3.66,1.79,7.3,2.67,10.88.91,3.58,1.8,7.09,2.66,10.51.89,3.41,1.75,6.72,2.58,9.89.84,3.17,1.65,6.19,2.41,9.04.77,2.84,1.49,5.5,2.16,7.93,1.35,4.86,2.46,8.84,3.22,11.6.78,2.76,1.22,4.3,1.22,4.3l8.17-4.53c-.49-1.49-.98-3-1.49-4.52-.48-1.53-.96-3.08-1.45-4.65-.47-1.57-.94-3.15-1.42-4.75-.46-1.6-.92-3.22-1.39-4.84-.45-1.63-.9-3.27-1.35-4.92-.44-1.65-.88-3.31-1.32-4.97-.43-1.67-.85-3.34-1.28-5.02-.42-1.68-.83-3.36-1.25-5.04l-1.21-5.05c-.39-1.69-.78-3.37-1.17-5.05-.75-3.36-1.49-6.71-2.22-10.01-.7-3.31-1.38-6.58-2.06-9.79-.64-3.22-1.27-6.38-1.89-9.45-.59-3.08-1.16-6.08-1.71-8.98-.53-2.9-1.04-5.7-1.52-8.38-.47-2.68-.91-5.24-1.33-7.66-.4-2.42-.78-4.69-1.13-6.8-.34-2.11-.65-4.06-.93-5.82-.27-1.76-.51-3.34-.71-4.71-.2-1.37-.36-2.54-.49-3.47-.12-.94-.21-1.65-.27-2.11"/>
          <path class="cls-1" d="M385.48,567.88c1.32.03,2.64.07,3.96.1,1.32.05,2.65.09,3.97.14l3.98.18,3.98.21c2.65.17,5.31.34,7.95.51,2.64.2,5.27.39,7.88.59,5.22.43,10.37.85,15.37,1.26,2.5.2,4.97.4,7.39.6,2.42.18,4.8.35,7.12.52,1.16.08,2.31.15,3.45.22,1.14.06,2.26.13,3.36.19,1.11.05,2.2.1,3.27.15,1.08.04,2.13.08,3.17.11,1.04.02,2.07.05,3.07.07,1.01,0,1.99.01,2.96.02.97-.01,1.92-.03,2.85-.04.46-.01.92-.03,1.38-.04.45-.02.9-.04,1.35-.06.44-.02.88-.05,1.31-.07.43-.03.86-.06,1.28-.09.42-.04.84-.07,1.25-.11.41-.04.81-.08,1.21-.13.4-.05.79-.1,1.18-.14.39-.06.77-.11,1.14-.16.37-.06.74-.12,1.11-.18.36-.07.72-.14,1.07-.2.35-.08.69-.15,1.03-.22.34-.08.67-.16.99-.25.32-.09.64-.18.95-.27.31-.1.61-.19.91-.29.29-.11.58-.21.87-.31l.42-.17.41-.17.4-.18.39-.18.38-.19.36-.2,2.99-6c-.7.03-1.47.07-2.28.11-.82.02-1.69.04-2.62.07-.92,0-1.9.02-2.92.03-1.02,0-2.09,0-3.2,0-1.11-.01-2.26-.03-3.45-.04-1.19-.02-2.42-.05-3.68-.07-2.52-.07-5.17-.15-7.93-.23-2.75-.11-5.6-.22-8.51-.33-2.91-.13-5.88-.27-8.88-.41-6-.32-12.1-.65-18.03-.97-5.93-.36-11.68-.71-16.98-1.03-5.29-.35-10.13-.67-14.23-.94-8.19-.58-13.42-.95-13.42-.95"/>
          <path class="cls-1" d="M575.57,377.79s.21,2.28.57,6.33c.16,2.03.35,4.49.58,7.34.19,2.85.41,6.07.66,9.6.1,1.77.21,3.62.33,5.53.1,1.92.21,3.9.31,5.95.09,2.05.19,4.16.29,6.33.08,2.17.17,4.39.25,6.65.07,2.27.14,4.58.2,6.93.05,2.35.1,4.74.15,7.16.02,2.42.05,4.87.08,7.34,0,2.47,0,4.97,0,7.48-.03,2.51-.07,5.03-.1,7.56-.07,2.53-.13,5.07-.2,7.6l-.14,3.8c-.06,1.26-.12,2.53-.17,3.79-.07,1.26-.14,2.52-.2,3.78-.08,1.26-.16,2.51-.24,3.75-.09,1.25-.18,2.49-.27,3.73-.1,1.24-.21,2.47-.31,3.7-.12,1.23-.23,2.44-.34,3.66-.13,1.21-.26,2.42-.38,3.61-.14,1.19-.28,2.38-.42,3.56-.16,1.18-.31,2.34-.46,3.5-.17,1.16-.34,2.3-.51,3.44-.19,1.13-.37,2.26-.55,3.37-.2,1.11-.4,2.21-.6,3.3-.22,1.08-.43,2.16-.64,3.22-.23,1.06-.46,2.1-.69,3.13-.12.51-.24,1.02-.36,1.53-.13.51-.25,1.01-.38,1.51-.13.5-.26.99-.39,1.48-.14.49-.27.97-.4,1.46-.14.48-.28.96-.42,1.43-.14.47-.29.94-.43,1.4-.15.46-.3.92-.44,1.38-.15.45-.3.9-.46,1.35-.16.44-.31.88-.47,1.32-.16.43-.32.86-.48,1.29-.17.42-.33.84-.5,1.26-.17.41-.34.82-.51,1.23-.18.4-.35.8-.53,1.19-.18.39-.36.78-.54,1.16-.19.38-.37.75-.56,1.13-.19.37-.38.73-.57,1.09-.2.36-.39.71-.59,1.06-.2.34-.4.68-.6,1.02-.21.33-.41.66-.62.98-.21.32-.42.63-.63.95-.22.31-.43.61-.65.91-.22.29-.45.58-.66.87-.23.28-.46.56-.68.83-.23.27-.47.53-.7.79l-.35.38-.36.37-.36.36-.37.35-17.29,3.31.89-.45.87-.48.85-.51.84-.53.82-.56.8-.58.79-.61.77-.64.75-.66.74-.68.72-.71.7-.73.69-.76.67-.78.66-.8.64-.83.63-.85.61-.87.6-.89.58-.92.57-.94.55-.96c.18-.32.36-.65.54-.98.17-.33.35-.67.52-1,.17-.34.34-.68.51-1.02.16-.34.33-.69.5-1.04.16-.35.32-.71.48-1.06.16-.36.31-.72.47-1.08.15-.36.3-.73.46-1.1.15-.37.29-.74.44-1.12.14-.38.29-.76.43-1.14.14-.38.28-.77.42-1.15.13-.39.27-.78.4-1.17.13-.39.26-.79.39-1.19.13-.4.25-.8.38-1.21.12-.41.24-.81.37-1.23.23-.83.46-1.66.7-2.5.21-.85.43-1.7.65-2.57.2-.87.4-1.74.6-2.63.18-.89.37-1.78.56-2.69.17-.91.34-1.82.52-2.75.16-.93.31-1.86.47-2.8.14-.94.29-1.9.43-2.86.13-.96.26-1.93.39-2.91.12-.98.24-1.96.36-2.96.11-.99.21-2,.32-3,.09-1.01.19-2.03.28-3.05.08-1.02.17-2.05.25-3.09.07-1.04.14-2.08.22-3.13.06-1.05.12-2.11.18-3.17.05-1.06.1-2.13.15-3.2.04-1.07.08-2.15.12-3.23.03-1.08.06-2.17.1-3.27.02-1.09.05-2.19.07-3.29.02-2.2.04-4.43.07-6.66,0-2.24-.02-4.49-.03-6.75-.04-2.26-.07-4.53-.11-6.81-.06-2.28-.12-4.57-.18-6.86-.08-2.29-.16-4.59-.24-6.89l-.29-6.9c-.23-4.6-.46-9.19-.68-13.75-.26-4.56-.51-9.09-.76-13.57-.26-4.48-.51-8.9-.76-13.24-.23-4.34-.45-8.6-.67-12.76"/>
          <polygon class="cls-1" points="534.92 619.46 525.11 583.88 474.05 509.36 487.18 546 534.92 619.46"/>
          <polygon class="cls-1" points="576.84 549.99 532.58 566.34 437.24 585.22 478.98 565.23 576.84 549.99"/>
          <rect class="cls-1" x="489.05" y="560.81" width="33.45" height="8.54" transform="translate(-212.39 808.72) rotate(-66.91)"/>
          <polygon class="cls-1" points="508.32 548.3 500.69 544.48 485.61 574.34 493.24 578.15 508.32 548.3"/>
          <polygon class="cls-1" points="503.18 581.85 510.8 585.67 525.88 555.81 518.25 551.98 503.18 581.85"/>
          <polygon class="cls-1" points="542.93 584 565.91 546.2 585.67 458.06 567.79 492.63 542.93 584"/>
          <polygon class="cls-1" points="620.08 555.72 583.84 539.73 513.07 485.7 548.14 499.73 620.08 555.72"/>
          <rect class="cls-1" x="549.77" y="514.97" width="33.44" height="8.54" transform="translate(-142.69 223.29) rotate(-19.86)"/>
          <polygon class="cls-1" points="580.52 509.67 578.11 501.48 545.97 510.78 548.38 518.96 580.52 509.67"/>
          <polygon class="cls-1" points="552.44 528.75 554.85 536.94 586.98 527.64 584.58 519.46 552.44 528.75"/>
        </g>
      </g>
      <g>
        <g>
          <path class="cls-1" d="M74.77,962.21c41.79-42.25,81.7-43.72,127.56-90.08l6.64,6.57c-45.87,46.37-85.76,47.85-127.56,90.09"/>
          <path class="cls-1" d="M102.17,989.31c44.46-44.94,47-86.37,87.51-127.32l6.64,6.57c-40.51,40.95-43.04,82.38-87.5,127.33"/>
          <path class="cls-1" d="M297.26,737.29c-41.79,42.25-42.83,82.17-88.69,128.54l6.64,6.57c45.86-46.36,46.91-86.28,88.7-128.53"/>
          <path class="cls-1" d="M324.65,764.39c-44.46,44.94-85.85,47.93-126.36,88.89l6.64,6.57c40.51-40.95,81.91-43.93,126.37-88.88"/>
          <polygon class="cls-1" points="145.78 867.59 182.03 872.72 269.27 855.8 230.82 853.27 145.78 867.59"/>
          <polygon class="cls-1" points="196.04 925.56 195.3 886.4 214.25 800.95 216.28 838.27 196.04 925.56"/>
          <polygon class="cls-1" points="215.09 877.49 221.07 871.7 197.78 847.7 191.8 853.49 215.09 877.49"/>
          <polygon class="cls-1" points="220.86 871.52 227.19 866.11 205.48 840.69 199.14 846.09 220.86 871.52"/>
          <rect class="cls-1" x="195.59" y="852.33" width="8.33" height="33.44" transform="translate(-516.85 338.35) rotate(-40.53)"/>
        </g>
        <g>
          <path class="cls-1" d="M297.27,737.27c41.79-42.25,81.7-43.72,127.56-90.08l6.64,6.57c-45.87,46.37-85.76,47.85-127.56,90.09"/>
          <path class="cls-1" d="M324.67,764.37c44.46-44.94,47-86.37,87.51-127.32l6.64,6.57c-40.51,40.95-43.04,82.38-87.5,127.33"/>
          <path class="cls-1" d="M519.76,512.36c-41.79,42.25-42.83,82.17-88.69,128.54l6.64,6.57c45.86-46.36,46.91-86.28,88.7-128.53"/>
          <path class="cls-1" d="M547.15,539.46c-44.46,44.94-85.85,47.93-126.36,88.89l6.64,6.57c40.51-40.95,81.91-43.93,126.37-88.88"/>
          <polygon class="cls-1" points="368.28 642.66 404.53 647.79 491.77 630.87 453.32 628.34 368.28 642.66"/>
          <polygon class="cls-1" points="418.54 700.63 417.8 661.47 436.75 576.02 438.78 613.34 418.54 700.63"/>
          <polygon class="cls-1" points="437.59 652.56 443.57 646.77 420.28 622.77 414.3 628.56 437.59 652.56"/>
          <polygon class="cls-1" points="443.36 646.59 449.69 641.18 427.98 615.76 421.64 621.15 443.36 646.59"/>
          <rect class="cls-1" x="418.09" y="627.4" width="8.33" height="33.44" transform="translate(-317.28 428.98) rotate(-40.53)"/>
        </g>
      </g>
      <g>
        <path class="cls-1" d="M391.19,311.19c0,11.8-3.07,22.91-7.99,32.11-4.92,9.24-11.62,16.65-19.01,22.15-7.39,5.53-15.56,9.11-23.69,11.05-8.15,1.94-16.3,2.22-23.97,1.2-1.92-.31-3.81-.65-5.67-1-1.86-.47-3.69-1-5.5-1.52-.9-.24-1.79-.57-2.68-.92-.87-.34-1.75-.68-2.63-1.03-1.75-.63-3.43-1.52-5.09-2.36-6.64-3.41-12.62-7.86-17.79-13.18-5.16-5.32-9.53-11.49-12.88-18.47-.41-.88-.87-1.73-1.24-2.64-.35-.91-.71-1.83-1.07-2.75-.79-1.81-1.26-3.77-1.88-5.69-.33-.96-.52-1.96-.74-2.96-.22-1-.45-2.01-.67-3.03-.18-1.02-.29-2.07-.45-3.11-.07-.52-.15-1.05-.22-1.58-.09-.53-.15-1.06-.16-1.59l9.3-.81c0,.44.06.88.13,1.32.06.43.12.87.19,1.3.13.86.21,1.72.35,2.57.18.84.37,1.67.55,2.49.17.83.31,1.66.59,2.45.51,1.58.85,3.22,1.5,4.72.28.77.56,1.53.84,2.29.29.76.67,1.46.99,2.2,2.66,5.84,6.16,11.11,10.36,15.74,4.21,4.62,9.14,8.59,14.7,11.71,1.4.77,2.8,1.6,4.29,2.18.74.32,1.49.65,2.23.97.75.33,1.51.65,2.28.88,1.54.5,3.11,1.02,4.7,1.49,1.6.36,3.23.7,4.89,1.04,6.63,1.11,13.72,1.1,20.9-.39,7.16-1.5,14.42-4.46,21.01-9.2,6.59-4.72,12.6-11.17,17.02-19.28,4.42-8.08,7.18-17.88,7.19-28.32"/>
        <path class="cls-1" d="M352.65,311.19c-.05,6.59-1.13,12.72-3.03,18.46-1.9,5.73-4.63,11.07-8.12,15.91-3.49,4.84-7.74,9.19-12.73,12.82-4.98,3.6-10.71,6.6-16.99,8.34-6.27,1.79-13.12,2.58-20.22,1.93-7.1-.62-14.39-2.78-21.24-6.61-6.84-3.82-13.27-9.33-18.35-16.53-5.08-7.17-8.77-16.09-9.97-25.93l9.27-1.12c1.04,8.51,4.29,16.2,8.76,22.34,4.47,6.16,10.12,10.81,16.1,13.94,5.98,3.14,12.3,4.78,18.38,5.06,6.08.31,11.87-.64,17.09-2.41,5.24-1.73,9.88-4.52,13.83-7.73,3.95-3.24,7.22-6.99,9.83-11.05,2.61-4.06,4.57-8.42,5.91-12.97,1.33-4.56,2.07-9.29,2.12-14.45"/>
        <path class="cls-1" d="M391.19,311.15c-.01-11.8-3.08-22.91-8-32.11-4.92-9.24-11.63-16.64-19.02-22.14-7.39-5.53-15.56-9.1-23.69-11.04-8.15-1.94-16.3-2.21-23.98-1.19-1.92.31-3.81.65-5.67,1-1.86.48-3.69,1-5.5,1.53-.9.24-1.79.58-2.68.92-.87.34-1.75.68-2.63,1.03-1.75.63-3.43,1.52-5.09,2.36-6.64,3.41-12.62,7.87-17.78,13.18-5.16,5.32-9.53,11.5-12.88,18.48-.41.88-.88,1.73-1.24,2.64-.35.91-.71,1.83-1.07,2.75-.79,1.81-1.26,3.77-1.88,5.69-.33.96-.52,1.96-.74,2.96-.22,1-.45,2.01-.67,3.03-.18,1.02-.29,2.07-.44,3.11-.07.52-.15,1.05-.22,1.58l-.11.79-.04.8,9.3.81.03-.66.1-.65c.06-.43.12-.87.19-1.3.13-.86.21-1.72.35-2.57.18-.84.37-1.67.55-2.49.18-.83.31-1.66.58-2.45.51-1.58.84-3.22,1.49-4.72.28-.77.56-1.53.84-2.29.28-.76.67-1.46.99-2.2,2.66-5.84,6.15-11.12,10.36-15.74,4.2-4.62,9.13-8.59,14.7-11.72,1.4-.77,2.8-1.6,4.29-2.18.74-.32,1.49-.65,2.23-.97.75-.33,1.5-.66,2.28-.88,1.54-.5,3.11-1.01,4.7-1.49,1.6-.36,3.23-.7,4.89-1.04,6.62-1.11,13.72-1.11,20.9.38,7.16,1.49,14.42,4.45,21.01,9.2,6.6,4.71,12.61,11.16,17.03,19.27,4.42,8.08,7.18,17.87,7.2,28.32"/>
        <path class="cls-1" d="M352.65,311.17c-.05-6.59-1.14-12.72-3.04-18.46-1.91-5.73-4.64-11.07-8.12-15.91-3.49-4.84-7.74-9.18-12.73-12.81-4.98-3.6-10.71-6.6-16.99-8.34-6.27-1.79-13.12-2.58-20.22-1.92-1.75.22-3.56.41-5.35.76-1.76.4-3.55.85-5.37,1.34-1.76.59-3.52,1.26-5.31,1.96-1.77.73-3.46,1.66-5.21,2.56-6.84,3.82-13.26,9.34-18.34,16.54-5.07,7.17-8.76,16.09-9.95,25.94l9.27,1.12c1.03-8.52,4.28-16.21,8.75-22.34,4.47-6.16,10.12-10.82,16.09-13.95,1.54-.73,3-1.49,4.54-2.08,1.56-.55,3.09-1.07,4.61-1.54,1.57-.36,3.12-.69,4.64-.98,1.54-.25,3.1-.34,4.59-.47,6.08-.31,11.87.64,17.09,2.4,5.24,1.72,9.88,4.52,13.83,7.72,3.95,3.23,7.22,6.99,9.83,11.05,2.61,4.06,4.58,8.42,5.92,12.96,1.34,4.56,2.07,9.29,2.13,14.45"/>
        <path class="cls-1" d="M244.49,381.32c-.22-1.04-.42-2.06-.6-3.09-.17-1.04-.3-2.09-.43-3.12-.25-2.07-.44-4.11-.57-6.11-.16-1.97-.12-4.03-.09-5.99.04-1.97.14-3.91.29-5.79.42-3.86,1.03-7.54,1.9-11.05.48-1.78,1-3.51,1.56-5.18.56-1.67,1.13-3.28,1.87-4.89.83-9.14,3.62-17.38,7.75-24.05,4.1-6.69,9.39-11.86,15.06-15.22,5.67-3.37,11.67-4.95,17.18-4.94,5.51,0,10.51,1.6,14.29,4.29-3.47-3.49-8.14-6.5-13.31-8.19-2.69-.96-5.35-1.47-8.32-1.86-1.49-.19-2.88-.22-4.41-.25-1.48,0-3.11,0-4.59.19-1.56.58-3.23,1.2-4.83,1.96-1.55.79-3.14,1.66-4.75,2.62-1.51,1-3.02,2.11-4.57,3.3-.8.59-1.47,1.24-2.19,1.9-.71.66-1.43,1.34-2.15,2.05-5.61,5.69-10.38,13.04-13.62,21.72-3.27,8.7-4.75,18.74-4.11,29.31.64,10.57,3.45,21.67,8.66,32.38Z"/>
        <path class="cls-1" d="M298.82,327.21c-2.18,1.4-4.43,2.38-7.01,3.26-1.27.42-2.51.7-3.86.98-.67.13-1.36.26-2.06.36-.69.1-1.34.14-2.04.2-1.38.09-2.82.14-4.3.11-1.4-.08-2.85-.22-4.35-.42-1.53-.19-2.97-.51-4.45-.91-1.46-.4-3.06-.83-4.51-1.41-1.39-1.02-2.87-2.11-4.28-3.31-1.32-1.23-2.67-2.55-4.02-3.95-1.22-1.43-2.43-2.96-3.65-4.58-1.16-1.62-2.16-3.34-3.24-5.14-4.01-7.2-6.74-15.93-7.4-25.51-.68-9.57.7-19.93,4.43-30.15,3.72-10.21,9.8-20.29,18.24-29.19-4.74,7.85-8.11,15.82-9.91,23.8-1.93,7.86-2.26,15.72-1.56,22.84-1.41,9.22-.67,18.07,1.76,25.7,2.43,7.64,6.48,14.04,11.28,18.78,4.8,4.75,10.37,7.78,15.8,9.12,5.44,1.36,10.74,1.04,15.11-.59Z"/>
        <path class="cls-1" d="M270.49,310.62l.25-3.32c.15-1.1.39-2.18.57-3.27-10.94-2.16-21.86-4.46-32.75-6.91-.36,1.99-.7,3.99-1,6-.25,2.01-.34,4.02-.47,6.04,11.13.63,22.26,1.12,33.39,1.46Z"/>
        <path class="cls-1" d="M271.04,303.99c.22-1.09.72-2.11,1.07-3.15l.57-1.54.74-1.48c-10.2-4.43-20.2-9.46-29.94-15.04-.83,1.83-1.64,3.68-2.42,5.54-.42.93-.72,1.89-1.04,2.85l-.93,2.9c5.24,1.95,10.51,3.75,15.82,5.4,5.31,1.65,10.73,3.16,16.13,4.51Z"/>
        <path class="cls-1" d="M237.38,309.05c-.26,2-.24,4.02-.26,6.04v3.04c0,1.01.14,2.03.21,3.04,11.21-.13,22.34-.87,33.36-2.22l-.16-3.36c0-1.12.12-2.24.16-3.34-5.57-.23-11.16-.61-16.72-1.14-5.53-.53-11.06-1.22-16.59-2.06Z"/>
      </g>
    </g>
  </g>
</svg>