<?xml version="1.0" encoding="UTF-8"?>
<svg id="Layer_2" data-name="Layer 2" xmlns="http://www.w3.org/2000/svg" viewBox="0 0 862.23 701.33">
  <defs>
    <style>
      .cls-1 {
        fill: #bfbfbf;
        stroke: #000;
        stroke-linecap: round;
        stroke-width: 4.5px;
      }
    </style>
  </defs>
  <g id="Layer_2-2" data-name="Layer 2">
    <g>
      <g>
        <g>
          <g>
            <path class="cls-1" d="M42.73,8.07c31.29,49.49,23.51,88.34,57.85,142.66l-7.89,4.99C58.34,101.4,66.11,62.56,34.82,13.07"/>
            <path class="cls-1" d="M10.15,28.66c33.29,52.65,72.83,64.06,103.16,112.03l-7.89,4.99C75.09,97.71,35.54,86.31,2.25,33.66"/>
            <path class="cls-1" d="M209.31,271.54c-31.29-49.49-69.73-59.12-104.07-113.44l-7.89,4.99c34.34,54.31,72.77,63.95,104.06,113.44"/>
            <path class="cls-1" d="M176.74,292.13c-33.29-52.65-26.64-93.26-56.97-141.23l-7.89,4.99c30.33,47.97,23.67,88.59,56.96,141.24"/>
            <polygon class="cls-1" points="118.01 97.09 104.68 130.98 100.96 218.88 112.28 182.31 118.01 97.09"/>
            <polygon class="cls-1" points="50.26 133.09 88.37 140.84 166.78 177.62 130.16 171.51 50.26 133.09"/>
            <polygon class="cls-1" points="92.44 161.88 96.67 168.91 125.29 151.6 121.06 144.58 92.44 161.88"/>
            <polygon class="cls-1" points="96.89 168.74 100.67 176.02 130.31 160.55 126.54 153.27 96.89 168.74"/>
            <polygon class="cls-1" points="120.86 144.79 117.08 137.51 87.44 152.98 91.21 160.27 120.86 144.79"/>
          </g>
          <g>
            <path class="cls-1" d="M209.32,271.55c31.29,49.49,23.51,88.34,57.85,142.66l-7.89,4.99c-34.34-54.31-26.57-93.16-57.87-142.65"/>
            <path class="cls-1" d="M176.75,292.15c33.29,52.65,72.83,64.06,103.16,112.03l-7.89,4.99c-30.33-47.97-69.89-59.37-103.17-112.02"/>
            <path class="cls-1" d="M366.56,520.23c-6.19-9.79-12.61-16.75-19.62-23.04-6.99-6.27-14.55-11.83-22.61-18.18-2.01-1.59-4.06-3.22-6.13-4.92l-1.56-1.29c-.53-.45-1.11-.98-1.66-1.47-1.11-1-2.23-2.01-3.36-3.03-4.48-4.09-8.96-8.38-13.42-13.03-8.92-9.31-17.76-20.1-26.35-33.68l-7.89,4.99c8.59,13.58,17.43,24.36,26.35,33.68,4.46,4.66,8.94,8.95,13.42,13.03,1.13,1.02,2.25,2.03,3.36,3.03,1.13,1.02,2.22,1.97,3.3,2.88,2.16,1.84,4.29,3.62,6.4,5.35,8.42,6.92,16.33,13.04,23.7,19.9,7.39,6.89,14.22,14.49,20.87,25.02"/>
            <path class="cls-1" d="M345.04,558.3c-8.65-13.68-15.18-27.2-20.14-39.84-4.98-12.67-8.42-24.51-11.35-35.53-.72-2.74-1.44-5.46-2.16-8.19-.79-2.83-1.6-5.65-2.44-8.48-1.68-5.65-3.48-11.3-5.56-16.98-4.16-11.38-9.43-22.91-17.02-34.9l-7.89,4.99c7.58,11.99,12.85,23.53,17.01,34.9,2.08,5.69,3.88,11.34,5.56,16.99,1.69,5.67,3.19,11.24,4.84,17.04,3.29,11.59,7.09,24,12.47,37.3,5.36,13.27,12.32,27.48,21.46,41.94"/>
            <polygon class="cls-1" points="284.61 360.58 271.28 394.47 267.56 482.37 278.88 445.79 284.61 360.58"/>
            <polygon class="cls-1" points="216.86 396.58 254.97 404.33 333.38 441.11 296.76 434.99 216.86 396.58"/>
            <polygon class="cls-1" points="259.03 425.37 263.26 432.39 291.88 415.09 287.65 408.06 259.03 425.37"/>
            <polygon class="cls-1" points="263.49 432.23 267.27 439.51 296.9 424.04 293.14 416.75 263.49 432.23"/>
            <polygon class="cls-1" points="287.46 408.28 283.68 401 254.03 416.47 257.81 423.75 287.46 408.28"/>
          </g>
          <g>
            <path class="cls-1" d="M366.57,520.24c6.24,9.87,10.78,20.31,14.96,31.77,6.16,16.95,11.53,36.21,18.89,56.8,3.66,10.27,7.8,20.85,12.62,31.38,4.81,10.52,10.31,21,16.52,30.83l-.35,13.82c-6.52-9.89-12.38-19.89-17.57-30.12-1.3-2.56-2.55-5.13-3.77-7.71-.61-1.26-1.2-2.64-1.78-4.02-.57-1.38-1.14-2.75-1.71-4.11-2.24-5.48-4.33-10.91-6.31-16.27-7.91-21.47-13.79-41.52-20.52-59.37-4.55-12.06-9.5-23.14-16.21-33.76"/>
            <path class="cls-1" d="M345.05,558.32c8.19,12.96,16.2,22.75,23.62,30.11,6.04,6.01,11.74,10.55,17.12,14.28,5.38,3.74,10.45,6.7,15.3,9.77,4.85,3.07,9.49,6.25,14.13,10.57,4.64,4.33,9.28,9.8,14.27,17.7l-.47,16.74c-5.34-8.44-10.29-14.4-15.22-19.2-4.93-4.79-9.85-8.4-14.98-11.91-1.3-.88-2.59-1.75-3.88-2.62-1.31-.88-2.64-1.72-3.96-2.75-2.72-1.99-5.44-3.98-8.21-6-5.65-4.15-11.7-8.9-18.07-15.35-7.8-7.95-16.22-18.4-24.88-32.09"/>
            <path class="cls-1" d="M498.84,531.94c-6.17,9.81-10.76,20.32-15.03,31.93-4.26,11.59-8.17,24.23-12.59,37.68-4.41,13.43-9.31,27.66-15.3,41.99-2.99,7.16-6.24,14.34-9.79,21.39-1.77,3.52-3.62,7.02-5.54,10.45-.96,1.72-1.94,3.42-2.94,5.1-.13.21-.23.43-.39.62-.16.18-.4.29-.64.29-.24,0-.47-.09-.63-.26-.15-.18-.26-.38-.39-.58-.51-.79-1.02-1.59-1.54-2.4l-.11,13.89c.55.82,1.09,1.64,1.62,2.44.14.2.26.41.41.59.16.18.41.28.66.28.25,0,.5-.1.67-.28.16-.18.27-.41.41-.61,1.05-1.68,2.08-3.34,3.09-4.97,2.03-3.31,3.98-6.64,5.86-9.97,1.88-3.34,3.7-6.71,5.45-10.09.87-1.69,1.73-3.39,2.57-5.09.42-.86.84-1.71,1.25-2.56l.62-1.28c.2-.43.4-.93.6-1.38,6.39-14.97,11.66-29.77,16.42-43.76,4.77-14.01,9.04-27.21,13.67-39.39,4.65-12.21,9.65-23.36,16.27-33.9"/>
            <path class="cls-1" d="M518.15,573.63c-4.3,6.84-8.54,12.78-12.65,17.91-4.12,5.11-8.11,9.4-11.94,13.09-7.64,7.5-14.7,12.2-21.22,16.19-6.54,3.99-12.57,7.17-18.51,11.79-2.97,2.32-5.92,5-8.93,8.39-1.51,1.69-3.03,3.57-4.58,5.66-.78,1.05-1.56,2.15-2.36,3.32l-.6.89c-.15.32-.52.57-.91.48-.41-.07-.58-.48-.78-.8l-.61-.98-.08,17.34.65,1.04c.21.33.4.78.83.85.41.1.8-.17.97-.51l.64-.95c.85-1.25,1.69-2.44,2.52-3.57,1.66-2.26,3.29-4.3,4.89-6.15,3.21-3.71,6.36-6.7,9.51-9.31,3.16-2.61,6.32-4.84,9.57-7,3.24-2.2,6.6-4.05,9.96-6.87,6.77-5.19,14.15-10.3,22.3-17.93,2.03-1.93,4.12-3.97,6.23-6.25,2.1-2.31,4.25-4.8,6.43-7.5,4.33-5.48,8.8-11.78,13.34-19.01"/>
            <path class="cls-1" d="M418.17,571.82c1.02,19.94,2.75,41,5.2,63.2,2.44,11.67,5.13,23.74,8.08,36.22,1.49,6.22,2.97,12.62,4.66,18.99.15.36.34.66.52.91l.14.18s.09.05.14.07c.09.04.17.06.25.07.3.03.44-.08.66-.12l1.22-.31c.82-.19,1.65-.36,2.49-.51,6.71-1.15,14.13-.78,22.67.39-3.22-2.69-6.1-5.4-8.89-7.74-2.77-2.36-5.38-4.47-7.81-6.32l-1.22.1c-.1.05-.2-.06-.31-.14l-.31-.25-.62-.5c-.82-.67-1.62-1.37-2.4-2.09-1.57-1.44-3.08-2.98-4.53-4.62l-1.19-1.36c-.31-.36-.69-.93-.91-1.67-.2-.75-.36-1.53-.54-2.29l-2.03-9.11c-1.33-6.03-2.59-11.95-3.79-17.78-4.81-23.32-8.64-45.09-11.49-65.31Z"/>
            <path class="cls-1" d="M402.91,679.55c3.5-2.39,6.79-4.58,9.87-6.56,1.53-1,3-1.97,4.44-2.85l2.12-1.28,1.03-.6.51-.29.25-.14s.08-.04.13-.08l.13-.2c3.61-1.55,6.99-3.49,10.12-5.8,1.57-1.16,3.06-2.4,4.53-3.77.23-.2.63-.6.93-1.21.31-.62.42-1.42.61-2.14l1.04-4.39,2.02-8.68c5.25-22.95,9.55-44.39,12.89-64.29-1.64,19.95-4.06,41.13-7.25,63.54-2.65,11.57-5.54,23.53-8.68,35.88-.19.76-.37,1.6-.77,2.13-.37.55-.78.82-.95.94l-1.22.81c-.82.53-1.66,1.03-2.52,1.52l-1.29.7c-.43-.04-.86-.26-1.3-.37-.87-.27-1.75-.52-2.63-.75-7.11-1.84-14.95-2.25-24-2.11Z"/>
            <path class="cls-1" d="M431.91,692.67l2.26,3.4,1.13,1.7.56.85c.17.29.52.48.88.46l.15-8.91.12-15.69.14-31.42c-.19.2-.51.27-.78.16-.29-.09-.43-.39-.58-.64l-.92-1.53-1.83-3.06-.58,30.36-.31,15.16-.24,9.16Z"/>
            <path class="cls-1" d="M436.72,698.8c.36.02.66-.19.82-.45l.56-.74,1.12-1.47,2.25-2.94.2-9.36.06-15.75v-31.31s-3.66,4.49-3.66,4.49l-.46,32.05-.3,16.11-.05,1.85-.06,1.1-.14,2.17-.33,4.25Z"/>
            <polygon class="cls-1" points="433.06 638.55 429.43 631.52 427.87 660.23 427.03 674.49 426.92 676.27 426.83 677.5 426.66 679.62 426.31 683.87 430.79 691.22 431.07 687.14 431.2 685.1 431.27 684.09 431.3 683.53 431.34 682.62 431.95 667.99 433.06 638.55"/>
          </g>
          <g>
            <path class="cls-1" d="M498.85,531.92c6.17-9.81,12.47-16.62,19.31-22.69,6.83-6.04,14.17-11.29,22.01-17.34,3.92-3.02,7.96-6.23,12.09-9.79,2.07-1.78,4.15-3.65,6.26-5.62.53-.5,1.05-1,1.58-1.5.55-.55,1.11-1.1,1.66-1.66,1.11-1.12,2.23-2.27,3.34-3.43,8.9-9.34,17.71-20.15,26.26-33.75l7.91,4.97c-8.55,13.6-17.36,24.41-26.26,33.75-8.96,9.44-17.65,16.84-25.84,23.44-8.2,6.62-15.88,12.43-23.09,19.07-7.22,6.67-13.92,14.12-20.55,24.67"/>
            <path class="cls-1" d="M518.16,573.61c8.61-13.7,15.21-27.4,20.29-40.3,5.1-12.93,8.72-25.1,11.82-36.45,1.49-5.51,2.96-10.98,4.45-16.51.74-2.68,1.46-5.27,2.25-7.91.91-2.83,1.88-5.67,2.91-8.51,4.13-11.39,9.38-22.93,16.93-34.94l7.91,4.97c-7.55,12.01-12.79,23.56-16.93,34.95-1.03,2.85-2,5.68-2.91,8.52-.87,2.76-1.69,5.52-2.51,8.33-1.67,5.82-3.32,11.57-4.99,17.36-3.46,11.93-7.44,24.67-12.94,38.23-5.48,13.53-12.5,27.91-21.61,42.4"/>
            <path class="cls-1" d="M653.51,285.95c-31.17,49.57-23.29,88.4-57.49,142.8l7.91,4.97c34.2-54.4,26.34-93.23,57.5-142.8"/>
            <path class="cls-1" d="M686.13,306.46c-33.15,52.73-72.67,64.24-102.88,112.29l7.91,4.97c30.21-48.05,69.74-59.55,102.89-112.28"/>
            <polygon class="cls-1" points="535.46 443.53 571.79 440.95 652.71 406.42 614.82 411.97 535.46 443.53"/>
            <polygon class="cls-1" points="597.15 489.14 587.71 451.42 587.1 364.81 597.37 400.49 597.15 489.14"/>
            <polygon class="cls-1" points="604.94 438.68 609.46 431.84 581.51 413.47 576.99 420.32 604.94 438.68"/>
            <polygon class="cls-1" points="609.21 431.7 614.15 425.15 587.42 405.08 582.47 411.62 609.21 431.7"/>
            <polygon class="cls-1" points="577.27 420.4 572.33 426.95 599.07 447.03 604.01 440.48 577.27 420.4"/>
          </g>
          <g>
            <path class="cls-1" d="M653.52,285.93c31.17-49.57,69.58-59.3,103.78-113.7l7.91,4.97c-34.2,54.4-72.6,64.14-103.77,113.71"/>
            <path class="cls-1" d="M686.14,306.45c33.15-52.73,26.4-93.33,56.61-141.38l7.91,4.97c-30.21,48.05-23.45,88.65-56.6,141.39"/>
            <path class="cls-1" d="M819.44,22.04c-31.17,49.57-23.29,88.4-57.49,142.8l7.91,4.97c34.2-54.4,26.34-93.23,57.5-142.8"/>
            <path class="cls-1" d="M852.06,42.56c-33.15,52.73-72.67,64.24-102.88,112.29l7.91,4.97c30.21-48.05,69.74-59.55,102.89-112.28"/>
            <polygon class="cls-1" points="701.39 179.62 737.72 177.04 818.64 142.51 780.75 148.07 701.39 179.62"/>
            <polygon class="cls-1" points="763.08 225.24 753.64 187.51 753.03 100.91 763.3 136.58 763.08 225.24"/>
            <polygon class="cls-1" points="770.87 174.77 775.39 167.93 747.44 149.56 742.92 156.41 770.87 174.77"/>
            <polygon class="cls-1" points="775.14 167.79 780.08 161.25 753.35 141.18 748.4 147.72 775.14 167.79"/>
            <polygon class="cls-1" points="743.2 156.49 738.26 163.05 765 183.12 769.95 176.57 743.2 156.49"/>
          </g>
        </g>
        <g>
          <g>
            <path class="cls-1" d="M261.31,2.25c18.87,61.78,1.97,100.02,22.69,167.82l-8.93,2.73c-20.71-67.8-3.83-106.04-22.7-167.82"/>
            <path class="cls-1" d="M224.46,13.51c20.08,65.72,56.13,90.21,74.43,150.09l-8.93,2.73c-18.29-59.88-54.36-84.36-74.44-150.08"/>
            <path class="cls-1" d="M351.88,298.7c-3.73-12.22-8.15-20.82-13.19-28.54-5.03-7.69-10.67-14.44-16.61-22.2-5.93-7.73-12.17-16.46-18.25-27.57-3.04-5.55-6.03-11.69-8.89-18.5-1.43-3.41-2.83-6.99-4.19-10.74-.68-1.88-1.34-3.79-2-5.76-.32-.98-.64-1.98-.97-2.98-.32-1.04-.65-2.09-.98-3.15l-8.93,2.73c.33,1.06.66,2.11.98,3.15.34,1.06.69,2.11,1.03,3.16.69,2.08,1.39,4.12,2.11,6.11,1.43,3.99,2.9,7.79,4.4,11.42,3,7.26,6.12,13.81,9.27,19.75,6.32,11.91,12.77,21.35,18.92,29.79,6.16,8.46,12,15.91,17.26,24.35,5.27,8.47,9.92,17.87,13.94,31"/>
            <path class="cls-1" d="M326.74,348.28c-5.22-17.07-8.61-34.04-10.8-49.96-2.2-15.95-3.19-30.91-3.88-44.85-.7-13.97-1.08-26.93-2.23-39.44-.57-6.26-1.34-12.42-2.45-18.61-.56-3.1-1.2-6.2-1.95-9.34-.37-1.57-.78-3.15-1.21-4.74-.22-.79-.45-1.59-.67-2.39-.26-.87-.52-1.74-.78-2.62l-8.93,2.73c.27.9.54,1.8.8,2.69.24.86.48,1.71.72,2.56.46,1.7.9,3.38,1.31,5.06.81,3.35,1.52,6.66,2.13,9.96,1.23,6.59,2.11,13.13,2.8,19.76,1.37,13.25,1.97,26.91,2.88,41.58.9,14.65,2.12,30.33,4.55,47.07,2.42,16.7,6.08,34.52,11.6,52.57"/>
            <path class="cls-1" d="M313.89,119.4l-21.16,31.29-6.16,22.73c-2.04,7.62-4.16,14.98-6.04,23.11-3.79,16.17-6.97,34.37-9.53,54.59,5.17-16.28,10.84-30.95,17-44,1.96-7.95,4.07-15.42,6.33-22.4l1.71-5.18,1.62-5.47,3.24-10.93,12.98-43.74Z"/>
            <path class="cls-1" d="M238.87,135.65l35.51,20.2,17.03,15.85,4.26,3.96,2.13,1.98c.7.64,1.44,1.37,2.1,1.9,2.73,2.27,5.41,4.42,8.07,6.46,10.61,8.14,20.64,14.37,30.09,18.71-9.82-.55-20.1-2.63-30.86-6.25-5.35-4.09-10.84-8.68-16.49-13.76-1.41-1.26-2.83-2.57-4.28-3.96l-4.32-4.1-8.65-8.2-34.59-32.79Z"/>
            <path class="cls-1" d="M273.35,179.18l2.49,8.78c10.7-3.12,21.39-6.29,32.06-9.51l-2.36-8.34-32.19,9.06Z"/>
            <path class="cls-1" d="M276.11,187.86l2.11,9.28c10.71-2.94,21.36-6.08,31.95-9.43l-1.54-7.47c-10.78,2.75-21.62,5.29-32.52,7.62Z"/>
            <polygon class="cls-1" points="305.3 170.28 303.33 161.45 270.57 168.28 272.54 177.1 305.3 170.28"/>
          </g>
          <g>
            <path class="cls-1" d="M351.89,298.72c4.32,14.15,6.58,29.39,8.38,46.44,1.79,17,3.09,35.72,5.11,55.56,1.44,14.32,3.27,29.21,5.82,44.1,2.55,14.87,5.83,29.76,10.05,43.56l-2.96,19.82c-4.52-14.07-8.15-29-10.96-44.27-1.42-7.61-2.59-15.48-3.65-23.15-1.05-7.69-1.96-15.3-2.78-22.76-2.28-20.67-3.83-40.18-5.87-58.03-2.06-17.9-4.59-34.04-9.24-49.25"/>
            <path class="cls-1" d="M326.74,348.3c5.8,18.98,12.09,32.37,18.21,41.98,6.14,9.66,12.12,15.62,17.69,21.02,4.46,4.33,8.66,8.32,12.58,13.98,3.93,5.67,7.57,12.98,11.08,24.46l-3.23,21.39c-3.75-12.27-7.61-20.29-11.74-26.62-4.13-6.32-8.52-10.93-13.17-15.89-5.81-6.18-12.03-12.92-18.43-23.43-6.38-10.46-12.96-24.78-19.09-44.84"/>
            <path class="cls-1" d="M431.56,559.5c-3.73-12.22-7.06-17.25-10.46-19.62-3.39-2.33-6.85-1.95-10.61-2.57-3.75-.59-7.81-2.18-12.25-7.94-4.43-5.73-9.26-15.68-14.27-32.09l-2.76,20.04c2.68,8.37,5.27,15.32,7.74,21.35,1.24,3.01,2.44,5.79,3.62,8.37.59,1.26,1.17,2.51,1.74,3.73.29.59.57,1.19.85,1.77l.42.87c.14.28.29.44.44.66,4.68,6.55,8.96,8.87,12.93,10.17,3.98,1.32,7.65,1.64,11.27,4.73,3.63,3.12,7.2,8.95,11.21,22.09"/>
            <path class="cls-1" d="M431.05,675.73c-5.1-15.81-9.53-31.53-13.48-48-.49-2.09-.98-4.15-1.46-6.2-.24-1.05-.48-2.08-.71-3.12l-.18-.79-.17-1.01-.33-2.02c-.88-5.4-1.73-10.82-2.54-16.23-1.63-10.82-3.14-21.61-4.58-32.15-2.88-21.1-5.44-41.2-8.22-59.06-2.79-17.89-5.77-33.5-9.72-46.41l-3,22.14c4.22,13.8,7.44,30.2,10.45,48.83,1.5,9.31,2.95,19.15,4.4,29.4.74,5.24,1.47,10.46,2.2,15.66l.56,4,.28,2,.31,1.61c.41,2.13.83,4.26,1.25,6.4,3.34,17.01,6.92,33.46,11.06,49.21,4.05,15.71,8.59,30.61,13.82,45.48"/>
            <path class="cls-1" d="M388.09,362.24c-2.48,25.41-4.52,52.22-6.14,80.46.15,14.79.45,30.08.91,45.88.23,7.9.5,15.93.8,24.08.06,2.17.2,3.74.31,5.54l.37,5.25.79,10.42c1.1,13.82,2.38,27.33,3.86,40.54,1.46,13.16,3.01,25.82,4.75,38.16-.91-11.75-1.7-23.81-2.37-36.18-.66-12.35-1.25-25.12-1.64-38.05l-.39-5.07c-.04-.38-.05-.93-.07-1.45l-.06-1.55-.12-3.1-.46-12.27c-.28-8.12-.53-16.11-.74-23.99-.42-15.75-.7-31.02-.82-45.8-.25-29.56.09-57.18,1.03-82.86Z"/>
            <path class="cls-1" d="M354.55,510.3c1.87-2.08,3.69-4.1,5.47-6.3,1.78-2.22,3.51-4.42,5.19-6.61,1.68-2.19,3.32-4.37,4.9-6.54l2.34-3.24,1.14-1.62.56-.81c.19-.29.36-.48.57-.87,13.63-8.59,24.93-24.77,33.91-48.56-3.93,18.72-8.33,35.92-13.19,51.58-2.85,4.09-5.84,7.68-8.99,10.78-1.57,1.55-3.19,2.98-4.84,4.28l-1.24.95c-.4.16-.78.21-1.17.33l-2.4.65c-1.63.46-3.31.96-5.05,1.51-1.74.53-3.54,1.01-5.4,1.55l-5.74,1.61-1.49.42c-.5.15-1,.28-1.51.36l-3.07.54Z"/>
            <polygon class="cls-1" points="379.05 520.09 381.82 528.89 392 453.71 389.85 446.05 379.05 520.09"/>
            <polygon class="cls-1" points="381.88 528.36 384.52 538 386.62 523.47 389.31 503.76 394.61 464.09 392.61 455.13 387.03 493.9 384.21 513.17 381.88 528.36"/>
            <polygon class="cls-1" points="389.78 446.78 387.81 437.97 381.61 474.69 378.47 492.93 375.69 508.54 378.3 518.33 380.85 503.11 383.85 484.41 389.78 446.78"/>
          </g>
          <g>
            <path class="cls-1" d="M431.57,559.51c.47,1.53.93,3.13,1.38,4.79.06.2.1.43.24.59.13.17.33.27.52.3.19.02.39-.02.52-.13.14-.11.18-.27.24-.44.24-.63.47-1.25.71-1.87.93-2.39,1.85-4.38,2.74-6.05,1.79-3.33,3.53-5.37,5.25-6.64,3.45-2.53,6.86-2.02,10.52-2.31,3.65-.27,7.55-1.35,11.84-6.65,4.28-5.28,8.97-14.84,14-31.39l2.13,17.56c-2.63,8.52-5.17,16.09-7.6,22.9-1.22,3.41-2.41,6.63-3.57,9.69-.58,1.51-1.16,3-1.73,4.48-.29.72-.57,1.44-.85,2.15l-.42,1.06c-.07.21-.14.25-.21.36l-.21.28c-4.47,5.91-8.54,7.53-12.35,8.34-3.82.83-7.4.85-11.02,3.95-1.81,1.55-3.63,3.88-5.52,7.53-.94,1.82-1.9,3.97-2.89,6.53-.25.66-.49,1.32-.74,1.99-.06.17-.11.35-.26.47-.14.13-.35.17-.55.15-.2-.03-.42-.13-.56-.32-.15-.18-.19-.41-.25-.63-.49-1.77-.98-3.48-1.48-5.13"/>
            <path class="cls-1" d="M431.06,675.75c.64,1.95,1.27,3.87,1.89,5.76.16.49.85.67,1.3.39.24-.13.37-.36.44-.62l.23-.77c.31-1.03.61-2.05.91-3.07,1.2-4.09,2.37-8.15,3.49-12.19,2.25-8.07,4.34-16.04,6.3-23.9.49-1.98.97-3.94,1.44-5.88.24-.98.47-1.95.7-2.92l.17-.74.17-1.03.34-2.07c.91-5.52,1.79-11.08,2.64-16.64,1.71-11.13,3.31-22.29,4.86-33.25,3.1-21.94,5.95-43.07,9-61.93,3.06-18.88,6.31-35.46,10.39-48.88l2.12,25.15c-4.28,14.09-7.71,31.27-10.94,50.72-1.61,9.72-3.17,19.98-4.73,30.64-.79,5.44-1.57,10.85-2.36,16.25l-.59,4.14-.3,2.06-.3,1.41c-.41,1.88-.81,3.76-1.22,5.65-3.27,15.09-6.79,30.51-10.88,46.37-2.05,7.93-4.23,15.97-6.58,24.12-1.17,4.07-2.39,8.18-3.65,12.3-.31,1.03-.63,2.06-.95,3.1-.2.49-.2,1.12-.69,1.37-.46.26-1.15.09-1.32-.37-.63-1.78-1.28-3.58-1.93-5.42"/>
            <path class="cls-1" d="M516.58,293.71c-3.95,13.01-6.62,27.66-8.86,43.86-2.24,16.18-4.04,33.86-6.08,52.35-2.04,18.47-4.32,37.74-7.4,56.69-3.07,18.93-6.95,37.58-11.98,54.13l2.25,17.28c2.63-8.52,4.97-16.8,7.05-24.86,1.04-4.03,2.02-8.01,2.95-11.94.45-1.98.9-3.93,1.34-5.85.22-.97.43-1.94.64-2.9l.31-1.44c.1-.49.21-1.19.31-1.77,3.26-19.55,5.71-39.36,7.91-58.36,2.21-19.02,4.17-37.23,6.58-53.96,2.42-16.76,5.27-32.02,9.43-45.73"/>
            <path class="cls-1" d="M534.92,358.61c-5.14,16.55-10.41,29.87-15.5,41.32-.64,1.42-1.28,2.82-1.9,4.21-.32.69-.63,1.37-.95,2.05l-.24.5-.24.31-.47.61c-1.26,1.61-2.5,3.05-3.73,4.35-2.46,2.6-4.88,4.67-7.23,6.54-4.71,3.75-9.17,6.7-13.44,11.92-4.27,5.24-8.33,12.73-12.41,26.15l2.29,24.58c4.28-14.09,8.52-22.17,12.96-27.97,2.22-2.89,4.48-5.2,6.8-7.33,1.16-1.06,2.33-2.08,3.52-3.1l.89-.77c.15-.13.3-.24.45-.4l.45-.88c.6-1.17,1.21-2.34,1.81-3.51,4.86-9.4,9.96-19.13,15.24-30.73,5.28-11.59,10.74-25.05,16.11-41.77"/>
            <path class="cls-1" d="M460.71,422.35c3.47,22.27,7.26,43.48,11.38,63.62,2.62,5.75,5.35,11.12,8.21,16.1,1.43,2.49,2.88,4.89,4.36,7.19l.28.43.07.11s.05-.04.07-.06l.14-.14.56-.55,1.12-1.11,2.28-2.24c6.13-6.01,12.74-12.38,19.81-19.09-6.11,1.57-11.84,2.86-17.21,3.87l-1.13,1.02-.07.06s-.02.02-.03.03l-.04-.05-.14-.21-.28-.43-.56-.87c-.74-1.16-1.48-2.34-2.21-3.55-1.46-2.41-2.9-4.91-4.3-7.51-2.81-5.19-5.51-10.74-8.1-16.67-5.18-11.85-9.91-25.16-14.2-39.94Z"/>
            <path class="cls-1" d="M471.79,592.64c.88-9.02,1.67-17.97,2.35-26.85l.96-13.26.42-6.59.2-3.28.1-1.64.05-.82.02-.43.02-.83c4.58-68.54,7.42-131.34,8.5-188.37.9,28.8,1.44,58.75,1.63,89.87-.72,15.85-1.56,32.08-2.51,48.68l-1.51,25.18-.4,6.38-.03.37-.03.23-.05.46-.1.93-.21,1.86-.87,7.44c-2.39,19.89-5.23,40.11-8.54,60.68Z"/>
            <path class="cls-1" d="M484.13,524.81l2.77-8.58-1-3.52-.5-1.76-.25-.88-.06-.22c-.02-.1-.04-.07-.06-.37l-.13-1.38-2.04-22.04-4.09-44.04-2.35,7.11,3.88,44.73,1.94,22.39.12,1.4.06.7.06.23.24.89.47,1.78.95,3.56Z"/>
            <path class="cls-1" d="M486.82,516.02l2.9-8.13-.96-3.75-.48-1.87-.24-.94-.12-.47-.06-.23c-.01-.06-.02-.03-.03-.16l-.03-.35-1.98-22.12-4.02-44.07-2.49,5.73,3.81,44.77,1.88,22.47.12,1.41c.04.45.08,1.06.12,1.08l.23.95.46,1.89.91,3.79Z"/>
            <polygon class="cls-1" points="476.5 449.8 474.04 455.5 477.38 501.82 479.03 525.06 479.23 527.97 479.28 528.67 479.33 528.91 479.43 529.4 479.83 531.33 480.62 535.21 483.49 527.1 482.65 523.26 482.23 521.34 482.01 520.38 481.96 520.14 481.93 520.02 481.92 519.96 481.91 519.78 481.8 518.35 480.05 495.44 476.5 449.8"/>
          </g>
          <g>
            <path class="cls-1" d="M516.58,293.69c3.95-13.01,8.25-21.27,12.93-27.87,4.68-6.58,9.74-11.48,15.04-17.17,5.3-5.68,10.84-12.15,16.36-21.51,5.51-9.33,11.02-21.59,16.05-38.14l6.62,7.75c-2.63,8.52-5.37,16.24-8.17,23.33-1.4,3.54-2.81,6.93-4.22,10.18-.72,1.61-1.43,3.2-2.13,4.77-.36.78-.71,1.55-1.07,2.32l-.53,1.14c-.18.37-.36.65-.53.97-5.7,9.96-11.41,16.98-16.86,23.19-5.46,6.23-10.68,11.65-15.53,18.8-4.86,7.17-9.33,16.03-13.5,29.74"/>
            <path class="cls-1" d="M534.93,358.59c5.14-16.55,8.79-32.09,11.46-46.89.32-1.86.64-3.7.96-5.52.15-.92.3-1.83.45-2.73l.11-.68.11-.82.21-1.64c.56-4.36,1.06-8.69,1.53-12.99.94-8.6,1.72-17.06,2.45-25.32,1.46-16.54,2.67-32.27,4.49-47.08,1.83-14.83,4.26-28.71,8.34-42.13l6.61,10.38c-4.28,14.09-6.89,28.57-8.89,43.96-1,7.69-1.84,15.59-2.63,23.72-.39,4.13-.78,8.24-1.17,12.34l-.29,3.13-.15,1.57-.15,1.29c-.2,1.73-.4,3.45-.6,5.18-1.62,13.86-3.49,28.04-6.34,42.98-2.85,14.93-6.69,30.62-12.06,47.34"/>
            <path class="cls-1" d="M600.88,16.21c-3.95,13.01-5.8,24.96-6.81,37.11-1,12.12-1.17,24.41-1.57,37.49-.4,13.07-1.04,26.93-2.89,41.84-1.84,14.87-4.9,30.83-9.93,47.38l6.75,7.48c2.63-8.52,4.76-16.64,6.49-24.43.86-3.9,1.62-7.71,2.3-11.45.34-1.87.65-3.72.94-5.56.14-.92.28-1.83.42-2.74.14-.9.27-1.81.4-2.8,2.03-15.5,2.84-29.91,3.4-43.51.57-13.61.89-26.42,2.07-39.11,1.18-12.71,3.21-25.27,7.38-38.98"/>
            <path class="cls-1" d="M637.75,27.41c-5.14,16.55-11.24,30.48-17.57,42.86-.8,1.54-1.6,3.06-2.39,4.57-.8,1.5-1.6,3.01-2.41,4.36-1.61,2.77-3.23,5.43-4.84,8-3.23,5.14-6.47,9.9-9.64,14.47-6.35,9.15-12.46,17.5-17.95,26.77-5.5,9.29-10.38,19.48-14.46,32.9l6.78,9.81c4.28-14.09,9.34-24.87,15.01-34.73,2.83-4.92,5.82-9.59,8.9-14.25,1.58-2.34,3.14-4.67,4.71-7l1.2-1.77.6-.89.6-.99c.81-1.32,1.62-2.65,2.43-3.98,6.51-10.64,13.26-21.6,19.79-34.12,6.51-12.51,12.8-26.6,18.17-43.31"/>
            <path class="cls-1" d="M537.31,170.24c8.17,6.79,16.67,12.52,25.49,17.17,4.62-.85,9.37-2.09,14.22-3.71,2.43-.81,4.89-1.72,7.37-2.72.62-.11,1.24-.87,1.87-1.38l1.88-1.67,3.79-3.37c10.17-9.03,20.81-18.41,31.92-28.14-10.8,5.07-21.22,9.87-31.28,14.38l-1.89,1.58c-.16.16-.31.2-.47.27l-.47.19-.94.38c-1.25.5-2.49.98-3.73,1.43-2.47.91-4.91,1.73-7.33,2.45-4.83,1.45-9.55,2.53-14.15,3.25-9.21,1.43-17.98,1.4-26.3-.11Z"/>
            <path class="cls-1" d="M585.21,253.53c-1.38-7.33-2.85-14.6-4.43-21.78-.79-3.59-1.6-7.17-2.43-10.73l-2.58-10.78c-2.88-43.97-7.51-82.2-13.89-114.66,5.33,14.21,10.31,29.57,14.93,46.09,1.16,9.66,2.2,19.7,3.13,30.11.47,5.2.9,10.5,1.31,15.89l.3,4.06.29,3.22.54,6.38c1.4,17.06,2.34,34.45,2.82,52.19Z"/>
            <path class="cls-1" d="M587.76,193.02l2.86-8.64-3.02-2.02-1.51-1.01-.76-.5c-.13-.11-.25-.12-.38-.3l-.38-.55-6.06-8.82-12.13-17.6-2.43,7.39,11.91,18.3,5.95,9.17.37.57.19.29.19.13.74.51,1.48,1.03,2.97,2.05Z"/>
            <path class="cls-1" d="M590.4,184.26l3.23-8.38-2.98-2.25-1.49-1.12-.75-.56-.37-.28c-.12-.11-.25-.13-.37-.37l-5.98-8.95c-4-5.95-8-11.86-12.02-17.73l-2.83,6.86,11.82,18.43,5.88,9.3.37.58c.12.19.24.43.37.48l.73.57,1.46,1.14,2.92,2.29Z"/>
            <path class="cls-1" d="M564.18,161.19l-2.79,6.8,11.35,19.97,5.65,10.07.7,1.26c.06.1.12.22.18.3l.18.15.35.3,1.4,1.19,2.81,2.37,3.21-8.36-2.86-2.34-1.43-1.17-.72-.58c-.12-.12-.24-.15-.36-.33l-.36-.61-5.75-9.73-11.56-19.29Z"/>
          </g>
        </g>
      </g>
      <g>
        <g>
          <path class="cls-1" d="M463.72,11.78c0,62.6-27.34,93.27-27.34,161.98h-9.34c0-68.71,27.33-99.37,27.33-161.98"/>
          <path class="cls-1" d="M425.18,11.78c0,66.6,27.32,99.51,27.32,160.19h-9.34c0-60.68-27.34-93.59-27.34-160.19"/>
          <path class="cls-1" d="M463.72,345.06c0-62.6-27.34-93.27-27.34-161.98h-9.34c0,68.7,27.33,99.38,27.33,161.98"/>
          <path class="cls-1" d="M425.18,345.06c0-66.6,27.32-99.51,27.32-160.19h-9.34c0,60.68-27.34,93.59-27.34,160.19"/>
          <polygon class="cls-1" points="479.78 135.25 450.4 158.26 400.27 235.57 429.39 208.98 479.78 135.25"/>
          <polygon class="cls-1" points="403.28 129.07 431.34 157.85 477.96 235.89 450.27 209.44 403.28 129.07"/>
          <rect class="cls-1" x="435.78" y="167.2" width="8.77" height="33.45" transform="translate(247.24 620.22) rotate(-88.82)"/>
          <polygon class="cls-1" points="423.63 187.93 422.94 196.67 456.25 199.62 456.96 190.88 423.63 187.93"/>
          <polygon class="cls-1" points="456.69 179.98 457.38 171.24 424.06 168.29 423.36 177.03 456.69 179.98"/>
        </g>
        <g>
          <path class="cls-1" d="M463.72,345.09c0,62.6-27.34,93.27-27.34,161.98h-9.34c0-68.71,27.33-99.37,27.33-161.98"/>
          <path class="cls-1" d="M425.18,345.09c0,66.6,27.32,99.51,27.32,160.19h-9.34c0-60.68-27.34-93.59-27.34-160.19"/>
          <path class="cls-1" d="M463.72,678.37c0-62.6-27.34-93.27-27.34-161.98h-9.34c0,68.7,27.33,99.38,27.33,161.98"/>
          <path class="cls-1" d="M425.18,678.37c0-66.6,27.32-99.51,27.32-160.19h-9.34c0,60.68-27.34,93.59-27.34,160.19"/>
          <polygon class="cls-1" points="479.78 468.56 450.4 491.57 400.27 568.88 429.39 542.29 479.78 468.56"/>
          <polygon class="cls-1" points="403.28 462.38 431.34 491.15 477.96 569.2 450.27 542.75 403.28 462.38"/>
          <rect class="cls-1" x="435.78" y="500.51" width="8.77" height="33.45" transform="translate(-85.99 946.69) rotate(-88.82)"/>
          <polygon class="cls-1" points="423.63 521.24 422.94 529.98 456.25 532.93 456.96 524.19 423.63 521.24"/>
          <polygon class="cls-1" points="456.69 513.29 457.38 504.55 424.06 501.59 423.36 510.33 456.69 513.29"/>
        </g>
      </g>
    </g>
  </g>
</svg>