<?xml version="1.0" encoding="UTF-8"?>
<svg id="Layer_2" data-name="Layer 2" xmlns="http://www.w3.org/2000/svg" viewBox="0 0 966.11 1090.39">
  <defs>
    <style>
      .cls-1 {
        fill: #bfbfbf;
        stroke: #000;
        stroke-linecap: round;
        stroke-width: 4.5px;
      }
    </style>
  </defs>
  <g id="Layer_2-2" data-name="Layer 2">
    <g>
      <g>
        <g>
          <path class="cls-1" d="M51.5,1088.14c-.37-82.37,26.79-122.85,26.38-213.25l9.34-.04c.41,90.41-26.74,130.88-26.37,213.25"/>
          <path class="cls-1" d="M90.03,1087.97c-.39-87.63-27.91-130.81-28.27-210.65l9.34-.04c.36,79.84,27.89,123.02,28.28,210.65"/>
          <path class="cls-1" d="M49.53,649.61c.37,82.37,27.89,122.61,28.29,213.01l9.34-.04c-.41-90.4-27.91-130.63-28.28-213.01"/>
          <path class="cls-1" d="M88.07,649.44c.39,87.63-26.74,131.05-26.38,210.9l9.34-.04c-.36-79.84,26.79-123.27,26.39-210.9"/>
          <polygon class="cls-1" points="34.71 925.75 63.95 895.34 113.62 793.4 84.66 828.51 34.71 925.75"/>
          <polygon class="cls-1" points="111.25 933.54 83.01 895.8 35.93 793.32 63.77 828 111.25 933.54"/>
          <polygon class="cls-1" points="90.69 867.69 90.82 856.16 57.38 855.36 57.25 866.9 90.69 867.69"/>
          <polygon class="cls-1" points="90.54 856.18 91.19 844.68 57.86 840.94 57.2 852.45 90.54 856.18"/>
          <polygon class="cls-1" points="57.53 866.79 56.89 878.3 90.23 882.03 90.88 870.53 57.53 866.79"/>
        </g>
        <g>
          <path class="cls-1" d="M402.59,550.91c16.2,26.98.69,54.27,18.47,83.89l-8.01,4.81c-17.78-29.62-2.28-56.9-18.48-83.88"/>
          <path class="cls-1" d="M369.55,570.74c17.23,28.71,49.17,28.83,64.87,54.99l-8.01,4.81c-15.7-26.16-47.65-26.27-64.88-54.98"/>
          <path class="cls-1" d="M488.82,694.57c-16.2-26.98-47.57-26.14-65.35-55.75l-8.01,4.81c17.78,29.62,49.14,28.77,65.34,55.76"/>
          <path class="cls-1" d="M455.78,714.4c-17.23-28.71-2.32-56.95-18.02-83.11l-8.01,4.81c15.7,26.16.77,54.41,18,83.12"/>
          <polygon class="cls-1" points="448.3 595.86 429.07 620.9 406.09 680.02 424.17 653.58 448.3 595.86"/>
          <polygon class="cls-1" points="381.11 632.57 412.62 630.53 472.78 640.18 442.2 643.03 381.11 632.57"/>
          <polygon class="cls-1" points="411.45 643.75 413.56 647.62 442.42 630.72 440.3 626.85 411.45 643.75"/>
          <polygon class="cls-1" points="413.8 647.46 415.46 651.59 444.79 635.72 443.14 631.59 413.8 647.46"/>
          <polygon class="cls-1" points="440.08 627.03 438.42 622.9 409.08 638.78 410.74 642.9 440.08 627.03"/>
        </g>
        <g>
          <path class="cls-1" d="M361.35,575.66c-2.14-3.57-4.27-7.12-6.4-10.67-2.11-3.56-4.21-7.11-6.31-10.65-2.08-3.55-4.15-7.09-6.22-10.62-2.05-3.54-4.09-7.07-6.13-10.58-2.02-3.52-4.03-7.04-6.04-10.54-1.99-3.51-3.97-7.01-5.95-10.5-1.96-3.49-3.91-6.98-5.86-10.45-1.93-3.48-3.85-6.94-5.77-10.4-1.9-3.46-3.79-6.9-5.67-10.34-1.87-3.44-3.73-6.86-5.58-10.28-1.84-3.42-3.67-6.82-5.49-10.21-1.8-3.39-3.6-6.77-5.4-10.14-3.53-6.73-7.03-13.41-10.51-20.04-3.4-6.62-6.78-13.19-10.13-19.7-3.28-6.5-6.53-12.94-9.75-19.32-3.15-6.37-6.28-12.67-9.37-18.91-3.03-6.22-6.02-12.38-8.98-18.46-2.9-6.06-5.77-12.06-8.6-17.97-2.77-5.89-5.51-11.71-8.2-17.45-2.64-5.71-5.25-11.35-7.81-16.89-2.51-5.52-4.98-10.96-7.41-16.3-2.38-5.32-4.72-10.54-7.01-15.67-2.25-5.1-4.45-10.1-6.61-15-2.11-4.87-4.18-9.64-6.2-14.29-1.98-4.63-3.91-9.15-5.8-13.55-1.85-4.38-3.64-8.64-5.38-12.78-1.71-4.12-3.37-8.1-4.97-11.96-1.57-3.84-3.09-7.54-4.55-11.11-1.43-3.55-2.81-6.96-4.13-10.23-1.3-3.25-2.53-6.35-3.71-9.3-2.29-5.86-4.35-11.11-6.14-15.7-1.73-4.54-3.21-8.42-4.41-11.57-2.31-6.24-3.56-9.61-3.56-9.61,1,2.47,2,4.96,3,7.46,1.04,2.52,2.08,5.05,3.12,7.6,1.07,2.56,2.15,5.14,3.23,7.73,1.11,2.6,2.22,5.22,3.34,7.85,1.14,2.64,2.29,5.3,3.44,7.96,1.18,2.68,2.36,5.37,3.54,8.07,1.21,2.71,2.42,5.43,3.63,8.17,1.24,2.74,2.48,5.49,3.72,8.26,2.55,5.55,5.11,11.14,7.69,16.75,2.65,5.65,5.31,11.32,7.98,17.02,2.73,5.72,5.48,11.47,8.23,17.23,2.81,5.78,5.62,11.58,8.44,17.38,2.87,5.82,5.74,11.65,8.61,17.47,2.92,5.84,5.83,11.67,8.74,17.5,2.95,5.84,5.9,11.66,8.84,17.47,2.97,5.81,5.94,11.61,8.89,17.38,2.98,5.77,5.95,11.52,8.9,17.23,2.98,5.71,5.94,11.39,8.87,17.01,2.96,5.63,5.9,11.21,8.81,16.74,2.93,5.53,5.83,11,8.7,16.4,5.8,10.81,11.45,21.36,16.92,31.57,5.54,10.2,10.9,20.07,16.02,29.5,5.18,9.44,10.13,18.45,14.8,26.96,4.72,8.51,9.15,16.51,13.26,23.93,8.31,14.83,15.31,27.33,20.65,36.84,5.37,9.5,9.05,16.02,10.68,18.91"/>
          <path class="cls-1" d="M97.41,649.38c-.02-1.8-.04-3.67-.06-5.59-.03-1.93-.07-3.92-.1-5.97-.1-4.09-.21-8.39-.33-12.91-.15-4.5-.31-9.21-.48-14.11-.2-4.88-.4-9.96-.61-15.2-.24-5.23-.49-10.63-.74-16.18-.28-5.54-.56-11.23-.86-17.05-.65-11.61-1.32-23.74-2.02-36.27-.77-12.47-1.55-25.33-2.36-38.42-.86-13.05-1.73-26.33-2.61-39.7-.92-13.33-1.85-26.75-2.77-40.1-.96-13.32-1.91-26.58-2.85-39.62-1.95-26.01-3.84-51.16-5.57-74.26-1.8-23.03-3.45-44.02-4.84-61.77-2.88-35.4-4.7-57.87-4.7-57.87l-8.1,16.52c.51,5.42,1.03,10.91,1.56,16.46.5,5.58,1.01,11.22,1.53,16.91.5,5.71,1,11.48,1.5,17.29.49,5.83.97,11.71,1.47,17.62.94,11.88,1.88,23.9,2.83,35.99.89,12.15,1.79,24.38,2.69,36.6.85,12.27,1.7,24.55,2.54,36.75.8,12.24,1.6,24.41,2.39,36.43.75,12.05,1.49,23.96,2.22,35.65.69,11.71,1.38,23.21,2.04,34.4,1.25,22.45,2.43,43.72,3.52,63.2,1,19.53,1.91,37.28,2.7,52.62.73,15.38,1.34,28.36,1.81,38.32.42,9.97.71,16.93.85,20.26"/>
          <path class="cls-1" d="M402.59,550.91c-4.86-8.25-9.75-16.55-14.65-24.87-4.86-8.34-9.72-16.71-14.59-25.07-4.83-8.37-9.65-16.74-14.46-25.08-4.78-8.34-9.54-16.66-14.27-24.91-18.86-33.03-37.18-65.13-53.96-94.52-4.24-7.33-8.38-14.5-12.41-21.47-4.07-6.96-8.02-13.72-11.85-20.26-1.93-3.26-3.83-6.47-5.7-9.62-1.88-3.14-3.73-6.23-5.54-9.26-1.83-3.02-3.61-5.97-5.37-8.87-1.77-2.88-3.5-5.7-5.19-8.45-1.71-2.74-3.38-5.41-5-8.02-1.65-2.59-3.25-5.11-4.81-7.56-1.58-2.43-3.12-4.79-4.61-7.09-1.51-2.26-2.98-4.46-4.4-6.59-.72-1.05-1.43-2.08-2.12-3.1-.7-1.01-1.39-1.99-2.07-2.97-.68-.96-1.35-1.9-2.01-2.83-.66-.91-1.31-1.81-1.95-2.69-.64-.87-1.28-1.72-1.9-2.55-.62-.82-1.24-1.62-1.84-2.41-.6-.77-1.2-1.52-1.78-2.26-.58-.72-1.16-1.42-1.72-2.11l-10.76-6.26c1.35,2.18,2.81,4.54,4.37,7.07,1.55,2.54,3.21,5.26,4.96,8.13,3.47,5.77,7.32,12.17,11.49,19.1,4.13,6.95,8.57,14.42,13.26,22.31,4.66,7.91,9.56,16.23,14.65,24.86,10.11,17.29,20.93,35.81,31.95,54.68,10.96,18.89,22.12,38.12,32.96,56.8,21.57,37.4,41.87,72.59,56.78,98.44,14.85,25.86,24.33,42.37,24.33,42.37"/>
          <path class="cls-1" d="M49.53,649.59s-.24-8.3-.67-23.01c-.19-7.37-.43-16.36-.7-26.71-.24-10.36-.51-22.09-.81-34.96-.26-12.88-.53-26.9-.83-41.81-.24-14.93-.49-30.76-.75-47.27-.19-16.51-.38-33.69-.58-51.31-.06-8.81-.13-17.73-.2-26.74-.04-9-.08-18.09-.12-27.23,0-9.14-.02-18.32-.03-27.54.03-9.21.05-18.44.08-27.67.06-9.23.13-18.45.19-27.63.11-9.18.21-18.33.32-27.42.15-9.08.31-18.1.46-27.03.21-8.92.41-17.75.61-26.47.26-8.7.52-17.28.77-25.73.15-4.21.3-8.39.45-12.53.17-4.13.33-8.23.5-12.28.18-4.04.36-8.05.54-12.01.2-3.95.4-7.85.59-11.71.22-3.84.43-7.65.64-11.4.23-3.73.46-7.42.69-11.06.25-3.62.5-7.18.74-10.7.27-3.49.54-6.93.8-10.32.29-3.36.57-6.66.85-9.91.31-3.22.61-6.38.91-9.49.33-3.07.65-6.08.97-9.04.17-1.46.34-2.91.51-4.35.18-1.42.35-2.83.52-4.23.18-1.38.36-2.75.54-4.1.19-1.34.37-2.66.55-3.98.19-1.3.38-2.58.57-3.85.2-1.25.39-2.49.58-3.72.2-1.21.4-2.4.6-3.58.21-1.16.41-2.31.62-3.45.21-1.11.42-2.22.63-3.31.22-1.07.44-2.12.65-3.17.22-1.02.45-2.02.67-3.02.23-.97.46-1.92.68-2.87.12-.46.23-.92.35-1.38l.09-.34.02-.08s.04.02.05.03l.12.12.49.47c.66.65,1.32,1.28,1.97,1.92l35.24,52.28-2.06-2.55-2.05-2.48-2.04-2.41-2.03-2.34-2.02-2.27-2.01-2.21-2-2.14-1.99-2.08-1.98-2.01-1.97-1.95c-.65-.63-1.3-1.25-1.96-1.88-.65-.61-1.3-1.21-1.95-1.82-.64-.58-1.29-1.17-1.94-1.76-.64-.56-1.28-1.13-1.93-1.7-.64-.54-1.28-1.09-1.92-1.64-.63-.52-1.27-1.05-1.91-1.58-.02-.02-.02.05-.03.07l-.02.1-.04.19-.08.38-.15.77-.3,1.56c-.2,1.05-.4,2.11-.6,3.18-.19,1.08-.39,2.17-.58,3.26-.19,1.11-.38,2.22-.57,3.34-.18,1.13-.37,2.27-.55,3.42-.18,1.16-.36,2.32-.54,3.49-.34,2.38-.68,4.78-1.03,7.21-.32,2.48-.64,4.98-.97,7.51-.3,2.57-.61,5.17-.92,7.8-.28,2.66-.57,5.35-.86,8.08-.27,2.75-.54,5.53-.81,8.35-.25,2.84-.5,5.71-.76,8.61-.23,2.92-.47,5.88-.7,8.86-.22,3.01-.43,6.04-.66,9.11-.2,3.09-.4,6.2-.61,9.35-.19,3.16-.37,6.35-.56,9.57-.17,3.24-.34,6.5-.51,9.79-.16,3.31-.31,6.64-.47,10.01-.14,3.37-.28,6.78-.43,10.21-.13,3.44-.26,6.91-.39,10.4-.11,3.5-.23,7.03-.35,10.59-.19,7.13-.38,14.37-.58,21.71-.14,7.35-.29,14.81-.43,22.35-.1,7.56-.2,15.2-.3,22.93-.06,7.73-.11,15.55-.17,23.44-.02,7.89-.04,15.85-.06,23.88.01,8.03.03,16.11.04,24.25.04,8.14.09,16.33.14,24.56.17,16.46.34,33.08.51,49.77.25,16.69.5,33.44.75,50.19,1.29,66.91,2.57,133.58,3.74,194.08"/>
          <polygon class="cls-1" points="166.82 57.87 154.69 106.81 186.47 304.55 193.29 244.72 166.82 57.87"/>
          <polygon class="cls-1" points="45.45 22.67 56.45 7.74 59.2 4 59.29 3.89 59.33 3.83 59.35 3.8 59.36 3.78 59.39 3.82 59.76 4.32 60.52 5.34 62.04 7.36 65.07 11.42 77.18 27.64 125.66 92.51 320.49 380.43 225.12 260.4 126.92 111.58 77.81 37.17 65.54 18.57 62.47 13.92 62.09 13.34 61.99 13.2 61.94 13.22 61.85 13.28 61.47 13.5 60.7 13.93 57.65 15.68 45.45 22.67"/>
          <polygon class="cls-1" points="143.41 151.19 155.26 177.43 206.19 202.51 194.36 176.28 143.41 151.19"/>
          <polygon class="cls-1" points="155.64 177.52 166.66 203.3 220.51 235 209.49 209.24 155.64 177.52"/>
          <polygon class="cls-1" points="194.05 176.32 183.03 150.55 129.17 118.84 140.18 144.62 194.05 176.32"/>
          <path class="cls-1" d="M121.4,51.12l-37.73-26.14-18.87-13.07-2.36-1.63-1.18-.82-.29-.2-.07-.05h-.02s-.01-.02-.01,0v.07s-.05.27-.05.27l-.17,1.08-1.4,8.61-2.8,17.21-18.32,320.98,17.32-125.94,11.68-166.38,1.46-20.8.37-5.2.05-.65v-.16s.07.02.07.02l.12.03.49.12.98.24,3.9.96,15.61,3.82,31.23,7.65Z"/>
          <polygon class="cls-1" points="2.12 2 38.62 60.06 110.27 256.45 74.97 205.55 2.12 2"/>
          <polygon class="cls-1" points="39.16 140.75 42.19 169.98 73.45 128.45 70.42 99.23 39.16 140.75"/>
          <polygon class="cls-1" points="42.43 169.49 44.97 199.28 76.96 165.31 74.41 135.53 42.43 169.49"/>
          <polygon class="cls-1" points="70.19 99.89 67.65 70.09 35.67 104.09 38.21 133.87 70.19 99.89"/>
        </g>
      </g>
      <g>
        <g>
          <path class="cls-1" d="M905.94,1083.75c-1.45-64.36,25.17-96.5,23.58-167.14l9.34-.21c1.59,70.64-25.02,102.78-23.57,167.14"/>
          <path class="cls-1" d="M944.47,1082.88c-1.54-68.47-29.62-101.69-31.03-164.07l9.34-.21c1.41,62.39,29.5,95.6,31.04,164.07"/>
          <path class="cls-1" d="M898.22,741.1c1.45,64.36,29.49,95.28,31.09,165.91l9.34-.21c-1.59-70.63-29.62-101.55-31.07-165.91"/>
          <path class="cls-1" d="M936.74,740.24c1.54,68.47-25.01,102.92-23.61,165.3l9.34-.21c-1.41-62.39,25.16-96.83,23.62-165.3"/>
          <polygon class="cls-1" points="887.03 957.17 915.86 932.85 964.18 852.24 935.69 880.24 887.03 957.17"/>
          <polygon class="cls-1" points="963.65 961.8 934.93 932.85 886.51 853.67 914.8 880.23 963.65 961.8"/>
          <polygon class="cls-1" points="942.24 910.74 942.21 901.72 908.77 901.74 908.79 910.75 942.24 910.74"/>
          <polygon class="cls-1" points="941.93 901.75 942.43 892.75 909.05 890.46 908.54 899.46 941.93 901.75"/>
          <polygon class="cls-1" points="909.07 910.66 908.58 919.67 941.96 921.95 942.46 912.95 909.07 910.66"/>
        </g>
        <g>
          <path class="cls-1" d="M898.22,741.08c-.73-32.18,5.57-56.31,11.84-81.22.39-1.56.78-3.12,1.17-4.68.39-1.55.78-3.2,1.17-4.54.78-2.84,1.54-5.75,2.27-8.76,1.47-6.01,2.82-12.38,3.95-19.19,2.26-13.59,3.62-29.05,3.23-46.14l9.23-4.83c.41,18.14-.93,34.5-3.17,48.92-1.12,7.22-2.46,13.99-3.92,20.38-.73,3.2-1.49,6.3-2.26,9.32-.79,3.13-1.56,6.23-2.34,9.32-6.27,24.91-12.56,49.04-11.84,81.22"/>
          <path class="cls-1" d="M936.74,740.21c-.77-34.23-8.18-59.66-15.57-84.32-.46-1.53-.92-3.06-1.38-4.58l-1.37-4.3c-.88-2.8-1.77-5.6-2.66-8.41-1.73-5.54-3.34-10.98-4.75-16.47-2.81-11.01-4.77-22.2-5.07-35.65l9.23-4.72c.32,14.38,2.3,26.38,5.13,38.17,2.83,11.74,6.51,23.29,10.21,35.76,7.39,24.66,14.8,50.08,15.57,84.32"/>
          <path class="cls-1" d="M891.68,451.04c.29,12.73,2.19,21.19,4.91,28.47,2.73,7.25,6.28,13.28,9.86,20.35,3.58,7.05,7.18,15.13,9.99,25.95,2.81,10.79,4.82,24.37,5.21,41.46l9.22-5.4c-.41-18.14-2.44-32.63-5.27-44.24-2.82-11.65-6.44-20.48-10.03-28.26-3.59-7.8-7.16-14.56-9.9-22.59-2.74-8.06-4.66-17.35-4.97-31.04"/>
          <path class="cls-1" d="M928.8,388.01c.4,17.79-.9,35.97-3.07,53.31-2.17,17.38-5.21,33.97-8.28,49.5-3.07,15.56-6.16,30.07-8.41,43.86-2.25,13.82-3.66,26.87-3.36,40.33l9.22-5.51c-.32-14.38,1.07-28.25,3.31-42.84,2.24-14.56,5.31-29.8,8.36-46.1,3.05-16.28,6.08-33.61,8.23-51.81,2.15-18.16,3.43-37.23,3.01-56.04"/>
          <path class="cls-1" d="M879.57,626.34c9.61-8.05,19.19-17.57,28.74-28.57,16.03-30.2,31.87-68.83,47.52-115.9-9.26,19.83-18.56,37.98-27.89,54.44-15.94,38.09-32.06,68.1-48.37,90.02Z"/>
          <path class="cls-1" d="M955.8,613.49c-9.57-9.5-19.1-17.23-28.59-23.22-16-20.28-31.82-32.65-47.47-37.09,9.18-2.15,18.4-2.71,27.65-1.67,15.95,12.44,32.09,33.1,48.41,61.98Z"/>
          <path class="cls-1" d="M934.42,564.05l-.04-9.56c-11,6.54-22,13.13-33,19.78v7.64c11.01-6.01,22.02-11.96,33.04-17.86Z"/>
          <path class="cls-1" d="M934.11,554.69l.48-9.88c-10.96,6.34-21.92,12.89-32.88,19.66l-.53,8c10.97-6.14,21.95-12.07,32.94-17.78Z"/>
          <path class="cls-1" d="M901.65,581.69l-.52,7.88c11-4.72,22.01-9.22,33.03-13.52l.48-9.76c-11,4.92-22,10.05-32.99,15.4Z"/>
        </g>
        <g>
          <path class="cls-1" d="M891.68,451.02c-.29-12.73,1.11-26.78,3.32-42.45,2.21-15.64,5.24-32.85,8.25-51.09,3.01-18.22,5.99-37.49,8.12-56.69,2.13-19.17,3.41-38.34,3.02-55.44l7.38-21.13c.3,8.66.33,17.52.07,26.54-.13,4.51-.33,9.06-.6,13.65-.15,2.34-.3,4.64-.45,6.92-.09,1.17-.17,2.33-.26,3.48-.05.58-.09,1.17-.14,1.75-.06.62-.13,1.24-.19,1.86-2.11,20.03-5.08,40.03-8.07,58.99-2.99,18.98-6,36.91-8.19,53.32-2.19,16.44-3.56,31.32-3.26,45.01"/>
          <path class="cls-1" d="M928.8,387.98c-.2-8.88-.8-16.49-1.69-22.98-.89-6.5-2.12-11.79-3.49-16.3-2.71-9.11-6.29-14.44-9.79-18.83-3.52-4.39-7.01-7.73-9.69-13.13-2.69-5.44-4.56-12.91-4.86-26.36l8.78-25.04c.32,14.38,2.22,22.66,4.92,28.87,1.35,3.09,2.9,5.65,4.56,8.07,1.63,2.48,3.5,4.53,5.01,7.69,1.61,2.92,3.3,5.88,5,9.2,1.68,3.37,3.33,7.25,4.86,11.85.76,2.3,1.41,4.98,2.05,7.82.31,1.43.61,2.92.89,4.47.29,1.55.51,3.25.74,4.97.9,6.94,1.51,15.03,1.73,24.42"/>
          <path class="cls-1" d="M873.15,226.24c3.34-5.84,6.84-12.8,10.51-20.71.94-2.06,1.87-4.1,2.78-6.11.47-1.07.95-2.13,1.42-3.18.04-.14.14-.29.24-.27.07.01.05.06.08.08l.1.18.2.34c.54.88,1.14,1.5,1.79,1.92,2.6,1.67,5.99.27,9.4-.1,3.41-.39,6.84.26,9.52,5.5,2.68,5.21,4.61,15.07,5,32.17l7.26-21.29c-.3-8.67-.82-16.05-1.43-22.54-.3-3.24-.63-6.25-.97-9.1-.18-1.4-.35-2.78-.52-4.15-.09-.67-.18-1.33-.27-1.99l-.14-.97c-.05-.31-.16-.42-.23-.64-2.7-6.07-6.15-7.47-9.57-7.82-3.43-.37-6.83.31-9.44-2.15-.65-.62-1.26-1.43-1.81-2.52l-.2-.42-.1-.22s0-.08-.08-.1c-.1-.02-.21.13-.25.27-.49,1.09-.98,2.18-1.48,3.29-.96,2.08-1.93,4.19-2.91,6.32-3.84,8.2-7.5,15.47-11.04,21.64"/>
          <path class="cls-1" d="M901.78,106.92c4.33-7.41,8.28-13.94,11.93-19.8.91-1.44,1.8-2.87,2.68-4.27l.33-.52c.06-.08.09-.19.18-.23.05-.01.12.02.14.08.02.06,0,.13.01.19v1.52c0,1.02-.01,2.03-.02,3.04-.03,4.05-.08,8.12-.17,12.21-.05,2.07-.1,4.12-.16,6.14-.03,1.03-.06,2.06-.09,3.09l-.03.78-.11,1.09-.22,2.19c-.6,5.84-1.24,11.71-1.91,17.59-1.34,11.75-2.78,23.49-4.23,34.98-2.9,22.99-5.82,44.94-7.95,64.3-2.12,19.4-3.46,36.16-3.15,49.62l8.76-25.83c-.32-14.38.99-31.97,3.1-52.14,1.05-10.07,2.31-20.77,3.66-31.92.7-5.71,1.39-11.38,2.09-17.05l.54-4.35.26-2.17.09-1.57c.12-2.08.24-4.17.35-6.26.91-16.64,1.53-32.71,1.61-48.32.02-3.91,0-7.79-.04-11.65-.01-.96-.03-1.93-.04-2.9l-.03-1.45c0-.06,0-.12-.01-.18-.02-.06-.09-.09-.14-.08-.1.03-.12.16-.19.23l-.34.52c-.9,1.4-1.82,2.82-2.75,4.25-3.74,5.84-7.8,12.34-12.24,19.73"/>
          <path class="cls-1" d="M874.23,389.58c9.13-29.36,18.23-60.19,27.3-92.5,3.8-16.64,7.59-33.81,11.37-51.5l5.66-26.94.35-1.71.09-.43.05-.32.1-.63.4-2.52.79-5.02,1.51-9.94c3.88-26.41,6.99-51.02,9.24-74.05-3.25,21.42-7.15,44.17-11.72,68.24l-.73,4.81-.05.3-.02.15-.04.22-.18.87-.35,1.73-.71,3.46-2.84,13.71-5.69,26.85c-3.8,17.65-7.62,34.79-11.44,51.43-7.65,33.28-15.35,64.54-23.09,93.77Z"/>
          <path class="cls-1" d="M940.79,225.27l-11.24,11.99-5.15,5.5-2.46,2.62-1.2,1.28-.59.63-.29.31c-.05.06-.09.09-.15.17l-.21.34c-15.24,13.53-30.3,34.99-45.18,64.36,8.73-22.23,17.49-42.87,26.3-61.91,3.8-5.41,7.6-10.31,11.42-14.7,1.91-2.19,3.82-4.26,5.74-6.19l1.44-1.43c.07-.08.1-.07.14-.06h.12s.23.03.23.03l.47.04c.63.04,1.27.07,1.93.07,5.25-.01,11.5-.99,18.71-3.04Z"/>
          <polygon class="cls-1" points="923.62 212.83 923.32 203.81 918.44 218.06 910.6 241.18 894.92 287.49 894.92 295.53 910.62 250.18 923.62 212.83"/>
          <polygon class="cls-1" points="923.17 204.29 923.15 194.47 918.65 207.28 910.83 230.28 895.21 276.52 894.72 286.06 910.36 240.75 918.19 218.21 919.68 214 920.84 210.77 923.17 204.29"/>
          <polygon class="cls-1" points="895.18 294.69 894.7 304.07 910.39 260.9 918.24 239.43 921.22 231.42 923.79 224.59 923.82 214.69 918.7 228.62 910.86 250.56 895.18 294.69"/>
        </g>
        <g>
          <path class="cls-1" d="M873.14,226.25c-6.68,11.67-11.12,15.99-14.84,17.33-3.71,1.32-6.67-.39-10.06-1.35-3.38-.97-7.19-1.2-12.38,2.71-5.18,3.88-11.76,11.94-20.31,26.88l1.95-18.58c4.46-7.67,8.63-14.38,12.54-20.36,1.96-2.99,3.85-5.8,5.68-8.45.91-1.31,1.81-2.6,2.7-3.87.44-.62.88-1.24,1.32-1.85l.65-.91c.12-.19.19-.2.28-.29l.26-.21c5.51-4.48,9.62-4.77,13.29-4.3,3.68.45,6.92,1.66,10.94-.2,4.03-1.88,8.8-6.78,15.85-19.1"/>
          <path class="cls-1" d="M901.76,106.94c-8.65,14.83-16.54,29.46-23.77,43.96-.9,1.83-1.8,3.64-2.68,5.43-.44.91-.88,1.81-1.32,2.71l-.33.68-.41.98-.81,1.96c-2.16,5.24-4.3,10.54-6.41,15.84-4.23,10.61-8.37,21.29-12.41,31.78-8.08,20.99-15.73,41.23-23.01,59.1-7.29,17.89-14.2,33.39-21.11,45.46l4.02-25.81c7.27-12.7,14.5-28.77,22.1-47.19,3.79-9.21,7.67-18.99,11.65-29.16,2.02-5.2,4.04-10.37,6.04-15.53l1.54-3.96.77-1.97.6-1.33c.8-1.77,1.6-3.54,2.41-5.31,6.45-14.18,13.23-28.5,20.66-42.97,7.43-14.47,15.52-29.07,24.4-43.85"/>
          <path class="cls-1" d="M730.7,475.04c6.68-11.67,12.54-25.34,18.38-40.69,5.83-15.34,11.62-32.32,17.83-50.05,6.21-17.72,12.84-36.18,20.15-54.11,7.3-17.9,15.29-35.3,23.85-50.25l1.75-18.36c-4.46,7.67-8.57,15.24-12.36,22.71-1.9,3.74-3.71,7.45-5.46,11.14-.87,1.86-1.72,3.7-2.56,5.52-.42.92-.83,1.84-1.24,2.75l-.61,1.37c-.23.56-.47,1.12-.7,1.68-7.63,18.49-14.56,37.46-21.06,55.68-6.5,18.23-12.57,35.71-18.71,51.58-6.15,15.89-12.33,30.13-19.39,42.45"/>
          <path class="cls-1" d="M727.77,404.8c8.71-14.95,17-26.43,24.73-35.98.97-1.18,1.93-2.34,2.88-3.5.48-.56.95-1.13,1.42-1.69l.35-.41.29-.24.58-.47c1.55-1.23,3.05-2.29,4.5-3.22,2.91-1.86,5.64-3.19,8.26-4.34,5.26-2.31,10.08-3.86,15.25-7.72,5.17-3.88,10.67-10.04,17.58-22.11l3.71-25.27c-7.27,12.7-13.09,19.42-18.56,23.83-2.73,2.2-5.38,3.8-8.03,5.21-1.33.71-2.66,1.36-4,2.02l-1.01.49c-.17.09-.33.15-.51.26l-.65.7-2.64,2.79c-7.06,7.47-14.5,15.18-22.5,24.83-7.99,9.64-16.55,21.22-25.57,36.32"/>
          <path class="cls-1" d="M811.95,365.44c2.17-23.5,3.76-45.99,4.78-67.47-1.03-6.61-2.27-12.85-3.71-18.74-.72-2.94-1.5-5.79-2.32-8.56l-.16-.52-.04-.13s-.06.02-.09.03l-.17.07-.7.3-1.41.6-2.86,1.2c-7.72,3.22-16.08,6.52-25.12,9.98,6.99,1.5,13.46,3.12,19.4,4.81l1.4-.5.09-.03s.03-.01.04-.01l.02.06.08.26.16.52.31,1.04c.42,1.39.82,2.8,1.21,4.23.78,2.86,1.51,5.81,2.19,8.85,1.36,6.07,2.53,12.49,3.49,19.25,1.93,13.53,3.07,28.44,3.41,44.74Z"/>
          <path class="cls-1" d="M840.96,189.58c-2.75,8.96-5.38,17.92-7.89,26.88-1.25,4.48-2.48,8.96-3.67,13.44l-1.76,6.72-1.83,7.14c-20.52,67.12-37.94,128.81-52.24,185.08,5.9-28.88,12.43-58.86,19.59-89.93,4.4-15.57,9-31.49,13.81-47.77l7.36-24.68,1.89-6.25,1.21-3.83,2.39-7.42c6.46-19.78,13.53-39.6,21.15-59.38Z"/>
          <path class="cls-1" d="M814.39,254.59l-4.63,7.66.37,4.24.19,2.12.09,1.06.02.27c0,.11.04.1-.02.41l-.21,1.42-3.34,22.65-6.65,45.26,3.83-6.32,7.03-45.92,3.52-22.98.22-1.44.11-.72-.02-.27-.08-1.06-.15-2.12-.3-4.25Z"/>
          <path class="cls-1" d="M809.8,262.51l-4.68,7.12.3,4.47.15,2.23.08,1.12.04.56.02.28c0,.07.02.05,0,.18l-.05.35-3.4,22.7-6.71,45.24,3.63-4.91,7.08-45.9,3.59-23.03.23-1.44c.07-.46.18-1.07.14-1.13l-.06-1.12-.12-2.24-.23-4.48Z"/>
          <polygon class="cls-1" points="804.13 332.65 807.72 327.76 815.64 280.41 819.64 256.65 820.15 253.67 820.26 252.96 820.26 252.68 820.25 252.12 820.22 249.87 820.15 245.38 815.51 252.49 815.65 256.98 815.72 259.22 815.75 260.34 815.76 260.62 815.76 260.76 815.77 260.83 815.74 261.02 815.5 262.48 811.68 285.93 804.13 332.65"/>
        </g>
        <g>
          <path class="cls-1" d="M730.69,475.05c-6.68,11.67-12.58,18.54-18.49,23.7-5.9,5.14-11.78,8.53-18.08,12.67-6.3,4.12-13.03,9-20.41,16.73-7.37,7.71-15.41,18.31-23.96,33.26l-5.09-9.58c4.44-7.71,8.86-14.58,13.24-20.77,2.19-3.1,4.37-6.03,6.53-8.81,1.08-1.39,2.16-2.75,3.23-4.07.54-.66,1.07-1.31,1.61-1.96l.8-.96c.26-.31.49-.54.73-.81,7.7-8.3,14.72-13.68,21.31-18.31,6.6-4.64,12.76-8.54,18.96-14.21,6.21-5.7,12.45-13.15,19.5-25.47"/>
          <path class="cls-1" d="M727.76,404.82c-8.71,14.95-15.55,29.56-21.13,43.74-.69,1.79-1.37,3.55-2.04,5.3-.7,1.9-1.4,3.77-2.09,5.63-1.53,4.15-3.01,8.29-4.44,12.4-2.86,8.23-5.55,16.35-8.13,24.29-5.16,15.89-9.9,31.04-14.99,45.09-5.1,14.07-10.55,27.02-17.46,39.09l-3.96-11.88c7.27-12.7,13.04-26.22,18.45-40.82,2.7-7.29,5.3-14.84,7.91-22.63,1.32-3.96,2.63-7.91,3.93-11.84l.99-3.01.5-1.5.39-1.27c.53-1.69,1.05-3.39,1.58-5.08,4.24-13.59,8.8-27.51,14.63-41.84,5.82-14.33,12.91-29.07,21.93-44.17"/>
          <path class="cls-1" d="M588.25,723.84c6.68-11.67,11.08-22.79,14.73-34.32,3.64-11.51,6.51-23.4,9.8-36.03,3.29-12.62,7-25.99,12.12-40.09,5.11-14.08,11.64-28.93,20.2-43.87l-5.27-9.31c-4.43,7.71-8.26,15.19-11.58,22.45-1.66,3.63-3.2,7.2-4.63,10.73-.72,1.76-1.41,3.51-2.07,5.25-.66,1.77-1.32,3.52-1.96,5.25-5.45,14.67-9.46,28.54-13.03,41.67-3.58,13.14-6.74,25.52-10.68,37.56-3.96,12.07-8.68,23.76-15.74,36.08"/>
          <path class="cls-1" d="M554.81,704.69c8.58-14.98,17.55-27.2,26.55-37.76,1.12-1.32,2.25-2.62,3.38-3.89,1.13-1.27,2.26-2.54,3.34-3.68,2.18-2.33,4.34-4.54,6.47-6.66,4.28-4.25,8.46-8.12,12.55-11.82,8.17-7.4,15.92-14.05,23.27-21.74,7.36-7.7,14.31-16.41,21.22-28.48l-4.27-11.34c-7.27,12.7-14.55,21.97-22.21,30.2-3.83,4.11-7.75,7.94-11.77,11.74-2.05,1.91-4.08,3.81-6.11,5.7l-1.55,1.44-.78.72-.83.81c-1.11,1.09-2.22,2.18-3.33,3.27-8.92,8.74-18.06,17.82-27.17,28.55-9.1,10.72-18.18,23.11-26.86,38.28"/>
          <path class="cls-1" d="M683.22,590.28c-6.19-8.89-12.97-16.77-20.32-23.64-4.6-.38-9.4-.39-14.42-.04-2.51.17-5.06.44-7.67.79-.59-.03-1.47.5-2.23.81l-2.37,1.07-4.76,2.17c-12.74,5.85-25.89,12.14-39.35,18.85,12.31-2.1,24.36-3.85,36.1-5.26l2.34-1c.21-.11.36-.11.53-.14l.49-.07.99-.14c1.31-.18,2.61-.33,3.9-.47,2.57-.27,5.1-.45,7.57-.55,4.95-.19,9.7-.04,14.25.46,9.1,1,17.42,3.38,24.93,7.16Z"/>
          <path class="cls-1" d="M652.77,493.26c.29,8.08.69,16.08,1.19,23.99.25,3.96.53,7.89.83,11.8l.47,5.85.25,2.91.13,1.45.06.73c0,.12.03.24.03.37l-.03.49c-7.25,43.94-11.39,82.44-12.42,115.52-1.98-15.11-3.33-31.32-4.06-48.62,1.06-9.73,2.31-19.81,3.77-30.24.73-5.22,1.51-10.52,2.34-15.91l.63-4.06c.12-1.18.18-2.22.28-3.33l.55-6.62c1.52-17.71,3.49-35.83,5.98-54.34Z"/>
          <path class="cls-1" d="M639.38,554.21l-4.7,7.79,2.94,3,1.47,1.5.74.75c.11.14.27.21.35.42l.24.64,3.8,10.18,7.63,20.32,3.98-6.59-7.26-20.97-3.62-10.51-.23-.66-.11-.33-.18-.19-.72-.76-1.45-1.53-2.89-3.05Z"/>
          <path class="cls-1" d="M634.9,562.17l-5.06,7.4,2.83,3.2,1.42,1.6.71.8.35.4c.11.15.26.22.32.47l3.71,10.27c2.49,6.83,4.99,13.63,7.52,20.38l4.24-5.97c-2.41-6.98-4.79-13.99-7.16-21.04l-3.53-10.6-.22-.66c-.08-.22-.13-.48-.26-.57l-.7-.81-1.39-1.62-2.79-3.25Z"/>
          <path class="cls-1" d="M655.68,591.93l4.19-5.92-6.32-22.5-3.11-11.33-.39-1.42c-.03-.11-.06-.25-.1-.35l-.17-.21-.34-.42-1.34-1.68-2.68-3.35-5.04,7.38,2.73,3.31,1.36,1.65.68.83c.11.15.24.24.32.45l.2.69,3.3,11.01,6.69,21.86Z"/>
        </g>
      </g>
      <g>
        <path class="cls-1" d="M316.9,661.88c0,10.84-2.86,21.06-7.43,29.49-4.58,8.47-10.8,15.21-17.63,20.16-6.84,4.98-14.37,8.14-21.83,9.77-7.48,1.64-14.91,1.73-21.86.64-1.74-.32-3.45-.67-5.12-1.03-1.68-.47-3.32-.98-4.94-1.5-.81-.24-1.61-.56-2.4-.89-.78-.33-1.57-.66-2.35-.99-1.56-.61-3.06-1.44-4.54-2.24-5.9-3.22-11.16-7.34-15.66-12.17-4.5-4.84-8.26-10.38-11.13-16.57-.35-.78-.75-1.53-1.06-2.34-.3-.8-.61-1.62-.92-2.43-.68-1.6-1.08-3.33-1.62-5.02-.29-.84-.45-1.73-.64-2.61-.19-.88-.39-1.77-.58-2.66-.16-.9-.25-1.82-.39-2.74-.1-.92-.32-1.84-.33-2.79l9.3-.81c0,.76.2,1.49.27,2.23.11.73.17,1.47.29,2.19.15.72.3,1.43.45,2.13.14.71.25,1.42.48,2.09.42,1.36.69,2.76,1.23,4.05.23.66.46,1.32.69,1.98.23.66.55,1.26.82,1.9,2.19,5.06,5.07,9.69,8.61,13.83,3.54,4.14,7.74,7.77,12.57,10.71,1.21.72,2.44,1.5,3.73,2.06.65.31,1.3.62,1.95.93.66.32,1.32.62,2,.85,1.35.49,2.74,1,4.15,1.46,1.41.37,2.86.72,4.34,1.07,5.89,1.18,12.28,1.35,18.78.16,6.48-1.19,13.11-3.73,19.15-7.93,6.04-4.17,11.57-9.96,15.65-17.29,4.07-7.3,6.62-16.21,6.63-25.7"/>
        <path class="cls-1" d="M278.36,661.88c-.04,5.58-.89,10.76-2.4,15.69-1.52,4.92-3.71,9.57-6.59,13.87-2.88,4.3-6.45,8.24-10.72,11.6-4.27,3.33-9.26,6.18-14.8,7.92-5.53,1.78-11.65,2.68-18.05,2.26-6.4-.4-13.02-2.19-19.26-5.54-6.24-3.34-12.13-8.25-16.79-14.73-4.66-6.45-8.05-14.54-9.13-23.46l9.27-1.12c.92,7.6,3.87,14.45,7.92,19.87,4.05,5.44,9.17,9.49,14.54,12.14,5.38,2.66,11.03,3.93,16.4,3.99,5.38.08,10.43-.98,14.92-2.74,4.51-1.72,8.41-4.37,11.64-7.3,3.24-2.96,5.82-6.32,7.83-9.83,2-3.52,3.43-7.19,4.38-10.92.95-3.75,1.45-7.54,1.49-11.67"/>
        <path class="cls-1" d="M316.9,661.85c0-10.84-2.87-21.06-7.45-29.49-4.58-8.46-10.8-15.2-17.64-20.15-6.84-4.98-14.37-8.13-21.83-9.77-7.48-1.63-14.91-1.72-21.86-.63-1.74.32-3.45.67-5.12,1.03-1.68.47-3.32.98-4.94,1.5-.81.24-1.61.56-2.4.89-.78.33-1.57.66-2.35.99-1.56.61-3.06,1.45-4.54,2.24-5.9,3.22-11.16,7.34-15.66,12.18-4.5,4.84-8.25,10.38-11.13,16.58-.35.78-.75,1.53-1.06,2.34-.3.8-.61,1.62-.92,2.43-.68,1.6-1.08,3.33-1.61,5.02-.29.84-.44,1.73-.64,2.61-.19.88-.38,1.77-.58,2.66-.15.9-.25,1.82-.38,2.74-.06.46-.13.92-.19,1.38-.08.46-.13.93-.14,1.4l9.3.81c0-.38.04-.75.11-1.12l.16-1.11c.11-.73.17-1.47.29-2.19.15-.72.3-1.43.45-2.13.14-.71.25-1.42.48-2.09.42-1.36.69-2.76,1.23-4.05.23-.66.46-1.32.69-1.98.23-.66.55-1.26.81-1.9,2.19-5.06,5.07-9.69,8.61-13.84,3.54-4.14,7.74-7.78,12.57-10.71,1.21-.72,2.44-1.5,3.73-2.06.65-.31,1.3-.62,1.95-.93.66-.31,1.32-.63,2-.85,1.35-.49,2.74-.99,4.15-1.47,1.41-.37,2.86-.72,4.34-1.07,5.89-1.18,12.28-1.36,18.78-.17,6.49,1.19,13.11,3.73,19.15,7.92,6.04,4.17,11.58,9.95,15.66,17.29,4.08,7.3,6.63,16.21,6.64,25.7"/>
        <path class="cls-1" d="M278.36,661.86c-.05-5.58-.89-10.76-2.41-15.69-1.52-4.92-3.72-9.57-6.6-13.87-2.88-4.29-6.45-8.24-10.73-11.59-4.27-3.33-9.26-6.17-14.81-7.91-5.53-1.78-11.65-2.68-18.05-2.25-6.39.4-13.02,2.19-19.26,5.55-6.24,3.34-12.12,8.25-16.78,14.74-4.65,6.46-8.04,14.54-9.12,23.46l9.27,1.12c.92-7.6,3.87-14.45,7.91-19.87,4.05-5.44,9.16-9.5,14.53-12.14,5.37-2.67,11.03-3.94,16.4-4,5.38-.08,10.43.97,14.92,2.73,4.51,1.72,8.41,4.37,11.64,7.3,3.24,2.96,5.83,6.31,7.83,9.83,2.01,3.52,3.43,7.19,4.39,10.92.95,3.75,1.45,7.54,1.5,11.67"/>
        <path class="cls-1" d="M181.11,727.31c-.17-1-.33-1.99-.47-2.97-.13-1-.22-2-.31-2.99-.17-1.98-.29-3.93-.34-5.85-.08-1.89.02-3.85.13-5.72.11-1.88.28-3.72.5-5.51.54-3.66,1.28-7.14,2.26-10.45.53-1.68,1.1-3.3,1.71-4.87.61-1.57,1.23-3.07,2.01-4.56,1.12-8.41,4.07-15.87,8.21-21.75,4.11-5.9,9.27-10.29,14.67-12.91,5.4-2.64,11-3.53,15.99-2.92,5,.6,9.37,2.69,12.46,5.76-3.01-3.76-7.22-7.07-12-9.13-2.48-1.13-4.97-1.85-7.76-2.44-1.4-.29-2.72-.43-4.16-.56-1.41-.11-2.94-.21-4.35-.14-6.05,1.53-12.2,4.8-17.63,9.77-5.44,4.96-10.18,11.55-13.5,19.49-3.35,7.95-5.06,17.27-4.76,27.17.3,9.9,2.66,20.39,7.33,30.59Z"/>
        <path class="cls-1" d="M234.86,672.72c-1.94,1.56-3.98,2.75-6.34,3.83-1.17.52-2.31.91-3.57,1.3-.62.19-1.26.36-1.91.53-.64.15-1.26.26-1.91.37-1.29.21-2.65.38-4.04.46-1.33.05-2.7.03-4.12-.05-1.45-.06-2.83-.26-4.24-.52-1.4-.27-2.93-.57-4.33-1.01-5.55-3.23-10.74-8.23-14.71-14.67-4-6.41-6.85-14.34-7.78-23.17-.95-8.82.02-18.49,3.23-28.11,3.2-9.61,8.65-19.19,16.4-27.71-4.27,7.59-7.18,15.26-8.59,22.88-1.52,7.51-1.51,14.94-.51,21.63-.96,8.54.11,16.62,2.7,23.46,2.59,6.84,6.66,12.41,11.31,16.34,4.66,3.94,9.94,6.2,14.94,6.85,5.01.66,9.75-.27,13.47-2.39Z"/>
        <path class="cls-1" d="M209.13,661.4l.23-2.79c.14-.92.34-1.83.49-2.74-10.95-2.13-21.87-4.4-32.76-6.83-.34,1.82-.64,3.64-.92,5.47-.23,1.83-.32,3.67-.44,5.51,11.13.61,22.26,1.06,33.4,1.37Z"/>
        <path class="cls-1" d="M209.57,655.83c.2-.91.64-1.76.95-2.63l.5-1.29.64-1.23c-10.24-4.32-20.28-9.23-30.06-14.71-.77,1.66-1.52,3.34-2.24,5.04-.38.84-.67,1.72-.96,2.59l-.87,2.64c5.25,1.89,10.54,3.64,15.87,5.23,5.33,1.59,10.75,3.04,16.16,4.34Z"/>
        <path class="cls-1" d="M176.02,659.93c-.24,1.83-.24,3.66-.27,5.51v2.77c-.02.93.1,1.85.16,2.78,11.19-.25,22.31-1.11,33.31-2.58l-.08-2.83c.03-.94.14-1.88.19-2.81-5.57-.17-11.15-.49-16.71-.96-5.54-.47-11.07-1.1-16.6-1.88Z"/>
      </g>
      <g>
        <path class="cls-1" d="M841.96,661.88c0,10.84-2.86,21.06-7.43,29.49-4.58,8.47-10.8,15.21-17.63,20.16-6.84,4.98-14.37,8.14-21.83,9.77-7.48,1.64-14.91,1.73-21.86.64-1.74-.32-3.45-.67-5.12-1.03-1.68-.47-3.32-.98-4.94-1.5-.81-.24-1.61-.56-2.4-.89-.78-.33-1.57-.66-2.35-.99-1.56-.61-3.06-1.44-4.54-2.24-5.9-3.22-11.16-7.34-15.66-12.17-4.5-4.84-8.26-10.38-11.13-16.57-.35-.78-.75-1.53-1.06-2.34-.3-.8-.61-1.62-.92-2.43-.68-1.6-1.08-3.33-1.62-5.02-.29-.84-.45-1.73-.64-2.61-.19-.88-.39-1.77-.58-2.66-.16-.9-.25-1.82-.39-2.74-.1-.92-.32-1.84-.33-2.79l9.3-.81c0,.76.2,1.49.27,2.23.11.73.17,1.47.29,2.19.15.72.3,1.43.45,2.13.14.71.25,1.42.48,2.09.42,1.36.69,2.76,1.23,4.05.23.66.46,1.32.69,1.98.23.66.55,1.26.82,1.9,2.19,5.06,5.07,9.69,8.61,13.83,3.54,4.14,7.74,7.77,12.57,10.71,1.21.72,2.44,1.5,3.73,2.06.65.31,1.3.62,1.95.93.66.32,1.32.62,2,.85,1.35.49,2.74,1,4.15,1.46,1.41.37,2.86.72,4.34,1.07,5.89,1.18,12.28,1.35,18.78.16,6.48-1.19,13.11-3.73,19.15-7.93,6.04-4.17,11.57-9.96,15.65-17.29,4.07-7.3,6.62-16.21,6.63-25.7"/>
        <path class="cls-1" d="M803.43,661.88c-.04,5.58-.89,10.76-2.4,15.69-1.52,4.92-3.71,9.57-6.59,13.87-2.88,4.3-6.45,8.24-10.72,11.6-4.27,3.33-9.26,6.18-14.8,7.92-5.53,1.78-11.65,2.68-18.05,2.26-6.4-.4-13.02-2.19-19.26-5.54-6.24-3.34-12.13-8.25-16.79-14.73-4.66-6.45-8.05-14.54-9.13-23.46l9.27-1.12c.92,7.6,3.87,14.45,7.92,19.87,4.05,5.44,9.17,9.49,14.54,12.14,5.38,2.66,11.03,3.93,16.4,3.99,5.38.08,10.43-.98,14.92-2.74,4.51-1.72,8.41-4.37,11.64-7.3,3.24-2.96,5.82-6.32,7.83-9.83,2-3.52,3.43-7.19,4.38-10.92.95-3.75,1.45-7.54,1.49-11.67"/>
        <path class="cls-1" d="M841.96,661.85c0-10.84-2.87-21.06-7.45-29.49-4.58-8.46-10.8-15.2-17.64-20.15-6.84-4.98-14.37-8.13-21.83-9.77-7.48-1.63-14.91-1.72-21.86-.63-1.74.32-3.45.67-5.12,1.03-1.68.47-3.32.98-4.94,1.5-.81.24-1.61.56-2.4.89-.78.33-1.57.66-2.35.99-1.56.61-3.06,1.45-4.54,2.24-5.9,3.22-11.16,7.34-15.66,12.18-4.5,4.84-8.25,10.38-11.12,16.58-.35.78-.75,1.53-1.06,2.34-.3.8-.61,1.62-.92,2.43-.68,1.6-1.08,3.33-1.61,5.02-.29.84-.44,1.73-.64,2.61-.19.88-.39,1.77-.58,2.66-.15.9-.25,1.82-.38,2.74-.06.46-.13.92-.19,1.38-.08.46-.13.93-.14,1.4l9.3.81c0-.38.04-.75.11-1.12l.16-1.11c.11-.73.17-1.47.29-2.19.15-.72.3-1.43.45-2.13.14-.71.25-1.42.48-2.09.42-1.36.69-2.76,1.23-4.05.23-.66.46-1.32.69-1.98.23-.66.55-1.26.81-1.9,2.19-5.06,5.07-9.69,8.61-13.84,3.54-4.14,7.74-7.78,12.57-10.71,1.21-.72,2.44-1.5,3.73-2.06.65-.31,1.3-.62,1.95-.93.66-.31,1.32-.63,2-.85,1.35-.49,2.74-.99,4.15-1.47,1.41-.37,2.86-.72,4.34-1.07,5.89-1.18,12.28-1.36,18.78-.17,6.49,1.19,13.11,3.73,19.15,7.92,6.04,4.17,11.58,9.95,15.66,17.29,4.08,7.3,6.63,16.21,6.64,25.7"/>
        <path class="cls-1" d="M803.42,661.86c-.05-5.58-.89-10.76-2.41-15.69-1.52-4.92-3.72-9.57-6.6-13.87-2.88-4.29-6.45-8.24-10.73-11.59-4.27-3.33-9.26-6.17-14.81-7.91-5.53-1.78-11.65-2.68-18.05-2.25-6.39.4-13.02,2.19-19.26,5.55-6.24,3.34-12.12,8.25-16.78,14.74-4.65,6.46-8.04,14.54-9.12,23.46l9.27,1.12c.92-7.6,3.87-14.45,7.91-19.87,4.05-5.44,9.16-9.5,14.53-12.14,5.37-2.67,11.03-3.94,16.4-4,5.38-.08,10.43.97,14.92,2.73,4.51,1.72,8.41,4.37,11.64,7.3,3.24,2.96,5.83,6.31,7.83,9.83,2.01,3.52,3.43,7.19,4.39,10.92.95,3.75,1.45,7.54,1.5,11.67"/>
        <path class="cls-1" d="M706.17,727.31c-.17-1-.33-1.99-.47-2.97-.13-1-.22-2-.31-2.99-.17-1.98-.29-3.93-.34-5.85-.08-1.89.02-3.85.13-5.72.11-1.88.28-3.72.5-5.51.54-3.66,1.28-7.14,2.26-10.45.53-1.68,1.1-3.3,1.71-4.87.61-1.57,1.23-3.07,2.01-4.56,1.12-8.41,4.07-15.87,8.21-21.75,4.11-5.9,9.27-10.29,14.67-12.91,5.4-2.64,11-3.53,15.99-2.92,5,.6,9.37,2.69,12.46,5.76-3.01-3.76-7.22-7.07-12-9.13-2.48-1.13-4.97-1.85-7.76-2.44-1.4-.29-2.72-.43-4.16-.56-1.41-.11-2.94-.21-4.35-.14-6.05,1.53-12.2,4.8-17.63,9.77-5.44,4.96-10.18,11.55-13.5,19.49-3.35,7.95-5.06,17.27-4.76,27.17.3,9.9,2.66,20.39,7.33,30.59Z"/>
        <path class="cls-1" d="M759.92,672.72c-1.94,1.56-3.98,2.75-6.34,3.83-1.17.52-2.31.91-3.57,1.3-.62.19-1.26.36-1.91.53-.64.15-1.26.26-1.91.37-1.29.21-2.65.38-4.04.46-1.33.05-2.7.03-4.12-.05-1.45-.06-2.83-.26-4.24-.52-1.4-.27-2.93-.57-4.33-1.01-5.55-3.23-10.74-8.23-14.71-14.67-4-6.41-6.85-14.34-7.78-23.17-.95-8.82.02-18.49,3.23-28.11,3.2-9.61,8.65-19.19,16.4-27.71-4.27,7.59-7.18,15.26-8.59,22.88-1.52,7.51-1.51,14.94-.51,21.63-.96,8.54.11,16.62,2.7,23.46,2.59,6.84,6.66,12.41,11.31,16.34,4.66,3.94,9.94,6.2,14.94,6.85,5.01.66,9.75-.27,13.47-2.39Z"/>
        <path class="cls-1" d="M734.19,661.4l.23-2.79c.14-.92.34-1.83.49-2.74-10.95-2.13-21.87-4.4-32.76-6.83-.34,1.82-.64,3.64-.92,5.47-.23,1.83-.32,3.67-.44,5.51,11.13.61,22.26,1.06,33.4,1.37Z"/>
        <path class="cls-1" d="M734.64,655.83c.2-.91.64-1.76.95-2.63l.5-1.29.64-1.23c-10.24-4.32-20.28-9.23-30.06-14.71-.77,1.66-1.52,3.34-2.24,5.04-.38.84-.67,1.72-.96,2.59l-.87,2.64c5.25,1.89,10.54,3.64,15.87,5.23,5.33,1.59,10.75,3.04,16.16,4.34Z"/>
        <path class="cls-1" d="M701.08,659.93c-.24,1.83-.24,3.66-.27,5.51v2.77c-.02.93.1,1.85.16,2.78,11.19-.25,22.31-1.11,33.31-2.58l-.08-2.83c.03-.94.14-1.88.19-2.81-5.57-.17-11.15-.49-16.71-.96-5.54-.47-11.07-1.1-16.6-1.88Z"/>
      </g>
    </g>
  </g>
</svg>