<?xml version="1.0" encoding="UTF-8"?>
<svg id="Layer_2" data-name="Layer 2" xmlns="http://www.w3.org/2000/svg" viewBox="0 0 1071.02 815.09">
  <defs>
    <style>
      .cls-1 {
        fill: #bfbfbf;
        stroke: #000;
        stroke-linecap: round;
        stroke-width: 4.5px;
      }
    </style>
  </defs>
  <g id="Layer_2-2" data-name="Layer 2">
    <g>
      <g>
        <g>
          <path class="cls-1" d="M499.08,193.83c-61.3,17.98-99.03.56-166.31,20.29l-2.63-8.96c67.28-19.74,105-2.32,166.3-20.31"/>
          <path class="cls-1" d="M488.23,156.86c-65.21,19.13-89.75,54.8-149.17,72.23l-2.63-8.96c59.42-17.43,83.95-53.12,149.17-72.25"/>
          <path class="cls-1" d="M190.9,284.23c10.64-3.12,19.08-6.97,26.8-11.37,7-3.96,13.51-8.38,20.32-13.08,3.51-2.41,6.99-4.8,10.5-7.22,1.84-1.23,3.69-2.46,5.56-3.7l1.43-.93c.46-.31,1.06-.65,1.58-.97,1.09-.65,2.18-1.31,3.28-1.96,17.58-10.45,36.99-20.49,63.26-28.19l-2.63-8.96c-26.26,7.7-45.68,17.74-63.26,28.19-4.48,2.64-8.49,5.2-12.39,7.73-3.79,2.49-7.54,4.97-11.32,7.45-7.36,4.86-14.42,9.44-22.02,13.57-8.38,4.6-17.52,8.65-28.96,12"/>
          <path class="cls-1" d="M159,253.98c13.6-4.37,26.89-7.24,39.14-8.9,12.1-1.7,23.34-2.49,33.82-2.84,5.24-.18,10.3-.24,15.2-.27,2.43,0,4.85-.01,7.27-.02,2.53-.05,5.06-.11,7.6-.16,20.28-.53,40.79-2.06,64.39-8.98l-2.63-8.96c-23.59,6.92-44.11,8.45-64.39,8.98-5.1.1-10.17.2-15.27.3-5.18.11-10.52.26-16.05.52-11.05.52-22.89,1.48-35.63,3.37-12.89,1.85-26.72,5.18-40.6,10.19"/>
          <polygon class="cls-1" points="382.69 244.71 351.89 223.13 262.08 197.24 296.31 217.54 382.69 244.71"/>
          <polygon class="cls-1" points="367.21 169.53 346.93 204.72 283.63 271.87 301.74 237.71 367.21 169.53"/>
          <polygon class="cls-1" points="323.84 203.36 315.2 205.71 323.91 238 332.55 235.65 323.84 203.36"/>
          <polygon class="cls-1" points="315.3 205.97 306.55 207.81 313.03 240.63 321.79 238.8 315.3 205.97"/>
          <polygon class="cls-1" points="332.39 235.41 341.14 233.56 334.66 200.74 325.9 202.58 332.39 235.41"/>
        </g>
        <g>
          <path class="cls-1" d="M190.89,284.24c-3.04.89-6.07,1.67-9.12,2.35-1.52.37-3.07.6-4.56,1.02-1.48.44-2.86,1.12-4.07,1.96-2.4,1.71-4.09,4.07-4.79,6.45-.59,2.38-1.13,4.69-1.78,6.96-2.56,9.06-5.98,17.53-9.4,27.03-3.42,9.48-6.83,19.98-9.4,32.59-1.28,6.29-2.35,13.1-3.1,20.48-.75,7.65-1.17,15.84-1.17,24.59h-9.34c0-8.77.43-16.91,1.17-24.62.75-7.83,1.81-15.07,3.1-21.77,2.56-13.42,5.98-24.67,9.39-34.88,3.42-10.23,6.83-19.42,9.39-29.25.66-2.46,1.19-4.97,1.78-7.55.71-2.58,2.49-5.14,5.04-7,1.29-.92,2.76-1.65,4.34-2.14,1.59-.46,3.26-.72,4.88-1.12,3.26-.75,6.51-1.59,9.78-2.55"/>
          <path class="cls-1" d="M158.98,253.98c-4.11,1.32-8.03,2.68-11.71,4.06-1.83.73-3.69,1.25-5.32,2.29-1.62,1.03-3.06,2.36-4.14,3.97-1.08,1.6-1.89,3.4-2.28,5.31-.42,1.91-.4,3.89-.17,5.84.38,3.9.84,7.74,1.39,11.53,1.05,7.54,2.6,14.94,4.2,21.97,1.6,7.04,3.31,13.76,5.02,20.24,3.42,12.96,6.83,24.89,9.39,36.71,1.28,5.93,2.35,11.8,3.1,17.93.75,6.98,1.17,14.28,1.17,22.02h-9.34c0-7.74-.43-15.04-1.17-22.02-.75-6.52-1.82-12.8-3.1-19.11-2.56-12.59-5.98-25.24-9.39-38.93-3.42-13.66-6.63-28.36-8.22-43.88-.41-3.89-.72-7.8-.93-11.77-.15-1.99-.08-4,.41-5.96.46-1.96,1.33-3.83,2.46-5.5,1.13-1.68,2.61-3.1,4.25-4.23,1.65-1.14,3.52-1.76,5.36-2.59,3.7-1.58,7.69-3.13,11.87-4.66"/>
          <path class="cls-1" d="M170.84,555.74c0-12.64-1.71-22.4-4.27-31.69-2.56-9.26-5.98-17.99-9.4-27.75-3.42-9.74-6.83-20.51-9.4-33.31-.64-3.2-1.23-6.5-1.75-9.98-.52-3.63-.97-7.36-1.35-11.2-.75-7.69-1.17-15.85-1.17-24.61h-9.34c0,17.52,1.71,32.64,4.27,46.41,2.56,13.62,5.98,25.13,9.39,35.6,3.42,10.49,6.83,19.94,9.39,29.97,2.56,10.06,4.27,20.65,4.27,34.24"/>
          <path class="cls-1" d="M132.3,587.35c0-17.66,1.71-34.33,4.27-49.49,2.56-15.19,5.98-28.91,9.39-41.59,3.42-12.7,6.83-24.36,9.39-35.99.32-1.45.63-2.91.92-4.37.14-.73.28-1.46.43-2.19.14-.72.27-1.63.4-2.44.52-3.34.97-6.75,1.35-10.24.75-6.98,1.17-14.28,1.17-22.02h-9.34c0,7.74-.43,15.04-1.17,22.02-.37,3.49-.83,6.9-1.35,10.24-.13.83-.27,1.65-.4,2.47-.14.78-.28,1.56-.43,2.34-.31,1.57-.62,3.12-.92,4.66-2.56,12.4-5.98,24.78-9.4,38.21-3.42,13.41-6.83,27.88-9.4,43.88-2.56,15.97-4.27,33.52-4.27,52.19"/>
          <path class="cls-1" d="M186.9,373.08c-4.9,2.23-9.79,4.83-14.69,7.79-1.22.74-2.45,1.5-3.67,2.29-.61.36-1.22.87-1.84,1.36l-1.84,1.47-7.34,5.87-25.06,39.45-12.53,19.72c-.52.83-1.04,1.62-1.57,2.49l-1.57,2.8-3.13,5.75c-2.09,3.9-4.18,7.93-6.27,12.09,4.85-5.94,9.7-11.47,14.56-16.58,1.21-1.28,2.43-2.53,3.64-3.75,1.21-1.21,2.43-2.28,3.64-3.43l7.28-6.78,25.19-37.62,12.6-18.81,1.57-2.35.79-1.18c.26-.32.52-.6.79-.89,1.05-1.17,2.1-2.31,3.15-3.41,2.1-2.21,4.2-4.3,6.3-6.27Z"/>
          <path class="cls-1" d="M110.4,358.26c4.68,6.4,9.35,12.36,14.03,17.89,2.34,2.75,4.68,5.44,7.02,7.94l7.02,7.34,23.31,39.82,11.66,19.91.73,1.24c.24.39.49.9.73,1.17l1.46,1.88c.97,1.24,1.94,2.45,2.91,3.63,1.94,2.36,3.89,4.59,5.83,6.7-4.61-2.64-9.23-5.67-13.84-9.11-1.15-.86-2.31-1.74-3.46-2.65l-.87-.68-.87-.84-1.73-1.69-6.92-6.75-23.5-41.01-5.88-10.25-2.94-5.13-1.47-2.56c-.49-.85-.98-1.69-1.47-2.67-3.92-7.56-7.83-15.63-11.75-24.21Z"/>
          <polygon class="cls-1" points="130.65 413.21 130.47 422.16 163.91 422.89 164.09 413.94 130.65 413.21"/>
          <polygon class="cls-1" points="130.76 422.14 130.06 431.05 163.37 434.07 164.08 425.15 130.76 422.14"/>
          <polygon class="cls-1" points="163.81 414.03 164.51 405.1 131.18 402.09 130.48 411.01 163.81 414.03"/>
        </g>
        <g>
          <path class="cls-1" d="M170.84,555.76c0,12.64-1.71,25.21-4.27,38.7-2.56,13.46-5.98,27.8-9.4,43.17-3.42,15.34-6.83,31.72-9.4,48.73-2.56,16.97-4.27,34.63-4.27,51.6l-7.54,14.07c-.13-8.62-.02-17.13.38-25.61.2-4.23.47-8.45.81-12.66.17-2.1.36-4.21.56-6.31.11-1.06.21-2.11.32-3.15l.17-1.57c.06-.53.15-1.11.23-1.66,2.56-17.82,5.98-34.94,9.39-51.01,3.42-16.09,6.83-31.15,9.39-45.38,2.56-14.27,4.27-27.66,4.27-41.25"/>
          <path class="cls-1" d="M132.3,587.37c0,8.82.43,16.72,1.17,23.76.74,7.06,1.85,13.2,3.12,18.7,2.51,11.04,5.96,19.12,9.37,26.21,3.42,7.1,6.83,13.16,9.39,20.58,2.56,7.46,4.27,16.24,4.27,29.59l-9.34,17.36c0-14.27-1.71-23.87-4.27-32.09-1.28-4.1-2.78-7.83-4.38-11.53-1.57-3.73-3.41-7.22-4.82-11.54-3.05-8.28-6.61-16.88-9.44-28.36-.69-2.88-1.29-6-1.86-9.28-.58-3.27-1.03-6.8-1.4-10.55-.75-7.49-1.17-15.86-1.17-25.18"/>
          <path class="cls-1" d="M258.7,653.7c-9.43,8.42-18.27,18.59-27.52,30.29-9.23,11.68-18.85,24.84-29.24,38.69-5.19,6.92-10.56,14-16.13,21.12-2.78,3.56-5.61,7.12-8.49,10.67-1.44,1.75-2.89,3.53-4.35,5.32-.73.88-1.46,1.76-2.2,2.65-.74.88-1.54,1.68-2.31,2.52-3.25,3.13-7.25,5.18-11.14,5.69-1.95.26-3.82.12-5.58-.3-1.7-.51-3.31-1.26-4.55-2.39-.35-.25-.57-.59-.87-.89-.28-.31-.57-.62-.76-.98l-.64-1.06c-.16-.38-.29-.77-.44-1.16-.07-.2-.15-.39-.21-.59l-.1-.61c-.07-.42-.13-.83-.2-1.25-.06-.86-.11-1.73-.17-2.6-.2-3.55-.31-7.43-.31-11.67l-7.39,14.25c.07,4.31.19,8.38.34,12.22.04.96.08,1.9.12,2.84.06.47.11.93.17,1.39l.09.69c.06.22.13.45.19.67.14.44.26.89.41,1.32l.61,1.24c.18.42.46.79.73,1.17.28.36.49.78.84,1.09,1.21,1.4,2.78,2.45,4.44,3.28,1.72.73,3.56,1.2,5.46,1.28,1.9.02,3.83-.16,5.67-.86.94-.26,1.8-.76,2.69-1.2.45-.19.84-.53,1.26-.8.41-.3.89-.71,1.32-1.1.81-.87,1.66-1.7,2.43-2.62.78-.92,1.55-1.84,2.31-2.75,1.54-1.86,3.06-3.69,4.57-5.51,3.02-3.68,6-7.37,8.92-11.06,5.85-7.37,11.49-14.69,16.95-21.85,10.93-14.33,21.08-27.97,30.89-40.16,9.83-12.21,19.29-22.94,29.43-31.98"/>
          <path class="cls-1" d="M247.45,714.67c-6.53,5.62-12.43,10.1-17.91,14-5.46,3.87-10.43,7.03-15.07,9.85-1.15.69-2.29,1.37-3.42,2.04-.56.33-1.11.65-1.66.98l-.41.24-.39.16-.77.32c-2.04.83-3.97,1.52-5.82,2.1-3.71,1.16-7.07,1.88-10.26,2.43-3.06.49-6.1.97-9.17,1.46-1.49.26-2.99.56-4.5.93-.76.19-1.52.39-2.3.62l-1.26.25c-.49-.01-.96.03-1.47-.02-2.09-.22-4.61-1.29-6.95-3.21-2.3-2-4.48-4.74-5.72-8.11l-.44-1.27c-.16-.42-.21-.88-.33-1.32-.24-.87-.31-1.79-.41-2.7-.07-.45-.05-.91-.05-1.37v-1.37c.06-.9.12-1.8.17-2.7.2-3.58.31-7.03.31-10.38l-9.34,18.14c0,3.57-.11,7.25-.31,11.05-.06.96-.11,1.92-.16,2.87v1.45c0,.48-.03.97.05,1.45.11.96.19,1.93.46,2.85.12.46.18.95.36,1.39l.48,1.34c1.35,3.55,3.7,6.41,6.19,8.47,2.53,1.98,5.26,3.04,7.52,3.18.56.03,1.07-.04,1.6-.05.46-.12.93-.21,1.37-.33.84-.29,1.68-.56,2.51-.8,1.66-.49,3.29-.91,4.92-1.29,1.63-.38,3.26-.73,4.92-1.08l1.25-.26c.21-.05.41-.08.63-.14l.73-.41,2.92-1.6c3.89-2.09,7.86-4.07,12.01-6.14,4.17-2.09,8.45-4.19,13.23-6.78,4.76-2.59,9.81-5.45,15.44-9.11,2.83-1.84,5.78-3.85,8.85-6.06,1.54-1.11,3.11-2.26,4.71-3.47,1.61-1.23,3.29-2.56,4.98-3.93"/>
          <path class="cls-1" d="M186.9,629.64c-9.79,21.28-19.59,44.02-29.38,68.21-4.18,13.16-8.35,26.84-12.53,41.05-2.09,7.1-4.18,14.34-6.27,21.7l-.39,1.38-.1.35-.05.25-.1.5-.39,2-.75,3.97-1.42,7.84c-.22,1.3-.48,2.59-.61,3.87l-.23,1.92c-.09.64-.05,1.27-.08,1.9,0,.63-.04,1.26-.02,1.88l.15,1.84c.05,1.24.35,2.38.55,3.56,1,4.62,3.12,8.53,5.51,11.57,2.42,3.04,5.19,5.01,7.43,6.12,2.34,1.15,3.62,1.11,5.22,1.64-.34-.65-.68-1.27-1.02-1.88l-.52-.89-.61-.95c-.89-1.34-2.11-2.96-3.44-5.05-2.68-4.24-5.54-10.35-6.6-18.07-.29-1.07-.56-2.16-.78-3.28-.07-.23-.02-.72.01-1.16l.1-1.32.1-1.32c.04-.45.11-.9.17-1.35.24-1.81.43-3.59.83-5.44l.53-2.73c.19-.91.46-1.83.68-2.75l.7-2.74.78-2.73,1.57-5.42,3.15-10.7c4.2-14.15,8.4-27.79,12.6-40.93,8.4-26.29,16.8-50.57,25.19-72.84Z"/>
          <path class="cls-1" d="M117.76,734.49c3.99-.65,7.69-1.48,11.13-2.02,1.72-.28,3.37-.51,4.95-.71l2.32-.25,1.12-.1.55-.04.27-.02s.09,0,.14-.02l.22-.16c7.77-.48,15.54-2.92,23.31-7.32.5-.28.94-.56,1.5-.85l.81-.44c.26-.15.62-.31.93-.47l4.45-2.26c3.38-1.77,7.55-4.27,11.81-7.59,4.28-3.35,8.7-7.65,12.65-12.71.98-1.28,1.93-2.62,2.87-3.94.89-1.4,1.8-2.77,2.66-4.18l5.08-8.44-4.68,8.81c-1.57,2.96-3.17,5.93-4.84,8.85-3.33,5.83-6.95,11.49-10.79,16.61-7.63,10.3-15.97,18.95-23.23,25.75-4.09,2.02-7.29,3.04-9.42,3.92-2.07.86-3.95,1.59-5.93,2.2-1.96.6-3.92,1.08-5.88,1.43l-1.47.24c-.07.03-.1-.02-.13-.07l-.1-.13-.2-.26-.41-.52c-.55-.69-1.12-1.36-1.71-2.01-2.35-2.58-5.03-4.95-8.03-7.15-1.5-1.09-3.08-2.14-4.74-3.13-.83-.5-1.68-.98-2.55-1.45-.87-.52-1.76-1.04-2.67-1.55Z"/>
          <polygon class="cls-1" points="134.17 761.04 134.33 769.91 138.83 761.29 147.19 745.05 163.91 712.51 164.09 704.68 147.37 736.27 139.01 752.03 134.17 761.04"/>
          <polygon class="cls-1" points="134.47 769.62 134.39 778.94 138.39 771.63 146.71 755.49 163.44 722.97 163.46 721.85 163.55 720.74 163.73 718.51 164.08 714.07 147.42 745.66 139.09 761.34 138.14 763.11 137.62 764.04 136.57 765.9 134.47 769.62"/>
          <polygon class="cls-1" points="163.81 705.29 164.51 696.53 147.84 726 139.51 740.62 138.47 742.44 138.07 743.13 137.77 743.63 136.57 745.64 134.16 749.67 134.01 759.07 136.29 755.18 137.42 753.24 137.98 752.27 138.29 751.73 138.82 750.79 147.15 735.7 163.81 705.29"/>
        </g>
        <g>
          <path class="cls-1" d="M258.72,653.68c9.43-8.42,17.25-13.11,24.99-16.58,7.72-3.45,15.31-5.65,23.67-8.53,8.34-2.87,17.46-6.42,27.82-12.23,10.33-5.79,21.96-13.87,34.62-25.17l4.55,8.46c-13.44,11.99-25.73,20.67-36.67,27-10.97,6.36-20.64,10.41-29.52,13.76-8.9,3.37-17.03,6.05-25.33,10.01-8.32,3.99-16.76,9.23-26.9,18.28"/>
          <path class="cls-1" d="M247.47,714.65c13.01-11.08,24.91-23.79,35.41-36.6,10.52-12.83,19.68-25.58,28.07-37.64,8.4-12.07,16.02-23.45,23.89-33.91,7.89-10.48,15.99-20,25.96-28.89l4.47,8.53c-10.65,9.5-19.36,19.57-27.82,30.55-8.44,10.97-16.6,22.83-25.54,35.39-8.93,12.55-18.64,25.8-29.77,39.16-2.78,3.36-5.64,6.6-8.59,9.88-1.47,1.63-2.97,3.27-4.49,4.89-1.51,1.59-3.04,3.13-4.59,4.69-3.1,3.09-6.3,6.16-9.56,9.12-3.23,2.88-6.55,5.7-9.94,8.45"/>
          <path class="cls-1" d="M481.1,455.21c-23.83,21.27-37.03,42.21-50.82,63.68-6.89,10.73-13.93,21.59-22.51,32.69-2.15,2.77-4.39,5.56-6.75,8.37-2.34,2.79-4.9,5.68-7.35,8.37-5.02,5.48-10.66,11.09-16.99,16.73l4.97,8.08c6.71-5.99,12.72-11.92,18.08-17.71,2.7-2.91,5.14-5.7,7.51-8.51,2.36-2.8,4.6-5.59,6.75-8.37,8.58-11.09,15.62-21.95,22.52-32.68,13.79-21.46,26.99-42.4,50.82-63.67"/>
          <path class="cls-1" d="M506.76,483.97c-25.35,22.63-48.84,34.43-71.77,45.74-11.46,5.65-22.78,11.18-34.13,17.87-2.84,1.67-5.67,3.42-8.51,5.26-1.42.92-2.84,1.86-4.27,2.83-1.27.86-2.55,1.73-3.85,2.61-5.02,3.48-9.96,7.32-14.95,11.77l5.05,8.01c5.33-4.76,10.6-8.88,15.93-12.64,1.35-.95,2.63-1.82,4.05-2.78,1.42-.97,2.84-1.91,4.27-2.83,2.84-1.84,5.68-3.58,8.52-5.26,11.34-6.69,22.67-12.21,34.13-17.87,22.93-11.3,46.42-23.11,71.77-45.73"/>
          <path class="cls-1" d="M328.43,569.95c6.98,6.9,15.05,12.82,24.21,17.77,12.05.44,25.66-.51,40.84-2.85,3.79-.59,7.68-1.26,11.67-2.02l3.01-.59c.99-.19,2.06-.44,3-.58l5.76-.95,23.06-3.78-39.64-3.64c-29.96,4.22-53.92,3.1-71.91-3.36Z"/>
          <path class="cls-1" d="M345.9,656.89c6.06-17.95,10.82-34.73,14.28-50.36,6.7-16.4,11.94-31.48,15.71-45.26.94-3.45,1.79-6.81,2.55-10.09l.55-2.45c.2-.83.28-1.55.63-2.52l1.77-5.49,7.09-21.95-.85,19.31-.43,9.66-.21,4.83-.11,2.41c-.05.82.02,1.53.02,2.31-7.58,27.77-21.25,60.96-41.01,99.6Z"/>
          <path class="cls-1" d="M380.4,598.94l7.1-6.09c-6-9.58-12.04-19.13-18.12-28.65l-5.68,4.83c5.61,9.94,11.18,19.9,16.71,29.91Z"/>
          <path class="cls-1" d="M387.33,592.63l7.39-5.66c-5.85-9.66-11.86-19.19-18.02-28.57l-6,4.4c5.7,9.8,11.25,19.74,16.63,29.82Z"/>
          <path class="cls-1" d="M363.9,569.23l-5.91,4.34c4.65,10.74,9.14,21.62,13.47,32.64l7.3-5.58c-4.8-10.61-9.75-21.08-14.87-31.4Z"/>
        </g>
        <g>
          <path class="cls-1" d="M481.12,455.2c47.66-42.54,89.22-42.98,141.53-89.67l6.22,6.97c-52.31,46.69-93.86,47.14-141.52,89.68"/>
          <path class="cls-1" d="M506.78,483.95c50.71-45.25,57.57-88,103.77-129.23l6.22,6.97c-46.2,41.23-53.05,83.99-103.76,129.24"/>
          <path class="cls-1" d="M734.87,228.73c-47.66,42.54-52.81,83.78-105.12,130.46l6.22,6.97c52.31-46.68,57.47-87.91,105.13-130.45"/>
          <path class="cls-1" d="M760.53,257.48c-50.71,45.25-93.95,47.23-140.16,88.46l6.22,6.97c46.2-41.23,89.46-43.2,140.17-88.45"/>
          <polygon class="cls-1" points="564.43 359.32 601.51 365.6 693.75 350.47 654.12 346.81 564.43 359.32"/>
          <polygon class="cls-1" points="610.66 420.6 613.89 380.1 642.26 292.29 640.56 330.92 610.66 420.6"/>
          <polygon class="cls-1" points="635.33 371.43 642.12 365.6 620.4 340.17 613.61 345.99 635.33 371.43"/>
          <polygon class="cls-1" points="641.92 365.41 649.04 359.99 629.11 333.13 621.98 338.54 641.92 365.41"/>
          <polygon class="cls-1" points="613.86 346.15 606.74 351.57 626.68 378.44 633.8 373.02 613.86 346.15"/>
        </g>
        <g>
          <path class="cls-1" d="M734.89,228.72c47.66-42.54,89.22-42.98,141.53-89.67l6.22,6.97c-52.31,46.69-93.86,47.14-141.52,89.68"/>
          <path class="cls-1" d="M760.55,257.47c50.71-45.25,57.57-88,103.77-129.23l6.22,6.97c-46.2,41.23-53.05,83.99-103.76,129.24"/>
          <path class="cls-1" d="M988.64,2.25c-47.66,42.54-52.81,83.78-105.12,130.46l6.22,6.97c52.31-46.68,57.47-87.91,105.13-130.45"/>
          <path class="cls-1" d="M1014.3,31c-50.71,45.25-93.95,47.23-140.16,88.46l6.22,6.97c46.2-41.23,89.46-43.2,140.16-88.45"/>
          <polygon class="cls-1" points="818.2 132.84 855.28 139.12 947.52 123.99 907.89 120.33 818.2 132.84"/>
          <polygon class="cls-1" points="864.43 194.11 867.66 153.62 896.03 65.81 894.33 104.43 864.43 194.11"/>
          <polygon class="cls-1" points="889.1 144.94 895.89 139.12 874.17 113.69 867.38 119.51 889.1 144.94"/>
          <polygon class="cls-1" points="895.69 138.93 902.81 133.51 882.88 106.65 875.75 112.05 895.69 138.93"/>
          <polygon class="cls-1" points="867.63 119.66 860.51 125.09 880.45 151.96 887.57 146.54 867.63 119.66"/>
        </g>
      </g>
      <g>
        <path class="cls-1" d="M2.25,509.74c57.24,0,85.29,27.34,148.11,27.34v9.34c-62.83,0-90.87-27.33-148.11-27.33"/>
        <path class="cls-1" d="M2.25,548.27c60.9,0,90.99-27.32,146.48-27.32v9.34c-55.49,0-85.58,27.34-146.48,27.34"/>
        <path class="cls-1" d="M307.01,509.74c-57.24,0-85.29,27.34-148.11,27.34v9.34c62.82,0,90.87-27.33,148.11-27.33"/>
        <path class="cls-1" d="M307.01,548.27c-60.9,0-90.99-27.32-146.48-27.32v9.34c55.49,0,85.58,27.34,146.48,27.34"/>
        <polygon class="cls-1" points="115.15 493.68 136.19 523.06 206.89 573.18 182.57 544.07 115.15 493.68"/>
        <polygon class="cls-1" points="109.5 570.18 135.82 542.11 207.18 495.49 182.99 523.18 109.5 570.18"/>
        <polygon class="cls-1" points="155.33 549.92 163.34 550.1 164 516.66 155.98 516.48 155.33 549.92"/>
        <polygon class="cls-1" points="163.33 549.82 171.32 550.52 174.02 517.2 166.03 516.49 163.33 549.82"/>
        <polygon class="cls-1" points="156.06 516.76 148.06 516.07 145.36 549.39 153.35 550.09 156.06 516.76"/>
      </g>
      <g>
        <path class="cls-1" d="M1068.77,355.88c0,13.57-3.44,26.34-9,36.98-5.56,10.69-13.15,19.33-21.57,25.84-8.43,6.53-17.75,10.92-27.13,13.45-9.39,2.55-18.89,3.16-27.93,2.22-18.04-1.88-34.67-9.79-47.46-22.22-6.4-6.22-11.92-13.57-16.17-22.01-4.2-8.46-7.19-18.02-8.09-28.53l9.3-.81c.77,9.01,3.27,17.19,6.78,24.51,3.56,7.31,8.2,13.75,13.65,19.27,10.87,11.04,25.2,18.42,41.18,20.48,7.99,1.02,16.44.69,24.85-1.42,8.4-2.08,16.82-5.85,24.45-11.6,7.63-5.73,14.53-13.41,19.59-22.97,5.06-9.52,8.2-20.98,8.2-33.19"/>
        <path class="cls-1" d="M1030.23,355.88c-.09,16.95-5.91,31.63-15.12,43.36-4.62,5.86-10.14,10.98-16.47,15.1-6.31,4.11-13.42,7.3-21.07,9.11-3.82.92-7.78,1.54-11.84,1.79-4.06.22-8.22.08-12.41-.47-8.39-1.09-16.93-3.89-24.91-8.61-7.97-4.7-15.41-11.34-21.27-19.88-5.86-8.51-10.11-18.99-11.51-30.55l9.27-1.12c1.23,10.23,5.04,19.48,10.3,26.96,5.26,7.5,11.92,13.28,19.02,17.29,7.11,4.03,14.68,6.31,22.05,7.06,3.69.38,7.32.39,10.86.09,3.54-.32,6.97-.98,10.27-1.89,6.6-1.79,12.62-4.79,17.9-8.5,5.28-3.72,9.82-8.25,13.57-13.33,3.74-5.08,6.72-10.7,8.77-16.78,2.04-6.08,3.2-12.58,3.24-19.62"/>
        <path class="cls-1" d="M1068.77,355.84c0-13.57-3.45-26.34-9.02-36.98-5.57-10.69-13.16-19.33-21.59-25.83-8.43-6.53-17.75-10.91-27.14-13.44-9.39-2.55-18.89-3.15-27.93-2.21-18.04,1.89-34.67,9.8-47.45,22.25-6.4,6.22-11.92,13.57-16.16,22.02-4.19,8.46-7.19,18.02-8.08,28.53l9.3.81c.76-9.01,3.26-17.19,6.77-24.51,3.55-7.31,8.2-13.75,13.64-19.28,10.86-11.04,25.19-18.43,41.18-20.5,7.99-1.03,16.44-.69,24.85,1.41,8.4,2.08,16.82,5.85,24.45,11.59,7.63,5.72,14.54,13.41,19.6,22.96,5.06,9.52,8.21,20.97,8.21,33.19"/>
        <path class="cls-1" d="M1030.23,355.85c-.1-16.95-5.93-31.63-15.14-43.36-4.62-5.86-10.15-10.98-16.47-15.09-6.31-4.1-13.42-7.3-21.07-9.1-3.82-.92-7.78-1.54-11.84-1.78-4.06-.22-8.22-.08-12.41.47-8.39,1.09-16.93,3.9-24.91,8.62-7.97,4.71-15.4,11.35-21.26,19.89-5.86,8.51-10.1,19-11.49,30.55l9.27,1.12c1.23-10.23,5.04-19.48,10.29-26.96,5.25-7.5,11.91-13.28,19.02-17.3,7.11-4.03,14.68-6.32,22.05-7.06,3.69-.38,7.32-.4,10.86-.1,3.54.32,6.97.98,10.27,1.89,6.61,1.79,12.63,4.79,17.9,8.49,5.29,3.72,9.83,8.25,13.57,13.32,3.74,5.08,6.72,10.7,8.78,16.77,2.05,6.08,3.21,12.58,3.24,19.62"/>
        <path class="cls-1" d="M901.78,434.77c-4.67-17.88-3.86-35.23,1.01-49.51.29-10.5,2.81-20.19,6.9-28.33,4.06-8.15,9.57-14.8,15.74-19.53,6.18-4.75,12.95-7.6,19.42-8.69,6.47-1.1,12.63-.43,17.7,1.58-4.42-3.11-9.81-5.38-15.78-6.47-5.95-1.08-12.55-1.05-19.24.4-7.21,3.34-14.21,8.6-20.14,15.65-2.97,3.52-5.69,7.48-8.02,11.81-2.32,4.33-4.29,9.03-5.82,14.07-3.08,10.08-4.18,21.47-2.93,33.3,1.24,11.83,4.92,24.07,11.16,35.72Z"/>
        <path class="cls-1" d="M957.17,381.58c-10.22,4.05-23.71,3.59-36.51-2.96-6.41-5.33-12.05-12.59-16.09-21.29-4.06-8.67-6.57-18.89-6.71-29.86-.16-10.96,1.99-22.61,6.69-33.94,4.69-11.32,11.95-22.33,21.7-31.91-5.69,8.23-9.76,16.93-12.38,25.49-2.58,8.62-3.71,17.12-3.48,25.15-2.25,10.48-2.1,20.76.03,29.88,2.12,9.13,6.13,17.07,11.18,23.31,5.05,6.25,11.17,10.73,17.4,13.37,6.24,2.66,12.58,3.48,18.17,2.77Z"/>
        <path class="cls-1" d="M924.02,355.13c.07-2.89.44-5.75,1.01-8.57-10.93-2.21-21.83-4.56-32.7-7.07-.99,4.62-1.51,9.32-1.71,14.02,11.13.69,22.27,1.23,33.41,1.62Z"/>
        <path class="cls-1" d="M924.74,346.54c.75-2.78,1.67-5.5,2.87-8.09-10.14-4.65-20-9.86-29.65-15.65-2.03,4.22-3.72,8.63-5.05,13.16,10.44,4.13,21.04,7.65,31.83,10.58Z"/>
        <path class="cls-1" d="M890.9,353.39c-.38,4.66-.38,9.37.05,14.1,11.19.1,22.43-.43,33.49-1.56-.34-2.89-.38-5.79-.23-8.66-5.56-.34-11.14-.83-16.7-1.48-5.54-.65-11.08-1.44-16.61-2.39Z"/>
      </g>
    </g>
  </g>
</svg>