<?xml version="1.0" encoding="UTF-8"?>
<svg id="Layer_2" data-name="Layer 2" xmlns="http://www.w3.org/2000/svg" viewBox="0 0 785.96 894.97">
  <defs>
    <style>
      .cls-1 {
        fill: #bfbfbf;
        stroke: #000;
        stroke-linecap: round;
        stroke-width: 4.5px;
      }
    </style>
  </defs>
  <g id="Layer_2-2" data-name="Layer 2">
    <g>
      <g>
        <g>
          <path class="cls-1" d="M606.59,39.78c-43.01,34.08-81.06,29.34-128.26,66.74l-5.8-7.32c47.2-37.4,85.24-32.67,128.25-66.75"/>
          <path class="cls-1" d="M582.66,9.58c-45.75,36.25-51.39,75.58-93.08,108.61l-5.8-7.32c41.69-33.03,47.32-72.37,93.08-108.62"/>
          <path class="cls-1" d="M377.62,221.2c43.01-34.08,47.1-72.2,94.31-109.6l-5.8-7.32c-47.2,37.4-51.3,75.51-94.31,109.59"/>
          <path class="cls-1" d="M353.69,191c45.75-36.25,85.33-32.75,127.02-65.78l-5.8-7.32c-41.69,33.03-81.28,29.52-127.03,65.77"/>
          <polygon class="cls-1" points="531.74 119.58 497.68 109.08 413.45 111.87 449.79 120.22 531.74 119.58"/>
          <polygon class="cls-1" points="488.48 56.25 486.13 93.92 461.47 172.94 462.45 136.84 488.48 56.25"/>
          <polygon class="cls-1" points="466.63 99.41 460.49 104.04 480.77 130.64 486.9 126.01 466.63 99.41"/>
          <polygon class="cls-1" points="460.68 104.25 454.24 108.46 472.9 136.18 479.35 131.98 460.68 104.25"/>
          <polygon class="cls-1" points="486.67 125.84 493.11 121.62 474.44 93.89 468 98.1 486.67 125.84"/>
        </g>
        <g>
          <path class="cls-1" d="M377.6,221.21c-43.01,34.08-81.06,29.34-128.26,66.74l-5.8-7.32c47.2-37.4,85.24-32.67,128.25-66.75"/>
          <path class="cls-1" d="M353.67,191.01c-45.75,36.25-51.39,75.58-93.08,108.61l-5.8-7.32c41.69-33.03,47.32-72.37,93.08-108.62"/>
          <path class="cls-1" d="M148.63,402.63c43.01-34.08,47.1-72.2,94.31-109.6l-5.8-7.32c-47.2,37.4-51.3,75.51-94.31,109.59"/>
          <path class="cls-1" d="M124.7,372.43c45.75-36.25,85.33-32.75,127.02-65.78l-5.8-7.32c-41.69,33.03-81.28,29.52-127.03,65.77"/>
          <polygon class="cls-1" points="302.75 301.01 268.69 290.51 184.46 293.3 220.8 301.65 302.75 301.01"/>
          <polygon class="cls-1" points="259.49 237.68 257.14 275.35 232.48 354.37 233.46 318.27 259.49 237.68"/>
          <polygon class="cls-1" points="237.64 280.84 231.5 285.47 251.78 312.07 257.91 307.44 237.64 280.84"/>
          <polygon class="cls-1" points="231.69 285.68 225.25 289.89 243.91 317.61 250.36 313.41 231.69 285.68"/>
          <polygon class="cls-1" points="257.68 307.27 264.12 303.05 245.45 275.33 239.01 279.53 257.68 307.27"/>
        </g>
        <g>
          <path class="cls-1" d="M148.61,402.65c-21.5,17.04-41.77,24.37-62.56,32.12l-1.95.73-.49.18-.24.09-.12.05c-.1.07.25-.2.36-.3l.48-.44c.32-.3.62-.6.92-.93,2.45-2.62,4.07-6.19,4.43-9.7.39-3.51-.31-7.02-2.04-10.13-1.7-3.12-4.6-5.72-7.64-7.07-.26-.12-.06-.02-.11-.04l.02.02.05.04.1.09.19.18.77.71,1.54,1.42c2.07,1.9,4.16,3.79,6.3,5.68,4.28,3.78,8.76,7.52,13.58,11.19,9.64,7.35,20.66,14.39,34.3,20.78l-3.96,8.46c-13.63-6.39-24.66-13.43-34.3-20.78-4.82-3.67-9.3-7.42-13.58-11.19-2.14-1.89-4.24-3.78-6.3-5.68l-1.54-1.42-.77-.71-.19-.18-.1-.09-.05-.04-.02-.02s-.08-.04.04,0c1.35.57,2.66,1.7,3.44,3.08.8,1.37,1.15,2.94,1,4.53-.13,1.58-.84,3.22-1.93,4.44-.13.15-.27.29-.41.43l-.37.34.12-.05.24-.09.49-.18,1.95-.73c20.79-7.75,41.05-15.09,62.55-32.13"/>
          <path class="cls-1" d="M124.68,372.44c-11.44,9.06-20.37,18.32-27.98,27.62-3.81,4.65-7.28,9.31-10.58,13.97-1.65,2.33-3.25,4.65-4.83,6.98-.79,1.16-1.57,2.32-2.35,3.48l-1.16,1.74-.58.87-.29.43-.07.11-.04.05c.13-.09.27-.2.4-.32.52-.45,1.02-1.01,1.4-1.64,1.56-2.57,1.35-5.89-.68-8.29-.5-.59-1.11-1.1-1.73-1.49-.16-.1-.32-.19-.48-.27-.05-.03.02,0,.03,0l.13.02.52.07,2.06.26,4.12.53c2.75.36,5.49.73,8.23,1.13,5.49.8,11,1.73,16.56,2.92,11.14,2.39,22.52,5.83,34.57,11.47l-3.96,8.46c-12.04-5.64-23.43-9.09-34.57-11.47-5.57-1.19-11.07-2.12-16.56-2.92-2.75-.4-5.49-.77-8.23-1.13l-4.12-.53-2.06-.26-.52-.07-.13-.02s-.04,0-.07-.01l-.14-.05c-.19-.08-.38-.19-.55-.33-.68-.58-.97-1.63-.55-2.58,1.67-2.48,3.34-4.96,5.03-7.47,1.58-2.32,3.18-4.65,4.83-6.98,3.3-4.66,6.77-9.32,10.58-13.97,7.61-9.3,16.54-18.56,27.98-27.62"/>
          <path class="cls-1" d="M284.08,486.26c-49.69-23.27-85.63-9.92-140.17-35.46l-3.96,8.46c54.54,25.54,90.47,12.2,140.17,35.47"/>
          <path class="cls-1" d="M267.73,521.16c-52.86-24.76-67.4-61.74-115.56-84.3l-3.96,8.46c48.17,22.56,62.69,59.55,115.56,84.31"/>
          <polygon class="cls-1" points="124.34 393.72 130.15 428.87 170.25 503.01 161.5 466.76 124.34 393.72"/>
          <polygon class="cls-1" points="86.99 460.7 121.73 445.98 203.46 432.77 170.72 448.01 86.99 460.7"/>
          <polygon class="cls-1" points="135.36 460.98 142.24 464.4 156.99 434.39 150.11 430.97 135.36 460.98"/>
          <polygon class="cls-1" points="142.35 464.14 148.99 468.02 165.46 438.95 158.83 435.06 142.35 464.14"/>
          <polygon class="cls-1" points="150.06 431.25 143.41 427.37 126.94 456.45 133.58 460.33 150.06 431.25"/>
        </g>
        <g>
          <path class="cls-1" d="M242.46,844.45c-43.27,9.07-70.08-13.25-117.57-3.3l-1.92-9.14c47.49-9.95,74.3,12.35,117.57,3.28"/>
          <path class="cls-1" d="M234.55,806.73c-46.04,9.65-63.18,41.16-105.13,49.95l-1.92-9.14c41.95-8.79,59.09-40.31,105.12-49.96"/>
          <path class="cls-1" d="M12.07,892.72c43.27-9.07,58.87-40.27,106.36-50.22l-1.92-9.14c-47.49,9.95-63.09,41.14-106.36,50.21"/>
          <path class="cls-1" d="M4.17,855c46.04-9.65,74.39,12.33,116.33,3.54l-1.92-9.14c-41.95,8.79-70.3-13.2-116.34-3.56"/>
          <polygon class="cls-1" points="160.4 878.05 138.47 852.63 74.75 814.77 99.1 839.41 160.4 878.05"/>
          <polygon class="cls-1" points="148.98 802.28 134.85 833.91 90.46 890.85 103.06 859.92 148.98 802.28"/>
          <polygon class="cls-1" points="118.5 829.36 112.4 830.46 118.76 863.29 124.86 862.19 118.5 829.36"/>
          <polygon class="cls-1" points="112.47 830.73 106.29 831.31 111.08 864.35 117.26 863.78 112.47 830.73"/>
          <polygon class="cls-1" points="124.74 861.93 130.93 861.35 126.14 828.3 119.95 828.88 124.74 861.93"/>
        </g>
        <g>
          <path class="cls-1" d="M232.59,797.37c3.35-.7,6.69-1.4,10.01-2.09,3.34-.68,6.66-1.35,9.98-2.02,3.32-.65,6.63-1.3,9.93-1.95,3.3-.63,6.6-1.25,9.88-1.88,3.29-.6,6.56-1.21,9.83-1.81,3.27-.58,6.53-1.16,9.77-1.74,3.25-.56,6.49-1.12,9.71-1.67,3.23-.54,6.44-1.07,9.65-1.61,3.2-.52,6.4-1.03,9.58-1.54,3.18-.49,6.35-.99,9.51-1.48,3.16-.47,6.3-.95,9.43-1.42,3.13-.45,6.25-.91,9.35-1.36,3.1-.43,6.19-.87,9.27-1.3,3.07-.41,6.13-.83,9.18-1.24,3.04-.4,6.08-.79,9.09-1.18,3.01-.38,6.01-.75,9-1.13,5.95-.7,11.86-1.4,17.7-2.09,5.82-.64,11.58-1.26,17.28-1.89,5.67-.57,11.28-1.13,16.83-1.69,5.52-.51,10.97-1.01,16.35-1.51,5.35-.45,10.63-.89,15.84-1.33,5.18-.39,10.28-.78,15.31-1.17,4.99-.34,9.91-.68,14.74-1.01,4.8-.29,9.51-.58,14.14-.87,4.6-.25,9.1-.5,13.51-.74,4.38-.21,8.67-.41,12.85-.61,4.16-.17,8.22-.34,12.17-.5,3.93-.14,7.74-.27,11.45-.4,3.68-.11,7.25-.21,10.7-.31,3.43-.08,6.74-.15,9.93-.23,3.17-.05,6.21-.11,9.12-.15,2.89-.03,5.66-.06,8.29-.09,5.21-.02,9.88-.03,13.96-.05,4.03.03,7.46.05,10.26.07,2.76.04,4.89.08,6.33.1,1.42.03,2.16.05,2.16.05-2.21.03-4.43.07-6.66.1-2.25.05-4.52.11-6.79.16-2.3.07-4.6.15-6.92.22-2.34.09-4.68.18-7.04.28-2.38.11-4.76.22-7.16.33-2.41.13-4.83.25-7.26.38-2.45.14-4.9.29-7.36.43-2.48.16-4.96.32-7.46.48-2.51.18-5.02.35-7.54.53-2.53.19-5.07.38-7.62.57-5.12.42-10.28.85-15.45,1.28-5.21.48-10.43.95-15.68,1.43-5.27.52-10.56,1.05-15.85,1.57-5.32.57-10.64,1.13-15.96,1.7-5.34.6-10.68,1.21-16.01,1.81-5.35.64-10.69,1.27-16.01,1.91-5.34.67-10.66,1.33-15.95,1.99-5.31.69-10.59,1.38-15.83,2.06-5.26.71-10.48,1.41-15.65,2.11-5.19.72-10.33,1.44-15.42,2.15-5.1.73-10.14,1.45-15.13,2.17-9.99,1.49-19.73,2.94-29.16,4.34-9.44,1.47-18.57,2.89-27.3,4.24-8.74,1.41-17.1,2.76-24.98,4.03-7.89,1.31-15.32,2.55-22.21,3.69-13.78,2.37-25.4,4.37-34.24,5.89-8.84,1.56-14.91,2.63-17.59,3.1"/>
          <path class="cls-1" d="M263.77,529.62c1.35.62,2.74,1.26,4.18,1.92,1.45.65,2.94,1.32,4.48,2.01,3.08,1.35,6.33,2.77,9.73,4.26,3.41,1.45,6.98,2.97,10.69,4.55,3.71,1.55,7.57,3.15,11.55,4.81,3.99,1.63,8.1,3.31,12.34,5.04,4.23,1.7,8.58,3.45,13.03,5.24,4.45,1.77,9,3.57,13.64,5.41,4.64,1.82,9.37,3.67,14.17,5.56,9.6,3.71,19.49,7.54,29.56,11.43,10.06,3.83,20.3,7.73,30.61,11.66,10.3,3.87,20.66,7.77,30.98,11.65,10.31,3.84,20.56,7.65,30.65,11.41,20.16,7.41,39.65,14.58,57.56,21.17,17.88,6.5,34.18,12.42,47.96,17.42,27.53,9.89,45,16.17,45,16.17l-8.81-13.15c-4.25-1.45-8.55-2.92-12.9-4.4-4.36-1.51-8.77-3.04-13.22-4.58-4.46-1.57-8.96-3.15-13.49-4.75-4.54-1.62-9.12-3.25-13.72-4.89-9.22-3.35-18.56-6.73-27.95-10.14-9.41-3.48-18.88-6.98-28.35-10.48-9.48-3.56-18.96-7.13-28.39-10.67-9.44-3.6-18.82-7.17-28.09-10.7-9.28-3.58-18.44-7.11-27.44-10.58-9-3.51-17.83-6.95-26.43-10.3-8.61-3.38-16.98-6.68-25.08-9.86-8.1-3.21-15.91-6.31-23.38-9.27-14.94-5.99-28.51-11.43-40.25-16.13-11.74-4.77-21.64-8.8-29.25-11.89-7.59-3.14-12.88-5.33-15.42-6.38"/>
          <path class="cls-1" d="M242.45,844.44c7.73-1.54,15.5-3.08,23.29-4.63,7.8-1.5,15.61-3,23.43-4.51,7.81-1.46,15.62-2.93,23.4-4.38,7.78-1.43,15.53-2.85,23.23-4.27,15.39-2.79,30.57-5.54,45.31-8.21,14.75-2.7,29.07-5.32,42.77-7.82,6.85-1.29,13.54-2.55,20.05-3.78,6.51-1.27,12.83-2.5,18.95-3.7,3.06-.62,6.06-1.22,9.02-1.82,2.95-.61,5.85-1.21,8.69-1.8,2.84-.61,5.61-1.2,8.33-1.79,2.71-.6,5.37-1.19,7.96-1.77,2.59-.6,5.11-1.18,7.58-1.75,2.45-.6,4.84-1.18,7.17-1.74,2.31-.59,4.56-1.17,6.74-1.73,1.08-.29,2.15-.58,3.2-.86,1.05-.29,2.08-.57,3.09-.85,1.01-.29,2-.57,2.97-.85.97-.29,1.92-.57,2.85-.85.93-.29,1.84-.57,2.73-.85.88-.29,1.75-.57,2.61-.84.84-.28,1.67-.56,2.48-.84.8-.28,1.58-.56,2.36-.84.75-.28,1.5-.56,2.22-.83.71-.28,1.41-.56,2.09-.83l7.54-7.71c-2.06.47-4.28.97-6.67,1.51-2.39.52-4.95,1.08-7.65,1.67-5.42,1.14-11.43,2.41-17.93,3.78-6.51,1.33-13.52,2.76-20.92,4.26-7.4,1.47-15.2,3.03-23.28,4.64-16.17,3.15-33.49,6.52-51.13,9.96-17.64,3.37-35.61,6.8-53.06,10.13-34.9,6.55-67.75,12.71-91.88,17.23-24.12,4.46-39.52,7.31-39.52,7.31"/>
          <path class="cls-1" d="M284.08,486.26s6.27,2.71,17.38,7.51c5.56,2.43,12.33,5.39,20.14,8.79,7.8,3.44,16.63,7.33,26.32,11.6,9.68,4.31,20.21,9.01,31.42,14.01,11.19,5.05,23.07,10.41,35.44,16,12.35,5.66,25.2,11.55,38.37,17.59,6.58,3.05,13.23,6.14,19.95,9.26,6.71,3.14,13.47,6.31,20.28,9.5,6.79,3.22,13.62,6.45,20.47,9.7,6.83,3.27,13.68,6.56,20.53,9.84,6.83,3.31,13.65,6.63,20.45,9.93,6.78,3.34,13.53,6.66,20.24,9.97,6.68,3.34,13.31,6.66,19.89,9.95,6.54,3.33,13.01,6.63,19.4,9.89,3.18,1.65,6.34,3.28,9.48,4.91,3.13,1.64,6.23,3.26,9.31,4.87,3.06,1.62,6.1,3.23,9.12,4.83,3,1.61,5.97,3.2,8.91,4.78,2.93,1.59,5.82,3.17,8.69,4.73,2.85,1.57,5.67,3.13,8.45,4.67,2.76,1.55,5.5,3.09,8.19,4.6,2.67,1.53,5.32,3.04,7.92,4.53,2.58,1.5,5.12,2.99,7.63,4.45,2.48,1.48,4.92,2.93,7.32,4.36,2.37,1.45,4.7,2.87,7,4.27,2.26,1.41,4.48,2.8,6.66,4.17,2.14,1.38,4.24,2.74,6.3,4.07,1.01.67,2.02,1.33,3.01,1.99.98.66,1.95,1.31,2.92,1.96.95.65,1.89,1.3,2.82,1.93.91.64,1.82,1.28,2.72,1.9.88.63,1.75,1.25,2.62,1.87.85.62,1.68,1.23,2.51,1.84.81.61,1.61,1.21,2.41,1.81.77.6,1.54,1.19,2.3,1.77.74.59,1.46,1.17,2.19,1.74.7.57,1.39,1.14,2.07,1.71.66.56,1.31,1.12,1.96,1.67.62.55,1.23,1.09,1.84,1.63l.88.8.21.2.05.05s-.03.03-.04.04l-.12.07-.49.29c-.67.38-1.34.76-2,1.14l-50.01,13.86,2.52-.99,2.46-1,2.4-1.02,2.35-1.04,2.29-1.05,2.23-1.07,2.18-1.08,2.13-1.09,2.07-1.11,2.02-1.12c.65-.38,1.31-.76,1.97-1.14.64-.38,1.27-.77,1.91-1.15.62-.39,1.24-.77,1.86-1.16.6-.39,1.21-.78,1.81-1.18.58-.4,1.17-.79,1.76-1.19.57-.4,1.14-.8,1.71-1.2.02-.01-.03-.03-.04-.05l-.06-.05-.13-.1-.25-.21-.51-.41-1.03-.82c-.7-.55-1.4-1.1-2.11-1.66-.72-.56-1.44-1.11-2.17-1.68-.74-.56-1.49-1.12-2.24-1.69-.76-.57-1.53-1.13-2.3-1.7-.78-.57-1.57-1.14-2.37-1.72-.81-.57-1.61-1.15-2.43-1.73-.83-.58-1.66-1.16-2.49-1.74-1.7-1.16-3.42-2.34-5.16-3.53-1.78-1.18-3.58-2.37-5.4-3.58-1.86-1.2-3.73-2.41-5.63-3.63-1.93-1.21-3.88-2.44-5.86-3.68-2-1.23-4.03-2.47-6.07-3.72-2.07-1.24-4.17-2.5-6.28-3.76-2.14-1.26-4.3-2.53-6.49-3.81-2.21-1.27-4.43-2.55-6.68-3.85-2.27-1.28-4.56-2.58-6.87-3.89-2.33-1.3-4.68-2.6-7.06-3.92-2.39-1.31-4.8-2.63-7.23-3.96-2.45-1.32-4.91-2.65-7.4-3.99-2.5-1.33-5.02-2.67-7.56-4.02-2.55-1.34-5.13-2.69-7.72-4.05-5.22-2.69-10.51-5.42-15.88-8.18-5.4-2.72-10.88-5.48-16.42-8.28-5.57-2.76-11.21-5.54-16.91-8.36-5.72-2.78-11.5-5.59-17.34-8.43-5.85-2.8-11.76-5.63-17.72-8.48-5.97-2.82-11.98-5.66-18.04-8.52-6.07-2.83-12.17-5.68-18.31-8.55-6.15-2.84-12.32-5.69-18.52-8.56-6.21-2.84-12.43-5.69-18.68-8.55-12.5-5.66-25.06-11.35-37.61-17.04-25.13-11.24-50.22-22.45-74.71-33.4-24.48-10.92-48.36-21.58-71.09-31.72"/>
          <polygon class="cls-1" points="691.03 803.15 654.98 774.35 490.04 732.78 536.03 760.57 691.03 803.15"/>
          <polygon class="cls-1" points="751.61 703.83 758.01 719.04 759.6 722.84 759.65 722.96 759.68 723.02 759.69 723.05 759.7 723.07 759.67 723.08 759.17 723.25 758.19 723.58 756.21 724.26 752.26 725.61 736.47 731.01 673.28 752.6 397.7 829.63 515.96 784.42 657.81 746.92 728.73 728.17 746.46 723.48 750.89 722.31 751.45 722.16 751.58 722.12 751.58 722.07 751.58 721.96 751.58 721.54 751.58 720.7 751.59 717.33 751.61 703.83"/>
          <polygon class="cls-1" points="622.35 747.97 598.64 749.52 566.54 787.68 590.23 786.14 622.35 747.97"/>
          <polygon class="cls-1" points="598.48 749.84 575.34 750.79 537.27 789.27 560.4 788.32 598.48 749.84"/>
          <polygon class="cls-1" points="590.28 785.84 613.41 784.89 651.49 746.4 628.34 747.34 590.28 785.84"/>
          <path class="cls-1" d="M707.24,763.52l29.8-25.55,14.9-12.78,1.86-1.6.93-.8.23-.2.06-.05h.01s0-.02,0-.03l-.05-.03-.18-.13-.72-.54-5.8-4.3-11.59-8.6-230.65-129.85,86.16,60.1,118.62,69.28,14.83,8.66,3.71,2.17.46.27.11.07-.03.05-.05.1-.21.41-.42.82-1.69,3.27-6.77,13.09-13.53,26.17Z"/>
          <polygon class="cls-1" points="785.49 671.95 726.75 684.46 550.22 679.92 603.12 665.97 785.49 671.95"/>
          <polygon class="cls-1" points="666.57 656.47 643.56 648.89 661.06 691.8 684.06 699.38 666.57 656.47"/>
          <polygon class="cls-1" points="643.82 649.28 620.6 641.07 632.16 681.97 655.38 690.18 643.82 649.28"/>
          <polygon class="cls-1" points="683.66 698.94 706.89 707.16 695.3 666.25 672.09 658.03 683.66 698.94"/>
        </g>
      </g>
      <g>
        <path class="cls-1" d="M281.87,106.91c23.15-18.1,51.33-5.44,76.75-25.31l5.75,7.36c-25.41,19.87-53.59,7.21-76.74,25.32"/>
        <path class="cls-1" d="M305.61,137.26c24.63-19.26,19.97-50.3,42.41-67.85l5.75,7.36c-22.44,17.55-17.77,48.6-42.4,67.86"/>
        <path class="cls-1" d="M405.14,10.52c-23.15,18.1-17.66,48.51-43.07,68.38l5.75,7.36c25.41-19.87,19.92-50.27,43.07-68.37"/>
        <path class="cls-1" d="M428.87,40.88c-24.63,19.26-53.63,7.25-76.08,24.8l5.75,7.36c22.44-17.55,51.45-5.53,76.08-24.79"/>
        <polygon class="cls-1" points="317.65 58.55 344.25 75.04 403.72 92.17 375.95 76.92 317.65 58.55"/>
        <polygon class="cls-1" points="362.48 120.6 355.84 90.17 355.99 30.87 363.26 60.33 362.48 120.6"/>
        <polygon class="cls-1" points="368.54 90.15 371.89 87.75 351.56 61.21 348.21 63.6 368.54 90.15"/>
        <polygon class="cls-1" points="371.71 87.54 375.38 85.56 355.95 58.46 352.28 60.43 371.71 87.54"/>
        <polygon class="cls-1" points="348.41 63.8 344.75 65.78 364.19 92.88 367.85 90.91 348.41 63.8"/>
      </g>
      <g>
        <path class="cls-1" d="M395.15,242.13c23.16-19.82,52.28-8.75,77.7-30.5l6.07,7.1c-25.42,21.75-54.53,10.69-77.69,30.51"/>
        <path class="cls-1" d="M420.2,271.41c24.64-21.08,19.05-52.26,41.5-71.47l6.07,7.1c-22.45,19.21-16.86,50.4-41.5,71.48"/>
        <path class="cls-1" d="M518.47,136.62c-23.16,19.82-16.74,50.3-42.16,72.05l6.07,7.1c25.42-21.75,19-52.22,42.17-72.04"/>
        <path class="cls-1" d="M543.52,165.91c-24.64,21.08-54.58,10.74-77.03,29.94l6.07,7.1c22.45-19.21,52.4-8.85,77.04-29.93"/>
        <polygon class="cls-1" points="430.4 190.84 458.01 205.88 519.2 219.49 490.43 205.79 430.4 190.84"/>
        <polygon class="cls-1" points="477.84 250.92 470.25 220.49 468.81 160.36 477.02 189.77 477.84 250.92"/>
        <polygon class="cls-1" points="483.21 219.67 486.57 217.03 465.1 191.39 461.74 194.03 483.21 219.67"/>
        <polygon class="cls-1" points="486.38 216.82 490.07 214.59 469.51 188.34 465.81 190.56 486.38 216.82"/>
        <polygon class="cls-1" points="461.95 194.22 458.27 196.46 478.84 222.72 482.53 220.48 461.95 194.22"/>
      </g>
    </g>
  </g>
</svg>