<?xml version="1.0" encoding="UTF-8"?>
<svg id="Layer_2" data-name="Layer 2" xmlns="http://www.w3.org/2000/svg" viewBox="0 0 1024.64 1048.69">
  <defs>
    <style>
      .cls-1 {
        fill: #bfbfbf;
        stroke: #000;
        stroke-linecap: round;
        stroke-width: 4.5px;
      }
    </style>
  </defs>
  <g id="Layer_2-2" data-name="Layer 2">
    <g>
      <g>
        <g>
          <path class="cls-1" d="M2.25,1024.53c33.11-64.35,73.64-83.36,109.98-153.99l8.3,4.27c-36.34,70.63-76.86,89.65-109.97,153.99"/>
          <path class="cls-1" d="M36.52,1042.16c35.22-68.46,28.33-114.78,60.43-177.16l8.3,4.27c-32.1,62.38-25.19,108.71-60.42,177.17"/>
          <path class="cls-1" d="M178.53,681.95c-33.11,64.35-25.02,108.38-61.36,179.01l8.3,4.27c36.34-70.62,28.26-114.65,61.37-179"/>
          <path class="cls-1" d="M212.79,699.58c-35.22,68.46-76.93,89.78-109.02,152.16l8.3,4.27c32.1-62.38,73.81-83.69,109.03-152.15"/>
          <polygon class="cls-1" points="53.28 890.27 91.57 880.06 177.03 823.53 137.08 837.53 53.28 890.27"/>
          <polygon class="cls-1" points="118.03 931.62 108.3 889.2 108.12 787.65 118.75 827.51 118.03 931.62"/>
          <polygon class="cls-1" points="126.52 870.84 131.32 861.91 101.97 845.88 97.17 854.81 126.52 870.84"/>
          <polygon class="cls-1" points="131.06 861.8 136.3 853.14 108.24 834.86 102.99 843.52 131.06 861.8"/>
          <polygon class="cls-1" points="97.46 854.85 92.22 863.52 120.29 881.8 125.53 873.14 97.46 854.85"/>
        </g>
        <g>
          <path class="cls-1" d="M178.54,681.92c33.11-64.35,73.64-83.36,109.98-153.99l8.3,4.27c-36.34,70.63-76.86,89.64-109.97,153.99"/>
          <path class="cls-1" d="M212.81,699.56c35.22-68.46,28.33-114.78,60.43-177.16l8.3,4.27c-32.1,62.38-25.19,108.71-60.42,177.17"/>
          <path class="cls-1" d="M354.82,339.34c-33.11,64.35-25.02,108.39-61.36,179.01l8.3,4.27c36.34-70.62,28.26-114.65,61.37-179"/>
          <path class="cls-1" d="M389.08,356.97c-35.22,68.46-76.93,89.78-109.02,152.16l8.3,4.27c32.1-62.38,73.81-83.69,109.03-152.15"/>
          <polygon class="cls-1" points="229.57 547.66 267.86 537.45 353.32 480.92 313.37 494.93 229.57 547.66"/>
          <polygon class="cls-1" points="294.32 589.02 284.59 546.6 284.41 445.04 295.04 484.9 294.32 589.02"/>
          <polygon class="cls-1" points="302.81 528.23 307.61 519.3 278.26 503.27 273.46 512.2 302.81 528.23"/>
          <polygon class="cls-1" points="307.35 519.2 312.59 510.53 284.53 492.25 279.28 500.91 307.35 519.2"/>
          <polygon class="cls-1" points="273.75 512.24 268.51 520.91 296.58 539.19 301.82 530.53 273.75 512.24"/>
        </g>
        <g>
          <path class="cls-1" d="M695.19,344c30.73,63.99,21.14,107.16,54.86,177.39l-8.42,4.04c-33.73-70.23-24.15-113.4-54.88-177.38"/>
          <path class="cls-1" d="M660.46,360.68c32.69,68.07,73.47,89.87,103.26,151.9l-8.42,4.04c-29.79-62.02-70.58-83.82-103.27-151.89"/>
          <path class="cls-1" d="M858.79,684.64c-30.73-63.99-70.43-83.5-104.15-153.72l-8.42,4.04c33.72,70.22,73.41,89.74,104.14,153.73"/>
          <path class="cls-1" d="M824.05,701.32c-32.69-68.07-24.21-113.53-54-175.55l-8.42,4.04c29.79,62.02,21.3,107.49,53.99,175.56"/>
          <polygon class="cls-1" points="770.27 463.24 755.09 499.48 747.85 600.19 761.05 560.42 770.27 463.24"/>
          <polygon class="cls-1" points="698.28 490.04 737.7 507.31 818.04 566.89 780.1 551.84 698.28 490.04"/>
          <polygon class="cls-1" points="741.14 532.5 745.28 541.53 775.78 527.79 771.64 518.75 741.14 532.5"/>
          <polygon class="cls-1" points="745.53 541.39 749.19 550.63 780.67 539.22 777.02 529.98 745.53 541.39"/>
          <polygon class="cls-1" points="771.42 518.96 767.76 509.72 736.27 521.13 739.93 530.36 771.42 518.96"/>
        </g>
        <g>
          <path class="cls-1" d="M858.8,684.67c30.73,63.99,21.14,107.16,54.86,177.39l-8.42,4.04c-33.73-70.23-24.15-113.4-54.88-177.38"/>
          <path class="cls-1" d="M824.06,701.35c32.69,68.07,73.47,89.87,103.26,151.9l-8.42,4.04c-29.79-62.02-70.58-83.82-103.27-151.89"/>
          <path class="cls-1" d="M1022.39,1025.31c-30.73-63.99-70.43-83.5-104.15-153.72l-8.42,4.04c33.72,70.22,73.41,89.74,104.14,153.73"/>
          <path class="cls-1" d="M987.66,1041.99c-32.69-68.07-24.21-113.53-54-175.56l-8.42,4.04c29.79,62.02,21.3,107.49,53.99,175.56"/>
          <polygon class="cls-1" points="933.88 803.91 918.69 840.15 911.46 940.86 924.65 901.09 933.88 803.91"/>
          <polygon class="cls-1" points="861.89 830.71 901.31 847.98 981.64 907.56 943.71 892.51 861.89 830.71"/>
          <polygon class="cls-1" points="904.75 873.16 908.89 882.2 939.38 868.46 935.24 859.42 904.75 873.16"/>
          <polygon class="cls-1" points="909.13 882.06 912.79 891.3 944.27 879.89 940.63 870.65 909.13 882.06"/>
          <polygon class="cls-1" points="935.03 859.63 931.36 850.39 899.88 861.8 903.53 871.03 935.03 859.63"/>
        </g>
        <g>
          <path class="cls-1" d="M651.84,364.82c-.99-2.07-1.98-4.14-2.97-6.2-.97-2.07-1.93-4.13-2.9-6.19-.94-2.07-1.89-4.13-2.82-6.18-.92-2.06-1.84-4.12-2.75-6.17-.9-2.06-1.79-4.11-2.68-6.16-.87-2.05-1.74-4.1-2.61-6.14-.85-2.04-1.7-4.08-2.54-6.12-.83-2.04-1.65-4.07-2.47-6.09-.8-2.03-1.61-4.05-2.41-6.06-.78-2.02-1.56-4.03-2.34-6.04-.76-2.01-1.52-4.01-2.27-6-.74-2-1.48-3.98-2.21-5.97-.72-1.98-1.43-3.96-2.15-5.93-.7-1.97-1.39-3.93-2.08-5.89-.68-1.95-1.35-3.9-2.02-5.84-.66-1.94-1.31-3.87-1.96-5.79-.64-1.92-1.27-3.84-1.9-5.74-.62-1.91-1.23-3.8-1.84-5.69-.6-1.89-1.19-3.77-1.78-5.63-.58-1.87-1.15-3.73-1.72-5.57-.56-1.85-1.11-3.69-1.66-5.51-.54-1.83-1.07-3.64-1.61-5.45-1.03-3.61-2.04-7.17-3.05-10.69-.96-3.51-1.9-6.98-2.83-10.4-.89-3.41-1.76-6.77-2.62-10.08-.82-3.3-1.63-6.54-2.42-9.74-.76-3.18-1.5-6.31-2.23-9.37-.69-3.06-1.37-6.05-2.04-8.98-.63-2.92-1.25-5.78-1.86-8.57-.58-2.78-1.14-5.5-1.68-8.14-.52-2.63-1.03-5.19-1.52-7.68-.47-2.48-.92-4.88-1.36-7.2-.42-2.31-.82-4.55-1.2-6.7-.37-2.14-.72-4.2-1.05-6.17-.32-1.96-.62-3.84-.91-5.62-.28-1.77-.54-3.46-.78-5.04-.23-1.58-.45-3.06-.66-4.45-.38-2.75-.7-5.1-.96-7.01-.23-1.9-.41-3.36-.53-4.34-.11-.98-.17-1.49-.17-1.49.25,1.49.5,2.99.76,4.5.28,1.52.55,3.04.83,4.58.3,1.54.6,3.09.9,4.65.32,1.56.64,3.14.96,4.71.34,1.59.68,3.18,1.02,4.78.36,1.6.72,3.22,1.08,4.83.38,1.62.76,3.25,1.14,4.89.4,1.64.8,3.28,1.2,4.94.42,1.65.83,3.31,1.25,4.98.43,1.67.87,3.34,1.3,5.02.45,1.68.9,3.37,1.35,5.06.46,1.69.93,3.39,1.39,5.09.97,3.4,1.94,6.82,2.91,10.25,1.02,3.43,2.04,6.88,3.06,10.32,1.06,3.45,2.13,6.91,3.19,10.36,1.1,3.46,2.2,6.91,3.3,10.36,1.13,3.45,2.27,6.9,3.39,10.33,1.16,3.44,2.31,6.86,3.46,10.27,1.18,3.41,2.35,6.8,3.52,10.17,1.19,3.37,2.37,6.71,3.55,10.03,1.2,3.32,2.38,6.61,3.56,9.86,1.2,3.25,2.38,6.48,3.55,9.66,1.19,3.18,2.36,6.32,3.52,9.42,1.17,3.09,2.33,6.14,3.47,9.14,2.32,5.99,4.57,11.78,6.72,17.33,2.2,5.53,4.3,10.82,6.28,15.81,2.02,4.98,3.93,9.67,5.69,14.02,1.79,4.34,3.45,8.34,4.94,11.95,1.51,3.61,2.86,6.82,4.02,9.61,2.35,5.56,3.96,9.37,4.67,11.06"/>
          <path class="cls-1" d="M397.4,361.24c.45-.89.91-1.82,1.38-2.77.47-.96.95-1.95,1.44-2.97.48-1.02.98-2.07,1.49-3.15.5-1.08,1.01-2.19,1.54-3.32,1.02-2.27,2.09-4.65,3.2-7.12,1.08-2.48,2.2-5.05,3.36-7.72,1.13-2.67,2.3-5.42,3.5-8.25,1.17-2.84,2.38-5.75,3.61-8.73,1.21-2.99,2.45-6.04,3.72-9.15,1.24-3.12,2.51-6.29,3.8-9.51,1.27-3.23,2.56-6.5,3.86-9.82,1.29-3.32,2.59-6.67,3.91-10.06,2.59-6.78,5.22-13.67,7.88-20.62,2.6-6.94,5.23-13.93,7.83-20.88,2.57-6.95,5.13-13.88,7.64-20.68,2.48-6.81,4.93-13.51,7.3-20.01,2.35-6.51,4.63-12.82,6.81-18.87,4.31-12.09,8.24-23.11,11.56-32.43,6.53-18.63,10.68-30.46,10.68-30.46l-11.43,4.36c-.94,2.89-1.88,5.81-2.84,8.77-.98,2.96-1.98,5.95-2.98,8.97-1.03,3.02-2.06,6.07-3.11,9.15-1.07,3.08-2.14,6.17-3.22,9.29-1.1,3.12-2.21,6.26-3.32,9.41-1.13,3.15-2.26,6.32-3.4,9.5-2.32,6.35-4.66,12.75-7,19.14-2.4,6.39-4.79,12.79-7.17,19.14-2.43,6.35-4.85,12.67-7.23,18.92-2.43,6.24-4.83,12.4-7.18,18.46-2.39,6.05-4.73,11.98-7.02,17.76-2.31,5.78-4.57,11.4-6.74,16.84-2.2,5.43-4.33,10.67-6.36,15.68-4.12,10.01-7.87,19.11-11.11,26.98-3.3,7.86-6.09,14.49-8.23,19.58-1.09,2.54-2.01,4.7-2.76,6.43-.75,1.73-1.32,3.03-1.69,3.87"/>
          <path class="cls-1" d="M695.19,344c-1.12-2.4-2.23-4.8-3.35-7.21-1.11-2.42-2.22-4.84-3.33-7.26-2.19-4.86-4.39-9.74-6.58-14.61-2.16-4.88-4.31-9.77-6.46-14.63-2.12-4.87-4.24-9.73-6.33-14.54-4.16-9.65-8.26-19.16-12.25-28.41-4.01-9.24-7.9-18.21-11.63-26.79-1.9-4.28-3.75-8.46-5.56-12.52-.92-2.03-1.82-4.03-2.71-6-.9-1.97-1.79-3.9-2.66-5.8-.89-1.9-1.76-3.76-2.61-5.6-.87-1.83-1.73-3.62-2.56-5.38-.85-1.75-1.69-3.46-2.51-5.14-.84-1.67-1.66-3.3-2.46-4.9-.82-1.58-1.62-3.13-2.41-4.64-.8-1.49-1.59-2.95-2.35-4.36-.39-.7-.78-1.39-1.16-2.07-.39-.68-.77-1.34-1.14-2-.38-.65-.76-1.29-1.13-1.93-.38-.63-.75-1.24-1.11-1.85-.37-.6-.74-1.19-1.1-1.77-.37-.57-.73-1.14-1.08-1.69-.36-.54-.72-1.08-1.07-1.61-.36-.52-.71-1.03-1.05-1.53-.35-.49-.7-.97-1.04-1.44-.35-.46-.69-.91-1.02-1.35-.34-.43-.68-.85-1.01-1.27-.34-.4-.67-.79-.99-1.18l-8.02-2.83c.64,1.26,1.34,2.63,2.09,4.09.73,1.47,1.51,3.05,2.34,4.71.81,1.67,1.67,3.44,2.57,5.28.89,1.85,1.81,3.79,2.78,5.8,1.9,4.04,3.94,8.39,6.1,12.97,2.13,4.6,4.37,9.45,6.69,14.47,2.3,5.03,4.68,10.24,7.11,15.57,2.41,5.33,4.88,10.78,7.36,16.28,4.93,11.01,9.95,22.22,14.83,33.11,9.65,21.82,18.72,42.35,25.39,57.43,6.61,15.09,10.83,24.73,10.83,24.73"/>
          <path class="cls-1" d="M354.82,339.33s1.92-4.17,5.31-11.57c1.72-3.7,3.82-8.2,6.24-13.38,2.45-5.18,5.22-11.04,8.25-17.47,3.08-6.42,6.43-13.4,10-20.83,3.62-7.41,7.46-15.27,11.46-23.46,2.03-4.08,4.09-8.25,6.2-12.49,2.12-4.23,4.28-8.52,6.46-12.87,2.2-4.34,4.44-8.73,6.69-13.17,2.28-4.42,4.57-8.88,6.88-13.37,2.34-4.47,4.69-8.97,7.05-13.48,2.39-4.49,4.78-9,7.17-13.5,2.43-4.48,4.85-8.96,7.26-13.43,2.45-4.44,4.89-8.87,7.32-13.26,2.47-4.37,4.92-8.71,7.35-13.01,1.23-2.14,2.45-4.27,3.67-6.38,1.23-2.11,2.45-4.2,3.66-6.28,1.23-2.07,2.44-4.13,3.65-6.17,1.22-2.03,2.43-4.05,3.64-6.05,1.22-1.99,2.42-3.96,3.62-5.92,1.21-1.94,2.41-3.87,3.59-5.78,1.2-1.89,2.39-3.77,3.56-5.62,1.19-1.84,2.37-3.66,3.53-5.46,1.18-1.78,2.34-3.54,3.49-5.28,1.17-1.72,2.32-3.42,3.45-5.09,1.15-1.65,2.29-3.28,3.41-4.89,1.14-1.58,2.25-3.14,3.36-4.68,1.12-1.51,2.22-2.99,3.3-4.46.55-.72,1.09-1.43,1.63-2.14.54-.7,1.08-1.39,1.61-2.08.54-.68,1.07-1.35,1.6-2.02.53-.66,1.06-1.31,1.58-1.96.53-.64,1.05-1.27,1.57-1.89.52-.61,1.04-1.22,1.55-1.83.52-.59,1.03-1.18,1.53-1.76.51-.57,1.01-1.13,1.51-1.69.5-.55,1-1.09,1.49-1.62.5-.52.99-1.04,1.47-1.55.49-.5.97-.99,1.45-1.48.48-.47.96-.94,1.43-1.4.48-.45.95-.89,1.41-1.33.47-.42.93-.84,1.39-1.25.46-.39.92-.78,1.37-1.17.45-.37.9-.73,1.35-1.09l.66-.51.17-.13.04-.03s.03.01.04.02l.08.06.32.25.64.5.63.52,18.04,29.91-1.18-1.42-1.19-1.37-1.2-1.33-1.21-1.29-1.22-1.25-1.23-1.2-1.23-1.16-1.24-1.12-1.25-1.08-1.26-1.04-1.27-1-1.27-.96-1.28-.92-1.29-.88c-.43-.28-.86-.56-1.3-.84-.43-.27-.87-.54-1.3-.8-.01-.01-.03.02-.04.03l-.04.04-.08.08-.17.15-.33.31-.67.62c-.45.42-.9.85-1.35,1.28-.45.44-.9.88-1.35,1.33-.45.45-.9.91-1.36,1.37-.45.47-.91.94-1.37,1.42-.46.48-.91.97-1.37,1.46-.46.5-.92,1-1.38,1.51-.46.51-.92,1.03-1.39,1.55-.46.53-.93,1.06-1.39,1.59-.46.54-.93,1.09-1.4,1.63-.47.56-.93,1.11-1.4,1.68-.47.57-.94,1.14-1.41,1.72-.94,1.17-1.88,2.36-2.84,3.55-.94,1.22-1.9,2.46-2.86,3.71-.95,1.27-1.91,2.56-2.88,3.86-.96,1.32-1.92,2.66-2.9,4.01-.96,1.37-1.94,2.75-2.92,4.15-.97,1.42-1.95,2.85-2.94,4.29-.98,1.46-1.96,2.94-2.96,4.42-.98,1.5-1.97,3.02-2.97,4.55-.99,1.55-1.98,3.1-2.99,4.68-.99,1.59-1.99,3.18-3,4.8-1,1.62-2,3.26-3.01,4.91-1,1.66-2.01,3.33-3.03,5.02-1.01,1.7-2.02,3.4-3.04,5.12-1.01,1.73-2.02,3.47-3.05,5.23-1.01,1.76-2.03,3.54-3.06,5.32-1.02,1.79-2.04,3.6-3.06,5.41-2.03,3.65-4.08,7.34-6.15,11.08-2.04,3.76-4.09,7.55-6.17,11.38-2.04,3.85-4.1,7.74-6.18,11.65-2.05,3.93-4.11,7.89-6.19,11.88-2.05,4-4.11,8.03-6.18,12.07-2.05,4.06-4.11,8.14-6.17,12.23-2.04,4.1-4.1,8.22-6.15,12.35-4.06,8.27-8.14,16.59-12.22,24.89-4.03,8.32-8.05,16.64-12.05,24.9-3.97,8.27-7.91,16.49-11.81,24.61-7.8,16.23-15.41,32.06-22.65,47.13"/>
          <polygon class="cls-1" points="611.6 50.79 588.07 83.97 565.34 208.79 586.94 169.14 611.6 50.79"/>
          <polygon class="cls-1" points="512.13 30.84 525.73 28.6 529.13 28.03 529.23 28.02 529.28 28.01 529.31 28 529.32 28 529.34 28.02 529.55 28.31 529.96 28.88 530.79 30.02 532.46 32.31 539.12 41.45 565.75 78.02 665.77 242.68 611.4 175.66 561.94 90.27 537.21 47.57 531.03 36.9 529.48 34.23 529.29 33.9 529.24 33.81 529.19 33.81 529.1 33.79 528.7 33.72 527.91 33.58 524.75 33.04 512.13 30.84"/>
          <polygon class="cls-1" points="566.47 114.11 570.29 129.79 609.43 140.23 605.62 124.55 566.47 114.11"/>
          <polygon class="cls-1" points="570.6 129.81 573.8 145.29 613.85 159.69 610.64 144.22 570.6 129.81"/>
          <polygon class="cls-1" points="605.33 124.61 602.13 109.14 562.09 94.72 565.27 110.21 605.33 124.61"/>
          <path class="cls-1" d="M572.66,51.62l-27.04-12.65-13.52-6.32-1.69-.79-.84-.4-.21-.1-.05-.02h-.01s0,0-.01,0l-.03.03-.11.11-.43.45-3.45,3.57-6.9,7.13-98.66,148.56,47.7-53.63,53.08-76,6.64-9.5,1.66-2.38.21-.3.05-.07h.05s.1,0,.1,0l.41.02.81.04,3.25.17,13,.69,26,1.38Z"/>
          <polygon class="cls-1" points="478.95 .81 496.46 45.99 509.68 174.97 491.4 133.85 478.95 .81"/>
          <polygon class="cls-1" points="476.23 85.7 471.41 101.39 509.83 95.45 514.64 79.77 476.23 85.7"/>
          <polygon class="cls-1" points="471.76 101.26 466.37 117 503.49 115.09 508.87 99.36 471.76 101.26"/>
          <polygon class="cls-1" points="514.28 79.98 519.67 64.24 482.54 66.17 477.15 81.9 514.28 79.98"/>
        </g>
      </g>
      <g>
        <g>
          <path class="cls-1" d="M375.43,394.75c16.6,17.85,23.97,35.8,31.74,54.19,3.88,9.19,7.87,18.5,13.16,27.95,4.88,9.01,11.38,18.5,20.21,28l-5.43,7.88c-9.36-10.06-16.35-20.09-21.62-29.51-5.29-9.45-9.28-18.75-13.17-27.95-7.77-18.39-15.14-36.34-31.74-54.19"/>
          <path class="cls-1" d="M347.21,420.99c17.66,18.99,35.86,28.52,53.67,37.64,4.45,2.28,8.88,4.53,13.27,6.9,2.19,1.18,4.38,2.4,6.55,3.65,1.08.64,2.16,1.28,3.25,1.92.54.33,1.08.66,1.62.99.55.35,1,.59,1.51.9,7.85,4.68,15.07,9.94,22.01,17.4l-5.48,7.82c-7.42-7.98-15.06-13.68-23.31-18.79-1.07-.66-2.13-1.31-3.18-1.95-1.09-.65-2.17-1.29-3.25-1.92-2.17-1.26-4.36-2.47-6.55-3.65-4.39-2.37-8.82-4.62-13.27-6.89-17.81-9.11-36.01-18.64-53.67-37.63"/>
          <path class="cls-1" d="M528.47,559.28c-6.57-7.06-12.38-10.8-18.31-13.41-5.91-2.6-11.92-4.04-18.47-6.06-6.53-2.01-13.6-4.59-21.36-9.16-7.74-4.56-16.19-11.14-25.02-20.62l-5.13,8.19c9.36,10.06,18.28,17.15,26.45,22.16,8.18,5.03,15.63,8.03,22.54,10.45,6.92,2.43,13.3,4.27,19.62,7.3,6.33,3.05,12.57,7.25,19.64,14.84"/>
          <path class="cls-1" d="M528.32,613.15c-9.08-9.15-17.03-19.1-23.86-29.67-1.71-2.65-3.36-5.25-4.92-8.03-1.57-2.76-3.07-5.52-4.53-8.25-2.91-5.47-5.6-10.88-8.16-16.14-5.13-10.53-9.72-20.49-14.67-29.56-4.96-9.09-10.25-17.28-17.19-24.75l-5.08,8.25c7.42,7.98,13.13,16.62,18.48,26.14,5.34,9.49,10.3,19.9,15.83,30.76,5.52,10.8,11.68,21.88,18.96,32.23,3.65,5.23,7.53,10.18,11.73,15.01,2.1,2.4,4.24,4.71,6.47,6.99,2.23,2.28,4.54,4.52,6.89,6.67"/>
          <path class="cls-1" d="M451.63,453.1c-4.15,9.92-7.54,20.65-10.17,32.21,1.42,26.05,7.18,56.79,17.3,92.2-2-16.4-3.14-31.87-3.41-46.41-5.41-30.48-6.66-56.48-3.73-77.99Z"/>
          <path class="cls-1" d="M393.41,502.82c12.83.06,24.75-.86,35.77-2.75,23.64,2.6,43.19.8,58.66-5.38-6.71,6.33-14.25,11.78-22.61,16.34-19.7,1.82-43.64-.91-71.82-8.21Z"/>
          <polygon class="cls-1" points="436.09 518.96 440.87 524.37 459.01 494.78 455.22 490.44 436.09 518.96"/>
          <path class="cls-1" d="M441.01,524.1l4.5,5.87c6.14-9.7,12.18-19.52,18.1-29.46l-3.52-4.83c-6.25,9.59-12.61,19.07-19.08,28.42Z"/>
          <path class="cls-1" d="M455.1,490.72l-3.48-4.76c-6.98,8.8-14.08,17.49-21.28,26.05l4.44,5.8c6.88-8.91,13.65-17.95,20.31-27.1Z"/>
        </g>
        <g>
          <path class="cls-1" d="M528.48,559.29c.82.88,1.63,1.79,2.43,2.73.41.46.77.98,1.25,1.35.48.38,1.04.65,1.6.78,1.14.29,2.31.02,3.06-.58.73-.62,1.43-1.23,2.15-1.79,2.83-2.24,5.6-3.9,8.38-5.25,5.56-2.69,11.21-4.15,17.37-6.22,6.14-2.05,12.79-4.71,20.08-9.48,7.27-4.75,15.21-11.64,23.48-21.61l4.87,8.76c-8.78,10.58-17.15,17.99-24.82,23.23-7.69,5.25-14.69,8.35-21.19,10.83-6.51,2.5-12.51,4.38-18.45,7.53-2.97,1.58-5.93,3.47-8.97,5.96-.76.62-1.52,1.29-2.3,1.98-.81.67-2.07.97-3.29.67-.61-.14-1.21-.43-1.72-.83-.52-.4-.91-.96-1.35-1.44-.86-1-1.73-1.97-2.61-2.92"/>
          <path class="cls-1" d="M528.33,613.16c1.13,1.15,2.25,2.24,3.35,3.3.54.53,1.08,1.07,1.79,1.38.7.32,1.48.45,2.26.39,1.58-.1,3.02-1.07,3.88-2.4.96-1.25,1.91-2.52,2.84-3.79,3.72-5.08,7.19-10.34,10.4-15.72.8-1.34,1.59-2.7,2.36-4.06.77-1.36,1.53-2.71,2.26-4.2,1.46-2.91,2.87-5.82,4.23-8.71,2.71-5.78,5.23-11.48,7.62-17.04,4.79-11.12,9.08-21.64,13.69-31.22,4.63-9.6,9.58-18.23,16.09-26.08l4.81,8.82c-6.96,8.38-12.3,17.5-17.3,27.55-2.5,5.02-4.9,10.26-7.33,15.69-2.43,5.4-4.85,11.16-7.48,16.67-5.22,11.14-11.03,22.28-17.85,32.76-3.38,5.2-7.07,10.33-10.95,15.16-.97,1.22-1.97,2.42-2.98,3.62-.9,1.26-2.4,2.19-4.04,2.29-.81.06-1.63-.06-2.35-.36-.73-.29-1.29-.8-1.86-1.3-1.14-.99-2.3-2.03-3.48-3.11"/>
          <path class="cls-1" d="M671.12,400.67c-15.57,18.76-21.9,37.1-28.62,55.9-.85,2.34-1.7,4.7-2.55,7.07-.44,1.18-.88,2.36-1.33,3.56-.39,1.1-.79,2.22-1.18,3.34-1.62,4.47-3.51,9.08-5.78,13.82-4.52,9.46-10.63,19.5-18.9,29.47l5.14,8.43c8.78-10.58,15.32-21.14,20.24-31.08,4.98-10.02,8.1-19.13,11.55-28.63,6.72-18.8,13.06-37.14,28.62-55.9"/>
          <path class="cls-1" d="M700.78,425.27c-16.56,19.96-34.19,30.51-51.45,40.61-2.16,1.27-4.3,2.52-6.45,3.79-1.1.66-2.07,1.19-3.09,1.77-1,.57-2,1.13-3,1.7-3.96,2.27-7.79,4.54-11.47,6.97-7.38,4.88-14.16,10.38-20.66,18.22l5.19,8.36c26.47-31.9,65.29-35.88,98.13-75.46"/>
          <path class="cls-1" d="M572.43,494.47c6.55,7.44,13.81,14.03,21.78,19.76,19.14,3.1,42.35,1.29,69.64-5.44-12.22-.47-23.63-1.92-34.22-4.35-22.98,1.39-42.04-1.93-57.2-9.97Z"/>
          <path class="cls-1" d="M599.32,581.61c2.15-16.87,3.33-33.06,3.69-48.13,5.6-31.09,7.37-57.56,5.31-79.41,3.54,10.19,6.31,21.3,8.31,33.34-.89,13.33-2.76,27.87-5.64,43.6-1.44,7.87-3.12,16.03-5.06,24.5-.97,4.22-1.99,8.56-3.09,12.9-1.11,4.34-2.28,8.74-3.52,13.2Z"/>
          <polygon class="cls-1" points="617.8 527.87 622.47 522.52 603.85 492.6 600.1 496.84 617.8 527.87"/>
          <path class="cls-1" d="M622.3,522.28l4.97-4.89c-6.08-10.07-12.26-20.01-18.54-29.83l-4.06,3.78c5.98,10.19,11.86,20.5,17.63,30.94Z"/>
          <path class="cls-1" d="M600.29,497.05l-4,3.73c5.29,11.02,10.48,22.16,15.57,33.42l4.91-4.83c-5.39-10.9-10.88-21.68-16.48-32.33Z"/>
        </g>
      </g>
      <g>
        <path class="cls-1" d="M91.7,729.76c21.18,32.39,8.67,63.22,31.92,98.77l-7.82,5.11c-23.24-35.55-10.75-66.37-31.93-98.76"/>
        <path class="cls-1" d="M59.45,750.85c22.53,34.46,56.53,36.53,77.06,67.93l-7.82,5.11c-20.53-31.4-54.54-33.46-77.07-67.92"/>
        <path class="cls-1" d="M204.45,902.2c-21.18-32.39-54.44-33.3-77.68-68.85l-7.82,5.11c23.24,35.55,56.49,36.46,77.67,68.85"/>
        <path class="cls-1" d="M172.2,923.29c-22.53-34.46-10.79-66.44-31.32-97.84l-7.82,5.11c20.53,31.4,8.78,63.38,31.31,97.84"/>
        <polygon class="cls-1" points="146.91 784.86 130.11 812.84 114.31 880.27 129.68 850.58 146.91 784.86"/>
        <polygon class="cls-1" points="80.79 823.52 114.02 823.06 179.44 837.92 147.32 839.39 80.79 823.52"/>
        <polygon class="cls-1" points="114.7 838.37 117.52 843 145.75 825.07 142.93 820.44 114.7 838.37"/>
        <polygon class="cls-1" points="117.75 842.84 120.12 847.74 149 831.04 146.64 826.13 117.75 842.84"/>
        <polygon class="cls-1" points="142.73 820.64 140.35 815.73 111.46 832.44 113.83 837.34 142.73 820.64"/>
      </g>
      <g>
        <path class="cls-1" d="M591.95,372.85c0,11.24-2.95,21.84-7.67,30.59-4.72,8.79-11.14,15.81-18.21,21-7.07,5.21-14.87,8.54-22.61,10.31-7.76,1.76-15.49,1.93-22.75.88-1.81-.32-3.6-.66-5.36-1.02-1.75-.47-3.48-.99-5.18-1.51-.85-.24-1.69-.56-2.52-.9-.82-.33-1.64-.67-2.47-1-1.64-.62-3.21-1.47-4.77-2.29-6.21-3.3-11.78-7.56-16.56-12.59-4.78-5.04-8.79-10.85-11.87-17.37-.37-.82-.8-1.62-1.14-2.46-.32-.85-.65-1.71-.98-2.57-.73-1.69-1.16-3.51-1.73-5.3-.31-.89-.48-1.83-.68-2.76-.2-.93-.41-1.87-.62-2.81-.17-.95-.27-1.92-.41-2.9-.07-.49-.14-.98-.21-1.47-.08-.49-.14-.98-.15-1.48l9.3-.81c0,.41.05.81.12,1.2.06.4.11.79.17,1.19.12.79.19,1.58.31,2.35.17.77.33,1.53.49,2.28.16.76.28,1.52.53,2.24.46,1.45.76,2.95,1.34,4.33.25.71.5,1.41.75,2.11.26.7.6,1.35.89,2.03,2.39,5.39,5.53,10.29,9.35,14.63,3.82,4.34,8.33,8.11,13.47,11.13,1.29.74,2.59,1.54,3.97,2.11.69.32,1.38.63,2.07.94.7.32,1.4.64,2.12.86,1.43.5,2.89,1,4.38,1.48,1.49.36,3.01.71,4.57,1.05,6.2,1.15,12.89,1.25,19.67-.07,6.77-1.32,13.66-4.04,19.93-8.47,6.27-4.4,12.01-10.47,16.23-18.13,4.22-7.63,6.86-16.91,6.86-26.8"/>
        <path class="cls-1" d="M553.41,372.85c-.05,6.01-.99,11.59-2.66,16.86-1.68,5.26-4.1,10.2-7.23,14.73-3.13,4.52-6.99,8.64-11.57,12.11-4.57,3.45-9.87,6.35-15.72,8.1-5.84,1.78-12.27,2.64-18.96,2.12-6.69-.49-13.6-2.44-20.09-5.99-6.49-3.54-12.61-8.7-17.44-15.49-4.83-6.76-8.35-15.19-9.48-24.5l9.27-1.12c.97,7.98,4.05,15.19,8.27,20.91,4.23,5.75,9.57,10.05,15.2,12.9,5.63,2.86,11.56,4.29,17.23,4.44,5.67.18,11.04-.84,15.83-2.6,4.82-1.72,9.03-4.43,12.56-7.48,3.54-3.08,6.41-6.6,8.67-10.34,2.26-3.75,3.91-7.71,5.03-11.78,1.11-4.09,1.71-8.28,1.76-12.84"/>
        <path class="cls-1" d="M591.95,372.82c-.01-11.24-2.96-21.84-7.68-30.59-4.72-8.79-11.15-15.81-18.22-20.99-7.07-5.21-14.87-8.54-22.62-10.3-7.76-1.76-15.5-1.93-22.75-.87-1.81.32-3.6.66-5.35,1.02-1.75.48-3.48.99-5.17,1.51-.85.24-1.69.57-2.52.91-.82.33-1.64.67-2.47,1-1.64.62-3.21,1.48-4.77,2.29-6.21,3.3-11.77,7.56-16.55,12.6-4.78,5.04-8.79,10.85-11.86,17.38-.37.82-.8,1.61-1.14,2.46-.32.85-.65,1.71-.98,2.57-.73,1.69-1.16,3.51-1.73,5.3-.31.89-.47,1.83-.68,2.76-.2.93-.41,1.87-.62,2.81-.16.95-.27,1.92-.41,2.9-.07.49-.14.98-.21,1.47l-.11.74-.04.75,9.3.81.03-.61.09-.6c.06-.4.11-.79.17-1.19.12-.79.19-1.58.31-2.35.17-.77.33-1.53.49-2.28.16-.76.27-1.52.52-2.24.46-1.45.75-2.95,1.34-4.33.25-.71.5-1.41.75-2.11.25-.7.6-1.35.89-2.03,2.39-5.39,5.53-10.29,9.34-14.64,3.82-4.34,8.33-8.12,13.46-11.14,1.29-.74,2.59-1.54,3.96-2.11.69-.32,1.38-.63,2.07-.94.7-.32,1.4-.64,2.12-.86,1.43-.5,2.89-1,4.38-1.48,1.49-.36,3.01-.71,4.57-1.05,6.2-1.15,12.89-1.25,19.67.06,6.77,1.32,13.66,4.03,19.93,8.46,6.28,4.4,12.01,10.46,16.23,18.12,4.22,7.63,6.86,16.91,6.88,26.8"/>
        <path class="cls-1" d="M553.41,372.84c-.05-6.01-1-11.59-2.67-16.86-1.68-5.26-4.1-10.2-7.24-14.73-3.14-4.52-7-8.63-11.57-12.11-4.57-3.44-9.87-6.35-15.73-8.09-5.84-1.78-12.27-2.63-18.96-2.11-6.69.5-13.6,2.44-20.09,6-6.49,3.54-12.6,8.71-17.44,15.5-4.83,6.76-8.34,15.19-9.47,24.5l9.27,1.12c.97-7.98,4.04-15.19,8.26-20.91,4.23-5.75,9.56-10.05,15.19-12.9,5.63-2.87,11.56-4.29,17.23-4.45,5.67-.18,11.04.83,15.83,2.59,4.82,1.72,9.03,4.43,12.56,7.48,3.54,3.08,6.41,6.6,8.67,10.34,2.26,3.75,3.92,7.7,5.03,11.78,1.11,4.09,1.71,8.28,1.76,12.84"/>
        <path class="cls-1" d="M451.56,440.27c-.19-1.01-.37-2.02-.53-3.02-.14-1.02-.25-2.04-.36-3.05-.21-2.02-.35-4.01-.44-5.96-.11-1.93-.04-3.92.03-5.83.08-1.92.22-3.8.41-5.63.49-3.74,1.17-7.31,2.11-10.7.51-1.72,1.06-3.39,1.65-5,.59-1.61,1.19-3.16,1.95-4.7,1-8.71,3.88-16.5,8.02-22.72,4.1-6.23,9.32-10.95,14.84-13.88,5.51-2.95,11.29-4.13,16.49-3.77,5.21.35,9.85,2.23,13.23,5.14-3.21-3.65-7.61-6.83-12.55-8.73-2.57-1.06-5.13-1.69-8-2.2-1.43-.25-2.79-.34-4.26-.43-1.44-.06-3.01-.12-4.45,0-1.5.48-3.11,1.01-4.66,1.68-1.5.69-3.04,1.47-4.61,2.33-1.48.9-2.95,1.91-4.46,2.99-1.5,1.09-2.82,2.33-4.26,3.63-5.51,5.27-10.26,12.18-13.55,20.43-3.32,8.27-4.93,17.89-4.49,28.07.44,10.19,2.99,20.93,7.89,31.34Z"/>
        <path class="cls-1" d="M505.56,385.88c-2.04,1.49-4.17,2.6-6.62,3.59-1.21.48-2.39.82-3.69,1.16-.64.17-1.3.32-1.97.46-.66.13-1.29.21-1.96.3-1.33.16-2.72.28-4.15.32-1.36,0-2.77-.07-4.22-.21-1.49-.11-2.89-.37-4.33-.69-1.43-.32-2.98-.68-4.41-1.18-1.36-.91-2.79-1.89-4.16-2.99-1.29-1.12-2.61-2.33-3.94-3.62-1.2-1.32-2.4-2.73-3.6-4.23-1.15-1.51-2.15-3.11-3.21-4.8-4.01-6.75-6.8-15.01-7.62-24.16-.83-9.13.31-19.1,3.74-28.97,3.42-9.87,9.14-19.65,17.17-28.33-4.47,7.7-7.57,15.49-9.15,23.27-1.69,7.66-1.83,15.27-.95,22.14-1.15,8.82-.22,17.23,2.31,24.4,2.52,7.18,6.58,13.1,11.3,17.37,4.72,4.28,10.12,6.87,15.3,7.81,5.19.96,10.17.28,14.16-1.63Z"/>
        <path class="cls-1" d="M478.74,372.34l.24-3.01c.14-.99.36-1.97.53-2.96-10.95-2.14-21.86-4.43-32.75-6.86-.35,1.89-.67,3.79-.96,5.69-.24,1.9-.33,3.82-.45,5.73,11.13.62,22.26,1.09,33.4,1.41Z"/>
        <path class="cls-1" d="M479.22,366.33c.2-.99.67-1.91,1-2.84l.53-1.39.68-1.33c-10.23-4.37-20.24-9.32-30.01-14.85-.8,1.73-1.57,3.48-2.32,5.25-.4.88-.69,1.79-1,2.7l-.89,2.75c5.25,1.92,10.53,3.69,15.85,5.3,5.32,1.62,10.74,3.09,16.15,4.41Z"/>
        <path class="cls-1" d="M445.62,370.83c-.25,1.9-.24,3.81-.27,5.73v2.88c0,.96.12,1.92.18,2.89,11.2-.19,22.32-1.01,33.33-2.43l-.11-3.05c.02-1.02.13-2.03.18-3.03-5.57-.19-11.15-.54-16.72-1.04-5.53-.5-11.07-1.15-16.59-1.96Z"/>
      </g>
    </g>
  </g>
</svg>