<?xml version="1.0" encoding="UTF-8"?>
<svg id="Layer_2" data-name="Layer 2" xmlns="http://www.w3.org/2000/svg" viewBox="0 0 1062.4 1086.64">
  <defs>
    <style>
      .cls-1 {
        fill: #bfbfbf;
        stroke: #000;
        stroke-linecap: round;
        stroke-width: 4.5px;
      }
    </style>
  </defs>
  <g id="Layer_2-2" data-name="Layer 2">
    <g>
      <g>
        <g>
          <path class="cls-1" d="M2.25,1062.48c23.3-45.28,59.02-54.95,84.59-104.64l8.3,4.27c-25.57,49.69-61.28,59.37-84.58,104.64"/>
          <path class="cls-1" d="M36.52,1080.11c24.78-48.17,12.73-84.47,35.31-128.35l8.3,4.27c-22.58,43.89-10.52,80.19-35.3,128.36"/>
          <path class="cls-1" d="M126.28,821.44c-23.3,45.28-10.4,79.97-35.97,129.65l8.3,4.27c25.57-49.69,12.68-84.37,35.98-129.65"/>
          <path class="cls-1" d="M160.54,839.07c-24.78,48.17-61.33,59.46-83.91,103.35l8.3,4.27c22.58-43.89,59.14-55.18,83.92-103.34"/>
          <polygon class="cls-1" points="33.92 965.84 68.6 962.64 141.94 929.66 106.16 935.57 33.92 965.84"/>
          <polygon class="cls-1" points="99.64 1005.31 85.4 971.66 72.99 893.88 87.76 925.68 99.64 1005.31"/>
          <polygon class="cls-1" points="100.28 959.8 103.7 953.54 74.23 937.72 70.81 943.98 100.28 959.8"/>
          <polygon class="cls-1" points="103.44 953.42 107.32 947.42 78.79 930.04 74.91 936.04 103.44 953.42"/>
          <polygon class="cls-1" points="71.09 944.05 67.22 950.05 95.75 967.44 99.63 961.44 71.09 944.05"/>
        </g>
        <g>
          <path class="cls-1" d="M126.29,821.43c23.3-45.28,59.02-54.95,84.59-104.64l8.3,4.27c-25.57,49.69-61.28,59.37-84.58,104.64"/>
          <path class="cls-1" d="M160.55,839.06c24.78-48.16,12.73-84.47,35.31-128.35l8.3,4.27c-22.58,43.89-10.52,80.19-35.3,128.36"/>
          <path class="cls-1" d="M250.31,580.39c-23.3,45.28-10.4,79.97-35.97,129.65l8.3,4.27c25.57-49.69,12.68-84.37,35.98-129.65"/>
          <path class="cls-1" d="M284.58,598.02c-24.78,48.16-61.33,59.46-83.91,103.35l8.3,4.27c22.58-43.89,59.14-55.18,83.92-103.34"/>
          <polygon class="cls-1" points="157.95 724.78 192.64 721.58 265.98 688.61 230.2 694.51 157.95 724.78"/>
          <polygon class="cls-1" points="223.68 764.25 209.43 730.6 197.02 652.83 211.8 684.62 223.68 764.25"/>
          <polygon class="cls-1" points="224.31 718.74 227.74 712.48 198.27 696.67 194.85 702.92 224.31 718.74"/>
          <polygon class="cls-1" points="227.48 712.37 231.35 706.37 202.83 688.99 198.94 694.98 227.48 712.37"/>
          <polygon class="cls-1" points="195.13 702.99 191.26 709 219.79 726.38 223.66 720.38 195.13 702.99"/>
        </g>
        <g>
          <path class="cls-1" d="M250.32,580.37c23.3-45.28,59.02-54.95,84.59-104.64l8.3,4.27c-25.57,49.69-61.28,59.37-84.58,104.64"/>
          <path class="cls-1" d="M284.59,598c24.78-48.16,12.73-84.47,35.31-128.35l8.3,4.27c-22.58,43.89-10.52,80.19-35.3,128.36"/>
          <path class="cls-1" d="M374.35,339.33c-23.3,45.28-10.4,79.97-35.97,129.65l8.3,4.27c25.57-49.69,12.68-84.37,35.98-129.65"/>
          <path class="cls-1" d="M408.61,356.96c-24.78,48.16-61.33,59.46-83.91,103.35l8.3,4.27c22.58-43.89,59.14-55.18,83.92-103.34"/>
          <polygon class="cls-1" points="281.99 483.73 316.68 480.53 390.01 447.55 354.23 453.46 281.99 483.73"/>
          <polygon class="cls-1" points="347.71 523.2 333.47 489.55 321.06 411.77 335.83 443.57 347.71 523.2"/>
          <polygon class="cls-1" points="348.35 477.69 351.77 471.43 322.31 455.61 318.88 461.87 348.35 477.69"/>
          <polygon class="cls-1" points="351.51 471.31 355.39 465.31 326.86 447.93 322.98 453.93 351.51 471.31"/>
          <polygon class="cls-1" points="319.16 461.94 315.29 467.94 343.82 485.33 347.7 479.33 319.16 461.94"/>
        </g>
        <g>
          <path class="cls-1" d="M714.72,344c21.63,45.03,7.58,78.93,31.31,128.35l-8.42,4.04c-23.74-49.42-9.7-83.31-31.32-128.35"/>
          <path class="cls-1" d="M679.98,360.68c23.01,47.91,59.01,59.75,79.97,103.4l-8.42,4.04c-20.96-43.65-56.98-55.49-79.98-103.4"/>
          <path class="cls-1" d="M829.86,583.74c-21.63-45.03-56.87-55.26-80.6-104.68l-8.42,4.04c23.73,49.42,58.96,59.66,80.59,104.69"/>
          <path class="cls-1" d="M795.12,600.43c-23.01-47.91-9.74-83.41-30.71-127.06l-8.42,4.04c20.96,43.65,7.69,79.16,30.7,127.07"/>
          <polygon class="cls-1" points="771.85 425.86 753.32 455.13 734.84 532.44 751.9 500.71 771.85 425.86"/>
          <polygon class="cls-1" points="700.76 454.53 735.99 463.09 804.98 499.04 770.89 492 700.76 454.53"/>
          <polygon class="cls-1" points="736.33 481.81 739.2 488.2 769.59 474.24 766.72 467.85 736.33 481.81"/>
          <polygon class="cls-1" points="739.44 488.06 741.83 494.65 772.88 482.35 770.51 475.76 739.44 488.06"/>
          <polygon class="cls-1" points="766.5 468.04 764.1 461.45 733.04 473.75 735.43 480.34 766.5 468.04"/>
        </g>
        <g>
          <path class="cls-1" d="M829.87,583.76c21.63,45.03,7.58,78.93,31.31,128.35l-8.42,4.04c-23.74-49.42-9.7-83.31-31.32-128.35"/>
          <path class="cls-1" d="M795.13,600.44c23.01,47.91,59.01,59.75,79.97,103.4l-8.42,4.04c-20.96-43.65-56.98-55.49-79.98-103.4"/>
          <path class="cls-1" d="M945,823.51c-21.63-45.03-56.87-55.26-80.6-104.68l-8.42,4.04c23.73,49.42,58.96,59.66,80.59,104.69"/>
          <path class="cls-1" d="M910.27,840.19c-23.01-47.91-9.74-83.41-30.71-127.06l-8.42,4.04c20.96,43.65,7.69,79.16,30.7,127.06"/>
          <polygon class="cls-1" points="887 665.63 868.46 694.9 849.99 772.21 867.05 740.48 887 665.63"/>
          <polygon class="cls-1" points="815.9 694.3 851.14 702.85 920.13 738.81 886.03 731.77 815.9 694.3"/>
          <polygon class="cls-1" points="851.48 721.58 854.34 727.96 884.73 714 881.87 707.62 851.48 721.58"/>
          <polygon class="cls-1" points="854.59 727.83 856.98 734.41 888.03 722.12 885.65 715.52 854.59 727.83"/>
          <polygon class="cls-1" points="881.64 707.8 879.25 701.21 848.19 713.51 850.58 720.1 881.64 707.8"/>
        </g>
        <g>
          <path class="cls-1" d="M945.01,823.52c21.63,45.03,7.58,78.93,31.31,128.35l-8.42,4.04c-23.74-49.42-9.7-83.31-31.32-128.35"/>
          <path class="cls-1" d="M910.28,840.2c23.01,47.91,59.01,59.75,79.97,103.4l-8.42,4.04c-20.96-43.65-56.98-55.49-79.98-103.4"/>
          <path class="cls-1" d="M1060.15,1063.27c-21.63-45.03-56.87-55.26-80.6-104.68l-8.42,4.04c23.73,49.42,58.96,59.66,80.59,104.69"/>
          <path class="cls-1" d="M1025.41,1079.95c-23.01-47.91-9.74-83.41-30.71-127.06l-8.42,4.04c20.96,43.65,7.69,79.16,30.7,127.07"/>
          <polygon class="cls-1" points="1002.14 905.39 983.61 934.66 965.13 1011.97 982.19 980.24 1002.14 905.39"/>
          <polygon class="cls-1" points="931.05 934.06 966.29 942.61 1035.27 978.57 1001.18 971.53 931.05 934.06"/>
          <polygon class="cls-1" points="966.62 961.34 969.49 967.72 999.88 953.76 997.01 947.38 966.62 961.34"/>
          <polygon class="cls-1" points="969.74 967.59 972.12 974.18 1003.18 961.88 1000.8 955.29 969.74 967.59"/>
          <polygon class="cls-1" points="996.79 947.56 994.39 940.97 963.33 953.27 965.72 959.86 996.79 947.56"/>
        </g>
        <g>
          <path class="cls-1" d="M671.37,364.82c-.99-2.07-1.98-4.14-2.97-6.2-.97-2.07-1.93-4.13-2.9-6.19-.94-2.07-1.89-4.13-2.82-6.18-.92-2.06-1.84-4.12-2.75-6.17-.9-2.06-1.79-4.11-2.68-6.16-.87-2.05-1.74-4.1-2.61-6.14-.85-2.04-1.7-4.08-2.54-6.12-.83-2.04-1.65-4.07-2.47-6.09-.8-2.03-1.61-4.05-2.41-6.07-.78-2.02-1.56-4.03-2.34-6.03-.76-2.01-1.52-4.01-2.27-6-.74-2-1.48-3.98-2.21-5.97-.72-1.98-1.43-3.96-2.15-5.93-.7-1.97-1.39-3.93-2.08-5.89-.68-1.96-1.35-3.9-2.02-5.84-.66-1.94-1.31-3.87-1.96-5.79-.64-1.92-1.27-3.84-1.9-5.74-.62-1.91-1.23-3.8-1.84-5.69-.6-1.89-1.19-3.77-1.78-5.63-.58-1.87-1.15-3.73-1.72-5.57-.56-1.85-1.11-3.69-1.66-5.51-.54-1.83-1.07-3.64-1.61-5.45-1.03-3.61-2.04-7.17-3.05-10.69-.96-3.51-1.9-6.98-2.83-10.39-.89-3.41-1.76-6.77-2.62-10.08-.82-3.3-1.63-6.54-2.42-9.74-.76-3.18-1.5-6.31-2.23-9.37-.69-3.06-1.37-6.05-2.04-8.98-.63-2.92-1.25-5.78-1.86-8.57-.58-2.78-1.14-5.5-1.68-8.14-.52-2.63-1.03-5.19-1.52-7.68-.47-2.48-.92-4.88-1.36-7.2-.42-2.31-.82-4.55-1.2-6.7-.37-2.14-.72-4.2-1.05-6.17-.32-1.96-.62-3.84-.91-5.62-.28-1.78-.54-3.46-.78-5.04-.23-1.58-.45-3.06-.66-4.45-.38-2.75-.7-5.1-.96-7.01-.23-1.9-.41-3.36-.53-4.34-.11-.98-.17-1.49-.17-1.49.25,1.49.51,2.99.76,4.5.28,1.52.55,3.04.83,4.58.3,1.54.6,3.09.9,4.65.32,1.56.64,3.14.96,4.71.34,1.59.68,3.18,1.02,4.78.36,1.6.72,3.22,1.08,4.83.38,1.62.76,3.25,1.14,4.89.4,1.64.8,3.28,1.2,4.94.42,1.65.83,3.31,1.25,4.98.43,1.67.87,3.34,1.3,5.02.45,1.68.9,3.37,1.35,5.06.46,1.69.93,3.39,1.39,5.09.97,3.4,1.94,6.82,2.91,10.25,1.02,3.43,2.04,6.88,3.06,10.32,1.06,3.45,2.13,6.91,3.19,10.36,1.1,3.46,2.2,6.91,3.3,10.36,1.13,3.45,2.27,6.9,3.39,10.33,1.16,3.44,2.31,6.86,3.46,10.27,1.18,3.41,2.35,6.8,3.52,10.17,1.19,3.37,2.37,6.71,3.55,10.03,1.2,3.32,2.38,6.61,3.56,9.86,1.2,3.25,2.38,6.48,3.55,9.66,1.19,3.18,2.36,6.32,3.52,9.42,1.17,3.09,2.33,6.14,3.47,9.14,2.32,5.99,4.57,11.78,6.72,17.33,2.2,5.53,4.3,10.82,6.28,15.81,2.02,4.98,3.93,9.67,5.69,14.02,1.79,4.34,3.45,8.34,4.94,11.95,1.51,3.61,2.86,6.82,4.02,9.61,2.35,5.56,3.96,9.37,4.67,11.06"/>
          <path class="cls-1" d="M416.93,361.24c.45-.89.91-1.82,1.38-2.77.47-.96.95-1.95,1.44-2.97.48-1.02.98-2.07,1.49-3.15.5-1.08,1.01-2.19,1.54-3.32,1.02-2.27,2.09-4.65,3.2-7.12,1.08-2.48,2.2-5.05,3.36-7.72,1.13-2.67,2.3-5.42,3.5-8.25,1.17-2.84,2.38-5.75,3.61-8.73,1.21-2.99,2.45-6.04,3.72-9.15,1.24-3.12,2.51-6.29,3.8-9.51,1.27-3.23,2.56-6.5,3.86-9.82,1.29-3.32,2.59-6.67,3.91-10.06,2.59-6.78,5.22-13.67,7.88-20.62,2.6-6.94,5.23-13.93,7.83-20.88,2.57-6.95,5.13-13.88,7.64-20.68,2.48-6.81,4.93-13.51,7.3-20.01,2.35-6.51,4.63-12.82,6.81-18.87,4.31-12.09,8.24-23.11,11.56-32.43,6.53-18.63,10.68-30.46,10.68-30.46l-11.43,4.36c-.94,2.89-1.88,5.81-2.84,8.77-.98,2.96-1.98,5.95-2.98,8.97-1.03,3.02-2.06,6.07-3.11,9.15-1.07,3.08-2.14,6.17-3.22,9.29-1.1,3.12-2.21,6.26-3.32,9.41-1.13,3.15-2.26,6.32-3.4,9.5-2.32,6.35-4.66,12.75-7,19.14-2.4,6.39-4.79,12.79-7.17,19.14-2.43,6.35-4.85,12.67-7.23,18.92-2.43,6.24-4.83,12.4-7.18,18.46-2.39,6.05-4.73,11.98-7.02,17.76-2.31,5.78-4.57,11.4-6.74,16.84-2.2,5.43-4.33,10.67-6.36,15.68-4.12,10.01-7.87,19.11-11.11,26.98-3.3,7.86-6.09,14.49-8.23,19.58-1.09,2.54-2.01,4.7-2.76,6.43-.75,1.73-1.32,3.03-1.69,3.87"/>
          <path class="cls-1" d="M714.72,344c-1.12-2.4-2.23-4.8-3.35-7.21-1.11-2.42-2.22-4.84-3.33-7.26-2.19-4.86-4.39-9.74-6.58-14.61-2.16-4.88-4.31-9.77-6.46-14.63-2.12-4.87-4.24-9.73-6.33-14.54-4.16-9.65-8.26-19.16-12.25-28.41-4.01-9.24-7.9-18.21-11.63-26.79-1.9-4.28-3.75-8.46-5.56-12.53-.92-2.03-1.82-4.03-2.71-6-.9-1.97-1.79-3.9-2.66-5.8-.89-1.9-1.76-3.76-2.61-5.6-.87-1.83-1.73-3.62-2.56-5.38-.85-1.75-1.69-3.46-2.51-5.14-.84-1.67-1.66-3.3-2.46-4.9-.82-1.58-1.62-3.13-2.41-4.64-.8-1.49-1.59-2.95-2.35-4.36-.39-.7-.78-1.39-1.16-2.07-.39-.68-.77-1.34-1.14-2-.38-.65-.76-1.29-1.13-1.93-.38-.63-.75-1.24-1.11-1.85-.37-.6-.74-1.19-1.1-1.77-.37-.57-.73-1.14-1.08-1.69-.36-.55-.72-1.08-1.07-1.61-.36-.52-.71-1.03-1.05-1.53-.35-.49-.7-.97-1.04-1.44-.35-.46-.69-.91-1.02-1.35-.34-.43-.68-.85-1.01-1.27-.34-.4-.67-.79-.99-1.18l-8.02-2.83c.64,1.26,1.34,2.63,2.09,4.09.73,1.47,1.51,3.05,2.34,4.71.81,1.67,1.67,3.43,2.57,5.28.89,1.85,1.81,3.79,2.78,5.8,1.9,4.04,3.94,8.39,6.1,12.97,2.13,4.6,4.37,9.45,6.69,14.47,2.3,5.03,4.68,10.24,7.11,15.57,2.41,5.33,4.88,10.78,7.36,16.28,4.93,11.01,9.95,22.22,14.83,33.11,9.65,21.82,18.72,42.35,25.39,57.43,6.61,15.09,10.83,24.73,10.83,24.73"/>
          <path class="cls-1" d="M374.35,339.33s1.92-4.17,5.31-11.57c1.72-3.69,3.82-8.2,6.24-13.38,2.45-5.18,5.22-11.04,8.25-17.47,3.08-6.42,6.43-13.4,10-20.83,3.62-7.41,7.46-15.27,11.46-23.46,2.03-4.08,4.09-8.25,6.2-12.49,2.12-4.23,4.28-8.52,6.46-12.87,2.2-4.34,4.44-8.73,6.69-13.17,2.28-4.42,4.57-8.88,6.89-13.37,2.34-4.47,4.69-8.97,7.05-13.48,2.39-4.49,4.78-9,7.17-13.5,2.43-4.48,4.85-8.96,7.26-13.43,2.45-4.44,4.89-8.87,7.32-13.26,2.47-4.37,4.92-8.71,7.35-13.01,1.23-2.14,2.45-4.27,3.67-6.38,1.23-2.11,2.45-4.2,3.66-6.28,1.23-2.07,2.44-4.13,3.65-6.17,1.22-2.03,2.43-4.05,3.64-6.05,1.22-1.99,2.42-3.96,3.62-5.92,1.21-1.94,2.41-3.87,3.59-5.78,1.2-1.89,2.39-3.77,3.56-5.62,1.19-1.84,2.37-3.66,3.53-5.46,1.18-1.78,2.34-3.54,3.49-5.28,1.17-1.72,2.32-3.42,3.45-5.09,1.15-1.65,2.29-3.28,3.41-4.89,1.14-1.58,2.25-3.14,3.36-4.68,1.12-1.51,2.22-2.99,3.3-4.46.55-.72,1.09-1.43,1.63-2.14.54-.7,1.08-1.39,1.61-2.08.54-.68,1.07-1.35,1.6-2.02.53-.66,1.06-1.31,1.58-1.96.53-.64,1.05-1.27,1.57-1.89.52-.61,1.04-1.22,1.55-1.83.52-.59,1.03-1.18,1.53-1.76.51-.57,1.01-1.13,1.51-1.69.5-.55,1-1.09,1.49-1.62.5-.52.99-1.04,1.47-1.55.49-.5.97-.99,1.45-1.48.48-.47.96-.94,1.43-1.4.48-.45.95-.89,1.41-1.33.47-.42.93-.84,1.39-1.25.46-.39.92-.78,1.37-1.17.45-.37.9-.73,1.35-1.09l.66-.51.17-.13.04-.03s.03.01.04.02l.08.06.32.25.64.5.63.52,18.04,29.91-1.18-1.42-1.19-1.37-1.2-1.33-1.21-1.29-1.22-1.25-1.23-1.2-1.23-1.16-1.24-1.12-1.25-1.08-1.26-1.04-1.27-1-1.27-.96-1.28-.92-1.29-.88c-.43-.28-.86-.56-1.3-.84-.43-.27-.87-.54-1.3-.8-.01-.01-.03.02-.04.03l-.04.04-.08.08-.17.15-.33.31-.67.62c-.45.42-.9.85-1.35,1.28-.45.44-.9.88-1.35,1.33-.45.46-.9.91-1.36,1.37-.45.47-.91.94-1.37,1.42-.46.48-.91.97-1.37,1.46-.46.5-.92,1-1.38,1.51-.46.51-.92,1.03-1.39,1.55-.46.53-.93,1.06-1.39,1.59-.46.54-.93,1.09-1.4,1.63-.47.56-.93,1.11-1.4,1.68-.47.57-.94,1.14-1.41,1.72-.94,1.17-1.88,2.36-2.84,3.55-.94,1.22-1.9,2.46-2.86,3.71-.95,1.27-1.91,2.56-2.88,3.86-.96,1.32-1.92,2.66-2.9,4.01-.96,1.37-1.94,2.76-2.92,4.15-.97,1.42-1.95,2.85-2.94,4.29-.98,1.46-1.96,2.94-2.96,4.42-.98,1.5-1.97,3.02-2.97,4.55-.99,1.55-1.98,3.1-2.99,4.68-.99,1.59-1.99,3.18-3,4.8-1,1.62-2,3.26-3.01,4.91-1,1.66-2.01,3.33-3.03,5.02-1,1.7-2.02,3.4-3.04,5.12-1.01,1.73-2.02,3.47-3.05,5.23-1.01,1.76-2.03,3.54-3.06,5.32-1.02,1.79-2.04,3.6-3.06,5.41-2.03,3.65-4.08,7.34-6.15,11.08-2.04,3.76-4.09,7.55-6.17,11.38-2.04,3.85-4.1,7.74-6.18,11.65-2.05,3.93-4.11,7.89-6.19,11.88-2.05,4-4.11,8.03-6.18,12.07-2.05,4.06-4.11,8.14-6.17,12.23-2.04,4.1-4.1,8.22-6.15,12.35-4.06,8.27-8.14,16.59-12.22,24.89-4.03,8.32-8.05,16.64-12.05,24.9-3.97,8.27-7.91,16.49-11.81,24.61-7.8,16.23-15.41,32.06-22.65,47.13"/>
          <polygon class="cls-1" points="631.12 50.79 607.59 83.97 584.87 208.79 606.47 169.14 631.12 50.79"/>
          <polygon class="cls-1" points="531.65 30.84 545.25 28.6 548.65 28.04 548.76 28.02 548.81 28.01 548.84 28 548.85 28 548.86 28.02 549.07 28.31 549.49 28.88 550.32 30.02 551.99 32.31 558.64 41.45 585.28 78.02 685.3 242.68 630.93 175.66 581.47 90.27 556.74 47.57 550.56 36.9 549.01 34.23 548.82 33.9 548.77 33.81 548.72 33.81 548.62 33.79 548.23 33.72 547.44 33.58 544.28 33.04 531.65 30.84"/>
          <polygon class="cls-1" points="585.99 114.11 589.81 129.79 628.96 140.23 625.14 124.55 585.99 114.11"/>
          <polygon class="cls-1" points="590.13 129.81 593.33 145.29 633.37 159.69 630.17 144.22 590.13 129.81"/>
          <polygon class="cls-1" points="624.86 124.61 621.66 109.14 581.61 94.72 584.8 110.21 624.86 124.61"/>
          <path class="cls-1" d="M592.18,51.62l-27.04-12.65-13.52-6.32-1.69-.79-.84-.4-.21-.1-.05-.02h-.01s0,0-.01,0l-.03.03-.11.11-.43.45-3.45,3.57-6.9,7.13-98.66,148.56,47.7-53.63,53.08-76,6.64-9.5,1.66-2.38.21-.3.05-.07h.05s.1,0,.1,0l.41.02.81.04,3.25.17,13,.69,26,1.38Z"/>
          <polygon class="cls-1" points="498.47 .81 515.99 45.99 529.21 174.97 510.92 133.85 498.47 .81"/>
          <polygon class="cls-1" points="495.75 85.7 490.94 101.39 529.36 95.45 534.17 79.77 495.75 85.7"/>
          <polygon class="cls-1" points="491.28 101.26 485.89 117 523.02 115.09 528.4 99.36 491.28 101.26"/>
          <polygon class="cls-1" points="533.8 79.98 539.19 64.24 502.07 66.17 496.68 81.9 533.8 79.98"/>
        </g>
      </g>
      <g>
        <g>
          <path class="cls-1" d="M319.66,697.73c6.89-12.91,34.39-6.35,41.95-20.52l8.24,4.4c-7.57,14.17-35.05,7.62-41.94,20.53"/>
          <path class="cls-1" d="M353.65,715.89c7.33-13.73-13.14-33.39-6.46-45.91l8.24,4.4c-6.68,12.51,13.81,32.18,6.47,45.91"/>
          <path class="cls-1" d="M356.36,629.01c-6.89,12.91,13.84,32.11,6.28,46.28l8.24,4.4c7.57-14.17-13.16-33.37-6.27-46.27"/>
          <path class="cls-1" d="M390.35,647.16c-7.33,13.73-35.06,7.65-41.74,20.16l8.24,4.4c6.68-12.51,34.42-6.42,41.76-20.15"/>
          <polygon class="cls-1" points="319.09 664.71 347.54 673.8 400.27 681.47 371.66 673.24 319.09 664.71"/>
          <polygon class="cls-1" points="385.89 702.02 364.3 682.87 331.77 644.81 353.28 663.31 385.89 702.02"/>
          <polygon class="cls-1" points="373.54 682.14 374.66 680.42 345.25 664.52 344.12 666.24 373.54 682.14"/>
          <polygon class="cls-1" points="374.41 680.29 375.99 678.82 346.93 662.52 345.34 663.98 374.41 680.29"/>
          <polygon class="cls-1" points="344.38 666.36 342.8 667.83 371.87 684.14 373.45 682.67 344.38 666.36"/>
        </g>
        <g>
          <path class="cls-1" d="M695.16,635.8c5.73,11.85-16.07,29.56-9.79,42.56l-8.41,4.06c-6.29-13.01,15.5-30.71,9.77-42.56"/>
          <path class="cls-1" d="M660.47,652.58c6.1,12.61,33.71,6.94,39.26,18.43l-8.41,4.06c-5.55-11.49-33.18-5.82-39.28-18.43"/>
          <path class="cls-1" d="M725.67,698.9c-5.73-11.85-33.15-5.76-39.44-18.76l-8.41,4.06c6.29,13.01,33.7,6.92,39.43,18.77"/>
          <path class="cls-1" d="M690.97,715.67c-6.1-12.61,15.49-30.73,9.94-42.22l-8.41,4.06c5.55,11.49-16.05,29.62-9.95,42.23"/>
          <polygon class="cls-1" points="720.92 652.19 696.58 669.33 658.53 705.79 682.3 688.08 720.92 652.19"/>
          <polygon class="cls-1" points="651.48 684.32 679.38 677.55 728.5 672.03 701.15 679.07 651.48 684.32"/>
          <polygon class="cls-1" points="674.31 684.99 674.95 686.72 705.12 672.3 704.48 670.57 674.31 684.99"/>
          <polygon class="cls-1" points="675.2 686.6 675.37 688.56 705.63 674.61 705.47 672.65 675.2 686.6"/>
          <polygon class="cls-1" points="704.23 670.7 704.06 668.75 673.78 682.69 673.95 684.65 704.23 670.7"/>
        </g>
        <g>
          <path class="cls-1" d="M651.86,656.74c-.98-2.02-1.95-4.04-2.92-6.05-.95-2.02-1.9-4.04-2.85-6.05-.93-2.02-1.85-4.03-2.78-6.04-.9-2.02-1.81-4.03-2.7-6.03-.88-2.01-1.76-4.02-2.63-6.02-.86-2-1.71-4-2.56-6-.83-2-1.67-3.99-2.5-5.98-.81-1.99-1.62-3.98-2.43-5.96-.79-1.98-1.58-3.96-2.36-5.93-.77-1.97-1.53-3.94-2.29-5.9-.75-1.96-1.49-3.92-2.23-5.87-.72-1.95-1.45-3.9-2.16-5.83-.7-1.94-1.4-3.87-2.1-5.8-.68-1.93-1.36-3.85-2.04-5.76-.66-1.91-1.32-3.82-1.98-5.71-.64-1.9-1.28-3.79-1.92-5.67-.62-1.88-1.24-3.75-1.85-5.62-.6-1.86-1.2-3.72-1.8-5.57-.58-1.85-1.16-3.68-1.74-5.51-.56-1.83-1.12-3.65-1.68-5.46-.54-1.81-1.08-3.61-1.62-5.4-.53-1.79-1.05-3.56-1.57-5.33-.51-1.77-1.01-3.52-1.51-5.27-.49-1.74-.98-3.48-1.46-5.2-.93-3.44-1.85-6.83-2.76-10.18-.86-3.34-1.71-6.63-2.55-9.87-.8-3.23-1.58-6.41-2.35-9.53-.73-3.12-1.45-6.18-2.16-9.18-.67-2.99-1.33-5.93-1.98-8.8-.61-2.86-1.21-5.66-1.8-8.4-.56-2.73-1.1-5.38-1.63-7.97-.5-2.58-.99-5.09-1.46-7.53-.45-2.43-.89-4.78-1.31-7.06-.4-2.27-.79-4.46-1.16-6.56-.35-2.1-.69-4.12-1.01-6.05-.31-1.92-.6-3.76-.88-5.51-.26-1.74-.51-3.39-.75-4.95-.22-1.55-.43-3-.63-4.36-.36-2.7-.66-5-.91-6.87-.22-1.86-.39-3.29-.51-4.26-.1-.96-.16-1.46-.16-1.46.24,1.46.49,2.94.73,4.41.26,1.49.53,2.98.8,4.49.29,1.51.58,3.03.87,4.56.31,1.53.62,3.07.93,4.62.33,1.55.66,3.11.99,4.68.35,1.57.7,3.15,1.05,4.74.37,1.59.74,3.18,1.11,4.79.39,1.61.77,3.22,1.16,4.83.4,1.62.81,3.25,1.21,4.88.42,1.63.84,3.27,1.26,4.92.44,1.65.87,3.3,1.31,4.95.45,1.66.9,3.32,1.36,4.98.47,1.67.93,3.33,1.4,5.01.48,1.67.96,3.35,1.44,5.03.99,3.36,1.99,6.73,2.99,10.1,1.04,3.38,2.08,6.76,3.12,10.14,1.08,3.38,2.15,6.77,3.23,10.14,1.11,3.38,2.21,6.75,3.32,10.11,1.13,3.36,2.26,6.71,3.39,10.04,1.15,3.33,2.3,6.65,3.44,9.95,1.17,3.29,2.32,6.57,3.47,9.81,1.17,3.24,2.33,6.46,3.48,9.65,1.17,3.18,2.33,6.33,3.48,9.44,1.16,3.11,2.31,6.18,3.45,9.21,1.15,3.03,2.29,6.01,3.4,8.94,2.28,5.86,4.48,11.52,6.58,16.94,2.16,5.41,4.22,10.58,6.16,15.46,1.98,4.87,3.85,9.46,5.58,13.71,1.76,4.24,3.38,8.15,4.84,11.68,1.48,3.53,2.81,6.67,3.95,9.39,2.3,5.43,3.89,9.16,4.59,10.81"/>
          <path class="cls-1" d="M398.59,651.57c.45-.87.91-1.76,1.39-2.69.47-.93.95-1.89,1.45-2.88.49-.99.99-2.01,1.5-3.06.5-1.05,1.02-2.12,1.55-3.22,1.03-2.21,2.11-4.52,3.23-6.92,1.09-2.41,2.22-4.91,3.39-7.5,1.14-2.59,2.32-5.27,3.53-8.02,1.19-2.76,2.4-5.59,3.65-8.49,1.22-2.9,2.48-5.87,3.75-8.9,1.26-3.03,2.54-6.12,3.84-9.26,1.28-3.14,2.58-6.33,3.9-9.55,1.3-3.23,2.62-6.49,3.95-9.79,2.62-6.6,5.28-13.31,7.96-20.07,2.63-6.76,5.28-13.56,7.92-20.33,2.6-6.77,5.19-13.51,7.73-20.14,2.51-6.63,4.98-13.15,7.39-19.49,2.38-6.34,4.68-12.49,6.89-18.38,4.36-11.78,8.34-22.51,11.7-31.59,6.61-18.15,10.81-29.67,10.81-29.67l-11.4,4c-.95,2.81-1.91,5.66-2.88,8.55-1,2.88-2,5.8-3.02,8.74-1.04,2.94-2.09,5.92-3.15,8.91-1.08,3-2.17,6.01-3.26,9.05-1.11,3.04-2.23,6.09-3.36,9.17-1.14,3.07-2.29,6.15-3.44,9.25-2.35,6.19-4.72,12.41-7.08,18.64-2.42,6.22-4.85,12.45-7.25,18.64-2.46,6.19-4.9,12.33-7.31,18.41-2.45,6.07-4.88,12.07-7.26,17.96-2.41,5.88-4.78,11.66-7.09,17.28-2.34,5.62-4.61,11.1-6.81,16.38-2.22,5.28-4.37,10.38-6.42,15.26-4.16,9.74-7.95,18.59-11.22,26.24-3.33,7.64-6.15,14.09-8.31,19.04-1.1,2.47-2.03,4.57-2.78,6.25-.76,1.68-1.34,2.94-1.71,3.77"/>
          <path class="cls-1" d="M695.16,635.81c-1.1-2.34-2.2-4.69-3.3-7.05-1.09-2.36-2.18-4.73-3.27-7.1-2.15-4.75-4.31-9.51-6.46-14.27-2.12-4.77-4.24-9.54-6.35-14.29-2.08-4.76-4.16-9.5-6.22-14.21-4.09-9.43-8.11-18.73-12.03-27.76-3.94-9.03-7.76-17.8-11.42-26.18-1.86-4.18-3.69-8.26-5.46-12.24-.9-1.98-1.79-3.94-2.66-5.86-.89-1.92-1.76-3.81-2.62-5.67-.87-1.85-1.73-3.68-2.57-5.47-.86-1.78-1.7-3.53-2.52-5.25-.84-1.71-1.66-3.38-2.47-5.02-.82-1.63-1.63-3.22-2.42-4.78-.81-1.54-1.6-3.05-2.37-4.52-.79-1.46-1.56-2.88-2.32-4.26-.38-.68-.76-1.36-1.14-2.02-.38-.66-.76-1.31-1.12-1.95-.38-.64-.75-1.26-1.11-1.88-.37-.61-.74-1.21-1.1-1.8-.37-.58-.73-1.16-1.08-1.73-.36-.56-.72-1.11-1.07-1.65-.36-.53-.71-1.05-1.05-1.57-.35-.5-.7-1-1.04-1.49-.35-.48-.69-.94-1.03-1.4-.34-.45-.68-.89-1.01-1.32-.34-.42-.67-.83-1-1.23-.33-.39-.66-.77-.98-1.14l-7.97-2.69c.63,1.23,1.32,2.57,2.05,4,.72,1.44,1.49,2.98,2.3,4.6.8,1.63,1.64,3.35,2.53,5.16.87,1.81,1.78,3.7,2.73,5.67,1.87,3.95,3.88,8.19,6,12.67,2.09,4.49,4.29,9.23,6.57,14.13,2.26,4.92,4.6,10.01,6.99,15.21,2.37,5.21,4.79,10.53,7.24,15.9,4.84,10.76,9.77,21.71,14.57,32.35,4.75,10.65,9.36,20.99,13.6,30.51,4.22,9.53,8.07,18.23,11.33,25.6,6.49,14.75,10.63,24.16,10.63,24.16"/>
          <path class="cls-1" d="M356.35,629.01s1.93-4.05,5.35-11.24c1.74-3.59,3.85-7.96,6.29-13,2.46-5.03,5.26-10.72,8.32-16.97,3.1-6.23,6.48-13.01,10.07-20.23,3.65-7.19,7.52-14.82,11.55-22.77,2.04-3.96,4.12-8.01,6.24-12.12,2.14-4.1,4.31-8.27,6.51-12.49,2.22-4.21,4.47-8.47,6.74-12.77,2.29-4.29,4.61-8.62,6.93-12.97,2.35-4.34,4.72-8.7,7.09-13.07,2.4-4.36,4.81-8.72,7.22-13.09,2.44-4.35,4.88-8.69,7.31-13.02,2.47-4.3,4.92-8.59,7.37-12.85,2.48-4.23,4.95-8.44,7.39-12.6,1.24-2.07,2.47-4.13,3.69-6.18,1.24-2.04,2.46-4.07,3.68-6.08,1.23-2.01,2.46-4,3.67-5.98,1.23-1.97,2.45-3.92,3.66-5.86,1.22-1.93,2.43-3.84,3.63-5.73,1.21-1.88,2.42-3.74,3.61-5.59,1.21-1.83,2.4-3.65,3.58-5.44,1.2-1.78,2.38-3.54,3.55-5.28,1.18-1.72,2.35-3.42,3.51-5.1,1.17-1.66,2.33-3.3,3.47-4.92,1.16-1.6,2.3-3.17,3.42-4.72,1.14-1.53,2.26-3.03,3.37-4.52,1.12-1.46,2.23-2.89,3.31-4.3.55-.69,1.09-1.38,1.63-2.06.54-.67,1.08-1.34,1.62-2.01.54-.65,1.07-1.3,1.6-1.95.53-.63,1.06-1.26,1.59-1.88.53-.61,1.05-1.22,1.57-1.82.52-.59,1.04-1.18,1.55-1.76.52-.57,1.03-1.13,1.53-1.69.51-.55,1.01-1.09,1.51-1.62.5-.52,1-1.04,1.5-1.56.5-.5.99-1,1.48-1.49.49-.48.98-.95,1.46-1.42.48-.45.96-.9,1.43-1.34.48-.43.95-.85,1.41-1.27.47-.4.93-.8,1.39-1.19.46-.38.92-.75,1.37-1.12.45-.35.9-.7,1.35-1.04l.66-.49.17-.12.04-.03s.03.01.04.02l.08.06.32.24.63.49.63.5,17.78,29.17-1.17-1.38-1.18-1.34-1.19-1.29-1.2-1.25-1.2-1.21-1.21-1.17-1.22-1.13-1.23-1.09-1.24-1.05-1.25-1.01-1.26-.97-1.26-.93-1.27-.89-1.28-.85c-.43-.27-.86-.54-1.29-.81-.43-.26-.86-.52-1.29-.78-.01-.01-.03.02-.04.02l-.04.04-.08.07-.17.15-.33.29-.67.6c-.45.41-.9.81-1.35,1.22-.45.42-.9.84-1.35,1.27-.45.44-.91.87-1.36,1.31-.45.45-.91.9-1.37,1.36-.46.47-.91.93-1.38,1.4-.46.48-.92.96-1.38,1.45-.46.49-.92.99-1.39,1.49-.46.51-.93,1.02-1.4,1.53-.46.52-.93,1.04-1.4,1.57-.47.53-.94,1.07-1.41,1.61-.47.55-.94,1.1-1.41,1.65-.94,1.13-1.89,2.27-2.85,3.42-.95,1.18-1.9,2.37-2.87,3.58-.95,1.23-1.92,2.47-2.89,3.73-.96,1.28-1.93,2.57-2.91,3.87-.97,1.32-1.94,2.66-2.93,4.01-.97,1.37-1.96,2.75-2.95,4.15-.98,1.41-1.97,2.84-2.97,4.28-.99,1.45-1.98,2.92-2.98,4.4-.99,1.49-1.99,3-3,4.52-1,1.53-2,3.08-3.01,4.64-1,1.57-2.01,3.16-3.03,4.75-1.01,1.61-2.02,3.23-3.04,4.86-1.01,1.64-2.03,3.3-3.05,4.96-1.01,1.67-2.04,3.36-3.06,5.06-1.02,1.71-2.04,3.43-3.07,5.15-1.02,1.74-2.05,3.48-3.08,5.24-2.04,3.54-4.1,7.12-6.19,10.73-2.05,3.64-4.12,7.32-6.21,11.03-2.06,3.73-4.13,7.5-6.22,11.3-2.06,3.81-4.14,7.66-6.23,11.52-2.06,3.88-4.14,7.79-6.23,11.71-2.06,3.94-4.14,7.89-6.22,11.87-2.06,3.98-4.13,7.98-6.2,11.98-4.09,8.03-8.2,16.1-12.31,24.16-4.06,8.08-8.11,16.15-12.14,24.18-4,8.03-7.97,16.01-11.9,23.9-7.86,15.76-15.53,31.13-22.82,45.76"/>
          <polygon class="cls-1" points="613.68 348.79 590.04 381.65 566.66 504.48 588.41 465.29 613.68 348.79"/>
          <polygon class="cls-1" points="514.75 329.72 528.3 327.84 531.69 327.37 531.79 327.35 531.85 327.34 531.87 327.34 531.89 327.34 531.9 327.36 532.1 327.63 532.51 328.19 533.34 329.3 534.98 331.53 541.56 340.44 567.86 376.05 666.47 536.63 612.73 471.43 563.99 388.12 539.62 346.47 533.53 336.06 532.01 333.45 531.82 333.13 531.77 333.05 531.72 333.04 531.62 333.02 531.23 332.94 530.45 332.79 527.31 332.17 514.75 329.72"/>
          <polygon class="cls-1" points="568.35 411.48 572.06 426.84 610.98 436.65 607.28 421.3 568.35 411.48"/>
          <polygon class="cls-1" points="572.38 426.85 575.47 442.02 615.26 455.72 612.17 440.56 572.38 426.85"/>
          <polygon class="cls-1" points="606.99 421.36 603.9 406.2 564.11 392.5 567.19 407.67 606.99 421.36"/>
          <path class="cls-1" d="M574.89,350.05l-26.85-12.11-13.42-6.06-1.68-.76-.84-.38-.21-.09-.05-.02h-.01s0,0-.01,0l-.03.03-.11.11-.43.43-3.46,3.42-6.91,6.84-99.08,143.58,47.8-51.54,53.28-73.39,6.66-9.17,1.67-2.29.21-.29.05-.07h.05s.1,0,.1,0l.4.02.81.03,3.24.13,12.94.53,25.88,1.06Z"/>
          <polygon class="cls-1" points="481.92 299.41 499.07 344.22 511.45 471.27 493.5 430.43 481.92 299.41"/>
          <polygon class="cls-1" points="478.7 382.74 473.81 398.04 512.08 393.13 516.96 377.84 478.7 382.74"/>
          <polygon class="cls-1" points="474.16 397.92 468.7 413.26 505.65 412.28 511.1 396.95 474.16 397.92"/>
          <polygon class="cls-1" points="516.6 378.05 522.06 362.71 485.1 363.71 479.64 379.03 516.6 378.05"/>
        </g>
      </g>
      <g>
        <path class="cls-1" d="M604.18,645.81c0,11.17-2.93,21.69-7.62,30.38-4.69,8.73-11.08,15.7-18.1,20.84-7.02,5.17-14.77,8.47-22.46,10.21-7.71,1.74-15.38,1.9-22.58.83-1.8-.32-3.57-.66-5.31-1.02-1.74-.47-3.45-.99-5.13-1.51-.84-.24-1.67-.56-2.49-.9-.81-.33-1.63-.67-2.45-1-1.63-.62-3.18-1.47-4.73-2.28-6.15-3.28-11.66-7.52-16.39-12.51-4.72-5-8.69-10.76-11.73-17.22-.37-.81-.79-1.6-1.12-2.44-.32-.84-.64-1.69-.97-2.54-.72-1.67-1.15-3.48-1.71-5.25-.3-.88-.47-1.81-.67-2.73-.2-.92-.41-1.85-.61-2.79-.16-.94-.26-1.9-.41-2.87-.07-.48-.14-.96-.2-1.45-.08-.48-.14-.97-.15-1.47l9.3-.81c0,.4.05.8.12,1.19.06.39.11.78.17,1.17.11.78.18,1.56.31,2.32.16.76.32,1.51.48,2.25.15.75.27,1.5.52,2.21.45,1.43.74,2.92,1.32,4.27.25.7.5,1.39.74,2.08.25.69.59,1.33.88,2,2.35,5.32,5.44,10.18,9.21,14.48,3.76,4.3,8.22,8.05,13.3,11.05,1.27.74,2.56,1.53,3.92,2.1.68.31,1.36.63,2.04.94.69.32,1.38.63,2.09.86,1.42.5,2.86,1,4.34,1.47,1.48.36,2.98.72,4.52,1.06,6.14,1.15,12.77,1.27,19.5-.03,6.71-1.3,13.55-3.98,19.78-8.36,6.23-4.36,11.92-10.37,16.11-17.97,4.19-7.57,6.81-16.78,6.82-26.59"/>
        <path class="cls-1" d="M565.64,645.81c-.05,5.92-.97,11.43-2.61,16.63-1.65,5.2-4.02,10.08-7.11,14.57-3.09,4.48-6.89,8.56-11.4,12.01-4.51,3.42-9.75,6.32-15.55,8.06-5.78,1.78-12.15,2.65-18.78,2.15-6.63-.47-13.48-2.39-19.93-5.9-6.45-3.5-12.51-8.62-17.32-15.34-4.8-6.7-8.29-15.06-9.41-24.3l9.27-1.12c.96,7.91,4.01,15.05,8.2,20.71,4.19,5.69,9.49,9.94,15.07,12.75,5.58,2.83,11.46,4.22,17.07,4.35,5.61.16,10.92-.86,15.65-2.63,4.76-1.72,8.91-4.42,12.38-7.45,3.48-3.06,6.3-6.55,8.51-10.25,2.21-3.7,3.82-7.61,4.9-11.62,1.08-4.02,1.66-8.14,1.71-12.62"/>
        <path class="cls-1" d="M604.18,645.78c-.01-11.17-2.94-21.69-7.64-30.38-4.7-8.73-11.08-15.69-18.11-20.83-7.03-5.17-14.77-8.46-22.47-10.2-7.71-1.74-15.38-1.89-22.58-.82-1.8.32-3.57.66-5.31,1.02-1.74.47-3.45.99-5.13,1.51-.84.24-1.67.57-2.49.9-.81.33-1.63.67-2.45,1-1.63.62-3.18,1.47-4.73,2.28-6.15,3.28-11.66,7.52-16.38,12.52-4.72,5-8.68,10.76-11.72,17.22-.37.81-.79,1.6-1.12,2.44-.32.84-.64,1.69-.97,2.54-.72,1.67-1.14,3.48-1.71,5.25-.3.88-.47,1.81-.67,2.73-.2.92-.41,1.85-.61,2.79-.16.94-.26,1.9-.4,2.87-.07.48-.14.96-.2,1.45-.08.48-.13.97-.15,1.47l9.3.81c0-.4.05-.8.12-1.19.06-.39.11-.78.17-1.17.11-.78.18-1.56.31-2.32.16-.76.32-1.51.48-2.25.15-.75.27-1.5.52-2.22.45-1.43.74-2.92,1.32-4.27.25-.7.5-1.39.74-2.08.25-.69.59-1.33.87-2,2.35-5.33,5.44-10.18,9.2-14.48,3.76-4.3,8.21-8.05,13.29-11.05,1.27-.74,2.56-1.53,3.92-2.1.68-.31,1.36-.63,2.04-.94.69-.32,1.38-.64,2.09-.86,1.42-.5,2.86-1,4.34-1.48,1.48-.36,2.98-.72,4.52-1.06,6.14-1.16,12.77-1.28,19.5.02,6.71,1.29,13.55,3.97,19.78,8.36,6.23,4.35,11.93,10.36,16.12,17.96,4.19,7.56,6.82,16.78,6.83,26.59"/>
        <path class="cls-1" d="M565.64,645.8c-.05-5.92-.98-11.43-2.62-16.63-1.65-5.19-4.03-10.08-7.12-14.56-3.09-4.48-6.89-8.56-11.41-12.01-4.51-3.42-9.75-6.32-15.55-8.06-5.78-1.78-12.15-2.64-18.79-2.14-6.63.48-13.48,2.39-19.93,5.91-6.44,3.5-12.51,8.62-17.31,15.35-4.8,6.7-8.29,15.07-9.4,24.3l9.27,1.12c.96-7.91,4.01-15.05,8.2-20.71,4.19-5.69,9.49-9.95,15.06-12.76,5.58-2.83,11.46-4.22,17.07-4.36,5.61-.16,10.92.86,15.66,2.62,4.76,1.72,8.91,4.42,12.39,7.44,3.48,3.05,6.3,6.54,8.51,10.24,2.21,3.7,3.82,7.6,4.91,11.62,1.08,4.02,1.66,8.13,1.71,12.62"/>
        <path class="cls-1" d="M464.68,712.85c-.19-1.01-.36-2.01-.52-3.01-.14-1.01-.25-2.03-.35-3.04-.2-2.01-.34-3.99-.42-5.93-.11-1.92-.03-3.91.05-5.81.09-1.91.23-3.78.43-5.61.5-3.73,1.19-7.28,2.14-10.65.51-1.71,1.07-3.37,1.66-4.97.6-1.6,1.2-3.14,1.96-4.67,1.02-8.65,3.92-16.38,8.05-22.53,4.1-6.17,9.31-10.82,14.8-13.69,5.49-2.89,11.23-4.01,16.4-3.61,5.17.39,9.76,2.32,13.08,5.26-3.17-3.67-7.53-6.87-12.44-8.81-2.55-1.07-5.1-1.72-7.95-2.24-1.43-.26-2.78-.36-4.24-.46-1.43-.07-3-.14-4.43-.03-1.49.47-3.1.99-4.64,1.64-1.49.68-3.03,1.44-4.59,2.29-1.47.89-2.94,1.88-4.45,2.95-1.49,1.08-2.81,2.3-4.25,3.59-5.5,5.21-10.25,12.06-13.54,20.25-3.33,8.2-4.95,17.77-4.54,27.9.42,10.13,2.93,20.82,7.78,31.2Z"/>
        <path class="cls-1" d="M518.63,658.42c-2.02,1.51-4.14,2.63-6.57,3.63-1.2.49-2.38.84-3.67,1.19-.64.17-1.29.33-1.96.47-.66.13-1.29.22-1.95.31-1.32.17-2.71.3-4.13.34-1.35,0-2.75-.05-4.2-.18-1.48-.11-2.87-.35-4.31-.65-1.42-.31-2.97-.66-4.39-1.15-5.66-3.48-10.9-8.75-14.88-15.45-4-6.68-6.81-14.88-7.65-23.97-.85-9.07.25-18.98,3.64-28.8,3.38-9.82,9.04-19.56,17.02-28.21-4.43,7.68-7.5,15.45-9.04,23.19-1.66,7.63-1.77,15.21-.86,22.04-1.12,8.77-.16,17.11,2.38,24.22,2.54,7.11,6.6,12.96,11.3,17.17,4.71,4.21,10.08,6.74,15.23,7.62,5.16.9,10.09.18,14.02-1.78Z"/>
        <path class="cls-1" d="M492.01,645.3l.24-2.97c.14-.98.36-1.95.52-2.92-10.95-2.14-21.86-4.42-32.75-6.86-.35,1.88-.66,3.76-.95,5.65-.24,1.89-.32,3.79-.45,5.69,11.13.62,22.26,1.08,33.4,1.4Z"/>
        <path class="cls-1" d="M492.49,639.38c.2-.97.67-1.88.99-2.8l.53-1.37.68-1.31c-10.23-4.36-20.25-9.31-30.02-14.82-.79,1.72-1.56,3.46-2.3,5.21-.4.87-.69,1.78-.99,2.68l-.89,2.73c5.25,1.91,10.53,3.68,15.85,5.29,5.32,1.61,10.74,3.08,16.15,4.4Z"/>
        <path class="cls-1" d="M458.9,643.8c-.25,1.89-.24,3.78-.27,5.69v2.86c-.01.96.11,1.91.18,2.87,11.2-.21,22.32-1.03,33.33-2.46l-.11-3.01c.02-1,.13-2,.18-2.99-5.57-.19-11.15-.53-16.72-1.02-5.53-.49-11.07-1.14-16.59-1.94Z"/>
      </g>
    </g>
  </g>
</svg>