<?xml version="1.0" encoding="UTF-8"?>
<svg id="Layer_2" data-name="Layer 2" xmlns="http://www.w3.org/2000/svg" viewBox="0 0 948.83 373.54">
  <defs>
    <style>
      .cls-1 {
        fill: #bfbfbf;
        stroke: #000;
        stroke-linecap: round;
        stroke-width: 4.5px;
      }
    </style>
  </defs>
  <g id="Layer_2-2" data-name="Layer 2">
    <g>
      <g>
        <path class="cls-1" d="M2.25,18.06c82.9,0,123.51,27.34,214.49,27.34v9.34C125.76,54.73,85.15,27.41,2.25,27.41"/>
        <path class="cls-1" d="M2.25,56.59c88.19,0,131.76-27.32,212.12-27.32v9.34c-80.35,0-123.93,27.34-212.12,27.34"/>
        <path class="cls-1" d="M443.58,18.06c-82.9,0-123.51,27.34-214.49,27.34v9.34c90.98,0,131.59-27.33,214.49-27.33"/>
        <path class="cls-1" d="M443.58,56.59c-88.19,0-131.76-27.32-212.12-27.32v9.34c80.35,0,123.93,27.34,212.12,27.34"/>
        <polygon class="cls-1" points="165.75 2 196.22 31.38 298.59 81.5 263.38 52.39 165.75 2"/>
        <polygon class="cls-1" points="157.56 78.5 195.67 50.44 299.02 3.81 263.99 31.5 157.56 78.5"/>
        <polygon class="cls-1" points="223.93 58.24 235.54 58.42 236.48 24.98 224.88 24.8 223.93 58.24"/>
        <polygon class="cls-1" points="235.51 58.14 247.08 58.84 250.99 25.52 239.42 24.81 235.51 58.14"/>
        <polygon class="cls-1" points="224.99 25.08 213.41 24.39 209.5 57.71 221.07 58.41 224.99 25.08"/>
      </g>
      <g>
        <g>
          <path class="cls-1" d="M222.93,308.16c67.96,0,101.25,27.34,175.84,27.34v9.34c-74.59,0-107.88-27.33-175.84-27.33"/>
          <path class="cls-1" d="M222.93,346.7c72.3,0,108.02-27.32,173.9-27.32v9.34c-65.88,0-101.6,27.34-173.9,27.34"/>
          <path class="cls-1" d="M584.74,308.16c-67.96,0-101.26,27.34-175.84,27.34v9.34c74.58,0,107.88-27.33,175.84-27.33"/>
          <path class="cls-1" d="M584.74,346.7c-72.3,0-108.02-27.32-173.9-27.32v9.34c65.88,0,101.6,27.34,173.9,27.34"/>
          <polygon class="cls-1" points="356.97 292.11 381.95 321.48 465.87 371.61 437.01 342.49 356.97 292.11"/>
          <polygon class="cls-1" points="350.26 368.61 381.5 340.54 466.22 293.92 437.51 321.61 350.26 368.61"/>
          <polygon class="cls-1" points="404.66 348.35 414.18 348.53 414.96 315.09 405.44 314.91 404.66 348.35"/>
          <polygon class="cls-1" points="414.16 348.25 423.65 348.94 426.85 315.63 417.37 314.92 414.16 348.25"/>
          <polygon class="cls-1" points="405.53 315.19 396.04 314.5 392.83 347.82 402.32 348.52 405.53 315.19"/>
        </g>
        <g>
          <path class="cls-1" d="M584.77,308.16c67.96,0,101.25,27.34,175.84,27.34v9.34c-74.59,0-107.88-27.33-175.84-27.33"/>
          <path class="cls-1" d="M584.77,346.7c72.3,0,108.02-27.32,173.9-27.32v9.34c-65.88,0-101.6,27.34-173.9,27.34"/>
          <path class="cls-1" d="M946.58,308.16c-67.96,0-101.26,27.34-175.84,27.34v9.34c74.58,0,107.88-27.33,175.84-27.33"/>
          <path class="cls-1" d="M946.58,346.7c-72.3,0-108.02-27.32-173.9-27.32v9.34c65.88,0,101.6,27.34,173.9,27.34"/>
          <polygon class="cls-1" points="718.8 292.11 743.78 321.48 827.71 371.61 798.85 342.49 718.8 292.11"/>
          <polygon class="cls-1" points="712.09 368.61 743.33 340.54 828.06 293.92 799.34 321.61 712.09 368.61"/>
          <polygon class="cls-1" points="766.5 348.35 776.02 348.53 776.79 315.09 767.28 314.91 766.5 348.35"/>
          <polygon class="cls-1" points="775.99 348.25 785.48 348.94 788.69 315.63 779.2 314.92 775.99 348.25"/>
          <polygon class="cls-1" points="767.37 315.19 757.88 314.5 754.67 347.82 764.16 348.52 767.37 315.19"/>
        </g>
      </g>
    </g>
  </g>
</svg>