<?xml version="1.0" encoding="UTF-8"?>
<svg id="Layer_2" data-name="Layer 2" xmlns="http://www.w3.org/2000/svg" viewBox="0 0 523.03 1042.52">
  <defs>
    <style>
      .cls-1 {
        fill: #bfbfbf;
        stroke: #000;
        stroke-linecap: round;
        stroke-width: 4.5px;
      }
    </style>
  </defs>
  <g id="Layer_2-2" data-name="Layer 2">
    <g>
      <g>
        <path class="cls-1" d="M47.63,2.25c15.25,45.22-3.18,76.11,13.55,125.74l-8.85,2.98c-16.74-49.63,1.69-80.51-13.56-125.73"/>
        <path class="cls-1" d="M11.11,14.56c16.22,48.11,50.13,63.14,64.91,106.98l-8.85,2.98C52.39,80.69,18.47,65.66,2.25,17.55"/>
        <path class="cls-1" d="M128.81,242.99c-15.25-45.22-48.63-58.64-65.36-108.27l-8.85,2.98c16.74,49.63,50.1,63.05,65.35,108.27"/>
        <path class="cls-1" d="M92.3,255.31c-16.22-48.11,1.65-80.61-13.13-124.44l-8.85,2.98c14.78,43.83-3.11,76.34,13.12,124.44"/>
        <polygon class="cls-1" points="92.92 86.31 70.69 112.31 42.02 184.17 63.14 155.67 92.92 86.31"/>
        <polygon class="cls-1" points="18.93 106.29 52.53 118.11 115.72 159.58 83.04 149.32 18.93 106.29"/>
        <polygon class="cls-1" points="50.33 136.01 52.29 142.4 84.15 132.23 82.19 125.85 50.33 136.01"/>
        <polygon class="cls-1" points="52.56 142.3 54.02 148.83 86.31 140.32 84.86 133.78 52.56 142.3"/>
        <polygon class="cls-1" points="81.94 126 80.47 119.46 48.18 127.97 49.64 134.51 81.94 126"/>
      </g>
      <g>
        <path class="cls-1" d="M284.32,632.98c10.05,53.1-11.88,84.2-.85,142.49l-9.18,1.74c-11.03-58.28,10.89-89.38.84-142.49"/>
        <path class="cls-1" d="M246.45,640.15c10.7,56.49,42.83,79.33,52.57,130.8l-9.18,1.74c-9.75-51.48-41.89-74.31-52.59-130.8"/>
        <path class="cls-1" d="M336.27,907.4c-1.99-10.51-5.34-19.04-9.53-27.37-.54-1.05-1.07-2.08-1.61-3.11-.6-1.24-1.2-2.47-1.79-3.69-1.22-2.49-2.47-4.93-3.74-7.35-2.55-4.84-5.19-9.59-7.83-14.38-10.58-19.16-21.29-38.96-26.81-68.1l-9.18,1.74c5.52,29.14,16.22,48.94,26.8,68.1,2.64,4.79,5.28,9.54,7.83,14.38,1.27,2.42,2.52,4.87,3.74,7.35.59,1.23,1.19,2.47,1.79,3.72.55,1.11,1.1,2.22,1.65,3.35,4.31,8.98,7.79,18.2,9.93,29.49"/>
        <path class="cls-1" d="M300.26,924.38c-2.78-14.68-3.59-28.13-3.25-40.11.36-11.89,1.75-22.89,3.17-33.77,2.84-21.75,5.79-42.86.92-68.6l-9.18,1.74c4.87,25.74,1.92,46.86-.92,68.6-.71,5.44-1.41,10.91-1.98,16.51-.29,2.8-.54,5.63-.74,8.5-.09,1.43-.18,2.88-.27,4.34-.03.73-.07,1.47-.1,2.2-.02.78-.03,1.57-.05,2.36-.21,12.65.73,26.84,3.67,42.35"/>
        <polygon class="cls-1" points="319.92 734.73 294.75 759.72 257.92 834.62 282.26 806.65 319.92 734.73"/>
        <polygon class="cls-1" points="243.76 743.72 275.96 762.91 334.3 820.44 302.85 803.15 243.76 743.72"/>
        <polygon class="cls-1" points="271.72 782.46 272.95 789.93 305.92 784.32 304.69 776.85 271.72 782.46"/>
        <polygon class="cls-1" points="273.22 789.86 273.94 797.41 307.15 793.72 306.44 786.17 273.22 789.86"/>
        <polygon class="cls-1" points="304.43 776.97 303.7 769.43 270.49 773.12 271.2 780.66 304.43 776.97"/>
      </g>
      <g>
        <path class="cls-1" d="M336.27,907.41c1.29,6.79,1.81,13.37,1.83,19.92.07,8.69-.66,17.56-1.61,26.93-.95,9.37-2.12,19.24-2.98,29.71-.21,2.62-.41,5.27-.58,7.95-.08,1.34-.15,2.69-.23,4.06l-.05,1.02c0,.34.19.61.4.69l1.23.47c3.33,1.24,7,2.36,11.1,3.31,8.19,1.9,18.14,3.1,30.18,3.1l-4.71,9.27c-12.71-.11-23.16-1.5-32.1-3.17-4.54-.75-8.45-1.95-12.07-3.17-.45-.16-.89-.31-1.34-.47-.22-.07-.43-.36-.44-.72l.04-1.07c.06-1.43.13-2.85.19-4.26.14-2.82.31-5.6.5-8.35.76-10.98,1.83-21.36,2.68-31.24.85-9.89,1.48-19.28,1.3-28.55-.11-6.98-.71-14.02-2.1-21.32"/>
        <path class="cls-1" d="M300.27,924.4c1.68,8.87,3.81,16.76,6.18,23.59,1.7,4.92,3.54,9.38,5.44,13.48,1.89,4.11,3.86,7.84,5.88,11.26,4.03,6.86,8.17,12.53,12.08,17.94.96,1.34,1.92,2.68,2.88,4.03l.7,1.01c.1.16.23.36.54.41.3.05.64-.1.95-.16,1.28-.32,2.56-.64,3.84-.96,5.09-1.26,10.06-2.4,14.94-3.37,9.76-1.94,19.12-3.17,28.72-3.17l-4.84,9.34c-10.25,0-20.21,1.23-30.54,3.17-5.16.97-10.4,2.12-15.76,3.38-1.35.32-2.7.64-4.04.96-.33.06-.69.22-1,.16-.33-.05-.45-.27-.56-.45l-.72-1.1c-.99-1.48-1.97-2.95-2.96-4.42-2.08-2.88-3.85-6.22-5.86-9.48-1.99-3.29-4.05-6.7-6.16-10.34-4.19-7.29-8.5-15.66-12.01-26.13-2.45-7.26-4.67-15.62-6.45-25"/>
        <path class="cls-1" d="M520.78,977.23c-27.02,0-47.17,6.83-67.93,13.67-9.14,3.42-19.15,6.83-30.65,9.4-11.47,2.56-24.49,4.27-38.85,4.27l-4.26,9.32c15.22.03,29.01-1.7,41.17-4.25,12.2-2.56,22.83-5.98,32.59-9.39,20.78-6.83,40.92-13.66,67.94-13.66"/>
        <path class="cls-1" d="M520.78,1015.77c-14.37,0-26.93-1.71-38.5-4.27-5.78-1.28-11.32-2.78-16.71-4.38-2.7-.8-5.36-1.63-8-2.47-1.32-.42-2.63-.85-3.94-1.27-1.31-.43-2.52-.85-3.76-1.28-9.85-3.42-18.81-6.83-27.98-9.39-9.19-2.56-18.54-4.27-29.84-4.27l-4.18,9.34c12.07,0,22.11,1.71,31.95,4.27,9.81,2.56,19.39,5.98,29.85,9.4,20.9,6.83,42.33,13.67,71.1,13.67"/>
        <path class="cls-1" d="M374.65,961.17c-2.47,9.79-3.7,19.59-3.7,29.38,9.61,16.71,26.3,33.42,50.07,50.12-7.51-9.7-13.6-19.41-18.27-29.11-16.16-16.8-25.52-33.59-28.1-50.39Z"/>
        <path class="cls-1" d="M316.87,1033c14.44-6.58,28.89-14.54,42.42-23.39,31.68-15.54,56.71-31.08,75.1-46.62-6.89,9.23-15.13,18.46-24.7,27.69-6.3,3.92-13.04,7.83-20.2,11.75-7.15,3.89-14.8,7.9-22.73,11.63-15.87,7.52-32.97,14.1-49.88,18.94Z"/>
        <polygon class="cls-1" points="373.98 1017.35 381.8 1017.58 396.71 984.16 390.46 983.98 373.98 1017.35"/>
        <path class="cls-1" d="M381.91,1017.3l7.63.71c5.14-11.1,10.11-22.21,14.89-33.31l-6.04-.71c-5.31,11.1-10.81,22.23-16.48,33.32Z"/>
        <path class="cls-1" d="M390.39,984.26l-5.96-.69c-3.25,5.55-6.55,11.11-9.9,16.66l-5.05,8.33-5.01,8.13,7.48.81,4.68-8.24,4.66-8.33c3.08-5.55,6.12-11.11,9.11-16.66Z"/>
      </g>
      <g>
        <path class="cls-1" d="M237.06,641.93c-.54-2.87-1.08-5.73-1.62-8.58-.52-2.86-1.03-5.71-1.55-8.55-.49-2.85-.99-5.68-1.48-8.51-.47-2.83-.94-5.65-1.41-8.47-.45-2.82-.9-5.62-1.34-8.43-.43-2.8-.85-5.59-1.28-8.38-.41-2.78-.81-5.56-1.21-8.33-.39-2.77-.77-5.52-1.15-8.27-.36-2.75-.73-5.48-1.09-8.21-.34-2.73-.69-5.44-1.03-8.15-.33-2.71-.65-5.4-.97-8.09-.31-2.68-.61-5.36-.92-8.02l-.22-1.99-.14-1.24-.1-.91-.02-.23v-.23s-.04-.46-.04-.46l-.03-.91v-.91s.02-.46.02-.46v-.23s.03-.23.03-.23l.07-.91.02-.23.03-.23.06-.45.13-.9.18-.89.09-.44.05-.22.06-.22.24-.87.12-.43.14-.43.29-.84.08-.21.08-.21.17-.41.35-.82.39-.8.2-.4.1-.2.11-.19.44-.77.23-.38.24-.37.49-.73.13-.18.13-.18.26-.35.27-.35.13-.17.14-.17.57-.66.29-.33.15-.16.15-.16.61-.62.15-.15.16-.15.32-.29.65-.57.14-.12.1-.07.19-.15.78-.6,1.55-1.2c1.04-.79,2.07-1.59,3.1-2.38,2.07-1.57,4.12-3.13,6.17-4.69,2.05-1.54,4.09-3.08,6.13-4.6,2.04-1.51,4.06-3.02,6.08-4.52,4.04-2.95,8.04-5.88,12-8.77,3.96-2.84,7.89-5.65,11.76-8.42,3.88-2.72,7.72-5.41,11.5-8.07,3.79-2.6,7.53-5.17,11.21-7.71,3.69-2.49,7.32-4.94,10.9-7.35,3.57-2.37,7.09-4.69,10.55-6.98,3.45-2.24,6.85-4.45,10.18-6.61,3.32-2.12,6.58-4.2,9.78-6.24,3.19-2,6.3-3.95,9.35-5.86,3.04-1.87,6-3.7,8.89-5.48,2.88-1.75,5.68-3.45,8.41-5.1,2.72-1.62,5.35-3.19,7.89-4.71,2.54-1.49,4.99-2.93,7.35-4.32,2.36-1.36,4.62-2.67,6.78-3.93,2.16-1.23,4.23-2.41,6.19-3.53,1.96-1.1,3.81-2.14,5.56-3.13,1.75-.97,3.39-1.88,4.91-2.72,3.04-1.65,5.65-3.07,7.76-4.21,2.1-1.11,3.72-1.97,4.82-2.55,1.09-.56,1.66-.86,1.66-.86-1.64.95-3.29,1.9-4.96,2.86-1.67.98-3.34,1.97-5.03,2.96-1.69,1.02-3.39,2.04-5.09,3.07-1.71,1.05-3.43,2.1-5.15,3.16-1.73,1.08-3.47,2.17-5.21,3.26-1.75,1.11-3.5,2.23-5.26,3.34-1.76,1.14-3.53,2.28-5.31,3.43-1.78,1.17-3.56,2.33-5.35,3.51-1.79,1.19-3.59,2.38-5.39,3.58-1.8,1.21-3.61,2.43-5.43,3.65-3.63,2.49-7.28,4.99-10.95,7.5-3.66,2.57-7.34,5.14-11.03,7.73-3.69,2.63-7.38,5.27-11.08,7.91-3.7,2.69-7.4,5.38-11.1,8.07-3.7,2.73-7.39,5.46-11.08,8.18-3.68,2.76-7.36,5.52-11.03,8.26-3.66,2.78-7.31,5.55-10.94,8.31-3.62,2.79-7.23,5.56-10.81,8.31-3.58,2.78-7.13,5.54-10.65,8.28-3.52,2.76-7.01,5.5-10.46,8.22-3.45,2.73-6.86,5.44-10.23,8.11-3.36,2.69-6.69,5.35-9.96,7.97-.82.66-1.63,1.31-2.44,1.97l-.61.49-.3.25-.3.26-.15.13-.07.07-.07.07-.28.28-.28.28-.26.3-.27.3-.06.08-.06.08-.12.16-.25.31-.12.16-.11.16-.23.33-.11.16-.05.08-.05.09-.41.69-.37.71-.32.73-.04.09-.03.09-.07.19-.14.38-.07.19-.06.19-.11.39-.06.19-.03.1-.02.1-.09.39-.09.39-.06.4-.06.4v.1s-.02.1-.02.1l-.02.2-.04.4-.02.2v.2s-.02.4-.02.4v.2s0,.1,0,.1v.1s.03.81.03.81l.08.81.09.76c.25,1.99.5,3.96.74,5.91.5,3.9.99,7.73,1.47,11.48,1,7.5,1.95,14.66,2.85,21.42.94,6.77,1.83,13.13,2.65,19.04.85,5.91,1.63,11.35,2.34,16.26.73,4.91,1.38,9.3,1.94,13.09,1.14,7.58,1.92,12.78,2.27,15.08"/>
        <path class="cls-1" d="M83.44,258.3c.42,1.2.85,2.44,1.29,3.71.46,1.28.93,2.59,1.41,3.95.49,1.35,1,2.73,1.52,4.15.53,1.42,1.07,2.87,1.63,4.35,1.13,2.95,2.32,6.04,3.56,9.25,1.26,3.19,2.57,6.51,3.93,9.94,1.38,3.41,2.8,6.93,4.26,10.55,1.48,3.6,3.01,7.3,4.57,11.09,1.58,3.77,3.19,7.63,4.83,11.57l.69,1.66.34.8.17.4.19.39.4.77.21.38.22.37.46.73.12.18.12.18.25.35.52.69.13.17.14.17.28.33.57.65.15.16.15.15.3.31.62.6.65.57.66.55.69.51.35.25.18.12.18.12.73.45.37.22.19.11.19.1.77.39.39.19.39.17.79.33.2.08.2.07.41.14.82.27.2.06.21.05.42.11.84.2.21.04.21.04.42.07.85.13.85.08.43.03h.21s.21.02.21.02h.85s.43,0,.43,0h.21c.09,0,.08,0,.13,0l.82-.06,1.65-.13c1.1-.09,2.21-.17,3.32-.26,2.22-.18,4.46-.36,6.71-.54,4.5-.37,9.05-.75,13.64-1.13,9.16-.8,18.49-1.61,27.88-2.43,9.36-.86,18.78-1.73,28.16-2.59,9.35-.9,18.66-1.79,27.82-2.67,18.26-1.84,35.93-3.61,52.15-5.24,16.17-1.7,30.91-3.25,43.37-4.56,24.86-2.72,40.64-4.44,40.64-4.44l-11.57-8.17c-3.81.49-7.66.98-11.56,1.49-3.92.48-7.88.96-11.87,1.45-4.01.47-8.06.94-12.14,1.42-4.1.46-8.22.92-12.37,1.39-8.34.88-16.78,1.77-25.28,2.67-8.53.84-17.12,1.69-25.7,2.53-8.62.79-17.24,1.59-25.81,2.38-8.6.75-17.14,1.49-25.58,2.22-8.46.7-16.83,1.38-25.03,2.06-8.22.64-16.29,1.27-24.16,1.89-7.88.59-15.54,1.16-22.95,1.71-3.71.27-7.35.53-10.92.79l-1.34.09-.7.02h-.09s-.09,0-.09,0h-.17s-.35-.03-.35-.03h-.18s-.17-.03-.17-.03l-.35-.05-.35-.05-.34-.07-.34-.07-.09-.02-.08-.02-.17-.05-.34-.1-.17-.05-.16-.06-.66-.26-.64-.3-.08-.04-.08-.04-.15-.09-.31-.18-.15-.09-.15-.1-.29-.2-.15-.1-.07-.05-.07-.05-.28-.22-.28-.22-.07-.06-.06-.06-.13-.12-.26-.24-.13-.12-.12-.13-.48-.53-.44-.56-.05-.07-.05-.07-.1-.15-.2-.3-.1-.15-.05-.08-.04-.08-.17-.31-.17-.31-.04-.08-.04-.08-.07-.16-.29-.64-.24-.58-.48-1.17c-.64-1.55-1.28-3.08-1.91-4.59-1.25-3.02-2.47-5.97-3.65-8.83-2.36-5.73-4.57-11.11-6.63-16.11-4.07-10.02-7.51-18.48-10.15-24.97-1.3-3.26-2.41-6.03-3.3-8.25-.88-2.22-1.54-3.9-1.97-4.99"/>
        <path class="cls-1" d="M284.31,632.99c-1.17-6.62-2.35-13.28-3.53-19.96-1.13-6.68-2.27-13.38-3.4-20.08-1.09-6.7-2.19-13.39-3.28-20.06-1.06-6.67-2.12-13.31-3.17-19.91-1.03-6.6-2.06-13.15-3.08-19.63l-.38-2.43-.05-.3s0-.03,0,0l.03.12.05.24.09.48.07.48.07.48.05.48.07.97.02.49v.49s0,.49,0,.49l-.02.49-.02.49-.03.49-.1.97-.07.48-.08.48-.08.48-.1.48-.23.94-.13.47-.14.46-.15.46-.16.46-.17.45-.18.45-.4.89-.21.44-.23.43-.23.43-.24.42-.51.83-.27.41-.28.4-.28.4-.3.39-.62.76-.65.72-.33.35-.35.34-.09.08s-.03.02,0,0l.11-.1.23-.2,1.82-1.57c9.66-8.4,19.04-16.55,28-24.35,4.46-3.93,8.82-7.77,13.07-11.51,4.22-3.77,8.32-7.44,12.28-10.99,1.97-1.79,3.91-3.55,5.81-5.28,1.89-1.74,3.75-3.45,5.57-5.13,1.81-1.69,3.58-3.34,5.32-4.97,1.72-1.64,3.4-3.23,5.05-4.8,1.63-1.58,3.21-3.12,4.76-4.62,1.53-1.52,3.01-3,4.46-4.44,1.42-1.46,2.81-2.87,4.15-4.25.66-.69,1.31-1.38,1.95-2.05.63-.68,1.25-1.35,1.87-2,.6-.66,1.2-1.31,1.78-1.95.57-.64,1.14-1.28,1.69-1.9.54-.63,1.08-1.24,1.6-1.85.51-.61,1.02-1.21,1.51-1.79.48-.59.95-1.17,1.42-1.74.45-.57.89-1.13,1.32-1.68.42-.55.82-1.09,1.23-1.63.38-.53.76-1.05,1.13-1.57l1.55-9.6c-1.3,1.25-2.7,2.6-4.21,4.04-1.52,1.44-3.15,2.97-4.86,4.59-3.47,3.21-7.31,6.77-11.48,10.63-4.19,3.82-8.7,7.94-13.46,12.28-4.78,4.32-9.82,8.86-15.04,13.57-10.48,9.37-21.72,19.4-33.15,29.62-5.73,5.09-11.52,10.22-17.29,15.34-2.89,2.56-5.77,5.11-8.64,7.65-1.44,1.27-2.87,2.54-4.3,3.8l-1.07.95-.54.47-.07.06s-.04.03,0,0l.12-.11.23-.23.44-.49.41-.51.19-.26.19-.27.18-.27.17-.28.17-.28.16-.28.07-.15.08-.14.14-.29.26-.59.23-.6.1-.3.09-.31.09-.31.07-.31.07-.31.06-.31.02-.16.03-.16.05-.32.07-.63.03-.64v-.32s0-.32,0-.32v-.32s-.03-.32-.03-.32v-.08s-.01-.08-.01-.08v-.16s-.05-.31-.05-.31l-.1-.62-.07-.31s-.01-.05-.01-.05v.09s.04.17.04.17l.11.69c.61,3.67,1.21,7.31,1.8,10.89,1.18,7.17,2.32,14.14,3.42,20.82,2.17,13.36,4.16,25.57,5.84,35.91,3.33,20.67,5.45,33.87,5.45,33.87"/>
        <path class="cls-1" d="M128.82,242.99s2.06,5.46,5.7,15.13c1.81,4.85,4.01,10.77,6.54,17.58,2.51,6.83,5.35,14.56,8.46,23.05,1.54,4.25,3.16,8.69,4.83,13.29l.31.87.16.43c.03.09-.01-.04-.04-.13l-.09-.28-.2-.55-.21-.54-.23-.54-.24-.54-.25-.53-.54-1.05-.29-.52-.31-.51-.31-.51-.33-.5-.34-.49-.35-.48-.36-.48-.38-.46-.78-.9-.41-.44-.42-.42-.42-.42-.44-.41-.91-.78-.47-.38-.48-.36-.49-.35-.5-.34-.51-.33-.51-.32-.52-.31-.53-.29-1.08-.55-.55-.26-.56-.24-.57-.24-.57-.22-1.17-.39-.59-.18-.6-.16-.6-.15-.61-.13-.61-.11-.61-.1-.61-.09-.62-.07-.62-.05-.62-.04-.62-.02h-.48s.49-.01.49-.01l.98-.02c10.48-.17,21.6-.35,33.18-.54,5.8-.07,11.71-.14,17.72-.2,6.01-.05,12.12-.1,18.31-.15,6.19-.02,12.45-.05,18.77-.08,6.32,0,12.7,0,19.11,0,6.41.03,12.86.07,19.33.1,6.47.07,12.95.13,19.43.2,6.48.11,12.95.21,19.4.32,6.44.15,12.87.3,19.25.44,6.37.19,12.7.39,18.97.58,6.26.25,12.46.49,18.58.73,3.05.14,6.09.28,9.1.42,3.01.16,5.99.31,8.96.46,2.96.17,5.89.34,8.8.51,2.9.19,5.77.37,8.62.55,2.84.2,5.65.4,8.43.6,2.77.22,5.51.43,8.22.64,2.7.23,5.36.46,8,.69,2.62.25,5.21.5,7.76.74,2.54.27,5.04.53,7.51.79,2.45.29,4.86.57,7.24.84,2.36.3,4.67.6,6.96.9,2.26.32,4.48.64,6.66.95,1.08.17,2.15.33,3.21.5,1.05.17,2.1.34,3.13.51,1.03.18,2.04.35,3.05.53,1,.18,1.99.36,2.96.54.97.19,1.93.37,2.88.56.94.19,1.87.38,2.79.57.91.2,1.81.39,2.7.59.88.2,1.75.4,2.61.6.85.21,1.68.41,2.51.62.81.21,1.62.42,2.42.63.78.22,1.55.43,2.32.65.75.22,1.49.45,2.22.67.71.23,1.42.46,2.12.68.68.23,1.35.47,2.01.7l.97.35.24.09.06.02s0,.03-.01.05l-.05.11-.21.45c-.3.6-.6,1.2-.89,1.79l-30.22,32.42,1.36-1.88,1.31-1.86,1.26-1.85,1.21-1.84,1.16-1.83,1.11-1.82,1.06-1.81,1.01-1.8.97-1.79.92-1.78.87-1.77c.27-.58.55-1.17.82-1.76.26-.58.52-1.17.78-1.75.24-.58.49-1.16.73-1.74.23-.57.46-1.15.69-1.73.21-.57.43-1.14.64-1.72.01-.02-.04-.02-.05-.03l-.07-.02-.13-.04-.27-.08-.54-.16-1.09-.31c-.74-.2-1.48-.41-2.23-.61-.76-.2-1.52-.4-2.29-.6-.78-.19-1.56-.39-2.34-.58-.79-.19-1.59-.38-2.4-.57-.81-.18-1.63-.37-2.45-.55-.83-.18-1.66-.36-2.5-.54-.85-.17-1.7-.35-2.56-.52-.86-.17-1.73-.34-2.61-.51-.88-.16-1.77-.33-2.66-.5-1.8-.31-3.63-.63-5.47-.95-1.87-.3-3.76-.6-5.67-.9-1.93-.28-3.88-.56-5.86-.85-1.99-.26-4.01-.53-6.04-.79-2.05-.25-4.13-.49-6.22-.74-2.11-.23-4.24-.46-6.39-.7-2.17-.21-4.35-.43-6.56-.65-2.22-.2-4.46-.4-6.72-.6-2.27-.18-4.56-.37-6.87-.56-2.32-.17-4.66-.34-7.02-.52-2.37-.16-4.76-.31-7.17-.47-2.41-.14-4.85-.29-7.3-.43-2.46-.13-4.94-.26-7.43-.39-2.5-.12-5.02-.24-7.56-.36-2.54-.11-5.1-.21-7.68-.32-5.16-.18-10.39-.35-15.69-.53-5.3-.13-10.67-.27-16.09-.4-5.43-.09-10.92-.18-16.45-.28-5.54-.06-11.13-.11-16.76-.17-5.63-.02-11.31-.04-17.03-.07-5.71,0-11.46.02-17.24.03-5.78.04-11.58.07-17.41.11-5.83.06-11.67.12-17.53.18-11.71.17-23.48.35-35.23.52-11.75.23-23.49.46-35.15.68-2.91.06-5.82.12-8.73.19l-4.35.09h-.54s-.14.02-.14.02c-.09,0,.01,0,.08,0h.42s.42.04.42.04l.42.04.42.05.42.06.41.07.41.08.82.2.41.12.4.13.4.14.39.15.77.33.38.18.37.19.37.2.36.21.35.22.35.23.67.49.33.26.31.27.31.27.3.28.58.59.28.31.27.32.27.32.25.33.24.34.24.34.44.71.21.36.19.37.19.37.18.37.31.76.14.38.12.39c-.98-2.69-1.95-5.38-2.92-8.05-7.78-21.52-15.36-42.51-22.58-62.49"/>
        <polygon class="cls-1" points="488.47 406.99 445.91 397.87 299.49 431.7 348.99 435.84 488.47 406.99"/>
        <polygon class="cls-1" points="484.04 297.33 494.49 308.4 497.1 311.16 497.19 311.25 497.23 311.29 497.25 311.31 497.26 311.32 497.24 311.35 496.96 311.69 496.4 312.39 495.27 313.77 493.02 316.55 484.02 327.64 448.03 372.03 281.86 551.27 346.66 464.17 433.34 373.72 476.68 328.49 487.51 317.18 490.22 314.35 490.56 314 490.64 313.91 490.62 313.86 490.58 313.77 490.43 313.39 490.13 312.62 488.91 309.56 484.04 297.33"/>
        <polygon class="cls-1" points="407.21 389.35 390.2 400.52 386.48 445.85 403.48 434.69 407.21 389.35"/>
        <polygon class="cls-1" points="390.25 400.85 373.33 411.28 365.29 459.37 382.19 448.94 390.25 400.85"/>
        <polygon class="cls-1" points="403.36 434.42 420.26 424 428.31 375.91 411.39 386.33 403.36 434.42"/>
        <path class="cls-1" d="M479.44,367.05l8.74-33.81,4.37-16.9.55-2.11.27-1.06.07-.26.02-.07v-.02s0,0,0-.01h-.05s-.19-.06-.19-.06l-.75-.18-6.04-1.44-12.08-2.87-225.27-19.76,88.35,17.88,116.76,12.43,14.6,1.55,3.65.39.46.05h.11s0,.07,0,.07v.11s.07.43.07.43l.12.86.48,3.44,1.92,13.78,3.83,27.56Z"/>
        <polygon class="cls-1" points="498.69 254.09 457.82 290.33 319.73 361.1 355.57 326.03 498.69 254.09"/>
        <polygon class="cls-1" points="401.17 290.51 380.64 293.41 409.7 324.85 430.22 321.95 401.17 290.51"/>
        <polygon class="cls-1" points="380.99 293.65 360.06 296.06 383.81 328.2 404.72 325.79 380.99 293.65"/>
        <polygon class="cls-1" points="429.76 321.73 450.68 319.32 426.92 287.19 406 289.59 429.76 321.73"/>
      </g>
    </g>
  </g>
</svg>