<?xml version="1.0" encoding="UTF-8"?>
<svg id="Layer_2" data-name="Layer 2" xmlns="http://www.w3.org/2000/svg" viewBox="0 0 584.9 1016.71">
  <defs>
    <style>
      .cls-1 {
        fill: #bfbfbf;
        stroke: #000;
        stroke-linecap: round;
        stroke-width: 4.5px;
      }
    </style>
  </defs>
  <g id="Layer_2-2" data-name="Layer 2">
    <g>
      <g>
        <path class="cls-1" d="M268.64,281.79c1.94-12.2,6.89-23.18,13.45-31.92,6.57-8.77,14.67-15.38,23.19-19.93,8.52-4.58,17.55-7.02,26.3-7.78,8.76-.76,17.28.19,25.13,2.42,1.95.62,3.88,1.26,5.77,1.91,1.87.78,3.7,1.61,5.51,2.43.45.21.9.4,1.34.64l1.31.73c.86.49,1.73.98,2.59,1.47,1.74.93,3.35,2.11,4.97,3.24,6.43,4.58,12.03,10.17,16.64,16.56,4.61,6.39,8.25,13.59,10.68,21.5.29.99.65,1.97.89,2.98.23,1.02.46,2.05.69,3.08.55,2.04.73,4.19,1.07,6.32.2,1.06.23,2.16.3,3.25.07,1.09.14,2.2.21,3.31.02,1.11-.04,2.24-.04,3.37,0,.57-.02,1.13-.03,1.7v.86s-.1.86-.1.86l-9.32-.65.08-.72v-.72c.01-.48.02-.95.02-1.42,0-.94.07-1.88.05-2.81-.06-.93-.11-1.85-.17-2.76-.05-.92-.06-1.83-.23-2.72-.28-1.78-.38-3.59-.84-5.3-.18-.87-.36-1.73-.53-2.59-.18-.86-.48-1.68-.71-2.52-1.92-6.68-4.84-12.85-8.61-18.4-3.77-5.55-8.41-10.49-13.82-14.63-1.36-1.02-2.72-2.1-4.2-2.94-.74-.45-1.47-.9-2.2-1.35l-1.12-.68c-.38-.22-.77-.39-1.15-.59-1.55-.76-3.12-1.53-4.73-2.27-1.63-.61-3.29-1.22-4.98-1.82-6.79-2.15-14.23-3.21-21.96-2.74-7.71.48-15.75,2.45-23.36,6.38-7.61,3.89-14.89,9.67-20.78,17.4-5.89,7.7-10.34,17.44-12.07,28.3"/>
        <path class="cls-1" d="M306.7,287.8c1.17-7.09,3.42-13.49,6.48-19.29,3.07-5.8,6.96-10.98,11.56-15.48,4.6-4.49,9.9-8.29,15.82-11.2,5.91-2.87,12.47-4.96,19.37-5.64,6.89-.73,14.19-.32,21.48,1.63,1.79.54,3.64,1.06,5.44,1.74,1.77.73,3.56,1.51,5.36,2.34,1.73.92,3.45,1.93,5.19,2.97,1.72,1.07,3.31,2.33,4.98,3.58,6.46,5.17,12.2,12.01,16.27,20.36,4.07,8.32,6.43,18.21,6.05,28.66l-9.33-.33c.32-9.11-1.79-17.71-5.42-24.92-3.63-7.23-8.74-13.1-14.46-17.45-1.48-1.04-2.88-2.11-4.4-2.99-1.54-.86-3.05-1.68-4.56-2.44-1.59-.66-3.15-1.29-4.69-1.88-1.57-.54-3.19-.92-4.74-1.34-6.34-1.45-12.61-1.54-18.46-.67-5.87.82-11.32,2.88-16.15,5.53-4.84,2.67-9.07,6.05-12.68,9.9-3.61,3.86-6.59,8.2-8.92,12.92-2.32,4.73-4.01,9.8-4.96,15.46"/>
        <path class="cls-1" d="M268.63,281.83c-1.91,12.2-.57,24.18,2.98,34.51,3.55,10.37,9.23,19.15,15.94,26.09,6.7,6.98,14.54,12.08,22.63,15.5,8.11,3.42,16.5,5.13,24.66,5.42,2.05.01,4.08,0,6.07-.04,2.02-.17,4.02-.39,5.99-.62.98-.08,1.97-.28,2.95-.49.97-.2,1.94-.4,2.92-.6,1.94-.35,3.84-.98,5.72-1.56,7.52-2.38,14.58-5.97,20.93-10.63,6.35-4.67,12.03-10.4,16.77-17.18.58-.86,1.22-1.67,1.76-2.57.53-.9,1.06-1.81,1.6-2.72,1.15-1.77,1.98-3.76,2.96-5.69.52-.95.88-1.98,1.29-3.01.4-1.02.81-2.05,1.22-3.08.36-1.05.65-2.14.99-3.22.17-.54.33-1.08.5-1.63l.25-.82.18-.84-9.06-2.25-.15.71-.22.68c-.14.46-.28.91-.42,1.36-.28.9-.52,1.81-.81,2.69-.34.87-.68,1.73-1.01,2.58-.33.86-.62,1.73-1.05,2.52-.82,1.61-1.47,3.3-2.43,4.78-.44.77-.87,1.54-1.31,2.3-.44.76-.98,1.44-1.45,2.18-3.88,5.76-8.56,10.73-13.86,14.86-5.3,4.12-11.23,7.4-17.65,9.67-1.61.55-3.24,1.17-4.9,1.51-.84.2-1.68.41-2.51.61-.85.21-1.7.41-2.55.51-1.7.24-3.44.5-5.2.71-1.74.08-3.51.15-5.3.2-7.13-.04-14.53-1.32-21.74-4.15-7.19-2.82-14.23-7.18-20.27-13.26-6.05-6.05-11.19-13.78-14.42-22.95-3.24-9.14-4.48-19.77-2.78-30.64"/>
        <path class="cls-1" d="M306.7,287.82c-1.06,7.1-.9,13.89.23,20.35,1.14,6.46,3.25,12.59,6.23,18.29,2.99,5.69,6.87,10.94,11.61,15.52,4.74,4.55,10.34,8.56,16.7,11.32,6.33,2.81,13.4,4.67,20.94,5.06,1.87.03,3.79.11,5.72.01,1.91-.15,3.85-.35,5.82-.58,1.93-.35,3.88-.77,5.85-1.23,1.96-.49,3.87-1.2,5.84-1.87,7.74-2.93,15.31-7.67,21.75-14.37,6.43-6.67,11.72-15.35,14.58-25.41l-8.98-2.55c-2.49,8.76-7.15,16.31-12.82,22.04-5.68,5.76-12.35,9.78-19.13,12.16-1.73.53-3.39,1.11-5.1,1.49-1.73.34-3.42.66-5.09.92-1.71.14-3.4.25-5.04.34-1.66.03-3.32-.11-4.92-.18-6.47-.57-12.47-2.41-17.77-5.04-5.33-2.59-9.89-6.23-13.67-10.23-3.78-4.03-6.78-8.54-9.02-13.32-2.25-4.78-3.75-9.83-4.51-15.03-.76-5.21-.8-10.56.04-16.24"/>
        <path class="cls-1" d="M431.13,233.69c.07,1.08.13,2.16.18,3.22.02,1.08,0,2.17,0,3.24-.04,2.14-.13,4.24-.27,6.29-.11,2.03-.44,4.12-.74,6.11-.32,2-.69,3.96-1.1,5.86-.96,3.87-2.09,7.53-3.45,10.99-.73,1.75-1.49,3.44-2.29,5.07-.8,1.63-1.59,3.19-2.56,4.73-2.14,9.34-6.16,17.51-11.35,23.9-5.15,6.42-11.34,11.14-17.68,13.97-6.34,2.85-12.82,3.83-18.6,3.25-5.79-.57-10.88-2.69-14.62-5.79,3.18,3.87,7.61,7.45,12.7,9.74,2.64,1.29,5.31,2.1,8.3,2.85,1.5.38,2.93.56,4.49.77,1.52.18,3.19.38,4.72.36,1.7-.41,3.52-.84,5.28-1.43,1.71-.63,3.48-1.33,5.29-2.12,1.71-.85,3.42-1.8,5.19-2.83.91-.5,1.69-1.09,2.53-1.68.83-.59,1.67-1.2,2.51-1.84,6.59-5.15,12.54-12.09,17.11-20.6,4.61-8.51,7.57-18.64,8.46-29.59.88-10.95-.37-22.74-4.11-34.48Z"/>
        <path class="cls-1" d="M368.74,278.34c2.49-.92,4.98-1.41,7.76-1.74,1.38-.15,2.68-.16,4.11-.15.71,0,1.43.03,2.16.07.72.05,1.39.14,2.11.24,1.41.2,2.89.45,4.38.78,1.4.37,2.85.82,4.33,1.33.72.26,1.52.52,2.21.84.7.31,1.41.64,2.13.99,1.41.71,2.95,1.46,4.31,2.34,1.24,1.34,2.55,2.75,3.78,4.27,1.13,1.53,2.26,3.16,3.39,4.88.98,1.72,1.94,3.53,2.89,5.43.89,1.9,1.59,3.87,2.36,5.93,2.78,8.2,3.96,17.68,2.9,27.64-1.04,9.96-4.32,20.34-9.95,30.15-5.62,9.8-13.6,19.04-23.76,26.66,6.2-7.12,11.05-14.6,14.33-22.38,3.39-7.63,5.18-15.55,5.81-22.92,3.15-9.23,4.05-18.5,3-26.86-1.04-8.37-3.97-15.8-7.98-21.69-4.01-5.91-9.14-10.24-14.48-12.85-5.34-2.62-10.89-3.54-15.79-2.94Z"/>
        <path class="cls-1" d="M395.15,302.39l-.83,3.54c-.35,1.16-.79,2.29-1.17,3.43,10.47,3.85,20.89,7.85,31.25,11.98.7-2.01,1.38-4.03,2.02-6.06.59-2.04,1.01-4.12,1.47-6.2-10.89-2.38-21.81-4.61-32.75-6.7Z"/>
        <path class="cls-1" d="M393.42,309.45c-.41,1.14-1.11,2.16-1.66,3.22l-.87,1.58-1.03,1.48c9.35,6.03,18.41,12.61,27.12,19.71,1.16-1.76,2.29-3.56,3.41-5.37.58-.89,1.05-1.84,1.54-2.79l1.43-2.86c-4.85-2.78-9.77-5.41-14.74-7.9-4.98-2.49-10.08-4.86-15.2-7.07Z"/>
        <path class="cls-1" d="M427.6,309.16c.59-2.04.9-4.13,1.25-6.23l.49-3.15c.17-1.05.18-2.13.27-3.19-11.09-1.69-22.21-2.76-33.3-3.22l-.37,3.65c-.19,1.2-.49,2.4-.71,3.58,5.46,1.13,10.92,2.41,16.33,3.84,5.37,1.42,10.72,3,16.04,4.72Z"/>
      </g>
      <g>
        <g>
          <path class="cls-1" d="M341.9,36.06c-41.18,41.31-80.72,42.25-125.91,87.59l-6.61-6.59c45.2-45.34,84.72-46.29,125.91-87.6"/>
          <path class="cls-1" d="M314.61,8.85c-43.81,43.95-46.1,84.96-86.02,125l-6.61-6.59c39.92-40.05,42.2-81.06,86.01-125.01"/>
          <path class="cls-1" d="M130.3,248.33c8.15-8.17,13.73-16.2,18.66-24.77,1.23-2.14,2.41-4.31,3.57-6.51.58-1.12,1.15-2.23,1.73-3.33.72-1.29,1.44-2.56,2.16-3.84,2.85-5.13,5.57-10.28,8.32-15.46,11-20.72,22.5-41.94,45.1-64.61l-6.61-6.59c-22.6,22.67-34.1,43.89-45.11,64.6-2.75,5.18-5.47,10.33-8.32,15.46-.72,1.27-1.44,2.55-2.16,3.84-.63,1.16-1.27,2.33-1.91,3.51-1.28,2.33-2.59,4.62-3.94,6.88-5.43,9.07-11.55,17.63-20.31,26.42"/>
          <path class="cls-1" d="M93.97,230.19c11.38-11.42,22.84-20.49,33.67-27.73,5.44-3.64,10.66-6.76,15.91-9.77,5.24-2.99,10.45-5.8,15.63-8.58,20.72-11.11,40.95-21.72,60.9-41.75l-6.61-6.59c-19.96,20.02-40.19,30.64-60.91,41.74-5.18,2.78-10.39,5.58-15.63,8.57-1.3.75-2.62,1.51-3.94,2.28-1.32.78-2.61,1.54-4.02,2.43-2.76,1.73-5.57,3.56-8.41,5.51-11.35,7.76-23.38,17.4-35.41,29.47"/>
          <polygon class="cls-1" points="272.05 128.88 236.11 123.32 149.75 138.95 187.86 141.96 272.05 128.88"/>
          <polygon class="cls-1" points="221.93 70.79 222.88 109.59 204.56 194.01 202.35 157.01 221.93 70.79"/>
          <polygon class="cls-1" points="203.32 118.16 197.42 123.82 220.63 147.9 226.53 142.24 203.32 118.16"/>
          <polygon class="cls-1" points="197.63 124.01 191.39 129.28 213.04 154.75 219.29 149.49 197.63 124.01"/>
          <polygon class="cls-1" points="226.27 142.1 232.52 136.82 210.86 111.35 204.61 116.62 226.27 142.1"/>
        </g>
        <g>
          <path class="cls-1" d="M130.29,248.34c-8.15,8.17-16.96,14.59-26.72,20.75-9.74,6.14-20.4,11.99-31.72,18.51-5.66,3.25-11.47,6.67-17.38,10.33-2.95,1.83-5.93,3.72-8.92,5.68-.74.49-1.5.98-2.24,1.49-.73.52-1.27,1.2-1.6,1.92-.32.71-.42,1.46-.29,2.09.12.65.49,1.11.77,1.65,4.79,8.4,12.09,18.1,23.07,29.04l-10.87,1.95c-5.66-5.82-10.39-11.29-14.5-16.41-2.06-2.56-3.95-5.03-5.74-7.42-.88-1.19-1.74-2.36-2.59-3.52-.42-.58-.83-1.15-1.24-1.72-.41-.57-.82-1.13-1.13-1.69-.31-.58-.72-1.06-.87-1.75-.15-.68-.07-1.47.26-2.23.33-.76.89-1.48,1.65-2.04.77-.54,1.56-1.06,2.33-1.59,3.12-2.09,6.22-4.1,9.29-6.05,6.15-3.9,12.2-7.56,18.09-11.05,11.79-6.99,22.91-13.3,33.14-19.94,10.26-6.66,19.6-13.61,28.36-22.4"/>
          <path class="cls-1" d="M93.96,230.21c-11.39,11.42-19.62,22.1-25.58,31.76-6.1,9.65-9.86,18.33-13.03,26.33-1.49,3.87-2.98,7.71-4.48,11.6-.38.93-.75,1.87-1.13,2.8l-.58,1.39c-.18.47-.43.9-.55,1.43-.23,1.08.25,2.6,1.47,3.68.61.54,1.36.95,2.04,1.42.69.46,1.38.92,2.07,1.37,10.99,7.35,20.79,14.7,29.42,23.31l-11.28,1.94c-9.23-9.2-19.55-17.08-31.04-24.92-.72-.49-1.45-.98-2.17-1.47-.71-.5-1.5-.94-2.13-1.52-1.26-1.16-1.74-2.78-1.46-3.93.15-.57.42-1.02.64-1.52l.67-1.48c.44-1,.87-1.99,1.31-2.98,1.76-3.99,3.22-8.08,5.5-12.28,4.19-8.39,8.17-17.51,14.39-27.78,6.15-10.26,15.1-21.48,27.1-33.56"/>
          <path class="cls-1" d="M194.99,430.55c-10.33-10.3-20.54-18.07-30.76-24.65-2.56-1.64-5.11-3.21-7.67-4.73l-.96-.57-.48-.28-.42-.22-1.68-.87c-1.14-.58-2.27-1.15-3.4-1.73-4.76-2.37-9.45-4.7-14.18-7.05-9.76-4.91-20.18-10.48-31.06-17.7-10.85-7.2-22.18-16.09-33.16-27.04l-10.65,2.33c11.38,11.66,23.38,21.12,34.74,28.85,11.4,7.75,22.3,13.8,32.53,19.18,4.96,2.59,9.89,5.15,14.88,7.76,1.19.63,2.38,1.27,3.58,1.9l1.77.96c.57.3,1.26.73,1.88,1.09,2.56,1.52,5.11,3.08,7.67,4.73,10.22,6.58,20.44,14.35,30.76,24.65"/>
          <path class="cls-1" d="M167.78,457.84c-10.98-10.96-19.37-21.73-26.4-32.36-3.51-5.31-6.73-10.63-9.56-15.72-2.85-5.1-5.38-10.04-7.75-14.82-4.75-9.56-8.83-18.45-13.75-26.98-4.94-8.55-10.7-16.7-19.33-25.31l-10.78,2.44c9.23,9.2,15.51,17.88,20.95,26.93,5.42,9.02,9.96,18.38,15.18,28.41,2.61,5.01,5.38,10.19,8.47,15.53,1.55,2.67,3.17,5.39,4.9,8.15.83,1.32,1.66,2.66,2.51,4.01.84,1.32,1.7,2.65,2.57,3.98,7.03,10.63,15.42,21.41,26.4,32.37"/>
          <path class="cls-1" d="M99.82,312.96c-9.84,4.02-18.74,8.97-26.69,14.87-1.56,4.35-2.78,9.03-3.66,14.05-.44,2.51-.8,5.11-1.07,7.79-.23,2.67-.37,5.42-.49,8.27-.5,11.42.47,24.15,2.76,38.24,2.15-11.56,5.38-22.05,9.69-31.46,1.3-22.43,7.78-39.68,19.45-51.76Z"/>
          <path class="cls-1" d="M1.21,312.1c3.71,1.75,7.47,3.44,11.31,5.08,3.87,1.66,7.78,3.26,11.75,4.79,7.94,3.06,16.09,5.91,24.46,8.45,36.83,14.79,68.59,24.51,95.26,29.16-12.76.3-26.55-.41-41.36-2.15-8-2.45-16.33-5.22-24.98-8.32-8.61-3.11-17.85-6.51-26.5-10.37-4.37-1.92-8.73-3.92-13.05-6.01-4.29-2.08-8.54-4.24-12.75-6.49-8.33-4.45-16.47-9.22-24.13-14.14Z"/>
          <polygon class="cls-1" points="54.07 346.2 59.71 352.33 98.01 343.62 93.38 338.74 54.07 346.2"/>
          <path class="cls-1" d="M60.01,352.24l5.13,6.27,9.58-2.07,9.64-2.15c6.41-1.45,12.78-2.94,19.12-4.46l-4.04-5.04c-6.54,1.32-13.12,2.61-19.73,3.86l-9.94,1.85-9.75,1.74Z"/>
          <path class="cls-1" d="M93.1,338.86l-3.99-4.96c-7,.86-14.03,1.69-21.1,2.49l-10.63,1.17-9.89,1,4.96,6.18,9.82-1.32,10.33-1.47c6.87-1,13.7-2.03,20.5-3.09Z"/>
        </g>
        <g>
          <path class="cls-1" d="M195,430.57c10.33,10.3,18.13,20.49,24.73,30.7l.62.96.3.48.23.41c.31.55.62,1.1.93,1.65.61,1.12,1.22,2.23,1.83,3.33,1.2,2.24,2.39,4.51,3.58,6.83,2.45,4.82,4.86,9.57,7.29,14.36,5.07,9.88,10.8,20.43,18.16,31.38,7.33,10.93,16.32,22.31,27.29,33.25l-1.9,10.79c-11.69-11.21-21.3-23.11-29.15-34.59-7.88-11.48-14.1-22.5-19.64-32.85-2.67-5.02-5.31-10-8-15.06-1.31-2.43-2.61-4.83-3.94-7.19-.66-1.16-1.33-2.33-2.01-3.51-.68-1.17-1.32-2.28-2.2-3.6-6.6-10.21-14.41-20.4-24.73-30.7"/>
          <path class="cls-1" d="M167.79,457.85c10.99,10.96,21.78,19.31,32.44,26.32,10.74,7.1,20.84,12.34,30.27,16.92,9.44,4.59,18.21,8.51,26.65,13.31,8.46,4.82,16.56,10.49,25.2,19.1l-2.04,11.15c-9.23-9.2-17.86-15.4-26.81-20.71-8.93-5.29-18.17-9.67-28.08-14.73-9.9-5.05-20.48-10.77-31.75-18.39-10.72-7.07-21.47-15.38-32.47-26.35"/>
          <path class="cls-1" d="M379.78,477.96c-8.61,7.69-15.28,15.95-21.65,25.07-6.34,9.11-12.35,19.05-19.05,29.62-6.69,10.56-14.07,21.74-22.83,33.01-2.19,2.81-4.46,5.63-6.82,8.44-.57.72-1.21,1.41-2.01,1.75-.78.36-1.63.44-2.38.25-.76-.18-1.29-.71-1.89-1.13-.59-.45-1.19-.91-1.79-1.37-4.82-3.75-9.98-8.3-15.46-13.76l-1.52,10.95c5.82,5.59,11.28,10.29,16.37,14.41.64.51,1.27,1.02,1.89,1.52.64.48,1.19,1.07,2,1.29.78.25,1.69.21,2.51-.11.84-.31,1.52-.97,2.12-1.67,2.5-2.74,4.91-5.4,7.24-8.28,9.31-11.76,17.21-23.39,24.39-34.39,7.2-11.01,13.69-21.39,20.56-30.97,6.89-9.6,14.13-18.35,23.38-26.62"/>
          <path class="cls-1" d="M400.67,510.98c-12.02,10.74-23.35,18.57-33.62,24.32-10.3,5.77-19.59,9.49-28.16,12.57-8.59,3.1-16.48,5.56-24.35,9.16-.99.45-1.97.92-2.96,1.41-.49.25-.99.5-1.48.75-.51.24-.95.57-1.55.72-1.17.31-2.76-.22-3.74-1.48-.96-1.26-1.92-2.52-2.89-3.75-3.88-4.92-7.89-9.53-12.21-13.84l-1.54,11.66c4.62,4.61,8.91,9.49,13.06,14.68,1.04,1.33,2.07,2.64,3.09,3.94,1.05,1.33,2.74,1.87,3.99,1.52.63-.16,1.11-.54,1.65-.8.53-.28,1.06-.56,1.58-.84,1.05-.55,2.11-1.08,3.16-1.59,4.2-2.04,8.39-3.77,12.67-5.45,4.28-1.69,8.66-3.24,13.17-5.17,9.04-3.69,18.89-7.54,29.74-13.84,10.83-6.24,22.76-14.61,35.46-25.96"/>
          <path class="cls-1" d="M271.56,484.25c-.15,13.68.64,28.3,2.38,43.87,2.58,8.47,5.49,17.28,8.74,26.42,1.63,4.57,3.34,9.23,5.13,13.97.44,1.23.92,2.26,1.39,3.36l1.43,3.25c.96,2.16,1.94,4.31,2.95,6.44,2,4.26,4.09,8.48,6.23,12.59,1.07,2.06,2.16,4.1,3.27,6.12,1.1,2.04,2.95,3.35,4.4,3.82.74.25,1.29.27,1.91.37l1.83.27c1.23.19,2.48.4,3.74.63,2.56.41,5.2.87,7.92,1.4-3.83-2.85-7.44-5.45-10.74-7.97l-2.45-1.82c-.81-.61-1.54-1.06-2.58-2.03-1.01-.94-2.12-2.3-2.97-4.05-.44-.87-.77-1.86-1.12-2.82l-1.03-2.92-1.45-3.11c-.47-1.12-.93-2.39-1.39-3.56l-2.69-7.13c-1.75-4.71-3.43-9.35-5.02-13.9-3.18-9.1-6.04-17.89-8.57-26.34-5.07-16.92-8.84-32.54-11.31-46.87Z"/>
          <path class="cls-1" d="M238.27,559.09c5.58-1.02,10.91-2.41,15.95-4.05,5.04-1.67,9.77-3.54,14.19-5.53,10.73-.28,20.18-1.82,28.37-4.63,2.05-.7,4.01-1.48,5.9-2.34.95-.43,1.87-.88,2.77-1.35.92-.48,2.36-1.6,3.43-3.48.55-.92.95-2.04,1.4-3.07l1.31-3.12,2.52-6.16c1.64-4.07,3.19-8.06,4.66-11.98-1.87,7.86-4.02,15.96-6.43,24.31l-1.86,6.3c-.66,2.08-1.23,4.34-2.07,6.24-.82,1.9-1.81,3.46-2.66,4.64l-1.14,1.56-1.05,1.39c-4.12,1.42-8.57,2.51-13.36,3.27-2.39.38-4.86.68-7.42.9l-1.93.15-1.94-.04-3.97-.07c-10.76-.17-23.16-.43-36.67-2.95Z"/>
          <polygon class="cls-1" points="281.15 572.07 287.2 577.91 289.79 558.5 292.5 537.59 287.69 532.54 284.37 552.84 281.15 572.07"/>
          <path class="cls-1" d="M287.22,577.6l5.97,6.32,1.27-8.32,1.39-10.37c.91-6.93,1.79-13.9,2.63-20.9l-4.75-5.74c-1.05,6.8-2.13,13.57-3.24,20.3l-1.7,10.07-1.58,8.63Z"/>
          <path class="cls-1" d="M287.68,532.93l-4.68-5.65c-1.5,6.35-3.04,12.66-4.61,18.94l-2.38,9.39-2.32,8.77,5.93,6.47,1.98-8.69,2.08-9.69c1.37-6.48,2.7-12.99,4-19.54Z"/>
        </g>
        <g>
          <path class="cls-1" d="M379.79,477.95c4.31-3.85,8.58-7.1,12.94-9.98,1.09-.72,2.18-1.42,3.28-2.1,1.3-.84,2.59-1.66,3.87-2.48,2.65-1.67,5.3-3.25,7.94-4.75,10.57-6.01,21.08-10.82,31.72-15.74,21.29-9.85,43.1-20.18,66.97-41.51l6.22,6.96c-23.87,21.33-45.68,31.66-66.97,41.52-10.64,4.93-21.15,9.74-31.72,15.75-2.64,1.5-5.29,3.08-7.94,4.75-1.29.83-2.59,1.66-3.9,2.51-1.17.74-2.33,1.5-3.49,2.29-4.64,3.14-9.22,6.66-13.85,10.8"/>
          <path class="cls-1" d="M400.68,510.96c6-5.36,11.39-10.75,16.19-16.05,1.2-1.32,2.38-2.66,3.48-3.94,1.1-1.28,2.17-2.57,3.22-3.85,2.09-2.57,4.08-5.13,5.98-7.69,7.6-10.23,13.84-20.38,19.95-30.42,12.22-20.08,23.92-39.7,45.01-58.54l6.22,6.96c-21.08,18.84-32.78,38.46-45,58.54-6.11,10.04-12.35,20.2-19.95,30.43-1.9,2.56-3.89,5.12-5.98,7.69-1.05,1.28-2.12,2.57-3.22,3.85-.53.62-1.17,1.34-1.79,2.03-.63.69-1.26,1.39-1.89,2.08-5.11,5.57-10.82,11.24-17.16,16.91"/>
          <path class="cls-1" d="M561.07,452.37c12.41-26.39,15.47-48.96,18.84-72.18.21-1.45.42-2.9.64-4.36l.33-2.19.17-1.1.08-.55.04-.27c.03-.13-.03-.03.18-.6,1.22-3.18,1.73-7.32.89-11.2-.41-1.96-1.13-3.76-2.04-5.43-.47-.8-.99-1.57-1.54-2.3-.56-.71-1.16-1.36-1.79-1.98-2.54-2.43-5.62-4.09-9.08-4.84-3.43-.76-7.38-.48-10.71.97-1.6.7-3.17,1.64-4.31,2.65-.3.25-.6.52-.89.79l-.21.2c-.06.05-.18.17-.16.16l-.08.12-.31.48c-.42.63-.84,1.27-1.26,1.91-.85,1.26-1.72,2.54-2.59,3.83-1.76,2.56-3.59,5.12-5.51,7.7-7.68,10.3-16.83,20.76-28.76,31.43l6.22,6.96c11.93-10.66,21.08-21.13,28.76-31.43,1.92-2.58,3.75-5.14,5.51-7.7.87-1.29,1.73-2.56,2.59-3.83.42-.64.84-1.27,1.26-1.91.15-.42,1.44-1.87,2.9-2.57,1.51-.78,3.36-1.02,5.07-.76,1.72.27,3.33,1.01,4.7,2.17,1.37,1.15,2.5,2.84,3.01,4.83.53,1.98.39,4.16-.2,5.95-.09.3-.08.31-.1.41l-.04.27-.08.55-.17,1.1-.33,2.19c-.21,1.46-.43,2.91-.64,4.36-3.37,23.21-6.43,45.78-18.84,72.18"/>
          <path class="cls-1" d="M526.2,435.97c13.2-28.08,29.25-46.15,45-63.59l2.95-3.27.37-.41.18-.2c.12-.2.27-.49.39-.73.26-.52.5-1.03.7-1.6.19-.6.36-1.21.49-1.83.49-2.56.17-5.44-.91-7.89-1.07-2.47-2.77-4.51-4.94-6.04-2.16-1.53-4.89-2.56-7.92-2.69-3.05-.16-6.22.81-8.62,2.27-.3.18-.59.37-.88.57l-.43.3-.21.15c-.08.06-.06.03-.09.06l-.5.24-.99.48c-5.28,2.57-10.54,5.26-15.79,8.24-10.5,5.95-20.98,13.02-31.52,22.44l6.22,6.96c10.54-9.42,21.01-16.49,31.52-22.43,5.25-2.97,10.51-5.67,15.79-8.24l.99-.48.5-.24.78-.41c1.09-.52,2.36-.77,3.51-.57,2.32.38,3.89,2.03,4.34,3.78.23.88.16,1.77-.13,2.5-.29.75-.81,1.25-1.29,1.8l-2.95,3.27c-15.76,17.44-31.81,35.51-45.01,63.59"/>
          <polygon class="cls-1" points="450.83 392.94 486.39 400.55 573.51 389.93 535.63 384.73 450.83 392.94"/>
          <polygon class="cls-1" points="497.51 453.82 498.8 415.02 521.97 331.8 522.04 368.87 497.51 453.82"/>
          <polygon class="cls-1" points="518.83 407.59 525.04 402.29 503.26 376.91 497.05 382.22 518.83 407.59"/>
          <polygon class="cls-1" points="524.84 402.09 531.38 397.18 511.23 370.51 504.69 375.4 524.84 402.09"/>
          <polygon class="cls-1" points="497.29 382.37 490.76 387.29 510.91 413.97 517.45 409.06 497.29 382.37"/>
        </g>
        <g>
          <path class="cls-1" d="M561.06,452.38c-24.82,52.79-61.72,67.01-88.97,124.95l-8.45-3.97c27.25-57.94,64.13-72.16,88.96-124.95"/>
          <path class="cls-1" d="M526.19,435.99c-26.41,56.16-14.73,95.53-38.79,146.7l-8.45-3.97c24.06-51.17,12.37-90.55,38.78-146.71"/>
          <path class="cls-1" d="M428.9,733.41c24.82-52.79,12.25-90.28,39.49-148.22l-8.45-3.97c-27.24,57.93-14.68,95.42-39.5,148.21"/>
          <path class="cls-1" d="M394.03,717.01c26.41-56.16,64.19-72.28,88.25-123.44l-8.45-3.97c-24.06,51.17-61.85,67.28-88.26,123.44"/>
          <polygon class="cls-1" points="526.63 563.33 490.92 570.23 414.91 614.09 451.8 604.06 526.63 563.33"/>
          <polygon class="cls-1" points="459.86 525.56 473.84 561.77 485.08 647.42 470.52 613.33 459.86 525.56"/>
          <polygon class="cls-1" points="458.32 576.44 454.68 583.76 484.65 598.59 488.29 591.27 458.32 576.44"/>
          <polygon class="cls-1" points="454.94 583.86 450.84 590.93 479.82 607.6 483.93 600.53 454.94 583.86"/>
          <polygon class="cls-1" points="488.01 591.23 492.1 584.15 463.12 567.48 459.02 574.55 488.01 591.23"/>
        </g>
        <g>
          <path class="cls-1" d="M428.89,733.43c-24.82,52.79-61.72,67.01-88.97,124.95l-8.45-3.97c27.25-57.94,64.13-72.16,88.96-124.95"/>
          <path class="cls-1" d="M394.02,717.03c-26.41,56.16-14.73,95.53-38.79,146.7l-8.45-3.97c24.06-51.17,12.37-90.55,38.78-146.71"/>
          <path class="cls-1" d="M296.73,1014.46c24.82-52.79,12.25-90.28,39.49-148.22l-8.45-3.97c-27.24,57.93-14.68,95.42-39.5,148.21"/>
          <path class="cls-1" d="M261.86,998.06c26.41-56.16,64.19-72.27,88.25-123.44l-8.45-3.97c-24.06,51.17-61.85,67.28-88.26,123.44"/>
          <polygon class="cls-1" points="394.46 844.38 358.75 851.28 282.74 895.13 319.63 885.1 394.46 844.38"/>
          <polygon class="cls-1" points="327.69 806.61 341.67 842.82 352.91 928.46 338.35 894.38 327.69 806.61"/>
          <polygon class="cls-1" points="326.15 857.49 322.51 864.8 352.48 879.64 356.12 872.32 326.15 857.49"/>
          <polygon class="cls-1" points="322.77 864.91 318.67 871.98 347.65 888.65 351.76 881.58 322.77 864.91"/>
          <polygon class="cls-1" points="355.83 872.27 359.93 865.2 330.95 848.52 326.85 855.59 355.83 872.27"/>
        </g>
      </g>
    </g>
  </g>
</svg>