<?xml version="1.0" encoding="UTF-8"?>
<svg id="Layer_2" data-name="Layer 2" xmlns="http://www.w3.org/2000/svg" viewBox="0 0 655.87 856.83">
  <defs>
    <style>
      .cls-1 {
        fill: #bfbfbf;
        stroke: #000;
        stroke-linecap: round;
        stroke-width: 4.5px;
      }
    </style>
  </defs>
  <g id="Layer_2-2" data-name="Layer 2">
    <g>
      <g>
        <g>
          <path class="cls-1" d="M350.97,32.96c-40.39,48.33-81.16,54.48-125.49,107.53l-7.17-5.99c44.33-53.05,85.09-59.2,125.48-107.54"/>
          <path class="cls-1" d="M321.4,8.25c-42.97,51.42-43.24,94.35-82.39,141.2l-7.17-5.99c39.15-46.85,39.41-89.79,82.38-141.21"/>
          <path class="cls-1" d="M135.92,290.28c40.39-48.33,39.21-89.55,83.54-142.59l-7.17-5.99c-44.33,53.05-43.15,94.25-83.55,142.58"/>
          <path class="cls-1" d="M106.35,265.57c42.97-51.42,85.17-59.3,124.33-106.16l-7.17-5.99c-39.15,46.85-81.37,54.73-124.34,106.15"/>
          <polygon class="cls-1" points="283.62 138.58 246.23 137.51 157.89 165.06 197.38 163.2 283.62 138.58"/>
          <polygon class="cls-1" points="228.91 84.76 231.87 124.97 217.29 215.12 213.11 176.95 228.91 84.76"/>
          <polygon class="cls-1" points="212.12 136.44 206.32 143.09 231.52 165.09 237.31 158.44 212.12 136.44"/>
          <polygon class="cls-1" points="206.55 143.26 200.37 149.56 224.03 173.2 230.22 166.91 206.55 143.26"/>
          <polygon class="cls-1" points="237.04 158.32 243.22 152.02 219.55 128.37 213.38 134.66 237.04 158.32"/>
        </g>
        <g>
          <path class="cls-1" d="M135.9,290.3c-10.1,12.08-20.22,21.53-30.41,29.73-2.55,2.05-5.1,4.02-7.66,5.94-1.29.95-2.57,1.9-3.84,2.84-1.18.81-2.27,1.51-3.43,2.27-4.76,3.07-9.46,6.1-14.19,9.15-9.76,6.35-20.18,13.48-30.97,22.41-5.39,4.46-10.88,9.35-16.37,14.75-2.74,2.7-5.49,5.52-8.22,8.48-.68.74-1.36,1.49-2.04,2.24-.69.75-1.31,1.56-1.77,2.47-.94,1.8-1.34,3.91-1.06,5.98l-10.27-.99c-.27-2.19.14-4.41,1.09-6.33.47-.96,1.1-1.83,1.79-2.63.7-.8,1.39-1.6,2.07-2.38,2.76-3.14,5.55-6.16,8.35-9.05,5.62-5.77,11.3-11.02,16.95-15.78,11.31-9.54,22.2-17.24,32.42-24.14,4.96-3.33,9.88-6.63,14.88-9.98,1.21-.82,2.37-1.6,3.59-2.46,1.27-.94,2.55-1.89,3.84-2.84,2.56-1.92,5.11-3.89,7.66-5.94,10.19-8.2,20.31-17.65,30.41-29.73"/>
          <path class="cls-1" d="M106.33,265.59c-10.74,12.85-18.82,25.18-25.5,37.17-3.33,5.98-6.38,11.96-9.05,17.65-2.68,5.71-5.05,11.2-7.26,16.51-4.43,10.62-8.2,20.46-12.85,30.02-2.33,4.78-4.89,9.51-7.9,14.29-1.51,2.39-3.14,4.79-4.91,7.23-.45.61-.9,1.22-1.36,1.84-.46.62-.95,1.22-1.34,1.91-.77,1.38-1.23,2.98-1.29,4.63l-11.01-1.17c.07-1.76.56-3.48,1.39-4.95.42-.74.94-1.39,1.44-2.04.49-.66.98-1.31,1.47-1.96,1.91-2.6,3.67-5.17,5.32-7.71,3.28-5.09,6.09-10.11,8.66-15.19,5.13-10.14,9.36-20.52,14.24-31.7,2.44-5.58,5.04-11.36,7.96-17.35.75-1.5,1.5-3.01,2.25-4.54.77-1.5,1.54-3.01,2.32-4.53,1.52-2.96,3.1-5.93,4.77-8.93,6.68-11.99,14.75-24.31,25.49-37.17"/>
          <path class="cls-1" d="M117.01,534.5c-7.21-14-15.02-25.43-23.17-35.67-4.08-5.12-8.24-9.94-12.46-14.62-2.11-2.34-4.23-4.66-6.36-6.96l-.8-.86-.74-.74-1.47-1.47-2.98-2.99c-7.99-8.05-16.45-17.01-24.92-27.87-8.46-10.83-16.96-23.61-24.62-38.48l-10.25-.53c3.86,7.85,7.95,15.2,12.21,22.01,4.26,6.81,8.7,13.08,13.11,18.86,8.84,11.58,17.63,21.18,25.95,29.87l3.1,3.23,1.53,1.59c.5.51,1.03,1.07,1.57,1.66,2.13,2.3,4.25,4.61,6.36,6.96,4.22,4.69,8.38,9.51,12.45,14.62,8.15,10.23,15.96,21.67,23.17,35.67"/>
          <path class="cls-1" d="M82.75,552.14c-7.67-14.89-12.85-28.69-16.75-41.84-1.95-6.58-3.57-13-5.03-19.32-.36-1.58-.71-3.16-1.06-4.72-.17-.79-.34-1.57-.51-2.35-.16-.76-.31-1.52-.47-2.27-.61-3.02-1.17-5.97-1.7-8.88-2.14-11.62-3.81-22.32-6.37-32.88-2.57-10.58-6-20.98-12.03-32.69l-10.74-.46c6.44,12.51,10.24,23.62,13.16,34.88,2.9,11.23,4.89,22.57,7.36,34.83,1.22,6.1,2.63,12.57,4.05,18.83,1.45,6.32,3.08,12.74,5.03,19.32,3.89,13.16,9.07,26.95,16.74,41.85"/>
          <path class="cls-1" d="M81.94,379.91c-13.63,1.03-28.18,3.17-43.65,6.42l-6.36,2.72c-1.07.47-2.16.93-3.21,1.43-1.03.52-2.02,1.08-2.92,1.68-3.64,2.41-6.02,5.49-7.02,8.06-1.03,2.57-1.99,5.25-2.9,8.05-.78,2.8-1.43,5.71-2.18,8.73-1.47,6.04-3.02,12.54-4.25,19.53-1.29,6.99-2.13,14.42-2.76,22.31,2.43-5.9,5.01-11.43,7.86-16.6,2.82-5.17,5.89-9.97,8.97-14.4,1.59-5.92,3.55-11.41,5.66-16.45,1.06-2.52,2.18-4.94,3.36-7.24.6-1.16,1.17-2.26,1.83-3.38.72-1.14,1.69-2.36,2.96-3.55,1.27-1.18,2.81-2.33,4.6-3.33,1.75-1.03,3.86-1.79,5.87-2.57,4.03-1.55,7.99-3.01,11.86-4.37,7.75-2.73,15.18-5.07,22.3-7.04Z"/>
          <path class="cls-1" d="M7.22,350.52c2.64,12.05,6.35,22.62,9.67,31.69.05,1.45.13,2.88.22,4.28.11,1.41.12,2.74.64,4.35.94,3.15,3.3,6.77,6.94,9.66,7.31,5.74,14.42,11.04,21.3,15.92,13.76,9.75,26.63,17.78,38.62,24.08-12.09-3.32-24.89-8.03-38.41-14.12-6.93-4.91-14.1-10.26-21.49-16.07-3.7-2.9-7.45-5.91-11.26-9.04-.95-.78-1.93-1.56-2.84-2.38-.84-.82-1.56-1.67-2.21-2.55-1.26-1.76-2.15-3.62-2.64-5.39-.52-1.78-.63-3.45-.53-4.92l.21-4.58.36-9.64c.28-6.65.64-13.77,1.42-21.29Z"/>
          <polygon class="cls-1" points="3.94 400.51 7.61 408.66 26.02 409.47 45.22 410.23 42.05 403.69 22.43 402.09 3.94 400.51"/>
          <path class="cls-1" d="M7.89,408.65l3.17,8.17,9.11.52,9.6.44c6.39.27,12.75.5,19.08.67l-2.58-6.56c-6.48-.45-12.99-.95-19.51-1.5l-9.81-.85-9.06-.9Z"/>
          <path class="cls-1" d="M41.76,403.73c-.4-1.09-.94-2.13-1.14-3.3-.23-1.16-.21-2.39.05-3.59-6.5-1.13-12.98-2.31-19.41-3.54l-9.61-1.87c-1.71-.33-2.88-.6-4.26-.89l-4.01-.88c-1.3,2.81-1.46,6.07-.54,8.81l4.34.68,4.45.67,10.08,1.37c6.71.89,13.39,1.73,20.05,2.53Z"/>
        </g>
        <g>
          <path class="cls-1" d="M117.02,534.52c28.84,56,18.66,95.95,50.31,157.41l-8.3,4.28c-31.65-61.46-21.48-101.41-50.32-157.41"/>
          <path class="cls-1" d="M82.76,552.16c30.68,59.58,70.13,76.5,98.09,130.79l-8.3,4.28c-27.95-54.28-67.42-71.21-98.1-130.78"/>
          <path class="cls-1" d="M270.55,832.66c-28.84-56-67.27-70.92-98.92-132.38l-8.3,4.28c31.65,61.46,70.07,76.39,98.91,132.39"/>
          <path class="cls-1" d="M236.29,850.3c-30.68-59.58-21.55-101.52-49.5-155.81l-8.3,4.28c27.95,54.28,18.81,96.24,49.49,155.81"/>
          <polygon class="cls-1" points="188.17 637.62 172.65 671.65 163.71 763.76 177.34 726.64 188.17 637.62"/>
          <polygon class="cls-1" points="117.31 667.11 155.52 680.01 232.92 728.48 196.12 717.49 117.31 667.11"/>
          <polygon class="cls-1" points="158.41 702.67 162.29 710.59 192.35 695.93 188.47 688 158.41 702.67"/>
          <polygon class="cls-1" points="162.53 710.45 165.94 718.58 196.91 705.98 193.52 697.83 162.53 710.45"/>
          <polygon class="cls-1" points="188.26 688.2 184.85 680.07 153.86 692.68 157.26 700.82 188.26 688.2"/>
        </g>
      </g>
      <g>
        <g>
          <path class="cls-1" d="M494.4,32.96c-40.39,48.33-81.15,54.47-125.47,107.51l-7.17-5.99c44.33-53.04,85.08-59.19,125.46-107.51"/>
          <path class="cls-1" d="M464.83,8.25c-42.96,51.41-43.23,94.34-82.37,141.18l-7.17-5.99c39.15-46.84,39.4-89.78,82.36-141.19"/>
          <path class="cls-1" d="M279.39,290.24c40.39-48.33,39.2-89.53,83.52-142.57l-7.17-5.99c-44.32,53.04-43.14,94.24-83.53,142.56"/>
          <path class="cls-1" d="M249.82,265.53c42.96-51.41,85.16-59.29,124.31-106.13l-7.17-5.99c-39.15,46.84-81.35,54.72-124.32,106.13"/>
          <polygon class="cls-1" points="427.07 138.57 389.68 137.49 301.35 165.03 340.84 163.17 427.07 138.57"/>
          <polygon class="cls-1" points="372.36 84.74 375.33 124.95 360.75 215.09 356.57 176.92 372.36 84.74"/>
          <polygon class="cls-1" points="355.57 136.42 349.78 143.07 374.97 165.07 380.77 158.41 355.57 136.42"/>
          <polygon class="cls-1" points="350.01 143.24 343.83 149.53 367.49 173.18 373.67 166.89 350.01 143.24"/>
          <polygon class="cls-1" points="380.5 158.3 386.67 151.99 363.01 128.34 356.83 134.64 380.5 158.3"/>
        </g>
        <g>
          <path class="cls-1" d="M279.38,290.25c-10.1,12.08-20.22,21.53-30.41,29.73-2.55,2.05-5.1,4.02-7.66,5.94-1.29.95-2.57,1.9-3.84,2.84-1.2.83-2.28,1.51-3.44,2.27-4.76,3.07-9.45,6.1-14.18,9.15-9.76,6.35-20.17,13.48-30.97,22.4-5.39,4.46-10.88,9.35-16.36,14.75-2.74,2.7-5.49,5.52-8.21,8.48-1.33,1.49-2.87,2.9-3.7,4.78-.88,1.83-1.26,3.92-1.04,6l-10.26-.99c-.21-2.2.18-4.4,1.07-6.35.85-1.99,2.4-3.5,3.75-5.08,2.76-3.14,5.55-6.16,8.35-9.04,5.61-5.77,11.3-11.01,16.95-15.78,11.31-9.54,22.19-17.23,32.41-24.13,4.96-3.33,9.88-6.62,14.87-9.97,1.21-.83,2.37-1.6,3.6-2.47,1.27-.94,2.55-1.88,3.84-2.84,2.56-1.92,5.11-3.89,7.66-5.94,10.19-8.2,20.31-17.65,30.41-29.73"/>
          <path class="cls-1" d="M249.81,265.54c-10.74,12.85-18.81,25.17-25.49,37.16-3.33,5.98-6.37,11.96-9.05,17.65-2.68,5.71-5.05,11.2-7.26,16.51-4.43,10.62-8.2,20.46-12.85,30.02-2.33,4.78-4.89,9.51-7.9,14.28-1.51,2.39-3.14,4.79-4.91,7.23-.45.61-.9,1.22-1.36,1.84-.47.61-.92,1.25-1.27,1.96-.73,1.4-1.14,3.02-1.22,4.66l-11-1.17c.09-1.76.53-3.48,1.31-4.98.38-.76.86-1.45,1.36-2.1.49-.66.98-1.31,1.46-1.96,1.91-2.6,3.67-5.17,5.31-7.71,3.28-5.09,6.08-10.11,8.66-15.19,5.13-10.14,9.36-20.52,14.24-31.7,2.44-5.58,5.04-11.36,7.96-17.35.75-1.5,1.5-3.01,2.25-4.54.77-1.5,1.54-3.01,2.31-4.53,1.51-2.96,3.1-5.93,4.77-8.93,6.68-11.99,14.75-24.31,25.49-37.16"/>
          <path class="cls-1" d="M260.47,534.55c-7.21-14-15.02-25.43-23.17-35.66-4.08-5.12-8.24-9.93-12.45-14.62-2.11-2.34-4.23-4.66-6.36-6.96l-.8-.86c-.27-.29-.49-.5-.74-.75l-1.47-1.47-2.98-2.98c-7.99-8.05-16.44-17-24.92-27.86-8.46-10.82-16.96-23.6-24.62-38.47l-10.25-.52c3.85,7.85,7.94,15.19,12.21,22,4.26,6.81,8.69,13.08,13.11,18.85,8.84,11.57,17.63,21.17,25.94,29.86l3.1,3.22c1.04,1.09,2.01,2.05,3.1,3.25,2.13,2.3,4.25,4.61,6.36,6.96,4.22,4.69,8.38,9.51,12.45,14.62,8.15,10.23,15.96,21.66,23.17,35.66"/>
          <path class="cls-1" d="M226.21,552.19c-7.67-14.89-12.85-28.68-16.74-41.84-1.95-6.58-3.57-13-5.03-19.32-.36-1.58-.71-3.16-1.06-4.72-.35-1.58-.68-3.13-.98-4.62-.61-3.02-1.17-5.97-1.7-8.87-2.14-11.62-3.81-22.32-6.37-32.88-2.57-10.58-6-20.98-12.03-32.68l-10.74-.46c6.44,12.51,10.24,23.62,13.15,34.87,2.9,11.23,4.89,22.56,7.36,34.82,1.22,6.1,2.63,12.57,4.05,18.82,1.45,6.32,3.08,12.74,5.02,19.32,3.89,13.16,9.07,26.95,16.74,41.84"/>
          <path class="cls-1" d="M225.41,379.87c-13.62,1.03-28.17,3.16-43.64,6.4l-6.36,2.72c-2.16.91-4.26,1.94-6.01,3.19-3.57,2.44-5.97,5.47-7.13,8.11-1.07,2.59-2,5.26-2.92,8.06-.78,2.8-1.42,5.71-2.18,8.73-1.47,6.04-3.01,12.54-4.25,19.53-1.29,6.99-2.13,14.42-2.77,22.31,2.43-5.9,5.01-11.43,7.86-16.6,2.82-5.17,5.89-9.98,8.97-14.4,1.59-5.92,3.55-11.41,5.65-16.46,1.06-2.52,2.18-4.94,3.36-7.24.61-1.16,1.13-2.25,1.88-3.41.75-1.16,1.8-2.39,3.06-3.57,1.28-1.18,2.8-2.33,4.55-3.34,1.74-1.02,3.73-1.88,5.77-2.63,4.03-1.55,7.99-3.01,11.86-4.37,7.75-2.72,15.18-5.07,22.29-7.03Z"/>
          <path class="cls-1" d="M150.73,350.45c2.65,12.05,6.34,22.62,9.65,31.69.05,1.45.13,2.88.22,4.28.05.7.09,1.39.2,2.12.11.73.3,1.51.55,2.3,1.03,3.19,3.36,6.76,6.84,9.71,7.27,5.76,14.41,11.04,21.28,15.92,13.76,9.74,26.63,17.77,38.61,24.07-12.09-3.32-24.89-8.02-38.4-14.1-6.93-4.91-14.09-10.26-21.49-16.06-3.7-2.9-7.45-5.91-11.26-9.03-.95-.78-1.93-1.56-2.79-2.4-.82-.83-1.5-1.69-2.11-2.58-1.23-1.77-2.09-3.62-2.62-5.4-.53-1.78-.72-3.49-.66-5.01l.21-4.58.36-9.64c.28-6.65.64-13.77,1.42-21.29Z"/>
          <polygon class="cls-1" points="147.42 400.59 151.09 408.74 169.5 409.54 188.7 410.3 185.53 403.75 165.9 402.16 147.42 400.59"/>
          <path class="cls-1" d="M151.38,408.73l3.17,8.17,9.1.51,9.59.44c6.38.27,12.74.49,19.08.67l-2.58-6.56c-6.48-.45-12.98-.94-19.51-1.49l-9.81-.85-9.05-.89Z"/>
          <path class="cls-1" d="M185.23,403.79c-.43-1.08-.89-2.15-1.06-3.33-.18-1.17-.13-2.4.12-3.6-6.49-1.13-12.97-2.31-19.39-3.54l-9.61-1.87c-1.71-.33-2.88-.6-4.27-.9l-4.02-.88c-1.23,2.83-1.44,6.05-.64,8.86l4.32.68,4.44.67,10.06,1.37c6.71.89,13.39,1.73,20.04,2.52Z"/>
        </g>
        <g>
          <path class="cls-1" d="M260.48,534.57c28.83,55.99,18.65,95.94,50.3,157.39l-8.3,4.28c-31.65-61.45-21.48-101.39-50.31-157.38"/>
          <path class="cls-1" d="M226.22,552.21c30.67,59.56,70.12,76.49,98.07,130.76l-8.3,4.28c-27.95-54.27-67.41-71.19-98.09-130.76"/>
          <path class="cls-1" d="M413.99,832.66c-28.83-55.99-67.27-70.91-98.91-132.36l-8.3,4.28c31.64,61.45,70.06,76.37,98.9,132.36"/>
          <path class="cls-1" d="M379.73,850.3c-30.67-59.56-21.54-101.51-49.49-155.78l-8.3,4.28c27.95,54.27,18.8,96.22,49.48,155.79"/>
          <polygon class="cls-1" points="331.63 637.65 316.11 671.68 307.15 763.77 320.79 726.67 331.63 637.65"/>
          <polygon class="cls-1" points="260.77 667.15 298.97 680.04 376.37 728.49 339.57 717.51 260.77 667.15"/>
          <polygon class="cls-1" points="301.86 702.69 305.74 710.62 335.8 695.95 331.92 688.03 301.86 702.69"/>
          <polygon class="cls-1" points="305.98 710.47 309.39 718.61 340.36 706 336.97 697.86 305.98 710.47"/>
          <polygon class="cls-1" points="331.71 688.23 328.3 680.09 297.31 692.71 300.72 700.84 331.71 688.23"/>
        </g>
      </g>
      <g>
        <g>
          <path class="cls-1" d="M653.62,32.96c-40.38,48.32-81.14,54.46-125.47,107.5l-7.17-5.99c44.32-53.04,85.07-59.18,125.46-107.51"/>
          <path class="cls-1" d="M624.05,8.25c-42.96,51.41-43.22,94.33-82.37,141.17l-7.17-5.99c39.14-46.84,39.4-89.77,82.36-141.18"/>
          <path class="cls-1" d="M438.63,290.22c40.38-48.32,39.19-89.53,83.51-142.56l-7.17-5.99c-44.32,53.03-43.14,94.23-83.52,142.55"/>
          <path class="cls-1" d="M409.06,265.51c42.96-51.41,85.16-59.29,124.3-106.12l-7.17-5.99c-39.14,46.84-81.35,54.71-124.31,106.12"/>
          <polygon class="cls-1" points="586.3 138.56 548.91 137.48 460.58 165.02 500.07 163.16 586.3 138.56"/>
          <polygon class="cls-1" points="531.58 84.73 534.55 124.94 519.98 215.08 515.8 176.91 531.58 84.73"/>
          <polygon class="cls-1" points="514.8 136.41 509.01 143.06 534.2 165.06 540 158.4 514.8 136.41"/>
          <polygon class="cls-1" points="509.23 143.23 503.06 149.52 526.72 173.17 532.9 166.88 509.23 143.23"/>
          <polygon class="cls-1" points="539.73 158.29 545.9 151.98 522.23 128.34 516.06 134.63 539.73 158.29"/>
        </g>
        <g>
          <path class="cls-1" d="M438.61,290.24c-13.56,16.22-27.15,27.69-40.93,37.79l-1.29.94-1.14.75c-.77.5-1.53,1-2.3,1.5-1.56,1.01-3.12,2.01-4.67,3.02-3.22,2.08-6.43,4.15-9.66,6.24-6.58,4.3-13.45,8.95-20.55,14.28-6.87,5.13-13.98,10.94-21.16,17.61-3.59,3.34-7.2,6.89-10.8,10.66-.89.95-1.79,1.9-2.69,2.87-.88.98-1.84,1.92-2.59,3.02-1.52,2.19-2.24,4.94-1.98,7.67l-10.26-.99c-.25-2.89.48-5.79,2.02-8.12.76-1.17,1.73-2.17,2.63-3.22.92-1.03,1.83-2.05,2.73-3.06,3.65-4.02,7.34-7.82,11.04-11.39,7.4-7.15,14.89-13.35,22.07-18.86,7.43-5.73,14.61-10.76,21.5-15.43,3.38-2.27,6.75-4.53,10.12-6.79,1.63-1.1,3.26-2.19,4.9-3.3.8-.55,1.61-1.09,2.41-1.64l1.2-.82,1.29-.94c13.77-10.1,27.37-21.57,40.93-37.79"/>
          <path class="cls-1" d="M409.04,265.52c-13.98,16.73-23.44,32.57-31.2,47.94-7.71,15.32-12.82,29.09-18.27,41.93-2.91,6.86-5.95,13.48-9.69,20.11-1.87,3.31-3.93,6.63-6.25,10-1.16,1.69-2.4,3.37-3.68,5.11-1.26,1.75-2.04,3.97-2.15,6.27l-10.99-1.17c.11-2.46.95-4.82,2.31-6.69,1.38-1.85,2.72-3.65,3.97-5.45,2.51-3.59,4.74-7.13,6.79-10.65,4.1-7.05,7.47-14.07,10.7-21.32,6.06-13.56,11.75-28.03,20.1-44.12,7.75-15.37,17.21-31.21,31.2-47.94"/>
          <path class="cls-1" d="M419.7,534.57c-7.21-14-15.02-25.43-23.17-35.66-4.08-5.12-8.24-9.93-12.45-14.62-2.11-2.34-4.23-4.66-6.36-6.96l-.8-.86c-.27-.29-.49-.5-.74-.75l-1.47-1.47-2.98-2.98c-7.99-8.05-16.44-17-24.91-27.85-8.46-10.82-16.96-23.6-24.62-38.47l-10.24-.52c3.85,7.85,7.94,15.19,12.21,22,4.26,6.81,8.69,13.07,13.11,18.85,8.84,11.57,17.63,21.17,25.94,29.86l3.1,3.22c1.04,1.08,2.01,2.05,3.1,3.25,2.13,2.3,4.25,4.61,6.36,6.96,4.22,4.69,8.38,9.5,12.45,14.62,8.15,10.23,15.96,21.66,23.17,35.66"/>
          <path class="cls-1" d="M385.44,552.21c-7.67-14.89-12.85-28.68-16.74-41.83-1.95-6.58-3.57-13-5.03-19.32-.36-1.58-.71-3.16-1.06-4.72-.35-1.58-.68-3.13-.98-4.63-.61-3.02-1.17-5.97-1.7-8.87-2.14-11.62-3.81-22.32-6.37-32.88-2.57-10.58-6-20.98-12.03-32.68l-10.74-.45c6.44,12.51,10.24,23.62,13.15,34.87,2.9,11.23,4.89,22.56,7.36,34.82,1.22,6.1,2.63,12.57,4.05,18.82,1.45,6.32,3.08,12.74,5.02,19.32,3.89,13.16,9.07,26.95,16.74,41.84"/>
          <path class="cls-1" d="M384.64,379.85c-13.62,1.03-28.17,3.16-43.63,6.4l-6.36,2.72c-2.16.91-4.22,1.97-5.96,3.22-3.54,2.45-5.95,5.46-7.18,8.13-1.08,2.6-2.01,5.26-2.93,8.07-.78,2.8-1.42,5.71-2.17,8.73-1.47,6.04-3.01,12.54-4.25,19.53-1.29,6.99-2.14,14.42-2.77,22.31,2.43-5.9,5.01-11.43,7.86-16.61,2.82-5.17,5.89-9.98,8.96-14.4,1.59-5.92,3.55-11.41,5.65-16.46,1.06-2.52,2.18-4.94,3.36-7.24.61-1.16,1.13-2.25,1.9-3.42.78-1.17,1.83-2.39,3.1-3.58,1.28-1.18,2.81-2.33,4.53-3.35,1.73-1.03,3.7-1.9,5.73-2.65,4.03-1.55,7.99-3.01,11.86-4.37,7.75-2.72,15.18-5.06,22.29-7.03Z"/>
          <path class="cls-1" d="M309.98,350.43c2.65,12.06,6.33,22.62,9.64,31.69.05,1.45.13,2.88.22,4.28.07,1.38.25,2.84.8,4.45,1.06,3.2,3.37,6.76,6.8,9.73,7.23,5.77,14.4,11.05,21.26,15.93,13.76,9.74,26.63,17.76,38.61,24.06-12.09-3.31-24.89-8.01-38.4-14.1-6.93-4.9-14.09-10.26-21.48-16.06-3.7-2.9-7.45-5.91-11.26-9.03-.95-.78-1.91-1.57-2.76-2.41-.79-.84-1.48-1.7-2.08-2.59-1.22-1.77-2.06-3.61-2.62-5.4-.53-1.78-.76-3.51-.72-5.04l.2-4.59.37-9.64c.29-6.65.64-13.77,1.42-21.29Z"/>
          <polygon class="cls-1" points="306.66 400.62 310.33 408.77 328.73 409.57 347.93 410.32 344.76 403.78 325.14 402.19 306.66 400.62"/>
          <path class="cls-1" d="M310.61,408.76l3.17,8.17,9.09.51,9.59.44c6.38.27,12.74.49,19.08.66l-2.58-6.56c-6.48-.45-12.98-.94-19.51-1.48l-9.81-.85-9.05-.89Z"/>
          <path class="cls-1" d="M344.46,403.82c-.43-1.08-.88-2.16-1.03-3.35-.16-1.18-.11-2.4.14-3.6-6.48-1.13-12.97-2.31-19.38-3.54l-9.61-1.87c-1.71-.33-2.88-.6-4.26-.9l-4.02-.88c-1.19,2.84-1.43,6.05-.67,8.87l4.31.69,4.43.67,10.05,1.38c6.7.89,13.39,1.73,20.04,2.52Z"/>
        </g>
        <g>
          <path class="cls-1" d="M419.71,534.59c28.83,55.99,18.65,95.93,50.29,157.38l-8.3,4.28c-31.64-61.45-21.47-101.38-50.31-157.37"/>
          <path class="cls-1" d="M385.45,552.23c30.67,59.56,70.12,76.48,98.07,130.75l-8.3,4.28c-27.95-54.27-67.41-71.18-98.08-130.75"/>
          <path class="cls-1" d="M573.21,832.66c-28.83-55.99-67.26-70.9-98.91-132.35l-8.3,4.28c31.64,61.44,70.06,76.36,98.89,132.35"/>
          <path class="cls-1" d="M538.95,850.3c-30.67-59.56-21.53-101.5-49.48-155.77l-8.3,4.28c27.95,54.27,18.8,96.22,49.47,155.78"/>
          <polygon class="cls-1" points="490.85 637.66 475.33 671.69 466.38 763.78 480.01 726.67 490.85 637.66"/>
          <polygon class="cls-1" points="420 667.16 458.2 680.05 535.59 728.5 498.8 717.52 420 667.16"/>
          <polygon class="cls-1" points="461.09 702.71 464.97 710.63 495.02 695.96 491.15 688.04 461.09 702.71"/>
          <polygon class="cls-1" points="465.21 710.48 468.61 718.62 499.59 706.01 496.2 697.87 465.21 710.48"/>
          <polygon class="cls-1" points="490.93 688.24 487.52 680.1 456.54 692.72 459.94 700.85 490.93 688.24"/>
        </g>
      </g>
    </g>
  </g>
</svg>