<?xml version="1.0" encoding="UTF-8"?>
<svg id="Layer_2" data-name="Layer 2" xmlns="http://www.w3.org/2000/svg" viewBox="0 0 948.83 373.53">
  <defs>
    <style>
      .cls-1 {
        fill: #bfbfbf;
        stroke: #000;
        stroke-linecap: round;
        stroke-width: 4.5px;
      }
    </style>
  </defs>
  <g id="Layer_2-2" data-name="Layer 2">
    <g>
      <g>
        <path class="cls-1" d="M946.58,65.46c-82.9,0-123.51-27.34-214.49-27.34v-9.34c90.98,0,131.59,27.33,214.49,27.33"/>
        <path class="cls-1" d="M946.58,26.93c-88.19,0-131.76,27.32-212.12,27.32v-9.34c80.35,0,123.93-27.34,212.12-27.34"/>
        <path class="cls-1" d="M505.24,65.46c82.9,0,123.51-27.34,214.49-27.34v-9.34c-90.98,0-131.59,27.33-214.49,27.33"/>
        <path class="cls-1" d="M505.24,26.93c88.19,0,131.76,27.32,212.12,27.32v-9.34c-80.35,0-123.93-27.34-212.12-27.34"/>
        <polygon class="cls-1" points="783.08 81.52 752.6 52.14 650.23 2.02 685.44 31.13 783.08 81.52"/>
        <polygon class="cls-1" points="791.26 5.02 753.15 33.09 649.81 79.71 684.83 52.02 791.26 5.02"/>
        <polygon class="cls-1" points="724.9 25.28 713.29 25.1 712.34 58.54 723.95 58.72 724.9 25.28"/>
        <polygon class="cls-1" points="713.32 25.38 701.74 24.68 697.83 58 709.4 58.71 713.32 25.38"/>
        <polygon class="cls-1" points="723.84 58.44 735.42 59.13 739.33 25.81 727.76 25.11 723.84 58.44"/>
      </g>
      <g>
        <g>
          <path class="cls-1" d="M725.89,355.57c-67.96,0-101.25-27.34-175.84-27.34v-9.34c74.59,0,107.88,27.33,175.84,27.33"/>
          <path class="cls-1" d="M725.89,317.04c-72.3,0-108.02,27.32-173.9,27.32v-9.34c65.88,0,101.6-27.34,173.9-27.34"/>
          <path class="cls-1" d="M364.08,355.57c67.96,0,101.26-27.34,175.84-27.34v-9.34c-74.58,0-107.88,27.33-175.84,27.33"/>
          <path class="cls-1" d="M364.08,317.04c72.3,0,108.02,27.32,173.9,27.32v-9.34c-65.88,0-101.6-27.34-173.9-27.34"/>
          <polygon class="cls-1" points="591.86 371.63 566.87 342.25 482.95 292.13 511.81 321.24 591.86 371.63"/>
          <polygon class="cls-1" points="598.56 295.13 567.32 323.19 482.6 369.81 511.31 342.13 598.56 295.13"/>
          <polygon class="cls-1" points="544.16 315.39 534.64 315.21 533.87 348.65 543.38 348.83 544.16 315.39"/>
          <polygon class="cls-1" points="534.66 315.49 525.18 314.79 521.97 348.1 531.46 348.82 534.66 315.49"/>
          <polygon class="cls-1" points="543.29 348.54 552.78 349.24 555.99 315.92 546.5 315.22 543.29 348.54"/>
        </g>
        <g>
          <path class="cls-1" d="M364.06,355.57c-67.96,0-101.25-27.34-175.84-27.34v-9.34c74.59,0,107.88,27.33,175.84,27.33"/>
          <path class="cls-1" d="M364.06,317.04c-72.3,0-108.02,27.32-173.9,27.32v-9.34c65.88,0,101.6-27.34,173.9-27.34"/>
          <path class="cls-1" d="M2.25,355.57c67.96,0,101.26-27.34,175.84-27.34v-9.34c-74.58,0-107.88,27.33-175.84,27.33"/>
          <path class="cls-1" d="M2.25,317.04c72.3,0,108.02,27.32,173.9,27.32v-9.34c-65.88,0-101.6-27.34-173.9-27.34"/>
          <polygon class="cls-1" points="230.02 371.63 205.04 342.25 121.12 292.13 149.98 321.24 230.02 371.63"/>
          <polygon class="cls-1" points="236.73 295.13 205.49 323.19 120.77 369.81 149.48 342.13 236.73 295.13"/>
          <polygon class="cls-1" points="182.33 315.39 172.81 315.21 172.03 348.65 181.55 348.83 182.33 315.39"/>
          <polygon class="cls-1" points="172.83 315.49 163.34 314.79 160.14 348.1 169.62 348.82 172.83 315.49"/>
          <polygon class="cls-1" points="181.46 348.54 190.95 349.24 194.16 315.92 184.67 315.22 181.46 348.54"/>
        </g>
      </g>
    </g>
  </g>
</svg>