<?xml version="1.0" encoding="UTF-8"?>
<svg id="Layer_2" data-name="Layer 2" xmlns="http://www.w3.org/2000/svg" viewBox="0 0 614.9 866.25">
  <defs>
    <style>
      .cls-1 {
        fill: #bfbfbf;
        stroke: #000;
        stroke-linecap: round;
        stroke-width: 4.5px;
      }
    </style>
  </defs>
  <g id="Layer_2-2" data-name="Layer 2">
    <g>
      <g>
        <path class="cls-1" d="M315.4,40.26c-49.63,38.04-90.58,34.97-145.05,76.72l-5.68-7.41c54.47-41.75,95.41-38.69,145.04-76.73"/>
        <path class="cls-1" d="M291.96,9.67c-52.8,40.46-62.27,82.15-110.38,119.02l-5.68-7.41c48.11-36.87,57.57-78.56,110.37-119.03"/>
        <path class="cls-1" d="M70.82,227.7c9.82-7.53,16.42-14.74,22.17-22.37,5.72-7.61,10.54-15.62,16.17-24.23,5.6-8.6,12.01-17.82,20.48-27.54,2.05-2.38,4.54-5.03,7.02-7.58,2.5-2.57,5.12-5.15,7.88-7.74,5.52-5.17,11.6-10.37,18.41-15.59l-5.68-7.41c-13.62,10.44-24.31,20.79-33.47,31.03-9.11,10.21-16.09,19.86-22.27,28.9-6.19,9.05-11.57,17.47-17.89,25.55-6.35,8.09-13.6,15.8-24.15,23.89"/>
        <path class="cls-1" d="M25.25,215.21c13.01-10.63,26.55-19.34,39.81-26.26,13.26-6.95,25.89-12.32,37.7-17.06,11.83-4.76,22.85-8.9,33.35-13.73.63-.28,1.38-.66,2.1-1.02.72-.37,1.45-.73,2.18-1.1,1.45-.75,2.91-1.51,4.36-2.3,2.91-1.58,5.84-3.25,8.78-5.03,5.88-3.56,11.8-7.57,17.82-12.18l-5.68-7.41c-12.01,9.21-23.75,16.05-35.28,21.66-11.1,5.28-22.68,9.85-35.08,15.04-12.36,5.19-25.62,10.97-39.44,18.44-13.75,7.47-27.44,16.93-40.22,28.32"/>
        <path class="cls-1" d="M227.28,128.02l-36.11-9.34-45.89,3.59-22.95,1.8-5.74.45-2.87.22-1.43.11-.72.06-.79.11c-4.23.61-8.56,1.3-12.99,2.06,3.7.22,7.32.5,10.86.85,1.77.17,3.52.36,5.25.56,1.67.25,3.25.57,4.88.85l19.39,3.48,89.11-4.81Z"/>
        <path class="cls-1" d="M185.64,63.55l-5.74,39.76-16.76,42.21-8.38,21.11-2.09,5.28-1.05,2.64c-.33.86-.77,1.82-.88,2.51-.72,3-1.34,5.92-1.86,8.77-.3-2.68-.52-5.41-.67-8.21-.07-1.4-.13-2.81-.16-4.24,0-.37-.05-.69,0-1.1l.13-1.19.26-2.38,2.06-19.02,35.13-86.14Z"/>
        <rect class="cls-1" x="160.21" y="109.44" width="8.76" height="33.45" transform="translate(-42.75 121.88) rotate(-36.29)"/>
        <polygon class="cls-1" points="151.36 115.47 144.01 120.23 161.93 148.47 169.29 143.72 151.36 115.47"/>
        <polygon class="cls-1" points="177.77 136.88 185.12 132.12 167.19 103.88 159.84 108.63 177.77 136.88"/>
      </g>
      <g>
        <path class="cls-1" d="M70.81,227.71c-2.46,1.89-4.97,3.67-7.54,5.39-1.28.87-2.61,1.67-3.88,2.56-1.22.95-1.89,2.41-1.91,3.74-.01.67.17,1.28.4,1.84.21.57.43,1.13.64,1.69.41,1.12.8,2.23,1.15,3.34.72,2.2,1.34,4.37,1.89,6.53,2.19,8.62,3.29,17.08,4.91,26.41,1.61,9.31,3.74,19.48,7.72,31.07,3.98,11.59,9.77,24.54,18.39,38.88l-8,4.81c-4.49-7.46-8.37-14.76-11.62-21.6-3.26-6.87-5.92-13.36-8.11-19.49-4.39-12.28-6.9-23.07-8.88-32.99-1.99-9.94-3.45-19-6.04-28.27-.65-2.32-1.37-4.65-2.19-7.03-.41-1.19-.84-2.38-1.31-3.59-.24-.6-.48-1.21-.72-1.82-.26-.6-.46-1.26-.46-1.98,0-1.43.7-3,2-4.03,1.35-.95,2.78-1.82,4.14-2.76,2.75-1.85,5.44-3.78,8.08-5.81"/>
        <path class="cls-1" d="M25.23,215.23c-3.24,2.65-6.29,5.24-9.13,7.76-.7.63-1.4,1.26-2.1,1.88-.68.62-1.41,1.21-1.85,2.06-.93,1.64-.96,3.83-.03,5.57,4.31,6.61,8.97,12.81,13.74,18.72,2.41,2.95,4.78,5.82,7.34,8.62,2.54,2.79,5.07,5.5,7.59,8.14,5.04,5.27,10.01,10.23,14.86,14.98,9.71,9.52,18.89,18.16,27.23,27.06,8.36,8.93,15.84,18.07,22.59,29.29l-8,4.81c-7.21-11.99-15.11-21.81-23.85-31.38-8.72-9.54-18.29-18.79-28.34-28.92-10.02-10.11-20.23-21.16-29.42-33.51-2.31-3.09-4.54-6.24-6.72-9.48-2.17-3.26-4.32-6.52-6.29-9.96-.86-1.8-.8-4.07.1-5.8.42-.9,1.12-1.52,1.78-2.18.67-.66,1.34-1.33,2.02-2,2.74-2.69,5.72-5.47,8.87-8.3"/>
        <path class="cls-1" d="M204.18,481.72c-32.22-53.59-71.44-65.76-106.8-124.57l-8,4.81c35.36,58.81,74.57,70.99,106.79,124.58"/>
        <path class="cls-1" d="M171.16,501.57c-34.28-57.01-27.8-99.26-59.03-151.21l-8,4.81c31.23,51.95,24.74,94.2,59.02,151.22"/>
        <path class="cls-1" d="M115.78,303.52c-6.84,7.63-12.94,16.49-18.3,26.58-.84,6.71-1.51,13.7-1.65,21.57l-.79,23-1.58,46,11.27-37.76,2.62-44.54c1.77-13.35,4.62-24.91,8.44-34.85Z"/>
        <path class="cls-1" d="M37.32,321.48c15.14,7.02,29.39,12.57,42.77,16.67l80.11,42.77-37.34-8.38-40.86-22.35c-13.86-7.86-28.76-17.43-44.68-28.71Z"/>
        <rect class="cls-1" x="84.34" y="351.53" width="33.45" height="8.76" transform="translate(-163.69 97.47) rotate(-29.84)"/>
        <polygon class="cls-1" points="88.96 367.86 92.86 375.7 122.93 361.06 119.04 353.21 88.96 367.86"/>
        <path class="cls-1" d="M113.19,344.02l-3.85-7.75c-9.96,4.98-20.04,9.79-30.22,14.42l3.98,7.98,30.09-14.64Z"/>
      </g>
      <g>
        <path class="cls-1" d="M204.2,481.73c32.22,53.59,24.58,93.93,59.94,152.75l-8,4.81c-35.36-58.82-27.73-99.15-59.95-152.74"/>
        <path class="cls-1" d="M171.17,501.59c34.28,57.01,74.63,71.1,105.87,123.05l-8,4.81c-31.23-51.95-71.6-66.03-105.88-123.04"/>
        <path class="cls-1" d="M375.74,767.04c-32.22-53.59-71.44-65.76-106.8-124.57l-8,4.81c35.36,58.81,74.57,70.99,106.79,124.58"/>
        <path class="cls-1" d="M342.72,786.9c-34.28-57.01-27.8-99.26-59.03-151.21l-8,4.81c31.23,51.95,24.74,94.2,59.02,151.22"/>
        <polygon class="cls-1" points="281.51 579.16 268.18 613.99 265.01 706 276.28 668.24 281.51 579.16"/>
        <polygon class="cls-1" points="212.77 613.29 251.63 623.46 331.75 666.24 294.42 657.87 212.77 613.29"/>
        <rect class="cls-1" x="255.89" y="636.86" width="33.45" height="8.76" transform="translate(-282.92 220.66) rotate(-29.84)"/>
        <polygon class="cls-1" points="260.51 653.18 264.41 661.02 294.48 646.39 290.6 638.54 260.51 653.18"/>
        <polygon class="cls-1" points="284.75 629.35 280.85 621.5 250.77 636.15 254.67 643.99 284.75 629.35"/>
      </g>
      <g>
        <path class="cls-1" d="M375.75,767.06c16.11,26.8,22.26,50.28,28.79,74.41.83,3.01,1.65,6.04,2.49,9.09.04.09-.03,0-.08-.07l-.15-.19c-.11-.12-.22-.24-.33-.35-.23-.23-.47-.43-.73-.63-.54-.52-1.16-.9-1.83-1.28-.67-.42-1.43-.65-2.15-.91-.37-.11-.75-.19-1.13-.24-.36-.07-.72-.12-1.08-.14-2.93-.08-5.01.93-6.63,2.56-.39.42-.8.87-1.1,1.39-.38.5-.59,1.08-.85,1.66-.12.29-.2.6-.26.91-.09.29-.15.59-.18.9-.04.63-.1,1.13,0,1.68.08.52.14.89.34,1.3.03.09.03.02.04-.04v-.15s.04-.31.04-.31l.05-.61c.07-.82.14-1.64.21-2.47.26-3.3.48-6.66.63-10.1.6-13.73.17-28.6-2.29-45.58l9.24-1.34c2.46,16.98,2.89,31.85,2.3,45.58-.15,3.43-.36,6.79-.63,10.1-.07.83-.14,1.65-.21,2.47-.04.4-.06.85-.12,1.2-.11.2-.15.41-.27.55-.47.59-1.01.62-1.49.47-.48-.16-.86-.56-.62-.99.03-.05.06-.09.1-.12.05-.06.1-.1.15-.13.09-.03.25-.14.36-.14.12-.03.28-.09.38-.06.06-.03.13-.05.18-.06.03,0,.06,0,.08,0h.04s.03.02,0-.05c-.84-3.05-1.67-6.08-2.49-9.09-6.54-24.13-12.69-47.62-28.8-74.41"/>
        <path class="cls-1" d="M342.73,786.92c17.14,28.51,35.8,46.28,54.08,63.42,1.14,1.07,2.28,2.14,3.42,3.21l.43.4.21.2.11.1s.01-.05.02-.07c0-.26-.05-.43-.15-.71-.2-.57-.68-1.14-1.28-1.65-.63-.45-1.32-.85-2.05-.99-.71-.23-1.43-.23-2.19-.15-.72.13-1.58.38-2.33.95-.84.53-1.55,1.4-2.12,2.37-.14.24-.25.51-.34.77-.12.24-.22.49-.29.75-.12.56-.27.96-.31,1.42-.01.11-.02.23-.02.34,0,.02,0,.08,0,.06l-.03-.07-.06-.14-.23-.54-.45-1.09c-.59-1.46-1.18-2.92-1.78-4.39-1.17-2.94-2.3-5.92-3.39-8.96-4.35-12.15-7.97-25.18-10.14-40.18l9.24-1.34c2.17,15,5.79,28.03,10.14,40.18,1.09,3.04,2.22,6.02,3.39,8.96.6,1.47,1.19,2.93,1.78,4.39l.45,1.09.23.54c.03.07.09.22.1.23l.07.09c.09.12.24.27.29.39l.14.21.08.21c.14.32.12.66.06,1.09-.13.37-.32.85-.69,1.2-.34.41-.81.69-1.34.95-.53.18-1.16.36-1.79.28-.66-.01-1.32-.26-1.97-.62-.62-.38-1.23-.94-1.78-1.47-1.14-1.07-2.28-2.14-3.42-3.21-18.28-17.14-36.94-34.91-54.08-63.42"/>
        <path class="cls-1" d="M337.91,632.48c8.97,61.88,40.43,88.28,50.27,156.2l9.24-1.34c-9.85-67.92-41.29-94.31-50.26-156.2"/>
        <path class="cls-1" d="M376.05,626.95c9.55,65.83-12.78,102.29-4.08,162.27l9.24-1.34c-8.7-59.99,13.64-96.44,4.09-162.27"/>
        <polygon class="cls-1" points="352.1 842.19 377.87 815.23 416.4 731.61 391.39 762.07 352.1 842.19"/>
        <polygon class="cls-1" points="428.69 837.32 396.79 812.9 339.47 742.44 370.66 764.62 428.69 837.32"/>
        <rect class="cls-1" x="367.6" y="784.01" width="33.45" height="8.76" transform="translate(-94.15 53.32) rotate(-7.07)"/>
        <polygon class="cls-1" points="400.1 782.06 399.54 773.32 366.15 775.18 366.7 783.92 400.1 782.06"/>
        <polygon class="cls-1" points="368.53 794.66 369.1 803.4 402.5 801.54 401.94 792.8 368.53 794.66"/>
      </g>
      <g>
        <path class="cls-1" d="M337.91,632.46c-8.97-61.88,13.69-96.12,3.84-164.04l9.24-1.34c9.85,67.92-12.8,102.16-3.83,164.04"/>
        <path class="cls-1" d="M376.05,626.93c-9.55-65.83-41.3-94.44-50-154.43l9.24-1.34c8.7,59.99,40.47,88.59,50.02,154.43"/>
        <path class="cls-1" d="M291.81,284.7c-.04,9.47.7,18.83,2.24,27.91,1.5,9.07,3.77,17.83,6.49,26.17,7.18,21.91,15.49,40.61,22.82,59.43,7.12,17.39,13.48,36.45,17.04,60.98l9.24-1.34c-3.56-24.52-9.92-43.61-17.03-60.96-7.17-17.76-15.34-35.49-22.37-56.33-2.68-7.94-4.98-16.29-6.64-25-1.68-8.71-2.69-17.74-3.02-26.96"/>
        <path class="cls-1" d="M328.81,301.16c2.39,16.48,2.48,30.07,1.6,43.11-.62,9.28-1.74,18.26-2.92,27.46-.6,4.71-1.19,9.35-1.79,14-.28,2.4-.56,4.8-.84,7.2-.13,1.22-.26,2.44-.39,3.67l-.19,1.85-.2,1.73c-2.09,18.42-3.11,37.38.11,59.56l9.24-1.34c-3.22-22.18-2.19-41.14-.1-59.56,1.02-9.37,2.35-18.32,3.62-26.96,1.27-8.67,2.46-17.11,3.17-25.81,1-12.23,1.04-24.93-1.21-40.39"/>
        <polygon class="cls-1" points="304.32 512.71 330.1 485.74 368.62 402.13 343.62 432.59 304.32 512.71"/>
        <polygon class="cls-1" points="380.92 507.84 349.02 483.42 291.69 412.96 322.88 435.13 380.92 507.84"/>
        <rect class="cls-1" x="319.82" y="454.52" width="33.45" height="8.76" transform="translate(-53.94 44.93) rotate(-7.07)"/>
        <polygon class="cls-1" points="352.33 452.57 351.77 443.83 318.38 445.69 318.92 454.43 352.33 452.57"/>
        <polygon class="cls-1" points="320.75 465.17 321.32 473.91 354.72 472.05 354.16 463.31 320.75 465.17"/>
      </g>
      <g>
        <path class="cls-1" d="M291.81,284.67c0-2.15.03-4.22.11-6.23.04-1.01.02-2,.33-3.03.28-1.02.77-2.02,1.42-2.87.64-.87,1.43-1.57,2.27-2.1.84-.55,1.67-1.11,2.49-1.65,1.65-1.09,3.38-2.14,5.07-3.17,3.35-2.05,6.88-3.97,10.33-5.78,1.74-.9,3.54-1.76,5.3-2.6,1.77-.84,3.52-1.66,5.34-2.43,7.13-3.14,14.49-5.74,21.76-8.04,7.35-2.25,14.65-4.19,21.79-6.09,14.29-3.8,28.03-7.3,41.9-11.84,3.54-1.17,6.8-2.26,10.18-3.48,3.38-1.22,6.81-2.55,10.3-4,6.99-2.9,14.22-6.31,21.78-10.37l4.42,8.23c-15.12,8.12-28.94,13.61-42.06,17.74-13.16,4.16-26.26,7.32-39.92,10.78-6.82,1.73-13.8,3.51-20.86,5.56-7.02,2.08-14.14,4.44-21.14,7.27-7.01,2.82-13.98,6.08-20.75,9.83-1.69.94-3.41,1.9-5.08,2.9-.83.5-1.67,1.01-2.51,1.52-.84.49-1.64,1.13-2.26,1.96-.63.81-1.1,1.77-1.35,2.76-.28.99-.21,1.97-.21,2.95,0,1.96.05,3.98.14,6.07"/>
        <path class="cls-1" d="M328.81,301.14c-.29-1.98-.6-3.94-.93-5.89-.19-.97-.33-1.96-.12-2.92.19-.95.63-1.83,1.24-2.53.6-.72,1.42-1.14,2.16-1.62.75-.48,1.49-.95,2.23-1.43,1.46-.95,2.89-1.91,4.28-2.86,5.55-3.83,10.53-7.71,15.21-11.69,9.37-7.93,17.59-16.24,26.4-24.85,8.79-8.6,18.15-17.51,29.28-26.39,1.29-1.04,2.59-2.09,3.91-3.14,1.28-1.02,2.57-2.03,3.89-3.03,2.64-2.01,5.36-3.99,8.19-5.93,5.66-3.89,11.75-7.65,18.43-11.23l4.42,8.23c-6.67,3.59-12.77,7.34-18.43,11.23-2.83,1.95-5.56,3.92-8.19,5.93-1.32,1-2.62,2.01-3.89,3.03-1.29,1.04-2.57,2.08-3.84,3.1-10.47,8.53-19.21,17.11-27.37,25.37-8.18,8.27-15.77,16.23-24.43,23.79-4.34,3.78-8.95,7.47-14.11,11.09-1.29.91-2.62,1.81-3.98,2.71-.69.45-1.38.89-2.08,1.35-.69.45-1.46.85-2.02,1.53-.57.66-.97,1.48-1.15,2.37-.19.9-.06,1.83.12,2.74.32,1.83.61,3.67.88,5.53"/>
        <path class="cls-1" d="M589.99,105.95c-55.09,29.59-69.14,68.17-129.6,100.65l4.42,8.23c60.46-32.48,74.51-71.05,129.6-100.64"/>
        <path class="cls-1" d="M608.23,139.9c-58.6,31.48-100.49,22.96-153.89,51.65l4.42,8.23c53.4-28.68,95.29-20.15,153.89-51.63"/>
        <polygon class="cls-1" points="397.77 190.98 431.92 205.98 523.66 213.6 486.49 200.52 397.77 190.98"/>
        <path class="cls-1" d="M429,261.04l.46-2.24c.17-.75.29-1.48.58-2.3l1.51-4.79,3.01-9.58,6.02-19.16,46.61-77.96-10.17,36.89-24.24,39.7-12.12,19.85-6.06,9.92-3.03,4.96-.76,1.24c-.25.41-.52.84-.69,1.2l-1.12,2.27Z"/>
        <rect class="cls-1" x="454.96" y="186.14" width="8.76" height="33.45" transform="translate(-42 231.22) rotate(-27.07)"/>
        <polygon class="cls-1" points="470.69 215.53 478.71 212.02 465.54 181.27 457.52 184.78 470.69 215.53"/>
        <polygon class="cls-1" points="448.05 190.17 440.03 193.69 453.2 224.44 461.22 220.93 448.05 190.17"/>
      </g>
    </g>
  </g>
</svg>