<?xml version="1.0" encoding="UTF-8"?>
<svg id="Layer_2" data-name="Layer 2" xmlns="http://www.w3.org/2000/svg" viewBox="0 0 506.43 1067.65">
  <defs>
    <style>
      .cls-1 {
        fill: #bfbfbf;
        stroke: #000;
        stroke-linecap: round;
        stroke-width: 4.5px;
      }
    </style>
  </defs>
  <g id="Layer_2-2" data-name="Layer 2">
    <g>
      <g>
        <g>
          <path class="cls-1" d="M504.18,58.82c-55.95,27.98-95.59,17.23-156.99,47.93l-4.18-8.35c61.41-30.7,101.04-19.97,156.99-47.94"/>
          <path class="cls-1" d="M486.95,24.35c-59.52,29.76-76.71,68.91-130.95,96.02l-4.18-8.35c54.23-27.12,71.42-66.28,130.94-96.04"/>
          <path class="cls-1" d="M249.52,207.85c-.32-6.25-1.08-12.3-2.15-18.35-.31-1.51-.05-3.06.64-4.22.68-1.21,1.79-1.79,2.71-2.6,1.89-1.54,3.7-3.11,5.45-4.71,6.98-6.4,13.11-13.35,20.2-20.75,6.92-7.24,14.75-14.92,24.72-22.72,2.49-1.95,5.11-3.9,7.87-5.86,1.35-.96,2.89-2,4.4-3,1.52-1.01,3.07-2.01,4.66-3.01,6.35-3.99,13.24-7.91,20.84-11.71l-4.18-8.35c-7.6,3.8-14.49,7.71-20.84,11.71-6.31,3.98-12.24,8.11-17.57,12.18-10.68,8.16-19.16,16.16-26.71,23.71-7.73,7.72-14.5,14.98-22.16,21.73-1.92,1.69-3.9,3.34-5.97,4.97-1,.85-2.21,1.47-2.96,2.76-.76,1.24-1.05,2.89-.74,4.51,1.1,6.47,1.87,12.96,2.22,19.68"/>
          <path class="cls-1" d="M210.37,191.32c-.26-8.2-.07-15.67.35-22.54.12-1.72,1.04-3.43,2.47-4.58.7-.59,1.55-1,2.42-1.32.87-.34,1.73-.67,2.59-1.01,3.45-1.32,6.88-2.54,10.3-3.67,3.41-1.13,6.81-2.16,10.17-3.11,3.39-.93,6.73-1.78,10.02-2.58,6.57-1.6,12.93-2.96,19.09-4.21,27.23-5.69,47.28-7.47,76.69-22.17l-4.18-8.35c-7.04,3.52-13.88,6.42-20.56,8.87-1.67.61-3.33,1.19-4.99,1.75-1.63.55-3.35,1.12-4.86,1.56-3.1.93-6.22,1.78-9.35,2.59-12.54,3.22-25.53,5.67-39.55,8.71-12.91,2.78-26.65,6.2-40.45,11.38-3.47,1.28-6.89,2.68-10.36,4.17-.86.38-1.72.76-2.58,1.14-.87.37-1.72.82-2.43,1.45-1.45,1.23-2.43,3.01-2.63,4.78-.74,7.04-1.26,14.73-1.23,23.28"/>
          <path class="cls-1" d="M401.01,128.36l-33.7-15.99-45.76-5.14-22.89-2.57c-8.3-.52-17.05-.81-26.27-.88,14.89,3.41,28.31,7.55,40.18,12.46l88.43,12.12Z"/>
          <path class="cls-1" d="M372.32,57.17l-13.17,37.96-24.45,38.29-12.18,19.12c-2.77,5.73-5.11,11.24-7.02,16.54.19-5.25.72-10.68,1.6-16.28.45-2.8.95-5.63,1.59-8.54l2.81-9.15,50.81-77.95Z"/>
          <rect class="cls-1" x="335.41" y="97.96" width="8.76" height="33.45" transform="translate(-16.35 156.76) rotate(-25.39)"/>
          <polygon class="cls-1" points="328.82 101.69 320.69 104.97 332.95 136.08 341.08 132.82 328.82 101.69"/>
          <polygon class="cls-1" points="350.7 127.7 358.83 124.41 346.56 93.29 338.44 96.57 350.7 127.7"/>
        </g>
        <g>
          <path class="cls-1" d="M249.52,207.87c1.28,24.61-4.71,41.1-10.39,63.46-5.58,24.38-11.11,49.53-9.33,83.81l-9.33.48c-1.78-34.28,3.75-59.43,9.33-83.81l.52-2.28.53-2.13,1.05-4.2c.68-2.73,1.36-5.46,2.05-8.21,1.32-5.41,2.54-10.72,3.55-16.1,2-10.79,3.14-21.78,2.45-35.06"/>
          <path class="cls-1" d="M210.37,191.34c.5,17.08,3.13,32.83,6.4,46.68,1.64,6.95,3.48,13.47,5.4,19.64.96,3.08,1.95,6.08,2.94,9,1.01,2.97,2.01,5.91,3.01,8.85,8.07,23.73,16.11,46.73,17.68,77l-9.33.48c-1.57-30.28-9.61-53.27-17.69-77-4.03-11.73-8.13-24.7-11.46-39.37-1.65-7.34-3.16-15.14-4.29-23.37-1.13-8.23-1.75-16.86-1.77-25.75"/>
          <path class="cls-1" d="M265.98,524.67c-3.25-62.47-32.14-91.66-35.7-160.22l-9.33.48c3.56,68.56,32.44,97.75,35.69,160.22"/>
          <path class="cls-1" d="M227.5,526.67c-3.45-66.46,22.13-100.72,18.98-161.27l-9.33.48c3.15,60.55-22.45,94.81-19,161.27"/>
          <polygon class="cls-1" points="271.14 314.46 242.99 338.95 196.94 418.69 224.64 390.65 271.14 314.46"/>
          <polygon class="cls-1" points="194.42 312.26 223.94 339.52 274.54 414.98 245.52 390.03 194.42 312.26"/>
          <rect class="cls-1" x="217.38" y="360.71" width="33.45" height="8.76" transform="translate(-11.33 7.52) rotate(-1.8)"/>
          <polygon class="cls-1" points="217.8 369.95 217.56 378.7 250.98 379.92 251.24 371.16 217.8 369.95"/>
          <polygon class="cls-1" points="250.4 360.3 250.64 351.54 217.21 350.32 216.97 359.08 250.4 360.3"/>
        </g>
        <g>
          <path class="cls-1" d="M265.98,524.69c3.25,62.47-22.47,94.49-18.9,163.06l-9.33.48c-3.56-68.56,22.14-100.58,18.89-163.06"/>
          <path class="cls-1" d="M227.5,526.69c3.45,66.46,32.45,97.88,35.59,158.43l-9.33.48c-3.15-60.55-32.15-91.98-35.61-158.43"/>
          <path class="cls-1" d="M283.72,866.12c-.98-18.88-3.56-35.59-6.9-50.46-.21-1-.41-1.67-.62-2.48-.21-.78-.42-1.56-.63-2.33-.44-1.55-.88-3.08-1.31-4.6-.89-3.05-1.82-6.05-2.78-9.04-1.91-5.97-3.93-11.84-5.95-17.76-8.07-23.68-16.19-48.11-17.97-82.39l-9.33.48c1.78,34.28,9.89,58.72,17.96,82.39,2.02,5.92,4.03,11.79,5.95,17.76.96,2.98,1.89,5.99,2.78,9.04.43,1.52.87,3.06,1.31,4.6.21.77.42,1.55.63,2.33.21.8.41,1.51.62,2.44,3.3,14.12,5.83,30.02,6.77,47.97"/>
          <path class="cls-1" d="M244.69,857.67c-.83-15.97.17-29.66,2.04-43.11,1.86-13.5,4.64-25.91,7.43-38.13,5.57-24.44,11.18-48.14,9.61-78.42l-9.33.48c1.57,30.28-4.04,53.98-9.61,78.42-2.79,12.22-5.56,24.63-7.43,38.13-.22,1.61-.44,3.23-.67,4.87-.21,1.59-.4,3.19-.58,4.79-.35,3.22-.64,6.48-.84,9.81-.4,6.67-.47,13.61-.08,21.11"/>
          <polygon class="cls-1" points="288.42 647.07 260.27 671.56 214.22 751.3 241.92 723.26 288.42 647.07"/>
          <polygon class="cls-1" points="211.7 644.87 241.22 672.13 291.82 747.59 262.8 722.64 211.7 644.87"/>
          <rect class="cls-1" x="234.66" y="693.32" width="33.45" height="8.76" transform="translate(-21.75 8.22) rotate(-1.8)"/>
          <polygon class="cls-1" points="235.08 702.56 234.84 711.31 268.26 712.53 268.52 703.77 235.08 702.56"/>
          <polygon class="cls-1" points="267.68 692.91 267.92 684.15 234.49 682.93 234.25 691.69 267.68 692.91"/>
        </g>
        <g>
          <path class="cls-1" d="M283.72,866.14c.19,3.6.31,7.1.34,10.12.12,8.52-.5,16.27-1.54,23.36-.55,3.52-1.14,6.92-1.86,10.12-.68,3.25-1.48,6.28-2.27,9.25-.8,2.96-1.67,5.75-2.5,8.53l-.65,2.03c-.23.68-.4,1.34-.7,2.02-.61,1.35-1.69,2.68-3.06,3.69-.69.5-1.45.92-2.26,1.23-.81.3-1.63.57-2.45.85-1.63.55-3.29,1.09-4.95,1.61-3.31,1.06-6.64,2.06-10.02,3.04-13.47,3.92-27.4,7.24-41.55,11.16-14.19,3.93-28.33,8.73-43.65,15.78l-4.33-8.29c14.44-6.64,27.82-11.09,41.31-14.7,13.46-3.58,27-6.37,40.34-9.72,3.34-.83,6.66-1.7,9.95-2.61l4.94-1.4c.82-.24,1.64-.47,2.45-.73.8-.27,1.56-.65,2.24-1.12,1.35-.94,2.39-2.21,2.93-3.52.27-.66.41-1.31.6-1.97l.55-1.98c.71-2.69,1.45-5.41,2.13-8.28,1.37-5.71,2.63-11.86,3.54-18.63.89-6.77,1.42-14.17,1.32-22.26-.03-2.88-.14-6.2-.32-9.62"/>
          <path class="cls-1" d="M244.69,857.69c.15,2.87.35,5.69.58,8.16,1.33,14.83,4.03,28.61,7.41,42.54.89,3.5,1.61,6.9,2.41,10.32.48,1.7.49,3.46,0,4.94-.47,1.51-1.4,2.66-2.44,3.44-4.03,3.44-7.9,7.03-11.84,10.73-7.91,7.38-16.22,15.28-26.88,22.75-10.59,7.48-23.08,14.94-38.04,21.82l-4.42-8.25c14.18-6.52,25.97-13.66,35.9-20.84,4.98-3.59,9.47-7.24,13.65-10.85,4.17-3.62,8.13-7.12,11.9-10.61,3.6-3.42,7.22-6.85,10.92-10.36.93-.77,1.75-1.9,2.1-3.37.38-1.45.27-3.17-.27-4.82-.91-3.32-1.79-6.62-2.62-9.91-3.34-13.18-6-26.16-7.28-40.09-.23-2.31-.42-4.96-.56-7.65"/>
          <path class="cls-1" d="M22.26,1065.4c56.83-26.14,73.25-63.79,135.62-92.48l-3.9-8.48c-62.37,28.69-78.79,66.32-135.63,92.47"/>
          <path class="cls-1" d="M6.16,1030.4c60.46-27.81,101.75-16.73,156.84-42.07l-3.9-8.48c-55.09,25.34-96.39,14.25-156.84,42.06"/>
          <path class="cls-1" d="M232.45,986.39c-15.82-3.5-30.35-7.6-43.58-12.29-8.87-.52-17.28-1.25-25.22-2.19-4-.46-7.74-1.04-11.55-1.58l-11.39-1.66-45.56-6.63,36.3,15.35,22,3.75,11.03,1.86c3.97.48,8.06.91,12.26,1.29,16.79,1.52,35.36,2.22,55.72,2.1Z"/>
          <path class="cls-1" d="M184.66,924.17c-.43,10.49-2.4,21.7-5.94,33.62-3.76,6-7.95,12.21-12.58,18.62-1.13,1.59-2.4,3.24-3.5,4.82l-3.21,4.68-6.42,9.37-25.68,37.47,12.44-36.2,13.33-19.07c4.4-6.33,9.08-12.8,13.02-18.92,7.99-12.3,14.17-23.76,18.54-34.4Z"/>
          <path class="cls-1" d="M155.95,959.68l-7.93,3.45,13.32,30.68,8.29-3.61c-4.52-10.19-9.08-20.36-13.68-30.51Z"/>
          <polygon class="cls-1" points="148.16 963.37 139.93 966.39 151.17 997.89 159.4 994.88 148.16 963.37"/>
          <path class="cls-1" d="M169.43,989.98l9.56-3.63c-4.26-10.27-8.71-20.44-13.36-30.54l-7.89,2.86c4.08,10.35,7.98,20.79,11.69,31.31Z"/>
        </g>
      </g>
      <g>
        <path class="cls-1" d="M325.68,2.25c28.58,18.44,27.75,50.44,59.12,70.68l-5.06,7.85c-31.36-20.23-30.55-52.23-59.12-70.66"/>
        <path class="cls-1" d="M304.79,34.63c30.4,19.61,60.24,6.34,87.94,24.21l-5.06,7.85c-27.7-17.87-57.54-4.59-87.94-24.2"/>
        <path class="cls-1" d="M477.82,100.4c-28.58-18.44-57.4-4.5-88.76-24.73l-5.06,7.85c31.36,20.23,60.18,6.3,88.75,24.74"/>
        <path class="cls-1" d="M456.93,132.78c-30.4-19.61-30.61-52.27-58.31-70.14l-5.06,7.85c27.7,17.87,27.9,50.53,58.3,70.15"/>
        <polygon class="cls-1" points="390.75 25.12 385.32 56.58 393.44 121.47 397.09 89.17 390.75 25.12"/>
        <polygon class="cls-1" points="346.45 87.58 374.8 72.47 435.7 56.28 408.62 71.76 346.45 87.58"/>
        <polygon class="cls-1" points="380.31 85.32 384.22 88.05 402.67 60.16 398.77 57.43 380.31 85.32"/>
        <polygon class="cls-1" points="384.36 87.81 387.97 90.97 407.38 63.84 403.78 60.67 384.36 87.81"/>
        <polygon class="cls-1" points="398.65 57.69 395.04 54.53 375.62 81.66 379.23 84.83 398.65 57.69"/>
      </g>
    </g>
  </g>
</svg>