<?xml version="1.0" encoding="UTF-8"?>
<svg id="Layer_2" data-name="Layer 2" xmlns="http://www.w3.org/2000/svg" viewBox="0 0 986.44 836.53">
  <defs>
    <style>
      .cls-1 {
        fill: #bfbfbf;
        stroke: #000;
        stroke-linecap: round;
        stroke-width: 4.5px;
      }
    </style>
  </defs>
  <g id="Layer_2-2" data-name="Layer 2">
    <g>
      <g>
        <path class="cls-1" d="M67.63,61.8c4.29,10.37,5.28,17.23,4.95,23.13-.34,5.87-2.02,10.75-3.36,16.46-1.34,5.7-2.33,12.24-1.47,21.02.85,8.75,3.57,19.79,9.33,33.71l-11.97-4.5c-6.1-14.77-8.84-26.39-10.27-35.97-1.14-9.45-.4-16.6.69-22.9,1.08-6.31,2.52-11.77,2.6-18.28.07-6.54-1.21-14.08-5.82-25.22"/>
        <path class="cls-1" d="M9.61,14.22c2.65,6.88,5.48,13.59,8.54,20.23,3.06,6.63,6.36,13.21,9.89,19.71.91,1.64,1.8,3.26,2.69,4.86.46.81.92,1.62,1.38,2.42l.35.61.42.65.83,1.3c2.23,3.46,4.48,6.88,6.74,10.25,4.52,6.74,9.09,13.3,13.56,19.65,8.96,12.71,17.56,24.56,24.99,35.81,7.44,11.28,13.7,21.93,18.23,32.88l-12.01-4.59c-4.85-11.71-11.38-23.02-19.08-34.93-3.85-5.95-7.98-12.02-12.31-18.28-2.22-3.19-4.42-6.36-6.62-9.53l-1.69-2.43-.85-1.22-.76-1.17c-1.01-1.56-2.01-3.13-3.02-4.69-4.02-6.28-7.91-12.59-11.61-18.96-3.7-6.38-7.22-12.81-10.45-19.23-3.24-6.42-6.25-12.97-8.99-19.48-2.74-6.5-5.22-13.09-7.51-19.82"/>
        <path class="cls-1" d="M159.81,284.48c-.68-1.64-1.37-3.24-2.07-4.81-.36-.78-.71-1.56-1.07-2.33-.3-.61-.6-1.21-.89-1.81-1.2-2.38-2.46-4.66-3.78-6.87-2.64-4.43-5.53-8.61-8.62-12.73-6.18-8.22-13.18-16.22-20.54-25.05-7.35-8.82-15.05-18.49-22.43-29.62-7.37-11.09-14.43-23.7-20.19-37.61l-11.78-4.04c6.11,14.77,13.48,28.11,21.13,39.87,7.66,11.8,15.61,22.07,23.2,31.49,7.6,9.44,14.85,18.02,21.29,26.88,3.22,4.43,6.24,8.94,9.03,13.72,1.39,2.39,2.73,4.85,4,7.41.31.64.63,1.29.95,1.94.35.77.71,1.54,1.07,2.33.7,1.57,1.4,3.17,2.07,4.81"/>
        <path class="cls-1" d="M124.21,299.22c-2.84-6.86-5.3-13.92-7.22-20.51-1.92-6.6-3.36-12.86-4.42-18.77-2.13-11.83-2.74-22.25-3.01-31.82-.27-9.58-.19-18.31-1.1-27.22-.93-8.94-2.84-18.02-7.37-28.97l-11.74-3.95c4.85,11.71,7.03,21.46,8.22,31.02,1.18,9.54,1.33,18.86,1.85,29.04.51,10.16,1.38,21.19,3.78,33.69,1.2,6.24,2.77,12.84,4.85,19.81,1.04,3.48,2.2,7.06,3.5,10.72.33.91.66,1.83,1,2.76.32.86.64,1.72.97,2.59.65,1.71,1.34,3.43,2.06,5.17"/>
        <path class="cls-1" d="M123.5,154.77c-11.55-2.29-22.6-3.38-33.15-3.27-14.15,9.5-25.46,25.86-33.93,49.08,7.45-7.38,15.46-13.39,24.05-18.03,11.62-15.84,25.96-25.1,43.03-27.78Z"/>
        <path class="cls-1" d="M19.83,97.91c7.3,7.49,14.72,14.77,22.27,21.85,7.57,7.09,15.31,14.02,23.03,20.63,29.46,30.55,56.26,54.65,80.39,72.3-12.71-6.58-25.96-14.47-39.75-23.65-13.49-12.13-27.72-25.96-42.56-41.42-3.69-3.85-7.45-7.83-11.14-11.86-3.68-4.02-7.35-8.12-11.02-12.3-3.7-4.2-7.23-8.37-10.76-12.63-3.52-4.25-7.01-8.56-10.46-12.93Z"/>
        <polygon class="cls-1" points="62.59 154.68 65.55 162.3 107.58 176.4 105.27 170.34 62.59 154.68"/>
        <path class="cls-1" d="M65.9,162.4l2.31,7.41c14.03,4.87,28,9.56,41.88,14.08l-1.66-5.87c-14.11-5.03-28.29-10.24-42.54-15.62Z"/>
        <path class="cls-1" d="M104.93,170.27l-1.64-5.79c-14.57-6.18-29.28-12.57-43.93-19.08l2.23,7.3c14.52,6.03,28.97,11.88,43.34,17.56Z"/>
      </g>
      <g>
        <path class="cls-1" d="M159.82,284.5c21.69,52.4,7.05,88.52,30.86,146.03l-8.63,3.57c-23.81-57.51-9.18-93.63-30.87-146.02"/>
        <path class="cls-1" d="M124.22,299.24c23.07,55.74,59.72,72.83,80.75,123.62l-8.63,3.57c-21.02-50.79-57.69-67.88-80.76-123.62"/>
        <path class="cls-1" d="M275.29,563.45c-21.69-52.4-57.58-67.61-81.38-125.12l-8.63,3.57c23.8,57.5,59.68,72.72,81.37,125.12"/>
        <path class="cls-1" d="M239.69,578.19c-23.07-55.74-9.23-93.73-30.25-144.52l-8.63,3.57c21.02,50.79,7.17,88.79,30.24,144.53"/>
        <polygon class="cls-1" points="217.44 381.7 198.27 412.2 178.74 496.07 196.43 462.68 217.44 381.7"/>
        <polygon class="cls-1" points="144.61 405.79 180.51 419.14 250.63 466.63 215.89 455.08 144.61 405.79"/>
        <polygon class="cls-1" points="180.7 439.98 183.57 447.39 214.71 435.2 211.84 427.79 180.7 439.98"/>
        <polygon class="cls-1" points="183.82 447.27 186.2 454.85 218.01 444.58 215.64 436.99 183.82 447.27"/>
        <polygon class="cls-1" points="211.61 427.97 209.22 420.39 177.41 430.66 179.79 438.24 211.61 427.97"/>
      </g>
      <g>
        <path class="cls-1" d="M275.3,563.47c5.42,13.09,8.59,25.21,10.61,36.81,1.25,9.73,1.7,19.73,2.49,30.58.79,10.83,1.92,22.51,4.38,35.14,2.44,12.6,6.23,26.21,11.99,40.13l-6.16,9.53c-6.11-14.77-10.2-29.11-12.92-42.39-2.73-13.3-4.12-25.59-5.16-37.02-1.04-11.45-1.73-22.04-3.25-32.4-2.04-11.62-5.2-23.72-10.62-36.82"/>
        <path class="cls-1" d="M239.7,578.21c5.77,13.95,12.38,25.43,19.4,35.71,7.05,10.33,14.23,18.74,21.05,26.29,6.83,7.57,13.31,14.29,19.15,21.7,5.85,7.43,11.04,15.51,15.57,26.46l-6.2,9.44c-4.85-11.71-10.31-20.45-16.42-28.51-6.1-8.03-12.82-15.34-19.9-23.51-7.07-8.15-14.51-17.17-21.83-28.16-.88-1.34-1.77-2.69-2.68-4.06-.86-1.32-1.72-2.67-2.57-4.03-1.7-2.74-3.36-5.57-4.99-8.52-3.25-5.9-6.35-12.26-9.23-19.23"/>
        <path class="cls-1" d="M381.4,748.86c-4.01,3.93-7.86,8.3-11.68,13.09-.95,1.2-1.91,2.42-2.86,3.67-.48.63-.95,1.26-1.43,1.89-.48.63-.93,1.3-1.5,1.84-1.1,1.12-2.47,1.81-3.75,2.1-1.28.29-2.47.16-3.32-.23-.41-.2-.74-.45-1.02-.72l-.87-.77c-.58-.5-1.17-.99-1.76-1.46-1.18-.94-2.39-1.82-3.61-2.68-2.55-1.75-5.06-3.48-7.59-5.22-5.22-3.69-10.8-8.22-16.58-15.49-5.77-7.24-11.77-17.28-17.54-31.19l-5.96,9.98c6.16,14.71,12.56,25.22,18.46,33.47,6.06,7.95,11.89,13.09,17.36,17.37,2.66,2.04,5.29,4.06,7.96,6.12,1.29,1.01,2.55,2.05,3.8,3.14.62.55,1.24,1.11,1.86,1.69l.92.89c.29.31.64.6,1.08.83.9.46,2.17.64,3.54.36,1.36-.27,2.82-.99,4-2.15.6-.56,1.09-1.27,1.6-1.93.51-.66,1.01-1.32,1.52-1.99,1.02-1.31,2.04-2.6,3.06-3.86,4.09-5.05,8.21-9.69,12.53-13.92"/>
        <path class="cls-1" d="M374.38,807.32c-5.47,5.06-10.57,9.35-15.25,13.09-1.17.92-2.32,1.83-3.46,2.72-.58.43-1.11.9-1.71,1.27-.62.35-1.33.58-2.07.66-1.5.13-3.14-.37-4.43-1.44-.64-.53-1.22-1.18-1.66-1.94-.43-.76-.73-1.61-.97-2.47-.51-1.73-1.01-3.45-1.51-5.14-.24-.86-.48-1.73-.72-2.58l-.18-.65-.16-.73-.31-1.46c-.82-3.89-1.58-7.77-2.31-11.61-1.45-7.69-2.73-15.24-3.92-22.6-2.4-14.72-4.44-28.58-6.95-41.34-2.52-12.79-5.5-24.44-10.03-35.39l-5.93,10.08c4.85,11.71,8.1,24.02,10.88,37.44,1.39,6.7,2.65,13.66,3.9,20.86.63,3.68,1.25,7.33,1.87,10.98l.47,2.8.24,1.4.27,1.3c.38,1.73.75,3.47,1.13,5.21,3.05,13.87,6.66,27.55,11.17,40.72.27.83.59,1.64,1.05,2.38.47.73,1.07,1.37,1.74,1.89,1.35,1.05,3.04,1.56,4.58,1.49.77-.05,1.49-.25,2.12-.57.62-.33,1.16-.76,1.74-1.15,1.16-.82,2.33-1.64,3.52-2.48,4.75-3.4,10.02-7.42,15.63-12.15"/>
        <path class="cls-1" d="M324.18,639.56c-5.45,12.43-10.41,26.05-14.87,40.88-.93,8.59-1.69,17.6-2.27,27.03-.89,14.28-1.4,29.66-1.13,45.14.24,15.52,1.23,31.14,2.92,46.35l.14-6.91.23-7.03c.18-4.68.43-9.36.74-14.04.62-9.32,1.5-18.75,2.62-28.02.05-4.22.24-8.62.42-12.85.19-4.24.41-8.41.66-12.5.5-8.18,1.12-16.07,1.87-23.65,2-20.29,4.9-38.43,8.69-54.4Z"/>
        <path class="cls-1" d="M264.71,695.91c11,2.12,21.41,2.81,31.23,2.07,4.97,1.81,9.77,3.21,14.41,4.2,13.82,2.96,26.15,2.31,36.97-1.96-6.97,7.28-14.48,13.27-22.53,17.96-6.87-.29-14.18-1.64-21.93-4.05-11.72-3.65-24.43-9.72-38.16-18.21Z"/>
        <polygon class="cls-1" points="298.27 724 301.37 731.83 322.56 695.74 320.13 689.41 298.27 724"/>
        <path class="cls-1" d="M301.54,731.51l2.82,8.31,5.22-8.69,5.3-8.96c3.53-6,7.03-12.04,10.52-18.12l-2.1-6.94c-3.6,5.83-7.21,11.62-10.85,17.36-3.64,5.75-7.28,11.44-10.92,17.04Z"/>
        <path class="cls-1" d="M319.98,689.76l-.61-1.99-1.47-4.84c-7.67,10.5-15.42,20.83-23.24,30.99l2.71,8.37,3.23-4.54c6.51-9.2,12.97-18.53,19.38-27.99Z"/>
      </g>
      <g>
        <path class="cls-1" d="M381.41,748.85c8.01-7.85,14.77-12.08,21.5-15.09,6.71-2.99,13.38-4.73,20.69-7.12,7.3-2.37,15.26-5.38,24.22-10.57,8.94-5.17,18.92-12.56,29.68-23.1l4.44,8.73c-11.42,11.19-21.97,19.13-31.43,24.81-9.48,5.7-17.91,9.17-25.67,12-7.78,2.84-14.9,5.03-22.1,8.5-7.22,3.49-14.5,8.23-23.12,16.67"/>
        <path class="cls-1" d="M374.4,807.3c5.5-5.09,10.72-10.37,15.66-15.86,4.95-5.51,9.6-11.19,13.99-17.05,2.19-2.94,4.31-5.84,6.37-8.89,2.05-3.04,4.04-6.07,5.97-9.08,3.86-6.02,7.47-11.95,10.93-17.74,6.93-11.57,13.2-22.49,19.72-32.47,6.55-10,13.33-19.04,21.8-27.33l4.37,8.79c-9.05,8.87-16.35,18.41-23.38,28.89-7.01,10.45-13.74,21.85-21.13,33.84-7.37,11.94-15.48,24.3-24.7,35.76-4.63,5.81-9.47,11.29-14.65,16.64-2.6,2.69-5.19,5.21-7.91,7.74-2.69,2.5-5.51,5.01-8.31,7.38"/>
        <path class="cls-1" d="M568.04,566c-20.25,19.84-30.56,39.51-41.36,59.66-5.4,10.07-10.92,20.27-17.87,30.67-6.42,9.87-14.7,20.38-25.46,30.93l4.8,8.38c11.42-11.19,20.28-22.26,27.2-32.63,6.95-10.4,12.48-20.59,17.88-30.66,10.8-20.15,21.11-39.81,41.36-59.65"/>
        <path class="cls-1" d="M595,593.53c-21.55,21.11-42.42,32-62.82,42.42-5.1,2.61-10.17,5.18-15.21,7.88-2.52,1.35-5.04,2.73-7.54,4.16-1.25.72-2.5,1.45-3.76,2.19-.62.37-1.25.75-1.88,1.12-.57.33-1.14.66-1.71.99-9.08,5.31-17.55,11.22-26.02,19.52l4.86,8.31c9.05-8.87,18.04-15.28,27.6-21.06,1.23-.74,2.46-1.47,3.68-2.2,1.26-.73,2.51-1.46,3.76-2.18,2.51-1.43,5.02-2.81,7.55-4.16,5.04-2.7,10.11-5.27,15.21-7.88,20.4-10.42,41.28-21.31,62.83-42.42"/>
        <path class="cls-1" d="M439.67,669.29c6.53,7.31,13.99,13.71,22.38,19.2,10.75,1.16,22.83,1.02,36.24-.42,6.7-.72,13.74-1.77,21.11-3.14,3.68-.69,7.45-1.45,11.3-2.3l2.9-.65,2.67-.42,5.32-.83-9.39-.99c-.76-.11-1.63-.1-2.45-.15l-2.48-.12c-1.64-.09-3.27-.19-4.88-.32-6.44-.49-12.61-1.23-18.52-2.24-26.49,2.44-47.89-.11-64.2-7.64Z"/>
        <path class="cls-1" d="M459.21,757.24c4.58-17.58,8.05-34.08,10.41-49.49,5.22-15.99,9.19-30.76,11.92-44.31,1.36-6.77,2.42-13.25,3.16-19.41.37-3.08.66-6.09.88-9.02.07-.74.08-1.43.17-2.21l.56-2.59,1.12-5.17.57,9.14.07,1.14.2,1.02.38,2.05c.25,1.37.48,2.76.7,4.16.87,5.61,1.48,11.47,1.84,17.57-5.48,27.3-16.14,59.68-31.97,97.12Z"/>
        <path class="cls-1" d="M487.29,701.37l6.04-5.67c-5.78-9.94-11.6-19.84-17.45-29.71l-4.84,4.49c5.45,10.27,10.87,20.56,16.25,30.89Z"/>
        <path class="cls-1" d="M493.17,695.47l6.32-5.21c-5.65-10.01-11.44-19.88-17.36-29.63l-5.14,4.04c5.53,10.14,10.92,20.4,16.18,30.8Z"/>
        <path class="cls-1" d="M471.23,670.68l-5.06,3.99c4.63,11.01,9.13,22.15,13.49,33.43l6.25-5.14c-4.76-10.89-9.65-21.65-14.68-32.27Z"/>
      </g>
      <g>
        <path class="cls-1" d="M568.05,565.99c40.51-39.69,79.48-39.6,123.94-83.15l6.54,6.67c-44.46,43.56-83.42,43.48-123.93,83.16"/>
        <path class="cls-1" d="M595.02,593.52c43.09-42.22,45.26-82.6,84.53-121.07l6.54,6.67c-39.27,38.47-41.43,78.86-84.52,121.08"/>
        <path class="cls-1" d="M774.71,363.53c-8.01,7.85-13.43,15.55-18.15,23.76-4.8,8.29-8.28,16.48-14.21,27.08-10.8,20.15-22.09,40.78-44.32,62.56l6.54,6.67c22.23-21.78,33.52-42.41,44.32-62.55,1.35-2.52,2.7-5.02,4.05-7.53l1.02-1.88.92-1.77c.6-1.15,1.2-2.31,1.8-3.47,2.4-4.59,4.8-9.03,7.4-13.37,5.21-8.69,11.15-16.9,19.77-25.34"/>
        <path class="cls-1" d="M812.31,380.63c-11.2,10.97-22.55,19.7-33.32,26.67-10.84,7.04-20.86,12.07-31.13,17.35-20.4,10.42-40.32,20.37-59.95,39.61l6.54,6.67c19.63-19.23,39.56-29.18,59.96-39.6,2.54-1.31,5.1-2.62,7.67-3.95,2.58-1.35,5.1-2.66,7.81-4.19,5.35-3,10.87-6.31,16.52-10.06,11.29-7.48,23.2-16.75,35.04-28.35"/>
        <polygon class="cls-1" points="636.71 476.25 672.16 482.64 757.26 469.44 719.68 465.5 636.71 476.25"/>
        <polygon class="cls-1" points="686.24 534.81 685.23 496.52 703.1 413.74 705.36 450.29 686.24 534.81"/>
        <polygon class="cls-1" points="704.5 488.57 710.29 483.14 687.36 458.8 681.56 464.23 704.5 488.57"/>
        <polygon class="cls-1" points="710.08 482.95 716.23 477.91 694.82 452.24 688.67 457.27 710.08 482.95"/>
        <polygon class="cls-1" points="681.81 464.38 675.67 469.42 697.07 495.1 703.22 490.06 681.81 464.38"/>
      </g>
      <g>
        <path class="cls-1" d="M774.72,363.51c8.01-7.85,16.76-14.03,26.49-19.97,9.7-5.92,20.35-11.57,31.65-17.85,11.29-6.27,23.23-13.19,35.18-21.31,11.93-8.1,23.9-17.44,34.66-27.98l14.1-1.78c-10.89,11.07-22.8,20.92-35.18,29.53-12.47,8.63-24.88,16-36.62,22.73-11.76,6.74-22.86,12.83-33.05,19.23-10.21,6.42-19.48,13.11-28.1,21.55"/>
        <path class="cls-1" d="M812.33,380.62c11.2-10.97,19.21-21.21,24.99-30.46,5.8-9.27,9.39-17.57,12.32-25.22,2.94-7.67,5.23-14.69,8.77-21.74,3.56-7.08,8.35-14.16,16.82-22.46l15.26-1.88c-9.05,8.87-14.35,16.46-18.4,24.01-4.03,7.53-6.76,15-10.17,23.12-3.39,8.11-7.45,16.87-13.76,26.64-6.29,9.75-14.87,20.54-26.7,32.14"/>
        <path class="cls-1" d="M848.58,221.01c10.99,2.27,23.37,3.08,37.29,3.34,6.95.13,14.26.11,21.88.05,3.9-.04,7.77-.08,11.64-.12,1.96.02,4.01-.17,5.9.15,1.88.32,3.56,1.02,4.81,1.9,1.28.87,2.1,1.91,2.52,2.8.41.92.28,1.51.25,2.14-.1,1.27-.27,2.6-.56,4-.57,2.8-1.58,5.88-3.3,9.36-3.42,6.93-9.72,15.5-20.48,26.04l14.19-2.07c5.46-5.54,9.92-10.55,13.81-15.19,1.94-2.32,3.72-4.54,5.38-6.66.82-1.06,1.62-2.1,2.41-3.13.39-.51.77-1.02,1.15-1.52l.56-.75c.18-.25.27-.47.4-.71,1.98-3.73,3.24-7.06,4.05-10.09.41-1.52.7-2.96.92-4.35.1-.69.29-1.33-.09-2.33-.39-.97-1.21-2.09-2.52-3.04-1.27-.96-3.01-1.72-4.96-2.08-1.96-.36-4.1-.18-6.14-.22-4.02,0-8.06.01-12.12.02-7.94,0-15.57-.05-22.86-.25-14.59-.4-27.69-1.36-39.5-3.8"/>
        <path class="cls-1" d="M906.81,195.1c7.29,1.7,13.57,3.51,19.19,5.33,5.6,1.81,10.5,3.62,15.03,5.38,1.12.44,2.23.87,3.32,1.31.54.22,1.08.43,1.61.64l.4.16.29.2.56.4c1.48,1.05,2.79,2.11,3.97,3.18,1.17,1.09,2.24,2.07,3.17,3.23.41.73.66,1.89.41,3.32-.22,1.41-.91,3.04-2.04,4.55-.6.74-1.25,1.49-2.06,2.13-.78.66-1.68,1.22-2.56,1.79l-5.25,3.37c-3.41,2.19-6.82,4.38-10.25,6.58-6.7,4.32-13.11,8.52-19.14,12.63-12.07,8.24-22.53,16.1-31,24.39l15.76-2.36c9.05-8.87,20.03-17.23,32.59-25.95,6.27-4.35,12.92-8.77,19.86-13.33,3.55-2.32,7.07-4.62,10.6-6.92l2.7-1.76,1.35-.88,1.04-.8c.69-.54,1.41-1.06,1.98-1.69.61-.61,1.05-1.32,1.44-2.04.7-1.46.93-3.02.68-4.37-.21-1.37-.93-2.44-1.79-3.08-1.82-.96-3.69-1.75-5.56-2.67-3.76-1.79-7.64-3.66-11.97-5.62-4.33-1.96-8.98-3.97-14.39-6.01-5.46-2.06-11.54-4.12-18.68-6.1"/>
        <path class="cls-1" d="M814.25,302.31c17.95-3.88,36.83-8.67,56.64-14.36,10.25-4.19,20.83-8.71,31.74-13.55,5.46-2.42,10.99-4.92,16.62-7.51,1.5-.66,2.56-1.26,3.79-1.88l3.56-1.86,7.03-3.77c4.65-2.53,9.22-5.09,13.71-7.68,4.49-2.59,8.92-5.24,13.2-7.83,8.58-5.22,16.79-10.5,24.64-15.86-15.13,8.42-31.44,16.6-48.94,24.57l-3.4,1.83c-.25.15-.64.32-.99.48l-1.07.5-2.13.99-8.46,3.88c-5.6,2.55-11.12,5.02-16.56,7.41-10.88,4.78-21.45,9.26-31.7,13.42-20.49,8.32-39.72,15.4-57.67,21.23Z"/>
        <path class="cls-1" d="M921.49,302.88c-6.91-6.82-13.99-12.58-20.79-17.46-7.68-14.23-20.35-23.57-38-28.03,13.5-.3,25.99.38,37.48,2.04,3.2,2.35,6.07,5.02,8.62,8,1.28,1.49,2.47,3.06,3.58,4.71l.82,1.25c.16.44.24.89.36,1.34.23.9.48,1.81.75,2.74,1.05,3.7,2.22,7.65,3.55,11.84.64,2.1,1.21,4.31,1.83,6.56l.93,3.44c.31,1.17.66,2.34.86,3.56Z"/>
        <polygon class="cls-1" points="924.89 270.49 930.6 264.74 905.52 268.47 877.27 272.74 872.22 277.44 899.87 273.75 924.89 270.49"/>
        <polygon class="cls-1" points="930.22 264.81 936.51 259 926.39 260.36 912.36 262.44 884.15 266.76 878.18 271.61 905.8 267.88 919.54 266.08 930.22 264.81"/>
        <polygon class="cls-1" points="872.74 277.33 866.87 282.11 893.15 279.68 906.21 278.55 917.38 277.67 923.78 271.87 912.98 272.9 899.61 274.32 872.74 277.33"/>
      </g>
      <g>
        <path class="cls-1" d="M848.56,221.01c-10.99-2.27-18.02-5.46-23.9-9.3-5.86-3.83-10.53-8.28-16.09-12.92-5.55-4.63-11.99-9.45-20.93-13.92-8.91-4.46-20.36-8.57-35.11-11.61l6.11-8.27c15.66,3.23,27.89,7.5,37.51,12.11,9.65,4.61,16.74,9.56,22.92,14.32,6.2,4.77,11.5,9.35,18.03,13.31,6.56,3.97,14.31,7.31,26.12,9.75"/>
        <path class="cls-1" d="M906.79,195.09c-14.6-3.42-29.61-5.41-44.67-6.15-7.48-.4-15.1-.41-22.47-.3-7.38.11-14.57.37-21.54.67-13.96.6-27.01,1.4-39.31,1.47-12.32.07-23.85-.57-35.46-2.96l6.21-8.25c12.41,2.56,24.64,3.34,37.64,3.41,12.96.06,26.65-.61,41.24-1.08,7.28-.23,14.78-.41,22.31-.35,3.77.03,7.6.09,11.39.24,3.78.15,7.58.37,11.39.66,7.67.57,15.09,1.49,22.6,2.75,3.77.63,7.4,1.35,11.05,2.17,3.64.81,7.27,1.72,10.88,2.71"/>
        <path class="cls-1" d="M597.4,169.15c27.77,5.73,49.84,3.31,72.58,1.03,5.63-.58,11.62-1.09,16.81-1.65,5.43-.51,11.17-.86,17.24-.91,12.13-.11,25.73.95,40.48,4l5.62-8.37c-15.66-3.23-30.04-4.46-42.88-4.49-6.43-.02-12.5.25-18.26.7-5.66.47-11.45,1.01-17.13,1.59-22.74,2.28-44.81,4.7-72.58-1.04"/>
        <path class="cls-1" d="M605.2,131.41c29.54,6.1,50.23,17.35,70.26,28.46,2.5,1.38,4.99,2.76,7.48,4.15,2.29,1.31,4.57,2.62,6.88,3.94,4.53,2.57,8.99,5.02,13.53,7.26,9.1,4.5,18.49,8.18,30.1,10.57l5.53-8.39c-12.41-2.56-22.5-6.39-32.27-11.02-4.88-2.32-9.65-4.83-14.51-7.47-4.98-2.75-9.89-5.46-14.85-8.19-20.03-11.11-40.72-22.37-70.26-28.47"/>
        <path class="cls-1" d="M747.71,216.58c3.83-9.21,6.4-18.68,7.69-28.41-7.66-18.64-22.6-38.79-44.82-60.44,6.43,11.24,11.4,22.17,14.92,32.81,14.38,20.12,21.78,38.8,22.2,56.04Z"/>
        <path class="cls-1" d="M820.84,153.57c-18.49,5.73-35.47,11.78-50.93,18.14-34.61,8.72-62.39,18.85-83.34,30.4,8.31-7.71,17.99-15.13,29.04-22.27,27.98-10.22,63.06-18.97,105.23-26.26Z"/>
        <path class="cls-1" d="M755.88,160.84l-8.05-1.85c-6.63,10.01-13.21,20.03-19.75,30.06l6.4,1.5c7.09-9.92,14.22-19.83,21.4-29.72Z"/>
        <path class="cls-1" d="M747.69,159.25l-7.75-2.31c-6.76,9.94-13.33,19.93-19.71,29.95l6.12,1.99c6.93-9.91,14.05-19.79,21.35-29.62Z"/>
        <path class="cls-1" d="M734.59,190.3l6.03,1.95c8.16-9.66,16.5-19.28,25.03-28.86l-7.65-2.29c-7.99,9.69-15.79,19.43-23.41,29.2Z"/>
      </g>
      <g>
        <path class="cls-1" d="M597.38,169.14c-55.54-11.47-77.21-43.86-138.17-56.45l1.89-9.15c60.95,12.59,82.63,44.97,138.17,56.43"/>
        <path class="cls-1" d="M605.18,131.4c-59.08-12.2-93.8,8.53-147.63-2.58l1.89-9.15c53.83,11.12,88.56-9.63,147.64,2.57"/>
        <path class="cls-1" d="M301.71,108.09c55.54,11.47,88.27-9.69,149.22,2.9l1.89-9.15c-60.95-12.59-93.69,8.56-149.22-2.91"/>
        <path class="cls-1" d="M309.51,70.35c59.08,12.2,82.75,44.99,136.58,56.1l1.89-9.15c-53.83-11.12-77.5-43.92-136.58-56.12"/>
        <polygon class="cls-1" points="484.6 162.25 470.13 129.26 411.68 66.01 429.38 99.4 484.6 162.25"/>
        <polygon class="cls-1" points="505.55 88.46 474.35 110.67 395.69 142.03 424.75 119.77 505.55 88.46"/>
        <polygon class="cls-1" points="457 99.12 449.26 97.34 441.86 129.95 449.6 131.74 457 99.12"/>
        <polygon class="cls-1" points="449.22 97.62 441.61 95.33 432.25 127.42 439.86 129.72 449.22 97.62"/>
        <polygon class="cls-1" points="449.58 131.45 457.2 133.73 466.56 101.63 458.95 99.35 449.58 131.45"/>
      </g>
      <g>
        <path class="cls-1" d="M301.69,108.08c-.87-.19-1.73-.37-2.58-.55-.79-.18-1.57-.37-2.35-.55-1.32-.33-2.63-.67-3.91-1.04-2.56-.73-5.05-1.55-7.48-2.43-4.87-1.77-9.53-3.82-14.18-6.09-9.29-4.53-18.53-9.93-28.67-15.52-10.12-5.58-21.13-11.34-33.5-16.51-12.34-5.16-26.08-9.75-40.83-12.79l-6.38-10.85c15.66,3.23,30.18,7.98,43.22,13.29,13.08,5.32,24.74,11.21,35.49,16.92,10.77,5.71,20.64,11.24,30.6,15.91,4.99,2.34,10,4.46,15.23,6.31,2.62.92,5.29,1.77,8.04,2.55,1.38.39,2.78.75,4.2,1.1.79.18,1.6.37,2.4.56.85.18,1.71.37,2.58.55"/>
        <path class="cls-1" d="M309.49,70.34c-1.87-.39-3.62-.72-5.51-1.06-1.87-.33-3.71-.63-5.52-.91-3.63-.54-7.15-.97-10.57-1.3-6.83-.65-13.22-.88-19.19-.8-11.97.14-22.24,1.51-31.61,3.06-9.39,1.55-17.87,3.28-26.74,4.07-8.9.78-18.14.61-29.75-1.78l-6.29-10.83c12.41,2.56,22.36,2.87,31.92,2.23,9.54-.65,18.65-2.26,28.67-3.68,10-1.42,20.93-2.66,33.6-2.66,6.33,0,13.09.3,20.3,1.03,3.61.36,7.33.83,11.17,1.42,1.92.29,3.86.62,5.84.97.94.17,1.88.35,2.83.52.91.18,1.83.36,2.75.55"/>
        <path class="cls-1" d="M67.63,61.78c-.29-.66.1-1.5.75-1.72.32-.13.66-.06.98,0l.95.16c1.25.21,2.44.37,3.58.51,2.28.27,4.34.39,6.25.4,3.8.02,6.96-.42,9.79-1.14,5.65-1.45,10.05-4.03,15.33-6.43,5.27-2.4,11.44-4.62,20.17-5.43,8.7-.82,20.02-.23,34.77,2.82l-6.86-10.94c-15.63-3.18-27.53-3.7-37.17-3.33-9.44.67-16.26,2.75-22.16,5.02-5.92,2.26-10.95,4.72-17.27,6.03-3.17.65-6.67,1.02-10.84.92-2.09-.05-4.34-.22-6.81-.52-1.24-.15-2.53-.34-3.88-.57l-1.02-.18c-.34-.07-.71-.15-1.05,0-.7.24-1.13,1.13-.81,1.85"/>
        <path class="cls-1" d="M9.6,14.2c-.36-.88.28-1.99,1.21-2.19.46-.11.92.05,1.36.12.45.09.9.18,1.35.26,1.82.37,3.61.74,5.38,1.1,3.57.76,7.12,1.57,10.66,2.45,7.07,1.75,14.14,3.74,21.18,5.96,1.78.58,3.53,1.15,5.27,1.71.88.3,1.76.59,2.64.89l.66.23.72.29,1.44.58c3.83,1.54,7.63,3.12,11.39,4.71,7.51,3.19,14.84,6.44,21.95,9.66,14.24,6.43,27.57,12.67,40.07,17.87,12.53,5.2,24.2,9.36,35.81,11.75l-6.97-10.97c-12.41-2.56-24.78-6.86-37.98-12.21-6.59-2.67-13.37-5.6-20.36-8.68-3.57-1.58-7.11-3.15-10.66-4.72l-2.72-1.21-1.36-.6-1.29-.52c-1.72-.69-3.45-1.38-5.18-2.07-13.79-5.47-27.77-10.44-41.57-14.34-6.91-1.96-13.9-3.67-20.76-5.12-3.45-.73-6.9-1.39-10.38-1.99-1.72-.28-3.46-.57-5.23-.86-.44-.07-.87-.13-1.31-.2-.44-.05-.87-.19-1.33-.06-.92.23-1.59,1.37-1.28,2.22"/>
        <path class="cls-1" d="M221.45,107.91c-9.27-11.91-19.81-24.09-31.61-36.53-8.01-6.21-16.54-12.52-25.59-18.95-6.21-4.4-12.69-8.9-19.34-13.33-6.65-4.43-13.46-8.81-20.43-13.13-6.91-4.25-13.93-8.4-21.06-12.45-3.59-2.04-7.11-3.99-10.65-5.89-3.54-1.91-7.1-3.79-10.67-5.63,8.49,5.6,16.82,11.35,25.2,17.41,8.37,6.06,16.57,12.27,24.61,18.64,3.65,2.38,7.39,4.96,10.99,7.44,3.61,2.5,7.16,4.98,10.62,7.44,6.94,4.93,13.58,9.8,19.94,14.61,18.44,13.96,34.44,27.42,48,40.37Z"/>
        <path class="cls-1" d="M192.23,23.76c-5.98,8.32-10.44,16.95-13.38,25.89-3.73,3.51-6.96,7.12-9.69,10.84-7.4,10.06-11.16,20.87-11.27,32.44-4.04-10.26-6.71-20.23-8-29.92,2.67-5.53,6.36-10.85,11.08-15.95,7.69-8.33,18.12-16.09,31.26-23.3Z"/>
        <polygon class="cls-1" points="154.37 36.63 146.13 34.8 171.07 74.04 177.71 75.59 154.37 36.63"/>
        <path class="cls-1" d="M146.36,35.13c-2.88-.82-5.74-1.62-8.6-2.38l5.98,9.58,6.18,9.78c4.14,6.53,8.33,13.06,12.57,19.6l7.07,2.19c-3.97-6.49-7.89-12.97-11.76-19.44l-5.78-9.7-5.67-9.63Z"/>
        <path class="cls-1" d="M177.45,75.25l.87.27,6.09,1.88c-6.7-12.73-13.22-25.42-19.56-38.07l-8.59-2.49c4.35,8.07,8.77,16.15,13.26,24.25l7.93,14.16Z"/>
      </g>
    </g>
  </g>
</svg>