<?xml version="1.0" encoding="UTF-8"?>
<svg id="Layer_2" data-name="Layer 2" xmlns="http://www.w3.org/2000/svg" viewBox="0 0 922.05 916.1">
  <defs>
    <style>
      .cls-1 {
        fill: #bfbfbf;
        stroke: #000;
        stroke-linecap: round;
        stroke-width: 4.5px;
      }
    </style>
  </defs>
  <g id="Layer_2-2" data-name="Layer 2">
    <g>
      <g>
        <g>
          <path class="cls-1" d="M32.8,261.31c9.74-13.31,36.58-3.69,47.27-18.3l7.54,5.51c-10.69,14.61-37.52,5-47.26,18.31"/>
          <path class="cls-1" d="M63.9,284.06c10.36-14.16-6.57-37.3,2.87-50.2l7.54,5.51c-9.44,12.9,7.5,36.05-2.86,50.21"/>
          <path class="cls-1" d="M84.66,190.43c-9.74,13.31,7.55,35.98-3.14,50.59l7.54,5.51c10.69-14.61-6.59-37.27,3.15-50.58"/>
          <path class="cls-1" d="M115.76,213.19c-10.36,14.16-37.54,5.03-46.98,17.93l7.54,5.51c9.44-12.9,36.63-3.76,46.99-17.92"/>
          <polygon class="cls-1" points="39.06 225.57 66.35 238.02 118.83 251.18 91.19 239.64 39.06 225.57"/>
          <polygon class="cls-1" points="99.83 272.06 81.66 249.36 56.18 205.24 74.41 227.21 99.83 272.06"/>
          <polygon class="cls-1" points="91.28 249.44 92.79 247.68 65.92 227.78 64.41 229.54 91.28 249.44"/>
          <polygon class="cls-1" points="92.56 247.52 94.48 246.07 68.06 225.77 66.12 227.21 92.56 247.52"/>
          <polygon class="cls-1" points="64.65 229.69 62.73 231.14 89.16 251.44 91.08 250 64.65 229.69"/>
        </g>
        <g>
          <path class="cls-1" d="M368.86,164.74c28.34,26.88,23.42,59.88,54.53,89.38l-6.43,6.78c-31.11-29.5-26.19-62.49-54.54-89.37"/>
          <path class="cls-1" d="M342.34,192.71c30.15,28.59,63.86,22.9,91.33,48.95l-6.43,6.78c-27.48-26.05-61.19-20.35-91.34-48.94"/>
          <path class="cls-1" d="M519.76,307.84c-28.34-26.88-61.04-20.21-92.15-49.71l-6.43,6.78c31.11,29.5,63.8,22.84,92.14,49.72"/>
          <path class="cls-1" d="M493.25,335.8c-30.15-28.59-26.25-62.55-53.73-88.6l-6.43,6.78c27.48,26.05,23.56,60.02,53.72,88.61"/>
          <polygon class="cls-1" points="435.81 206.1 426.02 237.3 426.53 306.86 434.53 274.32 435.81 206.1"/>
          <polygon class="cls-1" points="380.38 258.96 412.72 250.95 480.13 250.63 449.11 259.36 380.38 258.96"/>
          <polygon class="cls-1" points="417.01 265.78 420.85 269.67 444.19 245.72 440.34 241.82 417.01 265.78"/>
          <polygon class="cls-1" points="421.04 269.46 424.51 273.72 448.77 250.81 445.31 246.54 421.04 269.46"/>
          <polygon class="cls-1" points="440.18 242.06 436.7 237.8 412.44 260.72 415.91 264.98 440.18 242.06"/>
        </g>
        <g>
          <path class="cls-1" d="M372.1,635.11c-53.29-4.75-76.97-34.31-135.46-39.53l.83-9.3c58.49,5.22,82.17,34.76,135.47,39.51"/>
          <path class="cls-1" d="M375.52,596.72c-56.69-5.06-87.14,19.66-138.8,15.06l.83-9.3c51.66,4.61,82.1-20.13,138.8-15.07"/>
          <path class="cls-1" d="M88.37,609.81c53.29,4.75,81.83-20.15,140.32-14.93l.83-9.3c-58.49-5.22-87.03,19.67-140.32,14.92"/>
          <path class="cls-1" d="M91.79,571.42c56.69,5.06,82.28,34.77,133.94,39.38l.83-9.3c-51.66-4.61-77.25-34.33-133.94-39.39"/>
          <polygon class="cls-1" points="265.56 641.73 248.58 610.72 187.22 554.93 207.27 585.94 265.56 641.73"/>
          <polygon class="cls-1" points="277.62 566 250.62 591.77 180.05 632.28 205.02 606.71 277.62 566"/>
          <polygon class="cls-1" points="233.15 582.37 225.71 581.53 222.13 614.78 229.57 615.63 233.15 582.37"/>
          <polygon class="cls-1" points="225.7 581.81 218.32 580.45 212.85 613.41 220.22 614.78 225.7 581.81"/>
          <polygon class="cls-1" points="229.53 615.34 236.91 616.69 242.38 583.73 235.01 582.37 229.53 615.34"/>
        </g>
        <g>
          <path class="cls-1" d="M88.35,609.8c-26.65-2.38-45.89-10.95-65.78-19.59-4.97-2.16-9.99-4.32-15.17-6.39-.65-.26-1.3-.51-1.95-.77l-.98-.38-.25-.1-.06-.02h-.03c-.08-.02.1,0,.28,0,.66.03,1.31,0,1.98-.07.73-.08,1.47-.24,2.17-.46.75-.22,1.48-.53,2.17-.9,1.4-.74,2.63-1.76,3.57-2.89,1.89-2.28,2.77-4.88,2.79-7.64,0-1.38-.24-2.84-.78-4.26-.54-1.42-1.38-2.77-2.42-3.88-.51-.54-1.04-1.01-1.62-1.44-.57-.41-1.07-.72-1.65-1.01l-.4-.19.03.02.05.04.1.09.4.35c.54.46,1.08.92,1.62,1.39,2.18,1.85,4.43,3.69,6.76,5.51,9.33,7.27,20.02,14.25,33.28,20.55l-4.01,8.43c-13.26-6.3-23.95-13.28-33.28-20.55-2.33-1.82-4.58-3.66-6.76-5.51-.54-.47-1.09-.93-1.62-1.39l-.4-.35-.1-.09-.05-.04-.02-.02.08.03c.22.09.47.23.69.45.47.44.75,1.1.78,1.68.03.59-.11,1.16-.51,1.7-.38.54-1.12.98-1.78,1.07-.15.03-.3.05-.45.05-.12,0-.03,0-.02.02l.06.02.25.09.98.38c.65.26,1.3.52,1.95.77,5.18,2.07,10.19,4.23,15.17,6.39,19.89,8.63,39.14,17.21,65.78,19.58"/>
          <path class="cls-1" d="M91.77,571.42c-28.35-2.53-50.13,2.39-71.29,7.36-5.29,1.24-10.54,2.49-15.84,3.62l-.5.11s-.03,0-.02,0l.47.04c.31.02.63.03.95.03.6,0,1.32-.06,2.03-.19.69-.13,1.41-.32,2.14-.59.71-.27,1.4-.6,2.06-1,2.66-1.62,4.44-4.05,5.31-6.57.87-2.53.99-5.43-.07-8.38-.53-1.47-1.36-2.86-2.4-4.04-.51-.58-1.03-1.09-1.62-1.55-.6-.47-1.08-.8-1.68-1.14l-.44-.24c-.21-.11-.18-.09-.16-.08h.06s.13.03.13.03l.25.04,1.01.16c1.34.22,2.68.44,4.04.67,2.69.47,5.4.99,8.12,1.57,10.87,2.33,21.97,5.72,33.68,11.29l-4.01,8.43c-11.71-5.57-22.81-8.96-33.69-11.29-2.72-.58-5.42-1.1-8.12-1.57-1.35-.22-2.7-.45-4.04-.67l-1.01-.16-.25-.04-.13-.02s-.16-.05.08.08c.57.34,1.21,1.07,1.44,1.87.25.79.17,1.53-.08,2.15-.25.62-.73,1.2-1.4,1.56-.33.18-.71.3-1.04.34-.17.02-.35.02-.48.02-.07,0-.15-.01-.22-.02l-.11-.02s.02,0,.03,0l.5-.11c5.3-1.14,10.55-2.38,15.84-3.63,21.16-4.98,42.94-9.89,71.29-7.37"/>
          <path class="cls-1" d="M196.43,625.95c-48.32-22.98-83.74-9.54-136.77-34.76l-4.01,8.43c53.03,25.21,88.44,11.79,136.76,34.77"/>
          <path class="cls-1" d="M179.88,660.75c-51.41-24.44-65.07-61.2-111.91-83.47l-4.01,8.43c46.84,22.27,60.5,59.04,111.91,83.48"/>
          <polygon class="cls-1" points="41.37 534.44 46.52 569.42 84.67 643.06 76.65 607.01 41.37 534.44"/>
          <polygon class="cls-1" points="3.75 601.26 38.02 586.48 118.28 573.02 85.97 588.31 3.75 601.26"/>
          <polygon class="cls-1" points="51.14 601.36 57.83 604.74 72.74 574.8 66.05 571.42 51.14 601.36"/>
          <polygon class="cls-1" points="57.93 604.48 64.38 608.32 80.96 579.31 74.52 575.46 57.93 604.48"/>
          <polygon class="cls-1" points="65.99 571.71 59.54 567.87 42.95 596.88 49.4 600.72 65.99 571.71"/>
        </g>
        <g>
          <path class="cls-1" d="M196.45,625.96c48.32,22.98,60.25,58.92,113.29,84.14l-4.01,8.43c-53.03-25.22-64.97-61.15-113.29-84.12"/>
          <path class="cls-1" d="M179.9,660.76c51.41,24.44,88.54,11.84,135.38,34.11l-4.01,8.43c-46.84-22.27-83.98-9.66-135.38-34.1"/>
          <path class="cls-1" d="M453.7,748.27c-48.32-22.98-83.74-9.54-136.77-34.76l-4.01,8.43c53.03,25.21,88.44,11.79,136.76,34.77"/>
          <path class="cls-1" d="M437.15,783.07c-51.41-24.44-65.07-61.2-111.91-83.47l-4.01,8.43c46.84,22.27,60.5,59.04,111.91,83.48"/>
          <polygon class="cls-1" points="298.65 656.77 303.79 691.74 341.94 765.38 333.92 729.33 298.65 656.77"/>
          <polygon class="cls-1" points="261.03 723.59 295.29 708.8 375.55 695.34 343.24 710.64 261.03 723.59"/>
          <polygon class="cls-1" points="308.41 723.68 315.1 727.06 330.01 697.13 323.32 693.75 308.41 723.68"/>
          <polygon class="cls-1" points="315.2 726.8 321.65 730.64 338.23 701.64 331.79 697.79 315.2 726.8"/>
          <polygon class="cls-1" points="323.26 694.03 316.81 690.2 300.22 719.21 306.67 723.05 323.26 694.03"/>
        </g>
        <g>
          <path class="cls-1" d="M453.72,748.28c48.32,22.98,60.25,58.92,113.29,84.14l-4.01,8.43c-53.03-25.22-64.97-61.15-113.29-84.12"/>
          <path class="cls-1" d="M437.17,783.08c51.41,24.44,88.54,11.84,135.38,34.11l-4.01,8.43c-46.84-22.27-83.98-9.66-135.38-34.1"/>
          <path class="cls-1" d="M710.97,870.6c-48.32-22.98-83.74-9.54-136.77-34.76l-4.01,8.43c53.03,25.21,88.44,11.79,136.76,34.77"/>
          <path class="cls-1" d="M694.43,905.4c-51.41-24.44-65.07-61.2-111.91-83.47l-4.01,8.43c46.84,22.27,60.5,59.04,111.91,83.48"/>
          <polygon class="cls-1" points="555.92 779.09 561.06 814.07 599.21 887.71 591.19 851.66 555.92 779.09"/>
          <polygon class="cls-1" points="518.3 845.91 552.56 831.13 632.82 817.67 600.52 832.96 518.3 845.91"/>
          <polygon class="cls-1" points="565.68 846.01 572.37 849.39 587.28 819.45 580.59 816.07 565.68 846.01"/>
          <polygon class="cls-1" points="572.47 849.13 578.92 852.97 595.51 823.96 589.07 820.11 572.47 849.13"/>
          <polygon class="cls-1" points="580.54 816.36 574.08 812.52 557.5 841.53 563.94 845.37 580.54 816.36"/>
        </g>
        <g>
          <path class="cls-1" d="M335.77,199.65c-.94-.89-1.88-1.79-2.81-2.68-.92-.91-1.84-1.81-2.76-2.71-.9-.91-1.8-1.83-2.7-2.74-.88-.92-1.76-1.84-2.64-2.76-.86-.93-1.72-1.86-2.58-2.79-.84-.94-1.68-1.88-2.52-2.81-.82-.95-1.65-1.89-2.47-2.83-.81-.95-1.61-1.9-2.41-2.85-.79-.96-1.57-1.91-2.35-2.86-.77-.96-1.54-1.92-2.3-2.87-.75-.96-1.5-1.93-2.24-2.88-.73-.97-1.46-1.93-2.19-2.89-.71-.97-1.43-1.93-2.14-2.9-.7-.97-1.39-1.94-2.08-2.9-.68-.97-1.36-1.94-2.03-2.9-.66-.97-1.32-1.94-1.98-2.9-.64-.97-1.29-1.93-1.92-2.89-.63-.97-1.25-1.93-1.87-2.89-.61-.96-1.22-1.92-1.82-2.88-.59-.96-1.18-1.92-1.77-2.87-.58-.96-1.15-1.91-1.72-2.86-.56-.95-1.12-1.9-1.67-2.84-.54-.95-1.08-1.89-1.62-2.82-.53-.94-1.05-1.87-1.57-2.8-.51-.93-1.02-1.86-1.53-2.78-.5-.92-.99-1.84-1.48-2.75-.48-.92-.96-1.82-1.43-2.73-.46-.91-.93-1.8-1.38-2.7-.45-.9-.9-1.78-1.34-2.66-.43-.88-.86-1.76-1.29-2.63-.83-1.75-1.65-3.46-2.45-5.15-.77-1.69-1.53-3.35-2.27-4.98-.71-1.63-1.41-3.23-2.1-4.79-.66-1.57-1.3-3.1-1.93-4.59-.6-1.5-1.19-2.95-1.76-4.37-.55-1.42-1.08-2.8-1.6-4.13-.5-1.34-.98-2.62-1.44-3.87-.45-1.25-.87-2.44-1.28-3.59-.4-1.15-.77-2.25-1.13-3.29-.35-1.05-.68-2.04-.98-2.97-.3-.94-.58-1.82-.84-2.64-.25-.82-.49-1.58-.7-2.28-.21-.7-.4-1.34-.57-1.91-.32-1.15-.57-2.03-.74-2.63-.16-.6-.24-.91-.24-.91.31.87.62,1.74.93,2.62.33.88.66,1.76.99,2.64.35.88.7,1.76,1.05,2.65.37.88.74,1.77,1.11,2.67.39.89.77,1.78,1.16,2.68.4.89.81,1.79,1.21,2.69.42.89.84,1.79,1.26,2.69.43.9.87,1.8,1.31,2.7.45.9.9,1.8,1.35,2.7.46.9.93,1.8,1.4,2.7.48.9.96,1.8,1.44,2.7.49.9.98,1.8,1.48,2.7.5.9,1.01,1.8,1.51,2.7l1.54,2.7,1.58,2.69,1.61,2.68,1.63,2.67,1.66,2.66c1.13,1.76,2.25,3.52,3.38,5.28,1.15,1.74,2.3,3.48,3.45,5.22,1.17,1.72,2.34,3.43,3.5,5.14,1.18,1.69,2.36,3.38,3.53,5.05,1.19,1.66,2.37,3.31,3.55,4.94,1.19,1.62,2.37,3.23,3.54,4.83,1.19,1.58,2.36,3.15,3.52,4.69,1.18,1.54,2.34,3.05,3.48,4.55,1.16,1.49,2.3,2.95,3.42,4.39,1.14,1.43,2.25,2.84,3.35,4.22,1.11,1.37,2.19,2.72,3.25,4.03,1.07,1.31,2.12,2.59,3.14,3.83,1.03,1.24,2.03,2.45,3.01,3.62,1.97,2.33,3.82,4.52,5.54,6.55,1.74,2.01,3.35,3.87,4.79,5.54,1.46,1.66,2.77,3.15,3.9,4.43,2.27,2.55,3.83,4.3,4.52,5.08"/>
          <path class="cls-1" d="M123.3,218.71c.32-.46.66-.94,1.01-1.44.34-.5.68-1.02,1.04-1.55.35-.54.7-1.09,1.07-1.65.36-.57.72-1.16,1.1-1.76.37-.6.74-1.22,1.12-1.85.37-.64.76-1.28,1.15-1.94.38-.67.77-1.34,1.17-2.03.39-.69.79-1.4,1.19-2.12.79-1.44,1.6-2.94,2.44-4.47.82-1.54,1.65-3.13,2.51-4.75.84-1.63,1.7-3.3,2.57-5.01.86-1.71,1.73-3.45,2.61-5.22.87-1.78,1.75-3.58,2.65-5.41.88-1.83,1.77-3.69,2.67-5.56.89-1.88,1.78-3.77,2.68-5.68.89-1.91,1.78-3.83,2.68-5.76,1.76-3.87,3.54-7.76,5.3-11.63,1.73-3.89,3.45-7.75,5.15-11.55,1.67-3.81,3.31-7.56,4.9-11.21,1.57-3.65,3.1-7.2,4.56-10.59,2.87-6.81,5.49-13.01,7.7-18.25,2.17-5.26,3.95-9.56,5.18-12.54,1.22-2.99,1.9-4.66,1.9-4.66l-9.63-.67c-.6,1.65-1.22,3.33-1.84,5.02-.64,1.69-1.29,3.4-1.94,5.12-.67,1.72-1.35,3.45-2.04,5.2-.7,1.74-1.41,3.49-2.13,5.26-.73,1.76-1.47,3.53-2.2,5.31-.75,1.77-1.51,3.55-2.27,5.34-.77,1.78-1.55,3.57-2.33,5.36-.79,1.78-1.58,3.57-2.38,5.36l-2.41,5.34c-.81,1.78-1.63,3.55-2.44,5.32-1.65,3.52-3.3,7.03-4.92,10.49-1.66,3.45-3.3,6.85-4.91,10.19-1.64,3.33-3.25,6.6-4.82,9.78-1.59,3.17-3.15,6.26-4.65,9.24-1.52,2.97-2.99,5.84-4.39,8.58-1.42,2.73-2.78,5.34-4.06,7.8-1.3,2.45-2.52,4.76-3.65,6.9-1.15,2.13-2.2,4.1-3.16,5.88-.97,1.77-1.83,3.36-2.58,4.74-.76,1.37-1.41,2.54-1.93,3.47-.53.93-.94,1.63-1.2,2.09"/>
          <path class="cls-1" d="M368.86,164.75c-1.06-1.05-2.13-2.11-3.19-3.17-1.06-1.07-2.12-2.14-3.18-3.21l-3.16-3.24-3.14-3.27c-2.07-2.2-4.14-4.39-6.2-6.58-2.04-2.21-4.08-4.41-6.1-6.59-4.01-4.39-7.96-8.72-11.81-12.93-1.92-2.1-3.82-4.17-5.68-6.21-1.87-2.02-3.71-4.01-5.51-5.95-1.82-1.92-3.6-3.8-5.33-5.62-.88-.9-1.74-1.79-2.59-2.67-.86-.87-1.71-1.72-2.54-2.56-.84-.83-1.67-1.65-2.49-2.45-.83-.79-1.64-1.57-2.43-2.33-.81-.75-1.6-1.48-2.37-2.2-.79-.7-1.56-1.39-2.31-2.06-.38-.33-.76-.65-1.13-.97-.38-.32-.75-.63-1.12-.94-.37-.3-.74-.6-1.1-.9-.37-.29-.73-.58-1.09-.86-.36-.28-.72-.55-1.07-.82-.36-.26-.71-.52-1.05-.77-.35-.25-.7-.49-1.04-.73-.35-.23-.69-.46-1.02-.69-.34-.22-.67-.43-1-.64-.33-.2-.66-.4-.99-.6-.33-.19-.65-.37-.97-.55-.32-.17-.64-.34-.95-.5-.32-.15-.63-.3-.93-.45-.31-.14-.61-.27-.91-.4l-.45-.18-.45-.17-.44-.16-.44-.14-6.6,2.02c.6.53,1.26,1.09,1.96,1.71.69.62,1.43,1.29,2.2,1.99.77.72,1.58,1.47,2.43,2.26.84.8,1.72,1.64,2.63,2.51,1.8,1.76,3.75,3.66,5.8,5.66,2.03,2.02,4.16,4.16,6.37,6.37,2.19,2.23,4.47,4.53,6.79,6.89,2.31,2.37,4.66,4.79,7.04,7.24,4.72,4.92,9.53,9.93,14.2,14.8,4.64,4.9,9.14,9.65,13.28,14.02,4.12,4.39,7.89,8.41,11.08,11.8,6.35,6.82,10.41,11.17,10.41,11.17"/>
          <path class="cls-1" d="M84.65,190.44s1.37-2.21,3.79-6.14c1.23-1.95,2.73-4.33,4.45-7.07,1.75-2.72,3.74-5.81,5.91-9.19,1.1-1.68,2.25-3.44,3.45-5.27,1.2-1.82,2.45-3.7,3.74-5.64,1.3-1.93,2.64-3.93,4.01-5.97,1.39-2.03,2.81-4.12,4.26-6.25,1.47-2.12,2.96-4.28,4.49-6.48,1.54-2.18,3.1-4.4,4.69-6.65,1.6-2.23,3.23-4.5,4.87-6.78,1.66-2.27,3.34-4.55,5.02-6.85,1.71-2.28,3.43-4.58,5.15-6.88,1.75-2.28,3.51-4.56,5.26-6.85l2.66-3.4,2.68-3.37c.9-1.12,1.8-2.23,2.7-3.34.91-1.1,1.81-2.2,2.71-3.3.91-1.09,1.82-2.18,2.72-3.26.91-1.07,1.82-2.14,2.73-3.21.91-1.05,1.83-2.1,2.73-3.15.92-1.03,1.83-2.06,2.73-3.09.92-1.01,1.83-2.02,2.73-3.01.92-.99,1.82-1.97,2.73-2.94.91-.96,1.82-1.91,2.72-2.86.91-.93,1.81-1.85,2.71-2.77.91-.9,1.8-1.79,2.69-2.67.9-.87,1.79-1.72,2.68-2.57.9-.83,1.78-1.65,2.66-2.46.89-.79,1.77-1.57,2.63-2.35.44-.38.88-.75,1.31-1.13.44-.37.87-.73,1.3-1.1.43-.36.87-.71,1.29-1.07.43-.35.86-.69,1.29-1.03.43-.34.86-.67,1.28-1,.43-.32.85-.65,1.27-.97.42-.31.85-.62,1.26-.93.42-.3.84-.6,1.25-.89.42-.29.83-.57,1.24-.86.42-.28.83-.55,1.23-.82.41-.26.82-.52,1.23-.78.41-.25.81-.5,1.21-.74.41-.24.81-.47,1.2-.7.4-.22.8-.44,1.19-.66.4-.21.79-.42,1.18-.62.39-.2.78-.39,1.17-.58.39-.18.78-.36,1.16-.54.39-.17.77-.33,1.15-.49.38-.15.76-.3,1.13-.45.38-.14.75-.27,1.12-.4.37-.12.74-.24,1.11-.36.37-.1.73-.21,1.09-.31l.54-.14.13-.03h.03s.02,0,.03,0h.07s.27,0,.27,0l.55.02.54.04,16.53,11.12-1.04-.37-1.05-.33-1.05-.3-1.06-.27-1.06-.24-1.06-.2-1.07-.17-1.07-.14-1.07-.11-1.08-.08-1.08-.05-1.09-.02h-1.09s-1.09.05-1.09.05l-1.09.07-1.1.1-1.08.41-1.08.44c-.36.16-.72.31-1.08.47-.36.16-.72.33-1.08.5-.36.17-.72.35-1.09.52-.36.18-.72.37-1.09.55-.36.19-.73.39-1.09.58-.36.2-.73.4-1.09.61-.36.21-.73.42-1.1.63-.36.22-.73.44-1.1.66-.36.23-.73.46-1.1.69-.37.24-.73.47-1.1.71-.37.24-.73.49-1.1.74-.37.25-.74.51-1.11.76-.37.26-.74.52-1.11.79-.37.27-.74.54-1.11.81-.37.28-.74.56-1.11.84-.37.29-.74.57-1.11.86-.74.59-1.48,1.19-2.23,1.79-.74.62-1.49,1.25-2.24,1.88-.74.65-1.49,1.31-2.25,1.97-.74.68-1.49,1.36-2.25,2.05-.75.71-1.5,1.42-2.26,2.14-.75.73-1.5,1.47-2.26,2.21-.75.76-1.5,1.52-2.26,2.29-.75.78-1.5,1.57-2.27,2.36-.75.81-1.51,1.62-2.27,2.43-.75.83-1.51,1.66-2.27,2.5-.75.85-1.51,1.7-2.27,2.57-.75.87-1.51,1.75-2.27,2.63-.75.89-1.51,1.79-2.27,2.69-.75.91-1.51,1.82-2.27,2.74-.75.93-1.51,1.86-2.27,2.79-.75.94-1.51,1.89-2.27,2.84-.75.96-1.51,1.92-2.27,2.89-1.5,1.95-3.01,3.93-4.53,5.91-1.5,2.01-3,4.03-4.52,6.07-1.49,2.05-2.99,4.12-4.5,6.2-1.49,2.09-2.98,4.2-4.48,6.31-1.48,2.12-2.97,4.26-4.46,6.39-1.47,2.15-2.95,4.3-4.43,6.45l-4.4,6.49c-2.9,4.35-5.8,8.69-8.67,13.01-2.85,4.33-5.69,8.64-8.49,12.89-2.8,4.25-5.56,8.46-8.27,12.58-2.73,4.11-5.41,8.15-8.02,12.09"/>
          <polygon class="cls-1" points="281.17 10.51 264.78 44 255.59 137.98 269.98 101.13 281.17 10.51"/>
          <polygon class="cls-1" points="199.15 31.82 210.82 34.6 213.74 35.3 213.83 35.32 213.87 35.33 213.9 35.34 213.91 35.34 213.92 35.35 214.11 35.43 214.48 35.61 215.23 35.97 216.72 36.68 222.68 39.52 246.55 50.88 338.13 111.71 289.96 93.59 244.39 60.87 221.6 44.51 215.91 40.42 214.48 39.4 214.31 39.27 214.26 39.24 214.22 39.22 214.13 39.18 213.78 39 213.08 38.66 210.3 37.29 199.15 31.82"/>
          <polygon class="cls-1" points="249.71 74.51 253.88 83.08 285.85 71 281.69 62.43 249.71 74.51"/>
          <polygon class="cls-1" points="254.13 82.94 257.79 91.67 290.77 81.79 287.1 73.07 254.13 82.94"/>
          <polygon class="cls-1" points="281.46 62.61 277.8 53.89 244.82 63.76 248.48 72.51 281.46 62.61"/>
          <path class="cls-1" d="M250.17,29.98l-22.47,4.73-11.24,2.37-1.4.3-.7.15-.18.04h-.04s-.01.01-.01.01h-.01s-.02.01-.02.01l-.09.04-.34.16-2.74,1.32-5.49,2.64-75.07,69.13,37.62-21.13,40.68-34.54,5.08-4.32,1.27-1.08.16-.14.04-.03.04-.02.08-.05.33-.18.65-.37,2.6-1.46,10.42-5.86,20.84-11.72Z"/>
          <polygon class="cls-1" points="168.09 1.03 186.62 37.09 207.49 128.41 188.59 94.84 168.09 1.03"/>
          <polygon class="cls-1" points="171.89 57.51 168.84 66.59 201.84 74.73 204.89 65.66 171.89 57.51"/>
          <polygon class="cls-1" points="169.13 66.61 165.58 75.54 197.75 86 201.29 77.07 169.13 66.61"/>
          <polygon class="cls-1" points="204.59 65.69 208.14 56.77 175.97 46.32 172.42 55.24 204.59 65.69"/>
        </g>
        <g>
          <path class="cls-1" d="M376.36,587.2c3.27.29,6.53.59,9.78.88,3.25.31,6.49.63,9.72.94,3.23.33,6.45.66,9.66.99,3.21.35,6.41.7,9.6,1.05,3.18.37,6.36.73,9.53,1.1,3.16.38,6.31.77,9.46,1.15,3.14.4,6.26.8,9.38,1.19,3.11.41,6.21.83,9.3,1.24,3.08.43,6.16.85,9.22,1.28,3.06.44,6.1.88,9.14,1.32,3.03.45,6.04.91,9.05,1.36,3,.47,5.99.93,8.96,1.39,2.97.48,5.92.95,8.87,1.43,2.94.49,5.86.97,8.77,1.46,2.9.5,5.79.99,8.67,1.48,2.87.51,5.73,1.01,8.57,1.51,5.66,1.04,11.27,2.07,16.83,3.09,5.51,1.07,10.98,2.12,16.38,3.17,5.36,1.09,10.67,2.16,15.91,3.22,5.2,1.1,10.34,2.19,15.42,3.26,5.03,1.11,10,2.2,14.91,3.28,4.86,1.11,9.65,2.21,14.36,3.29,4.68,1.11,9.28,2.2,13.8,3.27,4.48,1.1,8.89,2.18,13.21,3.24,4.28,1.08,8.49,2.14,12.6,3.18,4.08,1.06,8.07,2.1,11.96,3.11,3.86,1.03,7.63,2.04,11.3,3.02,3.64,1,7.18,1.97,10.61,2.91,3.41.96,6.71,1.89,9.9,2.79,3.17.91,6.23,1.79,9.17,2.64,2.92.86,5.72,1.69,8.41,2.48,2.66.8,5.21,1.57,7.63,2.29,4.78,1.48,9.07,2.81,12.81,3.97,3.68,1.18,6.83,2.19,9.39,3.02,2.52.84,4.46,1.48,5.78,1.92,1.3.44,1.97.67,1.97.67-2.03-.6-4.08-1.21-6.13-1.82-2.08-.6-4.17-1.2-6.27-1.8-2.13-.59-4.26-1.18-6.41-1.78-2.17-.58-4.35-1.17-6.54-1.76-2.21-.58-4.43-1.16-6.66-1.74-2.25-.57-4.5-1.15-6.77-1.72-2.28-.57-4.58-1.13-6.88-1.7-2.32-.56-4.64-1.12-6.97-1.68-2.35-.55-4.7-1.11-7.07-1.66-2.38-.55-4.76-1.09-7.15-1.64-4.82-1.07-9.66-2.14-14.53-3.22-4.91-1.04-9.84-2.09-14.78-3.14-4.98-1.01-9.98-2.03-14.98-3.05-5.03-.99-10.08-1.97-15.11-2.96-5.07-.96-10.14-1.92-15.2-2.87-5.09-.93-10.16-1.85-15.22-2.78-5.08-.9-10.15-1.79-15.19-2.68-5.06-.87-10.1-1.73-15.1-2.58-5.02-.83-10.01-1.66-14.95-2.48-4.96-.8-9.88-1.6-14.75-2.38-4.88-.77-9.71-1.53-14.49-2.28-9.58-1.45-18.92-2.87-27.96-4.23-9.07-1.31-17.84-2.58-26.23-3.79-8.42-1.17-16.46-2.28-24.05-3.33-7.61-1.01-14.77-1.97-21.41-2.85-6.65-.86-12.78-1.65-18.31-2.36-5.54-.69-10.48-1.31-14.75-1.85-8.55-1.05-14.42-1.78-17.01-2.09"/>
          <path class="cls-1" d="M486.81,342.58c1.04.97,2.12,1.98,3.23,3.01,1.12,1.03,2.28,2.09,3.47,3.19,2.4,2.16,4.93,4.43,7.58,6.82,2.67,2.35,5.46,4.81,8.36,7.36,2.92,2.52,5.95,5.15,9.08,7.86,3.14,2.68,6.39,5.45,9.73,8.3,3.35,2.82,6.78,5.72,10.3,8.69,3.53,2.95,7.13,5.96,10.81,9.03,3.68,3.05,7.43,6.16,11.24,9.32,7.63,6.26,15.5,12.71,23.51,19.28,8.02,6.51,16.19,13.13,24.41,19.8,8.23,6.62,16.51,13.27,24.75,19.9,8.25,6.58,16.45,13.14,24.53,19.58,16.16,12.79,31.79,25.17,46.14,36.53,14.36,11.28,27.45,21.55,38.52,30.24,22.14,17.25,36.2,28.2,36.2,28.2l-3.82-14.88c-3.44-2.59-6.93-5.21-10.45-7.87-3.52-2.68-7.09-5.39-10.69-8.13-3.6-2.76-7.23-5.55-10.88-8.36-3.66-2.83-7.34-5.69-11.05-8.56-7.41-5.81-14.91-11.69-22.45-17.61-7.54-5.99-15.12-12.02-22.71-18.05-7.58-6.09-15.15-12.18-22.69-18.23-7.52-6.11-15-12.18-22.4-18.18-7.38-6.04-14.68-12.01-21.83-17.87-7.15-5.9-14.17-11.68-21-17.31-6.83-5.67-13.48-11.18-19.9-16.51-6.41-5.36-12.6-10.52-18.52-15.46-11.82-9.95-22.55-18.98-31.83-26.79-9.26-7.88-17.08-14.52-23.08-19.62-2.99-2.57-5.53-4.75-7.58-6.5-2.03-1.76-3.56-3.09-4.55-3.95"/>
          <path class="cls-1" d="M372.09,635.1c7.52.75,15.08,1.51,22.67,2.26,7.57.81,15.17,1.62,22.76,2.42,7.58.85,15.16,1.69,22.7,2.53,7.54.87,15.05,1.74,22.51,2.6,14.9,1.76,29.6,3.49,43.88,5.17,14.29,1.66,28.16,3.27,41.43,4.82,6.64.73,13.14,1.45,19.45,2.15,6.33.66,12.47,1.29,18.43,1.91,2.98.29,5.91.57,8.78.85,2.88.26,5.7.52,8.47.77,2.77.23,5.49.46,8.15.69,2.66.2,5.26.4,7.8.6,2.54.17,5.02.34,7.44.5,2.42.14,4.77.27,7.07.4,2.29.1,4.51.19,6.67.29,1.08.03,2.14.07,3.18.1,1.04.02,2.07.05,3.08.07,1,.01,1.99.03,2.97.04.97,0,1.92,0,2.86,0,.93,0,1.85-.02,2.75-.02.89-.02,1.77-.04,2.63-.06.85-.03,1.69-.06,2.52-.09.81-.04,1.61-.08,2.4-.12.77-.05,1.53-.11,2.28-.16.73-.07,1.45-.13,2.15-.2l9.1-5.22c-2.02-.15-4.2-.3-6.55-.47-2.34-.19-4.84-.39-7.49-.6-5.29-.47-11.16-.98-17.52-1.54-6.35-.6-13.18-1.25-20.39-1.94-7.21-.72-14.79-1.47-22.66-2.26-15.72-1.64-32.56-3.39-49.7-5.18-17.13-1.85-34.58-3.74-51.52-5.57-33.86-3.77-65.73-7.32-89.13-9.93-23.38-2.66-38.31-4.36-38.31-4.36"/>
          <path class="cls-1" d="M519.77,307.84s4.89,4.36,13.57,12.08c4.33,3.89,9.61,8.62,15.69,14.08,6.07,5.48,12.94,11.7,20.47,18.51,7.51,6.85,15.69,14.3,24.39,22.24,8.67,7.98,17.86,16.45,27.44,25.27,4.77,4.43,9.64,8.96,14.59,13.56,4.94,4.61,9.95,9.3,15.03,14.05,5.06,4.77,10.19,9.59,15.36,14.46,5.15,4.89,10.35,9.82,15.58,14.79,5.21,4.98,10.45,10,15.7,15.02,5.23,5.05,10.47,10.11,15.71,15.17,5.21,5.08,10.42,10.17,15.6,15.23,5.15,5.09,10.29,10.17,15.39,15.21,5.06,5.07,10.09,10.11,15.08,15.1,4.94,5.02,9.82,9.99,14.65,14.9,2.39,2.47,4.77,4.91,7.13,7.35,2.35,2.44,4.68,4.86,6.99,7.26,2.29,2.41,4.57,4.8,6.83,7.17,2.24,2.38,4.46,4.73,6.65,7.07,2.18,2.34,4.33,4.66,6.46,6.95,2.11,2.3,4.2,4.58,6.26,6.83,2.04,2.26,4.06,4.49,6.05,6.69,1.97,2.21,3.91,4.39,5.82,6.54,1.89,2.16,3.75,4.28,5.58,6.38,1.8,2.1,3.58,4.17,5.32,6.21,1.71,2.04,3.4,4.05,5.06,6.03,1.62,1.98,3.21,3.93,4.77,5.84.77.96,1.52,1.91,2.28,2.85.74.94,1.47,1.87,2.2,2.79.71.92,1.42,1.83,2.12,2.74.69.9,1.37,1.8,2.05,2.69.66.89,1.32,1.76,1.97,2.63.63.87,1.26,1.72,1.88,2.57.61.85,1.2,1.68,1.8,2.51.58.83,1.15,1.64,1.71,2.45.55.81,1.09,1.6,1.63,2.39.52.78,1.03,1.56,1.54,2.33.49.76.97,1.52,1.45,2.27.46.74.91,1.47,1.35,2.2.42.72.84,1.43,1.26,2.13.39.69.78,1.38,1.16,2.06l.55,1.01.13.25.03.06s-.03.02-.05.03l-.13.03-.53.14c-.72.17-1.44.35-2.15.52l-49.78-1.12,2.59-.22,2.54-.25,2.49-.29,2.44-.32,2.4-.35,2.35-.38,2.3-.41,2.26-.44,2.21-.47c.72-.16,1.44-.33,2.17-.49.71-.17,1.41-.35,2.12-.52.69-.18,1.38-.37,2.08-.55.68-.19,1.36-.39,2.04-.58.66-.2,1.33-.4,1.99-.61.65-.21,1.3-.42,1.95-.63.63-.22,1.27-.44,1.91-.66.03,0-.02-.04-.02-.06l-.04-.07-.08-.13-.17-.27-.33-.53-.68-1.07c-.46-.72-.93-1.44-1.4-2.17-.48-.73-.97-1.46-1.45-2.2-.5-.74-1-1.48-1.51-2.23-.52-.75-1.04-1.51-1.56-2.26-.54-.76-1.08-1.53-1.62-2.3-.55-.77-1.11-1.55-1.67-2.33-.57-.78-1.15-1.57-1.72-2.36-1.19-1.58-2.39-3.19-3.6-4.8-1.26-1.62-2.52-3.26-3.81-4.92-1.32-1.66-2.66-3.34-4-5.03-1.38-1.7-2.78-3.41-4.2-5.14-1.45-1.73-2.91-3.48-4.38-5.25-1.5-1.77-3.02-3.55-4.56-5.35-1.56-1.8-3.14-3.61-4.73-5.45-1.62-1.83-3.25-3.68-4.9-5.54-1.67-1.86-3.36-3.74-5.06-5.63-1.72-1.89-3.47-3.8-5.22-5.72-1.78-1.92-3.57-3.85-5.37-5.81-1.82-1.95-3.66-3.91-5.52-5.89-1.87-1.97-3.76-3.96-5.66-5.96-1.92-2-3.85-4.01-5.79-6.03-1.96-2.02-3.93-4.05-5.92-6.1-2-2.04-4.01-4.1-6.04-6.17-4.09-4.12-8.24-8.29-12.43-12.52-4.24-4.2-8.52-8.45-12.85-12.74-4.37-4.27-8.78-8.58-13.23-12.93-4.48-4.32-9-8.69-13.56-13.09-4.58-4.37-9.2-8.78-13.84-13.22-4.67-4.41-9.36-8.85-14.08-13.32-4.74-4.44-9.5-8.91-14.27-13.39-4.79-4.46-9.6-8.94-14.42-13.43-9.67-8.93-19.39-17.91-29.1-26.87-19.5-17.82-38.96-35.6-57.95-52.96-19-17.34-37.53-34.25-55.16-50.34"/>
          <polygon class="cls-1" points="795.13 724.61 770.22 686.67 630.73 599.42 665.03 639.26 795.13 724.61"/>
          <polygon class="cls-1" points="879.6 647.32 880.51 663.43 880.74 667.46 880.75 667.58 880.75 667.65 880.75 667.68 880.75 667.69 880.72 667.69 880.22 667.71 879.22 667.75 877.22 667.83 873.22 667.99 857.2 668.61 793.15 671.11 518.65 665.58 639.88 656.32 780.57 661.22 850.91 663.67 868.5 664.28 872.89 664.43 873.44 664.45 873.58 664.45 873.6 664.4 873.63 664.3 873.77 663.91 874.05 663.12 875.16 659.96 879.6 647.32"/>
          <polygon class="cls-1" points="747.76 652.02 725.58 646.68 685.35 673.99 707.51 679.33 747.76 652.02"/>
          <polygon class="cls-1" points="725.34 646.94 703.85 641.19 658.05 667.09 679.53 672.83 725.34 646.94"/>
          <polygon class="cls-1" points="707.64 679.05 729.12 684.8 774.93 658.91 753.44 653.14 707.64 679.05"/>
          <path class="cls-1" d="M821.2,691.33l34.56-15.89,17.28-7.95,2.16-.99,1.08-.5.27-.12.07-.03h.02s.01-.01,0-.02l-.03-.04-.12-.18-.49-.71-3.94-5.71-7.87-11.42-170.14-188.57,59.76,81.31,86.68,99.33,10.84,12.42,2.71,3.1.34.39.08.1-.04.04-.08.08-.31.33-.62.66-2.48,2.65-9.91,10.58-19.81,21.17Z"/>
          <polygon class="cls-1" points="921.31 627.27 863.03 621.96 701.71 566.5 755.07 568.78 921.31 627.27"/>
          <polygon class="cls-1" points="816.71 578.27 797.97 564.5 800.03 609.79 818.76 623.56 816.71 578.27"/>
          <polygon class="cls-1" points="798.08 564.94 779.36 550.51 776.61 592.19 795.33 606.62 798.08 564.94"/>
          <polygon class="cls-1" points="818.54 623.03 837.27 637.47 839.99 595.77 821.28 581.34 818.54 623.03"/>
        </g>
      </g>
      <g>
        <path class="cls-1" d="M348.11,357.27c0,12.26-3.17,23.8-8.26,33.38-5.09,9.62-12.02,17.35-19.67,23.11-7.65,5.8-16.13,9.58-24.59,11.67-8.48,2.09-16.97,2.46-25,1.47-2.01-.31-3.99-.64-5.94-.99-1.95-.48-3.87-1.01-5.77-1.54-.47-.14-.95-.25-1.41-.42l-1.4-.52c-.92-.35-1.84-.7-2.77-1.05-1.84-.64-3.61-1.55-5.36-2.42-6.99-3.5-13.33-8.12-18.82-13.66-5.49-5.55-10.15-12.03-13.73-19.4-.43-.93-.93-1.82-1.32-2.78-.38-.96-.76-1.93-1.15-2.91-.85-1.91-1.35-3.98-2.01-6.02-.36-1.01-.56-2.07-.79-3.14-.24-1.06-.48-2.13-.72-3.2-.19-1.08-.31-2.19-.48-3.3-.08-.55-.16-1.11-.24-1.67l-.12-.84-.05-.85,9.3-.81.04.71.11.7c.07.47.13.93.2,1.39.14.92.22,1.85.38,2.75.2.9.4,1.79.59,2.67.19.89.34,1.78.64,2.62.55,1.7.92,3.44,1.63,5.04.31.82.61,1.64.92,2.45.31.81.73,1.56,1.08,2.35,2.89,6.22,6.68,11.8,11.21,16.66,4.53,4.85,9.81,8.98,15.73,12.2,1.48.79,2.98,1.64,4.55,2.24.79.33,1.58.66,2.36.99l1.2.49c.4.16.81.26,1.21.4,1.63.5,3.29,1.03,4.97,1.5,1.69.35,3.41.69,5.15,1.02,6.98,1.07,14.42.98,21.92-.66,7.48-1.65,15.05-4.81,21.91-9.82,6.86-4.98,13.1-11.75,17.69-20.24,4.59-8.45,7.45-18.68,7.46-29.59"/>
        <path class="cls-1" d="M309.58,357.27c-.05,7.09-1.25,13.67-3.34,19.8-2.09,6.13-5.08,11.8-8.86,16.9-3.78,5.1-8.37,9.65-13.69,13.41-5.32,3.73-11.41,6.8-18.05,8.55-6.62,1.79-13.83,2.54-21.27,1.77-1.83-.25-3.73-.47-5.6-.86-1.84-.44-3.72-.93-5.61-1.46-1.84-.63-3.68-1.35-5.55-2.1-1.85-.78-3.61-1.77-5.43-2.72-7.13-4.05-13.82-9.86-19.1-17.41-5.28-7.52-9.12-16.84-10.37-27.13l9.27-1.12c1.09,8.96,4.49,17.05,9.16,23.54,4.68,6.51,10.59,11.45,16.86,14.81,1.61.78,3.15,1.61,4.77,2.24,1.64.6,3.25,1.17,4.84,1.68,1.66.4,3.28.76,4.88,1.1,1.62.28,3.26.4,4.84.57,6.42.42,12.56-.48,18.14-2.25,5.6-1.73,10.6-4.6,14.88-7.94,4.29-3.37,7.89-7.32,10.8-11.64,2.91-4.33,5.12-9.01,6.65-13.96,1.52-4.95,2.37-10.14,2.43-15.79"/>
        <path class="cls-1" d="M348.11,357.24c-.01-12.26-3.18-23.8-8.27-33.37-5.09-9.62-12.02-17.34-19.68-23.1-7.66-5.79-16.13-9.57-24.59-11.66-8.48-2.08-16.97-2.45-25-1.46-2.01.31-3.99.64-5.94.99-1.95.48-3.87,1.01-5.76,1.54-.95.24-1.88.58-2.81.94-.92.35-1.84.7-2.76,1.05-1.84.64-3.61,1.56-5.36,2.42-6.99,3.51-13.33,8.12-18.82,13.67-5.48,5.55-10.14,12.04-13.72,19.4-.43.93-.94,1.82-1.32,2.78-.38.96-.76,1.93-1.15,2.91-.85,1.91-1.35,3.98-2.01,6.02-.36,1.01-.55,2.08-.79,3.14-.24,1.06-.48,2.13-.72,3.2-.19,1.08-.31,2.19-.47,3.3-.08.55-.16,1.11-.24,1.67l-.12.84-.05.85,9.3.81.03-.71.11-.7c.07-.47.13-.93.2-1.39.14-.92.23-1.85.38-2.75.2-.9.4-1.79.59-2.67.19-.89.33-1.78.64-2.62.55-1.69.92-3.44,1.62-5.04.31-.82.61-1.64.92-2.45.31-.81.73-1.56,1.07-2.35,2.89-6.23,6.68-11.8,11.2-16.66,4.53-4.85,9.81-8.98,15.73-12.21,1.48-.79,2.98-1.65,4.55-2.24.79-.33,1.58-.66,2.36-.99.79-.34,1.59-.67,2.41-.9,1.63-.51,3.29-1.02,4.97-1.51,1.69-.35,3.4-.7,5.15-1.02,6.98-1.08,14.42-.99,21.92.65,7.48,1.64,15.05,4.8,21.91,9.81,6.86,4.98,13.11,11.75,17.7,20.24,4.59,8.45,7.45,18.68,7.47,29.58"/>
        <path class="cls-1" d="M309.58,357.25c-.06-7.09-1.26-13.67-3.34-19.8-2.09-6.13-5.08-11.79-8.87-16.9-3.78-5.1-8.37-9.64-13.7-13.4-5.32-3.73-11.41-6.8-18.05-8.54-6.62-1.79-13.83-2.53-21.27-1.76-1.83.25-3.73.47-5.6.86-1.84.44-3.72.93-5.61,1.46-1.83.64-3.68,1.35-5.55,2.1-1.84.78-3.6,1.77-5.43,2.73-7.13,4.05-13.81,9.86-19.1,17.42-5.28,7.52-9.11,16.85-10.36,27.13l9.27,1.12c1.09-8.96,4.48-17.06,9.15-23.54,4.67-6.51,10.58-11.46,16.85-14.82,1.61-.78,3.15-1.61,4.76-2.24,1.64-.6,3.25-1.17,4.84-1.68,1.66-.4,3.28-.76,4.88-1.1,1.62-.28,3.26-.4,4.84-.57,6.42-.43,12.56.47,18.14,2.24,5.6,1.72,10.6,4.6,14.89,7.93,4.29,3.37,7.89,7.32,10.8,11.64,2.91,4.32,5.13,9.01,6.66,13.95,1.52,4.95,2.38,10.14,2.43,15.79"/>
        <path class="cls-1" d="M196.14,429.68c-.24-1.06-.46-2.1-.67-3.14-.19-1.06-.34-2.13-.49-3.18-.29-2.11-.52-4.19-.69-6.23-.2-2.01-.19-4.12-.2-6.13,0-2.02.07-4,.19-5.93.36-3.95.91-7.73,1.73-11.34.45-1.83.95-3.61,1.48-5.34.54-1.73,1.08-3.38,1.8-5.04.69-9.49,3.4-18.11,7.53-25.16,4.09-7.07,9.45-12.62,15.25-16.33,5.8-3.73,12-5.64,17.75-5.92,5.76-.29,11.06,1.07,15.17,3.58-3.7-3.36-8.59-6.23-13.94-7.73-2.79-.88-5.53-1.28-8.59-1.58-1.53-.15-2.96-.11-4.53-.09-1.52.05-3.19.1-4.7.35-1.6.66-3.32,1.35-4.97,2.19-1.59.87-3.21,1.83-4.87,2.87-1.55,1.09-3.09,2.28-4.67,3.55-.82.63-1.49,1.32-2.23,2.03-.73.7-1.45,1.43-2.19,2.18-5.69,6.05-10.48,13.76-13.68,22.8-3.24,9.06-4.6,19.45-3.8,30.35.8,10.9,3.84,22.28,9.31,33.25Z"/>
        <path class="cls-1" d="M250.74,375.81c-2.3,1.32-4.65,2.2-7.33,2.99-1.33.37-2.61.59-4.01.82-.69.11-1.4.2-2.13.28-.71.07-1.39.09-2.11.11-1.42.04-2.91.03-4.43-.06-1.44-.14-2.93-.34-4.46-.6-.75-.14-1.57-.27-2.3-.47-.74-.19-1.49-.4-2.25-.63-1.49-.47-3.12-.96-4.6-1.6-1.43-1.11-2.94-2.29-4.38-3.58-1.35-1.32-2.71-2.73-4.09-4.23-1.24-1.53-2.46-3.15-3.7-4.86-1.17-1.71-2.17-3.53-3.25-5.43-4.02-7.59-6.68-16.7-7.21-26.64-.55-9.93,1.03-20.63,5.01-31.14,3.97-10.5,10.36-20.82,19.14-29.9-4.97,7.98-8.55,16.09-10.54,24.25-2.12,8.03-2.62,16.09-2.07,23.43-1.63,9.54-1.04,18.77,1.31,26.79,2.35,8.03,6.4,14.83,11.26,19.95,4.87,5.13,10.58,8.55,16.22,10.23,5.65,1.69,11.22,1.67,15.91.28Z"/>
        <path class="cls-1" d="M221.15,356.66l.27-3.58c.16-1.18.42-2.35.61-3.52-10.94-2.17-21.85-4.49-32.74-6.95-.38,2.08-.72,4.16-1.04,6.26-.26,2.09-.35,4.2-.49,6.3,11.13.65,22.26,1.15,33.39,1.5Z"/>
        <path class="cls-1" d="M221.75,349.52c.22-1.17.76-2.27,1.13-3.4l.6-1.67.78-1.6c-10.18-4.49-20.16-9.56-29.88-15.21-.86,1.91-1.7,3.84-2.51,5.79-.43.96-.75,1.97-1.08,2.97l-.96,3.02c5.23,1.98,10.5,3.81,15.8,5.49,5.31,1.68,10.72,3.22,16.12,4.6Z"/>
        <path class="cls-1" d="M188.04,355.05c-.27,2.09-.25,4.19-.26,6.3v3.17c0,1.06.16,2.11.24,3.17,11.22-.07,22.36-.75,33.39-2.05l-.2-3.61c0-1.2.11-2.41.15-3.6-5.57-.26-11.16-.67-16.73-1.23-5.53-.56-11.06-1.28-16.58-2.15Z"/>
      </g>
    </g>
  </g>
</svg>