<?xml version="1.0" encoding="UTF-8"?>
<svg id="Layer_2" data-name="Layer 2" xmlns="http://www.w3.org/2000/svg" viewBox="0 0 674.39 1183">
  <defs>
    <style>
      .cls-1 {
        fill: #bfbfbf;
        stroke: #000;
        stroke-linecap: round;
        stroke-width: 4.5px;
      }
    </style>
  </defs>
  <g id="Layer_2-2" data-name="Layer 2">
    <g>
      <g>
        <g>
          <path class="cls-1" d="M2.25,940.76c15.96-34.66,48.61-40.2,66.13-78.24l8.48,3.91c-17.52,38.04-50.16,43.59-66.12,78.25"/>
          <path class="cls-1" d="M37.25,956.88c16.98-36.87.55-66.52,16.02-100.12l8.48,3.91c-15.47,33.6.97,63.25-16.01,100.12"/>
          <path class="cls-1" d="M87.23,756.24c-15.96,34.66,1.05,63.08-16.47,101.12l8.48,3.91c17.52-38.04.52-66.45,16.48-101.11"/>
          <path class="cls-1" d="M122.23,772.36c-16.98,36.87-50.19,43.66-65.66,77.26l8.48,3.91c15.47-33.6,48.69-40.38,65.68-77.25"/>
          <polygon class="cls-1" points="19.15 865.69 51.7 865.23 116.94 843.4 83.71 845.94 19.15 865.69"/>
          <polygon class="cls-1" points="87.06 901.11 68.9 873.44 46.46 810.72 64.86 836.95 87.06 901.11"/>
          <polygon class="cls-1" points="81.43 864.89 83.83 860.11 53.64 845.72 51.24 850.5 81.43 864.89"/>
          <polygon class="cls-1" points="83.57 860 86.43 855.46 56.93 839.88 54.05 844.42 83.57 860"/>
          <polygon class="cls-1" points="51.52 850.57 48.66 855.12 78.17 870.7 81.04 866.15 51.52 850.57"/>
        </g>
        <g>
          <path class="cls-1" d="M259.89,987.01c-14.9,0-22.2-27.34-38.55-27.34v-9.34c16.35,0,23.65,27.33,38.55,27.33"/>
          <path class="cls-1" d="M259.89,948.48c-15.85,0-23.68,27.32-38.13,27.32v-9.34c14.44,0,22.27-27.34,38.13-27.34"/>
          <path class="cls-1" d="M180.56,987.01c14.9,0,22.2-27.34,38.55-27.34v-9.34c-16.35,0-23.65,27.33-38.55,27.33"/>
          <path class="cls-1" d="M180.56,948.48c15.85,0,23.68,27.32,38.13,27.32v-9.34c-14.44,0-22.27-27.34-38.13-27.34"/>
          <polygon class="cls-1" points="230.5 1003.07 225.02 973.69 206.62 923.57 212.95 952.68 230.5 1003.07"/>
          <polygon class="cls-1" points="231.97 926.57 225.12 954.63 206.55 1001.25 212.84 973.57 231.97 926.57"/>
          <polygon class="cls-1" points="220.04 946.83 217.96 946.65 217.79 980.09 219.87 980.27 220.04 946.83"/>
          <polygon class="cls-1" points="217.96 946.93 215.88 946.23 215.18 979.55 217.26 980.26 217.96 946.93"/>
          <polygon class="cls-1" points="219.85 979.99 221.93 980.68 222.64 947.36 220.56 946.66 219.85 979.99"/>
        </g>
        <g>
          <path class="cls-1" d="M401.87,835.74c0-5.21,0-10.4,0-15.58.02-5.18.05-10.35.07-15.51.04-5.15.09-10.29.13-15.42.06-5.12.13-10.23.19-15.32.08-5.09.17-10.16.25-15.22.1-5.05.2-10.09.3-15.12.26-10.02.51-19.99.76-29.89.32-9.86.64-19.67.96-29.41.38-9.69.76-19.32,1.14-28.88.44-9.51.87-18.94,1.3-28.31.49-9.31.97-18.54,1.45-27.7.53-9.1,1.06-18.12,1.58-27.05.57-8.87,1.14-17.66,1.7-26.36.61-8.63,1.2-17.18,1.8-25.63.63-8.38,1.26-16.67,1.88-24.85.66-8.12,1.31-16.14,1.95-24.04.68-7.84,1.34-15.57,2-23.18.69-7.55,1.37-14.98,2.03-22.29.7-7.25,1.38-14.37,2.05-21.35.7-6.93,1.38-13.72,2.05-20.37.69-6.6,1.37-13.05,2.04-19.36.69-6.25,1.35-12.35,2.01-18.3.67-5.9,1.32-11.63,1.96-17.2.65-5.52,1.28-10.88,1.9-16.06.63-5.14,1.23-10.1,1.82-14.87,1.21-9.44,2.32-18.15,3.33-26.04,1.05-7.77,1.99-14.74,2.81-20.82.85-5.99,1.58-11.11,2.17-15.28,1.23-8.19,1.89-12.61,1.89-12.61-.42,3.3-.84,6.62-1.26,9.96-.41,3.38-.82,6.77-1.23,10.18-.4,3.45-.8,6.91-1.2,10.39-.39,3.51-.78,7.04-1.17,10.59-.38,3.58-.76,7.17-1.14,10.77-.37,3.64-.74,7.29-1.11,10.95-.71,7.41-1.42,14.87-2.14,22.39-.67,7.6-1.35,15.26-2.03,22.95-.64,7.77-1.28,15.59-1.92,23.43-.6,7.91-1.21,15.86-1.81,23.82-.57,8.02-1.14,16.06-1.71,24.12-.54,8.1-1.07,16.21-1.61,24.32-.5,8.15-1.01,16.3-1.51,24.44-.47,8.17-.94,16.33-1.41,24.47-.44,8.17-.88,16.3-1.32,24.4-.41,8.13-.82,16.21-1.23,24.25-.38,8.06-.77,16.06-1.15,24-.69,15.94-1.38,31.6-2.04,46.9-.59,15.36-1.17,30.33-1.73,44.83-.5,14.54-.98,28.58-1.45,42.03-.41,13.48-.81,26.35-1.18,38.51-.33,12.18-.65,23.64-.94,34.26-.51,21.29-.93,39.23-1.26,52.89-.29,13.67-.49,23.05-.58,27.2"/>
          <path class="cls-1" d="M130.72,776.27c1.87-4.14,3.85-8.54,5.95-13.2,2.06-4.69,4.24-9.63,6.52-14.81,2.24-5.18,4.58-10.6,7.02-16.23,2.4-5.63,4.89-11.48,7.47-17.53,2.54-6.04,5.17-12.28,7.87-18.7,2.67-6.41,5.42-12.99,8.23-19.73,5.54-13.46,11.34-27.54,17.32-42.06,5.9-14.5,11.97-29.44,18.16-44.66,6.12-15.19,12.34-30.65,18.61-46.22,6.21-15.54,12.45-31.17,18.67-46.74,6.17-15.54,12.31-31,18.35-46.22,11.97-30.38,23.54-59.76,34.18-86.74,10.53-26.94,20.13-51.48,28.24-72.23,16.09-41.44,26.3-67.74,26.3-67.74l-16.06,15.34c-2.4,6.38-4.83,12.84-7.28,19.37-2.49,6.55-5.01,13.17-7.55,19.86-5.17,13.42-10.43,27.09-15.75,40.93-5.43,13.89-10.92,27.95-16.44,42.1-5.61,14.19-11.25,28.46-16.89,42.73-5.71,14.3-11.43,28.61-17.11,42.84-5.74,14.25-11.45,28.41-17.08,42.41-5.69,14.01-11.31,27.86-16.82,41.45-5.56,13.6-11.01,26.95-16.32,39.95-10.73,26.04-20.89,50.7-30.2,73.3-9.41,22.62-17.96,43.16-25.35,60.93-7.47,17.78-13.76,32.79-18.6,44.31-4.89,11.51-8.3,19.54-9.93,23.38"/>
          <path class="cls-1" d="M449.96,835.74c.08-12,.16-24.07.24-36.17.13-12.09.26-24.22.39-36.34.37-24.21.73-48.39,1.09-72.23.83-47.65,1.64-93.94,2.37-136.34.14-10.61.28-20.98.41-31.07.09-10.1.18-19.91.27-29.41.03-9.51.06-18.69.08-27.53-.01-4.42-.03-8.75-.04-12.98-.03-4.24-.07-8.38-.1-12.43-.06-4.04-.11-7.99-.16-11.84-.08-3.84-.16-7.59-.23-11.23-.11-3.63-.21-7.16-.31-10.59-.13-3.41-.26-6.71-.39-9.92-.08-1.59-.15-3.16-.22-4.7-.08-1.53-.16-3.04-.25-4.52-.09-1.47-.18-2.92-.27-4.34-.1-1.41-.19-2.79-.29-4.15-.11-1.34-.21-2.67-.31-3.97-.11-1.28-.23-2.54-.34-3.77-.12-1.21-.24-2.41-.36-3.58-.13-1.15-.26-2.27-.39-3.38l-6-13.66c.03,3.21.07,6.69.11,10.42.02,3.73.04,7.72.07,11.93,0,8.43.01,17.79.02,27.92-.04,10.13-.08,21.02-.12,32.52-.07,11.5-.15,23.6-.23,36.16-.23,25.09-.49,51.97-.74,79.35-.32,27.36-.65,55.21-.97,82.27-.75,54.09-1.46,104.99-1.97,142.37-.58,37.36-.95,61.2-.95,61.2"/>
          <path class="cls-1" d="M87.22,756.24s4.16-9.53,11.54-26.42c3.72-8.46,8.25-18.77,13.47-30.64,5.25-11.87,11.2-25.32,17.73-40.07,6.57-14.74,13.72-30.79,21.33-47.86,7.67-17.06,15.8-35.16,24.28-54.02,8.55-18.84,17.45-38.45,26.58-58.55,9.22-20.07,18.66-40.64,28.22-61.45,4.82-10.38,9.66-20.83,14.52-31.3,4.89-10.45,9.79-20.93,14.69-31.41,4.93-10.45,9.86-20.9,14.77-31.32,4.95-10.39,9.88-20.74,14.77-31.02,4.93-10.25,9.84-20.43,14.69-30.52,4.9-10.04,9.74-19.99,14.53-29.81,4.83-9.77,9.6-19.41,14.29-28.91,4.74-9.42,9.39-18.7,13.96-27.79,2.3-4.52,4.58-8.99,6.83-13.41,2.27-4.4,4.51-8.76,6.72-13.06,2.23-4.28,4.43-8.5,6.6-12.68,2.18-4.14,4.34-8.24,6.47-12.27,2.14-4,4.25-7.95,6.33-11.84,2.09-3.85,4.15-7.65,6.17-11.39,2.03-3.69,4.04-7.33,6.01-10.9,1.98-3.52,3.92-6.99,5.84-10.4,1.92-3.35,3.8-6.63,5.65-9.86,1.85-3.16,3.67-6.26,5.46-9.3.89-1.49,1.78-2.97,2.65-4.43.88-1.44,1.74-2.87,2.6-4.28.86-1.39,1.71-2.77,2.55-4.13.84-1.34,1.67-2.66,2.49-3.98.82-1.29,1.63-2.56,2.44-3.82.8-1.23,1.59-2.45,2.38-3.66.78-1.18,1.56-2.34,2.32-3.49.76-1.12,1.52-2.23,2.26-3.32.74-1.06,1.47-2.11,2.2-3.15.72-1,1.43-1.99,2.14-2.98.35-.48.7-.95,1.05-1.42l.26-.35.06-.09s.02.05.03.07l.05.2.18.82c.24,1.12.47,2.23.71,3.33l3.31,78.89c-.15-1.36-.3-2.71-.45-4.06-.16-1.33-.32-2.65-.48-3.98l-.51-3.9-.53-3.82-.56-3.74-.58-3.66-.61-3.59c-.21-1.17-.42-2.34-.64-3.51-.22-1.14-.44-2.29-.66-3.44-.23-1.12-.46-2.24-.68-3.36-.24-1.09-.47-2.19-.71-3.29-.24-1.07-.49-2.14-.73-3.21-.25-1.04-.5-2.09-.76-3.14-.26-1.02-.52-2.04-.78-3.07-.27-1-.53-1.99-.8-3-.27-.97-.55-1.95-.83-2.93,0-.04-.04.05-.06.06l-.07.1-.14.2-.27.4-.55.81-1.1,1.64c-.74,1.11-1.48,2.23-2.22,3.36-1.49,2.31-3,4.65-4.52,7.01-1.53,2.44-3.07,4.9-4.63,7.39-1.56,2.56-3.14,5.15-4.74,7.76-1.6,2.68-3.21,5.38-4.85,8.12-1.63,2.79-3.28,5.62-4.95,8.47-1.66,2.91-3.35,5.84-5.05,8.81-1.7,3.02-3.41,6.06-5.14,9.14-1.73,3.12-3.47,6.28-5.23,9.46-1.76,3.22-3.53,6.48-5.32,9.77-1.78,3.32-3.59,6.68-5.4,10.07-1.81,3.42-3.64,6.87-5.49,10.36-1.84,3.51-3.69,7.06-5.56,10.64-1.86,3.6-3.74,7.24-5.64,10.91-1.89,3.69-3.79,7.41-5.71,11.17-1.91,3.77-3.84,7.58-5.78,11.42-3.86,7.73-7.77,15.58-11.75,23.54-3.94,8.02-7.94,16.17-11.99,24.42-4.01,8.3-8.08,16.7-12.2,25.21-4.08,8.54-8.21,17.19-12.38,25.93-4.14,8.76-8.32,17.62-12.54,26.56-4.19,8.96-8.41,18-12.67,27.11-4.23,9.13-8.49,18.32-12.77,27.58-4.26,9.27-8.54,18.59-12.85,27.96-8.54,18.77-17.17,37.73-25.83,56.77-8.59,19.06-17.21,38.21-25.83,57.34-34.17,76.57-68.22,152.86-99.13,222.1"/>
          <polygon class="cls-1" points="501.54 154.02 465.97 198.77 391.45 431.71 428.08 371.82 501.54 154.02"/>
          <polygon class="cls-1" points="414.67 42.19 432.52 29.87 436.98 26.8 437.12 26.7 437.19 26.65 437.23 26.63 437.25 26.62 437.25 26.67 437.31 27.45 437.44 29.03 437.7 32.19 438.21 38.5 440.25 63.73 448.43 164.69 467.31 599.65 447.31 409.19 439.69 185.99 435.88 74.38 434.93 46.48 434.69 39.51 434.66 38.64 434.66 38.42 434.6 38.43 434.48 38.46 434.02 38.54 433.1 38.72 429.41 39.41 414.67 42.19"/>
          <polygon class="cls-1" points="433.45 239.18 430.1 275.01 460.87 334.8 464.22 298.99 433.45 239.18"/>
          <polygon class="cls-1" points="430.38 275.35 426.56 310.16 456.43 378.94 460.24 344.16 430.38 275.35"/>
          <polygon class="cls-1" points="463.94 298.83 467.75 264.04 437.89 195.24 434.06 230.04 463.94 298.83"/>
          <path class="cls-1" d="M466.08,117.47l-18.9-52.42-9.45-26.21-1.18-3.28-.59-1.64-.15-.41-.04-.1v-.03s-.02-.02-.02,0l-.05.07-.18.29-.73,1.15-5.81,9.19-11.63,18.38-186.14,356.95,82.21-135.76,98.47-184.1,12.31-23.01,3.08-5.75.38-.72.09-.17.04.06.09.11.36.44.71.89,2.86,3.54,11.42,14.18,22.84,28.35Z"/>
          <polygon class="cls-1" points="386.33 .35 388.73 81.78 349.91 335.25 344.81 262.47 386.33 .35"/>
          <polygon class="cls-1" points="346.6 173.68 333.9 208.18 384.16 174.23 396.85 139.75 346.6 173.68"/>
          <polygon class="cls-1" points="334.39 207.72 320.95 242.66 367.87 217.6 381.29 182.69 334.39 207.72"/>
          <polygon class="cls-1" points="396.3 140.4 409.73 105.47 362.8 130.56 349.37 165.47 396.3 140.4"/>
        </g>
        <g>
          <path class="cls-1" d="M259.88,938.92c1.14,0,2.28,0,3.42,0,1.14.02,2.27.05,3.4.07,1.13.04,2.26.09,3.38.13,1.12.06,2.24.13,3.36.19,1.12.08,2.23.17,3.34.25,1.11.1,2.21.2,3.31.3,1.1.12,2.2.24,3.29.36,1.09.14,2.18.27,3.26.41,1.08.15,2.16.3,3.24.46,1.07.17,2.14.34,3.21.5,1.06.18,2.12.37,3.18.55,1.05.2,2.1.4,3.15.59,1.04.21,2.08.42,3.12.63,1.03.22,2.06.45,3.09.67,1.02.24,2.04.47,3.05.71,1.01.25,2.02.5,3.02.74,1,.26,1.99.52,2.98.78.99.27,1.97.54,2.95.81.97.28,1.94.56,2.91.84.96.29,1.92.58,2.87.86.95.3,1.89.59,2.83.89.93.3,1.86.61,2.79.91.92.31,1.84.62,2.75.93.91.32,1.81.63,2.7.95.89.32,1.78.65,2.66.97.88.33,1.75.66,2.61.98.86.33,1.72.66,2.57.99.85.34,1.68.67,2.52,1,.83.34,1.65.68,2.47,1.01.81.34,1.62.68,2.42,1.02.8.34,1.58.69,2.37,1.02.78.35,1.55.69,2.31,1.03,1.52.7,3.01,1.38,4.47,2.05,1.45.69,2.86,1.37,4.24,2.04,1.37.69,2.71,1.35,4.01,2.01,1.29.67,2.55,1.32,3.77,1.96,1.21.65,2.38,1.28,3.52,1.9,1.13.63,2.21,1.23,3.26,1.82,1.04.6,2.04,1.17,2.99,1.72.95.56,1.85,1.1,2.72,1.61.85.52,1.67,1.01,2.43,1.48.76.47,1.47.92,2.13,1.33.66.42,1.27.81,1.83,1.17.56.37,1.06.7,1.52,1,.9.61,1.59,1.08,2.06,1.4.46.33.7.49.7.49-.72-.42-1.45-.84-2.18-1.27-.74-.41-1.48-.82-2.23-1.23-.76-.4-1.51-.8-2.28-1.2-.77-.39-1.54-.78-2.32-1.17-.78-.38-1.57-.76-2.36-1.14-.8-.37-1.6-.74-2.4-1.11-.81-.36-1.62-.72-2.44-1.09-.82-.35-1.64-.7-2.47-1.06-.83-.34-1.67-.69-2.5-1.03-.84-.33-1.68-.67-2.53-1-.85-.32-1.7-.65-2.56-.97-.86-.31-1.72-.63-2.58-.95l-2.6-.92-2.62-.89-2.64-.87-2.65-.84-2.66-.82-2.67-.79-2.68-.77-2.68-.74c-1.79-.47-3.58-.94-5.36-1.41-1.79-.44-3.57-.88-5.35-1.32-1.78-.41-3.55-.82-5.31-1.23-1.77-.38-3.52-.77-5.26-1.15-1.74-.36-3.47-.71-5.19-1.06-1.72-.33-3.41-.66-5.09-.98-1.68-.31-3.34-.61-4.98-.9-1.64-.28-3.26-.56-4.85-.83-1.59-.26-3.16-.51-4.69-.76-1.54-.23-3.05-.46-4.52-.69-1.48-.21-2.92-.42-4.33-.62-1.41-.19-2.78-.38-4.11-.56-2.67-.33-5.18-.65-7.51-.94-2.33-.26-4.48-.51-6.42-.72-1.94-.2-3.67-.38-5.17-.53-3-.29-5.05-.49-5.97-.58"/>
          <path class="cls-1" d="M402.08,796.92c.01.5.02,1.01.04,1.55.02.53.05,1.08.08,1.64.04.56.08,1.14.12,1.73.05.59.1,1.2.15,1.82.06.62.12,1.25.19,1.9.07.65.15,1.3.22,1.98.08.67.17,1.36.26,2.05.09.7.19,1.4.29,2.12.22,1.44.44,2.92.67,4.44.25,1.52.51,3.08.78,4.68.29,1.6.58,3.23.88,4.89.32,1.66.64,3.35.98,5.07.35,1.72.7,3.46,1.06,5.22.37,1.76.75,3.54,1.13,5.34.39,1.79.79,3.6,1.19,5.43.41,1.82.82,3.65,1.24,5.48.86,3.66,1.73,7.35,2.59,11.02.9,3.66,1.79,7.3,2.67,10.88.91,3.58,1.8,7.09,2.66,10.51.89,3.41,1.75,6.72,2.58,9.89.84,3.17,1.65,6.19,2.41,9.04.77,2.84,1.49,5.5,2.16,7.94,1.35,4.86,2.46,8.84,3.22,11.6.78,2.76,1.22,4.3,1.22,4.3l8.17-4.53c-.49-1.49-.98-3-1.49-4.52-.48-1.53-.96-3.08-1.45-4.65-.47-1.57-.94-3.15-1.42-4.75-.46-1.6-.92-3.22-1.39-4.84-.45-1.63-.9-3.27-1.35-4.92-.44-1.65-.88-3.31-1.32-4.97-.43-1.67-.85-3.34-1.28-5.02-.42-1.68-.83-3.36-1.25-5.04l-1.21-5.05c-.39-1.69-.78-3.37-1.17-5.05-.75-3.36-1.49-6.71-2.22-10.01-.7-3.31-1.38-6.58-2.06-9.79-.64-3.22-1.27-6.38-1.89-9.45-.59-3.08-1.16-6.08-1.71-8.98-.53-2.9-1.04-5.7-1.52-8.38-.47-2.68-.91-5.24-1.33-7.66-.4-2.42-.78-4.69-1.13-6.8-.34-2.11-.65-4.06-.93-5.82-.27-1.76-.51-3.34-.71-4.71-.19-1.37-.36-2.54-.49-3.47-.12-.94-.21-1.65-.27-2.11"/>
          <path class="cls-1" d="M259.88,987.01c1.32.03,2.64.07,3.96.1,1.32.05,2.65.09,3.97.14l3.98.18,3.98.21c2.65.17,5.31.34,7.95.51,2.64.2,5.27.39,7.88.59,5.22.43,10.37.85,15.37,1.26,2.5.2,4.97.4,7.39.6,2.42.18,4.8.35,7.12.52,1.16.08,2.31.15,3.45.22,1.14.06,2.26.13,3.36.19,1.11.05,2.2.1,3.27.15,1.08.04,2.13.08,3.17.11,1.04.02,2.07.04,3.07.07,1.01,0,1.99.01,2.96.02.97-.01,1.92-.03,2.85-.04.46-.01.92-.03,1.38-.04.45-.02.9-.04,1.35-.06.44-.02.88-.05,1.31-.07.43-.03.86-.06,1.28-.09.42-.04.84-.07,1.25-.11.41-.04.81-.08,1.21-.12.4-.05.79-.1,1.18-.14.39-.06.77-.11,1.14-.16.37-.06.74-.12,1.11-.18.36-.07.72-.14,1.07-.2.35-.08.69-.15,1.03-.22.34-.08.67-.16.99-.25.32-.09.64-.18.95-.27.31-.1.61-.19.91-.29.29-.11.58-.21.87-.31l.42-.17.41-.17.4-.18.39-.18.38-.19.36-.2,2.99-6c-.7.03-1.47.07-2.28.11-.82.02-1.69.04-2.62.07-.92,0-1.9.02-2.92.03-1.02,0-2.09,0-3.2,0-1.11-.01-2.26-.03-3.45-.04-1.19-.02-2.42-.05-3.68-.07-2.52-.07-5.17-.15-7.93-.23-2.75-.11-5.6-.22-8.51-.33-2.91-.13-5.88-.27-8.88-.41-6-.32-12.1-.65-18.03-.97-5.93-.36-11.68-.71-16.98-1.03-5.29-.35-10.13-.67-14.23-.94-8.19-.58-13.42-.95-13.42-.95"/>
          <path class="cls-1" d="M449.97,796.92s.21,2.28.57,6.33c.16,2.03.35,4.49.58,7.34.19,2.85.41,6.07.66,9.6.11,1.77.21,3.62.33,5.53.1,1.92.21,3.9.31,5.95.09,2.05.19,4.16.29,6.33.08,2.17.17,4.39.25,6.65.07,2.27.14,4.58.2,6.93.05,2.35.1,4.74.15,7.16.02,2.42.05,4.87.08,7.34,0,2.47,0,4.97,0,7.48-.03,2.51-.07,5.03-.1,7.56-.07,2.53-.13,5.07-.2,7.6l-.14,3.8c-.06,1.26-.12,2.53-.17,3.79-.07,1.26-.14,2.52-.2,3.78-.08,1.26-.16,2.51-.24,3.75-.09,1.25-.18,2.49-.27,3.73-.1,1.24-.21,2.47-.31,3.7-.12,1.23-.23,2.44-.34,3.66-.13,1.21-.26,2.42-.38,3.61-.14,1.19-.28,2.38-.42,3.56-.16,1.18-.31,2.35-.46,3.5-.17,1.16-.34,2.3-.51,3.44-.19,1.13-.37,2.26-.55,3.37-.2,1.11-.4,2.21-.6,3.3-.22,1.08-.43,2.16-.64,3.22-.23,1.06-.46,2.1-.69,3.13-.12.51-.24,1.02-.36,1.53-.13.51-.25,1.01-.38,1.51-.13.5-.26.99-.39,1.48-.14.49-.27.97-.4,1.46-.14.48-.28.96-.42,1.43-.14.47-.29.94-.43,1.4-.15.46-.3.92-.44,1.38-.15.45-.3.9-.46,1.35-.16.44-.31.88-.47,1.32-.16.43-.32.86-.48,1.29-.17.42-.33.84-.5,1.26-.17.41-.34.82-.51,1.23-.18.4-.35.8-.53,1.19-.18.39-.36.78-.54,1.16-.19.38-.37.75-.56,1.13-.19.37-.38.73-.57,1.09-.2.36-.39.71-.59,1.06-.2.34-.4.68-.6,1.02-.21.33-.41.66-.62.98-.21.32-.42.63-.63.95-.22.31-.43.61-.65.91-.22.29-.45.58-.66.87-.23.28-.46.56-.68.83-.23.27-.47.53-.7.79l-.35.38-.36.37-.36.36-.37.35-17.29,3.31.89-.45.87-.48.85-.51.84-.53.82-.56.8-.58.79-.61.77-.63.75-.66.74-.68.72-.71.7-.73.69-.76.67-.78.66-.8.64-.83.63-.85.61-.87.6-.89.58-.92.57-.94.55-.96c.18-.32.36-.65.54-.98.17-.33.35-.67.52-1,.17-.34.34-.68.51-1.02.16-.34.33-.69.5-1.04.16-.35.32-.71.48-1.06.16-.36.31-.72.47-1.08.15-.36.3-.73.46-1.1.15-.37.29-.74.44-1.12.14-.38.29-.76.43-1.14.14-.38.28-.77.42-1.15.13-.39.27-.78.4-1.17.13-.4.26-.79.39-1.19.13-.4.25-.8.38-1.21.12-.41.24-.81.37-1.23.23-.83.46-1.66.7-2.5.21-.85.43-1.7.65-2.57.2-.87.4-1.74.6-2.63.18-.89.37-1.78.56-2.69.17-.91.34-1.82.52-2.75.16-.93.31-1.86.47-2.8.14-.94.29-1.9.43-2.86.13-.96.26-1.93.39-2.91.12-.98.24-1.96.36-2.96.11-.99.21-2,.32-3,.09-1.01.19-2.03.28-3.05.08-1.02.17-2.05.25-3.09.07-1.04.14-2.08.22-3.13.06-1.05.12-2.11.18-3.17.05-1.06.1-2.13.15-3.2.04-1.07.08-2.15.12-3.23.03-1.08.06-2.17.1-3.27.02-1.09.05-2.19.07-3.29.02-2.2.04-4.43.07-6.66,0-2.24-.02-4.49-.03-6.75-.04-2.26-.07-4.53-.11-6.81-.06-2.28-.12-4.57-.18-6.86-.08-2.29-.16-4.59-.24-6.89l-.29-6.9c-.23-4.6-.46-9.19-.68-13.75-.26-4.56-.51-9.09-.76-13.57-.26-4.48-.51-8.9-.76-13.24-.23-4.34-.45-8.6-.67-12.76"/>
          <polygon class="cls-1" points="409.32 1038.59 399.51 1003.01 348.45 928.49 361.58 965.13 409.32 1038.59"/>
          <polygon class="cls-1" points="451.24 969.12 406.98 985.47 311.64 1004.35 353.38 984.36 451.24 969.12"/>
          <rect class="cls-1" x="363.45" y="979.94" width="33.45" height="8.54" transform="translate(-674.29 947.94) rotate(-66.91)"/>
          <polygon class="cls-1" points="382.72 967.43 375.09 963.61 360.02 993.47 367.64 997.28 382.72 967.43"/>
          <polygon class="cls-1" points="377.58 1000.98 385.2 1004.8 400.28 974.94 392.65 971.11 377.58 1000.98"/>
          <polygon class="cls-1" points="417.33 1003.12 440.31 965.33 460.07 877.19 442.19 911.76 417.33 1003.12"/>
          <polygon class="cls-1" points="494.48 974.85 458.24 958.86 387.47 904.83 422.54 918.86 494.48 974.85"/>
          <rect class="cls-1" x="424.17" y="934.09" width="33.44" height="8.54" transform="translate(-292.51 205.54) rotate(-19.86)"/>
          <polygon class="cls-1" points="454.92 928.8 452.51 920.61 420.37 929.9 422.78 938.09 454.92 928.8"/>
          <polygon class="cls-1" points="426.84 947.88 429.25 956.07 461.38 946.77 458.98 938.59 426.84 947.88"/>
        </g>
      </g>
      <g>
        <g>
          <path class="cls-1" d="M194.97,1084c11.8-25.75,42.44-26.97,55.39-55.24l8.49,3.89c-12.95,28.26-43.58,29.49-55.38,55.24"/>
          <path class="cls-1" d="M230,1100.05c12.56-27.39-6.08-52.31,5.36-77.27l8.49,3.89c-11.44,24.96,7.21,49.89-5.35,77.28"/>
          <path class="cls-1" d="M257.8,946.91c-11.8,25.75,7.27,49.76-5.68,78.02l8.49,3.89c12.95-28.26-6.11-52.26,5.7-78.01"/>
          <path class="cls-1" d="M292.83,962.96c-12.56,27.39-43.6,29.54-55.04,54.5l8.49,3.89c11.44-24.96,42.5-27.11,55.05-54.5"/>
          <polygon class="cls-1" points="203.65 1026.52 234.69 1029.3 294.83 1018.38 263.36 1017.19 203.65 1026.52"/>
          <polygon class="cls-1" points="272.03 1060.94 251.94 1037.41 224.27 985.88 244.45 1008.29 272.03 1060.94"/>
          <polygon class="cls-1" points="263.06 1031.88 264.88 1028.35 234.61 1014.12 232.8 1017.65 263.06 1031.88"/>
          <polygon class="cls-1" points="264.62 1028.24 266.9 1024.94 237.17 1009.84 234.88 1013.14 264.62 1028.24"/>
          <polygon class="cls-1" points="233.07 1017.74 230.79 1021.04 260.53 1036.14 262.81 1032.84 233.07 1017.74"/>
        </g>
        <g>
          <path class="cls-1" d="M430.6,1130.19c-12.83,0-19.12-27.34-33.2-27.34v-9.34c14.08,0,20.37,27.33,33.2,27.33"/>
          <path class="cls-1" d="M430.6,1091.66c-13.65,0-20.39,27.33-32.83,27.33v-9.34c12.44,0,19.18-27.34,32.83-27.34"/>
          <path class="cls-1" d="M362.29,1130.19c12.83,0,19.12-27.34,33.2-27.34v-9.34c-14.08,0-20.37,27.33-33.2,27.33"/>
          <path class="cls-1" d="M362.29,1091.66c13.65,0,20.39,27.33,32.83,27.33v-9.34c-12.44,0-19.18-27.34-32.83-27.34"/>
          <polygon class="cls-1" points="405.3 1146.25 400.58 1116.87 384.73 1066.75 390.18 1095.86 405.3 1146.25"/>
          <polygon class="cls-1" points="406.56 1069.75 400.66 1097.82 384.67 1144.44 390.09 1116.75 406.56 1069.75"/>
          <polygon class="cls-1" points="396.29 1090.01 394.49 1089.83 394.35 1123.27 396.14 1123.45 396.29 1090.01"/>
          <polygon class="cls-1" points="394.5 1090.11 392.71 1089.41 392.1 1122.73 393.89 1123.44 394.5 1090.11"/>
          <polygon class="cls-1" points="396.13 1123.17 397.92 1123.86 398.52 1090.54 396.73 1089.84 396.13 1123.17"/>
        </g>
        <g>
          <path class="cls-1" d="M572.59,1026.1c0-5.23,0-10.45,0-15.65.02-5.21.05-10.4.07-15.58.04-5.18.09-10.34.13-15.49.06-5.14.13-10.27.19-15.39.08-5.11.17-10.21.25-15.29.1-5.08.2-10.14.3-15.18.26-10.07.51-20.08.76-30.02.32-9.91.64-19.75.96-29.53.38-9.73.76-19.4,1.14-29,.44-9.55.87-19.03,1.3-28.43.49-9.35.97-18.62,1.45-27.82.53-9.14,1.06-18.19,1.58-27.17.57-8.91,1.14-17.74,1.7-26.47.61-8.67,1.2-17.25,1.8-25.74.63-8.42,1.26-16.74,1.88-24.96.66-8.16,1.31-16.21,1.95-24.14.68-7.88,1.34-15.64,2-23.29.69-7.58,1.37-15.05,2.03-22.39.7-7.28,1.38-14.43,2.05-21.44.7-6.96,1.38-13.78,2.05-20.46.69-6.63,1.37-13.11,2.04-19.44.69-6.28,1.35-12.41,2.01-18.38.67-5.92,1.32-11.68,1.96-17.27.65-5.55,1.28-10.93,1.9-16.13.63-5.16,1.23-10.14,1.82-14.94,1.21-9.48,2.32-18.23,3.33-26.15,1.05-7.81,1.99-14.81,2.81-20.91.85-6.02,1.58-11.16,2.17-15.34,1.23-8.22,1.89-12.67,1.89-12.67-.42,3.32-.84,6.65-1.26,10-.41,3.39-.82,6.8-1.23,10.22-.4,3.46-.8,6.94-1.2,10.43-.39,3.53-.78,7.07-1.17,10.63-.38,3.59-.76,7.2-1.14,10.82-.37,3.65-.74,7.32-1.11,11-.71,7.44-1.42,14.94-2.14,22.48-.67,7.64-1.35,15.33-2.03,23.05-.64,7.81-1.28,15.65-1.92,23.53-.6,7.95-1.21,15.92-1.81,23.92-.57,8.06-1.14,16.13-1.71,24.22-.54,8.14-1.07,16.28-1.61,24.43-.5,8.19-1.01,16.38-1.51,24.55-.47,8.21-.94,16.4-1.41,24.57-.44,8.2-.88,16.37-1.32,24.51-.41,8.16-.82,16.28-1.23,24.35-.38,8.09-.77,16.13-1.15,24.1-.69,16.01-1.38,31.74-2.04,47.1-.59,15.42-1.17,30.47-1.73,45.02-.5,14.6-.98,28.71-1.45,42.21-.41,13.54-.81,26.47-1.18,38.68-.33,12.23-.65,23.74-.94,34.41-.51,21.38-.93,39.4-1.26,53.12-.29,13.73-.49,23.15-.58,27.32"/>
          <path class="cls-1" d="M301.33,966.86c1.87-4.16,3.85-8.58,5.96-13.27,2.07-4.71,4.24-9.68,6.53-14.88,2.24-5.21,4.59-10.65,7.02-16.31,2.4-5.66,4.9-11.54,7.48-17.62,2.55-6.07,5.17-12.34,7.88-18.79,2.67-6.44,5.42-13.06,8.23-19.83,5.55-13.53,11.35-27.68,17.33-42.27,5.9-14.57,11.98-29.59,18.17-44.88,6.12-15.27,12.35-30.81,18.62-46.45,6.21-15.62,12.46-31.33,18.68-46.97,6.17-15.62,12.31-31.16,18.35-46.45,11.97-30.53,23.55-60.05,34.19-87.17,10.53-27.07,20.13-51.73,28.25-72.59,16.09-41.64,26.31-68.07,26.31-68.07l-16.07,15.45c-2.4,6.41-4.83,12.9-7.29,19.46-2.49,6.58-5.01,13.24-7.55,19.96-5.17,13.49-10.43,27.22-15.76,41.13-5.43,13.96-10.92,28.09-16.45,42.3-5.61,14.26-11.25,28.6-16.9,42.94-5.71,14.38-11.43,28.75-17.11,43.05-5.74,14.32-11.45,28.55-17.09,42.62-5.69,14.08-11.31,28-16.83,41.65-5.56,13.67-11.01,27.08-16.33,40.15-10.73,26.17-20.9,50.96-30.21,73.66-9.41,22.73-17.96,43.38-25.36,61.24-7.47,17.87-13.77,32.96-18.61,44.54-4.89,11.57-8.3,19.63-9.93,23.5"/>
          <path class="cls-1" d="M620.68,1026.1c.08-12.05.16-24.17.24-36.33.13-12.15.26-24.32.39-36.49.37-24.31.73-48.6,1.09-72.54.83-47.86,1.64-94.35,2.37-136.93.14-10.66.28-21.07.41-31.21.09-10.14.18-20,.27-29.54.03-9.55.06-18.77.08-27.65-.01-4.44-.03-8.79-.04-13.04-.03-4.25-.07-8.42-.1-12.48-.06-4.06-.11-8.03-.16-11.9-.08-3.86-.16-7.62-.23-11.28-.11-3.65-.21-7.19-.31-10.64-.13-3.42-.26-6.74-.39-9.96-.16-3.19-.32-6.27-.47-9.26-.09-1.48-.18-2.93-.27-4.36-.1-1.41-.19-2.8-.29-4.17-.11-1.35-.21-2.68-.31-3.98-.11-1.29-.23-2.55-.34-3.79-.12-1.22-.24-2.42-.36-3.59-.13-1.15-.26-2.28-.39-3.39l-6-13.72c.03,3.22.07,6.72.11,10.47.02,3.75.04,7.75.07,11.98,0,8.47.01,17.87.02,28.04-.04,10.17-.08,21.11-.12,32.66-.07,11.55-.15,23.71-.23,36.31-.23,25.2-.49,52.2-.74,79.69-.32,27.48-.65,55.45-.97,82.63-.75,54.32-1.46,105.45-1.97,142.99-.58,37.52-.95,61.47-.95,61.47"/>
          <path class="cls-1" d="M257.8,946.91s4.16-9.58,11.55-26.56c3.72-8.5,8.25-18.86,13.48-30.8,5.26-11.93,11.21-25.45,17.74-40.27,6.57-14.82,13.73-30.94,21.34-48.11,7.67-17.15,15.81-35.34,24.29-54.3,8.56-18.94,17.46-38.64,26.59-58.85,9.22-20.17,18.67-40.85,28.23-61.76,4.82-10.44,9.67-20.94,14.53-31.46,4.89-10.51,9.79-21.04,14.69-31.57,4.93-10.51,9.86-21.01,14.78-31.48,4.95-10.44,9.88-20.85,14.78-31.18,4.94-10.3,9.84-20.54,14.7-30.68,4.9-10.1,9.75-20.1,14.54-29.97,4.83-9.82,9.6-19.52,14.29-29.06,4.74-9.48,9.4-18.8,13.97-27.94,2.3-4.54,4.58-9.04,6.84-13.49,2.27-4.42,4.51-8.8,6.73-13.13,2.23-4.3,4.43-8.55,6.6-12.75,2.18-4.17,4.34-8.28,6.47-12.34,2.14-4.02,4.25-7.99,6.33-11.91,2.09-3.87,4.15-7.69,6.18-11.45,2.04-3.71,4.04-7.37,6.01-10.96,1.98-3.54,3.93-7.03,5.84-10.45,1.92-3.36,3.8-6.67,5.66-9.92,1.85-3.18,3.68-6.29,5.46-9.35.89-1.5,1.78-2.99,2.66-4.46.88-1.45,1.74-2.89,2.6-4.31.86-1.4,1.71-2.78,2.55-4.16.84-1.35,1.67-2.68,2.49-4,.82-1.29,1.63-2.57,2.44-3.84.8-1.24,1.6-2.46,2.38-3.68.78-1.18,1.56-2.35,2.32-3.51.76-1.12,1.52-2.24,2.26-3.34.74-1.07,1.47-2.12,2.2-3.17.72-1.01,1.43-2,2.14-2.99.35-.48.7-.96,1.05-1.43l.26-.35.06-.09s.02.05.03.07l.05.21.18.82c.24,1.13.47,2.24.71,3.35l3.31,79.23c-.15-1.36-.3-2.72-.45-4.08-.16-1.33-.32-2.67-.48-4l-.51-3.92-.53-3.84-.56-3.76-.58-3.68-.61-3.6c-.21-1.17-.42-2.35-.64-3.53-.22-1.15-.44-2.3-.66-3.45-.23-1.12-.46-2.25-.68-3.38-.24-1.1-.47-2.2-.71-3.3-.24-1.07-.49-2.15-.73-3.23-.25-1.05-.5-2.1-.76-3.15-.26-1.02-.52-2.05-.78-3.08-.27-1-.53-2-.8-3.01-.27-.98-.55-1.96-.83-2.94,0-.04-.04.05-.06.06l-.07.1-.14.2-.27.41-.55.82-1.1,1.65c-.74,1.12-1.48,2.25-2.22,3.38-1.49,2.33-3,4.68-4.53,7.05-1.53,2.45-3.08,4.93-4.64,7.43-1.57,2.57-3.15,5.18-4.74,7.8-1.6,2.69-3.22,5.42-4.85,8.17-1.63,2.81-3.28,5.65-4.95,8.52-1.67,2.92-3.35,5.88-5.05,8.86-1.7,3.03-3.41,6.1-5.14,9.19-1.73,3.14-3.47,6.31-5.23,9.51-1.76,3.24-3.53,6.52-5.32,9.82-1.78,3.34-3.59,6.72-5.41,10.13-1.81,3.44-3.64,6.91-5.49,10.42-1.84,3.53-3.69,7.1-5.57,10.7-1.86,3.62-3.74,7.28-5.64,10.97-1.89,3.71-3.79,7.45-5.71,11.23-1.91,3.79-3.84,7.62-5.78,11.48-3.86,7.77-7.78,15.66-11.76,23.67-3.94,8.07-7.94,16.25-11.99,24.55-4.02,8.34-8.08,16.79-12.2,25.35-4.08,8.59-8.21,17.28-12.38,26.06-4.14,8.81-8.32,17.71-12.54,26.7-4.19,9-8.41,18.09-12.67,27.25-4.23,9.17-8.49,18.42-12.78,27.72-4.26,9.32-8.55,18.69-12.86,28.11-8.54,18.87-17.17,37.92-25.84,57.06-8.59,19.16-17.22,38.41-25.84,57.64-34.19,76.96-68.25,153.64-99.17,223.24"/>
          <polygon class="cls-1" points="672.26 341.42 636.68 386.36 562.16 620.31 598.8 560.17 672.26 341.42"/>
          <polygon class="cls-1" points="585.37 229.16 603.23 216.74 607.7 213.64 607.84 213.54 607.91 213.49 607.94 213.47 607.96 213.46 607.97 213.51 608.03 214.3 608.16 215.88 608.41 219.05 608.92 225.39 610.97 250.74 619.14 352.13 638.02 788.98 618.03 597.7 610.41 373.52 606.6 261.43 605.65 233.41 605.41 226.41 605.38 225.53 605.37 225.32 605.31 225.33 605.2 225.35 604.74 225.44 603.82 225.62 600.13 226.33 585.37 229.16"/>
          <polygon class="cls-1" points="604.17 426.95 600.82 462.93 631.59 522.98 634.94 487.02 604.17 426.95"/>
          <polygon class="cls-1" points="601.1 463.28 597.28 498.23 627.14 567.32 630.95 532.38 601.1 463.28"/>
          <polygon class="cls-1" points="634.65 486.85 638.47 451.92 608.61 382.81 604.78 417.77 634.65 486.85"/>
          <path class="cls-1" d="M636.8,304.71l-18.9-52.64-9.45-26.32-1.18-3.29-.59-1.65-.15-.41-.04-.1v-.03s-.02-.02-.02,0l-.05.07-.18.29-.73,1.16-5.82,9.24-11.63,18.48-186.22,358.88,82.25-136.53,98.51-185.1,12.31-23.14,3.08-5.78.38-.72.09-.17.04.06.09.11.36.45.71.89,2.86,3.56,11.42,14.24,22.84,28.48Z"/>
          <polygon class="cls-1" points="557 187.28 559.42 268.98 520.61 523.51 515.5 450.48 557 187.28"/>
          <polygon class="cls-1" points="517.27 361.37 504.57 396.04 554.86 361.78 567.55 327.14 517.27 361.37"/>
          <polygon class="cls-1" points="505.05 395.57 491.61 430.68 538.57 405.37 551.99 370.28 505.05 395.57"/>
          <polygon class="cls-1" points="567 327.79 580.44 292.69 533.48 318.03 520.04 353.11 567 327.79"/>
        </g>
        <g>
          <path class="cls-1" d="M430.6,1082.1c1.14,0,2.28,0,3.42,0,1.14.02,2.27.05,3.4.07,1.13.04,2.26.09,3.38.13,1.12.06,2.24.13,3.36.19,1.12.08,2.23.17,3.34.25,1.11.1,2.21.2,3.31.3,1.1.12,2.2.24,3.29.36,1.09.14,2.18.27,3.26.41,1.08.15,2.16.3,3.24.46,1.07.17,2.14.34,3.21.5,1.06.18,2.12.37,3.18.55,1.05.2,2.1.4,3.15.59,1.04.21,2.08.42,3.12.63,1.03.22,2.06.45,3.09.67,1.02.24,2.04.47,3.05.71,1.01.25,2.02.5,3.02.74,1,.26,1.99.52,2.98.78.99.27,1.97.54,2.95.81.97.28,1.94.56,2.91.84.96.29,1.92.58,2.87.86.95.3,1.89.59,2.83.89.93.31,1.86.61,2.79.91.92.31,1.84.62,2.75.93.91.32,1.81.64,2.7.95.89.32,1.78.65,2.66.97.88.33,1.75.66,2.61.98.86.33,1.72.66,2.57.99.85.34,1.68.67,2.52,1,.83.34,1.65.68,2.47,1.01.81.34,1.62.68,2.42,1.02.8.34,1.58.69,2.37,1.02.78.35,1.55.69,2.31,1.03,1.52.7,3.01,1.38,4.47,2.05,1.45.69,2.86,1.37,4.24,2.04,1.37.69,2.71,1.35,4.01,2.01,1.29.67,2.55,1.32,3.77,1.96,1.21.65,2.38,1.28,3.52,1.9,1.13.63,2.21,1.23,3.26,1.82,1.04.6,2.04,1.17,2.99,1.72.95.56,1.85,1.1,2.72,1.61.85.52,1.67,1.01,2.43,1.48.76.47,1.47.92,2.13,1.33.66.42,1.27.81,1.83,1.17.56.37,1.06.7,1.52,1,.9.61,1.59,1.08,2.06,1.4.46.33.7.5.7.5-.72-.42-1.45-.84-2.18-1.27-.74-.41-1.48-.82-2.23-1.23-.76-.4-1.51-.8-2.28-1.2-.77-.39-1.54-.78-2.32-1.17-.78-.38-1.57-.76-2.36-1.14-.8-.37-1.6-.74-2.4-1.11-.81-.36-1.62-.72-2.44-1.09-.82-.35-1.64-.7-2.47-1.06-.83-.34-1.67-.69-2.5-1.03-.84-.33-1.68-.67-2.53-1-.85-.32-1.7-.65-2.56-.97-.86-.31-1.72-.63-2.58-.95l-2.6-.92-2.62-.89-2.64-.87-2.65-.84-2.66-.82-2.67-.79-2.68-.77-2.68-.74c-1.79-.47-3.58-.94-5.36-1.41-1.79-.44-3.57-.88-5.35-1.32-1.78-.41-3.55-.82-5.31-1.23-1.77-.38-3.52-.77-5.26-1.15-1.74-.36-3.47-.71-5.19-1.06-1.72-.33-3.41-.66-5.09-.98-1.68-.31-3.34-.61-4.98-.9-1.64-.28-3.26-.56-4.85-.83-1.59-.26-3.16-.51-4.69-.76-1.54-.23-3.05-.46-4.52-.69-1.48-.21-2.92-.42-4.33-.62-1.41-.19-2.78-.38-4.11-.56-2.67-.33-5.18-.65-7.51-.94-2.33-.26-4.48-.51-6.42-.73-1.94-.2-3.67-.38-5.17-.53-3-.29-5.05-.49-5.97-.58"/>
          <path class="cls-1" d="M572.8,940.1c.01.5.02,1.01.04,1.55.02.53.05,1.08.08,1.64.04.56.08,1.14.12,1.73.05.59.1,1.2.15,1.82.06.62.12,1.25.19,1.9.07.65.15,1.31.22,1.98.08.67.17,1.36.26,2.05.09.7.19,1.4.29,2.12.22,1.44.44,2.92.67,4.44.25,1.52.51,3.08.78,4.68.29,1.6.58,3.23.88,4.89.32,1.66.64,3.35.98,5.07.35,1.72.7,3.46,1.06,5.22.37,1.76.75,3.54,1.13,5.34.39,1.79.79,3.6,1.19,5.42.41,1.82.82,3.65,1.24,5.48.86,3.66,1.73,7.35,2.59,11.02.9,3.66,1.79,7.3,2.67,10.88.91,3.58,1.8,7.09,2.66,10.51.89,3.41,1.75,6.72,2.58,9.89.84,3.17,1.65,6.19,2.41,9.04.77,2.84,1.49,5.5,2.16,7.94,1.35,4.86,2.46,8.84,3.22,11.6.78,2.76,1.22,4.3,1.22,4.3l8.17-4.53c-.49-1.49-.98-3-1.49-4.52-.48-1.53-.96-3.08-1.45-4.65-.47-1.57-.94-3.15-1.42-4.75-.46-1.6-.92-3.22-1.39-4.84-.45-1.63-.9-3.27-1.35-4.92-.44-1.65-.88-3.31-1.32-4.97-.43-1.67-.85-3.34-1.28-5.02-.42-1.68-.83-3.36-1.25-5.04l-1.21-5.05c-.39-1.69-.78-3.37-1.17-5.05-.75-3.36-1.49-6.71-2.22-10.01-.7-3.31-1.38-6.58-2.06-9.79-.64-3.22-1.27-6.38-1.89-9.45-.59-3.08-1.16-6.08-1.71-8.98-.53-2.9-1.04-5.7-1.52-8.38-.47-2.68-.91-5.24-1.33-7.66-.4-2.42-.78-4.69-1.13-6.8-.34-2.11-.65-4.06-.93-5.82-.27-1.76-.51-3.34-.71-4.71-.19-1.37-.36-2.54-.49-3.47-.12-.94-.21-1.65-.27-2.11"/>
          <path class="cls-1" d="M430.6,1130.19c1.32.03,2.64.07,3.96.1,1.32.05,2.65.09,3.97.14l3.98.18,3.98.21c2.65.17,5.31.34,7.95.51,2.64.2,5.27.39,7.88.59,5.22.43,10.37.85,15.37,1.26,2.5.2,4.97.4,7.39.6,2.42.18,4.8.35,7.12.52,1.16.08,2.31.15,3.45.22,1.14.06,2.26.13,3.36.19,1.11.05,2.2.1,3.27.15,1.08.04,2.13.08,3.17.11,1.04.02,2.07.05,3.07.07,1.01,0,1.99.01,2.96.02.97-.01,1.92-.03,2.85-.04.46-.01.92-.03,1.38-.04.45-.02.9-.04,1.35-.06.44-.02.88-.05,1.31-.07.43-.03.86-.06,1.28-.09.42-.04.84-.07,1.25-.11.41-.04.81-.08,1.21-.13.4-.05.79-.1,1.18-.14.39-.06.77-.11,1.14-.16.37-.06.74-.12,1.11-.18.36-.07.72-.14,1.07-.2.35-.08.69-.15,1.03-.22.34-.08.67-.16.99-.25.32-.09.64-.18.95-.27.31-.1.61-.19.91-.29.29-.11.58-.21.87-.31l.42-.17.41-.17.4-.18.39-.18.38-.19.36-.2,2.99-6c-.7.03-1.47.07-2.28.11-.82.02-1.69.04-2.62.07-.92,0-1.9.02-2.92.03-1.02,0-2.09,0-3.2,0-1.11-.01-2.26-.03-3.45-.04-1.19-.02-2.42-.05-3.68-.07-2.52-.07-5.17-.15-7.93-.23-2.75-.11-5.6-.22-8.51-.33-2.91-.13-5.88-.27-8.88-.41-6-.32-12.1-.65-18.03-.97-5.93-.36-11.68-.71-16.98-1.03-5.29-.35-10.13-.67-14.23-.94-8.19-.58-13.42-.95-13.42-.95"/>
          <path class="cls-1" d="M620.69,940.1s.21,2.28.57,6.33c.16,2.03.35,4.49.58,7.34.19,2.85.41,6.07.66,9.6.11,1.77.21,3.61.33,5.53.1,1.92.21,3.9.31,5.95.09,2.05.19,4.16.29,6.33.08,2.17.17,4.39.25,6.65.07,2.27.14,4.58.2,6.93.05,2.35.1,4.74.15,7.16.02,2.42.05,4.87.08,7.34,0,2.47,0,4.97,0,7.48-.03,2.51-.07,5.03-.1,7.56-.07,2.53-.13,5.07-.2,7.6l-.14,3.8c-.06,1.27-.12,2.53-.17,3.79-.07,1.26-.14,2.52-.2,3.78-.08,1.25-.16,2.51-.24,3.75-.09,1.25-.18,2.49-.27,3.73-.1,1.24-.21,2.47-.31,3.7-.12,1.23-.23,2.44-.34,3.66-.13,1.21-.26,2.42-.38,3.61-.14,1.2-.28,2.38-.42,3.56-.16,1.18-.31,2.35-.46,3.5-.17,1.16-.34,2.3-.51,3.44-.19,1.13-.37,2.26-.55,3.37-.2,1.11-.4,2.21-.6,3.3-.22,1.08-.43,2.16-.64,3.22-.23,1.06-.46,2.1-.69,3.13-.12.51-.24,1.02-.36,1.53-.13.51-.25,1.01-.38,1.51-.13.5-.26.99-.39,1.48-.14.49-.27.97-.4,1.46-.14.48-.28.96-.42,1.43-.14.47-.29.94-.43,1.4-.15.46-.3.92-.44,1.38-.15.45-.31.9-.46,1.35-.16.44-.31.88-.47,1.32-.16.43-.32.86-.48,1.29-.17.42-.33.84-.5,1.26-.17.41-.34.82-.51,1.23-.18.4-.35.8-.53,1.19-.18.39-.36.78-.54,1.16-.19.38-.37.75-.56,1.13-.19.37-.38.73-.57,1.09-.2.36-.39.71-.59,1.06-.2.34-.4.68-.6,1.02-.21.33-.41.66-.62.98-.21.32-.42.63-.63.95-.22.31-.43.61-.65.91-.22.29-.45.58-.66.87-.23.28-.46.56-.68.83-.23.27-.47.53-.7.79l-.35.38-.36.37-.36.36-.37.35-17.29,3.31.89-.45.87-.48.85-.51.84-.53.82-.56.8-.58.79-.61.77-.63.75-.66.74-.68.72-.71.7-.73.69-.76.67-.78.66-.8.64-.83.63-.85.61-.87.6-.89.58-.92.57-.94.55-.96c.18-.32.36-.65.54-.98.17-.33.35-.67.52-1,.17-.34.34-.68.51-1.02.16-.35.33-.69.5-1.04.16-.35.32-.71.48-1.06.16-.36.31-.72.47-1.08.15-.36.3-.73.46-1.1.15-.37.29-.74.44-1.12.14-.38.29-.76.43-1.14.14-.38.28-.77.42-1.15.13-.39.27-.78.4-1.17.13-.39.26-.79.39-1.19.13-.4.25-.8.38-1.21.12-.41.24-.81.37-1.23.23-.83.46-1.66.7-2.5.21-.85.43-1.7.65-2.57.2-.87.4-1.74.6-2.63.18-.89.37-1.79.56-2.69.17-.91.34-1.82.52-2.75.16-.93.31-1.86.47-2.8.14-.94.29-1.9.43-2.86.13-.96.26-1.93.39-2.91.12-.98.24-1.96.36-2.96.11-.99.21-2,.32-3,.09-1.01.19-2.03.28-3.05.08-1.02.17-2.05.25-3.09.07-1.04.14-2.08.22-3.13.06-1.05.12-2.11.18-3.17.05-1.06.1-2.13.15-3.2.04-1.07.08-2.15.12-3.23.03-1.08.06-2.17.1-3.27.02-1.09.05-2.19.07-3.29.02-2.2.04-4.43.07-6.66,0-2.24-.02-4.48-.03-6.75-.04-2.26-.07-4.53-.11-6.81-.06-2.28-.12-4.57-.18-6.86-.08-2.29-.16-4.59-.24-6.89l-.29-6.9c-.23-4.6-.46-9.19-.68-13.75-.26-4.56-.51-9.09-.76-13.57-.26-4.48-.51-8.9-.76-13.24-.23-4.34-.45-8.6-.67-12.76"/>
          <polygon class="cls-1" points="580.03 1181.77 570.23 1146.19 519.17 1071.67 532.29 1108.31 580.03 1181.77"/>
          <polygon class="cls-1" points="621.95 1112.3 577.7 1128.65 482.35 1147.53 524.1 1127.54 621.95 1112.3"/>
          <rect class="cls-1" x="534.16" y="1123.12" width="33.45" height="8.54" transform="translate(-702.23 1192.07) rotate(-66.91)"/>
          <polygon class="cls-1" points="553.44 1110.61 545.81 1106.79 530.73 1136.65 538.36 1140.46 553.44 1110.61"/>
          <polygon class="cls-1" points="548.29 1144.16 555.92 1147.98 571 1118.12 563.37 1114.29 548.29 1144.16"/>
          <polygon class="cls-1" points="588.05 1146.31 611.02 1108.51 630.79 1020.37 612.91 1054.94 588.05 1146.31"/>
          <polygon class="cls-1" points="665.2 1118.03 628.95 1102.04 558.18 1048.01 593.26 1062.04 665.2 1118.03"/>
          <rect class="cls-1" x="594.89" y="1077.28" width="33.44" height="8.54" transform="translate(-330.98 272.02) rotate(-19.86)"/>
          <polygon class="cls-1" points="625.63 1071.98 623.22 1063.79 591.09 1073.08 593.5 1081.27 625.63 1071.98"/>
          <polygon class="cls-1" points="597.56 1091.06 599.97 1099.25 632.1 1089.95 629.7 1081.77 597.56 1091.06"/>
        </g>
      </g>
    </g>
  </g>
</svg>