<?xml version="1.0" encoding="UTF-8"?>
<svg id="Layer_2" data-name="Layer 2" xmlns="http://www.w3.org/2000/svg" viewBox="0 0 662.96 217.82">
  <defs>
    <style>
      .cls-1 {
        fill: #bfbfbf;
        stroke: #000;
        stroke-linecap: round;
        stroke-width: 4.5px;
      }
    </style>
  </defs>
  <g id="Layer_2-2" data-name="Layer 2">
    <g>
      <g>
        <g>
          <path class="cls-1" d="M2.25,85.2c61.84,0,92.13,27.34,160,27.34v9.34c-67.87,0-98.16-27.33-160-27.33"/>
          <path class="cls-1" d="M2.25,123.74c65.79,0,98.29-27.32,158.23-27.32v9.34c-59.94,0-92.45,27.34-158.23,27.34"/>
          <path class="cls-1" d="M331.47,85.2c-61.84,0-92.14,27.34-160,27.34v9.34c67.87,0,98.16-27.33,160-27.33"/>
          <path class="cls-1" d="M331.47,123.74c-65.79,0-98.29-27.32-158.23-27.32v9.34c59.94,0,92.45,27.34,158.23,27.34"/>
          <polygon class="cls-1" points="124.21 69.15 146.94 98.52 223.31 148.65 197.05 119.53 124.21 69.15"/>
          <polygon class="cls-1" points="118.11 145.65 146.54 117.58 223.63 70.96 197.5 98.65 118.11 145.65"/>
          <rect class="cls-1" x="155.57" y="104.43" width="33.45" height="8.66" transform="translate(59.98 278.76) rotate(-88.81)"/>
          <polygon class="cls-1" points="176.25 125.29 184.89 125.98 187.8 92.67 179.17 91.96 176.25 125.29"/>
          <polygon class="cls-1" points="168.4 92.23 159.77 91.54 156.85 124.86 165.48 125.56 168.4 92.23"/>
        </g>
        <g>
          <path class="cls-1" d="M331.49,85.2c61.84,0,92.13,27.34,160,27.34v9.34c-67.87,0-98.16-27.33-160-27.33"/>
          <path class="cls-1" d="M331.49,123.74c65.79,0,98.29-27.32,158.23-27.32v9.34c-59.94,0-92.45,27.34-158.23,27.34"/>
          <path class="cls-1" d="M660.71,85.2c-61.84,0-92.14,27.34-160,27.34v9.34c67.87,0,98.16-27.33,160-27.33"/>
          <path class="cls-1" d="M660.71,123.74c-65.79,0-98.29-27.32-158.23-27.32v9.34c59.94,0,92.45,27.34,158.23,27.34"/>
          <polygon class="cls-1" points="453.46 69.15 476.19 98.52 552.55 148.65 526.29 119.53 453.46 69.15"/>
          <polygon class="cls-1" points="447.35 145.65 475.78 117.58 552.87 70.96 526.74 98.65 447.35 145.65"/>
          <rect class="cls-1" x="484.82" y="104.43" width="33.45" height="8.66" transform="translate(382.39 607.93) rotate(-88.81)"/>
          <polygon class="cls-1" points="505.5 125.29 514.13 125.98 517.04 92.67 508.41 91.96 505.5 125.29"/>
          <polygon class="cls-1" points="497.64 92.23 489.01 91.54 486.09 124.86 494.72 125.56 497.64 92.23"/>
        </g>
      </g>
      <g>
        <g>
          <path class="cls-1" d="M2.25,17.91c61.84,0,92.13,27.34,160,27.34v9.34c-67.87,0-98.16-27.33-160-27.33"/>
          <path class="cls-1" d="M2.25,56.44c65.79,0,98.29-27.32,158.23-27.32v9.34c-59.94,0-92.45,27.34-158.23,27.34"/>
          <path class="cls-1" d="M331.47,17.91c-61.84,0-92.14,27.34-160,27.34v9.34c67.87,0,98.16-27.33,160-27.33"/>
          <path class="cls-1" d="M331.47,56.44c-65.79,0-98.29-27.32-158.23-27.32v9.34c59.94,0,92.45,27.34,158.23,27.34"/>
          <polygon class="cls-1" points="124.21 1.85 146.94 31.23 223.31 81.35 197.05 52.24 124.21 1.85"/>
          <polygon class="cls-1" points="118.11 78.35 146.54 50.29 223.63 3.67 197.5 31.35 118.11 78.35"/>
          <rect class="cls-1" x="155.57" y="37.13" width="33.45" height="8.66" transform="translate(127.26 212.86) rotate(-88.81)"/>
          <polygon class="cls-1" points="176.25 57.99 184.89 58.69 187.8 25.37 179.17 24.66 176.25 57.99"/>
          <polygon class="cls-1" points="168.4 24.93 159.77 24.24 156.85 57.56 165.48 58.26 168.4 24.93"/>
        </g>
        <g>
          <path class="cls-1" d="M331.49,17.91c61.84,0,92.13,27.34,160,27.34v9.34c-67.87,0-98.16-27.33-160-27.33"/>
          <path class="cls-1" d="M331.49,56.44c65.79,0,98.29-27.32,158.23-27.32v9.34c-59.94,0-92.45,27.34-158.23,27.34"/>
          <path class="cls-1" d="M660.71,17.91c-61.84,0-92.14,27.34-160,27.34v9.34c67.87,0,98.16-27.33,160-27.33"/>
          <path class="cls-1" d="M660.71,56.44c-65.79,0-98.29-27.32-158.23-27.32v9.34c59.94,0,92.45,27.34,158.23,27.34"/>
          <polygon class="cls-1" points="453.46 1.85 476.19 31.23 552.55 81.35 526.29 52.24 453.46 1.85"/>
          <polygon class="cls-1" points="447.35 78.35 475.78 50.29 552.87 3.67 526.74 31.35 447.35 78.35"/>
          <rect class="cls-1" x="484.82" y="37.13" width="33.45" height="8.66" transform="translate(449.67 542.03) rotate(-88.81)"/>
          <polygon class="cls-1" points="505.5 57.99 514.13 58.69 517.04 25.37 508.41 24.66 505.5 57.99"/>
          <polygon class="cls-1" points="497.64 24.93 489.01 24.24 486.09 57.56 494.72 58.26 497.64 24.93"/>
        </g>
      </g>
      <g>
        <g>
          <path class="cls-1" d="M2.25,152.5c61.84,0,92.13,27.34,160,27.34v9.34c-67.87,0-98.16-27.33-160-27.33"/>
          <path class="cls-1" d="M2.25,191.03c65.79,0,98.29-27.32,158.23-27.32v9.34c-59.94,0-92.45,27.34-158.23,27.34"/>
          <path class="cls-1" d="M331.47,152.5c-61.84,0-92.14,27.34-160,27.34v9.34c67.87,0,98.16-27.33,160-27.33"/>
          <path class="cls-1" d="M331.47,191.03c-65.79,0-98.29-27.32-158.23-27.32v9.34c59.94,0,92.45,27.34,158.23,27.34"/>
          <polygon class="cls-1" points="124.21 136.44 146.94 165.82 223.31 215.94 197.05 186.83 124.21 136.44"/>
          <polygon class="cls-1" points="118.11 212.94 146.54 184.88 223.63 138.25 197.5 165.94 118.11 212.94"/>
          <rect class="cls-1" x="155.57" y="171.72" width="33.45" height="8.66" transform="translate(-7.3 344.65) rotate(-88.81)"/>
          <polygon class="cls-1" points="176.25 192.58 184.89 193.28 187.8 159.96 179.17 159.25 176.25 192.58"/>
          <polygon class="cls-1" points="168.4 159.52 159.77 158.83 156.85 192.15 165.48 192.85 168.4 159.52"/>
        </g>
        <g>
          <path class="cls-1" d="M331.49,152.5c61.84,0,92.13,27.34,160,27.34v9.34c-67.87,0-98.16-27.33-160-27.33"/>
          <path class="cls-1" d="M331.49,191.03c65.79,0,98.29-27.32,158.23-27.32v9.34c-59.94,0-92.45,27.34-158.23,27.34"/>
          <path class="cls-1" d="M660.71,152.5c-61.84,0-92.14,27.34-160,27.34v9.34c67.87,0,98.16-27.33,160-27.33"/>
          <path class="cls-1" d="M660.71,191.03c-65.79,0-98.29-27.32-158.23-27.32v9.34c59.94,0,92.45,27.34,158.23,27.34"/>
          <polygon class="cls-1" points="453.46 136.44 476.19 165.82 552.55 215.94 526.29 186.83 453.46 136.44"/>
          <polygon class="cls-1" points="447.35 212.94 475.78 184.88 552.87 138.25 526.74 165.94 447.35 212.94"/>
          <rect class="cls-1" x="484.82" y="171.72" width="33.45" height="8.66" transform="translate(315.11 673.82) rotate(-88.81)"/>
          <polygon class="cls-1" points="505.5 192.58 514.13 193.28 517.04 159.96 508.41 159.25 505.5 192.58"/>
          <polygon class="cls-1" points="497.64 159.52 489.01 158.83 486.09 192.15 494.72 192.85 497.64 159.52"/>
        </g>
      </g>
    </g>
  </g>
</svg>