<?xml version="1.0" encoding="UTF-8"?>
<svg id="Layer_2" data-name="Layer 2" xmlns="http://www.w3.org/2000/svg" viewBox="0 0 525.17 744.18">
  <defs>
    <style>
      .cls-1 {
        fill: #bfbfbf;
        stroke: #000;
        stroke-linecap: round;
        stroke-width: 4.5px;
      }
    </style>
  </defs>
  <g id="Layer_2-2" data-name="Layer 2">
    <g>
      <g>
        <g>
          <path class="cls-1" d="M377.58,288.82c0,8.5-1.36,16.49-3.65,23.71-2.29,7.23-5.48,13.71-9.27,19.4-7.61,11.41-17.32,19.71-27.62,25.95-10.38,6.22-21.42,10.44-33.08,13.57-5.85,1.56-11.89,2.82-18.23,3.81-6.35.97-13,1.73-20.16,2.01l-.41-9.33c6.41-.25,12.36-.89,18.06-1.68,5.7-.81,11.15-1.84,16.47-3.13,10.6-2.59,20.79-6.13,30.45-11.58,9.59-5.47,18.72-12.88,25.88-23.25,3.57-5.17,6.58-11.09,8.75-17.72,2.16-6.62,3.44-13.96,3.44-21.79"/>
          <path class="cls-1" d="M339.05,288.82c-.07,12.13-.99,22.82-2.84,33.31-.94,5.23-2.13,10.37-3.68,15.45-1.55,5.08-3.46,10.1-5.88,14.98-4.82,9.74-11.59,19.13-21.28,26.7-4.84,3.75-10.4,7.03-16.66,9.49-6.25,2.46-13.21,4.1-20.67,4.56l-.56-9.32c6.8-.41,13.13-1.95,18.8-4.25,5.67-2.3,10.68-5.37,15.02-8.88,8.68-7.08,14.61-15.85,18.68-24.84,2.05-4.5,3.62-9.11,4.85-13.74,1.24-4.63,2.15-9.28,2.84-13.97,1.36-9.41,1.95-18.8,2.02-29.49"/>
          <path class="cls-1" d="M145.78,288.85c.01,8.5,1.37,16.49,3.65,23.71,2.29,7.23,5.48,13.71,9.28,19.4,7.61,11.41,17.32,19.7,27.63,25.94,10.38,6.22,21.42,10.43,33.09,13.57,5.85,1.55,11.89,2.82,18.23,3.81,6.35.97,13,1.73,20.16,2.01l.4-9.33c-6.41-.25-12.36-.89-18.06-1.68-5.7-.81-11.15-1.84-16.47-3.12-10.6-2.59-20.8-6.12-30.46-11.57-9.59-5.46-18.72-12.87-25.89-23.24-3.57-5.17-6.58-11.09-8.75-17.72-2.16-6.62-3.44-13.96-3.45-21.79"/>
          <path class="cls-1" d="M184.31,288.84c.07,12.13.99,22.82,2.84,33.31.94,5.23,2.13,10.37,3.68,15.45,1.55,5.08,3.46,10.1,5.88,14.98,4.82,9.74,11.6,19.13,21.29,26.7,4.84,3.75,10.4,7.02,16.66,9.48,6.25,2.46,13.21,4.1,20.67,4.55l.56-9.32c-6.8-.41-13.13-1.95-18.8-4.25-5.67-2.3-10.69-5.37-15.02-8.88-8.68-7.08-14.61-15.85-18.69-24.83-2.05-4.5-3.62-9.11-4.86-13.74-1.24-4.63-2.15-9.28-2.85-13.96-1.37-9.4-1.96-18.8-2.03-29.49"/>
          <path class="cls-1" d="M313.94,410c-12.66-5.18-23.77-12.22-32.9-20.45-13.82-5.83-24.98-14.57-32.81-24.4-7.85-9.85-12.29-20.82-13.44-31.28-1.21,10.53-.09,21.97,3.71,33.17,6.66,10.79,16.71,20.65,29.5,28.35,12.8,7.68,28.52,12.95,45.93,14.61Z"/>
          <path class="cls-1" d="M286.54,338.39l-.07,2.01-.15,1.99c-.12,1.33-.27,2.7-.46,4.05-.41,2.65-.94,5.45-1.69,8.12-1.44,5.48-3.59,10.86-6.39,16.21-8.56,9.63-20.3,17.83-34.55,23.26-14.23,5.42-31,7.9-48.68,6.29,14.05-2.36,26.78-6.97,37.61-13.38,7.33-1.88,14.12-4.58,20.21-7.89,6.09-3.33,11.5-7.26,16.13-11.59,9.29-8.66,15.33-18.94,18.04-29.08Z"/>
          <path class="cls-1" d="M261.14,364.53l-3.13-.17c-1.04-.09-2.07-.21-3.11-.32-1.16,11.09-2.39,22.17-3.69,33.25l4.48.43c1.49.11,2.99.16,4.49.23.4-11.14.72-22.28.97-33.42Z"/>
          <path class="cls-1" d="M254.89,364.32c-1.03-.17-2.04-.46-3.06-.69l-1.52-.37-1.5-.44c-2.57,10.82-5.45,21.59-8.63,32.29l4.34,1.14c1.46.36,2.93.64,4.4.95,2.29-10.9,4.28-21.86,5.96-32.89Z"/>
          <path class="cls-1" d="M260.09,397.67c1.49.17,2.98.23,4.48.32,1.5.08,3,.16,4.5.14.27-11.16.23-22.3-.11-33.41l-3.15-.11c-1.05-.07-2.09-.18-3.13-.26-.56,11.14-1.42,22.25-2.59,33.32Z"/>
        </g>
        <g>
          <path class="cls-1" d="M145.78,288.82c0-8.5,1.36-16.49,3.65-23.71,2.29-7.23,5.48-13.71,9.27-19.4,7.61-11.41,17.32-19.71,27.62-25.95,10.38-6.22,21.42-10.44,33.08-13.57,5.85-1.56,11.89-2.82,18.23-3.81,6.35-.97,13-1.73,20.16-2.01l.4,9.33c-6.41.25-12.36.89-18.06,1.68-5.7.81-11.15,1.84-16.47,3.13-10.6,2.59-20.79,6.13-30.45,11.58-9.59,5.47-18.72,12.88-25.88,23.25-3.57,5.17-6.58,11.09-8.75,17.72-2.16,6.62-3.44,13.96-3.44,21.79"/>
          <path class="cls-1" d="M184.31,288.82c.07-12.13.99-22.82,2.84-33.31.94-5.23,2.13-10.37,3.68-15.45,1.55-5.08,3.46-10.1,5.88-14.98,4.82-9.74,11.59-19.13,21.28-26.7,4.84-3.75,10.4-7.03,16.66-9.49,6.25-2.46,13.21-4.1,20.67-4.56l.56,9.32c-6.8.41-13.13,1.95-18.8,4.25-5.67,2.3-10.68,5.37-15.02,8.88-8.68,7.08-14.61,15.85-18.68,24.84-2.05,4.5-3.62,9.11-4.85,13.74-1.24,4.63-2.15,9.28-2.84,13.97-1.36,9.41-1.95,18.8-2.02,29.49"/>
          <path class="cls-1" d="M377.58,288.8c-.01-8.5-1.36-16.49-3.65-23.71-2.29-7.23-5.48-13.71-9.28-19.4-7.61-11.41-17.32-19.7-27.63-25.94-10.38-6.22-21.42-10.43-33.09-13.57-5.85-1.55-11.89-2.82-18.23-3.81-6.35-.97-13-1.73-20.16-2.01l-.4,9.33c6.41.25,12.36.89,18.06,1.68,5.7.81,11.15,1.84,16.47,3.12,10.6,2.59,20.8,6.12,30.46,11.57,9.59,5.46,18.72,12.87,25.89,23.24,3.57,5.17,6.58,11.09,8.75,17.72,2.16,6.62,3.44,13.96,3.45,21.79"/>
          <path class="cls-1" d="M339.05,288.81c-.07-12.13-.99-22.82-2.84-33.31-.94-5.23-2.13-10.37-3.68-15.45-1.55-5.08-3.46-10.1-5.88-14.98-4.82-9.74-11.6-19.13-21.29-26.7-4.84-3.75-10.4-7.02-16.66-9.48-6.25-2.46-13.21-4.1-20.67-4.55l-.56,9.32c6.8.41,13.13,1.95,18.8,4.25,5.67,2.3,10.69,5.37,15.02,8.88,8.68,7.08,14.61,15.85,18.69,24.83,2.05,4.5,3.62,9.11,4.86,13.74,1.24,4.63,2.15,9.28,2.85,13.96,1.37,9.4,1.96,18.8,2.03,29.49"/>
          <path class="cls-1" d="M209.42,167.64c12.66,5.18,23.77,12.22,32.9,20.45,13.82,5.83,24.98,14.57,32.81,24.4,7.85,9.85,12.29,20.82,13.44,31.28,1.21-10.53.09-21.97-3.71-33.17-6.66-10.79-16.71-20.65-29.5-28.35-12.8-7.68-28.52-12.95-45.93-14.61Z"/>
          <path class="cls-1" d="M236.82,239.25l.07-2.01.15-1.98c.12-1.33.27-2.7.46-4.05.41-2.65.94-5.45,1.69-8.12,1.44-5.48,3.59-10.86,6.39-16.21,8.56-9.63,20.3-17.83,34.55-23.26,14.23-5.42,31-7.9,48.68-6.29-14.05,2.36-26.78,6.97-37.61,13.38-7.33,1.88-14.12,4.58-20.21,7.89-6.09,3.33-11.5,7.26-16.14,11.59-9.29,8.66-15.33,18.94-18.04,29.08Z"/>
          <path class="cls-1" d="M262.22,213.12l3.13.17c1.04.09,2.07.21,3.11.32,1.16-11.09,2.39-22.17,3.69-33.25l-4.48-.43c-1.49-.11-2.99-.16-4.49-.23-.4,11.14-.72,22.28-.97,33.42Z"/>
          <path class="cls-1" d="M268.47,213.32c1.03.17,2.04.46,3.06.69l1.52.37,1.5.44c2.57-10.82,5.45-21.59,8.63-32.29l-4.34-1.14c-1.46-.36-2.93-.64-4.4-.95-2.29,10.9-4.28,21.86-5.96,32.89Z"/>
          <path class="cls-1" d="M263.27,179.98c-1.49-.17-2.98-.23-4.48-.32-1.5-.08-3-.16-4.5-.14-.27,11.16-.23,22.3.11,33.41l3.15.11c1.05.07,2.09.18,3.13.26.56-11.14,1.42-22.25,2.59-33.32Z"/>
        </g>
      </g>
      <g>
        <g>
          <path class="cls-1" d="M376.94,441.93c.89,8.46.39,16.54-1.12,23.97-1.52,7.43-4,14.21-7.17,20.27-6.36,12.15-15.14,21.42-24.73,28.72-9.66,7.28-20.19,12.64-31.46,16.99-5.65,2.16-11.52,4.06-17.72,5.71-6.21,1.64-12.74,3.09-19.83,4.13l-1.39-9.23c6.35-.93,12.2-2.19,17.78-3.58,5.58-1.41,10.89-3.01,16.04-4.85,10.27-3.69,20.03-8.29,29.06-14.73,8.96-6.45,17.25-14.78,23.29-25.85,3.01-5.52,5.37-11.73,6.83-18.54,1.45-6.81,1.94-14.24,1.13-22.03"/>
          <path class="cls-1" d="M338.62,446c1.21,12.07,1.42,22.8.69,33.42-.38,5.3-1.02,10.54-2.03,15.75-1,5.22-2.38,10.41-4.27,15.52-3.76,10.19-9.51,20.25-18.35,28.8-4.42,4.24-9.6,8.08-15.56,11.19-5.96,3.11-12.71,5.48-20.08,6.71l-1.54-9.21c6.72-1.13,12.85-3.32,18.25-6.21,5.4-2.89,10.06-6.47,14-10.42,7.89-7.96,12.85-17.31,15.95-26.67,1.56-4.69,2.64-9.44,3.38-14.18.74-4.74,1.16-9.46,1.35-14.19.36-9.5-.04-18.9-1.1-29.54"/>
          <path class="cls-1" d="M146.43,466.42c.91,8.46,3.1,16.26,6.13,23.2,3.04,6.95,6.9,13.05,11.27,18.32,8.77,10.54,19.31,17.76,30.21,22.88,10.98,5.09,22.4,8.11,34.33,10,5.98.93,12.12,1.55,18.53,1.86,6.41.29,13.11.35,20.25-.13l-.58-9.32c-6.4.43-12.38.42-18.14.24-5.75-.2-11.28-.65-16.7-1.37-10.82-1.45-21.32-3.89-31.51-8.29-10.11-4.42-19.97-10.83-28.2-20.38-4.1-4.77-7.72-10.33-10.57-16.69-2.84-6.35-4.89-13.52-5.73-21.3"/>
          <path class="cls-1" d="M184.75,462.35c1.35,12.06,3.4,22.59,6.34,32.82,1.48,5.1,3.22,10.09,5.29,14.98,2.08,4.89,4.51,9.68,7.43,14.27,5.82,9.17,13.55,17.8,23.99,24.3,5.21,3.22,11.08,5.89,17.57,7.67,6.48,1.79,13.57,2.68,21.04,2.34l-.43-9.33c-6.81.31-13.27-.55-19.14-2.24-5.88-1.69-11.19-4.21-15.88-7.24-9.38-6.12-16.2-14.22-21.2-22.72-2.51-4.26-4.56-8.68-6.28-13.15-1.72-4.47-3.12-9-4.3-13.59-2.35-9.21-3.93-18.49-5.13-29.11"/>
          <path class="cls-1" d="M326.45,569.15c-13.13-3.81-24.93-9.64-34.87-16.86-14.36-4.34-26.37-11.85-35.2-20.8-8.84-8.97-14.42-19.41-16.67-29.69-.09,10.6,2.23,21.86,7.19,32.59,7.76,10.03,18.79,18.77,32.33,25.08,13.54,6.29,29.72,9.87,47.22,9.68Z"/>
          <path class="cls-1" d="M291.64,500.84l.14,2.01.06,1.99c.02,1.34.02,2.71-.03,4.08-.13,2.68-.36,5.52-.82,8.26-.85,5.6-2.42,11.18-4.64,16.79-7.5,10.48-18.3,19.87-31.9,26.78-13.58,6.89-29.99,11.13-47.75,11.39,13.73-3.83,25.9-9.76,35.99-17.28,7.09-2.65,13.55-6.04,19.26-9.97,5.71-3.95,10.67-8.43,14.82-13.23,8.32-9.59,13.25-20.45,14.87-30.82Z"/>
          <path class="cls-1" d="M269.14,529.5l-3.13.16c-1.04.02-2.09,0-3.13.01.02,11.15-.03,22.3-.16,33.45l4.5-.05c1.5-.05,2.99-.16,4.49-.25-.78-11.12-1.64-22.23-2.57-33.34Z"/>
          <path class="cls-1" d="M262.91,529.96c-1.04-.06-2.08-.24-3.11-.36l-1.55-.2-1.53-.28c-1.42,11.03-3.14,22.04-5.18,33.02l4.44.67c1.49.21,2.98.33,4.47.48,1.13-11.08,1.95-22.19,2.46-33.33Z"/>
          <path class="cls-1" d="M271.6,562.57c1.5.02,2.99-.08,4.49-.16,1.5-.08,3-.16,4.49-.33-.91-11.12-2.12-22.2-3.63-33.21l-3.15.22c-1.05.04-2.1.05-3.14.07.62,11.14.93,22.27.94,33.41Z"/>
        </g>
        <g>
          <path class="cls-1" d="M146.43,466.4c-.89-8.46-.39-16.54,1.12-23.97,1.52-7.43,4-14.21,7.17-20.27,6.36-12.15,15.14-21.42,24.73-28.72,9.66-7.28,20.19-12.64,31.47-16.99,5.65-2.16,11.52-4.06,17.72-5.71,6.21-1.64,12.74-3.09,19.83-4.13l1.39,9.23c-6.35.93-12.2,2.19-17.78,3.58-5.58,1.41-10.89,3.01-16.05,4.85-10.27,3.69-20.03,8.29-29.06,14.73-8.96,6.45-17.25,14.78-23.29,25.85-3.01,5.52-5.37,11.73-6.83,18.54-1.45,6.81-1.94,14.24-1.13,22.03"/>
          <path class="cls-1" d="M184.75,462.33c-1.21-12.07-1.42-22.8-.69-33.42.38-5.3,1.02-10.54,2.03-15.75,1-5.22,2.38-10.41,4.27-15.52,3.76-10.19,9.51-20.25,18.35-28.8,4.42-4.24,9.6-8.08,15.56-11.19,5.96-3.11,12.71-5.48,20.08-6.71l1.54,9.21c-6.72,1.13-12.85,3.32-18.25,6.21-5.4,2.89-10.06,6.47-14,10.42-7.89,7.96-12.85,17.31-15.95,26.67-1.56,4.69-2.64,9.44-3.38,14.18-.74,4.74-1.16,9.46-1.35,14.19-.36,9.5.04,18.9,1.1,29.54"/>
          <path class="cls-1" d="M376.94,441.91c-.91-8.46-3.1-16.26-6.13-23.2-3.04-6.95-6.9-13.05-11.27-18.32-8.77-10.54-19.31-17.76-30.21-22.88-10.98-5.09-22.4-8.11-34.33-10-5.98-.93-12.12-1.55-18.53-1.86-6.41-.29-13.11-.35-20.25.13l.58,9.32c6.4-.43,12.38-.42,18.14-.24,5.75.2,11.28.65,16.7,1.37,10.82,1.45,21.32,3.89,31.51,8.29,10.11,4.42,19.97,10.83,28.2,20.38,4.1,4.77,7.72,10.33,10.57,16.69,2.84,6.35,4.89,13.52,5.73,21.3"/>
          <path class="cls-1" d="M338.62,445.98c-1.35-12.06-3.4-22.59-6.34-32.82-1.48-5.1-3.22-10.09-5.29-14.98-2.08-4.89-4.51-9.68-7.43-14.27-5.82-9.17-13.55-17.8-23.99-24.3-5.21-3.22-11.08-5.89-17.57-7.67-6.48-1.79-13.57-2.68-21.04-2.34l.43,9.33c6.81-.31,13.27.55,19.14,2.24,5.88,1.69,11.19,4.21,15.88,7.24,9.38,6.12,16.2,14.22,21.2,22.72,2.51,4.26,4.56,8.68,6.28,13.15,1.72,4.47,3.12,9,4.3,13.59,2.35,9.21,3.93,18.49,5.13,29.11"/>
          <path class="cls-1" d="M196.93,339.18c13.13,3.81,24.93,9.64,34.87,16.86,14.36,4.34,26.37,11.85,35.2,20.8,8.84,8.97,14.42,19.41,16.67,29.69.09-10.6-2.23-21.86-7.19-32.59-7.76-10.03-18.79-18.77-32.33-25.08-13.54-6.29-29.72-9.87-47.22-9.68Z"/>
          <path class="cls-1" d="M231.73,407.49l-.14-2.01-.06-1.99c-.02-1.34-.02-2.71.03-4.08.13-2.68.36-5.52.82-8.26.85-5.6,2.42-11.18,4.64-16.79,7.5-10.48,18.3-19.87,31.9-26.78,13.58-6.89,29.99-11.13,47.75-11.39-13.73,3.83-25.9,9.76-35.99,17.28-7.09,2.65-13.55,6.04-19.26,9.97-5.71,3.95-10.67,8.43-14.82,13.23-8.32,9.59-13.25,20.45-14.87,30.82Z"/>
          <path class="cls-1" d="M254.23,378.83l3.13-.16c1.04-.02,2.09,0,3.13-.01-.02-11.15.03-22.3.16-33.45l-4.5.05c-1.5.05-2.99.16-4.49.25.78,11.12,1.64,22.23,2.57,33.34Z"/>
          <path class="cls-1" d="M260.47,378.37c1.04.06,2.08.24,3.11.36l1.55.2,1.53.28c1.42-11.03,3.14-22.04,5.18-33.02l-4.44-.67c-1.49-.21-2.98-.33-4.47-.48-1.13,11.08-1.95,22.19-2.46,33.33Z"/>
          <path class="cls-1" d="M251.78,345.76c-1.5-.02-2.99.08-4.49.16-1.5.08-3,.16-4.49.33.91,11.12,2.12,22.2,3.63,33.21l3.15-.22c1.05-.04,2.1-.05,3.14-.07-.62-11.14-.93-22.27-.94-33.41Z"/>
        </g>
      </g>
      <g>
        <g>
          <path class="cls-1" d="M522.92,203.52c0,8.5-1.36,16.49-3.65,23.71-2.29,7.23-5.48,13.71-9.27,19.4-7.61,11.41-17.32,19.71-27.62,25.95-10.38,6.22-21.42,10.44-33.08,13.57-5.85,1.56-11.89,2.82-18.23,3.81-6.35.97-13,1.73-20.16,2.01l-.41-9.33c6.41-.25,12.36-.89,18.06-1.68,5.7-.81,11.15-1.84,16.47-3.13,10.6-2.59,20.79-6.13,30.45-11.58,9.59-5.47,18.72-12.88,25.88-23.25,3.57-5.17,6.58-11.09,8.75-17.72,2.16-6.62,3.44-13.96,3.44-21.79"/>
          <path class="cls-1" d="M484.38,203.52c-.07,12.13-.99,22.82-2.84,33.31-.94,5.23-2.13,10.37-3.68,15.45-1.55,5.08-3.46,10.1-5.88,14.98-4.82,9.74-11.59,19.13-21.28,26.7-4.84,3.75-10.4,7.03-16.66,9.49-6.25,2.46-13.21,4.1-20.67,4.56l-.56-9.32c6.8-.41,13.13-1.95,18.8-4.25,5.67-2.3,10.68-5.37,15.02-8.88,8.68-7.08,14.61-15.85,18.68-24.84,2.05-4.5,3.62-9.11,4.85-13.74,1.24-4.63,2.15-9.28,2.84-13.97,1.36-9.4,1.95-18.8,2.02-29.49"/>
          <path class="cls-1" d="M291.11,203.54c.01,8.5,1.36,16.49,3.65,23.71,2.29,7.23,5.48,13.71,9.28,19.4,7.61,11.41,17.32,19.7,27.63,25.94,10.38,6.22,21.42,10.43,33.09,13.57,5.85,1.55,11.89,2.82,18.23,3.81,6.35.97,13,1.73,20.16,2.01l.4-9.33c-6.41-.25-12.36-.89-18.06-1.68-5.7-.81-11.15-1.84-16.47-3.12-10.6-2.59-20.8-6.12-30.46-11.57-9.59-5.46-18.72-12.87-25.89-23.24-3.57-5.17-6.58-11.09-8.75-17.72-2.16-6.62-3.44-13.96-3.45-21.79"/>
          <path class="cls-1" d="M329.65,203.53c.07,12.13.99,22.82,2.84,33.31.94,5.23,2.13,10.37,3.68,15.45,1.55,5.08,3.46,10.1,5.88,14.98,4.82,9.74,11.6,19.13,21.29,26.7,4.84,3.75,10.4,7.02,16.66,9.49,6.25,2.46,13.21,4.1,20.67,4.55l.56-9.32c-6.8-.41-13.13-1.95-18.8-4.25-5.67-2.3-10.69-5.37-15.02-8.88-8.68-7.08-14.61-15.85-18.69-24.83-2.05-4.5-3.62-9.11-4.86-13.74-1.24-4.63-2.15-9.28-2.85-13.96-1.37-9.4-1.96-18.8-2.03-29.49"/>
          <path class="cls-1" d="M459.28,324.7c-12.66-5.18-23.77-12.22-32.9-20.45-13.82-5.83-24.98-14.57-32.81-24.4-7.85-9.85-12.29-20.82-13.44-31.28-1.21,10.53-.09,21.97,3.71,33.17,6.66,10.79,16.71,20.65,29.5,28.35,12.8,7.68,28.52,12.95,45.93,14.61Z"/>
          <path class="cls-1" d="M431.87,253.09l-.07,2.01-.15,1.99c-.12,1.33-.27,2.7-.46,4.05-.41,2.65-.94,5.45-1.69,8.12-1.44,5.48-3.59,10.86-6.39,16.21-8.56,9.63-20.3,17.83-34.55,23.26-14.23,5.42-31,7.9-48.68,6.29,14.05-2.36,26.78-6.97,37.61-13.38,7.33-1.88,14.12-4.58,20.21-7.89,6.09-3.33,11.5-7.26,16.14-11.59,9.29-8.66,15.33-18.94,18.04-29.08Z"/>
          <path class="cls-1" d="M406.48,279.22l-3.13-.17c-1.04-.09-2.07-.21-3.11-.32-1.16,11.09-2.39,22.17-3.69,33.25l4.48.43c1.49.11,2.99.16,4.49.23.4-11.14.72-22.28.97-33.42Z"/>
          <path class="cls-1" d="M400.23,279.02c-1.03-.17-2.04-.46-3.06-.69l-1.52-.37-1.5-.44c-2.57,10.82-5.45,21.59-8.63,32.29l4.34,1.14c1.46.36,2.93.64,4.4.95,2.29-10.9,4.28-21.86,5.96-32.89Z"/>
          <path class="cls-1" d="M405.43,312.36c1.49.17,2.98.23,4.48.32,1.5.08,3,.16,4.5.14.27-11.16.23-22.3-.11-33.41l-3.15-.11c-1.05-.07-2.09-.18-3.13-.26-.56,11.14-1.42,22.25-2.59,33.32Z"/>
        </g>
        <g>
          <path class="cls-1" d="M291.11,203.52c0-8.5,1.36-16.49,3.65-23.71,2.29-7.23,5.48-13.71,9.27-19.4,7.61-11.41,17.32-19.71,27.62-25.95,10.38-6.22,21.42-10.44,33.08-13.57,5.85-1.56,11.89-2.82,18.23-3.81,6.35-.97,13-1.73,20.16-2.01l.41,9.33c-6.41.25-12.36.89-18.06,1.68-5.7.81-11.15,1.84-16.47,3.13-10.6,2.59-20.79,6.13-30.45,11.58-9.59,5.47-18.72,12.88-25.88,23.25-3.57,5.17-6.58,11.09-8.75,17.72-2.16,6.62-3.44,13.96-3.44,21.79"/>
          <path class="cls-1" d="M329.65,203.52c.07-12.13.99-22.82,2.84-33.31.94-5.23,2.13-10.37,3.68-15.45,1.55-5.08,3.46-10.1,5.88-14.98,4.82-9.74,11.59-19.13,21.28-26.7,4.84-3.75,10.4-7.03,16.66-9.49,6.25-2.46,13.21-4.1,20.67-4.56l.56,9.32c-6.8.41-13.13,1.95-18.8,4.25-5.67,2.3-10.68,5.37-15.02,8.88-8.68,7.08-14.61,15.85-18.68,24.84-2.05,4.5-3.62,9.11-4.85,13.74-1.24,4.63-2.15,9.28-2.84,13.97-1.36,9.4-1.95,18.8-2.02,29.49"/>
          <path class="cls-1" d="M522.92,203.49c-.01-8.5-1.36-16.49-3.65-23.71-2.29-7.23-5.48-13.71-9.28-19.4-7.61-11.41-17.32-19.7-27.63-25.94-10.38-6.22-21.42-10.43-33.09-13.57-5.85-1.55-11.89-2.82-18.23-3.81-6.35-.97-13-1.73-20.16-2.01l-.4,9.33c6.41.25,12.36.89,18.06,1.68,5.7.81,11.15,1.84,16.47,3.12,10.6,2.59,20.8,6.12,30.46,11.57,9.59,5.46,18.72,12.87,25.89,23.24,3.57,5.17,6.58,11.09,8.75,17.72,2.16,6.62,3.44,13.96,3.45,21.79"/>
          <path class="cls-1" d="M484.38,203.5c-.07-12.13-.99-22.82-2.84-33.31-.94-5.23-2.13-10.37-3.68-15.45-1.55-5.08-3.46-10.1-5.88-14.98-4.82-9.74-11.6-19.13-21.29-26.7-4.84-3.75-10.4-7.02-16.66-9.49-6.25-2.46-13.21-4.1-20.67-4.55l-.56,9.32c6.8.41,13.13,1.95,18.8,4.25,5.67,2.3,10.69,5.37,15.02,8.88,8.68,7.08,14.61,15.85,18.69,24.83,2.05,4.5,3.62,9.11,4.86,13.74,1.24,4.63,2.15,9.28,2.85,13.96,1.37,9.4,1.96,18.8,2.03,29.49"/>
          <path class="cls-1" d="M354.75,82.34c12.66,5.18,23.77,12.22,32.9,20.45,13.82,5.83,24.98,14.57,32.81,24.4,7.85,9.85,12.29,20.82,13.44,31.28,1.21-10.53.09-21.97-3.71-33.17-6.66-10.79-16.71-20.65-29.5-28.35-12.8-7.68-28.52-12.95-45.93-14.61Z"/>
          <path class="cls-1" d="M382.15,153.95l.07-2.01.15-1.99c.12-1.33.27-2.7.46-4.05.41-2.65.94-5.45,1.69-8.12,1.44-5.48,3.59-10.86,6.39-16.21,8.56-9.63,20.3-17.83,34.55-23.26,14.23-5.42,31-7.9,48.68-6.29-14.05,2.36-26.78,6.97-37.61,13.38-7.33,1.88-14.12,4.58-20.21,7.89-6.09,3.33-11.5,7.26-16.14,11.59-9.29,8.66-15.33,18.94-18.04,29.08Z"/>
          <path class="cls-1" d="M407.55,127.81l3.13.17c1.04.09,2.07.21,3.11.32,1.16-11.09,2.39-22.17,3.69-33.25l-4.48-.43c-1.49-.11-2.99-.16-4.49-.23-.4,11.14-.72,22.28-.97,33.42Z"/>
          <path class="cls-1" d="M413.8,128.02c1.03.17,2.04.46,3.06.69l1.52.37,1.5.44c2.57-10.82,5.45-21.59,8.63-32.29l-4.34-1.14c-1.46-.36-2.93-.64-4.4-.95-2.29,10.9-4.28,21.86-5.96,32.89Z"/>
          <path class="cls-1" d="M408.6,94.67c-1.49-.17-2.98-.23-4.48-.32-1.5-.08-3-.16-4.5-.14-.27,11.16-.23,22.3.11,33.41l3.15.11c1.05.07,2.09.18,3.13.26.56-11.14,1.42-22.25,2.59-33.32Z"/>
        </g>
      </g>
      <g>
        <g>
          <path class="cls-1" d="M233.2,197.52c.89,8.46.39,16.54-1.12,23.97-1.52,7.43-4,14.21-7.17,20.27-6.36,12.15-15.14,21.42-24.73,28.72-9.66,7.28-20.19,12.64-31.46,16.99-5.65,2.16-11.52,4.06-17.72,5.71-6.21,1.64-12.74,3.09-19.83,4.13l-1.39-9.23c6.35-.93,12.2-2.19,17.78-3.58,5.58-1.41,10.89-3.01,16.04-4.85,10.27-3.69,20.03-8.29,29.06-14.73,8.96-6.45,17.25-14.78,23.29-25.85,3.01-5.52,5.37-11.73,6.83-18.54,1.45-6.81,1.94-14.24,1.13-22.03"/>
          <path class="cls-1" d="M194.88,201.59c1.21,12.07,1.42,22.8.69,33.42-.38,5.3-1.02,10.54-2.03,15.75-1,5.22-2.38,10.41-4.27,15.52-3.76,10.19-9.51,20.25-18.35,28.8-4.42,4.24-9.6,8.08-15.56,11.19-5.96,3.11-12.71,5.48-20.08,6.71l-1.54-9.21c6.72-1.13,12.85-3.32,18.25-6.21,5.4-2.89,10.06-6.47,14-10.42,7.89-7.96,12.85-17.31,15.95-26.67,1.56-4.69,2.64-9.44,3.38-14.18.74-4.74,1.16-9.46,1.35-14.19.36-9.5-.04-18.9-1.1-29.54"/>
          <path class="cls-1" d="M2.69,222.01c.91,8.46,3.1,16.26,6.13,23.2,3.04,6.95,6.9,13.05,11.27,18.32,8.77,10.54,19.31,17.76,30.21,22.88,10.98,5.09,22.4,8.12,34.33,10,5.98.93,12.12,1.55,18.53,1.86,6.41.29,13.11.35,20.25-.13l-.58-9.32c-6.4.43-12.38.42-18.14.24-5.75-.2-11.28-.65-16.7-1.37-10.82-1.45-21.32-3.89-31.51-8.29-10.11-4.42-19.97-10.83-28.2-20.38-4.1-4.77-7.72-10.33-10.57-16.69-2.84-6.35-4.89-13.52-5.73-21.3"/>
          <path class="cls-1" d="M41.01,217.93c1.35,12.06,3.4,22.59,6.34,32.82,1.48,5.1,3.22,10.09,5.29,14.98,2.08,4.89,4.51,9.68,7.43,14.27,5.82,9.17,13.55,17.8,23.99,24.3,5.21,3.22,11.08,5.89,17.57,7.67,6.48,1.79,13.57,2.68,21.04,2.34l-.43-9.33c-6.81.31-13.27-.55-19.14-2.24-5.88-1.69-11.19-4.21-15.88-7.24-9.38-6.12-16.2-14.22-21.2-22.72-2.51-4.26-4.56-8.68-6.28-13.15-1.72-4.47-3.12-9-4.3-13.59-2.35-9.21-3.93-18.49-5.13-29.11"/>
          <path class="cls-1" d="M182.71,324.74c-13.13-3.81-24.93-9.64-34.87-16.86-14.36-4.34-26.37-11.85-35.2-20.8-8.84-8.97-14.42-19.41-16.67-29.69-.09,10.6,2.23,21.86,7.19,32.59,7.76,10.03,18.79,18.77,32.33,25.08,13.54,6.29,29.72,9.87,47.22,9.68Z"/>
          <path class="cls-1" d="M147.9,256.42l.14,2.01.06,1.99c.02,1.34.02,2.71-.03,4.08-.13,2.68-.36,5.52-.82,8.26-.85,5.6-2.42,11.18-4.64,16.79-7.5,10.48-18.3,19.87-31.9,26.78-13.58,6.89-29.99,11.13-47.75,11.39,13.73-3.83,25.9-9.76,35.99-17.28,7.09-2.65,13.55-6.04,19.26-9.97,5.71-3.95,10.67-8.43,14.82-13.23,8.32-9.59,13.25-20.45,14.87-30.82Z"/>
          <path class="cls-1" d="M125.4,285.09l-3.13.16c-1.04.02-2.09,0-3.13.01.02,11.15-.03,22.3-.16,33.45l4.5-.05c1.5-.05,2.99-.16,4.49-.25-.78-11.12-1.64-22.23-2.57-33.34Z"/>
          <path class="cls-1" d="M119.16,285.55c-1.04-.06-2.08-.24-3.11-.36l-1.55-.2-1.53-.28c-1.42,11.03-3.14,22.04-5.18,33.02l4.44.67c1.49.21,2.98.33,4.47.48,1.13-11.08,1.95-22.19,2.46-33.33Z"/>
          <path class="cls-1" d="M127.86,318.16c1.5.02,2.99-.08,4.49-.16,1.5-.08,3-.16,4.49-.33-.91-11.12-2.12-22.2-3.63-33.21l-3.15.22c-1.05.04-2.1.04-3.14.07.62,11.14.93,22.27.94,33.41Z"/>
        </g>
        <g>
          <path class="cls-1" d="M2.69,221.98c-.89-8.46-.39-16.54,1.12-23.97,1.52-7.43,4-14.21,7.17-20.27,6.36-12.15,15.14-21.42,24.73-28.72,9.66-7.28,20.19-12.64,31.47-16.99,5.65-2.16,11.52-4.06,17.72-5.71,6.21-1.64,12.74-3.09,19.83-4.13l1.39,9.23c-6.35.93-12.2,2.19-17.78,3.58-5.58,1.41-10.89,3.01-16.04,4.85-10.27,3.69-20.03,8.29-29.06,14.73-8.96,6.45-17.25,14.78-23.29,25.85-3.01,5.52-5.37,11.73-6.83,18.54-1.45,6.81-1.94,14.24-1.13,22.03"/>
          <path class="cls-1" d="M41.01,217.92c-1.21-12.07-1.42-22.8-.69-33.42.38-5.3,1.02-10.54,2.03-15.75,1-5.22,2.38-10.41,4.27-15.52,3.76-10.19,9.51-20.25,18.35-28.8,4.42-4.24,9.6-8.08,15.56-11.19,5.96-3.11,12.71-5.48,20.08-6.71l1.54,9.21c-6.72,1.13-12.85,3.32-18.25,6.21-5.4,2.89-10.06,6.47-14,10.42-7.89,7.96-12.85,17.31-15.95,26.67-1.56,4.69-2.64,9.44-3.38,14.18-.74,4.74-1.16,9.46-1.35,14.19-.36,9.5.04,18.9,1.1,29.54"/>
          <path class="cls-1" d="M233.2,197.5c-.91-8.46-3.1-16.26-6.13-23.2-3.04-6.95-6.9-13.05-11.27-18.32-8.77-10.54-19.31-17.76-30.21-22.88-10.98-5.09-22.4-8.12-34.33-10-5.98-.93-12.12-1.55-18.53-1.86-6.41-.29-13.11-.35-20.25.13l.58,9.32c6.4-.43,12.38-.42,18.14-.24,5.75.2,11.28.65,16.7,1.37,10.82,1.45,21.32,3.89,31.51,8.29,10.11,4.42,19.97,10.83,28.2,20.38,4.1,4.77,7.72,10.33,10.57,16.69,2.84,6.35,4.89,13.52,5.73,21.3"/>
          <path class="cls-1" d="M194.88,201.57c-1.35-12.06-3.4-22.59-6.34-32.82-1.48-5.1-3.22-10.09-5.29-14.98-2.08-4.89-4.51-9.68-7.43-14.27-5.82-9.17-13.55-17.8-23.99-24.3-5.21-3.22-11.08-5.89-17.57-7.67-6.48-1.79-13.57-2.68-21.04-2.34l.43,9.33c6.81-.31,13.27.55,19.14,2.24,5.88,1.69,11.19,4.21,15.88,7.24,9.38,6.12,16.2,14.22,21.2,22.72,2.51,4.26,4.56,8.68,6.28,13.15,1.72,4.47,3.12,9,4.3,13.59,2.35,9.21,3.93,18.49,5.13,29.11"/>
          <path class="cls-1" d="M53.18,94.77c13.13,3.81,24.93,9.64,34.87,16.86,14.36,4.34,26.37,11.85,35.2,20.8,8.84,8.97,14.42,19.41,16.67,29.69.09-10.6-2.23-21.86-7.19-32.59-7.76-10.03-18.79-18.77-32.33-25.08-13.54-6.29-29.72-9.87-47.22-9.68Z"/>
          <path class="cls-1" d="M87.99,163.08l-.14-2.01-.06-1.99c-.02-1.34-.02-2.71.03-4.08.13-2.68.36-5.52.82-8.26.85-5.6,2.42-11.18,4.64-16.79,7.5-10.48,18.3-19.87,31.9-26.78,13.58-6.89,29.99-11.13,47.75-11.39-13.73,3.83-25.9,9.76-35.99,17.28-7.09,2.65-13.55,6.04-19.26,9.97-5.71,3.95-10.67,8.43-14.82,13.23-8.32,9.59-13.25,20.45-14.87,30.82Z"/>
          <path class="cls-1" d="M110.49,134.41l3.13-.16c1.04-.02,2.09,0,3.13-.01-.02-11.15.03-22.3.16-33.45l-4.5.05c-1.5.05-2.99.16-4.49.25.78,11.12,1.64,22.23,2.57,33.34Z"/>
          <path class="cls-1" d="M116.73,133.96c1.04.06,2.08.24,3.11.36l1.55.2,1.53.28c1.42-11.03,3.14-22.04,5.18-33.02l-4.44-.67c-1.49-.21-2.98-.33-4.47-.48-1.13,11.08-1.95,22.19-2.46,33.33Z"/>
          <path class="cls-1" d="M108.04,101.35c-1.5-.02-2.99.08-4.49.16s-3,.16-4.49.33c.91,11.12,2.12,22.2,3.63,33.21l3.15-.22c1.05-.04,2.1-.05,3.14-.07-.62-11.14-.93-22.27-.94-33.41Z"/>
        </g>
      </g>
      <g>
        <g>
          <path class="cls-1" d="M377.58,620.76c0,8.5-1.36,16.49-3.65,23.71-2.29,7.23-5.48,13.71-9.27,19.4-7.61,11.41-17.32,19.71-27.62,25.95-10.38,6.22-21.42,10.44-33.08,13.57-5.85,1.56-11.89,2.82-18.23,3.81-6.35.97-13,1.73-20.16,2.01l-.41-9.33c6.41-.25,12.36-.89,18.06-1.68,5.7-.81,11.15-1.84,16.47-3.13,10.6-2.59,20.79-6.13,30.45-11.58,9.59-5.47,18.72-12.88,25.88-23.25,3.57-5.17,6.58-11.09,8.75-17.72,2.16-6.62,3.44-13.96,3.44-21.79"/>
          <path class="cls-1" d="M339.05,620.76c-.07,12.13-.99,22.82-2.84,33.31-.94,5.23-2.13,10.37-3.68,15.45-1.55,5.08-3.46,10.1-5.88,14.98-4.82,9.74-11.59,19.13-21.28,26.7-4.84,3.75-10.4,7.03-16.66,9.49-6.25,2.46-13.21,4.1-20.67,4.56l-.56-9.32c6.8-.41,13.13-1.95,18.8-4.25,5.67-2.3,10.68-5.37,15.02-8.88,8.68-7.08,14.61-15.85,18.68-24.84,2.05-4.5,3.62-9.11,4.85-13.74,1.24-4.63,2.15-9.28,2.84-13.97,1.36-9.41,1.95-18.8,2.02-29.49"/>
          <path class="cls-1" d="M145.78,620.78c.01,8.5,1.37,16.49,3.65,23.71,2.29,7.23,5.48,13.71,9.28,19.4,7.61,11.41,17.32,19.7,27.63,25.94,10.38,6.22,21.42,10.43,33.09,13.57,5.85,1.55,11.89,2.82,18.23,3.81,6.35.97,13,1.73,20.16,2.01l.4-9.33c-6.41-.25-12.36-.89-18.06-1.68-5.7-.81-11.15-1.84-16.47-3.12-10.6-2.59-20.8-6.12-30.46-11.57-9.59-5.46-18.72-12.87-25.89-23.24-3.57-5.17-6.58-11.09-8.75-17.72-2.16-6.62-3.44-13.96-3.45-21.79"/>
          <path class="cls-1" d="M184.31,620.78c.07,12.13.99,22.82,2.84,33.31.94,5.23,2.13,10.37,3.68,15.45,1.55,5.08,3.46,10.1,5.88,14.98,4.82,9.74,11.6,19.13,21.29,26.7,4.84,3.75,10.4,7.02,16.66,9.48,6.25,2.46,13.21,4.1,20.67,4.55l.56-9.32c-6.8-.41-13.13-1.95-18.8-4.25-5.67-2.3-10.69-5.37-15.02-8.88-8.68-7.08-14.61-15.85-18.69-24.83-2.05-4.5-3.62-9.11-4.86-13.74-1.24-4.63-2.15-9.28-2.85-13.96-1.37-9.4-1.96-18.8-2.03-29.49"/>
          <path class="cls-1" d="M313.94,741.94c-12.66-5.18-23.77-12.22-32.9-20.45-13.82-5.83-24.98-14.57-32.81-24.4-7.85-9.85-12.29-20.82-13.44-31.28-1.21,10.53-.09,21.97,3.71,33.17,6.66,10.79,16.71,20.65,29.5,28.35,12.8,7.68,28.52,12.95,45.93,14.61Z"/>
          <path class="cls-1" d="M286.54,670.33l-.07,2.01-.15,1.98c-.12,1.33-.27,2.7-.46,4.05-.41,2.65-.94,5.45-1.69,8.12-1.44,5.48-3.59,10.86-6.39,16.21-8.56,9.63-20.3,17.83-34.55,23.26-14.23,5.42-31,7.9-48.68,6.29,14.05-2.36,26.78-6.97,37.61-13.38,7.33-1.88,14.12-4.58,20.21-7.89,6.09-3.33,11.5-7.26,16.13-11.59,9.29-8.66,15.33-18.94,18.04-29.08Z"/>
          <path class="cls-1" d="M261.14,696.46l-3.13-.17c-1.04-.09-2.07-.21-3.11-.32-1.16,11.09-2.39,22.17-3.69,33.25l4.48.43c1.49.11,2.99.16,4.49.23.4-11.14.72-22.28.97-33.42Z"/>
          <path class="cls-1" d="M254.89,696.26c-1.03-.17-2.04-.46-3.06-.69l-1.52-.37-1.5-.44c-2.57,10.82-5.45,21.59-8.63,32.29l4.34,1.14c1.46.36,2.93.64,4.4.95,2.29-10.9,4.28-21.86,5.96-32.89Z"/>
          <path class="cls-1" d="M260.09,729.6c1.49.17,2.98.23,4.48.32,1.5.08,3,.16,4.5.14.27-11.16.23-22.3-.11-33.41l-3.15-.11c-1.05-.07-2.09-.18-3.13-.26-.56,11.14-1.42,22.25-2.59,33.32Z"/>
        </g>
        <g>
          <path class="cls-1" d="M145.78,620.76c0-8.5,1.36-16.49,3.65-23.71,2.29-7.23,5.48-13.71,9.27-19.4,7.61-11.41,17.32-19.71,27.62-25.95,10.38-6.22,21.42-10.44,33.08-13.57,5.85-1.56,11.89-2.82,18.23-3.81,6.35-.97,13-1.73,20.16-2.01l.4,9.33c-6.41.25-12.36.89-18.06,1.68-5.7.81-11.15,1.84-16.47,3.13-10.6,2.59-20.79,6.13-30.45,11.58-9.59,5.47-18.72,12.88-25.88,23.25-3.57,5.17-6.58,11.09-8.75,17.72-2.16,6.62-3.44,13.96-3.44,21.79"/>
          <path class="cls-1" d="M184.31,620.76c.07-12.13.99-22.82,2.84-33.31.94-5.23,2.13-10.37,3.68-15.45,1.55-5.08,3.46-10.1,5.88-14.98,4.82-9.74,11.59-19.13,21.28-26.7,4.84-3.75,10.4-7.03,16.66-9.49,6.25-2.46,13.21-4.1,20.67-4.56l.56,9.32c-6.8.41-13.13,1.95-18.8,4.25-5.67,2.3-10.68,5.37-15.02,8.88-8.68,7.08-14.61,15.85-18.68,24.84-2.05,4.5-3.62,9.11-4.85,13.74-1.24,4.63-2.15,9.28-2.84,13.97-1.36,9.41-1.95,18.8-2.02,29.49"/>
          <path class="cls-1" d="M377.58,620.73c-.01-8.5-1.36-16.49-3.65-23.71-2.29-7.23-5.48-13.71-9.28-19.4-7.61-11.41-17.32-19.7-27.63-25.94-10.38-6.22-21.42-10.43-33.09-13.57-5.85-1.55-11.89-2.82-18.23-3.81-6.35-.97-13-1.73-20.16-2.01l-.4,9.33c6.41.25,12.36.89,18.06,1.68,5.7.81,11.15,1.84,16.47,3.12,10.6,2.59,20.8,6.12,30.46,11.57,9.59,5.46,18.72,12.87,25.89,23.24,3.57,5.17,6.58,11.09,8.75,17.72,2.16,6.62,3.44,13.96,3.45,21.79"/>
          <path class="cls-1" d="M339.05,620.74c-.07-12.13-.99-22.82-2.84-33.31-.94-5.23-2.13-10.37-3.68-15.45-1.55-5.08-3.46-10.1-5.88-14.98-4.82-9.74-11.6-19.13-21.29-26.7-4.84-3.75-10.4-7.02-16.66-9.49-6.25-2.46-13.21-4.1-20.67-4.55l-.56,9.32c6.8.41,13.13,1.95,18.8,4.25,5.67,2.3,10.69,5.37,15.02,8.88,8.68,7.08,14.61,15.85,18.69,24.83,2.05,4.5,3.62,9.11,4.86,13.74,1.24,4.63,2.15,9.28,2.85,13.96,1.37,9.4,1.96,18.8,2.03,29.49"/>
          <path class="cls-1" d="M209.42,499.58c12.66,5.18,23.77,12.22,32.9,20.45,13.82,5.83,24.98,14.57,32.81,24.4,7.85,9.85,12.29,20.82,13.44,31.28,1.21-10.53.09-21.97-3.71-33.17-6.66-10.79-16.71-20.65-29.5-28.35-12.8-7.68-28.52-12.95-45.93-14.61Z"/>
          <path class="cls-1" d="M236.82,571.19l.07-2.01.15-1.99c.12-1.33.27-2.7.46-4.05.41-2.65.94-5.45,1.69-8.12,1.44-5.48,3.59-10.86,6.39-16.21,8.56-9.63,20.3-17.83,34.55-23.26,14.23-5.42,31-7.9,48.68-6.29-14.05,2.36-26.78,6.97-37.61,13.38-7.33,1.88-14.12,4.58-20.21,7.89-6.09,3.33-11.5,7.26-16.14,11.59-9.29,8.66-15.33,18.94-18.04,29.08Z"/>
          <path class="cls-1" d="M262.22,545.05l3.13.17c1.04.09,2.07.21,3.11.32,1.16-11.09,2.39-22.17,3.69-33.25l-4.48-.43c-1.49-.11-2.99-.16-4.49-.23-.4,11.14-.72,22.28-.97,33.42Z"/>
          <path class="cls-1" d="M268.47,545.26c1.03.17,2.04.46,3.06.69l1.52.37,1.5.44c2.57-10.82,5.45-21.59,8.63-32.29l-4.34-1.14c-1.46-.36-2.93-.64-4.4-.95-2.29,10.9-4.28,21.86-5.96,32.89Z"/>
          <path class="cls-1" d="M263.27,511.92c-1.49-.17-2.98-.23-4.48-.32-1.5-.08-3-.16-4.5-.14-.27,11.16-.23,22.3.11,33.41l3.15.11c1.05.07,2.09.18,3.13.26.56-11.14,1.42-22.25,2.59-33.32Z"/>
        </g>
      </g>
      <g>
        <g>
          <path class="cls-1" d="M376.94,107.99c.89,8.46.39,16.54-1.12,23.97-1.52,7.43-4,14.21-7.17,20.27-6.36,12.15-15.14,21.42-24.73,28.72-9.66,7.28-20.19,12.64-31.46,16.99-5.65,2.16-11.52,4.06-17.72,5.71-6.21,1.64-12.74,3.09-19.83,4.13l-1.39-9.23c6.35-.93,12.2-2.19,17.78-3.58,5.58-1.41,10.89-3.01,16.04-4.85,10.27-3.69,20.03-8.29,29.06-14.73,8.96-6.45,17.25-14.78,23.29-25.85,3.01-5.52,5.37-11.73,6.83-18.54,1.45-6.81,1.94-14.24,1.13-22.03"/>
          <path class="cls-1" d="M338.62,112.05c1.21,12.07,1.42,22.8.69,33.42-.38,5.3-1.02,10.54-2.03,15.75-1,5.22-2.38,10.41-4.27,15.52-3.76,10.19-9.51,20.25-18.35,28.8-4.42,4.24-9.6,8.08-15.56,11.19-5.96,3.11-12.71,5.48-20.08,6.71l-1.54-9.21c6.72-1.13,12.85-3.32,18.25-6.21,5.4-2.89,10.06-6.47,14-10.42,7.89-7.96,12.85-17.31,15.95-26.67,1.56-4.69,2.64-9.44,3.38-14.18.74-4.74,1.16-9.46,1.35-14.19.36-9.5-.04-18.9-1.1-29.54"/>
          <path class="cls-1" d="M146.43,132.47c.91,8.46,3.1,16.26,6.13,23.2,3.04,6.95,6.9,13.05,11.27,18.32,8.77,10.54,19.31,17.76,30.21,22.88,10.98,5.09,22.4,8.12,34.33,10,5.98.93,12.12,1.55,18.53,1.86,6.41.29,13.11.35,20.25-.13l-.58-9.32c-6.4.43-12.38.42-18.14.24-5.75-.2-11.28-.65-16.7-1.37-10.82-1.45-21.32-3.89-31.51-8.29-10.11-4.42-19.97-10.83-28.2-20.38-4.1-4.77-7.72-10.33-10.57-16.69-2.84-6.35-4.89-13.52-5.73-21.3"/>
          <path class="cls-1" d="M184.75,128.4c1.35,12.06,3.4,22.59,6.34,32.82,1.48,5.1,3.22,10.09,5.29,14.98,2.08,4.89,4.51,9.68,7.43,14.27,5.82,9.17,13.55,17.8,23.99,24.3,5.21,3.22,11.08,5.89,17.57,7.67,6.48,1.79,13.57,2.68,21.04,2.34l-.43-9.33c-6.81.31-13.27-.55-19.14-2.24-5.88-1.69-11.19-4.21-15.88-7.24-9.38-6.12-16.2-14.22-21.2-22.72-2.51-4.26-4.56-8.68-6.28-13.15-1.72-4.47-3.12-9-4.3-13.59-2.35-9.21-3.93-18.49-5.13-29.11"/>
          <path class="cls-1" d="M326.45,235.2c-13.13-3.81-24.93-9.64-34.87-16.86-14.36-4.34-26.37-11.85-35.2-20.8-8.84-8.97-14.42-19.41-16.67-29.69-.09,10.6,2.23,21.86,7.19,32.59,7.76,10.03,18.79,18.77,32.33,25.08,13.54,6.29,29.72,9.87,47.22,9.68Z"/>
          <path class="cls-1" d="M291.64,166.89l.14,2.01.06,1.99c.02,1.34.02,2.71-.03,4.08-.13,2.68-.36,5.52-.82,8.26-.85,5.6-2.42,11.18-4.64,16.79-7.5,10.48-18.3,19.87-31.9,26.78-13.58,6.89-29.99,11.13-47.75,11.39,13.73-3.83,25.9-9.76,35.99-17.28,7.09-2.65,13.55-6.04,19.26-9.97,5.71-3.95,10.67-8.43,14.82-13.23,8.32-9.59,13.25-20.45,14.87-30.82Z"/>
          <path class="cls-1" d="M269.14,195.56l-3.13.16c-1.04.02-2.09,0-3.13.01.02,11.15-.03,22.3-.16,33.45l4.5-.05c1.5-.05,2.99-.16,4.49-.25-.78-11.12-1.64-22.23-2.57-33.34Z"/>
          <path class="cls-1" d="M262.91,196.01c-1.04-.06-2.08-.24-3.11-.36l-1.55-.2-1.53-.28c-1.42,11.03-3.14,22.04-5.18,33.02l4.44.67c1.49.21,2.98.33,4.47.48,1.13-11.08,1.95-22.19,2.46-33.33Z"/>
          <path class="cls-1" d="M271.6,228.62c1.5.02,2.99-.08,4.49-.16,1.5-.08,3-.16,4.49-.33-.91-11.12-2.12-22.2-3.63-33.21l-3.15.22c-1.05.04-2.1.04-3.14.07.62,11.14.93,22.27.94,33.41Z"/>
        </g>
        <g>
          <path class="cls-1" d="M146.43,132.45c-.89-8.46-.39-16.54,1.12-23.97,1.52-7.43,4-14.21,7.17-20.27,6.36-12.15,15.14-21.42,24.73-28.72,9.66-7.28,20.19-12.64,31.47-16.99,5.65-2.16,11.52-4.06,17.72-5.71,6.21-1.64,12.74-3.09,19.83-4.13l1.39,9.23c-6.35.93-12.2,2.19-17.78,3.58-5.58,1.41-10.89,3.01-16.05,4.85-10.27,3.69-20.03,8.29-29.06,14.73-8.96,6.45-17.25,14.78-23.29,25.85-3.01,5.52-5.37,11.73-6.83,18.54-1.45,6.81-1.94,14.24-1.13,22.03"/>
          <path class="cls-1" d="M184.75,128.38c-1.21-12.07-1.42-22.8-.69-33.42.38-5.3,1.02-10.54,2.03-15.75,1-5.22,2.38-10.41,4.27-15.52,3.76-10.19,9.51-20.25,18.35-28.8,4.42-4.24,9.6-8.08,15.56-11.19,5.96-3.11,12.71-5.48,20.08-6.71l1.54,9.21c-6.72,1.13-12.85,3.32-18.25,6.21-5.4,2.89-10.06,6.47-14,10.42-7.89,7.96-12.85,17.31-15.95,26.67-1.56,4.69-2.64,9.44-3.38,14.18-.74,4.74-1.16,9.46-1.35,14.19-.36,9.5.04,18.9,1.1,29.54"/>
          <path class="cls-1" d="M376.94,107.96c-.91-8.46-3.1-16.26-6.13-23.2-3.04-6.95-6.9-13.05-11.27-18.32-8.77-10.54-19.31-17.76-30.21-22.88-10.98-5.09-22.4-8.12-34.33-10-5.98-.93-12.12-1.55-18.53-1.86-6.41-.29-13.11-.35-20.25.13l.58,9.32c6.4-.43,12.38-.42,18.14-.24,5.75.2,11.28.65,16.7,1.37,10.82,1.45,21.32,3.89,31.51,8.29,10.11,4.42,19.97,10.83,28.2,20.38,4.1,4.77,7.72,10.33,10.57,16.69,2.84,6.35,4.89,13.52,5.73,21.3"/>
          <path class="cls-1" d="M338.62,112.04c-1.35-12.06-3.4-22.59-6.34-32.82-1.48-5.1-3.22-10.09-5.29-14.98-2.08-4.89-4.51-9.68-7.43-14.27-5.82-9.17-13.55-17.8-23.99-24.3-5.21-3.22-11.08-5.89-17.57-7.67-6.48-1.79-13.57-2.68-21.04-2.34l.43,9.33c6.81-.31,13.27.55,19.14,2.24,5.88,1.69,11.19,4.21,15.88,7.24,9.38,6.12,16.2,14.22,21.2,22.72,2.51,4.26,4.56,8.68,6.28,13.15,1.72,4.47,3.12,9,4.3,13.59,2.35,9.21,3.93,18.49,5.13,29.11"/>
          <path class="cls-1" d="M196.93,5.23c13.13,3.81,24.93,9.64,34.87,16.86,14.36,4.34,26.37,11.85,35.2,20.8,8.84,8.97,14.42,19.41,16.67,29.69.09-10.6-2.23-21.86-7.19-32.59-7.76-10.03-18.79-18.77-32.33-25.08-13.54-6.29-29.72-9.87-47.22-9.68Z"/>
          <path class="cls-1" d="M231.73,73.55l-.14-2.01-.06-1.99c-.02-1.34-.02-2.71.03-4.08.13-2.68.36-5.52.82-8.26.85-5.6,2.42-11.18,4.64-16.79,7.5-10.48,18.3-19.87,31.9-26.78,13.58-6.89,29.99-11.13,47.75-11.39-13.73,3.83-25.9,9.76-35.99,17.28-7.09,2.65-13.55,6.04-19.26,9.97-5.71,3.95-10.67,8.43-14.82,13.23-8.32,9.59-13.25,20.45-14.87,30.82Z"/>
          <path class="cls-1" d="M254.23,44.88l3.13-.16c1.04-.02,2.09,0,3.13-.01-.02-11.15.03-22.3.16-33.45l-4.5.05c-1.5.05-2.99.16-4.49.25.78,11.12,1.64,22.23,2.57,33.34Z"/>
          <path class="cls-1" d="M260.47,44.42c1.04.06,2.08.24,3.11.36l1.55.2,1.53.28c1.42-11.03,3.14-22.04,5.18-33.02l-4.44-.67c-1.49-.21-2.98-.33-4.47-.48-1.13,11.08-1.95,22.19-2.46,33.33Z"/>
          <path class="cls-1" d="M251.78,11.81c-1.5-.02-2.99.08-4.49.16-1.5.08-3,.16-4.49.33.91,11.12,2.12,22.2,3.63,33.21l3.15-.22c1.05-.04,2.1-.05,3.14-.07-.62-11.14-.93-22.27-.94-33.41Z"/>
        </g>
      </g>
    </g>
  </g>
</svg>