<?xml version="1.0" encoding="UTF-8"?>
<svg id="Layer_2" data-name="Layer 2" xmlns="http://www.w3.org/2000/svg" viewBox="0 0 1026.55 886.42">
  <defs>
    <style>
      .cls-1 {
        fill: #bfbfbf;
        stroke: #000;
        stroke-linecap: round;
        stroke-width: 4.5px;
      }
    </style>
  </defs>
  <g id="Layer_2-2" data-name="Layer 2">
    <g>
      <g>
        <g>
          <path class="cls-1" d="M2.25,343.49c51.12-15,83.86,3.89,139.97-12.57l2.63,8.96c-56.11,16.46-88.84-2.42-139.96,12.58"/>
          <path class="cls-1" d="M13.1,380.47c54.38-15.95,73.57-50.06,123.12-64.59l2.63,8.96c-49.55,14.54-68.73,48.65-123.11,64.6"/>
          <path class="cls-1" d="M274.41,263.66c-51.12,15-68.47,48.58-124.58,65.03l2.63,8.96c56.1-16.46,73.46-50.02,124.58-65.02"/>
          <path class="cls-1" d="M285.26,300.63c-54.38,15.95-88.95-2.38-138.5,12.15l2.63,8.96c49.55-14.54,84.12,3.81,138.5-12.14"/>
          <polygon class="cls-1" points="98.56 298.51 125.62 321.18 202.86 350.76 172.95 329.19 98.56 298.51"/>
          <polygon class="cls-1" points="115.04 373.39 130.64 339.57 181.25 276.14 167.44 309.04 115.04 373.39"/>
          <polygon class="cls-1" points="150.26 341.95 157.47 340.02 148.65 307.76 141.44 309.69 150.26 341.95"/>
          <polygon class="cls-1" points="157.38 339.76 164.71 338.33 157.75 305.66 150.41 307.07 157.38 339.76"/>
          <polygon class="cls-1" points="141.58 309.94 134.25 311.37 141.22 344.05 148.55 342.63 141.58 309.94"/>
        </g>
        <g>
          <path class="cls-1" d="M455.38,587.07c-61.75,55.81-110.33,62.86-178.1,124.11l-6.26-6.93c67.77-61.25,116.34-68.31,178.1-124.12"/>
          <path class="cls-1" d="M429.54,558.48c-65.69,59.37-79.83,108.97-139.69,163.07l-6.26-6.93c59.86-54.09,73.99-103.71,139.68-163.08"/>
          <path class="cls-1" d="M126.63,884.17c61.75-55.81,73.68-103.43,141.45-164.67l-6.26-6.93c-67.77,61.24-79.7,108.86-141.45,164.66"/>
          <path class="cls-1" d="M100.79,855.58c65.69-59.37,116.47-68.43,176.33-122.52l-6.26-6.93c-59.86,54.09-110.65,63.14-176.34,122.51"/>
          <polygon class="cls-1" points="344.35 709.05 301.96 707.77 192.09 739.49 237.84 737.39 344.35 709.05"/>
          <polygon class="cls-1" points="299.16 646.78 289.59 693.26 243.86 797.42 251.39 753.3 299.16 646.78"/>
          <polygon class="cls-1" points="263.31 706.49 254.54 714.17 276.25 739.61 285.02 731.93 263.31 706.49"/>
          <polygon class="cls-1" points="254.75 714.36 245.66 721.63 265.08 748.98 274.18 741.72 254.75 714.36"/>
          <polygon class="cls-1" points="284.75 731.8 293.84 724.52 274.41 697.16 265.32 704.44 284.75 731.8"/>
        </g>
        <g>
          <path class="cls-1" d="M423.13,551.39c3.71-3.35,7.4-6.68,11.09-10.01,3.7-3.32,7.4-6.62,11.08-9.92,3.7-3.28,7.38-6.55,11.06-9.82,3.69-3.25,7.36-6.48,11.03-9.71,3.68-3.21,7.34-6.41,10.99-9.6,3.66-3.17,7.31-6.34,10.96-9.49,3.65-3.14,7.29-6.26,10.91-9.38,3.63-3.1,7.25-6.19,10.86-9.27,7.23-6.1,14.42-12.17,21.56-18.19,7.15-5.95,14.25-11.85,21.31-17.72,7.06-5.79,14.06-11.53,21.01-17.23,6.95-5.62,13.84-11.2,20.68-16.73,6.83-5.45,13.6-10.86,20.3-16.21,6.69-5.28,13.33-10.51,19.89-15.68,6.55-5.1,13.03-10.15,19.43-15.14,6.39-4.92,12.7-9.78,18.94-14.58,6.22-4.73,12.35-9.4,18.41-14.01,6.03-4.54,11.98-9.02,17.83-13.42,5.83-4.34,11.57-8.62,17.22-12.82,5.62-4.14,11.14-8.21,16.56-12.21,5.4-3.94,10.69-7.8,15.87-11.58,5.16-3.73,10.21-7.37,15.13-10.93,4.91-3.51,9.7-6.94,14.36-10.27,4.64-3.29,9.16-6.49,13.55-9.6,4.37-3.07,8.6-6.04,12.69-8.92,4.08-2.84,8.01-5.58,11.8-8.21,7.53-5.18,14.47-9.95,20.75-14.27,6.23-4.22,11.82-8,16.7-11.3,4.84-3.22,8.96-5.97,12.32-8.21,6.65-4.35,10.24-6.7,10.24-6.7-2.63,1.81-5.27,3.63-7.93,5.46-2.68,1.87-5.36,3.74-8.07,5.63-2.72,1.92-5.45,3.85-8.2,5.78-2.76,1.97-5.53,3.95-8.32,5.94-2.8,2.02-5.61,4.04-8.43,6.08-2.83,2.06-5.68,4.13-8.54,6.21-5.74,4.24-11.53,8.5-17.36,12.8-5.86,4.39-11.76,8.81-17.69,13.25-5.96,4.52-11.94,9.07-17.96,13.64-6.03,4.64-12.09,9.3-18.16,13.97-6.09,4.74-12.19,9.48-18.3,14.24-6.12,4.81-12.25,9.63-18.38,14.44-6.14,4.87-12.27,9.73-18.4,14.59-6.13,4.9-12.25,9.8-18.35,14.68-6.1,4.92-12.19,9.82-18.24,14.7-6.06,4.92-12.08,9.81-18.07,14.67-5.99,4.89-11.94,9.76-17.84,14.58-11.8,9.73-23.4,19.29-34.73,28.63-11.32,9.43-22.36,18.63-33.05,27.53-10.68,8.97-20.99,17.65-30.87,25.94-9.86,8.36-19.29,16.34-28.18,23.88-8.89,7.58-17.25,14.71-25,21.33-15.48,13.31-28.53,24.53-38.46,33.07-9.92,8.57-16.72,14.45-19.73,17.06"/>
          <path class="cls-1" d="M287.89,309.6c4.16-1.26,8.6-2.6,13.29-4.02,4.69-1.46,9.63-3.01,14.81-4.62,5.15-1.65,10.54-3.37,16.15-5.17,5.58-1.82,11.38-3.71,17.37-5.66,5.97-1.98,12.13-4.02,18.47-6.11,6.31-2.12,12.8-4.29,19.44-6.52,13.21-4.5,27.03-9.2,41.29-14.05,14.18-4.9,28.8-9.95,43.69-15.09,14.82-5.18,29.91-10.45,45.1-15.76,15.13-5.34,30.36-10.71,45.51-16.05,15.11-5.37,30.14-10.71,44.93-15.96,29.48-10.56,57.98-20.77,84.16-30.15,26.08-9.42,49.85-18.01,69.94-25.27,40.05-14.58,65.48-23.84,65.48-23.84l-21.3-2.27c-6.11,2.3-12.31,4.64-18.57,7-6.3,2.35-12.66,4.72-19.09,7.11-12.94,4.76-26.13,9.6-39.47,14.51-13.45,4.86-27.06,9.79-40.75,14.74-13.78,4.92-27.64,9.86-41.5,14.81-13.93,4.91-27.86,9.83-41.71,14.71-13.9,4.86-27.73,9.69-41.39,14.46-13.7,4.74-27.24,9.43-40.53,14.03-13.32,4.58-26.4,9.07-39.14,13.45-25.56,8.7-49.78,16.93-71.96,24.48-22.27,7.48-42.49,14.28-59.98,20.16-17.55,5.83-32.36,10.76-43.73,14.54-11.39,3.73-19.34,6.33-23.15,7.58"/>
          <path class="cls-1" d="M455.37,587.07c8.59-7.66,17.23-15.35,25.89-23.07,8.69-7.68,17.4-15.37,26.11-23.07,17.47-15.29,34.91-30.56,52.11-45.62,34.45-30.01,67.92-59.18,98.58-85.88,7.64-6.72,15.11-13.28,22.38-19.67,7.24-6.42,14.29-12.67,21.1-18.71,6.78-6.09,13.33-11.97,19.64-17.63,3.13-2.85,6.2-5.64,9.21-8.38,2.99-2.75,5.92-5.44,8.77-8.06,2.84-2.64,5.61-5.22,8.32-7.73,2.68-2.53,5.29-4.99,7.83-7.39,2.51-2.41,4.95-4.76,7.33-7.03,2.33-2.29,4.6-4.51,6.8-6.66,1.08-1.08,2.15-2.14,3.19-3.19,1.03-1.05,2.05-2.08,3.05-3.09.99-1.01,1.95-2.01,2.91-2.99.94-.98,1.86-1.94,2.76-2.89.89-.94,1.76-1.87,2.61-2.78.83-.91,1.65-1.8,2.46-2.68.78-.87,1.55-1.73,2.3-2.57.73-.83,1.44-1.65,2.14-2.46l5.69-13.23c-2.26,2.09-4.71,4.35-7.34,6.78-2.64,2.42-5.46,4.99-8.44,7.72-6,5.43-12.65,11.45-19.85,17.96-7.23,6.48-15,13.46-23.21,20.82-8.23,7.34-16.89,15.06-25.88,23.07-18.01,15.96-37.29,33.05-56.94,50.46-19.68,17.35-39.71,35.01-59.17,52.17-38.98,34.21-75.66,66.41-102.6,90.06-26.96,23.59-44.17,38.64-44.17,38.64"/>
          <path class="cls-1" d="M274.41,263.65s9.51-3,26.36-8.33c8.46-2.65,18.76-5.87,30.63-9.59,11.89-3.69,25.35-7.87,40.12-12.45,14.79-4.55,30.89-9.49,48.03-14.76,17.16-5.21,35.37-10.74,54.34-16.5,19-5.69,38.78-11.61,59.06-17.69,10.15-3,20.43-6.05,30.8-9.11,10.38-3.04,20.85-6.11,31.39-9.2,10.54-3.06,21.14-6.13,31.77-9.22,10.64-3.05,21.3-6.11,31.96-9.16,10.66-3.02,21.32-6.03,31.94-9.04,10.62-2.96,21.21-5.91,31.73-8.85,10.52-2.88,20.97-5.75,31.32-8.58,10.35-2.78,20.59-5.53,30.71-8.25,10.11-2.65,20.08-5.27,29.9-7.85,4.9-1.26,9.77-2.51,14.59-3.75,4.81-1.22,9.58-2.43,14.31-3.62,4.72-1.17,9.39-2.34,14.01-3.49,4.61-1.13,9.17-2.24,13.68-3.34,4.5-1.08,8.94-2.14,13.33-3.19,4.37-1.02,8.69-2.03,12.95-3.03,4.24-.97,8.43-1.92,12.55-2.86,4.1-.91,8.15-1.8,12.13-2.68,3.95-.84,7.85-1.67,11.68-2.49,3.8-.78,7.53-1.54,11.2-2.29,3.63-.71,7.2-1.4,10.7-2.09,3.45-.64,6.85-1.26,10.18-1.87,1.64-.29,3.27-.57,4.88-.85,1.6-.27,3.18-.53,4.74-.8,1.55-.25,3.08-.49,4.6-.74,1.5-.23,2.98-.45,4.45-.68,1.45-.21,2.88-.41,4.3-.62,1.4-.19,2.78-.37,4.15-.56,1.34-.17,2.67-.33,3.99-.5,1.29-.15,2.57-.29,3.83-.43,1.24-.12,2.46-.25,3.67-.37,1.18-.1,2.35-.2,3.51-.3.57-.04,1.13-.08,1.69-.13l.42-.03h.1s-.02.04-.03.06l-.11.17-.46.66c-.64.9-1.27,1.78-1.9,2.67l-53.9,53.17c.86-.98,1.72-1.97,2.59-2.95l2.51-2.91,2.44-2.88,2.36-2.85,2.29-2.82,2.21-2.79,2.14-2.76,2.07-2.73c.67-.9,1.33-1.8,2-2.7.64-.89,1.29-1.78,1.93-2.67.62-.88,1.24-1.76,1.86-2.64.6-.87,1.19-1.74,1.79-2.61.57-.86,1.15-1.72,1.73-2.58.55-.85,1.1-1.7,1.66-2.55.53-.84,1.06-1.68,1.59-2.52.51-.83,1.02-1.66,1.53-2.49.02-.03-.06,0-.08,0h-.12s-.23.04-.23.04l-.46.05-.93.11-1.88.23c-1.27.16-2.55.32-3.83.49-1.3.18-2.61.35-3.92.53-1.33.19-2.67.38-4.01.57-2.73.42-5.49.84-8.27,1.26-2.84.47-5.71.94-8.61,1.42-2.95.52-5.92,1.04-8.93,1.57-3.05.57-6.13,1.14-9.25,1.72-3.15.62-6.34,1.24-9.56,1.87-3.25.66-6.54,1.33-9.85,2.01-3.35.71-6.73,1.42-10.14,2.15-3.44.75-6.91,1.51-10.42,2.28-3.53.8-7.09,1.6-10.69,2.41-3.62.84-7.27,1.68-10.95,2.54-3.7.88-7.43,1.76-11.2,2.66-3.78.92-7.6,1.84-11.44,2.77-3.86.95-7.75,1.92-11.68,2.89-3.93.99-7.9,1.99-11.9,3-8.02,2.07-16.16,4.17-24.43,6.3-8.28,2.2-16.69,4.43-25.21,6.69-8.53,2.32-17.17,4.67-25.91,7.05-8.75,2.43-17.6,4.89-26.54,7.37-8.94,2.53-17.98,5.08-27.09,7.66-9.11,2.62-18.31,5.25-27.57,7.91-9.26,2.69-18.59,5.41-27.98,8.14-9.38,2.76-18.82,5.54-28.31,8.33-18.95,5.66-38.08,11.37-57.3,17.1-19.19,5.81-38.46,11.64-57.71,17.47-76.86,23.58-153.44,47.06-222.94,68.38"/>
          <polygon class="cls-1" points="974.89 187.11 919.2 189.48 703.54 283.93 770.7 272.62 974.89 187.11"/>
          <polygon class="cls-1" points="996.76 50.44 1017.04 56.03 1022.11 57.42 1022.26 57.47 1022.34 57.49 1022.38 57.5 1022.4 57.5 1022.37 57.54 1021.85 58.09 1020.81 59.2 1018.74 61.42 1014.6 65.85 998.01 83.59 931.69 154.56 634.94 448.17 757.01 310.91 910.68 161.77 987.51 87.2 1006.72 68.56 1011.52 63.9 1012.12 63.32 1012.27 63.17 1012.22 63.14 1012.13 63.06 1011.78 62.77 1011.06 62.18 1008.2 59.83 996.76 50.44"/>
          <polygon class="cls-1" points="868.65 191.33 840.92 211.88 819.03 273.14 846.74 252.61 868.65 191.33"/>
          <polygon class="cls-1" points="840.87 212.31 813.55 231.85 784.64 298.22 811.94 278.69 840.87 212.31"/>
          <polygon class="cls-1" points="846.66 252.29 873.96 232.76 902.89 166.38 875.56 185.91 846.66 252.29"/>
          <path class="cls-1" d="M977.11,137.3l24.61-47.72,12.31-23.86,1.54-2.98.77-1.49.19-.37.05-.09v-.02s.02-.02,0-.01h-.08s-.32.06-.32.06l-1.29.19-10.32,1.53-20.64,3.06-375.48,89.55,150.12-25.4,195.23-44.32,24.4-5.54,6.1-1.39.76-.17.18-.04v.07s-.03.14-.03.14l-.08.55-.15,1.1-.61,4.4-2.43,17.59-4.85,35.17Z"/>
          <polygon class="cls-1" points="1008.64 1.89 951.73 56.36 744.89 190.78 793.88 139.86 1008.64 1.89"/>
          <polygon class="cls-1" points="858.76 83.81 825.86 96.48 882.43 112.66 915.31 100 858.76 83.81"/>
          <polygon class="cls-1" points="826.5 96.55 792.82 108.94 840.86 128.34 874.52 115.95 826.5 96.55"/>
          <polygon class="cls-1" points="914.49 100 948.17 87.61 900.1 68.22 866.43 80.6 914.49 100"/>
        </g>
      </g>
      <g>
        <g>
          <path class="cls-1" d="M291.04,424.23c-39.39,34.39-76.66,30.65-119.89,68.4l-6.14-7.03c43.23-37.75,80.5-34.01,119.88-68.41"/>
          <path class="cls-1" d="M265.69,395.2c-41.9,36.59-44.63,75.25-82.81,108.59l-6.14-7.03c38.18-33.34,40.9-72.01,82.8-108.6"/>
          <path class="cls-1" d="M81.35,607.34c39.39-34.39,40.7-71.84,83.93-109.58l-6.14-7.03c-43.23,37.75-44.55,75.18-83.94,109.58"/>
          <path class="cls-1" d="M56,578.31c41.9-36.59,80.58-34.09,118.76-67.43l-6.14-7.03c-38.18,33.34-76.87,30.83-118.77,67.42"/>
          <polygon class="cls-1" points="223.91 504.16 190.11 494.67 108.51 499.39 144.38 506.71 223.91 504.16"/>
          <polygon class="cls-1" points="177.49 443.14 177.84 480.09 159.4 558.08 157.83 522.7 177.49 443.14"/>
          <polygon class="cls-1" points="159.28 485.93 153.65 490.61 175.19 516.19 180.82 511.51 159.28 485.93"/>
          <polygon class="cls-1" points="153.84 490.81 147.89 495.09 167.94 521.81 173.91 517.54 153.84 490.81"/>
          <polygon class="cls-1" points="180.59 511.35 186.54 507.07 166.48 480.34 160.52 484.62 180.59 511.35"/>
        </g>
        <g>
          <path class="cls-1" d="M81.33,607.35c-2.46,2.15-4.92,4.15-7.36,6.02-.62.46-1.23.92-1.83,1.38l-.46.34-.11.08c-.08.07-.05.05.54-.48.42-.38.83-.78,1.23-1.19.81-.84,1.52-1.64,2.28-2.61,3.05-3.86,5.34-8.84,6.21-14.01.89-5.12.45-10.2-.97-14.72-1.41-4.51-3.78-8.61-7.08-12.13-3.32-3.55-7.66-6.47-12.64-8.18-1.22-.42-2.47-.77-3.74-1.04-.63-.13-1.27-.25-1.91-.34-.62-.09-1.22-.16-1.84-.22-1.23-.11-2.48-.14-3.71-.1-1.12.03-2.25.13-3.36.28-.56.08-1.11.17-1.66.28-.54.11-.13.03-.24.05h.07s.14-.02.14-.02l.28-.03.56-.05,1.11-.1c.74-.06,1.47-.12,2.2-.18,5.85-.42,11.47-.47,16.94-.27,10.95.4,21.33,1.79,31.86,3.14,21.07,2.71,42.76,5.29,70.89-.4l1.85,9.15c-28.13,5.69-49.82,3.11-70.89.41-10.53-1.35-20.91-2.74-31.86-3.14-5.47-.2-11.09-.15-16.94.27-.73.06-1.46.12-2.2.18l-1.11.1-.56.05-.28.03h-.14s-.07.02-.07.02c.08-.02-.22.04.16-.04.38-.08.77-.14,1.16-.2.78-.11,1.57-.18,2.36-.2.86-.03,1.74,0,2.6.07,1.69.15,3.57.53,5.26,1.12,3.49,1.2,6.55,3.25,8.88,5.74,2.32,2.47,3.98,5.35,4.98,8.51,1,3.17,1.31,6.74.69,10.34-.61,3.64-2.22,7.14-4.36,9.85-.54.68-1.03,1.25-1.6,1.84-.28.29-.57.57-.86.84-.41.37-.43.38-.37.34l.11-.08.46-.34c.61-.46,1.22-.92,1.83-1.38,2.45-1.87,4.9-3.87,7.36-6.02"/>
          <path class="cls-1" d="M55.98,578.32c-2.62,2.29-5.08,4.58-7.42,6.88-.63.62-1.25,1.24-1.87,1.86-.66.62-1.28,1.54-1.6,2.56-.33,1.03-.35,2.1-.14,3.06.42,1.9,1.71,3.56,3.72,4.34.97.38,2.08.46,2.95.32l.34-.06c.09-.02.05-.01.07-.02l.07-.02.14-.04.57-.17c1.53-.46,3.03-.93,4.5-1.42,5.9-1.96,11.41-4.16,16.64-6.53,10.46-4.73,19.82-10.11,29.02-15.46,18.41-10.69,36.21-21.27,61.05-26.29l1.85,9.15c-24.84,5.03-42.64,15.6-61.04,26.3-9.2,5.35-18.56,10.73-29.02,15.46-5.23,2.37-10.74,4.57-16.64,6.53-1.48.49-2.98.96-4.5,1.42l-.57.17-.14.04-.07.02c-.06.01.08-.01-.14.03-.29.06-.58.1-.87.15-.59.08-1.16.13-1.77.14-.64.01-1.29-.01-1.93-.08-1.28-.13-2.65-.45-3.89-.94-2.55-.98-4.72-2.62-6.3-4.53-1.59-1.93-2.67-4.15-3.19-6.62-.52-2.46-.45-5.2.4-7.84.82-2.61,2.42-4.94,4.1-6.51l.44-.41.05-.05.11-.11.21-.22.43-.43.87-.86c2.33-2.3,4.8-4.6,7.42-6.88"/>
          <path class="cls-1" d="M303.53,507.67c-51.25,10.37-70.94,42.25-127.19,53.63l1.85,9.15c56.25-11.38,75.94-43.25,127.19-53.62"/>
          <path class="cls-1" d="M311.18,545.44c-54.52,11.03-86.88-10.3-136.56-.24l1.85,9.15c49.68-10.05,82.04,11.29,136.57.25"/>
          <polygon class="cls-1" points="128.58 526.7 153.24 551.68 226.48 588 198.93 563.87 128.58 526.7"/>
          <polygon class="cls-1" points="138.69 602.7 156.68 570.43 211.33 511.8 195.17 543.32 138.69 602.7"/>
          <polygon class="cls-1" points="175.7 574.54 182.91 573.26 176.87 540.37 169.66 541.65 175.7 574.54"/>
          <polygon class="cls-1" points="182.84 572.99 190.14 572.23 185.95 539.09 178.65 539.84 182.84 572.99"/>
          <polygon class="cls-1" points="169.78 541.91 162.48 542.68 166.68 575.83 173.97 575.07 169.78 541.91"/>
        </g>
      </g>
      <g>
        <path class="cls-1" d="M4.69,187.36c41.48-8.76,67.45,13.69,112.97,4.08l1.93,9.14c-45.52,9.62-71.49-12.83-112.97-4.06"/>
        <path class="cls-1" d="M12.65,225.06c44.12-9.32,60.28-40.66,100.48-49.16l1.93,9.14c-40.2,8.49-56.36,39.85-100.48,49.17"/>
        <path class="cls-1" d="M225.51,140.71c-41.48,8.76-56.15,39.8-101.67,49.42l1.93,9.14c45.52-9.62,60.19-40.65,101.67-49.41"/>
        <path class="cls-1" d="M233.47,178.41c-44.12,9.32-71.58-12.81-111.78-4.31l1.93,9.14c40.21-8.49,67.66,13.65,111.78,4.33"/>
        <polygon class="cls-1" points="83.17 154.36 104.49 179.89 166.08 218.11 142.44 193.34 83.17 154.36"/>
        <polygon class="cls-1" points="94.89 230.08 108.16 198.59 150.23 142.05 138.43 172.84 94.89 230.08"/>
        <polygon class="cls-1" points="123.91 203.24 129.75 202.19 123.32 169.37 117.47 170.43 123.91 203.24"/>
        <polygon class="cls-1" points="129.68 201.92 135.62 201.38 130.69 168.37 124.75 168.9 129.68 201.92"/>
        <polygon class="cls-1" points="117.59 170.69 111.65 171.23 116.58 204.25 122.51 203.71 117.59 170.69"/>
      </g>
    </g>
  </g>
</svg>