<?xml version="1.0" encoding="UTF-8"?>
<svg id="Layer_2" data-name="Layer 2" xmlns="http://www.w3.org/2000/svg" viewBox="0 0 948.72 422.5">
  <defs>
    <style>
      .cls-1 {
        fill: #bfbfbf;
        stroke: #000;
        stroke-linecap: round;
        stroke-width: 4.5px;
      }
    </style>
  </defs>
  <g id="Layer_2-2" data-name="Layer 2">
    <g>
      <g>
        <path class="cls-1" d="M41.03,9.88c48.85,67.43,50.64,116.5,104.26,190.51l-7.56,5.48C84.11,131.87,82.31,82.8,33.46,15.37"/>
        <path class="cls-1" d="M9.82,32.49c51.97,71.74,99.78,91.15,147.13,156.52l-7.56,5.48C102.04,129.12,54.22,109.71,2.25,37.98"/>
        <path class="cls-1" d="M301.11,368.88c-48.85-67.43-94.93-84.43-148.54-158.44l-7.56,5.48c53.61,74.01,99.68,91.01,148.53,158.44"/>
        <path class="cls-1" d="M269.9,391.49c-51.97-71.74-55.52-123.21-102.87-188.58l-7.56,5.48c47.35,65.36,50.89,116.85,102.86,188.59"/>
        <polygon class="cls-1" points="150.38 133.46 144.55 175.48 164.29 288.16 167.12 242.44 150.38 133.46"/>
        <polygon class="cls-1" points="83.61 171.68 128.79 186.22 227.45 242.93 184.39 230.68 83.61 171.68"/>
        <polygon class="cls-1" points="139.12 213.78 145.82 223.33 173.46 204.48 166.76 194.93 139.12 213.78"/>
        <polygon class="cls-1" points="146.03 223.14 152.28 232.97 181.57 216.6 175.33 206.77 146.03 223.14"/>
        <polygon class="cls-1" points="166.6 195.19 160.34 185.36 131.05 201.73 137.3 211.56 166.6 195.19"/>
      </g>
      <g>
        <g>
          <path class="cls-1" d="M946.47,60.59c-60.89,33.78-103.98,26.42-170.8,63.49l-4.53-8.17c66.83-37.07,109.91-29.72,170.8-63.5"/>
          <path class="cls-1" d="M927.78,26.9c-64.77,35.93-83.53,77.58-142.55,110.32l-4.53-8.17c59.02-32.74,77.77-74.4,142.54-110.34"/>
          <path class="cls-1" d="M622.31,240.42c60.89-33.78,77.46-74.23,144.28-111.3l-4.53-8.17c-66.82,37.07-83.4,77.51-144.29,111.29"/>
          <path class="cls-1" d="M603.62,206.72c64.77-35.93,110.04-29.79,169.06-62.54l-4.53-8.17c-59.02,32.74-104.29,26.59-169.06,62.52"/>
          <polygon class="cls-1" points="834.17 141.25 797.54 127.98 698.03 125.86 738.02 136.97 834.17 141.25"/>
          <polygon class="cls-1" points="803.07 71.02 788.7 111.09 735.41 193.97 747.7 155.49 803.07 71.02"/>
          <polygon class="cls-1" points="764.16 115.78 755.55 120.35 771.07 149.98 779.68 145.4 764.16 115.78"/>
          <polygon class="cls-1" points="755.7 120.59 746.86 124.69 760.15 155.42 768.99 151.32 755.7 120.59"/>
          <polygon class="cls-1" points="779.47 145.2 788.31 141.09 775.01 110.36 766.17 114.46 779.47 145.2"/>
        </g>
        <g>
          <path class="cls-1" d="M622.29,240.43c-60.89,33.78-103.98,26.42-170.8,63.49l-4.53-8.17c66.83-37.07,109.91-29.72,170.8-63.5"/>
          <path class="cls-1" d="M603.6,206.73c-64.77,35.93-83.53,77.58-142.55,110.32l-4.53-8.17c59.02-32.74,77.77-74.4,142.54-110.34"/>
          <path class="cls-1" d="M298.13,420.25c60.89-33.78,77.46-74.23,144.28-111.3l-4.53-8.17c-66.82,37.07-83.4,77.51-144.29,111.29"/>
          <path class="cls-1" d="M279.44,386.56c64.77-35.93,110.04-29.79,169.06-62.54l-4.53-8.17c-59.02,32.74-104.29,26.59-169.06,62.52"/>
          <polygon class="cls-1" points="509.99 321.09 473.36 307.82 373.85 305.7 413.84 316.81 509.99 321.09"/>
          <polygon class="cls-1" points="478.89 250.86 464.52 290.93 411.23 373.8 423.52 335.32 478.89 250.86"/>
          <polygon class="cls-1" points="439.98 295.62 431.36 300.19 446.89 329.81 455.5 325.24 439.98 295.62"/>
          <polygon class="cls-1" points="431.52 300.42 422.68 304.53 435.97 335.25 444.81 331.16 431.52 300.42"/>
          <polygon class="cls-1" points="455.28 325.04 464.12 320.93 450.83 290.2 441.99 294.3 455.28 325.04"/>
        </g>
      </g>
      <g>
        <g>
          <path class="cls-1" d="M919.46,65.27c-56.67,0-84.43-27.34-146.63-27.34v-9.34c62.2,0,89.96,27.33,146.63,27.33"/>
          <path class="cls-1" d="M919.46,26.74c-60.29,0-90.08,27.32-145.01,27.32v-9.34c54.93,0,84.72-27.34,145.01-27.34"/>
          <path class="cls-1" d="M617.75,65.27c56.67,0,84.44-27.34,146.63-27.34v-9.34c-62.19,0-89.96,27.33-146.63,27.33"/>
          <path class="cls-1" d="M617.75,26.74c60.29,0,90.08,27.32,145.01,27.32v-9.34c-54.93,0-84.72-27.34-145.01-27.34"/>
          <polygon class="cls-1" points="807.69 81.33 786.86 51.95 716.87 1.83 740.94 30.94 807.69 81.33"/>
          <polygon class="cls-1" points="813.28 4.83 787.23 32.89 716.58 79.52 740.53 51.83 813.28 4.83"/>
          <polygon class="cls-1" points="767.92 25.09 759.98 24.91 759.33 58.35 767.27 58.53 767.92 25.09"/>
          <polygon class="cls-1" points="760 25.19 752.09 24.49 749.41 57.81 757.32 58.52 760 25.19"/>
          <polygon class="cls-1" points="767.19 58.25 775.11 58.94 777.78 25.62 769.87 24.92 767.19 58.25"/>
        </g>
        <g>
          <path class="cls-1" d="M617.73,65.27c-56.67,0-84.43-27.34-146.63-27.34v-9.34c62.2,0,89.96,27.33,146.63,27.33"/>
          <path class="cls-1" d="M617.73,26.74c-60.29,0-90.08,27.32-145.01,27.32v-9.34c54.93,0,84.72-27.34,145.01-27.34"/>
          <path class="cls-1" d="M316.03,65.27c56.67,0,84.44-27.34,146.63-27.34v-9.34c-62.19,0-89.96,27.33-146.63,27.33"/>
          <path class="cls-1" d="M316.03,26.74c60.29,0,90.08,27.32,145.01,27.32v-9.34c-54.93,0-84.72-27.34-145.01-27.34"/>
          <polygon class="cls-1" points="505.96 81.33 485.13 51.95 415.15 1.83 439.21 30.94 505.96 81.33"/>
          <polygon class="cls-1" points="511.56 4.83 485.5 32.89 414.86 79.52 438.8 51.83 511.56 4.83"/>
          <polygon class="cls-1" points="466.19 25.09 458.25 24.91 457.6 58.35 465.54 58.53 466.19 25.09"/>
          <polygon class="cls-1" points="458.27 25.19 450.36 24.49 447.69 57.81 455.6 58.52 458.27 25.19"/>
          <polygon class="cls-1" points="465.46 58.25 473.38 58.94 476.05 25.62 468.14 24.92 465.46 58.25"/>
        </g>
        <g>
          <path class="cls-1" d="M316,65.27c-56.67,0-84.43-27.34-146.63-27.34v-9.34c62.2,0,89.96,27.33,146.63,27.33"/>
          <path class="cls-1" d="M316,26.74c-60.29,0-90.08,27.32-145.01,27.32v-9.34c54.93,0,84.72-27.34,145.01-27.34"/>
          <path class="cls-1" d="M14.3,65.27c56.67,0,84.44-27.34,146.63-27.34v-9.34c-62.19,0-89.96,27.33-146.63,27.33"/>
          <path class="cls-1" d="M14.3,26.74c60.29,0,90.08,27.32,145.01,27.32v-9.34c-54.93,0-84.72-27.34-145.01-27.34"/>
          <polygon class="cls-1" points="204.23 81.33 183.4 51.95 113.42 1.83 137.49 30.94 204.23 81.33"/>
          <polygon class="cls-1" points="209.83 4.83 183.78 32.89 113.13 79.52 137.07 51.83 209.83 4.83"/>
          <polygon class="cls-1" points="164.46 25.09 156.52 24.91 155.88 58.35 163.81 58.53 164.46 25.09"/>
          <polygon class="cls-1" points="156.54 25.19 148.63 24.49 145.96 57.81 153.87 58.52 156.54 25.19"/>
          <polygon class="cls-1" points="163.74 58.25 171.65 58.94 174.33 25.62 166.41 24.92 163.74 58.25"/>
        </g>
      </g>
    </g>
  </g>
</svg>