<?xml version="1.0" encoding="UTF-8"?>
<svg id="Layer_2" data-name="Layer 2" xmlns="http://www.w3.org/2000/svg" viewBox="0 0 415.72 761.55">
  <defs>
    <style>
      .cls-1 {
        fill: #bfbfbf;
        stroke: #000;
        stroke-linecap: round;
        stroke-width: 4.5px;
      }
    </style>
  </defs>
  <g id="Layer_2-2" data-name="Layer 2">
    <g>
      <g>
        <path class="cls-1" d="M138.22,742.78c0-71.12,27.34-105.96,27.34-184.02h9.34c0,78.06-27.33,112.9-27.33,184.02"/>
        <path class="cls-1" d="M176.75,742.78c0-75.66-27.32-113.05-27.32-181.99h9.34c0,68.94,27.34,106.33,27.34,181.99"/>
        <path class="cls-1" d="M138.22,364.14c0,71.12,27.34,105.97,27.34,184.02h9.34c0-78.05-27.33-112.9-27.33-184.02"/>
        <path class="cls-1" d="M176.75,364.14c0,75.66-27.32,113.05-27.32,181.99h9.34c0-68.94,27.34-106.33,27.34-181.99"/>
        <polygon class="cls-1" points="122.16 602.51 151.54 576.37 201.66 488.54 172.55 518.74 122.16 602.51"/>
        <polygon class="cls-1" points="198.66 609.53 170.6 576.84 123.98 488.17 151.66 518.22 198.66 609.53"/>
        <polygon class="cls-1" points="178.4 552.6 178.58 542.64 145.14 541.82 144.96 551.78 178.4 552.6"/>
        <polygon class="cls-1" points="178.3 542.66 179 532.73 145.68 529.37 144.97 539.3 178.3 542.66"/>
        <polygon class="cls-1" points="145.24 551.69 144.55 561.62 177.87 564.98 178.57 555.05 145.24 551.69"/>
      </g>
      <g>
        <g>
          <path class="cls-1" d="M189.21,2.25c21.06,67.83,5.27,109.16,28.38,183.6l-8.92,2.77c-23.11-74.44-7.33-115.77-28.4-183.59"/>
          <path class="cls-1" d="M152.41,13.68c22.4,72.15,59.57,99.7,79.99,165.45l-8.92,2.77c-20.41-65.74-57.59-93.29-80-165.44"/>
          <path class="cls-1" d="M301.34,363.34c-21.06-67.83-57.49-92.95-80.6-167.38l-8.92,2.77c23.11,74.44,59.53,99.56,80.59,167.39"/>
          <path class="cls-1" d="M264.53,374.77c-22.4-72.15-7.38-115.91-27.79-181.65l-8.92,2.77c20.41,65.74,5.38,109.5,27.78,181.66"/>
          <polygon class="cls-1" points="246.09 131.26 225.77 164.9 203.91 263.52 222.77 226.08 246.09 131.26"/>
          <polygon class="cls-1" points="170.95 147.25 207.43 170.1 278.21 240.83 242.87 220.39 170.95 147.25"/>
          <polygon class="cls-1" points="207.16 195.54 209.93 205.09 242.11 195.95 239.33 186.4 207.16 195.54"/>
          <polygon class="cls-1" points="210.2 204.98 212.47 214.66 245.28 207.98 243.02 198.3 210.2 204.98"/>
          <polygon class="cls-1" points="239.09 186.57 236.81 176.89 203.99 183.57 206.27 193.25 239.09 186.57"/>
        </g>
        <g>
          <path class="cls-1" d="M301.34,363.36c21.06,67.83,5.27,109.16,28.38,183.6l-8.92,2.77c-23.11-74.44-7.33-115.77-28.4-183.59"/>
          <path class="cls-1" d="M264.54,374.79c22.4,72.15,59.57,99.7,79.99,165.45l-8.92,2.77c-20.41-65.74-57.59-93.29-80-165.44"/>
          <path class="cls-1" d="M413.47,724.45c-21.06-67.83-57.49-92.95-80.6-167.38l-8.92,2.77c23.11,74.44,59.53,99.56,80.59,167.39"/>
          <path class="cls-1" d="M376.67,735.88c-22.4-72.15-7.38-115.91-27.79-181.65l-8.92,2.77c20.41,65.74,5.38,109.5,27.78,181.66"/>
          <polygon class="cls-1" points="358.22 492.37 337.9 526.01 316.04 624.63 334.9 587.2 358.22 492.37"/>
          <polygon class="cls-1" points="283.08 508.36 319.56 531.22 390.34 601.94 355 581.5 283.08 508.36"/>
          <polygon class="cls-1" points="319.29 556.65 322.06 566.2 354.24 557.06 351.46 547.51 319.29 556.65"/>
          <polygon class="cls-1" points="322.33 566.1 324.6 575.77 357.41 569.09 355.15 559.41 322.33 566.1"/>
          <polygon class="cls-1" points="351.22 547.68 348.94 538 316.12 544.69 318.4 554.36 351.22 547.68"/>
        </g>
      </g>
      <g>
        <g>
          <path class="cls-1" d="M413.47,35.09c-21.06,67.83-57.49,92.94-80.6,167.38l-8.92-2.77c23.11-74.44,59.53-99.56,80.59-167.39"/>
          <path class="cls-1" d="M376.67,23.66c-22.4,72.15-7.38,115.91-27.79,181.65l-8.92-2.77c20.41-65.74,5.38-109.5,27.78-181.66"/>
          <path class="cls-1" d="M301.35,396.18c21.06-67.83,5.27-109.16,28.38-183.6l-8.92-2.77c-23.11,74.44-7.33,115.77-28.4,183.59"/>
          <path class="cls-1" d="M264.55,384.75c22.4-72.15,59.57-99.7,79.99-165.45l-8.92-2.77c-20.41,65.74-57.59,93.29-80,165.44"/>
          <polygon class="cls-1" points="387.27 173.62 351.48 189.84 277.6 258.74 314.35 238.56 387.27 173.62"/>
          <polygon class="cls-1" points="316.29 144.24 333.41 183.74 351.68 282.12 334.14 245.26 316.29 144.24"/>
          <polygon class="cls-1" points="318.78 204.55 315.66 213.99 347.35 224.68 350.47 215.24 318.78 204.55"/>
          <polygon class="cls-1" points="315.93 214.05 312.33 223.31 343.15 236.39 346.77 227.14 315.93 214.05"/>
          <polygon class="cls-1" points="350.18 215.24 353.78 205.98 322.95 192.9 319.34 202.16 350.18 215.24"/>
        </g>
        <g>
          <path class="cls-1" d="M301.34,396.2c-21.06,67.83-57.49,92.94-80.6,167.38l-8.92-2.77c23.11-74.44,59.53-99.56,80.59-167.39"/>
          <path class="cls-1" d="M264.54,384.78c-22.4,72.15-7.38,115.91-27.79,181.65l-8.92-2.77c20.41-65.74,5.38-109.5,27.78-181.66"/>
          <path class="cls-1" d="M189.22,757.29c21.06-67.83,5.27-109.16,28.38-183.6l-8.92-2.77c-23.11,74.44-7.33,115.77-28.4,183.59"/>
          <path class="cls-1" d="M152.42,745.86c22.4-72.15,59.57-99.7,79.99-165.45l-8.92-2.77c-20.41,65.74-57.59,93.29-80,165.44"/>
          <polygon class="cls-1" points="275.14 534.74 239.34 550.95 165.47 619.85 202.22 599.68 275.14 534.74"/>
          <polygon class="cls-1" points="204.16 505.35 221.28 544.85 239.55 643.23 222.01 606.37 204.16 505.35"/>
          <polygon class="cls-1" points="206.65 565.66 203.53 575.1 235.22 585.79 238.34 576.35 206.65 565.66"/>
          <polygon class="cls-1" points="203.8 575.16 200.2 584.43 231.02 597.5 234.64 588.25 203.8 575.16"/>
          <polygon class="cls-1" points="238.05 576.36 241.65 567.09 210.82 554.01 207.21 563.27 238.05 576.36"/>
        </g>
      </g>
      <g>
        <path class="cls-1" d="M140.37,759.3c-25.94-67.79-13.12-110.76-41.6-185.16l8.72-3.34c28.47,74.4,15.66,117.37,41.61,185.16"/>
        <path class="cls-1" d="M176.36,745.53c-27.6-72.11-66.76-97.98-91.91-163.68l8.72-3.34c25.15,65.71,64.32,91.57,91.92,163.68"/>
        <path class="cls-1" d="M2.25,398.42c25.94,67.79,64.19,91.22,92.66,165.62l8.72-3.34c-28.47-74.39-66.7-97.84-92.65-165.62"/>
        <path class="cls-1" d="M38.24,384.65c27.6,72.11,15.72,117.51,40.87,183.22l8.72-3.34c-25.15-65.71-13.25-111.11-40.85-183.22"/>
        <polygon class="cls-1" points="74.21 631.35 92.11 595.93 106.88 494.3 90.71 533.5 74.21 631.35"/>
        <polygon class="cls-1" points="148.21 610.7 110.08 589.57 34.19 521.73 71.01 540.47 148.21 610.7"/>
        <polygon class="cls-1" points="108.52 563.67 105.06 554.11 73.53 565.29 77 574.85 108.52 563.67"/>
        <polygon class="cls-1" points="104.8 554.24 101.83 544.52 69.5 553.23 72.45 562.95 104.8 554.24"/>
        <polygon class="cls-1" points="77.23 574.66 80.2 584.37 112.55 575.66 109.58 565.95 77.23 574.66"/>
      </g>
    </g>
  </g>
</svg>