<?xml version="1.0" encoding="UTF-8"?>
<svg id="Layer_2" data-name="Layer 2" xmlns="http://www.w3.org/2000/svg" viewBox="0 0 658.07 967.65">
  <defs>
    <style>
      .cls-1 {
        fill: #bfbfbf;
        stroke: #000;
        stroke-linecap: round;
        stroke-width: 4.5px;
      }
    </style>
  </defs>
  <g id="Layer_2-2" data-name="Layer 2">
    <g>
      <g>
        <g>
          <path class="cls-1" d="M2.25,278.48c9.06-10.04,33.8,3.36,43.74-7.65l6.93,6.26c-9.95,11.02-34.67-2.38-43.74,7.66"/>
          <path class="cls-1" d="M30.85,304.31c9.64-10.68-5.87-34.27,2.91-44l6.93,6.26c-8.79,9.73,6.74,33.33-2.9,44.01"/>
          <path class="cls-1" d="M50.51,225.04c-9.06,10.04,6.78,33.28-3.16,44.3l6.93,6.26c9.95-11.02-5.89-34.25,3.17-44.29"/>
          <path class="cls-1" d="M79.11,250.86c-9.64,10.68-34.69-2.36-43.48,7.38l6.93,6.26c8.79-9.73,33.84,3.31,43.49-7.37"/>
          <polygon class="cls-1" points="8.21 247.92 33.35 263.92 81.74 285.12 56.28 269.87 8.21 247.92"/>
          <polygon class="cls-1" points="64.09 300.18 47.43 276.76 24.13 233 40.85 255.8 64.09 300.18"/>
          <polygon class="cls-1" points="56.31 278.57 57.72 277.28 33 254.76 31.6 256.05 56.31 278.57"/>
          <polygon class="cls-1" points="57.51 277.1 59.29 276.17 34.99 253.37 33.2 254.29 57.51 277.1"/>
          <polygon class="cls-1" points="31.82 256.22 30.04 257.16 54.34 279.96 56.13 279.03 31.82 256.22"/>
        </g>
        <g>
          <path class="cls-1" d="M362.09,268.4c29.95,60.79,20.1,102.65,52.98,169.36l-8.38,4.13c-32.88-66.71-23.04-108.57-52.99-169.36"/>
          <path class="cls-1" d="M327.53,285.44c31.87,64.67,72.12,84.54,101.16,143.46l-8.38,4.13c-29.03-58.92-69.3-78.79-101.17-143.46"/>
          <path class="cls-1" d="M523.3,595.54c-2.26-4.59-4.55-8.99-6.85-13.21-1.15-2.11-2.31-4.18-3.47-6.21l-.81-1.38-.74-1.24c-.5-.82-1-1.63-1.5-2.44-4-6.43-8.12-12.37-12.32-17.99-8.4-11.25-17.14-21.25-25.96-31.43-17.65-20.36-35.67-41.46-52.11-74.82l-8.38,4.13c16.44,33.36,34.45,54.46,52.1,74.82,8.83,10.18,17.56,20.18,25.96,31.43,4.2,5.62,8.32,11.56,12.32,18,.5.81.99,1.62,1.5,2.44l.74,1.24.79,1.34c1.11,1.92,2.21,3.89,3.31,5.89,2.2,4.01,4.38,8.2,6.53,12.56"/>
          <path class="cls-1" d="M486.68,608.41c-1.92-3.89-3.67-7.69-5.29-11.44-.81-1.88-1.58-3.72-2.35-5.59-.78-1.91-1.53-3.8-2.24-5.68-2.87-7.51-5.25-14.76-7.31-21.83-4.11-14.14-6.91-27.55-9.62-40.78-5.42-26.46-10.49-52.19-25.01-81.65l-8.38,4.13c14.52,29.46,19.58,55.2,25,81.66,2.71,13.23,5.51,26.64,9.62,40.78,2.06,7.07,4.44,14.33,7.31,21.83.72,1.88,1.46,3.77,2.24,5.68.73,1.81,1.43,3.51,2.19,5.28,1.51,3.52,3.15,7.09,4.95,10.74"/>
          <polygon class="cls-1" points="435.58 381.19 420.23 416.52 412.26 513.74 425.66 475.06 435.58 381.19"/>
          <polygon class="cls-1" points="364 409.01 402.94 424.54 482.1 479.71 444.61 466.27 364 409.01"/>
          <polygon class="cls-1" points="406.15 448.71 410.18 457.3 440.52 443.22 436.49 434.63 406.15 448.71"/>
          <polygon class="cls-1" points="410.42 457.16 413.98 465.95 445.28 454.1 441.73 445.3 410.42 457.16"/>
          <polygon class="cls-1" points="436.27 434.83 432.71 426.04 401.41 437.9 404.96 446.69 436.27 434.83"/>
        </g>
        <g>
          <path class="cls-1" d="M523.31,595.56c3.35,6.79,6.31,13.33,8.8,19.34-.52,8.62-1.33,16.81-2.34,24.59-.51,3.89-1.07,7.68-1.67,11.38-.31,1.84-.62,3.67-.93,5.48-.16.9-.32,1.8-.49,2.69-.17.76-.33,1.53-.5,2.29-2.7,12.15-5.9,23.76-8.98,35.71-6.15,23.9-11.78,49.17-11.78,82.91h-9.34c0-33.75,5.63-59.02,11.77-82.91,3.07-11.95,6.28-23.56,8.97-35.71.17-.76.33-1.52.5-2.29.16-.85.32-1.7.49-2.56.31-1.72.62-3.46.93-5.21.6-3.52,1.16-7.12,1.67-10.82,1.01-7.4,1.82-15.18,2.34-23.39-2.34-5.72-5.15-11.94-8.33-18.4"/>
          <path class="cls-1" d="M486.69,608.43c2.67,5.41,5.42,10.53,8.12,15.16.99,14.43,3.16,27.43,5.85,40.3,2.69,12.76,5.91,24.7,9.01,36.61,6.19,23.82,11.88,47.54,11.88,77.53h-9.34c0-29.99-5.7-53.71-11.89-77.53-3.1-11.91-6.32-23.85-9.01-36.61-.63-3.08-1.26-6.21-1.91-9.4-.6-3.06-1.15-6.14-1.65-9.27-1-6.25-1.79-12.67-2.29-19.44-2.56-4.34-5.15-9.14-7.66-14.22"/>
          <path class="cls-1" d="M532.76,965.4c0-67.77-27.34-100.97-27.34-175.34h-9.34c0,74.37,27.33,107.57,27.33,175.34"/>
          <path class="cls-1" d="M494.23,965.4c0-72.09,27.32-107.71,27.32-173.4h-9.34c0,65.69-27.34,101.31-27.34,173.4"/>
          <polygon class="cls-1" points="548.82 738.28 519.44 763.19 469.32 846.87 498.44 818.09 548.82 738.28"/>
          <polygon class="cls-1" points="472.32 731.59 500.39 762.74 547.01 847.22 519.32 818.59 472.32 731.59"/>
          <polygon class="cls-1" points="492.58 785.84 492.4 795.33 525.84 796.1 526.02 786.61 492.58 785.84"/>
          <polygon class="cls-1" points="492.68 795.31 491.98 804.77 525.3 807.96 526.01 798.5 492.68 795.31"/>
          <polygon class="cls-1" points="525.74 786.7 526.43 777.24 493.11 774.04 492.41 783.5 525.74 786.7"/>
        </g>
        <g>
          <path class="cls-1" d="M318.95,289.67c-.74-1.51-1.48-3.02-2.22-4.52-.72-1.51-1.44-3.02-2.15-4.53-.7-1.51-1.39-3.02-2.08-4.53-.67-1.51-1.35-3.02-2.02-4.52-.65-1.51-1.3-3.02-1.95-4.52-.63-1.51-1.26-3.01-1.89-4.51-.61-1.51-1.22-3.01-1.82-4.51-.59-1.5-1.18-3-1.76-4.49-.57-1.5-1.14-2.99-1.7-4.48-.55-1.49-1.09-2.98-1.64-4.46-.53-1.49-1.06-2.97-1.58-4.45-.51-1.48-1.02-2.96-1.52-4.43-.49-1.47-.98-2.94-1.46-4.4-.47-1.46-.94-2.92-1.41-4.38-.45-1.46-.9-2.91-1.35-4.35-.44-1.45-.87-2.89-1.3-4.32-.42-1.44-.83-2.86-1.25-4.29-.4-1.42-.8-2.84-1.2-4.25-.38-1.41-.77-2.82-1.15-4.21-.37-1.4-.73-2.79-1.1-4.17-.35-1.38-.7-2.76-1.05-4.13-.34-1.37-.67-2.73-1-4.09-.32-1.36-.64-2.7-.95-4.04-.3-1.34-.61-2.67-.91-3.99-.29-1.32-.58-2.64-.86-3.94-.28-1.3-.55-2.6-.82-3.89-.26-1.29-.52-2.56-.78-3.83-.25-1.27-.49-2.52-.74-3.77-.46-2.49-.91-4.95-1.36-7.36-.41-2.41-.81-4.77-1.21-7.09-.36-2.32-.72-4.59-1.07-6.81-.32-2.22-.63-4.39-.94-6.51-.28-2.12-.55-4.18-.81-6.19-.24-2.01-.47-3.96-.7-5.85-.2-1.89-.4-3.72-.59-5.49-.17-1.77-.34-3.47-.5-5.11-.14-1.64-.28-3.21-.41-4.72-.11-1.5-.22-2.94-.33-4.3-.09-1.36-.18-2.65-.26-3.87-.07-1.21-.13-2.35-.19-3.41-.05-1.06-.1-2.04-.14-2.94-.03-.9-.07-1.71-.09-2.45-.04-1.46-.07-2.58-.09-3.34,0-.76-.01-1.15-.01-1.15.1,1.14.19,2.29.29,3.44.11,1.16.23,2.32.35,3.5.13,1.17.27,2.36.4,3.54.15,1.19.31,2.39.46,3.59.17,1.2.34,2.41.51,3.63.19,1.22.38,2.44.56,3.67.2,1.23.41,2.46.61,3.7.22,1.24.44,2.48.66,3.73.23,1.25.47,2.5.71,3.76.25,1.26.5,2.52.75,3.79.26,1.27.53,2.54.79,3.81.28,1.27.55,2.55.83,3.83.29,1.28.58,2.56.87,3.85.3,1.28.6,2.57.91,3.86l.94,3.87.97,3.88c.68,2.58,1.35,5.17,2.03,7.76.71,2.59,1.43,5.17,2.14,7.75.74,2.58,1.49,5.15,2.23,7.72.77,2.56,1.54,5.11,2.3,7.66.79,2.54,1.58,5.06,2.36,7.57.81,2.51,1.61,4.99,2.4,7.46.82,2.46,1.62,4.91,2.43,7.33.82,2.42,1.63,4.81,2.44,7.17.82,2.36,1.63,4.69,2.43,6.98.82,2.29,1.62,4.55,2.41,6.77.81,2.22,1.6,4.4,2.38,6.54.79,2.14,1.57,4.23,2.33,6.28,1.55,4.09,3.04,7.99,4.44,11.68,1.44,3.68,2.79,7.14,4.05,10.35,1.28,3.2,2.47,6.15,3.53,8.81,1.09,2.66,2.06,5.03,2.89,7.07,1.69,4.09,2.85,6.9,3.37,8.14"/>
          <path class="cls-1" d="M86.04,257.14c.48-.55.98-1.12,1.49-1.71.51-.6,1.03-1.21,1.56-1.85.53-.64,1.07-1.3,1.62-1.97.55-.68,1.11-1.38,1.68-2.09.57-.72,1.14-1.45,1.74-2.2.58-.76,1.18-1.53,1.79-2.31,1.2-1.59,2.44-3.23,3.72-4.93,1.26-1.72,2.56-3.49,3.89-5.31,1.31-1.83,2.66-3.72,4.05-5.65,1.36-1.94,2.76-3.92,4.18-5.94,1.4-2.03,2.83-4.1,4.28-6.2,1.44-2.11,2.89-4.25,4.37-6.42,1.46-2.17,2.94-4.37,4.43-6.59,2.95-4.46,5.95-8.99,8.97-13.56,2.98-4.58,5.98-9.2,8.96-13.79,2.95-4.6,5.88-9.19,8.77-13.7,2.86-4.52,5.67-8.96,8.4-13.28,2.71-4.33,5.34-8.53,7.86-12.55,4.99-8.06,9.53-15.41,13.38-21.62,7.59-12.46,12.41-20.37,12.41-20.37l-10.54-.52c-1.11,1.96-2.23,3.94-3.37,5.94-1.16,2-2.33,4.02-3.51,6.06-1.2,2.03-2.42,4.08-3.64,6.15-1.24,2.06-2.49,4.14-3.75,6.23-1.28,2.08-2.56,4.18-3.85,6.28-1.31,2.1-2.62,4.21-3.93,6.32-1.33,2.11-2.66,4.23-4,6.35-1.35,2.11-2.7,4.23-4.05,6.35-2.74,4.22-5.48,8.44-8.21,12.64-2.77,4.18-5.52,8.33-8.24,12.44-2.75,4.09-5.48,8.13-8.15,12.09-2.7,3.95-5.35,7.83-7.94,11.6-2.61,3.76-5.15,7.43-7.6,10.97-2.48,3.53-4.86,6.93-7.15,10.19-2.3,3.25-4.5,6.34-6.57,9.27-2.09,2.91-4.05,5.66-5.88,8.2-1.84,2.54-3.53,4.87-5.06,6.99-1.54,2.11-2.92,3.99-4.12,5.63-1.21,1.63-2.24,3.02-3.06,4.13-.84,1.1-1.47,1.94-1.88,2.48"/>
          <path class="cls-1" d="M362.09,268.41c-.83-1.75-1.66-3.51-2.49-5.28-.82-1.77-1.64-3.54-2.46-5.32-1.61-3.56-3.22-7.13-4.84-10.7-1.58-3.58-3.15-7.17-4.72-10.73-1.54-3.58-3.08-7.14-4.61-10.68-3.02-7.09-5.99-14.08-8.89-20.88-1.45-3.4-2.88-6.74-4.28-10.03-1.42-3.28-2.81-6.5-4.17-9.65-1.39-3.14-2.75-6.2-4.07-9.19-.67-1.49-1.34-2.95-1.99-4.39-.67-1.44-1.32-2.85-1.97-4.25-.66-1.39-1.31-2.75-1.94-4.09-.65-1.33-1.29-2.64-1.91-3.92-.64-1.27-1.27-2.52-1.89-3.75-.64-1.21-1.26-2.4-1.86-3.56-.63-1.15-1.24-2.27-1.84-3.36-.31-.54-.61-1.08-.91-1.6-.3-.52-.61-1.04-.9-1.55-.3-.51-.6-1-.9-1.49-.3-.49-.6-.97-.89-1.44-.3-.47-.59-.93-.88-1.38-.3-.45-.59-.89-.88-1.32-.3-.43-.59-.85-.87-1.26-.29-.41-.58-.81-.87-1.2-.29-.39-.58-.77-.86-1.14-.29-.36-.57-.72-.85-1.08-.29-.34-.57-.68-.85-1.01-.29-.32-.57-.64-.84-.94-.28-.3-.56-.59-.83-.88l-.42-.41-.41-.4-7.33-1.3c.49.92,1.02,1.91,1.59,2.97.55,1.07,1.14,2.22,1.77,3.43.61,1.22,1.25,2.5,1.93,3.85.66,1.35,1.36,2.76,2.08,4.23,1.41,2.95,2.93,6.13,4.54,9.48,1.58,3.37,3.23,6.91,4.95,10.58,1.7,3.68,3.45,7.5,5.25,11.4,1.78,3.91,3.59,7.9,5.42,11.92,3.62,8.07,7.3,16.29,10.88,24.27,3.54,8,6.97,15.76,10.13,22.91,3.14,7.15,6,13.69,8.43,19.23,4.82,11.08,7.89,18.16,7.89,18.16"/>
          <path class="cls-1" d="M50.5,225.04s2.1-2.63,5.83-7.3c1.88-2.32,4.17-5.15,6.82-8.41,2.67-3.24,5.69-6.92,9-10.94,3.35-4,6.99-8.36,10.87-12.99,1.96-2.31,3.97-4.68,6.04-7.12,2.08-2.43,4.21-4.91,6.39-7.45,2.19-2.53,4.42-5.1,6.7-7.72,2.29-2.6,4.61-5.25,6.97-7.93,2.37-2.66,4.77-5.36,7.2-8.08,2.44-2.7,4.91-5.43,7.39-8.18,2.5-2.72,5.02-5.46,7.54-8.21,2.55-2.72,5.1-5.45,7.66-8.18,2.58-2.7,5.16-5.4,7.73-8.09,1.3-1.33,2.59-2.67,3.88-3.99,1.3-1.32,2.59-2.64,3.89-3.95,1.3-1.3,2.59-2.6,3.88-3.9,1.3-1.28,2.59-2.56,3.88-3.84,1.3-1.26,2.59-2.52,3.87-3.77,1.29-1.24,2.58-2.47,3.85-3.69,1.29-1.21,2.56-2.42,3.83-3.61,1.28-1.18,2.55-2.36,3.81-3.52,1.27-1.15,2.53-2.29,3.78-3.42,1.26-1.12,2.5-2.22,3.74-3.32,1.25-1.08,2.48-2.15,3.7-3.21,1.23-1.04,2.45-2.07,3.65-3.09,1.22-1,2.42-1.99,3.6-2.96,1.2-.95,2.38-1.9,3.55-2.83,1.18-.91,2.34-1.8,3.49-2.68.58-.43,1.15-.86,1.72-1.29.57-.42,1.14-.83,1.7-1.25.57-.41,1.13-.81,1.69-1.21.56-.39,1.12-.78,1.67-1.17.55-.38,1.1-.75,1.65-1.13.55-.36,1.09-.73,1.63-1.08.54-.35,1.08-.7,1.61-1.04.53-.34,1.06-.67,1.59-1,.53-.32,1.05-.64,1.57-.95.52-.3,1.04-.61,1.55-.91.51-.29,1.02-.58,1.52-.86.51-.27,1.01-.54,1.5-.81.5-.26.99-.51,1.48-.76.49-.24.97-.48,1.45-.71.48-.22.96-.44,1.43-.66.47-.21.94-.41,1.4-.61.46-.19.92-.37,1.38-.56.45-.17.91-.34,1.35-.5.45-.15.89-.3,1.32-.45.44-.13.87-.26,1.3-.4l.64-.18.16-.04h.04s.02,0,.04,0l.07.04.28.16.56.32.55.33,14.23,21.4-.99-.98-1-.94-1.01-.91-1.02-.87-1.04-.84-1.05-.8-1.06-.77-1.07-.74-1.08-.7-1.09-.67-1.11-.64-1.12-.61-1.13-.58-1.14-.54-1.15-.51-1.16-.48s-.03,0-.04,0l-.04.02-.08.03-.16.06-.33.13-.65.26c-.44.18-.87.36-1.31.54-.44.19-.88.38-1.33.58-.44.2-.89.41-1.34.61-.45.21-.9.43-1.35.65-.45.23-.9.45-1.36.68-.45.24-.91.47-1.37.71-.46.25-.92.49-1.38.74-.46.26-.92.52-1.39.77-.46.27-.93.54-1.4.81-.47.28-.93.56-1.41.84-.47.29-.94.58-1.41.87-.47.3-.95.6-1.42.9-.47.31-.95.62-1.43.93-.48.32-.96.64-1.44.96-.48.33-.96.65-1.45.98-.96.68-1.94,1.36-2.92,2.05-.98.71-1.96,1.43-2.96,2.16-.99.75-1.98,1.51-2.99,2.27-1,.78-2,1.57-3.02,2.37-1.01.82-2.02,1.64-3.04,2.47-1.01.85-2.04,1.7-3.07,2.57-1.02.88-2.06,1.77-3.1,2.66-1.03.91-2.07,1.83-3.12,2.75-1.04.94-2.09,1.88-3.14,2.84-1.05.97-2.1,1.94-3.16,2.92-1.05.99-2.12,1.99-3.18,3-1.06,1.02-2.13,2.04-3.2,3.07-1.07,1.04-2.14,2.09-3.22,3.14-1.07,1.06-2.15,2.14-3.24,3.21-1.08,1.09-2.16,2.18-3.25,3.28-1.08,1.11-2.17,2.22-3.26,3.34-2.17,2.26-4.36,4.55-6.56,6.85-2.18,2.33-4.38,4.69-6.6,7.06-2.19,2.4-4.4,4.81-6.63,7.24-2.2,2.45-4.42,4.92-6.64,7.4-2.21,2.5-4.42,5-6.65,7.52-2.21,2.53-4.42,5.07-6.64,7.62-2.21,2.56-4.42,5.13-6.63,7.69l-6.6,7.74c-4.37,5.18-8.74,10.36-13.08,15.5-4.32,5.16-8.6,10.29-12.84,15.35-4.23,5.07-8.41,10.07-12.52,14.99-4.12,4.9-8.16,9.71-12.1,14.4"/>
          <polygon class="cls-1" points="311.01 48.05 285.48 76.74 251.91 177.18 276.22 143.64 311.01 48.05"/>
          <polygon class="cls-1" points="219.65 35.83 231.9 38.77 234.96 39.51 235.05 39.53 235.1 39.54 235.13 39.55 235.14 39.55 235.15 39.56 235.32 39.76 235.66 40.16 236.34 40.96 237.7 42.57 243.14 48.98 264.89 74.62 343.93 192.32 298.8 145.97 260.09 84.65 240.74 53.99 235.9 46.33 234.69 44.41 234.54 44.17 234.5 44.11 234.46 44.09 234.37 44.04 234.03 43.85 233.35 43.47 230.61 41.94 219.65 35.83"/>
          <polygon class="cls-1" points="262.09 102.83 264.2 114.69 300.34 118.41 298.23 106.56 262.09 102.83"/>
          <polygon class="cls-1" points="264.5 114.66 266.05 126.44 302.66 133.17 301.11 121.41 264.5 114.66"/>
          <polygon class="cls-1" points="297.95 106.64 296.41 94.87 259.8 88.13 261.33 99.91 297.95 106.64"/>
          <path class="cls-1" d="M273.98,53.13l-24.44-6.84-12.22-3.42-1.53-.43-.76-.21-.19-.05h-.05s-.01-.02-.01-.02h-.01s-.03.01-.03.01l-.11.05-.42.2-3.4,1.62-6.8,3.24-101.72,83.17,47.42-25.83,54.35-41.64,6.79-5.21,1.7-1.3.21-.16.05-.04h.05s.1-.01.1-.01l.38-.03.77-.06,3.07-.23,12.27-.94,24.54-1.88Z"/>
          <polygon class="cls-1" points="193.21 .58 204.32 42.36 203.48 148.89 191.3 110.04 193.21 .58"/>
          <polygon class="cls-1" points="182.56 66.72 176.77 77.45 211.34 86.09 217.12 75.36 182.56 66.72"/>
          <polygon class="cls-1" points="177.09 77.47 170.79 88.04 203.82 99.41 210.11 88.84 177.09 77.47"/>
          <polygon class="cls-1" points="216.77 75.41 223.07 64.84 190.04 53.48 183.74 64.04 216.77 75.41"/>
        </g>
      </g>
      <g>
        <path class="cls-1" d="M384.04,643.41c0,58.22-27.34,86.74-27.34,150.64h-9.34c0-63.9,27.33-92.42,27.33-150.64"/>
        <path class="cls-1" d="M345.51,643.41c0,61.93,27.32,92.54,27.32,148.97h-9.34c0-56.43-27.34-87.04-27.34-148.97"/>
        <path class="cls-1" d="M384.04,953.36c0-58.22-27.34-86.74-27.34-150.64h-9.34c0,63.89,27.33,92.42,27.33,150.64"/>
        <path class="cls-1" d="M345.51,953.36c0-61.93,27.32-92.54,27.32-148.97h-9.34c0,56.43-27.34,87.04-27.34,148.97"/>
        <polygon class="cls-1" points="400.1 758.24 370.72 779.64 320.6 851.54 349.71 826.81 400.1 758.24"/>
        <polygon class="cls-1" points="323.6 752.49 351.67 779.25 398.29 851.83 370.6 827.24 323.6 752.49"/>
        <polygon class="cls-1" points="343.86 799.1 343.68 807.25 377.12 807.92 377.3 799.76 343.86 799.1"/>
        <polygon class="cls-1" points="343.96 807.23 343.26 815.36 376.58 818.11 377.29 809.98 343.96 807.23"/>
        <polygon class="cls-1" points="377.02 799.84 377.71 791.71 344.39 788.96 343.69 797.09 377.02 799.84"/>
      </g>
      <g>
        <path class="cls-1" d="M640.17,643.41c0,60.48-27.34,90.11-27.34,156.49h-9.34c0-66.38,27.33-96.01,27.33-156.49"/>
        <path class="cls-1" d="M601.64,643.41c0,64.34,27.32,96.13,27.32,154.76h-9.34c0-58.62-27.34-90.42-27.34-154.76"/>
        <path class="cls-1" d="M640.17,965.4c0-60.48-27.34-90.11-27.34-156.49h-9.34c0,66.38,27.33,96.01,27.33,156.49"/>
        <path class="cls-1" d="M601.64,965.4c0-64.34,27.32-96.13,27.32-154.76h-9.34c0,58.62-27.34,90.42-27.34,154.76"/>
        <polygon class="cls-1" points="656.23 762.7 626.85 784.93 576.73 859.62 605.84 833.93 656.23 762.7"/>
        <polygon class="cls-1" points="579.73 756.73 607.8 784.53 654.42 859.93 626.73 834.38 579.73 756.73"/>
        <rect class="cls-1" x="612.38" y="793" width="8.47" height="33.44" transform="translate(-206.02 1409.01) rotate(-88.78)"/>
        <polygon class="cls-1" points="600.09 813.6 599.39 822.04 632.71 824.89 633.42 816.45 600.09 813.6"/>
        <polygon class="cls-1" points="633.15 805.92 633.84 797.47 600.52 794.62 599.82 803.06 633.15 805.92"/>
      </g>
    </g>
  </g>
</svg>