<?xml version="1.0" encoding="UTF-8"?>
<svg id="Layer_2" data-name="Layer 2" xmlns="http://www.w3.org/2000/svg" viewBox="0 0 499.09 1088.24">
  <defs>
    <style>
      .cls-1 {
        fill: #bfbfbf;
        stroke: #000;
        stroke-linecap: round;
        stroke-width: 4.5px;
      }
    </style>
  </defs>
  <g id="Layer_2-2" data-name="Layer 2">
    <g>
      <g>
        <g>
          <path class="cls-1" d="M2.25,193.01c26.2-11.19,49.78,8.46,78.54-3.82l3.67,8.59c-28.76,12.29-52.33-7.36-78.53,3.84"/>
          <path class="cls-1" d="M17.39,228.45c27.88-11.91,30.92-42.92,56.31-53.77l3.67,8.59c-25.4,10.85-28.43,41.88-56.31,53.78"/>
          <path class="cls-1" d="M141.75,133.41c-26.2,11.19-28.3,41.82-57.06,54.1l3.67,8.59c28.76-12.29,30.86-42.9,57.06-54.09"/>
          <path class="cls-1" d="M156.89,168.85c-27.88,11.91-52.39-7.33-77.78,3.52l3.67,8.59c25.4-10.85,49.91,8.4,77.79-3.5"/>
          <polygon class="cls-1" points="47.62 156.17 68.8 179.07 120.85 211.34 98.28 189.32 47.62 156.17"/>
          <polygon class="cls-1" points="75.09 227.62 76.11 196.67 90.46 139.84 90.27 170.03 75.09 227.62"/>
          <polygon class="cls-1" points="88.11 200.03 91.85 198.63 79.01 167.75 75.27 169.15 88.11 200.03"/>
          <polygon class="cls-1" points="91.73 198.37 95.66 197.45 83.81 166.29 79.87 167.2 91.73 198.37"/>
          <polygon class="cls-1" points="75.42 169.39 71.48 170.32 83.34 201.49 87.27 200.57 75.42 169.39"/>
        </g>
        <g>
          <path class="cls-1" d="M404.75,282.36c7.57,55.15-15.81,85.88-7.5,146.4l-9.25,1.27c-8.31-60.53,15.06-91.25,7.49-146.4"/>
          <path class="cls-1" d="M366.58,287.6c8.05,58.67,39.1,83.94,46.44,137.39l-9.25,1.27c-7.34-53.45-38.4-78.73-46.45-137.39"/>
          <path class="cls-1" d="M445.05,575.95c-7.57-55.15-38.36-78.45-46.67-138.97l-9.25,1.27c8.31,60.52,39.09,83.82,46.66,138.97"/>
          <path class="cls-1" d="M406.87,581.19c-8.05-58.67,15.04-91.37,7.7-144.82l-9.25,1.27c7.34,53.45-15.77,86.16-7.72,144.83"/>
          <polygon class="cls-1" points="435.59 388.94 409.27 413.21 368.96 488.13 394.58 460.75 435.59 388.94"/>
          <polygon class="cls-1" points="359.05 393.9 390.34 415.44 445.96 477.84 415.33 458.31 359.05 393.9"/>
          <polygon class="cls-1" points="385.18 435.29 386.06 443.04 419.28 439.12 418.4 431.38 385.18 435.29"/>
          <polygon class="cls-1" points="386.34 442.99 386.71 450.78 420.07 448.85 419.72 441.06 386.34 442.99"/>
          <polygon class="cls-1" points="418.13 431.49 417.76 423.69 384.39 425.62 384.75 433.42 418.13 431.49"/>
        </g>
        <g>
          <path class="cls-1" d="M411.7,711.9c-49.92,70.27-96.66,88.86-151.44,165.98l-7.61-5.41c54.79-77.12,101.51-95.72,151.43-165.99"/>
          <path class="cls-1" d="M380.28,689.58c-53.1,74.75-57.07,127.51-105.45,195.63l-7.61-5.41c48.39-68.11,52.34-120.88,105.44-195.63"/>
          <path class="cls-1" d="M145.95,1085.99c49.92-70.27,52.09-120.53,106.87-197.64l-7.61-5.41c-54.78,77.12-56.96,127.37-106.88,197.64"/>
          <path class="cls-1" d="M114.53,1063.68c53.1-74.75,101.62-95.86,150-163.98l-7.61-5.41c-48.39,68.11-96.91,89.22-150.01,163.97"/>
          <polygon class="cls-1" points="326.34 859.79 284.04 868.6 181.53 926.35 226.47 913.37 326.34 859.79"/>
          <polygon class="cls-1" points="268.9 808.55 268.83 857.1 244.61 971.7 243.13 925.98 268.9 808.55"/>
          <polygon class="cls-1" points="245.46 876.53 238.32 886.27 265.01 906.44 272.14 896.7 245.46 876.53"/>
          <polygon class="cls-1" points="238.56 886.41 231.03 895.81 255.83 918.42 263.38 909.02 238.56 886.41"/>
          <polygon class="cls-1" points="271.85 896.63 279.39 887.22 254.57 864.61 247.04 874.01 271.85 896.63"/>
        </g>
        <g>
          <path class="cls-1" d="M357.1,288.91c-.2-1.48-.4-2.96-.6-4.44-.18-1.48-.36-2.95-.54-4.42-.16-1.47-.32-2.94-.47-4.41-.14-1.47-.27-2.93-.41-4.39-.12-1.46-.23-2.92-.35-4.37-.1-1.45-.19-2.9-.29-4.34-.08-1.44-.16-2.88-.23-4.32-.06-1.44-.12-2.87-.18-4.29-.04-1.43-.08-2.85-.12-4.27-.02-1.42-.05-2.83-.07-4.24,0-1.41-.02-2.81-.02-4.2,0-1.4.02-2.79.02-4.17.02-1.38.05-2.76.07-4.14.04-1.37.08-2.74.11-4.1.05-1.36.11-2.71.16-4.06.07-1.35.13-2.69.2-4.02.08-1.33.16-2.66.24-3.98.09-1.32.18-2.63.27-3.94.1-1.3.21-2.6.31-3.89.11-1.29.23-2.57.34-3.84.13-1.27.25-2.54.37-3.79.14-1.26.27-2.5.4-3.74.15-1.24.29-2.47.43-3.69.15-1.22.31-2.43.46-3.64.16-1.2.32-2.4.48-3.58.17-1.18.34-2.36.51-3.52.18-1.16.35-2.32.53-3.47.18-1.14.37-2.28.55-3.4.19-1.12.38-2.24.56-3.34.19-1.1.39-2.19.58-3.28.41-2.16.8-4.28,1.2-6.36.42-2.07.83-4.09,1.24-6.08.43-1.97.85-3.9,1.26-5.79.43-1.87.86-3.7,1.27-5.48.43-1.77.86-3.49,1.27-5.16.43-1.66.85-3.27,1.25-4.83.42-1.55.83-3.04,1.22-4.48.41-1.43.8-2.8,1.17-4.12.39-1.31.76-2.56,1.11-3.75.36-1.18.71-2.3,1.03-3.36.33-1.05.65-2.04.94-2.95.3-.91.58-1.76.84-2.54.26-.77.5-1.48.72-2.11.44-1.25.79-2.22,1.02-2.87.24-.65.36-.98.36-.98-.29,1-.57,2-.86,3.01-.27,1.02-.55,2.04-.83,3.06-.26,1.04-.52,2.08-.79,3.12-.25,1.05-.5,2.11-.75,3.17-.24,1.07-.47,2.14-.71,3.22-.22,1.08-.45,2.17-.68,3.27-.21,1.1-.43,2.2-.64,3.31-.2,1.11-.4,2.23-.61,3.35-.19,1.13-.38,2.26-.57,3.39-.18,1.14-.36,2.28-.54,3.42-.17,1.15-.34,2.3-.51,3.45-.16,1.16-.32,2.32-.48,3.48-.15,1.17-.3,2.33-.45,3.5-.14,1.17-.28,2.35-.42,3.52l-.39,3.54-.36,3.56-.33,3.57-.31,3.58c-.18,2.39-.36,4.78-.54,7.16-.15,2.39-.3,4.78-.45,7.16-.12,2.38-.24,4.76-.36,7.13-.09,2.37-.18,4.73-.27,7.07-.07,2.35-.13,4.68-.2,6.99-.04,2.31-.09,4.61-.13,6.88-.02,2.27-.04,4.52-.06,6.75,0,2.23,0,4.42,0,6.59.01,2.17.03,4.3.04,6.41.03,2.1.06,4.17.09,6.2.04,2.03.08,4.02.12,5.96.12,3.89.23,7.61.33,11.12.14,3.51.28,6.82.41,9.88.15,3.06.3,5.89.43,8.44.15,2.55.28,4.82.4,6.79.25,3.93.42,6.63.49,7.82"/>
          <path class="cls-1" d="M160.56,177.45c.6-.27,1.21-.54,1.84-.83.63-.3,1.28-.6,1.95-.92.66-.32,1.34-.66,2.04-1,.69-.35,1.4-.71,2.13-1.08.72-.38,1.46-.76,2.21-1.15.75-.4,1.52-.81,2.3-1.22,1.55-.85,3.16-1.74,4.82-2.65,1.65-.94,3.35-1.91,5.09-2.9,1.73-1.02,3.52-2.06,5.34-3.13,1.81-1.09,3.66-2.2,5.55-3.33,1.88-1.15,3.79-2.32,5.73-3.51,1.93-1.2,3.89-2.42,5.88-3.66,1.97-1.25,3.97-2.51,5.99-3.79,4.01-2.58,8.09-5.21,12.19-7.85,4.08-2.68,8.18-5.37,12.26-8.06,4.06-2.71,8.1-5.41,12.07-8.06,3.95-2.67,7.84-5.31,11.62-7.86,3.76-2.57,7.42-5.07,10.91-7.47,6.96-4.82,13.3-9.22,18.66-12.94,10.65-7.51,17.42-12.27,17.42-12.27l-8.67-5.18c-1.6,1.22-3.23,2.45-4.87,3.7-1.66,1.23-3.34,2.47-5.03,3.73-1.71,1.24-3.43,2.49-5.17,3.75-1.75,1.25-3.52,2.5-5.29,3.77-1.79,1.25-3.59,2.51-5.39,3.78-1.82,1.25-3.64,2.51-5.48,3.77-1.84,1.25-3.69,2.51-5.54,3.76-1.86,1.25-3.72,2.49-5.59,3.74-3.75,2.47-7.5,4.93-11.24,7.39-3.76,2.42-7.5,4.82-11.19,7.2-3.72,2.35-7.39,4.66-11,6.94-3.63,2.25-7.18,4.45-10.65,6.6-3.48,2.13-6.88,4.2-10.15,6.2-3.29,1.98-6.47,3.89-9.5,5.72-3.05,1.81-5.96,3.54-8.7,5.17-2.76,1.62-5.35,3.13-7.75,4.54-2.41,1.4-4.64,2.68-6.65,3.85-2.02,1.15-3.83,2.19-5.4,3.08-1.58.89-2.91,1.64-3.99,2.24-1.08.59-1.9,1.04-2.43,1.33"/>
          <path class="cls-1" d="M404.75,282.37c-.2-1.71-.4-3.43-.61-5.15-.19-1.72-.38-3.45-.57-5.18-.18-1.73-.35-3.46-.53-5.19l-.5-5.2c-.3-3.47-.61-6.94-.91-10.39-.28-3.46-.55-6.9-.82-10.32-.51-6.84-1.01-13.58-1.49-20.13-.25-3.28-.49-6.51-.73-9.68-.26-3.17-.51-6.28-.75-9.32-.27-3.04-.54-6.01-.8-8.9-.15-1.44-.29-2.87-.43-4.27-.15-1.4-.3-2.78-.45-4.14-.16-1.36-.32-2.69-.48-4-.17-1.31-.34-2.59-.51-3.85-.19-1.26-.37-2.49-.55-3.69-.2-1.2-.39-2.38-.58-3.52-.1-.57-.21-1.14-.31-1.7-.11-.56-.21-1.11-.32-1.65-.11-.54-.22-1.08-.33-1.61-.11-.53-.23-1.05-.34-1.56-.12-.51-.24-1.01-.35-1.51-.12-.49-.25-.98-.37-1.46-.13-.48-.25-.95-.38-1.41-.13-.46-.26-.91-.39-1.36-.14-.44-.27-.88-.41-1.31-.14-.42-.28-.84-.42-1.25-.15-.41-.29-.81-.43-1.2-.15-.39-.3-.77-.45-1.14-.16-.37-.31-.73-.46-1.09-.16-.35-.32-.69-.48-1.03l-.25-.49-.25-.48-.26-.46-.26-.45-6.48-3.07c.16.91.33,1.89.52,2.95.17,1.06.35,2.19.53,3.39.17,1.2.36,2.46.55,3.79.18,1.33.37,2.71.56,4.16.36,2.89.75,5.99,1.15,9.27.38,3.28.77,6.74,1.18,10.32.38,3.59.78,7.3,1.19,11.1.39,3.8.78,7.68,1.18,11.59.75,7.83,1.51,15.8,2.25,23.55.7,7.75,1.38,15.27,2,22.19.6,6.92,1.14,13.25,1.61,18.6.89,10.71,1.45,17.55,1.45,17.55"/>
          <path class="cls-1" d="M141.75,133.41s2.67-1.36,7.4-3.78c2.38-1.19,5.28-2.64,8.62-4.31,3.35-1.64,7.15-3.51,11.32-5.55,4.19-2,8.74-4.18,13.59-6.51,2.43-1.14,4.94-2.32,7.51-3.52,2.58-1.19,5.22-2.41,7.92-3.66,2.71-1.23,5.47-2.48,8.28-3.76,2.82-1.26,5.68-2.53,8.58-3.82,2.91-1.27,5.85-2.55,8.82-3.85,2.98-1.27,5.99-2.55,9.02-3.85,3.04-1.26,6.09-2.53,9.15-3.8,3.08-1.24,6.16-2.48,9.24-3.73,3.1-1.21,6.19-2.41,9.27-3.62,1.55-.59,3.09-1.17,4.63-1.76,1.54-.57,3.08-1.15,4.62-1.72,1.54-.56,3.07-1.12,4.6-1.67,1.53-.54,3.06-1.08,4.58-1.62,1.52-.52,3.04-1.05,4.54-1.57,1.51-.51,3.01-1.01,4.5-1.51,1.5-.48,2.98-.97,4.46-1.44,1.48-.46,2.95-.92,4.41-1.38,1.46-.44,2.91-.87,4.35-1.31,1.44-.41,2.87-.82,4.28-1.23,1.42-.39,2.82-.77,4.21-1.15,1.39-.36,2.77-.71,4.13-1.06,1.36-.33,2.71-.65,4.04-.98,1.33-.3,2.65-.59,3.95-.88,1.3-.27,2.59-.53,3.85-.78.63-.12,1.26-.24,1.89-.35.62-.11,1.24-.22,1.86-.33.62-.1,1.23-.2,1.83-.3.61-.09,1.21-.18,1.8-.27.6-.08,1.19-.17,1.77-.25.59-.07,1.17-.15,1.74-.22.58-.06,1.15-.13,1.71-.19.56-.05,1.12-.11,1.68-.16.55-.04,1.1-.09,1.64-.13.54-.03,1.08-.07,1.61-.1.53-.02,1.06-.05,1.58-.07.52-.01,1.03-.02,1.54-.04.51,0,1.01,0,1.5,0,.49,0,.98.02,1.47.03.48.02.96.04,1.43.06.47.03.93.06,1.39.09.45.04.9.09,1.35.13.44.06.88.11,1.31.16.43.07.85.13,1.27.2.41.08.82.16,1.22.24l.6.13.15.03h.04s.02.02.03.03l.05.05.21.21.42.42.41.43,6.36,22.01-.61-1.09-.63-1.07-.65-1.04-.68-1.02-.7-.99-.72-.96-.74-.94-.77-.91-.79-.89-.81-.86-.83-.84-.85-.81-.87-.79-.89-.77-.91-.74-.93-.72-.63-.08-.64-.07c-.43-.04-.86-.08-1.29-.11-.44-.03-.87-.06-1.31-.09-.44-.02-.89-.04-1.33-.06-.45-.01-.9-.03-1.35-.04-.46,0-.91,0-1.37-.01-.46,0-.93,0-1.39,0-.47.01-.94.02-1.41.03-.47.02-.95.04-1.43.06-.48.03-.96.05-1.45.08-.49.03-.98.07-1.47.1-.49.04-.99.08-1.49.12-.5.05-1,.1-1.5.15-.5.06-1.01.11-1.52.17-.51.06-1.02.13-1.54.19-.52.07-1.03.14-1.56.21-.52.08-1.05.15-1.57.23-.53.08-1.06.17-1.59.25-1.06.19-2.14.38-3.23.57-1.08.21-2.18.43-3.29.65-1.11.24-2.22.48-3.35.72-1.12.26-2.26.53-3.41.8-1.14.29-2.3.58-3.46.87-1.16.31-2.33.62-3.51.94-1.18.33-2.37.67-3.57,1.01-1.19.35-2.4.71-3.61,1.07-1.21.38-2.43.75-3.66,1.14-1.23.4-2.46.79-3.7,1.2-1.24.42-2.49.83-3.75,1.25-1.25.43-2.52.87-3.79,1.31-1.27.45-2.54.91-3.82,1.36-1.28.47-2.56.94-3.86,1.41-1.29.48-2.59.97-3.89,1.46-1.3.5-2.61,1-3.92,1.51-1.31.51-2.63,1.03-3.95,1.55-2.63,1.07-5.29,2.14-7.97,3.22-2.67,1.12-5.35,2.24-8.06,3.37-2.69,1.16-5.4,2.32-8.12,3.5-2.71,1.2-5.43,2.4-8.17,3.6-2.72,1.23-5.46,2.46-8.2,3.69-2.73,1.25-5.47,2.51-8.21,3.76l-8.2,3.82c-5.45,2.58-10.9,5.15-16.31,7.71-5.4,2.58-10.76,5.15-16.06,7.69-5.3,2.54-10.53,5.05-15.66,7.51-5.14,2.44-10.19,4.84-15.11,7.18"/>
          <polygon class="cls-1" points="429.22 81.3 395.72 98.88 330.99 175.31 364.95 153.29 429.22 81.3"/>
          <polygon class="cls-1" points="348.81 43.58 358.09 51.65 360.4 53.66 360.48 53.73 360.51 53.76 360.53 53.77 360.54 53.78 360.55 53.79 360.64 54.01 360.83 54.44 361.2 55.3 361.96 57.03 364.97 63.94 377.01 91.56 412.71 212.8 385.46 161.31 369.19 98.81 361.06 67.56 359.02 59.75 358.52 57.8 358.45 57.55 358.44 57.49 358.41 57.45 358.35 57.37 358.13 57.05 357.69 56.41 355.91 53.84 348.81 43.58"/>
          <polygon class="cls-1" points="365.08 114.8 363.17 125.46 395.99 138.29 397.91 127.64 365.08 114.8"/>
          <polygon class="cls-1" points="363.46 125.51 361.04 135.94 393.31 151.46 395.72 141.04 363.46 125.51"/>
          <polygon class="cls-1" points="397.62 127.64 400.04 117.22 367.77 101.69 365.33 112.12 397.62 127.64"/>
          <path class="cls-1" d="M392.66,75.72l-20.77-12.35-10.39-6.18-1.3-.77-.65-.39-.16-.1-.04-.02h-.01s0,0-.01,0h-.03s-.11,0-.11,0h-.43s-3.41-.12-3.41-.12l-6.82-.21-114,27.21,48.69-1.36,59.95-12.09,7.49-1.51,1.87-.38.23-.05h.06s.05,0,.05,0l.09.02.37.08.74.16,2.97.62,11.87,2.48,23.74,4.96Z"/>
          <polygon class="cls-1" points="338.73 .86 333.69 42.42 296.37 135.32 299.5 95.85 338.73 .86"/>
          <polygon class="cls-1" points="307.05 54 298.51 60.8 324.56 83.86 333.1 77.06 307.05 54"/>
          <polygon class="cls-1" points="298.77 60.96 289.84 67.39 313.67 92.15 322.58 85.72 298.77 60.96"/>
          <polygon class="cls-1" points="332.79 76.95 341.72 70.51 317.88 45.75 308.97 52.18 332.79 76.95"/>
        </g>
        <g>
          <path class="cls-1" d="M372.48,684.05l.39-.56.4-.54.41-.53.42-.52.44-.51.45-.5.46-.49.47-.48.48-.47.49-.46.5-.45.51-.44.52-.43.53-.42.54-.41.54-.4.55-.4.56-.39.57-.38.58-.37,1.18-.71,1.2-.67,1.23-.64,1.26-.61c.43-.19.85-.38,1.28-.58.43-.18.87-.36,1.3-.54.44-.17.88-.34,1.32-.51.45-.16.89-.32,1.33-.48.45-.15.9-.3,1.35-.46.46-.14.91-.29,1.36-.43.46-.13.92-.27,1.37-.4.46-.12.92-.25,1.38-.37.47-.12.93-.23,1.39-.35.47-.11.93-.22,1.39-.32.47-.1.93-.2,1.4-.3.47-.09.94-.18,1.4-.28.47-.08.94-.17,1.4-.25.47-.08.93-.15,1.4-.23.47-.07.93-.14,1.39-.21.47-.06.93-.13,1.39-.19.46-.06.92-.11,1.38-.17.46-.05.92-.1,1.37-.15.92-.09,1.82-.17,2.7-.25.9-.06,1.78-.13,2.63-.19.87-.05,1.73-.09,2.55-.13.84-.03,1.66-.06,2.46-.08.81-.01,1.59-.03,2.35-.04.77,0,1.51,0,2.23,0,.72.01,1.42.02,2.09.03.68.02,1.32.04,1.93.05.62.03,1.21.05,1.76.07.56.03,1.09.06,1.58.08,1,.07,1.85.13,2.54.18.7.06,1.25.11,1.61.14.37.04.56.06.56.06-.51,0-1.02-.02-1.53-.03-.5,0-1.01,0-1.52,0-.5.01-1,.02-1.5.04-.49.02-.99.05-1.49.07-.49.03-.98.07-1.47.1-.48.04-.97.09-1.46.13-.48.05-.96.1-1.44.16-.47.06-.95.12-1.43.19l-1.41.21-1.4.24-1.38.26-1.36.29-1.35.31-1.33.33-1.31.35-1.29.37-1.28.39-1.26.4-1.24.42-1.22.44-1.2.45-1.18.46-1.16.48-1.14.49-1.12.5-1.1.51-1.08.51-1.06.52c-.69.36-1.38.71-2.06,1.06-.66.36-1.32.72-1.97,1.08-.63.37-1.26.73-1.88,1.08-.6.37-1.2.73-1.79,1.08-.57.37-1.14.72-1.69,1.08-.54.36-1.08.71-1.6,1.06-.51.35-1.01.7-1.5,1.04-.48.34-.95.68-1.4,1-.45.33-.88.65-1.3.96-.41.32-.81.62-1.19.92-.38.3-.74.58-1.09.86-.34.28-.67.54-.98.79-.61.51-1.15.97-1.62,1.36-.92.8-1.56,1.35-1.84,1.59"/>
          <path class="cls-1" d="M397.61,582.47l.06.31.07.3.08.31.09.32c.07.22.14.44.21.66.08.23.16.46.25.69.09.23.19.47.29.72.11.24.22.49.33.75.12.25.24.51.36.77.13.26.26.52.4.79.14.27.29.54.43.82.15.27.31.55.47.84.16.28.33.57.5.86.17.29.35.58.53.87.37.59.75,1.19,1.14,1.8.41.61.82,1.23,1.24,1.86.44.63.88,1.26,1.33,1.9.46.64.93,1.29,1.41,1.94.49.65.98,1.31,1.47,1.97.51.66,1.01,1.32,1.52,1.98l1.56,1.99,1.59,1.98c1.09,1.31,2.17,2.62,3.23,3.91,1.09,1.28,2.16,2.54,3.21,3.76,1.06,1.22,2.1,2.4,3.09,3.53,1.01,1.13,1.97,2.2,2.87,3.22.92,1.01,1.78,1.95,2.56,2.82,1.6,1.72,2.91,3.13,3.82,4.11.92.97,1.44,1.52,1.44,1.52l7.85-2.89c-.56-.52-1.14-1.04-1.72-1.57-.56-.54-1.12-1.08-1.69-1.62-.55-.55-1.1-1.11-1.66-1.67-.54-.57-1.09-1.14-1.64-1.71-.53-.58-1.07-1.16-1.61-1.74-.52-.59-1.05-1.18-1.57-1.77l-1.54-1.79-1.51-1.81-1.47-1.82-1.43-1.82c-.47-.61-.93-1.21-1.39-1.82-.45-.61-.9-1.21-1.35-1.81-.44-.6-.87-1.2-1.31-1.79-.42-.59-.84-1.19-1.26-1.77-.41-.59-.81-1.17-1.21-1.74-.39-.58-.78-1.15-1.16-1.71-.75-1.13-1.47-2.23-2.18-3.29-.68-1.07-1.33-2.1-1.96-3.08-.61-.99-1.18-1.93-1.73-2.82-.53-.89-1.03-1.73-1.49-2.51-.45-.78-.86-1.5-1.23-2.16-.36-.66-.68-1.24-.96-1.75-.27-.51-.49-.95-.68-1.29-.09-.18-.16-.33-.23-.46-.03-.07-.06-.13-.08-.18l-.04-.08-.02-.04v-.02s-.01,0-.01,0v-.02"/>
          <path class="cls-1" d="M411.69,711.9l.99-1.22,1.03-1.2,1.06-1.18,1.09-1.16,1.11-1.14,1.13-1.13c.77-.74,1.53-1.47,2.29-2.21,1.55-1.44,3.07-2.86,4.55-4.23.74-.69,1.47-1.37,2.18-2.04.35-.34.7-.67,1.05-1,.34-.33.68-.67,1.01-.99.33-.33.65-.66.97-.98.31-.33.62-.65.93-.97.3-.33.59-.65.88-.97.28-.32.55-.65.82-.96l.39-.48.37-.48.35-.47.34-.47.32-.47.3-.47c.09-.16.19-.31.28-.47.09-.16.18-.31.26-.47.08-.16.16-.31.24-.47.07-.16.15-.31.22-.47.07-.16.13-.31.2-.46.06-.16.12-.31.18-.46.05-.16.1-.31.15-.46.04-.16.09-.31.13-.46.04-.16.07-.31.1-.46.03-.16.05-.31.08-.46.02-.16.04-.31.05-.46,0-.16.02-.31.03-.46v-.23s0-.23,0-.23v-.23s-.03-.23-.03-.23l-.02-.23-.03-.23-.04-.23-.05-.23-.05-.23-.06-.23-.07-.23-.08-.23-4.21-4.44c-.06.12-.13.25-.2.39-.07.13-.15.27-.23.41-.08.14-.17.28-.26.43-.09.15-.19.3-.29.45-.2.3-.42.62-.65.96-.24.33-.48.67-.74,1.03-.27.35-.54.71-.83,1.09-.29.37-.59.75-.9,1.14-.32.39-.64.79-.97,1.19-.34.4-.68.81-1.04,1.23-.72.83-1.46,1.68-2.22,2.55-.78.86-1.57,1.74-2.37,2.63-.81.88-1.63,1.77-2.45,2.65-.83.88-1.66,1.75-2.47,2.61-1.65,1.7-3.26,3.36-4.74,4.88-1.5,1.51-2.87,2.88-4.03,4.05-2.35,2.31-3.85,3.79-3.85,3.79"/>
          <path class="cls-1" d="M445.05,575.96s.08.22.25.63c.15.41.38,1.01.66,1.78.14.39.29.81.45,1.28.16.47.33.98.52,1.52.18.54.37,1.12.57,1.74.19.61.39,1.26.6,1.94.2.68.41,1.39.62,2.12.2.74.41,1.5.63,2.29.2.79.41,1.61.63,2.44.2.84.4,1.7.61,2.58.19.88.38,1.78.58,2.69.09.46.18.92.27,1.38.09.47.17.93.26,1.41.08.47.16.95.24,1.43.08.48.15.96.23,1.44.07.48.14.97.21,1.46l.19,1.47.17,1.49.14,1.49.12,1.5.09,1.51.06,1.51.03,1.51v1.51s-.03,1.51-.03,1.51c-.02.5-.05,1-.07,1.5-.04.5-.07,1-.11,1.49-.05.5-.1.99-.14,1.48-.06.49-.12.98-.18,1.47-.08.49-.15.97-.23,1.45-.09.48-.18.96-.27,1.44l-.15.71-.16.71-.18.7-.19.7-.2.69-.21.68-.23.68-.24.67-.25.66-.26.66-.28.65-.29.64-.31.63-.32.63-.33.62-.35.61-.36.6-.38.59-.39.58-.41.57-.43.56-.44.55-.46.54-.47.53-.49.52-.51.51c-.18.17-.35.33-.52.49-.18.16-.36.32-.54.48-.19.16-.37.31-.56.47-.19.15-.39.31-.58.46-.2.15-.4.3-.59.44-.21.15-.41.29-.61.43-.21.14-.42.28-.63.42-.22.14-.43.27-.65.4l-.33.2-.08.05h-.02s0,.02,0,.03l.03.04.11.16c.14.22.27.43.41.64l-1.27,7.5-.16-.55-.19-.56-.22-.57-.24-.58-.27-.59-.29-.6-.32-.61-.34-.62-.37-.63-.39-.63-.41-.64-.44-.65-.46-.66-.48-.67c-.34-.45-.69-.91-1.03-1.36.37-.28.75-.56,1.13-.85l.54-.43.53-.44.51-.44.5-.45.48-.46.47-.46.45-.47.44-.48.42-.48.41-.49.39-.49.38-.5.36-.5.35-.51.34-.52.32-.52.31-.53.3-.53.28-.54.27-.54.26-.55.25-.55.23-.55.22-.56.21-.56.2-.57.19-.57.18-.58.16-.58.15-.58.14-.59.13-.59c.08-.4.16-.79.23-1.19.06-.4.13-.8.19-1.21.05-.4.1-.81.15-1.22.04-.41.08-.82.12-1.23.03-.41.05-.83.08-1.25.02-.42.03-.84.05-1.26,0-.42,0-.84.01-1.27,0-.42-.01-.85-.02-1.28-.02-.43-.03-.86-.05-1.29-.03-.43-.05-.86-.08-1.29-.04-.43-.07-.87-.11-1.3l-.13-1.31-.16-1.31-.18-1.32-.21-1.32-.23-1.33-.25-1.33c-.18-.89-.36-1.78-.54-2.67l-.61-2.67-.66-2.67-.69-2.66c-.24-.88-.48-1.77-.72-2.64-.5-1.75-.99-3.5-1.48-5.22-.49-1.72-.98-3.42-1.46-5.09-.23-.84-.47-1.66-.69-2.48-.22-.82-.44-1.64-.66-2.44"/>
          <polygon class="cls-1" points="488.01 693.53 456.76 676.09 384.3 649.42 417.18 666.4 488.01 693.53"/>
          <path class="cls-1" d="M455.58,643.35l-10.74,3.11-2.69.78-.08.02h-.04s-.02.02-.02.02h-.01s0,0,0,0v.09s.04.19.04.19l.05.37.1.74.4,2.97,1.59,11.88-6.47,41.71-6.73-25.06,5.01-20.21,2.5-10.1.63-2.53.16-.63.02-.08h0s0,0,0-.02h.05s.09-.03.09-.03l.38-.08.75-.15,3-.6,12.02-2.41Z"/>
          <polygon class="cls-1" points="428.22 660.12 423.69 660.72 445.77 682.77 450.3 682.17 428.22 660.12"/>
          <polygon class="cls-1" points="423.9 660.91 419.04 661.16 439.92 683.32 444.78 683.06 423.9 660.91"/>
          <polygon class="cls-1" points="450.07 682 454.93 681.75 434.05 659.59 429.18 659.83 450.07 682"/>
          <path class="cls-1" d="M460.94,670.41l-12.77-14.65-6.39-7.33-.8-.92-.4-.46-.1-.11-.02-.03h0s0,0,0-.01h.01s.04-.04.04-.04l.16-.14,1.3-1.12,2.59-2.24,14.83-37.26-15.85,15.99-9.85,19.61-1.23,2.45-.31.61-.04.08h0s0,0,0,.02l.03.03.07.06.27.24.54.48,2.15,1.9,8.6,7.62,17.2,15.23Z"/>
          <polygon class="cls-1" points="498.73 639.72 461.96 638.37 388.94 626.8 424.44 627.53 498.73 639.72"/>
          <polygon class="cls-1" points="460.6 629.7 457.29 626.94 426.75 635.68 430.05 638.44 460.6 629.7"/>
          <polygon class="cls-1" points="457.05 627.03 454.23 624.15 422.89 632.16 425.72 635.04 457.05 627.03"/>
          <polygon class="cls-1" points="430.27 638.33 433.1 641.22 464.43 633.2 461.61 630.32 430.27 638.33"/>
        </g>
      </g>
      <g>
        <path class="cls-1" d="M85.65,909.42c25.91-36.65,60.93-38.83,89.37-79.05l7.63,5.39c-28.44,40.23-63.45,42.41-89.36,79.06"/>
        <path class="cls-1" d="M117.11,931.67c27.57-38.99,18.88-74.03,44-109.56l7.62,5.39c-25.12,35.53-16.42,70.58-43.99,109.57"/>
        <path class="cls-1" d="M223.61,714.28c-25.91,36.65-16.29,70.39-44.73,110.62l7.62,5.39c28.44-40.23,18.82-73.96,44.74-110.61"/>
        <path class="cls-1" d="M255.08,736.53c-27.57,38.99-63.5,42.49-88.62,78.01l7.63,5.39c25.12-35.53,61.06-39.01,88.63-78.01"/>
        <polygon class="cls-1" points="123.65 827.86 157.16 831.35 230.09 815.02 195.31 813.78 123.65 827.86"/>
        <polygon class="cls-1" points="183.55 875.64 172.55 842.59 166.79 769.98 178.45 801.45 183.55 875.64"/>
        <polygon class="cls-1" points="187.76 834.6 191.53 829.57 164.53 809.85 160.75 814.88 187.76 834.6"/>
        <polygon class="cls-1" points="191.29 829.42 195.48 824.71 169.5 803.75 165.3 808.45 191.29 829.42"/>
        <polygon class="cls-1" points="161.01 814.99 156.83 819.71 182.81 840.68 187 835.97 161.01 814.99"/>
      </g>
      <g>
        <path class="cls-1" d="M41.98,812c24.41-34.95,58.78-36.41,85.57-74.76l7.66,5.35c-26.79,38.35-61.15,39.82-85.56,74.77"/>
        <path class="cls-1" d="M73.57,834.06c25.97-37.17,16.4-71.19,40.06-105.07l7.66,5.35c-23.66,33.87-14.08,67.9-40.05,105.07"/>
        <path class="cls-1" d="M171.94,625.96c-24.41,34.95-13.96,67.72-40.75,106.07l7.66,5.35c26.79-38.35,16.35-71.12,40.76-106.06"/>
        <path class="cls-1" d="M203.53,648.02c-25.97,37.17-61.2,39.9-84.86,73.77l7.66,5.35c23.66-33.87,58.91-36.59,84.87-73.76"/>
        <polygon class="cls-1" points="76.96 733.88 110.02 737.86 181.25 723.41 147.02 721.58 76.96 733.88"/>
        <polygon class="cls-1" points="137.27 781.14 125.48 749 117.69 678.74 130.08 709.36 137.27 781.14"/>
        <polygon class="cls-1" points="140.2 741.56 143.77 736.77 116.63 717.22 113.07 722.01 140.2 741.56"/>
        <polygon class="cls-1" points="143.53 736.62 147.51 732.14 121.35 711.42 117.36 715.89 143.53 736.62"/>
        <polygon class="cls-1" points="113.33 722.13 109.35 726.61 135.52 747.34 139.5 742.87 113.33 722.13"/>
      </g>
    </g>
  </g>
</svg>