<?xml version="1.0" encoding="UTF-8"?>
<svg id="Layer_2" data-name="Layer 2" xmlns="http://www.w3.org/2000/svg" viewBox="0 0 545.54 82.98">
  <defs>
    <style>
      .cls-1 {
        fill: #bfbfbf;
        stroke: #000;
        stroke-linecap: round;
        stroke-width: 4.5px;
      }
    </style>
  </defs>
  <g id="Layer_2-2" data-name="Layer 2">
    <g>
      <g>
        <path class="cls-1" d="M2.25,17.78c50.81,0,75.7,27.34,131.47,27.34v9.34c-55.77,0-80.66-27.33-131.47-27.33"/>
        <path class="cls-1" d="M2.25,56.31c54.05,0,80.76-27.32,130.02-27.32v9.34c-49.25,0-75.96,27.34-130.02,27.34"/>
        <path class="cls-1" d="M272.76,17.78c-50.81,0-75.71,27.34-131.47,27.34v9.34c55.76,0,80.66-27.33,131.47-27.33"/>
        <path class="cls-1" d="M272.76,56.31c-54.05,0-80.76-27.32-130.02-27.32v9.34c49.25,0,75.96,27.34,130.02,27.34"/>
        <polygon class="cls-1" points="102.46 1.72 121.14 31.1 183.89 81.22 162.31 52.11 102.46 1.72"/>
        <polygon class="cls-1" points="97.45 78.22 120.81 50.16 184.15 3.54 162.68 31.22 97.45 78.22"/>
        <polygon class="cls-1" points="138.12 57.96 145.24 58.14 145.82 24.7 138.71 24.52 138.12 57.96"/>
        <polygon class="cls-1" points="145.22 57.86 152.32 58.56 154.71 25.25 147.62 24.53 145.22 57.86"/>
        <polygon class="cls-1" points="138.77 24.81 131.68 24.11 129.28 57.43 136.37 58.13 138.77 24.81"/>
      </g>
      <g>
        <path class="cls-1" d="M272.78,17.78c50.81,0,75.7,27.34,131.47,27.34v9.34c-55.77,0-80.66-27.33-131.47-27.33"/>
        <path class="cls-1" d="M272.78,56.31c54.05,0,80.76-27.32,130.02-27.32v9.34c-49.25,0-75.96,27.34-130.02,27.34"/>
        <path class="cls-1" d="M543.29,17.78c-50.81,0-75.71,27.34-131.47,27.34v9.34c55.76,0,80.66-27.33,131.47-27.33"/>
        <path class="cls-1" d="M543.29,56.31c-54.05,0-80.76-27.32-130.02-27.32v9.34c49.25,0,75.96,27.34,130.02,27.34"/>
        <polygon class="cls-1" points="372.99 1.72 391.67 31.1 454.42 81.22 432.84 52.11 372.99 1.72"/>
        <polygon class="cls-1" points="367.98 78.22 391.33 50.16 454.68 3.54 433.21 31.22 367.98 78.22"/>
        <polygon class="cls-1" points="408.65 57.96 415.77 58.14 416.35 24.7 409.23 24.52 408.65 57.96"/>
        <polygon class="cls-1" points="415.75 57.86 422.84 58.56 425.24 25.25 418.15 24.53 415.75 57.86"/>
        <polygon class="cls-1" points="409.3 24.81 402.2 24.11 399.81 57.43 406.9 58.13 409.3 24.81"/>
      </g>
    </g>
  </g>
</svg>