{
  "accessors": [
    {
      "bufferView": 0,
      "componentType": 5125,
      "count": 73500,
      "type": "SCALAR"
    },
    {
      "bufferView": 1,
      "componentType": 5126,
      "count": 13844,
      "max": [
        0.04436761628451258,
        0.038919819848350135,
        0.04196130652516942
      ],
      "min": [
        -0.04436761628451258,
        -0.038919819848350246,
        -0.04196130652516942
      ],
      "type": "VEC3"
    },
    {
      "bufferView": 2,
      "componentType": 5126,
      "count": 13844,
      "max": [
        1.0,
        0.9999994716599414,
        0.9999408126076391
      ],
      "min": [
        -1.0,
        -0.9999997865568462,
        -0.9999408126076391
      ],
      "type": "VEC3"
    },
    {
      "bufferView": 3,
      "componentType": 5126,
      "count": 13844,
      "max": [
        1.0,
        0.9895081132325241
      ],
      "min": [
        0.0,
        0.0
      ],
      "type": "VEC2"
    }
  ],
  "asset": {
    "generator": "Adobe Illustrator",
    "version": "2.0"
  },
  "bufferViews": [
    {
      "buffer": 0,
      "byteLength": 294000,
      "target": 34963
    },
    {
      "buffer": 0,
      "byteLength": 166128,
      "byteOffset": 294000,
      "target": 34962
    },
    {
      "buffer": 0,
      "byteLength": 166128,
      "byteOffset": 460128,
      "target": 34962
    },
    {
      "buffer": 0,
      "byteLength": 110752,
      "byteOffset": 626256,
      "target": 34962
    }
  ],
  "buffers": [
    {
      "byteLength": 737008,
      "uri": "data:application/octet-stream;base64,"
    }
  ],
  "materials": [
    {
      "doubleSided": true,
      "pbrMetallicRoughness": {
        "baseColorFactor": [
          0.82421875,
          0.82421875,
          0.82421875,
          1.0
        ],
        "metallicFactor": 0.0,
        "roughnessFactor": 0.4000000059604645
      }
    }
  ],
  "meshes": [
    {
      "primitives": [
        {
          "attributes": {
            "NORMAL": 2,
            "POSITION": 1,
            "TEXCOORD_0": 3
          },
          "indices": 0,
          "material": 0,
          "mode": 4
        }
      ]
    }
  ],
  "nodes": [
    {
      "mesh": 0
    }
  ],
  "scenes": [
    {
      "nodes": [
        0
      ]
    }
  ]
}
