{
  "accessors": [
    {
      "bufferView": 0,
      "componentType": 5125,
      "count": 50700,
      "type": "SCALAR"
    },
    {
      "bufferView": 1,
      "componentType": 5126,
      "count": 10266,
      "max": [
        0.12040755355329158,
        0.15902405587997404,
        0.05635740262275713
      ],
      "min": [
        -0.12040755355329158,
        -0.1590240558799736,
        -0.05635740262275713
      ],
      "type": "VEC3"
    },
    {
      "bufferView": 2,
      "componentType": 5126,
      "count": 10266,
      "max": [
        0.9999999914076192,
        0.9999958197086303,
        0.9999601683646822
      ],
      "min": [
        -0.999999962653228,
        -1.0,
        -0.9999601683646822
      ],
      "type": "VEC3"
    },
    {
      "bufferView": 3,
      "componentType": 5126,
      "count": 10266,
      "max": [
        1.0,
        0.7500809580852236
      ],
      "min": [
        0.0,
        0.0
      ],
      "type": "VEC2"
    }
  ],
  "asset": {
    "generator": "Adobe Illustrator",
    "version": "2.0"
  },
  "bufferViews": [
    {
      "buffer": 0,
      "byteLength": 202800,
      "target": 34963
    },
    {
      "buffer": 0,
      "byteLength": 123192,
      "byteOffset": 202800,
      "target": 34962
    },
    {
      "buffer": 0,
      "byteLength": 123192,
      "byteOffset": 325992,
      "target": 34962
    },
    {
      "buffer": 0,
      "byteLength": 82128,
      "byteOffset": 449184,
      "target": 34962
    }
  ],
  "buffers": [
    {
      "byteLength": 531312,
      "uri": "data:application/octet-stream;base64,"
    }
  ],
  "materials": [
    {
      "doubleSided": true,
      "pbrMetallicRoughness": {
        "baseColorFactor": [
          0.82421875,
          0.82421875,
          0.82421875,
          1.0
        ],
        "metallicFactor": 0.0,
        "roughnessFactor": 0.4000000059604645
      }
    }
  ],
  "meshes": [
    {
      "primitives": [
        {
          "attributes": {
            "NORMAL": 2,
            "POSITION": 1,
            "TEXCOORD_0": 3
          },
          "indices": 0,
          "material": 0,
          "mode": 4
        }
      ]
    }
  ],
  "nodes": [
    {
      "mesh": 0
    }
  ],
  "scenes": [
    {
      "nodes": [
        0
      ]
    }
  ]
}
