{
  "accessors": [
    {
      "bufferView": 0,
      "componentType": 5125,
      "count": 68034,
      "type": "SCALAR"
    },
    {
      "bufferView": 1,
      "componentType": 5126,
      "count": 13613,
      "max": [
        0.16413188665632084,
        0.15615637646479774,
        0.05662296760612367
      ],
      "min": [
        -0.1641318866563206,
        -0.15615637646479774,
        -0.056622967606123675
      ],
      "type": "VEC3"
    },
    {
      "bufferView": 2,
      "componentType": 5126,
      "count": 13613,
      "max": [
        0.9999999785132269,
        0.999999999997174,
        0.9999829401361044
      ],
      "min": [
        -0.9999999975755988,
        -0.999999999996884,
        -0.9999829401361044
      ],
      "type": "VEC3"
    },
    {
      "bufferView": 3,
      "componentType": 5126,
      "count": 13613,
      "max": [
        1.0,
        0.9957362891667443
      ],
      "min": [
        0.0,
        0.0
      ],
      "type": "VEC2"
    }
  ],
  "asset": {
    "generator": "Adobe Illustrator",
    "version": "2.0"
  },
  "bufferViews": [
    {
      "buffer": 0,
      "byteLength": 272136,
      "target": 34963
    },
    {
      "buffer": 0,
      "byteLength": 163356,
      "byteOffset": 272136,
      "target": 34962
    },
    {
      "buffer": 0,
      "byteLength": 163356,
      "byteOffset": 435492,
      "target": 34962
    },
    {
      "buffer": 0,
      "byteLength": 108904,
      "byteOffset": 598848,
      "target": 34962
    }
  ],
  "buffers": [
    {
      "byteLength": 707752,
      "uri": "data:application/octet-stream;base64,"
    }
  ],
  "materials": [
    {
      "doubleSided": true,
      "pbrMetallicRoughness": {
        "baseColorFactor": [
          0.82421875,
          0.82421875,
          0.82421875,
          1.0
        ],
        "metallicFactor": 0.0,
        "roughnessFactor": 0.4000000059604645
      }
    }
  ],
  "meshes": [
    {
      "primitives": [
        {
          "attributes": {
            "NORMAL": 2,
            "POSITION": 1,
            "TEXCOORD_0": 3
          },
          "indices": 0,
          "material": 0,
          "mode": 4
        }
      ]
    }
  ],
  "nodes": [
    {
      "mesh": 0
    }
  ],
  "scenes": [
    {
      "nodes": [
        0
      ]
    }
  ]
}
