{
  "accessors": [
    {
      "bufferView": 0,
      "componentType": 5125,
      "count": 47904,
      "type": "SCALAR"
    },
    {
      "bufferView": 1,
      "componentType": 5126,
      "count": 9488,
      "max": [
        0.017864355063484716,
        0.13319023094831006,
        0.0268361765007655
      ],
      "min": [
        -0.017864355063484716,
        -0.13319023094831028,
        -0.0268361765007655
      ],
      "type": "VEC3"
    },
    {
      "bufferView": 2,
      "componentType": 5126,
      "count": 9488,
      "max": [
        1.0,
        0.9999999999995786,
        0.9995701274993452
      ],
      "min": [
        -1.0,
        -0.9999999999995786,
        -0.9995701274993452
      ],
      "type": "VEC3"
    },
    {
      "bufferView": 3,
      "componentType": 5126,
      "count": 9488,
      "max": [
        0.9781148266746477,
        1.0
      ],
      "min": [
        0.0,
        0.0
      ],
      "type": "VEC2"
    }
  ],
  "asset": {
    "generator": "Adobe Illustrator",
    "version": "2.0"
  },
  "bufferViews": [
    {
      "buffer": 0,
      "byteLength": 191616,
      "target": 34963
    },
    {
      "buffer": 0,
      "byteLength": 113856,
      "byteOffset": 191616,
      "target": 34962
    },
    {
      "buffer": 0,
      "byteLength": 113856,
      "byteOffset": 305472,
      "target": 34962
    },
    {
      "buffer": 0,
      "byteLength": 75904,
      "byteOffset": 419328,
      "target": 34962
    }
  ],
  "buffers": [
    {
      "byteLength": 495232,
      "uri": "data:application/octet-stream;base64,"
    }
  ],
  "materials": [
    {
      "doubleSided": true,
      "pbrMetallicRoughness": {
        "baseColorFactor": [
          0.82421875,
          0.82421875,
          0.82421875,
          1.0
        ],
        "metallicFactor": 0.0,
        "roughnessFactor": 0.4000000059604645
      }
    }
  ],
  "meshes": [
    {
      "primitives": [
        {
          "attributes": {
            "NORMAL": 2,
            "POSITION": 1,
            "TEXCOORD_0": 3
          },
          "indices": 0,
          "material": 0,
          "mode": 4
        }
      ]
    }
  ],
  "nodes": [
    {
      "mesh": 0
    }
  ],
  "scenes": [
    {
      "nodes": [
        0
      ]
    }
  ]
}
