{
  "accessors": [
    {
      "bufferView": 0,
      "componentType": 5125,
      "count": 77124,
      "type": "SCALAR"
    },
    {
      "bufferView": 1,
      "componentType": 5126,
      "count": 14464,
      "max": [
        0.07713738529272246,
        0.15290400340302224,
        0.07172043192533979
      ],
      "min": [
        -0.07659449566089555,
        0.006415139882059329,
        -0.07172043193058766
      ],
      "type": "VEC3"
    },
    {
      "bufferView": 2,
      "componentType": 5126,
      "count": 14464,
      "max": [
        0.9999999999999999,
        0.9999999999999999,
        0.9999931951181261
      ],
      "min": [
        -0.9999999999999998,
        -0.9999999999999996,
        -0.9999931951181261
      ],
      "type": "VEC3"
    },
    {
      "bufferView": 3,
      "componentType": 5126,
      "count": 14464,
      "max": [
        0.508108163366262,
        1.0
      ],
      "min": [
        0.0,
        0.0
      ],
      "type": "VEC2"
    },
    {
      "bufferView": 4,
      "componentType": 5125,
      "count": 77124,
      "type": "SCALAR"
    },
    {
      "bufferView": 5,
      "componentType": 5126,
      "count": 14464,
      "max": [
        0.07659453599922222,
        -0.006415062731273569,
        0.07172045074698268
      ],
      "min": [
        -0.07713738529272249,
        -0.15290400340302224,
        -0.07172045074698266
      ],
      "type": "VEC3"
    },
    {
      "bufferView": 6,
      "componentType": 5126,
      "count": 14464,
      "max": [
        0.9999999999999065,
        0.9999999999999193,
        0.9999931951181261
      ],
      "min": [
        -0.9999999999999173,
        -0.999999999999914,
        -0.9999931951181261
      ],
      "type": "VEC3"
    },
    {
      "bufferView": 7,
      "componentType": 5126,
      "count": 14464,
      "max": [
        0.508108163366262,
        1.0
      ],
      "min": [
        0.0,
        0.0
      ],
      "type": "VEC2"
    }
  ],
  "asset": {
    "generator": "Adobe Illustrator",
    "version": "2.0"
  },
  "bufferViews": [
    {
      "buffer": 0,
      "byteLength": 308496,
      "target": 34963
    },
    {
      "buffer": 0,
      "byteLength": 173568,
      "byteOffset": 308496,
      "target": 34962
    },
    {
      "buffer": 0,
      "byteLength": 173568,
      "byteOffset": 482064,
      "target": 34962
    },
    {
      "buffer": 0,
      "byteLength": 115712,
      "byteOffset": 655632,
      "target": 34962
    },
    {
      "buffer": 0,
      "byteLength": 308496,
      "byteOffset": 771344,
      "target": 34963
    },
    {
      "buffer": 0,
      "byteLength": 173568,
      "byteOffset": 1079840,
      "target": 34962
    },
    {
      "buffer": 0,
      "byteLength": 173568,
      "byteOffset": 1253408,
      "target": 34962
    },
    {
      "buffer": 0,
      "byteLength": 115712,
      "byteOffset": 1426976,
      "target": 34962
    }
  ],
  "buffers": [
    {
      "byteLength": 1542688,
      "uri": "data:application/octet-stream;base64,"
    }
  ],
  "materials": [
    {
      "doubleSided": true,
      "pbrMetallicRoughness": {
        "baseColorFactor": [
          0.82421875,
          0.82421875,
          0.82421875,
          1.0
        ],
        "metallicFactor": 0.0,
        "roughnessFactor": 0.4000000059604645
      }
    },
    {
      "doubleSided": true,
      "pbrMetallicRoughness": {
        "baseColorFactor": [
          0.82421875,
          0.82421875,
          0.82421875,
          1.0
        ],
        "metallicFactor": 0.0,
        "roughnessFactor": 0.4000000059604645
      }
    }
  ],
  "meshes": [
    {
      "primitives": [
        {
          "attributes": {
            "NORMAL": 2,
            "POSITION": 1,
            "TEXCOORD_0": 3
          },
          "indices": 0,
          "material": 0,
          "mode": 4
        }
      ]
    },
    {
      "primitives": [
        {
          "attributes": {
            "NORMAL": 6,
            "POSITION": 5,
            "TEXCOORD_0": 7
          },
          "indices": 4,
          "material": 1,
          "mode": 4
        }
      ]
    }
  ],
  "nodes": [
    {
      "mesh": 0
    },
    {
      "mesh": 1
    }
  ],
  "scenes": [
    {
      "nodes": [
        0,
        1
      ]
    }
  ]
}
