{
  "accessors": [
    {
      "bufferView": 0,
      "componentType": 5125,
      "count": 52680,
      "type": "SCALAR"
    },
    {
      "bufferView": 1,
      "componentType": 5126,
      "count": 10784,
      "max": [
        0.12061044991345615,
        0.11930408714749452,
        0.05795176294666808
      ],
      "min": [
        -0.12061044991345593,
        -0.11930408714749435,
        -0.05795176294666808
      ],
      "type": "VEC3"
    },
    {
      "bufferView": 2,
      "componentType": 5126,
      "count": 10784,
      "max": [
        0.9999990316206456,
        0.9999997178313286,
        0.9999614497805469
      ],
      "min": [
        -0.9999991096390549,
        -0.9999844261328611,
        -0.9999614497805469
      ],
      "type": "VEC3"
    },
    {
      "bufferView": 3,
      "componentType": 5126,
      "count": 10784,
      "max": [
        0.9731591234881525,
        1.0
      ],
      "min": [
        0.0,
        0.0
      ],
      "type": "VEC2"
    }
  ],
  "asset": {
    "generator": "Adobe Illustrator",
    "version": "2.0"
  },
  "bufferViews": [
    {
      "buffer": 0,
      "byteLength": 210720,
      "target": 34963
    },
    {
      "buffer": 0,
      "byteLength": 129408,
      "byteOffset": 210720,
      "target": 34962
    },
    {
      "buffer": 0,
      "byteLength": 129408,
      "byteOffset": 340128,
      "target": 34962
    },
    {
      "buffer": 0,
      "byteLength": 86272,
      "byteOffset": 469536,
      "target": 34962
    }
  ],
  "buffers": [
    {
      "byteLength": 555808,
      "uri": "data:application/octet-stream;base64,"
    }
  ],
  "materials": [
    {
      "doubleSided": true,
      "pbrMetallicRoughness": {
        "baseColorFactor": [
          0.82421875,
          0.82421875,
          0.82421875,
          1.0
        ],
        "metallicFactor": 0.0,
        "roughnessFactor": 0.4000000059604645
      }
    }
  ],
  "meshes": [
    {
      "primitives": [
        {
          "attributes": {
            "NORMAL": 2,
            "POSITION": 1,
            "TEXCOORD_0": 3
          },
          "indices": 0,
          "material": 0,
          "mode": 4
        }
      ]
    }
  ],
  "nodes": [
    {
      "mesh": 0
    }
  ],
  "scenes": [
    {
      "nodes": [
        0
      ]
    }
  ]
}
