{
  "accessors": [
    {
      "bufferView": 0,
      "componentType": 5125,
      "count": 51138,
      "type": "SCALAR"
    },
    {
      "bufferView": 1,
      "componentType": 5126,
      "count": 10275,
      "max": [
        0.156960005800024,
        0.16531601144876595,
        0.05574514412031465
      ],
      "min": [
        -0.055676024017613956,
        -0.054328123729836086,
        -0.05574514412031465
      ],
      "type": "VEC3"
    },
    {
      "bufferView": 2,
      "componentType": 5126,
      "count": 10275,
      "max": [
        0.9999999999969713,
        0.9999999206694143,
        0.9999177703952723
      ],
      "min": [
        -0.9999996082027448,
        -0.9999998963650689,
        -0.9999177703952723
      ],
      "type": "VEC3"
    },
    {
      "bufferView": 3,
      "componentType": 5126,
      "count": 10275,
      "max": [
        1.0,
        0.5914675534139513
      ],
      "min": [
        0.0,
        0.0
      ],
      "type": "VEC2"
    },
    {
      "bufferView": 4,
      "componentType": 5125,
      "count": 50412,
      "type": "SCALAR"
    },
    {
      "bufferView": 5,
      "componentType": 5126,
      "count": 10136,
      "max": [
        0.05567602394973181,
        0.05432792821278154,
        0.05557340052351161
      ],
      "min": [
        -0.15696000580002378,
        -0.16531601144876618,
        -0.05557340052351161
      ],
      "type": "VEC3"
    },
    {
      "bufferView": 6,
      "componentType": 5126,
      "count": 10136,
      "max": [
        0.9999998980297528,
        0.9999997788820367,
        0.9999858263973002
      ],
      "min": [
        -0.9999999999968584,
        -0.9999998957714196,
        -0.9999858263973002
      ],
      "type": "VEC3"
    },
    {
      "bufferView": 7,
      "componentType": 5126,
      "count": 10136,
      "max": [
        1.0,
        0.5914599850357776
      ],
      "min": [
        0.0,
        0.0
      ],
      "type": "VEC2"
    }
  ],
  "asset": {
    "generator": "Adobe Illustrator",
    "version": "2.0"
  },
  "bufferViews": [
    {
      "buffer": 0,
      "byteLength": 204552,
      "target": 34963
    },
    {
      "buffer": 0,
      "byteLength": 123300,
      "byteOffset": 204552,
      "target": 34962
    },
    {
      "buffer": 0,
      "byteLength": 123300,
      "byteOffset": 327852,
      "target": 34962
    },
    {
      "buffer": 0,
      "byteLength": 82200,
      "byteOffset": 451152,
      "target": 34962
    },
    {
      "buffer": 0,
      "byteLength": 201648,
      "byteOffset": 533352,
      "target": 34963
    },
    {
      "buffer": 0,
      "byteLength": 121632,
      "byteOffset": 735000,
      "target": 34962
    },
    {
      "buffer": 0,
      "byteLength": 121632,
      "byteOffset": 856632,
      "target": 34962
    },
    {
      "buffer": 0,
      "byteLength": 81088,
      "byteOffset": 978264,
      "target": 34962
    }
  ],
  "buffers": [
    {
      "byteLength": 1059352,
      "uri": "data:application/octet-stream;base64,"
    }
  ],
  "materials": [
    {
      "doubleSided": true,
      "pbrMetallicRoughness": {
        "baseColorFactor": [
          0.82421875,
          0.82421875,
          0.82421875,
          1.0
        ],
        "metallicFactor": 0.0,
        "roughnessFactor": 0.4000000059604645
      }
    },
    {
      "doubleSided": true,
      "pbrMetallicRoughness": {
        "baseColorFactor": [
          0.82421875,
          0.82421875,
          0.82421875,
          1.0
        ],
        "metallicFactor": 0.0,
        "roughnessFactor": 0.4000000059604645
      }
    }
  ],
  "meshes": [
    {
      "primitives": [
        {
          "attributes": {
            "NORMAL": 2,
            "POSITION": 1,
            "TEXCOORD_0": 3
          },
          "indices": 0,
          "material": 0,
          "mode": 4
        }
      ]
    },
    {
      "primitives": [
        {
          "attributes": {
            "NORMAL": 6,
            "POSITION": 5,
            "TEXCOORD_0": 7
          },
          "indices": 4,
          "material": 1,
          "mode": 4
        }
      ]
    }
  ],
  "nodes": [
    {
      "mesh": 0
    },
    {
      "mesh": 1
    }
  ],
  "scenes": [
    {
      "nodes": [
        0,
        1
      ]
    }
  ]
}
