{
  "accessors": [
    {
      "bufferView": 0,
      "componentType": 5125,
      "count": 77106,
      "type": "SCALAR"
    },
    {
      "bufferView": 1,
      "componentType": 5126,
      "count": 15541,
      "max": [
        0.14601679509329502,
        0.15802388030962033,
        0.0561628296322475
      ],
      "min": [
        -0.1460167950932948,
        -0.15802388030962033,
        -0.0561628296322475
      ],
      "type": "VEC3"
    },
    {
      "bufferView": 2,
      "componentType": 5126,
      "count": 15541,
      "max": [
        0.9999999967926305,
        0.9999999108768868,
        0.9999917683721509
      ],
      "min": [
        -0.9999999931194294,
        -0.9999996401533665,
        -0.9999917683721509
      ],
      "type": "VEC3"
    },
    {
      "bufferView": 3,
      "componentType": 5126,
      "count": 15541,
      "max": [
        1.0,
        0.5899259534463706
      ],
      "min": [
        0.0,
        0.0
      ],
      "type": "VEC2"
    }
  ],
  "asset": {
    "generator": "Adobe Illustrator",
    "version": "2.0"
  },
  "bufferViews": [
    {
      "buffer": 0,
      "byteLength": 308424,
      "target": 34963
    },
    {
      "buffer": 0,
      "byteLength": 186492,
      "byteOffset": 308424,
      "target": 34962
    },
    {
      "buffer": 0,
      "byteLength": 186492,
      "byteOffset": 494916,
      "target": 34962
    },
    {
      "buffer": 0,
      "byteLength": 124328,
      "byteOffset": 681408,
      "target": 34962
    }
  ],
  "buffers": [
    {
      "byteLength": 805736,
      "uri": "data:application/octet-stream;base64,"
    }
  ],
  "materials": [
    {
      "doubleSided": true,
      "pbrMetallicRoughness": {
        "baseColorFactor": [
          0.82421875,
          0.82421875,
          0.82421875,
          1.0
        ],
        "metallicFactor": 0.0,
        "roughnessFactor": 0.4000000059604645
      }
    }
  ],
  "meshes": [
    {
      "primitives": [
        {
          "attributes": {
            "NORMAL": 2,
            "POSITION": 1,
            "TEXCOORD_0": 3
          },
          "indices": 0,
          "material": 0,
          "mode": 4
        }
      ]
    }
  ],
  "nodes": [
    {
      "mesh": 0
    }
  ],
  "scenes": [
    {
      "nodes": [
        0
      ]
    }
  ]
}
