{
  "accessors": [
    {
      "bufferView": 0,
      "componentType": 5125,
      "count": 50958,
      "type": "SCALAR"
    },
    {
      "bufferView": 1,
      "componentType": 5126,
      "count": 10347,
      "max": [
        0.103612009066405,
        0.1616319295858495,
        0.05563245410226031
      ],
      "min": [
        -0.10361200906640455,
        -0.1616319295858497,
        -0.05563245410226031
      ],
      "type": "VEC3"
    },
    {
      "bufferView": 2,
      "componentType": 5126,
      "count": 10347,
      "max": [
        0.999999516336194,
        0.9999999999966641,
        0.9999978127168007
      ],
      "min": [
        -0.9999999829876917,
        -0.9999999999969968,
        -0.9999978127168007
      ],
      "type": "VEC3"
    },
    {
      "bufferView": 3,
      "componentType": 5126,
      "count": 10347,
      "max": [
        0.9663406398990264,
        1.0
      ],
      "min": [
        0.0,
        0.0
      ],
      "type": "VEC2"
    }
  ],
  "asset": {
    "generator": "Adobe Illustrator",
    "version": "2.0"
  },
  "bufferViews": [
    {
      "buffer": 0,
      "byteLength": 203832,
      "target": 34963
    },
    {
      "buffer": 0,
      "byteLength": 124164,
      "byteOffset": 203832,
      "target": 34962
    },
    {
      "buffer": 0,
      "byteLength": 124164,
      "byteOffset": 327996,
      "target": 34962
    },
    {
      "buffer": 0,
      "byteLength": 82776,
      "byteOffset": 452160,
      "target": 34962
    }
  ],
  "buffers": [
    {
      "byteLength": 534936,
      "uri": "data:application/octet-stream;base64,"
    }
  ],
  "materials": [
    {
      "doubleSided": true,
      "pbrMetallicRoughness": {
        "baseColorFactor": [
          0.82421875,
          0.82421875,
          0.82421875,
          1.0
        ],
        "metallicFactor": 0.0,
        "roughnessFactor": 0.4000000059604645
      }
    }
  ],
  "meshes": [
    {
      "primitives": [
        {
          "attributes": {
            "NORMAL": 2,
            "POSITION": 1,
            "TEXCOORD_0": 3
          },
          "indices": 0,
          "material": 0,
          "mode": 4
        }
      ]
    }
  ],
  "nodes": [
    {
      "mesh": 0
    }
  ],
  "scenes": [
    {
      "nodes": [
        0
      ]
    }
  ]
}
