{
  "accessors": [
    {
      "bufferView": 0,
      "componentType": 5125,
      "count": 47802,
      "type": "SCALAR"
    },
    {
      "bufferView": 1,
      "componentType": 5126,
      "count": 9451,
      "max": [
        0.01591942429077814,
        0.16353603107367287,
        0.06926198136550096
      ],
      "min": [
        -0.13385540767968374,
        -0.10587607151451639,
        -0.06926198136550096
      ],
      "type": "VEC3"
    },
    {
      "bufferView": 2,
      "componentType": 5126,
      "count": 9451,
      "max": [
        1.0,
        1.0,
        0.9996817951915388
      ],
      "min": [
        -0.9999999762107392,
        -1.0,
        -0.9996817951915388
      ],
      "type": "VEC3"
    },
    {
      "bufferView": 3,
      "componentType": 5126,
      "count": 9451,
      "max": [
        1.0,
        0.5445802713757669
      ],
      "min": [
        0.0,
        0.0
      ],
      "type": "VEC2"
    },
    {
      "bufferView": 4,
      "componentType": 5125,
      "count": 47826,
      "type": "SCALAR"
    },
    {
      "bufferView": 5,
      "componentType": 5126,
      "count": 9459,
      "max": [
        0.13385540767968374,
        0.10587587628029094,
        0.06926275075081917
      ],
      "min": [
        -0.01592136399525579,
        -0.16353603107367287,
        -0.06926275075081918
      ],
      "type": "VEC3"
    },
    {
      "bufferView": 6,
      "componentType": 5126,
      "count": 9459,
      "max": [
        1.0,
        1.0,
        0.9996817425810768
      ],
      "min": [
        -0.9999999751220188,
        -1.0,
        -0.9996817425810768
      ],
      "type": "VEC3"
    },
    {
      "bufferView": 7,
      "componentType": 5126,
      "count": 9459,
      "max": [
        1.0,
        0.5445917466550155
      ],
      "min": [
        0.0,
        0.0
      ],
      "type": "VEC2"
    }
  ],
  "asset": {
    "generator": "Adobe Illustrator",
    "version": "2.0"
  },
  "bufferViews": [
    {
      "buffer": 0,
      "byteLength": 191208,
      "target": 34963
    },
    {
      "buffer": 0,
      "byteLength": 113412,
      "byteOffset": 191208,
      "target": 34962
    },
    {
      "buffer": 0,
      "byteLength": 113412,
      "byteOffset": 304620,
      "target": 34962
    },
    {
      "buffer": 0,
      "byteLength": 75608,
      "byteOffset": 418032,
      "target": 34962
    },
    {
      "buffer": 0,
      "byteLength": 191304,
      "byteOffset": 493640,
      "target": 34963
    },
    {
      "buffer": 0,
      "byteLength": 113508,
      "byteOffset": 684944,
      "target": 34962
    },
    {
      "buffer": 0,
      "byteLength": 113508,
      "byteOffset": 798452,
      "target": 34962
    },
    {
      "buffer": 0,
      "byteLength": 75672,
      "byteOffset": 911960,
      "target": 34962
    }
  ],
  "buffers": [
    {
      "byteLength": 987632,
      "uri": "data:application/octet-stream;base64,"
    }
  ],
  "materials": [
    {
      "doubleSided": true,
      "pbrMetallicRoughness": {
        "baseColorFactor": [
          0.82421875,
          0.82421875,
          0.82421875,
          1.0
        ],
        "metallicFactor": 0.0,
        "roughnessFactor": 0.4000000059604645
      }
    },
    {
      "doubleSided": true,
      "pbrMetallicRoughness": {
        "baseColorFactor": [
          0.82421875,
          0.82421875,
          0.82421875,
          1.0
        ],
        "metallicFactor": 0.0,
        "roughnessFactor": 0.4000000059604645
      }
    }
  ],
  "meshes": [
    {
      "primitives": [
        {
          "attributes": {
            "NORMAL": 2,
            "POSITION": 1,
            "TEXCOORD_0": 3
          },
          "indices": 0,
          "material": 0,
          "mode": 4
        }
      ]
    },
    {
      "primitives": [
        {
          "attributes": {
            "NORMAL": 6,
            "POSITION": 5,
            "TEXCOORD_0": 7
          },
          "indices": 4,
          "material": 1,
          "mode": 4
        }
      ]
    }
  ],
  "nodes": [
    {
      "mesh": 0
    },
    {
      "mesh": 1
    }
  ],
  "scenes": [
    {
      "nodes": [
        0,
        1
      ]
    }
  ]
}
