{
  "accessors": [
    {
      "bufferView": 0,
      "componentType": 5125,
      "count": 59034,
      "type": "SCALAR"
    },
    {
      "bufferView": 1,
      "componentType": 5126,
      "count": 12065,
      "max": [
        0.1641302763053889,
        0.15615730351630064,
        0.05600093071647052
      ],
      "min": [
        -0.1641302763053888,
        -0.15615730351630064,
        -0.05600093071647052
      ],
      "type": "VEC3"
    },
    {
      "bufferView": 2,
      "componentType": 5126,
      "count": 12065,
      "max": [
        0.9999999985283294,
        0.9999999999971726,
        0.9999397478094545
      ],
      "min": [
        -0.9999999985577948,
        -0.9999999697409476,
        -0.9999397478094545
      ],
      "type": "VEC3"
    },
    {
      "bufferView": 3,
      "componentType": 5126,
      "count": 12065,
      "max": [
        0.9986214924293864,
        1.0
      ],
      "min": [
        0.0,
        0.0
      ],
      "type": "VEC2"
    }
  ],
  "asset": {
    "generator": "Adobe Illustrator",
    "version": "2.0"
  },
  "bufferViews": [
    {
      "buffer": 0,
      "byteLength": 236136,
      "target": 34963
    },
    {
      "buffer": 0,
      "byteLength": 144780,
      "byteOffset": 236136,
      "target": 34962
    },
    {
      "buffer": 0,
      "byteLength": 144780,
      "byteOffset": 380916,
      "target": 34962
    },
    {
      "buffer": 0,
      "byteLength": 96520,
      "byteOffset": 525696,
      "target": 34962
    }
  ],
  "buffers": [
    {
      "byteLength": 622216,
      "uri": "data:application/octet-stream;base64,"
    }
  ],
  "materials": [
    {
      "doubleSided": true,
      "pbrMetallicRoughness": {
        "baseColorFactor": [
          0.82421875,
          0.82421875,
          0.82421875,
          1.0
        ],
        "metallicFactor": 0.0,
        "roughnessFactor": 0.4000000059604645
      }
    }
  ],
  "meshes": [
    {
      "primitives": [
        {
          "attributes": {
            "NORMAL": 2,
            "POSITION": 1,
            "TEXCOORD_0": 3
          },
          "indices": 0,
          "material": 0,
          "mode": 4
        }
      ]
    }
  ],
  "nodes": [
    {
      "mesh": 0
    }
  ],
  "scenes": [
    {
      "nodes": [
        0
      ]
    }
  ]
}
