{
  "accessors": [
    {
      "bufferView": 0,
      "componentType": 5125,
      "count": 52770,
      "type": "SCALAR"
    },
    {
      "bufferView": 1,
      "componentType": 5126,
      "count": 10821,
      "max": [
        0.06696734636779578,
        0.13469271031869842,
        0.04854014214883843
      ],
      "min": [
        -0.06696734636779589,
        -0.13469271031869845,
        -0.04854014214883843
      ],
      "type": "VEC3"
    },
    {
      "bufferView": 2,
      "componentType": 5126,
      "count": 10821,
      "max": [
        0.9999972945515083,
        0.9999928533384677,
        0.9996941922862669
      ],
      "min": [
        -0.9999994999259962,
        -0.9999546060901099,
        -0.9996941922862669
      ],
      "type": "VEC3"
    },
    {
      "bufferView": 3,
      "componentType": 5126,
      "count": 10821,
      "max": [
        1.0,
        0.59905221568671
      ],
      "min": [
        0.0,
        0.0
      ],
      "type": "VEC2"
    }
  ],
  "asset": {
    "generator": "Adobe Illustrator",
    "version": "2.0"
  },
  "bufferViews": [
    {
      "buffer": 0,
      "byteLength": 211080,
      "target": 34963
    },
    {
      "buffer": 0,
      "byteLength": 129852,
      "byteOffset": 211080,
      "target": 34962
    },
    {
      "buffer": 0,
      "byteLength": 129852,
      "byteOffset": 340932,
      "target": 34962
    },
    {
      "buffer": 0,
      "byteLength": 86568,
      "byteOffset": 470784,
      "target": 34962
    }
  ],
  "buffers": [
    {
      "byteLength": 557352,
      "uri": "data:application/octet-stream;base64,"
    }
  ],
  "materials": [
    {
      "doubleSided": true,
      "pbrMetallicRoughness": {
        "baseColorFactor": [
          0.82421875,
          0.82421875,
          0.82421875,
          1.0
        ],
        "metallicFactor": 0.0,
        "roughnessFactor": 0.4000000059604645
      }
    }
  ],
  "meshes": [
    {
      "primitives": [
        {
          "attributes": {
            "NORMAL": 2,
            "POSITION": 1,
            "TEXCOORD_0": 3
          },
          "indices": 0,
          "material": 0,
          "mode": 4
        }
      ]
    }
  ],
  "nodes": [
    {
      "mesh": 0
    }
  ],
  "scenes": [
    {
      "nodes": [
        0
      ]
    }
  ]
}
