{
  "accessors": [
    {
      "bufferView": 0,
      "componentType": 5125,
      "count": 43848,
      "type": "SCALAR"
    },
    {
      "bufferView": 1,
      "componentType": 5126,
      "count": 8342,
      "max": [
        0.15833241876287563,
        0.047440636909600986,
        0.0372194406660897
      ],
      "min": [
        0.0873603502763296,
        -0.023531041004515085,
        -0.03721944066608969
      ],
      "type": "VEC3"
    },
    {
      "bufferView": 2,
      "componentType": 5126,
      "count": 8342,
      "max": [
        0.9999999999999981,
        0.9999999999999981,
        0.9997837227367834
      ],
      "min": [
        -0.9999999999999981,
        -0.9999999999999981,
        -0.9997837227367834
      ],
      "type": "VEC3"
    },
    {
      "bufferView": 3,
      "componentType": 5126,
      "count": 8342,
      "max": [
        0.89661641086752,
        1.0
      ],
      "min": [
        0.0,
        0.0
      ],
      "type": "VEC2"
    },
    {
      "bufferView": 4,
      "componentType": 5125,
      "count": 68304,
      "type": "SCALAR"
    },
    {
      "bufferView": 5,
      "componentType": 5126,
      "count": 13660,
      "max": [
        0.13314941157928395,
        0.14572301939178067,
        0.0563353920053039
      ],
      "min": [
        -0.15833241876287563,
        -0.14572301939178045,
        -0.0563353920053039
      ],
      "type": "VEC3"
    },
    {
      "bufferView": 6,
      "componentType": 5126,
      "count": 13660,
      "max": [
        0.9999993972649335,
        0.9999999999971678,
        0.9999635558954945
      ],
      "min": [
        -0.9999998725572197,
        -0.9999957309603194,
        -0.9999635558954945
      ],
      "type": "VEC3"
    },
    {
      "bufferView": 7,
      "componentType": 5126,
      "count": 13660,
      "max": [
        0.97118013924249,
        1.0
      ],
      "min": [
        0.0,
        0.0
      ],
      "type": "VEC2"
    }
  ],
  "asset": {
    "generator": "Adobe Illustrator",
    "version": "2.0"
  },
  "bufferViews": [
    {
      "buffer": 0,
      "byteLength": 175392,
      "target": 34963
    },
    {
      "buffer": 0,
      "byteLength": 100104,
      "byteOffset": 175392,
      "target": 34962
    },
    {
      "buffer": 0,
      "byteLength": 100104,
      "byteOffset": 275496,
      "target": 34962
    },
    {
      "buffer": 0,
      "byteLength": 66736,
      "byteOffset": 375600,
      "target": 34962
    },
    {
      "buffer": 0,
      "byteLength": 273216,
      "byteOffset": 442336,
      "target": 34963
    },
    {
      "buffer": 0,
      "byteLength": 163920,
      "byteOffset": 715552,
      "target": 34962
    },
    {
      "buffer": 0,
      "byteLength": 163920,
      "byteOffset": 879472,
      "target": 34962
    },
    {
      "buffer": 0,
      "byteLength": 109280,
      "byteOffset": 1043392,
      "target": 34962
    }
  ],
  "buffers": [
    {
      "byteLength": 1152672,
      "uri": "data:application/octet-stream;base64,"
    }
  ],
  "materials": [
    {
      "doubleSided": true,
      "pbrMetallicRoughness": {
        "baseColorFactor": [
          0.82421875,
          0.82421875,
          0.82421875,
          1.0
        ],
        "metallicFactor": 0.0,
        "roughnessFactor": 0.4000000059604645
      }
    },
    {
      "doubleSided": true,
      "pbrMetallicRoughness": {
        "baseColorFactor": [
          0.82421875,
          0.82421875,
          0.82421875,
          1.0
        ],
        "metallicFactor": 0.0,
        "roughnessFactor": 0.4000000059604645
      }
    }
  ],
  "meshes": [
    {
      "primitives": [
        {
          "attributes": {
            "NORMAL": 2,
            "POSITION": 1,
            "TEXCOORD_0": 3
          },
          "indices": 0,
          "material": 0,
          "mode": 4
        }
      ]
    },
    {
      "primitives": [
        {
          "attributes": {
            "NORMAL": 6,
            "POSITION": 5,
            "TEXCOORD_0": 7
          },
          "indices": 4,
          "material": 1,
          "mode": 4
        }
      ]
    }
  ],
  "nodes": [
    {
      "mesh": 0
    },
    {
      "mesh": 1
    }
  ],
  "scenes": [
    {
      "nodes": [
        0,
        1
      ]
    }
  ]
}
