{
  "accessors": [
    {
      "bufferView": 0,
      "componentType": 5125,
      "count": 56208,
      "type": "SCALAR"
    },
    {
      "bufferView": 1,
      "componentType": 5126,
      "count": 11786,
      "max": [
        0.12061375389227491,
        0.13347552272583563,
        0.07010189128673681
      ],
      "min": [
        -0.12061375389227469,
        -0.13347552272583552,
        -0.07010189128673681
      ],
      "type": "VEC3"
    },
    {
      "bufferView": 2,
      "componentType": 5126,
      "count": 11786,
      "max": [
        0.999999839282044,
        0.9999999380336697,
        0.9997641447145248
      ],
      "min": [
        -0.9999998359502297,
        -0.9999431071271898,
        -0.9997641447145248
      ],
      "type": "VEC3"
    },
    {
      "bufferView": 3,
      "componentType": 5126,
      "count": 11786,
      "max": [
        1.0,
        0.6169749257524293
      ],
      "min": [
        0.0,
        0.0
      ],
      "type": "VEC2"
    }
  ],
  "asset": {
    "generator": "Adobe Illustrator",
    "version": "2.0"
  },
  "bufferViews": [
    {
      "buffer": 0,
      "byteLength": 224832,
      "target": 34963
    },
    {
      "buffer": 0,
      "byteLength": 141432,
      "byteOffset": 224832,
      "target": 34962
    },
    {
      "buffer": 0,
      "byteLength": 141432,
      "byteOffset": 366264,
      "target": 34962
    },
    {
      "buffer": 0,
      "byteLength": 94288,
      "byteOffset": 507696,
      "target": 34962
    }
  ],
  "buffers": [
    {
      "byteLength": 601984,
      "uri": "data:application/octet-stream;base64,"
    }
  ],
  "materials": [
    {
      "doubleSided": true,
      "pbrMetallicRoughness": {
        "baseColorFactor": [
          0.82421875,
          0.82421875,
          0.82421875,
          1.0
        ],
        "metallicFactor": 0.0,
        "roughnessFactor": 0.4000000059604645
      }
    }
  ],
  "meshes": [
    {
      "primitives": [
        {
          "attributes": {
            "NORMAL": 2,
            "POSITION": 1,
            "TEXCOORD_0": 3
          },
          "indices": 0,
          "material": 0,
          "mode": 4
        }
      ]
    }
  ],
  "nodes": [
    {
      "mesh": 0
    }
  ],
  "scenes": [
    {
      "nodes": [
        0
      ]
    }
  ]
}
