{
  "accessors": [
    {
      "bufferView": 0,
      "componentType": 5125,
      "count": 43848,
      "type": "SCALAR"
    },
    {
      "bufferView": 1,
      "componentType": 5126,
      "count": 8342,
      "max": [
        0.05263609937050595,
        0.015509734959878507,
        0.03722619272750436
      ],
      "min": [
        -0.018349575458128653,
        -0.05547554922144782,
        -0.037226192727504354
      ],
      "type": "VEC3"
    },
    {
      "bufferView": 2,
      "componentType": 5126,
      "count": 8342,
      "max": [
        0.9999999999975114,
        0.9999999999975109,
        0.9997837227367834
      ],
      "min": [
        -0.9999999999972257,
        -0.9999999999972262,
        -0.9997837227367834
      ],
      "type": "VEC3"
    },
    {
      "bufferView": 3,
      "componentType": 5126,
      "count": 8342,
      "max": [
        0.89661641086752,
        1.0
      ],
      "min": [
        0.0,
        0.0
      ],
      "type": "VEC2"
    },
    {
      "bufferView": 4,
      "componentType": 5125,
      "count": 77544,
      "type": "SCALAR"
    },
    {
      "bufferView": 5,
      "componentType": 5126,
      "count": 15964,
      "max": [
        0.1625417107974212,
        0.16261601145504256,
        0.05127003928967751
      ],
      "min": [
        -0.16254171079742086,
        -0.16261601145504256,
        -0.05127003928967751
      ],
      "type": "VEC3"
    },
    {
      "bufferView": 6,
      "componentType": 5126,
      "count": 15964,
      "max": [
        0.9999999999966719,
        0.9999992079746965,
        0.9999660162543077
      ],
      "min": [
        -0.9999999884660244,
        -0.9999999999999981,
        -0.9999660162543077
      ],
      "type": "VEC3"
    },
    {
      "bufferView": 7,
      "componentType": 5126,
      "count": 15964,
      "max": [
        1.0,
        0.5583724775393121
      ],
      "min": [
        0.0,
        0.0
      ],
      "type": "VEC2"
    }
  ],
  "asset": {
    "generator": "Adobe Illustrator",
    "version": "2.0"
  },
  "bufferViews": [
    {
      "buffer": 0,
      "byteLength": 175392,
      "target": 34963
    },
    {
      "buffer": 0,
      "byteLength": 100104,
      "byteOffset": 175392,
      "target": 34962
    },
    {
      "buffer": 0,
      "byteLength": 100104,
      "byteOffset": 275496,
      "target": 34962
    },
    {
      "buffer": 0,
      "byteLength": 66736,
      "byteOffset": 375600,
      "target": 34962
    },
    {
      "buffer": 0,
      "byteLength": 310176,
      "byteOffset": 442336,
      "target": 34963
    },
    {
      "buffer": 0,
      "byteLength": 191568,
      "byteOffset": 752512,
      "target": 34962
    },
    {
      "buffer": 0,
      "byteLength": 191568,
      "byteOffset": 944080,
      "target": 34962
    },
    {
      "buffer": 0,
      "byteLength": 127712,
      "byteOffset": 1135648,
      "target": 34962
    }
  ],
  "buffers": [
    {
      "byteLength": 1263360,
      "uri": "data:application/octet-stream;base64,"
    }
  ],
  "materials": [
    {
      "doubleSided": true,
      "pbrMetallicRoughness": {
        "baseColorFactor": [
          0.82421875,
          0.82421875,
          0.82421875,
          1.0
        ],
        "metallicFactor": 0.0,
        "roughnessFactor": 0.4000000059604645
      }
    },
    {
      "doubleSided": true,
      "pbrMetallicRoughness": {
        "baseColorFactor": [
          0.82421875,
          0.82421875,
          0.82421875,
          1.0
        ],
        "metallicFactor": 0.0,
        "roughnessFactor": 0.4000000059604645
      }
    }
  ],
  "meshes": [
    {
      "primitives": [
        {
          "attributes": {
            "NORMAL": 2,
            "POSITION": 1,
            "TEXCOORD_0": 3
          },
          "indices": 0,
          "material": 0,
          "mode": 4
        }
      ]
    },
    {
      "primitives": [
        {
          "attributes": {
            "NORMAL": 6,
            "POSITION": 5,
            "TEXCOORD_0": 7
          },
          "indices": 4,
          "material": 1,
          "mode": 4
        }
      ]
    }
  ],
  "nodes": [
    {
      "mesh": 0
    },
    {
      "mesh": 1
    }
  ],
  "scenes": [
    {
      "nodes": [
        0,
        1
      ]
    }
  ]
}
