{
  "accessors": [
    {
      "bufferView": 0,
      "componentType": 5125,
      "count": 44400,
      "type": "SCALAR"
    },
    {
      "bufferView": 1,
      "componentType": 5126,
      "count": 8496,
      "max": [
        0.04244220937361476,
        0.13134322353433436,
        0.024148132505790298
      ],
      "min": [
        -0.042442163521552834,
        0.09734107593051444,
        -0.0241481325057903
      ],
      "type": "VEC3"
    },
    {
      "bufferView": 2,
      "componentType": 5126,
      "count": 8496,
      "max": [
        0.9999999999999475,
        1.0,
        0.9995326772607792
      ],
      "min": [
        -0.9999999999999475,
        -1.0,
        -0.9995326772607792
      ],
      "type": "VEC3"
    },
    {
      "bufferView": 3,
      "componentType": 5126,
      "count": 8496,
      "max": [
        1.0,
        0.9920350233803935
      ],
      "min": [
        0.0,
        0.0
      ],
      "type": "VEC2"
    },
    {
      "bufferView": 4,
      "componentType": 5125,
      "count": 81054,
      "type": "SCALAR"
    },
    {
      "bufferView": 5,
      "componentType": 5126,
      "count": 16299,
      "max": [
        0.1479895773745472,
        0.08555943458471083,
        0.05716221786406286
      ],
      "min": [
        -0.1479895773745472,
        -0.13134322353433525,
        -0.05716221786406286
      ],
      "type": "VEC3"
    },
    {
      "bufferView": 6,
      "componentType": 5126,
      "count": 16299,
      "max": [
        0.9999651630577234,
        1.0,
        0.9998809367931297
      ],
      "min": [
        -0.9999996701542435,
        -0.9999999999999993,
        -0.9998809367931297
      ],
      "type": "VEC3"
    },
    {
      "bufferView": 7,
      "componentType": 5126,
      "count": 16299,
      "max": [
        0.6323412387635811,
        1.0
      ],
      "min": [
        0.0,
        0.0
      ],
      "type": "VEC2"
    }
  ],
  "asset": {
    "generator": "Adobe Illustrator",
    "version": "2.0"
  },
  "bufferViews": [
    {
      "buffer": 0,
      "byteLength": 177600,
      "target": 34963
    },
    {
      "buffer": 0,
      "byteLength": 101952,
      "byteOffset": 177600,
      "target": 34962
    },
    {
      "buffer": 0,
      "byteLength": 101952,
      "byteOffset": 279552,
      "target": 34962
    },
    {
      "buffer": 0,
      "byteLength": 67968,
      "byteOffset": 381504,
      "target": 34962
    },
    {
      "buffer": 0,
      "byteLength": 324216,
      "byteOffset": 449472,
      "target": 34963
    },
    {
      "buffer": 0,
      "byteLength": 195588,
      "byteOffset": 773688,
      "target": 34962
    },
    {
      "buffer": 0,
      "byteLength": 195588,
      "byteOffset": 969276,
      "target": 34962
    },
    {
      "buffer": 0,
      "byteLength": 130392,
      "byteOffset": 1164864,
      "target": 34962
    }
  ],
  "buffers": [
    {
      "byteLength": 1295256,
      "uri": "data:application/octet-stream;base64,"
    }
  ],
  "materials": [
    {
      "doubleSided": true,
      "pbrMetallicRoughness": {
        "baseColorFactor": [
          0.82421875,
          0.82421875,
          0.82421875,
          1.0
        ],
        "metallicFactor": 0.0,
        "roughnessFactor": 0.4000000059604645
      }
    },
    {
      "doubleSided": true,
      "pbrMetallicRoughness": {
        "baseColorFactor": [
          0.82421875,
          0.82421875,
          0.82421875,
          1.0
        ],
        "metallicFactor": 0.0,
        "roughnessFactor": 0.4000000059604645
      }
    }
  ],
  "meshes": [
    {
      "primitives": [
        {
          "attributes": {
            "NORMAL": 2,
            "POSITION": 1,
            "TEXCOORD_0": 3
          },
          "indices": 0,
          "material": 0,
          "mode": 4
        }
      ]
    },
    {
      "primitives": [
        {
          "attributes": {
            "NORMAL": 6,
            "POSITION": 5,
            "TEXCOORD_0": 7
          },
          "indices": 4,
          "material": 1,
          "mode": 4
        }
      ]
    }
  ],
  "nodes": [
    {
      "mesh": 0
    },
    {
      "mesh": 1
    }
  ],
  "scenes": [
    {
      "nodes": [
        0,
        1
      ]
    }
  ]
}
