{
  "accessors": [
    {
      "bufferView": 0,
      "componentType": 5125,
      "count": 50940,
      "type": "SCALAR"
    },
    {
      "bufferView": 1,
      "componentType": 5126,
      "count": 10328,
      "max": [
        0.12926531044148876,
        0.15618202737723785,
        0.05098233828575456
      ],
      "min": [
        -0.12926531044148867,
        -0.15618202737723763,
        -0.05098233828575456
      ],
      "type": "VEC3"
    },
    {
      "bufferView": 2,
      "componentType": 5126,
      "count": 10328,
      "max": [
        0.9999991981967783,
        1.0,
        0.9999974819451188
      ],
      "min": [
        -1.0,
        -1.0,
        -0.9999974819451188
      ],
      "type": "VEC3"
    },
    {
      "bufferView": 3,
      "componentType": 5126,
      "count": 10328,
      "max": [
        1.0,
        0.6462972046193144
      ],
      "min": [
        0.0,
        0.0
      ],
      "type": "VEC2"
    }
  ],
  "asset": {
    "generator": "Adobe Illustrator",
    "version": "2.0"
  },
  "bufferViews": [
    {
      "buffer": 0,
      "byteLength": 203760,
      "target": 34963
    },
    {
      "buffer": 0,
      "byteLength": 123936,
      "byteOffset": 203760,
      "target": 34962
    },
    {
      "buffer": 0,
      "byteLength": 123936,
      "byteOffset": 327696,
      "target": 34962
    },
    {
      "buffer": 0,
      "byteLength": 82624,
      "byteOffset": 451632,
      "target": 34962
    }
  ],
  "buffers": [
    {
      "byteLength": 534256,
      "uri": "data:application/octet-stream;base64,"
    }
  ],
  "materials": [
    {
      "doubleSided": true,
      "pbrMetallicRoughness": {
        "baseColorFactor": [
          0.82421875,
          0.82421875,
          0.82421875,
          1.0
        ],
        "metallicFactor": 0.0,
        "roughnessFactor": 0.4000000059604645
      }
    }
  ],
  "meshes": [
    {
      "primitives": [
        {
          "attributes": {
            "NORMAL": 2,
            "POSITION": 1,
            "TEXCOORD_0": 3
          },
          "indices": 0,
          "material": 0,
          "mode": 4
        }
      ]
    }
  ],
  "nodes": [
    {
      "mesh": 0
    }
  ],
  "scenes": [
    {
      "nodes": [
        0
      ]
    }
  ]
}
