{
  "accessors": [
    {
      "bufferView": 0,
      "componentType": 5125,
      "count": 54312,
      "type": "SCALAR"
    },
    {
      "bufferView": 1,
      "componentType": 5126,
      "count": 11008,
      "max": [
        0.12634459103456575,
        0.16659003493165603,
        0.05413244280933229
      ],
      "min": [
        -0.12634459103456597,
        -0.16659003493165647,
        -0.05413244280933229
      ],
      "type": "VEC3"
    },
    {
      "bufferView": 2,
      "componentType": 5126,
      "count": 11008,
      "max": [
        0.9999999903578292,
        1.0,
        0.9999595545130121
      ],
      "min": [
        -1.0,
        -1.0,
        -0.9999595545130121
      ],
      "type": "VEC3"
    },
    {
      "bufferView": 3,
      "componentType": 5126,
      "count": 11008,
      "max": [
        1.0,
        0.6809820723573462
      ],
      "min": [
        0.0,
        0.0
      ],
      "type": "VEC2"
    }
  ],
  "asset": {
    "generator": "Adobe Illustrator",
    "version": "2.0"
  },
  "bufferViews": [
    {
      "buffer": 0,
      "byteLength": 217248,
      "target": 34963
    },
    {
      "buffer": 0,
      "byteLength": 132096,
      "byteOffset": 217248,
      "target": 34962
    },
    {
      "buffer": 0,
      "byteLength": 132096,
      "byteOffset": 349344,
      "target": 34962
    },
    {
      "buffer": 0,
      "byteLength": 88064,
      "byteOffset": 481440,
      "target": 34962
    }
  ],
  "buffers": [
    {
      "byteLength": 569504,
      "uri": "data:application/octet-stream;base64,"
    }
  ],
  "materials": [
    {
      "doubleSided": true,
      "pbrMetallicRoughness": {
        "baseColorFactor": [
          0.82421875,
          0.82421875,
          0.82421875,
          1.0
        ],
        "metallicFactor": 0.0,
        "roughnessFactor": 0.4000000059604645
      }
    }
  ],
  "meshes": [
    {
      "primitives": [
        {
          "attributes": {
            "NORMAL": 2,
            "POSITION": 1,
            "TEXCOORD_0": 3
          },
          "indices": 0,
          "material": 0,
          "mode": 4
        }
      ]
    }
  ],
  "nodes": [
    {
      "mesh": 0
    }
  ],
  "scenes": [
    {
      "nodes": [
        0
      ]
    }
  ]
}
