{
  "accessors": [
    {
      "bufferView": 0,
      "componentType": 5125,
      "count": 43848,
      "type": "SCALAR"
    },
    {
      "bufferView": 1,
      "componentType": 5126,
      "count": 8342,
      "max": [
        0.030826098987267958,
        0.15557441918801862,
        0.03721947608439608
      ],
      "min": [
        -0.040146040871901434,
        0.08460266990167176,
        -0.03721947608439608
      ],
      "type": "VEC3"
    },
    {
      "bufferView": 2,
      "componentType": 5126,
      "count": 8342,
      "max": [
        0.9999999999972257,
        0.9999999999972262,
        0.9997837227367834
      ],
      "min": [
        -0.9999999999975114,
        -0.9999999999975109,
        -0.9997837227367834
      ],
      "type": "VEC3"
    },
    {
      "bufferView": 3,
      "componentType": 5126,
      "count": 8342,
      "max": [
        0.89661641086752,
        1.0
      ],
      "min": [
        0.0,
        0.0
      ],
      "type": "VEC2"
    },
    {
      "bufferView": 4,
      "componentType": 5125,
      "count": 51990,
      "type": "SCALAR"
    },
    {
      "bufferView": 5,
      "componentType": 5126,
      "count": 10505,
      "max": [
        0.1426393012423428,
        0.1552109904910628,
        0.06438030128365488
      ],
      "min": [
        -0.14263930124234303,
        -0.15557441918801818,
        -0.06438030128365488
      ],
      "type": "VEC3"
    },
    {
      "bufferView": 6,
      "componentType": 5126,
      "count": 10505,
      "max": [
        0.9999998037226833,
        0.9999999629699771,
        0.9999887718066223
      ],
      "min": [
        -0.9999999921860003,
        -0.999999992717255,
        -0.9999887718066223
      ],
      "type": "VEC3"
    },
    {
      "bufferView": 7,
      "componentType": 5126,
      "count": 10505,
      "max": [
        1.0,
        0.5624528664958408
      ],
      "min": [
        0.0,
        0.0
      ],
      "type": "VEC2"
    }
  ],
  "asset": {
    "generator": "Adobe Illustrator",
    "version": "2.0"
  },
  "bufferViews": [
    {
      "buffer": 0,
      "byteLength": 175392,
      "target": 34963
    },
    {
      "buffer": 0,
      "byteLength": 100104,
      "byteOffset": 175392,
      "target": 34962
    },
    {
      "buffer": 0,
      "byteLength": 100104,
      "byteOffset": 275496,
      "target": 34962
    },
    {
      "buffer": 0,
      "byteLength": 66736,
      "byteOffset": 375600,
      "target": 34962
    },
    {
      "buffer": 0,
      "byteLength": 207960,
      "byteOffset": 442336,
      "target": 34963
    },
    {
      "buffer": 0,
      "byteLength": 126060,
      "byteOffset": 650296,
      "target": 34962
    },
    {
      "buffer": 0,
      "byteLength": 126060,
      "byteOffset": 776356,
      "target": 34962
    },
    {
      "buffer": 0,
      "byteLength": 84040,
      "byteOffset": 902416,
      "target": 34962
    }
  ],
  "buffers": [
    {
      "byteLength": 986456,
      "uri": "data:application/octet-stream;base64,"
    }
  ],
  "materials": [
    {
      "doubleSided": true,
      "pbrMetallicRoughness": {
        "baseColorFactor": [
          0.82421875,
          0.82421875,
          0.82421875,
          1.0
        ],
        "metallicFactor": 0.0,
        "roughnessFactor": 0.4000000059604645
      }
    },
    {
      "doubleSided": true,
      "pbrMetallicRoughness": {
        "baseColorFactor": [
          0.82421875,
          0.82421875,
          0.82421875,
          1.0
        ],
        "metallicFactor": 0.0,
        "roughnessFactor": 0.4000000059604645
      }
    }
  ],
  "meshes": [
    {
      "primitives": [
        {
          "attributes": {
            "NORMAL": 2,
            "POSITION": 1,
            "TEXCOORD_0": 3
          },
          "indices": 0,
          "material": 0,
          "mode": 4
        }
      ]
    },
    {
      "primitives": [
        {
          "attributes": {
            "NORMAL": 6,
            "POSITION": 5,
            "TEXCOORD_0": 7
          },
          "indices": 4,
          "material": 1,
          "mode": 4
        }
      ]
    }
  ],
  "nodes": [
    {
      "mesh": 0
    },
    {
      "mesh": 1
    }
  ],
  "scenes": [
    {
      "nodes": [
        0,
        1
      ]
    }
  ]
}
