{
  "accessors": [
    {
      "bufferView": 0,
      "componentType": 5125,
      "count": 43836,
      "type": "SCALAR"
    },
    {
      "bufferView": 1,
      "componentType": 5126,
      "count": 8340,
      "max": [
        0.041564681422950556,
        0.07596123782497344,
        0.03721945265215275
      ],
      "min": [
        -0.02940806254554673,
        0.004988688077073533,
        -0.037219452652152756
      ],
      "type": "VEC3"
    },
    {
      "bufferView": 2,
      "componentType": 5126,
      "count": 8340,
      "max": [
        0.9999932959545015,
        0.9999908929858203,
        0.9997833756575512
      ],
      "min": [
        -0.9999908909464524,
        -0.9999977047014634,
        -0.9997833756575512
      ],
      "type": "VEC3"
    },
    {
      "bufferView": 3,
      "componentType": 5126,
      "count": 8340,
      "max": [
        0.8966152707516297,
        1.0
      ],
      "min": [
        0.0,
        0.0
      ],
      "type": "VEC2"
    },
    {
      "bufferView": 4,
      "componentType": 5125,
      "count": 46764,
      "type": "SCALAR"
    },
    {
      "bufferView": 5,
      "componentType": 5126,
      "count": 9154,
      "max": [
        0.024037235271834212,
        -0.04304908690216536,
        0.04479117016824504
      ],
      "min": [
        -0.13377390255051347,
        -0.1738619495276552,
        -0.04479117016824504
      ],
      "type": "VEC3"
    },
    {
      "bufferView": 6,
      "componentType": 5126,
      "count": 9154,
      "max": [
        0.999985167329577,
        0.9999999313338485,
        0.9999345579636782
      ],
      "min": [
        -0.9999950669938992,
        -0.9999997631048041,
        -0.9999345579636782
      ],
      "type": "VEC3"
    },
    {
      "bufferView": 7,
      "componentType": 5126,
      "count": 9154,
      "max": [
        0.5608240049375736,
        1.0
      ],
      "min": [
        0.0,
        0.0
      ],
      "type": "VEC2"
    },
    {
      "bufferView": 8,
      "componentType": 5125,
      "count": 51564,
      "type": "SCALAR"
    },
    {
      "bufferView": 9,
      "componentType": 5126,
      "count": 10494,
      "max": [
        0.1638221812884133,
        0.17386194952765566,
        0.052710541334286536
      ],
      "min": [
        -0.1638221812884133,
        -0.08335699508117989,
        -0.052710541334286536
      ],
      "type": "VEC3"
    },
    {
      "bufferView": 10,
      "componentType": 5126,
      "count": 10494,
      "max": [
        0.9999998358507329,
        0.9999999165479914,
        0.9999822042048664
      ],
      "min": [
        -0.9999995372878586,
        -0.9999997784804362,
        -0.9999822042048664
      ],
      "type": "VEC3"
    },
    {
      "bufferView": 11,
      "componentType": 5126,
      "count": 10494,
      "max": [
        1.0,
        0.9947582766796512
      ],
      "min": [
        0.0,
        0.0
      ],
      "type": "VEC2"
    }
  ],
  "asset": {
    "generator": "Adobe Illustrator",
    "version": "2.0"
  },
  "bufferViews": [
    {
      "buffer": 0,
      "byteLength": 175344,
      "target": 34963
    },
    {
      "buffer": 0,
      "byteLength": 100080,
      "byteOffset": 175344,
      "target": 34962
    },
    {
      "buffer": 0,
      "byteLength": 100080,
      "byteOffset": 275424,
      "target": 34962
    },
    {
      "buffer": 0,
      "byteLength": 66720,
      "byteOffset": 375504,
      "target": 34962
    },
    {
      "buffer": 0,
      "byteLength": 187056,
      "byteOffset": 442224,
      "target": 34963
    },
    {
      "buffer": 0,
      "byteLength": 109848,
      "byteOffset": 629280,
      "target": 34962
    },
    {
      "buffer": 0,
      "byteLength": 109848,
      "byteOffset": 739128,
      "target": 34962
    },
    {
      "buffer": 0,
      "byteLength": 73232,
      "byteOffset": 848976,
      "target": 34962
    },
    {
      "buffer": 0,
      "byteLength": 206256,
      "byteOffset": 922208,
      "target": 34963
    },
    {
      "buffer": 0,
      "byteLength": 125928,
      "byteOffset": 1128464,
      "target": 34962
    },
    {
      "buffer": 0,
      "byteLength": 125928,
      "byteOffset": 1254392,
      "target": 34962
    },
    {
      "buffer": 0,
      "byteLength": 83952,
      "byteOffset": 1380320,
      "target": 34962
    }
  ],
  "buffers": [
    {
      "byteLength": 1464272,
      "uri": "data:application/octet-stream;base64,"
    }
  ],
  "materials": [
    {
      "doubleSided": true,
      "pbrMetallicRoughness": {
        "baseColorFactor": [
          0.82421875,
          0.82421875,
          0.82421875,
          1.0
        ],
        "metallicFactor": 0.0,
        "roughnessFactor": 0.4000000059604645
      }
    },
    {
      "doubleSided": true,
      "pbrMetallicRoughness": {
        "baseColorFactor": [
          0.82421875,
          0.82421875,
          0.82421875,
          1.0
        ],
        "metallicFactor": 0.0,
        "roughnessFactor": 0.4000000059604645
      }
    },
    {
      "doubleSided": true,
      "pbrMetallicRoughness": {
        "baseColorFactor": [
          0.82421875,
          0.82421875,
          0.82421875,
          1.0
        ],
        "metallicFactor": 0.0,
        "roughnessFactor": 0.4000000059604645
      }
    }
  ],
  "meshes": [
    {
      "primitives": [
        {
          "attributes": {
            "NORMAL": 2,
            "POSITION": 1,
            "TEXCOORD_0": 3
          },
          "indices": 0,
          "material": 0,
          "mode": 4
        }
      ]
    },
    {
      "primitives": [
        {
          "attributes": {
            "NORMAL": 6,
            "POSITION": 5,
            "TEXCOORD_0": 7
          },
          "indices": 4,
          "material": 1,
          "mode": 4
        }
      ]
    },
    {
      "primitives": [
        {
          "attributes": {
            "NORMAL": 10,
            "POSITION": 9,
            "TEXCOORD_0": 11
          },
          "indices": 8,
          "material": 2,
          "mode": 4
        }
      ]
    }
  ],
  "nodes": [
    {
      "mesh": 0
    },
    {
      "mesh": 1
    },
    {
      "mesh": 2
    }
  ],
  "scenes": [
    {
      "nodes": [
        0,
        1,
        2
      ]
    }
  ]
}
