{
  "accessors": [
    {
      "bufferView": 0,
      "componentType": 5125,
      "count": 52944,
      "type": "SCALAR"
    },
    {
      "bufferView": 1,
      "componentType": 5126,
      "count": 10816,
      "max": [
        0.0647314260896037,
        0.1331942958898228,
        0.05127395471046468
      ],
      "min": [
        -0.0647314260896037,
        -0.13319429588982268,
        -0.051273954710464684
      ],
      "type": "VEC3"
    },
    {
      "bufferView": 2,
      "componentType": 5126,
      "count": 10816,
      "max": [
        0.9999999890112296,
        0.9999999556059327,
        0.9999585709586575
      ],
      "min": [
        -0.999999989009771,
        -0.9988395595555103,
        -0.9999585709586575
      ],
      "type": "VEC3"
    },
    {
      "bufferView": 3,
      "componentType": 5126,
      "count": 10816,
      "max": [
        1.0,
        0.5157694743589404
      ],
      "min": [
        0.0,
        0.0
      ],
      "type": "VEC2"
    }
  ],
  "asset": {
    "generator": "Adobe Illustrator",
    "version": "2.0"
  },
  "bufferViews": [
    {
      "buffer": 0,
      "byteLength": 211776,
      "target": 34963
    },
    {
      "buffer": 0,
      "byteLength": 129792,
      "byteOffset": 211776,
      "target": 34962
    },
    {
      "buffer": 0,
      "byteLength": 129792,
      "byteOffset": 341568,
      "target": 34962
    },
    {
      "buffer": 0,
      "byteLength": 86528,
      "byteOffset": 471360,
      "target": 34962
    }
  ],
  "buffers": [
    {
      "byteLength": 557888,
      "uri": "data:application/octet-stream;base64,"
    }
  ],
  "materials": [
    {
      "doubleSided": true,
      "pbrMetallicRoughness": {
        "baseColorFactor": [
          0.82421875,
          0.82421875,
          0.82421875,
          1.0
        ],
        "metallicFactor": 0.0,
        "roughnessFactor": 0.4000000059604645
      }
    }
  ],
  "meshes": [
    {
      "primitives": [
        {
          "attributes": {
            "NORMAL": 2,
            "POSITION": 1,
            "TEXCOORD_0": 3
          },
          "indices": 0,
          "material": 0,
          "mode": 4
        }
      ]
    }
  ],
  "nodes": [
    {
      "mesh": 0
    }
  ],
  "scenes": [
    {
      "nodes": [
        0
      ]
    }
  ]
}
