{
  "accessors": [
    {
      "bufferView": 0,
      "componentType": 5125,
      "count": 72024,
      "type": "SCALAR"
    },
    {
      "bufferView": 1,
      "componentType": 5126,
      "count": 14596,
      "max": [
        0.106525998341918,
        0.16369484512950594,
        0.05560911128771863
      ],
      "min": [
        -0.10652599834191778,
        -0.16369484512950594,
        -0.05560911128771862
      ],
      "type": "VEC3"
    },
    {
      "bufferView": 2,
      "componentType": 5126,
      "count": 14596,
      "max": [
        1.0,
        0.9999999987686599,
        0.9999654505292083
      ],
      "min": [
        -0.9999999999999989,
        -0.9999999975100383,
        -0.9999654505292083
      ],
      "type": "VEC3"
    },
    {
      "bufferView": 3,
      "componentType": 5126,
      "count": 14596,
      "max": [
        0.9763923345654583,
        1.0
      ],
      "min": [
        0.0,
        0.0
      ],
      "type": "VEC2"
    }
  ],
  "asset": {
    "generator": "Adobe Illustrator",
    "version": "2.0"
  },
  "bufferViews": [
    {
      "buffer": 0,
      "byteLength": 288096,
      "target": 34963
    },
    {
      "buffer": 0,
      "byteLength": 175152,
      "byteOffset": 288096,
      "target": 34962
    },
    {
      "buffer": 0,
      "byteLength": 175152,
      "byteOffset": 463248,
      "target": 34962
    },
    {
      "buffer": 0,
      "byteLength": 116768,
      "byteOffset": 638400,
      "target": 34962
    }
  ],
  "buffers": [
    {
      "byteLength": 755168,
      "uri": "data:application/octet-stream;base64,"
    }
  ],
  "materials": [
    {
      "doubleSided": true,
      "pbrMetallicRoughness": {
        "baseColorFactor": [
          0.82421875,
          0.82421875,
          0.82421875,
          1.0
        ],
        "metallicFactor": 0.0,
        "roughnessFactor": 0.4000000059604645
      }
    }
  ],
  "meshes": [
    {
      "primitives": [
        {
          "attributes": {
            "NORMAL": 2,
            "POSITION": 1,
            "TEXCOORD_0": 3
          },
          "indices": 0,
          "material": 0,
          "mode": 4
        }
      ]
    }
  ],
  "nodes": [
    {
      "mesh": 0
    }
  ],
  "scenes": [
    {
      "nodes": [
        0
      ]
    }
  ]
}
