{
  "accessors": [
    {
      "bufferView": 0,
      "componentType": 5125,
      "count": 54420,
      "type": "SCALAR"
    },
    {
      "bufferView": 1,
      "componentType": 5126,
      "count": 11254,
      "max": [
        0.09434193595011586,
        0.1326234722084625,
        0.06271950015667009
      ],
      "min": [
        -0.09434193595011597,
        -0.13262347220846243,
        -0.06271950015667009
      ],
      "type": "VEC3"
    },
    {
      "bufferView": 2,
      "componentType": 5126,
      "count": 11254,
      "max": [
        0.9999999948922088,
        0.9999948959884885,
        0.9997425098799484
      ],
      "min": [
        -0.9999996130882508,
        -0.9995284943668212,
        -0.9997425098799484
      ],
      "type": "VEC3"
    },
    {
      "bufferView": 3,
      "componentType": 5126,
      "count": 11254,
      "max": [
        1.0,
        0.6630884528975076
      ],
      "min": [
        0.0,
        0.0
      ],
      "type": "VEC2"
    }
  ],
  "asset": {
    "generator": "Adobe Illustrator",
    "version": "2.0"
  },
  "bufferViews": [
    {
      "buffer": 0,
      "byteLength": 217680,
      "target": 34963
    },
    {
      "buffer": 0,
      "byteLength": 135048,
      "byteOffset": 217680,
      "target": 34962
    },
    {
      "buffer": 0,
      "byteLength": 135048,
      "byteOffset": 352728,
      "target": 34962
    },
    {
      "buffer": 0,
      "byteLength": 90032,
      "byteOffset": 487776,
      "target": 34962
    }
  ],
  "buffers": [
    {
      "byteLength": 577808,
      "uri": "data:application/octet-stream;base64,"
    }
  ],
  "materials": [
    {
      "doubleSided": true,
      "pbrMetallicRoughness": {
        "baseColorFactor": [
          0.82421875,
          0.82421875,
          0.82421875,
          1.0
        ],
        "metallicFactor": 0.0,
        "roughnessFactor": 0.4000000059604645
      }
    }
  ],
  "meshes": [
    {
      "primitives": [
        {
          "attributes": {
            "NORMAL": 2,
            "POSITION": 1,
            "TEXCOORD_0": 3
          },
          "indices": 0,
          "material": 0,
          "mode": 4
        }
      ]
    }
  ],
  "nodes": [
    {
      "mesh": 0
    }
  ],
  "scenes": [
    {
      "nodes": [
        0
      ]
    }
  ]
}
