{
  "accessors": [
    {
      "bufferView": 0,
      "componentType": 5125,
      "count": 61800,
      "type": "SCALAR"
    },
    {
      "bufferView": 1,
      "componentType": 5126,
      "count": 12450,
      "max": [
        0.1434741580862211,
        0.16281140921913417,
        0.04821633502358459
      ],
      "min": [
        -0.14347415808622088,
        -0.16281140921913462,
        -0.04821633502358459
      ],
      "type": "VEC3"
    },
    {
      "bufferView": 2,
      "componentType": 5126,
      "count": 12450,
      "max": [
        0.9999999999977396,
        0.9999995984320941,
        0.999844840320877
      ],
      "min": [
        -0.9999999994785982,
        -0.9999969885218348,
        -0.999844840320877
      ],
      "type": "VEC3"
    },
    {
      "bufferView": 3,
      "componentType": 5126,
      "count": 12450,
      "max": [
        1.0,
        0.5952458014784157
      ],
      "min": [
        0.0,
        0.0
      ],
      "type": "VEC2"
    }
  ],
  "asset": {
    "generator": "Adobe Illustrator",
    "version": "2.0"
  },
  "bufferViews": [
    {
      "buffer": 0,
      "byteLength": 247200,
      "target": 34963
    },
    {
      "buffer": 0,
      "byteLength": 149400,
      "byteOffset": 247200,
      "target": 34962
    },
    {
      "buffer": 0,
      "byteLength": 149400,
      "byteOffset": 396600,
      "target": 34962
    },
    {
      "buffer": 0,
      "byteLength": 99600,
      "byteOffset": 546000,
      "target": 34962
    }
  ],
  "buffers": [
    {
      "byteLength": 645600,
      "uri": "data:application/octet-stream;base64,"
    }
  ],
  "materials": [
    {
      "doubleSided": true,
      "pbrMetallicRoughness": {
        "baseColorFactor": [
          0.82421875,
          0.82421875,
          0.82421875,
          1.0
        ],
        "metallicFactor": 0.0,
        "roughnessFactor": 0.4000000059604645
      }
    }
  ],
  "meshes": [
    {
      "primitives": [
        {
          "attributes": {
            "NORMAL": 2,
            "POSITION": 1,
            "TEXCOORD_0": 3
          },
          "indices": 0,
          "material": 0,
          "mode": 4
        }
      ]
    }
  ],
  "nodes": [
    {
      "mesh": 0
    }
  ],
  "scenes": [
    {
      "nodes": [
        0
      ]
    }
  ]
}
