{
  "accessors": [
    {
      "bufferView": 0,
      "componentType": 5125,
      "count": 50064,
      "type": "SCALAR"
    },
    {
      "bufferView": 1,
      "componentType": 5126,
      "count": 10104,
      "max": [
        0.11468808310064871,
        0.162882027211102,
        0.05400698041958119
      ],
      "min": [
        -0.11468808310064871,
        -0.16288202721110112,
        -0.05400698041958119
      ],
      "type": "VEC3"
    },
    {
      "bufferView": 2,
      "componentType": 5126,
      "count": 10104,
      "max": [
        0.9999995374461884,
        1.0,
        0.9999791054662559
      ],
      "min": [
        -1.0,
        -1.0,
        -0.9999791054662559
      ],
      "type": "VEC3"
    },
    {
      "bufferView": 3,
      "componentType": 5126,
      "count": 10104,
      "max": [
        1.0,
        0.7233074219631351
      ],
      "min": [
        0.0,
        0.0
      ],
      "type": "VEC2"
    }
  ],
  "asset": {
    "generator": "Adobe Illustrator",
    "version": "2.0"
  },
  "bufferViews": [
    {
      "buffer": 0,
      "byteLength": 200256,
      "target": 34963
    },
    {
      "buffer": 0,
      "byteLength": 121248,
      "byteOffset": 200256,
      "target": 34962
    },
    {
      "buffer": 0,
      "byteLength": 121248,
      "byteOffset": 321504,
      "target": 34962
    },
    {
      "buffer": 0,
      "byteLength": 80832,
      "byteOffset": 442752,
      "target": 34962
    }
  ],
  "buffers": [
    {
      "byteLength": 523584,
      "uri": "data:application/octet-stream;base64,"
    }
  ],
  "materials": [
    {
      "doubleSided": true,
      "pbrMetallicRoughness": {
        "baseColorFactor": [
          0.82421875,
          0.82421875,
          0.82421875,
          1.0
        ],
        "metallicFactor": 0.0,
        "roughnessFactor": 0.4000000059604645
      }
    }
  ],
  "meshes": [
    {
      "primitives": [
        {
          "attributes": {
            "NORMAL": 2,
            "POSITION": 1,
            "TEXCOORD_0": 3
          },
          "indices": 0,
          "material": 0,
          "mode": 4
        }
      ]
    }
  ],
  "nodes": [
    {
      "mesh": 0
    }
  ],
  "scenes": [
    {
      "nodes": [
        0
      ]
    }
  ]
}
