{
  "accessors": [
    {
      "bufferView": 0,
      "componentType": 5125,
      "count": 56016,
      "type": "SCALAR"
    },
    {
      "bufferView": 1,
      "componentType": 5126,
      "count": 11632,
      "max": [
        0.04727594363547838,
        0.06948397234191073,
        0.02057709747175612
      ],
      "min": [
        -0.04727594363547838,
        -0.06948397234191073,
        -0.020577097471756116
      ],
      "type": "VEC3"
    },
    {
      "bufferView": 2,
      "componentType": 5126,
      "count": 11632,
      "max": [
        0.9999999999999987,
        0.9999999559899037,
        0.9996486212858444
      ],
      "min": [
        -0.9999999926876256,
        -0.9999995616494789,
        -0.9996486212858444
      ],
      "type": "VEC3"
    },
    {
      "bufferView": 3,
      "componentType": 5126,
      "count": 11632,
      "max": [
        1.0,
        0.8016808722084926
      ],
      "min": [
        0.0,
        0.0
      ],
      "type": "VEC2"
    }
  ],
  "asset": {
    "generator": "Adobe Illustrator",
    "version": "2.0"
  },
  "bufferViews": [
    {
      "buffer": 0,
      "byteLength": 224064,
      "target": 34963
    },
    {
      "buffer": 0,
      "byteLength": 139584,
      "byteOffset": 224064,
      "target": 34962
    },
    {
      "buffer": 0,
      "byteLength": 139584,
      "byteOffset": 363648,
      "target": 34962
    },
    {
      "buffer": 0,
      "byteLength": 93056,
      "byteOffset": 503232,
      "target": 34962
    }
  ],
  "buffers": [
    {
      "byteLength": 596288,
      "uri": "data:application/octet-stream;base64,"
    }
  ],
  "materials": [
    {
      "doubleSided": true,
      "pbrMetallicRoughness": {
        "baseColorFactor": [
          0.82421875,
          0.82421875,
          0.82421875,
          1.0
        ],
        "metallicFactor": 0.0,
        "roughnessFactor": 0.4000000059604645
      }
    }
  ],
  "meshes": [
    {
      "primitives": [
        {
          "attributes": {
            "NORMAL": 2,
            "POSITION": 1,
            "TEXCOORD_0": 3
          },
          "indices": 0,
          "material": 0,
          "mode": 4
        }
      ]
    }
  ],
  "nodes": [
    {
      "mesh": 0
    }
  ],
  "scenes": [
    {
      "nodes": [
        0
      ]
    }
  ]
}
