{
  "accessors": [
    {
      "bufferView": 0,
      "componentType": 5125,
      "count": 53526,
      "type": "SCALAR"
    },
    {
      "bufferView": 1,
      "componentType": 5126,
      "count": 11045,
      "max": [
        0.07748598433674037,
        0.13994198871743346,
        0.026828779304226
      ],
      "min": [
        -0.07748598433674037,
        -0.13994198871743346,
        -0.026828779304226
      ],
      "type": "VEC3"
    },
    {
      "bufferView": 2,
      "componentType": 5126,
      "count": 11045,
      "max": [
        0.9999999390304738,
        0.9999999923695965,
        0.9999686699631689
      ],
      "min": [
        -0.9999999993690905,
        -0.999999999852748,
        -0.9999686699631689
      ],
      "type": "VEC3"
    },
    {
      "bufferView": 3,
      "componentType": 5126,
      "count": 11045,
      "max": [
        0.9155487290309081,
        1.0
      ],
      "min": [
        0.0,
        0.0
      ],
      "type": "VEC2"
    }
  ],
  "asset": {
    "generator": "Adobe Illustrator",
    "version": "2.0"
  },
  "bufferViews": [
    {
      "buffer": 0,
      "byteLength": 214104,
      "target": 34963
    },
    {
      "buffer": 0,
      "byteLength": 132540,
      "byteOffset": 214104,
      "target": 34962
    },
    {
      "buffer": 0,
      "byteLength": 132540,
      "byteOffset": 346644,
      "target": 34962
    },
    {
      "buffer": 0,
      "byteLength": 88360,
      "byteOffset": 479184,
      "target": 34962
    }
  ],
  "buffers": [
    {
      "byteLength": 567544,
      "uri": "data:application/octet-stream;base64,"
    }
  ],
  "materials": [
    {
      "doubleSided": true,
      "pbrMetallicRoughness": {
        "baseColorFactor": [
          0.82421875,
          0.82421875,
          0.82421875,
          1.0
        ],
        "metallicFactor": 0.0,
        "roughnessFactor": 0.4000000059604645
      }
    }
  ],
  "meshes": [
    {
      "primitives": [
        {
          "attributes": {
            "NORMAL": 2,
            "POSITION": 1,
            "TEXCOORD_0": 3
          },
          "indices": 0,
          "material": 0,
          "mode": 4
        }
      ]
    }
  ],
  "nodes": [
    {
      "mesh": 0
    }
  ],
  "scenes": [
    {
      "nodes": [
        0
      ]
    }
  ]
}
