{
  "accessors": [
    {
      "bufferView": 0,
      "componentType": 5125,
      "count": 42324,
      "type": "SCALAR"
    },
    {
      "bufferView": 1,
      "componentType": 5126,
      "count": 7954,
      "max": [
        0.051755369810399854,
        0.02344147889504622,
        0.033574078446083164
      ],
      "min": [
        -0.051755369810399854,
        -0.02344147889504622,
        -0.033574078446083164
      ],
      "type": "VEC3"
    },
    {
      "bufferView": 2,
      "componentType": 5126,
      "count": 7954,
      "max": [
        1.0,
        1.0,
        0.9997117239581891
      ],
      "min": [
        -1.0,
        -1.0,
        -0.9997117239581891
      ],
      "type": "VEC3"
    },
    {
      "bufferView": 3,
      "componentType": 5126,
      "count": 7954,
      "max": [
        0.9334040398327268,
        1.0
      ],
      "min": [
        0.0,
        0.0
      ],
      "type": "VEC2"
    }
  ],
  "asset": {
    "generator": "Adobe Illustrator",
    "version": "2.0"
  },
  "bufferViews": [
    {
      "buffer": 0,
      "byteLength": 169296,
      "target": 34963
    },
    {
      "buffer": 0,
      "byteLength": 95448,
      "byteOffset": 169296,
      "target": 34962
    },
    {
      "buffer": 0,
      "byteLength": 95448,
      "byteOffset": 264744,
      "target": 34962
    },
    {
      "buffer": 0,
      "byteLength": 63632,
      "byteOffset": 360192,
      "target": 34962
    }
  ],
  "buffers": [
    {
      "byteLength": 423824,
      "uri": "data:application/octet-stream;base64,"
    }
  ],
  "materials": [
    {
      "doubleSided": true,
      "pbrMetallicRoughness": {
        "baseColorFactor": [
          0.82421875,
          0.82421875,
          0.82421875,
          1.0
        ],
        "metallicFactor": 0.0,
        "roughnessFactor": 0.4000000059604645
      }
    }
  ],
  "meshes": [
    {
      "primitives": [
        {
          "attributes": {
            "NORMAL": 2,
            "POSITION": 1,
            "TEXCOORD_0": 3
          },
          "indices": 0,
          "material": 0,
          "mode": 4
        }
      ]
    }
  ],
  "nodes": [
    {
      "mesh": 0
    }
  ],
  "scenes": [
    {
      "nodes": [
        0
      ]
    }
  ]
}
