{
  "accessors": [
    {
      "bufferView": 0,
      "componentType": 5125,
      "count": 46080,
      "type": "SCALAR"
    },
    {
      "bufferView": 1,
      "componentType": 5126,
      "count": 8976,
      "max": [
        0.16801181962283662,
        -0.011771044583660073,
        0.04423348719386385
      ],
      "min": [
        -0.06262425864257892,
        -0.08257905068262672,
        -0.04423348719386385
      ],
      "type": "VEC3"
    },
    {
      "bufferView": 2,
      "componentType": 5126,
      "count": 8976,
      "max": [
        1.0,
        0.9999999999787555,
        0.9996973826704196
      ],
      "min": [
        -1.0,
        -0.9999999999787555,
        -0.9996973826704196
      ],
      "type": "VEC3"
    },
    {
      "bufferView": 3,
      "componentType": 5126,
      "count": 8976,
      "max": [
        1.0,
        0.7156443853957114
      ],
      "min": [
        0.0,
        0.0
      ],
      "type": "VEC2"
    },
    {
      "bufferView": 4,
      "componentType": 5125,
      "count": 44952,
      "type": "SCALAR"
    },
    {
      "bufferView": 5,
      "componentType": 5126,
      "count": 8660,
      "max": [
        0.00945182984235049,
        0.08257905068262694,
        0.04500243568059039
      ],
      "min": [
        -0.16801181962283673,
        0.011590380565947855,
        -0.04500243568059038
      ],
      "type": "VEC3"
    },
    {
      "bufferView": 6,
      "componentType": 5126,
      "count": 8660,
      "max": [
        0.9999756806973652,
        1.0,
        0.999773688280446
      ],
      "min": [
        -0.9999756883681661,
        -0.9999999999365499,
        -0.999773688280446
      ],
      "type": "VEC3"
    },
    {
      "bufferView": 7,
      "componentType": 5126,
      "count": 8660,
      "max": [
        1.0,
        0.9170895052465318
      ],
      "min": [
        0.0,
        0.0
      ],
      "type": "VEC2"
    }
  ],
  "asset": {
    "generator": "Adobe Illustrator",
    "version": "2.0"
  },
  "bufferViews": [
    {
      "buffer": 0,
      "byteLength": 184320,
      "target": 34963
    },
    {
      "buffer": 0,
      "byteLength": 107712,
      "byteOffset": 184320,
      "target": 34962
    },
    {
      "buffer": 0,
      "byteLength": 107712,
      "byteOffset": 292032,
      "target": 34962
    },
    {
      "buffer": 0,
      "byteLength": 71808,
      "byteOffset": 399744,
      "target": 34962
    },
    {
      "buffer": 0,
      "byteLength": 179808,
      "byteOffset": 471552,
      "target": 34963
    },
    {
      "buffer": 0,
      "byteLength": 103920,
      "byteOffset": 651360,
      "target": 34962
    },
    {
      "buffer": 0,
      "byteLength": 103920,
      "byteOffset": 755280,
      "target": 34962
    },
    {
      "buffer": 0,
      "byteLength": 69280,
      "byteOffset": 859200,
      "target": 34962
    }
  ],
  "buffers": [
    {
      "byteLength": 928480,
      "uri": "data:application/octet-stream;base64,"
    }
  ],
  "materials": [
    {
      "doubleSided": true,
      "pbrMetallicRoughness": {
        "baseColorFactor": [
          0.82421875,
          0.82421875,
          0.82421875,
          1.0
        ],
        "metallicFactor": 0.0,
        "roughnessFactor": 0.4000000059604645
      }
    },
    {
      "doubleSided": true,
      "pbrMetallicRoughness": {
        "baseColorFactor": [
          0.82421875,
          0.82421875,
          0.82421875,
          1.0
        ],
        "metallicFactor": 0.0,
        "roughnessFactor": 0.4000000059604645
      }
    }
  ],
  "meshes": [
    {
      "primitives": [
        {
          "attributes": {
            "NORMAL": 2,
            "POSITION": 1,
            "TEXCOORD_0": 3
          },
          "indices": 0,
          "material": 0,
          "mode": 4
        }
      ]
    },
    {
      "primitives": [
        {
          "attributes": {
            "NORMAL": 6,
            "POSITION": 5,
            "TEXCOORD_0": 7
          },
          "indices": 4,
          "material": 1,
          "mode": 4
        }
      ]
    }
  ],
  "nodes": [
    {
      "mesh": 0
    },
    {
      "mesh": 1
    }
  ],
  "scenes": [
    {
      "nodes": [
        0,
        1
      ]
    }
  ]
}
