{
  "accessors": [
    {
      "bufferView": 0,
      "componentType": 5125,
      "count": 44124,
      "type": "SCALAR"
    },
    {
      "bufferView": 1,
      "componentType": 5126,
      "count": 8420,
      "max": [
        0.03549260291400902,
        0.03549255639540094,
        0.03722622463568077
      ],
      "min": [
        -0.035492602914008575,
        -0.03549255639540094,
        -0.03722622463568076
      ],
      "type": "VEC3"
    },
    {
      "bufferView": 2,
      "componentType": 5126,
      "count": 8420,
      "max": [
        0.9999999968502461,
        0.9999999640034595,
        0.9997850375055234
      ],
      "min": [
        -0.9999999360292174,
        -0.9999999513838194,
        -0.9997850375055234
      ],
      "type": "VEC3"
    },
    {
      "bufferView": 3,
      "componentType": 5126,
      "count": 8420,
      "max": [
        0.8963468592321444,
        1.0
      ],
      "min": [
        0.0,
        0.0
      ],
      "type": "VEC2"
    }
  ],
  "asset": {
    "generator": "Adobe Illustrator",
    "version": "2.0"
  },
  "bufferViews": [
    {
      "buffer": 0,
      "byteLength": 176496,
      "target": 34963
    },
    {
      "buffer": 0,
      "byteLength": 101040,
      "byteOffset": 176496,
      "target": 34962
    },
    {
      "buffer": 0,
      "byteLength": 101040,
      "byteOffset": 277536,
      "target": 34962
    },
    {
      "buffer": 0,
      "byteLength": 67360,
      "byteOffset": 378576,
      "target": 34962
    }
  ],
  "buffers": [
    {
      "byteLength": 445936,
      "uri": "data:application/octet-stream;base64,"
    }
  ],
  "materials": [
    {
      "doubleSided": true,
      "pbrMetallicRoughness": {
        "baseColorFactor": [
          0.82421875,
          0.82421875,
          0.82421875,
          1.0
        ],
        "metallicFactor": 0.0,
        "roughnessFactor": 0.4000000059604645
      }
    }
  ],
  "meshes": [
    {
      "primitives": [
        {
          "attributes": {
            "NORMAL": 2,
            "POSITION": 1,
            "TEXCOORD_0": 3
          },
          "indices": 0,
          "material": 0,
          "mode": 4
        }
      ]
    }
  ],
  "nodes": [
    {
      "mesh": 0
    }
  ],
  "scenes": [
    {
      "nodes": [
        0
      ]
    }
  ]
}
