{
  "accessors": [
    {
      "bufferView": 0,
      "componentType": 5125,
      "count": 52182,
      "type": "SCALAR"
    },
    {
      "bufferView": 1,
      "componentType": 5126,
      "count": 10659,
      "max": [
        0.06472044419391171,
        0.12982241722653065,
        0.03155472395038626
      ],
      "min": [
        -0.06472044419391165,
        -0.1298224172265306,
        -0.03155472395038626
      ],
      "type": "VEC3"
    },
    {
      "bufferView": 2,
      "componentType": 5126,
      "count": 10659,
      "max": [
        0.9999999996950755,
        0.999999832047109,
        0.9999829715793918
      ],
      "min": [
        -0.9999999890743668,
        -0.9999084729442221,
        -0.9999829715793918
      ],
      "type": "VEC3"
    },
    {
      "bufferView": 3,
      "componentType": 5126,
      "count": 10659,
      "max": [
        1.0,
        0.530043683307842
      ],
      "min": [
        0.0,
        0.0
      ],
      "type": "VEC2"
    }
  ],
  "asset": {
    "generator": "Adobe Illustrator",
    "version": "2.0"
  },
  "bufferViews": [
    {
      "buffer": 0,
      "byteLength": 208728,
      "target": 34963
    },
    {
      "buffer": 0,
      "byteLength": 127908,
      "byteOffset": 208728,
      "target": 34962
    },
    {
      "buffer": 0,
      "byteLength": 127908,
      "byteOffset": 336636,
      "target": 34962
    },
    {
      "buffer": 0,
      "byteLength": 85272,
      "byteOffset": 464544,
      "target": 34962
    }
  ],
  "buffers": [
    {
      "byteLength": 549816,
      "uri": "data:application/octet-stream;base64,"
    }
  ],
  "materials": [
    {
      "doubleSided": true,
      "pbrMetallicRoughness": {
        "baseColorFactor": [
          0.82421875,
          0.82421875,
          0.82421875,
          1.0
        ],
        "metallicFactor": 0.0,
        "roughnessFactor": 0.4000000059604645
      }
    }
  ],
  "meshes": [
    {
      "primitives": [
        {
          "attributes": {
            "NORMAL": 2,
            "POSITION": 1,
            "TEXCOORD_0": 3
          },
          "indices": 0,
          "material": 0,
          "mode": 4
        }
      ]
    }
  ],
  "nodes": [
    {
      "mesh": 0
    }
  ],
  "scenes": [
    {
      "nodes": [
        0
      ]
    }
  ]
}
