{
  "accessors": [
    {
      "bufferView": 0,
      "componentType": 5125,
      "count": 51990,
      "type": "SCALAR"
    },
    {
      "bufferView": 1,
      "componentType": 5126,
      "count": 10603,
      "max": [
        0.12048082103252034,
        0.16183375788458498,
        0.05494078218990251
      ],
      "min": [
        -0.12048082103252078,
        -0.16183375788458498,
        -0.05494078218990251
      ],
      "type": "VEC3"
    },
    {
      "bufferView": 2,
      "componentType": 5126,
      "count": 10603,
      "max": [
        0.9999994536873801,
        1.0,
        0.9999206757637712
      ],
      "min": [
        -1.0,
        -1.0,
        -0.9999206757637712
      ],
      "type": "VEC3"
    },
    {
      "bufferView": 3,
      "componentType": 5126,
      "count": 10603,
      "max": [
        1.0,
        0.6679331200819473
      ],
      "min": [
        0.0,
        0.0
      ],
      "type": "VEC2"
    }
  ],
  "asset": {
    "generator": "Adobe Illustrator",
    "version": "2.0"
  },
  "bufferViews": [
    {
      "buffer": 0,
      "byteLength": 207960,
      "target": 34963
    },
    {
      "buffer": 0,
      "byteLength": 127236,
      "byteOffset": 207960,
      "target": 34962
    },
    {
      "buffer": 0,
      "byteLength": 127236,
      "byteOffset": 335196,
      "target": 34962
    },
    {
      "buffer": 0,
      "byteLength": 84824,
      "byteOffset": 462432,
      "target": 34962
    }
  ],
  "buffers": [
    {
      "byteLength": 547256,
      "uri": "data:application/octet-stream;base64,"
    }
  ],
  "materials": [
    {
      "doubleSided": true,
      "pbrMetallicRoughness": {
        "baseColorFactor": [
          0.82421875,
          0.82421875,
          0.82421875,
          1.0
        ],
        "metallicFactor": 0.0,
        "roughnessFactor": 0.4000000059604645
      }
    }
  ],
  "meshes": [
    {
      "primitives": [
        {
          "attributes": {
            "NORMAL": 2,
            "POSITION": 1,
            "TEXCOORD_0": 3
          },
          "indices": 0,
          "material": 0,
          "mode": 4
        }
      ]
    }
  ],
  "nodes": [
    {
      "mesh": 0
    }
  ],
  "scenes": [
    {
      "nodes": [
        0
      ]
    }
  ]
}
