{
  "accessors": [
    {
      "bufferView": 0,
      "componentType": 5125,
      "count": 132216,
      "type": "SCALAR"
    },
    {
      "bufferView": 1,
      "componentType": 5126,
      "count": 27264,
      "max": [
        0.12694807592973056,
        0.1623927955204869,
        0.04642936356002885
      ],
      "min": [
        -0.12694807592973034,
        -0.1623927955204867,
        -0.04642936356002885
      ],
      "type": "VEC3"
    },
    {
      "bufferView": 2,
      "componentType": 5126,
      "count": 27264,
      "max": [
        0.9999999999009674,
        0.999999992912628,
        0.9999782409626896
      ],
      "min": [
        -0.999999999999986,
        -0.9999999959928518,
        -0.9999782409626896
      ],
      "type": "VEC3"
    },
    {
      "bufferView": 3,
      "componentType": 5126,
      "count": 27264,
      "max": [
        1.0,
        0.7076110659506794
      ],
      "min": [
        0.0,
        0.0
      ],
      "type": "VEC2"
    }
  ],
  "asset": {
    "generator": "Adobe Illustrator",
    "version": "2.0"
  },
  "bufferViews": [
    {
      "buffer": 0,
      "byteLength": 528864,
      "target": 34963
    },
    {
      "buffer": 0,
      "byteLength": 327168,
      "byteOffset": 528864,
      "target": 34962
    },
    {
      "buffer": 0,
      "byteLength": 327168,
      "byteOffset": 856032,
      "target": 34962
    },
    {
      "buffer": 0,
      "byteLength": 218112,
      "byteOffset": 1183200,
      "target": 34962
    }
  ],
  "buffers": [
    {
      "byteLength": 1401312,
      "uri": "data:application/octet-stream;base64,"
    }
  ],
  "materials": [
    {
      "doubleSided": true,
      "pbrMetallicRoughness": {
        "baseColorFactor": [
          0.82421875,
          0.82421875,
          0.82421875,
          1.0
        ],
        "metallicFactor": 0.0,
        "roughnessFactor": 0.4000000059604645
      }
    }
  ],
  "meshes": [
    {
      "primitives": [
        {
          "attributes": {
            "NORMAL": 2,
            "POSITION": 1,
            "TEXCOORD_0": 3
          },
          "indices": 0,
          "material": 0,
          "mode": 4
        }
      ]
    }
  ],
  "nodes": [
    {
      "mesh": 0
    }
  ],
  "scenes": [
    {
      "nodes": [
        0
      ]
    }
  ]
}
