{
  "accessors": [
    {
      "bufferView": 0,
      "componentType": 5125,
      "count": 38556,
      "type": "SCALAR"
    },
    {
      "bufferView": 1,
      "componentType": 5126,
      "count": 12248,
      "max": [
        0.0008279954315594806,
        0.042141754174850554,
        0.00016126407723140784
      ],
      "min": [
        -0.0008279859754727892,
        0.033905816879073125,
        -0.00016126407723140787
      ],
      "type": "VEC3"
    },
    {
      "bufferView": 2,
      "componentType": 5126,
      "count": 12248,
      "max": [
        0.9999464819173477,
        0.9999995009573233,
        0.9999560639170193
      ],
      "min": [
        -0.9999999718127406,
        -0.9999991299673959,
        -0.9999560639170193
      ],
      "type": "VEC3"
    },
    {
      "bufferView": 3,
      "componentType": 5126,
      "count": 12248,
      "max": [
        1.0,
        0.9143203961592605
      ],
      "min": [
        0.0,
        0.0
      ],
      "type": "VEC2"
    },
    {
      "bufferView": 4,
      "componentType": 5125,
      "count": 44400,
      "type": "SCALAR"
    },
    {
      "bufferView": 5,
      "componentType": 5126,
      "count": 8496,
      "max": [
        0.13360762038564467,
        0.06714277859010531,
        0.022158108459146772
      ],
      "min": [
        0.05703397835590146,
        0.01714062230286384,
        -0.022158108459146772
      ],
      "type": "VEC3"
    },
    {
      "bufferView": 6,
      "componentType": 5126,
      "count": 8496,
      "max": [
        0.9999753454146405,
        0.9999994292014487,
        0.9995326772607792
      ],
      "min": [
        -0.9999752836509509,
        -0.9999998949391543,
        -0.9995326772607792
      ],
      "type": "VEC3"
    },
    {
      "bufferView": 7,
      "componentType": 5126,
      "count": 8496,
      "max": [
        1.0,
        0.850793516986903
      ],
      "min": [
        0.0,
        0.0
      ],
      "type": "VEC2"
    },
    {
      "bufferView": 8,
      "componentType": 5125,
      "count": 44400,
      "type": "SCALAR"
    },
    {
      "bufferView": 9,
      "componentType": 5126,
      "count": 8496,
      "max": [
        0.03773757966341701,
        0.17220209328576308,
        0.022158115640265996
      ],
      "min": [
        -0.037737489288362014,
        0.12055255569394951,
        -0.02215811563378721
      ],
      "type": "VEC3"
    },
    {
      "bufferView": 10,
      "componentType": 5126,
      "count": 8496,
      "max": [
        0.9999999857286715,
        0.9999998517664005,
        0.9995326772607792
      ],
      "min": [
        -0.9999999362913676,
        -0.9999998536194935,
        -0.9995326772607792
      ],
      "type": "VEC3"
    },
    {
      "bufferView": 11,
      "componentType": 5126,
      "count": 8496,
      "max": [
        1.0,
        0.850793516986903
      ],
      "min": [
        0.0,
        0.0
      ],
      "type": "VEC2"
    },
    {
      "bufferView": 12,
      "componentType": 5125,
      "count": 68562,
      "type": "SCALAR"
    },
    {
      "bufferView": 13,
      "componentType": 5126,
      "count": 13891,
      "max": [
        0.15772517904653016,
        0.16840621103517117,
        0.05632025588222351
      ],
      "min": [
        -0.15772517904653016,
        -0.17220209328576308,
        -0.05632025588222351
      ],
      "type": "VEC3"
    },
    {
      "bufferView": 14,
      "componentType": 5126,
      "count": 13891,
      "max": [
        0.9999990217696048,
        0.9999999515836541,
        0.9999859434607266
      ],
      "min": [
        -0.9999993935494605,
        -0.9999999408986017,
        -0.9999859434607266
      ],
      "type": "VEC3"
    },
    {
      "bufferView": 15,
      "componentType": 5126,
      "count": 13891,
      "max": [
        1.0,
        0.5647487714626062
      ],
      "min": [
        0.0,
        0.0
      ],
      "type": "VEC2"
    }
  ],
  "asset": {
    "generator": "Adobe Illustrator",
    "version": "2.0"
  },
  "bufferViews": [
    {
      "buffer": 0,
      "byteLength": 154224,
      "target": 34963
    },
    {
      "buffer": 0,
      "byteLength": 146976,
      "byteOffset": 154224,
      "target": 34962
    },
    {
      "buffer": 0,
      "byteLength": 146976,
      "byteOffset": 301200,
      "target": 34962
    },
    {
      "buffer": 0,
      "byteLength": 97984,
      "byteOffset": 448176,
      "target": 34962
    },
    {
      "buffer": 0,
      "byteLength": 177600,
      "byteOffset": 546160,
      "target": 34963
    },
    {
      "buffer": 0,
      "byteLength": 101952,
      "byteOffset": 723760,
      "target": 34962
    },
    {
      "buffer": 0,
      "byteLength": 101952,
      "byteOffset": 825712,
      "target": 34962
    },
    {
      "buffer": 0,
      "byteLength": 67968,
      "byteOffset": 927664,
      "target": 34962
    },
    {
      "buffer": 0,
      "byteLength": 177600,
      "byteOffset": 995632,
      "target": 34963
    },
    {
      "buffer": 0,
      "byteLength": 101952,
      "byteOffset": 1173232,
      "target": 34962
    },
    {
      "buffer": 0,
      "byteLength": 101952,
      "byteOffset": 1275184,
      "target": 34962
    },
    {
      "buffer": 0,
      "byteLength": 67968,
      "byteOffset": 1377136,
      "target": 34962
    },
    {
      "buffer": 0,
      "byteLength": 274248,
      "byteOffset": 1445104,
      "target": 34963
    },
    {
      "buffer": 0,
      "byteLength": 166692,
      "byteOffset": 1719352,
      "target": 34962
    },
    {
      "buffer": 0,
      "byteLength": 166692,
      "byteOffset": 1886044,
      "target": 34962
    },
    {
      "buffer": 0,
      "byteLength": 111128,
      "byteOffset": 2052736,
      "target": 34962
    }
  ],
  "buffers": [
    {
      "byteLength": 2163864,
      "uri": "data:application/octet-stream;base64,"
    }
  ],
  "materials": [
    {
      "doubleSided": true,
      "pbrMetallicRoughness": {
        "baseColorFactor": [
          0.82421875,
          0.82421875,
          0.82421875,
          1.0
        ],
        "metallicFactor": 0.0,
        "roughnessFactor": 0.5163934230804443
      }
    },
    {
      "doubleSided": true,
      "pbrMetallicRoughness": {
        "baseColorFactor": [
          0.82421875,
          0.82421875,
          0.82421875,
          1.0
        ],
        "metallicFactor": 0.0,
        "roughnessFactor": 0.5163934230804443
      }
    },
    {
      "doubleSided": true,
      "pbrMetallicRoughness": {
        "baseColorFactor": [
          0.82421875,
          0.82421875,
          0.82421875,
          1.0
        ],
        "metallicFactor": 0.0,
        "roughnessFactor": 0.5163934230804443
      }
    },
    {
      "doubleSided": true,
      "pbrMetallicRoughness": {
        "baseColorFactor": [
          0.82421875,
          0.82421875,
          0.82421875,
          1.0
        ],
        "metallicFactor": 0.0,
        "roughnessFactor": 0.5163934230804443
      }
    }
  ],
  "meshes": [
    {
      "primitives": [
        {
          "attributes": {
            "NORMAL": 2,
            "POSITION": 1,
            "TEXCOORD_0": 3
          },
          "indices": 0,
          "material": 0,
          "mode": 4
        }
      ]
    },
    {
      "primitives": [
        {
          "attributes": {
            "NORMAL": 6,
            "POSITION": 5,
            "TEXCOORD_0": 7
          },
          "indices": 4,
          "material": 1,
          "mode": 4
        }
      ]
    },
    {
      "primitives": [
        {
          "attributes": {
            "NORMAL": 10,
            "POSITION": 9,
            "TEXCOORD_0": 11
          },
          "indices": 8,
          "material": 2,
          "mode": 4
        }
      ]
    },
    {
      "primitives": [
        {
          "attributes": {
            "NORMAL": 14,
            "POSITION": 13,
            "TEXCOORD_0": 15
          },
          "indices": 12,
          "material": 3,
          "mode": 4
        }
      ]
    }
  ],
  "nodes": [
    {
      "mesh": 0
    },
    {
      "mesh": 1
    },
    {
      "mesh": 2
    },
    {
      "mesh": 3
    }
  ],
  "scenes": [
    {
      "nodes": [
        0,
        1,
        2,
        3
      ]
    }
  ]
}
