{
  "accessors": [
    {
      "bufferView": 0,
      "componentType": 5125,
      "count": 43848,
      "type": "SCALAR"
    },
    {
      "bufferView": 1,
      "componentType": 5126,
      "count": 8342,
      "max": [
        0.14738391102742443,
        -0.0036021330687310282,
        0.03721940749594937
      ],
      "min": [
        0.07641190938354803,
        -0.07457374414054563,
        -0.03721940749594937
      ],
      "type": "VEC3"
    },
    {
      "bufferView": 2,
      "componentType": 5126,
      "count": 8342,
      "max": [
        0.9999999999969734,
        0.9999999999969729,
        0.9997837227367834
      ],
      "min": [
        -0.999999999996659,
        -0.9999999999966596,
        -0.9997837227367834
      ],
      "type": "VEC3"
    },
    {
      "bufferView": 3,
      "componentType": 5126,
      "count": 8342,
      "max": [
        0.89661641086752,
        1.0
      ],
      "min": [
        0.0,
        0.0
      ],
      "type": "VEC2"
    },
    {
      "bufferView": 4,
      "componentType": 5125,
      "count": 79386,
      "type": "SCALAR"
    },
    {
      "bufferView": 5,
      "componentType": 5126,
      "count": 16009,
      "max": [
        0.1441462560604636,
        0.1416007014403542,
        0.055716746918066586
      ],
      "min": [
        -0.14738391102742454,
        -0.14160070144035375,
        -0.055716746918066586
      ],
      "type": "VEC3"
    },
    {
      "bufferView": 6,
      "componentType": 5126,
      "count": 16009,
      "max": [
        0.9999999999818436,
        0.9999992563640202,
        0.99999071955058
      ],
      "min": [
        -0.9999999999818436,
        -0.9999999941233053,
        -0.99999071955058
      ],
      "type": "VEC3"
    },
    {
      "bufferView": 7,
      "componentType": 5126,
      "count": 16009,
      "max": [
        1.0,
        0.9989344939968222
      ],
      "min": [
        0.0,
        0.0
      ],
      "type": "VEC2"
    }
  ],
  "asset": {
    "generator": "Adobe Illustrator",
    "version": "2.0"
  },
  "bufferViews": [
    {
      "buffer": 0,
      "byteLength": 175392,
      "target": 34963
    },
    {
      "buffer": 0,
      "byteLength": 100104,
      "byteOffset": 175392,
      "target": 34962
    },
    {
      "buffer": 0,
      "byteLength": 100104,
      "byteOffset": 275496,
      "target": 34962
    },
    {
      "buffer": 0,
      "byteLength": 66736,
      "byteOffset": 375600,
      "target": 34962
    },
    {
      "buffer": 0,
      "byteLength": 317544,
      "byteOffset": 442336,
      "target": 34963
    },
    {
      "buffer": 0,
      "byteLength": 192108,
      "byteOffset": 759880,
      "target": 34962
    },
    {
      "buffer": 0,
      "byteLength": 192108,
      "byteOffset": 951988,
      "target": 34962
    },
    {
      "buffer": 0,
      "byteLength": 128072,
      "byteOffset": 1144096,
      "target": 34962
    }
  ],
  "buffers": [
    {
      "byteLength": 1272168,
      "uri": "data:application/octet-stream;base64,"
    }
  ],
  "materials": [
    {
      "doubleSided": true,
      "pbrMetallicRoughness": {
        "baseColorFactor": [
          0.82421875,
          0.82421875,
          0.82421875,
          1.0
        ],
        "metallicFactor": 0.0,
        "roughnessFactor": 0.4000000059604645
      }
    },
    {
      "doubleSided": true,
      "pbrMetallicRoughness": {
        "baseColorFactor": [
          0.82421875,
          0.82421875,
          0.82421875,
          1.0
        ],
        "metallicFactor": 0.0,
        "roughnessFactor": 0.4000000059604645
      }
    }
  ],
  "meshes": [
    {
      "primitives": [
        {
          "attributes": {
            "NORMAL": 2,
            "POSITION": 1,
            "TEXCOORD_0": 3
          },
          "indices": 0,
          "material": 0,
          "mode": 4
        }
      ]
    },
    {
      "primitives": [
        {
          "attributes": {
            "NORMAL": 6,
            "POSITION": 5,
            "TEXCOORD_0": 7
          },
          "indices": 4,
          "material": 1,
          "mode": 4
        }
      ]
    }
  ],
  "nodes": [
    {
      "mesh": 0
    },
    {
      "mesh": 1
    }
  ],
  "scenes": [
    {
      "nodes": [
        0,
        1
      ]
    }
  ]
}
