{
  "accessors": [
    {
      "bufferView": 0,
      "componentType": 5125,
      "count": 50988,
      "type": "SCALAR"
    },
    {
      "bufferView": 1,
      "componentType": 5126,
      "count": 10314,
      "max": [
        0.10896713654296208,
        0.15986764361383377,
        0.04481436855433597
      ],
      "min": [
        0.037919804064167284,
        -0.13610925399401563,
        -0.04481436855433598
      ],
      "type": "VEC3"
    },
    {
      "bufferView": 2,
      "componentType": 5126,
      "count": 10314,
      "max": [
        1.0,
        0.9999996723004773,
        0.9997139474939281
      ],
      "min": [
        -1.0,
        -0.9999996730838603,
        -0.9997139474939281
      ],
      "type": "VEC3"
    },
    {
      "bufferView": 3,
      "componentType": 5126,
      "count": 10314,
      "max": [
        1.0,
        0.7635549515952219
      ],
      "min": [
        0.0,
        0.0
      ],
      "type": "VEC2"
    },
    {
      "bufferView": 4,
      "componentType": 5125,
      "count": 50988,
      "type": "SCALAR"
    },
    {
      "bufferView": 5,
      "componentType": 5126,
      "count": 10314,
      "max": [
        -0.03791977383082212,
        0.15986764361383332,
        0.04481436719724075
      ],
      "min": [
        -0.10896713654296164,
        -0.13610925399401608,
        -0.04481436719724075
      ],
      "type": "VEC3"
    },
    {
      "bufferView": 6,
      "componentType": 5126,
      "count": 10314,
      "max": [
        0.9999999999999997,
        0.9999996723004769,
        0.9997139116446271
      ],
      "min": [
        -0.9999999999999997,
        -0.9999996730838601,
        -0.9997139116446271
      ],
      "type": "VEC3"
    },
    {
      "bufferView": 7,
      "componentType": 5126,
      "count": 10314,
      "max": [
        1.0,
        0.7635549218191038
      ],
      "min": [
        0.0,
        0.0
      ],
      "type": "VEC2"
    },
    {
      "bufferView": 8,
      "componentType": 5125,
      "count": 50988,
      "type": "SCALAR"
    },
    {
      "bufferView": 9,
      "componentType": 5126,
      "count": 10314,
      "max": [
        0.03552358203714734,
        0.1361092028800448,
        0.04481435911198113
      ],
      "min": [
        -0.035523594282210524,
        -0.159867643613834,
        -0.04481435980281686
      ],
      "type": "VEC3"
    },
    {
      "bufferView": 10,
      "componentType": 5126,
      "count": 10314,
      "max": [
        0.9999999999997307,
        0.9999996716735006,
        0.9997139116446271
      ],
      "min": [
        -0.9999999999996999,
        -0.9999996724576332,
        -0.9997139116446271
      ],
      "type": "VEC3"
    },
    {
      "bufferView": 11,
      "componentType": 5126,
      "count": 10314,
      "max": [
        1.0,
        0.7635549218191038
      ],
      "min": [
        0.0,
        0.0
      ],
      "type": "VEC2"
    }
  ],
  "asset": {
    "generator": "Adobe Illustrator",
    "version": "2.0"
  },
  "bufferViews": [
    {
      "buffer": 0,
      "byteLength": 203952,
      "target": 34963
    },
    {
      "buffer": 0,
      "byteLength": 123768,
      "byteOffset": 203952,
      "target": 34962
    },
    {
      "buffer": 0,
      "byteLength": 123768,
      "byteOffset": 327720,
      "target": 34962
    },
    {
      "buffer": 0,
      "byteLength": 82512,
      "byteOffset": 451488,
      "target": 34962
    },
    {
      "buffer": 0,
      "byteLength": 203952,
      "byteOffset": 534000,
      "target": 34963
    },
    {
      "buffer": 0,
      "byteLength": 123768,
      "byteOffset": 737952,
      "target": 34962
    },
    {
      "buffer": 0,
      "byteLength": 123768,
      "byteOffset": 861720,
      "target": 34962
    },
    {
      "buffer": 0,
      "byteLength": 82512,
      "byteOffset": 985488,
      "target": 34962
    },
    {
      "buffer": 0,
      "byteLength": 203952,
      "byteOffset": 1068000,
      "target": 34963
    },
    {
      "buffer": 0,
      "byteLength": 123768,
      "byteOffset": 1271952,
      "target": 34962
    },
    {
      "buffer": 0,
      "byteLength": 123768,
      "byteOffset": 1395720,
      "target": 34962
    },
    {
      "buffer": 0,
      "byteLength": 82512,
      "byteOffset": 1519488,
      "target": 34962
    }
  ],
  "buffers": [
    {
      "byteLength": 1602000,
      "uri": "data:application/octet-stream;base64,"
    }
  ],
  "materials": [
    {
      "doubleSided": true,
      "pbrMetallicRoughness": {
        "baseColorFactor": [
          0.82421875,
          0.82421875,
          0.82421875,
          1.0
        ],
        "metallicFactor": 0.0,
        "roughnessFactor": 0.4000000059604645
      }
    },
    {
      "doubleSided": true,
      "pbrMetallicRoughness": {
        "baseColorFactor": [
          0.82421875,
          0.82421875,
          0.82421875,
          1.0
        ],
        "metallicFactor": 0.0,
        "roughnessFactor": 0.4000000059604645
      }
    },
    {
      "doubleSided": true,
      "pbrMetallicRoughness": {
        "baseColorFactor": [
          0.82421875,
          0.82421875,
          0.82421875,
          1.0
        ],
        "metallicFactor": 0.0,
        "roughnessFactor": 0.4000000059604645
      }
    }
  ],
  "meshes": [
    {
      "primitives": [
        {
          "attributes": {
            "NORMAL": 2,
            "POSITION": 1,
            "TEXCOORD_0": 3
          },
          "indices": 0,
          "material": 0,
          "mode": 4
        }
      ]
    },
    {
      "primitives": [
        {
          "attributes": {
            "NORMAL": 6,
            "POSITION": 5,
            "TEXCOORD_0": 7
          },
          "indices": 4,
          "material": 1,
          "mode": 4
        }
      ]
    },
    {
      "primitives": [
        {
          "attributes": {
            "NORMAL": 10,
            "POSITION": 9,
            "TEXCOORD_0": 11
          },
          "indices": 8,
          "material": 2,
          "mode": 4
        }
      ]
    }
  ],
  "nodes": [
    {
      "mesh": 0
    },
    {
      "mesh": 1
    },
    {
      "mesh": 2
    }
  ],
  "scenes": [
    {
      "nodes": [
        0,
        1,
        2
      ]
    }
  ]
}
