{
  "accessors": [
    {
      "bufferView": 0,
      "componentType": 5125,
      "count": 44340,
      "type": "SCALAR"
    },
    {
      "bufferView": 1,
      "componentType": 5126,
      "count": 8486,
      "max": [
        0.01700112261820741,
        0.042442186447583796,
        0.02415192084416783
      ],
      "min": [
        -0.01700112261820741,
        -0.042442186447583796,
        -0.024151920844167833
      ],
      "type": "VEC3"
    },
    {
      "bufferView": 2,
      "componentType": 5126,
      "count": 8486,
      "max": [
        1.0,
        0.9999999999999966,
        0.999893859200083
      ],
      "min": [
        -1.0,
        -0.9999999999999966,
        -0.999893859200083
      ],
      "type": "VEC3"
    },
    {
      "bufferView": 3,
      "componentType": 5126,
      "count": 8486,
      "max": [
        1.0,
        0.626824730110552
      ],
      "min": [
        0.0,
        0.0
      ],
      "type": "VEC2"
    }
  ],
  "asset": {
    "generator": "Adobe Illustrator",
    "version": "2.0"
  },
  "bufferViews": [
    {
      "buffer": 0,
      "byteLength": 177360,
      "target": 34963
    },
    {
      "buffer": 0,
      "byteLength": 101832,
      "byteOffset": 177360,
      "target": 34962
    },
    {
      "buffer": 0,
      "byteLength": 101832,
      "byteOffset": 279192,
      "target": 34962
    },
    {
      "buffer": 0,
      "byteLength": 67888,
      "byteOffset": 381024,
      "target": 34962
    }
  ],
  "buffers": [
    {
      "byteLength": 448912,
      "uri": "data:application/octet-stream;base64,"
    }
  ],
  "materials": [
    {
      "doubleSided": true,
      "pbrMetallicRoughness": {
        "baseColorFactor": [
          0.82421875,
          0.82421875,
          0.82421875,
          1.0
        ],
        "metallicFactor": 0.0,
        "roughnessFactor": 0.4000000059604645
      }
    }
  ],
  "meshes": [
    {
      "primitives": [
        {
          "attributes": {
            "NORMAL": 2,
            "POSITION": 1,
            "TEXCOORD_0": 3
          },
          "indices": 0,
          "material": 0,
          "mode": 4
        }
      ]
    }
  ],
  "nodes": [
    {
      "mesh": 0
    }
  ],
  "scenes": [
    {
      "nodes": [
        0
      ]
    }
  ]
}
