{
  "accessors": [
    {
      "bufferView": 0,
      "componentType": 5125,
      "count": 50358,
      "type": "SCALAR"
    },
    {
      "bufferView": 1,
      "componentType": 5126,
      "count": 10155,
      "max": [
        0.09213801035806574,
        0.14067753805425998,
        0.054326245096041434
      ],
      "min": [
        -0.09213801035806574,
        -0.14067753805425975,
        -0.054326245096041434
      ],
      "type": "VEC3"
    },
    {
      "bufferView": 2,
      "componentType": 5126,
      "count": 10155,
      "max": [
        0.999999999902871,
        0.9999975358072553,
        0.9999891337817192
      ],
      "min": [
        -1.0,
        -0.9999981392924141,
        -0.9999891337817192
      ],
      "type": "VEC3"
    },
    {
      "bufferView": 3,
      "componentType": 5126,
      "count": 10155,
      "max": [
        0.9819033082987186,
        1.0
      ],
      "min": [
        0.0,
        0.0
      ],
      "type": "VEC2"
    }
  ],
  "asset": {
    "generator": "Adobe Illustrator",
    "version": "2.0"
  },
  "bufferViews": [
    {
      "buffer": 0,
      "byteLength": 201432,
      "target": 34963
    },
    {
      "buffer": 0,
      "byteLength": 121860,
      "byteOffset": 201432,
      "target": 34962
    },
    {
      "buffer": 0,
      "byteLength": 121860,
      "byteOffset": 323292,
      "target": 34962
    },
    {
      "buffer": 0,
      "byteLength": 81240,
      "byteOffset": 445152,
      "target": 34962
    }
  ],
  "buffers": [
    {
      "byteLength": 526392,
      "uri": "data:application/octet-stream;base64,"
    }
  ],
  "materials": [
    {
      "doubleSided": true,
      "pbrMetallicRoughness": {
        "baseColorFactor": [
          0.82421875,
          0.82421875,
          0.82421875,
          1.0
        ],
        "metallicFactor": 0.0,
        "roughnessFactor": 0.4000000059604645
      }
    }
  ],
  "meshes": [
    {
      "primitives": [
        {
          "attributes": {
            "NORMAL": 2,
            "POSITION": 1,
            "TEXCOORD_0": 3
          },
          "indices": 0,
          "material": 0,
          "mode": 4
        }
      ]
    }
  ],
  "nodes": [
    {
      "mesh": 0
    }
  ],
  "scenes": [
    {
      "nodes": [
        0
      ]
    }
  ]
}
