{
  "accessors": [
    {
      "bufferView": 0,
      "componentType": 5125,
      "count": 43836,
      "type": "SCALAR"
    },
    {
      "bufferView": 1,
      "componentType": 5126,
      "count": 8340,
      "max": [
        0.043091372273478035,
        0.07362540039553656,
        0.03721939464860661
      ],
      "min": [
        -0.027880500900572924,
        0.0026537224741143284,
        -0.03721939464860661
      ],
      "type": "VEC3"
    },
    {
      "bufferView": 2,
      "componentType": 5126,
      "count": 8340,
      "max": [
        0.9999999999999981,
        1.0,
        0.9997833756575512
      ],
      "min": [
        -0.9999999999999981,
        -1.0,
        -0.9997833756575512
      ],
      "type": "VEC3"
    },
    {
      "bufferView": 3,
      "componentType": 5126,
      "count": 8340,
      "max": [
        0.8966152707516297,
        1.0
      ],
      "min": [
        0.0,
        0.0
      ],
      "type": "VEC2"
    },
    {
      "bufferView": 4,
      "componentType": 5125,
      "count": 66612,
      "type": "SCALAR"
    },
    {
      "bufferView": 5,
      "componentType": 5126,
      "count": 13552,
      "max": [
        0.14076636984569535,
        0.16227891384437854,
        0.047866145648189466
      ],
      "min": [
        -0.14076636984569513,
        -0.16227891384437854,
        -0.04786614564818947
      ],
      "type": "VEC3"
    },
    {
      "bufferView": 6,
      "componentType": 5126,
      "count": 13552,
      "max": [
        0.9999999999121636,
        0.9999999999879214,
        0.9999688639018052
      ],
      "min": [
        -1.0,
        -0.9999999999879214,
        -0.9999688639018052
      ],
      "type": "VEC3"
    },
    {
      "bufferView": 7,
      "componentType": 5126,
      "count": 13552,
      "max": [
        1.0,
        0.6274420750371238
      ],
      "min": [
        0.0,
        0.0
      ],
      "type": "VEC2"
    }
  ],
  "asset": {
    "generator": "Adobe Illustrator",
    "version": "2.0"
  },
  "bufferViews": [
    {
      "buffer": 0,
      "byteLength": 175344,
      "target": 34963
    },
    {
      "buffer": 0,
      "byteLength": 100080,
      "byteOffset": 175344,
      "target": 34962
    },
    {
      "buffer": 0,
      "byteLength": 100080,
      "byteOffset": 275424,
      "target": 34962
    },
    {
      "buffer": 0,
      "byteLength": 66720,
      "byteOffset": 375504,
      "target": 34962
    },
    {
      "buffer": 0,
      "byteLength": 266448,
      "byteOffset": 442224,
      "target": 34963
    },
    {
      "buffer": 0,
      "byteLength": 162624,
      "byteOffset": 708672,
      "target": 34962
    },
    {
      "buffer": 0,
      "byteLength": 162624,
      "byteOffset": 871296,
      "target": 34962
    },
    {
      "buffer": 0,
      "byteLength": 108416,
      "byteOffset": 1033920,
      "target": 34962
    }
  ],
  "buffers": [
    {
      "byteLength": 1142336,
      "uri": "data:application/octet-stream;base64,"
    }
  ],
  "materials": [
    {
      "doubleSided": true,
      "pbrMetallicRoughness": {
        "baseColorFactor": [
          0.82421875,
          0.82421875,
          0.82421875,
          1.0
        ],
        "metallicFactor": 0.0,
        "roughnessFactor": 0.4000000059604645
      }
    },
    {
      "doubleSided": true,
      "pbrMetallicRoughness": {
        "baseColorFactor": [
          0.82421875,
          0.82421875,
          0.82421875,
          1.0
        ],
        "metallicFactor": 0.0,
        "roughnessFactor": 0.4000000059604645
      }
    }
  ],
  "meshes": [
    {
      "primitives": [
        {
          "attributes": {
            "NORMAL": 2,
            "POSITION": 1,
            "TEXCOORD_0": 3
          },
          "indices": 0,
          "material": 0,
          "mode": 4
        }
      ]
    },
    {
      "primitives": [
        {
          "attributes": {
            "NORMAL": 6,
            "POSITION": 5,
            "TEXCOORD_0": 7
          },
          "indices": 4,
          "material": 1,
          "mode": 4
        }
      ]
    }
  ],
  "nodes": [
    {
      "mesh": 0
    },
    {
      "mesh": 1
    }
  ],
  "scenes": [
    {
      "nodes": [
        0,
        1
      ]
    }
  ]
}
