{
  "accessors": [
    {
      "bufferView": 0,
      "componentType": 5125,
      "count": 84144,
      "type": "SCALAR"
    },
    {
      "bufferView": 1,
      "componentType": 5126,
      "count": 16816,
      "max": [
        0.16415508043982419,
        0.13398258230723137,
        0.06293328415315828
      ],
      "min": [
        -0.16415508043982507,
        -0.13398258230723137,
        -0.06293328415315827
      ],
      "type": "VEC3"
    },
    {
      "bufferView": 2,
      "componentType": 5126,
      "count": 16816,
      "max": [
        0.99999993282136,
        0.9999999923388587,
        0.9999868986145166
      ],
      "min": [
        -0.9999999999126454,
        -0.9999999998653423,
        -0.9999868986145166
      ],
      "type": "VEC3"
    },
    {
      "bufferView": 3,
      "componentType": 5126,
      "count": 16816,
      "max": [
        1.0,
        0.9961948946353412
      ],
      "min": [
        0.0,
        0.0
      ],
      "type": "VEC2"
    }
  ],
  "asset": {
    "generator": "Adobe Illustrator",
    "version": "2.0"
  },
  "bufferViews": [
    {
      "buffer": 0,
      "byteLength": 336576,
      "target": 34963
    },
    {
      "buffer": 0,
      "byteLength": 201792,
      "byteOffset": 336576,
      "target": 34962
    },
    {
      "buffer": 0,
      "byteLength": 201792,
      "byteOffset": 538368,
      "target": 34962
    },
    {
      "buffer": 0,
      "byteLength": 134528,
      "byteOffset": 740160,
      "target": 34962
    }
  ],
  "buffers": [
    {
      "byteLength": 874688,
      "uri": "data:application/octet-stream;base64,"
    }
  ],
  "materials": [
    {
      "doubleSided": true,
      "pbrMetallicRoughness": {
        "baseColorFactor": [
          0.82421875,
          0.82421875,
          0.82421875,
          1.0
        ],
        "metallicFactor": 0.0,
        "roughnessFactor": 0.4000000059604645
      }
    }
  ],
  "meshes": [
    {
      "primitives": [
        {
          "attributes": {
            "NORMAL": 2,
            "POSITION": 1,
            "TEXCOORD_0": 3
          },
          "indices": 0,
          "material": 0,
          "mode": 4
        }
      ]
    }
  ],
  "nodes": [
    {
      "mesh": 0
    }
  ],
  "scenes": [
    {
      "nodes": [
        0
      ]
    }
  ]
}
