{
  "accessors": [
    {
      "bufferView": 0,
      "componentType": 5125,
      "count": 61932,
      "type": "SCALAR"
    },
    {
      "bufferView": 1,
      "componentType": 5126,
      "count": 12466,
      "max": [
        0.14347363842545446,
        0.16278056574434796,
        0.04816681867930522
      ],
      "min": [
        -0.14347363842545452,
        -0.16278056574434752,
        -0.04816681867930522
      ],
      "type": "VEC3"
    },
    {
      "bufferView": 2,
      "componentType": 5126,
      "count": 12466,
      "max": [
        0.9999999994770998,
        0.9999982265902436,
        0.9999623359552107
      ],
      "min": [
        -0.9999999994770778,
        -0.9999970732782322,
        -0.9999623359552107
      ],
      "type": "VEC3"
    },
    {
      "bufferView": 3,
      "componentType": 5126,
      "count": 12466,
      "max": [
        1.0,
        0.6232790979636297
      ],
      "min": [
        0.0,
        0.0
      ],
      "type": "VEC2"
    }
  ],
  "asset": {
    "generator": "Adobe Illustrator",
    "version": "2.0"
  },
  "bufferViews": [
    {
      "buffer": 0,
      "byteLength": 247728,
      "target": 34963
    },
    {
      "buffer": 0,
      "byteLength": 149592,
      "byteOffset": 247728,
      "target": 34962
    },
    {
      "buffer": 0,
      "byteLength": 149592,
      "byteOffset": 397320,
      "target": 34962
    },
    {
      "buffer": 0,
      "byteLength": 99728,
      "byteOffset": 546912,
      "target": 34962
    }
  ],
  "buffers": [
    {
      "byteLength": 646640,
      "uri": "data:application/octet-stream;base64,"
    }
  ],
  "materials": [
    {
      "doubleSided": true,
      "pbrMetallicRoughness": {
        "baseColorFactor": [
          0.82421875,
          0.82421875,
          0.82421875,
          1.0
        ],
        "metallicFactor": 0.0,
        "roughnessFactor": 0.4000000059604645
      }
    }
  ],
  "meshes": [
    {
      "primitives": [
        {
          "attributes": {
            "NORMAL": 2,
            "POSITION": 1,
            "TEXCOORD_0": 3
          },
          "indices": 0,
          "material": 0,
          "mode": 4
        }
      ]
    }
  ],
  "nodes": [
    {
      "mesh": 0
    }
  ],
  "scenes": [
    {
      "nodes": [
        0
      ]
    }
  ]
}
