{
  "accessors": [
    {
      "bufferView": 0,
      "componentType": 5125,
      "count": 47832,
      "type": "SCALAR"
    },
    {
      "bufferView": 1,
      "componentType": 5126,
      "count": 9476,
      "max": [
        0.1331902309483104,
        0.017864355063484716,
        0.026854509629685983
      ],
      "min": [
        -0.13319023094830995,
        -0.017864355063484827,
        -0.026854509629685986
      ],
      "type": "VEC3"
    },
    {
      "bufferView": 2,
      "componentType": 5126,
      "count": 9476,
      "max": [
        1.0,
        1.0,
        0.999943987144657
      ],
      "min": [
        -1.0,
        -1.0,
        -0.999943987144657
      ],
      "type": "VEC3"
    },
    {
      "bufferView": 3,
      "componentType": 5126,
      "count": 9476,
      "max": [
        1.0,
        0.36265730385144707
      ],
      "min": [
        0.0,
        0.0
      ],
      "type": "VEC2"
    }
  ],
  "asset": {
    "generator": "Adobe Illustrator",
    "version": "2.0"
  },
  "bufferViews": [
    {
      "buffer": 0,
      "byteLength": 191328,
      "target": 34963
    },
    {
      "buffer": 0,
      "byteLength": 113712,
      "byteOffset": 191328,
      "target": 34962
    },
    {
      "buffer": 0,
      "byteLength": 113712,
      "byteOffset": 305040,
      "target": 34962
    },
    {
      "buffer": 0,
      "byteLength": 75808,
      "byteOffset": 418752,
      "target": 34962
    }
  ],
  "buffers": [
    {
      "byteLength": 494560,
      "uri": "data:application/octet-stream;base64,"
    }
  ],
  "materials": [
    {
      "doubleSided": true,
      "pbrMetallicRoughness": {
        "baseColorFactor": [
          0.82421875,
          0.82421875,
          0.82421875,
          1.0
        ],
        "metallicFactor": 0.0,
        "roughnessFactor": 0.4000000059604645
      }
    }
  ],
  "meshes": [
    {
      "primitives": [
        {
          "attributes": {
            "NORMAL": 2,
            "POSITION": 1,
            "TEXCOORD_0": 3
          },
          "indices": 0,
          "material": 0,
          "mode": 4
        }
      ]
    }
  ],
  "nodes": [
    {
      "mesh": 0
    }
  ],
  "scenes": [
    {
      "nodes": [
        0
      ]
    }
  ]
}
