{
  "accessors": [
    {
      "bufferView": 0,
      "componentType": 5125,
      "count": 109836,
      "type": "SCALAR"
    },
    {
      "bufferView": 1,
      "componentType": 5126,
      "count": 22258,
      "max": [
        0.12695012591314336,
        0.1623928448427856,
        0.046430711731874595
      ],
      "min": [
        -0.12695012591314359,
        -0.1623928448427856,
        -0.046430711731874595
      ],
      "type": "VEC3"
    },
    {
      "bufferView": 2,
      "componentType": 5126,
      "count": 22258,
      "max": [
        0.9999999999886626,
        0.9999999856686015,
        0.999986920570128
      ],
      "min": [
        -1.0,
        -0.9999999947669885,
        -0.999986920570128
      ],
      "type": "VEC3"
    },
    {
      "bufferView": 3,
      "componentType": 5126,
      "count": 22258,
      "max": [
        1.0,
        0.6854151392869843
      ],
      "min": [
        0.0,
        0.0
      ],
      "type": "VEC2"
    }
  ],
  "asset": {
    "generator": "Adobe Illustrator",
    "version": "2.0"
  },
  "bufferViews": [
    {
      "buffer": 0,
      "byteLength": 439344,
      "target": 34963
    },
    {
      "buffer": 0,
      "byteLength": 267096,
      "byteOffset": 439344,
      "target": 34962
    },
    {
      "buffer": 0,
      "byteLength": 267096,
      "byteOffset": 706440,
      "target": 34962
    },
    {
      "buffer": 0,
      "byteLength": 178064,
      "byteOffset": 973536,
      "target": 34962
    }
  ],
  "buffers": [
    {
      "byteLength": 1151600,
      "uri": "data:application/octet-stream;base64,"
    }
  ],
  "materials": [
    {
      "doubleSided": true,
      "pbrMetallicRoughness": {
        "baseColorFactor": [
          0.82421875,
          0.82421875,
          0.82421875,
          1.0
        ],
        "metallicFactor": 0.0,
        "roughnessFactor": 0.4000000059604645
      }
    }
  ],
  "meshes": [
    {
      "primitives": [
        {
          "attributes": {
            "NORMAL": 2,
            "POSITION": 1,
            "TEXCOORD_0": 3
          },
          "indices": 0,
          "material": 0,
          "mode": 4
        }
      ]
    }
  ],
  "nodes": [
    {
      "mesh": 0
    }
  ],
  "scenes": [
    {
      "nodes": [
        0
      ]
    }
  ]
}
