{
  "accessors": [
    {
      "bufferView": 0,
      "componentType": 5125,
      "count": 54288,
      "type": "SCALAR"
    },
    {
      "bufferView": 1,
      "componentType": 5126,
      "count": 11230,
      "max": [
        0.13386353868329737,
        0.0765553792014394,
        0.026814056251592756
      ],
      "min": [
        -0.13386353868329737,
        -0.0765553792014394,
        -0.026814056251592756
      ],
      "type": "VEC3"
    },
    {
      "bufferView": 2,
      "componentType": 5126,
      "count": 11230,
      "max": [
        0.9998989266792291,
        0.9999999793921349,
        0.9999971799260923
      ],
      "min": [
        -0.9999948683222912,
        -0.9999994764554355,
        -0.9999971799260923
      ],
      "type": "VEC3"
    },
    {
      "bufferView": 3,
      "componentType": 5126,
      "count": 11230,
      "max": [
        0.7574900864875735,
        1.0
      ],
      "min": [
        0.0,
        0.0
      ],
      "type": "VEC2"
    }
  ],
  "asset": {
    "generator": "Adobe Illustrator",
    "version": "2.0"
  },
  "bufferViews": [
    {
      "buffer": 0,
      "byteLength": 217152,
      "target": 34963
    },
    {
      "buffer": 0,
      "byteLength": 134760,
      "byteOffset": 217152,
      "target": 34962
    },
    {
      "buffer": 0,
      "byteLength": 134760,
      "byteOffset": 351912,
      "target": 34962
    },
    {
      "buffer": 0,
      "byteLength": 89840,
      "byteOffset": 486672,
      "target": 34962
    }
  ],
  "buffers": [
    {
      "byteLength": 576512,
      "uri": "data:application/octet-stream;base64,"
    }
  ],
  "materials": [
    {
      "doubleSided": true,
      "pbrMetallicRoughness": {
        "baseColorFactor": [
          0.82421875,
          0.82421875,
          0.82421875,
          1.0
        ],
        "metallicFactor": 0.0,
        "roughnessFactor": 0.4000000059604645
      }
    }
  ],
  "meshes": [
    {
      "primitives": [
        {
          "attributes": {
            "NORMAL": 2,
            "POSITION": 1,
            "TEXCOORD_0": 3
          },
          "indices": 0,
          "material": 0,
          "mode": 4
        }
      ]
    }
  ],
  "nodes": [
    {
      "mesh": 0
    }
  ],
  "scenes": [
    {
      "nodes": [
        0
      ]
    }
  ]
}
