{
  "accessors": [
    {
      "bufferView": 0,
      "componentType": 5125,
      "count": 37854,
      "type": "SCALAR"
    },
    {
      "bufferView": 1,
      "componentType": 5126,
      "count": 8283,
      "max": [
        -0.10013191913813313,
        -0.14793153367599543,
        0.0020040041014641827
      ],
      "min": [
        -0.1011946144242819,
        -0.1479712766997554,
        -0.002004004101464183
      ],
      "type": "VEC3"
    },
    {
      "bufferView": 2,
      "componentType": 5126,
      "count": 8283,
      "max": [
        0.9999177969261887,
        0.9999867226102057,
        0.999998503713355
      ],
      "min": [
        -0.9999778356899823,
        -0.9999675232672521,
        -0.999998503713355
      ],
      "type": "VEC3"
    },
    {
      "bufferView": 3,
      "componentType": 5126,
      "count": 8283,
      "max": [
        0.5563120381942466,
        1.0
      ],
      "min": [
        0.0,
        0.0
      ],
      "type": "VEC2"
    },
    {
      "bufferView": 4,
      "componentType": 5125,
      "count": 92670,
      "type": "SCALAR"
    },
    {
      "bufferView": 5,
      "componentType": 5126,
      "count": 18335,
      "max": [
        0.1348917715245106,
        0.14797938768459873,
        0.056557080716508445
      ],
      "min": [
        -0.13489177152451037,
        -0.14797938768459873,
        -0.056557080716508445
      ],
      "type": "VEC3"
    },
    {
      "bufferView": 6,
      "componentType": 5126,
      "count": 18335,
      "max": [
        0.9999969669928084,
        0.9999999712368277,
        0.9999809068563055
      ],
      "min": [
        -0.9999999746003765,
        -0.9999997089024119,
        -0.9999809068563055
      ],
      "type": "VEC3"
    },
    {
      "bufferView": 7,
      "componentType": 5126,
      "count": 18335,
      "max": [
        1.0,
        0.6293984556643423
      ],
      "min": [
        0.0,
        0.0
      ],
      "type": "VEC2"
    }
  ],
  "asset": {
    "generator": "Adobe Illustrator",
    "version": "2.0"
  },
  "bufferViews": [
    {
      "buffer": 0,
      "byteLength": 151416,
      "target": 34963
    },
    {
      "buffer": 0,
      "byteLength": 99396,
      "byteOffset": 151416,
      "target": 34962
    },
    {
      "buffer": 0,
      "byteLength": 99396,
      "byteOffset": 250812,
      "target": 34962
    },
    {
      "buffer": 0,
      "byteLength": 66264,
      "byteOffset": 350208,
      "target": 34962
    },
    {
      "buffer": 0,
      "byteLength": 370680,
      "byteOffset": 416472,
      "target": 34963
    },
    {
      "buffer": 0,
      "byteLength": 220020,
      "byteOffset": 787152,
      "target": 34962
    },
    {
      "buffer": 0,
      "byteLength": 220020,
      "byteOffset": 1007172,
      "target": 34962
    },
    {
      "buffer": 0,
      "byteLength": 146680,
      "byteOffset": 1227192,
      "target": 34962
    }
  ],
  "buffers": [
    {
      "byteLength": 1373872,
      "uri": "data:application/octet-stream;base64,"
    }
  ],
  "materials": [
    {
      "doubleSided": true,
      "pbrMetallicRoughness": {
        "baseColorFactor": [
          0.82421875,
          0.82421875,
          0.82421875,
          1.0
        ],
        "metallicFactor": 0.0,
        "roughnessFactor": 0.4000000059604645
      }
    },
    {
      "doubleSided": true,
      "pbrMetallicRoughness": {
        "baseColorFactor": [
          0.82421875,
          0.82421875,
          0.82421875,
          1.0
        ],
        "metallicFactor": 0.0,
        "roughnessFactor": 0.4000000059604645
      }
    }
  ],
  "meshes": [
    {
      "primitives": [
        {
          "attributes": {
            "NORMAL": 2,
            "POSITION": 1,
            "TEXCOORD_0": 3
          },
          "indices": 0,
          "material": 0,
          "mode": 4
        }
      ]
    },
    {
      "primitives": [
        {
          "attributes": {
            "NORMAL": 6,
            "POSITION": 5,
            "TEXCOORD_0": 7
          },
          "indices": 4,
          "material": 1,
          "mode": 4
        }
      ]
    }
  ],
  "nodes": [
    {
      "mesh": 0
    },
    {
      "mesh": 1
    }
  ],
  "scenes": [
    {
      "nodes": [
        0,
        1
      ]
    }
  ]
}
