{
  "accessors": [
    {
      "bufferView": 0,
      "componentType": 5125,
      "count": 70554,
      "type": "SCALAR"
    },
    {
      "bufferView": 1,
      "componentType": 5126,
      "count": 13351,
      "max": [
        0.03137904055617469,
        0.03984308980229234,
        0.03429152565100576
      ],
      "min": [
        -0.03137904055617469,
        -0.039843089802292564,
        -0.03429152565100576
      ],
      "type": "VEC3"
    },
    {
      "bufferView": 2,
      "componentType": 5126,
      "count": 13351,
      "max": [
        1.0,
        0.9999999080088089,
        0.9999685550928137
      ],
      "min": [
        -1.0,
        -1.0,
        -0.9999685550928137
      ],
      "type": "VEC3"
    },
    {
      "bufferView": 3,
      "componentType": 5126,
      "count": 13351,
      "max": [
        1.0,
        0.8268107938644353
      ],
      "min": [
        0.0,
        0.0
      ],
      "type": "VEC2"
    }
  ],
  "asset": {
    "generator": "Adobe Illustrator",
    "version": "2.0"
  },
  "bufferViews": [
    {
      "buffer": 0,
      "byteLength": 282216,
      "target": 34963
    },
    {
      "buffer": 0,
      "byteLength": 160212,
      "byteOffset": 282216,
      "target": 34962
    },
    {
      "buffer": 0,
      "byteLength": 160212,
      "byteOffset": 442428,
      "target": 34962
    },
    {
      "buffer": 0,
      "byteLength": 106808,
      "byteOffset": 602640,
      "target": 34962
    }
  ],
  "buffers": [
    {
      "byteLength": 709448,
      "uri": "data:application/octet-stream;base64,"
    }
  ],
  "materials": [
    {
      "doubleSided": true,
      "pbrMetallicRoughness": {
        "baseColorFactor": [
          0.82421875,
          0.82421875,
          0.82421875,
          1.0
        ],
        "metallicFactor": 0.0,
        "roughnessFactor": 0.4000000059604645
      }
    }
  ],
  "meshes": [
    {
      "primitives": [
        {
          "attributes": {
            "NORMAL": 2,
            "POSITION": 1,
            "TEXCOORD_0": 3
          },
          "indices": 0,
          "material": 0,
          "mode": 4
        }
      ]
    }
  ],
  "nodes": [
    {
      "mesh": 0
    }
  ],
  "scenes": [
    {
      "nodes": [
        0
      ]
    }
  ]
}
