{
  "accessors": [
    {
      "bufferView": 0,
      "componentType": 5125,
      "count": 52440,
      "type": "SCALAR"
    },
    {
      "bufferView": 1,
      "componentType": 5126,
      "count": 10716,
      "max": [
        0.13108116900130712,
        0.07845356275440937,
        0.05349211970263295
      ],
      "min": [
        -0.1310811690013071,
        -0.07845356275440939,
        -0.05349211970263295
      ],
      "type": "VEC3"
    },
    {
      "bufferView": 2,
      "componentType": 5126,
      "count": 10716,
      "max": [
        0.9999998439460677,
        0.9999718812160885,
        0.9997123598006505
      ],
      "min": [
        -0.999999777629407,
        -0.9999999852744809,
        -0.9997123598006505
      ],
      "type": "VEC3"
    },
    {
      "bufferView": 3,
      "componentType": 5126,
      "count": 10716,
      "max": [
        0.7422308151114807,
        1.0
      ],
      "min": [
        0.0,
        0.0
      ],
      "type": "VEC2"
    }
  ],
  "asset": {
    "generator": "Adobe Illustrator",
    "version": "2.0"
  },
  "bufferViews": [
    {
      "buffer": 0,
      "byteLength": 209760,
      "target": 34963
    },
    {
      "buffer": 0,
      "byteLength": 128592,
      "byteOffset": 209760,
      "target": 34962
    },
    {
      "buffer": 0,
      "byteLength": 128592,
      "byteOffset": 338352,
      "target": 34962
    },
    {
      "buffer": 0,
      "byteLength": 85728,
      "byteOffset": 466944,
      "target": 34962
    }
  ],
  "buffers": [
    {
      "byteLength": 552672,
      "uri": "data:application/octet-stream;base64,"
    }
  ],
  "materials": [
    {
      "doubleSided": true,
      "pbrMetallicRoughness": {
        "baseColorFactor": [
          0.82421875,
          0.82421875,
          0.82421875,
          1.0
        ],
        "metallicFactor": 0.0,
        "roughnessFactor": 0.4000000059604645
      }
    }
  ],
  "meshes": [
    {
      "primitives": [
        {
          "attributes": {
            "NORMAL": 2,
            "POSITION": 1,
            "TEXCOORD_0": 3
          },
          "indices": 0,
          "material": 0,
          "mode": 4
        }
      ]
    }
  ],
  "nodes": [
    {
      "mesh": 0
    }
  ],
  "scenes": [
    {
      "nodes": [
        0
      ]
    }
  ]
}
