{
  "accessors": [
    {
      "bufferView": 0,
      "componentType": 5125,
      "count": 51456,
      "type": "SCALAR"
    },
    {
      "bufferView": 1,
      "componentType": 5126,
      "count": 10466,
      "max": [
        0.1348283224485538,
        0.15421733138651073,
        0.04629195070848853
      ],
      "min": [
        -0.13482832244855358,
        -0.15421733138651073,
        -0.04629195070848853
      ],
      "type": "VEC3"
    },
    {
      "bufferView": 2,
      "componentType": 5126,
      "count": 10466,
      "max": [
        0.9999999152033867,
        0.9999999800067099,
        0.9999764298198368
      ],
      "min": [
        -0.9999999914628027,
        -0.999999999053782,
        -0.9999764298198368
      ],
      "type": "VEC3"
    },
    {
      "bufferView": 3,
      "componentType": 5126,
      "count": 10466,
      "max": [
        1.0,
        0.639851948084621
      ],
      "min": [
        0.0,
        0.0
      ],
      "type": "VEC2"
    }
  ],
  "asset": {
    "generator": "Adobe Illustrator",
    "version": "2.0"
  },
  "bufferViews": [
    {
      "buffer": 0,
      "byteLength": 205824,
      "target": 34963
    },
    {
      "buffer": 0,
      "byteLength": 125592,
      "byteOffset": 205824,
      "target": 34962
    },
    {
      "buffer": 0,
      "byteLength": 125592,
      "byteOffset": 331416,
      "target": 34962
    },
    {
      "buffer": 0,
      "byteLength": 83728,
      "byteOffset": 457008,
      "target": 34962
    }
  ],
  "buffers": [
    {
      "byteLength": 540736,
      "uri": "data:application/octet-stream;base64,"
    }
  ],
  "materials": [
    {
      "doubleSided": true,
      "pbrMetallicRoughness": {
        "baseColorFactor": [
          0.82421875,
          0.82421875,
          0.82421875,
          1.0
        ],
        "metallicFactor": 0.0,
        "roughnessFactor": 0.4000000059604645
      }
    }
  ],
  "meshes": [
    {
      "primitives": [
        {
          "attributes": {
            "NORMAL": 2,
            "POSITION": 1,
            "TEXCOORD_0": 3
          },
          "indices": 0,
          "material": 0,
          "mode": 4
        }
      ]
    }
  ],
  "nodes": [
    {
      "mesh": 0
    }
  ],
  "scenes": [
    {
      "nodes": [
        0
      ]
    }
  ]
}
