<?xml version="1.0" encoding="UTF-8"?>
<svg id="Layer_2" data-name="Layer 2" xmlns="http://www.w3.org/2000/svg" viewBox="0 0 445.26 427.96">
  <g id="Layer_2-2" data-name="Layer 2">
    <g>
      <path d="M58.33,112.86c23.18-31.68,46.36-63.36,69.54-95.04,3.29-4.49,6.58-8.99,9.86-13.48h-28.93c10.18,9.66,20.37,19.31,30.55,28.97l73.36,69.57c29.58,28.05,59.16,56.1,88.74,84.15,25.56,24.24,51.12,48.48,76.68,72.71,8.36,7.93,16.73,15.86,25.09,23.79,3.98,3.78,7.81,7.96,12.06,11.44.19.16.36.34.54.51,6.15-1.39,12.3-2.79,18.45-4.18-13.73-1.22-27.46-2.45-41.2-3.67-33.15-2.96-66.3-5.91-99.46-8.87-39.96-3.56-79.91-7.13-119.87-10.69l-104.02-9.28c-16.75-1.49-33.51-3.3-50.29-4.48-.23-.02-.47-.04-.7-.06-4.96-.44-11.01-.36-15.77,1.22-2.53.84-4.59,2.15-1.17,3.78,11.66,5.54,23.32,11.09,34.98,16.63,27.85,13.24,55.7,26.48,83.54,39.72,33.83,16.09,67.66,32.17,101.49,48.26,29.13,13.85,58.26,27.7,87.38,41.55,14.17,6.74,28.21,14.24,42.69,20.3.2.08.4.19.6.28,5.79,2.75,14.36,2.07,20.52,1.22,2.33-.32,10.96-2,5.38-4.65-11.66-5.54-23.32-11.09-34.98-16.63-27.85-13.24-55.7-26.48-83.54-39.72-33.83-16.09-67.66-32.17-101.49-48.26-29.13-13.85-58.26-27.7-87.38-41.55-14.14-6.73-28.18-14.41-42.69-20.3-.2-.08-.4-.19-.6-.28-5.65,1.67-11.29,3.33-16.94,5,13.73,1.22,27.46,2.45,41.2,3.67,33.15,2.96,66.3,5.91,99.46,8.87,39.96,3.56,79.91,7.13,119.87,10.69,34.67,3.09,69.35,6.18,104.02,9.28,16.76,1.49,33.51,3.23,50.29,4.48.23.02.47.04.7.06,4.73.42,9.96.24,14.59-.87.9-.22,5.96-1.32,3.86-3.31-10.18-9.66-20.37-19.31-30.55-28.97-24.45-23.19-48.91-46.38-73.36-69.57-29.58-28.05-59.16-56.1-88.74-84.15-25.56-24.24-51.12-48.48-76.68-72.71-8.36-7.93-16.73-15.86-25.09-23.79-3.97-3.76-7.78-8.03-12.06-11.44-.19-.15-.36-.34-.54-.51C134.79-.25,126.86.04,123.27.04c-3.31,0-12.23-.55-14.46,2.5-23.18,31.68-46.36,63.36-69.54,95.04-3.29,4.49-6.58,8.99-9.86,13.48-2.51,3.44,9,4.09,10.48,4.18,3.84.25,7.75.18,11.56-.34,1.83-.25,5.74-.45,6.89-2.03h0Z"/>
      <path d="M158.12,150.63c-.15,5.75-1.86,11.22-5.42,15.79-1.69,2.17-3.72,4.03-6.04,5.5-4.53,2.86-12.65,2.98.76,2.98s5.22-.17.76-2.98c-2.32-1.47-4.35-3.33-6.04-5.5-3.49-4.48-5.43-10.1-5.42-15.79.03-12.1,7.65-20.12,18.31-24.26-13.55,5.27-20.13-1.94-12.97.69,1.41.52,2.76,1.2,4.05,1.97,2.55,1.52,4.77,3.48,6.59,5.82,3.56,4.57,5.27,10.04,5.42,15.79.07,2.8,30.06,2.39,30,0-.34-13.18-9.69-23.35-22.41-26.03-10.54-2.22-22.31-2-32.94-.59-6.58.87-12.67,3.01-17.6,7.58-9.58,8.86-11.24,23.76-3.41,34.32,10.27,13.86,30.61,12.96,45.94,11.79,8.08-.62,15.87-2.38,21.96-8.02,5.42-5.01,8.26-11.71,8.46-19.05.06-2.31-29.92-2.88-30,0Z"/>
    </g>
  </g>
</svg>