<?xml version="1.0" encoding="UTF-8"?>
<svg id="Layer_2" data-name="Layer 2" xmlns="http://www.w3.org/2000/svg" viewBox="0 0 475.13 459.02">
  <g id="Layer_2-2" data-name="Layer 2">
    <g>
      <path d="M29.24,454.84c10.93-21.24,21.86-42.48,32.79-63.72,21.68-42.13,43.36-84.26,65.04-126.4,15.72-30.55,31.44-61.1,47.16-91.65,10.19-19.8,20.38-39.6,30.57-59.4,17.96-34.9,35.92-69.81,53.88-104.71l1.05-2.03h-28.93c7.16,14.92,14.33,29.84,21.49,44.75,17.06,35.51,34.11,71.03,51.17,106.54,20.77,43.25,41.54,86.49,62.31,129.74,17.89,37.26,35.78,74.51,53.68,111.77,5.88,12.25,11.77,24.5,17.65,36.75,2.75,5.72,5.05,12.23,8.45,17.6.15.23.25.52.37.77,3.41,7.1,32.5,4.52,28.93-2.91-7.16-14.92-14.33-29.84-21.49-44.75-17.06-35.51-34.11-71.03-51.17-106.54-20.77-43.25-41.54-86.49-62.31-129.74-17.89-37.26-35.78-74.51-53.68-111.77-5.88-12.25-11.77-24.5-17.65-36.75-2.75-5.72-5.05-12.23-8.45-17.6-.15-.23-.25-.52-.37-.77-1.8-3.75-11.25-4.02-14.46-4.02-3.65,0-12.46.12-14.46,4.02-15.65,30.41-31.3,60.83-46.95,91.24-12.12,23.55-24.24,47.1-36.35,70.65-13.88,26.98-27.77,53.96-41.65,80.95-21.85,42.46-43.7,84.93-65.55,127.39-13.11,25.48-26.88,50.74-39.38,76.53-.19.39-.4.77-.59,1.15-3.64,7.07,25.21,10.13,28.93,2.91h0Z"/>
      <path d="M170.64,292.41c9.18-17.18,18.35-34.37,27.53-51.55,14.56-27.27,29.12-54.53,43.68-81.8,3.39-6.36,6.79-12.71,10.18-19.07h-28.93c21.51,44.49,43.02,88.97,64.53,133.46,3.06,6.32,6.11,12.64,9.17,18.96,3.4,7.04,32.46,4.43,28.93-2.87-21.51-44.49-43.02-88.97-64.53-133.46-3.06-6.32-6.11-12.64-9.17-18.96-1.8-3.72-11.27-3.97-14.46-3.97-3.68,0-12.4.1-14.46,3.97-9.18,17.18-18.35,34.37-27.53,51.55-14.56,27.27-29.12,54.53-43.68,81.8-3.39,6.36-6.79,12.71-10.18,19.07-3.64,6.82,25.1,10.04,28.93,2.87h0Z"/>
      <path d="M240.66,260.98c-.14,3.86-1.08,7.24-3.45,10.34-.93,1.22-1.93,2.27-3.2,3.12-3,2.01-.44.55,2.23.55.2,0,3.98.31,3.97.42s-1.18-.59-1.19-.61c-.99-1.26-2.7-2.1-3.75-3.48-2.32-3.05-3.45-6.5-3.45-10.34,0-3.59.98-6.9,3.06-9.82,1.01-1.42,2.15-2.67,3.6-3.63,1.8-1.21,2.51-.95-.49-.71-.42.03-5.77.11-5.71-.27.02-.12,1.17.59,1.19.61,1.07,1.07,2.34,1.73,3.35,2.96,2.63,3.21,3.7,6.76,3.85,10.85.28,7.91,30.27,7.58,30,0-.63-18-18.83-24.85-34.43-24.85s-34.43,6.87-34.43,24.85,19.38,24.95,34.43,24.85,33.79-6.78,34.43-24.85c.26-7.48-29.72-8.02-30,0Z"/>
    </g>
  </g>
</svg>