<?xml version="1.0" encoding="UTF-8"?>
<svg id="Layer_2" data-name="Layer 2" xmlns="http://www.w3.org/2000/svg" viewBox="0 0 146.13 304.06">
  <g id="Layer_2-2" data-name="Layer 2">
    <path d="M.02,3.44c6.65,33.62,13.31,67.24,19.96,100.86,10.53,53.19,21.05,106.38,31.58,159.56,2.42,12.25,4.85,24.5,7.27,36.75.77,3.87,12.27,3.42,15,3.42s14.23.49,15-3.42c6.47-32.89,12.95-65.78,19.42-98.68,10.25-52.06,20.49-104.13,30.74-156.19,2.37-12.04,4.74-24.08,7.11-36.12.64-3.25-13.35-3.42-15-3.42-2.64,0-14.23-.49-15,3.42-6.47,32.89-12.95,65.78-19.42,98.68-10.25,52.06-20.49,104.13-30.74,156.19-2.37,12.04-4.74,24.08-7.11,36.12h30c-6.65-33.62-13.31-67.24-19.96-100.86-10.53-53.19-21.05-106.38-31.58-159.56-2.42-12.25-4.85-24.5-7.27-36.75C29.25-.43,17.75.02,15.02.02,13.52.02-.61.26.02,3.44H.02Z"/>
  </g>
</svg>