<?xml version="1.0" encoding="UTF-8"?>
<svg id="Layer_2" data-name="Layer 2" xmlns="http://www.w3.org/2000/svg" viewBox="0 0 329.15 461.09">
  <g id="Layer_2-2" data-name="Layer 2">
    <path d="M29.3,171.4c15.39-18.86,30.77-37.72,46.16-56.59,24.5-30.04,49-60.08,73.51-90.11,5.6-6.86,11.19-13.72,16.79-20.58h-28.93c18.35,18.85,36.71,37.71,55.06,56.56,29.24,30.03,58.48,60.07,87.72,90.1,6.69,6.87,13.38,13.75,20.07,20.62v-1.71c-19.85,13.98-39.71,27.96-59.56,41.94-31.62,22.26-63.23,44.53-94.85,66.79-7.22,5.08-14.44,10.17-21.66,15.25l-.54.86c6.92,18.33,13.83,36.66,20.75,54.99,11.09,29.4,22.18,58.8,33.27,88.2,2.53,6.72,5.07,13.43,7.6,20.15l15-3.22h-96.84c-2.04,0-15-.23-15,3.22s13.69,3.22,15,3.22h96.84c1,0,15.98-.62,15-3.22-8.28-21.95-16.57-43.91-24.85-65.86-11.34-30.05-22.67-60.1-34.01-90.15-.9-2.38-1.85-4.75-2.7-7.15-.06-.16-1.12,1.06-.11.33.78-.57,1.58-1.12,2.38-1.67,8.32-5.86,16.63-11.71,24.95-17.57,29.04-20.45,58.09-40.91,87.13-61.36,13.15-9.26,26.3-18.52,39.46-27.79,6.81-4.79,14.33-9.21,20.7-14.58.29-.25.64-.45.96-.67.71-.57.71-1.14,0-1.71-18.35-18.85-36.71-37.71-55.06-56.56-29.24-30.03-58.48-60.07-87.72-90.1-6.69-6.87-13.38-13.75-20.07-20.62C163.08-.33,154.6.05,151.29.05s-12.05-.6-14.46,2.36c-15.39,18.86-30.77,37.72-46.16,56.59-24.5,30.04-49,60.08-73.51,90.11-5.6,6.86-11.19,13.72-16.79,20.58-2.6,3.18,9.21,3.88,10.48,3.96,3.84.23,7.75.17,11.56-.32,1.86-.24,5.64-.39,6.89-1.92h0Z"/>
  </g>
</svg>