<?xml version="1.0" encoding="UTF-8"?>
<svg id="Layer_2" data-name="Layer 2" xmlns="http://www.w3.org/2000/svg" viewBox="0 0 233.02 308.63">
  <g id="Layer_2-2" data-name="Layer 2">
    <g>
      <path d="M138.23,116.76c-.24,12.97-6.94,25.35-18.84,31.16-1.06.52-2.06.92-3.17,1.27-.74.23-2.68.26-1.33.33.59.03,1.23-.02,1.82-.03.71-.01,2.08.76.81.06-.79-.44-.76-.15-.25,0-.87-.25-1.76-.47-2.61-.79-5.53-2.07-10.23-6.16-13.75-10.83-8.04-10.66-9.32-26.22-2.84-37.97,2.91-5.27,7.2-10.08,12.43-13.12,1.97-1.15,5.01-2.42,6.56-2.8,1.79-.44.57.03-.96.03-.64,0-1.44-.23-2.08-.2,1.39-.06.82.1,1.56.3,14.13,3.77,22.4,18.82,22.66,32.6.12,6.5,30.12,6.35,30,0-.34-18.67-13.27-33.42-30.8-38.7-20.19-6.08-47.77-4.08-62.95,12.19-12.21,13.09-13.7,32.98-3.99,47.9,12.24,18.82,38.17,22.44,58.67,19.16,20.98-3.35,38.66-18.24,39.07-40.56.11-6.23-29.88-6.61-30,0Z"/>
      <path d="M138.02,186.56c1.18,13.49-4.64,27.13-16.16,34.65-2.58,1.68-5.39,3.04-8.31,4.03-1.33.45-2.85.56-4.14,1.05.1-.04,13.3.07,12.88-.07-.79-.27-1.67-.37-2.49-.61-6.44-1.87-12.31-5.7-16.71-10.74-8.92-10.22-11.54-24.96-6.69-37.63,2.31-6.04,6.25-11.55,11.31-15.6,2.55-2.04,5.43-3.71,8.44-4.97,1.6-.67,3.23-1.17,4.9-1.66,7.34-2.12-12.8-.79-10.98-.23,15.2,4.63,25.94,15.57,27.97,31.78.43,3.44,30.15,1.19,30,0-2.22-17.77-15.91-30.79-33.38-33.59-13.47-2.17-29.09-2.46-42.35,1.15-7.86,2.14-14.95,6.68-20.08,13.03-11.18,13.83-10.82,34.31.88,47.73,5.56,6.37,12.99,10.59,21.2,12.47,13.03,2.99,28.33,2.93,41.42.47,19.85-3.73,34.1-20.78,32.31-41.25-.27-3.12-30.14-1.55-30,0Z"/>
      <path d="M203.02,78.74c-.25,13.66-7.45,26.29-19.76,32.56-.71.36-6.87,3.45-7.49,2.72.4.47,6.87-.17,7.71-.15.11,0,3.13.6,2.22.07-1.31-.77-3.36-.92-4.8-1.54-6.17-2.62-11.58-6.88-15.43-12.38-7.79-11.11-8.84-26.04-2.69-38.13,3.05-5.99,7.69-11,13.46-14.47,2.62-1.57,5.32-2.56,8.16-3.59-1.89.68,1.61-.41,1.61-.4-.05.32-10.98.02-7.71.15-3.77-.14-2.06-.18.37.61,14.83,4.84,24.08,19.31,24.36,34.53.06,3.15,30.05,2.9,30,0-.33-17.88-12.61-32.46-29.74-36.95-13.21-3.46-28.84-3.23-42.17-.59-8.17,1.62-15.63,5.31-21.48,11.28-12.46,12.72-14.46,32.87-4.17,47.55,13.24,18.88,39.36,19.71,60.17,17.05,20.36-2.6,36.99-16.88,37.39-38.35.05-2.81-29.94-3.24-30,0Z"/>
      <path d="M73.94,77.6c1.08,12.32-3.88,25.06-14.6,31.65-2.8,1.72-4.21,2.16-6.89,2.7.29-.06,1.79-.42.18-.1-2.32.45,2.18.04-.16.05-.68,0-1.37.02-2.05-.02,2.7.15-.73-.4.46-.05,1.68.5-3.61-1.12-1.51-.38-1.42-.5-2.85-1.14-4.15-1.89-2-1.15-4.64-3.2-6.49-5.16-8.71-9.22-11.42-23.85-6.47-35.54,2.38-5.62,5.97-10.34,10.86-13.96,1.68-1.25,4.77-2.8,6.07-3.23-.87.29,4.07-.97,1.51-.39,2.66-.6.97-.16.16-.12.38-.02,4.07.09,2.08,0-1.76-.08.5.07.68.16-1.98-1,.35.1.95.31,1.35.47.36.07.08-.02,1.02.36,2.02.83,2.99,1.3,2.63,1.29,5.43,3.39,7.65,5.75,4.9,5.19,7.77,11.95,8.65,18.96.74,5.91,10.5,6.74,15,6.74,3.2,0,15.71-1.04,15-6.74C98.42,33.3,32.7,24.41,7.88,57.4c-10.78,14.32-10.49,35.36.84,49.3,14.14,17.4,39.22,22.05,60.21,16.58,20.85-5.43,36.97-23.41,35.02-45.69-.52-5.9-10.67-6.74-15-6.74-3.38,0-15.5.99-15,6.74Z"/>
      <path d="M138.23,264.74c-.22,12.19-6.63,24.14-17.69,29.19-.2.09-2.69,1.05-1.56.66.99-.34-1.1.29-1.02.26-2.83.92-.81.31-.37.13-.43.18-3.04.27-.11.14-.7.03-1.39.02-2.09.01-2.35-.02,2.12.46-.13-.06-1.58-.37-.03.04.25.1-.32-.07-3.18-.86-2.32-.58-4.02-1.33-9.1-5.05-12.3-9.29-7.96-10.55-9.29-25.12-2.84-36.76,2.67-4.82,6.73-9.25,11.23-11.85,1.3-.75,2.76-1.41,4.18-1.91-1.77.62,3.14-.8,1.59-.39-1.75.47,2.42-.18.26-.06-1.71.09.58,0,.77,0,3.1,0,.71-.07.15-.01l1.35.17c-1.15-.24-1.24-.25-.28-.03,1.93.49,4.17,1.29,6.59,2.88,2.83,1.86,5.35,4.13,7.39,6.83,4.6,6.09,6.8,12.96,6.94,20.56.17,9.51,30.17,9.41,30,0-.84-45.87-66.46-57.17-93.75-27.11-12.13,13.35-13.86,33.95-3.99,49.12,11.86,18.24,35.9,24.37,56.42,20.99,22.05-3.64,40.89-19.5,41.32-42.99.17-9.32-29.82-9.6-30,0Z"/>
      <path d="M138.02,37.68c1.13,12.93-4.12,25.97-15.2,33.24-2.47,1.62-5.15,2.81-8,3.58.44-.12.61-.4-.31.02-1.4.64.14-.06.75-.06,1.51,0,3.76.51,1.72-.04-4.49-1.21-9.86-4.66-13.56-8.61-9.31-9.95-11.94-24.76-7.03-37.45,2.25-5.81,6.36-11.06,11.28-14.85,2.12-1.63,4.53-3.03,7.03-3.99-.05.02,3.37-1,2.3-.72,2.89-.75-1.3-.12-2.42-.12-1.31,0,.68.1.86.16-1.22-.38,1.23.39,1.44.47,1.25.48,2.47,1.04,3.66,1.67,3.11,1.66,5.82,3.85,8.23,6.42,5.32,5.69,8.3,12.6,9.26,20.29.87,6.99,30.66,5.33,30,0-2.43-19.47-17.57-32.24-36.14-36.03-20.21-4.13-46.62-1.2-59.92,16.48-10.72,14.24-10.43,34.14.84,48,14.24,17.52,41.44,19.7,61.92,14.77s35.17-21.97,33.31-43.23c-.59-6.78-30.49-5.63-30,0Z"/>
    </g>
  </g>
</svg>