<?xml version="1.0" encoding="UTF-8"?>
<svg id="Layer_2" data-name="Layer 2" xmlns="http://www.w3.org/2000/svg" viewBox="0 0 469.92 449.86">
  <g id="Layer_2-2" data-name="Layer 2">
    <g>
      <path d="M469.37,222.49c-25.03-24.73-50.07-49.46-75.1-74.19-39.89-39.41-79.79-78.82-119.68-118.24-9.15-9.04-18.3-18.08-27.45-27.12C244.09-.08,236.54,0,232.69,0c-4.1,0-11.33-.22-14.46,2.94-24.51,24.72-49.02,49.44-73.53,74.16-39.07,39.41-78.15,78.81-117.22,118.22-8.98,9.05-17.96,18.11-26.93,27.16-.71.71-.71,1.42,0,2.13,24.58,25.08,49.17,50.17,73.75,75.25,39.03,39.82,78.05,79.64,117.08,119.46,8.95,9.13,17.9,18.27,26.86,27.4,3.87,3.95,13.49,3.18,18.45,2.8,1.44-.11,13.68-1.67,10.48-4.93-24.58-25.08-49.17-50.17-73.75-75.25-39.03-39.82-78.05-79.64-117.08-119.46-8.95-9.13-17.9-18.27-26.86-27.4v2.13c24.51-24.72,49.02-49.44,73.53-74.16,39.07-39.41,78.15-78.81,117.22-118.22,8.98-9.05,17.96-18.11,26.93-27.16h-28.93c25.03,24.73,50.07,49.46,75.1,74.19,39.89,39.41,79.79,78.82,119.68,118.24,9.15,9.04,18.3,18.08,27.45,27.12,3.96,3.92,13.42,3.18,18.45,2.8,1.4-.11,13.72-1.73,10.48-4.93h0Z"/>
      <path d="M287.1,349.01c26.73-32.25,53.45-64.5,80.18-96.74,3.78-4.56,7.55-9.11,11.33-13.67,1.43-1.73-.32-3.28-1.51-4.28-14.77-12.4-29.54-24.81-44.3-37.21-23.58-19.81-47.16-39.61-70.75-59.42-5.47-4.6-10.94-9.19-16.41-13.79-3.49-2.93-10.91-2.88-14.95-2.65s-9.69.67-12.47,3.98c-28.2,33.58-56.4,67.16-84.61,100.73-4.04,4.8-8.07,9.61-12.11,14.41-3.74,4.46,8.46,6.62,10.48,6.83,5.3.55,14.56.75,18.45-3.88,28.2-33.58,56.4-67.16,84.61-100.73,4.04-4.8,8.07-9.61,12.11-14.41-9.14.44-18.28.88-27.42,1.33,14.77,12.4,29.54,24.81,44.3,37.21,23.58,19.81,47.16,39.61,70.75,59.42,5.47,4.6,10.94,9.19,16.41,13.79l-1.51-4.28c-26.73,32.25-53.45,64.5-80.18,96.74-3.78,4.56-7.55,9.11-11.33,13.67-3.71,4.48,8.44,6.62,10.48,6.83,5.27.55,14.6.76,18.45-3.88h0Z"/>
      <path d="M246.62,253.32c-.15,5.22-1.64,10.31-4.96,14.43-1.54,1.91-3.42,3.54-5.48,4.86-3.83,2.44-9.2,2.19,1.78,2.19s5.62.25,1.78-2.19c-2.29-1.46-4.41-3.34-6.03-5.53-2.9-3.93-4.4-8.89-4.41-13.76-.02-10.31,6.18-17.51,15.16-21.48-14.84,6.57-16.88-2.06-11.48.5,1.1.52,2.16,1.03,3.19,1.69,1.81,1.15,3.52,2.57,4.94,4.19,3.68,4.19,5.34,9.6,5.5,15.1.12,4,30.1,3.6,30,0-.37-12.68-9.43-21.84-21.45-24.59-10.03-2.29-21.11-2.26-31.24-.63-6.29,1.02-12.56,3.21-17.15,7.81-8.55,8.55-9.91,21.88-2.66,31.69,9.71,13.13,29.6,12.98,44.18,11.44,14.6-1.54,27.86-9.69,28.33-25.72.1-3.49-29.88-4.1-30,0Z"/>
    </g>
  </g>
</svg>