<?xml version="1.0" encoding="UTF-8"?>
<svg id="Layer_2" data-name="Layer 2" xmlns="http://www.w3.org/2000/svg" viewBox="0 0 254.73 449.19">
  <g id="Layer_2-2" data-name="Layer 2">
    <path d="M.02,2.35c13.99,41.47,27.97,82.94,41.96,124.41,1.98,5.87,3.96,11.73,5.93,17.6.99,2.94,13.29,2.27,15,2.27,41.96,0,83.92,0,125.88,0,5.93,0,11.86,0,17.79,0-4.82-.96-9.64-1.91-14.46-2.87-16.94,15.65-33.88,31.3-50.82,46.96-11.13,10.29-22.27,20.57-33.4,30.86-3.17,2.93-6.35,5.87-9.52,8.8-.85.79-2.28,1.73-2.51,2.82-.31,1.51.81,4.27,1.09,5.77.76,4,1.51,8,2.27,12,2.39,12.61,4.77,25.22,7.16,37.83,6.14,32.44,12.28,64.87,18.42,97.31,2.49,13.14,4.97,26.27,7.46,39.41l2.5,13.18c.43,2.25.52,5.08,1.37,7.22.12.29.13.67.19.99.53,2.79,13.75,2.27,15,2.27,25.76,0,51.53,0,77.29,0h11.12c1.63,0,15,.27,15-2.27s-14.21-2.27-15-2.27c-25.76,0-51.53,0-77.29,0h-11.12c5,.76,10,1.51,15,2.27-3.12-16.49-6.25-32.99-9.37-49.48-6.06-32.01-12.12-64.02-18.18-96.02l-12.47-65.87c-.2-1.06-.34-3.28-.85-2.22.97-1.99,4.45-4.11,6.05-5.59,9.89-9.14,19.78-18.28,29.67-27.42,19.58-18.09,39.45-35.9,58.75-54.28.37-.35.75-.69,1.12-1.04,1.53-1.41-1.74-1.76-2.68-1.98-3.8-.87-7.91-.89-11.78-.89-41.96,0-83.92,0-125.88,0-5.93,0-11.86,0-17.79,0l15,2.27c-13.99-41.47-27.97-82.94-41.96-124.41-1.98-5.87-3.96-11.73-5.93-17.6C29-.67,17.43.08,15.02.08,13.93.08-.55.68.02,2.35H.02Z"/>
  </g>
</svg>