<?xml version="1.0" encoding="UTF-8"?>
<svg id="Layer_2" data-name="Layer 2" xmlns="http://www.w3.org/2000/svg" viewBox="0 0 347.08 453.79">
  <g id="Layer_2-2" data-name="Layer 2">
    <g>
      <path d="M345.41,167.48c-17.36-18.47-34.73-36.93-52.09-55.4-27.64-29.4-55.29-58.8-82.93-88.19-6.3-6.7-12.6-13.4-18.9-20.1-4.86-5.16-20.98-4.92-25.9,0-18.49,18.49-36.97,36.97-55.46,55.46-29.33,29.33-58.65,58.65-87.98,87.98-6.75,6.75-13.5,13.5-20.25,20.25-2.51,2.51-2.51,4.35,0,6.86,18.49,18.49,36.97,36.97,55.46,55.46,29.33,29.33,58.65,58.65,87.98,87.98,6.75,6.75,13.5,13.5,20.25,20.25,4.56,4.56,14.88,3.98,20.52,2.44,4.7-1.28,10.03-4.65,5.38-9.3l-55.46-55.46c-29.33-29.33-58.65-58.65-87.98-87.98-6.75-6.75-13.5-13.5-20.25-20.25v6.86c18.49-18.49,36.97-36.97,55.46-55.46,29.33-29.33,58.65-58.65,87.98-87.98,6.75-6.75,13.5-13.5,20.25-20.25h-25.9c17.36,18.47,34.73,36.93,52.09,55.4,27.64,29.4,55.29,58.8,82.93,88.19,6.3,6.7,12.6,13.4,18.9,20.1,5.93,6.3,34.76,2.56,25.9-6.86h0Z"/>
      <path d="M16.72,285.29c17.66,18.64,35.32,37.28,52.98,55.92,28.13,29.69,56.26,59.39,84.39,89.08,6.43,6.79,12.87,13.58,19.3,20.37,6.01,6.35,34.85,2.5,25.9-6.94-17.66-18.64-35.32-37.28-52.98-55.92-28.13-29.69-56.26-59.39-84.39-89.08-6.43-6.79-12.87-13.58-19.3-20.37-6.01-6.35-34.85-2.5-25.9,6.94h0Z"/>
      <path d="M186.01,183.22c-.14,4.95-1.46,9.79-4.59,13.72-1.46,1.83-3.22,3.45-5.16,4.74-3.37,2.25-7.15,1.6,1.43,1.6s4.81.65,1.43-1.6c-1.95-1.3-3.71-2.91-5.16-4.74-3.07-3.85-4.57-8.82-4.59-13.72s1.53-9.86,4.59-13.72c1.32-1.67,2.9-3.15,4.63-4.38,3.53-2.53,7.61-1.78-.9-1.96-.57-.01-6.56-1.56-4.48-.02.69.52,1.75.79,2.52,1.26,1.99,1.22,3.78,2.84,5.28,4.61,3.4,4.02,4.85,9.01,5,14.2s30.13,4.59,30,0c-.37-12.83-9.65-21.92-21.72-24.83-9.53-2.29-20.07-2.33-29.72-.69-6.5,1.11-13.06,3.41-17.82,8.17-8.46,8.46-9.59,21.44-2.84,31.24,9.23,13.42,29.6,13.91,44.08,12.07s27.57-10.13,28.02-25.97c.13-4.48-29.85-5.06-30,0Z"/>
    </g>
  </g>
</svg>