<?xml version="1.0" encoding="UTF-8"?>
<svg id="Layer_2" data-name="Layer 2" xmlns="http://www.w3.org/2000/svg" viewBox="0 0 458.6 377.65">
  <g id="Layer_2-2" data-name="Layer 2">
    <path d="M.58,10.22c4.98,12.03,9.96,24.06,14.94,36.09,11.89,28.73,23.78,57.45,35.68,86.18,14.38,34.74,28.76,69.49,43.15,104.23,12.5,30.19,24.99,60.37,37.49,90.56l12.35,29.84c1.93,4.65,3.54,9.66,5.85,14.14.1.19.17.41.25.61,1.73,4.19,8.78,5.47,12.47,5.71,4.78.32,11.29-.22,14.95-3.81,9.26-9.07,18.52-18.14,27.77-27.21,22.23-21.78,44.46-43.55,66.68-65.33,26.76-26.22,53.52-52.44,80.29-78.66,23.24-22.77,46.49-45.54,69.73-68.31,11.26-11.03,23.03-21.73,33.87-33.18.15-.16.31-.31.47-.46,6.59-6.46-4.06-10.71-8.96-11.72-14.26-2.94-28.51-5.89-42.77-8.83-34.06-7.03-68.12-14.07-102.18-21.1-41.35-8.54-82.7-17.08-124.04-25.61-35.6-7.35-71.2-14.7-106.79-22.05C54.46,7.72,37.18,3.6,19.78.56c-.25-.04-.5-.1-.75-.15C13.64-.71,3.34.26.58,5.98c-3,6.2,6.48,8.99,10.48,9.81,14.26,2.94,28.51,5.89,42.77,8.83,34.06,7.03,68.12,14.07,102.18,21.1,41.35,8.54,82.7,17.08,124.04,25.61,35.6,7.35,71.2,14.7,106.79,22.05,11.74,2.42,23.48,4.85,35.22,7.27,5.53,1.14,11.16,2.74,16.76,3.46.25.03.5.1.75.15l-8.96-11.72c-9.26,9.07-18.52,18.14-27.77,27.21-22.23,21.78-44.46,43.55-66.68,65.33-26.76,26.22-53.52,52.44-80.29,78.66-23.24,22.77-46.49,45.54-69.73,68.31-11.24,11.02-23.16,21.64-33.87,33.18-.15.16-.31.31-.47.46,9.14.64,18.28,1.27,27.42,1.91-4.98-12.03-9.96-24.06-14.94-36.09-11.89-28.73-23.78-57.45-35.68-86.18-14.38-34.74-28.76-69.49-43.15-104.23-12.5-30.19-24.99-60.37-37.49-90.56-4.12-9.95-8.23-19.89-12.35-29.84-1.93-4.65-3.54-9.66-5.85-14.14-.1-.19-.17-.41-.25-.61C25.53-3.62-4.09-1.05.58,10.22Z"/>
  </g>
</svg>