<?xml version="1.0" encoding="UTF-8"?>
<svg id="Layer_2" data-name="Layer 2" xmlns="http://www.w3.org/2000/svg" viewBox="0 0 401.43 318.08">
  <g id="Layer_2-2" data-name="Layer 2">
    <g>
      <g>
        <path d="M.83,14.12c6.22,9.84,12.44,19.68,18.66,29.51,14.94,23.63,29.88,47.26,44.83,70.9,18.08,28.6,36.17,57.2,54.25,85.8,15.65,24.75,31.29,49.49,46.94,74.24,7.63,12.06,15.08,24.25,22.89,36.2.11.18.22.35.34.53,5.71,9.02,23.24,9.05,28.93,0,6.04-9.61,12.08-19.21,18.12-28.82,14.6-23.22,29.19-46.43,43.79-69.65,17.58-27.96,35.16-55.92,52.74-83.89,15.21-24.2,30.43-48.39,45.64-72.59,5.05-8.03,10.1-16.06,15.15-24.09,2.35-3.74,5.25-7.48,7.2-11.45.09-.18.21-.34.32-.5,3.71-5.9-6.28-10.48-10.48-11.07-6.65-.93-14.61.18-18.45,6.28-6.04,9.61-12.08,19.21-18.12,28.82-14.6,23.22-29.19,46.43-43.79,69.65-17.58,27.96-35.16,55.92-52.74,83.89-15.21,24.2-30.43,48.39-45.64,72.59-7.41,11.79-15.57,23.37-22.34,35.54-.1.17-.21.34-.32.5h28.93c-6.22-9.84-12.44-19.68-18.66-29.51-14.94-23.63-29.88-47.26-44.83-70.9-18.08-28.6-36.17-57.2-54.25-85.8L52.98,46.07c-7.63-12.06-15.08-24.25-22.89-36.2-.11-.18-.22-.35-.34-.53C25.98,3.37,17.9,1.95,11.31,3.06,7.3,3.73-2.98,8.1.83,14.12h0Z"/>
        <path d="M96.13,5.61c10.25,33.56,20.51,67.12,30.76,100.68,16.28,53.28,32.55,106.55,48.83,159.83,3.73,12.22,7.47,24.44,11.2,36.66,1.63,5.33,10.42,5.67,15,5.67s13.37-.31,15-5.67c10.02-32.99,20.04-65.97,30.06-98.96,15.83-52.11,31.66-104.22,47.49-156.33,3.62-11.9,7.23-23.8,10.85-35.7,1.73-5.69-27.23-9.11-30,0-10.02,32.99-20.04,65.97-30.06,98.96-15.83,52.11-31.66,104.22-47.49,156.33-3.62,11.9-7.23,23.8-10.85,35.7h30c-10.25-33.56-20.51-67.12-30.76-100.68-16.28-53.28-32.55-106.55-48.83-159.83-3.73-12.22-7.47-24.44-11.2-36.66-2.76-9.02-31.76-5.78-30,0h0Z"/>
      </g>
      <path d="M185.73,5.61v297.18c0,5.95,30,6.06,30,0V5.61c0-5.95-30-6.06-30,0h0Z"/>
    </g>
  </g>
</svg>