<?xml version="1.0" encoding="UTF-8"?>
<svg id="Layer_2" data-name="Layer 2" xmlns="http://www.w3.org/2000/svg" viewBox="0 0 306.76 388.79">
  <g id="Layer_2-2" data-name="Layer 2">
    <g>
      <path d="M142.5,7.02c-16,19.15-32.01,38.3-48.01,57.45-25.49,30.5-50.98,61-76.47,91.5-5.83,6.97-11.65,13.94-17.48,20.91-.71.79-.71,1.59,0,2.38,11.76,22.84,23.52,45.68,35.29,68.52,18.74,36.38,37.47,72.76,56.21,109.15,4.28,8.32,8.57,16.64,12.85,24.96.83,1.62,5.62,2.45,6.89,2.68,3.73.68,7.79.77,11.56.45,2.57-.22,12.75-1.09,10.48-5.51-11.76-22.84-23.52-45.68-35.29-68.52-18.74-36.38-37.47-72.76-56.21-109.15-4.28-8.32-8.57-16.64-12.85-24.96v2.38c16-19.15,32.01-38.3,48.01-57.45,25.49-30.5,50.98-61,76.47-91.5,5.83-6.97,11.65-13.94,17.48-20.91,3.3-3.95-8.87-5.38-10.48-5.51-4.65-.39-14.91-1.1-18.45,3.13h0Z"/>
      <path d="M206.44,6.63c-16,19.15-32.01,38.3-48.01,57.45-25.49,30.5-50.98,61-76.47,91.5-5.83,6.97-11.65,13.94-17.48,20.91-.71,1.05-.71,2.1,0,3.16,11.76,22.84,23.52,45.68,35.29,68.52,18.74,36.38,37.47,72.76,56.21,109.15,4.28,8.32,8.57,16.64,12.85,24.96,3.86,7.49,32.97,4.69,28.93-3.16-11.76-22.84-23.52-45.68-35.29-68.52-18.74-36.38-37.47-72.76-56.21-109.15-4.28-8.32-8.57-16.64-12.85-24.96v3.16c16-19.15,32.01-38.3,48.01-57.45,25.49-30.5,50.98-61,76.47-91.5,5.83-6.97,11.65-13.94,17.48-20.91,3.86-4.62-8.29-7.06-10.48-7.3-5.52-.62-14.47-.62-18.45,4.14h0Z"/>
      <path d="M278.93,3.95c-16,19.15-32.01,38.3-48.01,57.45-25.49,30.5-50.98,61-76.47,91.5-5.83,6.97-11.65,13.94-17.48,20.91-1.55,1.85-2.77,4.07-1.51,6.51,11.76,22.84,23.52,45.68,35.29,68.52,18.74,36.38,37.47,72.76,56.21,109.15,4.28,8.32,8.57,16.64,12.85,24.96,5.06,9.83,34.6,6.53,28.93-4.49-11.76-22.84-23.52-45.68-35.29-68.52-18.74-36.38-37.47-72.76-56.21-109.15-4.28-8.32-8.57-16.64-12.85-24.96l-1.51,6.51c16-19.15,32.01-38.3,48.01-57.45,25.49-30.5,50.98-61,76.47-91.5,5.83-6.97,11.65-13.94,17.48-20.91,9.53-11.41-19.09-16.67-25.9-8.52h0Z"/>
    </g>
  </g>
</svg>