<?xml version="1.0" encoding="UTF-8"?>
<svg id="Layer_2" data-name="Layer 2" xmlns="http://www.w3.org/2000/svg" viewBox="0 0 323.27 464.35">
  <g id="Layer_2-2" data-name="Layer 2">
    <g>
      <path d="M29.77,121.72c29.94-33.16,59.89-66.32,89.83-99.49,4.31-4.77,8.61-9.54,12.92-14.3h-28.93c10.1,20.49,20.19,40.97,30.29,61.46,19.9,40.39,39.8,80.77,59.7,121.16,14.4,29.22,28.8,58.44,43.2,87.66.76,1.54,1.56,4.59,2.84,5.77-.97-.9-.33-2.29-.5-.14-.14,1.83,0,3.72,0,5.55v51.97c0,37.25,0,74.49,0,111.74v2.25c0,8.82,30,8.91,30,0v-97.43c0-20.01,0-40.01,0-60.02,0-6.06,1.29-13.22-1.35-18.83-12.16-25.8-25.23-51.21-37.84-76.79-20.12-40.83-40.24-81.65-60.35-122.48-8.04-16.32-16.09-32.64-24.13-48.96-4.08-8.29-7.7-17.09-12.36-25.08-.22-.37-.38-.78-.57-1.16-2.01-4.07-10.8-4.6-14.46-4.6-4.96,0-10.97.74-14.46,4.6C73.64,37.76,43.7,70.93,13.76,104.09c-4.31,4.77-8.61,9.54-12.92,14.3s8.32,7.45,10.48,7.71c5.93.7,14.14.4,18.45-4.38h0Z"/>
      <path d="M164.14,293.02v156.27c0,8.91,30,9,30,0v-156.27c0-8.91-30-9-30,0h0Z"/>
      <path d="M293.27,293.02v162.34c0,11.95,30,12.02,30,0v-162.34c0-11.95-30-12.02-30,0h0Z"/>
    </g>
  </g>
</svg>