<?xml version="1.0" encoding="UTF-8"?>
<svg id="Layer_2" data-name="Layer 2" xmlns="http://www.w3.org/2000/svg" viewBox="0 0 458.86 437.22">
  <g id="Layer_2-2" data-name="Layer 2">
    <g>
      <path d="M30.06,434.11c10.45-20.3,20.9-40.61,31.34-60.91,20.77-40.37,41.55-80.75,62.32-121.12,15.27-29.68,30.55-59.37,45.82-89.05,9.77-18.99,19.55-37.99,29.32-56.98,17.31-33.64,34.62-67.28,51.93-100.92.34-.67.69-1.34,1.03-2.01h-30c6.85,14.26,13.69,28.51,20.54,42.77,16.52,34.39,33.03,68.78,49.55,103.17,19.91,41.46,39.83,82.93,59.74,124.39,17.22,35.85,34.43,71.7,51.65,107.55,5.68,11.83,11.36,23.65,17.04,35.48,2.65,5.51,4.87,11.75,8.13,16.93.14.22.23.48.34.71,1.78,3.71,11.66,3.05,15,3.05,1.04,0,15.99-.98,15-3.05-6.85-14.26-13.69-28.51-20.54-42.77-16.52-34.39-33.03-68.78-49.55-103.17-19.91-41.46-39.83-82.93-59.74-124.39-17.22-35.85-34.43-71.7-51.65-107.55-5.68-11.83-11.36-23.65-17.04-35.48-2.65-5.51-4.87-11.75-8.13-16.93-.14-.22-.23-.48-.34-.71-1.78-3.71-11.66-3.05-15-3.05s-13.04-.75-15,3.05c-15.06,29.27-30.13,58.55-45.19,87.82-11.65,22.65-23.31,45.3-34.96,67.95-13.49,26.21-26.97,52.42-40.46,78.63-20.95,40.71-41.9,81.43-62.85,122.14-8.33,16.18-16.65,32.36-24.98,48.54l-8.28,16.08c-1.39,2.7-3.65,5.77-4.48,8.7-.11.38-.4.77-.58,1.13-1.12,2.17,13.9,3.05,15,3.05,3.43,0,13.04.75,15-3.05h0Z"/>
      <path d="M143.39,157.54c23.95,25.75,47.89,51.49,71.84,77.24,3.42,3.68,6.84,7.35,10.26,11.03,2.68,2.88,11.07,2.59,14.46,2.59,3.57,0,11.91.49,14.46-2.59,20.92-25.22,41.85-50.44,62.77-75.66,2.93-3.53,5.86-7.06,8.79-10.59s-9.16-4.25-10.48-4.34c-3.83-.26-7.75-.19-11.56.36-1.95.28-5.56.51-6.89,2.11-20.92,25.22-41.85,50.44-62.77,75.66-2.93,3.53-5.86,7.06-8.79,10.59h28.93c-23.95-25.75-47.89-51.49-71.84-77.24-3.42-3.68-6.84-7.35-10.26-11.03-1.33-1.43-5.29-1.88-6.89-2.11-3.77-.54-7.77-.61-11.56-.36-1.46.1-13.3,1.3-10.48,4.34h0Z"/>
      <path d="M14.84,304c14.66,22.42,29.32,44.85,43.99,67.27,2.09,3.2,4.19,6.41,6.28,9.61,2.29,3.5,11.39,2.78,15,2.78,1.02,0,15.88-1.43,15-2.78-14.66-22.42-29.32-44.85-43.99-67.27-2.09-3.2-4.19-6.41-6.28-9.61-2.29-3.5-11.39-2.78-15-2.78-1.02,0-15.88,1.43-15,2.78h0Z"/>
      <path d="M235.48,136.94c-.12,3.62-1.07,7.19-3.56,9.98-.83.93-1.83,1.56-2.34,1.89-.26.17-.36.49-.49.29-.95.28-.82.26.41-.06l1.32-.09c.82,0,1.55.27,2.34.34l-1.23-.38c.87.31.91.27.13-.1-.52-.34-1.42-.88-2.34-1.89-2.44-2.68-3.56-6.44-3.56-9.98s1.01-6.8,3.19-9.47c.5-.61,2.31-2.22,2.15-2.1.77-.61,1-.66,1.05-.6.79-.23.82-.25.1-.07-.38.12-.77.18-1.17.17-1.03-.02-2-.21-3-.29.71.06,1.68.79.55.18,1.09.59,1.68.91,2.82,2.17,2.52,2.79,3.51,6.35,3.64,10.02.21,6.29,10.4,7.64,15,7.64,4.15,0,15.21-1.38,15-7.64-1.23-36.43-69.32-36.52-69.32,0s68.09,36.45,69.32,0c.35-10.42-29.64-10.79-30,0Z"/>
    </g>
  </g>
</svg>