<?xml version="1.0" encoding="UTF-8"?>
<svg id="Layer_2" data-name="Layer 2" xmlns="http://www.w3.org/2000/svg" viewBox="0 0 278.18 446.67">
  <g id="Layer_2-2" data-name="Layer 2">
    <g>
      <path d="M29.49,383.12c5.7-12.38,11.4-24.76,17.1-37.14,13.69-29.73,27.38-59.45,41.07-89.18,16.49-35.81,32.98-71.62,49.47-107.43,14.33-31.11,28.65-62.22,42.98-93.33,6.94-15.07,14.78-30.02,20.92-45.44.09-.22.2-.43.3-.65l-29.46-2.11v357.99c0,4.77-.44,9.78,0,14.53.02.21,0,.43,0,.64l15-7.92h-105.57c-4.6,0-15,1.53-15,7.92s10.64,7.92,15,7.92h105.57c4.5,0,15-1.54,15-7.92V23.02c0-4.79.38-9.75,0-14.53-.02-.21,0-.43,0-.64,0-5.73-8.89-7.51-13.01-7.78-4.96-.33-13.97.27-16.46,5.68-5.7,12.38-11.4,24.76-17.1,37.14-13.69,29.73-27.38,59.45-41.07,89.18-16.49,35.81-32.98,71.62-49.47,107.43-14.33,31.11-28.65,62.22-42.98,93.33-6.94,15.06-14.81,30.01-20.92,45.44-.09.22-.2.43-.3.65-4.96,10.76,24.53,13.76,28.93,4.21h0Z"/>
      <path d="M115.95,444.85c5.37-11.72,10.74-23.44,16.11-35.15,12.9-28.14,25.8-56.28,38.69-84.42,15.6-34.05,31.21-68.09,46.81-102.14,13.49-29.43,26.98-58.87,40.47-88.3,6.52-14.23,13.9-28.35,19.66-42.9.08-.2.18-.4.27-.6h-30v339.14c0,4.49-.49,9.29,0,13.76.02.2,0,.42,0,.63l15-1.82h-100.66c-1.46,0-15-.26-15,1.82s14.42,1.82,15,1.82h100.66c1.21,0,15,.21,15-1.82V96.76c0-1.3.45-3.58,0-4.82-.06-.16,0-.45,0-.63,0-2.1-28.38-3.54-30,0-5.37,11.72-10.74,23.44-16.11,35.15-12.9,28.14-25.8,56.28-38.69,84.42-15.6,34.05-31.21,68.09-46.81,102.14-13.49,29.43-26.98,58.87-40.47,88.3-4.45,9.7-8.89,19.4-13.34,29.1l-4.15,9.06c-.52,1.15-2.19,3.46-2.17,4.75,0,.17-.2.44-.27.6-.49,1.07,13.92,1.82,15,1.82,3.53,0,7.1-.08,10.61-.53,1.06-.14,3.88-.16,4.39-1.29h0Z"/>
    </g>
  </g>
</svg>