<?xml version="1.0" encoding="UTF-8"?>
<svg id="Layer_2" data-name="Layer 2" xmlns="http://www.w3.org/2000/svg" viewBox="0 0 264.19 465.52">
  <g id="Layer_2-2" data-name="Layer 2">
    <g>
      <path d="M30,98.49V7.77l-15,7.77h234.15l-15-7.77v226.8l15-7.77H15c-4.52,0-15,1.44-15,7.77s10.74,7.77,15,7.77h234.15c4.41,0,15-1.46,15-7.77V7.77c0-6.31-10.78-7.77-15-7.77H15C10.59,0,0,1.46,0,7.77v90.72c0,10.74,30,10.82,30,0h0Z"/>
      <path d="M39.27,462.42c25.29-25.57,50.59-51.14,75.88-76.71,40.28-40.72,80.57-81.45,120.85-122.17,9.2-9.31,18.41-18.61,27.61-27.92,3.38-3.41-9.31-4.81-10.48-4.9-4.79-.36-14.58-1.13-18.45,2.78-25.29,25.57-50.59,51.14-75.88,76.71-40.28,40.72-80.57,81.45-120.85,122.17-9.2,9.31-18.41,18.61-27.61,27.92-3.38,3.41,9.31,4.81,10.48,4.9,4.79.36,14.58,1.13,18.45-2.78h0Z"/>
      <path d="M141.2,121.59c-.15,5.33-1.69,10.39-4.96,14.66-1.67,2.19-3.73,4.01-6.08,5.44-4.23,2.58-11.3,2.46,1.92,2.46s5.76.04,1.38-2.81c-2.13-1.38-4-3.07-5.54-5.09-3.21-4.19-4.95-9.38-4.96-14.66-.02-11.21,6.99-18.53,16.73-22.56-13.4,5.54-20.1-2.07-12.98.72,1.19.46,2.36,1.08,3.45,1.74,2.35,1.43,4.41,3.26,6.08,5.44,3.27,4.27,4.81,9.32,4.96,14.66.09,3.06,30.07,2.64,30,0-.35-12.67-9.36-22.02-21.48-24.63-10.3-2.22-21.92-2.04-32.3-.52-6.25.92-12.04,2.98-16.68,7.38-8.93,8.48-10.4,22.53-2.83,32.42,10.01,13.07,29.8,12.19,44.45,10.97,14.88-1.24,28.38-9.25,28.83-25.63.07-2.55-29.91-3.15-30,0Z"/>
    </g>
  </g>
</svg>