<?xml version="1.0" encoding="UTF-8"?>
<svg id="Layer_2" data-name="Layer 2" xmlns="http://www.w3.org/2000/svg" viewBox="0 0 274.52 456.6">
  <g id="Layer_2-2" data-name="Layer 2">
    <g>
      <path d="M152.71,130.36c.92-4.89,3.04-9.44,6.69-12.91,1.89-1.8,4.12-3.22,6.52-4.22.95-.4,1.95-.6,2.9-.97-14.36,5.66-21.6-2.26-13.97.92,9.48,3.96,14.87,14.29,13.3,24.36-.75,4.86-3.13,9.51-6.69,12.91-1.73,1.65-3.75,2.97-5.91,3.97-1.09.5-2.45.71-3.5,1.23,5.46-.03,10.92-.06,16.38-.09-.82-.22-1.62-.5-2.4-.83-9.69-4.01-14.59-14.24-13.3-24.36.21-1.67-13.74-1.69-15-1.69-1.58,0-14.72-.55-15,1.69-1.46,11.44,5.21,22.37,16.29,25.95,9.46,3.05,20.45,2.68,30.23,2.06,6.7-.43,13.61-1.35,19.18-5.38,9.36-6.76,12.83-19.44,7.34-29.8-7.33-13.84-24.15-14.12-37.88-13.9-15.32.25-31.86,3.55-35.17,21.07-.29,1.54,13.8,1.69,15,1.69,1.71,0,14.55.67,15-1.69Z"/>
      <path d="M132.76,4.15c-14.74,14.79-29.48,29.58-44.23,44.37-23.49,23.56-46.97,47.12-70.46,70.69-5.38,5.39-10.75,10.79-16.13,16.18-2.58,2.59-2.6,5.69,0,8.28,14.04,14,28.07,28,42.11,42,22.52,22.46,45.05,44.93,67.57,67.39,5.17,5.15,10.33,10.31,15.5,15.46,6.02,6,19.79,5.47,25.9,0,34.89-31.17,69.77-62.35,104.66-93.52,4.93-4.41,9.86-8.81,14.79-13.22l-27.42-6.32c-15.48,32.92-30.97,65.85-46.45,98.77-24.49,52.08-48.99,104.17-73.48,156.25-5.63,11.96-11.25,23.92-16.88,35.88-5.18,11.02,24.32,14.16,28.93,4.36,15.48-32.92,30.97-65.85,46.45-98.77,24.49-52.08,48.99-104.17,73.48-156.25,5.63-11.96,11.25-23.92,16.88-35.88,2.56-5.45-4.64-8.75-8.68-9.67-6.03-1.38-13.88-.98-18.73,3.36-34.89,31.17-69.77,62.35-104.66,93.52-4.93,4.41-9.86,8.81-14.79,13.22h25.9c-14.04-14-28.07-28-42.11-42-22.52-22.46-45.05-44.93-67.57-67.39-5.17-5.15-10.33-10.31-15.5-15.46v8.28c14.74-14.79,29.48-29.58,44.23-44.37,23.49-23.56,46.97-47.12,70.46-70.69,5.38-5.39,10.75-10.79,16.13-16.18,4.82-4.83-.5-9.62-5.38-11.22-5.97-1.96-15.7-1.9-20.52,2.94h0Z"/>
    </g>
  </g>
</svg>