<?xml version="1.0" encoding="UTF-8"?>
<svg id="Layer_2" data-name="Layer 2" xmlns="http://www.w3.org/2000/svg" viewBox="0 0 99.03 85.44">
  <g id="Layer_2-2" data-name="Layer 2">
    <path d="M69.03,42.72c-.12,5.94-1.6,11.16-4.75,16.22-1.3,2.08-2.91,3.84-4.74,5.48s-4.37,3.23-6.03,3.91c.95-.39-3.25.99-1.73.59,1.27-.33-4.27.38-.93.26-1.01.04-4.07-.29-1.53.07-.67-.1-1.34-.19-2.01-.31-1.4-.25,1.28.66-.95-.31-1.95-.85.06.23-1.83-.74-1.05-.54-2.7-1.47-3.27-1.89-1.62-1.18-4.03-3.43-5.5-5.38-7.07-9.31-7.71-22.32-2.11-32.46,2.54-4.61,6.3-8.13,10.31-10.33.57-.31,1.16-.62,1.76-.87-.27.12-1.35.58.02.05.33-.13,2.97-.91,1.41-.51-1.43.37.76-.12.84-.14,2.51-.79-1.19-.12,1.49-.14.65,0,2.83.34.14-.04.89.13,1.79.23,2.67.43-2.9-.63,2.83,1.17.94.37,1.38.59,2.76,1.34,4.01,2.17,1.51,1,4.31,3.49,5.91,5.59,3.97,5.23,5.77,11.49,5.9,17.97.22,11.21,30.22,11.13,30,0C98.18-.36,36.34-13.83,10.3,16.09-1.16,29.26-3.75,48.82,6.06,63.79c11.34,17.31,33.65,24.31,53.53,20.74,21.15-3.79,39-19.32,39.45-41.82.22-11.06-29.78-11.28-30,0Z"/>
  </g>
</svg>