<?xml version="1.0" encoding="UTF-8"?>
<svg id="Layer_2" data-name="Layer 2" xmlns="http://www.w3.org/2000/svg" viewBox="0 0 530.98 1033.82">
  <g id="Layer_2-2" data-name="Layer 2">
    <g>
      <path d="M488.31,4.38c-35.57,17.78-71.13,35.57-106.7,53.35-49.64,24.82-99.29,49.64-148.93,74.47-10.3,5.15-26.6,10.49-26.28,24.3.17,7.51.78,15.04,1.17,22.55l6.15,118.4c3.08,59.21,6.15,118.41,9.23,177.62,3.3,63.53,6.6,127.07,9.9,190.6,2.72,52.45,5.45,104.91,8.17,157.36.9,17.39,1.81,34.79,2.71,52.18.44,8.53.31,17.34,1.34,25.83.07.58.06,1.17.09,1.75,0,.04,0,.08,0,.13,0,0,0,.01,0,.02l.52-1.1c-1.39,2.56-.36,1.77,3.07-2.37-.22.03-.43.23-.64.3-4.97,1.62-9.83,4.52-14.56,6.7-22.8,10.49-45.59,20.97-68.39,31.46-49.53,22.78-99.06,45.57-148.58,68.35-3.09,1.42-6.17,2.84-9.26,4.26-3.42,1.58-7.32,5.58-7.32,9.64s3.92,7.88,7.32,9.64c10.91,5.65,24.4,5.04,35.36,0,38.88-17.88,77.76-35.77,116.64-53.65,27.34-12.58,54.68-25.15,82.03-37.73,14.08-6.48,28.48-12.5,42.33-19.47,12.74-6.41,11.54-15.34,10.97-26.34-.67-12.82-1.33-25.65-2-38.47-2.43-46.75-4.86-93.49-7.29-140.24-3.22-62.04-6.45-124.08-9.67-186.11-3.22-61.92-6.43-123.84-9.65-185.76-2.41-46.39-4.82-92.78-7.23-139.17-.66-12.64-1.31-25.28-1.97-37.91-.14-2.71-.34-5.42-.42-8.12-.01-.39-.04-.78-.06-1.18-.03-.43.69.14.06-1.26.91,2.03-4.1,4.89-3.83,4.82.07-.02.12-.07.19-.09.46-.14.9-.47,1.33-.67,14.55-6.66,28.72-14.36,43.03-21.52,26.31-13.16,52.62-26.31,78.94-39.47,46.5-23.25,93.01-46.5,139.51-69.76l8.08-4.04c3.41-1.71,7.32-5.47,7.32-9.64s-3.92-7.88-7.32-9.64c-10.63-5.5-24.7-5.33-35.36,0h0Z"/>
      <path d="M306.71,23.67c17.1,11.03,34.21,22.07,51.31,33.1,27.3,17.61,54.6,35.22,81.89,52.83,6.31,4.07,12.63,8.15,18.94,12.22,9.27,5.98,26.04,5.7,35.36,0,3.49-2.14,7.32-5.07,7.32-9.64s-3.94-7.46-7.32-9.64c-17.1-11.03-34.21-22.07-51.31-33.1-27.3-17.61-54.6-35.22-81.89-52.83-6.31-4.07-12.63-8.15-18.94-12.22-9.27-5.98-26.04-5.7-35.36,0-3.49,2.14-7.32,5.07-7.32,9.64s3.94,7.46,7.32,9.64h0Z"/>
    </g>
  </g>
</svg>