<?xml version="1.0" encoding="UTF-8"?>
<svg id="Layer_2" data-name="Layer 2" xmlns="http://www.w3.org/2000/svg" viewBox="0 0 163.49 356.9">
  <g id="Layer_2-2" data-name="Layer 2">
    <path d="M25.61,54.21c31.35-13.29,62.7-26.58,94.05-39.86,4.5-1.91,9-3.82,13.5-5.72l-25.07-5.09c-8.77,19.89-17.55,39.77-26.32,59.66-13.9,31.51-27.8,63.02-41.7,94.52-3.2,7.25-6.4,14.5-9.6,21.75-1.98,4.48,5.82,5.74,8.68,6.17,5.9.87,13.39.93,18.73-2.14,30.14-17.33,60.28-34.66,90.43-52,4.35-2.5,8.71-5.01,13.06-7.51l-27.95-2.64c-7.28,25.91-14.56,51.83-21.84,77.74-11.61,41.33-23.22,82.65-34.82,123.98-2.67,9.51-5.35,19.03-8.02,28.54-1.47,5.23,27.57,8.66,30,0,7.28-25.91,14.56-51.83,21.84-77.74,11.61-41.33,23.22-82.65,34.82-123.98,2.67-9.51,5.35-19.03,8.02-28.54.99-3.54-9.61-4.9-11.01-5.04-5.43-.54-12.08-.39-16.94,2.4-30.14,17.33-60.28,34.66-90.43,52-4.35,2.5-8.71,5.01-13.06,7.51,9.14,1.34,18.28,2.69,27.42,4.03,8.77-19.89,17.55-39.77,26.32-59.66,13.9-31.51,27.8-63.02,41.7-94.52,3.2-7.25,6.4-14.5,9.6-21.75,3.65-8.27-21.56-6.57-25.07-5.09-31.35,13.29-62.7,26.58-94.05,39.86-4.5,1.91-9,3.82-13.5,5.72-1.34.57-4.39,1.67-4.39,3.7s3.05,3.21,4.39,3.7c5.97,2.17,15.24,2.53,21.21,0h0Z"/>
  </g>
</svg>