<?xml version="1.0" encoding="UTF-8"?>
<svg id="Layer_2" data-name="Layer 2" xmlns="http://www.w3.org/2000/svg" viewBox="0 0 293.09 394.15">
  <g id="Layer_2-2" data-name="Layer 2">
    <path d="M125.79,2.68C89.18,30.73,52.58,58.78,15.98,86.83c-5.15,3.95-10.3,7.89-15.44,11.84-.71.6-.71,1.21,0,1.81,19.71,32.78,39.42,65.57,59.13,98.35,31.41,52.24,62.83,104.49,94.24,156.73,7.2,11.98,14.41,23.96,21.61,35.94,2.48,4.13,30.05,3.12,29.46-.9-4.34-29.96-8.69-59.91-13.03-89.87-6.89-47.54-13.79-95.07-20.68-142.61-1.58-10.92-3.17-21.84-4.75-32.76l-2.05,1.72c37-19.87,74-39.75,111-59.62,5.29-2.84,10.58-5.69,15.88-8.53s-3.04-4.33-5.38-4.65c-5.7-.78-15.13-1.67-20.52,1.22-37,19.87-74,39.75-111,59.62-5.29,2.84-10.58,5.69-15.88,8.53-1.03.22-1.71.79-2.05,1.72,4.34,29.96,8.69,59.91,13.03,89.87,6.89,47.54,13.79,95.07,20.68,142.61,1.58,10.92,3.17,21.84,4.75,32.76l29.46-.9c-19.71-32.78-39.42-65.57-59.13-98.35-31.41-52.24-62.83-104.49-94.24-156.73-7.2-11.98-14.41-23.96-21.61-35.94v1.81c36.6-28.05,73.21-56.1,109.81-84.15,5.15-3.95,10.3-7.89,15.44-11.84,3.39-2.6-9.77-4.14-10.48-4.18-5.16-.33-13.97-1.06-18.45,2.38h0Z"/>
  </g>
</svg>