<?xml version="1.0" encoding="UTF-8"?>
<svg id="Layer_2" data-name="Layer 2" xmlns="http://www.w3.org/2000/svg" viewBox="0 0 378.85 441.95">
  <g id="Layer_2-2" data-name="Layer 2">
    <g>
      <path d="M294.99,3.79c-29.43,23.32-58.87,46.64-88.3,69.96-46.53,36.87-93.06,73.74-139.6,110.6-10.63,8.42-21.26,16.84-31.89,25.27-3.88,3.07-1.27,7.35,2.35,9.05,10.45,4.89,20.9,9.79,31.34,14.68,25.1,11.75,50.2,23.51,75.29,35.26,30.38,14.23,60.76,28.46,91.14,42.69,26.29,12.31,52.58,24.63,78.88,36.94l26.06,12.2c4.05,1.9,8.2,4.42,12.45,5.83.2.07.39.18.58.27l6.62-12.48c-11.58,2.43-23.15,4.85-34.73,7.28-27.8,5.82-55.59,11.65-83.39,17.47-33.46,7.01-66.92,14.02-100.38,21.03-29.09,6.09-58.17,12.19-87.26,18.28-14.16,2.97-28.32,5.93-42.48,8.9-.2.04-.41.08-.61.13-3.81.8-13.53,3.23-10.48,9.18,2.75,5.38,13.47,6.26,18.45,5.21,11.58-2.43,23.15-4.85,34.73-7.28,27.8-5.82,55.59-11.65,83.39-17.47,33.46-7.01,66.92-14.02,100.38-21.03,29.09-6.09,58.17-12.19,87.26-18.28,14.16-2.97,28.32-5.93,42.48-8.9.2-.04.41-.08.61-.13,3.49-.73,8.63-1.57,10.48-5.21,1.63-3.22-1.11-5.98-3.86-7.26-10.45-4.89-20.9-9.79-31.34-14.68-25.1-11.75-50.2-23.51-75.29-35.26-30.38-14.23-60.76-28.46-91.14-42.69-26.29-12.31-52.58-24.63-78.88-36.94-8.69-4.07-17.37-8.14-26.06-12.2-3.99-1.87-8.22-4.56-12.45-5.83-.2-.06-.39-.18-.58-.27l2.35,9.05c29.43-23.32,58.87-46.64,88.3-69.96,46.53-36.87,93.06-73.74,139.6-110.6,10.63-8.42,21.26-16.84,31.89-25.27,5.39-4.27-1.23-8.98-5.38-10.22-6.33-1.89-15.12-1.6-20.52,2.68h0Z"/>
      <path d="M177.53,70.38c20.72-16.2,41.43-32.4,62.15-48.6,5.19-4.06-1.53-7.57-5.38-8.53-5.86-1.47-15.39-1.78-20.52,2.24-20.72,16.2-41.43,32.4-62.15,48.6-5.19,4.06,1.53,7.57,5.38,8.53,5.86,1.47,15.39,1.78,20.52-2.24h0Z"/>
      <path d="M235.2,139.36c20.72-17.73,41.45-35.46,62.17-53.19,5.38-4.6-.8-10.36-5.38-11.96-6.64-2.31-15.08-1.52-20.52,3.14-20.72,17.73-41.45,35.46-62.17,53.19-5.38,4.6.8,10.36,5.38,11.96,6.64,2.31,15.08,1.52,20.52-3.14h0Z"/>
    </g>
  </g>
</svg>