<?xml version="1.0" encoding="UTF-8"?>
<svg id="Layer_2" data-name="Layer 2" xmlns="http://www.w3.org/2000/svg" viewBox="0 0 185.9 332.73">
  <g id="Layer_2-2" data-name="Layer 2">
    <g>
      <path d="M55.91,2.33c11.31,36.44,22.63,72.88,33.94,109.32,17.9,57.66,35.81,115.31,53.71,172.97,4.11,13.23,8.21,26.46,12.32,39.68.92,2.97,12.66,2.25,15,2.25,1.1,0,15.53-.53,15-2.25-11.31-36.44-22.63-72.88-33.94-109.32-17.9-57.66-35.81-115.31-53.71-172.97-4.11-13.23-8.21-26.46-12.32-39.68-.92-2.97-12.66-2.25-15-2.25-1.1,0-15.53.53-15,2.25h0Z"/>
      <path d="M155.89,8.35c-11.31,36.44-22.63,72.88-33.94,109.32-17.9,57.66-35.81,115.31-53.71,172.97-4.11,13.23-8.21,26.46-12.32,39.68-.58,1.86,13.83,2.25,15,2.25,2.3,0,14.04.83,15-2.25,11.31-36.44,22.63-72.88,33.94-109.32,17.9-57.66,35.81-115.31,53.71-172.97,4.11-13.23,8.21-26.46,12.32-39.68.58-1.86-13.83-2.25-15-2.25-2.3,0-14.04-.83-15,2.25h0Z"/>
      <path d="M85.58,330.31c-16.25-47.05-32.5-94.11-48.75-141.16-2.27-6.58-4.54-13.15-6.81-19.73-1.06-3.08-12.52-2.33-15-2.33-1.09,0-15.59.62-15,2.33,16.25,47.05,32.5,94.11,48.75,141.16,2.27,6.58,4.54,13.15,6.81,19.73,1.06,3.08,12.52,2.33,15,2.33,1.09,0,15.59-.62,15-2.33h0Z"/>
      <path d="M88.42,325.31c.93-47.86,1.86-95.73,2.78-143.59.13-6.74.26-13.48.39-20.21.06-3.23-29.93-3.68-30,0-.93,47.86-1.86,95.73-2.78,143.59-.13,6.74-.26,13.48-.39,20.21-.06,3.23,29.93,3.68,30,0h0Z"/>
    </g>
  </g>
</svg>