<?xml version="1.0" encoding="UTF-8"?>
<svg id="Layer_2" data-name="Layer 2" xmlns="http://www.w3.org/2000/svg" viewBox="0 0 490.92 356.05">
  <g id="Layer_2-2" data-name="Layer 2">
    <g>
      <path d="M221.79,62.04c-45.81,13.44-91.62,26.87-137.43,40.31-6.45,1.89-12.9,3.78-19.35,5.67-1.08.32-4.39,1.38-4.39,3.16v240.39c0,4.01,10.9,4.31,13.01,4.39,5.02.19,12.43.39,16.46-3.2,12.94-11.55,25.88-23.1,38.83-34.65,30.94-27.62,61.88-55.23,92.83-82.85,37.41-33.39,74.82-66.77,112.23-100.16,32.34-28.86,64.68-57.73,97.02-86.59,10.69-9.54,21.39-19.09,32.08-28.63,4.92-4.39,10.77-8.56,15.14-13.51.2-.22.46-.41.68-.6,3.86-3.44-9.37-5.4-10.48-5.49-5.4-.46-14.03-.83-18.45,3.12-12.94,11.55-25.88,23.1-38.83,34.65l-92.83,82.85c-37.41,33.39-74.82,66.77-112.23,100.16-32.34,28.86-64.68,57.73-97.02,86.59-15.7,14.01-32.07,27.54-47.22,42.14-.22.21-.45.4-.68.6l29.46,1.19V111.19l-4.39,3.16c45.81-13.44,91.62-26.87,137.43-40.31,6.45-1.89,12.9-3.78,19.35-5.67,1.08-.32,4.39-1.38,4.39-3.16s-3.31-2.82-4.39-3.16c-6.46-2.01-14.73-1.9-21.21,0h0Z"/>
      <path d="M15,239.37h135.87c3.1,0,14.71-.05,15-4.85s-12.92-4.85-15-4.85H15c-3.1,0-14.71.05-15,4.85s12.92,4.85,15,4.85h0Z"/>
      <path d="M460.92,151.39c-.15,5.85-1.81,11.56-5.56,16.14-1.88,2.29-4.2,4.34-6.76,5.85-3.61,2.13-8.45,1.56.63,1.56s3.84.46.08-1.9c-2.34-1.47-4.45-3.36-6.21-5.5-3.69-4.48-5.57-10.37-5.56-16.14s1.86-11.65,5.56-16.14c1.63-1.98,3.55-3.72,5.67-5.15,1.16-.78,2.33-1.44,3.63-1.95,3.17-1.26,3.77-.13-3.17-.3-.93-.02-7.54-1.7-3.78.06,1.12.52,2.08.86,3.15,1.49,2.56,1.51,4.87,3.56,6.76,5.85,3.76,4.57,5.41,10.3,5.56,16.14.12,4.77,30.11,4.46,30,0-.35-13.91-10.12-24.29-23.24-27.75-10.69-2.82-22.95-2.91-33.78-.73-6.62,1.33-13.16,3.93-18.01,8.78-9.56,9.56-10.92,24.36-3.26,35.46,10.08,14.59,31.67,15.52,47.56,13.42,16.02-2.12,30.28-11.68,30.72-29.18.11-4.35-29.88-4.88-30,0Z"/>
    </g>
  </g>
</svg>