<?xml version="1.0" encoding="UTF-8"?>
<svg id="Layer_2" data-name="Layer 2" xmlns="http://www.w3.org/2000/svg" viewBox="0 0 254.72 455.97">
  <g id="Layer_2-2" data-name="Layer 2">
    <path d="M224.72,1.73c-14.01,42.31-28.03,84.61-42.04,126.92-1.95,5.89-3.9,11.78-5.85,17.67l15-1.56H48.15c-3.51,0-7.11.07-10.61.46-.43.05-4.62.89-4.39,1.1,17.05,16.04,34.1,32.08,51.15,48.12,11.09,10.44,22.19,20.87,33.28,31.31l9.46,8.9c.85.8,1.61,1.25,1.8,2.24.32,1.68-.85,4.58-1.16,6.25l-2.33,12.54c-2.42,13-4.83,26-7.25,38.99-6.09,32.77-12.19,65.55-18.28,98.32-2.48,13.33-4.96,26.66-7.44,40-1.25,6.7-3.13,13.6-3.79,20.39-.03.32-.12.65-.18.97l15-1.56H15c-1.38,0-15-.24-15,1.56s14.52,1.56,15,1.56h88.41c1.45,0,14.61.55,15-1.56,3.1-16.69,6.21-33.38,9.31-50.07,6.07-32.62,12.13-65.24,18.2-97.87,4.17-22.42,8.34-44.84,12.51-67.26.15-.79.65-2.12.39-2.84-.64-1.76-4.3-4.04-5.63-5.3-9.86-9.28-19.72-18.55-29.58-27.83-12.2-11.47-24.39-22.94-36.59-34.42-7.54-7.09-14.85-14.58-22.69-21.34-.41-.35-.79-.74-1.18-1.11l-15,1.56h143.67c1.76,0,14.23.77,15-1.56,14.01-42.31,28.03-84.61,42.04-126.92,1.95-5.89,3.9-11.78,5.85-17.67.36-1.07-13.9-1.56-15-1.56-1.97,0-14.18-.92-15,1.56h0Z"/>
  </g>
</svg>