<?xml version="1.0" encoding="UTF-8"?>
<svg id="Layer_2" data-name="Layer 2" xmlns="http://www.w3.org/2000/svg" viewBox="0 0 434.94 309.14">
  <g id="Layer_2-2" data-name="Layer 2">
    <g>
      <path d="M.62,7.6c6.82,9.88,13.64,19.77,20.46,29.65,16.28,23.6,32.57,47.19,48.85,70.79,19.79,28.67,39.57,57.35,59.36,86.02l51.09,74.03c8.25,11.95,15.89,24.83,24.97,36.18.13.16.23.34.35.5,2.68,3.88,10.35,4.36,14.46,4.36s11.73-.37,14.46-4.36c6.62-9.65,13.25-19.3,19.87-28.96,15.91-23.18,31.81-46.36,47.72-69.53,19.24-28.04,38.48-56.07,57.72-84.11,16.56-24.13,33.12-48.26,49.68-72.39,5.52-8.04,11.03-16.08,16.55-24.12,2.56-3.73,5.59-7.41,7.8-11.36.1-.18.24-.35.35-.52,3.37-4.92-7.88-7.02-10.48-7.31-5.01-.56-15.06-.79-18.45,4.15-6.62,9.65-13.25,19.3-19.87,28.96-15.91,23.18-31.81,46.36-47.72,69.53-19.24,28.04-38.48,56.07-57.72,84.11-16.56,24.13-33.12,48.26-49.68,72.39-8.08,11.77-16.87,23.31-24.35,35.48-.11.18-.24.34-.35.52h28.93c-6.82-9.88-13.64-19.77-20.46-29.65-16.28-23.6-32.57-47.19-48.85-70.79-19.79-28.67-39.57-57.35-59.36-86.02-17.03-24.68-34.06-49.36-51.09-74.03-8.25-11.95-15.89-24.83-24.97-36.18-.13-.16-.23-.34-.35-.5C26.14-.5,16.29-.28,11.1.3,8.53.59-2.75,2.72.62,7.6h0Z"/>
      <path d="M129.03,101.83c8.44,22.31,16.87,44.62,25.31,66.92,13.45,35.58,26.91,71.16,40.36,106.74,3.1,8.2,6.2,16.39,9.3,24.59,1.45,3.84,11.46,4.2,14.46,4.2,3.36,0,12.97-.22,14.46-4.2,8.25-21.94,16.5-43.89,24.75-65.83,13.08-34.77,26.15-69.55,39.23-104.32,3-7.99,6.01-15.98,9.01-23.96,2-5.31-6.9-6.66-10.48-7.04-3.81-.41-7.82-.28-11.56.58-1.93.45-6.11,1.34-6.89,3.42-8.25,21.94-16.5,43.89-24.75,65.83-13.08,34.77-26.15,69.55-39.23,104.32-3,7.99-6.01,15.98-9.01,23.96h28.93c-8.44-22.31-16.87-44.62-25.31-66.92-13.45-35.58-26.91-71.16-40.36-106.74-3.1-8.2-6.2-16.39-9.3-24.59-.72-1.89-5.46-3.09-6.89-3.42-3.67-.85-7.83-.98-11.56-.58s-12.49,1.72-10.48,7.04h0Z"/>
      <path d="M202.47,91.67v198.25c0,3.28,30,3.38,30,0V91.67c0-3.28-30-3.38-30,0h0Z"/>
    </g>
  </g>
</svg>