<?xml version="1.0" encoding="UTF-8"?>
<svg id="Layer_2" data-name="Layer 2" xmlns="http://www.w3.org/2000/svg" viewBox="0 0 461.14 465.16">
  <g id="Layer_2-2" data-name="Layer 2">
    <g>
      <g>
        <path d="M431.63,52.67c-23.25,13.51-46.5,27.02-69.75,40.54-37.08,21.55-74.15,43.1-111.23,64.64-8.54,4.96-17.07,9.92-25.61,14.88-.71.59-.71,1.18,0,1.77,23.4,19.14,46.8,38.28,70.21,57.42,36.97,30.24,73.93,60.47,110.9,90.71,8.49,6.95,16.99,13.89,25.48,20.84,4.27,3.49,13.35,2.64,18.45,2.32,1.22-.08,13.42-1.68,10.48-4.08-23.4-19.14-46.8-38.28-70.21-57.42-36.97-30.24-73.93-60.47-110.9-90.71-8.49-6.95-16.99-13.89-25.48-20.84v1.77c23.25-13.51,46.5-27.02,69.75-40.54,37.08-21.55,74.15-43.1,111.23-64.64,8.54-4.96,17.07-9.92,25.61-14.88,3.52-2.05-9.96-4.05-10.48-4.08-5.75-.36-13.26-.7-18.45,2.32h0Z"/>
        <path d="M395.07,3.41c-13.03,28.06-26.06,56.12-39.08,84.18-1.84,3.97-3.69,7.95-5.53,11.92-2.14,4.61,7.79,5.45,10.48,5.68,3.82.33,7.78.24,11.56-.47,1.81-.34,6.04-.91,6.89-2.76,13.03-28.06,26.06-56.12,39.08-84.18,1.84-3.97,3.69-7.95,5.53-11.92,2.14-4.61-7.79-5.45-10.48-5.68-3.82-.33-7.78-.24-11.56.47-1.81.34-6.04.91-6.89,2.76h0Z"/>
        <path d="M327.8,258.1c8.79,24.61,17.57,49.22,26.36,73.83,1.27,3.55,2.54,7.11,3.81,10.66,3.04,8.52,31.61,4.51,30,0-8.79-24.61-17.57-49.22-26.36-73.83-1.27-3.55-2.54-7.11-3.81-10.66-3.04-8.52-31.61-4.51-30,0h0Z"/>
      </g>
      <g>
        <path d="M2.23,142.85c23.87,18.18,47.74,36.37,71.61,54.55,38.06,29,76.12,58,114.19,86.99,8.76,6.67,17.52,13.35,26.28,20.02l2.35-10.66c-23.84,16.83-47.69,33.66-71.53,50.5-38.05,26.86-76.1,53.72-114.15,80.58-8.8,6.21-17.59,12.42-26.39,18.63-5.06,3.57-5.73,8.99,0,12.43s15.69,3.9,21.21,0c23.84-16.83,47.69-33.66,71.53-50.5,38.05-26.86,76.1-53.72,114.15-80.58,8.8-6.21,17.59-12.42,26.39-18.63,3.2-2.26,6.74-7.3,2.35-10.66-23.87-18.18-47.74-36.37-71.61-54.55-38.06-29-76.12-58-114.19-86.99-8.76-6.67-17.52-13.35-26.28-20.02-5.78-4.41-13.58-5.59-20.52-3.15-4.24,1.49-11.22,7.58-5.38,12.03h0Z"/>
        <path d="M97.83,461.54c9.4-26.51,18.81-53.02,28.21-79.53,1.08-3.04-13.61-3.59-15-3.59-3.29,0-13.53-.55-15,3.59-9.4,26.51-18.81,53.02-28.21,79.53-1.08,3.04,13.61,3.59,15,3.59,3.29,0,13.53.55,15-3.59h0Z"/>
        <path d="M67.83,128.04c11.19,26.58,22.38,53.15,33.58,79.73,1.61,3.81,3.21,7.62,4.82,11.43s11.64,3.32,15,3.32c1.11,0,16.05-.83,15-3.32-11.19-26.58-22.38-53.15-33.58-79.73-1.61-3.81-3.21-7.62-4.82-11.43s-11.64-3.32-15-3.32c-1.11,0-16.05.83-15,3.32h0Z"/>
      </g>
    </g>
  </g>
</svg>