<?xml version="1.0" encoding="UTF-8"?>
<svg id="Layer_2" data-name="Layer 2" xmlns="http://www.w3.org/2000/svg" viewBox="0 0 211.17 444.05">
  <g id="Layer_2-2" data-name="Layer 2">
    <g>
      <path d="M29.5,65.82C72.33,47.53,115.16,29.23,157.99,10.93c6.11-2.61,12.21-5.22,18.32-7.83l-29.46-.65c3.62,26.4,7.25,52.8,10.87,79.2,6.03,43.92,12.06,87.84,18.08,131.76,1.65,11.99,3.29,23.98,4.94,35.97.2,1.48.4,2.1-.1,3.32-1.31,3.17-4.5,6.33-6.47,9.11-23,32.38-46,64.76-69.01,97.14-12.35,17.39-24.71,34.78-37.06,52.17-4.4,6.2-8.8,12.39-13.2,18.59-2.35,3.31-5.58,6.75-7.39,10.4-.24.49-.67.94-.98,1.38-.81,1.14,13.93,2.43,15,2.43,3.52,0,12.6.95,15-2.43,16.24-22.86,32.47-45.71,48.71-68.57,24.53-34.54,49.07-69.07,73.6-103.61,3.18-4.48,6.36-8.96,9.54-13.43.79-1.11,2.43-2.69,2.7-4.02.44-2.21-.79-5.79-1.1-7.99-.85-6.23-1.71-12.45-2.56-18.68-5.81-42.31-11.61-84.62-17.42-126.93l-8.4-61.18c-1.5-10.9-2.16-22.34-4.54-33.08-.11-.51-.14-1.04-.21-1.56-.36-2.62-11.66-2.36-13.01-2.39-5.29-.11-11.49-.38-16.46,1.74C104.55,20.11,61.72,38.41,18.88,56.71c-6.11,2.61-12.21,5.22-18.32,7.83-1.87.8,1.48,1.86,1.51,1.87,2.59.95,6.3.99,8.96,1.12,5.84.27,12.93.66,18.45-1.7h0Z"/>
      <path d="M73.37,379.58c17.92-25.35,35.84-50.7,53.77-76.05,2.58-3.65,5.16-7.3,7.74-10.95,1.03-1.46-13.96-2.77-15-2.77-3.77,0-12.47-.81-15,2.77-17.92,25.35-35.84,50.7-53.77,76.05-2.58,3.65-5.16,7.3-7.74,10.95-1.03,1.46,13.96,2.77,15,2.77,3.77,0,12.47.81,15-2.77h0Z"/>
      <path d="M53.41,338.33c16.91-24.21,33.82-48.42,50.74-72.63,2.4-3.44,4.8-6.87,7.2-10.31,3.97-5.68-6.8-9.82-10.48-10.4-6.55-1.04-14.45.18-18.45,5.91-16.91,24.21-33.82,48.42-50.74,72.63-2.4,3.44-4.8,6.87-7.2,10.31-3.97,5.68,6.8,9.82,10.48,10.4,6.55,1.04,14.45-.18,18.45-5.91h0Z"/>
    </g>
  </g>
</svg>