<?xml version="1.0" encoding="UTF-8"?>
<svg id="Layer_2" data-name="Layer 2" xmlns="http://www.w3.org/2000/svg" viewBox="0 0 438.31 166.52">
  <g id="Layer_2-2" data-name="Layer 2">
    <g>
      <path d="M.15,2.36c13.08,18.06,26.16,36.12,39.25,54.17,20.76,28.65,41.51,57.31,62.27,85.96,4.81,6.64,9.62,13.28,14.43,19.92,2.27,3.14,11.62,2.25,15,2.25s7.12-.11,10.61-.66c.43-.07,4.87-.93,4.39-1.59-13.08-18.06-26.16-36.12-39.25-54.17-20.76-28.65-41.51-57.31-62.27-85.96-4.81-6.64-9.62-13.28-14.43-19.92C27.88-.77,18.53.12,15.15.12s-7.12.11-10.61.66c-.43.07-4.87.93-4.39,1.59H.15Z"/>
      <path d="M409.06,3.15c-32.69,18.13-65.38,36.27-98.06,54.4-51.75,28.71-103.49,57.41-155.24,86.12-11.91,6.61-23.83,13.22-35.74,19.83-2.46,1.37,9.85,2.66,10.48,2.69,5.24.22,13.59,1.17,18.45-1.53,32.69-18.13,65.38-36.27,98.06-54.4,51.75-28.71,103.49-57.41,155.24-86.12,11.91-6.61,23.83-13.22,35.74-19.83,2.46-1.37-9.85-2.66-10.48-2.69-5.24-.22-13.59-1.17-18.45,1.53h0Z"/>
      <path d="M418.53,1.81c-13.42,0-26.84,0-40.26,0-32.05,0-64.1,0-96.15,0-38.93,0-77.86,0-116.79,0h-100.56c-16.37,0-32.73-.08-49.1,0-.23,0-.46,0-.68,0-1.6,0-15-.27-15,2.19s14.25,2.19,15,2.19c13.42,0,26.84,0,40.26,0,32.05,0,64.1,0,96.15,0,38.93,0,77.86,0,116.79,0h100.56c16.37,0,32.73.08,49.1,0,.23,0,.46,0,.68,0,1.6,0,15,.27,15-2.19s-14.25-2.19-15-2.19h0Z"/>
    </g>
  </g>
</svg>