<?xml version="1.0" encoding="UTF-8"?>
<svg id="Layer_2" data-name="Layer 2" xmlns="http://www.w3.org/2000/svg" viewBox="0 0 412.93 459.59">
  <g id="Layer_2-2" data-name="Layer 2">
    <g>
      <path d="M32.02,454.29c-.07-14.92-.13-29.84-.2-44.76-.16-36-.32-72-.48-108.01-.19-43.4-.39-86.79-.58-130.19l-.5-112.56c-.08-18.17.8-36.65-.25-54.8-.02-.26,0-.53,0-.79H0c19.22,32.03,38.45,64.05,57.67,96.08,30.43,50.7,60.86,101.4,91.29,152.1,7.01,11.67,14.01,23.35,21.02,35.02.6.99,3.73,1.13,4.39,1.21,3.49.42,7.1.5,10.61.5s7.1-.08,10.61-.5c.42-.05,4.71-.69,4.39-1.21-19.22-32.03-38.45-64.05-57.67-96.08-30.43-50.7-60.86-101.4-91.29-152.1-7.01-11.67-14.01-23.35-21.02-35.02C27.98-.18,0,1.25,0,3.19c.07,14.92.13,29.84.2,44.76l.48,108.01c.19,43.4.39,86.79.58,130.19.17,37.52.34,75.04.5,112.56l.17,37.13.05,11.58c0,1.72-.51,4.43.03,6.09.07.22,0,.56,0,.79.01,2.55,30.01,2.55,30,0h0Z"/>
      <path d="M412.93,452.07c-.33-14.76-.67-29.52-1-44.28-.8-35.44-1.6-70.87-2.4-106.31-.96-42.69-1.92-85.39-2.89-128.08-.84-37.06-1.67-74.12-2.51-111.18-.28-12.25-.55-24.5-.83-36.75-.13-5.71.14-11.59-.39-17.27-.02-.25-.01-.5-.02-.75-.13-5.59-9.01-7.13-13.01-7.38-5.17-.32-13.5.22-16.46,5.38-18,31.43-35.99,62.86-53.99,94.29-28.44,49.66-56.87,99.33-85.31,148.99-6.49,11.33-12.98,22.67-19.47,34-5.37,9.37,23.85,12.87,28.93,3.99,18-31.43,35.99-62.86,53.99-94.29,28.44-49.66,56.87-99.33,85.31-148.99,6.49-11.33,12.98-22.67,19.47-34-9.82-.67-19.64-1.33-29.46-2,.33,14.76.67,29.52,1,44.28.8,35.44,1.6,70.87,2.4,106.31.96,42.69,1.92,85.39,2.89,128.08.84,37.06,1.67,74.12,2.51,111.18.28,12.25.55,24.5.83,36.75.13,5.71-.14,11.59.39,17.27.02.25.01.5.02.75.14,6.23,10.52,7.51,15,7.51,4.13,0,15.14-1.3,15-7.51h0Z"/>
      <path d="M91.26,264.33c-.13,3.64-.96,6.83-3.18,9.77-.9,1.19-1.93,2.34-3.18,3.18-2.79,1.86-5,.49,2.91.49s5.69,1.37,2.91-.49c-1.25-.83-2.28-1.98-3.18-3.18-2.17-2.87-3.18-6.18-3.18-9.77s1.01-6.9,3.18-9.77c.9-1.19,1.93-2.34,3.18-3.18,2.79-1.86,5-.49-2.91-.49s-5.69-1.37-2.91.49c1.25.83,2.28,1.98,3.18,3.18,2.22,2.94,3.04,6.13,3.18,9.77.27,7.37,30.26,7,30,0-.64-17.43-18.54-23.45-33.45-23.45s-33.45,6.01-33.45,23.45,19.09,23.55,33.45,23.45c14.9-.1,32.8-5.95,33.45-23.45.25-6.89-29.72-7.48-30,0Z"/>
      <path d="M325.34,264.33c-.13,3.62-.98,6.66-3.18,9.58-.91,1.21-2.28,1.9-3.18,3-1.18,1.45-2.51.13,2.91.13s4.09,1.32,2.91-.13c-.89-1.1-2.26-1.79-3.18-3-2.15-2.85-3.18-6.01-3.18-9.58s1.03-6.73,3.18-9.58c.91-1.21,2.28-1.9,3.18-3,1.18-1.45,2.51-.13-2.91-.13s-4.09-1.32-2.91.13c.89,1.1,2.26,1.79,3.18,3,2.2,2.92,3.04,5.96,3.18,9.58.31,8.32,30.29,7.99,30,0-.64-17.4-18.33-24.18-33.45-24.18s-33.45,6.76-33.45,24.18,18.87,24.28,33.45,24.18,32.81-6.7,33.45-24.18c.29-7.89-29.69-8.42-30,0Z"/>
    </g>
  </g>
</svg>