<?xml version="1.0" encoding="UTF-8"?>
<svg id="Layer_2" data-name="Layer 2" xmlns="http://www.w3.org/2000/svg" viewBox="0 0 500.48 386.33">
  <g id="Layer_2-2" data-name="Layer 2">
    <g>
      <path d="M29.49,140.23c15.66-4.59,31.32-9.19,46.98-13.78,37.43-10.98,74.86-21.96,112.29-32.94,45.25-13.27,90.51-26.55,135.76-39.82,39.24-11.51,78.48-23.02,117.72-34.53,18.94-5.56,38-10.83,56.85-16.68.28-.09.55-.16.83-.24-9.82-.15-19.64-.31-29.46-.46-14.02,12.67-28.04,25.34-42.06,38.01-33.67,30.43-67.34,60.86-101.02,91.29-40.75,36.83-81.5,73.65-122.25,110.48-35.34,31.94-70.68,63.87-106.01,95.81-11.6,10.49-23.21,20.97-34.81,31.46l-10.89,9.84c-1.47,1.33-4.73,3.28-5.62,5.08-.11.23-.52.47-.72.65-.51.46,5.32,1.35,4.39,1.24,3.49.43,7.1.51,10.61.51,3.86,0,11.86,1.09,15-1.75,14.02-12.67,28.04-25.34,42.06-38.01,33.67-30.43,67.34-60.86,101.02-91.29,40.75-36.83,81.5-73.65,122.25-110.48,35.34-31.94,70.68-63.87,106.01-95.81,11.6-10.49,23.21-20.97,34.81-31.46,3.63-3.28,7.26-6.56,10.89-9.84,1.47-1.33,4.73-3.28,5.62-5.08.11-.23.52-.47.72-.65.51-.46-5.32-1.35-4.39-1.24-2.85-.35-5.74-.44-8.61-.48-5.39-.08-11.23-.28-16.46,1.25-15.66,4.59-31.32,9.19-46.98,13.78-37.43,10.98-74.86,21.96-112.29,32.94-45.25,13.27-90.51,26.55-135.76,39.82-39.24,11.51-78.48,23.02-117.72,34.53-12.84,3.76-25.67,7.53-38.51,11.29l-12.08,3.54c-1.9.56-4.53.86-6.27,1.84-.23.13-.57.17-.83.24-1.98.58,1.92,1.46,1.51,1.35,2.67.77,6.26.71,8.96.8,5.99.2,12.63.49,18.45-1.22h0Z"/>
      <path d="M130.71,151.73c-32.49,28.37-64.97,56.73-97.46,85.1-4.63,4.04-9.25,8.08-13.88,12.12-2.09,1.83,8.16,2.53,8.68,2.56,6.21.38,12.61.35,18.73-.89,38.45-7.78,76.9-15.56,115.36-23.35,5.45-1.1,10.91-2.21,16.36-3.31,6.03-1.22-4.49-2.89-5.38-2.97-6.75-.59-13.85-.57-20.52.78-38.45,7.78-76.9,15.56-115.36,23.35-5.45,1.1-10.91,2.21-16.36,3.31,9.14.56,18.28,1.12,27.42,1.67,32.49-28.37,64.97-56.73,97.46-85.1,4.63-4.04,9.25-8.08,13.88-12.12,2.24-1.95-9.65-2.64-10.48-2.67-3.85-.16-7.72-.12-11.56.22-1.87.16-5.45.03-6.89,1.3h0Z"/>
      <path d="M22.6,67.8c32.43-6.85,64.86-13.7,97.28-20.55,4.68-.99,9.37-1.98,14.05-2.97s10.22-5.9,5.38-10.22c-5.29-4.73-14.21-4.01-20.52-2.68-32.43,6.85-64.86,13.7-97.28,20.55-4.68.99-9.37,1.98-14.05,2.97s-10.22,5.9-5.38,10.22c5.29,4.73,14.21,4.01,20.52,2.68h0Z"/>
    </g>
  </g>
</svg>