<?xml version="1.0" encoding="UTF-8"?>
<svg id="Layer_2" data-name="Layer 2" xmlns="http://www.w3.org/2000/svg" viewBox="0 0 105.75 69.88">
  <g id="Layer_2-2" data-name="Layer 2">
    <path d="M29.24,68.15c22.2-18.99,44.4-37.99,66.6-56.98,3.2-2.73,6.39-5.47,9.59-8.2,2.4-2.06-9.68-2.84-10.48-2.87-3.84-.17-7.73-.13-11.56.24-1.93.18-5.38.1-6.89,1.39C54.3,20.72,32.1,39.71,9.9,58.71c-3.2,2.73-6.39,5.47-9.59,8.2-2.4,2.06,9.68,2.84,10.48,2.87,3.84.17,7.73.13,11.56-.24,1.93-.18,5.38-.1,6.89-1.39h0Z"/>
  </g>
</svg>