<?xml version="1.0" encoding="UTF-8"?>
<svg id="Layer_2" data-name="Layer 2" xmlns="http://www.w3.org/2000/svg" viewBox="0 0 343.94 327.79">
  <g id="Layer_2-2" data-name="Layer 2">
    <g>
      <path d="M.37,26.41c18.02,33.63,36.04,67.27,54.06,100.9,28.51,53.22,57.03,106.43,85.54,159.65,6.54,12.21,13.08,24.42,19.63,36.63,2.06,3.85,10.94,4.2,14.46,4.2,3.81,0,12.34-.21,14.46-4.2,17.44-32.74,34.89-65.48,52.33-98.21,27.82-52.22,55.65-104.44,83.47-156.66,6.41-12.04,12.83-24.08,19.24-36.11,3.89-7.31-24.97-10.47-28.93-3.04-17.44,32.74-34.89,65.48-52.33,98.21-27.82,52.22-55.65,104.44-83.47,156.66-6.41,12.04-12.83,24.08-19.24,36.11h28.93c-18.02-33.63-36.04-67.27-54.06-100.9-28.51-53.22-57.03-106.43-85.54-159.65-6.54-12.21-13.08-24.42-19.63-36.63-3.91-7.3-32.89-4.35-28.93,3.04H.37Z"/>
      <path d="M98.93,5.46c6.65,33.62,13.31,67.24,19.96,100.86,10.53,53.19,21.05,106.38,31.58,159.56,2.42,12.25,4.85,24.5,7.27,36.75,1.01,5.12,11.13,5.24,15,5.24s13.99-.1,15-5.24c6.47-32.89,12.95-65.78,19.42-98.68l30.74-156.19c2.37-12.04,4.74-24.08,7.11-36.12,1.18-5.97-28.33-8.49-30,0-6.47,32.89-12.95,65.78-19.42,98.68-10.25,52.06-20.49,104.13-30.74,156.19-2.37,12.04-4.74,24.08-7.11,36.12h30c-6.65-33.62-13.31-67.24-19.96-100.86-10.53-53.19-21.05-106.38-31.58-159.56-2.42-12.25-4.85-24.5-7.27-36.75-1.66-8.39-31.2-6.07-30,0h0Z"/>
    </g>
  </g>
</svg>