<?xml version="1.0" encoding="UTF-8"?>
<svg id="Layer_2" data-name="Layer 2" xmlns="http://www.w3.org/2000/svg" viewBox="0 0 244.19 457.11">
  <g id="Layer_2-2" data-name="Layer 2">
    <g>
      <path d="M216.38,2.23c-35.85,17.92-71.69,35.85-107.54,53.77-5,2.5-9.99,5-14.99,7.49-1.08.34-1.77,1.03-2.05,2.07,1.97,38.01,3.95,76.02,5.92,114.03,3.14,60.51,6.29,121.03,9.43,181.54.72,13.79,1.43,27.59,2.15,41.38l2.05-2.07c-31.91,14.68-63.82,29.36-95.73,44.04-4.56,2.1-9.11,4.19-13.67,6.29-5.9,2.72,3.23,5.26,5.38,5.62,6.3,1.05,14.54,1.28,20.52-1.47,31.91-14.68,63.82-29.36,95.73-44.04,4.56-2.1,9.11-4.19,13.67-6.29,1.08-.34,1.77-1.03,2.05-2.07-1.97-38.01-3.95-76.02-5.92-114.03-3.14-60.51-6.29-121.03-9.43-181.54-.72-13.79-1.43-27.59-2.15-41.38l-2.05,2.07c35.85-17.92,71.69-35.85,107.54-53.77,5-2.5,9.99-5,14.99-7.49,5.74-2.87-3.07-5.24-5.38-5.62-6.13-1.02-14.74-1.42-20.52,1.47h0Z"/>
      <path d="M133.91,4.99c22.61,14.59,45.22,29.17,67.83,43.76,4.64,2.99,13.22,2.05,18.45,1.8,2.86-.14,6.29-.1,8.96-1.18.68-.27,3.08-.97,1.51-1.98-22.61-14.59-45.22-29.17-67.83-43.76-4.64-2.99-13.22-2.05-18.45-1.8-2.86.14-6.29.1-8.96,1.18-.68.27-3.08.97-1.51,1.98h0Z"/>
    </g>
  </g>
</svg>