<?xml version="1.0" encoding="UTF-8"?>
<svg id="Layer_2" data-name="Layer 2" xmlns="http://www.w3.org/2000/svg" viewBox="0 0 164.7 342.59">
  <g id="Layer_2-2" data-name="Layer 2">
    <g>
      <path d="M134.7,6.48v134.7c0,8.59,30,8.69,30,0V6.48c0-8.59-30-8.69-30,0h0Z"/>
      <path d="M0,10.39v324.07c0,10.79,30,10.87,30,0V10.39C30-.4,0-.48,0,10.39h0Z"/>
      <path d="M149.7,7.69c-37.29,0-74.57,0-111.86,0-5.21,0-10.42,0-15.63,0-1.81,0-15-.27-15,2.7s13.98,2.7,15,2.7c37.29,0,74.57,0,111.86,0,5.21,0,10.42,0,15.63,0,1.81,0,15,.27,15-2.7s-13.98-2.7-15-2.7h0Z"/>
    </g>
  </g>
</svg>