<?xml version="1.0" encoding="UTF-8"?>
<svg id="Layer_2" data-name="Layer 2" xmlns="http://www.w3.org/2000/svg" viewBox="0 0 217.92 446.76">
  <g id="Layer_2-2" data-name="Layer 2">
    <g>
      <path d="M.54,5.92c11.62,18.48,23.23,36.97,34.85,55.45,24.42,38.86,48.84,77.72,73.27,116.58,21.58,34.34,43.16,68.68,64.75,103.02,4.82,7.68,9.4,15.6,14.51,23.09.23.34.65.83.77,1.23-.75-2.49-.99.19-1.34,1.3l-6.03,18.68c-12.27,38.05-24.54,76.09-36.81,114.14l-.86,2.67,15-4.67h-80.93c-3.01,0-14.7,0-15,4.67s13.05,4.67,15,4.67h80.93c3.85,0,13.48.06,15-4.67,11.1-34.41,22.19-68.81,33.29-103.22,2.72-8.42,5.43-16.85,8.15-25.27.95-2.95,3.72-7.76,2.54-10.77-.57-1.44-1.79-2.85-2.61-4.16l-7.33-11.66c-20.06-31.92-40.12-63.85-60.19-95.77-25.01-39.8-50.03-79.6-75.04-119.4-9.43-15.01-18.87-30.02-28.3-45.03-4.63-7.36-8.84-15.38-14.05-22.36-.24-.31-.42-.68-.63-1.01-1.07-1.7-5.33-2.49-6.89-2.79C18.86-.05,14.78-.15,11.02.18,8.72.39-2.19,1.58.54,5.92h0Z"/>
      <path d="M15,336.35h64.74c3.57,0,13.81.06,15-4.67,11.75-46.58,23.5-93.15,35.25-139.73,1.69-6.7,3.38-13.4,5.07-20.1,1.17-4.65-27.98-8.02-30,0-11.75,46.58-23.5,93.15-35.25,139.73-1.69,6.7-3.38,13.4-5.07,20.1l15-4.67H15c-3.01,0-14.7,0-15,4.67s13.05,4.67,15,4.67h0Z"/>
    </g>
  </g>
</svg>