<?xml version="1.0" encoding="UTF-8"?>
<svg id="Layer_2" data-name="Layer 2" xmlns="http://www.w3.org/2000/svg" viewBox="0 0 323.56 71.07">
  <g id="Layer_2-2" data-name="Layer 2">
    <g>
      <path d="M15,44.19h293.55c4.76,0,15-1.7,15-8.21s-10.46-8.21-15-8.21H15C10.24,27.78,0,29.48,0,35.99s10.46,8.21,15,8.21h0Z"/>
      <path d="M15,11.98h293.55c3.69,0,14.77-.51,15-5.99s-12.11-5.99-15-5.99H15C11.32,0,.24.51,0,5.99s12.11,5.99,15,5.99h0Z"/>
      <path d="M15,71.07h293.55c3.22,0,14.73-.14,15-5.09s-12.75-5.09-15-5.09H15c-3.22,0-14.73.14-15,5.09s12.75,5.09,15,5.09h0Z"/>
    </g>
  </g>
</svg>