<?xml version="1.0" encoding="UTF-8"?>
<svg id="Layer_2" data-name="Layer 2" xmlns="http://www.w3.org/2000/svg" viewBox="0 0 251.29 318.35">
  <g id="Layer_2-2" data-name="Layer 2">
    <g>
      <path d="M.29,16.97c12.64,33.44,25.29,66.88,37.93,100.32,20.17,53.33,40.33,106.67,60.5,160,4.65,12.29,9.29,24.57,13.94,36.86,1.45,3.84,11.46,4.2,14.46,4.2,3.36,0,12.97-.22,14.46-4.2,12.36-32.86,24.71-65.72,37.07-98.58,19.61-52.17,39.23-104.33,58.84-156.5,4.5-11.97,9-23.93,13.5-35.9,2-5.31-6.9-6.66-10.48-7.04-3.81-.41-7.82-.28-11.56.58-1.93.45-6.11,1.34-6.89,3.42-12.36,32.86-24.71,65.72-37.07,98.58-19.61,52.17-39.23,104.33-58.84,156.5-4.5,11.97-9,23.93-13.5,35.9h28.93c-12.64-33.44-25.29-66.88-37.93-100.32-20.17-53.33-40.33-106.67-60.5-160-4.65-12.29-9.29-24.57-13.94-36.86-.72-1.89-5.46-3.09-6.89-3.42-3.67-.85-7.83-.98-11.56-.58S-1.72,11.65.29,16.97H.29Z"/>
      <path d="M110.65,2.5v297.18c0,3.28,30,3.38,30,0V2.5c0-3.28-30-3.38-30,0h0Z"/>
    </g>
  </g>
</svg>