<?xml version="1.0" encoding="UTF-8"?>
<svg id="Layer_2" data-name="Layer 2" xmlns="http://www.w3.org/2000/svg" viewBox="0 0 286.05 467.92">
  <g id="Layer_2-2" data-name="Layer 2">
    <g>
      <path d="M4.4,6.68c36.54,11.38,73.08,22.77,109.63,34.15,5.21,1.62,10.42,3.24,15.63,4.87l-4.39-2.65c8.04,25.88,16.08,51.75,24.11,77.63,10.35,33.32,20.7,66.63,31.05,99.95,4.86,15.66,9.73,31.31,14.59,46.97l36.24,116.67c8.11,26.09,15.28,52.72,24.38,78.49.15.41.26.84.39,1.26,2.21,7.13,30.88,2.85,30,0-10.51-33.84-21.03-67.69-31.54-101.53-13.44-43.28-26.89-86.55-40.33-129.83-8.84-28.47-17.69-56.94-26.53-85.41-7.76-24.97-15.52-49.95-23.27-74.92-2.42-7.79-4.84-15.58-7.26-23.38-.52-1.68-.86-3.66-1.63-5.25-1.05-2.17-2.92-2.76-5.2-3.48C110.08,27.55,69.81,15.15,29.58,2.62l-3.97-1.24C19.22-.61,10.83-.31,4.4,1.38-.86,2.77-.78,5.06,4.4,6.68h0Z"/>
      <path d="M15.01,467.76h86.57c2.08,0,15,.09,15-3.74v-195.08l-2.05,1.89c27.83-12.57,55.65-25.14,83.48-37.71,3.99-1.8,7.98-3.61,11.98-5.41,5.81-2.63-3.34-4.81-5.38-5.12-6.21-.94-14.6-1.33-20.52,1.34-27.83,12.57-55.65,25.14-83.48,37.71-3.99,1.8-7.98,3.61-11.98,5.41-1.05.27-1.74.9-2.05,1.89v195.08l15-3.74H15.01c-2.58,0-14.64-.27-15,3.74-.33,3.68,13.68,3.74,15,3.74h0Z"/>
    </g>
  </g>
</svg>