<?xml version="1.0" encoding="UTF-8"?>
<svg id="Layer_2" data-name="Layer 2" xmlns="http://www.w3.org/2000/svg" viewBox="0 0 353.75 443.38">
  <g id="Layer_2-2" data-name="Layer 2">
    <path d="M15,443.37h65.82c1.34,0,15,.22,15-2.17V131.27c0-6.1-.81-12.84,0-18.9.06-.42-.72,1.16-.25.25.25-.49.9-.96,1.27-1.36l4.69-5.01,16.55-17.68c26.21-27.99,52.42-55.98,78.62-83.97.58-.62,1.16-1.24,1.75-1.87l-29.46-.58c22.4,25.59,44.81,51.18,67.21,76.77,6.23,7.11,12.46,14.23,18.69,21.34,3.56,4.07,7.62,8.01,10.83,12.37,2.35,3.19,1.03,9.08,1.03,12.94v305.43c0,2.81-.57,6.29,0,9.05.07.35,0,.78,0,1.15,0,2.42,14.31,2.17,15,2.17h57c1.59,0,15,.27,15-2.17s-14.25-2.17-15-2.17h-57l15,2.17V119.51c0-1.55.52-4.16,0-5.65-.72-2.06-3.89-4.49-5.3-6.11-5.11-5.83-10.21-11.66-15.32-17.5-25.17-28.75-50.35-57.5-75.52-86.25l-1.62-1.85c-2.36-2.69-9.94-2.08-13.01-2.13s-6.39-.02-9.56.26c-1.72.15-5.69.01-6.89,1.3-23.32,24.91-46.64,49.82-69.97,74.73-10.61,11.33-21.22,22.66-31.83,33.99-1.29,1.37-1.71,1.73-1.91,3.47-.37,3.07,0,6.42,0,9.51v290.33c0,8.7-.66,17.7,0,26.38.03.4,0,.81,0,1.21l15-2.17H15c-1.59,0-15-.27-15,2.17s14.25,2.17,15,2.17h0Z"/>
  </g>
</svg>