<?xml version="1.0" encoding="UTF-8"?>
<svg id="Layer_2" data-name="Layer 2" xmlns="http://www.w3.org/2000/svg" viewBox="0 0 249.87 360.72">
  <g id="Layer_2-2" data-name="Layer 2">
    <g>
      <path d="M2.05,5.84c24.81,10.91,49.61,21.83,74.42,32.74,39.49,17.37,78.97,34.75,118.46,52.12,8.99,3.96,17.99,7.91,26.98,11.87,6.04,2.66,14.14,2.31,20.52,1.34,2.22-.34,11.23-2.55,5.38-5.12-24.81-10.91-49.61-21.83-74.42-32.74C133.91,48.67,94.42,31.3,54.94,13.93c-8.99-3.96-17.99-7.91-26.98-11.87C21.92-.6,13.82-.25,7.43.71c-2.22.34-11.23,2.55-5.38,5.12h0Z"/>
      <path d="M15.01,196.77h219.85c2.58,0,14.64.27,15-3.75.33-3.68-13.68-3.75-15-3.75H15.01c-2.58,0-14.64-.27-15,3.75-.33,3.68,13.68,3.75,15,3.75h0Z"/>
      <path d="M27.96,359.21c24.75-8.66,49.49-17.32,74.24-25.98,39.46-13.81,78.92-27.62,118.38-41.43,9.08-3.18,18.16-6.36,27.24-9.53,5.75-2.01-3.95-3.37-5.38-3.52-6.27-.65-14.41-1.22-20.52.92-24.75,8.66-49.49,17.32-74.24,25.98-39.46,13.81-78.92,27.62-118.38,41.43-9.08,3.18-18.16,6.36-27.24,9.53-5.75,2.01,3.95,3.37,5.38,3.52,6.27.65,14.41,1.22,20.52-.92h0Z"/>
    </g>
  </g>
</svg>