<?xml version="1.0" encoding="UTF-8"?>
<svg id="Layer_2" data-name="Layer 2" xmlns="http://www.w3.org/2000/svg" viewBox="0 0 178.29 420.27">
  <g id="Layer_2-2" data-name="Layer 2">
    <g>
      <path d="M37.41,406.92c-2.16-36.33-4.32-72.66-6.49-108.99-.31-5.17-.62-10.35-.92-15.52l-2.05,2.64c20.37-13.06,40.73-26.13,61.1-39.19l13.57-8.7c2.33-1.49,4.78-2.63,5.96-5.18,1.84-4.01,2.72-8.85,4.01-13.05,16.68-54.31,33.37-108.61,50.05-162.92,5.2-16.92,10.4-33.84,15.59-50.76,1.54-5-27.33-8.68-30,0-7.86,25.57-15.71,51.15-23.57,76.72-12.51,40.72-25.02,81.45-37.53,122.17-2.86,9.3-5.71,18.59-8.57,27.89l2.05-2.64c-22.95,14.72-45.89,29.44-68.84,44.16-3.24,2.08-6.48,4.16-9.72,6.24-1.16.54-1.84,1.42-2.05,2.64,2.16,36.33,4.32,72.66,6.49,108.99.31,5.17.62,10.35.92,15.52.46,7.79,30.43,7.14,30,0h0Z"/>
      <path d="M155.99,415.81c-5.33-20.64-10.65-41.28-15.98-61.92-8.54-33.08-17.07-66.16-25.61-99.23-1.95-7.55-3.9-15.09-5.84-22.64s-31.06-4.12-30,0c5.33,20.64,10.65,41.28,15.98,61.92,8.54,33.08,17.07,66.16,25.61,99.23,1.95,7.55,3.9,15.09,5.84,22.64s31.06,4.12,30,0h0Z"/>
    </g>
  </g>
</svg>