<?xml version="1.0" encoding="UTF-8"?>
<svg id="Layer_2" data-name="Layer 2" xmlns="http://www.w3.org/2000/svg" viewBox="0 0 322.69 454.47">
  <g id="Layer_2-2" data-name="Layer 2">
    <g>
      <path d="M322.43,115.66c-29.94-33.16-59.89-66.32-89.83-99.49-4.31-4.77-8.61-9.54-12.92-14.3-1.05-1.16-5.77-1.41-6.89-1.53-3.17-.33-6.38-.39-9.56-.3-2.81.07-11.49-.56-13.01,2.51-10.1,20.49-20.19,40.97-30.29,61.46-19.97,40.53-39.94,81.06-59.91,121.58-14.37,29.17-28.75,58.34-43.12,87.51-.83,1.68-2.28,3.67-2.71,5.51-.49,2.05-.03,4.76-.03,6.85,0,17.39,0,34.79,0,52.18v111.74c0,.75,0,1.5,0,2.25,0,3.73,30,3.83,30,0,0-32.48,0-64.95,0-97.43,0-19.91,0-39.81,0-59.72,0-4.77-.45-9.8,0-14.56.13-1.35.26-1.79.9-3.07,12.65-25.68,25.31-51.36,37.96-77.04,20.12-40.82,40.23-81.65,60.35-122.47l23.93-48.56c4.11-8.34,8.59-16.58,12.36-25.08.17-.39.38-.77.57-1.16l-29.46.68c29.94,33.16,59.89,66.32,89.83,99.49,4.31,4.77,8.61,9.54,12.92,14.3,1.05,1.16,5.77,1.41,6.89,1.53,3.81.4,7.74.44,11.56.26,1.5-.07,12.57-.83,10.48-3.15h0Z"/>
      <path d="M129.13,289.3c0,45.57,0,91.14,0,136.7,0,6.52,0,13.05,0,19.57,0,3.73,30,3.83,30,0,0-45.57,0-91.14,0-136.7,0-6.52,0-13.05,0-19.57,0-3.73-30-3.83-30,0h0Z"/>
      <path d="M0,289.3c0,47.34,0,94.67,0,142.01,0,6.78,0,13.56,0,20.33,0,3.73,30,3.83,30,0,0-47.34,0-94.67,0-142.01,0-6.78,0-13.56,0-20.33,0-3.73-30-3.83-30,0H0Z"/>
    </g>
  </g>
</svg>