<?xml version="1.0" encoding="UTF-8"?>
<svg id="Layer_2" data-name="Layer 2" xmlns="http://www.w3.org/2000/svg" viewBox="0 0 453.24 220.45">
  <g id="Layer_2-2" data-name="Layer 2">
    <g>
      <path d="M298.37,158.61c17.42-17.1,34.85-34.19,52.27-51.29,27.64-27.12,55.28-54.23,82.91-81.35,6.37-6.25,12.75-12.51,19.12-18.76-9.82-.51-19.64-1.01-29.46-1.52-3.85,23.49-7.69,46.98-11.54,70.48-6.13,37.47-12.27,74.93-18.4,112.4-1.41,8.63-2.83,17.26-4.24,25.89-1.14,6.95,28.54,8.94,30,0,3.85-23.49,7.69-46.98,11.54-70.48,6.13-37.47,12.27-74.93,18.4-112.4,1.41-8.63,2.83-17.26,4.24-25.89.75-4.56-10.82-5.52-13.01-5.62-5.49-.26-12.31.03-16.46,4.1-17.42,17.1-34.85,34.19-52.27,51.29-27.64,27.12-55.28,54.23-82.91,81.35-6.37,6.25-12.75,12.51-19.12,18.76-4.24,4.16,8.77,6.86,10.48,7.04,5.92.64,13.91.45,18.45-4h0Z"/>
      <path d="M353.87,195.62c10.63-20.53,21.26-41.05,31.88-61.58,16.95-32.73,33.9-65.47,50.85-98.2,3.9-7.54,7.8-15.07,11.71-22.61.72-1.38-13.93-2.25-15-2.25-3.53,0-7.12.11-10.61.66-1.27.2-3.73.3-4.39,1.59-10.63,20.53-21.26,41.05-31.88,61.58-16.95,32.73-33.9,65.47-50.85,98.2-3.9,7.54-7.8,15.07-11.71,22.61-.72,1.38,13.93,2.25,15,2.25,3.53,0,7.12-.11,10.61-.66,1.27-.2,3.73-.3,4.39-1.59h0Z"/>
      <path d="M.02,58c10.72,17.73,21.44,35.46,32.16,53.19,17.1,28.28,34.2,56.56,51.29,84.84,3.94,6.52,7.88,13.04,11.83,19.56,1.9,3.14,11.91,2.25,15,2.25,1.07,0,15.57-1.3,15-2.25-10.72-17.73-21.44-35.46-32.16-53.19-17.1-28.28-34.2-56.56-51.29-84.84-3.94-6.52-7.88-13.04-11.83-19.56-1.9-3.14-11.91-2.25-15-2.25-1.07,0-15.57,1.3-15,2.25H.02Z"/>
      <path d="M423.74,1.77c-10.74,7.14-21.49,14.28-32.23,21.42-25.8,17.15-51.6,34.3-77.4,51.45-31.22,20.75-62.43,41.5-93.65,62.25-26.99,17.94-53.97,35.88-80.96,53.81-8.89,5.91-17.79,11.82-26.68,17.73-2.77,1.84-5.54,3.68-8.31,5.52-1.3.86-3.29,1.73-4.35,2.89-.13.15-.38.25-.55.37-2.42,1.61,9.81,2.66,10.48,2.69,3.85.16,7.72.12,11.56-.22,2.08-.18,5.12-.13,6.89-1.31,10.74-7.14,21.49-14.28,32.23-21.42,25.8-17.15,51.6-34.3,77.4-51.45,31.22-20.75,62.43-41.5,93.65-62.25,26.99-17.94,53.97-35.88,80.96-53.81,8.89-5.91,17.79-11.82,26.68-17.73l8.31-5.52c1.3-.86,3.29-1.73,4.35-2.89.13-.15.38-.25.55-.37,2.42-1.61-9.81-2.66-10.48-2.69-3.85-.16-7.72-.12-11.56.22-2.08.18-5.12.13-6.89,1.31h0Z"/>
    </g>
  </g>
</svg>